<svg width="24" height="24" viewBox="0 0 24 24" fill="none" xmlns="http://www.w3.org/2000/svg">
<path d="M15.9642 22C16.833 22 17.5725 21.8748 18.1827 21.6243C18.7928 21.374 19.3499 20.9617 19.8539 20.3876C19.8937 20.3475 19.9318 20.3057 19.9683 20.2623C20.0048 20.2189 20.0429 20.1772 20.0827 20.1371C20.3811 19.8033 20.6016 19.4712 20.7442 19.1407C20.8868 18.8102 20.9581 18.4881 20.9581 18.1742C20.9581 17.8137 20.852 17.4648 20.6398 17.1277C20.4276 16.7905 20.0993 16.4683 19.655 16.1612L16.7601 14.1381C16.3158 13.831 15.8465 13.6742 15.3524 13.6675C14.8584 13.6608 14.4025 13.8645 13.9847 14.2784L13.2186 15.0495C13.1059 15.163 12.9981 15.2265 12.8953 15.2399C12.7926 15.2532 12.6815 15.2232 12.5621 15.1497C12.3897 15.0362 12.1658 14.8659 11.8906 14.6389C11.6154 14.4119 11.3285 14.1632 11.0301 13.8928C10.7317 13.6224 10.4598 13.3637 10.2144 13.1166C9.95572 12.8563 9.70371 12.5926 9.45833 12.3255C9.21294 12.0584 8.99077 11.7997 8.79181 11.5493C8.59285 11.2989 8.42706 11.0669 8.29442 10.8533C8.2281 10.7398 8.20158 10.6313 8.21484 10.5278C8.2281 10.4243 8.29111 10.3158 8.40384 10.2023L9.15989 9.43112C9.5777 9.0105 9.78329 8.55148 9.77666 8.05407C9.77002 7.55665 9.61418 7.08428 9.30911 6.63694L7.28968 3.72258C6.98462 3.27524 6.66628 2.94642 6.33468 2.7361C6.00308 2.52579 5.65822 2.41729 5.3001 2.41062C4.66344 2.39726 4.01351 2.69104 3.35031 3.29194C3.30389 3.332 3.26078 3.37039 3.22098 3.40711C3.1812 3.44383 3.13809 3.47888 3.09167 3.51227C2.52795 4.01969 2.12174 4.58053 1.87305 5.19478C1.62435 5.80904 1.5 6.55015 1.5 7.41811C1.5 8.37288 1.69067 9.3844 2.072 10.4527C2.45334 11.5209 3.01374 12.6109 3.7532 13.7226C4.49266 14.8342 5.39626 15.9275 6.46401 17.0025C7.52512 18.0707 8.60612 18.9771 9.70702 19.7216C10.8079 20.466 11.8889 21.0318 12.95 21.419C14.0111 21.8063 15.0159 22 15.9642 22ZM15.9742 20.4576C15.1253 20.4776 14.2184 20.2907 13.2535 19.8968C12.2885 19.5029 11.3203 18.9637 10.3487 18.2794C9.37708 17.595 8.46353 16.8222 7.60801 15.9609C6.74586 15.093 5.96495 14.1599 5.26528 13.1617C4.56562 12.1636 4.01351 11.1687 3.60895 10.1772C3.20441 9.18576 3.00877 8.26605 3.02203 7.41811C3.03529 6.86395 3.13809 6.35486 3.33042 5.89083C3.52274 5.4268 3.81455 5.02453 4.20583 4.68402C4.23899 4.65064 4.27049 4.62226 4.30033 4.59889C4.33018 4.57552 4.36168 4.55049 4.39484 4.52378C4.54074 4.39692 4.69162 4.29844 4.84747 4.22834C5.00332 4.15823 5.15088 4.12318 5.29015 4.12318C5.60848 4.12318 5.85718 4.26005 6.03624 4.53379L7.96614 7.44816C8.07226 7.6084 8.12365 7.77198 8.12033 7.9389C8.11702 8.10581 8.03909 8.26605 7.88656 8.41962L7.01115 9.30093C6.66628 9.64145 6.49385 10.0103 6.49385 10.4076C6.49385 10.8049 6.61985 11.1704 6.87187 11.5042C7.15704 11.8915 7.51848 12.3355 7.95619 12.8362C8.3939 13.337 8.80176 13.7776 9.17978 14.1582C9.43843 14.412 9.73189 14.6907 10.0602 14.9945C10.3885 15.2982 10.7167 15.592 11.045 15.8758C11.3733 16.1595 11.6634 16.3982 11.9155 16.5918C12.2537 16.8389 12.6185 16.964 13.0097 16.9674C13.401 16.9707 13.7691 16.7988 14.1139 16.4516L14.9894 15.5703C15.1419 15.41 15.3011 15.3299 15.4668 15.3299C15.6327 15.3299 15.7918 15.38 15.9444 15.4802L18.8392 17.4231C18.9917 17.5232 19.0995 17.6367 19.1625 17.7636C19.2255 17.8904 19.257 18.0273 19.257 18.1742C19.257 18.4747 19.121 18.7785 18.8491 19.0856C18.8226 19.119 18.7978 19.1507 18.7745 19.1807C18.7513 19.2108 18.7265 19.2425 18.7 19.2759C18.3551 19.6698 17.9522 19.9636 17.4912 20.1572C17.0303 20.3508 16.5246 20.451 15.9742 20.4576ZM12.5919 8.04906C12.7577 8.04906 12.8953 7.99565 13.0047 7.88882C13.1142 7.78199 13.1689 7.6518 13.1689 7.49824V5.97595C13.1689 5.81571 13.1142 5.68051 13.0047 5.57035C12.8953 5.46018 12.7577 5.4051 12.5919 5.4051C12.4394 5.4051 12.3101 5.46018 12.2039 5.57035C12.0979 5.68051 12.0448 5.81571 12.0448 5.97595V7.49824C12.0448 7.6518 12.0979 7.78199 12.2039 7.88882C12.3101 7.99565 12.4394 8.04906 12.5919 8.04906ZM14.9397 9.73158C15.0988 9.73158 15.2314 9.67816 15.3376 9.57134C15.4436 9.46451 15.4967 9.32764 15.4967 9.16072V4.29344C15.4967 4.13987 15.4436 4.00801 15.3376 3.89785C15.2314 3.78768 15.0988 3.73259 14.9397 3.73259C14.7805 3.73259 14.6462 3.78768 14.5368 3.89785C14.4273 4.00801 14.3726 4.13987 14.3726 4.29344V9.16072C14.3726 9.32764 14.4273 9.46451 14.5368 9.57134C14.6462 9.67816 14.7805 9.73158 14.9397 9.73158ZM17.2674 11.4642C17.4266 11.4642 17.5609 11.4108 17.6703 11.3039C17.7798 11.1971 17.8345 11.0636 17.8345 10.9033V2.58087C17.8345 2.41395 17.7798 2.27541 17.6703 2.16525C17.5609 2.05508 17.4266 2 17.2674 2C17.1149 2 16.9839 2.05508 16.8745 2.16525C16.765 2.27541 16.7103 2.41395 16.7103 2.58087V10.9033C16.7103 11.0636 16.7634 11.1971 16.8695 11.3039C16.9756 11.4108 17.1082 11.4642 17.2674 11.4642ZM19.5953 10.4727C19.7544 10.4727 19.8887 10.4176 19.9982 10.3074C20.1076 10.1973 20.1623 10.0621 20.1623 9.90184V3.55232C20.1623 3.39876 20.1076 3.26856 19.9982 3.16174C19.8887 3.05491 19.7544 3.0015 19.5953 3.0015C19.4427 3.0015 19.3117 3.05491 19.2023 3.16174C19.0929 3.26856 19.0382 3.39876 19.0382 3.55232V9.90184C19.0382 10.0621 19.0929 10.1973 19.2023 10.3074C19.3117 10.4176 19.4427 10.4727 19.5953 10.4727ZM21.933 8.57986C22.0988 8.57986 22.2347 8.52644 22.3409 8.41962C22.447 8.31279 22.5 8.17926 22.5 8.01901V5.44516C22.5 5.28492 22.447 5.15139 22.3409 5.04456C22.2347 4.93773 22.0988 4.88432 21.933 4.88432C21.7805 4.88432 21.6495 4.9394 21.5401 5.04956C21.4306 5.15973 21.3759 5.2916 21.3759 5.44516V8.01901C21.3759 8.17258 21.4306 8.30444 21.5401 8.4146C21.6495 8.52477 21.7805 8.57986 21.933 8.57986Z" fill="black" fill-opacity="0.8"/>
</svg>
