<svg width="24" height="24" viewBox="0 0 24 24" fill="none" xmlns="http://www.w3.org/2000/svg">
<path d="M16.7915 22C17.6799 22 18.4361 21.8726 19.0601 21.6179C19.684 21.3632 20.2537 20.9438 20.7691 20.3597C20.8098 20.319 20.8488 20.2765 20.8861 20.2323C20.9234 20.1882 20.9624 20.1457 21.0031 20.1049C21.3082 19.7653 21.5337 19.4274 21.6796 19.0912C21.8254 18.7549 21.8983 18.4272 21.8983 18.1081C21.8983 17.7412 21.7898 17.3863 21.5728 17.0433C21.3558 16.7003 21.0201 16.3726 20.5657 16.0602L17.6053 14.002C17.1509 13.6896 16.6711 13.53 16.1658 13.5232C15.6606 13.5164 15.1943 13.7236 14.7671 14.1447L13.9837 14.9292C13.8684 15.0447 13.7582 15.1092 13.6531 15.1228C13.548 15.1364 13.4344 15.1058 13.3123 15.0311C13.136 14.9156 12.9071 14.7424 12.6257 14.5115C12.3442 14.2806 12.0509 14.0275 11.7457 13.7524C11.4405 13.4773 11.1624 13.2141 10.9115 12.9628C10.647 12.698 10.3893 12.4297 10.1384 12.1579C9.88743 11.8862 9.66023 11.623 9.45677 11.3683C9.25331 11.1136 9.08376 10.8776 8.94812 10.6602C8.88031 10.5448 8.85318 10.4344 8.86674 10.3291C8.88031 10.2238 8.94473 10.1134 9.06002 9.99798L9.83317 9.21345C10.2604 8.78554 10.4707 8.31857 10.4639 7.81254C10.4571 7.30651 10.2977 6.82595 9.98577 6.37086L7.92065 3.40602C7.60869 2.95093 7.28315 2.6164 6.94405 2.40245C6.60495 2.18849 6.25229 2.07811 5.88607 2.07132C5.235 2.05773 4.57037 2.3566 3.89217 2.96791C3.8447 3.00866 3.80061 3.04772 3.75992 3.08508C3.71923 3.12243 3.67515 3.15809 3.62767 3.19206C3.0512 3.70828 2.63581 4.27883 2.38149 4.90372C2.12716 5.52861 2 6.28256 2 7.16557C2 8.13687 2.19498 9.16591 2.58494 10.2527C2.97491 11.3395 3.54798 12.4483 4.30417 13.5792C5.06036 14.7101 5.98441 15.8224 7.07631 16.916C8.16142 18.0028 9.26688 18.9248 10.3927 19.6821C11.5185 20.4395 12.6239 21.0151 13.709 21.4091C14.7941 21.803 15.8216 22 16.7915 22ZM16.8017 20.431C15.9336 20.4514 15.0061 20.2612 14.0194 19.8604C13.0326 19.4597 12.0424 18.9112 11.0488 18.215C10.0553 17.5188 9.12106 16.7325 8.24619 15.8563C7.36453 14.9733 6.56596 14.0241 5.85046 13.0087C5.13497 11.9932 4.57037 10.9812 4.15666 9.9725C3.74297 8.96384 3.5429 8.0282 3.55646 7.16557C3.57002 6.6018 3.67515 6.08388 3.87183 5.61182C4.0685 5.13975 4.36691 4.73052 4.76704 4.38411C4.80095 4.35015 4.83317 4.32128 4.86368 4.29751C4.8942 4.27373 4.92642 4.24826 4.96033 4.2211C5.10953 4.09204 5.26382 3.99185 5.42319 3.92053C5.58257 3.84921 5.73347 3.81355 5.87589 3.81355C6.20143 3.81355 6.45575 3.95279 6.63886 4.23128L8.61242 7.19614C8.72093 7.35915 8.77349 7.52556 8.7701 7.69537C8.76671 7.86517 8.68702 8.02819 8.53103 8.18441L7.63582 9.08101C7.28315 9.42742 7.10682 9.80269 7.10682 10.2068C7.10682 10.611 7.23568 10.9829 7.4934 11.3225C7.78502 11.7164 8.15464 12.1681 8.60224 12.6776C9.04985 13.187 9.46694 13.6353 9.85352 14.0224C10.118 14.2805 10.4181 14.5641 10.7538 14.8732C11.0895 15.1822 11.4252 15.4811 11.7609 15.7697C12.0967 16.0584 12.3934 16.3013 12.6511 16.4982C12.997 16.7495 13.37 16.8769 13.7701 16.8803C14.1702 16.8837 14.5466 16.7088 14.8993 16.3556L15.7945 15.459C15.9505 15.296 16.1133 15.2145 16.2828 15.2145C16.4524 15.2145 16.6152 15.2654 16.7711 15.3673L19.7315 17.3438C19.8874 17.4457 19.9977 17.5612 20.0621 17.6903C20.1265 17.8193 20.1587 17.9586 20.1587 18.1081C20.1587 18.4137 20.0196 18.7227 19.7416 19.0351C19.7145 19.0692 19.6891 19.1014 19.6653 19.132C19.6416 19.1625 19.6162 19.1948 19.5891 19.2288C19.2364 19.6295 18.8244 19.9283 18.353 20.1253C17.8816 20.3223 17.3645 20.4242 16.8017 20.431ZM21.2371 2C21.0336 2 20.8572 2.07472 20.7081 2.22415L16.3337 6.62557L14.7671 8.31687L14.94 5.33164V3.81355C14.94 3.61658 14.8739 3.44847 14.7416 3.30922C14.6093 3.16998 14.4415 3.09696 14.238 3.09017C14.0346 3.07658 13.8583 3.14111 13.709 3.28375C13.5599 3.42639 13.4853 3.60299 13.4853 3.81355V9.71269C13.4853 9.98438 13.5514 10.1882 13.6836 10.324C13.8158 10.4599 14.0176 10.5278 14.2889 10.5278H20.1994C20.4096 10.5278 20.5859 10.4531 20.7284 10.3036C20.8708 10.1542 20.9386 9.9742 20.9318 9.76364C20.9183 9.55987 20.842 9.39346 20.703 9.2644C20.5639 9.13534 20.3961 9.07081 20.1994 9.07081H18.6633L15.6724 9.23383L17.3815 7.67499L21.7558 3.27356C21.9186 3.11055 22 2.92376 22 2.7132C22 2.50942 21.9271 2.33962 21.7813 2.20377C21.6355 2.06792 21.4541 2 21.2371 2Z" fill="black" fill-opacity="0.8"/>
<path d="M16.8017 20.431C15.9336 20.4514 15.0061 20.2612 14.0194 19.8604C13.0326 19.4597 12.0424 18.9112 11.0488 18.215C10.0553 17.5188 9.12106 16.7325 8.24619 15.8563C7.36453 14.9733 6.56596 14.0241 5.85046 13.0087C5.13497 11.9932 4.57037 10.9812 4.15666 9.9725C3.74297 8.96384 3.5429 8.0282 3.55646 7.16557C3.57002 6.6018 3.67515 6.08388 3.87183 5.61182C4.0685 5.13975 4.36691 4.73052 4.76704 4.38411C4.80095 4.35015 4.83317 4.32128 4.86368 4.29751C4.8942 4.27373 4.92642 4.24826 4.96033 4.2211C5.10953 4.09204 5.26382 3.99185 5.42319 3.92053C5.58257 3.84921 5.73347 3.81355 5.87589 3.81355C6.20143 3.81355 6.45575 3.95279 6.63886 4.23128L8.61242 7.19614C8.72093 7.35915 8.77349 7.52556 8.7701 7.69537C8.76671 7.86517 8.68702 8.02819 8.53103 8.18441L7.63582 9.08101C7.28315 9.42742 7.10682 9.80269 7.10682 10.2068C7.10682 10.611 7.23568 10.9829 7.4934 11.3225C7.78502 11.7164 8.15464 12.1681 8.60224 12.6776C9.04985 13.187 9.46694 13.6353 9.85352 14.0224C10.118 14.2805 10.4181 14.5641 10.7538 14.8732C11.0895 15.1822 11.4252 15.4811 11.7609 15.7697C12.0967 16.0584 12.3934 16.3013 12.6511 16.4982C12.997 16.7495 13.37 16.8769 13.7701 16.8803C14.1702 16.8837 14.5466 16.7088 14.8993 16.3556L15.7945 15.459C15.9505 15.296 16.1133 15.2145 16.2828 15.2145C16.4524 15.2145 16.6152 15.2654 16.7711 15.3673L19.7315 17.3438C19.8874 17.4457 19.9977 17.5612 20.0621 17.6903C20.1265 17.8193 20.1587 17.9586 20.1587 18.1081C20.1587 18.4137 20.0196 18.7227 19.7416 19.0351C19.7145 19.0692 19.6891 19.1014 19.6653 19.132C19.6416 19.1625 19.6162 19.1948 19.5891 19.2288C19.2364 19.6295 18.8244 19.9283 18.353 20.1253C17.8816 20.3223 17.3645 20.4242 16.8017 20.431Z" fill="black" fill-opacity="0.8"/>
</svg>
