<svg width="24" height="24" viewBox="0 0 24 24" fill="none" xmlns="http://www.w3.org/2000/svg">
<path d="M17.706 21C18.3688 21 18.9888 20.8823 19.5661 20.647C20.1434 20.4117 20.661 20.0348 21.1187 19.5164C21.392 19.2095 21.6072 18.8838 21.7643 18.5393C21.9214 18.1949 22 17.8521 22 17.5111C22 17.2519 21.9488 17.0046 21.8463 16.7693C21.7438 16.5339 21.5696 16.331 21.3237 16.1605C20.7976 15.7922 20.2715 15.4221 19.7455 15.0503C19.2193 14.6786 18.6967 14.3052 18.1774 13.93C17.9384 13.7663 17.7163 13.6435 17.5114 13.5617C17.3064 13.4798 17.1116 13.4389 16.9272 13.4389C16.6949 13.4389 16.4694 13.502 16.2508 13.6282C16.0322 13.7544 15.8067 13.9335 15.5745 14.1653L14.8468 14.8816C14.7443 14.9907 14.6145 15.0452 14.4574 15.0452C14.3754 15.0452 14.2985 15.0316 14.2268 15.0044C14.1551 14.977 14.0953 14.9532 14.0475 14.9327C13.7264 14.7622 13.3164 14.4672 12.8177 14.0477C12.3189 13.6282 11.8168 13.1661 11.3112 12.6614C10.8125 12.1566 10.3513 11.6552 9.92773 11.1573C9.50414 10.6593 9.21036 10.2535 9.0464 9.93971C9.01906 9.88514 8.99344 9.82204 8.96953 9.75042C8.94562 9.6788 8.93366 9.60547 8.93366 9.53044C8.93366 9.38038 8.9849 9.25419 9.08739 9.15187L9.815 8.40497C10.0405 8.17305 10.2181 7.94796 10.3479 7.72968C10.4777 7.51141 10.5426 7.28631 10.5426 7.0544C10.5426 6.87023 10.4999 6.67583 10.4145 6.4712C10.3291 6.26657 10.201 6.04488 10.0302 5.80614C9.66812 5.29457 9.3026 4.77958 8.93366 4.26119C8.56473 3.74278 8.1958 3.22438 7.82687 2.70598C7.64923 2.46042 7.43744 2.28137 7.19148 2.16882C6.94552 2.05627 6.6859 2 6.41262 2C6.06418 2 5.72087 2.07674 5.38268 2.23021C5.0445 2.38368 4.72852 2.60366 4.43473 2.89015C3.93599 3.36763 3.57218 3.89455 3.3433 4.47093C3.11443 5.04731 3 5.66291 3 6.31773C3 7.08169 3.14176 7.87975 3.42529 8.71191C3.70882 9.54406 4.09996 10.3762 4.5987 11.2084C5.09061 11.0924 5.60302 11.0345 6.13593 11.0345C7.04459 11.0345 7.8986 11.2067 8.69795 11.5512C9.49731 11.8956 10.201 12.3714 10.8091 12.9785C11.4171 13.5855 11.8937 14.2864 12.2387 15.081C12.5837 15.8757 12.7562 16.7266 12.7562 17.6338C12.7562 18.1864 12.6845 18.7218 12.5411 19.2402C13.4361 19.7859 14.3225 20.2156 15.2004 20.5294C16.0783 20.8431 16.9135 21 17.706 21Z" fill="black" fill-opacity="0.8"/>
<path fill-rule="evenodd" clip-rule="evenodd" d="M8.91928 21.6063C8.31561 21.8688 7.67585 22 7 22C6.31758 22 5.67454 21.8704 5.07087 21.6113C4.46719 21.352 3.9357 20.9928 3.47637 20.5334C3.01706 20.0741 2.65617 19.5426 2.3937 18.939C2.13123 18.3353 2 17.689 2 17C2 16.3111 2.13123 15.6664 2.3937 15.0659C2.65617 14.4656 3.01706 13.9341 3.47637 13.4715C3.9357 13.0089 4.46719 12.648 5.07087 12.3888C5.67454 12.1296 6.31758 12 7 12C7.68898 12 8.3353 12.1296 8.93898 12.3888C9.54265 12.648 10.0741 13.0072 10.5335 13.4666C10.9928 13.9259 11.352 14.4574 11.6112 15.0611C11.8704 15.6648 12 16.3111 12 17C12 17.6824 11.8688 18.3255 11.6063 18.9291C11.3438 19.5328 10.9813 20.0643 10.5187 20.5237C10.0561 20.983 9.52296 21.3439 8.91928 21.6063ZM6.56201 19.9626C6.67027 20.0742 6.81627 20.13 7 20.13C7.18373 20.13 7.32973 20.0742 7.43799 19.9626C7.54626 19.851 7.60039 19.7067 7.60039 19.5296V17.6004H9.52952C9.70669 17.6004 9.85105 17.5463 9.96259 17.4381C10.0741 17.3298 10.1299 17.1838 10.1299 17C10.1299 16.8163 10.0741 16.6703 9.96259 16.562C9.85105 16.4538 9.70669 16.3997 9.52952 16.3997H7.60039V14.4705C7.60039 14.2933 7.54626 14.1489 7.43799 14.0374C7.32973 13.9259 7.18373 13.8701 7 13.8701C6.81627 13.8701 6.67027 13.9259 6.56201 14.0374C6.45374 14.1489 6.3996 14.2933 6.3996 14.4705V16.3997H4.47047C4.29331 16.3997 4.14895 16.4538 4.0374 16.562C3.92585 16.6703 3.87008 16.8163 3.87008 17C3.87008 17.1838 3.92585 17.3298 4.0374 17.4381C4.14895 17.5463 4.29331 17.6004 4.47047 17.6004H6.3996V19.5296C6.3996 19.7067 6.45374 19.851 6.56201 19.9626Z" fill="#34C759"/>
</svg>
