<svg width="24" height="24" viewBox="0 0 24 24" fill="none" xmlns="http://www.w3.org/2000/svg">
<path d="M7.93203 16.0372C8.86407 16.9677 9.84789 17.8077 10.8835 18.5574C11.9191 19.307 12.9547 19.9015 13.9903 20.3408C15.0259 20.7803 16.0065 21 16.932 21C17.5598 21 18.1456 20.8869 18.6892 20.6607C19.233 20.4346 19.7249 20.0792 20.165 19.5945C20.4239 19.3102 20.6278 19.0048 20.7767 18.6785C20.9256 18.3522 21 18.0242 21 17.6946C21 17.4491 20.9515 17.2148 20.8544 16.9919C20.7573 16.769 20.5922 16.5768 20.3592 16.4152L17.3786 14.3021C17.1521 14.147 16.9417 14.0307 16.7475 13.9532C16.5534 13.8756 16.3689 13.8368 16.1942 13.8368C15.9741 13.8368 15.7605 13.8966 15.5534 14.0162C15.3463 14.1357 15.1327 14.3053 14.9126 14.5251L14.2233 15.2035C14.1262 15.3069 14.0032 15.3586 13.8544 15.3586C13.7767 15.3586 13.7039 15.3457 13.6359 15.3198C13.5679 15.294 13.5113 15.2714 13.466 15.252C13.1618 15.0904 12.7735 14.8109 12.301 14.4135C11.8285 14.0162 11.3527 13.5784 10.8738 13.1001C10.4013 12.6219 9.96439 12.147 9.56309 11.6753C9.1618 11.2036 8.88348 10.8191 8.72815 10.5218C8.70226 10.4701 8.67799 10.4103 8.65533 10.3425C8.63268 10.2746 8.62135 10.2052 8.62135 10.1341C8.62135 9.99192 8.6699 9.87237 8.76698 9.77544L9.4563 9.06785C9.66989 8.84814 9.83818 8.6349 9.96115 8.42811C10.0841 8.22133 10.1456 8.00808 10.1456 7.78836C10.1456 7.61389 10.1052 7.42972 10.0243 7.23586C9.94336 7.042 9.822 6.83198 9.66018 6.60582L7.57281 3.66882C7.40452 3.43619 7.20387 3.26656 6.97087 3.15994C6.73786 3.05331 6.4919 3 6.233 3C5.56634 3 4.94174 3.2811 4.35922 3.84329C3.88673 4.29564 3.54207 4.79483 3.32524 5.34087C3.10841 5.88691 3 6.47011 3 7.09047C3 8.021 3.21683 8.99838 3.65048 10.0226C4.08414 11.0468 4.67313 12.0727 5.41747 13.1001C6.16181 14.1276 7 15.1066 7.93203 16.0372Z" fill="#34C759"/>
</svg>
