<svg width="24" height="24" viewBox="0 0 24 24" fill="none" xmlns="http://www.w3.org/2000/svg">
<path d="M20.7275 15.337L17.9008 13.3748C17.4669 13.077 17.0088 12.9248 16.5263 12.9184C16.0438 12.9119 15.5987 13.1094 15.1907 13.5109L14.5399 14.1617C14.4168 14.2782 14.2743 14.3446 14.1125 14.3609C13.9505 14.377 13.7919 14.3366 13.6365 14.2394C13.5199 14.1682 13.3386 14.0306 13.0925 13.8265C12.8464 13.6226 12.5809 13.3911 12.296 13.1321C12.011 12.873 11.7488 12.6237 11.5092 12.3841C11.2566 12.1316 11.0138 11.879 10.7807 11.6264C10.5475 11.3739 10.3403 11.1376 10.159 10.9173C9.97766 10.6972 9.84167 10.5127 9.75101 10.3637C9.66035 10.2083 9.62149 10.0496 9.63444 9.88776C9.64739 9.72586 9.71539 9.5834 9.83843 9.46036L10.4795 8.80957C10.8875 8.4016 11.0883 7.95639 11.0818 7.47396C11.0753 6.99152 10.9231 6.53337 10.6252 6.09951L8.66308 3.27289C8.35872 2.83902 8.04464 2.52009 7.72085 2.31612C7.39706 2.11213 7.06032 2.0069 6.71063 2.00042C6.09542 1.98747 5.4608 2.2724 4.80675 2.85521L4.56391 3.0689C4.01346 3.56105 3.6152 4.10501 3.36912 4.70077C3.12304 5.29653 3 6.01533 3 6.85716C3 7.51119 3.10685 8.21542 3.32056 8.96983C3.53425 9.72424 3.88071 10.5742 4.35992 11.5196C4.59304 11.4225 4.83265 11.3383 5.07872 11.2671C5.32481 11.1959 5.57736 11.1408 5.83639 11.102C5.35719 10.1889 5.01073 9.39399 4.79703 8.71728C4.58333 8.04058 4.47972 7.42054 4.48619 6.85716C4.49914 6.31968 4.59952 5.82591 4.78732 5.37585C4.97512 4.9258 5.26005 4.53564 5.64212 4.20538C5.6745 4.173 5.70526 4.14548 5.7344 4.12281C5.76354 4.10015 5.7943 4.07587 5.82668 4.04997C5.96915 3.92693 6.11647 3.83141 6.26865 3.76341C6.42083 3.69543 6.56816 3.66143 6.71063 3.66143C7.02147 3.66143 7.26107 3.79418 7.42943 4.05968L9.3139 6.88629C9.41751 7.04171 9.46769 7.20037 9.46445 7.36226C9.46122 7.52415 9.38513 7.67956 9.23618 7.8285L8.38138 8.68328C8.0576 9.00059 7.90703 9.36323 7.92969 9.77119C7.95235 10.1792 8.12558 10.5709 8.44938 10.9465C8.76669 11.3156 9.12933 11.7074 9.53731 12.1219C9.94528 12.5363 10.3694 12.9605 10.8098 13.3943C11.2113 13.8023 11.5934 14.1827 11.956 14.5356C12.3187 14.8886 12.6845 15.2205 13.0536 15.5313C13.4292 15.8551 13.821 16.0299 14.2291 16.0559C14.637 16.0817 14.9996 15.936 15.3169 15.6187L16.1718 14.7639C16.3207 14.6085 16.4761 14.5307 16.638 14.5307C16.7999 14.5307 16.9586 14.5793 17.114 14.6765L19.9406 16.5609C20.0831 16.6581 20.1851 16.7682 20.2467 16.8912C20.3081 17.0142 20.3389 17.1469 20.3389 17.2894C20.3389 17.5808 20.2094 17.8754 19.9504 18.1734C19.9245 18.2057 19.9002 18.2365 19.8776 18.2656C19.8549 18.2948 19.8274 18.3255 19.795 18.3579C19.4647 18.74 19.0729 19.0249 18.6196 19.2127C18.1663 19.4005 17.6709 19.4976 17.1334 19.504C16.5506 19.517 15.9192 19.4231 15.2393 19.2223C14.5593 19.0216 13.779 18.6784 12.8983 18.1928C12.8658 18.4518 12.8124 18.7043 12.7379 18.9504C12.6635 19.1965 12.5744 19.4328 12.4709 19.6595C13.4422 20.1517 14.3002 20.4981 15.045 20.6988C15.7897 20.8996 16.4826 21 17.1237 21C17.972 21 18.6941 20.8786 19.2899 20.6357C19.8856 20.3928 20.4296 19.993 20.9218 19.4361C20.9606 19.3972 20.9979 19.3568 21.0335 19.3146C21.0691 19.2725 21.1063 19.2321 21.1452 19.1933C21.4365 18.8695 21.6519 18.5473 21.7911 18.2268C21.9304 17.9062 22 17.5938 22 17.2894C22 16.9397 21.8964 16.6014 21.6892 16.2744C21.4819 15.9473 21.1614 15.6349 20.7275 15.337Z" fill="black" fill-opacity="0.8"/>
<path fill-rule="evenodd" clip-rule="evenodd" d="M8.91928 21.6063C8.31561 21.8688 7.67585 22 7 22C6.31758 22 5.67454 21.8704 5.07087 21.6113C4.46719 21.352 3.9357 20.9928 3.47637 20.5334C3.01706 20.0741 2.65617 19.5426 2.3937 18.939C2.13123 18.3353 2 17.689 2 17C2 16.3111 2.13123 15.6664 2.3937 15.0659C2.65617 14.4656 3.01706 13.9341 3.47637 13.4715C3.9357 13.0089 4.46719 12.648 5.07087 12.3888C5.67454 12.1296 6.31758 12 7 12C7.68898 12 8.3353 12.1296 8.93898 12.3888C9.54265 12.648 10.0741 13.0072 10.5335 13.4666C10.9928 13.9259 11.352 14.4574 11.6112 15.0611C11.8704 15.6648 12 16.3111 12 17C12 17.6824 11.8688 18.3255 11.6063 18.9291C11.3438 19.5328 10.9813 20.0643 10.5187 20.5237C10.0561 20.983 9.52296 21.3439 8.91928 21.6063ZM6.56201 19.9626C6.67027 20.0742 6.81627 20.13 7 20.13C7.18373 20.13 7.32973 20.0742 7.43799 19.9626C7.54626 19.851 7.60039 19.7067 7.60039 19.5296V17.6004H9.52952C9.70669 17.6004 9.85105 17.5463 9.96259 17.4381C10.0741 17.3298 10.1299 17.1838 10.1299 17C10.1299 16.8163 10.0741 16.6703 9.96259 16.562C9.85105 16.4538 9.70669 16.3997 9.52952 16.3997H7.60039V14.4705C7.60039 14.2933 7.54626 14.1489 7.43799 14.0374C7.32973 13.9259 7.18373 13.8701 7 13.8701C6.81627 13.8701 6.67027 13.9259 6.56201 14.0374C6.45374 14.1489 6.3996 14.2933 6.3996 14.4705V16.3997H4.47047C4.29331 16.3997 4.14895 16.4538 4.0374 16.562C3.92585 16.6703 3.87008 16.8163 3.87008 17C3.87008 17.1838 3.92585 17.3298 4.0374 17.4381C4.14895 17.5463 4.29331 17.6004 4.47047 17.6004H6.3996V19.5296C6.3996 19.7067 6.45374 19.851 6.56201 19.9626Z" fill="#34C759"/>
</svg>
