<svg width="24" height="24" viewBox="0 0 24 24" fill="none" xmlns="http://www.w3.org/2000/svg">
<path d="M16.3803 21C17.184 21 17.8681 20.885 18.4325 20.6549C18.9969 20.4249 19.5122 20.046 19.9785 19.5184C20.0153 19.4816 20.0506 19.4433 20.0843 19.4034C20.1181 19.3636 20.1533 19.3252 20.1902 19.2884C20.4662 18.9816 20.6702 18.6764 20.8021 18.3727C20.934 18.0691 21 17.7731 21 17.4847C21 17.1535 20.9018 16.8329 20.7055 16.5231C20.5092 16.2133 20.2055 15.9172 19.7945 15.6351L17.1166 13.7763C16.7055 13.4941 16.2715 13.3499 15.8144 13.3437C15.3573 13.3376 14.9356 13.5247 14.5491 13.9051L13.8405 14.6136C13.7362 14.7179 13.6365 14.7762 13.5414 14.7885C13.4463 14.8007 13.3466 14.7731 13.2423 14.7057C13.0767 14.6014 12.8666 14.4449 12.6119 14.2364C12.3573 14.0278 12.092 13.7992 11.8159 13.5508C11.5399 13.3023 11.2883 13.0646 11.0613 12.8376C10.8221 12.5983 10.5905 12.356 10.3665 12.1106C10.1426 11.8652 9.93711 11.6275 9.74999 11.3974C9.56287 11.1674 9.40796 10.9542 9.28526 10.7579C9.22392 10.6536 9.19938 10.5539 9.21165 10.4588C9.22392 10.3637 9.2822 10.264 9.38649 10.1597L10.0859 9.45117C10.4724 9.06468 10.6626 8.64291 10.6564 8.18587C10.6503 7.72882 10.5061 7.29478 10.2239 6.88375L8.36502 4.20589C8.07668 3.79486 7.77913 3.49272 7.47238 3.29947C7.16563 3.10623 6.84662 3.00653 6.51533 3.0004C5.93251 2.98813 5.33128 3.25806 4.71166 3.8102C4.67484 3.84701 4.6365 3.88228 4.59663 3.91603C4.55675 3.94977 4.5184 3.98197 4.4816 4.01265C3.96012 4.47889 3.58282 4.99422 3.34969 5.55862C3.11656 6.12303 3 6.80399 3 7.60152C3 8.4788 3.17638 9.40823 3.52914 10.3898C3.8819 11.3714 4.4003 12.3729 5.08435 13.3943C5.7684 14.4158 6.60429 15.4204 7.59202 16.408C8.57974 17.3896 9.58281 18.2224 10.6012 18.9065C11.6196 19.5905 12.6181 20.1105 13.5966 20.4663C14.5751 20.8221 15.503 21 16.3803 21ZM16.3896 19.5829C15.6104 19.6013 14.773 19.4295 13.8773 19.0675C12.9816 18.7055 12.0859 18.2102 11.1902 17.5814C10.2945 16.9526 9.44784 16.2424 8.65029 15.451C7.85275 14.6535 7.13036 13.7962 6.48312 12.879C5.83589 11.9618 5.32515 11.0478 4.95091 10.1367C4.57668 9.22572 4.3957 8.38065 4.40797 7.60152C4.42024 7.09233 4.51533 6.62455 4.69325 6.19818C4.87116 5.77181 5.1411 5.40218 5.50306 5.0893C5.53374 5.05864 5.56288 5.03257 5.59048 5.01109C5.61809 4.98962 5.64724 4.96662 5.67791 4.94208C5.81288 4.82551 5.95245 4.73502 6.09662 4.67061C6.24079 4.60619 6.38036 4.57398 6.51533 4.57398C6.80981 4.57398 7.0368 4.69975 7.19631 4.95128L8.98159 7.62913C9.07975 7.77636 9.12729 7.92667 9.12422 8.08004C9.12115 8.23341 9.04907 8.38064 8.90796 8.52174L8.09815 9.33155C7.77913 9.64442 7.61962 9.98337 7.61962 10.3484C7.61962 10.7134 7.73619 11.0493 7.96932 11.356C8.23312 11.7119 8.56747 12.1198 8.97238 12.5799C9.37729 13.0401 9.75765 13.445 10.1135 13.7946C10.3466 14.0278 10.615 14.2839 10.9187 14.563C11.2224 14.8422 11.5261 15.1121 11.8297 15.3728C12.1334 15.6336 12.4049 15.8529 12.6442 16.0308C12.9509 16.2578 13.2853 16.3728 13.6472 16.3759C14.0092 16.3789 14.3497 16.2209 14.6687 15.9019L15.4785 15.0922C15.6196 14.9449 15.7668 14.8713 15.9202 14.8713C16.0736 14.8713 16.2239 14.9173 16.3712 15.0094L19.049 16.7946C19.184 16.8866 19.2807 16.9909 19.339 17.1074C19.3972 17.224 19.4263 17.3498 19.4263 17.4847C19.4263 17.7608 19.3036 18.04 19.0582 18.3221C19.0337 18.3528 19.0107 18.3819 18.9893 18.4096C18.9678 18.4372 18.9417 18.4663 18.911 18.4969C18.5981 18.8589 18.2269 19.1289 17.7975 19.3068C17.368 19.4847 16.8987 19.5767 16.3896 19.5829Z" fill="#34C759"/>
</svg>
