<svg width="24" height="24" viewBox="0 0 24 24" fill="none" xmlns="http://www.w3.org/2000/svg">
<path d="M1 14.5443C1 14.9004 1.0697 15.2264 1.20909 15.5221C1.34849 15.8179 1.55 16.0548 1.81364 16.2329C2.07727 16.411 2.4 16.5 2.78182 16.5C2.89091 16.5 3.0303 16.494 3.2 16.4819C3.3697 16.4698 3.57273 16.4426 3.80909 16.4004L7.02728 15.9205C7.68788 15.8239 8.13485 15.6308 8.36819 15.341C8.60152 15.0513 8.71819 14.6227 8.71819 14.0553C8.71819 13.8803 8.71971 13.7098 8.72273 13.5438C8.72576 13.3778 8.72728 13.2103 8.72728 13.0412C8.72728 12.7938 8.8394 12.6429 9.06364 12.5885C9.39698 12.5161 9.82426 12.4603 10.3455 12.421C10.8667 12.3818 11.4182 12.3622 12 12.3622C12.5818 12.3622 13.1334 12.3818 13.6546 12.421C14.1758 12.4603 14.603 12.5161 14.9364 12.5885C15.1606 12.6429 15.2727 12.7938 15.2727 13.0412C15.2788 13.2103 15.2818 13.3778 15.2818 13.5438C15.2818 13.7098 15.2818 13.8803 15.2818 14.0553C15.2818 14.6227 15.3985 15.0513 15.6319 15.341C15.8652 15.6308 16.3122 15.8239 16.9727 15.9205L20.1909 16.4004C20.4273 16.4426 20.6303 16.4698 20.8 16.4819C20.9697 16.494 21.1091 16.5 21.2182 16.5C21.6 16.5 21.9228 16.411 22.1864 16.2329C22.45 16.0548 22.6515 15.8179 22.7909 15.5221C22.9303 15.2264 23 14.9004 23 14.5443C23 14.4175 23 14.2922 23 14.1685C23 14.0448 23 13.9225 23 13.8018C23 12.9567 22.8212 12.1977 22.4636 11.5247C22.1061 10.8516 21.597 10.2646 20.9364 9.76358C20.2758 9.26258 19.4894 8.84457 18.5772 8.50955C17.6651 8.17455 16.6545 7.92253 15.5455 7.75352C14.4364 7.58451 13.2546 7.5 12 7.5C10.7455 7.5 9.56364 7.58451 8.45455 7.75352C7.34546 7.92253 6.33485 8.17455 5.42273 8.50955C4.51061 8.84457 3.72424 9.26258 3.06364 9.76358C2.40303 10.2646 1.89394 10.8516 1.53636 11.5247C1.17879 12.1977 1 12.9567 1 13.8018C1 13.9225 1 14.0448 1 14.1685C1 14.2922 1 14.4175 1 14.5443ZM2.47273 14.327C2.47273 14.2545 2.47273 14.1791 2.47273 14.1006C2.47273 14.0221 2.47273 13.9467 2.47273 13.8742C2.47273 13.1439 2.64697 12.5025 2.99545 11.9502C3.34394 11.3979 3.82425 10.9271 4.43637 10.5377C5.04849 10.1484 5.75758 9.82998 6.56364 9.58249C7.3697 9.33501 8.23637 9.15392 9.16364 9.03923C10.0909 8.92454 11.0364 8.8672 12 8.8672C12.9636 8.8672 13.9091 8.92454 14.8364 9.03923C15.7636 9.15392 16.6303 9.33501 17.4363 9.58249C18.2424 9.82998 18.9531 10.1484 19.5682 10.5377C20.1833 10.9271 20.6636 11.3979 21.0091 11.9502C21.3546 12.5025 21.5273 13.1439 21.5273 13.8742C21.5273 13.9467 21.5273 14.0221 21.5273 14.1006C21.5273 14.1791 21.5273 14.2545 21.5273 14.327C21.5273 14.4718 21.5031 14.6076 21.4546 14.7344C21.4061 14.8612 21.3318 14.9638 21.2318 15.0423C21.1319 15.1207 21.0061 15.16 20.8545 15.16C20.7879 15.16 20.7167 15.1554 20.6409 15.1464C20.5652 15.1373 20.4637 15.1207 20.3364 15.0966L17.2818 14.5262C17.1303 14.496 17.0046 14.4341 16.9046 14.3405C16.8045 14.247 16.7545 14.0885 16.7545 13.8652C16.7545 13.6781 16.7545 13.4894 16.7545 13.2993C16.7545 13.1092 16.7545 12.9205 16.7545 12.7334C16.7545 12.2867 16.6803 11.9593 16.5319 11.751C16.3833 11.5428 16.1909 11.4054 15.9546 11.339C15.6637 11.2545 15.253 11.1881 14.7227 11.1398C14.1924 11.0915 13.6061 11.0583 12.9637 11.0402C12.3212 11.0221 11.6788 11.0221 11.0363 11.0402C10.3939 11.0583 9.80758 11.0915 9.27728 11.1398C8.74697 11.1881 8.33637 11.2545 8.04546 11.339C7.80909 11.4054 7.61667 11.5428 7.46818 11.751C7.3197 11.9593 7.24545 12.2867 7.24545 12.7334C7.24545 12.9205 7.24545 13.1092 7.24545 13.2993C7.24545 13.4894 7.24545 13.6781 7.24545 13.8652C7.24545 14.0885 7.19546 14.247 7.09546 14.3405C6.99546 14.4341 6.8697 14.496 6.71819 14.5262L3.66364 15.0966C3.53637 15.1207 3.43485 15.1373 3.35909 15.1464C3.28333 15.1554 3.21212 15.16 3.14546 15.16C2.99394 15.16 2.86818 15.1207 2.76818 15.0423C2.66818 14.9638 2.59394 14.8612 2.54546 14.7344C2.49697 14.6076 2.47273 14.4718 2.47273 14.327Z" fill="#FF3B30"/>
<path d="M2.47273 14.327V14.1006V13.8742C2.47273 13.1439 2.64697 12.5025 2.99545 11.9502C3.34394 11.3979 3.82425 10.9271 4.43637 10.5377C5.04849 10.1484 5.75758 9.82998 6.56364 9.58249C7.3697 9.33501 8.23637 9.15392 9.16364 9.03923C10.0909 8.92454 11.0364 8.8672 12 8.8672C12.9636 8.8672 13.9091 8.92454 14.8364 9.03923C15.7636 9.15392 16.6303 9.33501 17.4363 9.58249C18.2424 9.82998 18.9531 10.1484 19.5682 10.5377C20.1833 10.9271 20.6636 11.3979 21.0091 11.9502C21.3546 12.5025 21.5273 13.1439 21.5273 13.8742V14.1006V14.327C21.5273 14.4718 21.5031 14.6076 21.4546 14.7344C21.4061 14.8612 21.3318 14.9638 21.2318 15.0423C21.1319 15.1207 21.0061 15.16 20.8545 15.16C20.7879 15.16 20.7167 15.1554 20.6409 15.1464C20.5652 15.1373 20.4637 15.1207 20.3364 15.0966L17.2818 14.5262C17.1303 14.496 17.0046 14.4341 16.9046 14.3405C16.8045 14.247 16.7545 14.0885 16.7545 13.8652V13.2993V12.7334C16.7545 12.2867 16.6803 11.9593 16.5319 11.751C16.3833 11.5428 16.1909 11.4054 15.9546 11.339C15.6637 11.2545 15.253 11.1881 14.7227 11.1398C14.1924 11.0915 13.6061 11.0583 12.9637 11.0402C12.3212 11.0221 11.6788 11.0221 11.0363 11.0402C10.3939 11.0583 9.80758 11.0915 9.27728 11.1398C8.74697 11.1881 8.33637 11.2545 8.04546 11.339C7.80909 11.4054 7.61667 11.5428 7.46818 11.751C7.3197 11.9593 7.24545 12.2867 7.24545 12.7334V13.2993V13.8652C7.24545 14.0885 7.19546 14.247 7.09546 14.3405C6.99546 14.4341 6.8697 14.496 6.71819 14.5262L3.66364 15.0966C3.53637 15.1207 3.43485 15.1373 3.35909 15.1464C3.28333 15.1554 3.21212 15.16 3.14546 15.16C2.99394 15.16 2.86818 15.1207 2.76818 15.0423C2.66818 14.9638 2.59394 14.8612 2.54546 14.7344C2.49697 14.6076 2.47273 14.4718 2.47273 14.327Z" fill="#FF3B30"/>
</svg>
