<svg width="24" height="24" viewBox="0 0 24 24" fill="none" xmlns="http://www.w3.org/2000/svg">
<path d="M1.22917 21.4063L7.6558 15.2262L2.26539 10.1148C2.02627 9.88161 2.02627 9.67755 2.26539 9.50264L10.7944 3.06979C11.0534 2.87544 11.2693 2.72968 11.4421 2.6325C11.6148 2.53533 11.8007 2.48675 11.9999 2.48675C12.1992 2.48675 12.3836 2.53533 12.5529 2.6325C12.7224 2.72968 12.9399 2.87544 13.2056 3.06979L21.7346 9.50264C21.9737 9.67755 21.9737 9.88161 21.7346 10.1148L16.3741 15.2262L22.7708 21.3869C22.9236 21.1148 23 20.6484 23 19.9876V10.1343C23 9.79092 22.9751 9.49616 22.9253 9.25C22.8755 9.00382 22.7841 8.78194 22.6513 8.58435C22.5184 8.38677 22.3291 8.19081 22.0834 7.99646L14.0526 1.92314C13.6806 1.6381 13.3368 1.41299 13.0213 1.24779C12.7058 1.0826 12.3653 1 11.9999 1C11.6346 1 11.2942 1.0826 10.9787 1.24779C10.6632 1.41299 10.3194 1.6381 9.94746 1.92314L1.9067 7.99646C1.66757 8.19081 1.48324 8.38677 1.35371 8.58435C1.22418 8.78194 1.13285 9.00382 1.07971 9.25C1.02657 9.49616 1 9.79092 1 10.1343V19.9876C1 20.6549 1.07639 21.1278 1.22917 21.4063ZM3.82971 23H19.8714C20.8611 23 21.542 22.8251 21.9139 22.4752L13.2455 14.1184C12.827 13.7103 12.4185 13.5062 12.0199 13.5062C11.6148 13.5062 11.2062 13.7103 10.7944 14.1184L2.06612 22.5239C2.39825 22.8413 2.98611 23 3.82971 23Z" fill="#007AFF"/>
</svg>
