<svg width="24" height="24" viewBox="0 0 24 24" fill="none" xmlns="http://www.w3.org/2000/svg">
<path d="M4.12863 23H19.8714C20.9143 23 21.6964 22.7519 22.2178 22.2558C22.7393 21.7597 23 21.0155 23 20.0232V10.4684C23 10.1227 22.9784 9.81858 22.9352 9.55611C22.892 9.29363 22.8223 9.05996 22.726 8.8551C22.6296 8.65024 22.5018 8.45979 22.3424 8.28374C22.183 8.10768 21.987 7.93003 21.7545 7.75077L14.0526 1.91227C13.6938 1.63058 13.3534 1.40812 13.0313 1.24487C12.7091 1.08162 12.3653 1 11.9999 1C11.6346 1 11.2909 1.08162 10.9688 1.24487C10.6466 1.40812 10.3062 1.63058 9.94746 1.91227L2.24547 7.75077C2.01298 7.93003 1.81703 8.10768 1.65761 8.28374C1.49819 8.45979 1.37032 8.65024 1.274 8.8551C1.17769 9.05996 1.10794 9.29363 1.06476 9.55611C1.02159 9.81858 1 10.1227 1 10.4684V20.0232C1 21.0155 1.26072 21.7597 1.78216 22.2558C2.30359 22.7519 3.08575 23 4.12863 23ZM4.06884 21.5308C3.57065 21.5308 3.18871 21.4044 2.92301 21.1515C2.65731 20.8986 2.52446 20.5225 2.52446 20.0232V10.2091C2.52446 9.97863 2.5477 9.78337 2.5942 9.62333C2.6407 9.46328 2.71211 9.32084 2.80842 9.196C2.90474 9.07116 3.03261 8.94793 3.19203 8.82629L10.8044 3.10301C11.0501 2.92376 11.256 2.78452 11.4221 2.6853C11.5882 2.58607 11.7808 2.53645 11.9999 2.53645C12.2192 2.53645 12.4118 2.58607 12.5779 2.6853C12.744 2.78452 12.9499 2.92376 13.1956 3.10301L20.808 8.82629C20.9674 8.94793 21.0952 9.07116 21.1915 9.196C21.2879 9.32084 21.3593 9.46328 21.4058 9.62333C21.4523 9.78337 21.4756 9.97863 21.4756 10.2091V20.0232C21.4756 20.5225 21.3411 20.8986 21.0721 21.1515C20.803 21.4044 20.4227 21.5308 19.9312 21.5308H4.06884ZM2.12591 21.1851L3.17211 22.1838L10.8143 14.9241C11.0269 14.7128 11.2311 14.5608 11.4271 14.468C11.623 14.3751 11.8207 14.3287 12.0199 14.3287C12.2126 14.3287 12.4069 14.3751 12.6028 14.468C12.7988 14.5608 13.0064 14.7128 13.2255 14.9241L20.8678 22.1838L21.904 21.1851L14.0924 13.7909C13.7404 13.458 13.395 13.218 13.0562 13.0707C12.7174 12.9235 12.372 12.8499 12.0199 12.8499C11.6679 12.8499 11.3208 12.9235 10.9787 13.0707C10.6366 13.218 10.2929 13.458 9.94746 13.7909L2.12591 21.1851ZM8.39311 15.5291L9.43931 14.5399L3.21196 8.60543L2.17572 9.60412L8.39311 15.5291ZM14.6006 14.5399L15.6368 15.5291L21.8542 9.60412L20.8179 8.60543L14.6006 14.5399Z" fill="#007AFF"/>
</svg>
