<svg width="24" height="24" viewBox="0 0 24 24" fill="none" xmlns="http://www.w3.org/2000/svg">
<path d="M3.51798 21H18.9923C19.8573 21 20.5285 20.7563 21.0059 20.2689C21.4833 19.7814 21.7219 19.0503 21.7219 18.0755V10.566C21.4912 10.6478 21.2526 10.7107 21.0059 10.7547C20.7592 10.7987 20.5077 10.8239 20.2514 10.8302V18.0849C20.2514 18.5692 20.1217 18.9355 19.8622 19.1839C19.6026 19.4324 19.2358 19.5566 18.7616 19.5566H3.4603C2.97974 19.5566 2.6113 19.4324 2.355 19.1839C2.09869 18.9355 1.97054 18.5661 1.97054 18.0755V7.66038C1.97054 7.17611 2.09869 6.80975 2.355 6.56132C2.6113 6.31289 2.97974 6.18868 3.4603 6.18868H15.5226C15.5226 5.93082 15.5466 5.68082 15.5947 5.43868C15.6428 5.19654 15.7084 4.96541 15.7917 4.74528H3.22964C2.36461 4.74528 1.69341 4.989 1.21605 5.47642C0.738683 5.96384 0.5 6.69183 0.5 7.66038V18.0755C0.5 19.0503 0.751498 19.7814 1.25449 20.2689C1.75749 20.7563 2.51198 21 3.51798 21ZM11.1302 15.3868C11.4698 15.3868 11.803 15.3145 12.1298 15.1699C12.4566 15.0251 12.7898 14.7893 13.1293 14.4622L17.6467 10.1038C17.4481 9.97799 17.2606 9.83805 17.0845 9.68397C16.9082 9.52988 16.7464 9.36164 16.599 9.17925L12.2931 13.3491C12.0817 13.5503 11.8815 13.6981 11.6925 13.7925C11.5035 13.8868 11.316 13.934 11.1302 13.934C10.938 13.934 10.7473 13.8868 10.5583 13.7925C10.3693 13.6981 10.1723 13.5503 9.96721 13.3491L2.27811 5.89623L1.26891 6.87736L9.13102 14.4622C9.46421 14.7893 9.7958 15.0251 10.1258 15.1699C10.4558 15.3145 10.7906 15.3868 11.1302 15.3868ZM20.0015 19.934L21.0011 18.9434L14.0617 12.2076L13.0621 13.1887L20.0015 19.934ZM2.38383 19.8019L8.97724 13.3962L7.97766 12.4151L1.39386 18.8113L2.38383 19.8019ZM20.1745 9.54717C20.7768 9.54717 21.3311 9.39937 21.8373 9.10378C22.3435 8.80818 22.7472 8.41196 23.0483 7.9151C23.3494 7.41824 23.5 6.87107 23.5 6.27359C23.5 5.6761 23.3494 5.12893 23.0483 4.63207C22.7472 4.13522 22.3435 3.73899 21.8373 3.4434C21.3311 3.1478 20.7768 3 20.1745 3C19.5593 3 19.0003 3.1478 18.4973 3.4434C17.9943 3.73899 17.5922 4.13522 17.291 4.63207C16.9899 5.12893 16.8394 5.6761 16.8394 6.27359C16.8394 6.87107 16.9899 7.41824 17.291 7.9151C17.5922 8.41196 17.9943 8.80818 18.4973 9.10378C19.0003 9.39937 19.5593 9.54717 20.1745 9.54717Z" fill="black" fill-opacity="0.8"/>
</svg>
