<svg width="24" height="24" viewBox="0 0 24 24" fill="none" xmlns="http://www.w3.org/2000/svg">
<path d="M12.0199 13.0726C12.4185 13.0726 12.827 12.8775 13.2455 12.4875L21.9139 4.49216C21.542 4.16405 20.8611 4 19.8714 4H3.82971C2.98611 4 2.40157 4.15167 2.07609 4.45502L10.7944 12.4875C11.2062 12.8775 11.6148 13.0726 12.0199 13.0726ZM1.24909 18.5049L8.29348 12.0139L1.22917 5.52292C1.07639 5.78913 1 6.23796 1 6.86942V17.1213C1 17.7775 1.08303 18.2387 1.24909 18.5049ZM4.12863 20H20.1703C21.0006 20 21.5818 19.8514 21.9139 19.5543L14.73 12.924L14.0725 13.5461C13.4016 14.1405 12.7174 14.4376 12.0199 14.4376C11.3158 14.4376 10.6316 14.1405 9.96739 13.5461L9.29982 12.924L2.13587 19.545C2.51449 19.8483 3.17874 20 4.12863 20ZM22.7608 18.4957C22.9203 18.2233 23 17.7652 23 17.1213V6.86942C23 6.24415 22.9269 5.8046 22.7808 5.55078L15.7365 12.0139L22.7608 18.4957Z" fill="#007AFF"/>
</svg>
