<svg width="24" height="24" viewBox="0 0 24 24" fill="none" xmlns="http://www.w3.org/2000/svg">
<path d="M4.12863 20H20.1703C21.067 20 21.7628 19.7601 22.2577 19.2804C22.7526 18.8005 23 18.0809 23 17.1213V6.86942C23 5.91604 22.7393 5.19946 22.2178 4.71968C21.6964 4.23989 20.9143 4 19.8714 4H3.82971C2.93297 4 2.23717 4.23989 1.7423 4.71968C1.24743 5.19946 1 5.91604 1 6.86942V17.1213C1 18.0809 1.26072 18.8005 1.78216 19.2804C2.30359 19.7601 3.08575 20 4.12863 20ZM4.06884 18.5793C3.57065 18.5793 3.18871 18.457 2.92301 18.2124C2.65731 17.9679 2.52446 17.6042 2.52446 17.1213V6.86942C2.52446 6.39273 2.65731 6.03212 2.92301 5.78758C3.18871 5.54304 3.57065 5.42078 4.06884 5.42078H19.9312C20.4227 5.42078 20.803 5.54304 21.0721 5.78758C21.3411 6.03212 21.4756 6.39583 21.4756 6.87871V17.1306C21.4756 17.6073 21.3411 17.9679 21.0721 18.2124C20.803 18.457 20.4227 18.5793 19.9312 18.5793H4.06884ZM12.0199 14.4748C12.372 14.4748 12.7174 14.4036 13.0562 14.2611C13.395 14.1187 13.7404 13.8866 14.0924 13.5647L22.183 6.15439L21.1467 5.17934L13.2255 12.469C13.0064 12.6671 12.7988 12.8125 12.6028 12.9054C12.4069 12.9983 12.2126 13.0447 12.0199 13.0447C11.8207 13.0447 11.623 12.9967 11.4271 12.9008C11.2311 12.8048 11.0269 12.6609 10.8143 12.469L2.85326 5.14219L1.80707 6.11723L9.94746 13.5647C10.2929 13.8866 10.6366 14.1187 10.9787 14.2611C11.3208 14.4036 11.6679 14.4748 12.0199 14.4748ZM21.0471 18.7835L22.0834 17.8085L15.6368 11.8746L14.6006 12.8404L21.0471 18.7835ZM1.94656 17.8178L2.98279 18.7928L9.43931 12.8404L8.39311 11.8746L1.94656 17.8178Z" fill="#007AFF"/>
</svg>
