<svg width="24" height="24" viewBox="0 0 24 24" fill="none" xmlns="http://www.w3.org/2000/svg">
<path d="M3.51798 21H18.9923C19.7933 21 20.3539 20.8491 20.6742 20.5474L13.7445 13.8151L13.1101 14.4468C12.4822 15.0503 11.8222 15.352 11.1302 15.352C10.4318 15.352 9.77178 15.0503 9.15024 14.4468L8.50629 13.8151L1.5957 20.538C1.96093 20.846 2.60169 21 3.51798 21ZM0.740285 19.4819L7.53553 12.891L0.721061 6.30015C0.573687 6.57045 0.5 7.02619 0.5 7.66736V18.077C0.5 18.7433 0.580095 19.2116 0.740285 19.4819ZM15.7821 4.7538H3.22964C2.41587 4.7538 1.84879 4.9078 1.52842 5.21582L9.94799 13.3719C10.3453 13.7679 10.7393 13.9659 11.1302 13.9659C11.5018 13.9659 11.8959 13.7679 12.3124 13.3719L16.599 9.21372C16.2594 8.82399 15.9919 8.37768 15.7965 7.8748C15.6011 7.37192 15.5033 6.84075 15.5033 6.2813C15.5033 6.011 15.5274 5.74856 15.5755 5.49398C15.6235 5.23939 15.6924 4.99267 15.7821 4.7538ZM17.6082 10.0906L14.7248 12.891L21.4912 19.4631C21.645 19.199 21.7219 18.737 21.7219 18.077V10.5809C21.4784 10.6689 21.2253 10.7365 20.9626 10.7836C20.6999 10.8308 20.434 10.8544 20.1649 10.8544C19.6907 10.8544 19.2374 10.7884 18.8048 10.6564C18.3724 10.5244 17.9735 10.3358 17.6082 10.0906ZM20.1649 9.5626C20.7736 9.5626 21.3311 9.4133 21.8373 9.11472C22.3435 8.81613 22.7472 8.41854 23.0483 7.92195C23.3494 7.42535 23.5 6.87847 23.5 6.2813C23.5 5.68412 23.3494 5.13724 23.0483 4.64065C22.7472 4.14405 22.3435 3.74646 21.8373 3.44788C21.3311 3.14929 20.7736 3 20.1649 3C19.5498 3 18.9891 3.14772 18.4829 3.44316C17.9767 3.73861 17.573 4.13462 17.2718 4.63122C16.9707 5.12781 16.8201 5.67784 16.8201 6.2813C16.8201 6.88475 16.9707 7.43321 17.2718 7.92666C17.573 8.42011 17.9767 8.81613 18.4829 9.11472C18.9891 9.4133 19.5498 9.5626 20.1649 9.5626ZM20.1649 8.07281C19.8253 8.07281 19.5177 7.99109 19.2422 7.82765C18.9666 7.66421 18.7472 7.44735 18.5838 7.17705C18.4204 6.90675 18.3387 6.60817 18.3387 6.2813C18.3387 5.95442 18.4204 5.65583 18.5838 5.38554C18.7472 5.11524 18.9666 4.89837 19.2422 4.73494C19.5177 4.5715 19.8253 4.48978 20.1649 4.48978C20.4917 4.48978 20.7944 4.5715 21.0731 4.73494C21.3519 4.89837 21.5729 5.11524 21.7363 5.38554C21.8997 5.65583 21.9815 5.95442 21.9815 6.2813C21.9815 6.60817 21.8997 6.90675 21.7363 7.17705C21.5729 7.44735 21.3519 7.66421 21.0731 7.82765C20.7944 7.99109 20.4917 8.07281 20.1649 8.07281Z" fill="black" fill-opacity="0.8"/>
</svg>
