<svg width="24" height="24" viewBox="0 0 24 24" fill="none" xmlns="http://www.w3.org/2000/svg">
<path d="M6.92923 22C7.12887 22 7.31021 21.9502 7.47324 21.8506C7.63628 21.751 7.83758 21.5951 8.07715 21.3831L11.6806 18.2024L18.4284 18.212C19.4199 18.212 20.2551 18.0401 20.9338 17.6963C21.6125 17.3526 22.1266 16.853 22.4759 16.1976C22.8253 15.5422 23 14.7422 23 13.7976V6.41445C23 5.46987 22.8253 4.66988 22.4759 4.01446C22.1266 3.35904 21.6125 2.85944 20.9338 2.51566C20.2551 2.17189 19.4199 2 18.4284 2H5.5717C4.58017 2 3.74501 2.17189 3.06624 2.51566C2.38748 2.85944 1.87341 3.35904 1.52405 4.01446C1.17468 4.66988 1 5.46987 1 6.41445V13.7976C1 14.7422 1.17468 15.5422 1.52405 16.1976C1.87341 16.853 2.38748 17.351 3.06624 17.6915C3.74501 18.0321 4.58017 18.2024 5.5717 18.2024H6.04084V21.0072C6.04084 21.3092 6.11737 21.5502 6.27043 21.7301C6.42348 21.91 6.64308 22 6.92923 22ZM10.892 14.7999C10.719 14.7999 10.5626 14.7646 10.4229 14.6939C10.2831 14.6233 10.1467 14.5044 10.0136 14.3373L7.50818 11.3687C7.43498 11.2723 7.37675 11.1711 7.3335 11.0651C7.29024 10.959 7.26861 10.8514 7.26861 10.7421C7.26861 10.5237 7.34514 10.3357 7.49819 10.1783C7.65125 10.0209 7.84091 9.94216 8.06716 9.94216C8.21357 9.94216 8.34499 9.97107 8.46144 10.0289C8.5779 10.0867 8.69935 10.196 8.82579 10.3566L10.8521 12.8819L15.1144 6.26988C15.3007 5.9743 15.5402 5.82651 15.833 5.82651C16.046 5.82651 16.239 5.89237 16.412 6.02409C16.585 6.15582 16.6715 6.33413 16.6715 6.55903C16.6715 6.66827 16.6449 6.77751 16.5917 6.88675C16.5385 6.99598 16.4819 7.09879 16.422 7.19518L11.7305 14.3373C11.624 14.4916 11.5009 14.6072 11.3612 14.6844C11.2214 14.7614 11.065 14.7999 10.892 14.7999Z" fill="black" fill-opacity="0.8"/>
</svg>
