<svg width="24" height="24" viewBox="0 0 24 24" fill="none" xmlns="http://www.w3.org/2000/svg">
<path d="M7.13885 22C7.38507 22 7.61133 21.9356 7.81761 21.8067C8.02391 21.6778 8.27678 21.4845 8.57624 21.2266L12.0199 18.2591H18.4284C19.4199 18.2591 20.2551 18.0867 20.9338 17.7419C21.6125 17.3971 22.1266 16.8961 22.4759 16.2388C22.8253 15.5815 23 14.7791 23 13.8318V6.42726C23 5.47994 22.8253 4.67762 22.4759 4.0203C22.1266 3.36298 21.6125 2.86193 20.9338 2.51716C20.2551 2.17239 19.4199 2 18.4284 2H5.5717C4.58017 2 3.74501 2.17239 3.06624 2.51716C2.38748 2.86193 1.87341 3.36298 1.52405 4.0203C1.17468 4.67762 1 5.47994 1 6.42726V13.8318C1 14.7791 1.17468 15.5815 1.52405 16.2388C1.87341 16.8961 2.38748 17.3971 3.06624 17.7419C3.74501 18.0867 4.58017 18.2591 5.5717 18.2591H6.05083V20.7723C6.05083 21.1461 6.14566 21.4441 6.33531 21.6665C6.52497 21.8888 6.79281 22 7.13885 22ZM7.54811 20.231V17.4277C7.54811 17.1635 7.49154 16.9766 7.37841 16.867C7.26529 16.7575 7.07231 16.7027 6.79947 16.7027H5.5717C4.5602 16.7027 3.81322 16.4595 3.33076 15.9729C2.84831 15.4864 2.60709 14.7695 2.60709 13.8222V6.42726C2.60709 5.48639 2.84831 4.77268 3.33076 4.28613C3.81322 3.79958 4.5602 3.55631 5.5717 3.55631H18.4284C19.4332 3.55631 20.1785 3.79958 20.6643 4.28613C21.1501 4.77268 21.393 5.48639 21.393 6.42726V13.8222C21.393 14.7695 21.1501 15.4864 20.6643 15.9729C20.1785 16.4595 19.4332 16.7027 18.4284 16.7027H11.9601C11.6806 16.7027 11.4543 16.7317 11.2813 16.7897C11.1083 16.8477 10.9286 16.9702 10.7423 17.1571L7.54811 20.231ZM7.17877 9.09521C7.17877 9.64298 7.34514 10.1054 7.67787 10.4824C8.01059 10.8593 8.45978 11.0478 9.02542 11.0478C9.23172 11.0478 9.43302 11.0237 9.62932 10.9754C9.82564 10.927 9.98701 10.8223 10.1135 10.6612H10.1933C10.0735 10.9319 9.91547 11.1671 9.71916 11.3668C9.52285 11.5666 9.30991 11.7309 9.08032 11.8598C8.85074 11.9887 8.62948 12.0821 8.41653 12.1401C8.2302 12.1853 8.10376 12.2481 8.03722 12.3287C7.97067 12.4092 7.9374 12.5074 7.9374 12.6235C7.9374 12.7459 7.98232 12.8507 8.07216 12.9376C8.16199 13.0246 8.28011 13.0681 8.42651 13.0681C8.67938 13.0681 8.97552 12.994 9.3149 12.8458C9.65428 12.6976 9.98867 12.4752 10.3181 12.1788C10.6475 11.8824 10.9203 11.507 11.1366 11.0527C11.3529 10.5983 11.461 10.0651 11.461 9.45287C11.461 8.79555 11.2597 8.24617 10.8571 7.80473C10.4545 7.36329 9.93044 7.14257 9.28495 7.14257C8.68604 7.14257 8.18528 7.32463 7.78268 7.68873C7.38008 8.05284 7.17877 8.52166 7.17877 9.09521ZM12.569 9.09521C12.569 9.64298 12.7354 10.1054 13.068 10.4824C13.4008 10.8593 13.85 11.0478 14.4156 11.0478C14.6219 11.0478 14.8232 11.0237 15.0195 10.9754C15.2158 10.927 15.3772 10.8223 15.5037 10.6612H15.5835C15.4637 10.9319 15.3057 11.1671 15.1094 11.3668C14.913 11.5666 14.7001 11.7309 14.4705 11.8598C14.2409 11.9887 14.0197 12.0821 13.8067 12.1401C13.6204 12.1853 13.494 12.2481 13.4274 12.3287C13.3608 12.4092 13.3276 12.5074 13.3276 12.6235C13.3276 12.7459 13.3725 12.8507 13.4624 12.9376C13.5522 13.0246 13.6703 13.0681 13.8168 13.0681C14.063 13.0681 14.3574 12.994 14.7001 12.8458C15.0428 12.6976 15.3788 12.4752 15.7082 12.1788C16.0376 11.8824 16.3105 11.507 16.5268 11.0527C16.7431 10.5983 16.8512 10.0651 16.8512 9.45287C16.8512 8.79555 16.6499 8.24617 16.2473 7.80473C15.8447 7.36329 15.3207 7.14257 14.6752 7.14257C14.0762 7.14257 13.5755 7.32463 13.1729 7.68873C12.7703 8.05284 12.569 8.52166 12.569 9.09521Z" fill="black" fill-opacity="0.8"/>
</svg>
