<svg width="24" height="24" viewBox="0 0 24 24" fill="none" xmlns="http://www.w3.org/2000/svg">
<path d="M5.39277 20.35C5.56262 20.35 5.71832 20.3069 5.85986 20.2209C6.0014 20.1347 6.17126 20 6.36942 19.8166L8.84074 17.5583C8.60295 17.375 8.39914 17.1111 8.22929 16.7666C8.05943 16.4222 7.97451 15.9111 7.97451 15.2333V9.70833C7.97451 8.85833 8.14295 8.12916 8.47982 7.52083C8.81667 6.9125 9.2979 6.44583 9.92352 6.12083C10.5491 5.79583 11.2951 5.63333 12.1614 5.63333H18.1061L18.0976 5.325C18.0523 4.75277 17.8995 4.25555 17.639 3.83334C17.3786 3.41111 17.0148 3.08333 16.5477 2.85C16.0807 2.61667 15.5244 2.5 14.879 2.5H3.22717C2.25336 2.5 1.47204 2.77361 0.883221 3.32083C0.294407 3.86805 0 4.63889 0 5.63333V13.8167C0 14.8056 0.294407 15.5945 0.883221 16.1833C1.47204 16.7722 2.25336 17.0667 3.22717 17.0667H4.63693V19.5C4.63693 19.7556 4.70346 19.9611 4.83651 20.1167C4.96956 20.2722 5.15498 20.35 5.39277 20.35ZM19.1167 21.5C19.3545 21.5 19.54 21.4222 19.673 21.2667C19.8061 21.1111 19.8726 20.9055 19.8726 20.65V18.225H20.7728C21.7409 18.225 22.5208 17.9292 23.1124 17.3375C23.7041 16.7458 24 15.9555 24 14.9666V9.9C24 8.90555 23.7041 8.13611 23.1124 7.59166C22.5208 7.04722 21.7409 6.775 20.7728 6.775H12.3567C11.3432 6.775 10.5534 7.04861 9.98727 7.59584C9.42107 8.14305 9.13798 8.91389 9.13798 9.90833V14.9666C9.13798 15.9555 9.42107 16.7458 9.98727 17.3375C10.5534 17.9292 11.3432 18.225 12.3567 18.225H15.0743L18.1401 20.975C18.3439 21.1528 18.5152 21.2847 18.6539 21.3708C18.7926 21.4569 18.9469 21.5 19.1167 21.5Z" fill="black" fill-opacity="0.8"/>
</svg>
