<svg width="24" height="24" viewBox="0 0 24 24" fill="none" xmlns="http://www.w3.org/2000/svg">
<path d="M6.92923 22C7.12887 22 7.31021 21.9502 7.47324 21.8506C7.63628 21.751 7.83758 21.5951 8.07715 21.3831L11.6806 18.2024L18.4284 18.212C19.4199 18.212 20.2551 18.0401 20.9338 17.6963C21.6125 17.3526 22.1266 16.853 22.4759 16.1976C22.8253 15.5422 23 14.7422 23 13.7976V6.41445C23 5.46987 22.8253 4.66988 22.4759 4.01446C22.1266 3.35904 21.6125 2.85944 20.9338 2.51566C20.2551 2.17189 19.4199 2 18.4284 2H5.5717C4.58017 2 3.74501 2.17189 3.06624 2.51566C2.38748 2.85944 1.87341 3.35904 1.52405 4.01446C1.17468 4.66988 1 5.46987 1 6.41445V13.7976C1 14.7422 1.17468 15.5422 1.52405 16.1976C1.87341 16.853 2.38748 17.351 3.06624 17.6915C3.74501 18.0321 4.58017 18.2024 5.5717 18.2024H6.04084V21.0072C6.04084 21.3092 6.11737 21.5502 6.27043 21.7301C6.42348 21.91 6.64308 22 6.92923 22ZM6.69965 7.35903C6.53328 7.35903 6.39187 7.3028 6.27541 7.19035C6.15896 7.0779 6.10073 6.94136 6.10073 6.78071C6.10073 6.62007 6.15896 6.48513 6.27541 6.3759C6.39187 6.26666 6.53328 6.21204 6.69965 6.21204H17.1706C17.337 6.21204 17.4784 6.26666 17.5949 6.3759C17.7113 6.48513 17.7695 6.62007 17.7695 6.78071C17.7695 6.94136 17.7113 7.0779 17.5949 7.19035C17.4784 7.3028 17.337 7.35903 17.1706 7.35903H6.69965ZM6.69965 10.588C6.53328 10.588 6.39187 10.5333 6.27541 10.4241C6.15896 10.3148 6.10073 10.1767 6.10073 10.0096C6.10073 9.85541 6.15896 9.72047 6.27541 9.60481C6.39187 9.48915 6.53328 9.43131 6.69965 9.43131H17.1706C17.337 9.43131 17.4784 9.48915 17.5949 9.60481C17.7113 9.72047 17.7695 9.85541 17.7695 10.0096C17.7695 10.1767 17.7113 10.3148 17.5949 10.4241C17.4784 10.5333 17.337 10.588 17.1706 10.588H6.69965ZM6.69965 13.8265C6.53328 13.8265 6.39187 13.7719 6.27541 13.6626C6.15896 13.5534 6.10073 13.4185 6.10073 13.2578C6.10073 13.0907 6.15896 12.9509 6.27541 12.8385C6.39187 12.726 6.53328 12.6698 6.69965 12.6698H13.5073C13.6737 12.6698 13.8151 12.726 13.9315 12.8385C14.048 12.9509 14.1062 13.0907 14.1062 13.2578C14.1062 13.4185 14.048 13.5534 13.9315 13.6626C13.8151 13.7719 13.6737 13.8265 13.5073 13.8265H6.69965Z" fill="black" fill-opacity="0.8"/>
</svg>
