<svg width="24" height="24" viewBox="0 0 24 24" fill="none" xmlns="http://www.w3.org/2000/svg">
<path d="M6.92923 22C7.12887 22 7.31021 21.9502 7.47324 21.8506C7.63628 21.751 7.83758 21.5951 8.07715 21.3831L11.6806 18.2024L18.4284 18.212C19.4199 18.212 20.2551 18.0401 20.9338 17.6963C21.6125 17.3526 22.1266 16.853 22.4759 16.1976C22.8253 15.5422 23 14.7422 23 13.7976V6.41445C23 5.46987 22.8253 4.66988 22.4759 4.01446C22.1266 3.35904 21.6125 2.85944 20.9338 2.51566C20.2551 2.17189 19.4199 2 18.4284 2H5.5717C4.58017 2 3.74501 2.17189 3.06624 2.51566C2.38748 2.85944 1.87341 3.35904 1.52405 4.01446C1.17468 4.66988 1 5.46987 1 6.41445V13.7976C1 14.7422 1.17468 15.5422 1.52405 16.1976C1.87341 16.853 2.38748 17.351 3.06624 17.6915C3.74501 18.0321 4.58017 18.2024 5.5717 18.2024H6.04084V21.0072C6.04084 21.3092 6.11737 21.5502 6.27043 21.7301C6.42348 21.91 6.64308 22 6.92923 22ZM7.02905 9.05541C7.02905 8.46425 7.23701 7.98071 7.65292 7.60481C8.06883 7.22891 8.58622 7.04096 9.20509 7.04096C9.6443 7.04096 10.0319 7.14538 10.368 7.35421C10.704 7.56305 10.9669 7.84738 11.1565 8.20722C11.3462 8.56706 11.441 8.97188 11.441 9.42167C11.441 10.0514 11.3295 10.5992 11.1066 11.0651C10.8837 11.5309 10.6042 11.9181 10.2682 12.2265C9.93211 12.5349 9.58774 12.7647 9.23504 12.9157C8.88235 13.0667 8.57624 13.1422 8.31671 13.1422C8.17031 13.1422 8.04886 13.0972 7.95237 13.0072C7.85588 12.9172 7.80764 12.808 7.80764 12.6795C7.80764 12.5574 7.84258 12.4562 7.91245 12.3759C7.98232 12.2956 8.11374 12.2329 8.30673 12.188C8.52633 12.1301 8.75425 12.0337 8.99048 11.8988C9.22672 11.7638 9.44466 11.5935 9.6443 11.3879C9.84394 11.1823 10.007 10.9413 10.1334 10.6651H10.0536C9.92046 10.8257 9.7541 10.9317 9.55446 10.9832C9.35482 11.0346 9.14853 11.0602 8.93558 11.0602C8.34998 11.0602 7.88583 10.8675 7.54312 10.4819C7.20041 10.0964 7.02905 9.62088 7.02905 9.05541ZM12.589 9.05541C12.589 8.46425 12.7953 7.98071 13.2079 7.60481C13.6204 7.22891 14.1361 7.04096 14.755 7.04096C15.1942 7.04096 15.5835 7.14538 15.9229 7.35421C16.2623 7.56305 16.5268 7.84738 16.7165 8.20722C16.9061 8.56706 17.0009 8.97188 17.0009 9.42167C17.0009 10.0514 16.8895 10.5992 16.6665 11.0651C16.4436 11.5309 16.1625 11.9181 15.8231 12.2265C15.4837 12.5349 15.1393 12.7647 14.7899 12.9157C14.4406 13.0667 14.1361 13.1422 13.8767 13.1422C13.7235 13.1422 13.6004 13.0972 13.5073 13.0072C13.4141 12.9172 13.3675 12.808 13.3675 12.6795C13.3675 12.5574 13.4008 12.4562 13.4674 12.3759C13.5339 12.2956 13.6636 12.2329 13.8566 12.188C14.0829 12.1301 14.3142 12.0337 14.5504 11.8988C14.7866 11.7638 15.0046 11.5935 15.2042 11.3879C15.4039 11.1823 15.5669 10.9413 15.6933 10.6651H15.6135C15.4804 10.8257 15.3124 10.9317 15.1094 10.9832C14.9064 11.0346 14.6985 11.0602 14.4855 11.0602C13.8999 11.0602 13.4374 10.8675 13.098 10.4819C12.7586 10.0964 12.589 9.62088 12.589 9.05541Z" fill="black" fill-opacity="0.8"/>
</svg>
