<svg width="24" height="24" viewBox="0 0 24 24" fill="none" xmlns="http://www.w3.org/2000/svg">
<path d="M7.13885 22C7.38507 22 7.61133 21.9356 7.81761 21.8067C8.02391 21.6778 8.27678 21.4845 8.57624 21.2266L12.0199 18.2591H18.4284C19.4199 18.2591 20.2551 18.0867 20.9338 17.7419C21.6125 17.3971 22.1266 16.8961 22.4759 16.2388C22.8253 15.5815 23 14.7791 23 13.8318V6.42726C23 5.47994 22.8253 4.67762 22.4759 4.0203C22.1266 3.36298 21.6125 2.86193 20.9338 2.51716C20.2551 2.17239 19.4199 2 18.4284 2H5.5717C4.58017 2 3.74501 2.17239 3.06624 2.51716C2.38748 2.86193 1.87341 3.36298 1.52405 4.0203C1.17468 4.67762 1 5.47994 1 6.42726V13.8318C1 14.7791 1.17468 15.5815 1.52405 16.2388C1.87341 16.8961 2.38748 17.3971 3.06624 17.7419C3.74501 18.0867 4.58017 18.2591 5.5717 18.2591H6.05083V20.7723C6.05083 21.1461 6.14566 21.4441 6.33531 21.6665C6.52497 21.8888 6.79281 22 7.13885 22ZM7.54811 20.231V17.4277C7.54811 17.1635 7.49154 16.9766 7.37841 16.867C7.26529 16.7575 7.07231 16.7027 6.79947 16.7027H5.5717C4.5602 16.7027 3.81322 16.4595 3.33076 15.9729C2.84831 15.4864 2.60709 14.7695 2.60709 13.8222V6.42726C2.60709 5.48639 2.84831 4.77268 3.33076 4.28613C3.81322 3.79958 4.5602 3.55631 5.5717 3.55631H18.4284C19.4332 3.55631 20.1785 3.79958 20.6643 4.28613C21.1501 4.77268 21.393 5.48639 21.393 6.42726V13.8222C21.393 14.7695 21.1501 15.4864 20.6643 15.9729C20.1785 16.4595 19.4332 16.7027 18.4284 16.7027H11.9601C11.6806 16.7027 11.4543 16.7317 11.2813 16.7897C11.1083 16.8477 10.9286 16.9702 10.7423 17.1571L7.54811 20.231ZM9.57442 12.4011C10.16 12.9618 10.7722 13.4596 11.411 13.8946C12.0499 14.3296 12.6854 14.6583 13.3176 14.8806C13.9498 15.1029 14.5504 15.1835 15.1194 15.1222C15.6883 15.0611 16.1924 14.8178 16.6316 14.3924C16.6649 14.3602 16.6948 14.3296 16.7215 14.3007C16.7481 14.2716 16.7747 14.241 16.8013 14.2088C17.0275 13.9574 17.1557 13.6852 17.1856 13.392C17.2156 13.0988 17.0841 12.8458 16.7913 12.6332C16.6382 12.5236 16.4786 12.4108 16.3122 12.2948C16.1458 12.1788 15.9578 12.0515 15.7482 11.9129C15.5386 11.7744 15.2974 11.6117 15.0245 11.4248C14.7317 11.2251 14.4788 11.1429 14.2659 11.1784C14.0529 11.2138 13.8334 11.3378 13.6071 11.5505L13.2178 11.9372C13.1579 11.9887 13.0847 12.0129 12.9982 12.0097C12.9117 12.0064 12.8352 11.9855 12.7687 11.9468C12.5956 11.8501 12.3727 11.6955 12.0999 11.4829C11.827 11.2702 11.5508 11.0253 11.2713 10.7482C10.9985 10.484 10.749 10.2181 10.5227 9.9507C10.2965 9.68325 10.1367 9.46898 10.0436 9.30787C10.0103 9.24987 9.98701 9.1822 9.9737 9.10487C9.96039 9.02754 9.98701 8.95666 10.0536 8.89221L10.4528 8.49588C10.6791 8.26389 10.8089 8.048 10.8421 7.84823C10.8754 7.64846 10.7856 7.40679 10.5726 7.12324L9.34484 5.43161C9.21175 5.24472 9.05537 5.12711 8.8757 5.07878C8.69602 5.03045 8.50304 5.04172 8.29674 5.11261C8.09046 5.1835 7.87418 5.29949 7.64793 5.4606C7.6213 5.47349 7.59801 5.49121 7.57805 5.51377C7.55809 5.53632 7.53812 5.55405 7.51816 5.56694C7.07896 5.99871 6.82775 6.48847 6.76453 7.03624C6.70131 7.58401 6.7845 8.164 7.01408 8.77621C7.24366 9.38843 7.58304 10.0039 8.03222 10.6225C8.48141 11.2411 8.99547 11.834 9.57442 12.4011Z" fill="black" fill-opacity="0.8"/>
</svg>
