<svg width="24" height="24" viewBox="0 0 24 24" fill="none" xmlns="http://www.w3.org/2000/svg">
<path d="M3.72269 21.2432C4.00471 21.2432 4.37447 21.1755 4.83197 21.0402C5.28947 20.9048 5.78301 20.7233 6.31259 20.4956C6.84216 20.268 7.36546 20.0172 7.88251 19.7434C8.39954 19.4696 8.85861 19.1912 9.25971 18.9082C9.34118 18.8528 9.41639 18.8128 9.48533 18.7882C9.55427 18.7636 9.62007 18.7513 9.68275 18.7513C9.74538 18.7574 9.80805 18.762 9.87075 18.7651C9.93345 18.7682 9.993 18.7697 10.0494 18.7697C10.5006 18.7697 10.9393 18.7512 11.3654 18.7143C11.7916 18.6774 12.2021 18.6251 12.5969 18.5574V16.9331C12.5969 16.5639 12.6894 16.227 12.8743 15.9224C13.0592 15.6179 13.3067 15.3748 13.6169 15.1933C13.9272 15.0119 14.2703 14.9211 14.6463 14.9211C14.6839 14.9211 14.7246 14.9242 14.7685 14.9303C14.8124 14.9365 14.8532 14.9488 14.8908 14.9672C14.897 14.9241 14.9033 14.8841 14.9096 14.8472C14.9158 14.8103 14.9252 14.7734 14.9378 14.7365C15.0694 14.3366 15.3091 14.0089 15.6569 13.7536C16.0047 13.4982 16.4042 13.3705 16.8555 13.3705C16.8994 13.3705 16.9385 13.3752 16.973 13.3844C17.0074 13.3936 17.0435 13.4044 17.0811 13.4167C17.0874 13.3798 17.0952 13.3398 17.1047 13.2967C17.114 13.2536 17.1219 13.2106 17.1281 13.1675C17.2535 12.7676 17.4947 12.4368 17.8519 12.1754C18.2092 11.9138 18.6103 11.7831 19.0552 11.7831C19.425 11.7831 19.7619 11.8708 20.0658 12.0462C20.3698 12.2215 20.6064 12.4507 20.7756 12.7337C20.7944 12.7337 20.8163 12.7306 20.8414 12.7245C20.8665 12.7184 20.8916 12.7153 20.9166 12.7153C21.0545 12.34 21.1563 11.9585 21.2221 11.5708C21.2879 11.1832 21.3208 10.7894 21.3208 10.3895C21.3208 9.22657 21.0466 8.13751 20.4982 7.12228C19.9499 6.10706 19.1885 5.21643 18.2139 4.45039C17.2393 3.68435 16.1065 3.08445 14.8155 2.65067C13.5245 2.21689 12.1395 2 10.6604 2C9.18136 2 7.79633 2.21689 6.5053 2.65067C5.21426 3.08445 4.08148 3.68435 3.10694 4.45039C2.13239 5.21643 1.37094 6.10706 0.822563 7.12228C0.274188 8.13751 0 9.22657 0 10.3895C0 11.3739 0.195848 12.3092 0.587545 13.1952C0.97924 14.0812 1.54015 14.8918 2.27028 15.6271C3.00039 16.3624 3.86683 16.9946 4.86957 17.5238C4.93851 17.5607 4.98395 17.6115 5.00589 17.676C5.02782 17.7406 5.01999 17.8068 4.98238 17.8745C4.8069 18.1575 4.60008 18.4498 4.36193 18.7513C4.12379 19.0528 3.89347 19.3312 3.67098 19.5865C3.4485 19.8419 3.27772 20.0465 3.15864 20.2003C2.9769 20.4341 2.93459 20.6664 3.03173 20.8971C3.12887 21.1278 3.35919 21.2432 3.72269 21.2432ZM14.6369 18.8528C14.7936 18.8528 14.9236 18.8036 15.0271 18.7052C15.1305 18.6067 15.1822 18.4867 15.1822 18.3452V16.9423C15.1822 16.7947 15.1305 16.6701 15.0271 16.5685C14.9236 16.467 14.7936 16.4162 14.6369 16.4162C14.4928 16.4162 14.3706 16.467 14.2703 16.5685C14.17 16.6701 14.1199 16.7947 14.1199 16.9423V18.3452C14.1199 18.4867 14.17 18.6067 14.2703 18.7052C14.3706 18.8036 14.4928 18.8528 14.6369 18.8528ZM16.8555 20.4033C17.0059 20.4033 17.1312 20.3541 17.2315 20.2557C17.3318 20.1572 17.3819 20.031 17.3819 19.8772V15.3918C17.3819 15.2503 17.3318 15.1288 17.2315 15.0273C17.1312 14.9257 17.0059 14.8749 16.8555 14.8749C16.7051 14.8749 16.5782 14.9257 16.4748 15.0273C16.3714 15.1288 16.3196 15.2503 16.3196 15.3918V19.8772C16.3196 20.031 16.3714 20.1572 16.4748 20.2557C16.5782 20.3541 16.7051 20.4033 16.8555 20.4033ZM19.0552 22C19.2057 22 19.3326 21.9508 19.436 21.8523C19.5394 21.7539 19.5911 21.6308 19.5911 21.4831V13.8136C19.5911 13.6597 19.5394 13.532 19.436 13.4305C19.3326 13.329 19.2057 13.2783 19.0552 13.2783C18.9111 13.2783 18.7873 13.329 18.684 13.4305C18.5805 13.532 18.5288 13.6597 18.5288 13.8136V21.4831C18.5288 21.6308 18.5789 21.7539 18.6792 21.8523C18.7795 21.9508 18.9048 22 19.0552 22ZM21.255 21.0863C21.4055 21.0863 21.5324 21.0355 21.6358 20.934C21.7392 20.8325 21.7908 20.7079 21.7908 20.5603V14.7088C21.7908 14.5673 21.7392 14.4473 21.6358 14.3489C21.5324 14.2504 21.4055 14.2012 21.255 14.2012C21.1109 14.2012 20.9871 14.2504 20.8837 14.3489C20.7803 14.4473 20.7286 14.5673 20.7286 14.7088V20.5603C20.7286 20.7079 20.7803 20.8325 20.8837 20.934C20.9871 21.0355 21.1109 21.0863 21.255 21.0863ZM23.4642 19.3419C23.6208 19.3419 23.7493 19.2927 23.8496 19.1942C23.9499 19.0958 24 18.9728 24 18.8251V16.4532C24 16.3055 23.9499 16.1824 23.8496 16.084C23.7493 15.9855 23.6208 15.9363 23.4642 15.9363C23.3201 15.9363 23.1963 15.9871 23.0929 16.0886C22.9895 16.1901 22.9377 16.3116 22.9377 16.4532V18.8251C22.9377 18.9666 22.9895 19.0881 23.0929 19.1897C23.1963 19.2912 23.3201 19.3419 23.4642 19.3419Z" fill="black" fill-opacity="0.8"/>
</svg>
