<svg width="24" height="24" viewBox="0 0 24 24" fill="none" xmlns="http://www.w3.org/2000/svg">
<path d="M5.20988 22C5.64316 22 6.20254 21.8727 6.88801 21.6182C7.5735 21.3635 8.29455 21.0326 9.05116 20.6253C9.80778 20.2179 10.5127 19.782 11.1658 19.3174C12.5174 19.3556 13.7913 19.241 14.9876 18.9738C16.184 18.7064 17.2721 18.3134 18.2518 17.7947C19.2316 17.276 20.0755 16.6539 20.7836 15.9283C21.4916 15.2029 22.0381 14.3962 22.4229 13.5084C22.8076 12.6206 23 11.677 23 10.6778C23 9.47493 22.7171 8.34844 22.1512 7.29832C21.5854 6.2482 20.7997 5.32696 19.7941 4.5346C18.7885 3.74224 17.6196 3.12172 16.2875 2.67303C14.9553 2.22434 13.5262 2 12 2C10.4738 2 9.04469 2.22434 7.71253 2.67303C6.38037 3.12172 5.2115 3.74224 4.20591 4.5346C3.20032 5.32696 2.41461 6.2482 1.84877 7.29832C1.28292 8.34844 1 9.47493 1 10.6778C1 11.7215 1.21179 12.7112 1.63536 13.6468C2.05894 14.5823 2.65388 15.4224 3.42019 16.1671C4.18651 16.9117 5.08055 17.5163 6.1023 17.9809C5.95357 18.2609 5.77573 18.56 5.56879 18.8782C5.36185 19.1965 5.15492 19.5004 4.94798 19.7899C4.74104 20.0795 4.5632 20.3166 4.41447 20.5012C4.24633 20.724 4.16549 20.9515 4.17196 21.1837C4.17843 21.4161 4.26896 21.6102 4.44357 21.7661C4.61817 21.922 4.87361 22 5.20988 22ZM6.2284 20.4153C6.1896 20.428 6.16374 20.4232 6.15081 20.4009C6.13787 20.3787 6.14434 20.3516 6.1702 20.3198C6.44181 19.9888 6.74251 19.6054 7.07232 19.1695C7.40213 18.7335 7.6511 18.3627 7.81923 18.0573C7.95504 17.809 7.99707 17.5799 7.94534 17.37C7.8936 17.1599 7.71253 16.9817 7.40213 16.8353C6.38684 16.3707 5.52191 15.8218 4.80733 15.1885C4.09275 14.5553 3.54792 13.8568 3.17284 13.0931C2.79777 12.3294 2.61023 11.5243 2.61023 10.6778C2.61023 9.69769 2.85112 8.77963 3.33289 7.92362C3.81467 7.06762 4.48399 6.31344 5.34084 5.6611C6.19769 5.00875 7.19519 4.49801 8.33334 4.12887C9.4715 3.75974 10.6937 3.57518 12 3.57518C13.3063 3.57518 14.5285 3.75974 15.6667 4.12887C16.8049 4.49801 17.8024 5.00875 18.6592 5.6611C19.5161 6.31344 20.187 7.06762 20.672 7.92362C21.157 8.77963 21.3995 9.69769 21.3995 10.6778C21.3995 11.6515 21.157 12.568 20.672 13.4272C20.187 14.2864 19.5161 15.0406 18.6592 15.6897C17.8024 16.3389 16.8049 16.848 15.6667 17.2172C14.5285 17.5863 13.3063 17.7709 12 17.7709C11.903 17.7709 11.7801 17.7693 11.6314 17.7661C11.4827 17.7629 11.3113 17.7581 11.1173 17.7518C10.9168 17.7518 10.7309 17.7852 10.5595 17.852C10.3882 17.9189 10.2119 18.0223 10.0309 18.1623C9.6364 18.4423 9.19989 18.7335 8.72136 19.0358C8.24281 19.3381 7.78043 19.6133 7.33422 19.8616C6.88801 20.1097 6.51941 20.2943 6.2284 20.4153Z" fill="#34C759"/>
</svg>
