<svg width="24" height="24" viewBox="0 0 24 24" fill="none" xmlns="http://www.w3.org/2000/svg">
<path d="M7.13885 22C7.38507 22 7.61133 21.9356 7.81761 21.8067C8.02391 21.6778 8.27678 21.4845 8.57624 21.2266L12.0199 18.2591H18.4284C19.4199 18.2591 20.2551 18.0867 20.9338 17.7419C21.6125 17.3971 22.1266 16.8961 22.4759 16.2388C22.8253 15.5815 23 14.7791 23 13.8318V6.42726C23 5.47994 22.8253 4.67762 22.4759 4.0203C22.1266 3.36298 21.6125 2.86193 20.9338 2.51716C20.2551 2.17239 19.4199 2 18.4284 2H5.5717C4.58017 2 3.74501 2.17239 3.06624 2.51716C2.38748 2.86193 1.87341 3.36298 1.52405 4.0203C1.17468 4.67762 1 5.47994 1 6.42726V13.8318C1 14.7791 1.17468 15.5815 1.52405 16.2388C1.87341 16.8961 2.38748 17.3971 3.06624 17.7419C3.74501 18.0867 4.58017 18.2591 5.5717 18.2591H6.05083V20.7723C6.05083 21.1461 6.14566 21.4441 6.33531 21.6665C6.52497 21.8888 6.79281 22 7.13885 22ZM7.54811 20.231V17.4277C7.54811 17.1635 7.49154 16.9766 7.37841 16.867C7.26529 16.7575 7.07231 16.7027 6.79947 16.7027H5.5717C4.5602 16.7027 3.81322 16.4595 3.33076 15.9729C2.84831 15.4864 2.60709 14.7695 2.60709 13.8222V6.42726C2.60709 5.48639 2.84831 4.77268 3.33076 4.28613C3.81322 3.79958 4.5602 3.55631 5.5717 3.55631H18.4284C19.4332 3.55631 20.1785 3.79958 20.6643 4.28613C21.1501 4.77268 21.393 5.48639 21.393 6.42726V13.8222C21.393 14.7695 21.1501 15.4864 20.6643 15.9729C20.1785 16.4595 19.4332 16.7027 18.4284 16.7027H11.9601C11.6806 16.7027 11.4543 16.7317 11.2813 16.7897C11.1083 16.8477 10.9286 16.9702 10.7423 17.1571L7.54811 20.231ZM9.87867 13.7861L12.0108 12.2794L14.1346 13.7861C14.3432 13.9349 14.5367 13.9536 14.715 13.842C14.8934 13.7304 14.9387 13.5443 14.8509 13.2839L14.0194 10.8684L16.1927 9.34572C16.3409 9.24474 16.4218 9.1318 16.4356 9.0069C16.4493 8.88201 16.4122 8.77306 16.3244 8.68006C16.2366 8.58705 16.1077 8.54055 15.9375 8.54055H13.2456L12.4471 6.14096C12.3703 5.9018 12.2235 5.78355 12.0066 5.78621C11.7899 5.78887 11.6431 5.90712 11.5663 6.14096L10.7677 8.54055H8.06761C7.89748 8.54055 7.76851 8.58705 7.6807 8.68006C7.59289 8.77306 7.55585 8.88201 7.56957 9.0069C7.58329 9.1318 7.66424 9.24474 7.81241 9.34572L10.0022 10.8684L9.16248 13.2839C9.06919 13.5443 9.11309 13.7304 9.29419 13.842C9.4753 13.9536 9.67013 13.9349 9.87867 13.7861Z" fill="black" fill-opacity="0.8"/>
</svg>
