<svg width="24" height="24" viewBox="0 0 24 24" fill="none" xmlns="http://www.w3.org/2000/svg">
<path fill-rule="evenodd" clip-rule="evenodd" d="M7.54811 20.231V17.4277C7.54811 17.1635 7.49154 16.9766 7.37841 16.867C7.26529 16.7575 7.0723 16.7027 6.79947 16.7027H5.5717C4.5602 16.7027 3.81322 16.4595 3.33076 15.9729C2.84831 15.4864 2.60709 14.7695 2.60709 13.8222V6.42726C2.60709 5.48639 2.84831 4.77268 3.33076 4.28613C3.81322 3.79958 4.5602 3.55631 5.5717 3.55631H18.4284C19.4332 3.55631 20.1785 3.79958 20.6643 4.28613C21.1501 4.77268 21.393 5.48639 21.393 6.42726V13.8222C21.393 14.7695 21.1501 15.4864 20.6643 15.9729C20.1785 16.4595 19.4332 16.7027 18.4284 16.7027H11.9601C11.6806 16.7027 11.4543 16.7317 11.2813 16.7897C11.1083 16.8477 10.9286 16.9702 10.7423 17.1571L7.54811 20.231ZM12.7586 11.1058C12.752 11.6149 12.4991 11.8695 12 11.8695C11.4876 11.8695 11.2248 11.6149 11.2114 11.1058L11.0817 5.99226C11.075 5.74738 11.1565 5.54438 11.3262 5.38327C11.4959 5.22217 11.7172 5.14161 11.9901 5.14161C12.2563 5.14161 12.4775 5.22378 12.6539 5.38811C12.8302 5.55244 12.9151 5.75705 12.9084 6.00193L12.7586 11.1058ZM12.7536 14.7211C12.5373 14.9144 12.2861 15.0111 12 15.0111C11.7072 15.0111 11.4543 14.9128 11.2414 14.7163C11.0284 14.5197 10.922 14.2829 10.922 14.0058C10.922 13.7287 11.0284 13.4919 11.2414 13.2953C11.4543 13.0988 11.7072 13.0005 12 13.0005C12.2928 13.0005 12.5457 13.0971 12.7586 13.2904C12.9716 13.4838 13.0781 13.7222 13.0781 14.0058C13.0781 14.2893 12.9699 14.5278 12.7536 14.7211Z" fill="black" fill-opacity="0.8"/>
<path fill-rule="evenodd" clip-rule="evenodd" d="M7.13885 22C7.38507 22 7.61133 21.9356 7.81761 21.8067C8.02391 21.6778 8.27679 21.4845 8.57624 21.2266L12.0199 18.2591H18.4284C19.4199 18.2591 20.2551 18.0867 20.9338 17.7419C21.6125 17.3971 22.1266 16.8961 22.4759 16.2388C22.8253 15.5815 23 14.7791 23 13.8318V6.42726C23 5.47994 22.8253 4.67762 22.4759 4.0203C22.1266 3.36298 21.6125 2.86193 20.9338 2.51716C20.2551 2.17239 19.4199 2 18.4284 2H5.5717C4.58017 2 3.74501 2.17239 3.06624 2.51716C2.38748 2.86193 1.87341 3.36298 1.52405 4.0203C1.17468 4.67762 1 5.47994 1 6.42726V13.8318C1 14.7791 1.17468 15.5815 1.52405 16.2388C1.87341 16.8961 2.38748 17.3971 3.06624 17.7419C3.74501 18.0867 4.58017 18.2591 5.5717 18.2591H6.05083V20.7723C6.05083 21.1461 6.14566 21.4441 6.33531 21.6665C6.52497 21.8888 6.79281 22 7.13885 22ZM7.54811 20.231V17.4277C7.54811 17.1635 7.49154 16.9766 7.37841 16.867C7.26529 16.7575 7.0723 16.7027 6.79947 16.7027H5.5717C4.5602 16.7027 3.81322 16.4595 3.33076 15.9729C2.84831 15.4864 2.60709 14.7695 2.60709 13.8222V6.42726C2.60709 5.48639 2.84831 4.77268 3.33076 4.28613C3.81322 3.79958 4.5602 3.55631 5.5717 3.55631H18.4284C19.4332 3.55631 20.1785 3.79958 20.6643 4.28613C21.1501 4.77268 21.393 5.48639 21.393 6.42726V13.8222C21.393 14.7695 21.1501 15.4864 20.6643 15.9729C20.1785 16.4595 19.4332 16.7027 18.4284 16.7027H11.9601C11.6806 16.7027 11.4543 16.7317 11.2813 16.7897C11.1083 16.8477 10.9286 16.9702 10.7423 17.1571L7.54811 20.231Z" fill="black" fill-opacity="0.8"/>
</svg>
