<svg width="24" height="24" viewBox="0 0 24 24" fill="none" xmlns="http://www.w3.org/2000/svg">
<path d="M16.8612 22C17.2072 22 17.4751 21.8888 17.6647 21.6665C17.8544 21.4441 17.9492 21.1461 17.9492 20.7723V18.2591H18.4284C19.4199 18.2591 20.2551 18.0867 20.9338 17.7419C21.6125 17.3971 22.1266 16.8961 22.4759 16.2388C22.8253 15.5815 23 14.7791 23 13.8318V6.42726C23 5.47994 22.8253 4.67762 22.4759 4.0203C22.1266 3.36298 21.6125 2.86193 20.9338 2.51716C20.2551 2.17239 19.4199 2 18.4284 2H5.5717C4.58017 2 3.74501 2.17239 3.06624 2.51716C2.38748 2.86193 1.87341 3.36298 1.52405 4.0203C1.17468 4.67762 1 5.47994 1 6.42726V13.8318C1 14.7791 1.17468 15.5815 1.52405 16.2388C1.87341 16.8961 2.38748 17.3971 3.06624 17.7419C3.74501 18.0867 4.58017 18.2591 5.5717 18.2591H11.9801L15.4238 21.2266C15.7299 21.4845 15.9844 21.6778 16.1874 21.8067C16.3903 21.9356 16.6149 22 16.8612 22ZM16.4519 20.231L13.2577 17.1571C13.0714 16.9702 12.8918 16.8477 12.7187 16.7897C12.5457 16.7317 12.3194 16.7027 12.04 16.7027H5.5717C4.56686 16.7027 3.82155 16.4595 3.33576 15.9729C2.84998 15.4864 2.60709 14.7695 2.60709 13.8222V6.42726C2.60709 5.48639 2.84998 4.77268 3.33576 4.28613C3.82155 3.79958 4.56686 3.55631 5.5717 3.55631H18.4284C19.4399 3.55631 20.1869 3.79958 20.6693 4.28613C21.1518 4.77268 21.393 5.48639 21.393 6.42726V13.8222C21.393 14.7695 21.1518 15.4864 20.6693 15.9729C20.1869 16.4595 19.4399 16.7027 18.4284 16.7027H17.2006C16.9277 16.7027 16.7347 16.7575 16.6216 16.867C16.5085 16.9766 16.4519 17.1635 16.4519 17.4277V20.231Z" fill="black" fill-opacity="0.8"/>
<path d="M16.4519 20.231L13.2577 17.1571C13.0714 16.9702 12.8918 16.8477 12.7187 16.7897C12.5457 16.7317 12.3194 16.7027 12.04 16.7027H5.5717C4.56686 16.7027 3.82155 16.4595 3.33576 15.9729C2.84998 15.4864 2.60709 14.7695 2.60709 13.8222V6.42726C2.60709 5.48639 2.84998 4.77268 3.33576 4.28613C3.82155 3.79958 4.56686 3.55631 5.5717 3.55631H18.4284C19.4399 3.55631 20.1869 3.79958 20.6693 4.28613C21.1518 4.77268 21.393 5.48639 21.393 6.42726V13.8222C21.393 14.7695 21.1518 15.4864 20.6693 15.9729C20.1869 16.4595 19.4399 16.7027 18.4284 16.7027H17.2006C16.9277 16.7027 16.7347 16.7575 16.6216 16.867C16.5085 16.9766 16.4519 17.1635 16.4519 17.4277V20.231Z" fill="black" fill-opacity="0.8"/>
</svg>
