<svg width="24" height="24" viewBox="0 0 24 24" fill="none" xmlns="http://www.w3.org/2000/svg">
<path d="M7.13885 22C7.38507 22 7.61133 21.9356 7.81761 21.8067C8.02391 21.6778 8.27678 21.4845 8.57624 21.2266L12.0199 18.2591H18.4284C19.4199 18.2591 20.2551 18.0867 20.9338 17.7419C21.6125 17.3971 22.1266 16.8961 22.4759 16.2388C22.8253 15.5815 23 14.7791 23 13.8318V6.42726C23 5.47994 22.8253 4.67762 22.4759 4.0203C22.1266 3.36298 21.6125 2.86193 20.9338 2.51716C20.2551 2.17239 19.4199 2 18.4284 2H5.5717C4.58017 2 3.74501 2.17239 3.06624 2.51716C2.38748 2.86193 1.87341 3.36298 1.52405 4.0203C1.17468 4.67762 1 5.47994 1 6.42726V13.8318C1 14.7791 1.17468 15.5815 1.52405 16.2388C1.87341 16.8961 2.38748 17.3971 3.06624 17.7419C3.74501 18.0867 4.58017 18.2591 5.5717 18.2591H6.05083V20.7723C6.05083 21.1461 6.14566 21.4441 6.33531 21.6665C6.52497 21.8888 6.79281 22 7.13885 22ZM7.54811 20.231V17.4277C7.54811 17.1635 7.49154 16.9766 7.37841 16.867C7.26529 16.7575 7.07231 16.7027 6.79947 16.7027H5.5717C4.5602 16.7027 3.81322 16.4595 3.33076 15.9729C2.84831 15.4864 2.60709 14.7695 2.60709 13.8222V6.42726C2.60709 5.48639 2.84831 4.77268 3.33076 4.28613C3.81322 3.79958 4.5602 3.55631 5.5717 3.55631H18.4284C19.4332 3.55631 20.1785 3.79958 20.6643 4.28613C21.1501 4.77268 21.393 5.48639 21.393 6.42726V13.8222C21.393 14.7695 21.1501 15.4864 20.6643 15.9729C20.1785 16.4595 19.4332 16.7027 18.4284 16.7027H11.9601C11.6806 16.7027 11.4543 16.7317 11.2813 16.7897C11.1083 16.8477 10.9286 16.9702 10.7423 17.1571L7.54811 20.231ZM7.11889 11.5119C7.51816 11.5119 7.85588 11.3765 8.13205 11.1058C8.40821 10.8352 8.54629 10.5098 8.54629 10.1295C8.54629 9.74931 8.40821 9.42387 8.13205 9.1532C7.85588 8.88255 7.51816 8.74722 7.11889 8.74722C6.72627 8.74722 6.39021 8.88255 6.11072 9.1532C5.83122 9.42387 5.69147 9.74931 5.69147 10.1295C5.69147 10.5098 5.83122 10.8352 6.11072 11.1058C6.39021 11.3765 6.72627 11.5119 7.11889 11.5119ZM12.01 11.5119C12.4027 11.5119 12.7387 11.3765 13.0182 11.1058C13.2977 10.8352 13.4374 10.5098 13.4374 10.1295C13.4374 9.74931 13.2977 9.42387 13.0182 9.1532C12.7387 8.88255 12.4027 8.74722 12.01 8.74722C11.6107 8.74722 11.2713 8.88255 10.9918 9.1532C10.7124 9.42387 10.5726 9.74931 10.5726 10.1295C10.5726 10.5098 10.7124 10.8352 10.9918 11.1058C11.2713 11.3765 11.6107 11.5119 12.01 11.5119ZM16.8912 11.5119C17.2837 11.5119 17.6198 11.3765 17.8993 11.1058C18.1788 10.8352 18.3186 10.5098 18.3186 10.1295C18.3186 9.74931 18.1788 9.42387 17.8993 9.1532C17.6198 8.88255 17.2837 8.74722 16.8912 8.74722C16.4985 8.74722 16.1624 8.88255 15.8829 9.1532C15.6035 9.42387 15.4637 9.74931 15.4637 10.1295C15.4637 10.5098 15.6035 10.8352 15.8829 11.1058C16.1624 11.3765 16.4985 11.5119 16.8912 11.5119Z" fill="black" fill-opacity="0.8"/>
</svg>
