<svg width="24" height="24" viewBox="0 0 24 24" fill="none" xmlns="http://www.w3.org/2000/svg">
<path d="M7.13885 22C7.38507 22 7.61133 21.9356 7.81761 21.8067C8.02391 21.6778 8.27678 21.4845 8.57624 21.2266L12.0199 18.2591H18.4284C19.4199 18.2591 20.2551 18.0867 20.9338 17.7419C21.6125 17.3971 22.1266 16.8961 22.4759 16.2388C22.8253 15.5815 23 14.7791 23 13.8318V6.42726C23 5.47994 22.8253 4.67762 22.4759 4.0203C22.1266 3.36298 21.6125 2.86193 20.9338 2.51716C20.2551 2.17239 19.4199 2 18.4284 2H5.5717C4.58017 2 3.74501 2.17239 3.06624 2.51716C2.38748 2.86193 1.87341 3.36298 1.52405 4.0203C1.17468 4.67762 1 5.47994 1 6.42726V13.8318C1 14.7791 1.17468 15.5815 1.52405 16.2388C1.87341 16.8961 2.38748 17.3971 3.06624 17.7419C3.74501 18.0867 4.58017 18.2591 5.5717 18.2591H6.05083V20.7723C6.05083 21.1461 6.14566 21.4441 6.33531 21.6665C6.52497 21.8888 6.79281 22 7.13885 22ZM7.54811 20.231V17.4277C7.54811 17.1635 7.49154 16.9766 7.37841 16.867C7.26529 16.7575 7.07231 16.7027 6.79947 16.7027H5.5717C4.5602 16.7027 3.81322 16.4595 3.33076 15.9729C2.84831 15.4864 2.60709 14.7695 2.60709 13.8222V6.42726C2.60709 5.48639 2.84831 4.77268 3.33076 4.28613C3.81322 3.79958 4.5602 3.55631 5.5717 3.55631H18.4284C19.4332 3.55631 20.1785 3.79958 20.6643 4.28613C21.1501 4.77268 21.393 5.48639 21.393 6.42726V13.8222C21.393 14.7695 21.1501 15.4864 20.6643 15.9729C20.1785 16.4595 19.4332 16.7027 18.4284 16.7027H11.9601C11.6806 16.7027 11.4543 16.7317 11.2813 16.7897C11.1083 16.8477 10.9286 16.9702 10.7423 17.1571L7.54811 20.231ZM6.85935 7.46157H17.011C17.1773 7.46157 17.3153 7.40679 17.4251 7.29724C17.535 7.18769 17.5899 7.05558 17.5899 6.90091C17.5899 6.74625 17.535 6.61575 17.4251 6.50942C17.3153 6.40309 17.1773 6.34992 17.011 6.34992H6.85935C6.69299 6.34992 6.55491 6.40309 6.44511 6.50942C6.33531 6.61575 6.28041 6.74625 6.28041 6.90091C6.28041 7.05558 6.33531 7.18769 6.44511 7.29724C6.55491 7.40679 6.69299 7.46157 6.85935 7.46157ZM6.85935 10.6032H17.011C17.1773 10.6032 17.3153 10.55 17.4251 10.4437C17.535 10.3374 17.5899 10.2036 17.5899 10.0425C17.5899 9.8943 17.535 9.76381 17.4251 9.65103C17.3153 9.53825 17.1773 9.48186 17.011 9.48186H6.85935C6.69299 9.48186 6.55491 9.53825 6.44511 9.65103C6.33531 9.76381 6.28041 9.8943 6.28041 10.0425C6.28041 10.2036 6.33531 10.3374 6.44511 10.4437C6.55491 10.55 6.69299 10.6032 6.85935 10.6032ZM6.85935 13.7545H13.4574C13.6171 13.7545 13.7535 13.7013 13.8666 13.595C13.9798 13.4886 14.0363 13.3581 14.0363 13.2035C14.0363 13.0424 13.9798 12.907 13.8666 12.7975C13.7535 12.6879 13.6171 12.6332 13.4574 12.6332H6.85935C6.69299 12.6332 6.55491 12.6879 6.44511 12.7975C6.33531 12.907 6.28041 13.0424 6.28041 13.2035C6.28041 13.3581 6.33531 13.4886 6.44511 13.595C6.55491 13.7013 6.69299 13.7545 6.85935 13.7545Z" fill="black" fill-opacity="0.8"/>
</svg>
