<svg width="24" height="24" viewBox="0 0 24 24" fill="none" xmlns="http://www.w3.org/2000/svg">
<path d="M11.9801 2C11.7538 2 11.5359 2.05772 11.3262 2.17316C11.1166 2.2886 10.912 2.51307 10.7124 2.84656L8.86571 5.81915H5.5717C4.58017 5.81915 3.74501 5.9907 3.06624 6.33382C2.38748 6.67694 1.87341 7.17558 1.52405 7.82974C1.17468 8.4839 1 9.28236 1 10.2251V17.5941C1 18.5368 1.17468 19.3353 1.52405 19.9894C1.87341 20.6436 2.38748 21.1423 3.06624 21.4854C3.74501 21.8285 4.58017 22 5.5717 22H18.4284C19.4199 22 20.2551 21.8285 20.9338 21.4854C21.6125 21.1423 22.1266 20.6436 22.4759 19.9894C22.8253 19.3353 23 18.5368 23 17.5941V10.2251C23 9.28236 22.8253 8.4839 22.4759 7.82974C22.1266 7.17558 21.6125 6.67694 20.9338 6.33382C20.2551 5.9907 19.4199 5.81915 18.4284 5.81915H15.0944L13.2477 2.84656C13.0481 2.51307 12.8435 2.2886 12.6338 2.17316C12.4242 2.05772 12.2063 2 11.9801 2ZM11.9801 3.57768L13.647 6.58875C13.8134 6.89659 13.9798 7.10342 14.1461 7.20925C14.3125 7.31507 14.572 7.36798 14.9247 7.36798H18.4284C19.4332 7.36798 20.1785 7.61008 20.6643 8.09428C21.1501 8.57849 21.393 9.28877 21.393 10.2251V17.5844C21.393 18.5272 21.1501 19.2407 20.6643 19.7249C20.1785 20.2091 19.4332 20.4512 18.4284 20.4512H5.5717C4.5602 20.4512 3.81322 20.2091 3.33076 19.7249C2.84831 19.2407 2.60709 18.5272 2.60709 17.5844V10.2251C2.60709 9.28877 2.84831 8.57849 3.33076 8.09428C3.81322 7.61008 4.5602 7.36798 5.5717 7.36798H9.03541C9.3881 7.36798 9.64763 7.31507 9.81399 7.20925C9.98036 7.10342 10.1467 6.89659 10.3131 6.58875L11.9801 3.57768Z" fill="black" fill-opacity="0.8"/>
</svg>
