<svg width="24" height="24" viewBox="0 0 24 24" fill="none" xmlns="http://www.w3.org/2000/svg">
<path fill-rule="evenodd" clip-rule="evenodd" d="M6.2284 20.4153C6.1896 20.428 6.16374 20.4232 6.15081 20.4009C6.13787 20.3787 6.14434 20.3516 6.1702 20.3198C6.44181 19.9888 6.74251 19.6054 7.07232 19.1695C7.40213 18.7335 7.6511 18.3627 7.81923 18.0573C7.95504 17.8091 7.99707 17.5799 7.94534 17.37C7.8936 17.1599 7.71253 16.9817 7.40213 16.8353C6.38684 16.3707 5.52191 15.8218 4.80733 15.1885C4.09275 14.5553 3.54792 13.8568 3.17284 13.0931C2.79777 12.3294 2.61023 11.5243 2.61023 10.6778C2.61023 9.69769 2.85112 8.77963 3.33289 7.92362C3.81467 7.06762 4.48399 6.31344 5.34084 5.6611C6.19769 5.00875 7.19519 4.49801 8.33334 4.12887C9.4715 3.75974 10.6937 3.57518 12 3.57518C13.3063 3.57518 14.5285 3.75974 15.6667 4.12887C16.8049 4.49801 17.8024 5.00875 18.6592 5.6611C19.5161 6.31344 20.187 7.06762 20.672 7.92362C21.157 8.77963 21.3995 9.69769 21.3995 10.6778C21.3995 11.6515 21.157 12.568 20.672 13.4272C20.187 14.2864 19.5161 15.0406 18.6592 15.6897C17.8024 16.3389 16.8049 16.848 15.6667 17.2172C14.5285 17.5863 13.3063 17.7709 12 17.7709C11.903 17.7709 11.7801 17.7693 11.6314 17.7661C11.4827 17.7629 11.3113 17.7581 11.1173 17.7518C10.9168 17.7518 10.7309 17.7852 10.5595 17.852C10.3882 17.9189 10.2119 18.0223 10.0309 18.1623C9.6364 18.4423 9.19989 18.7335 8.72136 19.0358C8.24281 19.3381 7.78043 19.6133 7.33422 19.8616C6.88801 20.1097 6.51941 20.2943 6.2284 20.4153ZM7.74163 11.3365C7.58643 11.1901 7.50883 11.0024 7.50883 10.7733C7.50883 10.5314 7.58481 10.3357 7.73679 10.1861C7.88876 10.0366 8.09084 9.96181 8.34305 9.96181H11.1949V7.15513C11.1949 6.91328 11.2693 6.71599 11.418 6.56324C11.5668 6.4105 11.7575 6.33412 11.9904 6.33412C12.236 6.33412 12.4349 6.40891 12.5868 6.55847C12.7388 6.70803 12.8148 6.90692 12.8148 7.15513V9.96181H15.6764C15.9221 9.96181 16.121 10.0366 16.273 10.1861C16.425 10.3357 16.5009 10.5314 16.5009 10.7733C16.5009 11.0024 16.425 11.1901 16.273 11.3365C16.121 11.4829 15.9221 11.5561 15.6764 11.5561H12.8148V14.3723C12.8148 14.6141 12.7388 14.8098 12.5868 14.9594C12.4349 15.1089 12.236 15.1837 11.9904 15.1837C11.7575 15.1837 11.5668 15.1089 11.418 14.9594C11.2693 14.8098 11.1949 14.6141 11.1949 14.3723V11.5561H8.34305C8.09731 11.5561 7.89683 11.4829 7.74163 11.3365Z" fill="black" fill-opacity="0.8"/>
<path fill-rule="evenodd" clip-rule="evenodd" d="M6.88801 21.6182C6.20254 21.8727 5.64316 22 5.20988 22C4.87361 22 4.61817 21.922 4.44357 21.7661C4.26896 21.6102 4.17843 21.4161 4.17196 21.1837C4.16549 20.9515 4.24633 20.724 4.41447 20.5012C4.5632 20.3166 4.74104 20.0795 4.94798 19.7899C5.15492 19.5004 5.36185 19.1965 5.56879 18.8782C5.77573 18.56 5.95357 18.2609 6.1023 17.9809C5.08055 17.5163 4.18651 16.9117 3.42019 16.1671C2.65388 15.4224 2.05894 14.5823 1.63536 13.6468C1.21179 12.7112 1 11.7215 1 10.6778C1 9.47493 1.28292 8.34844 1.84877 7.29832C2.41461 6.2482 3.20032 5.32696 4.20591 4.5346C5.2115 3.74224 6.38037 3.12172 7.71253 2.67303C9.04469 2.22434 10.4738 2 12 2C13.5262 2 14.9553 2.22434 16.2875 2.67303C17.6196 3.12172 18.7885 3.74224 19.7941 4.5346C20.7997 5.32696 21.5854 6.2482 22.1512 7.29832C22.7171 8.34844 23 9.47493 23 10.6778C23 11.677 22.8076 12.6206 22.4229 13.5084C22.0381 14.3962 21.4916 15.2029 20.7836 15.9283C20.0755 16.6539 19.2316 17.276 18.2518 17.7947C17.2721 18.3134 16.184 18.7064 14.9876 18.9738C13.7913 19.241 12.5174 19.3556 11.1658 19.3174C10.5127 19.782 9.80778 20.2179 9.05116 20.6253C8.29455 21.0326 7.5735 21.3635 6.88801 21.6182ZM6.15081 20.4009C6.16374 20.4232 6.1896 20.428 6.2284 20.4153C6.51941 20.2943 6.88801 20.1097 7.33422 19.8616C7.78043 19.6133 8.24281 19.3381 8.72136 19.0358C9.19989 18.7335 9.6364 18.4423 10.0309 18.1623C10.2119 18.0223 10.3882 17.9189 10.5595 17.852C10.7309 17.7852 10.9168 17.7518 11.1173 17.7518C11.3113 17.7581 11.4827 17.7629 11.6314 17.7661C11.7801 17.7693 11.903 17.7709 12 17.7709C13.3063 17.7709 14.5285 17.5863 15.6667 17.2172C16.8049 16.848 17.8024 16.3389 18.6592 15.6897C19.5161 15.0406 20.187 14.2864 20.672 13.4272C21.157 12.568 21.3995 11.6515 21.3995 10.6778C21.3995 9.69769 21.157 8.77963 20.672 7.92362C20.187 7.06762 19.5161 6.31344 18.6592 5.6611C17.8024 5.00875 16.8049 4.49801 15.6667 4.12887C14.5285 3.75974 13.3063 3.57518 12 3.57518C10.6937 3.57518 9.4715 3.75974 8.33334 4.12887C7.19519 4.49801 6.19769 5.00875 5.34084 5.6611C4.48399 6.31344 3.81467 7.06762 3.33289 7.92362C2.85112 8.77963 2.61023 9.69769 2.61023 10.6778C2.61023 11.5243 2.79777 12.3294 3.17284 13.0931C3.54792 13.8568 4.09275 14.5553 4.80733 15.1885C5.52191 15.8218 6.38684 16.3707 7.40213 16.8353C7.71253 16.9817 7.8936 17.1599 7.94534 17.37C7.99707 17.5799 7.95504 17.8091 7.81923 18.0573C7.6511 18.3627 7.40213 18.7335 7.07232 19.1695C6.74251 19.6054 6.44181 19.9888 6.1702 20.3198C6.14434 20.3516 6.13787 20.3787 6.15081 20.4009Z" fill="black" fill-opacity="0.8"/>
</svg>
