<svg width="24" height="24" viewBox="0 0 24 24" fill="none" xmlns="http://www.w3.org/2000/svg">
<path d="M4.07991 21.3892C4.49981 21.3892 5.04192 21.2658 5.70623 21.019C6.37055 20.7722 7.06934 20.4514 7.8026 20.0565C8.53586 19.6616 9.21898 19.239 9.85198 18.7886C10.3157 18.8132 10.7763 18.8101 11.2338 18.7793C11.6913 18.7485 12.152 18.696 12.6158 18.622C12.6095 18.5788 12.6048 18.534 12.6016 18.4878C12.5985 18.4415 12.5969 18.3968 12.5969 18.3536V17.3911C12.5969 17.3417 12.5985 17.2939 12.6016 17.2476C12.6048 17.2014 12.6095 17.1566 12.6158 17.1134C12.2773 17.1689 11.9467 17.2121 11.624 17.243C11.3013 17.2738 10.9801 17.2892 10.6604 17.2892C10.5664 17.2892 10.4473 17.2877 10.3032 17.2847C10.159 17.2816 9.99294 17.2769 9.80491 17.2707C9.61065 17.2707 9.43049 17.3031 9.26441 17.368C9.09833 17.4327 8.92755 17.533 8.75207 17.6687C8.36977 17.9402 7.94674 18.2225 7.48298 18.5156C7.0192 18.8086 6.5711 19.0755 6.13867 19.3161C5.70623 19.5567 5.34901 19.7357 5.06699 19.8529C5.02939 19.8652 5.00432 19.8606 4.99179 19.839C4.97925 19.8174 4.98552 19.7912 5.01059 19.7604C5.2738 19.4395 5.56522 19.0678 5.88485 18.6451C6.20448 18.2225 6.44576 17.8631 6.6087 17.5669C6.74031 17.3263 6.78105 17.1042 6.73092 16.9006C6.68078 16.6969 6.5053 16.5242 6.20447 16.3823C5.22053 15.9318 4.3823 15.3997 3.68978 14.7857C2.99727 14.1719 2.46926 13.4947 2.10576 12.7543C1.74226 12.0139 1.56052 11.2334 1.56052 10.4128C1.56052 9.46261 1.79397 8.57259 2.26087 7.74272C2.72777 6.91286 3.37643 6.18171 4.20682 5.54929C5.03722 4.91687 6.00392 4.42172 7.10694 4.06387C8.20996 3.70601 9.39445 3.52708 10.6604 3.52708C11.9264 3.52708 13.1109 3.70601 14.2139 4.06387C15.3169 4.42172 16.2836 4.91687 17.114 5.54929C17.9444 6.18171 18.5947 6.91286 19.0647 7.74272C19.5347 8.57259 19.7697 9.46261 19.7697 10.4128C19.7697 10.9496 19.6945 11.4648 19.5441 11.9583C19.7133 11.9954 19.8731 12.0524 20.0236 12.1296C20.174 12.2067 20.3119 12.3008 20.4372 12.4119C20.5625 12.5229 20.6722 12.6463 20.7662 12.7821C20.7913 12.7821 20.8163 12.7851 20.8414 12.7913C20.8665 12.7975 20.8884 12.8037 20.9072 12.8099C21.0388 12.4335 21.1406 12.0432 21.2127 11.639C21.2848 11.2349 21.3208 10.8262 21.3208 10.4128C21.3208 9.24666 21.0466 8.15457 20.4982 7.13652C19.9499 6.11847 19.1885 5.22536 18.2139 4.4572C17.2393 3.68903 16.1065 3.08746 14.8155 2.65248C13.5245 2.21749 12.1395 2 10.6604 2C9.18136 2 7.79633 2.21749 6.5053 2.65248C5.21426 3.08746 4.08148 3.68903 3.10694 4.4572C2.13239 5.22536 1.37094 6.11847 0.822563 7.13652C0.274188 8.15457 0 9.24666 0 10.4128C0 11.4246 0.205249 12.3841 0.615747 13.2911C1.02625 14.1981 1.60282 15.0125 2.34548 15.7344C3.08814 16.4563 3.95457 17.0425 4.94478 17.4929C4.80064 17.7644 4.62829 18.0544 4.42774 18.3629C4.22719 18.6713 4.02664 18.9659 3.82609 19.2467C3.62555 19.5274 3.4532 19.7572 3.30905 19.9362C3.14611 20.1521 3.06777 20.3727 3.07404 20.598C3.0803 20.8231 3.16804 21.0113 3.33726 21.1625C3.50647 21.3136 3.75402 21.3892 4.07991 21.3892ZM14.6369 18.8441C14.7936 18.8441 14.9236 18.7947 15.0271 18.696C15.1305 18.5973 15.1822 18.477 15.1822 18.3351V16.9283C15.1822 16.7802 15.1305 16.6553 15.0271 16.5535C14.9236 16.4517 14.7936 16.4007 14.6369 16.4007C14.4928 16.4007 14.3706 16.4517 14.2703 16.5535C14.17 16.6553 14.1199 16.7802 14.1199 16.9283V18.3351C14.1199 18.477 14.17 18.5973 14.2703 18.696C14.3706 18.7947 14.4928 18.8441 14.6369 18.8441ZM16.8555 20.3989C17.0059 20.3989 17.1312 20.3496 17.2315 20.2508C17.3318 20.1521 17.3819 20.0257 17.3819 19.8714V15.3735C17.3819 15.2315 17.3318 15.1097 17.2315 15.0079C17.1312 14.9061 17.0059 14.8552 16.8555 14.8552C16.7051 14.8552 16.5782 14.9061 16.4748 15.0079C16.3714 15.1097 16.3196 15.2315 16.3196 15.3735V19.8714C16.3196 20.0257 16.3714 20.1521 16.4748 20.2508C16.5782 20.3496 16.7051 20.3989 16.8555 20.3989ZM19.0552 22C19.2057 22 19.3326 21.9507 19.436 21.852C19.5394 21.7532 19.5911 21.6298 19.5911 21.4818V13.7908C19.5911 13.6366 19.5394 13.5086 19.436 13.4068C19.3326 13.305 19.2057 13.254 19.0552 13.254C18.9111 13.254 18.7873 13.305 18.684 13.4068C18.5805 13.5086 18.5288 13.6366 18.5288 13.7908V21.4818C18.5288 21.6298 18.5789 21.7532 18.6792 21.852C18.7795 21.9507 18.9048 22 19.0552 22ZM21.255 21.0838C21.4055 21.0838 21.5324 21.0329 21.6358 20.9311C21.7392 20.8293 21.7908 20.7044 21.7908 20.5563V14.6886C21.7908 14.5467 21.7392 14.4264 21.6358 14.3276C21.5324 14.2289 21.4055 14.1796 21.255 14.1796C21.1109 14.1796 20.9871 14.2289 20.8837 14.3276C20.7803 14.4264 20.7286 14.5467 20.7286 14.6886V20.5563C20.7286 20.7044 20.7803 20.8293 20.8837 20.9311C20.9871 21.0329 21.1109 21.0838 21.255 21.0838ZM23.4642 19.3346C23.6208 19.3346 23.7493 19.2852 23.8496 19.1865C23.9499 19.0878 24 18.9644 24 18.8164V16.4378C24 16.2897 23.9499 16.1663 23.8496 16.0676C23.7493 15.9689 23.6208 15.9195 23.4642 15.9195C23.3201 15.9195 23.1963 15.9704 23.0929 16.0723C22.9895 16.174 22.9377 16.2959 22.9377 16.4378V18.8164C22.9377 18.9583 22.9895 19.0801 23.0929 19.1819C23.1963 19.2837 23.3201 19.3346 23.4642 19.3346Z" fill="black" fill-opacity="0.8"/>
</svg>
