<svg width="24" height="24" viewBox="0 0 24 24" fill="none" xmlns="http://www.w3.org/2000/svg">
<path d="M6.92923 22C7.12887 22 7.31021 21.9502 7.47324 21.8506C7.63628 21.751 7.83758 21.5951 8.07715 21.3831L11.6806 18.2024L18.4284 18.212C19.4199 18.212 20.2551 18.0401 20.9338 17.6963C21.6125 17.3526 22.1266 16.853 22.4759 16.1976C22.8253 15.5422 23 14.7422 23 13.7976V6.41445C23 5.46987 22.8253 4.66988 22.4759 4.01446C22.1266 3.35904 21.6125 2.85944 20.9338 2.51566C20.2551 2.17189 19.4199 2 18.4284 2H5.5717C4.58017 2 3.74501 2.17189 3.06624 2.51566C2.38748 2.85944 1.87341 3.35904 1.52405 4.01446C1.17468 4.66988 1 5.46987 1 6.41445V13.7976C1 14.7422 1.17468 15.5422 1.52405 16.1976C1.87341 16.853 2.38748 17.351 3.06624 17.6915C3.74501 18.0321 4.58017 18.2024 5.5717 18.2024H6.04084V21.0072C6.04084 21.3092 6.11737 21.5502 6.27043 21.7301C6.42348 21.91 6.64308 22 6.92923 22ZM6.95918 11.5228C6.55325 11.5228 6.20555 11.3831 5.91607 11.1036C5.6266 10.8241 5.48186 10.4883 5.48186 10.0964C5.48186 9.70441 5.6266 9.36867 5.91607 9.08915C6.20555 8.80963 6.55325 8.66987 6.95918 8.66987C7.37176 8.66987 7.72113 8.80963 8.00727 9.08915C8.29342 9.36867 8.43649 9.70441 8.43649 10.0964C8.43649 10.4883 8.29342 10.8241 8.00727 11.1036C7.72113 11.3831 7.37176 11.5228 6.95918 11.5228ZM12.01 11.5228C11.5974 11.5228 11.2464 11.3831 10.9569 11.1036C10.6674 10.8241 10.5227 10.4883 10.5227 10.0964C10.5227 9.70441 10.6674 9.36867 10.9569 9.08915C11.2464 8.80963 11.5974 8.66987 12.01 8.66987C12.4159 8.66987 12.7636 8.80963 13.0531 9.08915C13.3426 9.36867 13.4873 9.70441 13.4873 10.0964C13.4873 10.4883 13.3426 10.8241 13.0531 11.1036C12.7636 11.3831 12.4159 11.5228 12.01 11.5228ZM17.0508 11.5228C16.6383 11.5228 16.2889 11.3831 16.0027 11.1036C15.7166 10.8241 15.5735 10.4883 15.5735 10.0964C15.5735 9.70441 15.7166 9.36867 16.0027 9.08915C16.2889 8.80963 16.6383 8.66987 17.0508 8.66987C17.4567 8.66987 17.8044 8.80963 18.0939 9.08915C18.3834 9.36867 18.5281 9.70441 18.5281 10.0964C18.5281 10.4883 18.3834 10.8241 18.0939 11.1036C17.8044 11.3831 17.4567 11.5228 17.0508 11.5228Z" fill="black" fill-opacity="0.8"/>
</svg>
