<svg width="24" height="24" viewBox="0 0 24 24" fill="none" xmlns="http://www.w3.org/2000/svg">
<path d="M7.13885 22C7.38507 22 7.61133 21.9356 7.81761 21.8067C8.02391 21.6778 8.27678 21.4845 8.57624 21.2266L12.0199 18.2591H18.4284C19.4199 18.2591 20.2551 18.0867 20.9338 17.7419C21.6125 17.3971 22.1266 16.8961 22.4759 16.2388C22.8253 15.5815 23 14.7791 23 13.8318V6.42726C23 5.47994 22.8253 4.67762 22.4759 4.0203C22.1266 3.36298 21.6125 2.86193 20.9338 2.51716C20.2551 2.17239 19.4199 2 18.4284 2H5.5717C4.58017 2 3.74501 2.17239 3.06624 2.51716C2.38748 2.86193 1.87341 3.36298 1.52405 4.0203C1.17468 4.67762 1 5.47994 1 6.42726V13.8318C1 14.7791 1.17468 15.5815 1.52405 16.2388C1.87341 16.8961 2.38748 17.3971 3.06624 17.7419C3.74501 18.0867 4.58017 18.2591 5.5717 18.2591H6.05083V20.7723C6.05083 21.1461 6.14566 21.4441 6.33531 21.6665C6.52497 21.8888 6.79281 22 7.13885 22ZM7.54811 20.231V17.4277C7.54811 17.1635 7.49154 16.9766 7.37841 16.867C7.26529 16.7575 7.07231 16.7027 6.79947 16.7027H5.5717C4.5602 16.7027 3.81322 16.4595 3.33076 15.9729C2.84831 15.4864 2.60709 14.7695 2.60709 13.8222V6.42726C2.60709 5.48639 2.84831 4.77268 3.33076 4.28613C3.81322 3.79958 4.5602 3.55631 5.5717 3.55631H18.4284C19.4332 3.55631 20.1785 3.79958 20.6643 4.28613C21.1501 4.77268 21.393 5.48639 21.393 6.42726V13.8222C21.393 14.7695 21.1501 15.4864 20.6643 15.9729C20.1785 16.4595 19.4332 16.7027 18.4284 16.7027H11.9601C11.6806 16.7027 11.4543 16.7317 11.2813 16.7897C11.1083 16.8477 10.9286 16.9702 10.7423 17.1571L7.54811 20.231ZM7.8276 14.0348H13.108C13.6071 14.0348 13.9964 13.9011 14.2759 13.6336C14.5554 13.3662 14.6951 12.9941 14.6951 12.5171V7.76123C14.6951 7.28435 14.5637 6.91381 14.3008 6.64959C14.038 6.38537 13.657 6.25326 13.1579 6.25326H7.8276C7.35512 6.25326 6.97249 6.38537 6.67968 6.64959C6.38688 6.91381 6.24048 7.28435 6.24048 7.76123V12.5171C6.24048 12.9941 6.38189 13.3662 6.66471 13.6336C6.94753 13.9011 7.33516 14.0348 7.8276 14.0348ZM15.2541 11.4635L17.2006 13.0585C17.2871 13.1294 17.3786 13.1874 17.4751 13.2325C17.5716 13.2776 17.6631 13.3001 17.7496 13.3001C17.9425 13.3001 18.0973 13.2389 18.2137 13.1165C18.3302 12.994 18.3884 12.8297 18.3884 12.6235V7.64523C18.3884 7.44546 18.3302 7.28435 18.2137 7.1619C18.0973 7.03947 17.9425 6.97825 17.7496 6.97825C17.6631 6.97825 17.5716 7.0008 17.4751 7.04591C17.3786 7.09103 17.2871 7.1458 17.2006 7.21024L15.2541 8.81488V11.4635Z" fill="black" fill-opacity="0.8"/>
</svg>
