<svg width="24" height="24" viewBox="0 0 24 24" fill="none" xmlns="http://www.w3.org/2000/svg">
<path d="M7.13885 22C7.38507 22 7.61133 21.9356 7.81761 21.8067C8.02391 21.6778 8.27678 21.4845 8.57624 21.2266L12.0199 18.2591H18.4284C19.4199 18.2591 20.2551 18.0867 20.9338 17.7419C21.6125 17.3971 22.1266 16.8961 22.4759 16.2388C22.8253 15.5815 23 14.7791 23 13.8318V6.42726C23 5.47994 22.8253 4.67762 22.4759 4.0203C22.1266 3.36298 21.6125 2.86193 20.9338 2.51716C20.2551 2.17239 19.4199 2 18.4284 2H5.5717C4.58017 2 3.74501 2.17239 3.06624 2.51716C2.38748 2.86193 1.87341 3.36298 1.52405 4.0203C1.17468 4.67762 1 5.47994 1 6.42726V13.8318C1 14.7791 1.17468 15.5815 1.52405 16.2388C1.87341 16.8961 2.38748 17.3971 3.06624 17.7419C3.74501 18.0867 4.58017 18.2591 5.5717 18.2591H6.05083V20.7723C6.05083 21.1461 6.14566 21.4441 6.33531 21.6665C6.52497 21.8888 6.79281 22 7.13885 22ZM7.54811 20.231V17.4277C7.54811 17.1635 7.49154 16.9766 7.37841 16.867C7.26529 16.7575 7.07231 16.7027 6.79947 16.7027H5.5717C4.5602 16.7027 3.81322 16.4595 3.33076 15.9729C2.84831 15.4864 2.60709 14.7695 2.60709 13.8222V6.42726C2.60709 5.48639 2.84831 4.77268 3.33076 4.28613C3.81322 3.79958 4.5602 3.55631 5.5717 3.55631H18.4284C19.4332 3.55631 20.1785 3.79958 20.6643 4.28613C21.1501 4.77268 21.393 5.48639 21.393 6.42726V13.8222C21.393 14.7695 21.1501 15.4864 20.6643 15.9729C20.1785 16.4595 19.4332 16.7027 18.4284 16.7027H11.9601C11.6806 16.7027 11.4543 16.7317 11.2813 16.7897C11.1083 16.8477 10.9286 16.9702 10.7423 17.1571L7.54811 20.231ZM10.922 14.7114C11.2614 14.7114 11.5309 14.5632 11.7305 14.2668L16.2922 7.30691C16.3521 7.21669 16.407 7.11841 16.457 7.01208C16.5068 6.90575 16.5318 6.7978 16.5318 6.68825C16.5318 6.47559 16.4486 6.30481 16.2823 6.17593C16.1159 6.04704 15.9295 5.9826 15.7233 5.9826C15.4437 5.9826 15.2108 6.1276 15.0245 6.41759L10.8821 12.8555L8.91562 10.3905C8.79584 10.2359 8.67772 10.1311 8.56126 10.0764C8.44481 10.0216 8.31671 9.99419 8.17696 9.99419C7.96401 9.99419 7.78268 10.0699 7.63295 10.2214C7.48322 10.3728 7.40836 10.5548 7.40836 10.7675C7.40836 10.9673 7.48489 11.1671 7.63794 11.3668L10.0735 14.2668C10.2 14.4215 10.3314 14.5343 10.4678 14.6051C10.6042 14.676 10.7556 14.7114 10.922 14.7114Z" fill="black" fill-opacity="0.8"/>
</svg>
