<svg width="24" height="24" viewBox="0 0 24 24" fill="none" xmlns="http://www.w3.org/2000/svg">
<path d="M6.92923 22C7.12887 22 7.31021 21.9502 7.47324 21.8506C7.63628 21.751 7.83758 21.5951 8.07715 21.3831L11.6806 18.2024L18.4284 18.212C19.4199 18.212 20.2551 18.0401 20.9338 17.6963C21.6125 17.3526 22.1266 16.853 22.4759 16.1976C22.8253 15.5422 23 14.7422 23 13.7976V6.41445C23 5.46987 22.8253 4.66988 22.4759 4.01446C22.1266 3.35904 21.6125 2.85944 20.9338 2.51566C20.2551 2.17189 19.4199 2 18.4284 2H5.5717C4.58017 2 3.74501 2.17189 3.06624 2.51566C2.38748 2.85944 1.87341 3.35904 1.52405 4.01446C1.17468 4.66988 1 5.46987 1 6.41445V13.7976C1 14.7422 1.17468 15.5422 1.52405 16.1976C1.87341 16.853 2.38748 17.351 3.06624 17.6915C3.74501 18.0321 4.58017 18.2024 5.5717 18.2024H6.04084V21.0072C6.04084 21.3092 6.11737 21.5502 6.27043 21.7301C6.42348 21.91 6.64308 22 6.92923 22ZM9.50455 12.4289C8.90564 11.8506 8.37494 11.2434 7.91245 10.6072C7.44995 9.97107 7.10058 9.33814 6.86434 8.70843C6.62811 8.07871 6.54326 7.48112 6.60981 6.91565C6.67636 6.3502 6.93589 5.84578 7.3884 5.40241C7.4017 5.38956 7.42 5.37189 7.4433 5.3494C7.46659 5.32691 7.49487 5.30924 7.52814 5.29639C7.7544 5.12932 7.974 5.01044 8.18695 4.93976C8.39989 4.86908 8.59786 4.85783 8.78086 4.90602C8.96387 4.95421 9.12857 5.0747 9.27497 5.26747L10.5427 7.0024C10.7556 7.29156 10.8438 7.54056 10.8072 7.74939C10.7706 7.95822 10.6358 8.18152 10.4029 8.41927L10.0036 8.82409C9.9371 8.89477 9.90882 8.96867 9.9188 9.04578C9.92878 9.12288 9.95041 9.19035 9.98368 9.24818C10.0835 9.41525 10.2499 9.63694 10.4828 9.91324C10.7157 10.1895 10.9719 10.4626 11.2514 10.7325C11.5442 11.0152 11.8287 11.2658 12.1049 11.4844C12.381 11.7028 12.6089 11.8634 12.7886 11.9662C12.8618 12.0048 12.9433 12.0257 13.0332 12.0289C13.123 12.0321 13.1979 12.008 13.2577 11.9566L13.657 11.5614C13.8899 11.3365 14.1162 11.2064 14.3358 11.1711C14.5554 11.1358 14.8182 11.2209 15.1244 11.4265C15.4038 11.6129 15.65 11.7799 15.863 11.9277C16.0759 12.0755 16.2706 12.2088 16.4469 12.3277C16.6233 12.4466 16.7913 12.5606 16.9511 12.6698C17.2505 12.8883 17.3836 13.1486 17.3503 13.4506C17.3171 13.7526 17.184 14.0321 16.9511 14.2892C16.9244 14.3213 16.8978 14.3534 16.8711 14.3855C16.8446 14.4176 16.8146 14.4498 16.7814 14.4819C16.3288 14.9188 15.8098 15.1678 15.2241 15.2289C14.6385 15.2899 14.0197 15.2064 13.3675 14.9783C12.7154 14.7502 12.0599 14.4128 11.4011 13.9662C10.7423 13.5197 10.1101 13.0072 9.50455 12.4289Z" fill="black" fill-opacity="0.8"/>
</svg>
