<svg width="24" height="24" viewBox="0 0 24 24" fill="none" xmlns="http://www.w3.org/2000/svg">
<path d="M6.92923 22C7.12887 22 7.31021 21.9502 7.47324 21.8506C7.63628 21.751 7.83758 21.5951 8.07715 21.3831L11.6806 18.2024L18.4284 18.212C19.4199 18.212 20.2551 18.0401 20.9338 17.6963C21.6125 17.3526 22.1266 16.853 22.4759 16.1976C22.8253 15.5422 23 14.7422 23 13.7976V6.41445C23 5.46987 22.8253 4.66988 22.4759 4.01446C22.1266 3.35904 21.6125 2.85944 20.9338 2.51566C20.2551 2.17189 19.4199 2 18.4284 2H5.5717C4.58017 2 3.74501 2.17189 3.06624 2.51566C2.38748 2.85944 1.87341 3.35904 1.52405 4.01446C1.17468 4.66988 1 5.46987 1 6.41445V13.7976C1 14.7422 1.17468 15.5422 1.52405 16.1976C1.87341 16.853 2.38748 17.351 3.06624 17.6915C3.74501 18.0321 4.58017 18.2024 5.5717 18.2024H6.04084V21.0072C6.04084 21.3092 6.11737 21.5502 6.27043 21.7301C6.42348 21.91 6.64308 22 6.92923 22ZM8.62615 14.7518C8.39324 14.7518 8.20691 14.6875 8.06716 14.559C7.92741 14.4305 7.85754 14.2667 7.85754 14.0675C7.85754 13.9904 7.8642 13.9116 7.87751 13.8313C7.89082 13.751 7.92077 13.6562 7.96735 13.547L10.8521 6.04819C11.0584 5.52129 11.441 5.25783 12 5.25783C12.5657 5.25783 12.9516 5.52129 13.1579 6.04819L16.0527 13.547C16.0926 13.6562 16.1192 13.751 16.1325 13.8313C16.1458 13.9116 16.1525 13.9904 16.1525 14.0675C16.1525 14.2667 16.0826 14.4305 15.9428 14.559C15.8031 14.6875 15.6201 14.7518 15.3938 14.7518C15.2075 14.7518 15.0478 14.7036 14.9147 14.6072C14.7817 14.5108 14.6752 14.3469 14.5953 14.1157L13.8367 12.0048H10.1733L9.4247 14.1157C9.34484 14.3534 9.23837 14.5188 9.10528 14.612C8.97219 14.7052 8.81248 14.7518 8.62615 14.7518ZM10.5826 10.8H13.4274L12.0599 6.96385H11.9501L10.5826 10.8Z" fill="black" fill-opacity="0.8"/>
</svg>
