<svg width="24" height="24" viewBox="0 0 24 24" fill="none" xmlns="http://www.w3.org/2000/svg">
<path d="M4.84128 22C5.13228 22 5.51382 21.9297 5.9859 21.789C6.45797 21.6483 6.96724 21.4596 7.51368 21.223C8.06012 20.9864 8.6001 20.7259 9.13362 20.4413C9.66712 20.1567 10.1408 19.8673 10.5547 19.5731C10.6388 19.5156 10.7164 19.474 10.7875 19.4485C10.8586 19.4229 10.9265 19.4101 10.9912 19.4101C11.0558 19.4165 11.1205 19.4213 11.1852 19.4245C11.2499 19.4277 11.3113 19.4292 11.3696 19.4292C12.7663 19.4292 14.0629 19.2822 15.2593 18.988C16.4556 18.6939 17.5307 18.2782 18.4846 17.741C19.4385 17.2039 20.2517 16.5724 20.9242 15.8466C21.5967 15.1207 22.1108 14.323 22.4665 13.4533C22.8222 12.5835 23 11.6723 23 10.7194C23 9.5108 22.7171 8.37891 22.1512 7.32375C21.5854 6.26859 20.7997 5.34293 19.7941 4.54676C18.7885 3.7506 17.6196 3.1271 16.2875 2.67626C14.9553 2.22542 13.5262 2 12 2C10.4738 2 9.04469 2.22542 7.71253 2.67626C6.38037 3.1271 5.2115 3.7506 4.20591 4.54676C3.20032 5.34293 2.41461 6.26859 1.84877 7.32375C1.28292 8.37891 1 9.5108 1 10.7194C1 11.7426 1.20209 12.7147 1.60626 13.6355C2.01043 14.5564 2.58921 15.3989 3.3426 16.163C4.09598 16.9272 4.99001 17.5843 6.0247 18.1343C6.09584 18.1727 6.14272 18.2255 6.16536 18.2926C6.18799 18.3598 6.17991 18.4285 6.1411 18.4988C5.96003 18.793 5.74663 19.0967 5.50089 19.4101C5.25515 19.7234 5.0175 20.0128 4.78793 20.2782C4.55836 20.5436 4.38214 20.7562 4.25926 20.9161C4.07173 21.1591 4.02808 21.4005 4.12831 21.6403C4.22855 21.8801 4.4662 22 4.84128 22ZM12.0195 15.7554C11.7996 15.7554 11.6185 15.6867 11.4762 15.5491C11.3339 15.4117 11.2628 15.231 11.2628 15.0072V10.0863L11.3404 7.98562L10.3413 9.17507L9.15786 10.3549C9.00912 10.502 8.83129 10.5756 8.62435 10.5756C8.41741 10.5756 8.24443 10.5068 8.10539 10.3693C7.96636 10.2318 7.89684 10.0608 7.89684 9.85613C7.89684 9.64509 7.96474 9.47243 8.10054 9.33814L11.4374 6.05756C11.6249 5.86571 11.819 5.76979 12.0195 5.76979C12.2199 5.76979 12.4139 5.86571 12.6014 6.05756L15.9383 9.33814C16.0741 9.47883 16.142 9.65149 16.142 9.85613C16.142 10.0608 16.0708 10.2318 15.9286 10.3693C15.7864 10.5068 15.6118 10.5756 15.4048 10.5756C15.1849 10.5756 15.007 10.502 14.8712 10.3549L13.6975 9.17507L12.6888 7.97602L12.7663 10.0863V15.0072C12.7663 15.231 12.6968 15.4117 12.5577 15.5491C12.4187 15.6867 12.2393 15.7554 12.0195 15.7554Z" fill="black" fill-opacity="0.8"/>
</svg>
