<svg width="24" height="24" viewBox="0 0 24 24" fill="none" xmlns="http://www.w3.org/2000/svg">
<path d="M6.92923 22C7.12887 22 7.31021 21.9502 7.47324 21.8506C7.63628 21.751 7.83758 21.5951 8.07715 21.3831L11.6806 18.2024L18.4284 18.212C19.4199 18.212 20.2551 18.0401 20.9338 17.6963C21.6125 17.3526 22.1266 16.853 22.4759 16.1976C22.8253 15.5422 23 14.7422 23 13.7976V6.41445C23 5.46987 22.8253 4.66988 22.4759 4.01446C22.1266 3.35904 21.6125 2.85944 20.9338 2.51566C20.2551 2.17189 19.4199 2 18.4284 2H5.5717C4.58017 2 3.74501 2.17189 3.06624 2.51566C2.38748 2.85944 1.87341 3.35904 1.52405 4.01446C1.17468 4.66988 1 5.46987 1 6.41445V13.7976C1 14.7422 1.17468 15.5422 1.52405 16.1976C1.87341 16.853 2.38748 17.351 3.06624 17.6915C3.74501 18.0321 4.58017 18.2024 5.5717 18.2024H6.04084V21.0072C6.04084 21.3092 6.11737 21.5502 6.27043 21.7301C6.42348 21.91 6.64308 22 6.92923 22ZM7.70782 14.1157C7.19542 14.1157 6.79448 13.9775 6.505 13.7012C6.21553 13.4249 6.07079 13.0425 6.07079 12.5542V7.65783C6.07079 7.16305 6.22052 6.78072 6.51997 6.51084C6.81943 6.24096 7.21537 6.10602 7.70782 6.10602H13.1979C13.7169 6.10602 14.1095 6.24096 14.3757 6.51084C14.6419 6.78072 14.775 7.16305 14.775 7.65783V12.5542C14.775 13.0425 14.6319 13.4249 14.3457 13.7012C14.0596 13.9775 13.6603 14.1157 13.148 14.1157H7.70782ZM15.3639 11.465V8.74698L17.3702 7.08915C17.4568 7.02489 17.55 6.97028 17.6498 6.9253C17.7496 6.88032 17.846 6.85783 17.9393 6.85783C18.1322 6.85783 18.2903 6.92048 18.4133 7.04578C18.5365 7.17108 18.598 7.33654 18.598 7.54216V12.6602C18.598 12.8723 18.5365 13.0409 18.4133 13.1663C18.2903 13.2916 18.1322 13.3542 17.9393 13.3542C17.846 13.3542 17.7512 13.3317 17.6547 13.2867C17.5582 13.2417 17.4634 13.1839 17.3702 13.1133L15.3639 11.465Z" fill="black" fill-opacity="0.8"/>
</svg>
