<svg width="24" height="24" viewBox="0 0 24 24" fill="none" xmlns="http://www.w3.org/2000/svg">
<path d="M11.9801 2C11.7538 2 11.5359 2.05775 11.3262 2.17324C11.1166 2.28874 10.912 2.5101 10.7124 2.83734L8.86571 5.81135H5.5717C4.58017 5.81135 3.74501 5.98299 3.06624 6.32627C2.38748 6.66955 1.87341 7.16842 1.52405 7.82289C1.17468 8.47737 1 9.27622 1 10.2194V17.5919C1 18.5351 1.17468 19.3356 1.52405 19.9932C1.87341 20.6509 2.38748 21.1498 3.06624 21.4899C3.74501 21.83 4.58017 22 5.5717 22H18.4284C19.4199 22 20.2551 21.8283 20.9338 21.485C21.6125 21.1417 22.1266 20.6429 22.4759 19.9885C22.8253 19.334 23 18.5351 23 17.5919V10.2194C23 9.28263 22.8253 8.48539 22.4759 7.82771C22.1266 7.17003 21.6125 6.66955 20.9338 6.32627C20.2551 5.98299 19.4199 5.81135 18.4284 5.81135H15.0944L13.2477 2.83734C13.0481 2.5101 12.8435 2.28874 12.6338 2.17324C12.4242 2.05775 12.2063 2 11.9801 2Z" fill="black" fill-opacity="0.8"/>
</svg>
