<svg width="24" height="24" viewBox="0 0 24 24" fill="none" xmlns="http://www.w3.org/2000/svg">
<path d="M11.9801 22C12.2063 22 12.4242 21.9407 12.6338 21.822C12.8435 21.7034 13.0481 21.4805 13.2477 21.1534L15.0944 18.1808H18.4284C19.4199 18.1808 20.2551 18.0093 20.9338 17.6662C21.6125 17.3231 22.1266 16.8244 22.4759 16.1702C22.8253 15.5161 23 14.7176 23 13.7749V6.40596C23 5.4632 22.8253 4.66474 22.4759 4.01058C22.1266 3.35642 21.6125 2.85778 20.9338 2.51467C20.2551 2.17156 19.4199 2 18.4284 2H5.5717C4.58017 2 3.74501 2.17156 3.06624 2.51467C2.38748 2.85778 1.87341 3.35642 1.52405 4.01058C1.17468 4.66474 1 5.4632 1 6.40596V13.7749C1 14.7176 1.17468 15.5161 1.52405 16.1702C1.87341 16.8244 2.38748 17.3231 3.06624 17.6662C3.74501 18.0093 4.58017 18.1808 5.5717 18.1808H8.86571L10.7124 21.1534C10.912 21.4805 11.1166 21.7034 11.3262 21.822C11.5359 21.9407 11.7538 22 11.9801 22ZM11.9801 20.4223L10.3131 17.4113C10.1467 17.1034 9.98036 16.8966 9.81399 16.7908C9.64763 16.685 9.3881 16.6321 9.03541 16.6321H5.5717C4.5602 16.6321 3.81322 16.39 3.33076 15.9057C2.84831 15.4215 2.60709 14.708 2.60709 13.7652V6.40596C2.60709 5.46961 2.84831 4.75934 3.33076 4.27513C3.81322 3.79092 4.5602 3.54882 5.5717 3.54882H18.4284C19.4332 3.54882 20.1785 3.79092 20.6643 4.27513C21.1501 4.75934 21.393 5.46961 21.393 6.40596V13.7652C21.393 14.708 21.1501 15.4215 20.6643 15.9057C20.1785 16.39 19.4332 16.6321 18.4284 16.6321H14.9247C14.572 16.6321 14.3125 16.685 14.1461 16.7908C13.9798 16.8966 13.8134 17.1034 13.647 17.4113L11.9801 20.4223Z" fill="black" fill-opacity="0.8"/>
</svg>
