<svg width="24" height="24" viewBox="0 0 24 24" fill="none" xmlns="http://www.w3.org/2000/svg">
<path d="M5.64067 20.57C5.85794 20.57 6.05849 20.5257 6.24233 20.4371C6.42618 20.3485 6.65181 20.188 6.91922 19.9554L10.429 16.8331L9.45961 15.903L5.98328 19.0918V16.7168C5.98328 16.4843 5.92061 16.3113 5.79526 16.1978C5.66991 16.0843 5.51531 16.0276 5.33147 16.0276H3.70195C2.961 16.0276 2.383 15.8297 1.96796 15.4338C1.55292 15.038 1.34541 14.4525 1.34541 13.6774V6.11233C1.34541 5.33727 1.55292 4.75044 1.96796 4.35184C2.383 3.95324 2.961 3.75394 3.70195 3.75394H15.493C16.234 3.75394 16.812 3.95324 17.227 4.35184C17.642 4.75044 17.8496 5.33727 17.8496 6.11233V7.27492H19.1949V6.06251C19.1949 5.31513 19.0515 4.6757 18.7646 4.14423C18.4777 3.61276 18.0641 3.20586 17.5236 2.92352C16.9832 2.64117 16.3342 2.5 15.5766 2.5H3.61838C2.89415 2.5 2.26044 2.64117 1.71727 2.92352C1.1741 3.20586 0.75209 3.61276 0.451253 4.14423C0.150418 4.6757 0 5.31513 0 6.06251V13.7107C0 14.4636 0.150418 15.1058 0.451253 15.6373C0.75209 16.1687 1.1741 16.5743 1.71727 16.8539C2.26044 17.1334 2.89415 17.2732 3.61838 17.2732H4.72145V19.5485C4.72145 19.8696 4.80083 20.1201 4.95961 20.3001C5.11838 20.48 5.3454 20.57 5.64067 20.57ZM19.2535 21.5C19.5432 21.5 19.766 21.4059 19.9219 21.2177C20.078 21.0295 20.156 20.7776 20.156 20.462V18.469H20.5069C21.2033 18.469 21.8133 18.3334 22.337 18.0621C22.8607 17.7909 23.2688 17.4005 23.5613 16.8912C23.8538 16.3819 24 15.7646 24 15.0394V10.1316C24 9.40634 23.8538 8.78767 23.5613 8.27558C23.2688 7.76349 22.8607 7.3718 22.337 7.10053C21.8133 6.82926 21.2033 6.69363 20.5069 6.69363H12.3927C11.6629 6.69363 11.0376 6.82926 10.5167 7.10053C9.99583 7.3718 9.59752 7.76349 9.32176 8.27558C9.04599 8.78767 8.90811 9.40634 8.90811 10.1316V15.0394C8.90811 15.7646 9.04599 16.3833 9.32176 16.8953C9.59752 17.4074 9.99583 17.7977 10.5167 18.0663C11.0376 18.3348 11.6629 18.469 12.3927 18.469H15.2758L18.0669 20.844C18.3231 21.0599 18.5348 21.2232 18.702 21.3339C18.8691 21.4446 19.0529 21.5 19.2535 21.5ZM18.9025 19.997L16.2201 17.6054C16.0529 17.4615 15.9025 17.3604 15.7688 17.3022C15.6351 17.2441 15.4541 17.2151 15.2256 17.2151H12.4763C11.78 17.2151 11.234 17.0296 10.8384 16.6587C10.4429 16.2878 10.2452 15.7342 10.2452 14.9979L10.2535 10.1731C10.2535 9.44232 10.4498 8.88871 10.8426 8.51225C11.2354 8.13579 11.78 7.94757 12.4763 7.94757H20.4318C21.1282 7.94757 21.6727 8.13579 22.0654 8.51225C22.4582 8.88871 22.6546 9.44232 22.6546 10.1731V14.9979C22.6546 15.7286 22.4568 16.2808 22.0612 16.6545C21.6657 17.0282 21.1226 17.2151 20.4318 17.2151H19.5459C19.3677 17.2151 19.2159 17.2704 19.0905 17.3812C18.9651 17.4919 18.9025 17.6635 18.9025 17.896V19.997Z" fill="black" fill-opacity="0.8"/>
</svg>
