<svg width="24" height="24" viewBox="0 0 24 24" fill="none" xmlns="http://www.w3.org/2000/svg">
<path d="M6.92923 22C7.12887 22 7.31021 21.9502 7.47324 21.8506C7.63628 21.751 7.83758 21.5951 8.07715 21.3831L11.6806 18.2024L18.4284 18.212C19.4199 18.212 20.2551 18.0401 20.9338 17.6963C21.6125 17.3526 22.1266 16.853 22.4759 16.1976C22.8253 15.5422 23 14.7422 23 13.7976V6.41445C23 5.46987 22.8253 4.66988 22.4759 4.01446C22.1266 3.35904 21.6125 2.85944 20.9338 2.51566C20.2551 2.17189 19.4199 2 18.4284 2H5.5717C4.58017 2 3.74501 2.17189 3.06624 2.51566C2.38748 2.85944 1.87341 3.35904 1.52405 4.01446C1.17468 4.66988 1 5.46987 1 6.41445V13.7976C1 14.7422 1.17468 15.5422 1.52405 16.1976C1.87341 16.853 2.38748 17.351 3.06624 17.6915C3.74501 18.0321 4.58017 18.2024 5.5717 18.2024H6.04084V21.0072C6.04084 21.3092 6.11737 21.5502 6.27043 21.7301C6.42348 21.91 6.64308 22 6.92923 22ZM9.80304 13.8696C9.66035 13.9703 9.51903 14.0113 9.37908 13.9928C9.23914 13.9742 9.13486 13.9067 9.06627 13.7902C8.99767 13.6736 8.99629 13.5251 9.06215 13.3449L9.92652 10.8649L7.67092 9.29894C7.51725 9.19825 7.43356 9.08299 7.41984 8.95316C7.40612 8.82332 7.44591 8.71072 7.5392 8.61533C7.6325 8.51995 7.76422 8.47225 7.93434 8.47225H10.7168L11.5482 6.00807C11.6251 5.759 11.776 5.63447 12.001 5.63447C12.226 5.63447 12.3797 5.759 12.462 6.00807L13.2852 8.47225H16.0513C16.2269 8.47225 16.3613 8.51995 16.4546 8.61533C16.5479 8.71072 16.5863 8.82332 16.5698 8.95316C16.5534 9.08299 16.4683 9.19825 16.3147 9.29894L14.0755 10.8649L14.9316 13.3449C14.9975 13.5251 14.9961 13.6736 14.9275 13.7902C14.8589 13.9067 14.7546 13.9742 14.6147 13.9928C14.4748 14.0113 14.3335 13.9703 14.1908 13.8696L12.001 12.3195L9.80304 13.8696Z" fill="black" fill-opacity="0.8"/>
</svg>
