<svg width="24" height="24" viewBox="0 0 24 24" fill="none" xmlns="http://www.w3.org/2000/svg">
<path d="M5 11.8786C5 13.0997 5.26252 14.1838 5.78756 15.1309C6.31261 16.0779 7.04473 16.8365 7.98393 17.4065C8.92314 17.9767 10.0156 18.3116 11.2614 18.4112V20.5888H7.63172C7.42301 20.5888 7.24691 20.6573 7.10343 20.7945C6.95994 20.9315 6.8882 21.0997 6.8882 21.2991C6.8882 21.4923 6.95994 21.6574 7.10343 21.7944C7.24691 21.9315 7.42301 22 7.63172 22H16.3683C16.577 22 16.7531 21.9315 16.8966 21.7944C17.04 21.6574 17.1118 21.4923 17.1118 21.2991C17.1118 21.0997 17.04 20.9315 16.8966 20.7945C16.7531 20.6573 16.577 20.5888 16.3683 20.5888H12.7386V18.4112C13.9844 18.3116 15.0769 17.9767 16.0161 17.4065C16.9553 16.8365 17.6874 16.0779 18.2125 15.1309C18.7375 14.1838 19 13.0997 19 11.8786V9.98132C19 9.78818 18.9283 9.62307 18.7848 9.486C18.6413 9.34892 18.4684 9.28039 18.2663 9.28039C18.0576 9.28039 17.8814 9.34892 17.7379 9.486C17.5944 9.62307 17.5227 9.78818 17.5227 9.98132V11.8225C17.5227 12.8816 17.2944 13.81 16.8379 14.6075C16.3813 15.405 15.7405 16.0234 14.9154 16.4626C14.0904 16.9019 13.1202 17.1215 12.0049 17.1215C10.8896 17.1215 9.91778 16.9019 9.08945 16.4626C8.26113 16.0234 7.61868 15.405 7.16212 14.6075C6.70557 13.81 6.47729 12.8816 6.47729 11.8225V9.98132C6.47729 9.78818 6.40555 9.62307 6.26206 9.486C6.11857 9.34892 5.94246 9.28039 5.73375 9.28039C5.53156 9.28039 5.35872 9.34892 5.21523 9.486C5.07174 9.62307 5 9.78818 5 9.98132V11.8786ZM8.44375 11.5421C8.44375 12.2586 8.59376 12.8926 8.89378 13.4439C9.19381 13.9954 9.61123 14.4268 10.1461 14.7383C10.6809 15.0498 11.3005 15.2056 12.0049 15.2056C12.7028 15.2056 13.3191 15.0498 13.854 14.7383C14.3888 14.4268 14.8062 13.9954 15.1062 13.4439C15.4062 12.8926 15.5563 12.2586 15.5563 11.5421V5.66355C15.5563 4.94705 15.4062 4.31309 15.1062 3.76169C14.8062 3.21028 14.3888 2.77882 13.854 2.46729C13.3191 2.15576 12.7028 2 12.0049 2C11.3005 2 10.6809 2.15576 10.1461 2.46729C9.61123 2.77882 9.19381 3.21028 8.89378 3.76169C8.59376 4.31309 8.44375 4.94705 8.44375 5.66355V11.5421ZM9.92104 11.5421V5.66355C9.92104 4.97197 10.1118 4.42057 10.4934 4.00935C10.8749 3.59814 11.3788 3.39253 12.0049 3.39253C12.631 3.39253 13.1332 3.59814 13.5115 4.00935C13.8898 4.42057 14.079 4.97197 14.079 5.66355V11.5421C14.079 12.2337 13.8898 12.7851 13.5115 13.1963C13.1332 13.6075 12.631 13.8132 12.0049 13.8132C11.3788 13.8132 10.8749 13.6075 10.4934 13.1963C10.1118 12.7851 9.92104 12.2337 9.92104 11.5421Z" fill="#FF9500"/>
</svg>
