<svg width="24" height="24" viewBox="0 0 24 24" fill="none" xmlns="http://www.w3.org/2000/svg">
<path d="M5.12875 11.8786C5.12875 13.0997 5.38115 14.1838 5.88595 15.1309C6.39075 16.0779 7.09466 16.8365 7.99765 17.4065C8.90065 17.9767 9.95102 18.3116 11.1488 18.4112V20.5888H7.65903C7.45837 20.5888 7.28905 20.6573 7.15109 20.7945C7.01313 20.9315 6.94415 21.0997 6.94415 21.2991C6.94415 21.4923 7.01313 21.6574 7.15109 21.7944C7.28905 21.9315 7.45837 22 7.65903 22H16.0588C16.2594 22 16.4288 21.9315 16.5668 21.7944C16.7047 21.6574 16.7737 21.4923 16.7737 21.2991C16.7737 21.0997 16.7047 20.9315 16.5668 20.7945C16.4288 20.6573 16.2594 20.5888 16.0588 20.5888H12.5691V18.4112C13.1021 18.3738 13.6054 18.2835 14.0788 18.1402C14.5523 17.9969 14.9959 17.81 15.4098 17.5795L14.3939 16.5795C14.0302 16.7539 13.6367 16.8879 13.2134 16.9813C12.7901 17.0748 12.3402 17.1215 11.8636 17.1215C10.7913 17.1215 9.85696 16.9019 9.06056 16.4626C8.26417 16.0234 7.64649 15.405 7.20753 14.6075C6.76857 13.81 6.54909 12.8816 6.54909 11.8225V9.98132C6.54909 9.78818 6.48011 9.62307 6.34215 9.486C6.2042 9.34892 6.03489 9.28039 5.83422 9.28039C5.63982 9.28039 5.47364 9.34892 5.33569 9.486C5.19773 9.62307 5.12875 9.78818 5.12875 9.98132V11.8786ZM16.8396 13.8038L17.9401 14.8973C18.3728 13.9938 18.5891 12.9875 18.5891 11.8786V9.98132C18.5891 9.78818 18.5201 9.62307 18.3821 9.486C18.2442 9.34892 18.078 9.28039 17.8837 9.28039C17.683 9.28039 17.5137 9.34892 17.3757 9.486C17.2377 9.62307 17.1688 9.78818 17.1688 9.98132V11.8225C17.1688 12.5328 17.059 13.1932 16.8396 13.8038ZM11.8636 15.2056C12.2022 15.2056 12.5315 15.1526 12.8513 15.0467L11.4121 13.6075C11.3557 13.6386 11.2742 13.6542 11.1676 13.6542C10.8854 13.5981 10.6502 13.4673 10.4621 13.2617C10.274 13.0561 10.1486 12.81 10.0858 12.5234L10.0764 12.2898L8.43975 10.6636V11.5421C8.43975 12.2586 8.58398 12.8926 8.87243 13.4439C9.16089 13.9954 9.56222 14.4268 10.0764 14.7383C10.5906 15.0498 11.1864 15.2056 11.8636 15.2056ZM15.2781 5.66355C15.2781 4.94705 15.1339 4.31309 14.8454 3.76169C14.5569 3.21028 14.1556 2.77882 13.6414 2.46729C13.1272 2.15576 12.5346 2 11.8636 2C11.2428 2 10.691 2.1324 10.2081 2.3972C9.72527 2.66199 9.33334 3.0296 9.03234 3.5C8.73134 3.97041 8.54635 4.51714 8.47738 5.14019V5.51403L9.86009 6.87852V5.66355C9.86009 4.97197 10.0435 4.42057 10.4104 4.00935C10.7772 3.59814 11.2616 3.39253 11.8636 3.39253C12.4656 3.39253 12.9485 3.59814 13.3122 4.00935C13.6759 4.42057 13.8578 4.97197 13.8578 5.66355V10.6262C13.8578 10.6636 13.8578 10.6994 13.8578 10.7337C13.8578 10.7679 13.8546 10.8038 13.8483 10.8411L15.2217 12.2057C15.2593 11.9813 15.2781 11.7601 15.2781 11.5421V5.66355ZM18.7678 19.3364C18.9058 19.4736 19.0767 19.5421 19.2805 19.5421C19.4842 19.5421 19.6551 19.4736 19.7931 19.3364C19.931 19.1932 20 19.0218 20 18.8224C20 18.6231 19.931 18.4548 19.7931 18.3178L5.24162 3.86916C5.09739 3.73209 4.92495 3.66355 4.72428 3.66355C4.52361 3.66355 4.35117 3.73209 4.20694 3.86916C4.06898 4.00623 4 4.17757 4 4.38318C4 4.58879 4.06898 4.75701 4.20694 4.88786L18.7678 19.3364Z" fill="black" fill-opacity="0.8"/>
</svg>
