<svg width="24" height="24" viewBox="0 0 24 24" fill="none" xmlns="http://www.w3.org/2000/svg">
<path d="M5.12875 11.831C5.12875 13.0579 5.38115 14.1471 5.88595 15.0985C6.39075 16.05 7.09466 16.8122 7.99765 17.385C8.90065 17.9577 9.95102 18.2942 11.1488 18.3944V20.5822H7.65903C7.45837 20.5822 7.28905 20.651 7.15109 20.7887C7.01313 20.9265 6.94415 21.0955 6.94415 21.2958C6.94415 21.4898 7.01313 21.6557 7.15109 21.7934C7.28905 21.9311 7.45837 22 7.65903 22H16.0588C16.2594 22 16.4288 21.9311 16.5668 21.7934C16.7047 21.6557 16.7737 21.4898 16.7737 21.2958C16.7737 21.0955 16.7047 20.9265 16.5668 20.7887C16.4288 20.651 16.2594 20.5822 16.0588 20.5822H12.5691V18.3944C13.1021 18.3568 13.6054 18.2676 14.0788 18.1268C14.5523 17.9859 14.9928 17.7996 15.4003 17.5681L14.3939 16.554C14.0302 16.7293 13.6367 16.8639 13.2134 16.9577C12.7901 17.0516 12.3402 17.0986 11.8636 17.0986C10.7913 17.0986 9.85696 16.8779 9.06056 16.4366C8.26417 15.9953 7.64649 15.374 7.20753 14.5728C6.76857 13.7715 6.54909 12.8388 6.54909 11.7746V9.92488C6.54909 9.73082 6.48011 9.56494 6.34215 9.42722C6.2042 9.28951 6.03489 9.22065 5.83422 9.22065C5.63982 9.22065 5.47364 9.28951 5.33569 9.42722C5.19773 9.56494 5.12875 9.73082 5.12875 9.92488V11.831ZM16.8396 13.7652L17.9401 14.8638C18.3728 13.9562 18.5891 12.9452 18.5891 11.831V9.92488C18.5891 9.73082 18.5201 9.56494 18.3821 9.42722C18.2442 9.28951 18.078 9.22065 17.8837 9.22065C17.683 9.22065 17.5137 9.28951 17.3757 9.42722C17.2377 9.56494 17.1688 9.73082 17.1688 9.92488V11.7746C17.1688 12.4883 17.059 13.1518 16.8396 13.7652ZM11.8636 15.0798C12.196 15.0798 12.497 15.0297 12.7666 14.9296L8.72193 10.892V11.6808C8.72193 12.3506 8.85362 12.9405 9.117 13.4507C9.38038 13.9609 9.74722 14.3599 10.2175 14.6479C10.6878 14.9358 11.2365 15.0798 11.8636 15.0798ZM11.8636 2C12.4844 2 13.0316 2.14397 13.505 2.43192C13.9785 2.71987 14.3453 3.11894 14.6055 3.62911C14.8658 4.13928 14.9959 4.72926 14.9959 5.39906V11.6808C14.9959 11.7183 14.9943 11.7574 14.9912 11.7981C14.988 11.8388 14.9802 11.8748 14.9677 11.9061L8.72193 5.67136V5.29577C8.73448 4.64475 8.87401 4.07198 9.14051 3.57746C9.40702 3.08294 9.7723 2.6964 10.2363 2.41784C10.7004 2.13928 11.2428 2 11.8636 2ZM18.7678 19.3239C18.9058 19.4616 19.0767 19.5305 19.2805 19.5305C19.4842 19.5305 19.6551 19.4616 19.7931 19.3239C19.931 19.18 20 19.0078 20 18.8075C20 18.6072 19.931 18.4382 19.7931 18.3004L5.24162 3.78404C5.09739 3.64632 4.92495 3.57746 4.72428 3.57746C4.52361 3.57746 4.35117 3.64632 4.20694 3.78404C4.06898 3.92175 4 4.09389 4 4.30047C4 4.50704 4.06898 4.67605 4.20694 4.80751L18.7678 19.3239Z" fill="black" fill-opacity="0.8"/>
</svg>
