<svg width="24" height="24" viewBox="0 0 24 24" fill="none" xmlns="http://www.w3.org/2000/svg">
<path d="M1 9.85859C1 10.7542 1.19991 11.5674 1.59973 12.298C1.99955 13.0286 2.53931 13.6094 3.219 14.0404C3.89869 14.4714 4.66168 14.6869 5.50796 14.6869C6.10103 14.6869 6.67077 14.569 7.21719 14.3333C7.76361 14.0977 8.24339 13.7475 8.65654 13.2828H8.92641C8.77981 13.761 8.56491 14.2155 8.28171 14.6465C7.9985 15.0775 7.66032 15.4731 7.26717 15.8334C6.87401 16.1937 6.43588 16.5118 5.95276 16.7878C5.46965 17.0639 4.95488 17.2828 4.40846 17.4444C4.24853 17.4983 4.11026 17.5488 3.99364 17.596C3.87703 17.6431 3.78541 17.697 3.71877 17.7576C3.6388 17.8182 3.57883 17.8923 3.53885 17.9798C3.49887 18.0673 3.47888 18.1684 3.47888 18.2829C3.47888 18.4916 3.54885 18.6633 3.68878 18.798C3.82872 18.9327 4.0153 19 4.24853 19C4.41512 19 4.56839 18.9832 4.70832 18.9495C4.84826 18.9159 5.02817 18.8654 5.24808 18.798C5.93443 18.5691 6.58247 18.261 7.19219 17.8738C7.80192 17.4865 8.34667 17.037 8.82645 16.5252C9.49282 15.8182 10.0209 14.9967 10.4107 14.0606C10.8006 13.1246 10.9955 12.0977 10.9955 10.9798C10.9955 9.72055 10.7589 8.64479 10.2858 7.75253C9.81268 6.86027 9.18463 6.17845 8.40165 5.70707C7.61867 5.23569 6.76072 5 5.82782 5C4.90823 5 4.08527 5.21549 3.35893 5.64647C2.63259 6.07745 2.05785 6.65826 1.63471 7.3889C1.21157 8.11954 1 8.94277 1 9.85859ZM13.0045 9.85859C13.0045 10.7542 13.2045 11.5674 13.6043 12.298C14.0041 13.0286 14.5439 13.6094 15.2236 14.0404C15.9033 14.4714 16.6663 14.6869 17.5125 14.6869C18.1056 14.6869 18.6737 14.569 19.2168 14.3333C19.7599 14.0977 20.2413 13.7475 20.6611 13.2828H20.921C20.781 13.761 20.5695 14.2155 20.2863 14.6465C20.003 15.0775 19.6649 15.4731 19.2718 15.8334C18.8786 16.1937 18.4388 16.5118 17.9523 16.7878C17.4659 17.0639 16.9494 17.2828 16.403 17.4444C16.2431 17.4983 16.1065 17.5488 15.9932 17.596C15.8799 17.6431 15.79 17.697 15.7234 17.7576C15.6434 17.8182 15.5817 17.8923 15.5384 17.9798C15.4951 18.0673 15.4734 18.1684 15.4734 18.2829C15.4734 18.4916 15.5467 18.6633 15.6934 18.798C15.84 18.9327 16.0299 19 16.2631 19C16.4163 19 16.5646 18.9832 16.7079 18.9495C16.8511 18.9159 17.0294 18.8654 17.2426 18.798C17.929 18.5691 18.5771 18.261 19.1868 17.8738C19.7965 17.4865 20.3379 17.037 20.8111 16.5252C21.4908 15.8182 22.0255 14.9967 22.4154 14.0606C22.8051 13.1246 23 12.0977 23 10.9798C23 9.72055 22.7635 8.64479 22.2904 7.75253C21.8172 6.86027 21.1892 6.17845 20.4063 5.70707C19.6232 5.23569 18.7653 5 17.8324 5C16.9128 5 16.0899 5.21549 15.3635 5.64647C14.6372 6.07745 14.0624 6.65826 13.6392 7.3889C13.2161 8.11954 13.0045 8.94277 13.0045 9.85859Z" fill="black" fill-opacity="0.8"/>
</svg>
