<svg width="24" height="24" viewBox="0 0 24 24" fill="none" xmlns="http://www.w3.org/2000/svg">
<path d="M10.9955 14.1414C10.9955 13.2458 10.7956 12.4327 10.3958 11.702C9.99593 10.9714 9.45617 10.3906 8.77648 9.95961C8.09679 9.52863 7.3338 9.31314 6.48752 9.31314C5.89445 9.31314 5.32638 9.43098 4.78329 9.66667C4.2402 9.90236 3.75875 10.2525 3.33895 10.7172H3.06906C3.21566 10.2391 3.43057 9.78452 3.71377 9.35354C3.99698 8.92257 4.33516 8.52694 4.72831 8.16667C5.12147 7.8064 5.56127 7.48822 6.04771 7.21213C6.53416 6.93603 7.05059 6.71718 7.59701 6.55556C7.75694 6.50169 7.89355 6.45118 8.00682 6.40405C8.12011 6.35691 8.21007 6.30303 8.27671 6.24243C8.35667 6.18182 8.41831 6.10775 8.46162 6.0202C8.50494 5.93266 8.5266 5.83165 8.5266 5.71717C8.5266 5.50842 8.4533 5.3367 8.30669 5.20202C8.16009 5.06734 7.97018 5 7.73695 5C7.58368 5 7.43542 5.01684 7.29215 5.05051C7.14888 5.08418 6.97063 5.13468 6.75739 5.20202C6.06438 5.43098 5.41467 5.73906 4.80827 6.12626C4.20188 6.51347 3.6588 6.96297 3.17902 7.47475C2.50599 8.18182 1.97456 9.00337 1.58474 9.93941C1.19491 10.8754 1 11.9024 1 13.0202C1 14.2795 1.23656 15.3552 1.70968 16.2475C2.1828 17.1397 2.81085 17.8215 3.59383 18.2929C4.3768 18.7643 5.23475 19 6.16766 19C7.08058 19 7.90188 18.7845 8.63154 18.3535C9.36121 17.9226 9.93762 17.3418 10.3608 16.6112C10.7839 15.8805 10.9955 15.0573 10.9955 14.1414ZM23 14.1414C23 13.2458 22.8001 12.4327 22.4003 11.702C22.0005 10.9714 21.4608 10.3906 20.7811 9.95961C20.1014 9.52863 19.3384 9.31314 18.492 9.31314C17.899 9.31314 17.3293 9.43098 16.7828 9.66667C16.2364 9.90236 15.7566 10.2525 15.3435 10.7172H15.0736C15.2136 10.2391 15.4251 9.78452 15.7083 9.35354C15.9916 8.92257 16.3314 8.52694 16.7279 8.16667C17.1244 7.8064 17.5642 7.48822 18.0473 7.21213C18.5304 6.93603 19.0452 6.71718 19.5916 6.55556C19.7515 6.50169 19.8897 6.45118 20.0064 6.40405C20.123 6.35691 20.2146 6.30303 20.2813 6.24243C20.3613 6.18182 20.4212 6.10775 20.4612 6.0202C20.5012 5.93266 20.5212 5.83165 20.5212 5.71717C20.5212 5.50842 20.4512 5.3367 20.3113 5.20202C20.1713 5.06734 19.9814 5 19.7415 5C19.5816 5 19.4317 5.01684 19.2917 5.05051C19.1518 5.08418 18.9719 5.13468 18.752 5.20202C18.0656 5.43098 17.4176 5.73906 16.8078 6.12626C16.1981 6.51347 15.6534 6.96297 15.1736 7.47475C14.5072 8.18182 13.9791 9.00337 13.5893 9.93941C13.1995 10.8754 13.0045 11.9024 13.0045 13.0202C13.0045 14.2795 13.2411 15.3552 13.7143 16.2475C14.1873 17.1397 14.8154 17.8215 15.5984 18.2929C16.3814 18.7643 17.2393 19 18.1722 19C19.0918 19 19.9148 18.7845 20.6412 18.3535C21.3675 17.9226 21.9422 17.3418 22.3653 16.6112C22.7884 15.8805 23 15.0573 23 14.1414Z" fill="black" fill-opacity="0.8"/>
</svg>
