<svg width="24" height="24" viewBox="0 0 24 24" fill="none" xmlns="http://www.w3.org/2000/svg">
<path d="M0 12C0 12.6902 0.13589 13.3369 0.407669 13.9402C0.679448 14.5434 1.05617 15.0751 1.53784 15.5352C2.01951 15.9953 2.57922 16.3545 3.21695 16.6127C3.85469 16.8709 4.53683 17 5.26337 17H18.7366C19.4632 17 20.1453 16.8709 20.783 16.6127C21.4208 16.3545 21.9805 15.9953 22.4622 15.5352C22.9439 15.0751 23.3206 14.5434 23.5923 13.9402C23.8641 13.3369 24 12.6902 24 12C24 11.3098 23.8641 10.6618 23.5923 10.056C23.3206 9.45015 22.9439 8.91845 22.4622 8.46089C21.9805 8.00332 21.4208 7.64545 20.783 7.38727C20.1453 7.12909 19.4632 7 18.7366 7C18.0101 7 17.3293 7.12909 16.6942 7.38727C16.0592 7.64545 15.4995 8.00332 15.0152 8.46089C14.5308 8.91845 14.1527 9.45015 13.8809 10.056C13.6091 10.6618 13.4732 11.3098 13.4732 12C13.4732 12.4908 13.5472 12.9624 13.6953 13.4149C13.8432 13.8673 14.0518 14.2853 14.3209 14.6687C14.59 15.0521 14.9129 15.3921 15.2896 15.6887H8.71039C9.08711 15.3921 9.41003 15.0521 9.67913 14.6687C9.94823 14.2853 10.1568 13.8673 10.3047 13.4149C10.4528 12.9624 10.5268 12.4908 10.5268 12C10.5268 11.3098 10.3909 10.6618 10.1191 10.056C9.84727 9.45015 9.46919 8.91845 8.98483 8.46089C8.50049 8.00332 7.9408 7.64545 7.30575 7.38727C6.67071 7.12909 5.98991 7 5.26337 7C4.53683 7 3.85469 7.12909 3.21695 7.38727C2.57922 7.64545 2.01951 8.00332 1.53784 8.46089C1.05617 8.91845 0.679448 9.45015 0.407669 10.056C0.13589 10.6618 0 11.3098 0 12ZM1.38042 11.9923C1.38042 11.4811 1.48133 11.0031 1.68315 10.5583C1.88496 10.1135 2.16347 9.72239 2.51867 9.38497C2.87387 9.04754 3.28692 8.78297 3.75782 8.59126C4.22873 8.39954 4.73327 8.30368 5.27144 8.30368C5.80424 8.30368 6.30609 8.39954 6.77699 8.59126C7.2479 8.78297 7.66095 9.04754 8.01615 9.38497C8.37135 9.72239 8.6485 10.1135 8.84761 10.5583C9.04677 11.0031 9.14636 11.4811 9.14636 11.9923C9.14636 12.5036 9.04677 12.9816 8.84761 13.4264C8.6485 13.8711 8.37135 14.2635 8.01615 14.6035C7.66095 14.9435 7.2479 15.2093 6.77699 15.401C6.30609 15.5928 5.80424 15.6887 5.27144 15.6887C4.73327 15.6887 4.22873 15.5928 3.75782 15.401C3.28692 15.2093 2.87387 14.9435 2.51867 14.6035C2.16347 14.2635 1.88496 13.8711 1.68315 13.4264C1.48133 12.9816 1.38042 12.5036 1.38042 11.9923ZM14.8537 11.9923C14.8537 11.4811 14.9533 11.0031 15.1524 10.5583C15.3515 10.1135 15.63 9.72239 15.9879 9.38497C16.3458 9.04754 16.7588 8.78297 17.227 8.59126C17.6953 8.39954 18.1958 8.30368 18.7285 8.30368C19.2667 8.30368 19.7713 8.39954 20.2422 8.59126C20.7131 8.78297 21.1261 9.04754 21.4813 9.38497C21.8365 9.72239 22.1151 10.1135 22.3169 10.5583C22.5187 11.0031 22.6196 11.4811 22.6196 11.9923C22.6196 12.5036 22.5187 12.9816 22.3169 13.4264C22.1151 13.8711 21.8365 14.2635 21.4813 14.6035C21.1261 14.9435 20.7131 15.2093 20.2422 15.401C19.7713 15.5928 19.2667 15.6887 18.7285 15.6887C18.1958 15.6887 17.6953 15.5928 17.227 15.401C16.7588 15.2093 16.3458 14.9435 15.9879 14.6035C15.63 14.2635 15.3515 13.8711 15.1524 13.4264C14.9533 12.9816 14.8537 12.5036 14.8537 11.9923Z" fill="black" fill-opacity="0.8"/>
</svg>
