<svg width="27" height="24" viewBox="0 0 27 24" fill="none" xmlns="http://www.w3.org/2000/svg">
<path d="M17.0906 4H7.37658C6.51629 4 5.82179 4.23851 5.29308 4.71552C4.76436 5.19253 4.5 5.86207 4.5 6.72414V10.5604C5.29457 10.5604 6.04135 10.7055 6.74032 10.9957C7.43931 11.2859 8.05465 11.6868 8.58636 12.1982C9.11806 12.7098 9.53328 13.3018 9.832 13.9742C10.1307 14.6465 10.2801 15.3649 10.2801 16.1293C10.2801 16.4511 10.2517 16.7701 10.1949 17.0862C10.1382 17.4023 10.053 17.7069 9.93955 18H17.0011C17.9032 18 18.6081 17.7615 19.1159 17.2845C19.6238 16.8075 19.8777 16.1351 19.8777 15.2672V6.72414C19.8777 5.86207 19.6387 5.19253 19.1607 4.71552C18.6828 4.23851 17.9927 4 17.0906 4ZM21.0964 13.5431L24.3583 16.2587C24.5136 16.3851 24.6764 16.4871 24.8467 16.5646C25.0169 16.6423 25.1827 16.6811 25.3441 16.6811C25.6906 16.6811 25.9698 16.5704 26.1819 16.3492C26.394 16.1279 26.5 15.8391 26.5 15.4827V6.51724C26.5 6.16092 26.394 5.87213 26.1819 5.65086C25.9698 5.4296 25.6906 5.31897 25.3441 5.31897C25.1827 5.31897 25.0169 5.35632 24.8467 5.43103C24.6764 5.50575 24.5136 5.6092 24.3583 5.74138L21.0964 8.44827V13.5431Z" fill="black" fill-opacity="0.8"/>
<path fill-rule="evenodd" clip-rule="evenodd" d="M6.91928 20.6063C6.31561 20.8688 5.67585 21 5 21C4.31758 21 3.67454 20.8704 3.07087 20.6113C2.46719 20.352 1.9357 19.9928 1.47637 19.5334C1.01706 19.0741 0.656168 18.5426 0.393701 17.939C0.131234 17.3353 0 16.689 0 16C0 15.3111 0.131234 14.6664 0.393701 14.0659C0.656168 13.4656 1.01706 12.9341 1.47637 12.4715C1.9357 12.0089 2.46719 11.648 3.07087 11.3888C3.67454 11.1296 4.31758 11 5 11C5.68898 11 6.3353 11.1296 6.93898 11.3888C7.54265 11.648 8.07414 12.0072 8.53346 12.4666C8.99278 12.9259 9.35203 13.4574 9.61121 14.061C9.8704 14.6647 10 15.3111 10 16C10 16.6824 9.86876 17.3255 9.60629 17.9291C9.34382 18.5328 8.98129 19.0643 8.5187 19.5237C8.0561 19.9829 7.52296 20.3438 6.91928 20.6063ZM4.55216 18.9626C4.66043 19.0741 4.80642 19.1299 4.99015 19.1299C5.17388 19.1299 5.31988 19.0741 5.42814 18.9626C5.53642 18.851 5.59055 18.7067 5.59055 18.5295V16.6004H7.51968C7.69685 16.6004 7.8412 16.5463 7.95275 16.438C8.0643 16.3297 8.12007 16.1838 8.12007 16C8.12007 15.8163 8.0643 15.6703 7.95275 15.562C7.8412 15.4538 7.69685 15.3997 7.51968 15.3997H5.59055V13.4705C5.59055 13.2933 5.53642 13.1489 5.42814 13.0374C5.31988 12.9259 5.17388 12.8701 4.99015 12.8701C4.80642 12.8701 4.66043 12.9259 4.55216 13.0374C4.4439 13.1489 4.38976 13.2933 4.38976 13.4705V15.3997H2.46063C2.28346 15.3997 2.1391 15.4538 2.02756 15.562C1.91601 15.6703 1.86023 15.8163 1.86023 16C1.86023 16.1838 1.91601 16.3297 2.02756 16.438C2.1391 16.5463 2.28346 16.6004 2.46063 16.6004H4.38976V18.5295C4.38976 18.7067 4.4439 18.851 4.55216 18.9626Z" fill="#34C759"/>
</svg>
