<svg width="24" height="24" viewBox="0 0 24 24" fill="none" xmlns="http://www.w3.org/2000/svg">
<path d="M3.78334 20H13.9208C15.1043 20 16.0307 19.6707 16.7 19.0122C17.3694 18.3536 17.7041 17.4307 17.7041 16.2433V7.74696C17.7041 6.5661 17.3694 5.64639 16.7 4.98783C16.0307 4.32928 15.1043 4 13.9208 4H3.78334C2.65157 4 1.73807 4.32928 1.04284 4.98783C0.347613 5.64639 0 6.5661 0 7.74696V16.2433C0 17.4307 0.334679 18.3536 1.00404 19.0122C1.6734 19.6707 2.59983 20 3.78334 20ZM4.05496 18.5304C3.25949 18.5304 2.6451 18.3228 2.2118 17.9076C1.7785 17.4923 1.56184 16.8629 1.56184 16.0194V7.98053C1.56184 7.13706 1.7785 6.50608 2.2118 6.08759C2.6451 5.6691 3.25949 5.45985 4.05496 5.45985H13.6491C14.4446 5.45985 15.059 5.6691 15.4923 6.08759C15.9256 6.50608 16.1423 7.13706 16.1423 7.98053V16.0194C16.1423 16.8629 15.9256 17.4923 15.4923 17.9076C15.059 18.3228 14.4446 18.5304 13.6491 18.5304H4.05496ZM17.481 9.27494V11.1241L22.0986 7.29927C22.1439 7.26683 22.1843 7.23925 22.2199 7.21654C22.2554 7.19383 22.2926 7.18248 22.3314 7.18248C22.4414 7.18248 22.4963 7.26034 22.4963 7.41605V16.584C22.4963 16.7332 22.4414 16.8078 22.3314 16.8078C22.2926 16.8078 22.2554 16.7965 22.2199 16.7737C22.1843 16.751 22.1439 16.7267 22.0986 16.7007L17.481 12.8759V14.7154L21.371 18.0244C21.565 18.1865 21.7655 18.3179 21.9724 18.4185C22.1794 18.519 22.3831 18.5693 22.5837 18.5693C23.0105 18.5693 23.3532 18.4266 23.6119 18.1412C23.8706 17.8557 24 17.4858 24 17.0316V6.96837C24 6.51419 23.8706 6.14436 23.6119 5.85887C23.3532 5.5734 23.0105 5.43066 22.5837 5.43066C22.3831 5.43066 22.1794 5.48094 21.9724 5.5815C21.7655 5.68207 21.565 5.81346 21.371 5.97567L17.481 9.27494ZM12.0873 8.06812C11.9838 8.06812 11.8916 8.08596 11.8108 8.12165C11.73 8.15733 11.654 8.21086 11.5829 8.28224L7.61519 12.2725L6.11155 13.9075L6.27646 11.1241V9.81022C6.27646 9.62206 6.21502 9.45985 6.09214 9.3236C5.96927 9.18735 5.81083 9.11922 5.61681 9.11922C5.42279 9.11922 5.25464 9.18572 5.11236 9.31873C4.97008 9.45174 4.89894 9.61557 4.89894 9.81022V15.2214C4.89894 15.4809 4.962 15.674 5.08811 15.8005C5.21422 15.927 5.40662 15.9902 5.6653 15.9902H11.0687C11.2692 15.9902 11.4357 15.9205 11.5683 15.781C11.7009 15.6415 11.7672 15.4712 11.7672 15.2701C11.7672 15.0754 11.6992 14.9164 11.5634 14.7932C11.4276 14.6699 11.2627 14.6082 11.0687 14.6082H9.73968L6.96523 14.7834L8.60467 13.2749L12.5723 9.28466C12.734 9.12246 12.8149 8.94079 12.8149 8.73966C12.8149 8.5515 12.7453 8.39254 12.6063 8.26277C12.4672 8.133 12.2943 8.06812 12.0873 8.06812Z" fill="black" fill-opacity="0.8"/>
</svg>
