<svg width="24" height="24" viewBox="0 0 24 24" fill="none" xmlns="http://www.w3.org/2000/svg">
<path d="M3.13809 20H13.6374C14.6216 20 15.3907 19.7274 15.9446 19.1822C16.4986 18.6371 16.7756 17.8686 16.7756 16.8769V7.1133C16.7756 6.12807 16.5149 5.36289 15.9935 4.81773C15.4721 4.27258 14.7193 4 13.7352 4H3.13809C2.1996 4 1.44196 4.27258 0.865174 4.81773C0.288391 5.36289 0 6.12807 0 7.1133V16.8769C0 17.8686 0.276986 18.6371 0.830957 19.1822C1.38493 19.7274 2.15398 20 3.13809 20ZM18.1051 14.9063L21.6635 18.0098C21.833 18.1543 22.0106 18.2709 22.1964 18.3596C22.3821 18.4482 22.5629 18.4926 22.7389 18.4926C23.1169 18.4926 23.4216 18.3661 23.6529 18.1133C23.8843 17.8604 24 17.5304 24 17.1231V6.87684C24 6.46962 23.8843 6.13957 23.6529 5.8867C23.4216 5.63382 23.1169 5.50739 22.7389 5.50739C22.5629 5.50739 22.3821 5.55008 22.1964 5.63546C22.0106 5.72085 21.833 5.83908 21.6635 5.99015L18.1051 9.08373V14.9063ZM5.03463 16.1872C4.81955 16.1872 4.64033 16.1199 4.49695 15.9852C4.35356 15.8506 4.28187 15.6815 4.28187 15.4779C4.28187 15.3727 4.30143 15.2742 4.34053 15.1823C4.37963 15.0903 4.44155 15.0016 4.52627 14.9162L8.64196 10.7586L10.3528 9.19211L7.45906 9.3596H6.09043C5.89491 9.3596 5.72546 9.29556 5.58208 9.16748C5.4387 9.0394 5.36701 8.87356 5.36701 8.66995C5.36701 8.45977 5.43707 8.28078 5.57719 8.133C5.71731 7.98521 5.88839 7.91132 6.09043 7.91132H11.7116C11.9788 7.91132 12.1792 7.97865 12.3128 8.1133C12.4464 8.24794 12.5132 8.44991 12.5132 8.7192V14.3645C12.5132 14.5681 12.4383 14.7406 12.2884 14.8817C12.1385 15.023 11.9593 15.0936 11.7507 15.0936C11.5552 15.0936 11.3923 15.0213 11.2619 14.8768C11.1316 14.7323 11.0664 14.5615 11.0664 14.3645V13.0049L11.2424 10.1084L9.68798 11.8029L5.57231 15.9704C5.4941 16.0427 5.41263 16.0969 5.32791 16.133C5.24318 16.1691 5.14542 16.1872 5.03463 16.1872Z" fill="black" fill-opacity="0.8"/>
</svg>
