<svg width="24" height="24" viewBox="0 0 24 24" fill="none" xmlns="http://www.w3.org/2000/svg">
<path d="M3.13809 20H13.6374C14.6216 20 15.3907 19.7274 15.9446 19.1822C16.4986 18.6371 16.7756 17.8686 16.7756 16.8769V7.1133C16.7756 6.12807 16.5149 5.36289 15.9935 4.81773C15.4721 4.27258 14.7193 4 13.7352 4H3.13809C2.1996 4 1.44196 4.27258 0.865174 4.81773C0.288391 5.36289 0 6.12807 0 7.1133V16.8769C0 17.8686 0.276986 18.6371 0.830957 19.1822C1.38493 19.7274 2.15398 20 3.13809 20ZM18.1051 14.9063L21.6635 18.0098C21.833 18.1543 22.0106 18.2709 22.1964 18.3596C22.3821 18.4482 22.5629 18.4926 22.7389 18.4926C23.1169 18.4926 23.4216 18.3661 23.6529 18.1133C23.8843 17.8604 24 17.5304 24 17.1231V6.87684C24 6.46962 23.8843 6.13957 23.6529 5.8867C23.4216 5.63382 23.1169 5.50739 22.7389 5.50739C22.5629 5.50739 22.3821 5.55008 22.1964 5.63546C22.0106 5.72085 21.833 5.83908 21.6635 5.99015L18.1051 9.08373V14.9063ZM8.12383 13.9606C7.63503 13.9606 7.39063 13.7143 7.39063 13.2217C7.39063 13.2085 7.39063 13.1905 7.39063 13.1675C7.39063 13.1445 7.39063 13.1231 7.39063 13.1034C7.39063 12.6568 7.4998 12.2956 7.71813 12.0197C7.93646 11.7438 8.20856 11.4877 8.53442 11.2512C8.93198 10.9754 9.22851 10.7373 9.42403 10.5369C9.61955 10.3366 9.71731 10.0788 9.71731 9.76354C9.71731 9.41543 9.59349 9.13464 9.34583 8.92118C9.09817 8.70771 8.76578 8.60098 8.34868 8.60098C8.04888 8.60098 7.78819 8.67159 7.5666 8.8128C7.34501 8.95402 7.15927 9.14614 7.00937 9.38916C6.85947 9.5665 6.73564 9.71756 6.63788 9.84236C6.54013 9.96715 6.3609 10.0295 6.10021 10.0295C5.95031 10.0295 5.80693 9.97536 5.67006 9.86699C5.5332 9.75861 5.46476 9.59934 5.46476 9.38916C5.46476 9.31034 5.47291 9.23152 5.48921 9.1527C5.5055 9.07388 5.52668 8.99835 5.55276 8.9261C5.6831 8.50574 5.9943 8.13628 6.48635 7.81773C6.97842 7.49918 7.61874 7.3399 8.40734 7.3399C8.92872 7.3399 9.411 7.43021 9.85418 7.61083C10.2973 7.79146 10.6525 8.05582 10.9198 8.40393C11.187 8.75204 11.3206 9.18226 11.3206 9.69457C11.3206 10.2463 11.1788 10.6831 10.8953 11.0049C10.6118 11.3268 10.2485 11.6355 9.8053 11.931C9.48595 12.1412 9.2497 12.3383 9.09654 12.5222C8.94338 12.7061 8.8668 12.9294 8.8668 13.1921C8.8668 13.2118 8.8668 13.2315 8.8668 13.2512C8.8668 13.2709 8.8668 13.2873 8.8668 13.3005C8.8668 13.4844 8.80163 13.6404 8.67129 13.7685C8.54094 13.8965 8.35846 13.9606 8.12383 13.9606ZM8.10428 16.7094C7.83707 16.7094 7.6057 16.6158 7.41018 16.4285C7.21467 16.2413 7.11691 16.0164 7.11691 15.7537C7.11691 15.4844 7.21304 15.2561 7.4053 15.069C7.59756 14.8818 7.83055 14.7882 8.10428 14.7882C8.37149 14.7882 8.60122 14.8818 8.79349 15.069C8.98575 15.2561 9.08188 15.4844 9.08188 15.7537C9.08188 16.023 8.98412 16.2496 8.7886 16.4335C8.59308 16.6174 8.36497 16.7094 8.10428 16.7094Z" fill="black" fill-opacity="0.8"/>
</svg>
