<svg width="24" height="24" viewBox="0 0 24 24" fill="none" xmlns="http://www.w3.org/2000/svg">
<path d="M4.93903 18.9197H14.6616L13.2897 17.6428H5.19513C4.44512 17.6428 3.86585 17.4624 3.45732 17.1015C3.04878 16.7407 2.84451 16.1938 2.84451 15.4609V8.05292L1.37195 6.68295C1.37195 6.87463 1.37195 7.0635 1.37195 7.24954C1.37195 7.43559 1.37195 7.62163 1.37195 7.80768V15.6554C1.37195 16.6871 1.6875 17.4891 2.3186 18.0614C2.9497 18.6336 3.82317 18.9197 4.93903 18.9197ZM14.4969 5.017H4.7378L6.10976 6.28549H14.2409C14.9908 6.28549 15.5701 6.4673 15.9786 6.83094C16.3872 7.19457 16.5914 7.74285 16.5914 8.47575V15.3933C16.5914 15.4948 16.5853 15.585 16.5732 15.6639C16.561 15.7428 16.5397 15.8217 16.5092 15.9006L17.7896 17.0846C17.9725 16.6843 18.064 16.2446 18.064 15.7654V8.27279C18.064 7.24672 17.7485 6.44757 17.1174 5.87534C16.4863 5.30311 15.6128 5.017 14.4969 5.017ZM17.8445 9.60894V11.2157L22.2073 7.88378C22.25 7.8556 22.2881 7.83164 22.3216 7.81191C22.3552 7.79218 22.3902 7.78231 22.4268 7.78231C22.5305 7.78231 22.5823 7.84996 22.5823 7.98527V15.9514C22.5823 16.081 22.5305 16.1459 22.4268 16.1459C22.3902 16.1459 22.3552 16.136 22.3216 16.1163C22.2881 16.0966 22.25 16.0754 22.2073 16.0529L17.8445 12.721V14.3277L21.5213 17.2029C21.7043 17.3439 21.8933 17.4581 22.0884 17.5455C22.2836 17.6329 22.4756 17.6765 22.6646 17.6765C23.0671 17.6765 23.3903 17.5525 23.6342 17.3044C23.8781 17.0564 24 16.735 24 16.3405V7.59626C24 7.20162 23.8781 6.88027 23.6342 6.63221C23.3903 6.38414 23.0671 6.26011 22.6646 6.26011C22.4756 6.26011 22.2836 6.30381 22.0884 6.39119C21.8933 6.47858 21.7043 6.59275 21.5213 6.73369L17.8445 9.60894ZM18.2744 20.8055C18.4146 20.9352 18.5823 21 18.7774 21C18.9725 21 19.1372 20.9352 19.2714 20.8055C19.4055 20.6758 19.4741 20.5222 19.4771 20.3446C19.4802 20.1671 19.4116 20.0134 19.2714 19.8837L1.20731 3.19036C1.06707 3.06633 0.899388 3.00291 0.704268 3.00009C0.509146 2.99727 0.341463 3.0607 0.20122 3.19036C0.0670732 3.31439 0 3.46802 0 3.65125C0 3.83448 0.0670732 3.9881 0.20122 4.11214L18.2744 20.8055Z" fill="black" fill-opacity="0.8"/>
</svg>
