<svg width="24" height="24" viewBox="0 0 24 24" fill="none" xmlns="http://www.w3.org/2000/svg">
<path d="M3.78334 20H13.9208C15.1043 20 16.0307 19.6707 16.7 19.0122C17.3694 18.3536 17.7041 17.4307 17.7041 16.2433V7.74696C17.7041 6.5661 17.3694 5.64639 16.7 4.98783C16.0307 4.32928 15.1043 4 13.9208 4H3.78334C2.65157 4 1.73807 4.32928 1.04284 4.98783C0.347613 5.64639 0 6.5661 0 7.74696V16.2433C0 17.4307 0.334679 18.3536 1.00404 19.0122C1.6734 19.6707 2.59983 20 3.78334 20ZM4.05496 18.5304C3.25949 18.5304 2.6451 18.3228 2.2118 17.9076C1.7785 17.4923 1.56184 16.8629 1.56184 16.0194V7.98053C1.56184 7.13706 1.7785 6.50608 2.2118 6.08759C2.6451 5.6691 3.25949 5.45985 4.05496 5.45985H13.6491C14.4446 5.45985 15.059 5.6691 15.4923 6.08759C15.9256 6.50608 16.1423 7.13706 16.1423 7.98053V16.0194C16.1423 16.8629 15.9256 17.4923 15.4923 17.9076C15.059 18.3228 14.4446 18.5304 13.6491 18.5304H4.05496ZM17.481 9.27494V11.1241L22.0986 7.29927C22.1439 7.26683 22.1843 7.23925 22.2199 7.21654C22.2554 7.19383 22.2926 7.18248 22.3314 7.18248C22.4414 7.18248 22.4963 7.26034 22.4963 7.41605V16.584C22.4963 16.7332 22.4414 16.8078 22.3314 16.8078C22.2926 16.8078 22.2554 16.7965 22.2199 16.7737C22.1843 16.751 22.1439 16.7267 22.0986 16.7007L17.481 12.8759V14.7154L21.371 18.0244C21.565 18.1865 21.7655 18.3179 21.9724 18.4185C22.1794 18.519 22.3831 18.5693 22.5837 18.5693C23.0105 18.5693 23.3532 18.4266 23.6119 18.1412C23.8706 17.8557 24 17.4858 24 17.0316V6.96837C24 6.51419 23.8706 6.14436 23.6119 5.85887C23.3532 5.5734 23.0105 5.43066 22.5837 5.43066C22.3831 5.43066 22.1794 5.48094 21.9724 5.5815C21.7655 5.68207 21.565 5.81346 21.371 5.97567L17.481 9.27494ZM5.61681 15.9902C5.72028 15.9902 5.81406 15.974 5.89813 15.9416C5.9822 15.9092 6.05981 15.8573 6.13096 15.7859L10.0986 11.7859L11.6023 10.1606L11.4276 12.9343V14.2482C11.4276 14.4363 11.4907 14.5985 11.6168 14.7348C11.7429 14.8711 11.8998 14.9392 12.0873 14.9392C12.2878 14.9392 12.4591 14.8743 12.6014 14.7445C12.7437 14.6147 12.8149 14.4493 12.8149 14.2482V8.83698C12.8149 8.58394 12.7518 8.39254 12.6257 8.26277C12.4996 8.133 12.3071 8.06812 12.0485 8.06812H6.6354C6.43491 8.06812 6.26999 8.13949 6.14065 8.28224C6.01131 8.42498 5.94664 8.59367 5.94664 8.78832C5.94664 8.98297 6.01454 9.14193 6.15036 9.2652C6.28616 9.38848 6.44784 9.45012 6.6354 9.45012H7.96442L10.7486 9.28466L9.09942 10.7932L5.13177 14.7834C4.97655 14.9392 4.89894 15.1176 4.89894 15.3187C4.89894 15.5134 4.96846 15.674 5.10751 15.8005C5.24655 15.927 5.41632 15.9902 5.61681 15.9902Z" fill="black" fill-opacity="0.8"/>
</svg>
