<svg width="24" height="24" viewBox="0 0 24 24" fill="none" xmlns="http://www.w3.org/2000/svg">
<path d="M3.13809 20H13.6374C14.6216 20 15.3907 19.7274 15.9446 19.1822C16.4986 18.6371 16.7756 17.8686 16.7756 16.8769V7.1133C16.7756 6.12807 16.5149 5.36289 15.9935 4.81773C15.4721 4.27258 14.7193 4 13.7352 4H3.13809C2.1996 4 1.44196 4.27258 0.865174 4.81773C0.288391 5.36289 0 6.12807 0 7.1133V16.8769C0 17.8686 0.276986 18.6371 0.830957 19.1822C1.38493 19.7274 2.15398 20 3.13809 20ZM18.1051 14.9063L21.6635 18.0098C21.833 18.1543 22.0106 18.2709 22.1964 18.3596C22.3821 18.4482 22.5629 18.4926 22.7389 18.4926C23.1169 18.4926 23.4216 18.3661 23.6529 18.1133C23.8843 17.8604 24 17.5304 24 17.1231V6.87684C24 6.46962 23.8843 6.13957 23.6529 5.8867C23.4216 5.63382 23.1169 5.50739 22.7389 5.50739C22.5629 5.50739 22.3821 5.55008 22.1964 5.63546C22.0106 5.72085 21.833 5.83908 21.6635 5.99015L18.1051 9.08373V14.9063ZM11.7507 7.91132C11.9658 7.91132 12.1466 7.97865 12.2933 8.1133C12.4399 8.24794 12.5132 8.41707 12.5132 8.62068C12.5132 8.72577 12.4921 8.82594 12.4497 8.92118C12.4073 9.01641 12.3438 9.10672 12.2591 9.19211L8.14339 13.3497L6.44237 14.9162L9.32628 14.7389H10.6949C10.8969 14.7389 11.0696 14.8045 11.2131 14.9359C11.3564 15.0673 11.4281 15.2315 11.4281 15.4285C11.4281 15.6387 11.3581 15.8177 11.218 15.9655C11.0778 16.1133 10.9035 16.1872 10.6949 16.1872H5.0835C4.80978 16.1872 4.60774 16.1199 4.4774 15.9852C4.34705 15.8506 4.28187 15.6486 4.28187 15.3793V9.73398C4.28187 9.53037 4.35519 9.35796 4.50183 9.21674C4.64848 9.07553 4.82607 9.00492 5.03463 9.00492C5.23015 9.00492 5.39308 9.07881 5.52343 9.22659C5.65377 9.37437 5.71894 9.5435 5.71894 9.73398V11.0936L5.55276 14L7.10713 12.2956L11.2228 8.13792C11.301 8.05911 11.3808 8.00164 11.4623 7.96551C11.5438 7.92938 11.64 7.91132 11.7507 7.91132Z" fill="black" fill-opacity="0.8"/>
</svg>
