<svg width="26" height="24" viewBox="0 0 26 24" fill="none" xmlns="http://www.w3.org/2000/svg">
<path d="M10.8103 18.2301H16.7327C17.8209 18.2301 18.6727 17.9373 19.2882 17.3516C19.9036 16.7659 20.2113 15.945 20.2113 14.889V13.7032L23.5828 16.473C23.7612 16.6173 23.9456 16.7341 24.1359 16.8236C24.3261 16.913 24.5134 16.9578 24.6978 16.9578C25.0902 16.9578 25.4054 16.8308 25.6432 16.5769C25.8811 16.323 26 15.9941 26 15.5901V6.64003C26 6.23609 25.8811 5.90717 25.6432 5.65327C25.4054 5.39936 25.0902 5.27241 24.6978 5.27241C24.5134 5.27241 24.3261 5.31713 24.1359 5.40657C23.9456 5.49602 23.7612 5.61287 23.5828 5.75714L20.2113 8.527V7.33249C20.2113 6.28226 19.9036 5.46428 19.2882 4.87857C18.6727 4.29286 17.8209 4 16.7327 4H7.412C6.37141 4 5.5315 4.29286 4.89228 4.87857C4.25306 5.46428 3.93345 6.28226 3.93345 7.33249V11.5652C4.04643 11.519 4.16535 11.483 4.29023 11.457C4.41509 11.431 4.54591 11.4181 4.68267 11.4181C4.8016 11.4181 4.91904 11.4282 5.035 11.4484C5.15094 11.4685 5.26243 11.4988 5.36947 11.5392V7.54024C5.36947 6.79006 5.56867 6.22887 5.96706 5.85667C6.36546 5.48448 6.93036 5.29838 7.66175 5.29838H16.483C17.2144 5.29838 17.7793 5.48448 18.1777 5.85667C18.5761 6.22887 18.7753 6.79006 18.7753 7.54024V14.6899C18.7753 15.4401 18.5761 15.9998 18.1777 16.3691C17.7793 16.7385 17.2144 16.9231 16.483 16.9231H10.8103V18.2301ZM20.2113 12.0585V10.1716L24.2518 6.93432C24.2934 6.90547 24.3306 6.88094 24.3633 6.86075C24.396 6.84055 24.4302 6.83045 24.4659 6.83045C24.5669 6.83045 24.6175 6.8997 24.6175 7.0382V15.192C24.6175 15.3247 24.5669 15.3911 24.4659 15.3911C24.4302 15.3911 24.396 15.381 24.3633 15.3607C24.3306 15.3405 24.2934 15.3189 24.2518 15.2959L20.2113 12.0585ZM0.490566 18.0483C0.639222 18.0483 0.762607 18.0022 0.86072 17.9099C0.958836 17.8175 1.00789 17.705 1.00789 17.5723V16.2567C1.00789 16.1182 0.958836 16.0013 0.86072 15.9061C0.762607 15.8109 0.639222 15.7632 0.490566 15.7632C0.353802 15.7632 0.23785 15.8109 0.14271 15.9061C0.04757 16.0013 0 16.1182 0 16.2567V17.5723C0 17.705 0.04757 17.8175 0.14271 17.9099C0.23785 18.0022 0.353802 18.0483 0.490566 18.0483ZM2.59554 19.5026C2.73825 19.5026 2.85717 19.4564 2.95231 19.3641C3.04745 19.2718 3.09502 19.1535 3.09502 19.0092V14.8024C3.09502 14.6697 3.04745 14.5558 2.95231 14.4606C2.85717 14.3654 2.73825 14.3178 2.59554 14.3178C2.45283 14.3178 2.33242 14.3654 2.23431 14.4606C2.13619 14.5558 2.08714 14.6697 2.08714 14.8024V19.0092C2.08714 19.1535 2.13619 19.2718 2.23431 19.3641C2.33242 19.4564 2.45283 19.5026 2.59554 19.5026ZM4.68267 21C4.82539 21 4.9458 20.9538 5.04391 20.8616C5.14202 20.7692 5.19108 20.6538 5.19108 20.5153V13.3223C5.19108 13.1781 5.14202 13.0583 5.04391 12.9631C4.9458 12.8679 4.82539 12.8203 4.68267 12.8203C4.54591 12.8203 4.42847 12.8679 4.33036 12.9631C4.23225 13.0583 4.18319 13.1781 4.18319 13.3223V20.5153C4.18319 20.6538 4.23076 20.7692 4.3259 20.8616C4.42104 20.9538 4.53997 21 4.68267 21ZM6.76981 20.1431C6.91252 20.1431 7.03293 20.0955 7.13105 20.0003C7.22916 19.9051 7.27821 19.7882 7.27821 19.6497V14.1619C7.27821 14.0292 7.22916 13.9167 7.13105 13.8243C7.03293 13.732 6.91252 13.6859 6.76981 13.6859C6.63305 13.6859 6.51561 13.732 6.4175 13.8243C6.31938 13.9167 6.27032 14.0292 6.27032 14.1619V19.6497C6.27032 19.7882 6.31938 19.9051 6.4175 20.0003C6.51561 20.0955 6.63305 20.1431 6.76981 20.1431ZM8.86586 18.5071C9.01452 18.5071 9.13641 18.461 9.23154 18.3687C9.32671 18.2763 9.3743 18.1609 9.3743 18.0224V15.7979C9.3743 15.6594 9.32671 15.544 9.23154 15.4517C9.13641 15.3593 9.01452 15.3131 8.86586 15.3131C8.7291 15.3131 8.61166 15.3607 8.51355 15.4559C8.41544 15.5512 8.36638 15.6652 8.36638 15.7979V18.0224C8.36638 18.1552 8.41544 18.2691 8.51355 18.3643C8.61166 18.4595 8.7291 18.5071 8.86586 18.5071Z" fill="black" fill-opacity="0.8"/>
</svg>
