<svg width="26" height="24" viewBox="0 0 26 24" fill="none" xmlns="http://www.w3.org/2000/svg">
<path d="M9.95724 18.4959H16.688C17.7814 18.4959 18.6373 18.1975 19.2557 17.6008C19.8742 17.0042 20.1834 16.168 20.1834 15.0923V7.39471C20.1834 6.32486 19.8742 5.49161 19.2557 4.89497C18.6373 4.29832 17.7814 4 16.688 4H7.3223C6.27668 4 5.43272 4.29832 4.79042 4.89497C4.14811 5.49161 3.82695 6.32486 3.82695 7.39471V10.8688C3.94645 10.857 4.06595 10.8467 4.18545 10.8379C4.30495 10.8291 4.42445 10.8247 4.54395 10.8247C4.66344 10.8247 4.78444 10.8291 4.90693 10.8379C5.02941 10.8467 5.15041 10.857 5.26991 10.8688V7.60633C5.26991 6.84215 5.47006 6.27049 5.87038 5.89134C6.2707 5.51219 6.83833 5.32262 7.57324 5.32262H16.4371C17.172 5.32262 17.7396 5.51219 18.1399 5.89134C18.5402 6.27049 18.7404 6.84215 18.7404 7.60633V14.8895C18.7404 15.6537 18.5402 16.2239 18.1399 16.6001C17.7396 16.9764 17.172 17.1645 16.4371 17.1645H10.2709C10.247 17.3996 10.2097 17.6273 10.1589 17.8478C10.1081 18.0682 10.0409 18.2842 9.95724 18.4959ZM24.6915 17.1997C25.0858 17.1997 25.4025 17.0703 25.6415 16.8117C25.8805 16.553 26 16.218 26 15.8065V6.68932C26 6.27783 25.8805 5.94277 25.6415 5.68413C25.4025 5.42549 25.0858 5.29616 24.6915 5.29616C24.5063 5.29616 24.3181 5.34172 24.1269 5.43284C23.9357 5.52395 23.7504 5.64298 23.5712 5.78994L19.9235 8.82313L19.9593 10.472L24.2433 6.98911C24.2852 6.95972 24.3225 6.93473 24.3554 6.91416C24.3882 6.89359 24.4226 6.8833 24.4585 6.8833C24.56 6.8833 24.6108 6.95384 24.6108 7.09492V15.4009C24.6108 15.5361 24.56 15.6037 24.4585 15.6037C24.4226 15.6037 24.3882 15.5934 24.3554 15.5729C24.3225 15.5523 24.2852 15.5303 24.2433 15.5067L19.9593 12.0239L19.9235 13.6728L23.5712 16.7059C23.7504 16.8529 23.9357 16.9719 24.1269 17.063C24.3181 17.1541 24.5063 17.1997 24.6915 17.1997ZM4.55291 21C5.16833 21 5.75089 20.8824 6.30058 20.6473C6.85027 20.4121 7.33574 20.0888 7.75698 19.6774C8.17821 19.2659 8.50832 18.7898 8.74732 18.2489C8.98632 17.7082 9.10582 17.1321 9.10582 16.5208C9.10582 15.9036 8.98782 15.3245 8.7518 14.7837C8.51579 14.2429 8.18867 13.7668 7.77042 13.3553C7.35217 12.9438 6.8682 12.622 6.31851 12.3898C5.76881 12.1576 5.18028 12.0415 4.55291 12.0415C3.93151 12.0415 3.34597 12.1576 2.79628 12.3898C2.24658 12.622 1.76261 12.9453 1.34436 13.3597C0.926116 13.7741 0.597495 14.2503 0.358497 14.7881C0.119499 15.326 0 15.9036 0 16.5208C0 17.1379 0.119499 17.7169 0.358497 18.2578C0.597495 18.7986 0.926116 19.2747 1.34436 19.6862C1.76261 20.0977 2.24658 20.4195 2.79628 20.6517C3.34597 20.8839 3.93151 21 4.55291 21ZM2.0524 17.2085C1.86717 17.2085 1.70584 17.1409 1.56842 17.0057C1.431 16.8705 1.36229 16.7089 1.36229 16.5208C1.36229 16.3327 1.431 16.171 1.56842 16.0358C1.70584 15.9006 1.86717 15.8329 2.0524 15.8329C2.24957 15.8329 2.41686 15.9006 2.55429 16.0358C2.69171 16.171 2.76042 16.3327 2.76042 16.5208C2.76042 16.7089 2.69171 16.8705 2.55429 17.0057C2.41686 17.1409 2.24957 17.2085 2.0524 17.2085ZM4.55291 17.2085C4.36768 17.2085 4.20487 17.1409 4.06446 17.0057C3.92405 16.8705 3.85384 16.7089 3.85384 16.5208C3.85384 16.3327 3.92405 16.171 4.06446 16.0358C4.20487 15.9006 4.36768 15.8329 4.55291 15.8329C4.74411 15.8329 4.90991 15.9006 5.05032 16.0358C5.19073 16.171 5.26094 16.3327 5.26094 16.5208C5.26094 16.7089 5.19073 16.8705 5.05032 17.0057C4.90991 17.1409 4.74411 17.2085 4.55291 17.2085ZM7.04446 17.2085C6.84729 17.2085 6.68149 17.1409 6.54705 17.0057C6.41261 16.8705 6.34539 16.7089 6.34539 16.5208C6.34539 16.3327 6.41261 16.171 6.54705 16.0358C6.68149 15.9006 6.84729 15.8329 7.04446 15.8329C7.23566 15.8329 7.39997 15.9006 7.53739 16.0358C7.67482 16.171 7.74054 16.3327 7.73456 16.5208C7.73456 16.7089 7.66585 16.8705 7.52843 17.0057C7.39101 17.1409 7.22969 17.2085 7.04446 17.2085Z" fill="black" fill-opacity="0.8"/>
</svg>
