<svg width="24" height="24" viewBox="0 0 24 24" fill="none" xmlns="http://www.w3.org/2000/svg">
<path d="M3.78334 20H13.9208C15.1043 20 16.0307 19.6707 16.7 19.0122C17.3694 18.3536 17.7041 17.4307 17.7041 16.2433V7.74696C17.7041 6.5661 17.3694 5.64639 16.7 4.98783C16.0307 4.32928 15.1043 4 13.9208 4H3.78334C2.65157 4 1.73807 4.32928 1.04284 4.98783C0.347613 5.64639 0 6.5661 0 7.74696V16.2433C0 17.4307 0.334679 18.3536 1.00404 19.0122C1.6734 19.6707 2.59983 20 3.78334 20ZM4.05496 18.5304C3.25949 18.5304 2.6451 18.3228 2.2118 17.9076C1.7785 17.4923 1.56184 16.8629 1.56184 16.0194V7.98053C1.56184 7.13706 1.7785 6.50608 2.2118 6.08759C2.6451 5.6691 3.25949 5.45985 4.05496 5.45985H13.6491C14.4446 5.45985 15.059 5.6691 15.4923 6.08759C15.9256 6.50608 16.1423 7.13706 16.1423 7.98053V16.0194C16.1423 16.8629 15.9256 17.4923 15.4923 17.9076C15.059 18.3228 14.4446 18.5304 13.6491 18.5304H4.05496ZM17.481 9.27494V11.1241L22.0986 7.29927C22.1439 7.26683 22.1843 7.23925 22.2199 7.21654C22.2554 7.19383 22.2926 7.18248 22.3314 7.18248C22.4414 7.18248 22.4963 7.26034 22.4963 7.41605V16.584C22.4963 16.7332 22.4414 16.8078 22.3314 16.8078C22.2926 16.8078 22.2554 16.7965 22.2199 16.7737C22.1843 16.751 22.1439 16.7267 22.0986 16.7007L17.481 12.8759V14.7154L21.371 18.0244C21.565 18.1865 21.7655 18.3179 21.9724 18.4185C22.1794 18.519 22.3831 18.5693 22.5837 18.5693C23.0105 18.5693 23.3532 18.4266 23.6119 18.1412C23.8706 17.8557 24 17.4858 24 17.0316V6.96837C24 6.51419 23.8706 6.14436 23.6119 5.85887C23.3532 5.5734 23.0105 5.43066 22.5837 5.43066C22.3831 5.43066 22.1794 5.48094 21.9724 5.5815C21.7655 5.68207 21.565 5.81346 21.371 5.97567L17.481 9.27494ZM8.59497 13.8783C8.81486 13.8783 8.98786 13.8183 9.11396 13.6983C9.24008 13.5783 9.30313 13.4274 9.30313 13.2457C9.30313 13.2328 9.30313 13.2165 9.30313 13.1971C9.30313 13.1776 9.30313 13.1581 9.30313 13.1387C9.30313 12.8921 9.37589 12.6796 9.52141 12.5012C9.66692 12.3228 9.89488 12.133 10.2053 11.9319C10.6322 11.6529 10.9814 11.3593 11.253 11.0511C11.5246 10.7429 11.6605 10.3228 11.6605 9.79075C11.6605 9.30413 11.5311 8.89375 11.2725 8.55961C11.0137 8.22547 10.6726 7.97243 10.249 7.80049C9.82537 7.62855 9.36457 7.54258 8.8666 7.54258C8.10993 7.54258 7.49392 7.69505 7.01858 7.99999C6.54324 8.30495 6.24413 8.65855 6.12125 9.06082C6.09538 9.13219 6.07598 9.20519 6.06305 9.2798C6.05011 9.35442 6.04364 9.43065 6.04364 9.50851C6.04364 9.70316 6.10831 9.85239 6.23766 9.9562C6.36701 10.06 6.50282 10.1119 6.64509 10.1119C6.89732 10.1119 7.07032 10.0535 7.16409 9.93673C7.25787 9.81995 7.3759 9.6772 7.51818 9.50851C7.66045 9.26845 7.8383 9.08029 8.05172 8.94404C8.26514 8.80778 8.51736 8.73966 8.80839 8.73966C9.20936 8.73966 9.52949 8.84185 9.76877 9.04623C10.0081 9.2506 10.1277 9.52149 10.1277 9.85888C10.1277 10.1573 10.0339 10.4039 9.84639 10.5985C9.65884 10.7932 9.37751 11.0235 9.00241 11.2895C8.68551 11.5166 8.42197 11.7616 8.21179 12.0243C8.0016 12.2871 7.89651 12.6326 7.89651 13.0608C7.89651 13.0803 7.89651 13.1014 7.89651 13.1241C7.89651 13.1468 7.89651 13.1646 7.89651 13.1776C7.89651 13.6448 8.12933 13.8783 8.59497 13.8783ZM8.57557 16.506C8.82779 16.506 9.04768 16.4185 9.23524 16.2433C9.42278 16.0681 9.51656 15.8508 9.51656 15.5913C9.51656 15.3382 9.42278 15.1224 9.23524 14.944C9.04768 14.7656 8.82779 14.6764 8.57557 14.6764C8.31688 14.6764 8.09376 14.7656 7.90621 14.944C7.71866 15.1224 7.62488 15.3382 7.62488 15.5913C7.62488 15.8443 7.72028 16.06 7.91106 16.2385C8.10184 16.4168 8.32335 16.506 8.57557 16.506Z" fill="black" fill-opacity="0.8"/>
</svg>
