<svg width="26" height="24" viewBox="0 0 26 24" fill="none" xmlns="http://www.w3.org/2000/svg">
<path d="M10.0824 18H16.7607C17.8456 18 18.6948 17.7119 19.3084 17.1356C19.922 16.5593 20.2288 15.7518 20.2288 14.7128V7.27858C20.2288 6.24533 19.922 5.44059 19.3084 4.86435C18.6948 4.28812 17.8456 4 16.7607 4H7.46807C6.43061 4 5.59324 4.28812 4.95595 4.86435C4.31865 5.44059 4 6.24533 4 7.27858V10.6338C4.11856 10.6225 4.23713 10.6125 4.3557 10.604C4.47427 10.5955 4.59283 10.5913 4.7114 10.5913C4.82996 10.5913 4.95001 10.5955 5.07155 10.604C5.19308 10.6125 5.31313 10.6225 5.43169 10.6338V7.48296C5.43169 6.74492 5.63029 6.19282 6.02748 5.82664C6.42468 5.46046 6.98787 5.27737 7.71705 5.27737H16.5118C17.2409 5.27737 17.8041 5.46046 18.2013 5.82664C18.5985 6.19282 18.7971 6.74492 18.7971 7.48296V14.517C18.7971 15.2551 18.5985 15.8058 18.2013 16.1691C17.8041 16.5325 17.2409 16.7141 16.5118 16.7141H10.3937C10.3699 16.9412 10.3329 17.1612 10.2825 17.3741C10.2321 17.587 10.1654 17.7956 10.0824 18ZM24.7017 16.7481C25.0929 16.7481 25.4071 16.6232 25.6443 16.3734C25.8814 16.1236 26 15.8 26 15.4026V6.59732C26 6.19991 25.8814 5.87631 25.6443 5.62652C25.4071 5.37672 25.0929 5.25182 24.7017 5.25182C24.5179 5.25182 24.3312 5.29582 24.1415 5.38382C23.9518 5.47181 23.768 5.58677 23.5901 5.7287L19.9709 8.65814L20.0064 10.2506L24.257 6.88686C24.2986 6.85847 24.3356 6.83434 24.3682 6.81447C24.4008 6.7946 24.4349 6.78466 24.4705 6.78466C24.5713 6.78466 24.6216 6.85279 24.6216 6.98905V15.0109C24.6216 15.1415 24.5713 15.2068 24.4705 15.2068C24.4349 15.2068 24.4008 15.1968 24.3682 15.177C24.3356 15.1571 24.2986 15.1358 24.257 15.1131L20.0064 11.7494L19.9709 13.3419L23.5901 16.2712C23.768 16.4132 23.9518 16.5282 24.1415 16.6161C24.3312 16.7041 24.5179 16.7481 24.7017 16.7481Z" fill="black" fill-opacity="0.8"/>
<path fill-rule="evenodd" clip-rule="evenodd" d="M6.91928 20.6063C6.31561 20.8688 5.67585 21 5 21C4.31758 21 3.67454 20.8704 3.07087 20.6113C2.46719 20.352 1.9357 19.9928 1.47637 19.5334C1.01706 19.0741 0.656168 18.5426 0.393701 17.939C0.131234 17.3353 0 16.689 0 16C0 15.3111 0.131234 14.6664 0.393701 14.0659C0.656168 13.4656 1.01706 12.9341 1.47637 12.4715C1.9357 12.0089 2.46719 11.648 3.07087 11.3888C3.67454 11.1296 4.31758 11 5 11C5.68898 11 6.3353 11.1296 6.93898 11.3888C7.54265 11.648 8.07414 12.0072 8.53346 12.4666C8.99278 12.9259 9.35203 13.4574 9.61121 14.061C9.8704 14.6647 10 15.3111 10 16C10 16.6824 9.86876 17.3255 9.60629 17.9291C9.34382 18.5328 8.98129 19.0643 8.5187 19.5237C8.0561 19.9829 7.52296 20.3438 6.91928 20.6063ZM4.1437 18.8938C4.23557 18.9265 4.32086 18.9429 4.3996 18.9429C4.63583 18.9429 4.80971 18.8675 4.92126 18.7166L7.97244 14.4744C8.01837 14.4088 8.05282 14.3432 8.07579 14.2776C8.09875 14.212 8.11024 14.1529 8.11024 14.1004C8.11024 13.9298 8.0479 13.7855 7.92323 13.6673C7.79855 13.5492 7.65419 13.4901 7.49015 13.4901C7.27362 13.4901 7.09974 13.582 6.9685 13.7658L4.37992 17.3681L2.98228 15.8622C2.92979 15.8031 2.86417 15.7523 2.78543 15.7097C2.70669 15.667 2.61482 15.6457 2.50984 15.6457C2.33924 15.6457 2.19488 15.7047 2.07677 15.8229C1.95866 15.941 1.89961 16.0886 1.89961 16.2657C1.89961 16.338 1.91109 16.4118 1.93406 16.4873C1.95702 16.5627 1.9849 16.6201 2.01771 16.6595L3.90748 18.7362C3.97309 18.8084 4.05184 18.8609 4.1437 18.8938Z" fill="#007AFF"/>
</svg>
