<svg width="24" height="24" viewBox="0 0 24 24" fill="none" xmlns="http://www.w3.org/2000/svg">
<path d="M4.41454 18.8267H14.6478L1.64283 6.84363C1.59388 6.95075 1.55411 7.09169 1.52352 7.26647C1.49293 7.44123 1.47763 7.61882 1.47763 7.79923V16.129C1.47763 16.9803 1.73614 17.6428 2.25315 18.1164C2.77018 18.5899 3.49064 18.8267 4.41454 18.8267ZM14.3633 5.09311H4.80918L17.1166 16.4335C17.1472 16.2869 17.1717 16.122 17.1901 15.9387C17.2084 15.7555 17.2176 15.5737 17.2176 15.3933V7.76541C17.2176 6.91974 16.9729 6.26294 16.4834 5.79501C15.9939 5.32707 15.2872 5.09311 14.3633 5.09311ZM18.4657 14.4546L21.8065 17.1184C21.9656 17.2425 22.1323 17.3426 22.3067 17.4187C22.4811 17.4947 22.6509 17.5328 22.816 17.5328C23.171 17.5328 23.457 17.4243 23.6742 17.2073C23.8914 16.9902 24 16.7069 24 16.3573V7.56244C24 7.2129 23.8914 6.9296 23.6742 6.71255C23.457 6.4955 23.171 6.38697 22.816 6.38697C22.6509 6.38697 22.4811 6.42362 22.3067 6.49691C22.1323 6.5702 21.9656 6.67168 21.8065 6.80135L18.4657 9.45673V14.4546ZM18.3373 20.8055C18.478 20.9352 18.6463 21 18.842 21C19.0378 21 19.2031 20.9352 19.3377 20.8055C19.4723 20.6758 19.5411 20.5222 19.5442 20.3446C19.5472 20.1671 19.4784 20.0134 19.3377 19.8838L1.21147 3.19036C1.07074 3.06633 0.902484 3.00291 0.706692 3.00009C0.510899 2.99727 0.342639 3.0607 0.201912 3.19036C0.0673041 3.31439 0 3.46802 0 3.65125C0 3.83448 0.0673041 3.98811 0.201912 4.11214L18.3373 20.8055Z" fill="black" fill-opacity="0.8"/>
</svg>
