<svg width="26" height="24" viewBox="0 0 26 24" fill="none" xmlns="http://www.w3.org/2000/svg">
<path d="M10.0824 18H16.7607C17.8456 18 18.6948 17.7119 19.3084 17.1356C19.922 16.5593 20.2288 15.7518 20.2288 14.7128V7.27858C20.2288 6.24533 19.922 5.44059 19.3084 4.86435C18.6948 4.28812 17.8456 4 16.7607 4H7.46807C6.43061 4 5.59324 4.28812 4.95595 4.86435C4.31865 5.44059 4 6.24533 4 7.27858V10.6338C4.11856 10.6225 4.23713 10.6125 4.3557 10.604C4.47427 10.5955 4.59283 10.5913 4.7114 10.5913C4.82996 10.5913 4.95001 10.5955 5.07155 10.604C5.19308 10.6125 5.31313 10.6225 5.43169 10.6338V7.48296C5.43169 6.74492 5.63029 6.19282 6.02748 5.82664C6.42468 5.46046 6.98787 5.27737 7.71705 5.27737H16.5118C17.2409 5.27737 17.8041 5.46046 18.2013 5.82664C18.5985 6.19282 18.7971 6.74492 18.7971 7.48296V14.517C18.7971 15.2551 18.5985 15.8058 18.2013 16.1691C17.8041 16.5325 17.2409 16.7141 16.5118 16.7141H10.3937C10.3699 16.9412 10.3329 17.1612 10.2825 17.3741C10.2321 17.587 10.1654 17.7956 10.0824 18ZM24.7017 16.7481C25.0929 16.7481 25.4071 16.6232 25.6443 16.3734C25.8814 16.1236 26 15.8 26 15.4026V6.59732C26 6.19991 25.8814 5.87631 25.6443 5.62652C25.4071 5.37672 25.0929 5.25182 24.7017 5.25182C24.5179 5.25182 24.3312 5.29582 24.1415 5.38382C23.9518 5.47181 23.768 5.58677 23.5901 5.7287L19.9709 8.65814L20.0064 10.2506L24.257 6.88686C24.2986 6.85847 24.3356 6.83434 24.3682 6.81447C24.4008 6.7946 24.4349 6.78466 24.4705 6.78466C24.5713 6.78466 24.6216 6.85279 24.6216 6.98905V15.0109C24.6216 15.1415 24.5713 15.2068 24.4705 15.2068C24.4349 15.2068 24.4008 15.1968 24.3682 15.177C24.3356 15.1571 24.2986 15.1358 24.257 15.1131L20.0064 11.7494L19.9709 13.3419L23.5901 16.2712C23.768 16.4132 23.9518 16.5282 24.1415 16.6161C24.3312 16.7041 24.5179 16.7481 24.7017 16.7481Z" fill="black" fill-opacity="0.8"/>
<path fill-rule="evenodd" clip-rule="evenodd" d="M6.91928 20.6063C6.31561 20.8688 5.67585 21 5 21C4.31758 21 3.67454 20.8704 3.07087 20.6113C2.46719 20.352 1.9357 19.9928 1.47637 19.5334C1.01706 19.0741 0.656168 18.5426 0.393701 17.939C0.131234 17.3353 0 16.689 0 16C0 15.3111 0.131234 14.6664 0.393701 14.0659C0.656168 13.4656 1.01706 12.9341 1.47637 12.4715C1.9357 12.0089 2.46719 11.648 3.07087 11.3888C3.67454 11.1296 4.31758 11 5 11C5.68898 11 6.3353 11.1296 6.93898 11.3888C7.54265 11.648 8.07414 12.0072 8.53346 12.4666C8.99278 12.9259 9.35203 13.4574 9.61121 14.061C9.8704 14.6647 10 15.3111 10 16C10 16.6824 9.86876 17.3255 9.60629 17.9291C9.34382 18.5328 8.98129 19.0643 8.5187 19.5237C8.0561 19.9829 7.52296 20.3438 6.91928 20.6063ZM4.55216 18.9626C4.66043 19.0741 4.80642 19.1299 4.99015 19.1299C5.17388 19.1299 5.31988 19.0741 5.42814 18.9626C5.53642 18.851 5.59055 18.7067 5.59055 18.5295V16.6004H7.51968C7.69685 16.6004 7.8412 16.5463 7.95275 16.438C8.0643 16.3297 8.12007 16.1838 8.12007 16C8.12007 15.8163 8.0643 15.6703 7.95275 15.562C7.8412 15.4538 7.69685 15.3997 7.51968 15.3997H5.59055V13.4705C5.59055 13.2933 5.53642 13.1489 5.42814 13.0374C5.31988 12.9259 5.17388 12.8701 4.99015 12.8701C4.80642 12.8701 4.66043 12.9259 4.55216 13.0374C4.4439 13.1489 4.38976 13.2933 4.38976 13.4705V15.3997H2.46063C2.28346 15.3997 2.1391 15.4538 2.02756 15.562C1.91601 15.6703 1.86023 15.8163 1.86023 16C1.86023 16.1838 1.91601 16.3297 2.02756 16.438C2.1391 16.5463 2.28346 16.6004 2.46063 16.6004H4.38976V18.5295C4.38976 18.7067 4.4439 18.851 4.55216 18.9626Z" fill="#34C759"/>
</svg>
