<svg width="26" height="24" viewBox="0 0 26 24" fill="none" xmlns="http://www.w3.org/2000/svg">
<path d="M20.6049 13.631L23.8617 16.3716C24.0167 16.5049 24.1793 16.6094 24.3492 16.6848C24.5193 16.7602 24.6848 16.7978 24.8458 16.7978C25.1918 16.7978 25.4706 16.6862 25.6824 16.4629C25.8941 16.2396 26 15.9482 26 15.5885V6.54043C26 6.18082 25.8941 5.88937 25.6824 5.66607C25.4706 5.44277 25.1918 5.33112 24.8458 5.33112C24.6848 5.33112 24.5193 5.37027 24.3492 5.44857C24.1793 5.52687 24.0167 5.62982 23.8617 5.75743L20.6049 8.48926V13.631ZM16.6056 4H6.90709C6.04818 4 5.35478 4.2407 4.82691 4.72211C4.29904 5.20351 4.0351 5.88212 4.0351 6.75793V11.4821C4.1365 11.4473 4.24237 11.4197 4.35272 11.3995C4.46307 11.3792 4.57788 11.369 4.69718 11.369C5.04909 11.369 5.36969 11.456 5.65898 11.63C5.94827 11.804 6.17045 12.0273 6.32554 12.2999C6.48062 12.2535 6.63271 12.2303 6.78183 12.2303C7.259 12.2303 7.67504 12.3753 8.02994 12.6654C8.38484 12.9553 8.60702 13.3149 8.69649 13.7441C8.70246 13.7731 8.70693 13.8007 8.70992 13.8268C8.7129 13.8529 8.71439 13.8804 8.71439 13.9094C8.74421 13.8978 8.77254 13.8877 8.79938 13.879C8.82622 13.8703 8.85456 13.8659 8.88438 13.8659C9.24825 13.8659 9.5778 13.9515 9.87305 14.1226C10.1683 14.2937 10.4039 14.5228 10.5799 14.8099C10.7558 15.097 10.8437 15.4146 10.8437 15.7625V18.129H16.5161C17.4169 18.129 18.1207 17.8883 18.6276 17.4069C19.1347 16.9255 19.3882 16.2498 19.3882 15.3797V6.75793C19.3882 5.88212 19.1496 5.20351 18.6724 4.72211C18.1952 4.2407 17.5063 4 16.6056 4ZM0.492085 18.0332C0.641202 18.0332 0.764969 17.9869 0.863386 17.8941C0.961806 17.8013 1.01102 17.6881 1.01102 17.5547V16.2324C1.01102 16.0932 0.961806 15.9757 0.863386 15.88C0.764969 15.7843 0.641202 15.7364 0.492085 15.7364C0.354898 15.7364 0.238587 15.7843 0.143152 15.88C0.0477174 15.9757 0 16.0932 0 16.2324V17.5547C0 17.6881 0.0477174 17.8013 0.143152 17.8941C0.238587 17.9869 0.354898 18.0332 0.492085 18.0332ZM2.60358 19.4949C2.74673 19.4949 2.86602 19.4485 2.96146 19.3557C3.05689 19.2629 3.10461 19.144 3.10461 18.999V14.7707C3.10461 14.6373 3.05689 14.5228 2.96146 14.4271C2.86602 14.3314 2.74673 14.2836 2.60358 14.2836C2.46043 14.2836 2.33964 14.3314 2.24123 14.4271C2.14281 14.5228 2.0936 14.6373 2.0936 14.7707V18.999C2.0936 19.144 2.14281 19.2629 2.24123 19.3557C2.33964 19.4485 2.46043 19.4949 2.60358 19.4949ZM4.69718 21C4.84033 21 4.96112 20.9536 5.05953 20.8608C5.15795 20.768 5.20716 20.652 5.20716 20.5128V13.283C5.20716 13.138 5.15795 13.0177 5.05953 12.9219C4.96112 12.8262 4.84033 12.7784 4.69718 12.7784C4.55999 12.7784 4.44219 12.8262 4.34377 12.9219C4.24536 13.0177 4.19615 13.138 4.19615 13.283V20.5128C4.19615 20.652 4.24387 20.768 4.3393 20.8608C4.43474 20.9536 4.55403 21 4.69718 21ZM6.79078 20.1387C6.93393 20.1387 7.05471 20.0908 7.15314 19.9952C7.25155 19.8995 7.30076 19.782 7.30076 19.6428V14.127C7.30076 13.9936 7.25155 13.8804 7.15314 13.7876C7.05471 13.6948 6.93393 13.6485 6.79078 13.6485C6.65359 13.6485 6.53579 13.6948 6.43738 13.7876C6.33895 13.8804 6.28974 13.9936 6.28974 14.127V19.6428C6.28974 19.782 6.33895 19.8995 6.43738 19.9952C6.53579 20.0908 6.65359 20.1387 6.79078 20.1387ZM8.89332 18.4944C9.04244 18.4944 9.16471 18.448 9.26013 18.3552C9.3556 18.2624 9.40333 18.1464 9.40333 18.0071V15.7713C9.40333 15.6321 9.3556 15.5161 9.26013 15.4233C9.16471 15.3305 9.04244 15.284 8.89332 15.284C8.75614 15.284 8.63834 15.3319 8.53992 15.4276C8.4415 15.5233 8.3923 15.6379 8.3923 15.7713V18.0071C8.3923 18.1406 8.4415 18.2552 8.53992 18.3508C8.63834 18.4465 8.75614 18.4944 8.89332 18.4944Z" fill="black" fill-opacity="0.8"/>
</svg>
