<svg width="24" height="24" viewBox="0 0 24 24" fill="none" xmlns="http://www.w3.org/2000/svg">
<path d="M3.13809 20H13.6374C14.6216 20 15.3907 19.7274 15.9446 19.1822C16.4986 18.6371 16.7756 17.8686 16.7756 16.8769V7.1133C16.7756 6.12807 16.5149 5.36289 15.9935 4.81773C15.4721 4.27258 14.7193 4 13.7352 4H3.13809C2.1996 4 1.44196 4.27258 0.865174 4.81773C0.288391 5.36289 0 6.12807 0 7.1133V16.8769C0 17.8686 0.276986 18.6371 0.830957 19.1822C1.38493 19.7274 2.15398 20 3.13809 20ZM18.1051 14.9063L21.6635 18.0098C21.833 18.1543 22.0106 18.2709 22.1964 18.3596C22.3821 18.4482 22.5629 18.4926 22.7389 18.4926C23.1169 18.4926 23.4216 18.3661 23.6529 18.1133C23.8843 17.8604 24 17.5304 24 17.1231V6.87684C24 6.46962 23.8843 6.13957 23.6529 5.8867C23.4216 5.63382 23.1169 5.50739 22.7389 5.50739C22.5629 5.50739 22.3821 5.55008 22.1964 5.63546C22.0106 5.72085 21.833 5.83908 21.6635 5.99015L18.1051 9.08373V14.9063Z" fill="#34C759"/>
</svg>
