<svg width="26" height="24" viewBox="0 0 26 24" fill="none" xmlns="http://www.w3.org/2000/svg">
<path d="M16.7864 4H7.27439C6.432 4 5.75195 4.24561 5.23424 4.73682C4.71651 5.22802 4.45765 5.91749 4.45765 6.80522V10.7556C5.2357 10.7556 5.96694 10.9051 6.65137 11.2039C7.33582 11.5028 7.93836 11.9156 8.45901 12.4423C8.97965 12.969 9.38623 13.5786 9.67873 14.2711C9.97124 14.9634 10.1175 15.7032 10.1175 16.4904C10.1175 16.8217 10.0897 17.1502 10.0341 17.4757C9.97852 17.8012 9.89516 18.1149 9.78404 18.4167H16.6987C17.582 18.4167 18.2723 18.1711 18.7695 17.6799C19.2668 17.1887 19.5154 16.4963 19.5154 15.6026V6.80522C19.5154 5.91749 19.2814 5.22802 18.8134 4.73682C18.3454 4.24561 17.6697 4 16.7864 4ZM20.7088 13.8272L23.9029 16.6235C24.055 16.7537 24.2144 16.8587 24.3811 16.9386C24.5478 17.0186 24.7101 17.0585 24.8681 17.0585C25.2074 17.0585 25.4809 16.9446 25.6886 16.7167C25.8962 16.4889 26 16.1915 26 15.8245V6.59216C26 6.22524 25.8962 5.92785 25.6886 5.7C25.4809 5.47215 25.2074 5.35822 24.8681 5.35822C24.7101 5.35822 24.5478 5.39669 24.3811 5.47363C24.2144 5.55057 24.055 5.6571 23.9029 5.79321L20.7088 8.58068V13.8272ZM4.45765 21C5.0602 21 5.63056 20.8816 6.16875 20.6449C6.70695 20.4082 7.18226 20.0827 7.59468 19.6684C8.0071 19.2542 8.33031 18.7748 8.56431 18.2303C8.79831 17.6858 8.91531 17.1058 8.91531 16.4904C8.91531 15.869 8.79977 15.286 8.56869 14.7415C8.33762 14.197 8.01734 13.7177 7.60785 13.3034C7.19835 12.8891 6.7245 12.5651 6.18631 12.3314C5.64812 12.0976 5.0719 11.9807 4.45765 11.9807C3.84926 11.9807 3.27596 12.0976 2.73777 12.3314C2.19958 12.5651 1.72573 12.8906 1.31623 13.3078C0.906739 13.7251 0.584994 14.2045 0.350996 14.7459C0.116999 15.2875 0 15.869 0 16.4904C0 17.1118 0.116999 17.6947 0.350996 18.2392C0.584994 18.7836 0.906739 19.263 1.31623 19.6773C1.72573 20.0915 2.19958 20.4156 2.73777 20.6494C3.27596 20.8831 3.84926 21 4.45765 21ZM2.00945 17.1828C1.8281 17.1828 1.67015 17.1147 1.5356 16.9786C1.40106 16.8425 1.33379 16.6798 1.33379 16.4904C1.33379 16.301 1.40106 16.1382 1.5356 16.0021C1.67015 15.866 1.8281 15.7979 2.00945 15.7979C2.2025 15.7979 2.3663 15.866 2.50085 16.0021C2.63539 16.1382 2.70267 16.301 2.70267 16.4904C2.70267 16.6798 2.63539 16.8425 2.50085 16.9786C2.3663 17.1147 2.2025 17.1828 2.00945 17.1828ZM4.45765 17.1828C4.2763 17.1828 4.11689 17.1147 3.97942 16.9786C3.84195 16.8425 3.77321 16.6798 3.77321 16.4904C3.77321 16.301 3.84195 16.1382 3.97942 16.0021C4.11689 15.866 4.2763 15.7979 4.45765 15.7979C4.64485 15.7979 4.80719 15.866 4.94466 16.0021C5.08213 16.1382 5.15087 16.301 5.15087 16.4904C5.15087 16.6798 5.08213 16.8425 4.94466 16.9786C4.80719 17.1147 4.64485 17.1828 4.45765 17.1828ZM6.89707 17.1828C6.70403 17.1828 6.54169 17.1147 6.41007 16.9786C6.27844 16.8425 6.21263 16.6798 6.21263 16.4904C6.21263 16.301 6.27844 16.1382 6.41007 16.0021C6.54169 15.866 6.70403 15.7979 6.89707 15.7979C7.08427 15.7979 7.24515 15.866 7.37969 16.0021C7.51424 16.1382 7.57859 16.301 7.57274 16.4904C7.57274 16.6798 7.50547 16.8425 7.37092 16.9786C7.23637 17.1147 7.07843 17.1828 6.89707 17.1828Z" fill="black" fill-opacity="0.8"/>
</svg>
