<svg width="24" height="24" viewBox="0 0 24 24" fill="none" xmlns="http://www.w3.org/2000/svg">
<path d="M2.7428 14.11C2.95946 14.11 3.13897 14.0341 3.28134 13.8824C3.42371 13.7307 3.49489 13.5505 3.49489 13.3419V10.4685C3.49489 10.2598 3.42371 10.0781 3.28134 9.92319C3.13897 9.7683 2.95946 9.69085 2.7428 9.69085C2.53234 9.69085 2.35593 9.7683 2.21356 9.92319C2.07119 10.0781 2 10.2598 2 10.4685V13.3419C2 13.5505 2.07119 13.7307 2.21356 13.8824C2.35593 14.0341 2.53234 14.11 2.7428 14.11ZM5.86257 17.9887C6.07923 17.9887 6.26028 17.9144 6.40575 17.7658C6.55121 17.6172 6.62394 17.4355 6.62394 17.2205V6.58986C6.62394 6.3749 6.55121 6.19156 6.40575 6.03983C6.26028 5.8881 6.07923 5.81223 5.86257 5.81223C5.65211 5.81223 5.47724 5.8881 5.33797 6.03983C5.1987 6.19156 5.12906 6.3749 5.12906 6.58986V17.2205C5.12906 17.4355 5.1987 17.6172 5.33797 17.7658C5.47724 17.9144 5.65211 17.9887 5.86257 17.9887ZM8.98234 21.8103C9.199 21.8103 9.38005 21.7361 9.52552 21.5875C9.67098 21.4389 9.74372 21.2572 9.74372 21.0422V2.76814C9.74372 2.55319 9.67098 2.37143 9.52552 2.22286C9.38005 2.07429 9.199 2 8.98234 2C8.77188 2 8.59701 2.07429 8.45774 2.22286C8.31847 2.37143 8.24883 2.55319 8.24883 2.76814V21.0422C8.24883 21.2572 8.31847 21.4389 8.45774 21.5875C8.59701 21.7361 8.77188 21.8103 8.98234 21.8103ZM12.1207 16.8317C12.3312 16.8317 12.5076 16.759 12.65 16.6135C12.7923 16.4681 12.8635 16.288 12.8635 16.073V7.73733C12.8635 7.52237 12.7923 7.3406 12.65 7.19204C12.5076 7.04347 12.3312 6.96918 12.1207 6.96918C11.904 6.96918 11.7245 7.04347 11.5821 7.19204C11.4398 7.3406 11.3686 7.52237 11.3686 7.73733V16.073C11.3686 16.288 11.4398 16.4681 11.5821 16.6135C11.7245 16.759 11.904 16.8317 12.1207 16.8317ZM14.4976 14.0246C14.7205 13.8982 14.9666 13.8287 15.2358 13.8161C15.5051 13.8034 15.7573 13.8509 15.9925 13.9583V4.86392C15.9925 4.65529 15.9198 4.47511 15.7743 4.32338C15.6289 4.17165 15.4509 4.09579 15.2405 4.09579C15.0238 4.09579 14.8459 4.17165 14.7066 4.32338C14.5673 4.47511 14.4976 4.65529 14.4976 4.86392V14.0246ZM16.0483 22H20.7743C20.9229 22 21.0421 21.9542 21.1318 21.8625C21.2216 21.7708 21.2665 21.6491 21.2665 21.4974C21.2665 21.3457 21.2216 21.2208 21.1318 21.1228C21.0421 21.0248 20.9229 20.9758 20.7743 20.9758H18.9174V20.0275C19.5302 19.9517 20.0671 19.7525 20.5283 19.43C20.9894 19.1076 21.35 18.6904 21.61 18.1783C21.87 17.6662 22 17.0878 22 16.4429V15.6084C22 15.4756 21.9505 15.3586 21.8514 15.2575C21.7524 15.1563 21.6379 15.1057 21.5079 15.1057C21.3717 15.1057 21.2556 15.1563 21.1597 15.2575C21.0637 15.3586 21.0157 15.4756 21.0157 15.6084V16.4429C21.0157 16.9613 20.9043 17.4196 20.6814 17.818C20.4586 18.2162 20.1522 18.5276 19.7622 18.752C19.3723 18.9765 18.9204 19.0887 18.4067 19.0887C17.8929 19.0887 17.441 18.9765 17.0511 18.752C16.661 18.5276 16.3562 18.2162 16.1365 17.818C15.9167 17.4196 15.8069 16.9613 15.8069 16.4429V15.6084C15.8069 15.4756 15.7573 15.3586 15.6582 15.2575C15.5592 15.1563 15.4416 15.1057 15.3054 15.1057C15.1755 15.1057 15.0625 15.1563 14.9666 15.2575C14.8706 15.3586 14.8226 15.4756 14.8226 15.6084V16.4429C14.8226 17.0878 14.9511 17.6662 15.208 18.1783C15.4649 18.6904 15.8254 19.1092 16.2897 19.4348C16.7539 19.7604 17.2955 19.958 17.9146 20.0275V20.9758H16.0483C15.8997 20.9758 15.779 21.0248 15.6861 21.1228C15.5932 21.2208 15.5468 21.3457 15.5468 21.4974C15.5468 21.6491 15.5932 21.7708 15.6861 21.8625C15.779 21.9542 15.8997 22 16.0483 22ZM18.4067 18.1308C18.8647 18.1308 19.2361 17.9712 19.5208 17.652C19.8056 17.3327 19.948 16.9328 19.948 16.4523V12.7254C19.948 12.2449 19.8056 11.8467 19.5208 11.5306C19.2361 11.2145 18.8647 11.0564 18.4067 11.0564C17.9486 11.0564 17.5772 11.2145 17.2925 11.5306C17.0077 11.8467 16.8654 12.2449 16.8654 12.7254V16.4523C16.8654 16.9328 17.0077 17.3327 17.2925 17.652C17.5772 17.9712 17.9486 18.1308 18.4067 18.1308Z" fill="black" fill-opacity="0.8"/>
</svg>
