<svg width="24" height="24" viewBox="0 0 24 24" fill="none" xmlns="http://www.w3.org/2000/svg">
<path d="M1.73801 14.2259C1.95598 14.2259 2.13815 14.1493 2.2845 13.9961C2.43086 13.843 2.50404 13.6611 2.50404 13.4505V10.5495C2.50404 10.3389 2.43086 10.1554 2.2845 9.99904C2.13815 9.84266 1.95598 9.76447 1.73801 9.76447C1.53249 9.76447 1.3581 9.84266 1.21486 9.99904C1.07162 10.1554 1 10.3389 1 10.5495V13.4505C1 13.6611 1.07162 13.843 1.21486 13.9961C1.3581 14.1493 1.53249 14.2259 1.73801 14.2259ZM4.88621 18.1416C5.10419 18.1416 5.2848 18.0667 5.42804 17.9167C5.57128 17.7667 5.6429 17.5832 5.6429 17.3662V6.63379C5.6429 6.41678 5.57128 6.23169 5.42804 6.07851C5.2848 5.92532 5.10419 5.84873 4.88621 5.84873C4.67446 5.84873 4.49697 5.92532 4.35372 6.07851C4.21048 6.23169 4.13886 6.41678 4.13886 6.63379V17.3662C4.13886 17.5832 4.21048 17.7667 4.35372 17.9167C4.49697 18.0667 4.67446 18.1416 4.88621 18.1416ZM8.02507 22C8.24305 22 8.42521 21.925 8.57157 21.775C8.71792 21.625 8.7911 21.4415 8.7911 21.2245V2.77549C8.7911 2.55848 8.71792 2.37498 8.57157 2.22499C8.42521 2.075 8.24305 2 8.02507 2C7.81332 2 7.63738 2.075 7.49725 2.22499C7.35713 2.37498 7.28707 2.55848 7.28707 2.77549V21.2245C7.28707 21.4415 7.35713 21.625 7.49725 21.775C7.63738 21.925 7.81332 22 8.02507 22ZM11.1733 16.9736C11.385 16.9736 11.5641 16.9002 11.7104 16.7534C11.8568 16.6066 11.93 16.4247 11.93 16.2078V7.79224C11.93 7.57523 11.8568 7.39173 11.7104 7.24174C11.5641 7.09175 11.385 7.01675 11.1733 7.01675C10.9615 7.01675 10.784 7.09175 10.6408 7.24174C10.4975 7.39173 10.4259 7.57523 10.4259 7.79224V16.2078C10.4259 16.4247 10.4975 16.6066 10.6408 16.7534C10.784 16.9002 10.9615 16.9736 11.1733 16.9736ZM13.5648 12.7228C13.7765 12.4675 14.0085 12.2378 14.2607 12.0335C14.513 11.8293 14.7823 11.6537 15.0688 11.5069V4.89134C15.0688 4.68071 14.9972 4.4988 14.8539 4.34562C14.7107 4.19243 14.5332 4.11584 14.3215 4.11584C14.1035 4.11584 13.9229 4.19243 13.7797 4.34562C13.6364 4.4988 13.5648 4.68071 13.5648 4.89134V12.7228ZM16.713 10.9995C16.9684 10.9676 17.219 10.9548 17.465 10.9612C17.711 10.9676 17.9617 10.9931 18.217 11.0378V9.7166C18.217 9.50598 18.1438 9.32407 17.9975 9.17089C17.8512 9.01771 17.6721 8.94112 17.4603 8.94112C17.2423 8.94112 17.0633 9.01771 16.9232 9.17089C16.7831 9.32407 16.713 9.50598 16.713 9.7166V10.9995ZM17.3109 19.9129C18.0084 19.9129 18.6421 19.739 19.2119 19.3911C19.7818 19.0432 20.2364 18.5773 20.5759 17.9933C20.9153 17.4093 21.085 16.7598 21.085 16.045C21.085 15.3365 20.9153 14.6903 20.5759 14.1062C20.2364 13.5223 19.7818 13.0564 19.2119 12.7085C18.6421 12.3606 18.0084 12.1867 17.3109 12.1867C16.6258 12.1867 15.9968 12.3606 15.4238 12.7085C14.8508 13.0564 14.3947 13.5239 14.0553 14.111C13.7158 14.6983 13.5461 15.3429 13.5461 16.045C13.5461 16.7535 13.7158 17.4013 14.0553 17.9885C14.3947 18.5757 14.8508 19.0432 15.4238 19.3911C15.9968 19.739 16.6258 19.9129 17.3109 19.9129ZM17.3109 18.63C16.8562 18.63 16.439 18.5135 16.0591 18.2805C15.6792 18.0475 15.374 17.7348 15.1436 17.3422C14.9131 16.9497 14.7979 16.5173 14.7979 16.045C14.7979 15.5791 14.9131 15.1514 15.1436 14.7621C15.374 14.3728 15.6792 14.0616 16.0591 13.8286C16.439 13.5957 16.8562 13.4792 17.3109 13.4792C17.7717 13.4792 18.1936 13.5957 18.5767 13.8286C18.9597 14.0616 19.2633 14.3712 19.4875 14.7573C19.7117 15.1434 19.8238 15.5727 19.8238 16.045C19.8238 16.5173 19.7117 16.9497 19.4875 17.3422C19.2633 17.7348 18.9597 18.0475 18.5767 18.2805C18.1936 18.5135 17.7717 18.63 17.3109 18.63ZM22.2433 21.9426C22.4613 21.9426 22.6419 21.8676 22.7851 21.7176C22.9284 21.5676 23 21.3745 23 21.1383C23 21.0299 22.9751 20.9277 22.9253 20.832C22.8755 20.7362 22.8132 20.6469 22.7385 20.5639L19.9079 17.6438L18.7309 18.7353L21.5988 21.6553C21.7918 21.8468 22.0067 21.9426 22.2433 21.9426Z" fill="black" fill-opacity="0.8"/>
</svg>
