<svg width="24" height="24" viewBox="0 0 24 24" fill="none" xmlns="http://www.w3.org/2000/svg">
<path d="M1.27157 14.2259C1.49946 14.2259 1.68991 14.1493 1.84292 13.9961C1.99594 13.843 2.07244 13.6611 2.07244 13.4505V10.5495C2.07244 10.3389 1.99594 10.1554 1.84292 9.99904C1.68991 9.84266 1.49946 9.76447 1.27157 9.76447C1.0567 9.76447 0.874391 9.84266 0.724634 9.99904C0.574878 10.1554 0.5 10.3389 0.5 10.5495V13.4505C0.5 13.6611 0.574878 13.843 0.724634 13.9961C0.874391 14.1493 1.0567 14.2259 1.27157 14.2259ZM4.56295 18.1416C4.79084 18.1416 4.97967 18.0667 5.12943 17.9167C5.27918 17.7667 5.35406 17.5832 5.35406 17.3662V6.63379C5.35406 6.41678 5.27918 6.23169 5.12943 6.07851C4.97967 5.92532 4.79084 5.84873 4.56295 5.84873C4.34157 5.84873 4.15601 5.92532 4.00625 6.07851C3.85649 6.23169 3.78162 6.41678 3.78162 6.63379V17.3662C3.78162 17.5832 3.85649 17.7667 4.00625 17.9167C4.15601 18.0667 4.34157 18.1416 4.56295 18.1416ZM7.84457 22C8.07246 22 8.26291 21.925 8.41592 21.775C8.56893 21.625 8.64544 21.4415 8.64544 21.2245V2.77549C8.64544 2.55848 8.56893 2.37498 8.41592 2.22499C8.26291 2.075 8.07246 2 7.84457 2C7.62319 2 7.43925 2.075 7.29275 2.22499C7.14625 2.37498 7.073 2.55848 7.073 2.77549V21.2245C7.073 21.4415 7.14625 21.625 7.29275 21.775C7.43925 21.925 7.62319 22 7.84457 22ZM11.136 16.9736C11.3573 16.9736 11.5445 16.9002 11.6975 16.7534C11.8506 16.6066 11.9271 16.4247 11.9271 16.2078V7.79224C11.9271 7.57523 11.8506 7.39173 11.6975 7.24174C11.5445 7.09175 11.3573 7.01675 11.136 7.01675C10.9146 7.01675 10.729 7.09175 10.5792 7.24174C10.4295 7.39173 10.3546 7.57523 10.3546 7.79224V16.2078C10.3546 16.4247 10.4295 16.6066 10.5792 16.7534C10.729 16.9002 10.9146 16.9736 11.136 16.9736ZM13.6363 13.1154C13.8576 12.8345 14.1001 12.5792 14.3638 12.3494C14.6275 12.1197 14.9091 11.9154 15.2086 11.7367V4.89134C15.2086 4.68071 15.1338 4.4988 14.984 4.34562C14.8343 4.19243 14.6487 4.11584 14.4273 4.11584C14.1995 4.11584 14.0106 4.19243 13.8609 4.34562C13.7111 4.4988 13.6363 4.68071 13.6363 4.89134V13.1154ZM16.9276 11.0378C17.1751 10.9676 17.4306 10.9134 17.6943 10.8751C17.958 10.8368 18.2266 10.8176 18.5 10.8176V9.7166C18.5 9.50598 18.4235 9.32407 18.2706 9.17089C18.1176 9.01771 17.9303 8.94112 17.7089 8.94112C17.481 8.94112 17.2938 9.01771 17.1474 9.17089C17.0009 9.32407 16.9276 9.50598 16.9276 9.7166V11.0378Z" fill="black" fill-opacity="0.8"/>
<path fill-rule="evenodd" clip-rule="evenodd" d="M19.9192 21.6062C19.3156 21.8687 18.6758 22 17.9999 22C17.3176 22 16.6745 21.8704 16.0709 21.6112C15.4672 21.352 14.9357 20.9928 14.4764 20.5334C14.0171 20.0741 13.6562 19.5426 13.3937 18.939C13.1312 18.3353 13 17.6889 13 16.9999C13 16.311 13.1312 15.6663 13.3937 15.0659C13.6562 14.4655 14.0171 13.934 14.4764 13.4715C14.9357 13.0089 15.4672 12.648 16.0709 12.3887C16.6745 12.1296 17.3176 12 17.9999 12C18.6889 12 19.3353 12.1296 19.939 12.3887C20.5426 12.648 21.0741 13.0072 21.5334 13.4666C21.9928 13.9259 22.352 14.4574 22.6112 15.061C22.8704 15.6647 23 16.311 23 16.9999C23 17.6824 22.8688 18.3255 22.6063 18.9291C22.3438 19.5328 21.9813 20.0642 21.5187 20.5236C21.0561 20.9829 20.523 21.3438 19.9192 21.6062ZM15.0473 17.4183C15.1653 17.5397 15.3064 17.6003 15.4705 17.6003H20.5295C20.6936 17.6003 20.8363 17.5397 20.9576 17.4183C21.0791 17.2969 21.1398 17.1574 21.1398 16.9999C21.1398 16.8425 21.0791 16.7031 20.9576 16.5817C20.8363 16.4603 20.6936 16.3996 20.5295 16.3996H15.4705C15.3064 16.3996 15.1653 16.4603 15.0473 16.5817C14.9292 16.7031 14.8701 16.8425 14.8701 16.9999C14.8701 17.1574 14.9292 17.2969 15.0473 17.4183Z" fill="#FF3B30"/>
</svg>
