<svg width="24" height="24" viewBox="0 0 24 24" fill="none" xmlns="http://www.w3.org/2000/svg">
<path d="M3.77157 14.2259C3.99946 14.2259 4.18991 14.1493 4.34292 13.9961C4.49594 13.843 4.57244 13.6611 4.57244 13.4505V10.5495C4.57244 10.3389 4.49594 10.1554 4.34292 9.99904C4.18991 9.84266 3.99946 9.76447 3.77157 9.76447C3.5567 9.76447 3.37439 9.84266 3.22463 9.99904C3.07488 10.1554 3 10.3389 3 10.5495V13.4505C3 13.6611 3.07488 13.843 3.22463 13.9961C3.37439 14.1493 3.5567 14.2259 3.77157 14.2259ZM7.06295 18.1416C7.29084 18.1416 7.47967 18.0667 7.62943 17.9167C7.77918 17.7667 7.85406 17.5832 7.85406 17.3662V6.63379C7.85406 6.41678 7.77918 6.23169 7.62943 6.07851C7.47967 5.92532 7.29084 5.84873 7.06295 5.84873C6.84157 5.84873 6.65601 5.92532 6.50625 6.07851C6.35649 6.23169 6.28162 6.41678 6.28162 6.63379V17.3662C6.28162 17.5832 6.35649 17.7667 6.50625 17.9167C6.65601 18.0667 6.84157 18.1416 7.06295 18.1416ZM10.3446 22C10.5725 22 10.7629 21.925 10.9159 21.775C11.0689 21.625 11.1454 21.4415 11.1454 21.2245V2.77549C11.1454 2.55848 11.0689 2.37498 10.9159 2.22499C10.7629 2.075 10.5725 2 10.3446 2C10.1232 2 9.93925 2.075 9.79275 2.22499C9.64625 2.37498 9.573 2.55848 9.573 2.77549V21.2245C9.573 21.4415 9.64625 21.625 9.79275 21.775C9.93925 21.925 10.1232 22 10.3446 22ZM13.636 16.9736C13.8573 16.9736 14.0445 16.9002 14.1975 16.7534C14.3506 16.6066 14.4271 16.4247 14.4271 16.2078V7.79224C14.4271 7.57523 14.3506 7.39173 14.1975 7.24174C14.0445 7.09175 13.8573 7.01675 13.636 7.01675C13.4146 7.01675 13.229 7.09175 13.0792 7.24174C12.9295 7.39173 12.8546 7.57523 12.8546 7.79224V16.2078C12.8546 16.4247 12.9295 16.6066 13.0792 16.7534C13.229 16.9002 13.4146 16.9736 13.636 16.9736ZM16.9273 19.8746C17.1487 19.8746 17.3343 19.7996 17.484 19.6496C17.6338 19.4996 17.7086 19.3193 17.7086 19.1087V4.89134C17.7086 4.68071 17.6338 4.4988 17.484 4.34562C17.3343 4.19243 17.1487 4.11584 16.9273 4.11584C16.6995 4.11584 16.5106 4.19243 16.3609 4.34562C16.2111 4.4988 16.1363 4.68071 16.1363 4.89134V19.1087C16.1363 19.3193 16.2111 19.4996 16.3609 19.6496C16.5106 19.7996 16.6995 19.8746 16.9273 19.8746ZM20.2089 15.0493C20.4303 15.0493 20.6176 14.9743 20.7706 14.8244C20.9235 14.6744 21 14.494 21 14.2834V9.7166C21 9.50598 20.9235 9.32407 20.7706 9.17089C20.6176 9.01771 20.4303 8.94112 20.2089 8.94112C19.981 8.94112 19.7938 9.01771 19.6474 9.17089C19.5009 9.32407 19.4276 9.50598 19.4276 9.7166V14.2834C19.4276 14.494 19.5009 14.6744 19.6474 14.8244C19.7938 14.9743 19.981 15.0493 20.2089 15.0493Z" fill="black" fill-opacity="0.8"/>
</svg>
