<svg width="24" height="24" viewBox="0 0 24 24" fill="none" xmlns="http://www.w3.org/2000/svg">
<path d="M1 12.6962H10.2393V11.2954H1V12.6962ZM9.86579 15H17.4867C17.8779 15 18.158 14.9198 18.327 14.7595C18.4959 14.5992 18.5804 14.3333 18.5804 13.962V10.0295C18.5804 9.66385 18.4959 9.40084 18.327 9.24051C18.158 9.08017 17.8779 9 17.4867 9H9.86579C9.47452 9 9.19441 9.08017 9.02545 9.24051C8.8565 9.40084 8.77202 9.66385 8.77202 10.0295V13.962C8.77202 14.3333 8.8565 14.5992 9.02545 14.7595C9.19441 14.9198 9.47452 15 9.86579 15ZM19.612 13.7933H21.9151C22.3004 13.7933 22.5775 13.7117 22.7465 13.5485C22.9155 13.3854 23 13.1181 23 12.7468V11.2447C23 10.879 22.9155 10.6146 22.7465 10.4515C22.5775 10.2883 22.3004 10.2067 21.9151 10.2067H19.612V13.7933Z" fill="black" fill-opacity="0.8"/>
</svg>
