<svg width="24" height="24" viewBox="0 0 24 24" fill="none" xmlns="http://www.w3.org/2000/svg">
<path d="M11.2396 23H12.7788V13.745H11.2396V23ZM10.1336 15.2103H13.8756C14.275 15.2103 14.5622 15.1187 14.7373 14.9355C14.9124 14.7524 15 14.4487 15 14.0246V6.61085C15 6.1931 14.9124 5.89102 14.7373 5.70463C14.5622 5.51825 14.275 5.42506 13.8756 5.42506H10.1336C9.72811 5.42506 9.43779 5.51825 9.26267 5.70463C9.08756 5.89102 9 6.1931 9 6.61085V14.0246C9 14.4487 9.08756 14.7524 9.26267 14.9355C9.43779 15.1187 9.72811 15.2103 10.1336 15.2103ZM10.2074 4.2971H13.7926V2.1858C13.7926 1.76161 13.7035 1.45793 13.5253 1.27476C13.3472 1.09159 13.0584 1 12.659 1H11.3502C10.9447 1 10.6528 1.09159 10.4747 1.27476C10.2965 1.45793 10.2074 1.76161 10.2074 2.1858V4.2971Z" fill="black" fill-opacity="0.8"/>
</svg>
