<svg width="24" height="24" viewBox="0 0 24 24" fill="none" xmlns="http://www.w3.org/2000/svg">
<path d="M13.8496 12C13.8496 13.9453 14.0431 15.6499 14.4302 17.1138C14.8172 18.5776 15.3531 19.7151 16.0379 20.5262C16.7227 21.3373 17.5183 21.7428 18.4247 21.7428C19.3312 21.7428 20.1285 21.3373 20.8165 20.5262C21.5047 19.7151 22.0406 18.5776 22.4244 17.1138C22.8081 15.6499 23 13.9453 23 12C23 10.0481 22.8081 8.3419 22.4244 6.88131C22.0406 5.42071 21.5047 4.28322 20.8165 3.46885C20.1285 2.65447 19.3312 2.24728 18.4247 2.24728C17.5183 2.24728 16.7227 2.65447 16.0379 3.46885C15.3531 4.28322 14.8172 5.42071 14.4302 6.88131C14.0431 8.3419 13.8496 10.0481 13.8496 12ZM8.5796 12C8.5796 14.0771 8.7814 15.8625 9.185 17.356C9.5886 18.8496 10.2254 19.997 11.0955 20.7982C11.9655 21.5994 13.092 22 14.4748 22H15.5962C14.756 21.268 14.0778 20.2163 13.5618 18.8447H12.2219C12.0432 18.8447 11.8894 18.7804 11.7604 18.6518C11.6314 18.5232 11.5669 18.3699 11.5669 18.1919C11.5669 18.0139 11.6314 17.8622 11.7604 17.7369C11.8894 17.6116 12.0432 17.549 12.2219 17.549H13.1449C13.0655 17.2654 12.996 16.9736 12.9364 16.6736C12.8769 16.3736 12.824 16.0851 12.7777 15.8081H11.547C11.3684 15.8081 11.2146 15.7455 11.0856 15.6202C10.9565 15.4949 10.892 15.3432 10.892 15.1651C10.892 14.9871 10.9565 14.8338 11.0856 14.7052C11.2146 14.5766 11.3684 14.5123 11.547 14.5123H12.6189C12.5858 14.1892 12.5593 13.8546 12.5395 13.5084C12.5196 13.1622 12.5064 12.8341 12.4998 12.5242H11.289C11.1104 12.5242 10.9582 12.4616 10.8325 12.3363C10.7068 12.211 10.6439 12.0593 10.6439 11.8813C10.6439 11.7033 10.7068 11.5499 10.8325 11.4214C10.9582 11.2928 11.1104 11.2285 11.289 11.2285H12.5097C12.5164 10.9054 12.5296 10.5757 12.5494 10.2394C12.5693 9.90307 12.5991 9.57336 12.6388 9.25024H11.547C11.3684 9.25024 11.2146 9.18595 11.0856 9.05736C10.9565 8.92878 10.892 8.77546 10.892 8.59742C10.892 8.41938 10.9565 8.26772 11.0856 8.14243C11.2146 8.01714 11.3684 7.9545 11.547 7.9545H12.8173C12.8703 7.65117 12.9282 7.35443 12.991 7.06429C13.0539 6.77415 13.1284 6.4906 13.2144 6.21365H12.2219C12.0432 6.21365 11.8894 6.15101 11.7604 6.02572C11.6314 5.90043 11.5669 5.74876 11.5669 5.57072C11.5669 5.39268 11.6314 5.23937 11.7604 5.11078C11.8894 4.9822 12.0432 4.9179 12.2219 4.9179H13.6511C14.1473 3.66502 14.7957 2.69238 15.5962 2H14.4748C13.092 2 11.9655 2.40059 11.0955 3.20178C10.2254 4.00297 9.5886 5.15035 9.185 6.64391C8.7814 8.13749 8.5796 9.92285 8.5796 12ZM4.07385 3.85955C3.9283 3.85955 3.78605 3.89581 3.6471 3.96835C3.50816 4.04088 3.40891 4.16617 3.34936 4.34421C2.98546 5.35311 2.70757 6.40158 2.5157 7.48961C2.32382 8.57764 2.22788 9.70854 2.22788 10.8823C2.22788 12.056 2.32217 13.1869 2.51074 14.2749C2.69931 15.363 2.97885 16.4115 3.34936 17.4204L4.75865 16.916C4.42121 15.9862 4.16483 15.0201 3.98949 14.0178C3.81416 13.0155 3.72649 11.9704 3.72649 10.8823C3.72649 9.78767 3.81416 8.74085 3.98949 7.74184C4.16483 6.74283 4.42121 5.77843 4.75865 4.84866C4.83805 4.64425 4.84963 4.46786 4.79339 4.31949C4.73715 4.17112 4.64121 4.05736 4.50558 3.97823C4.36994 3.89911 4.22603 3.85955 4.07385 3.85955ZM1.47362 16.5895C1.27513 16.662 1.1395 16.7824 1.06672 16.9505C0.993935 17.1187 0.980702 17.2918 1.02702 17.4698C1.07333 17.6479 1.17919 17.7863 1.3446 17.8853L4.47084 19.8141C4.68256 19.9393 4.89263 19.964 5.10104 19.8882C5.30946 19.8124 5.45006 19.659 5.52284 19.4283L6.68401 15.9762C6.72371 15.8641 6.73529 15.7554 6.71875 15.6499C6.70221 15.5443 6.66747 15.4438 6.61454 15.3482C6.56161 15.2525 6.49214 15.1734 6.40612 15.1107C6.32011 15.0481 6.22087 15.0086 6.10838 14.992C5.99591 14.9756 5.87351 14.9904 5.74118 15.0366L1.47362 16.5895Z" fill="black" fill-opacity="0.8"/>
</svg>
