<svg width="24" height="24" viewBox="0 0 24 24" fill="none" xmlns="http://www.w3.org/2000/svg">
<path d="M13.8496 12C13.8496 13.9453 14.0431 15.6499 14.4302 17.1138C14.8172 18.5776 15.3531 19.7151 16.0379 20.5262C16.7227 21.3373 17.5183 21.7428 18.4247 21.7428C19.3312 21.7428 20.1285 21.3373 20.8165 20.5262C21.5047 19.7151 22.0406 18.5776 22.4244 17.1138C22.8081 15.6499 23 13.9453 23 12C23 10.0481 22.8081 8.3419 22.4244 6.88131C22.0406 5.42071 21.5047 4.28322 20.8165 3.46885C20.1285 2.65447 19.3312 2.24728 18.4247 2.24728C17.5183 2.24728 16.7227 2.65447 16.0379 3.46885C15.3531 4.28322 14.8172 5.42071 14.4302 6.88131C14.0431 8.3419 13.8496 10.0481 13.8496 12ZM8.5796 12C8.5796 14.0771 8.7814 15.8625 9.185 17.356C9.5886 18.8496 10.2254 19.997 11.0955 20.7982C11.9655 21.5994 13.092 22 14.4748 22H15.5962C14.756 21.268 14.0778 20.2163 13.5618 18.8447H12.2219C12.0432 18.8447 11.8894 18.7804 11.7604 18.6518C11.6314 18.5232 11.5669 18.3699 11.5669 18.1919C11.5669 18.0139 11.6314 17.8622 11.7604 17.7369C11.8894 17.6116 12.0432 17.549 12.2219 17.549H13.1449C13.0655 17.2654 12.996 16.9736 12.9364 16.6736C12.8769 16.3736 12.824 16.0851 12.7777 15.8081H11.547C11.3684 15.8081 11.2146 15.7455 11.0856 15.6202C10.9565 15.4949 10.892 15.3432 10.892 15.1651C10.892 14.9871 10.9565 14.8338 11.0856 14.7052C11.2146 14.5766 11.3684 14.5123 11.547 14.5123H12.6189C12.5858 14.1892 12.5593 13.8546 12.5395 13.5084C12.5196 13.1622 12.5064 12.8341 12.4998 12.5242H11.289C11.1104 12.5242 10.9582 12.4616 10.8325 12.3363C10.7068 12.211 10.6439 12.0593 10.6439 11.8813C10.6439 11.7033 10.7068 11.5499 10.8325 11.4214C10.9582 11.2928 11.1104 11.2285 11.289 11.2285H12.5097C12.5164 10.9054 12.5296 10.5757 12.5494 10.2394C12.5693 9.90307 12.5991 9.57336 12.6388 9.25024H11.547C11.3684 9.25024 11.2146 9.18595 11.0856 9.05736C10.9565 8.92878 10.892 8.77546 10.892 8.59742C10.892 8.41938 10.9565 8.26772 11.0856 8.14243C11.2146 8.01714 11.3684 7.9545 11.547 7.9545H12.8173C12.8703 7.65117 12.9282 7.35443 12.991 7.06429C13.0539 6.77415 13.1284 6.4906 13.2144 6.21365H12.2219C12.0432 6.21365 11.8894 6.15101 11.7604 6.02572C11.6314 5.90043 11.5669 5.74876 11.5669 5.57072C11.5669 5.39268 11.6314 5.23937 11.7604 5.11078C11.8894 4.9822 12.0432 4.9179 12.2219 4.9179H13.6511C14.1473 3.66502 14.7957 2.69238 15.5962 2H14.4748C13.092 2 11.9655 2.40059 11.0955 3.20178C10.2254 4.00297 9.5886 5.15035 9.185 6.64391C8.7814 8.13749 8.5796 9.92285 8.5796 12ZM4.07385 19.9228C4.22603 19.9228 4.36994 19.8816 4.50558 19.7992C4.64121 19.7168 4.73715 19.603 4.79339 19.4579C4.84963 19.3129 4.83805 19.1382 4.75865 18.9338C4.42121 18.004 4.16483 17.0379 3.98949 16.0356C3.81416 15.0333 3.72649 13.9881 3.72649 12.9001C3.72649 11.8121 3.81416 10.7669 3.98949 9.76459C4.16483 8.76228 4.42121 7.79624 4.75865 6.86647L3.34936 6.36202C2.97885 7.37092 2.69931 8.41938 2.51074 9.50742C2.32217 10.5954 2.22788 11.7263 2.22788 12.9001C2.22788 14.0738 2.32382 15.2047 2.5157 16.2927C2.70757 17.3808 2.98546 18.4293 3.34936 19.4382C3.40891 19.6096 3.50816 19.7333 3.6471 19.8091C3.78605 19.8849 3.9283 19.9228 4.07385 19.9228ZM1.47362 7.19287L5.74118 8.7458C5.95952 8.81833 6.14974 8.81174 6.31184 8.72601C6.47394 8.64029 6.59139 8.51005 6.66416 8.33531C6.73694 8.16056 6.74356 7.98417 6.68401 7.80613L5.52284 4.35411C5.45006 4.12331 5.30946 3.97 5.10104 3.89417C4.89263 3.81833 4.68256 3.84306 4.47084 3.96835L1.3446 5.89713C1.17919 5.99604 1.07333 6.13452 1.02702 6.31256C0.980702 6.4906 0.993935 6.6637 1.06672 6.83185C1.1395 7 1.27513 7.12034 1.47362 7.19287Z" fill="black" fill-opacity="0.8"/>
</svg>
