<svg width="24" height="24" viewBox="0 0 24 24" fill="none" xmlns="http://www.w3.org/2000/svg">
<path d="M13.4553 12C13.4553 13.998 13.6532 15.7471 14.0489 17.2473C14.4445 18.7474 15.0004 19.9146 15.7164 20.7487C16.4325 21.5829 17.2679 22 18.2227 22C19.1775 22 20.013 21.5829 20.729 20.7487C21.4452 19.9146 22.0027 18.7474 22.4016 17.2473C22.8005 15.7471 23 13.998 23 12C23 10.002 22.8005 8.25288 22.4016 6.75272C22.0027 5.25255 21.4452 4.08539 20.729 3.25123C20.013 2.41708 19.1775 2 18.2227 2C17.2679 2 16.4325 2.41708 15.7164 3.25123C15.0004 4.08539 14.4445 5.25255 14.0489 6.75272C13.6532 8.25288 13.4553 10.002 13.4553 12ZM15.0347 12C15.0347 10.3185 15.1687 8.848 15.4369 7.58853C15.705 6.32904 16.0778 5.34817 16.5552 4.64589C17.0326 3.94362 17.5884 3.59249 18.2227 3.59249C18.8571 3.59249 19.4146 3.94362 19.8953 4.64589C20.3759 5.34817 20.7503 6.32904 21.0184 7.58853C21.2866 8.848 21.4206 10.3185 21.4206 12C21.4206 13.6815 21.2866 15.152 21.0184 16.4115C20.7503 17.671 20.3759 18.6519 19.8953 19.3541C19.4146 20.0564 18.8571 20.4075 18.2227 20.4075C17.5884 20.4075 17.0326 20.0564 16.5552 19.3541C16.0778 18.6519 15.705 17.671 15.4369 16.4115C15.1687 15.152 15.0347 13.6815 15.0347 12ZM8.49173 12C8.49173 14.0771 8.69119 15.8625 9.09012 17.356C9.48903 18.8496 10.1185 19.997 10.9784 20.7982C11.8384 21.5994 12.9518 22 14.3186 22H18.2227V20.4075H14.3186C13.2788 20.4075 12.4482 20.0696 11.8269 19.3937C11.2057 18.7178 10.7577 17.7517 10.4831 16.4955C10.2084 15.2394 10.0711 13.7409 10.0711 12C10.0711 10.2526 10.2084 8.75239 10.4831 7.49951C10.7577 6.24662 11.2057 5.28223 11.8269 4.60633C12.4482 3.93043 13.2788 3.59249 14.3186 3.59249H18.2227V2H14.3186C12.9518 2 11.8384 2.40059 10.9784 3.20178C10.1185 4.00297 9.48903 5.15035 9.09012 6.64391C8.69119 8.13749 8.49173 9.92285 8.49173 12ZM13.1512 6.21365H14.9857V4.9179H13.1512C12.9747 4.9179 12.8226 4.9822 12.6951 5.11078C12.5676 5.23937 12.5039 5.39268 12.5039 5.57072C12.5039 5.74876 12.5676 5.90043 12.6951 6.02572C12.8226 6.15101 12.9747 6.21365 13.1512 6.21365ZM12.4842 9.25024H14.3186V7.9545H12.4842C12.3076 7.9545 12.1556 8.01714 12.028 8.14243C11.9005 8.26772 11.8368 8.41938 11.8368 8.59742C11.8368 8.77546 11.9005 8.92878 12.028 9.05736C12.1556 9.18595 12.3076 9.25024 12.4842 9.25024ZM12.2291 12.5242H14.0635V11.2285H12.2291C12.0526 11.2285 11.9022 11.2928 11.7779 11.4214C11.6537 11.5499 11.5916 11.7033 11.5916 11.8813C11.5916 12.0593 11.6537 12.211 11.7779 12.3363C11.9022 12.4616 12.0526 12.5242 12.2291 12.5242ZM12.4842 15.8081H14.3186V14.5123H12.4842C12.3076 14.5123 12.1556 14.5766 12.028 14.7052C11.9005 14.8338 11.8368 14.9871 11.8368 15.1651C11.8368 15.3432 11.9005 15.4949 12.028 15.6202C12.1556 15.7455 12.3076 15.8081 12.4842 15.8081ZM13.1512 18.8447H14.9857V17.549H13.1512C12.9747 17.549 12.8226 17.6116 12.6951 17.7369C12.5676 17.8622 12.5039 18.0139 12.5039 18.1919C12.5039 18.3699 12.5676 18.5232 12.6951 18.6518C12.8226 18.7804 12.9747 18.8447 13.1512 18.8447ZM3.95975 19.8635C4.11016 19.8635 4.25076 19.8239 4.38156 19.7448C4.51235 19.6656 4.60554 19.5519 4.66113 19.4035C4.71671 19.2552 4.70854 19.0821 4.6366 18.8842C4.32923 17.9808 4.09544 17.0231 3.93522 16.0109C3.775 14.9987 3.69488 13.9618 3.69488 12.9001C3.69488 11.8384 3.775 10.8032 3.93522 9.79426C4.09544 8.78536 4.32923 7.82591 4.6366 6.91593L3.23384 6.43125C2.90686 7.41378 2.65508 8.45236 2.47851 9.54698C2.30194 10.6416 2.21365 11.7593 2.21365 12.9001C2.21365 14.0474 2.30194 15.1668 2.47851 16.2581C2.65508 17.3495 2.90686 18.3864 3.23384 19.3689C3.2927 19.547 3.39079 19.6739 3.52813 19.7497C3.66546 19.8256 3.80934 19.8635 3.95975 19.8635ZM1.46813 7.25223L5.68622 8.79525C5.90203 8.87438 6.09004 8.86943 6.25026 8.78042C6.41049 8.69139 6.52657 8.56116 6.5985 8.38971C6.67044 8.21826 6.67698 8.04352 6.61812 7.86548L5.47041 4.40356C5.39847 4.17277 5.2595 4.01945 5.0535 3.94362C4.84751 3.86779 4.63987 3.89581 4.4306 4.02769L1.34061 5.94658C1.17712 6.0455 1.07248 6.18398 1.0267 6.36202C0.980926 6.54006 0.994005 6.71315 1.06594 6.88131C1.13788 7.04946 1.27194 7.1731 1.46813 7.25223Z" fill="black" fill-opacity="0.8"/>
</svg>
