<svg width="24" height="24" viewBox="0 0 24 24" fill="none" xmlns="http://www.w3.org/2000/svg">
<path d="M13.4553 12C13.4553 13.998 13.6532 15.7471 14.0489 17.2473C14.4445 18.7474 15.0004 19.9146 15.7164 20.7487C16.4325 21.5829 17.2679 22 18.2227 22C19.1775 22 20.013 21.5829 20.729 20.7487C21.4452 19.9146 22.0027 18.7474 22.4016 17.2473C22.8005 15.7471 23 13.998 23 12C23 10.002 22.8005 8.25288 22.4016 6.75272C22.0027 5.25255 21.4452 4.08539 20.729 3.25123C20.013 2.41708 19.1775 2 18.2227 2C17.2679 2 16.4325 2.41708 15.7164 3.25123C15.0004 4.08539 14.4445 5.25255 14.0489 6.75272C13.6532 8.25288 13.4553 10.002 13.4553 12ZM15.0347 12C15.0347 10.3185 15.1687 8.848 15.4369 7.58853C15.705 6.32904 16.0778 5.34817 16.5552 4.64589C17.0326 3.94362 17.5884 3.59249 18.2227 3.59249C18.8571 3.59249 19.4146 3.94362 19.8953 4.64589C20.3759 5.34817 20.7503 6.32904 21.0184 7.58853C21.2866 8.848 21.4206 10.3185 21.4206 12C21.4206 13.6815 21.2866 15.152 21.0184 16.4115C20.7503 17.671 20.3759 18.6519 19.8953 19.3541C19.4146 20.0564 18.8571 20.4075 18.2227 20.4075C17.5884 20.4075 17.0326 20.0564 16.5552 19.3541C16.0778 18.6519 15.705 17.671 15.4369 16.4115C15.1687 15.152 15.0347 13.6815 15.0347 12ZM8.49173 12C8.49173 14.0771 8.69119 15.8625 9.09012 17.356C9.48903 18.8496 10.1185 19.997 10.9784 20.7982C11.8384 21.5994 12.9518 22 14.3186 22H18.2227V20.4075H14.3186C13.2788 20.4075 12.4482 20.0696 11.8269 19.3937C11.2057 18.7178 10.7577 17.7517 10.4831 16.4955C10.2084 15.2394 10.0711 13.7409 10.0711 12C10.0711 10.2526 10.2084 8.75239 10.4831 7.49951C10.7577 6.24662 11.2057 5.28223 11.8269 4.60633C12.4482 3.93043 13.2788 3.59249 14.3186 3.59249H18.2227V2H14.3186C12.9518 2 11.8384 2.40059 10.9784 3.20178C10.1185 4.00297 9.48903 5.15035 9.09012 6.64391C8.69119 8.13749 8.49173 9.92285 8.49173 12ZM13.1512 6.21365H14.9857V4.9179H13.1512C12.9747 4.9179 12.8226 4.9822 12.6951 5.11078C12.5676 5.23937 12.5039 5.39268 12.5039 5.57072C12.5039 5.74876 12.5676 5.90043 12.6951 6.02572C12.8226 6.15101 12.9747 6.21365 13.1512 6.21365ZM12.4842 9.25024H14.3186V7.9545H12.4842C12.3076 7.9545 12.1556 8.01714 12.028 8.14243C11.9005 8.26772 11.8368 8.41938 11.8368 8.59742C11.8368 8.77546 11.9005 8.92878 12.028 9.05736C12.1556 9.18595 12.3076 9.25024 12.4842 9.25024ZM12.2291 12.5242H14.0635V11.2285H12.2291C12.0526 11.2285 11.9022 11.2928 11.7779 11.4214C11.6537 11.5499 11.5916 11.7033 11.5916 11.8813C11.5916 12.0593 11.6537 12.211 11.7779 12.3363C11.9022 12.4616 12.0526 12.5242 12.2291 12.5242ZM12.4842 15.8081H14.3186V14.5123H12.4842C12.3076 14.5123 12.1556 14.5766 12.028 14.7052C11.9005 14.8338 11.8368 14.9871 11.8368 15.1651C11.8368 15.3432 11.9005 15.4949 12.028 15.6202C12.1556 15.7455 12.3076 15.8081 12.4842 15.8081ZM13.1512 18.8447H14.9857V17.549H13.1512C12.9747 17.549 12.8226 17.6116 12.6951 17.7369C12.5676 17.8622 12.5039 18.0139 12.5039 18.1919C12.5039 18.3699 12.5676 18.5232 12.6951 18.6518C12.8226 18.7804 12.9747 18.8447 13.1512 18.8447ZM3.95975 3.909C3.80934 3.909 3.66546 3.94692 3.52813 4.02275C3.39079 4.09858 3.2927 4.22552 3.23384 4.40356C2.90686 5.38608 2.65508 6.42466 2.47851 7.51929C2.30194 8.61391 2.21365 9.73491 2.21365 10.8823C2.21365 12.0231 2.30194 13.1408 2.47851 14.2354C2.65508 15.3301 2.90686 16.3686 3.23384 17.3511L4.6366 16.8566C4.32923 15.9532 4.09544 14.997 3.93522 13.9881C3.775 12.9792 3.69488 11.9439 3.69488 10.8823C3.69488 9.82064 3.775 8.78371 3.93522 7.77151C4.09544 6.75931 4.32923 5.80152 4.6366 4.89812C4.70854 4.7003 4.71671 4.5272 4.66113 4.37883C4.60554 4.23047 4.51235 4.11507 4.38156 4.03264C4.25076 3.95022 4.11016 3.909 3.95975 3.909ZM1.46813 16.5302C1.27194 16.6027 1.13788 16.723 1.06594 16.8911C0.994005 17.0593 0.980926 17.2324 1.0267 17.4104C1.07248 17.5885 1.17712 17.727 1.34061 17.8259L4.4306 19.7547C4.63987 19.88 4.84751 19.9063 5.0535 19.8338C5.2595 19.7613 5.39847 19.6063 5.47041 19.3689L6.61812 15.9169C6.65735 15.8114 6.6688 15.7043 6.65245 15.5955C6.63611 15.4866 6.60177 15.3844 6.54945 15.2888C6.49714 15.1932 6.42847 15.1157 6.34345 15.0564C6.25844 14.997 6.16034 14.9591 6.04916 14.9426C5.93799 14.9261 5.81701 14.941 5.68622 14.9872L1.46813 16.5302Z" fill="black" fill-opacity="0.8"/>
</svg>
