<svg width="24" height="24" viewBox="0 0 24 24" fill="none" xmlns="http://www.w3.org/2000/svg">
<path d="M1.92953 17.1811H14.3625L15.1175 15.9028H1.9547C1.77013 15.9028 1.62332 15.8511 1.51427 15.7479C1.40521 15.6447 1.35068 15.5057 1.35068 15.331V5.85012C1.35068 5.67014 1.40521 5.52986 1.51427 5.42929C1.62332 5.3287 1.77013 5.27841 1.9547 5.27841H18.0454C18.2299 5.27841 18.3767 5.3287 18.4858 5.42929C18.5949 5.52986 18.6494 5.67014 18.6494 5.85012V10.9241C18.7612 10.8817 18.8787 10.8486 19.0017 10.8248C19.1248 10.801 19.2506 10.7891 19.3792 10.7891C19.4855 10.7891 19.5903 10.797 19.6938 10.8129C19.7973 10.8288 19.8994 10.85 20 10.8764V5.77866C20 5.20695 19.828 4.76758 19.4841 4.46055C19.1402 4.15352 18.6662 4 18.0621 4H1.92953C1.3311 4 0.8599 4.16146 0.515941 4.48437C0.17198 4.80728 0 5.25459 0 5.82631V15.3469C0 15.9187 0.17198 16.3673 0.515941 16.6928C0.8599 17.0184 1.3311 17.1811 1.92953 17.1811ZM7.29867 20H12.7014C12.8859 20 13.0439 19.9378 13.1754 19.8134C13.3068 19.689 13.3725 19.5368 13.3725 19.3568C13.3725 19.1769 13.3068 19.0247 13.1754 18.9003C13.0439 18.7759 12.8859 18.7137 12.7014 18.7137H12.6511V17.078H7.34901V18.7137H7.29867C7.11411 18.7137 6.95471 18.7759 6.82048 18.9003C6.68626 19.0247 6.61914 19.1769 6.61914 19.3568C6.61914 19.5368 6.68626 19.689 6.82048 19.8134C6.95471 19.9378 7.11411 20 7.29867 20Z" fill="black" fill-opacity="0.8"/>
<path fill-rule="evenodd" clip-rule="evenodd" d="M22.9304 20C23.2579 20 23.518 19.9004 23.7108 19.7012C23.9036 19.5019 24 19.2593 24 18.9732C24 18.7944 23.9525 18.6232 23.8574 18.4598L20.419 12.5287C20.3134 12.355 20.1787 12.2235 20.015 12.1341C19.8512 12.0447 19.6796 12 19.5 12C19.3204 12 19.1462 12.0447 18.9771 12.1341C18.8081 12.2235 18.6734 12.355 18.5731 12.5287L15.1426 18.4675C15.0475 18.6258 15 18.7944 15 18.9732C15 19.2593 15.0964 19.5019 15.2892 19.7012C15.482 19.9004 15.7421 20 16.0696 20H22.9304ZM19.5 17.0039C19.3627 17.0039 19.2491 16.963 19.1594 16.8812C19.0696 16.7995 19.0247 16.6923 19.0247 16.5594L18.9612 14.3678C18.956 14.2146 19.0035 14.0881 19.1039 13.9885C19.2042 13.8889 19.3363 13.8391 19.5 13.8391C19.669 13.8391 19.8037 13.8889 19.904 13.9885C20.0044 14.0881 20.0519 14.2146 20.0466 14.3678L19.9833 16.5594C19.978 16.6923 19.9318 16.7995 19.8446 16.8812C19.7575 16.963 19.6426 17.0039 19.5 17.0039ZM19.0326 18.6437C19.1646 18.7714 19.3204 18.8353 19.5 18.8353C19.6849 18.8353 19.842 18.7714 19.9713 18.6437C20.1008 18.516 20.1681 18.3627 20.1734 18.1839C20.1734 18.0102 20.1074 17.8595 19.9753 17.7318C19.8433 17.6041 19.6849 17.5403 19.5 17.5403C19.3204 17.5403 19.1646 17.6041 19.0326 17.7318C18.9005 17.8595 18.8345 18.0102 18.8345 18.1839C18.8345 18.3627 18.9005 18.516 19.0326 18.6437Z" fill="#FFCC00"/>
</svg>
