<svg width="24" height="24" viewBox="0 0 24 24" fill="none" xmlns="http://www.w3.org/2000/svg">
<path d="M2.31544 18.4764H21.6746C22.3994 18.4764 22.9682 18.2729 23.381 17.866C23.7937 17.4591 24 16.8983 24 16.1837V4.28288C24 3.56824 23.7937 3.0091 23.381 2.60546C22.9682 2.20182 22.3994 2 21.6746 2H2.31544C1.59732 2 1.03188 2.20182 0.619129 2.60546C0.206376 3.0091 0 3.56824 0 4.28288V16.1837C0 16.8983 0.206376 17.4591 0.619129 17.866C1.03188 18.2729 1.59732 18.4764 2.31544 18.4764ZM2.34564 16.8785C2.12416 16.8785 1.94799 16.8139 1.81712 16.6848C1.68625 16.5558 1.62081 16.3821 1.62081 16.1638V4.31265C1.62081 4.08768 1.68625 3.91233 1.81712 3.78661C1.94799 3.66088 2.12416 3.59802 2.34564 3.59802H21.6545C21.8759 3.59802 22.0521 3.66088 22.183 3.78661C22.3138 3.91233 22.3793 4.08768 22.3793 4.31265V16.1638C22.3793 16.3821 22.3138 16.5558 22.183 16.6848C22.0521 16.8139 21.8759 16.8785 21.6545 16.8785H2.34564ZM8.81881 20.8388H15.1813V18.3474H8.81881V20.8388ZM8.7584 22H15.2417C15.4631 22 15.6527 21.9222 15.8104 21.7667C15.9681 21.6112 16.047 21.421 16.047 21.196C16.047 20.9711 15.9681 20.7809 15.8104 20.6253C15.6527 20.4698 15.4631 20.3921 15.2417 20.3921H8.7584C8.53693 20.3921 8.34566 20.4698 8.18458 20.6253C8.02351 20.7809 7.94297 20.9711 7.94297 21.196C7.94297 21.421 8.02351 21.6112 8.18458 21.7667C8.34566 21.9222 8.53693 22 8.7584 22ZM10.3006 13.61H13.7114C14.2577 13.61 14.5308 13.3262 14.5308 12.7585V10.1709C14.5308 9.74147 14.3647 9.47216 14.0325 9.36299V8.68607C14.0325 8.01645 13.8461 7.47419 13.4732 7.0593C13.1004 6.64443 12.6113 6.43699 12.006 6.43699C11.4007 6.43699 10.9116 6.64443 10.5387 7.0593C10.1659 7.47419 9.97951 8.01645 9.97951 8.68607V9.3739C9.6473 9.4758 9.4812 9.74147 9.4812 10.1709V12.7585C9.4812 13.3262 9.75435 13.61 10.3006 13.61ZM10.9761 9.33023V8.59873C10.9761 8.2348 11.0703 7.94366 11.2585 7.7253C11.4467 7.50694 11.6959 7.39776 12.006 7.39776C12.3161 7.39776 12.5652 7.50694 12.7535 7.7253C12.9417 7.94366 13.0358 8.2348 13.0358 8.59873V9.33023H10.9761Z" fill="black" fill-opacity="0.8"/>
</svg>
