<svg width="24" height="24" viewBox="0 0 24 24" fill="none" xmlns="http://www.w3.org/2000/svg">
<path d="M6.86471 20H7.78235C8.14117 20 8.42206 19.9014 8.625 19.7041C8.82794 19.5067 8.92941 19.2284 8.92941 18.8691V14.2574C8.92941 13.7273 9.00883 13.2958 9.16766 12.963C9.3265 12.6302 9.62355 12.2754 10.0588 11.8984C10.5235 11.492 10.8926 11.0105 11.1662 10.4539C11.4397 9.89731 11.5765 9.28918 11.5765 8.6295C11.5765 8.0405 11.4662 7.48979 11.2456 6.97737C11.025 6.46495 10.7206 6.01289 10.3323 5.62121C9.94409 5.22953 9.49264 4.92472 8.97794 4.70679C8.46323 4.48887 7.91176 4.3799 7.32353 4.3799C6.7353 4.3799 6.18382 4.48887 5.66911 4.70679C5.15441 4.92472 4.70294 5.22953 4.31471 5.62121C3.92647 6.01289 3.62206 6.46495 3.40147 6.97737C3.18088 7.48979 3.07059 8.0405 3.07059 8.6295C3.07059 9.28918 3.20735 9.89731 3.48088 10.4539C3.75441 11.0105 4.12059 11.492 4.57941 11.8984C4.87353 12.1517 5.10294 12.3902 5.26765 12.614C5.43236 12.8379 5.54853 13.0794 5.61618 13.3385C5.68382 13.5977 5.71764 13.904 5.71764 14.2574V18.8691C5.71764 19.2284 5.81765 19.5067 6.01765 19.7041C6.21765 19.9014 6.5 20 6.86471 20ZM8.27647 9.68969C8.15294 9.68969 8.04706 9.64551 7.95882 9.55717C7.87059 9.46881 7.82647 9.35985 7.82647 9.23027V7.55164C7.82647 7.43384 7.87059 7.33077 7.95882 7.24241C8.04706 7.15407 8.15294 7.10989 8.27647 7.10989C8.4 7.10989 8.50588 7.15407 8.59412 7.24241C8.68235 7.33077 8.72647 7.43384 8.72647 7.55164V9.23027C8.72647 9.35985 8.68235 9.46881 8.59412 9.55717C8.50588 9.64551 8.4 9.68969 8.27647 9.68969ZM0 7.60465C0 8.18775 0.126471 8.72668 0.379412 9.22144C0.632353 9.7162 0.975001 10.1329 1.40736 10.4716C1.83971 10.8102 2.32941 11.0355 2.87647 11.1475C2.67059 10.7764 2.50882 10.3788 2.39117 9.95474C2.27353 9.53066 2.2147 9.08892 2.2147 8.6295C2.2147 7.68711 2.45147 6.82276 2.925 6.03645C3.39853 5.25014 4.02059 4.63906 4.79117 4.2032C4.60882 4.13841 4.41765 4.08835 4.21765 4.05301C4.01765 4.01767 3.81765 4 3.61765 4C2.94706 4 2.3397 4.16197 1.79558 4.48592C1.25147 4.80987 0.816174 5.24572 0.489706 5.79349C0.163235 6.34125 0 6.94497 0 7.60465ZM16.4647 20H17.3824C17.7471 20 18.0294 19.9014 18.2294 19.7041C18.4294 19.5067 18.5294 19.2284 18.5294 18.8691V14.2574C18.5294 13.7332 18.6073 13.3106 18.7632 12.9895C18.9191 12.6685 19.1853 12.3343 19.5618 11.9868C18.8735 11.8572 18.2559 11.5833 17.7088 11.1651C17.1618 10.7469 16.7279 10.2301 16.4074 9.61459C16.0868 8.99909 15.9265 8.32911 15.9265 7.60465C15.9265 6.96854 16.0515 6.37365 16.3015 5.81999C16.5515 5.26634 16.8912 4.78631 17.3206 4.3799C17.1617 4.3799 17.0603 4.3799 17.0162 4.3799C16.9721 4.3799 16.9412 4.3799 16.9236 4.3799C16.3353 4.3799 15.7838 4.48887 15.2691 4.70679C14.7544 4.92472 14.3029 5.22953 13.9147 5.62121C13.5265 6.01289 13.2221 6.46495 13.0014 6.97737C12.7808 7.48979 12.6706 8.0405 12.6706 8.6295C12.6706 9.28918 12.8073 9.89731 13.0808 10.4539C13.3544 11.0105 13.7235 11.492 14.1882 11.8984C14.4764 12.1517 14.7029 12.3902 14.8677 12.614C15.0323 12.8379 15.1485 13.0794 15.2162 13.3385C15.2838 13.5977 15.3176 13.904 15.3176 14.2574V18.8691C15.3176 19.2284 15.4191 19.5067 15.622 19.7041C15.825 19.9014 16.1059 20 16.4647 20ZM20.3912 11.2181C21.0559 11.2181 21.6603 11.0562 22.2044 10.7322C22.7485 10.4083 23.1838 9.97241 23.5103 9.42464C23.8368 8.87688 24 8.27021 24 7.60465C24 6.94497 23.8368 6.34125 23.5103 5.79349C23.1838 5.24572 22.7485 4.80987 22.2044 4.48592C21.6603 4.16197 21.0559 4 20.3912 4C19.7265 4 19.122 4.16197 18.5779 4.48592C18.0338 4.80987 17.5985 5.24572 17.272 5.79349C16.9456 6.34125 16.7823 6.94497 16.7823 7.60465C16.7823 8.27021 16.9456 8.87688 17.272 9.42464C17.5985 9.97241 18.0338 10.4083 18.5779 10.7322C19.122 11.0562 19.7265 11.2181 20.3912 11.2181ZM22.1735 9.12425C21.9441 9.12425 21.7515 8.97848 21.5956 8.68692C21.4397 8.39537 21.3618 8.03462 21.3618 7.60465C21.3618 7.18647 21.4397 6.83012 21.5956 6.53562C21.7515 6.24112 21.9441 6.09387 22.1735 6.09387C22.3911 6.09387 22.5779 6.24112 22.7338 6.53562C22.8897 6.83012 22.9676 7.18647 22.9676 7.60465C22.9676 8.03462 22.8897 8.39537 22.7338 8.68692C22.5779 8.97848 22.3911 9.12425 22.1735 9.12425Z" fill="black" fill-opacity="0.8"/>
</svg>
