<svg width="24" height="24" viewBox="0 0 24 24" fill="none" xmlns="http://www.w3.org/2000/svg">
<path d="M7.89509 4.00031C7.39965 3.99428 6.89254 4.07568 6.37378 4.24451C5.85502 4.41334 5.35811 4.67262 4.88307 5.02234C4.40802 5.37206 3.98689 5.81524 3.61968 6.35188C3.53807 6.46041 3.45793 6.5795 3.37924 6.70914C3.30055 6.83877 3.22332 6.99404 3.14754 7.17493C3.77705 7.28949 4.35265 7.54274 4.87433 7.93466C5.396 8.3266 5.8113 8.80746 6.12023 9.37726C6.42916 9.94707 6.58362 10.5546 6.58362 11.1997C6.58362 11.7424 6.48744 12.2459 6.29509 12.7102C6.87214 12.6257 7.35593 12.5157 7.74646 12.38C8.13699 12.2444 8.49546 12.0801 8.82188 11.8871C9.54467 11.459 10.1552 10.8937 10.6536 10.1913C11.1519 9.48881 11.4011 8.63712 11.4011 7.6362C11.4011 6.8644 11.2437 6.20868 10.9289 5.66902C10.6142 5.12937 10.1916 4.71784 9.6612 4.43445C9.13079 4.15105 8.54209 4.00634 7.89509 4.00031ZM8.23608 7.8804C8.14864 7.95878 8.04664 7.99345 7.93006 7.98441C7.81349 7.97537 7.71732 7.92261 7.64154 7.82614C7.56577 7.72966 7.53371 7.62264 7.54536 7.50506C7.55702 7.38748 7.60949 7.28949 7.70275 7.2111L8.98802 6.08959C9.07541 6.0112 9.17595 5.97804 9.28965 5.9901C9.4033 6.00216 9.49509 6.05643 9.56505 6.15291C9.64664 6.24335 9.68451 6.34736 9.67866 6.46494C9.67287 6.58252 9.62333 6.6805 9.53004 6.75888L8.23608 7.8804ZM6.63608 20H7.32678C7.59491 20 7.81058 19.9277 7.97378 19.783C8.13699 19.6383 8.21859 19.4272 8.21859 19.1499V13.1895C7.84555 13.3282 7.45211 13.4412 7.03826 13.5287C6.62442 13.6161 6.19017 13.6749 5.73553 13.7051V19.1499C5.73553 19.4272 5.81713 19.6383 5.98034 19.783C6.14354 19.9277 6.36212 20 6.63608 20ZM16.0962 4.00031C15.455 4.00634 14.8692 4.15105 14.3388 4.43445C13.8084 4.71784 13.3858 5.12937 13.071 5.66902C12.7563 6.20868 12.599 6.8644 12.599 7.6362C12.599 8.63712 12.8481 9.48881 13.3464 10.1913C13.8448 10.8937 14.4525 11.459 15.1695 11.8871C15.5017 12.0801 15.863 12.2444 16.2536 12.38C16.6441 12.5157 17.1279 12.6257 17.705 12.7102C17.5126 12.2459 17.4164 11.7424 17.4164 11.1997C17.4164 10.5546 17.5709 9.94707 17.8798 9.37726C18.1887 8.80746 18.6026 8.3266 19.1213 7.93466C19.6401 7.54274 20.2142 7.28949 20.8437 7.17493C20.768 6.99404 20.6922 6.83877 20.6164 6.70914C20.5406 6.5795 20.462 6.46041 20.3804 6.35188C20.0073 5.81524 19.5833 5.37206 19.1082 5.02234C18.6332 4.67262 18.1377 4.41334 17.6219 4.24451C17.1061 4.07568 16.5975 3.99428 16.0962 4.00031ZM15.7639 7.8804L14.47 6.75888C14.3767 6.6805 14.3272 6.58252 14.3213 6.46494C14.3155 6.34736 14.3505 6.24335 14.4263 6.15291C14.4962 6.05643 14.5895 6.00216 14.706 5.9901C14.8226 5.97804 14.9246 6.0112 15.0121 6.08959L16.2973 7.2111C16.3906 7.28949 16.4416 7.38748 16.4503 7.50506C16.4591 7.62264 16.4255 7.72966 16.3497 7.82614C16.2798 7.92261 16.1865 7.97537 16.07 7.98441C15.9534 7.99345 15.8514 7.95878 15.7639 7.8804ZM17.3552 20C17.6292 20 17.8478 19.9277 18.011 19.783C18.1742 19.6383 18.2557 19.4272 18.2557 19.1499V13.7051C17.8011 13.6749 17.3669 13.6161 16.953 13.5287C16.5392 13.4412 16.1487 13.3282 15.7815 13.1895V19.1499C15.7815 19.4272 15.8616 19.6383 16.0219 19.783C16.1822 19.9277 16.3993 20 16.6732 20H17.3552ZM3.18252 13.8226C3.63134 13.8226 4.05101 13.7262 4.44154 13.5332C4.83206 13.3403 5.14682 13.0493 5.3858 12.6604C5.62478 12.2715 5.74427 11.7846 5.74427 11.1997C5.74427 10.6751 5.60001 10.1671 5.31149 9.67574C5.02296 9.18432 4.63097 8.77882 4.13552 8.45925C3.64008 8.13968 3.08343 7.97989 2.46558 7.97989C1.94099 7.97989 1.49509 8.10501 1.12787 8.35524C0.760658 8.60547 0.480875 8.92806 0.288525 9.323C0.0961751 9.71794 0 10.1355 0 10.5757C0 11.2269 0.15592 11.7967 0.46776 12.2851C0.779599 12.7735 1.17887 13.1518 1.66557 13.4201C2.15228 13.6885 2.65793 13.8226 3.18252 13.8226ZM2.74536 12.4479C2.62296 12.5624 2.45975 12.5639 2.25574 12.4524C2.05173 12.3408 1.82149 12.1253 1.56503 11.8057C1.30856 11.4861 1.14827 11.2163 1.08416 10.9962C1.02004 10.7761 1.04918 10.6118 1.17158 10.5033C1.29982 10.3887 1.46448 10.3842 1.66557 10.4897C1.86667 10.5953 2.09837 10.8108 2.36066 11.1364C2.60547 11.468 2.76139 11.7424 2.82842 11.9595C2.89545 12.1765 2.86776 12.3393 2.74536 12.4479ZM20.8176 13.8226C21.3421 13.8226 21.8478 13.6885 22.3345 13.4201C22.8212 13.1518 23.2204 12.7735 23.5323 12.2851C23.8441 11.7967 24 11.2269 24 10.5757C24 10.1355 23.9038 9.71794 23.7115 9.323C23.5192 8.92806 23.2394 8.60547 22.8722 8.35524C22.5049 8.10501 22.059 7.97989 21.5344 7.97989C20.9166 7.97989 20.36 8.13968 19.8645 8.45925C19.3691 8.77882 18.9771 9.18432 18.6885 9.67574C18.4 10.1671 18.2557 10.6751 18.2557 11.1997C18.2557 11.7846 18.3752 12.2715 18.6142 12.6604C18.8532 13.0493 19.1665 13.3403 19.5541 13.5332C19.9417 13.7262 20.3629 13.8226 20.8176 13.8226ZM21.2546 12.4479C21.1323 12.3393 21.1032 12.1765 21.1673 11.9595C21.2314 11.7424 21.3887 11.468 21.6394 11.1364C21.9017 10.8108 22.1334 10.5953 22.3345 10.4897C22.5356 10.3842 22.7002 10.3887 22.8284 10.5033C22.9508 10.6118 22.9785 10.7761 22.9115 10.9962C22.8445 11.2163 22.6856 11.4861 22.435 11.8057C22.1727 12.1253 21.941 12.3408 21.7399 12.4524C21.5388 12.5639 21.3771 12.5624 21.2546 12.4479Z" fill="black" fill-opacity="0.8"/>
</svg>
