<svg width="24" height="24" viewBox="0 0 24 24" fill="none" xmlns="http://www.w3.org/2000/svg">
<path d="M4.5 4.74397V19.2561C4.5 20.1707 4.72994 20.8567 5.18982 21.3141C5.6497 21.7714 6.33627 22 7.24951 22H16.7602C17.6735 22 18.3584 21.7714 18.8151 21.3141C19.2717 20.8567 19.5 20.1707 19.5 19.2561V4.74397C19.5 3.82931 19.2717 3.14332 18.8151 2.68599C18.3584 2.22866 17.6735 2 16.7602 2H7.24951C6.32975 2 5.64155 2.22866 5.18493 2.68599C4.72831 3.14332 4.5 3.82931 4.5 4.74397ZM6.07535 4.76329C6.07535 4.36393 6.17972 4.06281 6.38846 3.8599C6.5972 3.65701 6.90379 3.55556 7.30822 3.55556H16.7015C17.106 3.55556 17.411 3.65701 17.6164 3.8599C17.8219 4.06281 17.9246 4.36393 17.9246 4.76329V19.2368C17.9246 19.6297 17.8203 19.9292 17.6115 20.1353C17.4028 20.3414 17.0994 20.4445 16.7015 20.4445H7.30822C6.90379 20.4445 6.5972 20.3414 6.38846 20.1353C6.17972 19.9292 6.07535 19.6297 6.07535 19.2368V4.76329ZM12.0049 18.8889C12.742 18.8889 13.4123 18.7134 14.0157 18.3624C14.6191 18.0113 15.1001 17.5379 15.4589 16.942C15.8177 16.3462 15.9971 15.6812 15.9971 14.9469C15.9971 14.2126 15.8177 13.5492 15.4589 12.9565C15.1001 12.364 14.6191 11.8905 14.0157 11.5363C13.4123 11.182 12.742 11.0048 12.0049 11.0048C11.2678 10.9984 10.5959 11.1723 9.98924 11.5266C9.38258 11.8808 8.9015 12.3559 8.54599 12.9517C8.19048 13.5475 8.01272 14.2126 8.01272 14.9469C8.01272 15.6812 8.19048 16.3462 8.54599 16.942C8.9015 17.5379 9.38258 18.0113 9.98924 18.3624C10.5959 18.7134 11.2678 18.8889 12.0049 18.8889ZM12.0049 16.6184C11.5352 16.6184 11.1357 16.4557 10.8063 16.1304C10.4768 15.8052 10.3121 15.4107 10.3121 14.9469C10.3121 14.4702 10.4736 14.0709 10.7965 13.7488C11.1194 13.4267 11.5222 13.2657 12.0049 13.2657C12.4811 13.2657 12.8823 13.4267 13.2084 13.7488C13.5346 14.0709 13.6977 14.4702 13.6977 14.9469C13.6977 15.4107 13.5346 15.8052 13.2084 16.1304C12.8823 16.4557 12.4811 16.6184 12.0049 16.6184ZM12.0049 9.48794C12.4093 9.48794 12.7811 9.38971 13.1204 9.19325C13.4596 8.9968 13.7303 8.73271 13.9325 8.40098C14.1347 8.06926 14.2326 7.7005 14.226 7.29469C14.2195 6.68278 14.001 6.16748 13.5704 5.7488C13.1399 5.33012 12.6181 5.11756 12.0049 5.11112C11.5939 5.10468 11.2205 5.19969 10.8845 5.39615C10.5486 5.5926 10.2811 5.85669 10.0822 6.18842C9.88324 6.52014 9.78376 6.8889 9.78376 7.29469C9.78376 7.7005 9.88324 8.06926 10.0822 8.40098C10.2811 8.73271 10.5486 8.9968 10.8845 9.19325C11.2205 9.38971 11.5939 9.48794 12.0049 9.48794ZM12.0049 8.41548C11.6853 8.41548 11.4162 8.30436 11.1977 8.08214C10.9791 7.85992 10.8699 7.59744 10.8699 7.29469C10.8699 6.97263 10.9791 6.70532 11.1977 6.49277C11.4162 6.2802 11.6853 6.17392 12.0049 6.17392C12.3115 6.17392 12.5773 6.28342 12.8023 6.50242C13.0274 6.72143 13.1399 6.98552 13.1399 7.29469C13.1399 7.59744 13.029 7.85992 12.8072 8.08214C12.5855 8.30436 12.318 8.41548 12.0049 8.41548Z" fill="black" fill-opacity="0.8"/>
</svg>
