<svg width="24" height="24" viewBox="0 0 24 24" fill="none" xmlns="http://www.w3.org/2000/svg">
<path d="M4.5 4.74397V19.2561C4.5 20.1707 4.72994 20.8567 5.18982 21.3141C5.6497 21.7714 6.33627 22 7.24951 22H16.7602C17.6735 22 18.3584 21.7714 18.8151 21.3141C19.2717 20.8567 19.5 20.1707 19.5 19.2561V4.74397C19.5 3.82931 19.2717 3.14332 18.8151 2.68599C18.3584 2.22866 17.6735 2 16.7602 2H7.24951C6.32975 2 5.64155 2.22866 5.18493 2.68599C4.72831 3.14332 4.5 3.82931 4.5 4.74397ZM12.0049 19.1981C11.2417 19.1981 10.5486 19.0177 9.92564 18.657C9.30267 18.2963 8.80691 17.8084 8.43835 17.1932C8.0698 16.5781 7.88552 15.8937 7.88552 15.1401C7.88552 14.38 8.0698 13.6925 8.43835 13.0773C8.80691 12.4622 9.30267 11.9727 9.92564 11.6087C10.5486 11.2448 11.2417 11.066 12.0049 11.0725C12.7616 11.0725 13.4514 11.2544 14.0744 11.6184C14.6973 11.9823 15.1947 12.4702 15.5665 13.0822C15.9384 13.6941 16.1243 14.38 16.1243 15.1401C16.1243 15.8937 15.9384 16.5781 15.5665 17.1932C15.1947 17.8084 14.6973 18.2963 14.0744 18.657C13.4514 19.0177 12.7616 19.1981 12.0049 19.1981ZM12.0049 9.31403C11.5809 9.31403 11.196 9.21258 10.8503 9.00968C10.5046 8.80678 10.229 8.53463 10.0235 8.19325C9.81801 7.85187 9.71527 7.47183 9.71527 7.05315C9.71527 6.63447 9.81801 6.25444 10.0235 5.91305C10.229 5.57167 10.5046 5.30114 10.8503 5.10146C11.196 4.90178 11.5809 4.80194 12.0049 4.80194C12.4289 4.80838 12.8121 4.91144 13.1546 5.11112C13.4971 5.3108 13.771 5.57972 13.9765 5.91788C14.182 6.25605 14.288 6.63447 14.2945 7.05315C14.301 7.47183 14.2016 7.85187 13.9961 8.19325C13.7906 8.53463 13.5117 8.80678 13.1595 9.00968C12.8072 9.21258 12.4224 9.31403 12.0049 9.31403ZM12.0049 16.8599C12.4941 16.8599 12.9067 16.6908 13.2427 16.3527C13.5786 16.0145 13.7466 15.6103 13.7466 15.1401C13.7466 14.6441 13.5786 14.2303 13.2427 13.8986C12.9067 13.5668 12.4941 13.401 12.0049 13.401C11.5091 13.401 11.0949 13.5668 10.7622 13.8986C10.4295 14.2303 10.2632 14.6441 10.2632 15.1401C10.2632 15.6103 10.4328 16.0145 10.772 16.3527C11.1112 16.6908 11.5222 16.8599 12.0049 16.8599ZM12.0049 8.20291C12.3245 8.20291 12.5985 8.09019 12.8268 7.86474C13.0551 7.6393 13.1693 7.36877 13.1693 7.05315C13.1693 6.73109 13.0551 6.45895 12.8268 6.23673C12.5985 6.0145 12.3245 5.90339 12.0049 5.90339C11.6787 5.90339 11.4031 6.01128 11.1781 6.22706C10.953 6.44284 10.8405 6.71821 10.8405 7.05315C10.8405 7.36877 10.953 7.6393 11.1781 7.86474C11.4031 8.09019 11.6787 8.20291 12.0049 8.20291Z" fill="black" fill-opacity="0.8"/>
</svg>
