<svg width="24" height="24" viewBox="0 0 24 24" fill="none" xmlns="http://www.w3.org/2000/svg">
<path d="M15.0388 21.5H21.5938C22.3133 21.5 22.8942 21.2861 23.3365 20.8583C23.7788 20.4305 24 19.8666 24 19.1666V4.83349C24 4.13344 23.7788 3.56952 23.3365 3.14171C22.8942 2.7139 22.3133 2.5 21.5938 2.5H15.0388C14.3133 2.5 13.7295 2.7139 13.2872 3.14171C12.8448 3.56952 12.6236 4.13344 12.6236 4.83349V19.1666C12.6236 19.8666 12.8448 20.4305 13.2872 20.8583C13.7295 21.2861 14.3133 21.5 15.0388 21.5ZM15.2157 20.0551C14.8441 20.0551 14.5566 19.9579 14.3531 19.7634C14.1497 19.5689 14.0479 19.2922 14.0479 18.9332V5.06684C14.0479 4.70784 14.1497 4.43112 14.3531 4.23666C14.5566 4.0422 14.8441 3.94498 15.2157 3.94498H21.4081C21.7796 3.94498 22.0671 4.0422 22.2706 4.23666C22.4741 4.43112 22.5758 4.70784 22.5758 5.06684V18.9332C22.5758 19.2922 22.4741 19.5689 22.2706 19.7634C22.0671 19.9579 21.7796 20.0551 21.4081 20.0551H15.2157ZM0.787322 19.364C1.01733 19.364 1.20605 19.2907 1.35348 19.1441C1.50092 18.9975 1.57464 18.8075 1.57464 18.5742V17.21C1.57464 16.0971 1.77811 15.2191 2.18504 14.5758C2.59197 13.9326 3.14044 13.4749 3.83046 13.2027C4.52046 12.9304 5.29599 12.7943 6.15704 12.7943H6.74089L9.19133 12.7135V12.2109L6.78512 14.4367L5.81203 15.2803C5.71177 15.3641 5.64395 15.4599 5.60856 15.5676C5.57317 15.6753 5.55548 15.7829 5.55548 15.8907C5.55548 16.112 5.6292 16.296 5.77664 16.4426C5.92407 16.5892 6.1069 16.6626 6.32511 16.6626C6.43126 16.6626 6.533 16.6416 6.63031 16.5997C6.72762 16.5578 6.82345 16.489 6.91781 16.3933L10.6598 12.6058C10.8426 12.4323 10.934 12.2319 10.934 12.0045C10.934 11.7771 10.8426 11.5767 10.6598 11.4032L6.90012 7.59779C6.72909 7.43026 6.53742 7.34649 6.32511 7.34649C6.1069 7.34649 5.92407 7.41979 5.77664 7.56638C5.6292 7.71297 5.55548 7.89695 5.55548 8.11833C5.55548 8.22603 5.57317 8.33373 5.60856 8.44143C5.64395 8.54913 5.71177 8.64486 5.81203 8.72863L6.78512 9.57228L9.19133 11.7981V11.2955L6.74089 11.2147H6.15704C5.37266 11.2147 4.61335 11.3149 3.87911 11.5154C3.14487 11.7158 2.48582 12.0479 1.90196 12.5116C1.3181 12.9753 0.855142 13.5916 0.513086 14.3605C0.171029 15.1293 0 16.0792 0 17.21V18.5742C0 18.8075 0.0737194 18.9975 0.221158 19.1441C0.368596 19.2907 0.557317 19.364 0.787322 19.364Z" fill="black" fill-opacity="0.8"/>
<path d="M15.2157 20.0551C14.8441 20.0551 14.5566 19.9579 14.3531 19.7634C14.1497 19.5689 14.0479 19.2922 14.0479 18.9332V5.06684C14.0479 4.70784 14.1497 4.43112 14.3531 4.23666C14.5566 4.0422 14.8441 3.94498 15.2157 3.94498H21.4081C21.7796 3.94498 22.0671 4.0422 22.2706 4.23666C22.4741 4.43112 22.5758 4.70784 22.5758 5.06684V18.9332C22.5758 19.2922 22.4741 19.5689 22.2706 19.7634C22.0671 19.9579 21.7796 20.0551 21.4081 20.0551H15.2157Z" fill="black" fill-opacity="0.8"/>
</svg>
