<svg width="24" height="24" viewBox="0 0 24 24" fill="none" xmlns="http://www.w3.org/2000/svg">
<path d="M0 18.019C0 18.2887 0.0915395 18.5196 0.274619 18.7118C0.457697 18.9039 0.679612 19 0.940363 19H23.0596C23.3203 19 23.5423 18.9039 23.7254 18.7118C23.9085 18.5196 24 18.2887 24 18.019C24 17.7494 23.9085 17.5185 23.7254 17.3264C23.5423 17.1342 23.3203 17.0381 23.0596 17.0381H21.2372V6.82421C21.2372 6.22188 21.086 5.76726 20.7836 5.46036C20.4812 5.15345 20.0388 5 19.4563 5H4.54368C3.99444 5 3.56033 5.15345 3.24133 5.46036C2.92233 5.76726 2.76283 6.22188 2.76283 6.82421V17.0381H0.940363C0.679612 17.0381 0.457697 17.1342 0.274619 17.3264C0.0915395 17.5185 0 17.7494 0 18.019ZM4.10263 17.0381V7.21144C4.10263 6.93608 4.1692 6.72957 4.30235 6.59189C4.4355 6.45421 4.63522 6.38537 4.90152 6.38537H19.0984C19.3648 6.38537 19.5645 6.45421 19.6976 6.59189C19.8307 6.72957 19.8973 6.93608 19.8973 7.21144V17.0381H4.10263Z" fill="black" fill-opacity="0.8"/>
</svg>
