<svg width="24" height="24" viewBox="0 0 24 24" fill="none" xmlns="http://www.w3.org/2000/svg">
<path d="M0.885238 19H14.1089C13.9314 18.6751 13.8426 18.3182 13.8426 17.9293C13.8426 17.8015 13.857 17.6736 13.8857 17.5457C13.9144 17.4179 13.9548 17.2954 14.007 17.1782H3.86213V8.05347C3.86213 7.79778 3.9248 7.60602 4.05015 7.47818C4.17549 7.35033 4.36611 7.28641 4.62202 7.28641H17.9789C18.2296 7.28641 18.4189 7.35033 18.5468 7.47818C18.6748 7.60602 18.7388 7.79778 18.7388 8.05347V9.67547C18.838 9.64351 18.9398 9.61954 19.0443 9.60355C19.1487 9.58758 19.2558 9.57959 19.3655 9.57959C19.4751 9.57959 19.5822 9.58758 19.6867 9.60355C19.7911 9.61954 19.8956 9.64617 20 9.68346V7.69391C20 7.1346 19.8564 6.71246 19.5691 6.42747C19.2819 6.14249 18.8667 6 18.3236 6H4.27733C3.76029 6 3.35162 6.14249 3.05132 6.42747C2.75102 6.71246 2.60087 7.1346 2.60087 7.69391V17.1782H0.885238C0.639772 17.1782 0.430866 17.2675 0.25852 17.4459C0.0861734 17.6243 0 17.8387 0 18.0891C0 18.3395 0.0861734 18.5539 0.25852 18.7323C0.430866 18.9108 0.639772 19 0.885238 19Z" fill="black" fill-opacity="0.8"/>
<path fill-rule="evenodd" clip-rule="evenodd" d="M22.9304 19C23.2579 19 23.5181 18.9004 23.7109 18.7012C23.9036 18.5019 24 18.2593 24 17.9732C24 17.7944 23.9525 17.6232 23.8574 17.4598L20.419 11.5287C20.3133 11.355 20.1787 11.2235 20.015 11.1341C19.8512 11.0447 19.6796 11 19.5 11C19.3204 11 19.1461 11.0447 18.9771 11.1341C18.8081 11.2235 18.6734 11.355 18.573 11.5287L15.1425 17.4674C15.0475 17.6258 15 17.7944 15 17.9732C15 18.2593 15.0964 18.5019 15.2891 18.7012C15.4819 18.9004 15.742 19 16.0695 19H22.9304ZM19.5 16.0039C19.3626 16.0039 19.2491 15.963 19.1593 15.8812C19.0695 15.7995 19.0246 15.6922 19.0246 15.5594L18.9613 13.3678C18.956 13.2146 19.0035 13.0881 19.1038 12.9885C19.2042 12.8889 19.3362 12.8391 19.5 12.8391C19.669 12.8391 19.8037 12.8889 19.9041 12.9885C20.0044 13.0881 20.0519 13.2146 20.0467 13.3678L19.9832 15.5594C19.978 15.6922 19.9318 15.7995 19.8446 15.8812C19.7575 15.963 19.6426 16.0039 19.5 16.0039ZM19.0326 17.6437C19.1646 17.7714 19.3204 17.8353 19.5 17.8353C19.6848 17.8353 19.842 17.7714 19.9714 17.6437C20.1008 17.516 20.1681 17.3627 20.1734 17.1839C20.1734 17.0102 20.1074 16.8595 19.9754 16.7318C19.8433 16.6041 19.6848 16.5403 19.5 16.5403C19.3204 16.5403 19.1646 16.6041 19.0326 16.7318C18.9005 16.8595 18.8345 17.0102 18.8345 17.1839C18.8345 17.3627 18.9005 17.516 19.0326 17.6437Z" fill="#FFCC00"/>
</svg>
