<svg width="24" height="24" viewBox="0 0 24 24" fill="none" xmlns="http://www.w3.org/2000/svg">
<path d="M0.973791 19.8811H16.1149C15.8621 19.4543 15.7299 18.9665 15.7185 18.4177C15.7185 18.3141 15.717 18.2104 15.7141 18.1067C15.7113 18.003 15.7098 17.8994 15.7098 17.7957H0.973791C0.703771 17.7957 0.473967 17.8979 0.284381 18.1022C0.0947935 18.3064 0 18.5518 0 18.8384C0 19.125 0.0947935 19.3705 0.284381 19.5747C0.473967 19.779 0.703771 19.8811 0.973791 19.8811ZM2.86104 18.4817H4.24847V7.35062C4.24847 7.05793 4.31741 6.83842 4.45529 6.69208C4.59317 6.54574 4.79999 6.47257 5.07575 6.47257H21.9059C21.8714 5.98476 21.7192 5.61738 21.4491 5.37043C21.1792 5.12348 20.8057 5 20.3289 5H4.7052C4.13644 5 3.68689 5.16311 3.35655 5.48933C3.02621 5.81555 2.86104 6.29878 2.86104 6.93903V18.4817ZM18.3899 20H22.3196C22.8539 20 23.2675 19.8506 23.5605 19.5518C23.8535 19.2531 24 18.8324 24 18.2897V9.17988C24 8.6372 23.852 8.21494 23.5561 7.91311C23.2603 7.61128 22.8481 7.46037 22.3196 7.46037H18.3899C17.8556 7.46037 17.442 7.61128 17.149 7.91311C16.856 8.21494 16.7095 8.6372 16.7095 9.17988V18.2897C16.7095 18.8324 16.856 19.2531 17.149 19.5518C17.442 19.8506 17.8556 20 18.3899 20ZM18.4072 18.8018C18.2176 18.8018 18.0754 18.7485 17.9806 18.6418C17.8858 18.5351 17.8384 18.378 17.8384 18.1708V9.29878C17.8384 9.09147 17.8858 8.93293 17.9806 8.82318C18.0754 8.71342 18.2176 8.65854 18.4072 8.65854H19.1913C19.2258 8.65854 19.243 8.67683 19.243 8.71342V8.79573C19.243 8.95427 19.289 9.08232 19.381 9.17988C19.4728 9.27745 19.5935 9.32623 19.7428 9.32623H20.9666C21.116 9.32623 21.2366 9.27745 21.3285 9.17988C21.4205 9.08232 21.4664 8.95427 21.4664 8.79573V8.71342C21.4664 8.67683 21.4837 8.65854 21.5181 8.65854H22.2937C22.4833 8.65854 22.6269 8.71342 22.7246 8.82318C22.8223 8.93293 22.8711 9.09147 22.8711 9.29878V18.1708C22.8711 18.378 22.8223 18.5351 22.7246 18.6418C22.6269 18.7485 22.4833 18.8018 22.2937 18.8018H18.4072ZM19.1741 18.3354H21.5181C21.7192 18.3354 21.8198 18.2287 21.8198 18.0153C21.8198 17.9238 21.791 17.8491 21.7335 17.7912C21.6761 17.7333 21.6043 17.7043 21.5181 17.7043H19.1741C19.0879 17.7043 19.019 17.7333 18.9673 17.7912C18.9156 17.8491 18.8897 17.9238 18.8897 18.0153C18.8897 18.2287 18.9845 18.3354 19.1741 18.3354Z" fill="black" fill-opacity="0.8"/>
</svg>
