<svg width="24" height="24" viewBox="0 0 24 24" fill="none" xmlns="http://www.w3.org/2000/svg">
<path d="M7.03656 13.9697V19.5438C7.03656 20.2806 7.28877 20.8742 7.79319 21.3246C8.2976 21.7749 8.96006 22 9.78057 22H17.2559C18.0764 22 18.7389 21.7749 19.2434 21.3246C19.7478 20.8742 20 20.2806 20 19.5438V4.45631C20 3.71941 19.7478 3.12581 19.2434 2.67548C18.7389 2.22516 18.0764 2 17.2559 2H9.78057C8.96006 2 8.2976 2.22516 7.79319 2.67548C7.28877 3.12581 7.03656 3.71941 7.03656 4.45631V10.0397H8.66078V4.70194C8.66078 4.32405 8.77511 4.03275 9.00378 3.82806C9.23244 3.62337 9.56199 3.52103 9.99242 3.52103H17.0542C17.4779 3.52103 17.8041 3.62337 18.0328 3.82806C18.2614 4.03275 18.3758 4.32405 18.3758 4.70194V19.2981C18.3758 19.676 18.2614 19.9673 18.0328 20.172C17.8041 20.3767 17.4779 20.479 17.0542 20.479H9.99242C9.56199 20.479 9.23244 20.3767 9.00378 20.172C8.77511 19.9673 8.66078 19.676 8.66078 19.2981V13.9697H7.03656ZM4.73644 12.6661H11.314L13.4426 12.5715L11.2434 14.4233L10.6683 14.9617C10.6011 15.0311 10.5473 15.1082 10.5069 15.1932C10.4666 15.2782 10.4464 15.3711 10.4464 15.4719C10.4464 15.6609 10.5137 15.8168 10.6482 15.9396C10.7827 16.0624 10.9474 16.1238 11.1425 16.1238C11.351 16.1238 11.5292 16.0545 11.6772 15.916L15.3291 12.496C15.5107 12.3322 15.6015 12.1653 15.6015 11.9953C15.6015 11.8126 15.5107 11.6426 15.3291 11.4851L11.6772 8.07465C11.5292 7.93608 11.351 7.8668 11.1425 7.8668C10.9474 7.8668 10.7827 7.92663 10.6482 8.0463C10.5137 8.16597 10.4464 8.32028 10.4464 8.50922C10.4464 8.61629 10.4666 8.71234 10.5069 8.79737C10.5473 8.88239 10.6011 8.95639 10.6683 9.01938L11.2434 9.56733L13.4426 11.4096L11.314 11.3151H4.73644C4.50778 11.3151 4.32787 11.3844 4.19672 11.5229C4.06557 11.6615 4 11.8189 4 11.9953C4 12.1717 4.06557 12.3275 4.19672 12.4629C4.32787 12.5983 4.50778 12.6661 4.73644 12.6661Z" fill="black" fill-opacity="0.8"/>
</svg>
