<svg width="24" height="24" viewBox="0 0 24 24" fill="none" xmlns="http://www.w3.org/2000/svg">
<path d="M3.03843 17H16.015C16.7867 17 17.3926 16.8475 17.8327 16.5424C18.2728 16.2373 18.5862 15.7212 18.7731 14.9942C18.96 14.2671 19.0535 13.2707 19.0535 12.0049C19.0535 10.739 18.96 9.74099 18.7731 9.01071C18.5862 8.28043 18.2728 7.76274 17.8327 7.45764C17.3926 7.15255 16.7867 7 16.015 7H3.03843C2.26676 7 1.65938 7.15255 1.21628 7.45764C0.773173 7.76274 0.459683 8.28043 0.27581 9.01071C0.0919367 9.74099 0 10.739 0 12.0049C0 13.2707 0.0919367 14.2671 0.27581 14.9942C0.459683 15.7212 0.773173 16.2373 1.21628 16.5424C1.65938 16.8475 2.26676 17 3.03843 17ZM3.03843 11.3038C2.77317 11.3038 2.55011 11.2064 2.36925 11.0117C2.18839 10.8169 2.09796 10.5768 2.09796 10.2911C2.09796 10.012 2.18839 9.77669 2.36925 9.5852C2.55011 9.3937 2.77317 9.29796 3.03843 9.29796C3.29766 9.29796 3.5162 9.3937 3.69404 9.5852C3.87189 9.77669 3.96081 10.012 3.96081 10.2911C3.96081 10.5768 3.87189 10.8169 3.69404 11.0117C3.5162 11.2064 3.29766 11.3038 3.03843 11.3038ZM20.0753 14.7507H22.2727C22.7912 14.7507 23.2087 14.5868 23.5252 14.259C23.8417 13.9312 24 13.5076 24 12.9883V11.0019C24 10.4826 23.8417 10.0591 23.5252 9.73126C23.2087 9.40344 22.7912 9.23953 22.2727 9.23953H20.0753C20.1477 9.62253 20.2004 10.0445 20.2336 10.5053C20.2667 10.9662 20.2833 11.4661 20.2833 12.0049C20.2833 12.5372 20.2652 13.0321 20.2291 13.4898C20.1929 13.9474 20.1416 14.3677 20.0753 14.7507Z" fill="black" fill-opacity="0.8"/>
</svg>
