<svg width="24" height="24" viewBox="0 0 24 24" fill="none" xmlns="http://www.w3.org/2000/svg">
<path d="M6.23983 7.66212H11.4219V2C10.3027 2.05479 9.38331 2.28158 8.66382 2.68037C7.94433 3.07915 7.39044 3.68646 7.00215 4.50229C6.61385 5.31812 6.35974 6.37139 6.23983 7.66212ZM12.5782 7.66212H17.7516C17.6317 6.37749 17.3805 5.32878 16.9979 4.51599C16.6153 3.7032 16.0657 3.09437 15.3491 2.6895C14.6324 2.28463 13.7088 2.05479 12.5782 2V7.66212ZM11.9957 22C13.9658 22 15.459 21.3866 16.4754 20.1599C17.4918 18.9331 18 17.1325 18 14.758C18 13.656 17.9857 12.6073 17.9572 11.6118C17.9287 10.6164 17.8887 9.71387 17.8373 8.90412H6.15418C6.10849 9.71387 6.07138 10.6164 6.04283 11.6118C6.01428 12.6073 6 13.656 6 14.758C6 17.1325 6.50678 18.9331 7.52035 20.1599C8.53391 21.3866 10.0257 22 11.9957 22Z" fill="black" fill-opacity="0.8"/>
</svg>
