<svg width="24" height="24" viewBox="0 0 24 24" fill="none" xmlns="http://www.w3.org/2000/svg">
<path d="M11.9957 22C13.9658 22 15.459 21.3872 16.4754 20.1616C17.4918 18.9359 18 17.1369 18 14.7646C18 13.3108 17.9743 11.9574 17.923 10.7044C17.8716 9.45135 17.8088 8.38383 17.7345 7.50184C17.5689 5.56144 17.0364 4.15937 16.1371 3.29563C15.2377 2.43188 13.8573 2 11.9957 2C10.1342 2 8.75375 2.43188 7.8544 3.29563C6.95504 4.15937 6.42256 5.56144 6.25696 7.50184C6.18273 8.38383 6.12134 9.45135 6.07281 10.7044C6.02427 11.9574 6 13.3108 6 14.7646C6 17.1369 6.50678 18.9359 7.52035 20.1616C8.53391 21.3872 10.0257 22 11.9957 22ZM11.9957 20.5311C10.4768 20.5311 9.32763 20.0445 8.54818 19.0712C7.76874 18.098 7.37902 16.6625 7.37902 14.7646C7.37902 13.396 7.40186 12.0943 7.44754 10.8595C7.49323 9.62471 7.55604 8.55111 7.63598 7.6387C7.72163 6.60463 7.91435 5.78346 8.21414 5.17519C8.51393 4.56691 8.96789 4.13048 9.57603 3.86588C10.1842 3.60128 10.9907 3.46898 11.9957 3.46898C13.0007 3.46898 13.8073 3.60128 14.4154 3.86588C15.0236 4.13048 15.479 4.56691 15.7816 5.17519C16.0842 5.78346 16.2784 6.60463 16.3641 7.6387C16.444 8.55111 16.5068 9.62471 16.5525 10.8595C16.5982 12.0943 16.621 13.396 16.621 14.7646C16.621 16.6625 16.2313 18.098 15.4519 19.0712C14.6724 20.0445 13.5204 20.5311 11.9957 20.5311ZM7.03641 8.82483H16.9722V7.62958H7.03641V8.82483ZM11.4476 8.22264L12.5696 8.23177V2.93979L11.4476 2.93066V8.22264Z" fill="black" fill-opacity="0.8"/>
</svg>
