<svg width="24" height="24" viewBox="0 0 24 24" fill="none" xmlns="http://www.w3.org/2000/svg">
<path d="M2.89681 17.4901C3.01688 17.3456 3.06316 17.1851 3.03565 17.0085C3.00813 16.8319 2.92682 16.6607 2.79174 16.4948C2.28642 15.8955 1.89868 15.2119 1.62852 14.444C1.35835 13.6762 1.22327 12.8615 1.22327 12C1.22327 11.1331 1.35835 10.3171 1.62852 9.55193C1.89868 8.78675 2.28642 8.1045 2.79174 7.5052C2.92682 7.33931 3.00813 7.16808 3.03565 6.9915C3.06316 6.81492 3.01688 6.65439 2.89681 6.50991C2.77673 6.36009 2.62539 6.28651 2.44277 6.28918C2.26016 6.29186 2.09631 6.37882 1.95122 6.55005C1.32583 7.27243 0.844277 8.10183 0.506566 9.03824C0.168855 9.97466 0 10.9619 0 12C0 13.0381 0.168855 14.024 0.506566 14.9577C0.844277 15.8915 1.32583 16.7222 1.95122 17.45C2.09631 17.6158 2.26016 17.7015 2.44277 17.7068C2.62539 17.7121 2.77673 17.6399 2.89681 17.4901ZM4.99812 15.2026C5.11819 15.0581 5.16197 14.8989 5.12945 14.725C5.09693 14.551 5.02063 14.3785 4.90056 14.2072C4.67542 13.9076 4.50781 13.5692 4.39775 13.1919C4.28768 12.8147 4.23264 12.4174 4.23264 12C4.23264 11.5826 4.28768 11.1853 4.39775 10.8081C4.50781 10.4308 4.67542 10.0924 4.90056 9.79273C5.02063 9.61614 5.09693 9.44224 5.12945 9.27101C5.16197 9.09977 5.11819 8.94192 4.99812 8.79745C4.87304 8.64762 4.71419 8.57405 4.52157 8.57672C4.32895 8.5794 4.1676 8.6717 4.03752 8.85363C3.71232 9.28706 3.45966 9.77266 3.27955 10.3104C3.09944 10.8482 3.00938 11.4114 3.00938 12C3.00938 12.5886 3.09944 13.1518 3.27955 13.6896C3.45966 14.2273 3.71232 14.7129 4.03752 15.1463C4.1676 15.3283 4.32895 15.4206 4.52157 15.4232C4.71419 15.4259 4.87304 15.3524 4.99812 15.2026ZM21.1031 17.4901C21.2232 17.6399 21.3758 17.7121 21.5609 17.7068C21.7461 17.7015 21.9112 17.6158 22.0563 17.45C22.6767 16.7222 23.1557 15.8915 23.4934 14.9577C23.8311 14.024 24 13.0381 24 12C24 10.9619 23.8311 9.97466 23.4934 9.03824C23.1557 8.10183 22.6767 7.27243 22.0563 6.55005C21.9112 6.37882 21.7461 6.29186 21.5609 6.28918C21.3758 6.28651 21.2232 6.36009 21.1031 6.50991C20.9831 6.65439 20.9368 6.81492 20.9644 6.9915C20.9919 7.16808 21.0732 7.33931 21.2083 7.5052C21.7136 8.1045 22.1013 8.78675 22.3714 9.55193C22.6416 10.3171 22.7767 11.1331 22.7767 12C22.7767 12.8615 22.6416 13.6762 22.3714 14.444C22.1013 15.2119 21.7136 15.8955 21.2083 16.4948C21.0732 16.6607 20.9919 16.8319 20.9644 17.0085C20.9368 17.1851 20.9831 17.3456 21.1031 17.4901ZM19.0019 15.2026C19.1269 15.3524 19.2858 15.4259 19.4784 15.4232C19.6711 15.4206 19.8324 15.3283 19.9625 15.1463C20.2927 14.7129 20.5478 14.2273 20.728 13.6896C20.908 13.1518 20.9981 12.5886 20.9981 12C20.9981 11.4114 20.908 10.8482 20.728 10.3104C20.5478 9.77266 20.2927 9.28706 19.9625 8.85363C19.8324 8.6717 19.6711 8.5794 19.4784 8.57672C19.2858 8.57405 19.1269 8.64762 19.0019 8.79745C18.8818 8.94192 18.838 9.09977 18.8706 9.27101C18.903 9.44224 18.9793 9.61614 19.0994 9.79273C19.3246 10.0924 19.4934 10.4308 19.606 10.8081C19.7185 11.1853 19.7748 11.5826 19.7748 12C19.7748 12.4174 19.7185 12.8147 19.606 13.1919C19.4934 13.5692 19.3246 13.9076 19.0994 14.2072C18.9793 14.3785 18.903 14.551 18.8706 14.725C18.838 14.8989 18.8818 15.0581 19.0019 15.2026ZM7.18198 18.4131C7.18198 19.0392 7.36959 19.5435 7.74481 19.9261C8.12004 20.3087 8.61286 20.5 9.22329 20.5H14.7842C15.3996 20.5 15.8937 20.3087 16.2664 19.9261C16.6391 19.5435 16.8255 19.0392 16.8255 18.4131V5.58687C16.8255 4.96081 16.6391 4.45648 16.2664 4.07389C15.8937 3.6913 15.3996 3.5 14.7842 3.5H9.22329C8.61286 3.5 8.12004 3.6913 7.74481 4.07389C7.36959 4.45648 7.18198 4.96081 7.18198 5.58687V18.4131ZM8.39026 17.779V6.22096H15.6173V17.779H8.39026ZM12.015 19.7054C11.8349 19.7054 11.681 19.6372 11.5535 19.5007C11.4259 19.3643 11.3621 19.1997 11.3621 19.0071C11.3621 18.8144 11.4259 18.6512 11.5535 18.5175C11.681 18.3837 11.8349 18.3168 12.015 18.3168C12.1901 18.3168 12.3415 18.3837 12.469 18.5175C12.5966 18.6512 12.6604 18.8144 12.6604 19.0071C12.6604 19.1997 12.5966 19.3643 12.469 19.5007C12.3415 19.6372 12.1901 19.7054 12.015 19.7054ZM10.5816 4.90462C10.5816 4.81366 10.6079 4.74009 10.6604 4.6839C10.7129 4.62771 10.7817 4.59962 10.8668 4.59962H13.1482C13.2333 4.59962 13.302 4.62771 13.3546 4.6839C13.4071 4.74009 13.4334 4.81366 13.4334 4.90462C13.4334 4.99559 13.4071 5.06783 13.3546 5.12134C13.302 5.17485 13.2333 5.2016 13.1482 5.2016H10.8668C10.7817 5.2016 10.7129 5.17485 10.6604 5.12134C10.6079 5.06783 10.5816 4.99559 10.5816 4.90462Z" fill="black" fill-opacity="0.8"/>
</svg>
