<svg width="24" height="24" viewBox="0 0 24 24" fill="none" xmlns="http://www.w3.org/2000/svg">
<path d="M6 19.5448C6 20.2814 6.23346 20.8747 6.70039 21.3249C7.16732 21.775 7.78055 22 8.54008 22H15.4599C16.2257 22 16.8405 21.775 17.3043 21.3249C17.7681 20.8747 18 20.2814 18 19.5448V4.45514C18 3.7186 17.7681 3.12527 17.3043 2.67516C16.8405 2.22505 16.2257 2 15.4599 2H8.54008C7.78055 2 7.16732 2.22505 6.70039 2.67516C6.23346 3.12527 6 3.7186 6 4.45514V19.5448ZM7.50351 18.7988V5.20114H16.4966V18.7988H7.50351ZM12.014 21.0652C11.7899 21.0652 11.5985 20.9849 11.4397 20.8244C11.2809 20.6639 11.2016 20.4703 11.2016 20.2436C11.2016 20.017 11.2809 19.825 11.4397 19.6676C11.5985 19.5102 11.7899 19.4315 12.014 19.4315C12.2319 19.4315 12.4202 19.5102 12.579 19.6676C12.7378 19.825 12.8171 20.017 12.8171 20.2436C12.8171 20.4703 12.7378 20.6639 12.579 20.8244C12.4202 20.9849 12.2319 21.0652 12.014 21.0652ZM12.014 4.15297C11.8584 4.15297 11.7261 4.09789 11.6171 3.98772C11.5082 3.87756 11.4537 3.74378 11.4537 3.5864C11.4537 3.43531 11.5082 3.30626 11.6171 3.19924C11.7261 3.09222 11.8584 3.03872 12.014 3.03872C12.1634 3.03872 12.2911 3.09222 12.3969 3.19924C12.5027 3.30626 12.5557 3.43531 12.5557 3.5864C12.5557 3.74378 12.5027 3.87756 12.3969 3.98772C12.2911 4.09789 12.1634 4.15297 12.014 4.15297Z" fill="black" fill-opacity="0.8"/>
</svg>
