<svg width="24" height="24" viewBox="0 0 24 24" fill="none" xmlns="http://www.w3.org/2000/svg">
<path d="M8.70871 22H15.2913C16.1012 22 16.7552 21.7611 17.2531 21.2833C17.751 20.8053 18 20.1754 18 19.3935V4.60652C18 3.82456 17.751 3.19465 17.2531 2.71679C16.7552 2.23893 16.1012 2 15.2913 2H8.70871C7.89875 2 7.24481 2.23893 6.74689 2.71679C6.24896 3.19465 6 3.82456 6 4.60652V19.3935C6 20.1754 6.24896 20.8053 6.74689 21.2833C7.24481 21.7611 7.89875 22 8.70871 22ZM8.91784 20.386C8.49294 20.386 8.16763 20.2774 7.94191 20.0602C7.71618 19.843 7.60332 19.5339 7.60332 19.1329V4.86717C7.60332 4.46617 7.71618 4.15706 7.94191 3.93985C8.16763 3.72265 8.49294 3.61404 8.91784 3.61404H15.0821C15.5004 3.61404 15.824 3.72265 16.0531 3.93985C16.2821 4.15706 16.3966 4.46617 16.3966 4.86717V19.1329C16.3966 19.5339 16.2821 19.843 16.0531 20.0602C15.824 20.2774 15.5004 20.386 15.0821 20.386H8.91784ZM9.4058 11.1128H14.5942C14.8531 11.1128 15.0556 11.046 15.2016 10.9123C15.3477 10.7786 15.4207 10.5915 15.4207 10.3509V5.40852C15.4207 5.16792 15.3477 4.98079 15.2016 4.84712C15.0556 4.71345 14.8531 4.64661 14.5942 4.64661H9.4058C9.14688 4.64661 8.94439 4.71345 8.79833 4.84712C8.65228 4.98079 8.57925 5.16792 8.57925 5.40852V10.3509C8.57925 10.5915 8.65228 10.7786 8.79833 10.9123C8.94439 11.046 9.14688 11.1128 9.4058 11.1128ZM9.22655 14.0502H10.1427C10.4017 14.0502 10.5311 13.9298 10.5311 13.6892V12.7369C10.5311 12.5029 10.4017 12.386 10.1427 12.386H9.22655C8.98755 12.386 8.86804 12.5029 8.86804 12.7369V13.6892C8.86804 13.9298 8.98755 14.0502 9.22655 14.0502ZM11.507 14.0502H12.4232C12.6755 14.0502 12.8016 13.9298 12.8016 13.6892V12.7369C12.8016 12.5029 12.6755 12.386 12.4232 12.386H11.507C11.268 12.386 11.1485 12.5029 11.1485 12.7369V13.6892C11.1485 13.9298 11.268 14.0502 11.507 14.0502ZM13.7875 14.0502H14.7037C14.9626 14.0502 15.0921 13.9298 15.0921 13.6892V12.7369C15.0921 12.5029 14.9626 12.386 14.7037 12.386H13.7875C13.5485 12.386 13.429 12.5029 13.429 12.7369V13.6892C13.429 13.9298 13.5485 14.0502 13.7875 14.0502ZM9.22655 16.5163H10.1427C10.4017 16.5163 10.5311 16.3993 10.5311 16.1654V15.2131C10.5311 14.9724 10.4017 14.8521 10.1427 14.8521H9.22655C8.98755 14.8521 8.86804 14.9724 8.86804 15.2131V16.1654C8.86804 16.3993 8.98755 16.5163 9.22655 16.5163ZM11.507 16.5163H12.4232C12.6755 16.5163 12.8016 16.3993 12.8016 16.1654V15.2131C12.8016 14.9724 12.6755 14.8521 12.4232 14.8521H11.507C11.268 14.8521 11.1485 14.9724 11.1485 15.2131V16.1654C11.1485 16.3993 11.268 16.5163 11.507 16.5163ZM13.7875 16.5163H14.7037C14.9626 16.5163 15.0921 16.3993 15.0921 16.1654V15.2131C15.0921 14.9724 14.9626 14.8521 14.7037 14.8521H13.7875C13.5485 14.8521 13.429 14.9724 13.429 15.2131V16.1654C13.429 16.3993 13.5485 16.5163 13.7875 16.5163ZM9.22655 18.9925H10.1427C10.4017 18.9925 10.5311 18.8722 10.5311 18.6316V17.6792C10.5311 17.4386 10.4017 17.3183 10.1427 17.3183H9.22655C8.98755 17.3183 8.86804 17.4386 8.86804 17.6792V18.6316C8.86804 18.8722 8.98755 18.9925 9.22655 18.9925ZM11.507 18.9925H12.4232C12.6755 18.9925 12.8016 18.8722 12.8016 18.6316V17.6792C12.8016 17.4386 12.6755 17.3183 12.4232 17.3183H11.507C11.268 17.3183 11.1485 17.4386 11.1485 17.6792V18.6316C11.1485 18.8722 11.268 18.9925 11.507 18.9925ZM13.7875 18.9925H14.7037C14.9626 18.9925 15.0921 18.8722 15.0921 18.6316V17.6792C15.0921 17.4386 14.9626 17.3183 14.7037 17.3183H13.7875C13.5485 17.3183 13.429 17.4386 13.429 17.6792V18.6316C13.429 18.8722 13.5485 18.9925 13.7875 18.9925Z" fill="black" fill-opacity="0.8"/>
</svg>
