<svg width="24" height="24" viewBox="0 0 24 24" fill="none" xmlns="http://www.w3.org/2000/svg">
<path d="M8.31457 22.5H15.6854C16.2881 22.5 16.7997 22.3661 17.2202 22.0984C17.6407 21.8307 17.9404 21.4556 18.1192 20.9731V20.9235L16.2418 19.0496V19.1388H7.21192V10.0467L5.61259 8.45042V19.9221C5.61259 20.6954 5.86093 21.3185 6.35762 21.7911C6.85431 22.2637 7.50662 22.5 8.31457 22.5ZM12.0099 21.5184C11.7649 21.5184 11.558 21.4341 11.3891 21.2656C11.2202 21.0971 11.1358 20.8938 11.1358 20.6558C11.1358 20.4178 11.2202 20.2162 11.3891 20.051C11.558 19.8857 11.7649 19.8031 12.0099 19.8031C12.2417 19.8031 12.4421 19.8857 12.6109 20.051C12.7798 20.2162 12.8643 20.4178 12.8643 20.6558C12.8643 20.8938 12.7798 21.0971 12.6109 21.2656C12.4421 21.4341 12.2417 21.5184 12.0099 21.5184ZM18.3875 15.6686V4.0779C18.3875 3.30453 18.1408 2.68154 17.6473 2.20892C17.154 1.73631 16.5 1.5 15.6854 1.5H8.31457C7.69868 1.5 7.17716 1.63881 6.75 1.91643C6.32285 2.19405 6.02318 2.58404 5.85099 3.0864V3.14589L7.64901 4.94051V4.86119H16.7881V14.0722L18.3875 15.6686ZM12.0099 3.76062C11.8444 3.76062 11.7036 3.70278 11.5878 3.58711C11.4719 3.47144 11.4139 3.33097 11.4139 3.16572C11.4139 3.00708 11.4719 2.87158 11.5878 2.7592C11.7036 2.64684 11.8444 2.59065 12.0099 2.59065C12.1689 2.59065 12.3046 2.64684 12.4172 2.7592C12.5298 2.87158 12.5861 3.00708 12.5861 3.16572C12.5861 3.33097 12.5298 3.47144 12.4172 3.58711C12.3046 3.70278 12.1689 3.76062 12.0099 3.76062ZM19.6887 20.7946C19.8411 20.9466 20.0232 21.0226 20.2352 21.0226C20.4471 21.0226 20.6259 20.9466 20.7715 20.7946C20.9238 20.6492 21 20.4708 21 20.2592C21 20.0477 20.9238 19.8659 20.7715 19.7139L4.31126 3.29462C4.15894 3.14259 3.97682 3.06657 3.7649 3.06657C3.55298 3.06657 3.37086 3.14259 3.21854 3.29462C3.07285 3.44004 3 3.62016 3 3.83498C3 4.04981 3.07285 4.22993 3.21854 4.37535L19.6887 20.7946Z" fill="black" fill-opacity="0.8"/>
</svg>
