<svg width="24" height="24" viewBox="0 0 24 24" fill="none" xmlns="http://www.w3.org/2000/svg">
<path d="M19.5448 18C20.2814 18 20.8747 17.7665 21.3249 17.2996C21.775 16.8327 22 16.2194 22 15.4599V8.54007C22 7.77431 21.775 7.15953 21.3249 6.69572C20.8747 6.23191 20.2814 6 19.5448 6H4.45514C3.7186 6 3.12527 6.23191 2.67516 6.69572C2.22505 7.15953 2 7.77431 2 8.54007V15.4599C2 16.2194 2.22505 16.8327 2.67516 17.2996C3.12527 17.7665 3.7186 18 4.45514 18H19.5448ZM18.7988 16.4965H5.20114V7.5035H18.7988V16.4965ZM21.0652 11.986C21.0652 12.2101 20.9849 12.4015 20.8244 12.5603C20.6639 12.7191 20.4703 12.7984 20.2436 12.7984C20.017 12.7984 19.825 12.7191 19.6676 12.5603C19.5102 12.4015 19.4315 12.2101 19.4315 11.986C19.4315 11.7681 19.5102 11.5798 19.6676 11.421C19.825 11.2622 20.017 11.1829 20.2436 11.1829C20.4703 11.1829 20.6639 11.2622 20.8244 11.421C20.9849 11.5798 21.0652 11.7681 21.0652 11.986ZM4.15297 11.986C4.15297 12.1416 4.09789 12.2739 3.98772 12.3829C3.87756 12.4918 3.74378 12.5463 3.5864 12.5463C3.43531 12.5463 3.30626 12.4918 3.19924 12.3829C3.09222 12.2739 3.03872 12.1416 3.03872 11.986C3.03872 11.8366 3.09222 11.7089 3.19924 11.6031C3.30626 11.4973 3.43531 11.4443 3.5864 11.4443C3.74378 11.4443 3.87756 11.4973 3.98772 11.6031C4.09789 11.7089 4.15297 11.8366 4.15297 11.986Z" fill="black" fill-opacity="0.8"/>
</svg>
