<svg width="24" height="24" viewBox="0 0 24 24" fill="none" xmlns="http://www.w3.org/2000/svg">
<path d="M5.09685 18.4101V4.31761H14.6482V11.7749C14.787 11.7488 14.9226 11.7309 15.0549 11.7211C15.1871 11.7113 15.3226 11.7064 15.4614 11.7064C15.7061 11.7064 15.9673 11.7227 16.245 11.7553V3.54448C16.245 2.78113 15.9987 2.16622 15.5061 1.69973C15.0135 1.23324 14.3606 1 13.5472 1H6.19778C5.39109 1 4.73979 1.23324 4.24387 1.69973C3.74796 2.16622 3.5 2.78113 3.5 3.54448V19.1833C3.5 19.9466 3.74796 20.5615 4.24387 21.028C4.73979 21.4945 5.39109 21.7278 6.19778 21.7278H10.2841C9.93368 21.258 9.65266 20.7426 9.44107 20.1815C9.22948 19.6204 9.10715 19.0299 9.07409 18.4101H5.09685ZM7.993 2.71263C7.993 2.60171 8.02771 2.512 8.09714 2.44351C8.16657 2.375 8.25748 2.34075 8.36989 2.34075H11.3851C11.4975 2.34075 11.5884 2.375 11.6578 2.44351C11.7272 2.512 11.762 2.60171 11.762 2.71263C11.762 2.82354 11.7272 2.91162 11.6578 2.97686C11.5884 3.04211 11.4975 3.07473 11.3851 3.07473H8.36989C8.25748 3.07473 8.16657 3.04211 8.09714 2.97686C8.02771 2.91162 7.993 2.82354 7.993 2.71263ZM15.4614 23C16.1425 23 16.7872 22.8695 17.3955 22.6086C18.0039 22.3475 18.5411 21.9887 19.0073 21.532C19.4734 21.0753 19.8388 20.5469 20.1033 19.9466C20.3678 19.3464 20.5 18.707 20.5 18.0285C20.5 17.3434 20.3694 16.7008 20.1082 16.1005C19.847 15.5003 19.485 14.9718 19.0222 14.5151C18.5593 14.0584 18.0237 13.7012 17.4154 13.4435C16.807 13.1858 16.1557 13.0569 15.4614 13.0569C14.7738 13.0569 14.1258 13.1858 13.5175 13.4435C12.9092 13.7012 12.3736 14.0601 11.9107 14.52C11.4479 14.98 11.0842 15.5085 10.8197 16.1054C10.5552 16.7024 10.423 17.3434 10.423 18.0285C10.423 18.7135 10.5552 19.3561 10.8197 19.9564C11.0842 20.5566 11.4479 21.0851 11.9107 21.5418C12.3736 21.9985 12.9092 22.3557 13.5175 22.6134C14.1258 22.8711 14.7738 23 15.4614 23ZM13.8349 20.0053V16.0418C13.8349 15.8395 13.9192 15.7009 14.0878 15.6259C14.2564 15.5509 14.43 15.5655 14.6085 15.6699L17.8518 17.5685C18.0436 17.6794 18.1461 17.8278 18.1593 18.0138C18.1725 18.1997 18.0898 18.3449 17.9113 18.4493L14.6085 20.3674C14.43 20.4718 14.2564 20.4881 14.0878 20.4164C13.9192 20.3446 13.8349 20.2076 13.8349 20.0053Z" fill="black" fill-opacity="0.8"/>
</svg>
