<svg width="24" height="24" viewBox="0 0 24 24" fill="none" xmlns="http://www.w3.org/2000/svg">
<path d="M2.4672 17.946H21.5328C22.3455 17.946 22.9599 17.7508 23.376 17.3604C23.792 16.97 24 16.3934 24 15.6306V5.30631C24 4.54955 23.792 3.97598 23.376 3.58558C22.9599 3.19519 22.3455 3 21.5328 3H2.4672C1.6544 3 1.04 3.19519 0.623999 3.58558C0.208 3.97598 0 4.54955 0 5.30631V15.6306C0 16.3934 0.208 16.97 0.623999 17.3604C1.04 17.7508 1.6544 17.946 2.4672 17.946ZM2.49599 16.4955C2.1824 16.4955 1.9456 16.4219 1.7856 16.2748C1.6256 16.1277 1.5456 15.9069 1.5456 15.6126V5.33333C1.5456 5.03904 1.6256 4.81832 1.7856 4.67117C1.9456 4.52402 2.1824 4.45045 2.49599 4.45045H21.504C21.824 4.45045 22.0624 4.52402 22.2191 4.67117C22.376 4.81832 22.4544 5.03904 22.4544 5.33333V15.6126C22.4544 15.9069 22.376 16.1277 22.2191 16.2748C22.0624 16.4219 21.824 16.4955 21.504 16.4955H2.49599ZM7.17119 21H16.8287C17.04 21 17.2224 20.9295 17.376 20.7884C17.5296 20.6472 17.6064 20.4745 17.6064 20.2703C17.6064 20.0721 17.5296 19.901 17.376 19.7568C17.2224 19.6126 17.04 19.5406 16.8287 19.5406H7.17119C6.95999 19.5406 6.77759 19.6126 6.62399 19.7568C6.47039 19.901 6.39359 20.0721 6.39359 20.2703C6.39359 20.4745 6.47039 20.6472 6.62399 20.7884C6.77759 20.9295 6.95999 21 7.17119 21ZM9.20638 14.4415C9.41758 14.4415 9.58078 14.3799 9.69598 14.2568C9.81121 14.1337 9.86882 13.961 9.86882 13.7388V12.8199H10.56C10.7392 12.8199 10.8832 12.7703 10.9919 12.6712C11.1008 12.5721 11.1552 12.4385 11.1552 12.2703C11.1552 12.1082 11.1008 11.976 10.9919 11.8739C10.8832 11.7718 10.7392 11.7208 10.56 11.7208H9.86882V7.3964C9.86882 7.13214 9.76961 6.91893 9.57119 6.75676C9.37278 6.5946 9.11358 6.51352 8.79358 6.51352C8.48638 6.51352 8.22719 6.56908 8.01599 6.68019C7.80479 6.7913 7.60959 6.97298 7.43038 7.22524C7.19999 7.55557 6.95839 7.89791 6.70559 8.25227C6.45279 8.60662 6.20159 8.95947 5.95199 9.31083C5.70239 9.66218 5.46399 10.0045 5.23679 10.3379C5.00959 10.6712 4.80319 10.982 4.6176 11.2703C4.528 11.4024 4.4656 11.5256 4.4304 11.6397C4.39519 11.7538 4.37759 11.8739 4.37759 12C4.37759 12.2463 4.46079 12.4445 4.62719 12.5946C4.79359 12.7448 5.02079 12.8199 5.30879 12.8199H8.55359V13.7388C8.55359 13.955 8.61119 14.1261 8.72638 14.2523C8.84158 14.3784 9.00158 14.4415 9.20638 14.4415ZM8.55359 11.7208H5.6928V11.6667C5.82719 11.4445 5.98079 11.2042 6.15359 10.946C6.32639 10.6877 6.50879 10.4189 6.70079 10.1397C6.89279 9.86038 7.08959 9.57509 7.29119 9.2838C7.49279 8.99251 7.69439 8.70572 7.89599 8.42343C8.09759 8.14115 8.29438 7.86488 8.48638 7.59461H8.55359V11.7208ZM13.0368 14.3964C13.2544 14.3964 13.4224 14.3348 13.5408 14.2117C13.6592 14.0886 13.7184 13.913 13.7184 13.6847V11.8919L14.8704 10.7658L17.5392 14.0901C17.6288 14.1982 17.7216 14.2763 17.8176 14.3243C17.9136 14.3724 18.0192 14.3964 18.1344 14.3964C18.32 14.3964 18.472 14.3408 18.5903 14.2298C18.7088 14.1186 18.768 13.979 18.768 13.8109C18.768 13.7268 18.7504 13.6427 18.7152 13.5585C18.68 13.4745 18.6336 13.3964 18.576 13.3243L15.84 9.97299L18.3552 7.54055C18.432 7.47448 18.4864 7.40541 18.5184 7.33334C18.5504 7.26127 18.5664 7.18019 18.5664 7.0901C18.5664 6.94596 18.5087 6.82283 18.3935 6.72073C18.2784 6.61863 18.1376 6.56758 17.9711 6.56758C17.8623 6.56758 17.7695 6.5871 17.6927 6.62613C17.616 6.66517 17.5264 6.73274 17.424 6.82884L13.8336 10.2523H13.7184V7.27929C13.7184 7.05106 13.6592 6.87539 13.5408 6.75226C13.4224 6.62914 13.2544 6.56758 13.0368 6.56758C12.832 6.56758 12.672 6.63064 12.5567 6.75676C12.4416 6.88289 12.384 7.05707 12.384 7.27929V13.6847C12.384 13.907 12.4416 14.0811 12.5567 14.2073C12.672 14.3333 12.832 14.3964 13.0368 14.3964Z" fill="black" fill-opacity="0.8"/>
</svg>
