<svg width="24" height="24" viewBox="0 0 24 24" fill="none" xmlns="http://www.w3.org/2000/svg">
<path d="M4 17.7598C4 18.6229 4.18924 19.3718 4.56771 20.0066C4.94618 20.6413 5.47916 21.1323 6.16667 21.4794C6.85417 21.8265 7.6632 22 8.59375 22C9.64236 22 10.5556 21.7952 11.3333 21.3856C12.1111 20.9759 12.7465 20.374 13.2396 19.5798L14.1771 18.0694C14.5382 17.4628 14.9323 16.9327 15.3594 16.4793C15.7865 16.0259 16.2187 15.6085 16.6562 15.227C17.0938 14.8455 17.5122 14.4656 17.9115 14.0872C18.3108 13.7089 18.6667 13.3008 18.9792 12.8631C19.2917 12.4253 19.5399 11.9203 19.7239 11.348C19.908 10.7758 20 10.1019 20 9.32646C20 7.86304 19.6719 6.58256 19.0156 5.48499C18.3594 4.38743 17.4393 3.53221 16.2553 2.91932C15.0712 2.30644 13.691 2 12.1146 2C10.4965 2 9.07986 2.30801 7.86459 2.92402C6.6493 3.54003 5.70139 4.39994 5.02083 5.50375C4.34028 6.60757 4 7.89431 4 9.36399V17.7598ZM5.57292 17.6661V9.36399C5.57292 8.16949 5.84549 7.12664 6.39062 6.23546C6.93576 5.34428 7.69965 4.65166 8.68229 4.1576C9.66493 3.66354 10.809 3.41651 12.1146 3.41651C13.3785 3.41651 14.4844 3.66354 15.4323 4.1576C16.3802 4.65166 17.1163 5.34272 17.6406 6.23077C18.1649 7.11883 18.4271 8.15072 18.4271 9.32646C18.4271 9.97687 18.342 10.5475 18.1718 11.0385C18.0017 11.5294 17.7674 11.975 17.4688 12.3753C17.1701 12.7755 16.8298 13.1554 16.4479 13.515C16.066 13.8746 15.6649 14.2436 15.2448 14.6219C14.8247 15.0003 14.4028 15.4162 13.9792 15.8696C13.5556 16.323 13.1528 16.8437 12.7708 17.4316L11.8646 18.8293C11.4965 19.4109 11.0503 19.8424 10.526 20.1239C10.0017 20.4052 9.38195 20.5459 8.66667 20.5459C7.70833 20.5459 6.95312 20.2896 6.40105 19.7768C5.84896 19.264 5.57292 18.5604 5.57292 17.6661ZM7.20833 15.0301C7.20833 15.5179 7.39409 15.9103 7.76562 16.2073C8.13715 16.5044 8.62847 16.6529 9.23958 16.6529C10.0243 16.6466 10.6615 16.3808 11.151 15.8555C11.6406 15.3302 11.8854 14.6892 11.8854 13.9325C11.8854 13.3571 11.7795 12.8724 11.5677 12.4784C11.3559 12.0845 11.0972 11.7436 10.7917 11.4559C10.4861 11.1682 10.1788 10.8993 9.86979 10.6492C9.56076 10.399 9.30208 10.1363 9.09375 9.86116C8.88542 9.586 8.78125 9.25767 8.78125 8.87617C8.78125 8.38212 8.92014 7.94278 9.19792 7.55816C9.47569 7.17355 9.86284 6.87024 10.3594 6.64822C10.8559 6.42621 11.4375 6.3152 12.1042 6.3152C13.1111 6.3152 13.9167 6.58725 14.5208 7.13134C15.125 7.67543 15.4271 8.40088 15.4271 9.30769C15.4271 9.50157 15.5052 9.66886 15.6614 9.80957C15.8177 9.95029 16 10.0206 16.2083 10.0206C16.4236 10.0206 16.6094 9.95029 16.7657 9.80957C16.9219 9.66886 17 9.50157 17 9.30769C17 8.4259 16.7951 7.6551 16.3854 6.99532C15.9757 6.33553 15.4046 5.82114 14.6719 5.45216C13.9392 5.08318 13.0833 4.89869 12.1042 4.89869C11.125 4.89869 10.2691 5.06911 9.53646 5.40994C8.80382 5.75078 8.23264 6.21983 7.82291 6.81708C7.41319 7.41433 7.20833 8.10069 7.20833 8.87617C7.20833 9.38274 7.31597 9.81583 7.53125 10.1754C7.74653 10.535 7.99479 10.8446 8.27604 11.1041C8.55729 11.3637 8.80556 11.6029 9.02083 11.8218C9.23611 12.0406 9.34375 12.2627 9.34375 12.4878C9.34375 12.688 9.27084 12.8506 9.125 12.9756C8.97917 13.1007 8.80035 13.2148 8.58854 13.318C8.37674 13.4212 8.16493 13.5385 7.95312 13.6698C7.74132 13.8011 7.56423 13.9731 7.42188 14.1857C7.27951 14.3984 7.20833 14.6798 7.20833 15.0301Z" fill="black" fill-opacity="0.8"/>
</svg>
