<svg width="24" height="24" viewBox="0 0 24 24" fill="none" xmlns="http://www.w3.org/2000/svg">
<path d="M22.896 15.2072L17.184 10.1802C16.9728 9.99401 16.744 9.85587 16.4975 9.76578C16.2511 9.67569 15.9968 9.63065 15.7344 9.63065C15.472 9.63065 15.2208 9.67419 14.9808 9.76128C14.7408 9.84836 14.5119 9.985 14.2944 10.1712L9.35998 14.3063H9.78238L7.41119 12.2974C7.21279 12.1292 7.00479 12.0015 6.78719 11.9144C6.56959 11.8273 6.34879 11.7838 6.12479 11.7838C5.90719 11.7838 5.69439 11.8258 5.48639 11.9099C5.27839 11.994 5.07839 12.1202 4.88639 12.2883L1.21919 15.3964C1.21919 15.997 1.34399 16.4505 1.59359 16.7568C1.84319 17.0631 2.2144 17.2163 2.7072 17.2163H20.9856C21.6 17.2163 22.072 17.0421 22.4016 16.6937C22.7312 16.3454 22.896 15.8499 22.896 15.2072ZM7.82398 10.2883C8.23358 10.2883 8.60798 10.1922 8.94718 10C9.28638 9.80783 9.55838 9.54957 9.76318 9.22524C9.96796 8.90092 10.0703 8.54055 10.0703 8.14416C10.0703 7.75977 9.96796 7.40692 9.76318 7.0856C9.55838 6.76427 9.28638 6.50752 8.94718 6.31533C8.60798 6.12313 8.23358 6.02704 7.82398 6.02704C7.40799 6.02704 7.02719 6.12313 6.68159 6.31533C6.33599 6.50752 6.06079 6.76427 5.85599 7.0856C5.65119 7.40692 5.54879 7.75977 5.54879 8.14416C5.54879 8.54055 5.65119 8.90092 5.85599 9.22524C6.06079 9.54957 6.33599 9.80783 6.68159 10C7.02719 10.1922 7.40799 10.2883 7.82398 10.2883ZM2.4672 17.946H21.5328C22.3455 17.946 22.9599 17.7508 23.376 17.3604C23.792 16.97 24 16.3934 24 15.6306V5.30631C24 4.54955 23.792 3.97598 23.376 3.58558C22.9599 3.19519 22.3455 3 21.5328 3H2.4672C1.6544 3 1.04 3.19519 0.623999 3.58558C0.208 3.97598 0 4.54955 0 5.30631V15.6306C0 16.3934 0.208 16.97 0.623999 17.3604C1.04 17.7508 1.6544 17.946 2.4672 17.946ZM2.49599 16.4955C2.1824 16.4955 1.9456 16.4219 1.7856 16.2748C1.6256 16.1277 1.5456 15.9069 1.5456 15.6126V5.33333C1.5456 5.03904 1.6256 4.81832 1.7856 4.67117C1.9456 4.52402 2.1824 4.45045 2.49599 4.45045H21.504C21.824 4.45045 22.0624 4.52402 22.2191 4.67117C22.376 4.81832 22.4544 5.03904 22.4544 5.33333V15.6126C22.4544 15.9069 22.376 16.1277 22.2191 16.2748C22.0624 16.4219 21.824 16.4955 21.504 16.4955H2.49599ZM7.17119 21H16.8287C17.04 21 17.2224 20.9295 17.376 20.7884C17.5296 20.6472 17.6064 20.4745 17.6064 20.2703C17.6064 20.0721 17.5296 19.901 17.376 19.7568C17.2224 19.6126 17.04 19.5406 16.8287 19.5406H7.17119C6.95999 19.5406 6.77759 19.6126 6.62399 19.7568C6.47039 19.901 6.39359 20.0721 6.39359 20.2703C6.39359 20.4745 6.47039 20.6472 6.62399 20.7884C6.77759 20.9295 6.95999 21 7.17119 21Z" fill="black" fill-opacity="0.8"/>
</svg>
