<svg width="24" height="24" viewBox="0 0 24 24" fill="none" xmlns="http://www.w3.org/2000/svg">
<path d="M2.4672 17.946H21.5328C22.3455 17.946 22.9599 17.7508 23.376 17.3604C23.792 16.97 24 16.3934 24 15.6306V5.30631C24 4.54955 23.792 3.97598 23.376 3.58558C22.9599 3.19519 22.3455 3 21.5328 3H2.4672C1.6544 3 1.04 3.19519 0.623999 3.58558C0.208 3.97598 0 4.54955 0 5.30631V15.6306C0 16.3934 0.208 16.97 0.623999 17.3604C1.04 17.7508 1.6544 17.946 2.4672 17.946ZM2.49599 16.4955C2.1824 16.4955 1.9456 16.4219 1.7856 16.2748C1.6256 16.1277 1.5456 15.9069 1.5456 15.6126V5.33333C1.5456 5.03904 1.6256 4.81832 1.7856 4.67117C1.9456 4.52402 2.1824 4.45045 2.49599 4.45045H21.504C21.824 4.45045 22.0624 4.52402 22.2191 4.67117C22.376 4.81832 22.4544 5.03904 22.4544 5.33333V15.6126C22.4544 15.9069 22.376 16.1277 22.2191 16.2748C22.0624 16.4219 21.824 16.4955 21.504 16.4955H2.49599ZM7.17119 21H16.8287C17.04 21 17.2224 20.9295 17.376 20.7884C17.5296 20.6472 17.6064 20.4745 17.6064 20.2703C17.6064 20.0721 17.5296 19.901 17.376 19.7568C17.2224 19.6126 17.04 19.5406 16.8287 19.5406H7.17119C6.95999 19.5406 6.77759 19.6126 6.62399 19.7568C6.47039 19.901 6.39359 20.0721 6.39359 20.2703C6.39359 20.4745 6.47039 20.6472 6.62399 20.7884C6.77759 20.9295 6.95999 21 7.17119 21ZM14.8991 8.82885C15.1296 8.77479 15.2864 8.70722 15.3696 8.62614C15.4528 8.54505 15.4944 8.37238 15.4944 8.10812V6.34235C15.4944 6.16818 15.4528 6.04655 15.3696 5.97749C15.2864 5.90841 15.1168 5.90391 14.8608 5.96397L12.0576 6.61262C11.8208 6.66667 11.6656 6.73574 11.592 6.81983C11.5184 6.90391 11.4816 7.08109 11.4816 7.35136V11.4054C11.4816 11.6096 11.4544 11.7448 11.4 11.8108C11.3456 11.8769 11.1968 11.943 10.9536 12.0091L10.0703 12.2252C9.63517 12.3333 9.25919 12.5135 8.94239 12.7658C8.62559 13.018 8.46719 13.3664 8.46719 13.8109C8.46719 14.1952 8.60958 14.5106 8.89438 14.7568C9.17918 15.0031 9.56478 15.1262 10.0512 15.1262C10.736 15.1262 11.2896 14.919 11.712 14.5045C12.1344 14.0901 12.3456 13.5556 12.3456 12.9009V9.80182C12.3456 9.63966 12.368 9.52854 12.4128 9.46849C12.4576 9.40842 12.5344 9.36638 12.6432 9.34236L14.8991 8.82885Z" fill="black" fill-opacity="0.8"/>
</svg>
