<svg width="24" height="24" viewBox="0 0 24 24" fill="none" xmlns="http://www.w3.org/2000/svg">
<path d="M2.4672 17.946H21.5328C22.3455 17.946 22.9599 17.7508 23.376 17.3604C23.792 16.97 24 16.3934 24 15.6306V5.30631C24 4.54955 23.792 3.97598 23.376 3.58558C22.9599 3.19519 22.3455 3 21.5328 3H2.4672C1.6544 3 1.04 3.19519 0.623999 3.58558C0.208 3.97598 0 4.54955 0 5.30631V15.6306C0 16.3934 0.208 16.97 0.623999 17.3604C1.04 17.7508 1.6544 17.946 2.4672 17.946ZM2.49599 16.4955C2.1824 16.4955 1.9456 16.4219 1.7856 16.2748C1.6256 16.1277 1.5456 15.9069 1.5456 15.6126V5.33333C1.5456 5.03904 1.6256 4.81832 1.7856 4.67117C1.9456 4.52402 2.1824 4.45045 2.49599 4.45045H21.504C21.824 4.45045 22.0624 4.52402 22.2191 4.67117C22.376 4.81832 22.4544 5.03904 22.4544 5.33333V15.6126C22.4544 15.9069 22.376 16.1277 22.2191 16.2748C22.0624 16.4219 21.824 16.4955 21.504 16.4955H2.49599ZM7.17119 21H16.8287C17.04 21 17.2224 20.9295 17.376 20.7884C17.5296 20.6472 17.6064 20.4745 17.6064 20.2703C17.6064 20.0721 17.5296 19.901 17.376 19.7568C17.2224 19.6126 17.04 19.5406 16.8287 19.5406H7.17119C6.95999 19.5406 6.77759 19.6126 6.62399 19.7568C6.47039 19.901 6.39359 20.0721 6.39359 20.2703C6.39359 20.4745 6.47039 20.6472 6.62399 20.7884C6.77759 20.9295 6.95999 21 7.17119 21ZM8.88959 14.1982C8.88959 14.4445 8.99839 14.6066 9.21599 14.6847C9.43358 14.7628 9.64477 14.7478 9.84955 14.6397L16.512 10.955C16.7104 10.8409 16.808 10.6802 16.8047 10.473C16.8015 10.2658 16.7007 10.1081 16.5024 10L9.84955 6.31533C9.64477 6.20722 9.43358 6.1922 9.21599 6.27028C8.99839 6.34835 8.88959 6.51052 8.88959 6.75676V14.1982Z" fill="black" fill-opacity="0.8"/>
</svg>
