<svg width="24" height="24" viewBox="0 0 24 24" fill="none" xmlns="http://www.w3.org/2000/svg">
<path d="M2.4672 17.946H21.5328C22.3455 17.946 22.9599 17.7508 23.376 17.3604C23.792 16.97 24 16.3934 24 15.6306V5.30631C24 4.54955 23.792 3.97598 23.376 3.58558C22.9599 3.19519 22.3455 3 21.5328 3H2.4672C1.6544 3 1.04 3.19519 0.623999 3.58558C0.208 3.97598 0 4.54955 0 5.30631V15.6306C0 16.3934 0.208 16.97 0.623999 17.3604C1.04 17.7508 1.6544 17.946 2.4672 17.946ZM2.49599 16.4955C2.1824 16.4955 1.9456 16.4219 1.7856 16.2748C1.6256 16.1277 1.5456 15.9069 1.5456 15.6126V5.33333C1.5456 5.03904 1.6256 4.81832 1.7856 4.67117C1.9456 4.52402 2.1824 4.45045 2.49599 4.45045H21.504C21.824 4.45045 22.0624 4.52402 22.2191 4.67117C22.376 4.81832 22.4544 5.03904 22.4544 5.33333V15.6126C22.4544 15.9069 22.376 16.1277 22.2191 16.2748C22.0624 16.4219 21.824 16.4955 21.504 16.4955H2.49599ZM7.17119 21H16.8287C17.04 21 17.2224 20.9295 17.376 20.7884C17.5296 20.6472 17.6064 20.4745 17.6064 20.2703C17.6064 20.0721 17.5296 19.901 17.376 19.7568C17.2224 19.6126 17.04 19.5406 16.8287 19.5406H7.17119C6.95999 19.5406 6.77759 19.6126 6.62399 19.7568C6.47039 19.901 6.39359 20.0721 6.39359 20.2703C6.39359 20.4745 6.47039 20.6472 6.62399 20.7884C6.77759 20.9295 6.95999 21 7.17119 21ZM12.48 14.1171C12.6592 14.1171 12.7744 14.021 12.8256 13.8288C12.928 13.2943 13.0304 12.8424 13.1328 12.473C13.2352 12.1036 13.3632 11.7958 13.5168 11.5496C13.6704 11.3033 13.8704 11.1021 14.1168 10.946C14.3632 10.7898 14.6832 10.6622 15.0768 10.5631C15.4704 10.464 15.9616 10.3784 16.5503 10.3063C16.7616 10.2823 16.8672 10.1742 16.8672 9.982C16.8672 9.79581 16.7616 9.6877 16.5503 9.65767C15.9616 9.57959 15.4688 9.49101 15.0719 9.39191C14.6752 9.29281 14.3488 9.16518 14.0927 9.00902C13.8368 8.85286 13.6304 8.65166 13.4736 8.40542C13.3168 8.15917 13.1904 7.85286 13.0944 7.4865C12.9984 7.12013 12.9088 6.67869 12.8256 6.16217C12.7872 5.95796 12.672 5.85586 12.48 5.85586C12.2816 5.85586 12.16 5.95496 12.1152 6.15316C12.0128 6.68169 11.9088 7.13064 11.8031 7.50001C11.6976 7.86938 11.5696 8.17719 11.4192 8.42343C11.2688 8.66968 11.0704 8.86938 10.8239 9.02254C10.5776 9.17569 10.2576 9.30031 9.864 9.39641C9.47039 9.49251 8.98238 9.57959 8.39999 9.65767C8.18239 9.6877 8.07359 9.79581 8.07359 9.982C8.07359 10.1682 8.18239 10.2763 8.39999 10.3063C9.13599 10.3784 9.72639 10.479 10.1712 10.6081C10.616 10.7373 10.9616 10.9264 11.208 11.1757C11.4544 11.4249 11.6416 11.7628 11.7696 12.1892C11.8976 12.6156 12.0128 13.1592 12.1152 13.8198C12.1536 14.018 12.2752 14.1171 12.48 14.1171ZM8.69759 15.5766C8.83839 15.5766 8.92479 15.5105 8.95679 15.3784C9.04639 14.94 9.12319 14.6216 9.18718 14.4234C9.25119 14.2253 9.38559 14.0871 9.59039 14.009C9.79521 13.931 10.1504 13.8559 10.6559 13.7838C10.8096 13.7658 10.8864 13.6847 10.8864 13.5406C10.8864 13.3964 10.8096 13.3153 10.6559 13.2973C10.1504 13.2132 9.79521 13.1322 9.59039 13.0541C9.38559 12.976 9.25119 12.8409 9.18718 12.6487C9.12319 12.4565 9.04639 12.1472 8.95679 11.7208C8.92479 11.5706 8.83839 11.4955 8.69759 11.4955C8.55679 11.4955 8.46719 11.5706 8.42879 11.7208C8.33919 12.1472 8.26399 12.4565 8.20319 12.6487C8.14239 12.8409 8.01119 12.976 7.80959 13.0541C7.60799 13.1322 7.25119 13.2132 6.73919 13.2973C6.59199 13.3153 6.51839 13.3964 6.51839 13.5406C6.51839 13.6847 6.59839 13.7658 6.75839 13.7838C7.26399 13.8559 7.61599 13.931 7.81439 14.009C8.01279 14.0871 8.14239 14.2238 8.20319 14.419C8.26399 14.6141 8.33919 14.9249 8.42879 15.3514C8.46719 15.5015 8.55679 15.5766 8.69759 15.5766Z" fill="black" fill-opacity="0.8"/>
</svg>
