<svg width="24" height="24" viewBox="0 0 24 24" fill="none" xmlns="http://www.w3.org/2000/svg">
<path d="M5 19.3935C5 20.1754 5.25945 20.8053 5.77836 21.2833C6.29726 21.7611 6.97875 22 7.82284 22H16.1668C17.0178 22 17.7028 21.7611 18.2217 21.2833C18.7406 20.8053 19 20.1754 19 19.3935V4.60652C19 3.82456 18.7406 3.19465 18.2217 2.71679C17.7028 2.23893 17.0178 2 16.1668 2H7.82284C6.97875 2 6.29726 2.23893 5.77836 2.71679C5.25945 3.19465 5 3.82456 5 4.60652V19.3935ZM6.67088 9.63911V4.86717C6.67088 4.46617 6.78849 4.15706 7.02373 3.93985C7.25896 3.72265 7.59798 3.61404 8.04078 3.61404H15.9593C16.3951 3.61404 16.7324 3.72265 16.9711 3.93985C17.2098 4.15706 17.3292 4.46617 17.3292 4.86717V9.63911C17.3292 10.0468 17.2098 10.3592 16.9711 10.5764C16.7324 10.7937 16.3951 10.9023 15.9593 10.9023H8.04078C7.59798 10.9023 7.25896 10.7937 7.02373 10.5764C6.78849 10.3592 6.67088 10.0468 6.67088 9.63911ZM12.0052 19.985C11.2857 19.985 10.6284 19.8162 10.0334 19.4788C9.43836 19.1412 8.96442 18.6867 8.61157 18.1153C8.25872 17.5439 8.08229 16.9107 8.08229 16.2156C8.08229 15.5138 8.25872 14.8772 8.61157 14.3058C8.96442 13.7343 9.43836 13.2799 10.0334 12.9424C10.6284 12.6049 11.2857 12.4361 12.0052 12.4361C12.7248 12.4361 13.3803 12.6049 13.9718 12.9424C14.5634 13.2799 15.0356 13.7343 15.3885 14.3058C15.7413 14.8772 15.9177 15.5138 15.9177 16.2156C15.9177 16.9107 15.7413 17.5439 15.3885 18.1153C15.0356 18.6867 14.5634 19.1412 13.9718 19.4788C13.3803 19.8162 12.7248 19.985 12.0052 19.985ZM12.0052 18.5715C11.5486 18.5715 11.1352 18.4645 10.765 18.2507C10.3949 18.0368 10.0991 17.7511 9.87769 17.3935C9.65629 17.036 9.5456 16.6433 9.5456 16.2156C9.5456 15.7812 9.65629 15.3851 9.87769 15.0276C10.0991 14.67 10.3949 14.3843 10.765 14.1705C11.1352 13.9566 11.5486 13.8497 12.0052 13.8497C12.4549 13.8497 12.8649 13.9566 13.235 14.1705C13.6052 14.3843 13.8992 14.67 14.1171 15.0276C14.3351 15.3851 14.4441 15.7812 14.4441 16.2156C14.4441 16.6433 14.3351 17.036 14.1171 17.3935C13.8992 17.7511 13.6052 18.0368 13.235 18.2507C12.8649 18.4645 12.4549 18.5715 12.0052 18.5715Z" fill="black" fill-opacity="0.8"/>
</svg>
