<svg width="24" height="24" viewBox="0 0 24 24" fill="none" xmlns="http://www.w3.org/2000/svg">
<path d="M5 15.7786C5 16.501 5.14322 17.1238 5.42965 17.6469C5.71609 18.17 6.13287 18.5779 6.68 18.8706C6.9439 19.0076 7.15792 19.1711 7.32206 19.361C7.4862 19.551 7.61655 19.8017 7.71309 20.113L8.02206 21.1126C8.20229 21.7042 8.6239 22 9.28689 22H13.7476C14.4041 22 14.8225 21.7042 15.0027 21.1126L15.3214 20.113C15.4179 19.8017 15.5482 19.551 15.7124 19.361C15.8765 19.1711 16.0906 19.0076 16.3545 18.8706C16.9016 18.5779 17.3184 18.17 17.6048 17.6469C17.8912 17.1238 18.0344 16.501 18.0344 15.7786V8.2214C18.0344 7.49899 17.8912 6.87622 17.6048 6.35311C17.3184 5.82999 16.9016 5.42208 16.3545 5.12938C16.0906 4.99237 15.8765 4.8289 15.7124 4.63896C15.5482 4.44901 15.4179 4.20146 15.3214 3.89631L15.0027 2.88744C14.8354 2.29581 14.417 2 13.7476 2H9.28689C8.6239 2 8.20229 2.29581 8.02206 2.88744L7.71309 3.89631C7.62298 4.20146 7.49585 4.45057 7.33172 4.64362C7.16758 4.83668 6.95034 4.9986 6.68 5.12938C6.13931 5.40962 5.72414 5.81286 5.43448 6.33909C5.14483 6.86533 5 7.49276 5 8.2214V15.7786ZM6.40965 15.5824V8.4269C6.40965 7.72941 6.60758 7.18294 7.00344 6.78748C7.3993 6.39203 7.95125 6.19431 8.6593 6.19431H14.3751C15.0832 6.19431 15.6351 6.39203 16.031 6.78748C16.4268 7.18294 16.6248 7.72941 16.6248 8.4269V15.5824C16.6248 16.2737 16.4268 16.8171 16.031 17.2125C15.6351 17.6079 15.0832 17.8057 14.3751 17.8057H8.6593C7.95125 17.8057 7.3993 17.6079 7.00344 17.2125C6.60758 16.8171 6.40965 16.2737 6.40965 15.5824ZM17.8221 11.3414H18.1696C18.4207 11.3414 18.6218 11.2651 18.7731 11.1126C18.9244 10.96 19 10.7498 19 10.482V9.22093C19 8.95314 18.9244 8.74296 18.7731 8.59038C18.6218 8.4378 18.4207 8.36151 18.1696 8.36151H17.8221V11.3414ZM8.67861 10.015C8.56275 10.1457 8.51286 10.2983 8.52896 10.4727C8.54505 10.6471 8.6239 10.7934 8.7655 10.9117L10.7448 12.5185C10.9508 12.6866 11.1535 12.7707 11.3531 12.7707C11.5526 12.7707 11.7522 12.6866 11.9517 12.5185L15.3214 9.66932C15.4565 9.55722 15.5241 9.41243 15.5241 9.23494C15.5241 9.05745 15.4597 8.90332 15.331 8.77254C15.2087 8.65421 15.0591 8.59505 14.882 8.59505C14.705 8.59505 14.5489 8.65421 14.4138 8.77254L11.3338 11.3601L9.58619 9.93088C9.45102 9.82501 9.29493 9.77985 9.11792 9.79542C8.9409 9.81099 8.79447 9.88417 8.67861 10.015Z" fill="black" fill-opacity="0.8"/>
</svg>
