<svg width="24" height="24" viewBox="0 0 24 24" fill="none" xmlns="http://www.w3.org/2000/svg">
<path d="M5 15.7786C5 16.501 5.14322 17.1238 5.42965 17.6469C5.71609 18.17 6.13287 18.5779 6.68 18.8706C6.9439 19.0076 7.15792 19.1711 7.32206 19.361C7.4862 19.551 7.61655 19.8017 7.71309 20.113L8.02206 21.1126C8.20229 21.7042 8.6239 22 9.28689 22H13.7476C14.4041 22 14.8225 21.7042 15.0027 21.1126L15.3214 20.113C15.4179 19.8017 15.5482 19.551 15.7124 19.361C15.8765 19.1711 16.0906 19.0076 16.3545 18.8706C16.9016 18.5779 17.3184 18.17 17.6048 17.6469C17.8912 17.1238 18.0344 16.501 18.0344 15.7786V8.2214C18.0344 7.49899 17.8912 6.87622 17.6048 6.35311C17.3184 5.82999 16.9016 5.42208 16.3545 5.12938C16.0906 4.99237 15.8765 4.8289 15.7124 4.63896C15.5482 4.44901 15.4179 4.20146 15.3214 3.89631L15.0027 2.88744C14.8354 2.29581 14.417 2 13.7476 2H9.28689C8.6239 2 8.20229 2.29581 8.02206 2.88744L7.71309 3.89631C7.62298 4.20146 7.49585 4.45057 7.33172 4.64362C7.16758 4.83668 6.95034 4.9986 6.68 5.12938C6.13931 5.40962 5.72414 5.81286 5.43448 6.33909C5.14483 6.86533 5 7.49276 5 8.2214V15.7786ZM6.40965 15.5824V8.4269C6.40965 7.72941 6.60758 7.18294 7.00344 6.78748C7.3993 6.39203 7.95125 6.19431 8.6593 6.19431H14.3751C15.0832 6.19431 15.6351 6.39203 16.031 6.78748C16.4268 7.18294 16.6248 7.72941 16.6248 8.4269V15.5824C16.6248 16.2737 16.4268 16.8171 16.031 17.2125C15.6351 17.6079 15.0832 17.8057 14.3751 17.8057H8.6593C7.95125 17.8057 7.3993 17.6079 7.00344 17.2125C6.60758 16.8171 6.40965 16.2737 6.40965 15.5824ZM17.8221 11.3414H18.1696C18.4207 11.3414 18.6218 11.2651 18.7731 11.1126C18.9244 10.96 19 10.7498 19 10.482V9.22093C19 8.95314 18.9244 8.74296 18.7731 8.59038C18.6218 8.4378 18.4207 8.36151 18.1696 8.36151H17.8221V11.3414ZM11.5531 12.8849C12.0006 12.8849 12.2336 12.6477 12.252 12.1732L12.3899 8.90809C12.396 8.66492 12.3179 8.46622 12.1554 8.31201C11.993 8.15781 11.7891 8.08071 11.5439 8.08071C11.2926 8.08071 11.0872 8.15632 10.9278 8.30756C10.7684 8.45881 10.6949 8.65602 10.7071 8.8992L10.8267 12.1732C10.8451 12.6477 11.0872 12.8849 11.5531 12.8849ZM11.5439 15.7229C11.8075 15.7229 12.0389 15.634 12.2382 15.4561C12.4374 15.2781 12.537 15.0587 12.537 14.7978C12.537 14.5367 12.4389 14.3173 12.2428 14.1394C12.0466 13.9614 11.8137 13.8725 11.5439 13.8725C11.2742 13.8725 11.0412 13.9629 10.8451 14.1438C10.6489 14.3247 10.5508 14.5427 10.5508 14.7978C10.5508 15.0528 10.6489 15.2707 10.8451 15.4517C11.0412 15.6325 11.2742 15.7229 11.5439 15.7229Z" fill="black" fill-opacity="0.8"/>
</svg>
