<svg width="24" height="24" viewBox="0 0 24 24" fill="none" xmlns="http://www.w3.org/2000/svg">
<path d="M9.80963 22H14.1387C14.7822 22 15.1882 21.7042 15.3568 21.1126L15.6661 20.113C15.7348 19.8826 15.8191 19.6911 15.9191 19.5386C16.019 19.386 16.1502 19.2474 16.3126 19.1229C16.3314 19.1104 16.3501 19.0964 16.3689 19.0808C16.3876 19.0652 16.4063 19.0481 16.4251 19.0294L15.0851 17.7029C14.929 17.7403 14.765 17.7668 14.5932 17.7823C14.4214 17.7979 14.2418 17.8057 14.0544 17.8057H9.20055C8.51339 17.8057 7.97772 17.6079 7.59354 17.2125C7.20935 16.8171 7.01726 16.2737 7.01726 15.5824V9.96824C7.01726 9.91842 7.01726 9.8686 7.01726 9.81878C7.01726 9.76896 7.02038 9.71913 7.02663 9.66932L5.65856 8.31481C5.65856 8.36463 5.657 8.41757 5.65387 8.47361C5.65075 8.52966 5.64918 8.58571 5.64918 8.64176V15.7786C5.64918 16.501 5.78818 17.1238 6.06617 17.6469C6.34415 18.17 6.74864 18.5779 7.27963 18.8706C7.53575 19.0076 7.74503 19.1711 7.90745 19.361C8.06986 19.551 8.1948 19.8017 8.28226 20.113L8.58211 21.1126C8.75702 21.7042 9.1662 22 9.80963 22ZM9.80963 2C9.1662 2 8.75702 2.29581 8.58211 2.88744L8.28226 3.89631C8.20729 4.14542 8.10422 4.3556 7.97303 4.52686C7.84185 4.69812 7.69817 4.84603 7.542 4.97058L8.87259 6.29706C8.99753 6.25969 9.13028 6.23322 9.27083 6.21766C9.41139 6.20209 9.55663 6.19431 9.70656 6.19431H14.7478C15.435 6.19431 15.9707 6.39203 16.3549 6.78748C16.739 7.18294 16.9311 7.72941 16.9311 8.4269V13.8636C16.9311 13.9383 16.9311 14.0131 16.9311 14.0878C16.9311 14.1625 16.9311 14.2373 16.9311 14.312L18.2804 15.6665C18.2867 15.5606 18.2914 15.4532 18.2945 15.3442C18.2976 15.2353 18.2991 15.1247 18.2991 15.0126V8.2214C18.2991 7.49899 18.1602 6.87622 17.8822 6.35311C17.6042 5.82999 17.1997 5.42208 16.6687 5.12938C16.4126 4.99237 16.2033 4.8289 16.0409 4.63896C15.8785 4.44901 15.7535 4.20146 15.6661 3.89631L15.3568 2.88744C15.182 2.29581 14.7759 2 14.1387 2H9.80963ZM18.093 11.3414H18.4304C18.674 11.3414 18.8692 11.2651 19.016 11.1126C19.1628 10.96 19.2362 10.7498 19.2362 10.482V9.22093C19.2362 8.95314 19.1628 8.74296 19.016 8.59038C18.8692 8.4378 18.674 8.36151 18.4304 8.36151H18.093V11.3414ZM18.7677 19.7581C18.9113 19.9013 19.0831 19.9729 19.283 19.9729C19.4829 19.9729 19.6516 19.9013 19.7891 19.7581C19.9265 19.6211 19.9968 19.4529 19.9999 19.2536C20.003 19.0543 19.9328 18.8831 19.7891 18.7398L5.23689 4.24194C5.09321 4.10494 4.92142 4.03488 4.72152 4.03176C4.52162 4.02865 4.34983 4.09871 4.20615 4.24194C4.06872 4.37895 4 4.54865 4 4.75105C4 4.95345 4.06872 5.12315 4.20615 5.26016L18.7677 19.7581Z" fill="black" fill-opacity="0.8"/>
</svg>
