<svg width="24" height="24" viewBox="0 0 24 24" fill="none" xmlns="http://www.w3.org/2000/svg">
<path d="M5 15.7786C5 16.501 5.14322 17.1238 5.42965 17.6469C5.71609 18.17 6.13287 18.5779 6.68 18.8706C6.9439 19.0076 7.15792 19.1711 7.32206 19.361C7.4862 19.551 7.61655 19.8017 7.71309 20.113L8.02206 21.1126C8.20229 21.7042 8.6239 22 9.28689 22H13.7476C14.4041 22 14.8225 21.7042 15.0027 21.1126L15.3214 20.113C15.4179 19.8017 15.5482 19.551 15.7124 19.361C15.8765 19.1711 16.0906 19.0076 16.3545 18.8706C16.9016 18.5779 17.3184 18.17 17.6048 17.6469C17.8912 17.1238 18.0344 16.501 18.0344 15.7786V8.2214C18.0344 7.49899 17.8912 6.87622 17.6048 6.35311C17.3184 5.82999 16.9016 5.42208 16.3545 5.12938C16.0906 4.99237 15.8765 4.8289 15.7124 4.63896C15.5482 4.44901 15.4179 4.20146 15.3214 3.89631L15.0027 2.88744C14.8354 2.29581 14.417 2 13.7476 2H9.28689C8.6239 2 8.20229 2.29581 8.02206 2.88744L7.71309 3.89631C7.62298 4.20146 7.49585 4.45057 7.33172 4.64362C7.16758 4.83668 6.95034 4.9986 6.68 5.12938C6.13931 5.40962 5.72414 5.81286 5.43448 6.33909C5.14483 6.86533 5 7.49276 5 8.2214V15.7786ZM6.40965 15.5824V8.4269C6.40965 7.72941 6.60758 7.18294 7.00344 6.78748C7.3993 6.39203 7.95125 6.19431 8.6593 6.19431H14.3751C15.0832 6.19431 15.6351 6.39203 16.031 6.78748C16.4268 7.18294 16.6248 7.72941 16.6248 8.4269V15.5824C16.6248 16.2737 16.4268 16.8171 16.031 17.2125C15.6351 17.6079 15.0832 17.8057 14.3751 17.8057H8.6593C7.95125 17.8057 7.3993 17.6079 7.00344 17.2125C6.60758 16.8171 6.40965 16.2737 6.40965 15.5824ZM17.8221 11.3414H18.1696C18.4207 11.3414 18.6218 11.2651 18.7731 11.1126C18.9244 10.96 19 10.7498 19 10.482V9.22093C19 8.95314 18.9244 8.74296 18.7731 8.59038C18.6218 8.4378 18.4207 8.36151 18.1696 8.36151H17.8221V11.3414ZM9.90192 15.1777H13.1805C13.7056 15.1777 13.9681 14.91 13.9681 14.3745V11.9336C13.9681 11.5285 13.8085 11.2745 13.4892 11.1715V10.533C13.4892 9.90136 13.31 9.38986 12.9516 8.99851C12.5932 8.60715 12.1231 8.41148 11.5412 8.41148C10.9593 8.41148 10.4891 8.60715 10.1308 8.99851C9.77241 9.38986 9.59323 9.90136 9.59323 10.533V11.1818C9.27389 11.278 9.11422 11.5285 9.11422 11.9336V14.3745C9.11422 14.91 9.37679 15.1777 9.90192 15.1777ZM10.5512 11.1406V10.4506C10.5512 10.1073 10.6417 9.8327 10.8227 9.62673C11.0036 9.42075 11.2431 9.31776 11.5412 9.31776C11.8392 9.31776 12.0787 9.42075 12.2597 9.62673C12.4407 9.8327 12.5311 10.1073 12.5311 10.4506V11.1406H10.5512Z" fill="black" fill-opacity="0.8"/>
</svg>
