<svg width="24" height="24" viewBox="0 0 24 24" fill="none" xmlns="http://www.w3.org/2000/svg">
<path d="M2.89681 17.1005C3.01688 16.9659 3.06316 16.8165 3.03565 16.652C3.00813 16.4877 2.92682 16.3282 2.79174 16.1737C2.28642 15.6158 1.89868 14.9793 1.62852 14.2644C1.35835 13.5494 1.22327 12.7909 1.22327 11.9888C1.22327 11.1817 1.35835 10.4219 1.62852 9.70949C1.89868 8.99705 2.28642 8.36183 2.79174 7.80383C2.92682 7.64939 3.00813 7.48996 3.03565 7.32555C3.06316 7.16114 3.01688 7.01168 2.89681 6.87717C2.77673 6.73767 2.62539 6.66916 2.44277 6.67165C2.26016 6.67414 2.09631 6.7551 1.95122 6.91453C1.32583 7.58711 0.844277 8.35934 0.506566 9.23121C0.168855 10.1031 0 11.0223 0 11.9888C0 12.9553 0.168855 13.8733 0.506566 14.7426C0.844277 15.612 1.32583 16.3855 1.95122 17.063C2.09631 17.2175 2.26016 17.2972 2.44277 17.3022C2.62539 17.3072 2.77673 17.2399 2.89681 17.1005ZM4.99812 14.9706C5.11819 14.8361 5.16197 14.6879 5.12945 14.5259C5.09693 14.364 5.02063 14.2033 4.90056 14.0439C4.67542 13.7649 4.50781 13.4498 4.39775 13.0986C4.28768 12.7473 4.23264 12.3774 4.23264 11.9888C4.23264 11.6002 4.28768 11.2303 4.39775 10.879C4.50781 10.5278 4.67542 10.2127 4.90056 9.93369C5.02063 9.76928 5.09693 9.60736 5.12945 9.44793C5.16197 9.2885 5.11819 9.14153 4.99812 9.00701C4.87304 8.86751 4.71419 8.79901 4.52157 8.80151C4.32895 8.804 4.1676 8.88994 4.03752 9.05933C3.71232 9.46288 3.45966 9.91501 3.27955 10.4157C3.09944 10.9164 3.00938 11.4408 3.00938 11.9888C3.00938 12.5368 3.09944 13.0612 3.27955 13.5619C3.45966 14.0626 3.71232 14.5147 4.03752 14.9183C4.1676 15.0876 4.32895 15.1736 4.52157 15.1761C4.71419 15.1786 4.87304 15.1101 4.99812 14.9706ZM21.1031 17.1005C21.2232 17.2399 21.3758 17.3072 21.5609 17.3022C21.7461 17.2972 21.9112 17.2175 22.0563 17.063C22.6767 16.3855 23.1557 15.612 23.4934 14.7426C23.8311 13.8733 24 12.9553 24 11.9888C24 11.0223 23.8311 10.1031 23.4934 9.23121C23.1557 8.35934 22.6767 7.58711 22.0563 6.91453C21.9112 6.7551 21.7461 6.67414 21.5609 6.67165C21.3758 6.66916 21.2232 6.73767 21.1031 6.87717C20.9831 7.01168 20.9368 7.16114 20.9644 7.32555C20.9919 7.48996 21.0732 7.64939 21.2083 7.80383C21.7136 8.36183 22.1013 8.99705 22.3714 9.70949C22.6416 10.4219 22.7767 11.1817 22.7767 11.9888C22.7767 12.7909 22.6416 13.5494 22.3714 14.2644C22.1013 14.9793 21.7136 15.6158 21.2083 16.1737C21.0732 16.3282 20.9919 16.4877 20.9644 16.652C20.9368 16.8165 20.9831 16.9659 21.1031 17.1005ZM19.0019 14.9706C19.1269 15.1101 19.2858 15.1786 19.4784 15.1761C19.6711 15.1736 19.8324 15.0876 19.9625 14.9183C20.2927 14.5147 20.5478 14.0626 20.728 13.5619C20.908 13.0612 20.9981 12.5368 20.9981 11.9888C20.9981 11.4408 20.908 10.9164 20.728 10.4157C20.5478 9.91501 20.2927 9.46288 19.9625 9.05933C19.8324 8.88994 19.6711 8.804 19.4784 8.80151C19.2858 8.79901 19.1269 8.86751 19.0019 9.00701C18.8818 9.14153 18.838 9.2885 18.8706 9.44793C18.903 9.60736 18.9793 9.76928 19.0994 9.93369C19.3246 10.2127 19.4934 10.5278 19.606 10.879C19.7185 11.2303 19.7748 11.6002 19.7748 11.9888C19.7748 12.3774 19.7185 12.7473 19.606 13.0986C19.4934 13.4498 19.3246 13.7649 19.0994 14.0439C18.9793 14.2033 18.903 14.364 18.8706 14.5259C18.838 14.6879 18.8818 14.8361 19.0019 14.9706ZM6.7242 15.0229C6.7242 15.6008 6.83552 16.099 7.05815 16.5176C7.28079 16.9361 7.60474 17.2624 8.03 17.4965C8.23513 17.6061 8.40148 17.7369 8.52905 17.8888C8.65667 18.0408 8.75798 18.2414 8.83298 18.4905L9.07313 19.2901C9.21325 19.7634 9.54096 20 10.0562 20H13.5235C14.0338 20 14.359 19.7634 14.4991 19.2901L14.7467 18.4905C14.8217 18.2414 14.9231 18.0408 15.0507 17.8888C15.1782 17.7369 15.3446 17.6061 15.5497 17.4965C15.975 17.2624 16.2989 16.9361 16.5215 16.5176C16.7442 16.099 16.8555 15.6008 16.8555 15.0229V8.97712C16.8555 8.3992 16.7442 7.90098 16.5215 7.48249C16.2989 7.06399 15.975 6.73767 15.5497 6.50351C15.3446 6.3939 15.1782 6.26312 15.0507 6.11117C14.9231 5.95921 14.8217 5.76117 14.7467 5.51705L14.4991 4.70995C14.369 4.23665 14.0438 4 13.5235 4H10.0562C9.54096 4 9.21325 4.23665 9.07313 4.70995L8.83298 5.51705C8.76295 5.76117 8.66415 5.96046 8.53658 6.1149C8.40901 6.26935 8.24015 6.39889 8.03 6.50351C7.60975 6.7277 7.28705 7.05029 7.0619 7.47128C6.83677 7.89227 6.7242 8.39422 6.7242 8.97712V15.0229ZM7.81989 14.866V9.14153C7.81989 8.58353 7.97374 8.14635 8.28144 7.82999C8.58914 7.51363 9.01816 7.35545 9.56849 7.35545H14.0112C14.5616 7.35545 14.9906 7.51363 15.2983 7.82999C15.606 8.14635 15.7598 8.58353 15.7598 9.14153V14.866C15.7598 15.419 15.606 15.8537 15.2983 16.1701C14.9906 16.4864 14.5616 16.6446 14.0112 16.6446H9.56849C9.01816 16.6446 8.58914 16.4864 8.28144 16.1701C7.97374 15.8537 7.81989 15.419 7.81989 14.866ZM16.6905 11.4732H16.9606C17.1557 11.4732 17.3121 11.4121 17.4297 11.2901C17.5472 11.168 17.606 10.9999 17.606 10.7856V9.77675C17.606 9.56252 17.5472 9.39437 17.4297 9.27231C17.3121 9.15025 17.1557 9.08922 16.9606 9.08922H16.6905V11.4732Z" fill="black" fill-opacity="0.8"/>
</svg>
