<svg width="24" height="24" viewBox="0 0 24 24" fill="none" xmlns="http://www.w3.org/2000/svg">
<g clip-path="url(#clip0_46_22)">
<path d="M15.4033 2.25291C15.7203 2.25291 15.9876 2.14274 16.2052 1.92242C16.4227 1.70209 16.5315 1.43677 16.5315 1.12645C16.5315 0.80993 16.4227 0.543056 16.2052 0.325834C15.9876 0.108611 15.7203 0 15.4033 0C15.0925 0 14.8267 0.108611 14.6061 0.325834C14.3854 0.543056 14.2751 0.80993 14.2751 1.12645C14.2751 1.43677 14.3854 1.70209 14.6061 1.92242C14.8267 2.14274 15.0925 2.25291 15.4033 2.25291ZM20.8858 4.49651C21.1966 4.49651 21.4624 4.3879 21.683 4.17067C21.9037 3.95345 22.014 3.68658 22.014 3.37006C22.014 3.05974 21.9037 2.79442 21.683 2.57409C21.4624 2.35377 21.1966 2.2436 20.8858 2.2436C20.5688 2.2436 20.3 2.35377 20.0793 2.57409C19.8586 2.79442 19.7483 3.05974 19.7483 3.37006C19.7483 3.68658 19.8586 3.95345 20.0793 4.17067C20.3 4.3879 20.5688 4.49651 20.8858 4.49651ZM22.8718 9.73773C23.1826 9.73773 23.4484 9.62758 23.669 9.40728C23.8897 9.18696 24 8.91853 24 8.60201C24 8.2917 23.8897 8.02637 23.669 7.80605C23.4484 7.58572 23.1826 7.47556 22.8718 7.47556C22.561 7.47556 22.2953 7.58572 22.0746 7.80605C21.8539 8.02637 21.7436 8.2917 21.7436 8.60201C21.7436 8.91853 21.8539 9.18696 22.0746 9.40728C22.2953 9.62758 22.561 9.73773 22.8718 9.73773ZM20.606 15.1932C20.9231 15.1932 21.192 15.083 21.4126 14.8627C21.6333 14.6423 21.7436 14.377 21.7436 14.0667C21.7436 13.7502 21.6333 13.4817 21.4126 13.2614C21.192 13.0411 20.9231 12.931 20.606 12.931C20.2953 12.931 20.0296 13.0411 19.8089 13.2614C19.5882 13.4817 19.4779 13.7502 19.4779 14.0667C19.4779 14.377 19.5882 14.6423 19.8089 14.8627C20.0296 15.083 20.2953 15.1932 20.606 15.1932ZM15.4033 16.9433C15.7203 16.9433 15.9876 16.8332 16.2052 16.6129C16.4227 16.3926 16.5315 16.1272 16.5315 15.8169C16.5315 15.5004 16.4227 15.2335 16.2052 15.0163C15.9876 14.7991 15.7203 14.6905 15.4033 14.6905C15.0925 14.6905 14.8267 14.7991 14.6061 15.0163C14.3854 15.2335 14.2751 15.5004 14.2751 15.8169C14.2751 16.1272 14.3854 16.3926 14.6061 16.6129C14.8267 16.8332 15.0925 16.9433 15.4033 16.9433ZM13.2495 21.7377C13.5602 21.7377 13.8259 21.6276 14.0466 21.4073C14.2673 21.187 14.3776 20.9216 14.3776 20.6113C14.3776 20.301 14.2673 20.0357 14.0466 19.8153C13.8259 19.595 13.5602 19.4849 13.2495 19.4849C12.9387 19.4849 12.6729 19.595 12.4522 19.8153C12.2315 20.0357 12.1212 20.301 12.1212 20.6113C12.1212 20.9216 12.2315 21.187 12.4522 21.4073C12.6729 21.6276 12.9387 21.7377 13.2495 21.7377ZM8.17716 24C8.48796 24 8.75369 23.8898 8.97436 23.6695C9.19503 23.4492 9.30536 23.1838 9.30536 22.8735C9.30536 22.557 9.19503 22.2886 8.97436 22.0682C8.75369 21.8479 8.48796 21.7377 8.17716 21.7377C7.86015 21.7377 7.59286 21.8479 7.3753 22.0682C7.15773 22.2886 7.04895 22.557 7.04895 22.8735C7.04895 23.1838 7.15773 23.4492 7.3753 23.6695C7.59286 23.8898 7.86015 24 8.17716 24ZM3.39394 21.9891C3.70474 21.9891 3.97048 21.8789 4.19115 21.6586C4.41182 21.4383 4.52215 21.173 4.52215 20.8627C4.52215 20.5461 4.41182 20.2777 4.19115 20.0574C3.97048 19.8371 3.70474 19.7269 3.39394 19.7269C3.07693 19.7269 2.80964 19.8371 2.59207 20.0574C2.37452 20.2777 2.26574 20.5461 2.26574 20.8627C2.26574 21.173 2.37452 21.4383 2.59207 21.6586C2.80964 21.8789 3.07693 21.9891 3.39394 21.9891ZM1.12821 16.962C1.44522 16.962 1.71251 16.8534 1.93007 16.6362C2.14763 16.4189 2.25641 16.1521 2.25641 15.8355C2.25641 15.5252 2.14763 15.2599 1.93007 15.0396C1.71251 14.8192 1.44522 14.7091 1.12821 14.7091C0.817405 14.7091 0.551671 14.8192 0.331003 15.0396C0.110334 15.2599 0 15.5252 0 15.8355C0 16.1521 0.110334 16.4189 0.331003 16.6362C0.551671 16.8534 0.817405 16.962 1.12821 16.962ZM3.39394 11.9348C3.70474 11.9348 3.97048 11.8247 4.19115 11.6044C4.41182 11.384 4.52215 11.1187 4.52215 10.8084C4.52215 10.4918 4.41182 10.2234 4.19115 10.0031C3.97048 9.78279 3.70474 9.67262 3.39394 9.67262C3.07693 9.67262 2.80964 9.78279 2.59207 10.0031C2.37452 10.2234 2.26574 10.4918 2.26574 10.8084C2.26574 11.1187 2.37452 11.384 2.59207 11.6044C2.80964 11.8247 3.07693 11.9348 3.39394 11.9348ZM8.17716 9.70055C8.48796 9.70055 8.75369 9.59038 8.97436 9.37005C9.19503 9.14972 9.30536 8.8844 9.30536 8.57408C9.30536 8.25756 9.19503 7.98913 8.97436 7.7688C8.75369 7.54848 8.48796 7.43831 8.17716 7.43831C7.86015 7.43831 7.59286 7.54848 7.3753 7.7688C7.15773 7.98913 7.04895 8.25756 7.04895 8.57408C7.04895 8.8844 7.15773 9.14972 7.3753 9.37005C7.59286 9.59038 7.86015 9.70055 8.17716 9.70055ZM10.2005 4.24514C10.5113 4.24514 10.777 4.13498 10.9977 3.91466C11.2183 3.69434 11.3286 3.42591 11.3286 3.10939C11.3286 2.79907 11.2183 2.53375 10.9977 2.31342C10.777 2.0931 10.5113 1.98293 10.2005 1.98293C9.88343 1.98293 9.61614 2.0931 9.39861 2.31342C9.18105 2.53375 9.07226 2.79907 9.07226 3.10939C9.07226 3.42591 9.18105 3.69434 9.39861 3.91466C9.61614 4.13498 9.88343 4.24514 10.2005 4.24514Z" fill="#8E8E93"/>
<path d="M8.0632 20C8.81218 20 9.49405 19.8179 10.1088 19.4536C10.7236 19.0893 11.2136 18.5989 11.5787 17.9825C11.9438 17.366 12.1264 16.6811 12.1264 15.9276C12.1264 15.1866 11.9438 14.511 11.5787 13.9008C11.2136 13.2905 10.7221 12.8032 10.1042 12.439C9.48627 12.0747 8.80594 11.8925 8.0632 11.8925C7.31423 11.8925 6.63234 12.0747 6.01755 12.439C5.40277 12.8032 4.91282 13.2905 4.54769 13.9008C4.18256 14.511 4 15.1866 4 15.9276C4 16.6811 4.18256 17.366 4.54769 17.9825C4.91282 18.5989 5.40277 19.0893 6.01755 19.4536C6.63234 19.8179 7.31423 20 8.0632 20ZM15.3189 13.3403C16.1803 13.3403 16.9651 13.1286 17.6735 12.7052C18.382 12.2818 18.9468 11.7151 19.368 11.0052C19.7893 10.2954 20 9.5139 20 8.66083C20 7.80152 19.7893 7.02005 19.368 6.31641C18.9468 5.61277 18.382 5.05079 17.6735 4.63047C16.9651 4.21016 16.1803 4 15.3189 4C14.4638 4 13.6821 4.21016 12.9737 4.63047C12.2653 5.05079 11.6989 5.61277 11.2745 6.31641C10.85 7.02005 10.6378 7.80152 10.6378 8.66083C10.6378 9.5139 10.85 10.2954 11.2745 11.0052C11.6989 11.7151 12.2653 12.2818 12.9737 12.7052C13.6821 13.1286 14.4638 13.3403 15.3189 13.3403Z" fill="#55BEF0"/>
<path d="M7.93229 18C7.39719 18 6.94137 17.8124 6.56482 17.4371C6.18827 17.0617 6 16.6041 6 16.0643C6 15.5309 6.18827 15.0765 6.56482 14.7012C6.94137 14.326 7.39719 14.1383 7.93229 14.1383C8.28241 14.1383 8.60611 14.2256 8.90338 14.4001C9.20067 14.5745 9.43683 14.8082 9.61187 15.1012C9.78694 15.3943 9.87448 15.7153 9.87448 16.0643C9.87448 16.6041 9.68455 17.0617 9.30471 17.4371C8.92486 17.8124 8.46739 18 7.93229 18ZM15.6119 10.7704C15.1759 10.7704 14.7763 10.6617 14.4129 10.4444C14.0496 10.2272 13.7589 9.93585 13.5409 9.57042C13.3229 9.20496 13.2139 8.80494 13.2139 8.37037C13.2139 7.93581 13.3229 7.5391 13.5409 7.18025C13.7589 6.8214 14.0496 6.53498 14.4129 6.32099C14.7763 6.107 15.1759 6 15.6119 6C16.0479 6 16.4476 6.107 16.811 6.32099C17.1743 6.53498 17.4633 6.8214 17.6779 7.18025C17.8926 7.5391 18 7.93581 18 8.37037C18 8.80494 17.8926 9.20496 17.6779 9.57042C17.4633 9.93585 17.1743 10.2272 16.811 10.4444C16.4476 10.6617 16.0479 10.7704 15.6119 10.7704Z" fill="white" fill-opacity="0.65"/>
</g>
<defs>
<clipPath id="clip0_46_22">
<rect width="24" height="24" fill="white"/>
</clipPath>
</defs>
</svg>
