<svg width="24" height="24" viewBox="0 0 24 24" fill="none" xmlns="http://www.w3.org/2000/svg">
<path d="M11.9954 24C12.6738 24 13.3186 23.8347 13.9298 23.5041C14.541 23.1736 15.0834 22.7211 15.557 22.1467C16.0306 21.5723 16.4034 20.9224 16.6755 20.1972C16.9474 19.4719 17.0834 18.7145 17.0834 17.9251C17.0834 17.2512 16.9634 16.6928 16.7234 16.2499C16.4834 15.807 16.149 15.4556 15.7202 15.1957C15.2914 14.9357 14.789 14.7384 14.213 14.6036V14.5073C14.501 14.3661 14.725 14.1543 14.885 13.8719C15.045 13.5895 15.141 13.2814 15.1731 12.9476C15.205 12.6139 15.1666 12.2962 15.0579 11.9945C14.9491 11.6929 14.7666 11.4554 14.5106 11.2821V11.1858C15.3298 11.0382 15.9442 10.7253 16.3538 10.2472C16.7634 9.769 16.9682 9.16407 16.9682 8.43239C16.9682 7.74563 16.8386 7.10059 16.5794 6.49727C16.3202 5.89395 15.9618 5.36284 15.5043 4.90393C15.0466 4.44502 14.5186 4.0856 13.9202 3.82566C13.3218 3.56571 12.6802 3.43574 11.9954 3.43574C11.317 3.43574 10.6786 3.56571 10.0802 3.82566C9.48176 4.0856 8.95375 4.44502 8.49614 4.90393C8.03854 5.36284 7.67853 5.89395 7.41613 6.49727C7.15373 7.10059 7.02253 7.74563 7.02253 8.43239C7.02253 9.16407 7.22893 9.769 7.64173 10.2472C8.05454 10.7253 8.67055 11.0382 9.48976 11.1858V11.2821C9.23375 11.4554 9.05135 11.6929 8.94255 11.9945C8.83375 12.2962 8.79375 12.6139 8.82254 12.9476C8.85135 13.2814 8.94735 13.5895 9.11055 13.8719C9.27375 14.1543 9.49936 14.3661 9.78736 14.5073V14.6036C9.21775 14.7384 8.71695 14.9357 8.28494 15.1957C7.85294 15.4556 7.51693 15.807 7.27693 16.2499C7.03693 16.6928 6.91693 17.2512 6.91693 17.9251C6.91693 18.7145 7.05293 19.4719 7.32493 20.1972C7.59694 20.9224 7.96974 21.5723 8.44334 22.1467C8.91695 22.7211 9.45776 23.1736 10.0658 23.5041C10.6738 23.8347 11.317 24 11.9954 24ZM11.9954 22.3922C11.5026 22.3922 11.0434 22.2638 10.6178 22.0071C10.1922 21.7504 9.81936 21.4102 9.49936 20.9865C9.17935 20.563 8.92975 20.1009 8.75055 19.6002C8.57135 19.0996 8.48175 18.6086 8.48175 18.1272C8.48175 17.4854 8.66575 16.98 9.03375 16.6109C9.40175 16.2418 9.94736 16.0573 10.6706 16.0573H13.3298C14.0466 16.0573 14.589 16.2418 14.957 16.6109C15.325 16.98 15.5091 17.4854 15.5091 18.1272C15.5091 18.6086 15.4211 19.0996 15.245 19.6002C15.069 20.1009 14.821 20.563 14.5011 20.9865C14.181 21.4102 13.8082 21.7504 13.3826 22.0071C12.957 22.2638 12.4946 22.3922 11.9954 22.3922ZM10.2578 12.6684C10.2578 12.2256 10.3858 11.8822 10.6418 11.6383C10.8978 11.3944 11.2594 11.2725 11.7266 11.2725C11.8162 11.2725 11.9074 11.2725 12.0002 11.2725C12.093 11.2725 12.1874 11.2725 12.2834 11.2725C12.7442 11.2725 13.101 11.3944 13.3538 11.6383C13.6066 11.8822 13.733 12.2256 13.733 12.6684C13.733 13.214 13.573 13.6858 13.253 14.0837C12.933 14.4817 12.5522 14.6807 12.1106 14.6807C12.0722 14.6807 12.0354 14.6807 12.0002 14.6807C11.965 14.6807 11.9282 14.6807 11.8898 14.6807C11.4482 14.6807 11.0658 14.4817 10.7426 14.0837C10.4194 13.6858 10.2578 13.214 10.2578 12.6684ZM10.2674 9.7706C9.91536 9.7706 9.61616 9.71605 9.36976 9.60694C9.12335 9.49783 8.93455 9.33897 8.80335 9.13038C8.67215 8.92179 8.60655 8.66987 8.60655 8.37463C8.60655 7.92535 8.69775 7.50014 8.88015 7.09899C9.06255 6.69784 9.31216 6.34163 9.62896 6.03034C9.94577 5.71906 10.3074 5.47516 10.7138 5.29866C11.1202 5.12216 11.5474 5.03391 11.9954 5.03391C12.4498 5.03391 12.8802 5.12216 13.2866 5.29866C13.693 5.47516 14.0546 5.71906 14.3714 6.03034C14.6882 6.34163 14.9378 6.69784 15.1202 7.09899C15.3026 7.50014 15.3939 7.92535 15.3939 8.37463C15.3939 8.66987 15.3283 8.92179 15.1971 9.13038C15.0658 9.33897 14.8754 9.49783 14.6258 9.60694C14.3762 9.71605 14.0786 9.7706 13.733 9.7706H10.2674ZM5.58252 23.4127C5.80651 23.4127 5.99051 23.3357 6.13452 23.1816C6.27852 23.0276 6.32812 22.8126 6.28332 22.5366L5.58252 17.9251C5.53771 17.6362 5.57132 17.4164 5.68332 17.2656C5.79531 17.1147 6.01772 16.9944 6.35052 16.9045L9.78736 15.9803V14.6036L5.54411 15.6145C4.9233 15.7621 4.4945 15.9963 4.2577 16.3173C4.02089 16.6382 3.94729 17.0811 4.03689 17.6459L4.8241 22.6425C4.8561 22.88 4.9313 23.0677 5.0497 23.2057C5.16811 23.3437 5.34571 23.4127 5.58252 23.4127ZM18.4178 23.4127C18.6547 23.4127 18.8307 23.3437 18.9458 23.2057C19.061 23.0677 19.1378 22.88 19.1762 22.6425L19.9635 17.6459C20.0531 17.0811 19.9779 16.6382 19.7379 16.3173C19.4979 15.9963 19.0707 15.7621 18.4563 15.6145L14.213 14.6036V15.9803L17.6499 16.9045C17.9827 16.9944 18.2051 17.1147 18.3171 17.2656C18.4291 17.4164 18.4626 17.6362 18.4178 17.9251L17.717 22.5366C17.6722 22.8126 17.7219 23.0276 17.8658 23.1816C18.0098 23.3357 18.1938 23.4127 18.4178 23.4127ZM9.64336 13.5734V12.1294L6.83053 11.725C6.51692 11.6736 6.27372 11.5806 6.10092 11.4458C5.92812 11.311 5.84172 11.0735 5.84172 10.7334V7.70071C5.84172 7.46965 5.77772 7.28833 5.64972 7.15676C5.52171 7.02518 5.34251 6.95939 5.11211 6.95939C4.8817 6.95939 4.7025 7.02518 4.5745 7.15676C4.4465 7.28833 4.3825 7.46965 4.3825 7.70071V11.0318C4.3825 11.6287 4.5217 12.094 4.8001 12.4278C5.0785 12.7615 5.51851 12.9701 6.12012 13.0536L9.64336 13.5734ZM14.357 13.5734L17.8803 13.0536C18.4819 12.9701 18.9218 12.7615 19.2002 12.4278C19.4786 12.094 19.6178 11.6287 19.6178 11.0318V7.70071C19.6178 7.46965 19.5538 7.28833 19.4258 7.15676C19.2978 7.02518 19.1187 6.95939 18.8883 6.95939C18.6579 6.95939 18.4787 7.02518 18.3507 7.15676C18.2227 7.28833 18.1587 7.46965 18.1587 7.70071V10.7334C18.1587 11.0735 18.0723 11.311 17.8995 11.4458C17.7266 11.5806 17.4834 11.6736 17.1698 11.725L14.357 12.1294V13.5734ZM9.13455 5.8041L9.94096 4.78359L9.19215 4.24446C8.94895 4.07116 8.81615 3.87058 8.79375 3.64273C8.77135 3.41488 8.84335 3.16296 9.00975 2.88698L9.50896 2.12641C9.56016 2.03014 9.59536 1.94991 9.61456 1.88573C9.63376 1.82154 9.64336 1.74773 9.64336 1.66429C9.64336 1.47816 9.57776 1.32091 9.44656 1.19255C9.31536 1.06418 9.15056 1 8.95215 1C8.66415 1 8.43375 1.15725 8.26095 1.47175L7.69453 2.40561C7.39373 2.93833 7.28493 3.44377 7.36813 3.92193C7.45134 4.4001 7.72654 4.80606 8.19375 5.13981L9.13455 5.8041ZM14.885 5.81372L15.845 5.13981C16.3122 4.80606 16.5874 4.4001 16.6706 3.92193C16.7538 3.44377 16.645 2.93833 16.3443 2.40561L15.7778 1.47175C15.5987 1.15725 15.3683 1 15.0867 1C14.8882 1 14.7234 1.06418 14.5922 1.19255C14.461 1.32091 14.3954 1.47816 14.3954 1.66429C14.3954 1.74773 14.4034 1.82154 14.4195 1.88573C14.4354 1.94991 14.4722 2.03014 14.5299 2.12641L15.029 2.88698C15.1954 3.16296 15.2658 3.41488 15.2402 3.64273C15.2146 3.87058 15.0834 4.07116 14.8466 4.24446L14.0786 4.79322L14.885 5.81372Z" fill="black" fill-opacity="0.8"/>
</svg>
