<svg width="24" height="24" viewBox="0 0 24 24" fill="none" xmlns="http://www.w3.org/2000/svg">
<path d="M11.9954 24C12.6738 24 13.3186 23.8347 13.9298 23.5041C14.541 23.1736 15.0834 22.7211 15.557 22.1467C16.0306 21.5723 16.4034 20.9224 16.6755 20.1972C16.9474 19.4719 17.0834 18.7145 17.0834 17.9251C17.0834 17.6812 17.061 17.4565 17.0163 17.2512C16.9715 17.0458 16.9074 16.8564 16.8242 16.6831C16.965 16.7216 17.1042 16.7585 17.2418 16.7938C17.3794 16.8291 17.5154 16.866 17.6499 16.9045C17.9827 16.9944 18.2051 17.1147 18.3171 17.2656C18.4291 17.4164 18.4626 17.6362 18.4178 17.9251L17.717 22.5366C17.6722 22.8126 17.7219 23.0276 17.8658 23.1816C18.0098 23.3357 18.1938 23.4127 18.4178 23.4127C18.6547 23.4127 18.8307 23.3437 18.9458 23.2057C19.061 23.0677 19.1378 22.88 19.1762 22.6425L19.9635 17.6459C20.0531 17.0811 19.9779 16.6366 19.7379 16.3124C19.4979 15.9884 19.0707 15.7557 18.4563 15.6145L14.1266 14.6036L14.117 14.5073C14.3282 14.4046 14.501 14.2618 14.6354 14.0789C14.7698 13.896 14.869 13.6954 14.933 13.4771L17.8803 13.0536C18.4819 12.9701 18.9218 12.7615 19.2002 12.4278C19.4786 12.094 19.6178 11.6287 19.6178 11.0318V7.70071C19.6178 7.46965 19.5538 7.28833 19.4258 7.15676C19.2978 7.02518 19.1187 6.95939 18.8883 6.95939C18.6579 6.95939 18.4787 7.02518 18.3507 7.15676C18.2227 7.28833 18.1587 7.46965 18.1587 7.70071V10.7334C18.1587 11.0735 18.0723 11.3126 17.8995 11.4506C17.7266 11.5886 17.4834 11.68 17.1698 11.725L14.9714 12.0234C14.9203 11.8758 14.8467 11.7378 14.7506 11.6094C14.6546 11.4811 14.5426 11.372 14.4146 11.2821V11.1858C15.2338 11.0382 15.8642 10.7253 16.3058 10.2472C16.7474 9.769 16.9682 9.16407 16.9682 8.43239C16.9682 7.81623 16.861 7.23217 16.6467 6.6802C16.4322 6.12823 16.1362 5.63723 15.7587 5.2072L15.845 5.13981C16.3122 4.80606 16.5874 4.4001 16.6706 3.92193C16.7538 3.44377 16.645 2.93833 16.3443 2.40561L15.7778 1.47175C15.5987 1.15725 15.3683 1 15.0867 1C14.8882 1 14.7234 1.06418 14.5922 1.19255C14.461 1.32091 14.3954 1.47816 14.3954 1.66429C14.3954 1.74773 14.4034 1.82154 14.4195 1.88573C14.4354 1.94991 14.4722 2.03014 14.5299 2.12641L15.029 2.88698C15.1826 3.13729 15.2562 3.36996 15.2498 3.58497C15.2434 3.79998 15.141 3.99414 14.9426 4.16743C14.917 4.18669 14.8914 4.20755 14.8659 4.23001C14.8402 4.25248 14.8114 4.27333 14.7795 4.29258C14.3826 4.02302 13.9474 3.81282 13.4738 3.66199C13.0002 3.51116 12.5074 3.43574 11.9954 3.43574C11.4898 3.43574 11.0034 3.51116 10.5362 3.66199C10.069 3.81282 9.64016 4.01981 9.24976 4.28296C9.22415 4.27013 9.19695 4.25087 9.16816 4.22519C9.13935 4.19952 9.11215 4.17706 9.08655 4.1578C8.89455 3.98451 8.79375 3.79196 8.78415 3.58016C8.77455 3.36835 8.84974 3.13729 9.00975 2.88698L9.50896 2.12641C9.56016 2.03014 9.59536 1.94991 9.61456 1.88573C9.63376 1.82154 9.64336 1.74773 9.64336 1.66429C9.64336 1.47816 9.57776 1.32091 9.44656 1.19255C9.31536 1.06418 9.15056 1 8.95215 1C8.66415 1 8.43375 1.15725 8.26095 1.47175L7.69453 2.40561C7.39373 2.93833 7.28493 3.44377 7.36813 3.92193C7.45134 4.4001 7.72654 4.80606 8.19375 5.13981L8.26095 5.18794C7.87694 5.61797 7.57453 6.11217 7.35373 6.67057C7.13293 7.22896 7.02253 7.81623 7.02253 8.43239C7.02253 9.16407 7.24493 9.769 7.68973 10.2472C8.13454 10.7253 8.76655 11.0382 9.58576 11.1858V11.2821C9.45135 11.372 9.33775 11.4811 9.24495 11.6094C9.15215 11.7378 9.08015 11.8758 9.02896 12.0234L6.83053 11.725C6.51692 11.68 6.27372 11.5886 6.10092 11.4506C5.92812 11.3126 5.84172 11.0735 5.84172 10.7334V7.70071C5.84172 7.46965 5.77772 7.28833 5.64972 7.15676C5.52171 7.02518 5.34251 6.95939 5.11211 6.95939C4.8817 6.95939 4.7025 7.02518 4.5745 7.15676C4.4465 7.28833 4.3825 7.46965 4.3825 7.70071V11.0318C4.3825 11.6287 4.5217 12.094 4.8001 12.4278C5.0785 12.7615 5.51851 12.9701 6.12012 13.0536L9.06735 13.4771C9.13135 13.6954 9.23055 13.896 9.36495 14.0789C9.49935 14.2618 9.67216 14.4046 9.88336 14.5073V14.6036L5.54411 15.6145C4.9233 15.7557 4.4945 15.9884 4.2577 16.3124C4.02089 16.6366 3.94729 17.0811 4.03689 17.6459L4.8241 22.6425C4.8561 22.88 4.9313 23.0677 5.0497 23.2057C5.16811 23.3437 5.34571 23.4127 5.58252 23.4127C5.80651 23.4127 5.99051 23.3357 6.13452 23.1816C6.27852 23.0276 6.32812 22.8126 6.28332 22.5366L5.58252 17.9251C5.53771 17.6362 5.57132 17.4164 5.68332 17.2656C5.79531 17.1147 6.01772 16.9944 6.35052 16.9045C6.48492 16.866 6.62092 16.8291 6.75853 16.7938C6.89613 16.7585 7.03213 16.7216 7.16653 16.6831C7.08333 16.8564 7.02093 17.0458 6.97932 17.2512C6.93773 17.4565 6.91693 17.6812 6.91693 17.9251C6.91693 18.7145 7.05293 19.4719 7.32493 20.1972C7.59694 20.9224 7.96974 21.5723 8.44334 22.1467C8.91695 22.7211 9.45776 23.1736 10.0658 23.5041C10.6738 23.8347 11.317 24 11.9954 24Z" fill="black" fill-opacity="0.8"/>
</svg>
