<svg width="24" height="24" viewBox="0 0 24 24" fill="none" xmlns="http://www.w3.org/2000/svg">
<path d="M12 22C13.4006 22 14.6262 21.7218 15.6768 21.1654C16.7272 20.609 17.5437 19.8288 18.1262 18.8246C18.7087 17.8206 19 16.6502 19 15.3136C19 14.6552 18.9259 14.0066 18.7777 13.3679C18.6296 12.7292 18.4478 12.1268 18.2323 11.5605C18.0168 10.9942 17.8114 10.4938 17.6162 10.0593C17.0774 8.86749 16.4191 7.6428 15.6414 6.38519C14.8636 5.12757 14.1044 3.94238 13.3636 2.82963C13.1885 2.56626 12.9916 2.36214 12.7727 2.21728C12.5539 2.07243 12.2963 2 12 2C11.7037 2 11.4478 2.07243 11.2323 2.21728C11.0168 2.36214 10.8182 2.56626 10.6363 2.82963C9.90234 3.94238 9.14477 5.12757 8.36362 6.38519C7.58248 7.6428 6.92255 8.86749 6.38383 10.0593C6.18855 10.4938 5.98316 10.9942 5.76767 11.5605C5.55219 12.1268 5.37037 12.7292 5.22222 13.3679C5.07407 14.0066 5 14.6552 5 15.3136C5 16.6502 5.29124 17.8206 5.87373 18.8246C6.45622 19.8288 7.27272 20.609 8.32322 21.1654C9.37372 21.7218 10.5993 22 12 22ZM12 20.3802C10.9293 20.3802 9.99325 20.1695 9.1919 19.7481C8.39056 19.3267 7.76766 18.7358 7.32322 17.9753C6.87878 17.2148 6.65656 16.3276 6.65656 15.3136C6.65656 14.5037 6.78619 13.7152 7.04545 12.9481C7.30471 12.1811 7.57575 11.4782 7.85857 10.8395C8.42423 9.54238 9.06227 8.34238 9.77271 7.2395C10.4831 6.13662 11.1919 5.06502 11.899 4.02469C11.9259 3.96543 11.9613 3.93745 12.005 3.94074C12.0488 3.94403 12.0842 3.97202 12.1111 4.02469C12.8114 5.06502 13.5185 6.13498 14.2323 7.23456C14.9461 8.33415 15.5791 9.53251 16.1313 10.8296C16.4141 11.4749 16.6885 12.1811 16.9545 12.9481C17.2205 13.7152 17.3535 14.5037 17.3535 15.3136C17.3535 16.3276 17.1296 17.2148 16.6817 17.9753C16.2339 18.7358 15.6094 19.3267 14.808 19.7481C14.0067 20.1695 13.0707 20.3802 12 20.3802Z" fill="black" fill-opacity="0.8"/>
</svg>
