<svg width="24" height="24" viewBox="0 0 24 24" fill="none" xmlns="http://www.w3.org/2000/svg">
<path d="M12 22C13.4006 22 14.6262 21.7218 15.6768 21.1654C16.7272 20.609 17.5437 19.8288 18.1262 18.8246C18.7087 17.8206 19 16.6502 19 15.3136C19 14.6552 18.9259 14.0066 18.7777 13.3679C18.6296 12.7292 18.4478 12.1268 18.2323 11.5605C18.0168 10.9942 17.8114 10.4938 17.6162 10.0593C17.2592 9.26255 16.8283 8.44773 16.3232 7.61481C15.8181 6.78189 15.2878 5.95062 14.7323 5.12099C14.1767 4.29136 13.6363 3.48148 13.1111 2.69136C12.9562 2.46749 12.7845 2.2963 12.5959 2.17778C12.4074 2.05926 12.2087 2 12 2C11.798 2 11.601 2.05926 11.4091 2.17778C11.2172 2.2963 11.0438 2.46749 10.8889 2.69136C10.3704 3.48148 9.83164 4.29136 9.27271 5.12099C8.71379 5.95062 8.18349 6.78189 7.68181 7.61481C7.18012 8.44773 6.74747 9.26255 6.38383 10.0593C6.18855 10.4938 5.98316 10.9942 5.76767 11.5605C5.55219 12.1268 5.37037 12.7292 5.22222 13.3679C5.07407 14.0066 5 14.6552 5 15.3136C5 16.6502 5.29124 17.8206 5.87373 18.8246C6.45622 19.8288 7.27272 20.609 8.32322 21.1654C9.37372 21.7218 10.5993 22 12 22Z" fill="black" fill-opacity="0.8"/>
</svg>
