<svg width="24" height="24" viewBox="0 0 24 24" fill="none" xmlns="http://www.w3.org/2000/svg">
<path d="M12.0204 23C13.3674 23 14.5902 22.783 15.6888 22.3491C16.7874 21.9151 17.7347 21.2981 18.5306 20.498C19.3265 19.6979 19.9371 18.7384 20.3623 17.6195C20.7874 16.5007 21 15.2599 21 13.8969C21 12.378 20.8027 11.0049 20.4082 9.77764C20.0136 8.55033 19.4745 7.46034 18.7909 6.50765C18.1072 5.55495 17.3231 4.7311 16.4388 4.03607C15.5545 3.34104 14.6208 2.76807 13.6378 2.31716C12.6548 1.86624 11.665 1.53398 10.6684 1.32039C9.67178 1.1068 8.7245 1 7.82654 1C7.34354 1 6.96089 1.08306 6.67858 1.24919C6.39626 1.41532 6.2551 1.66112 6.2551 1.9866C6.2551 2.11543 6.28232 2.24426 6.33674 2.3731C6.39116 2.50193 6.47279 2.62738 6.58163 2.74943C6.983 3.23086 7.36906 3.74281 7.7398 4.28526C8.11055 4.82772 8.41668 5.40069 8.65817 6.00417C8.89967 6.60766 9.02382 7.24504 9.03062 7.91633C9.03062 8.14688 9.00851 8.37234 8.9643 8.59271C8.92008 8.81309 8.81633 9.06567 8.65307 9.35046L9.16328 9.24875C9.00682 8.74698 8.78062 8.30454 8.4847 7.92142C8.18878 7.53831 7.85545 7.23826 7.4847 7.02128C7.11395 6.8043 6.7483 6.69581 6.38776 6.69581C6.17687 6.69581 6.00681 6.767 5.87756 6.9094C5.74831 7.0518 5.68368 7.23488 5.68368 7.45864C5.68368 7.58747 5.69558 7.78581 5.71939 8.05364C5.7432 8.32148 5.75511 8.56728 5.75511 8.79105C5.75511 9.24536 5.69728 9.67255 5.58163 10.0726C5.46599 10.4727 5.31973 10.8761 5.14286 11.283C4.96599 11.6898 4.79082 12.1221 4.61735 12.5798C4.44388 13.0375 4.29762 13.5511 4.17857 14.1207C4.05952 14.6903 4 15.3413 4 16.0736C4 17.4636 4.33333 18.6774 5 19.7148C5.66667 20.7523 6.60034 21.5592 7.80103 22.1355C9.00171 22.7118 10.4082 23 12.0204 23ZM12.2551 20.142C11.3027 20.142 10.5357 19.8792 9.95409 19.3538C9.37246 18.8282 9.08164 18.1383 9.08164 17.2839C9.08164 16.8364 9.14797 16.4516 9.28062 16.1295C9.41327 15.8074 9.56804 15.5158 9.74491 15.2547C9.92178 14.9937 10.085 14.7428 10.2347 14.5021C10.3844 14.2614 10.4796 13.9953 10.5204 13.7037C10.5272 13.6562 10.5459 13.6274 10.5765 13.6173C10.6072 13.6071 10.6395 13.6155 10.6735 13.6427C10.9116 13.8529 11.1106 14.0851 11.2704 14.3394C11.4303 14.5936 11.5748 14.8666 11.7041 15.1582C11.9762 14.792 12.1701 14.2512 12.2857 13.5358C12.4014 12.8205 12.415 12.0458 12.3265 11.2118C12.3197 11.1643 12.3299 11.1287 12.3572 11.105C12.3844 11.0812 12.4218 11.0795 12.4694 11.0999C13.2177 11.4525 13.8436 11.9136 14.347 12.4832C14.8504 13.0527 15.2296 13.6732 15.4847 14.3445C15.7398 15.0158 15.8673 15.6836 15.8673 16.3481C15.8673 17.0194 15.7347 17.6433 15.4694 18.2196C15.2041 18.796 14.8044 19.2605 14.2704 19.6131C13.7364 19.9657 13.0646 20.142 12.2551 20.142Z" fill="black" fill-opacity="0.8"/>
</svg>
