<svg width="24" height="24" viewBox="0 0 24 24" fill="none" xmlns="http://www.w3.org/2000/svg">
<path d="M12.0204 23C13.3674 23 14.5902 22.783 15.6888 22.3491C16.7874 21.9151 17.7347 21.2981 18.5306 20.498C19.3265 19.6979 19.9371 18.7384 20.3623 17.6195C20.7874 16.5007 21 15.2599 21 13.8969C21 12.378 20.8027 11.0049 20.4082 9.77764C20.0136 8.55033 19.4745 7.46034 18.7909 6.50765C18.1072 5.55495 17.3231 4.7311 16.4388 4.03607C15.5545 3.34104 14.6208 2.76807 13.6378 2.31716C12.6548 1.86624 11.665 1.53398 10.6684 1.32039C9.67178 1.1068 8.7245 1 7.82654 1C7.34354 1 6.96089 1.08306 6.67858 1.24919C6.39626 1.41532 6.2551 1.66112 6.2551 1.9866C6.2551 2.11543 6.28232 2.24426 6.33674 2.3731C6.39116 2.50193 6.47279 2.62738 6.58163 2.74943C6.983 3.23086 7.36906 3.74281 7.7398 4.28526C8.11055 4.82772 8.41668 5.40069 8.65817 6.00417C8.89967 6.60766 9.02382 7.24504 9.03062 7.91633C9.03062 8.14688 9.00851 8.37234 8.9643 8.59271C8.92008 8.81309 8.81633 9.06567 8.65307 9.35046L9.16328 9.24875C9.00682 8.74698 8.78062 8.30454 8.4847 7.92142C8.18878 7.53831 7.85545 7.23826 7.4847 7.02128C7.11395 6.8043 6.7483 6.69581 6.38776 6.69581C6.17687 6.69581 6.00681 6.767 5.87756 6.9094C5.74831 7.0518 5.68368 7.23488 5.68368 7.45864C5.68368 7.58747 5.69558 7.78581 5.71939 8.05364C5.7432 8.32148 5.75511 8.56728 5.75511 8.79105C5.75511 9.24536 5.69728 9.67255 5.58163 10.0726C5.46599 10.4727 5.31973 10.8761 5.14286 11.283C4.96599 11.6898 4.79082 12.1221 4.61735 12.5798C4.44388 13.0375 4.29762 13.5511 4.17857 14.1207C4.05952 14.6903 4 15.3413 4 16.0736C4 17.4636 4.33333 18.6774 5 19.7148C5.66667 20.7523 6.60034 21.5592 7.80103 22.1355C9.00171 22.7118 10.4082 23 12.0204 23ZM12.1225 21.5761C10.7891 21.5761 9.62076 21.3456 8.61736 20.8845C7.61396 20.4234 6.83334 19.7809 6.27551 18.957C5.71769 18.1332 5.43877 17.172 5.43877 16.0736C5.43877 15.409 5.5 14.8191 5.62245 14.3037C5.7449 13.7884 5.89626 13.3171 6.07653 12.89C6.2568 12.4628 6.43708 12.0492 6.61735 11.6491C6.79762 11.2491 6.94728 10.8337 7.06633 10.4032C7.18538 9.97259 7.24491 9.49285 7.24491 8.96395C7.24491 8.76731 7.2279 8.58085 7.19388 8.40455C7.15987 8.22825 7.11905 8.06212 7.07143 7.90617L6.83674 8.313C7.11565 8.47574 7.36565 8.68764 7.58674 8.94871C7.80783 9.20976 8.00001 9.51828 8.16328 9.87427C8.32654 10.2303 8.46259 10.6422 8.57144 11.1101C8.59185 11.2185 8.62926 11.2982 8.68368 11.3491C8.73811 11.4 8.80613 11.4254 8.88776 11.4254C9.09184 11.4254 9.28062 11.3152 9.4541 11.0948C9.62756 10.8744 9.77722 10.5913 9.90307 10.2455C10.0289 9.8997 10.1276 9.53524 10.199 9.15212C10.2704 8.76901 10.3061 8.41472 10.3061 8.08924C10.3061 7.30946 10.199 6.55171 9.98471 5.816C9.77042 5.0803 9.466 4.39036 9.07144 3.74619C8.67688 3.10202 8.20409 2.52566 7.65306 2.01711L7.37756 2.34258C8.84695 2.37649 10.2058 2.58669 11.4541 2.97319C12.7024 3.35969 13.8215 3.89706 14.8113 4.5853C15.8011 5.27355 16.6463 6.08893 17.3469 7.03146C18.0476 7.97398 18.5816 9.0199 18.949 10.1692C19.3164 11.3186 19.5 12.5442 19.5 13.8461C19.5 15.3853 19.1922 16.7347 18.5766 17.8942C17.9609 19.0537 17.0987 19.9572 15.9898 20.6047C14.881 21.2523 13.5919 21.5761 12.1225 21.5761ZM12.2551 20.142C13.0646 20.142 13.7364 19.9657 14.2704 19.6131C14.8044 19.2605 15.2041 18.796 15.4694 18.2196C15.7347 17.6433 15.8673 17.0194 15.8673 16.3481C15.8673 15.6836 15.7398 15.0158 15.4847 14.3445C15.2296 13.6732 14.8504 13.0527 14.347 12.4832C13.8436 11.9136 13.2177 11.4525 12.4694 11.0999C12.4218 11.0795 12.3844 11.0812 12.3572 11.105C12.3299 11.1287 12.3197 11.1643 12.3265 11.2118C12.415 12.0458 12.4014 12.8205 12.2857 13.5358C12.1701 14.2512 11.9762 14.792 11.7041 15.1582C11.5748 14.8666 11.4303 14.5936 11.2704 14.3394C11.1106 14.0851 10.9116 13.8529 10.6735 13.6427C10.6395 13.6155 10.6072 13.6071 10.5765 13.6173C10.5459 13.6274 10.5272 13.6562 10.5204 13.7037C10.4796 13.9953 10.3844 14.2614 10.2347 14.5021C10.085 14.7428 9.92178 14.9937 9.74491 15.2547C9.56804 15.5158 9.41327 15.8074 9.28062 16.1295C9.14797 16.4516 9.08164 16.8364 9.08164 17.2839C9.08164 18.1383 9.37246 18.8282 9.95409 19.3538C10.5357 19.8792 11.3027 20.142 12.2551 20.142Z" fill="black" fill-opacity="0.8"/>
</svg>
