<svg width="24" height="24" viewBox="0 0 24 24" fill="none" xmlns="http://www.w3.org/2000/svg">
<path d="M9.16046 22.5915L13.8294 16.9513L6.67788 10.0609L4.58353 12.5906C4.39964 12.8137 4.30769 13.0237 4.30769 13.2206C4.30769 13.4109 4.37751 13.57 4.51713 13.698C4.65675 13.8259 4.83213 13.8899 5.04326 13.8899L10.652 13.9687L7.77104 21.8631C7.64844 22.2043 7.66036 22.4783 7.80679 22.685C7.95323 22.8917 8.15755 22.9966 8.41977 22.9999C8.68199 23.0032 8.92889 22.8671 9.16046 22.5915ZM16.3221 13.949L18.4369 11.4094C18.614 11.1928 18.7026 10.9828 18.7026 10.7794C18.7026 10.5891 18.6345 10.4316 18.4982 10.3069C18.362 10.1823 18.1883 10.1167 17.9772 10.1101L12.3582 10.0313L15.2494 2.13697C15.372 1.79573 15.3601 1.52175 15.2136 1.31504C15.0672 1.10833 14.8629 1.00334 14.6007 1.00006C14.3385 0.996775 14.0916 1.13622 13.86 1.4184L9.17068 7.06848L16.3221 13.949ZM18.6514 19.9633C18.808 20.1142 18.9953 20.1896 19.2133 20.1896C19.4312 20.1896 19.6152 20.1142 19.765 19.9633C19.9217 19.8255 20 19.65 20 19.4367C20 19.2234 19.9217 19.0413 19.765 18.8904L4.34856 4.03673C4.19872 3.89237 4.01142 3.81854 3.78666 3.81525C3.5619 3.81197 3.3746 3.8858 3.22476 4.03673C3.07492 4.18111 3 4.35993 3 4.5732C3 4.78647 3.07492 4.96529 3.22476 5.10966L18.6514 19.9633Z" fill="black" fill-opacity="0.8"/>
</svg>
