<svg width="24" height="24" viewBox="0 0 24 24" fill="none" xmlns="http://www.w3.org/2000/svg">
<path d="M5.23077 13.5446C5.23077 13.7349 5.29487 13.894 5.42307 14.022C5.55128 14.15 5.71794 14.2139 5.92307 14.2139H11.3558L8.49039 21.8629C8.39423 22.1188 8.3766 22.3387 8.4375 22.5224C8.4984 22.7062 8.60577 22.8391 8.75961 22.9211C8.91346 23.0032 9.08494 23.0212 9.27404 22.9752C9.46314 22.9293 9.63462 22.8014 9.78847 22.5914L14.125 16.8817L13.0481 15.7792L10.0865 19.7956L10.3558 19.9433L12.4519 15.159L10.0769 12.7471H7.63462L8.6923 11.3197L7.56731 10.168L5.48077 12.9146C5.3141 13.1311 5.23077 13.3411 5.23077 13.5446ZM9.875 7.12615L10.9519 8.2287L13.9135 4.21228L13.6442 4.06461L11.5481 8.84888L13.9039 11.2607H16.3654L15.3077 12.6881L16.4327 13.8399L18.5289 11.0836C18.6955 10.867 18.7789 10.6569 18.7789 10.4535C18.7789 10.2632 18.7148 10.1057 18.5866 9.98096C18.4583 9.85627 18.2916 9.79392 18.0865 9.79392H12.6538L15.5192 2.13516C15.6154 1.88577 15.633 1.66756 15.5721 1.48052C15.5112 1.29348 15.4039 1.15894 15.25 1.07691C15.0962 0.994873 14.9247 0.978466 14.7356 1.02769C14.5464 1.07691 14.375 1.20652 14.2212 1.41653L9.875 7.12615ZM18.7307 19.9629C18.8782 20.1139 19.0544 20.1894 19.2596 20.1894C19.4647 20.1894 19.6378 20.1139 19.7789 19.9629C19.9263 19.8251 20 19.6496 20 19.4363C20 19.223 19.9263 19.0409 19.7789 18.8899L5.26923 4.03508C5.12821 3.8907 4.95192 3.81687 4.74038 3.81359C4.52885 3.8103 4.35256 3.88413 4.21154 4.03508C4.07051 4.17946 4 4.3583 4 4.57159C4 4.78488 4.07051 4.96371 4.21154 5.1081L18.7307 19.9629Z" fill="black" fill-opacity="0.8"/>
</svg>
