<svg width="24" height="24" viewBox="0 0 24 24" fill="none" xmlns="http://www.w3.org/2000/svg">
<path d="M5 13.2173C5 13.4077 5.06624 13.5669 5.19872 13.6949C5.3312 13.8229 5.50343 13.8869 5.7154 13.8869H11.3293L8.36834 21.8643C8.26898 22.1204 8.25076 22.3404 8.31369 22.5242C8.37662 22.708 8.48591 22.841 8.64158 22.9231C8.79724 23.0051 8.97278 23.0216 9.16819 22.9723C9.36361 22.9231 9.54411 22.7967 9.70972 22.5932L18.7417 11.4051C18.9139 11.1885 19 10.9784 19 10.7748C19 10.5844 18.9338 10.4252 18.8013 10.2972C18.6687 10.1692 18.4965 10.1051 18.2845 10.1051H12.6707L15.6316 2.12779C15.731 1.87829 15.7492 1.66162 15.6862 1.47778C15.6234 1.29394 15.5141 1.16099 15.3584 1.07891C15.2027 0.996843 15.0272 0.978788 14.8318 1.02475C14.6364 1.07071 14.4559 1.19874 14.2903 1.40884L5.25834 12.587C5.08611 12.8102 5 13.0203 5 13.2173Z" fill="#FFCC00"/>
</svg>
