<svg width="24" height="24" viewBox="0 0 24 24" fill="none" xmlns="http://www.w3.org/2000/svg">
<path d="M9.70972 22.5914L18.7417 11.0836C18.9139 10.867 19 10.6569 19 10.4535C19 10.2632 18.9338 10.1057 18.8013 9.98096C18.6687 9.85627 18.4965 9.79392 18.2845 9.79392H12.6707L15.6316 2.13516C15.731 1.88577 15.7492 1.66756 15.6862 1.48052C15.6234 1.29348 15.5124 1.15894 15.3534 1.07691C15.1944 0.994873 15.0172 0.978466 14.8218 1.02769C14.6264 1.07691 14.4492 1.20652 14.2903 1.41653L5.25834 12.9146C5.08611 13.1311 5 13.3411 5 13.5446C5 13.7349 5.06624 13.894 5.19872 14.022C5.3312 14.15 5.50343 14.2139 5.7154 14.2139H11.3293L8.36834 21.8629C8.26898 22.1188 8.25076 22.3387 8.31369 22.5224C8.37662 22.7062 8.48757 22.8391 8.64654 22.9211C8.80553 23.0032 8.98272 23.0212 9.17813 22.9752C9.37354 22.9293 9.55073 22.8014 9.70972 22.5914ZM10.2959 19.9433L13.6245 12.7471H7.48403L13.9723 4.21228L13.6941 4.06461L10.3754 11.2607H16.506L10.0177 19.7956L10.2959 19.9433Z" fill="black" fill-opacity="0.8"/>
</svg>
