<svg width="24" height="24" viewBox="0 0 24 24" fill="none" xmlns="http://www.w3.org/2000/svg">
<path d="M4.2451 16.3166C4.61111 16.0357 4.89705 15.7237 5.10294 15.3808C5.30882 15.0378 5.46895 14.7095 5.58333 14.3959C5.69771 14.0824 5.79901 13.8243 5.88725 13.6217C5.97549 13.4193 6.0915 13.318 6.23529 13.318C6.38562 13.318 6.54575 13.3899 6.71568 13.5335C6.88561 13.6773 7.10457 13.919 7.37254 14.2587C7.82352 14.8401 8.21078 15.2762 8.53431 15.5669C8.85784 15.8576 9.17319 16.003 9.48038 16.003C9.66993 16.003 9.86274 15.9246 10.0588 15.7678C10.2549 15.611 10.4183 15.4166 10.549 15.1847C10.6797 14.9528 10.7451 14.7258 10.7451 14.5037C10.7451 14.3992 10.6961 14.2881 10.598 14.1705C10.5 14.0529 10.4019 13.9402 10.3039 13.8325C10.2059 13.7247 10.1569 13.6316 10.1569 13.5532C10.1569 13.416 10.268 13.3474 10.4902 13.3474C10.9477 13.3474 11.3742 13.238 11.7696 13.0191C12.165 12.8003 12.4837 12.5308 12.7255 12.2107C12.9673 11.8906 13.0882 11.577 13.0882 11.27C13.0882 11.0479 13 10.8356 12.8235 10.633C12.647 10.4305 12.4689 10.2411 12.2892 10.0647C12.1095 9.88831 12.0196 9.72825 12.0196 9.58453C12.0196 9.49308 12.0523 9.42122 12.1176 9.36895C12.183 9.31669 12.2582 9.29055 12.3431 9.29055C12.4019 9.29055 12.4673 9.30362 12.5392 9.32976C12.6111 9.35589 12.6895 9.40162 12.7745 9.46695C13.1339 9.74785 13.4297 9.90137 13.6617 9.9275C13.8938 9.95363 14.0735 9.90464 14.2009 9.78052C14.3284 9.6564 14.4085 9.50614 14.4412 9.32976C14.4608 9.2187 14.5163 9.10274 14.6078 8.98189C14.6993 8.86103 14.8856 8.73201 15.1666 8.59482C15.5588 8.39231 15.9036 8.16856 16.201 7.92358C16.4983 7.6786 16.732 7.43199 16.902 7.18375C17.0719 6.9355 17.1569 6.70032 17.1569 6.47821C17.1569 6.29529 17.0899 6.12054 16.9559 5.95395C16.8219 5.78737 16.6667 5.63222 16.4902 5.48849C16.3137 5.34477 16.1585 5.21738 16.0245 5.10632C15.8905 4.99527 15.8235 4.90381 15.8235 4.83196C15.8235 4.75356 15.8921 4.6768 16.0294 4.60167C16.1667 4.52654 16.3954 4.43999 16.7157 4.34199C16.3758 4.03495 15.9738 3.76058 15.5098 3.51886C15.0457 3.27715 14.5196 3.0877 13.9314 2.95052C13.3432 2.81333 12.6961 2.74474 11.9902 2.74474C10.8856 2.79046 9.8611 2.97665 8.91666 3.30329C7.97222 3.62992 7.12745 4.07415 6.38234 4.63597C5.63725 5.19779 4.99999 5.85596 4.47059 6.6105C3.94117 7.36503 3.53594 8.19796 3.2549 9.10927C2.97385 10.0206 2.83006 10.9825 2.82353 11.9951C2.81699 12.7856 2.93627 13.5597 3.18137 14.3175C3.42647 15.0753 3.78104 15.7417 4.2451 16.3166ZM16.3725 20.2754C18.2941 19.0473 19.7059 17.5676 20.6079 15.8364C20.5294 15.2093 20.3464 14.7226 20.0588 14.3763C19.7712 14.0301 19.4183 13.857 19 13.857C18.8823 13.857 18.7565 13.8668 18.6225 13.8864C18.4885 13.906 18.3594 13.9386 18.2353 13.9844C18.0654 14.0366 17.9428 14.0513 17.8677 14.0284C17.7925 14.0056 17.6863 13.9158 17.549 13.759C17.3529 13.5369 17.1585 13.3801 16.9656 13.2886C16.7728 13.1972 16.5425 13.1514 16.2745 13.1514C15.7647 13.1514 15.3513 13.2935 15.0343 13.5777C14.7173 13.8619 14.4477 14.3371 14.2254 15.0035C14.1666 15.206 14.0735 15.3579 13.946 15.4591C13.8186 15.5604 13.5817 15.6764 13.2353 15.807L12.8235 15.9539C12.4379 16.1042 12.1928 16.3313 12.0882 16.6351C11.9836 16.9388 11.9967 17.3781 12.1274 17.953C12.3693 18.9786 12.8431 19.4914 13.549 19.4914C13.8628 19.4914 14.1275 19.4539 14.3431 19.3787C14.5588 19.3036 14.7745 19.2661 14.9902 19.2661C15.3039 19.2596 15.5572 19.3494 15.75 19.5356C15.9428 19.7217 16.1503 19.9684 16.3725 20.2754ZM14.3628 11.3974C14.5719 11.3974 14.7549 11.3467 14.9117 11.2455C15.0686 11.1442 15.2287 11.0315 15.3921 10.9074C15.5555 10.7833 15.7582 10.6853 16 10.6134C16.2353 10.5481 16.415 10.4109 16.5392 10.2019C16.6634 9.99283 16.7255 9.78705 16.7255 9.58453C16.7255 9.41468 16.683 9.26933 16.598 9.14847C16.5131 9.02762 16.3791 8.96719 16.196 8.96719C15.7973 8.96719 15.4738 9.23177 15.2254 9.76092C15.1601 9.89811 15.0654 10.0092 14.9411 10.0941C14.817 10.179 14.6242 10.2574 14.3628 10.3293C13.9902 10.4403 13.8039 10.6363 13.8039 10.9172C13.8039 11.0805 13.8594 11.2014 13.9705 11.2798C14.0816 11.3582 14.2124 11.3974 14.3628 11.3974ZM11.5196 15.9246C11.8006 15.9246 12.0555 15.7923 12.2843 15.5277C12.513 15.2631 12.6274 14.9871 12.6274 14.6996C12.6274 14.3403 12.5637 14.0758 12.4363 13.9059C12.3088 13.7361 12.1601 13.6511 11.9902 13.6511C11.8072 13.6511 11.6601 13.7524 11.549 13.955C11.4379 14.1575 11.3823 14.4253 11.3823 14.7584C11.3823 14.9479 11.3268 15.0769 11.2157 15.1456C11.1046 15.2141 11.049 15.3431 11.049 15.5326C11.049 15.7939 11.2059 15.9246 11.5196 15.9246ZM9.80391 17.7179C10.268 17.7179 10.5 17.5251 10.5 17.1397C10.5 16.8392 10.3333 16.6889 9.99999 16.6889C9.60783 16.6889 9.31698 16.6334 9.12744 16.5224C8.9379 16.4113 8.78267 16.3002 8.66175 16.1891C8.54084 16.0781 8.38562 16.0226 8.19608 16.0226C8.03921 16.0226 7.91176 16.065 7.81372 16.15C7.71568 16.2349 7.66666 16.3459 7.66666 16.4831C7.66666 16.5942 7.71568 16.6856 7.81372 16.7575C7.91176 16.8294 8.03267 16.8653 8.17646 16.8653C8.33332 16.8653 8.44771 16.9078 8.5196 16.9927C8.59149 17.0776 8.66502 17.1773 8.74019 17.2916C8.81535 17.4059 8.93136 17.5055 9.08823 17.5904C9.24509 17.6754 9.48365 17.7179 9.80391 17.7179ZM12 21.9903C13.366 21.9903 14.652 21.7289 15.8578 21.2063C17.0637 20.6837 18.1274 19.9618 19.049 19.0407C19.9706 18.1196 20.6928 17.0564 21.2156 15.8511C21.7385 14.6458 22 13.3605 22 11.9951C22 10.6298 21.7385 9.34445 21.2156 8.13916C20.6928 6.93387 19.9706 5.87066 19.049 4.94954C18.1274 4.02842 17.0621 3.30655 15.8529 2.78393C14.6438 2.26131 13.3562 2 11.9902 2C10.6242 2 9.33823 2.26131 8.13235 2.78393C6.92646 3.30655 5.86437 4.02842 4.94607 4.94954C4.02778 5.87066 3.30719 6.93387 2.78431 8.13916C2.26144 9.34445 2 10.6298 2 11.9951C2 13.3605 2.26144 14.6458 2.78431 15.8511C3.30719 17.0564 4.02941 18.1196 4.95097 19.0407C5.87255 19.9618 6.93627 20.6837 8.14214 21.2063C9.34803 21.7289 10.634 21.9903 12 21.9903ZM12 20.6576C10.817 20.6576 9.70261 20.4306 8.65686 19.9765C7.6111 19.5225 6.68954 18.897 5.89215 18.1C5.09477 17.303 4.46895 16.3819 4.01471 15.3366C3.56045 14.2914 3.33333 13.1775 3.33333 11.9951C3.33333 10.8127 3.56045 9.69886 4.01471 8.65362C4.46895 7.60837 5.09314 6.68725 5.88725 5.89025C6.68136 5.09326 7.6013 4.46775 8.64705 4.01373C9.6928 3.55969 10.8072 3.33268 11.9902 3.33268C13.1732 3.33268 14.2876 3.55969 15.3333 4.01373C16.3791 4.46775 17.3023 5.09326 18.1029 5.89025C18.9035 6.68725 19.531 7.60837 19.9852 8.65362C20.4395 9.69886 20.6667 10.8127 20.6667 11.9951C20.6667 13.1775 20.4395 14.2914 19.9852 15.3366C19.531 16.3819 18.9052 17.303 18.1078 18.1C17.3104 18.897 16.3889 19.5225 15.3431 19.9765C14.2974 20.4306 13.183 20.6576 12 20.6576Z" fill="black" fill-opacity="0.8"/>
</svg>
