<svg width="24" height="24" viewBox="0 0 24 24" fill="none" xmlns="http://www.w3.org/2000/svg">
<path d="M12.4118 19.8431C12.6928 19.8431 13.0425 19.6797 13.4608 19.353C13.8791 19.0262 14.3137 18.6013 14.7646 18.0784C15.2157 17.5555 15.6389 16.9984 16.0343 16.4069C16.4297 15.8153 16.7516 15.2483 17 14.7058C17.2483 14.1634 17.3725 13.7124 17.3725 13.3529C17.3725 13.0784 17.2516 12.7679 17.0098 12.4216C16.7679 12.0752 16.4624 11.7418 16.0931 11.4216C15.7238 11.1013 15.3431 10.8366 14.951 10.6274C14.5588 10.4183 14.2092 10.3137 13.902 10.3137C13.7124 10.3137 13.5065 10.3709 13.2843 10.4853C13.0621 10.5997 12.8431 10.714 12.6274 10.8284C12.4118 10.9428 12.2222 11 12.0588 11C11.9477 11 11.7957 10.9461 11.6029 10.8382C11.4101 10.7304 11.2157 10.598 11.0196 10.4412C10.8235 10.2843 10.6569 10.1274 10.5196 9.97057C10.3823 9.81372 10.3137 9.68953 10.3137 9.59803C10.3137 9.52614 10.3611 9.45261 10.4559 9.37744C10.5506 9.30228 10.6438 9.2647 10.7353 9.2647C10.8268 9.2647 10.9853 9.3415 11.2108 9.49509C11.4363 9.64868 11.6765 9.80064 11.9314 9.95097C12.1862 10.1013 12.4084 10.1765 12.598 10.1765C13.0098 10.1765 13.3399 10.0506 13.5883 9.79901C13.8366 9.54738 13.9608 9.20914 13.9608 8.7843C13.9608 8.51633 13.8366 8.2026 13.5883 7.84313C13.8627 7.70587 14.1764 7.53757 14.5294 7.33823C14.8823 7.13888 15.2385 6.91176 15.598 6.65686C15.9575 6.40195 16.2843 6.12418 16.5784 5.82352C16.8725 5.52287 17.0947 5.20588 17.245 4.87255L16.3627 4.41176C16.232 4.71895 16.0147 5.01307 15.7107 5.29411C15.4068 5.57516 15.0621 5.8366 14.6765 6.07843C14.2909 6.32026 13.9069 6.54085 13.5245 6.74019C13.1421 6.93954 12.8104 7.11437 12.5294 7.2647C12.4183 7.32352 12.3432 7.40849 12.3039 7.5196C12.2647 7.63071 12.2941 7.75489 12.3922 7.89215C12.5948 8.16666 12.7418 8.37744 12.8333 8.5245C12.9248 8.67156 12.9705 8.80065 12.9705 8.91176C12.9705 8.99019 12.9444 9.05555 12.8921 9.10784C12.8399 9.16012 12.7712 9.18626 12.6862 9.18626C12.5751 9.18626 12.4003 9.1111 12.1618 8.96077C11.9232 8.81044 11.6716 8.65848 11.4069 8.50489C11.1421 8.3513 10.9183 8.2745 10.7353 8.2745C10.5131 8.2745 10.2941 8.3415 10.0784 8.47549C9.86274 8.60947 9.683 8.77777 9.53921 8.98038C9.39542 9.183 9.32352 9.38888 9.32352 9.59803C9.32352 9.82025 9.42156 10.0686 9.61764 10.3431C9.81372 10.6176 10.0572 10.8807 10.348 11.1323C10.6389 11.384 10.9395 11.5899 11.25 11.75C11.5604 11.9101 11.83 11.9902 12.0588 11.9902C12.2418 11.9902 12.4575 11.933 12.7059 11.8186C12.9543 11.7042 13.1896 11.5882 13.4118 11.4706C13.634 11.3529 13.7974 11.2941 13.902 11.2941C14.0653 11.2941 14.2843 11.3742 14.5588 11.5343C14.8333 11.6944 15.1095 11.8921 15.3873 12.1274C15.665 12.3628 15.9003 12.5932 16.0931 12.8186C16.286 13.0441 16.3824 13.2222 16.3824 13.3529C16.3824 13.5817 16.2745 13.9167 16.0588 14.3579C15.8431 14.799 15.5653 15.2745 15.2254 15.7843C14.8856 16.2941 14.5294 16.7827 14.1569 17.25C13.7843 17.7173 13.4379 18.1013 13.1176 18.402C12.7974 18.7026 12.5523 18.8529 12.3823 18.8529C12.2712 18.8529 12.1585 18.8088 12.0441 18.7206C11.9297 18.6323 11.8725 18.5424 11.8725 18.4509C11.8725 18.3987 11.8807 18.3398 11.897 18.2745C11.9134 18.2091 11.951 18.0915 12.0098 17.9216C12.0621 17.7647 12.116 17.5817 12.1715 17.3725C12.2271 17.1634 12.2516 16.9411 12.2451 16.7058C12.2385 16.3856 12.1013 16.0898 11.8333 15.8186C11.5653 15.5474 11.1438 15.2091 10.5686 14.8039C10.464 14.732 10.3578 14.6569 10.25 14.5784C10.1421 14.5 10.0359 14.4215 9.93136 14.3431C9.63725 14.1209 9.49019 13.8954 9.49019 13.6667C9.49019 13.549 9.53267 13.3595 9.61764 13.098C9.71568 12.7582 9.7647 12.5131 9.7647 12.3628C9.7647 12.1405 9.70751 11.9461 9.59313 11.7794C9.47875 11.6127 9.30392 11.4281 9.06862 11.2255C9.03594 11.1993 9.00653 11.1732 8.98038 11.147C8.95424 11.1209 8.92482 11.098 8.89214 11.0784L7.32352 9.67646C6.66993 9.08823 6.21895 8.57189 5.97059 8.12745C5.72222 7.683 5.62745 7.26143 5.68628 6.86274C5.7451 6.46405 5.90523 6.04575 6.16666 5.60784L5.20588 5.41176C4.93137 5.84967 4.76307 6.32189 4.70098 6.82842C4.63889 7.33496 4.75327 7.88562 5.04412 8.48039C5.33497 9.07516 5.87581 9.72221 6.66666 10.4216L8.22548 11.7941C8.40849 11.9575 8.54574 12.0801 8.63725 12.1618C8.72875 12.2434 8.7745 12.3202 8.7745 12.3922C8.7745 12.4967 8.72875 12.6601 8.63725 12.8823C8.54574 13.1046 8.49999 13.366 8.49999 13.6667C8.49999 14.2353 8.77777 14.7255 9.33333 15.1372C9.90849 15.5686 10.3725 15.9101 10.7255 16.1617C11.0784 16.4134 11.2549 16.6013 11.2549 16.7255C11.2614 17.0261 11.201 17.3105 11.0735 17.5784C10.9461 17.8464 10.8823 18.1503 10.8823 18.4902C10.8823 18.7124 10.9591 18.9264 11.1127 19.1323C11.2663 19.3382 11.4624 19.5081 11.701 19.6421C11.9395 19.7761 12.1764 19.8431 12.4118 19.8431ZM12 22C13.366 22 14.652 21.7385 15.8578 21.2156C17.0637 20.6928 18.1274 19.9706 19.049 19.049C19.9706 18.1274 20.6928 17.0637 21.2156 15.8578C21.7385 14.652 22 13.366 22 12C22 10.634 21.7385 9.34803 21.2156 8.14214C20.6928 6.93627 19.9706 5.87255 19.049 4.95097C18.1274 4.02941 17.0621 3.30719 15.8529 2.78431C14.6438 2.26144 13.3562 2 11.9902 2C10.6242 2 9.33823 2.26144 8.13235 2.78431C6.92646 3.30719 5.86437 4.02941 4.94607 4.95097C4.02778 5.87255 3.30719 6.93627 2.78431 8.14214C2.26144 9.34803 2 10.634 2 12C2 13.366 2.26144 14.652 2.78431 15.8578C3.30719 17.0637 4.02941 18.1274 4.95097 19.049C5.87255 19.9706 6.93627 20.6928 8.14214 21.2156C9.34803 21.7385 10.634 22 12 22ZM12 20.6667C10.817 20.6667 9.70261 20.4395 8.65686 19.9852C7.6111 19.531 6.68954 18.9052 5.89215 18.1078C5.09477 17.3104 4.46895 16.3889 4.01471 15.3431C3.56045 14.2974 3.33333 13.183 3.33333 12C3.33333 10.817 3.56045 9.70261 4.01471 8.65686C4.46895 7.6111 5.09314 6.68954 5.88725 5.89215C6.68136 5.09477 7.6013 4.46895 8.64705 4.01471C9.6928 3.56045 10.8072 3.33333 11.9902 3.33333C13.1732 3.33333 14.2876 3.56045 15.3333 4.01471C16.3791 4.46895 17.3023 5.09477 18.1029 5.89215C18.9035 6.68954 19.531 7.6111 19.9852 8.65686C20.4395 9.70261 20.6667 10.817 20.6667 12C20.6667 13.183 20.4395 14.2974 19.9852 15.3431C19.531 16.3889 18.9052 17.3104 18.1078 18.1078C17.3104 18.9052 16.3889 19.531 15.3431 19.9852C14.2974 20.4395 13.183 20.6667 12 20.6667Z" fill="black" fill-opacity="0.8"/>
</svg>
