<svg width="24" height="24" viewBox="0 0 24 24" fill="none" xmlns="http://www.w3.org/2000/svg">
<path d="M4.2549 16.3166L5.35293 14.2195C5.49019 13.9582 5.63235 13.7508 5.77941 13.5973C5.92647 13.4437 6.07843 13.367 6.23529 13.367C6.38562 13.367 6.54738 13.4437 6.72058 13.5973C6.89379 13.7508 7.09803 13.9811 7.33333 14.2881C7.78431 14.8695 8.17647 15.3089 8.5098 15.6061C8.84313 15.9033 9.16666 16.052 9.48038 16.052C9.683 16.052 9.88561 15.9719 10.0882 15.8118C10.2908 15.6518 10.4591 15.4591 10.5931 15.2338C10.7271 15.0084 10.7941 14.7977 10.7941 14.6017C10.7941 14.458 10.7451 14.3192 10.647 14.1853C10.549 14.0514 10.451 13.9305 10.3529 13.8226C10.2549 13.7149 10.2059 13.6251 10.2059 13.5532C10.2059 13.4487 10.2908 13.3964 10.4608 13.3964C10.9379 13.3964 11.3791 13.2853 11.7843 13.0632C12.1896 12.8411 12.5164 12.5651 12.7647 12.2352C13.0131 11.9053 13.1373 11.5836 13.1373 11.27C13.1373 10.9695 13.0572 10.6967 12.8971 10.4518C12.7369 10.2068 12.5751 9.9961 12.4118 9.81971C12.2484 9.64333 12.1667 9.50288 12.1667 9.39835C12.1667 9.32649 12.2026 9.29055 12.2745 9.29055C12.3202 9.29055 12.3758 9.31505 12.4412 9.36406C12.5065 9.41305 12.5947 9.48001 12.7059 9.56493C13.0719 9.85238 13.379 10.0092 13.6274 10.0353C13.8758 10.0614 14.067 10.0075 14.2009 9.87361C14.3349 9.73968 14.4183 9.58127 14.4509 9.39835C14.4705 9.29383 14.5245 9.1844 14.6128 9.07008C14.701 8.95576 14.8791 8.83 15.147 8.69281C15.4869 8.51643 15.8137 8.30411 16.1275 8.05587C16.4412 7.80762 16.6993 7.54631 16.902 7.27194C17.1046 6.99756 17.2059 6.73298 17.2059 6.47821C17.2059 6.22996 17.1389 6.01602 17.0049 5.83636C16.8709 5.65671 16.7157 5.50156 16.5392 5.37091C16.3628 5.24025 16.2075 5.13246 16.0736 5.04753C15.9396 4.96261 15.8726 4.89075 15.8726 4.83196C15.8726 4.7013 16.1863 4.54777 16.8137 4.37139L16.5686 3.41108C16.0522 3.54173 15.6225 3.72628 15.2794 3.96473C14.9362 4.20317 14.7646 4.47265 14.7646 4.77315C14.7646 4.96914 14.8382 5.14716 14.9853 5.30721C15.1323 5.46727 15.3006 5.61425 15.4902 5.74817C15.6797 5.88209 15.848 6.00785 15.9951 6.12544C16.1422 6.24303 16.2157 6.36062 16.2157 6.47821C16.2157 6.62846 16.1373 6.78198 15.9804 6.93877C15.8235 7.09555 15.634 7.2458 15.4118 7.38952C15.1895 7.53325 14.9738 7.66064 14.7646 7.77169C14.4183 7.97421 14.1765 8.14406 14.0392 8.28125C13.9019 8.41843 13.8153 8.53929 13.7794 8.64381C13.7435 8.74834 13.7026 8.8496 13.6568 8.94759C13.598 9.05864 13.5228 9.09784 13.4313 9.06518C13.3398 9.03252 13.2304 8.96882 13.103 8.8741C12.9755 8.77937 12.83 8.68954 12.6667 8.60462C12.5033 8.51969 12.3203 8.47723 12.1176 8.47723C11.8758 8.47723 11.6716 8.55072 11.5049 8.69771C11.3382 8.8447 11.2549 9.03905 11.2549 9.28076C11.2549 9.529 11.3301 9.77235 11.4804 10.0108C11.6307 10.2492 11.7794 10.4746 11.9265 10.6869C12.0735 10.8993 12.147 11.0936 12.147 11.27C12.147 11.479 12.0686 11.6766 11.9118 11.8628C11.7549 12.049 11.5294 12.2025 11.2353 12.3234C10.9412 12.4443 10.5882 12.5047 10.1765 12.5047C9.83659 12.5047 9.57515 12.5782 9.39215 12.7252C9.20914 12.8722 9.11763 13.0763 9.11763 13.3376C9.11763 13.514 9.17156 13.6822 9.27941 13.8423C9.38725 14.0023 9.49509 14.1476 9.60293 14.2783C9.71078 14.4089 9.7647 14.5167 9.7647 14.6017C9.7647 14.6605 9.75163 14.7193 9.72548 14.7781C9.69934 14.8369 9.66502 14.8843 9.62254 14.9202C9.58006 14.9561 9.53921 14.9741 9.49999 14.9741C9.39541 14.9741 9.23038 14.8744 9.00489 14.6751C8.7794 14.4759 8.48365 14.1444 8.11764 13.6805C7.80391 13.2625 7.49672 12.9407 7.19607 12.7153C6.89542 12.49 6.59476 12.3773 6.29411 12.3773C5.86928 12.3773 5.52287 12.5161 5.2549 12.7937C4.98693 13.0714 4.77451 13.3507 4.61764 13.6316L3.65686 15.3954L4.2549 16.3166ZM16.3627 20.3538L17.1569 19.7462C17.0065 19.5503 16.8398 19.3412 16.6568 19.119C16.4739 18.897 16.2484 18.7059 15.9804 18.5459C15.7124 18.3858 15.3824 18.3058 14.9902 18.3058C14.7483 18.3058 14.5588 18.3254 14.4215 18.3646C14.2843 18.4038 14.1602 18.443 14.0491 18.4822C13.9379 18.5214 13.8006 18.541 13.6372 18.541C13.4935 18.541 13.3775 18.4773 13.2892 18.3498C13.201 18.2224 13.1242 18.0216 13.0588 17.7473C13 17.5121 12.9689 17.3128 12.9657 17.1495C12.9624 16.9862 13.0392 16.8718 13.196 16.8065C13.3137 16.7608 13.5016 16.7003 13.7598 16.6252C14.018 16.5501 14.2794 16.4113 14.5441 16.2088C14.8088 16.0062 15.0065 15.6959 15.1372 15.2778C15.281 14.8467 15.4281 14.5413 15.5784 14.3616C15.7287 14.182 15.9216 14.0922 16.1569 14.0922C16.366 14.0922 16.5278 14.1379 16.6422 14.2293C16.7566 14.3208 16.8595 14.4253 16.951 14.5429C17.0425 14.6605 17.1552 14.7634 17.2892 14.8516C17.4232 14.9398 17.6176 14.9839 17.8725 14.9839C18.0947 14.9839 18.2761 14.9529 18.4166 14.8908C18.5572 14.8287 18.7059 14.7977 18.8627 14.7977C19.0784 14.7977 19.2565 14.9104 19.397 15.1357C19.5376 15.3611 19.6275 15.7318 19.6667 16.2479L20.6569 15.856C20.5784 15.2092 20.3905 14.7062 20.0932 14.3469C19.7957 13.9876 19.4313 13.808 19 13.808C18.7386 13.808 18.4771 13.8504 18.2156 13.9353C18.0588 13.9876 17.9461 14.0023 17.8774 13.9795C17.8088 13.9566 17.7124 13.8733 17.5882 13.7296C17.3856 13.501 17.1862 13.3393 16.9901 13.2446C16.7941 13.1498 16.5556 13.1025 16.2745 13.1025C15.7778 13.1025 15.3627 13.2413 15.0294 13.5189C14.6961 13.7965 14.4118 14.2881 14.1764 14.9936C14.1176 15.1831 14.0278 15.3268 13.9069 15.4248C13.786 15.5228 13.5556 15.6339 13.2157 15.758L12.8039 15.905C12.4183 16.0552 12.1666 16.2871 12.049 16.6007C11.9314 16.9143 11.9412 17.3683 12.0785 17.9628C12.3268 19.0146 12.817 19.5405 13.549 19.5405C13.8692 19.5405 14.1372 19.5029 14.3529 19.4278C14.5686 19.3527 14.7811 19.3151 14.9902 19.3151C15.2974 19.3086 15.5457 19.3984 15.7352 19.5845C15.9248 19.7707 16.1339 20.0271 16.3627 20.3538ZM14.3628 11.3974C14.5719 11.3974 14.7549 11.3467 14.9117 11.2455C15.0686 11.1442 15.2287 11.0315 15.3921 10.9074C15.5555 10.7833 15.7582 10.6853 16 10.6134C16.2353 10.5481 16.415 10.4109 16.5392 10.2019C16.6634 9.99283 16.7255 9.78705 16.7255 9.58453C16.7255 9.41468 16.683 9.26933 16.598 9.14847C16.5131 9.02762 16.3791 8.96719 16.196 8.96719C15.7973 8.96719 15.4738 9.23177 15.2254 9.76092C15.1601 9.89811 15.0654 10.0092 14.9411 10.0941C14.817 10.179 14.6242 10.2574 14.3628 10.3293C13.9902 10.4403 13.8039 10.6363 13.8039 10.9172C13.8039 11.0805 13.8594 11.2014 13.9705 11.2798C14.0816 11.3582 14.2124 11.3974 14.3628 11.3974ZM11.5196 15.9246C11.8006 15.9246 12.0555 15.7923 12.2843 15.5277C12.513 15.2631 12.6274 14.9871 12.6274 14.6996C12.6274 14.3403 12.5637 14.0758 12.4363 13.9059C12.3088 13.7361 12.1601 13.6511 11.9902 13.6511C11.8072 13.6511 11.6601 13.7524 11.549 13.955C11.4379 14.1575 11.3823 14.4253 11.3823 14.7584C11.3823 14.9479 11.3268 15.0769 11.2157 15.1456C11.1046 15.2141 11.049 15.3431 11.049 15.5326C11.049 15.7939 11.2059 15.9246 11.5196 15.9246ZM9.80391 17.7179C10.268 17.7179 10.5 17.5251 10.5 17.1397C10.5 16.8392 10.3333 16.6889 9.99999 16.6889C9.60783 16.6889 9.31698 16.6334 9.12744 16.5224C8.9379 16.4113 8.78267 16.3002 8.66175 16.1891C8.54084 16.0781 8.38562 16.0226 8.19608 16.0226C8.03921 16.0226 7.91176 16.065 7.81372 16.15C7.71568 16.2349 7.66666 16.3459 7.66666 16.4831C7.66666 16.5942 7.71568 16.6856 7.81372 16.7575C7.91176 16.8294 8.03267 16.8653 8.17646 16.8653C8.33332 16.8653 8.44771 16.9078 8.5196 16.9927C8.59149 17.0776 8.66502 17.1773 8.74019 17.2916C8.81535 17.4059 8.93136 17.5055 9.08823 17.5904C9.24509 17.6754 9.48365 17.7179 9.80391 17.7179ZM12 21.9903C13.366 21.9903 14.652 21.7289 15.8578 21.2063C17.0637 20.6837 18.1274 19.9618 19.049 19.0407C19.9706 18.1196 20.6928 17.0564 21.2156 15.8511C21.7385 14.6458 22 13.3605 22 11.9951C22 10.6298 21.7385 9.34445 21.2156 8.13916C20.6928 6.93387 19.9706 5.87066 19.049 4.94954C18.1274 4.02842 17.0621 3.30655 15.8529 2.78393C14.6438 2.26131 13.3562 2 11.9902 2C10.6242 2 9.33823 2.26131 8.13235 2.78393C6.92646 3.30655 5.86437 4.02842 4.94607 4.94954C4.02778 5.87066 3.30719 6.93387 2.78431 8.13916C2.26144 9.34445 2 10.6298 2 11.9951C2 13.3605 2.26144 14.6458 2.78431 15.8511C3.30719 17.0564 4.02941 18.1196 4.95097 19.0407C5.87255 19.9618 6.93627 20.6837 8.14214 21.2063C9.34803 21.7289 10.634 21.9903 12 21.9903ZM12 20.6576C10.817 20.6576 9.70261 20.4306 8.65686 19.9765C7.6111 19.5225 6.68954 18.897 5.89215 18.1C5.09477 17.303 4.46895 16.3819 4.01471 15.3366C3.56045 14.2914 3.33333 13.1775 3.33333 11.9951C3.33333 10.8127 3.56045 9.69886 4.01471 8.65362C4.46895 7.60837 5.09314 6.68725 5.88725 5.89025C6.68136 5.09326 7.6013 4.46775 8.64705 4.01373C9.6928 3.55969 10.8072 3.33268 11.9902 3.33268C13.1732 3.33268 14.2876 3.55969 15.3333 4.01373C16.3791 4.46775 17.3023 5.09326 18.1029 5.89025C18.9035 6.68725 19.531 7.60837 19.9852 8.65362C20.4395 9.69886 20.6667 10.8127 20.6667 11.9951C20.6667 13.1775 20.4395 14.2914 19.9852 15.3366C19.531 16.3819 18.9052 17.303 18.1078 18.1C17.3104 18.897 16.3889 19.5225 15.3431 19.9765C14.2974 20.4306 13.183 20.6576 12 20.6576Z" fill="black" fill-opacity="0.8"/>
</svg>
