<svg width="24" height="24" viewBox="0 0 24 24" fill="none" xmlns="http://www.w3.org/2000/svg">
<path d="M12.4118 19.5392C12.8758 19.5392 13.317 19.3921 13.7353 19.098C14.1536 18.8039 14.5327 18.4493 14.8726 18.0343C15.2124 17.6193 15.5016 17.2222 15.7402 16.8432C15.9788 16.4641 16.1471 16.1928 16.2451 16.0294C16.5 15.6111 16.6094 15.2075 16.5735 14.8187C16.5376 14.4297 16.5196 14.1144 16.5196 13.8726C16.5196 13.7745 16.6062 13.6274 16.7794 13.4313C16.9526 13.2353 17.1258 13.0082 17.299 12.75C17.4722 12.4918 17.5588 12.2157 17.5588 11.9216C17.5588 11.6928 17.4575 11.4771 17.2549 11.2745C17.0523 11.0719 16.8186 10.884 16.5539 10.7108C16.2892 10.5376 16.0556 10.384 15.8529 10.25C15.6503 10.116 15.549 10.0033 15.549 9.91176C15.549 9.79411 15.5899 9.6781 15.6716 9.56372C15.7532 9.44934 15.8431 9.39215 15.9411 9.39215C16.0392 9.39215 16.1715 9.46077 16.3382 9.59803C16.5048 9.73529 16.6879 9.89378 16.8872 10.0735C17.0866 10.2533 17.286 10.4118 17.4853 10.549C17.6846 10.6863 17.866 10.7549 18.0294 10.7549C18.1601 10.7549 18.2647 10.7271 18.3431 10.6716C18.4216 10.616 18.4869 10.5588 18.5392 10.5C18.5915 10.4412 18.6438 10.4118 18.6961 10.4118C18.7484 10.4118 18.8023 10.5131 18.8578 10.7157C18.9134 10.9183 18.982 11.1716 19.0637 11.4755C19.1454 11.7794 19.2483 12.0964 19.3725 12.4264C19.4967 12.7565 19.6503 13.0572 19.8333 13.3284C20.0163 13.5997 20.2451 13.7974 20.5196 13.9216L20.9313 13.0196C20.8171 12.9896 20.715 12.9381 20.625 12.8652C20.5192 12.7795 20.4302 12.6643 20.3578 12.5196C20.2238 12.2516 20.1143 11.9395 20.0294 11.5833C19.9444 11.2271 19.8594 10.8774 19.7745 10.5343C19.6895 10.1912 19.5735 9.90685 19.4265 9.68137C19.2794 9.45587 19.0719 9.34312 18.8039 9.34312C18.5882 9.34312 18.4117 9.40685 18.2745 9.5343C18.1372 9.66175 18.0261 9.72548 17.9411 9.72548C17.9085 9.72548 17.8546 9.70097 17.7794 9.65195C17.7043 9.60293 17.6029 9.52777 17.4754 9.42646C17.348 9.32515 17.1895 9.19607 17 9.03921C16.8627 8.92156 16.7107 8.80392 16.5441 8.68627C16.3774 8.56862 16.1601 8.5098 15.8921 8.5098C15.5653 8.5098 15.2712 8.66012 15.0098 8.96077C14.7484 9.26143 14.6177 9.58169 14.6177 9.92155C14.6177 10.1895 14.7157 10.4265 14.9117 10.6323C15.1078 10.8382 15.3349 11.0212 15.5931 11.1814C15.8513 11.3415 16.0784 11.482 16.2745 11.6029C16.4706 11.7238 16.5686 11.83 16.5686 11.9216C16.5686 12.0326 16.5375 12.1437 16.4754 12.2548C16.4134 12.366 16.2941 12.5262 16.1176 12.7353C15.915 12.9575 15.7664 13.1552 15.6716 13.3284C15.5768 13.5016 15.5294 13.683 15.5294 13.8726C15.5294 13.9575 15.5327 14.0392 15.5392 14.1176C15.5457 14.1961 15.5523 14.2712 15.5588 14.3431C15.5849 14.6699 15.5866 14.915 15.5637 15.0784C15.5408 15.2418 15.4837 15.402 15.3921 15.5588C15.281 15.7353 15.1225 15.9869 14.9166 16.3137C14.7108 16.6405 14.4722 16.9755 14.2009 17.3186C13.9297 17.6618 13.6421 17.9526 13.3382 18.1911C13.0343 18.4297 12.7255 18.549 12.4118 18.549C12.1307 18.549 11.9199 18.4608 11.7794 18.2843C11.6389 18.1078 11.5425 17.8709 11.4902 17.5735C11.4379 17.2762 11.4101 16.9461 11.4069 16.5833C11.4036 16.2206 11.4019 15.8562 11.4019 15.4902C11.4019 14.7712 11.1487 14.1732 10.6421 13.6961C10.1356 13.2189 9.50653 12.9804 8.7549 12.9804C7.60457 12.9804 7.02941 12.4248 7.02941 11.3137C7.02941 10.8039 7.18464 10.3595 7.49509 9.98038C7.80555 9.6013 8.20097 9.30718 8.68136 9.09803C9.16176 8.88888 9.65686 8.7843 10.1667 8.7843C10.5131 8.7843 10.8366 8.82842 11.1372 8.91666C11.4379 9.00489 11.7255 9.09149 12 9.17646C12.2745 9.26143 12.5457 9.30391 12.8137 9.30391C13.0294 9.30391 13.2223 9.21241 13.3922 9.0294C13.5621 8.8464 13.6945 8.62254 13.7892 8.35784C13.884 8.09313 13.9314 7.83986 13.9314 7.59803C13.9314 7.36928 13.8301 7.14215 13.6274 6.91666C13.4248 6.69117 13.1781 6.48366 12.8872 6.29411C12.5964 6.10457 12.3137 5.95424 12.0392 5.84313C11.7647 5.73202 11.5555 5.67647 11.4118 5.67647C11.1699 5.67647 10.9935 5.75 10.8823 5.89706C10.7916 6.01717 10.7314 6.1907 10.7016 6.41765C10.695 6.46856 10.6899 6.52215 10.6863 6.57843L10.8823 6.55882L10.7016 6.41765L10.5686 6.31372C10.366 6.1634 10.1781 6.04575 10.0049 5.96078C9.83169 5.87581 9.65031 5.83333 9.46077 5.83333C9.22548 5.83333 9.03921 5.89705 8.90195 6.02451C8.7647 6.15196 8.65032 6.29901 8.55881 6.46568C8.46731 6.63235 8.37907 6.77941 8.29411 6.90686C8.20914 7.03431 8.10457 7.09803 7.98038 7.09803C7.8366 7.09803 7.7647 7.02287 7.7647 6.87255C7.7647 6.72875 7.85294 6.53594 8.0294 6.29411C8.20587 6.05228 8.38234 5.76797 8.55881 5.44117C8.73529 5.11437 8.82353 4.74836 8.82353 4.34313L8.82852 3.93844L8.83332 3.54902H7.90196V4.43137C7.90196 4.82353 7.81536 5.15032 7.64215 5.41176C7.46895 5.6732 7.29411 5.91993 7.11764 6.15195C6.94117 6.38398 6.85293 6.65686 6.85293 6.97058C6.85293 7.25162 6.94443 7.47875 7.12744 7.65195C7.31045 7.82515 7.55882 7.91176 7.87254 7.91176C8.16013 7.91176 8.38888 7.84966 8.55881 7.72548C8.72875 7.6013 8.86274 7.45751 8.96077 7.29411C9.05882 7.13072 9.14869 6.98692 9.23038 6.86274C9.31208 6.73855 9.41176 6.67646 9.5294 6.67646C9.65359 6.67646 9.78757 6.73202 9.93136 6.84313C10.0752 6.95424 10.2402 7.06372 10.4265 7.17157C10.6127 7.27941 10.8301 7.33333 11.0784 7.33333C11.3006 7.33333 11.4673 7.25816 11.5784 7.10784C11.6895 6.95751 11.7385 6.74509 11.7255 6.47058L11.451 6.55882C11.6013 6.61111 11.7647 6.6781 11.9412 6.7598C12.1176 6.8415 12.2859 6.933 12.4461 7.03431C12.6062 7.13562 12.7385 7.24183 12.8431 7.35293C12.9477 7.46405 13 7.57516 13 7.68626C13 7.81045 12.9738 7.94607 12.9215 8.09313C12.8693 8.24019 12.7908 8.31372 12.6862 8.31372C12.5425 8.31372 12.3366 8.27123 12.0686 8.18627C11.8006 8.1013 11.5 8.0147 11.1667 7.92646C10.8333 7.83822 10.5 7.79411 10.1667 7.79411C9.48039 7.79411 8.82189 7.9428 8.19117 8.24019C7.56045 8.53758 7.04411 8.95097 6.64215 9.48038C6.24019 10.0098 6.03921 10.6209 6.03921 11.3137C6.03921 12.1372 6.27614 12.7859 6.75 13.2598C7.22385 13.7336 7.89215 13.9705 8.7549 13.9705C9.23202 13.9705 9.62745 14.1127 9.94117 14.397C10.2549 14.6813 10.4118 15.0457 10.4118 15.4902C10.4118 15.8562 10.4167 16.2696 10.4265 16.7304C10.4363 17.1912 10.4935 17.6356 10.598 18.0637C10.7026 18.4918 10.8954 18.8447 11.1765 19.1226C11.4575 19.4003 11.8693 19.5392 12.4118 19.5392ZM15.0588 6.0294C15.1634 6.0294 15.2729 6.06372 15.3873 6.13235C15.5017 6.20097 15.6503 6.23529 15.8333 6.23529C15.9444 6.23529 16.0375 6.18954 16.1127 6.09803C16.1879 6.00653 16.2255 5.89542 16.2255 5.7647C16.2255 5.52941 16.1062 5.33006 15.8677 5.16667C15.6291 5.00327 15.3333 4.92157 14.9804 4.92157C14.5621 4.92157 14.2386 4.98693 14.0098 5.11764C13.781 5.24836 13.6667 5.43464 13.6667 5.67647C13.6667 5.83333 13.7189 5.96241 13.8235 6.06372C13.9281 6.16503 14.0588 6.21568 14.2157 6.21568C14.3791 6.21568 14.5147 6.18464 14.6225 6.12255C14.7304 6.06045 14.8758 6.0294 15.0588 6.0294ZM12 22C13.366 22 14.652 21.7385 15.8578 21.2156C17.0637 20.6928 18.1274 19.9706 19.049 19.049C19.9706 18.1274 20.6928 17.0637 21.2156 15.8578C21.7385 14.652 22 13.366 22 12C22 10.634 21.7385 9.34803 21.2156 8.14214C20.6928 6.93627 19.9706 5.87255 19.049 4.95097C18.1274 4.02941 17.0621 3.30719 15.8529 2.78431C14.6438 2.26144 13.3562 2 11.9902 2C10.6242 2 9.33823 2.26144 8.13235 2.78431C6.92646 3.30719 5.86437 4.02941 4.94607 4.95097C4.02778 5.87255 3.30719 6.93627 2.78431 8.14214C2.26144 9.34803 2 10.634 2 12C2 13.366 2.26144 14.652 2.78431 15.8578C3.30719 17.0637 4.02941 18.1274 4.95097 19.049C5.87255 19.9706 6.93627 20.6928 8.14214 21.2156C9.34803 21.7385 10.634 22 12 22ZM12 20.6667C10.817 20.6667 9.70261 20.4395 8.65686 19.9852C7.6111 19.531 6.68954 18.9052 5.89215 18.1078C5.09477 17.3104 4.46895 16.3889 4.01471 15.3431C3.56045 14.2974 3.33333 13.183 3.33333 12C3.33333 10.817 3.56045 9.70261 4.01471 8.65686C4.46895 7.6111 5.09314 6.68954 5.88725 5.89215C6.68136 5.09477 7.6013 4.46895 8.64705 4.01471C8.70731 3.98853 8.7678 3.96311 8.82852 3.93844C9.82146 3.53503 10.8753 3.33333 11.9902 3.33333C13.1732 3.33333 14.2876 3.56045 15.3333 4.01471C16.3791 4.46895 17.3023 5.09477 18.1029 5.89215C18.9035 6.68954 19.531 7.6111 19.9852 8.65686C20.4395 9.70261 20.6667 10.817 20.6667 12C20.6667 12.2926 20.6528 12.581 20.625 12.8652C20.5404 13.73 20.3272 14.556 19.9852 15.3431C19.531 16.3889 18.9052 17.3104 18.1078 18.1078C17.3104 18.9052 16.3889 19.531 15.3431 19.9852C14.2974 20.4395 13.183 20.6667 12 20.6667Z" fill="black" fill-opacity="0.8"/>
<path fill-rule="evenodd" clip-rule="evenodd" d="M20.3578 12.5196C20.4302 12.6643 20.5192 12.7795 20.625 12.8652C20.6528 12.581 20.6667 12.2926 20.6667 12C20.6667 10.817 20.4395 9.70261 19.9852 8.65686C19.531 7.6111 18.9035 6.68954 18.1029 5.89215C17.3023 5.09477 16.3791 4.46895 15.3333 4.01471C14.2876 3.56045 13.1732 3.33333 11.9902 3.33333C10.8753 3.33333 9.82146 3.53503 8.82852 3.93844L8.82353 4.34313C8.82353 4.74836 8.73529 5.11437 8.55881 5.44117C8.38234 5.76797 8.20587 6.05228 8.0294 6.29411C7.85294 6.53594 7.7647 6.72875 7.7647 6.87255C7.7647 7.02287 7.8366 7.09803 7.98038 7.09803C8.10457 7.09803 8.20914 7.03431 8.29411 6.90686C8.37907 6.77941 8.46731 6.63235 8.55881 6.46568C8.65032 6.29901 8.7647 6.15196 8.90195 6.02451C9.03921 5.89705 9.22548 5.83333 9.46077 5.83333C9.65031 5.83333 9.83169 5.87581 10.0049 5.96078C10.1781 6.04575 10.366 6.1634 10.5686 6.31372L10.7016 6.41765C10.7314 6.1907 10.7916 6.01717 10.8823 5.89706C10.9935 5.75 11.1699 5.67647 11.4118 5.67647C11.5555 5.67647 11.7647 5.73202 12.0392 5.84313C12.3137 5.95424 12.5964 6.10457 12.8872 6.29411C13.1781 6.48366 13.4248 6.69117 13.6274 6.91666C13.8301 7.14215 13.9314 7.36928 13.9314 7.59803C13.9314 7.83986 13.884 8.09313 13.7892 8.35784C13.6945 8.62254 13.5621 8.8464 13.3922 9.0294C13.2223 9.21241 13.0294 9.30391 12.8137 9.30391C12.5457 9.30391 12.2745 9.26143 12 9.17646C11.7255 9.09149 11.4379 9.00489 11.1372 8.91666C10.8366 8.82842 10.5131 8.7843 10.1667 8.7843C9.65686 8.7843 9.16176 8.88888 8.68136 9.09803C8.20097 9.30718 7.80555 9.6013 7.49509 9.98038C7.18464 10.3595 7.02941 10.8039 7.02941 11.3137C7.02941 12.4248 7.60457 12.9804 8.7549 12.9804C9.50653 12.9804 10.1356 13.2189 10.6421 13.6961C11.1487 14.1732 11.4019 14.7712 11.4019 15.4902C11.4019 15.8562 11.4036 16.2206 11.4069 16.5833C11.4101 16.9461 11.4379 17.2762 11.4902 17.5735C11.5425 17.8709 11.6389 18.1078 11.7794 18.2843C11.9199 18.4608 12.1307 18.549 12.4118 18.549C12.7255 18.549 13.0343 18.4297 13.3382 18.1911C13.6421 17.9526 13.9297 17.6618 14.2009 17.3186C14.4722 16.9755 14.7108 16.6405 14.9166 16.3137L15.3921 15.5588C15.4837 15.402 15.5408 15.2418 15.5637 15.0784C15.5866 14.915 15.5849 14.6699 15.5588 14.3431C15.5523 14.2712 15.5457 14.1961 15.5392 14.1176C15.5327 14.0392 15.5294 13.9575 15.5294 13.8726C15.5294 13.683 15.5768 13.5016 15.6716 13.3284C15.7664 13.1552 15.915 12.9575 16.1176 12.7353C16.2941 12.5262 16.4134 12.366 16.4754 12.2548C16.5375 12.1437 16.5686 12.0326 16.5686 11.9216C16.5686 11.83 16.4706 11.7238 16.2745 11.6029C16.0784 11.482 15.8513 11.3415 15.5931 11.1814C15.3349 11.0212 15.1078 10.8382 14.9117 10.6323C14.7157 10.4265 14.6177 10.1895 14.6177 9.92155C14.6177 9.58169 14.7484 9.26143 15.0098 8.96077C15.2712 8.66012 15.5653 8.5098 15.8921 8.5098C16.1601 8.5098 16.3774 8.56862 16.5441 8.68627C16.7107 8.80392 16.8627 8.92156 17 9.03921C17.1895 9.19607 17.348 9.32515 17.4754 9.42646C17.6029 9.52777 17.7043 9.60293 17.7794 9.65195C17.8546 9.70097 17.9085 9.72548 17.9411 9.72548C18.0261 9.72548 18.1372 9.66175 18.2745 9.5343C18.4117 9.40685 18.5882 9.34312 18.8039 9.34312C19.0719 9.34312 19.2794 9.45587 19.4265 9.68137C19.5735 9.90685 19.6895 10.1912 19.7745 10.5343C19.8594 10.8774 19.9444 11.2271 20.0294 11.5833C20.1143 11.9395 20.2238 12.2516 20.3578 12.5196ZM15.3873 6.13235C15.2729 6.06372 15.1634 6.0294 15.0588 6.0294C14.8758 6.0294 14.7304 6.06045 14.6225 6.12255C14.5147 6.18464 14.3791 6.21568 14.2157 6.21568C14.0588 6.21568 13.9281 6.16503 13.8235 6.06372C13.7189 5.96241 13.6667 5.83333 13.6667 5.67647C13.6667 5.43464 13.781 5.24836 14.0098 5.11764C14.2386 4.98693 14.5621 4.92157 14.9804 4.92157C15.3333 4.92157 15.6291 5.00327 15.8677 5.16667C16.1062 5.33006 16.2255 5.52941 16.2255 5.7647C16.2255 5.89542 16.1879 6.00653 16.1127 6.09803C16.0375 6.18954 15.9444 6.23529 15.8333 6.23529C15.6503 6.23529 15.5017 6.20097 15.3873 6.13235Z" fill="black" fill-opacity="0.8"/>
</svg>
