<svg width="24" height="24" viewBox="0 0 24 24" fill="none" xmlns="http://www.w3.org/2000/svg">
<path d="M12.3922 19.4118C12.6406 19.4118 12.9608 19.2533 13.3529 18.9362C13.7451 18.6193 14.1552 18.2124 14.5833 17.7157C15.0114 17.2189 15.415 16.6862 15.7941 16.1176C16.1731 15.549 16.482 15.0065 16.7206 14.4902C16.9591 13.9738 17.0784 13.549 17.0784 13.2157C17.0784 12.9738 16.9656 12.6944 16.7402 12.3774C16.5147 12.0604 16.2287 11.7516 15.8823 11.451C15.5359 11.1503 15.1797 10.9019 14.8137 10.7059C14.4477 10.5098 14.1274 10.4118 13.8529 10.4118C13.6895 10.4118 13.5033 10.4689 13.2941 10.5833C13.085 10.6977 12.8709 10.8121 12.652 10.9265C12.433 11.0408 12.2287 11.098 12.0392 11.098C11.9019 11.098 11.732 11.0408 11.5294 10.9265C11.3268 10.8121 11.1258 10.6683 10.9265 10.4951C10.7271 10.3219 10.5604 10.1454 10.4265 9.96568C10.2925 9.78594 10.2255 9.63725 10.2255 9.51959C10.2255 9.38234 10.2761 9.27614 10.3774 9.20097C10.4787 9.12581 10.598 9.08823 10.7353 9.08823C10.8921 9.08823 11.0784 9.15522 11.2941 9.2892C11.5098 9.42319 11.7402 9.55718 11.9853 9.69116C12.2304 9.82515 12.4804 9.89215 12.7353 9.89215C13.0556 9.89215 13.299 9.79084 13.4657 9.58822C13.6323 9.38561 13.7156 9.12744 13.7156 8.81372C13.7156 8.65032 13.6732 8.48039 13.5883 8.30392C13.5033 8.12744 13.3921 7.93136 13.2549 7.71568C13.5098 7.59149 13.8121 7.43463 14.1618 7.24509C14.5114 7.05555 14.8693 6.8366 15.2353 6.58823C15.6013 6.33986 15.9363 6.06699 16.2402 5.7696C16.5441 5.47222 16.7778 5.15359 16.9411 4.81372C16.5751 4.24509 15.9411 3.78921 15.0392 3.44608C14.1372 3.10294 13.1176 2.93137 11.9804 2.93137C11.1438 2.93137 10.3252 3.04248 9.5245 3.26471C8.72385 3.48693 7.99673 3.78595 7.34313 4.16176C6.68954 4.53758 6.15522 4.95588 5.7402 5.41666C5.32516 5.87745 5.0817 6.34967 5.0098 6.83332C4.95098 7.34967 5.10621 7.88888 5.47548 8.45097C5.84476 9.01306 6.37254 9.59149 7.05882 10.1863L8.49018 11.4314C8.71894 11.634 8.89542 11.7941 9.0196 11.9118C9.14378 12.0294 9.20587 12.1503 9.20587 12.2745C9.20587 12.4118 9.16666 12.5425 9.08823 12.6667C9.0098 12.7908 8.93136 12.9199 8.85293 13.0539C8.7745 13.1879 8.73528 13.3464 8.73528 13.5294C8.73528 14.0196 8.98365 14.4477 9.48038 14.8137C10.0098 15.2124 10.4167 15.5131 10.701 15.7157C10.9853 15.9183 11.1814 16.0767 11.2892 16.1911C11.397 16.3055 11.451 16.4215 11.451 16.5392C11.4575 16.866 11.397 17.1617 11.2696 17.4264C11.1421 17.6911 11.0784 17.9738 11.0784 18.2745C11.0784 18.5424 11.2206 18.799 11.5049 19.0441C11.7892 19.2892 12.085 19.4118 12.3922 19.4118ZM12 22C13.366 22 14.652 21.7385 15.8578 21.2156C17.0637 20.6928 18.1274 19.9706 19.049 19.049C19.9706 18.1274 20.6928 17.0637 21.2156 15.8578C21.7385 14.652 22 13.366 22 12C22 10.634 21.7385 9.34803 21.2156 8.14214C20.6928 6.93627 19.9706 5.87255 19.049 4.95097C18.1274 4.02941 17.0621 3.30719 15.8529 2.78431C14.6438 2.26144 13.3562 2 11.9902 2C10.6242 2 9.33823 2.26144 8.13235 2.78431C6.92646 3.30719 5.86437 4.02941 4.94607 4.95097C4.02778 5.87255 3.30719 6.93627 2.78431 8.14214C2.26144 9.34803 2 10.634 2 12C2 13.366 2.26144 14.652 2.78431 15.8578C3.30719 17.0637 4.02941 18.1274 4.95097 19.049C5.87255 19.9706 6.93627 20.6928 8.14214 21.2156C9.34803 21.7385 10.634 22 12 22ZM12 20.6667C10.817 20.6667 9.70261 20.4395 8.65686 19.9852C7.6111 19.531 6.68954 18.9052 5.89215 18.1078C5.09477 17.3104 4.46895 16.3889 4.01471 15.3431C3.56045 14.2974 3.33333 13.183 3.33333 12C3.33333 10.817 3.56045 9.70261 4.01471 8.65686C4.46895 7.6111 5.09314 6.68954 5.88725 5.89215C6.68136 5.09477 7.6013 4.46895 8.64705 4.01471C9.6928 3.56045 10.8072 3.33333 11.9902 3.33333C13.1732 3.33333 14.2876 3.56045 15.3333 4.01471C16.3791 4.46895 17.3023 5.09477 18.1029 5.89215C18.9035 6.68954 19.531 7.6111 19.9852 8.65686C20.4395 9.70261 20.6667 10.817 20.6667 12C20.6667 13.183 20.4395 14.2974 19.9852 15.3431C19.531 16.3889 18.9052 17.3104 18.1078 18.1078C17.3104 18.9052 16.3889 19.531 15.3431 19.9852C14.2974 20.4395 13.183 20.6667 12 20.6667Z" fill="black" fill-opacity="0.8"/>
</svg>
