<svg width="24" height="24" viewBox="0 0 24 24" fill="none" xmlns="http://www.w3.org/2000/svg">
<path d="M12.5287 19.414C12.7882 19.414 13.055 19.3732 13.3291 19.2915C13.6033 19.21 13.9802 19.1692 14.46 19.1692C14.783 19.1692 15.0449 19.189 15.2457 19.2285C15.4464 19.2681 15.6312 19.3089 15.8001 19.3509C15.9689 19.393 16.1733 19.414 16.4132 19.414C16.9566 19.414 17.3691 19.3052 17.6506 19.0876C17.9321 18.87 18.0728 18.5708 18.0728 18.19C18.0728 17.7549 17.9247 17.3741 17.6285 17.0477C17.3323 16.7213 16.9138 16.4667 16.3728 16.2837C15.8319 16.1007 15.1918 16.0092 14.4526 16.0092C14.0904 16.0092 13.7844 16.0204 13.5347 16.0426C13.2851 16.0649 13.0623 16.0958 12.8665 16.1354C12.6707 16.1749 12.47 16.2194 12.2644 16.2688L11.4713 14.4441C11.2118 13.8606 10.8985 13.3525 10.5314 12.9198C10.1642 12.4871 9.74201 12.1508 9.26468 11.9109C8.7874 11.6711 8.25258 11.5512 7.66022 11.5512H6.79373C6.65176 11.5512 6.53672 11.5191 6.4486 11.4548C6.36048 11.3905 6.31642 11.2866 6.31642 11.1432C6.31642 10.9158 6.44615 10.7637 6.70561 10.687C6.96507 10.6104 7.26124 10.5721 7.59413 10.5721C8.67114 10.5721 9.6037 10.8713 10.3918 11.4696C11.18 12.068 11.8164 12.968 12.3011 14.1697L12.8077 15.4084C13.0525 15.354 13.3083 15.3145 13.5751 15.2897C13.8419 15.265 14.11 15.2527 14.3792 15.2527C14.5995 15.2527 14.8112 15.2601 15.0144 15.2749C15.2175 15.2897 15.4219 15.3119 15.6275 15.3416C15.8527 15.1735 16.0987 15.0041 16.3655 14.8335C16.6323 14.6629 16.9517 14.496 17.3238 14.3328C17.5979 14.5208 17.8843 14.6839 18.1829 14.8224C18.4816 14.9609 18.7875 15.0685 19.1008 15.1451C19.4141 15.2217 19.7348 15.26 20.0628 15.26C20.7383 15.26 21.2927 15.1958 21.726 15.0672C22.1592 14.9386 22.4799 14.7025 22.6879 14.3588C22.896 14.0151 23 13.5219 23 12.879C23 12.2955 22.9021 11.7552 22.7063 11.2582C22.5105 10.7612 22.2363 10.3285 21.8838 9.96012C21.5314 9.5917 21.1189 9.30489 20.6465 9.09967C20.1741 8.89444 19.6589 8.7943 19.1008 8.79925L17.1329 6.15113C16.5748 5.42419 15.9763 4.88394 15.3375 4.53036C14.6986 4.17679 14.0536 4 13.4025 4C13.1333 4 12.8457 4.03585 12.5397 4.10756C12.2338 4.17926 11.9437 4.28311 11.6696 4.4191C11.3954 4.55509 11.1715 4.71457 10.9977 4.89754C10.8239 5.08051 10.737 5.28079 10.737 5.49838C10.737 5.69618 10.8484 5.91376 11.0711 6.15113C11.2939 6.3885 11.5692 6.62463 11.8972 6.85952C12.2252 7.09442 12.541 7.30582 12.8445 7.49373L17.0741 10.1048C16.9126 10.263 16.7522 10.3842 16.5931 10.4682C16.434 10.5523 16.2639 10.5943 16.0828 10.5943C15.7989 10.5943 15.4978 10.5152 15.1796 10.357C14.8614 10.1987 14.4796 9.98855 14.0341 9.72646C13.4711 9.39514 12.9313 9.07741 12.4149 8.77329C11.8984 8.46916 11.3893 8.19594 10.8875 7.95363C10.3857 7.71132 9.8717 7.51969 9.34544 7.37876C8.81918 7.23782 8.26234 7.16735 7.6749 7.16735C6.86226 7.16735 6.11694 7.32313 5.43892 7.63467C4.7609 7.94621 4.16489 8.41229 3.65087 9.03291C3.13685 9.65352 2.7134 10.4237 2.38051 11.3435C1.98888 11.3435 1.66088 11.4622 1.39653 11.6996C1.13218 11.9369 1 12.246 1 12.6268C1 13.057 1.15176 13.3982 1.45527 13.6504C1.75879 13.9026 2.14063 14.0287 2.6008 14.0287C2.95817 14.5331 3.38652 14.9411 3.88585 15.2527C4.38518 15.5642 4.94081 15.7917 5.55274 15.9351C6.16467 16.0785 6.81576 16.1502 7.50601 16.1502C7.55986 16.1502 7.61494 16.1489 7.67123 16.1465C7.72753 16.144 7.78261 16.1427 7.83645 16.1427L10.8104 18.6351C11.1776 18.9714 11.486 19.1852 11.7356 19.2767C11.9853 19.3682 12.2497 19.414 12.5287 19.414ZM7.21963 20C7.92946 20 8.51691 19.9332 8.98195 19.7997C9.44705 19.6662 9.85583 19.4782 10.2083 19.2359L7.93191 17.3222C7.87806 17.3271 7.82054 17.3321 7.75935 17.337C7.69816 17.342 7.6284 17.3445 7.55007 17.3445C7.42769 17.3445 7.28694 17.3346 7.12784 17.3148C6.96874 17.295 6.79373 17.2764 6.6028 17.2592C6.41188 17.2418 6.20872 17.2332 5.99332 17.2332C5.58211 17.2332 5.25779 17.3346 5.02036 17.5373C4.78294 17.7401 4.66422 18.0096 4.66422 18.3458C4.66422 18.8452 4.89553 19.2458 5.35815 19.5475C5.82076 19.8492 6.44126 20 7.21963 20ZM19.8939 12.5229C19.7274 12.5229 19.5867 12.4623 19.4716 12.3412C19.3566 12.22 19.299 12.0779 19.299 11.9147C19.299 11.7465 19.3578 11.5994 19.4753 11.4733C19.5928 11.3472 19.7348 11.2842 19.9012 11.2842C20.0725 11.2842 20.2157 11.3423 20.3308 11.4585C20.4458 11.5747 20.5033 11.7169 20.5033 11.885C20.5033 12.0482 20.4434 12.1953 20.3234 12.3264C20.2035 12.4574 20.0603 12.5229 19.8939 12.5229Z" fill="black" fill-opacity="0.8"/>
</svg>
