<svg width="24" height="24" viewBox="0 0 24 24" fill="none" xmlns="http://www.w3.org/2000/svg">
<path d="M16.1521 19.2316C16.6399 19.2316 17.027 19.157 17.3136 19.0076C17.6001 18.8582 17.8073 18.6637 17.9351 18.4242C18.063 18.1846 18.1269 17.925 18.1269 17.6452C18.1269 17.1377 17.9801 16.7084 17.6865 16.3575C17.3929 16.0065 16.9524 15.7397 16.3652 15.5572C15.778 15.3746 15.0439 15.2832 14.1631 15.2832C13.9642 15.2832 13.7913 15.2868 13.6445 15.2939C13.4977 15.301 13.3687 15.3093 13.2574 15.3188C13.1461 15.3283 13.0478 15.3401 12.9626 15.3543L12.444 14.1023C12.0841 13.239 11.6626 12.5549 11.1795 12.0498C10.6965 11.5447 10.1767 11.1831 9.6203 10.9649C9.06383 10.7467 8.49435 10.6376 7.91186 10.6376C7.76978 10.6376 7.62061 10.6412 7.46433 10.6483C7.30805 10.6554 7.1565 10.6756 7.0097 10.7088C6.83447 10.7467 6.71016 10.8095 6.63675 10.8973C6.56335 10.985 6.52665 11.0882 6.52665 11.2068C6.52665 11.3443 6.57164 11.4522 6.66161 11.5304C6.75159 11.6087 6.86999 11.6478 7.0168 11.6478C7.16834 11.6431 7.30331 11.6336 7.4217 11.6194C7.5401 11.6052 7.68691 11.598 7.86213 11.598C8.40202 11.598 8.89337 11.7036 9.33617 11.9147C9.77892 12.1257 10.1897 12.466 10.5686 12.9355C10.9475 13.405 11.3074 14.0287 11.6484 14.8066L12.3304 16.393C12.6003 16.3361 12.8773 16.2887 13.1615 16.2508C13.4456 16.2128 13.789 16.1939 14.1915 16.1939C14.6698 16.1939 15.1304 16.2401 15.5732 16.3326C16.016 16.425 16.3771 16.5709 16.6564 16.7701C16.9359 16.9693 17.0756 17.2326 17.0756 17.5598C17.0756 17.7495 16.9951 17.9025 16.8341 18.0187C16.673 18.1349 16.4457 18.193 16.1521 18.193C15.8064 18.193 15.495 18.1633 15.218 18.1041C14.9409 18.0448 14.6485 18.0151 14.3406 18.0151C14.0423 18.0151 13.7795 18.027 13.5522 18.0507C13.3249 18.0744 13.1248 18.0981 12.9519 18.1219C12.779 18.1456 12.6263 18.1574 12.4937 18.1574C12.328 18.1574 12.1575 18.1372 11.9823 18.0969C11.807 18.0566 11.6294 17.9629 11.4495 17.8159L8.27415 15.1338C7.13756 15.186 6.15726 15.0579 5.33323 14.7497C4.50921 14.4414 3.85567 13.9386 3.37262 13.2414C3.0127 13.2841 2.71435 13.2379 2.47756 13.1027C2.24077 12.9675 2.12238 12.7506 2.12238 12.4518C2.12238 12.1814 2.23367 11.9632 2.45625 11.7972C2.67883 11.6312 2.98666 11.5577 3.37972 11.5767C3.74438 10.3768 4.31504 9.48985 5.09171 8.91596C5.86837 8.34208 6.81079 8.05514 7.91896 8.05514C8.49672 8.05514 9.07566 8.15592 9.6558 8.35749C10.2359 8.55906 10.8031 8.81161 11.3571 9.11516C11.9112 9.4187 12.4417 9.73173 12.9484 10.0542C13.4551 10.3768 13.9263 10.6613 14.362 10.908C14.594 11.0502 14.8308 11.1487 15.0723 11.2032C15.3139 11.2577 15.5246 11.285 15.7045 11.285C16.0929 11.285 16.4445 11.1617 16.7594 10.9151C17.0744 10.6684 17.3716 10.2961 17.651 9.79813L12.9199 6.88128C12.7495 6.77694 12.5707 6.65599 12.3836 6.51845C12.1966 6.38091 12.0367 6.2493 11.9041 6.12361C11.7715 5.99792 11.7052 5.90188 11.7052 5.83548C11.7052 5.69794 11.7964 5.57344 11.9787 5.46199C12.1611 5.35052 12.3848 5.26278 12.65 5.19876C12.9152 5.13473 13.1662 5.10271 13.403 5.10271C13.9666 5.10271 14.4875 5.25922 14.9658 5.57225C15.4441 5.88528 15.8987 6.30265 16.3297 6.82436L18.5105 9.4353C19.0125 9.41159 19.4766 9.48273 19.9028 9.64873C20.329 9.81473 20.702 10.0542 21.0217 10.3673C21.3413 10.6803 21.59 11.0479 21.7675 11.47C21.9451 11.8921 22.0339 12.3498 22.0339 12.8431C22.0339 13.2604 21.9641 13.5888 21.8244 13.8284C21.6846 14.0679 21.4621 14.2375 21.1567 14.3371C20.8512 14.4366 20.4498 14.4864 19.9526 14.4864C19.4885 14.4864 19.009 14.4011 18.514 14.2303C18.0191 14.0596 17.5515 13.8319 17.1111 13.5474C16.6612 13.6612 16.2089 13.8082 15.7543 13.9884C15.2997 14.1686 14.858 14.3773 14.4295 14.6145C14.0009 14.8516 13.5995 15.1125 13.2254 15.397L14.0281 15.8666C14.5775 15.5489 15.1126 15.2749 15.6335 15.0449C16.1545 14.8149 16.5854 14.6382 16.9264 14.5149C17.2106 14.7046 17.5267 14.867 17.8747 15.0022C18.2228 15.1374 18.5744 15.2417 18.9296 15.3152C19.2848 15.3888 19.614 15.4231 19.9171 15.4184C20.5564 15.4137 21.1057 15.3331 21.5651 15.1765C22.0245 15.02 22.3785 14.7556 22.6271 14.3833C22.8757 14.0109 23 13.4952 23 12.8359C23 12.2288 22.8935 11.668 22.6804 11.1534C22.4672 10.6388 22.176 10.1894 21.8066 9.80524C21.4372 9.42107 21.0122 9.12109 20.5315 8.90529C20.0508 8.68949 19.5406 8.57922 19.0007 8.57448L17.4592 6.47577C16.8672 5.68371 16.2432 5.07307 15.5874 4.64384C14.9315 4.21461 14.1986 4 13.3887 4C13.0762 4 12.7471 4.0415 12.4014 4.1245C12.0556 4.2075 11.7324 4.3237 11.4317 4.4731C11.131 4.6225 10.8871 4.80036 10.7001 5.00667C10.513 5.21298 10.4194 5.43945 10.4194 5.68608C10.4194 5.96117 10.5106 6.21254 10.6929 6.4402C10.8753 6.66785 11.1085 6.88247 11.3926 7.08404C11.6768 7.28561 11.9704 7.48362 12.2735 7.67808C12.5387 7.84408 12.8252 8.01956 13.1331 8.20453C13.4409 8.3895 13.7605 8.57922 14.092 8.77367C14.4235 8.96813 14.7586 9.16496 15.0972 9.36416C15.4358 9.56336 15.7732 9.76019 16.1095 9.95465C16.0195 10.0353 15.9378 10.0946 15.8644 10.1325C15.791 10.1704 15.7093 10.1894 15.6194 10.1894C15.5104 10.1894 15.3825 10.1621 15.2357 10.1076C15.0889 10.0531 14.9208 9.97124 14.7314 9.86216C14.0163 9.45427 13.3615 9.07366 12.7672 8.72032C12.1729 8.36697 11.6117 8.05513 11.0836 7.78479C10.5556 7.51445 10.0358 7.30339 9.52443 7.15162C9.01296 6.99985 8.48254 6.92396 7.93317 6.92396C6.61189 6.92396 5.48714 7.25952 4.55893 7.93064C3.63072 8.60175 2.9393 9.58707 2.48467 10.8866C2.04424 10.9815 1.68669 11.1688 1.41201 11.4486C1.13734 11.7285 1 12.0913 1 12.5372C1 12.9071 1.08761 13.2166 1.26284 13.4656C1.43806 13.7146 1.66301 13.9043 1.93768 14.0347C2.21236 14.1651 2.50361 14.2398 2.81143 14.2588C3.03875 14.624 3.3892 14.9619 3.86278 15.2725C4.33635 15.5832 4.9082 15.8216 5.57831 15.9876C6.24842 16.1536 6.98602 16.2034 7.7911 16.137L10.8954 18.7052C11.099 18.8759 11.3228 19.0064 11.5667 19.0965C11.8106 19.1866 12.1101 19.2316 12.4653 19.2316C12.7637 19.2316 13.0514 19.1985 13.3284 19.1321C13.6054 19.0657 13.9547 19.0325 14.3762 19.0325C14.7598 19.0325 15.0735 19.0657 15.3174 19.1321C15.5613 19.1985 15.8395 19.2316 16.1521 19.2316ZM7.47143 20C7.97342 20 8.45529 19.9514 8.91703 19.8542C9.37875 19.7569 9.81561 19.5945 10.2276 19.3669C10.6397 19.1392 11.0233 18.8261 11.3785 18.4277L10.4976 17.8302C10.2845 18.0957 10.0252 18.3175 9.71974 18.4954C9.41427 18.6732 9.06855 18.8072 8.68259 18.8973C8.29663 18.9874 7.88108 19.0325 7.43592 19.0325C6.93866 19.0325 6.54204 18.9495 6.24605 18.7835C5.95006 18.6175 5.80207 18.3922 5.80207 18.1076C5.80207 17.9653 5.84943 17.8456 5.94415 17.7483C6.03886 17.6511 6.19041 17.6025 6.39878 17.6025C6.60242 17.6025 6.81553 17.6215 7.03811 17.6594C7.26069 17.6973 7.49511 17.7163 7.74137 17.7163C8.15814 17.7163 8.50978 17.6772 8.79628 17.5989C9.08279 17.5207 9.36338 17.3417 9.63805 17.0618L8.87084 16.386C8.68618 16.5662 8.5228 16.6835 8.38071 16.7381C8.23863 16.7927 8.08472 16.8199 7.91896 16.8199C7.76268 16.8199 7.6064 16.8069 7.45012 16.7808C7.29384 16.7547 7.13401 16.7286 6.97063 16.7025C6.80724 16.6764 6.63557 16.6634 6.45561 16.6634C5.96309 16.6634 5.56055 16.795 5.24798 17.0582C4.93542 17.3215 4.77914 17.6689 4.77914 18.1005C4.77914 18.7076 5.02541 19.1759 5.51793 19.5056C6.01045 19.8352 6.66161 20 7.47143 20ZM19.4766 12.3948C19.6518 12.3948 19.8034 12.332 19.9313 12.2063C20.0591 12.0806 20.1231 11.9301 20.1231 11.7545C20.1231 11.5791 20.0591 11.4285 19.9313 11.3028C19.8034 11.1771 19.6518 11.1143 19.4766 11.1143C19.3014 11.1143 19.1511 11.1771 19.0256 11.3028C18.9 11.4285 18.8373 11.5791 18.8373 11.7545C18.8373 11.9301 18.9 12.0806 19.0256 12.2063C19.1511 12.332 19.3014 12.3948 19.4766 12.3948Z" fill="black" fill-opacity="0.8"/>
</svg>
