<svg width="24" height="24" viewBox="0 0 24 24" fill="none" xmlns="http://www.w3.org/2000/svg">
<path d="M5.94927 9.77529L4.14424 8.24416C3.96309 8.08812 3.76738 8.00685 3.55712 8.00035C3.34686 7.99384 3.16733 8.07836 3.01852 8.25391C2.86972 8.43595 2.81797 8.63263 2.86325 8.84393C2.90854 9.05524 3.01852 9.23566 3.1932 9.3852L5.01764 10.9261L5.94927 9.77529ZM4.18305 14.3882H1.79576C1.55639 14.3882 1.36392 14.4565 1.21835 14.593C1.07278 14.7296 1 14.9116 1 15.1392C1 15.3602 1.07278 15.539 1.21835 15.6756C1.36392 15.8121 1.55962 15.8804 1.80547 15.8804L4.18305 15.8706V14.3882ZM4.96912 20.0934L3.15439 21.6147C2.97971 21.7643 2.87134 21.9448 2.82929 22.156C2.78723 22.3673 2.84061 22.5608 2.98941 22.7363C3.13821 22.9183 3.31774 23.0061 3.52801 22.9997C3.73827 22.9931 3.93398 22.9119 4.11513 22.7558L5.90074 21.2344L4.96912 20.0934ZM18.0507 9.77529L18.9823 10.9261L20.8067 9.3852C20.9814 9.23566 21.0898 9.05524 21.1319 8.84393C21.1739 8.63263 21.1238 8.43595 20.9814 8.25391C20.8326 8.07836 20.6531 7.99384 20.4428 8.00035C20.2325 8.00685 20.0368 8.08812 19.8557 8.24416L18.0507 9.77529ZM19.8169 14.3882V15.8706L22.1945 15.8804C22.4403 15.8804 22.636 15.8121 22.7816 15.6756C22.9272 15.539 23 15.3602 23 15.1392C23 14.9116 22.9272 14.7296 22.7816 14.593C22.636 14.4565 22.4436 14.3882 22.2042 14.3882H19.8169ZM19.0308 20.0934L18.0896 21.2344L19.8848 22.7558C20.066 22.9119 20.2617 22.9931 20.4719 22.9997C20.6822 23.0061 20.8617 22.9183 21.0105 22.7363C21.1593 22.5608 21.2127 22.3673 21.1707 22.156C21.1287 21.9448 21.017 21.7643 20.8358 21.6147L19.0308 20.0934Z" fill="black" fill-opacity="0.8"/>
<path d="M3 15.4687C3 17.0143 3.30222 18.3954 3.90666 19.6121C4.51111 20.8287 5.35801 21.8186 6.44737 22.5818C7.53672 23.345 8.81561 23.8129 10.284 23.9853C10.6323 24.0236 10.8936 23.9869 11.0678 23.8752C11.2419 23.7634 11.329 23.583 11.329 23.3338V12.4318C11.329 12.2594 11.3939 12.1125 11.5236 11.9911C11.6534 11.8698 11.8105 11.8091 11.9949 11.8091C12.1793 11.8091 12.3381 11.8698 12.4713 11.9911C12.6045 12.1125 12.6711 12.2594 12.6711 12.4318V23.3338C12.6711 23.583 12.7581 23.7634 12.9323 23.8752C13.1064 23.9869 13.3677 24.0236 13.716 23.9853C15.1845 23.8129 16.4633 23.345 17.5527 22.5818C18.642 21.8186 19.4889 20.8287 20.0934 19.6121C20.6978 18.3954 21 17.0143 21 15.4687C21 14.779 20.9112 14.0445 20.7336 13.2653C20.5561 12.4862 20.3068 11.7597 19.9858 11.0858C19.6648 10.4121 19.2858 9.88356 18.8487 9.50036C18.514 9.21295 18.2373 9.05169 18.0188 9.01656C17.8002 8.98143 17.5953 9.00219 17.4041 9.07883C16.646 9.39816 15.8025 9.65044 14.8737 9.83565C13.9448 10.0209 12.9853 10.1135 11.9949 10.1135C11.0114 10.1135 10.0552 10.0209 9.12637 9.83565C8.19751 9.65044 7.35402 9.39816 6.59592 9.07883C6.40468 9.00219 6.19978 8.98143 5.98123 9.01656C5.76267 9.05169 5.48607 9.21295 5.15141 9.50036C4.7143 9.88356 4.33524 10.4121 4.01423 11.0858C3.69323 11.7597 3.44395 12.4862 3.26637 13.2653C3.08879 14.0445 3 14.779 3 15.4687Z" fill="#FF3B30"/>
<path d="M7.06729 6.65044C7.06729 6.9076 7.12452 7.13744 7.23898 7.33995C7.35344 7.54246 7.55916 7.71444 7.85615 7.85587C8.3635 8.10018 8.98376 8.29305 9.71694 8.43449C10.4501 8.57593 11.2096 8.64665 11.9954 8.64665C12.7874 8.64665 13.5499 8.57593 14.2831 8.43449C15.0163 8.29305 15.6365 8.10018 16.1439 7.85587C16.4408 7.71444 16.6465 7.54246 16.761 7.33995C16.8755 7.13744 16.9328 6.9076 16.9328 6.65044C16.9328 5.94324 16.7286 5.30195 16.3202 4.72655C15.9118 4.15116 15.338 3.69309 14.5986 3.35235C13.8592 3.01161 12.9915 2.84124 11.9954 2.84124C11.0054 2.84124 10.1408 3.01161 9.40139 3.35235C8.66203 3.69309 8.08817 4.15116 7.67982 4.72655C7.27147 5.30195 7.06729 5.94324 7.06729 6.65044ZM8.38515 13.3238C8.05723 13.3238 7.77727 13.2 7.54525 12.9525C7.31322 12.7049 7.19721 12.414 7.19721 12.0797C7.19721 11.739 7.31322 11.4464 7.54525 11.2021C7.77727 10.9579 8.05723 10.8357 8.38515 10.8357C8.71307 10.8357 8.99459 10.9579 9.2297 11.2021C9.46481 11.4464 9.58237 11.739 9.58237 12.0797C9.58237 12.414 9.46481 12.7049 9.2297 12.9525C8.99459 13.2 8.71307 13.3238 8.38515 13.3238ZM7.39211 17.4705C7.0085 17.4705 6.68059 17.329 6.40836 17.0462C6.13612 16.7633 6 16.4193 6 16.0143C6 15.6221 6.13612 15.2846 6.40836 15.0017C6.68059 14.7189 7.0085 14.5774 7.39211 14.5774C7.76953 14.5774 8.09591 14.7189 8.37123 15.0017C8.64656 15.2846 8.78423 15.6221 8.78423 16.0143C8.78423 16.4193 8.64656 16.7633 8.37123 17.0462C8.09591 17.329 7.76953 17.4705 7.39211 17.4705ZM8.57077 21C8.28616 21 8.04486 20.8971 7.84687 20.6914C7.64888 20.4857 7.54989 20.235 7.54989 19.9392C7.54989 19.6435 7.64888 19.3928 7.84687 19.187C8.04486 18.9813 8.28616 18.8785 8.57077 18.8785C8.85538 18.8785 9.09823 18.9813 9.29931 19.187C9.50039 19.3928 9.60093 19.6435 9.60093 19.9392C9.60093 20.235 9.50039 20.4857 9.29931 20.6914C9.09823 20.8971 8.85538 21 8.57077 21ZM15.6148 13.3238C15.2869 13.3238 15.0055 13.2 14.7703 12.9525C14.5352 12.7049 14.4177 12.414 14.4177 12.0797C14.4177 11.739 14.5352 11.4464 14.7703 11.2021C15.0055 10.9579 15.2869 10.8357 15.6148 10.8357C15.9427 10.8357 16.2227 10.9579 16.4547 11.2021C16.6867 11.4464 16.8028 11.739 16.8028 12.0797C16.8028 12.414 16.6867 12.7049 16.4547 12.9525C16.2227 13.2 15.9427 13.3238 15.6148 13.3238ZM16.6079 17.4705C16.2243 17.4705 15.8964 17.329 15.6241 17.0462C15.3519 16.7633 15.2158 16.4193 15.2158 16.0143C15.2158 15.6221 15.3519 15.2846 15.6241 15.0017C15.8964 14.7189 16.2243 14.5774 16.6079 14.5774C16.9915 14.5774 17.3194 14.7189 17.5916 15.0017C17.8639 15.2846 18 15.6221 18 16.0143C18 16.4193 17.8639 16.7633 17.5916 17.0462C17.3194 17.329 16.9915 17.4705 16.6079 17.4705ZM15.4292 21C15.1446 21 14.9018 20.8971 14.7007 20.6914C14.4996 20.4857 14.3991 20.235 14.3991 19.9392C14.3991 19.6435 14.4996 19.3928 14.7007 19.187C14.9018 18.9813 15.1446 18.8785 15.4292 18.8785C15.7139 18.8785 15.9552 18.9813 16.1532 19.187C16.3512 19.3928 16.4502 19.6435 16.4502 19.9392C16.4502 20.235 16.3512 20.4857 16.1532 20.6914C15.9552 20.8971 15.7139 21 15.4292 21ZM7.91184 2.39764L8.54293 2.63872C8.74091 2.70944 8.88012 2.80266 8.96056 2.91838C9.04099 3.03411 9.06265 3.17555 9.02552 3.3427L8.91416 3.83452L10.3434 3.33306C10.3929 2.86374 10.314 2.46032 10.1067 2.1228C9.89946 1.78527 9.5669 1.53293 9.10905 1.36578L8.37587 1.05718C8.14695 0.973607 7.95205 0.981643 7.79118 1.08129C7.63032 1.18094 7.5205 1.32077 7.46172 1.50079C7.40294 1.6808 7.40758 1.8576 7.47564 2.03119C7.5437 2.20477 7.6891 2.32692 7.91184 2.39764ZM16.0882 2.39764C16.3109 2.32692 16.4563 2.20477 16.5244 2.03119C16.5924 1.8576 16.5971 1.6808 16.5383 1.50079C16.4795 1.32077 16.3697 1.18094 16.2088 1.08129C16.0479 0.981643 15.853 0.973607 15.6241 1.05718L14.8909 1.36578C14.4331 1.53293 14.099 1.78527 13.8886 2.1228C13.6783 2.46032 13.6009 2.86374 13.6566 3.33306L15.0858 3.83452L14.9745 3.3427C14.9373 3.17555 14.959 3.03411 15.0395 2.91838C15.1199 2.80266 15.2591 2.70944 15.4571 2.63872L16.0882 2.39764Z" fill="black" fill-opacity="0.8"/>
</svg>
