<svg width="24" height="24" viewBox="0 0 24 24" fill="none" xmlns="http://www.w3.org/2000/svg">
<path d="M11.9952 24C13.2761 24 14.439 23.7912 15.4839 23.3736C16.5287 22.956 17.4264 22.3573 18.1769 21.5776C18.9274 20.7978 19.5064 19.8647 19.914 18.7783C20.3215 17.6919 20.5253 16.4865 20.5253 15.1618C20.5253 14.1831 20.3895 13.2141 20.1178 12.2549C19.846 11.2958 19.4595 10.3986 18.9581 9.5634C18.4567 8.72819 17.8631 8.00718 17.1773 7.40036C17.1708 6.49338 16.9525 5.71527 16.5222 5.06603C16.092 4.41679 15.4903 3.91926 14.7172 3.57343C13.9441 3.22761 13.0367 3.05469 11.9952 3.05469C10.96 3.05469 10.0559 3.22924 9.28274 3.57833C8.50962 3.92741 7.90795 4.42658 7.47771 5.07582C7.04748 5.72505 6.82914 6.50316 6.82267 7.41014C6.13689 8.01697 5.5433 8.73472 5.0419 9.5634C4.54051 10.3921 4.15395 11.2844 3.88222 12.2403C3.61049 13.1962 3.47463 14.1701 3.47463 15.1618C3.47463 16.4865 3.67681 17.6919 4.08116 18.7783C4.48552 19.8647 5.06454 20.7978 5.81825 21.5776C6.57197 22.3573 7.47125 22.956 8.51609 23.3736C9.56093 23.7912 10.7206 24 11.9952 24ZM11.9952 9.72979C12.8556 9.72979 13.6853 9.65312 14.4843 9.49977C15.2833 9.34644 15.961 9.1458 16.5174 8.89785C16.9185 9.32197 17.3099 9.84397 17.6917 10.4639C18.0733 11.0837 18.3871 11.7901 18.6329 12.5829C18.8788 13.3756 19.0017 14.2353 19.0017 15.1618C19.0017 16.6234 18.7106 17.9024 18.1283 18.9986C17.5461 20.0948 16.7293 20.9479 15.678 21.558C14.6267 22.1681 13.3991 22.4732 11.9952 22.4732C10.5977 22.4732 9.37332 22.1681 8.322 21.558C7.27069 20.9479 6.45228 20.0948 5.86678 18.9986C5.28128 17.9024 4.98852 16.6234 4.98852 15.1618C4.98852 14.2353 5.11145 13.3789 5.3573 12.5927C5.60314 11.8064 5.91692 11.1017 6.29862 10.4785C6.68033 9.85539 7.07498 9.3285 7.48257 8.89785C8.03249 9.1458 8.70856 9.34644 9.51079 9.49977C10.313 9.65312 11.1412 9.72979 11.9952 9.72979ZM11.3255 22.9037H12.5968V11.5699C12.5968 11.3937 12.5337 11.2436 12.4076 11.1196C12.2814 10.9956 12.131 10.9337 11.9563 10.9337C11.7816 10.9337 11.6328 10.9956 11.5099 11.1196C11.387 11.2436 11.3255 11.3937 11.3255 11.5699V22.9037ZM8.89942 13.1554C9.23584 13.1554 9.52374 13.0331 9.76311 12.7884C10.0025 12.5437 10.1222 12.2517 10.1222 11.9125C10.1222 11.5796 10.0025 11.2909 9.76311 11.0462C9.52374 10.8015 9.23584 10.6792 8.89942 10.6792C8.563 10.6792 8.27672 10.8015 8.04057 11.0462C7.80443 11.2909 7.68637 11.5796 7.68637 11.9125C7.68637 12.2517 7.80443 12.5437 8.04057 12.7884C8.27672 13.0331 8.563 13.1554 8.89942 13.1554ZM7.74459 17.0313C8.13277 17.0313 8.46595 16.891 8.74415 16.6104C9.02234 16.3298 9.16144 15.9905 9.16144 15.5925C9.16144 15.1945 9.02234 14.8552 8.74415 14.5746C8.46595 14.294 8.13277 14.1538 7.74459 14.1538C7.34994 14.1538 7.0119 14.294 6.73047 14.5746C6.44905 14.8552 6.30833 15.1945 6.30833 15.5925C6.30833 15.9905 6.44905 16.3298 6.73047 16.6104C7.0119 16.891 7.34994 17.0313 7.74459 17.0313ZM8.89942 20.3786C9.20996 20.3786 9.47683 20.2677 9.70003 20.0459C9.92324 19.824 10.0348 19.5565 10.0348 19.2433C10.0348 18.9235 9.92324 18.6528 9.70003 18.4309C9.47683 18.209 9.20996 18.0981 8.89942 18.0981C8.58888 18.0981 8.32362 18.209 8.10365 18.4309C7.88369 18.6528 7.77371 18.9235 7.77371 19.2433C7.77371 19.5565 7.88369 19.824 8.10365 20.0459C8.32362 20.2677 8.58888 20.3786 8.89942 20.3786ZM15.1006 13.1554C15.437 13.1554 15.7233 13.0331 15.9594 12.7884C16.1956 12.5437 16.3137 12.2517 16.3137 11.9125C16.3137 11.5796 16.1956 11.2909 15.9594 11.0462C15.7233 10.8015 15.437 10.6792 15.1006 10.6792C14.7577 10.6792 14.4682 10.8015 14.232 11.0462C13.9959 11.2909 13.8778 11.5796 13.8778 11.9125C13.8778 12.2517 13.9975 12.5437 14.2368 12.7884C14.4762 13.0331 14.7641 13.1554 15.1006 13.1554ZM16.2554 17.0313C16.6501 17.0313 16.9881 16.891 17.2695 16.6104C17.551 16.3298 17.6917 15.9905 17.6917 15.5925C17.6917 15.1945 17.551 14.8552 17.2695 14.5746C16.9881 14.294 16.6501 14.1538 16.2554 14.1538C15.8672 14.1538 15.5324 14.294 15.251 14.5746C14.9695 14.8552 14.8288 15.1945 14.8288 15.5925C14.8288 15.9905 14.9695 16.3298 15.251 16.6104C15.5324 16.891 15.8672 17.0313 16.2554 17.0313ZM15.1006 20.3786C15.4111 20.3786 15.6763 20.2677 15.8963 20.0459C16.1163 19.824 16.2263 19.5565 16.2263 19.2433C16.2263 18.9235 16.1163 18.6528 15.8963 18.4309C15.6763 18.209 15.4111 18.0981 15.1006 18.0981C14.7835 18.0981 14.515 18.209 14.2951 18.4309C14.0751 18.6528 13.9652 18.9235 13.9652 19.2433C13.9652 19.5565 14.0751 19.824 14.2951 20.0459C14.515 20.2677 14.7835 20.3786 15.1006 20.3786ZM7.72518 2.4185L8.38508 2.66319C8.59211 2.73497 8.73767 2.82958 8.82178 2.94703C8.90589 3.06448 8.92853 3.21129 8.88971 3.38747L8.77326 3.87684L10.1998 3.86706L10.2677 3.36789C10.3195 2.89157 10.237 2.48376 10.0203 2.14446C9.80355 1.80515 9.4558 1.54741 8.97705 1.37124L8.2104 1.05804C7.97102 0.973213 7.76723 0.981369 7.59902 1.08251C7.43081 1.18364 7.31598 1.32556 7.25452 1.50826C7.19305 1.69096 7.1979 1.8704 7.26907 2.04658C7.34024 2.22275 7.49228 2.34673 7.72518 2.4185ZM16.2748 2.4185C16.5077 2.34673 16.6598 2.22275 16.7309 2.04658C16.8021 1.8704 16.8069 1.69096 16.7454 1.50826C16.684 1.32556 16.5692 1.18364 16.4009 1.08251C16.2327 0.981369 16.0289 0.973213 15.7896 1.05804L15.0229 1.37124C14.5442 1.54741 14.1948 1.80515 13.9748 2.14446C13.7549 2.48376 13.674 2.89157 13.7322 3.36789L13.8002 3.86706L15.2267 3.87684L15.1102 3.38747C15.0714 3.21129 15.0941 3.06448 15.1782 2.94703C15.2623 2.82958 15.4078 2.73497 15.6149 2.66319L16.2748 2.4185ZM5.94927 9.22083L4.14424 7.6744C3.96309 7.52432 3.76738 7.4444 3.55712 7.43461C3.34686 7.42482 3.16733 7.51128 3.01852 7.69398C2.86972 7.87016 2.81797 8.06428 2.86325 8.27634C2.90854 8.4884 3.01852 8.66947 3.1932 8.81954L5.02734 10.3758L5.94927 9.22083ZM4.18305 13.8406L1.79576 13.8503C1.55639 13.8503 1.36392 13.9188 1.21835 14.0558C1.07278 14.1929 1 14.3723 1 14.5942C1 14.8225 1.07278 15.0052 1.21835 15.1423C1.36392 15.2793 1.55962 15.3478 1.80547 15.3478L4.18305 15.338V13.8406ZM4.96912 19.5663L3.15439 21.1029C2.97971 21.253 2.87134 21.4341 2.82929 21.6461C2.78723 21.8581 2.84061 22.0522 2.98941 22.2284C3.13821 22.4112 3.31774 22.4976 3.52801 22.4878C3.73827 22.4781 3.93398 22.3981 4.11513 22.248L5.90074 20.7212L4.96912 19.5663ZM18.041 9.22083L18.9726 10.3758L20.8067 8.81954C20.9814 8.66947 21.0898 8.4884 21.1319 8.27634C21.1739 8.06428 21.1238 7.87016 20.9814 7.69398C20.8326 7.51128 20.6531 7.42482 20.4428 7.43461C20.2325 7.4444 20.0368 7.52432 19.8557 7.6744L18.041 9.22083ZM19.8169 13.8406V15.338L22.1945 15.3478C22.4403 15.3478 22.636 15.2793 22.7816 15.1423C22.9272 15.0052 23 14.8225 23 14.5942C23 14.3723 22.9272 14.1929 22.7816 14.0558C22.636 13.9188 22.4436 13.8503 22.2042 13.8503L19.8169 13.8406ZM19.0212 19.5663L18.0896 20.7113L19.8848 22.248C20.066 22.3981 20.2617 22.4781 20.4719 22.4878C20.6822 22.4976 20.8617 22.4112 21.0105 22.2284C21.1593 22.0522 21.2127 21.8581 21.1707 21.6461C21.1287 21.4341 21.017 21.253 20.8358 21.1029L19.0212 19.5663Z" fill="black" fill-opacity="0.85"/>
</svg>
