<svg width="24" height="24" viewBox="0 0 24 24" fill="none" xmlns="http://www.w3.org/2000/svg">
<path d="M1 6.43407C1 8.4435 1.27686 10.2645 1.83058 11.8972C2.3843 13.5298 3.17854 14.9311 4.2133 16.1008C5.24806 17.2706 6.48874 18.1695 7.93534 18.7974C9.38192 19.4254 10.9981 19.7394 12.7839 19.7394C14.0297 19.7394 15.1717 19.542 16.2099 19.1473C17.2482 18.7526 18.1463 18.1964 18.9041 17.4787C19.6621 16.7611 20.2504 15.9107 20.6692 14.9275C21.0879 13.9443 21.2973 12.8643 21.2973 11.6873C21.2973 10.5534 21.0879 9.51101 20.6692 8.56012C20.2504 7.60922 19.6621 6.78392 18.9041 6.0842C18.1463 5.38449 17.2499 4.84267 16.2151 4.45871C15.1804 4.07477 14.0505 3.8828 12.8253 3.8828C11.974 3.8828 11.114 3.96533 10.2454 4.13039C9.37673 4.29545 8.46829 4.37798 7.52004 4.37798C6.71715 4.37798 5.97309 4.23804 5.28786 3.95815C4.60264 3.67827 3.97278 3.20103 3.3983 2.52643C3.19758 2.28243 2.95186 2.12096 2.66116 2.04202C2.37045 1.96308 2.09705 1.99537 1.84096 2.1389C1.58487 2.28243 1.40837 2.55873 1.31147 2.9678C1.22841 3.31944 1.16439 3.72851 1.1194 4.19498C1.07441 4.66146 1.04326 5.10281 1.02596 5.51905C1.00865 5.93529 1 6.24029 1 6.43407ZM2.56772 6.43407C2.56772 6.07524 2.57291 5.70923 2.58329 5.33605C2.59368 4.96287 2.62309 4.63275 2.67154 4.34569C2.6923 4.20216 2.7546 4.18062 2.85842 4.2811C3.43983 4.83369 4.15274 5.2589 4.99717 5.55673C5.84158 5.85456 6.68254 6.00347 7.52004 6.00347C8.08069 6.00347 8.61537 5.97297 9.1241 5.91196C9.63283 5.85097 10.1156 5.78818 10.5724 5.72359C10.9877 5.66617 11.3788 5.61594 11.7456 5.57288C12.1124 5.52982 12.4724 5.50829 12.8253 5.50829C14.175 5.50829 15.369 5.77203 16.4073 6.29951C17.4454 6.82698 18.2587 7.5554 18.8471 8.48476C19.4354 9.41413 19.7296 10.4816 19.7296 11.6873C19.7296 12.9504 19.4354 14.0645 18.8471 15.0297C18.2587 15.995 17.4437 16.7503 16.402 17.2958C15.3604 17.8412 14.1543 18.1139 12.7839 18.1139C11.2196 18.1139 9.80932 17.8412 8.55307 17.2958C7.29682 16.7503 6.22227 15.9681 5.3294 14.949C4.43652 13.93 3.75302 12.7028 3.2789 11.2675C2.80478 9.83216 2.56772 8.22103 2.56772 6.43407ZM7.07361 8.94227C7.28817 9.63839 7.63944 10.2107 8.1274 10.6592C8.61537 11.1078 9.20197 11.4756 9.8872 11.7626C10.5724 12.0497 11.3234 12.2973 12.1401 12.5054C13.0192 12.7207 13.7909 12.936 14.4553 13.1513C15.1199 13.3666 15.703 13.5998 16.2048 13.851C16.7066 14.1022 17.1565 14.3946 17.5545 14.7283C17.9525 15.0621 18.328 15.4586 18.681 15.9179C19.0685 16.413 19.3748 16.9405 19.5998 17.5003C19.8247 18.0601 20.0203 18.6558 20.1864 19.2873C20.3525 19.9188 20.5428 20.5898 20.7574 21.3003C20.8405 21.5586 20.9599 21.7399 21.1156 21.8439C21.2713 21.948 21.4391 22 21.6191 22C21.9998 22 22.3251 21.8385 22.5951 21.5155C22.865 21.1926 23 20.8087 23 20.3637C23 19.9906 22.9117 19.5635 22.7352 19.0827C22.5587 18.6019 22.3303 18.1031 22.05 17.5864C21.7697 17.0697 21.4721 16.5656 21.1572 16.0739C20.8422 15.5824 20.5497 15.1464 20.2799 14.766C19.5807 13.8044 18.6152 13.0329 17.3832 12.4516C16.1512 11.8703 14.58 11.4182 12.6697 11.0952C12.0121 10.9804 11.3839 10.8315 10.7853 10.6485C10.1866 10.4655 9.63283 10.2125 9.1241 9.88957C8.61537 9.56662 8.16028 9.13603 7.75883 8.59779C7.64809 8.43991 7.53043 8.36276 7.40584 8.36635C7.28125 8.36994 7.18089 8.42555 7.10476 8.5332C7.02862 8.64085 7.01824 8.77721 7.07361 8.94227Z" fill="#28CD41"/>
</svg>
