<svg width="24" height="24" viewBox="0 0 24 24" fill="none" xmlns="http://www.w3.org/2000/svg">
<path d="M2.26864 3.60686C2.16983 4.13849 2.10035 4.71501 2.06021 5.3364C2.02007 5.95779 2 6.49978 2 6.96236C2 8.90248 2.24548 10.6596 2.73645 12.2338C3.22742 13.808 3.93145 15.1613 4.84854 16.2935C5.76563 17.4259 6.86336 18.2976 8.14173 18.9086C9.42009 19.5196 10.8467 19.8251 12.4215 19.8251C13.2305 19.8251 13.9577 19.7319 14.603 19.5455C15.2484 19.3591 15.815 19.1209 16.3029 18.8309C16.7908 18.541 17.2061 18.232 17.5489 17.904C17.8916 17.576 18.1664 17.2688 18.3733 16.9822C18.5802 16.6957 18.7238 16.4662 18.804 16.2935L17.6461 16.2625C18.0475 16.732 18.3857 17.2205 18.6605 17.728C18.9353 18.2354 19.1761 18.7843 19.383 19.3746C19.5899 19.965 19.7952 20.6157 19.9991 21.3268C20.0732 21.5754 20.1797 21.7497 20.3186 21.8498C20.4576 21.9499 20.6073 22 20.768 22C21.1076 22 21.3979 21.8516 21.6387 21.5547C21.8796 21.2578 22 20.8815 22 20.4258C22 20.0668 21.9027 19.6594 21.7082 19.2038C21.5137 18.748 21.2666 18.2837 20.9671 17.8108C20.6676 17.3378 20.3588 16.8994 20.0408 16.4956C19.7227 16.0916 19.4463 15.7619 19.2116 15.5064C18.5323 14.8091 17.8082 14.2706 17.0394 13.8909C16.2705 13.5111 15.4893 13.2211 14.6957 13.0209C13.9021 12.8207 13.127 12.6481 12.3705 12.5031C11.614 12.3581 10.9069 12.1734 10.2492 11.949C9.59147 11.7246 9.01559 11.3984 8.52153 10.9703C8.02748 10.5423 7.64767 9.94504 7.38212 9.17866C7.32036 8.99914 7.35278 8.85933 7.47939 8.75922C7.60599 8.65911 7.74648 8.69535 7.90087 8.86796C8.43199 9.46173 8.9878 9.89843 9.56832 10.1781C10.1488 10.4577 10.7479 10.651 11.3654 10.758C11.983 10.865 12.6129 10.9462 13.2552 11.0014C13.8975 11.0566 14.549 11.1533 15.2098 11.2914C15.8706 11.4295 16.536 11.6677 17.2061 12.006C17.8761 12.3443 18.5446 12.8586 19.2116 13.549C19.3661 13.701 19.522 13.7476 19.6795 13.6889C19.8369 13.6302 19.928 13.5077 19.9528 13.3213C19.9774 13.1762 19.996 12.9916 20.0083 12.7672C20.0207 12.5428 20.0268 12.3167 20.0268 12.0888C20.0268 10.4042 19.7026 9.00778 19.0542 7.89963C18.4057 6.79148 17.5118 5.96469 16.3724 5.41924C15.233 4.87381 13.9253 4.60109 12.4493 4.60109C11.9552 4.60109 11.4427 4.63388 10.9115 4.69947C10.3804 4.76506 9.85549 4.83238 9.33673 4.90142C8.81797 4.97047 8.33009 5.00499 7.87309 5.00499C7.37903 5.00499 6.86954 4.9722 6.3446 4.90661C5.81967 4.84101 5.304 4.68566 4.79759 4.44056C4.29118 4.19545 3.81565 3.80709 3.371 3.27546C3.17956 3.05452 2.9665 2.96649 2.73182 3.01137C2.49714 3.05624 2.34275 3.25474 2.26864 3.60686Z" fill="#28CD41"/>
</svg>
