<svg width="24" height="24" viewBox="0 0 24 24" fill="none" xmlns="http://www.w3.org/2000/svg">
<path d="M8.41997 21C8.88251 21 9.28029 20.9551 9.61332 20.8654C9.94634 20.7757 10.2454 20.677 10.5106 20.5694C10.7882 20.4558 11.0395 20.3511 11.2646 20.2554C11.4896 20.1597 11.7317 20.1119 11.9908 20.1119C12.2436 20.1119 12.4841 20.1597 12.7123 20.2554C12.9405 20.3511 13.1933 20.4558 13.4709 20.5694C13.7299 20.677 14.0259 20.7757 14.3589 20.8654C14.6919 20.9551 15.0897 21 15.5522 21C16.2183 21 16.8165 20.858 17.3469 20.5739C17.8773 20.2898 18.2966 19.9026 18.605 19.4122C18.9134 18.9218 19.0675 18.3716 19.0675 17.7616C19.0675 17.1575 18.9658 16.6477 18.7622 16.2321C18.5587 15.8165 18.3028 15.4621 17.9945 15.169C17.6861 14.876 17.3777 14.6068 17.0694 14.3616C16.8227 14.1763 16.596 13.9954 16.3894 13.8189C16.1828 13.6425 16.0179 13.4526 15.8946 13.2493C15.7712 13.0579 15.6602 12.8561 15.5615 12.6438C15.4629 12.4314 15.3642 12.2176 15.2655 12.0024C15.0619 11.5479 14.8368 11.1113 14.5902 10.6926C14.3435 10.274 14.0167 9.92863 13.6096 9.65651C13.2026 9.3844 12.6629 9.24834 11.9908 9.24834C11.3124 9.24834 10.7697 9.3844 10.3626 9.65651C9.95559 9.92863 9.62873 10.274 9.38205 10.6926C9.13536 11.1113 8.91334 11.5449 8.71599 11.9934C8.61732 12.2146 8.51865 12.4299 8.41997 12.6393C8.3213 12.8486 8.21338 13.0459 8.09621 13.2314C7.96669 13.4407 7.7971 13.635 7.58742 13.8144C7.37774 13.9939 7.15264 14.1763 6.91212 14.3616C6.59759 14.6068 6.28769 14.876 5.98242 15.169C5.67715 15.4621 5.42275 15.8165 5.21924 16.2321C5.01572 16.6477 4.91396 17.1575 4.91396 17.7616C4.91396 18.3716 5.06814 18.9218 5.3765 19.4122C5.68485 19.9026 6.10422 20.2898 6.6346 20.5739C7.16497 20.858 7.76009 21 8.41997 21ZM8.41997 19.6993C7.79093 19.6993 7.27289 19.5169 6.86586 19.152C6.45883 18.7872 6.25532 18.3237 6.25532 17.7616C6.25532 17.2353 6.35245 16.8256 6.54671 16.5326C6.74097 16.2395 6.9892 15.9884 7.29139 15.779C7.59358 15.5697 7.91273 15.332 8.24884 15.0658C8.58495 14.7997 8.89485 14.4305 9.17853 13.958C9.38822 13.6111 9.57631 13.2418 9.74283 12.8501C9.90934 12.4584 10.0851 12.0876 10.2701 11.7377C10.4551 11.3879 10.6833 11.1023 10.9547 10.881C11.226 10.6597 11.5714 10.5491 11.9908 10.5491C12.4101 10.5491 12.7539 10.6597 13.0222 10.881C13.2904 11.1023 13.5186 11.3879 13.7067 11.7377C13.8948 12.0876 14.0721 12.4599 14.2386 12.8546C14.4052 13.2493 14.5933 13.623 14.8029 13.9759C15.0866 14.4424 15.3965 14.8072 15.7327 15.0703C16.0688 15.3335 16.3879 15.5697 16.6901 15.779C16.9923 15.9884 17.2405 16.2395 17.4347 16.5326C17.629 16.8256 17.7262 17.2353 17.7262 17.7616C17.7262 18.3237 17.5211 18.7872 17.1109 19.152C16.7008 19.5169 16.1813 19.6993 15.5522 19.6993C15.2315 19.6993 14.9309 19.6559 14.6503 19.5692C14.3697 19.4825 14.0938 19.3808 13.8224 19.2641C13.551 19.1475 13.2673 19.0444 12.9713 18.9546C12.6753 18.8649 12.3485 18.8201 11.9908 18.8201C11.6331 18.8201 11.3047 18.8649 11.0055 18.9546C10.7064 19.0444 10.4212 19.1475 10.1499 19.2641C9.8785 19.3808 9.60407 19.4825 9.32655 19.5692C9.04902 19.6559 8.74683 19.6993 8.41997 19.6993ZM2 10.576C2 11.5927 2.22664 12.4135 2.67993 13.0385C3.13321 13.6634 3.73296 13.9759 4.47919 13.9759C5.22541 13.9759 5.8267 13.6634 6.28306 13.0385C6.73943 12.4135 6.96762 11.5927 6.96762 10.576C6.96762 9.55933 6.73943 8.73851 6.28306 8.11355C5.8267 7.48859 5.22541 7.17611 4.47919 7.17611C3.73296 7.17611 3.13321 7.48859 2.67993 8.11355C2.22664 8.73851 2 9.55933 2 10.576ZM3.28584 10.576C3.28584 9.93012 3.39531 9.40982 3.61424 9.01511C3.83318 8.6204 4.12149 8.42304 4.47919 8.42304C4.83688 8.42304 5.12673 8.6204 5.34875 9.01511C5.57077 9.40982 5.68177 9.93012 5.68177 10.576C5.68177 11.2219 5.57077 11.7422 5.34875 12.137C5.12673 12.5317 4.83688 12.729 4.47919 12.729C4.12149 12.729 3.83318 12.5317 3.61424 12.137C3.39531 11.7422 3.28584 11.2219 3.28584 10.576ZM6.49583 5.39094C6.49583 6.4136 6.72247 7.23442 7.17576 7.8534C7.62904 8.47238 8.22879 8.78187 8.97502 8.78187C9.72124 8.78187 10.3225 8.47088 10.7789 7.84891C11.2353 7.22694 11.4634 6.40762 11.4634 5.39094C11.4634 4.37425 11.2368 3.55492 10.7835 2.93295C10.3302 2.31098 9.72741 2 8.97502 2C8.22879 2 7.62904 2.31098 7.17576 2.93295C6.72247 3.55492 6.49583 4.37425 6.49583 5.39094ZM7.78168 5.39094C7.78168 4.74504 7.89115 4.22624 8.11008 3.83451C8.32902 3.44279 8.61733 3.24693 8.97502 3.24693C9.33887 3.24693 9.63027 3.44428 9.8492 3.839C10.0681 4.23371 10.1776 4.75102 10.1776 5.39094C10.1776 6.03683 10.0681 6.55563 9.8492 6.94735C9.63027 7.33908 9.33887 7.53494 8.97502 7.53494C8.61733 7.53494 8.32902 7.33908 8.11008 6.94735C7.89115 6.55563 7.78168 6.03683 7.78168 5.39094ZM12.5365 5.39094C12.5365 6.06673 12.6398 6.66029 12.8464 7.17162C13.053 7.68295 13.3429 8.07916 13.716 8.36025C14.0891 8.64133 14.5254 8.78187 15.025 8.78187C15.7712 8.78187 16.3709 8.47238 16.8242 7.8534C17.2775 7.23442 17.5042 6.4136 17.5042 5.39094C17.5042 4.37425 17.2775 3.55492 16.8242 2.93295C16.3709 2.31098 15.7712 2 15.025 2C14.5254 2 14.0891 2.14204 13.716 2.42611C13.3429 2.71018 13.053 3.10489 12.8464 3.61025C12.6398 4.11559 12.5365 4.70916 12.5365 5.39094ZM13.8224 5.39094C13.8224 4.75102 13.9318 4.23371 14.1507 3.839C14.3697 3.44428 14.6611 3.24693 15.025 3.24693C15.3827 3.24693 15.671 3.44279 15.8899 3.83451C16.1089 4.22624 16.2183 4.74504 16.2183 5.39094C16.2183 6.03683 16.1089 6.55563 15.8899 6.94735C15.671 7.33908 15.3827 7.53494 15.025 7.53494C14.6611 7.53494 14.3697 7.33908 14.1507 6.94735C13.9318 6.55563 13.8224 6.03683 13.8224 5.39094ZM17.0323 10.576C17.0323 11.2518 17.1356 11.8454 17.3423 12.3567C17.5488 12.868 17.8387 13.2657 18.2119 13.5498C18.585 13.8339 19.0213 13.9759 19.5208 13.9759C20.267 13.9759 20.8667 13.6634 21.32 13.0385C21.7733 12.4135 22 11.5927 22 10.576C22 9.55933 21.7733 8.73851 21.32 8.11355C20.8667 7.48859 20.267 7.17611 19.5208 7.17611C19.0213 7.17611 18.585 7.31815 18.2119 7.60222C17.8387 7.88629 17.5488 8.28399 17.3423 8.79532C17.1356 9.30665 17.0323 9.90022 17.0323 10.576ZM18.3182 10.576C18.3182 9.93012 18.4292 9.40982 18.6512 9.01511C18.8733 8.6204 19.1631 8.42304 19.5208 8.42304C19.8847 8.42304 20.1745 8.6204 20.3904 9.01511C20.6063 9.40982 20.7142 9.93012 20.7142 10.576C20.7142 11.2219 20.6063 11.7422 20.3904 12.137C20.1745 12.5317 19.8847 12.729 19.5208 12.729C19.1631 12.729 18.8733 12.5317 18.6512 12.137C18.4292 11.7422 18.3182 11.2219 18.3182 10.576Z" fill="black" fill-opacity="0.8"/>
</svg>
