<svg width="24" height="24" viewBox="0 0 24 24" fill="none" xmlns="http://www.w3.org/2000/svg">
<path d="M2 10.6043C2 11.2169 2.09981 11.7676 2.29943 12.2565C2.49905 12.7453 2.77154 13.1336 3.11692 13.4214C3.46229 13.7091 3.84727 13.853 4.27186 13.853C4.70279 13.853 5.09093 13.7091 5.4363 13.4214C5.78168 13.1336 6.05418 12.7453 6.2538 12.2565C6.45341 11.7676 6.55322 11.2169 6.55322 10.6043C6.55322 9.99789 6.45341 9.44872 6.2538 8.95678C6.05418 8.46484 5.78168 8.075 5.4363 7.78726C5.09093 7.49952 4.70279 7.35566 4.27186 7.35566C3.84727 7.35566 3.46229 7.49952 3.11692 7.78726C2.77154 8.075 2.49905 8.46484 2.29943 8.95678C2.09981 9.44872 2 9.99789 2 10.6043ZM6.61026 5.24866C6.61026 5.85508 6.71166 6.40426 6.91444 6.8962C7.11723 7.38814 7.39131 7.77643 7.73668 8.06107C8.08206 8.34572 8.46704 8.48804 8.89163 8.48804C9.32255 8.48804 9.7107 8.34572 10.0561 8.06107C10.4014 7.77643 10.6755 7.38814 10.8783 6.8962C11.0811 6.40426 11.1825 5.85508 11.1825 5.24866C11.1825 4.63606 11.0811 4.08533 10.8783 3.59649C10.6755 3.10764 10.4014 2.71935 10.0561 2.43161C9.7107 2.14387 9.32255 2 8.89163 2C8.46704 2 8.08206 2.14387 7.73668 2.43161C7.39131 2.71935 7.11723 3.10764 6.91444 3.59649C6.71166 4.08533 6.61026 4.63606 6.61026 5.24866ZM12.8269 5.24866C12.8269 5.85508 12.9268 6.40426 13.1264 6.8962C13.3261 7.38814 13.5985 7.77643 13.9439 8.06107C14.2893 8.34572 14.6774 8.48804 15.1084 8.48804C15.5329 8.48804 15.9179 8.34572 16.2633 8.06107C16.6086 7.77643 16.8827 7.38814 17.0855 6.8962C17.2883 6.40426 17.3897 5.85508 17.3897 5.24866C17.3897 4.63606 17.2883 4.08533 17.0855 3.59649C16.8827 3.10764 16.6086 2.71935 16.2633 2.43161C15.9179 2.14387 15.5329 2 15.1084 2C14.6774 2 14.2893 2.14387 13.9439 2.43161C13.5985 2.71935 13.3261 3.10764 13.1264 3.59649C12.9268 4.08533 12.8269 4.63606 12.8269 5.24866ZM17.4467 10.6043C17.4467 11.2169 17.5481 11.7676 17.7509 12.2565C17.9537 12.7453 18.2262 13.1336 18.5684 13.4214C18.9106 13.7091 19.2972 13.853 19.7281 13.853C20.1527 13.853 20.5377 13.7091 20.883 13.4214C21.2284 13.1336 21.5009 12.7453 21.7006 12.2565C21.9002 11.7676 22 11.2169 22 10.6043C22 9.99789 21.9002 9.44872 21.7006 8.95678C21.5009 8.46484 21.2284 8.075 20.883 7.78726C20.5377 7.49952 20.1527 7.35566 19.7281 7.35566C19.2972 7.35566 18.9106 7.49952 18.5684 7.78726C18.2262 8.075 17.9537 8.46484 17.7509 8.95678C17.5481 9.44872 17.4467 9.99789 17.4467 10.6043ZM4.85171 17.7885C4.85171 18.4135 4.98637 18.9673 5.2557 19.45C5.52503 19.9326 5.89892 20.3116 6.37737 20.587C6.85583 20.8623 7.41191 21 8.04562 21C8.51457 21 8.92965 20.9474 9.29086 20.8422C9.65208 20.737 9.99746 20.6287 10.327 20.5174C10.5931 20.4245 10.8609 20.3425 11.1302 20.2714C11.3995 20.2002 11.6895 20.1646 12 20.1646C12.3105 20.1646 12.5989 20.2002 12.865 20.2714C13.1312 20.3425 13.4005 20.4245 13.673 20.5174C13.9962 20.6287 14.3384 20.737 14.6996 20.8422C15.0608 20.9474 15.4759 21 15.9449 21C16.5785 21 17.1362 20.8623 17.6178 20.587C18.0995 20.3116 18.4749 19.9326 18.7442 19.45C19.0136 18.9673 19.1483 18.4135 19.1483 17.7885C19.1483 17.2563 19.0532 16.8015 18.8631 16.4241C18.6729 16.0466 18.4305 15.7171 18.1359 15.4355C17.8412 15.154 17.5386 14.8864 17.2281 14.6326C16.9683 14.4285 16.7179 14.2227 16.4771 14.0154C16.2364 13.8081 16.0304 13.5745 15.8593 13.3146C15.7136 13.1043 15.5821 12.8892 15.4648 12.6695C15.3475 12.4499 15.2382 12.2317 15.1369 12.0152C14.9087 11.5387 14.6758 11.0885 14.4382 10.6646C14.2005 10.2408 13.8948 9.89735 13.5209 9.63436C13.147 9.37137 12.64 9.23988 12 9.23988C11.3599 9.23988 10.853 9.37137 10.4791 9.63436C10.1052 9.89735 9.79942 10.2408 9.56177 10.6646C9.32413 11.0885 9.09124 11.5356 8.86311 12.0058C8.76171 12.2224 8.6524 12.4405 8.53517 12.6602C8.41792 12.8799 8.2896 13.0919 8.15018 13.2961C7.97908 13.556 7.77154 13.7926 7.52756 14.0061C7.28358 14.2196 7.03168 14.4285 6.77185 14.6326C6.455 14.8864 6.15082 15.154 5.85931 15.4355C5.5678 15.7171 5.32699 16.0466 5.13688 16.4241C4.94677 16.8015 4.85171 17.2563 4.85171 17.7885Z" fill="black" fill-opacity="0.8"/>
</svg>
