<svg width="24" height="24" viewBox="0 0 24 24" fill="none" xmlns="http://www.w3.org/2000/svg">
<path d="M17.8534 14.1674C18.0754 14.0801 18.289 13.9759 18.4942 13.8546C18.6993 13.7334 18.914 13.6122 19.1385 13.491C19.3629 13.3698 19.6151 13.2692 19.895 13.1892C20.175 13.1092 20.5008 13.0692 20.8724 13.0692C21.5047 13.0692 22.0549 13.0001 22.5231 12.8619C22.9913 12.7237 23.3545 12.5262 23.6127 12.2692C23.8709 12.0122 24 11.7043 24 11.3456C24 10.5214 23.8637 9.79651 23.591 9.17107C23.3183 8.54562 22.9346 8.05714 22.4399 7.70563C21.9452 7.35412 21.3696 7.17837 20.7132 7.17837C20.1485 7.17837 19.6549 7.28746 19.2326 7.50564C18.8103 7.72382 18.4604 8.0329 18.1829 8.43289C17.9053 8.83289 17.6941 9.30682 17.5494 9.85469C17.448 10.2135 17.3334 10.5129 17.2054 10.7529C17.0775 10.9929 16.94 11.1904 16.7928 11.3456C16.6456 11.5007 16.4875 11.6316 16.3186 11.7383C16.4923 11.9904 16.718 12.3492 16.9955 12.8146C17.273 13.2801 17.559 13.731 17.8534 14.1674ZM20.8652 10.6256C20.6866 10.6256 20.5334 10.5613 20.4054 10.4329C20.2775 10.3044 20.2136 10.1504 20.2136 9.97105C20.2136 9.79167 20.2775 9.63773 20.4054 9.50925C20.5334 9.38076 20.6866 9.31652 20.8652 9.31652C21.0438 9.31652 21.197 9.38076 21.3249 9.50925C21.4528 9.63773 21.5167 9.79167 21.5167 9.97105C21.5167 10.1504 21.4528 10.3044 21.3249 10.4329C21.197 10.5613 21.0438 10.6256 20.8652 10.6256ZM8.71675 10.662C9.71585 10.6571 10.6293 10.4777 11.457 10.1238C12.2848 9.76985 13.0269 9.23167 13.6833 8.50926C13.2392 7.942 12.7759 7.47292 12.2932 7.10201C11.8106 6.73111 11.2833 6.45475 10.7113 6.27293C10.1394 6.09111 9.49142 6.0002 8.76745 6.0002C8.04829 5.99536 7.40273 6.07657 6.83078 6.24384C6.25883 6.41111 5.72791 6.68141 5.23802 7.05474C4.74812 7.42806 4.26909 7.9226 3.80091 8.53835C4.46697 9.26076 5.21992 9.7953 6.05974 10.142C6.89956 10.4886 7.78523 10.662 8.71675 10.662ZM4.0181 15.0765C4.38009 14.7273 4.71192 14.3249 5.01359 13.8692C5.31524 13.4134 5.56381 12.9443 5.75928 12.4619C5.95476 11.9795 6.07663 11.525 6.1249 11.0983C5.63741 10.9189 5.12701 10.6668 4.59367 10.342C4.06034 10.0171 3.61992 9.6656 3.2724 9.28743C3.09865 9.54925 2.92489 9.8256 2.75114 10.1165C2.57738 10.4074 2.41087 10.7129 2.25159 11.0329C2.02474 11.4838 1.79427 11.862 1.56018 12.1674C1.3261 12.4728 1.10166 12.7286 0.88688 12.9347C0.672098 13.1407 0.482656 13.3213 0.318553 13.4764C0.222022 13.5686 0.144797 13.6692 0.0868783 13.7783C0.0289594 13.8874 0 14.0122 0 14.1528C0 14.3661 0.108597 14.5286 0.325792 14.6401C0.542987 14.7516 0.847059 14.8073 1.23801 14.8073H2.10679C2.51705 14.8073 2.87059 14.8316 3.16742 14.8801C3.46426 14.9285 3.74782 14.994 4.0181 15.0765ZM8.70229 16.7491C9.25253 16.7491 9.75447 16.6691 10.2081 16.5092C10.6618 16.3491 11.0769 16.1625 11.4534 15.9491C11.8299 15.7358 12.1798 15.5491 12.5032 15.3892C12.1363 15.0401 11.8154 14.6425 11.5403 14.1964C11.2652 13.7504 11.0444 13.2837 10.8779 12.7964C10.7113 12.3092 10.6112 11.8256 10.5774 11.3456C9.98373 11.5104 9.37075 11.5928 8.73847 11.5928C8.42472 11.5977 8.11582 11.5795 7.81177 11.5383C7.5077 11.4971 7.20846 11.4377 6.91404 11.3601C6.87543 11.8062 6.77286 12.2729 6.60634 12.7601C6.43983 13.2473 6.21781 13.7213 5.94028 14.1819C5.66275 14.6425 5.33817 15.057 4.96652 15.4255C5.28025 15.5467 5.61931 15.7128 5.98372 15.9237C6.34812 16.1346 6.75355 16.3249 7.20001 16.4946C7.64645 16.6643 8.14721 16.7491 8.70229 16.7491ZM13.3502 15.0401C13.6785 14.9625 14.0018 14.9007 14.3204 14.8546C14.6389 14.8085 15.0106 14.7855 15.4353 14.7855C15.7828 14.7855 16.1122 14.7601 16.4235 14.7092C16.7349 14.6583 16.9726 14.5843 17.1367 14.4873C16.9774 14.2789 16.7976 14.0025 16.5973 13.6583C16.397 13.314 16.1858 12.9346 15.9638 12.5201C15.7418 12.1056 15.5222 11.6898 15.305 11.2728C15.0878 10.8559 14.8815 10.4668 14.686 10.1056C14.4905 9.74439 14.318 9.44743 14.1683 9.2147C13.9173 9.47167 13.6278 9.72258 13.2996 9.96742C12.9714 10.2123 12.6395 10.4317 12.3041 10.6256C11.9687 10.8195 11.661 10.9698 11.381 11.0765C11.4245 11.5129 11.5306 11.9638 11.6995 12.4292C11.8685 12.8947 12.0917 13.3516 12.3693 13.8001C12.6468 14.2486 12.9738 14.6619 13.3502 15.0401ZM2.02716 17.9855C2.65943 17.9855 3.26757 17.857 3.85159 17.6C4.4356 17.343 4.87964 17.0012 5.18372 16.5746C4.82655 16.337 4.43319 16.1237 4.00363 15.9346C3.57406 15.7455 3.14691 15.6413 2.72218 15.6219C2.52911 15.6752 2.32761 15.7128 2.11765 15.7346C1.9077 15.7564 1.69171 15.7892 1.46968 15.8328C1.16078 15.891 0.885672 15.9928 0.644345 16.1382C0.403017 16.2837 0.282353 16.5067 0.282353 16.8073C0.282353 17.1855 0.450076 17.4764 0.785521 17.68C1.12097 17.8836 1.53484 17.9855 2.02716 17.9855ZM15.1313 18C15.6235 18 16.0374 17.8994 16.3729 17.6982C16.7083 17.497 16.8761 17.2049 16.8761 16.8219C16.8761 16.6231 16.8206 16.4413 16.7096 16.2764C16.5985 16.1116 16.4525 15.9783 16.2715 15.8764C16.0905 15.7746 15.8962 15.7164 15.6887 15.7019C15.4618 15.6922 15.2531 15.6837 15.0625 15.6764C14.8718 15.6692 14.6631 15.6583 14.4363 15.6437C14.1563 15.6583 13.8739 15.7116 13.5892 15.8037C13.3044 15.8958 13.0256 16.011 12.7529 16.1492C12.4803 16.2873 12.2208 16.434 11.9746 16.5891C12.1774 16.8752 12.4465 17.1237 12.7819 17.3346C13.1174 17.5455 13.4878 17.7091 13.8932 17.8255C14.2986 17.9418 14.7113 18 15.1313 18Z" fill="black" fill-opacity="0.8"/>
</svg>
