<svg width="24" height="24" viewBox="0 0 24 24" fill="none" xmlns="http://www.w3.org/2000/svg">
<path d="M8.76557 17.0349C9.36942 17.0349 9.88292 16.971 10.3061 16.8433C10.7293 16.7156 11.1073 16.5559 11.4402 16.3643C11.773 16.1727 12.107 15.9811 12.4422 15.7895C12.7774 15.5979 13.1542 15.437 13.5727 15.307C13.9911 15.1768 14.5023 15.1118 15.1061 15.1118C15.7765 15.1118 16.3281 15.0562 16.7608 14.945C17.1935 14.8338 17.556 14.6954 17.8485 14.5299C18.1409 14.3643 18.4131 14.1987 18.6651 14.0331C18.9171 13.8675 19.1941 13.7291 19.496 13.618C19.7979 13.5068 20.1772 13.4513 20.6336 13.4513C21.2755 13.4513 21.8497 13.3779 22.3561 13.2312C22.8624 13.0846 23.263 12.8634 23.5578 12.5677C23.8526 12.272 24 11.9042 24 11.4642C24 10.5228 23.8372 9.73034 23.5115 9.08694C23.1857 8.44353 22.7566 7.95742 22.2241 7.62862C21.6915 7.29982 21.1114 7.13542 20.4838 7.13542C19.8324 7.13542 19.2797 7.25961 18.8256 7.50799C18.3715 7.75636 18.003 8.09344 17.7201 8.51922C17.4371 8.94501 17.2267 9.42519 17.0888 9.95979C16.97 10.395 16.806 10.7534 16.5967 11.0349C16.3875 11.3164 16.126 11.5352 15.8122 11.6913L15.3629 10.8681C14.7352 9.71379 14.1052 8.77943 13.4728 8.06506C12.8404 7.35068 12.1533 6.82791 11.4116 6.49675C10.6699 6.16558 9.82113 6 8.86541 6C8.09037 6 7.39734 6.09462 6.78633 6.28386C6.17534 6.47309 5.60595 6.78415 5.07816 7.21703C4.55037 7.64991 4.03091 8.23182 3.51977 8.96275C3.00862 9.69368 2.463 10.6032 1.88291 11.6913C1.71174 12.0225 1.51798 12.2993 1.30164 12.5216C1.08529 12.7439 0.878455 12.9379 0.68113 13.1035C0.483804 13.2691 0.320951 13.4311 0.192571 13.5896C0.0641903 13.7481 0 13.9314 0 14.1396C0 14.4329 0.112927 14.6683 0.338782 14.8457C0.564636 15.0231 0.903418 15.1118 1.35513 15.1118C1.49302 15.1118 1.63923 15.1118 1.79376 15.1118C1.94829 15.1118 2.10401 15.1118 2.26092 15.1118C2.92184 15.1118 3.49123 15.1768 3.9691 15.307C4.44696 15.437 4.87252 15.5979 5.24577 15.7895C5.61903 15.9811 5.97802 16.1727 6.32274 16.3643C6.66746 16.5559 7.03358 16.7156 7.42108 16.8433C7.8086 16.971 8.25676 17.0349 8.76557 17.0349ZM8.76557 15.9066C8.3091 15.9066 7.90493 15.8415 7.55305 15.7114C7.20119 15.5813 6.86122 15.4205 6.53314 15.2288C6.20505 15.0372 5.85676 14.8445 5.48827 14.6505C5.11977 14.4566 4.69659 14.2945 4.21873 14.1644C3.74086 14.0343 3.16909 13.9692 2.50342 13.9692C2.31798 13.9692 2.13492 13.9704 1.95424 13.9728C1.77355 13.9752 1.6 13.9834 1.43358 13.9976L1.37653 13.8983C1.53819 13.7611 1.70936 13.6097 1.89005 13.4441C2.07073 13.2785 2.24785 13.0893 2.4214 12.8764C2.59495 12.6635 2.75543 12.4151 2.90283 12.1313C3.39733 11.1756 3.8633 10.3773 4.30075 9.73625C4.73819 9.09521 5.18158 8.58309 5.63091 8.19988C6.08024 7.81668 6.56524 7.54229 7.08589 7.3767C7.60655 7.21112 8.19972 7.12832 8.86541 7.12832C9.59288 7.12832 10.2312 7.24187 10.7804 7.46895C11.3296 7.69604 11.8158 8.00946 12.2389 8.40923C12.6621 8.809 13.0509 9.27144 13.4051 9.79658C13.7593 10.3217 14.1052 10.8823 14.4428 11.4784C14.6092 11.7717 14.7875 12.0698 14.9777 12.3726C15.1679 12.6754 15.3664 12.9651 15.5732 13.2419C15.7801 13.5187 15.9881 13.7611 16.1973 13.9692C16.0499 13.9692 15.8942 13.9692 15.7302 13.9692C15.5662 13.9692 15.3985 13.9692 15.2273 13.9692C14.5522 13.9692 13.9745 14.0343 13.4942 14.1644C13.014 14.2945 12.5872 14.4566 12.214 14.6505C11.8407 14.8445 11.4853 15.0372 11.1477 15.2288C10.8101 15.4205 10.4535 15.5813 10.0778 15.7114C9.70221 15.8415 9.26478 15.9066 8.76557 15.9066ZM17.3528 13.657C17.1911 13.534 17.0235 13.3673 16.8499 13.1567C16.6764 12.9462 16.5349 12.7416 16.4255 12.5429C16.6823 12.4483 16.9118 12.3193 17.1138 12.1561C17.3159 11.9929 17.4931 11.78 17.6452 11.5174C17.7974 11.2549 17.9257 10.9225 18.0303 10.5204C18.1445 10.0331 18.3085 9.6168 18.5224 9.27144C18.7364 8.92608 19.0051 8.66233 19.3284 8.4802C19.6517 8.29805 20.0369 8.20698 20.4838 8.20698C20.9355 8.20698 21.3504 8.33708 21.7284 8.59728C22.1064 8.85749 22.4083 9.2194 22.6342 9.68303C22.8601 10.1467 22.973 10.6836 22.973 11.2939C22.973 11.521 22.8708 11.7185 22.6663 11.8864C22.4618 12.0544 22.1979 12.1845 21.8746 12.2767C21.5513 12.369 21.2089 12.4152 20.8475 12.4152C20.4006 12.4152 20.0096 12.4518 19.6743 12.5251C19.3391 12.5985 19.0395 12.6966 18.7756 12.8196C18.5117 12.9426 18.2657 13.0763 18.0375 13.2206C17.8092 13.3649 17.581 13.5104 17.3528 13.657ZM20.7549 10.8397C20.9308 10.8397 21.0817 10.7771 21.2078 10.6517C21.3338 10.5263 21.3968 10.3761 21.3968 10.2011C21.3968 10.026 21.3338 9.87582 21.2078 9.75045C21.0817 9.62508 20.9308 9.56239 20.7549 9.56239C20.5789 9.56239 20.4268 9.62508 20.2984 9.75045C20.17 9.87582 20.1058 10.026 20.1058 10.2011C20.1058 10.3761 20.17 10.5263 20.2984 10.6517C20.4268 10.7771 20.5789 10.8397 20.7549 10.8397ZM8.77981 11.7126C9.56912 11.7126 10.2918 11.6097 10.948 11.4039C11.6042 11.1981 12.1938 10.9285 12.7168 10.5949C13.2398 10.2614 13.6963 9.90302 14.0862 9.51982L13.5584 8.7534C12.926 9.40154 12.208 9.9042 11.4044 10.2614C10.6009 10.6186 9.72599 10.7972 8.77981 10.7972C7.83358 10.7972 6.96106 10.6209 6.16226 10.2685C5.36345 9.91603 4.65023 9.411 4.02259 8.7534L3.50193 9.53401C3.86806 9.90302 4.30788 10.2531 4.8214 10.5843C5.33492 10.9154 5.92096 11.1863 6.5795 11.3968C7.23803 11.6073 7.97147 11.7126 8.77981 11.7126ZM5.42051 15.2324C5.63923 14.9911 5.8425 14.7132 6.03032 14.3986C6.21813 14.084 6.38574 13.754 6.53314 13.4087C6.68054 13.0633 6.80179 12.7168 6.89689 12.369C6.99198 12.0213 7.05617 11.6913 7.08946 11.3791L6.31204 11.1165C6.28827 11.3862 6.22764 11.6901 6.13016 12.0284C6.03269 12.3666 5.90788 12.7097 5.75573 13.0574C5.60357 13.4051 5.43121 13.7339 5.23864 14.0438C5.04606 14.3536 4.84042 14.6221 4.62169 14.8492L5.42051 15.2324ZM12.2532 15.2182L13.0734 14.8421C12.8452 14.6103 12.6336 14.3395 12.4386 14.0296C12.2437 13.7197 12.0725 13.3945 11.9251 13.0538C11.7777 12.7132 11.6577 12.3761 11.565 12.0426C11.4722 11.7091 11.414 11.4004 11.3902 11.1165L10.5985 11.3365C10.6175 11.6582 10.6722 11.9965 10.7625 12.3513C10.8529 12.7061 10.9718 13.0574 11.1192 13.4051C11.2666 13.7528 11.4366 14.0828 11.6292 14.3951C11.8217 14.7073 12.0297 14.9817 12.2532 15.2182ZM2.09688 17.9858C2.57712 17.9858 3.05854 17.9137 3.54116 17.7694C4.02377 17.6251 4.48975 17.411 4.93909 17.1271C5.38842 16.8433 5.80565 16.4932 6.19079 16.0769L5.29213 15.5021C4.89748 15.8569 4.51709 16.1466 4.15097 16.3714C3.78485 16.5961 3.4318 16.7629 3.09183 16.8717C2.75186 16.9805 2.42497 17.0349 2.11114 17.0349C1.79732 17.0349 1.56077 16.9876 1.40149 16.893C1.2422 16.7984 1.16256 16.6659 1.16256 16.4956C1.16256 16.3678 1.21605 16.259 1.32303 16.1692C1.43002 16.0792 1.6214 16.0012 1.89718 15.9349C1.99703 15.9066 2.13967 15.864 2.32511 15.8072C2.51055 15.7505 2.71382 15.6831 2.93492 15.605C3.15602 15.5269 3.37237 15.4429 3.58396 15.353C3.79555 15.2632 3.97742 15.1733 4.12957 15.0834L3.2523 14.7428C2.94324 14.88 2.60565 14.99 2.23953 15.0727C1.8734 15.1555 1.52868 15.2561 1.20535 15.3743C0.981875 15.4548 0.786927 15.5494 0.620505 15.6582C0.454086 15.767 0.325706 15.9019 0.235365 16.0627C0.145023 16.2235 0.0998517 16.4175 0.0998517 16.6446C0.0998517 17.0798 0.291234 17.4122 0.673998 17.6417C1.05676 17.8711 1.53105 17.9858 2.09688 17.9858ZM15.3985 18C15.9644 18 16.4386 17.8853 16.8214 17.6558C17.2042 17.4264 17.3956 17.0964 17.3956 16.6659C17.3956 16.3915 17.3326 16.1656 17.2066 15.9882C17.0806 15.8108 16.9082 15.6665 16.6895 15.5553C16.4707 15.4441 16.2211 15.3507 15.9406 15.275C15.6506 15.1993 15.3581 15.1236 15.0633 15.0479C14.7685 14.9722 14.4951 14.8776 14.2431 14.7641L13.3658 15.0976C13.5132 15.1922 13.6927 15.2845 13.9043 15.3743C14.1159 15.4642 14.3323 15.5482 14.5534 15.6263C14.7745 15.7043 14.9789 15.7718 15.1667 15.8285C15.3545 15.8853 15.4984 15.9278 15.5982 15.9562C15.8693 16.0225 16.0595 16.1005 16.1688 16.1904C16.2782 16.2803 16.3329 16.3891 16.3329 16.5169C16.3329 16.6872 16.2532 16.8185 16.0939 16.9107C15.9346 17.003 15.6981 17.0491 15.3843 17.0491C15.0704 17.0491 14.7435 16.9959 14.4036 16.8894C14.0636 16.783 13.7105 16.6174 13.3444 16.3927C12.9783 16.1679 12.5979 15.8782 12.2033 15.5234L11.2975 16.0982C11.6731 16.505 12.0856 16.8504 12.5349 17.1342C12.9842 17.4181 13.4526 17.6334 13.94 17.78C14.4274 17.9267 14.9135 18 15.3985 18Z" fill="black" fill-opacity="0.8"/>
</svg>
