<svg width="24" height="24" viewBox="0 0 24 24" fill="none" xmlns="http://www.w3.org/2000/svg">
<path d="M0 11.3128C0 12.4159 0.237082 13.3788 0.711247 14.2016C1.18541 15.0244 1.85107 15.6633 2.70821 16.1185C3.56535 16.5736 4.56231 16.8011 5.6991 16.8011C6.81764 16.8011 7.7994 16.5962 8.64438 16.1863C9.48935 15.7763 10.1459 15.2022 10.614 14.4638C11.0821 13.7254 11.3161 12.865 11.3161 11.8825C11.3161 11.2676 11.2127 10.7161 11.0061 10.2278C10.7994 9.7396 10.5137 9.34177 10.1489 9.03435C9.97872 8.89572 9.83436 8.79928 9.71584 8.74502C9.59725 8.69077 9.45895 8.66365 9.30092 8.66365C9.08815 8.66365 8.91642 8.72242 8.78572 8.83996C8.65502 8.9575 8.58967 9.10669 8.58967 9.28752C8.58967 9.43821 8.61703 9.56027 8.67174 9.6537C8.72645 9.74714 8.80548 9.83605 8.90883 9.92043C9.01217 10.0048 9.13375 10.1103 9.27356 10.2369C9.46807 10.4237 9.61702 10.6543 9.72042 10.9286C9.82375 11.2028 9.87541 11.5118 9.87541 11.8554C9.87541 12.5546 9.70214 13.1664 9.3556 13.6908C9.00912 14.2152 8.52432 14.6236 7.90122 14.9159C7.27812 15.2083 6.5532 15.3545 5.72645 15.3545C4.87538 15.3545 4.1307 15.1857 3.4924 14.8481C2.8541 14.5105 2.35714 14.0374 2.00152 13.4286C1.6459 12.8197 1.46809 12.1115 1.46809 11.3038C1.46809 10.6046 1.63526 9.94755 1.96961 9.33273C2.30395 8.7179 2.76292 8.22363 3.3465 7.84991L2.61702 6.59313C2.07599 6.92466 1.60942 7.33755 1.21733 7.83183C0.825228 8.3261 0.524316 8.8701 0.31459 9.46383C0.104863 10.0576 0 10.6739 0 11.3128ZM2.46201 6.60217C2.46201 7.27727 2.61094 7.87402 2.90881 8.3924C3.20669 8.91079 3.62766 9.31766 4.17173 9.61301C4.71581 9.90837 5.36171 10.0561 6.10943 10.0561C6.30396 10.0561 6.47417 9.98523 6.62006 9.84358C6.76596 9.70193 6.83891 9.53165 6.83891 9.33273C6.83891 9.13381 6.76596 8.96202 6.62006 8.81736C6.47417 8.67269 6.30396 8.60035 6.10943 8.60035C5.65958 8.60035 5.27204 8.51446 4.94681 8.34267C4.62158 8.17088 4.37083 7.93429 4.19454 7.63291C4.01824 7.33152 3.93009 6.98794 3.93009 6.60217C3.93009 6.1742 4.03952 5.79596 4.25837 5.46745C4.47721 5.13894 4.77356 4.88125 5.14743 4.69439C5.52128 4.50753 5.94833 4.4141 6.42858 4.4141C6.75685 4.4141 7.09575 4.46685 7.44529 4.57233C7.79484 4.67782 8.13375 4.84208 8.46201 5.0651L9.31916 3.88065C8.86323 3.56721 8.38907 3.33514 7.89666 3.18444C7.40426 3.03375 6.91794 2.9584 6.43769 2.9584C5.70213 2.9584 5.03344 3.11362 4.43161 3.42405C3.82979 3.73447 3.35107 4.16244 2.99545 4.70795C2.63982 5.25346 2.46201 5.88487 2.46201 6.60217ZM7.3222 6.35805C7.31004 6.59313 7.37539 6.783 7.51825 6.92766C7.6611 7.07233 7.83587 7.14466 8.04256 7.14466C8.24317 7.14466 8.41186 7.08137 8.54864 6.95479C8.68542 6.82821 8.75989 6.65039 8.77204 6.42134C8.79636 5.8487 8.94226 5.33785 9.20973 4.88879C9.47723 4.43973 9.83894 4.0871 10.2949 3.83092C10.7508 3.57475 11.2736 3.44666 11.8633 3.44666C12.3982 3.44666 12.8815 3.57475 13.3131 3.83092C13.7447 4.0871 14.0517 4.42315 14.234 4.83905C14.2705 4.90536 14.3146 4.94304 14.3662 4.95207C14.418 4.96112 14.4894 4.95358 14.5805 4.92947C14.7325 4.88728 14.8906 4.85563 15.0547 4.83454C15.2188 4.81344 15.383 4.80289 15.5471 4.80289C16.0942 4.80892 16.6095 4.94153 17.0928 5.20072C17.576 5.45991 17.9696 5.8261 18.2736 6.29927C18.5775 6.77245 18.7295 7.33453 18.7295 7.98553C18.7295 8.69077 18.5836 9.28149 18.2918 9.75768C18 10.2339 17.6262 10.6407 17.1703 10.9783C16.7143 11.3159 16.231 11.6308 15.7203 11.9231C15.2097 12.2155 14.7264 12.5289 14.2705 12.8634C13.8146 13.198 13.4407 13.5958 13.1489 14.057C12.8572 14.5181 12.7113 15.0953 12.7113 15.7884C12.7113 16.4455 12.8709 17.0136 13.19 17.4927C13.5092 17.972 13.9423 18.3412 14.4894 18.6003C15.0365 18.8595 15.6505 18.9891 16.3313 18.9891C16.4407 18.9891 16.5547 18.9876 16.6732 18.9847C16.7918 18.9816 16.9088 18.9771 17.0243 18.9711C17.0973 19.4834 17.2508 19.9702 17.4848 20.4313C17.7189 20.8924 18.0289 21.2691 18.4149 21.5615C18.8009 21.8538 19.2584 22 19.7872 22C20.3587 22 20.8572 21.8448 21.2827 21.5344C21.7083 21.2239 22.0608 20.8095 22.3405 20.2911C22.6201 19.7727 22.8298 19.191 22.9696 18.5461C23.1094 17.9011 23.1793 17.2441 23.1793 16.575C23.1793 15.9904 23.1657 15.4871 23.1383 15.0651C23.111 14.6432 23.076 14.2484 23.0335 13.8807L21.5654 14.2875C21.6079 14.6491 21.6444 15.0093 21.6748 15.368C21.7052 15.7267 21.7204 16.123 21.7204 16.557C21.7204 17.2863 21.6353 17.9524 21.4651 18.5552C21.2948 19.1579 21.0638 19.6401 20.7721 20.0018C20.4802 20.3635 20.152 20.5443 19.7872 20.5443C19.4103 20.5443 19.1049 20.4026 18.8709 20.1193C18.6368 19.8361 18.4666 19.488 18.3602 19.075C18.2538 18.6622 18.2006 18.2568 18.2006 17.8589C18.2006 17.8168 18.1869 17.7806 18.1596 17.7504C18.1322 17.7203 18.0851 17.7082 18.0183 17.7143C17.8906 17.7143 17.7493 17.7143 17.5943 17.7143C17.4393 17.7143 17.304 17.7143 17.1885 17.7143C16.2766 17.7143 15.5472 17.5636 15.0001 17.2622C14.4529 16.9608 14.1793 16.4605 14.1793 15.7613C14.1793 15.2068 14.3252 14.7486 14.617 14.3869C14.9088 14.0253 15.2827 13.7059 15.7386 13.4286C16.1946 13.1513 16.6778 12.871 17.1885 12.5877C17.6991 12.3044 18.1824 11.9714 18.6383 11.5886C19.0943 11.2059 19.4681 10.7266 19.7599 10.151C20.0517 9.57534 20.1976 8.85352 20.1976 7.98553C20.1976 7.28631 20.0775 6.6534 19.8374 6.0868C19.5973 5.52019 19.2705 5.03194 18.8571 4.62206C18.4438 4.21218 17.9696 3.89723 17.4347 3.67721C16.8997 3.4572 16.3344 3.3472 15.7386 3.3472C15.6474 3.3472 15.5411 3.35473 15.4195 3.3698C15.2979 3.38487 15.1733 3.40747 15.0456 3.43761C14.6808 2.99156 14.2204 2.64045 13.6642 2.38427C13.1079 2.12809 12.5106 2 11.8723 2C11.0091 2 10.2416 2.18535 9.5699 2.55606C8.89818 2.92676 8.36475 3.43912 7.96962 4.09313C7.57448 4.74714 7.35867 5.50211 7.3222 6.35805ZM18.0456 15.2278C18.0456 15.4267 18.1171 15.594 18.2599 15.7296C18.4028 15.8653 18.5776 15.9391 18.7842 15.9512C19.8237 16.0175 20.7356 15.8713 21.5198 15.5127C22.304 15.154 22.9134 14.622 23.3481 13.9168C23.7827 13.2115 24 12.3676 24 11.3851C24 10.5895 23.8207 9.86618 23.4621 9.21519C23.1034 8.56419 22.6003 8.02923 21.9529 7.61031C21.3055 7.19138 20.5502 6.92465 19.687 6.81012L19.4589 8.25678C20.383 8.26883 21.1261 8.56268 21.6884 9.13833C22.2508 9.71398 22.532 10.4629 22.532 11.3851C22.532 12.4038 22.1885 13.1995 21.5015 13.7722C20.8146 14.3448 19.9088 14.5889 18.7842 14.5045C18.5776 14.4864 18.4028 14.5527 18.2599 14.7034C18.1171 14.8541 18.0456 15.0289 18.0456 15.2278ZM13.3586 16.4033C13.0912 16.4997 12.804 16.5705 12.497 16.6158C12.19 16.6609 11.8906 16.6835 11.5988 16.6835C11.0821 16.6835 10.5791 16.6202 10.0897 16.4936C9.6003 16.367 9.16108 16.1907 8.77204 15.9647C8.38299 15.7387 8.08815 15.472 7.88755 15.1646L6.67478 16.1411C7.15502 16.7318 7.81004 17.2125 8.63983 17.5832C9.46959 17.9539 10.4043 18.1393 11.4438 18.1393C11.8146 18.1393 12.2067 18.1106 12.62 18.0533C13.0334 17.9961 13.4468 17.9071 13.8602 17.7866L13.3586 16.4033ZM10.4316 10.0199L10.924 11.3942C12.0729 11.1712 12.9149 10.7161 13.4499 10.0289C13.9848 9.34177 14.2523 8.46775 14.2523 7.40687C14.2523 7.20796 14.1794 7.03767 14.0335 6.89602C13.8875 6.75437 13.7143 6.68354 13.5137 6.68354C13.3131 6.68354 13.1414 6.75437 12.9985 6.89602C12.8556 7.03767 12.7842 7.20796 12.7842 7.40687C12.7842 8.14828 12.6064 8.73899 12.2508 9.17902C11.8951 9.61904 11.2888 9.89933 10.4316 10.0199Z" fill="black" fill-opacity="0.8"/>
</svg>
