<svg width="24" height="24" viewBox="0 0 24 24" fill="none" xmlns="http://www.w3.org/2000/svg">
<path d="M12.0041 18.6931C12.7561 18.6931 13.4783 18.6318 14.1708 18.5092C14.8633 18.3865 15.5152 18.2179 16.1265 18.0033L14.0003 15.9951C13.7028 16.1433 13.385 16.2557 13.0469 16.3324C12.7087 16.4091 12.3611 16.4474 12.0041 16.4474C11.3711 16.4474 10.78 16.3363 10.2309 16.114C9.6818 15.8917 9.20031 15.5825 8.78643 15.1865C8.37256 14.7905 8.04796 14.3357 7.81262 13.8222C7.57728 13.3086 7.45961 12.7606 7.45961 12.1781C7.45961 11.8357 7.50019 11.5023 7.58134 11.1779C7.66249 10.8534 7.77881 10.5481 7.93028 10.2619L5.15493 7.62525C4.51654 8.00338 3.94172 8.40833 3.43047 8.84011C2.91922 9.27189 2.48236 9.69984 2.11989 10.124C1.75741 10.5481 1.48014 10.939 1.28809 11.2967C1.09603 11.6543 1 11.9482 1 12.1781C1 12.4387 1.12173 12.7772 1.36518 13.1937C1.60863 13.6102 1.96164 14.0637 2.4242 14.5542C2.88676 15.0448 3.444 15.5327 4.09591 16.0181C4.74782 16.5036 5.48223 16.9481 6.29915 17.3518C7.11607 17.7555 8.00332 18.0799 8.9609 18.3252C9.91849 18.5705 10.9329 18.6931 12.0041 18.6931ZM19.0804 16.6007C19.8703 16.1101 20.5587 15.58 21.1457 15.0102C21.7327 14.4405 22.1885 13.9026 22.5131 13.3968C22.8377 12.8909 23 12.4847 23 12.1781C23 11.9175 22.8796 11.579 22.6389 11.1625C22.3981 10.7461 22.0492 10.2926 21.5921 9.80204C21.1349 9.3115 20.5817 8.82351 19.9325 8.33807C19.2833 7.85264 18.5502 7.40808 17.7333 7.00441C16.9164 6.60073 16.0278 6.27626 15.0675 6.03099C14.1072 5.78572 13.0861 5.66308 12.0041 5.66308C11.3116 5.66308 10.6434 5.71546 9.99965 5.82021C9.35584 5.92496 8.73909 6.06931 8.1494 6.25326L10.2593 8.2461C10.5244 8.13879 10.803 8.05576 11.0951 7.99699C11.3873 7.93823 11.6903 7.90885 12.0041 7.90885C12.6316 7.90885 13.22 8.01743 13.7691 8.2346C14.3182 8.45177 14.7997 8.7558 15.2136 9.1467C15.6275 9.53761 15.9521 9.9911 16.1874 10.5072C16.4228 11.0233 16.5404 11.5803 16.5404 12.1781C16.5404 12.4694 16.508 12.753 16.443 13.0289C16.3781 13.3048 16.2834 13.5654 16.159 13.8107L19.0804 16.6007ZM9.41539 12.0018C9.41539 12.4515 9.53305 12.8603 9.76839 13.2282C10.0037 13.5961 10.3175 13.8899 10.7097 14.1096C11.102 14.3293 11.5361 14.4392 12.0122 14.4392C12.0663 14.4392 12.1204 14.4379 12.1745 14.4354C12.2286 14.4328 12.2854 14.429 12.3449 14.4238L9.43159 11.6722C9.42616 11.7284 9.42209 11.7846 9.41938 11.8409C9.41672 11.8971 9.41539 11.9507 9.41539 12.0018ZM14.5847 12.0171C14.5847 11.5726 14.4697 11.1651 14.2398 10.7946C14.0098 10.4242 13.7001 10.1303 13.3106 9.91318C12.9211 9.69601 12.4855 9.58742 12.0041 9.58742C11.9499 9.58742 11.8972 9.5887 11.8459 9.59125C11.7944 9.59381 11.7444 9.59765 11.6957 9.60275L14.5684 12.3161C14.5738 12.2701 14.5779 12.2215 14.5806 12.1704C14.5833 12.1193 14.5847 12.0682 14.5847 12.0171ZM18.3176 18.8157C18.442 18.9333 18.5895 18.9946 18.7599 18.9997C18.9303 19.0048 19.0777 18.9435 19.2022 18.8157C19.3374 18.688 19.4023 18.5462 19.3969 18.3904C19.3915 18.2345 19.3266 18.0978 19.2022 17.9803L5.63371 5.17254C5.5147 5.06012 5.36727 5.00264 5.19145 5.00008C5.01562 4.99753 4.86549 5.05501 4.74105 5.17254C4.62203 5.28495 4.56252 5.4242 4.56252 5.59027C4.56252 5.75634 4.62203 5.89558 4.74105 6.00799L18.3176 18.8157Z" fill="black" fill-opacity="0.8"/>
</svg>
