<svg width="24" height="24" viewBox="0 0 24 24" fill="none" xmlns="http://www.w3.org/2000/svg">
<path d="M12.004 18.7468C12.7499 18.7468 13.4663 18.688 14.1533 18.5705C14.8402 18.4529 15.4949 18.292 16.1174 18.0876L15.0629 17.0835C14.5853 17.2215 14.0916 17.3314 13.5818 17.4131C13.0719 17.4949 12.546 17.5358 12.004 17.5358C11.1185 17.5358 10.268 17.431 9.45223 17.2215C8.63652 17.012 7.8718 16.7348 7.15805 16.3899C6.44431 16.0449 5.79765 15.6681 5.21807 15.2593C4.63849 14.8505 4.13806 14.4456 3.71679 14.0444C3.29552 13.6433 2.97219 13.2767 2.74679 12.9446C2.5214 12.6124 2.4087 12.3569 2.4087 12.1781C2.4087 12.0453 2.49859 11.8434 2.67837 11.5726C2.85815 11.3018 3.11574 10.9926 3.45115 10.6452C3.78655 10.2977 4.19172 9.93744 4.66666 9.56443C5.14159 9.19141 5.6769 8.83628 6.27258 8.49903L5.27442 7.5486C4.6036 7.94206 4.0039 8.35979 3.4753 8.80179C2.9467 9.24379 2.4986 9.6794 2.13099 10.1086C1.76338 10.5379 1.48298 10.9326 1.28979 11.2928C1.0966 11.6531 1 11.9482 1 12.1781C1 12.4387 1.12209 12.7798 1.36626 13.2013C1.61044 13.6229 1.96329 14.0803 2.42481 14.5734C2.88633 15.0665 3.44176 15.5583 4.0911 16.0488C4.74045 16.5394 5.47432 16.9877 6.29271 17.3939C7.1111 17.8002 7.99926 18.1272 8.95718 18.375C9.9151 18.6229 10.9307 18.7468 12.004 18.7468ZM12.004 5.60943C11.301 5.60943 10.6315 5.66308 9.9956 5.77039C9.35967 5.87769 8.74386 6.02588 8.14818 6.21495L9.21074 7.21902C9.65617 7.09639 10.1083 6.9993 10.5671 6.92776C11.0259 6.85623 11.5049 6.82046 12.004 6.82046C12.8841 6.82046 13.732 6.92904 14.5477 7.14621C15.3634 7.36338 16.1282 7.64953 16.8419 8.00466C17.5557 8.35979 18.2023 8.7443 18.7819 9.1582C19.3615 9.5721 19.8606 9.98216 20.2792 10.3884C20.6977 10.7946 21.0211 11.1561 21.2491 11.4729C21.4772 11.7898 21.5913 12.0248 21.5913 12.1781C21.5913 12.3365 21.5068 12.5498 21.3377 12.8181C21.1686 13.0864 20.9245 13.3878 20.6052 13.7226C20.2858 14.0572 19.9035 14.4009 19.4581 14.7535C19.0126 15.106 18.5109 15.4458 17.9528 15.7729L18.9429 16.7157C19.5761 16.3222 20.1436 15.9083 20.6454 15.4739C21.1472 15.0396 21.5725 14.6142 21.9213 14.1978C22.2701 13.7813 22.5371 13.3968 22.7222 13.0442C22.9074 12.6916 23 12.4029 23 12.1781C23 11.9175 22.8792 11.5764 22.6377 11.1549C22.3962 10.7333 22.0474 10.276 21.5913 9.78287C21.1351 9.28978 20.5837 8.79796 19.937 8.30741C19.2904 7.81687 18.5592 7.36848 17.7435 6.96225C16.9278 6.55602 16.0383 6.22899 15.075 5.98116C14.1117 5.73334 13.0881 5.60943 12.004 5.60943ZM12.004 16.4704C12.3582 16.4704 12.7003 16.4308 13.0303 16.3516C13.3604 16.2723 13.6757 16.1638 13.9762 16.0258L7.93888 10.2773C7.78862 10.5634 7.67324 10.8662 7.59275 11.1855C7.51225 11.5049 7.47199 11.8357 7.47199 12.1781C7.47736 12.7606 7.59543 13.3112 7.82619 13.8299C8.05694 14.3485 8.37893 14.8058 8.79215 15.2019C9.20539 15.5979 9.6857 15.9083 10.2331 16.1331C10.7805 16.358 11.3708 16.4704 12.004 16.4704ZM16.1335 13.8567C16.257 13.6012 16.3522 13.3316 16.4193 13.048C16.4864 12.7645 16.5199 12.4745 16.5199 12.1781C16.5199 11.5803 16.4032 11.0207 16.1697 10.4995C15.9363 9.97833 15.613 9.52228 15.1998 9.13138C14.7865 8.74048 14.3062 8.43516 13.7588 8.21543C13.2115 7.99571 12.6265 7.88585 12.004 7.88585C11.6874 7.88585 11.3801 7.91651 11.0823 7.97783C10.7845 8.03915 10.5014 8.12602 10.2331 8.23843L16.1335 13.8567ZM18.2667 18.8157C18.3902 18.9333 18.5364 18.9946 18.7054 18.9997C18.8745 19.0048 19.0207 18.9435 19.1441 18.8157C19.2783 18.688 19.3427 18.5462 19.3373 18.3904C19.3319 18.2345 19.2675 18.0978 19.1441 17.9803L5.68495 5.17254C5.56689 5.06012 5.42065 5.00264 5.24624 5.00008C5.07183 4.99753 4.92291 5.05501 4.79948 5.17254C4.68142 5.28495 4.62239 5.4242 4.62239 5.59027C4.62239 5.75634 4.68142 5.89558 4.79948 6.00799L18.2667 18.8157Z" fill="black" fill-opacity="0.8"/>
</svg>
