<svg width="24" height="24" viewBox="0 0 24 24" fill="none" xmlns="http://www.w3.org/2000/svg">
<path d="M10.7258 19C11.4005 19 12.0531 18.9469 12.6834 18.8408C13.3137 18.7346 13.9139 18.588 14.4841 18.4009C14.4527 18.2239 14.441 18.0558 14.4488 17.8964C14.4566 17.7372 14.4841 17.5829 14.5311 17.4338C14.5782 17.2847 14.6489 17.1292 14.743 16.9674C14.131 17.2202 13.4876 17.4224 12.8129 17.5741C12.1381 17.7258 11.4424 17.8017 10.7258 17.8017C9.86269 17.8017 9.03492 17.698 8.24245 17.4907C7.44998 17.2834 6.70589 17.0091 6.0102 16.6678C5.3145 16.3264 4.68288 15.9535 4.11534 15.549C3.54779 15.1445 3.06002 14.7438 2.65202 14.3468C2.24401 13.9499 1.92886 13.5871 1.70655 13.2585C1.48424 12.9298 1.37308 12.677 1.37308 12.5C1.37308 12.3483 1.48424 12.1157 1.70655 11.8022C1.92886 11.4887 2.24401 11.131 2.65202 10.729C3.06002 10.327 3.54779 9.92125 4.11534 9.51168C4.68288 9.10211 5.3145 8.72161 6.0102 8.37019C6.70589 8.01877 7.44998 7.73561 8.24245 7.52071C9.03492 7.30582 9.86269 7.19837 10.7258 7.19837C11.5574 7.19837 12.3591 7.30076 13.1306 7.50555C13.9022 7.71033 14.6266 7.97959 15.3041 8.31331C15.9814 8.64703 16.6 9.01236 17.1596 9.40928C17.7193 9.80622 18.2058 10.1968 18.619 10.5811C18.8021 10.4142 19.0114 10.2853 19.2468 10.1943C19.4821 10.1033 19.7332 10.0578 20 10.0578C19.5554 9.57741 19.0179 9.09958 18.3876 8.62428C17.7573 8.14897 17.0472 7.71286 16.2574 7.31593C15.4675 6.919 14.6084 6.60045 13.6799 6.36027C12.7514 6.12009 11.7667 6 10.7258 6C9.68481 6 8.6975 6.12262 7.76383 6.36785C6.83012 6.61309 5.96442 6.9367 5.16672 7.33869C4.36903 7.74067 3.65241 8.18437 3.01686 8.66979C2.38132 9.1552 1.83863 9.64188 1.38878 10.1298C0.938931 10.6178 0.595004 11.0703 0.357002 11.4875C0.119001 11.9046 0 12.2421 0 12.5C0 12.7579 0.119001 13.0954 0.357002 13.5126C0.595004 13.9297 0.938931 14.3823 1.38878 14.8702C1.83863 15.3581 2.38132 15.8448 3.01686 16.3302C3.65241 16.8156 4.36772 17.2593 5.1628 17.6613C5.95789 18.0633 6.82228 18.387 7.75598 18.6322C8.68968 18.8774 9.67961 19 10.7258 19ZM10.7258 16.7474C11.3378 16.7474 11.9092 16.6362 12.4402 16.4137C12.9711 16.1912 13.4379 15.884 13.8407 15.4921C14.2435 15.1003 14.5586 14.6477 14.7862 14.1345C15.0137 13.6213 15.1275 13.0765 15.1275 12.5C15.1275 11.9084 15.0137 11.3547 14.7862 10.839C14.5586 10.3232 14.2435 9.87195 13.8407 9.48513C13.4379 9.09832 12.9711 8.7962 12.4402 8.57877C11.9092 8.36135 11.3378 8.25263 10.7258 8.25263C10.1137 8.25263 9.53968 8.36135 9.00356 8.57877C8.46739 8.7962 7.99791 9.09832 7.59513 9.48513C7.19235 9.87195 6.8772 10.3232 6.64966 10.839C6.42212 11.3547 6.31097 11.9084 6.3162 12.5C6.3162 13.0765 6.42997 13.6213 6.65751 14.1345C6.88505 14.6477 7.2002 15.1003 7.60297 15.4921C8.00572 15.884 8.47387 16.1912 9.00742 16.4137C9.54096 16.6362 10.1137 16.7474 10.7258 16.7474ZM10.7258 13.9107C10.3178 13.9107 9.96992 13.7717 9.68224 13.4936C9.39455 13.2155 9.2507 12.8843 9.2507 12.5C9.2507 12.1107 9.39455 11.7782 9.68224 11.5026C9.96992 11.2271 10.3178 11.0893 10.7258 11.0893C11.1286 11.0893 11.4738 11.2271 11.7615 11.5026C12.0492 11.7782 12.193 12.1107 12.193 12.5C12.193 12.8843 12.0492 13.2155 11.7615 13.4936C11.4738 13.7717 11.1286 13.9107 10.7258 13.9107Z" fill="black" fill-opacity="0.8"/>
<path d="M10.7258 13.9107C10.3178 13.9107 9.96992 13.7717 9.68224 13.4936C9.39455 13.2155 9.2507 12.8843 9.2507 12.5C9.2507 12.1107 9.39455 11.7782 9.68224 11.5026C9.96992 11.2271 10.3178 11.0893 10.7258 11.0893C11.1286 11.0893 11.4738 11.2271 11.7615 11.5026C12.0492 11.7782 12.193 12.1107 12.193 12.5C12.193 12.8843 12.0492 13.2155 11.7615 13.4936C11.4738 13.7717 11.1286 13.9107 10.7258 13.9107Z" fill="black" fill-opacity="0.8"/>
<path fill-rule="evenodd" clip-rule="evenodd" d="M22.9304 19C23.2579 19 23.518 18.9004 23.7108 18.7012C23.9036 18.5019 24 18.2593 24 17.9733C24 17.7944 23.9525 17.6233 23.8574 17.4598L20.419 11.5287C20.3134 11.355 20.1787 11.2235 20.0149 11.1341C19.8512 11.0447 19.6796 11 19.5 11C19.3204 11 19.1461 11.0447 18.9771 11.1341C18.8081 11.2235 18.6734 11.355 18.573 11.5287L15.1426 17.4674C15.0475 17.6258 15 17.7944 15 17.9733C15 18.2593 15.0964 18.5019 15.2892 18.7012C15.482 18.9004 15.7421 19 16.0696 19H22.9304ZM19.5 16.0039C19.3627 16.0039 19.2491 15.963 19.1593 15.8812C19.0695 15.7995 19.0246 15.6922 19.0246 15.5594L18.9612 13.3678C18.956 13.2146 19.0035 13.0881 19.1039 12.9885C19.2042 12.8889 19.3362 12.8391 19.5 12.8391C19.669 12.8391 19.8037 12.8889 19.904 12.9885C20.0044 13.0881 20.0519 13.2146 20.0466 13.3678L19.9833 15.5594C19.978 15.6922 19.9318 15.7995 19.8446 15.8812C19.7575 15.963 19.6426 16.0039 19.5 16.0039ZM19.0325 17.6437C19.1646 17.7714 19.3204 17.8353 19.5 17.8353C19.6849 17.8353 19.842 17.7714 19.9713 17.6437C20.1008 17.516 20.1681 17.3627 20.1734 17.1839C20.1734 17.0103 20.1074 16.8596 19.9753 16.7318C19.8433 16.6041 19.6849 16.5403 19.5 16.5403C19.3204 16.5403 19.1646 16.6041 19.0325 16.7318C18.9005 16.8596 18.8345 17.0103 18.8345 17.1839C18.8345 17.3627 18.9005 17.516 19.0325 17.6437Z" fill="#FFCC00"/>
</svg>
