<svg width="24" height="24" viewBox="0 0 24 24" fill="none" xmlns="http://www.w3.org/2000/svg">
<path fill-rule="evenodd" clip-rule="evenodd" d="M15.0716 18.6047C14.1086 18.8682 13.0861 19 12.0041 19C10.9329 19 9.91849 18.8682 8.9609 18.6047C8.00332 18.3412 7.11607 17.9925 6.29915 17.5588C5.48223 17.1251 4.74782 16.6475 4.09591 16.1259C3.444 15.6043 2.88676 15.08 2.4242 14.553C1.96164 14.0259 1.60863 13.5386 1.36518 13.0912C1.12173 12.6437 1 12.28 1 12C1 11.72 1.12173 11.3563 1.36518 10.9088C1.60863 10.4614 1.96164 9.97412 2.4242 9.44706C2.88676 8.92 3.444 8.39569 4.09591 7.87412C4.74782 7.35255 5.48223 6.8749 6.29915 6.44118C7.11607 6.00745 8.00332 5.65882 8.9609 5.3953C9.91849 5.13177 10.9329 5 12.0041 5C13.0861 5 14.1072 5.13177 15.0675 5.3953C16.0278 5.65882 16.9164 6.00745 17.7333 6.44118C18.5502 6.8749 19.2833 7.35255 19.9325 7.87412C20.5817 8.39569 21.1349 8.92 21.5921 9.44706C22.0492 9.97412 22.3981 10.4614 22.6389 10.9088C22.8796 11.3563 23 11.72 23 12C23 12.28 22.8796 12.6437 22.6389 13.0912C22.3981 13.5386 22.0492 14.0259 21.5921 14.553C21.1349 15.08 20.5831 15.6043 19.9366 16.1259C19.2901 16.6475 18.5584 17.1251 17.7414 17.5588C16.9245 17.9925 16.0346 18.3412 15.0716 18.6047ZM10.2309 16.2288C10.78 16.4677 11.3711 16.5871 12.0041 16.5871C12.6316 16.5871 13.22 16.4677 13.7691 16.2288C14.3182 15.99 14.7997 15.6579 15.2136 15.2324C15.6275 14.8069 15.9521 14.3182 16.1874 13.7665C16.4228 13.2147 16.5404 12.6259 16.5404 12C16.5404 11.3577 16.4228 10.7592 16.1874 10.2047C15.9521 9.6502 15.6275 9.16295 15.2136 8.74295C14.7997 8.32295 14.3182 7.99628 13.7691 7.76294C13.22 7.52961 12.6316 7.41294 12.0041 7.41294C11.3711 7.41294 10.7787 7.52961 10.2268 7.76294C9.67502 7.99628 9.19217 8.32295 8.77831 8.74295C8.36444 9.16295 8.03984 9.6502 7.80451 10.2047C7.56917 10.7592 7.4542 11.3577 7.45961 12C7.46502 12.6259 7.58404 13.2147 7.81667 13.7665C8.04931 14.3182 8.37256 14.8069 8.78643 15.2324C9.20031 15.6579 9.6818 15.99 10.2309 16.2288Z" fill="black" fill-opacity="0.8"/>
</svg>
