<svg width="24" height="24" viewBox="0 0 24 24" fill="none" xmlns="http://www.w3.org/2000/svg">
<path fill-rule="evenodd" clip-rule="evenodd" d="M12.0772 18.8394C11.4753 18.9465 10.8507 19 10.2036 19C9.2103 19 8.26971 18.8776 7.38178 18.6329C6.49386 18.3882 5.67115 18.0645 4.91366 17.6618C4.15617 17.259 3.47518 16.8155 2.8707 16.3312C2.26621 15.8469 1.75076 15.36 1.32436 14.8705C0.897954 14.3812 0.570627 13.9287 0.342376 13.5132C0.114125 13.0977 0 12.76 0 12.5C0 12.24 0.114125 11.9022 0.342376 11.4868C0.570627 11.0713 0.897954 10.6188 1.32436 10.1294C1.75076 9.64 2.26621 9.15313 2.8707 8.66882C3.47518 8.18451 4.15617 7.74098 4.91366 7.33823C5.67115 6.93549 6.49386 6.61176 7.38178 6.36706C8.26971 6.12235 9.2103 6 10.2036 6C11.1918 6 12.1249 6.1198 13.0028 6.35941C13.8807 6.59902 14.6946 6.91637 15.4445 7.31147C16.1945 7.70657 16.8692 8.14245 17.4687 8.61911C18.0682 9.09578 18.5786 9.57117 19 10.0453C18.6438 10.0504 18.314 10.1473 18.0105 10.3359C17.707 10.5245 17.47 10.7743 17.2994 11.0853L14.0412 17.0117C13.8606 17.3177 13.7703 17.6567 13.7703 18.0288C13.7703 18.1665 13.7803 18.2888 13.8004 18.3959C13.2536 18.5845 12.6792 18.7323 12.0772 18.8394ZM8.55941 16.4268C9.06858 16.6486 9.61663 16.7594 10.2036 16.7594C10.7855 16.7594 11.331 16.6486 11.8402 16.4268C12.3494 16.205 12.7958 15.8966 13.1796 15.5015C13.5634 15.1064 13.8644 14.6526 14.0826 14.1403C14.3008 13.6279 14.4099 13.0812 14.4099 12.5C14.4099 11.9035 14.3008 11.3478 14.0826 10.8329C13.8644 10.318 13.5634 9.86558 13.1796 9.47558C12.7958 9.08558 12.3494 8.78225 11.8402 8.56558C11.331 8.34892 10.7855 8.24058 10.2036 8.24058C9.61663 8.24058 9.06858 8.34892 8.55941 8.56558C8.05024 8.78225 7.60251 9.08558 7.21624 9.47558C6.82997 9.86558 6.52898 10.318 6.31327 10.8329C6.09756 11.3478 5.98971 11.9035 5.98971 12.5C5.99472 13.0812 6.10508 13.6279 6.32079 14.1403C6.5365 14.6526 6.83624 15.1064 7.22 15.5015C7.60377 15.8966 8.05024 16.205 8.55941 16.4268Z" fill="black" fill-opacity="0.8"/>
<path fill-rule="evenodd" clip-rule="evenodd" d="M22.9304 19C23.2579 19 23.518 18.9004 23.7108 18.7012C23.9036 18.5019 24 18.2593 24 17.9733C24 17.7944 23.9525 17.6233 23.8574 17.4598L20.419 11.5287C20.3134 11.355 20.1787 11.2235 20.0149 11.1341C19.8512 11.0447 19.6796 11 19.5 11C19.3204 11 19.1461 11.0447 18.9771 11.1341C18.8081 11.2235 18.6734 11.355 18.573 11.5287L15.1426 17.4674C15.0475 17.6258 15 17.7944 15 17.9733C15 18.2593 15.0964 18.5019 15.2892 18.7012C15.482 18.9004 15.7421 19 16.0696 19H22.9304ZM19.5 16.0039C19.3627 16.0039 19.2491 15.963 19.1593 15.8812C19.0695 15.7995 19.0246 15.6922 19.0246 15.5594L18.9612 13.3678C18.956 13.2146 19.0035 13.0881 19.1039 12.9885C19.2042 12.8889 19.3362 12.8391 19.5 12.8391C19.669 12.8391 19.8037 12.8889 19.904 12.9885C20.0044 13.0881 20.0519 13.2146 20.0466 13.3678L19.9833 15.5594C19.978 15.6922 19.9318 15.7995 19.8446 15.8812C19.7575 15.963 19.6426 16.0039 19.5 16.0039ZM19.0325 17.6437C19.1646 17.7714 19.3204 17.8353 19.5 17.8353C19.6849 17.8353 19.842 17.7714 19.9713 17.6437C20.1008 17.516 20.1681 17.3627 20.1734 17.1839C20.1734 17.0103 20.1074 16.8596 19.9753 16.7318C19.8433 16.6041 19.6849 16.5403 19.5 16.5403C19.3204 16.5403 19.1646 16.6041 19.0325 16.7318C18.9005 16.8596 18.8345 17.0103 18.8345 17.1839C18.8345 17.3627 18.9005 17.516 19.0325 17.6437Z" fill="#FFCC00"/>
</svg>
