<svg width="24" height="24" viewBox="0 0 24 24" fill="none" xmlns="http://www.w3.org/2000/svg">
<path d="M6.15655 20C6.87169 20 7.54135 19.8069 8.16553 19.4208C8.78971 19.0346 9.33705 18.4875 9.80754 17.7795C10.278 17.0715 10.645 16.2275 10.9085 15.2474C11.172 14.2673 11.3037 13.1834 11.3037 11.9956C11.3037 10.802 11.172 9.7166 10.9085 8.73945C10.645 7.76231 10.278 6.91974 9.80754 6.21175C9.33705 5.50375 8.78971 4.95813 8.16553 4.57488C7.54135 4.19163 6.87169 4 6.15655 4C5.43514 4 4.76391 4.19163 4.14286 4.57488C3.52182 4.95813 2.97605 5.50375 2.50556 6.21175C2.03507 6.91974 1.66652 7.76231 1.39991 8.73945C1.1333 9.7166 1 10.802 1 11.9956C1 13.1834 1.1333 14.2673 1.39991 15.2474C1.66652 16.2275 2.03507 17.0715 2.50556 17.7795C2.97605 18.4875 3.52182 19.0346 4.14286 19.4208C4.76391 19.8069 5.43514 20 6.15655 20ZM6.15655 18.7625C5.64215 18.7625 5.15598 18.6002 4.69804 18.2754C4.2401 17.9507 3.83547 17.4884 3.48417 16.8887C3.13288 16.2889 2.85686 15.5751 2.65612 14.7471C2.45538 13.9192 2.35501 13.002 2.35501 11.9956C2.35501 10.9951 2.45381 10.0823 2.65142 9.25728C2.84902 8.43227 3.12504 7.72135 3.47947 7.12452C3.83391 6.52771 4.2401 6.06546 4.69804 5.73779C5.15598 5.41013 5.64215 5.24337 6.15655 5.23752C6.67722 5.23752 7.1681 5.39989 7.62918 5.72464C8.09026 6.04938 8.49645 6.51015 8.84774 7.10697C9.19904 7.70379 9.47506 8.41617 9.67581 9.24411C9.87655 10.0721 9.97692 10.9892 9.97692 11.9956C9.97692 12.9962 9.87655 13.909 9.67581 14.734C9.47506 15.559 9.19904 16.2714 8.84774 16.8711C8.49645 17.4709 8.09026 17.9346 7.62918 18.2622C7.1681 18.5899 6.67722 18.7567 6.15655 18.7625ZM4.12404 15.0939C4.90819 15.0939 5.54021 14.8598 6.02011 14.3917C6.50001 13.9236 6.73995 13.3033 6.73995 12.531C6.73995 11.7704 6.50001 11.156 6.02011 10.6879C5.54021 10.2198 4.90819 9.98575 4.12404 9.98575C3.33362 9.98575 2.69846 10.2198 2.21857 10.6879C1.73867 11.156 1.49872 11.7704 1.49872 12.531C1.49872 13.3033 1.73867 13.9236 2.21857 14.3917C2.69846 14.8598 3.33362 15.0939 4.12404 15.0939ZM3.38067 12.2326C3.21129 12.2092 3.08113 12.117 2.99017 11.9561C2.89921 11.7952 2.87254 11.6182 2.91018 11.4251C2.94782 11.2379 3.03878 11.0843 3.18306 10.9644C3.32734 10.8444 3.4779 10.7991 3.63474 10.8283C3.80411 10.8576 3.93271 10.9512 4.02054 11.1092C4.10836 11.2672 4.13345 11.4398 4.09581 11.627C4.05818 11.8201 3.97035 11.9751 3.83234 12.0922C3.69433 12.2092 3.54377 12.256 3.38067 12.2326ZM17.8435 20C18.5649 20 19.2361 19.8069 19.8572 19.4208C20.4782 19.0346 21.024 18.4875 21.4944 17.7795C21.965 17.0715 22.3335 16.2275 22.6001 15.2474C22.8667 14.2673 23 13.1834 23 11.9956C23 10.802 22.8667 9.7166 22.6001 8.73945C22.3335 7.76231 21.965 6.91974 21.4944 6.21175C21.024 5.50375 20.4782 4.95813 19.8572 4.57488C19.2361 4.19163 18.5649 4 17.8435 4C17.1284 4 16.4587 4.19163 15.8345 4.57488C15.2103 4.95813 14.663 5.50375 14.1925 6.21175C13.722 6.91974 13.355 7.76231 13.0915 8.73945C12.8281 9.7166 12.6964 10.802 12.6964 11.9956C12.6964 13.1834 12.8281 14.2673 13.0915 15.2474C13.355 16.2275 13.722 17.0715 14.1925 17.7795C14.663 18.4875 15.2103 19.0346 15.8345 19.4208C16.4587 19.8069 17.1284 20 17.8435 20ZM17.8435 18.7537C17.3291 18.7537 16.8413 18.5913 16.3802 18.2666C15.9192 17.9419 15.5114 17.4796 15.157 16.8799C14.8025 16.2802 14.5249 15.5663 14.3242 14.7383C14.1235 13.9104 14.0231 12.9962 14.0231 11.9956C14.0231 10.9951 14.1235 10.0823 14.3242 9.25728C14.5249 8.43227 14.8025 7.72135 15.157 7.12452C15.5114 6.52771 15.9176 6.06693 16.3755 5.74219C16.8335 5.41744 17.3228 5.25215 17.8435 5.2463C18.3579 5.2463 18.8456 5.40867 19.3067 5.73341C19.7678 6.05815 20.174 6.52039 20.5253 7.12014C20.8765 7.71989 21.1525 8.43227 21.3533 9.25728C21.554 10.0823 21.6544 10.9951 21.6544 11.9956C21.6544 12.9962 21.554 13.909 21.3533 14.734C21.1525 15.559 20.8765 16.2714 20.5253 16.8711C20.174 17.4709 19.7678 17.9331 19.3067 18.2579C18.8456 18.5826 18.3579 18.7478 17.8435 18.7537ZM15.8015 15.0939C16.5857 15.0939 17.2209 14.8598 17.7071 14.3917C18.1932 13.9236 18.4363 13.3033 18.4363 12.531C18.4363 11.7704 18.1932 11.156 17.7071 10.6879C17.2209 10.2198 16.5857 9.98575 15.8015 9.98575C15.0112 9.98575 14.376 10.2198 13.8961 10.6879C13.4162 11.156 13.1762 11.7704 13.1762 12.531C13.1762 13.3033 13.4162 13.9236 13.8961 14.3917C14.376 14.8598 15.0112 15.0939 15.8015 15.0939ZM15.0581 12.2326C14.895 12.2033 14.768 12.1097 14.6771 11.9517C14.5861 11.7938 14.5594 11.6182 14.5971 11.4251C14.641 11.2379 14.732 11.0843 14.87 10.9644C15.008 10.8444 15.1586 10.7991 15.3217 10.8283C15.4911 10.8517 15.6197 10.9439 15.7075 11.1048C15.7953 11.2657 15.8172 11.4398 15.7733 11.627C15.7357 11.8201 15.6478 11.9751 15.5099 12.0922C15.3719 12.2092 15.2213 12.256 15.0581 12.2326Z" fill="black" fill-opacity="0.8"/>
</svg>
