<svg width="24" height="24" viewBox="0 0 24 24" fill="none" xmlns="http://www.w3.org/2000/svg">
<path d="M7.493 1C6.8073 1 6.16153 1.12721 5.55572 1.38162C4.9499 1.63604 4.41898 1.98668 3.96295 2.43354C3.50692 2.8804 3.14909 3.39902 2.88945 3.9894C2.62982 4.57978 2.5 5.21419 2.5 5.89263C2.5 6.47322 2.5982 7.02609 2.79459 7.55124C2.99098 8.07638 3.26226 8.55096 3.60844 8.97498C3.69499 9.07284 3.78653 9.1446 3.88306 9.19026C3.97959 9.23593 4.07446 9.25876 4.16766 9.25876C4.3341 9.25876 4.48056 9.20494 4.60705 9.0973C4.73354 8.98966 4.80843 8.8543 4.83173 8.69121C4.85503 8.52813 4.79678 8.36504 4.65698 8.20195C4.39069 7.88882 4.18264 7.53492 4.03285 7.14025C3.88306 6.74558 3.80817 6.32971 3.80817 5.89263C3.80817 5.22723 3.97294 4.62218 4.30248 4.07747C4.63201 3.53275 5.07639 3.09731 5.63561 2.77113C6.19483 2.44496 6.81396 2.28187 7.493 2.28187C8.17206 2.28187 8.78953 2.44496 9.34541 2.77113C9.9013 3.09731 10.344 3.53275 10.6735 4.07747C11.0031 4.62218 11.1679 5.22723 11.1679 5.89263C11.1679 5.91873 11.1679 5.94808 11.1679 5.98069C11.1679 6.01331 11.1679 6.05246 11.1679 6.09812C11.1745 6.31992 11.2428 6.48138 11.3726 6.58249C11.5024 6.68361 11.6472 6.73417 11.807 6.73417C11.9601 6.73417 12.1049 6.68361 12.2414 6.58249C12.3778 6.48138 12.4527 6.34601 12.466 6.17641C12.4727 6.13726 12.476 6.09486 12.476 6.04919C12.476 6.00353 12.476 5.95134 12.476 5.89263C12.476 4.99239 12.253 4.17206 11.807 3.43164C11.3609 2.69122 10.7601 2.10084 10.0045 1.66051C9.24888 1.22017 8.41172 1 7.493 1ZM16.8399 22.4982C18.1647 22.0286 19.2199 21.3387 20.0054 20.4286C20.791 19.5186 21.2687 18.4487 21.4385 17.219C21.6082 15.9894 21.4268 14.657 20.8942 13.2218L20.1552 11.2158C19.7625 10.159 19.2133 9.42022 18.5076 8.99945C17.8019 8.57869 17.0097 8.51834 16.1309 8.81842C15.8979 8.51834 15.6083 8.32101 15.2622 8.22641C14.916 8.13182 14.5498 8.15302 14.1636 8.29002C13.8907 8.38788 13.6311 8.53139 13.3847 8.72057C13.1317 8.3944 12.8172 8.17749 12.4411 8.06985C12.0649 7.96221 11.6738 7.98015 11.2677 8.12367C11.0414 8.20848 10.8317 8.31938 10.6386 8.45637L9.50019 5.40337C9.28715 4.81625 8.93764 4.41016 8.45166 4.1851C7.96567 3.96004 7.4464 3.94537 6.89385 4.14107C6.32797 4.3433 5.93353 4.68415 5.7105 5.16363C5.48748 5.64311 5.48249 6.17314 5.69552 6.75374L8.54153 14.4253C8.56151 14.4841 8.54819 14.52 8.50159 14.5331C8.4683 14.5461 8.43502 14.5363 8.40173 14.5037L7.23337 13.2512C6.94045 12.951 6.62755 12.7537 6.29469 12.6591C5.96182 12.5645 5.62562 12.5759 5.2861 12.6934C4.8334 12.8565 4.48555 13.137 4.24256 13.535C3.99957 13.9329 3.9746 14.383 4.16766 14.8853C4.21427 15.0288 4.28417 15.1805 4.37737 15.3403C4.47058 15.5001 4.57376 15.6518 4.68693 15.7953L8.03225 19.7583C9.29714 21.2588 10.6669 22.2389 12.1415 22.6988C13.6161 23.1588 15.1822 23.0919 16.8399 22.4982ZM16.4105 21.2164C15.099 21.686 13.8308 21.7676 12.6058 21.461C11.3809 21.1543 10.1892 20.3161 9.03085 18.9462L5.68553 15.0027C5.58568 14.8788 5.50912 14.7483 5.45585 14.6113C5.39594 14.4547 5.40093 14.2982 5.47083 14.1416C5.54074 13.9851 5.66889 13.8709 5.8553 13.7991C6.14156 13.7013 6.41784 13.7926 6.68414 14.0731L9.00089 16.4118C9.1873 16.6075 9.36705 16.7233 9.54014 16.7591C9.71323 16.795 9.88632 16.7836 10.0594 16.725C10.2525 16.6531 10.3856 16.5276 10.4588 16.3482C10.5321 16.1688 10.5321 15.9714 10.4588 15.7562L6.91382 6.22533C6.84058 6.02963 6.84391 5.8486 6.9238 5.68225C7.00369 5.5159 7.14017 5.39685 7.33323 5.32509C7.52629 5.25985 7.70438 5.268 7.86748 5.34955C8.03058 5.43109 8.14875 5.56972 8.22198 5.76542L10.7484 12.5662C10.8084 12.7293 10.9182 12.8434 11.078 12.9087C11.2378 12.9739 11.4009 12.9771 11.5673 12.9184C11.7271 12.8597 11.8452 12.7553 11.9218 12.6053C11.9984 12.4553 12.0067 12.3019 11.9468 12.1454L11.038 9.68932C11.1845 9.5458 11.3543 9.43816 11.5473 9.3664C11.7803 9.2816 11.99 9.28649 12.1764 9.38108C12.3628 9.47567 12.4993 9.64365 12.5859 9.88502L13.3847 12.028C13.4446 12.1911 13.5562 12.3036 13.7193 12.3656C13.8824 12.4275 14.0438 12.4292 14.2036 12.3705C14.3567 12.3183 14.4732 12.2188 14.5531 12.072C14.633 11.9253 14.6396 11.7671 14.573 11.5975L13.9339 9.85566C14.0738 9.71215 14.2435 9.60451 14.4433 9.53274C14.6763 9.44794 14.886 9.45283 15.0724 9.54742C15.2588 9.64202 15.3953 9.81 15.4818 10.0514L16.0111 11.48C16.0776 11.6496 16.1908 11.7654 16.3506 11.8274C16.5104 11.8894 16.6702 11.891 16.83 11.8322C16.9831 11.7801 17.0996 11.6806 17.1795 11.5338C17.2594 11.3871 17.2694 11.2289 17.2094 11.0593L16.8199 10.0024C17.2327 9.8524 17.6288 9.93884 18.0083 10.2617C18.3878 10.5847 18.7107 11.1114 18.9769 11.8421L19.606 13.5153C20.0654 14.7483 20.2401 15.8736 20.1303 16.8913C20.0205 17.9089 19.651 18.7863 19.0218 19.5235C18.3927 20.2606 17.5223 20.8249 16.4105 21.2164Z" fill="black" fill-opacity="0.8"/>
</svg>
