<svg width="24" height="24" viewBox="0 0 24 24" fill="none" xmlns="http://www.w3.org/2000/svg">
<path d="M22.5 13.1167C22.5 11.4924 22.0376 10.0321 21.1127 8.73604C20.1879 7.43993 18.6768 6.44331 16.5795 5.74619L11.5978 4.10152C11.5152 4.07445 11.4241 4.05076 11.3244 4.03046C11.2247 4.01015 11.1164 4 10.9995 4C10.7038 4 10.4511 4.10321 10.2414 4.30964C10.0317 4.51607 9.92683 4.79188 9.92683 5.13705C9.92683 5.36717 9.98699 5.56683 10.1073 5.73604C10.2277 5.90525 10.4219 6.04738 10.6901 6.16243L14.2691 7.65482C14.5304 7.76311 14.6611 7.90524 14.6611 8.08121C14.6611 8.17596 14.6233 8.25887 14.5476 8.32994C14.472 8.40101 14.3654 8.43654 14.2279 8.43654H2.76866C2.3836 8.43654 2.07588 8.54314 1.84553 8.75634C1.61518 8.96954 1.5 9.24873 1.5 9.5939C1.5 9.91201 1.61518 10.1794 1.84553 10.3959C2.07588 10.6125 2.3836 10.7208 2.76866 10.7208H10.5869C10.8001 10.7208 10.9583 10.7665 11.0614 10.8579C11.1645 10.9492 11.2161 11.0592 11.2161 11.1878C11.2161 11.3096 11.1645 11.4162 11.0614 11.5076C10.9583 11.599 10.8001 11.6447 10.5869 11.6447H8.25589C7.90521 11.6447 7.72987 11.8443 7.72987 12.2436C7.72987 12.6836 7.87427 13.0541 8.16306 13.3553C8.45187 13.6565 8.89539 13.8071 9.49362 13.8071H10.5869C10.8001 13.8071 10.9583 13.8528 11.0614 13.9441C11.1645 14.0355 11.2161 14.1489 11.2161 14.2842C11.2161 14.4061 11.1645 14.511 11.0614 14.599C10.9583 14.687 10.8001 14.7309 10.5869 14.7309H9.40079C9.0501 14.7309 8.87476 14.9306 8.87476 15.3299C8.87476 15.7834 9.03463 16.1591 9.35437 16.4569C9.67412 16.7547 10.1022 16.9036 10.6385 16.9036H11.2058C11.419 16.9036 11.5771 16.9492 11.6803 17.0406C11.7834 17.1319 11.835 17.2453 11.835 17.3806C11.835 17.5025 11.7834 17.6074 11.6803 17.6954C11.5771 17.7834 11.419 17.8274 11.2058 17.8274H10.3291C10.109 17.8274 9.99903 17.9424 9.99903 18.1726C9.99903 18.4974 10.1176 18.7986 10.3549 19.0761C10.5921 19.3536 10.929 19.577 11.3657 19.7461C11.8023 19.9154 12.3232 20 12.9283 20H14.8983C16.5005 20 17.8671 19.7327 18.9983 19.198C20.1294 18.6633 20.9958 17.8832 21.5975 16.8578C22.1992 15.8324 22.5 14.5854 22.5 13.1167Z" fill="black" fill-opacity="0.8"/>
</svg>
