<svg width="24" height="24" viewBox="0 0 24 24" fill="none" xmlns="http://www.w3.org/2000/svg">
<path d="M5.97755 4.07785C4.98 4.71992 4.10799 5.53693 3.36153 6.52888C2.61507 7.52084 2.03487 8.65168 1.62092 9.92138C1.20697 11.1911 1 12.5654 1 14.0443C1 14.2391 1.06616 14.4086 1.19849 14.5529C1.33082 14.6972 1.4852 14.7657 1.66164 14.7585C1.83807 14.7513 1.98397 14.6828 2.09934 14.5529C2.2147 14.4231 2.27577 14.2607 2.28256 14.0659C2.32327 12.1253 2.71347 10.4119 3.45315 8.92582C4.19283 7.43968 5.18698 6.26737 6.4356 5.40887L5.97755 4.07785ZM18.4163 21.4895C19.8007 20.9556 20.8746 20.2053 21.638 19.2386C22.4014 18.2718 22.8442 17.1338 22.9663 15.8245C23.0885 14.5151 22.8782 13.0704 22.3353 11.4905L21.6736 9.54263C21.4632 8.94385 21.2054 8.4605 20.9 8.09257C20.5946 7.72465 20.2723 7.47575 19.933 7.3459C19.5937 7.21604 19.2714 7.20883 18.966 7.32426C18.7488 7.41082 18.6776 7.56232 18.7522 7.77875L19.0475 8.64446C19.1221 8.84646 19.134 9.01419 19.083 9.14765C19.0322 9.28112 18.949 9.3731 18.8337 9.4236C18.7115 9.46688 18.5894 9.45426 18.4672 9.38572C18.345 9.31718 18.2501 9.18192 18.1822 8.97992L17.9888 8.41721C17.8056 7.89057 17.5189 7.52264 17.1286 7.31343C16.7385 7.10422 16.3296 7.08258 15.9021 7.24851C15.5289 7.39279 15.4 7.63807 15.5153 7.98436L15.9225 9.16388C15.9903 9.36588 16.0005 9.53361 15.953 9.66707C15.9055 9.80054 15.824 9.89252 15.7087 9.94302C15.5798 9.98631 15.4559 9.97548 15.3372 9.91056C15.2184 9.84563 15.1217 9.70856 15.0471 9.49935L14.6806 8.41721C14.477 7.82564 14.1835 7.44148 13.8002 7.26474C13.4167 7.08799 13.018 7.08258 12.6041 7.24851C12.2309 7.39279 12.1019 7.63807 12.2173 7.98436L13.0112 10.2893C13.0791 10.4913 13.0893 10.6608 13.0418 10.7979C12.9943 10.935 12.9129 11.0252 12.7975 11.0684C12.6686 11.1117 12.5447 11.1009 12.426 11.036C12.3072 10.9711 12.2105 10.834 12.1359 10.6248L9.4995 2.90914C9.37056 2.534 9.16528 2.27249 8.88367 2.12459C8.60204 1.9767 8.31194 1.96047 8.01336 2.0759C7.68763 2.19854 7.46369 2.41316 7.34153 2.71977C7.21939 3.02637 7.22278 3.36724 7.35172 3.74238L11.2198 15.0398C11.2673 15.1769 11.269 15.296 11.2248 15.397C11.1807 15.498 11.118 15.5629 11.0365 15.5918C10.8669 15.6567 10.6871 15.581 10.497 15.3645L7.88102 12.3778C7.68423 12.1614 7.48574 12.0243 7.28555 11.9666C7.08537 11.9089 6.8767 11.9233 6.65955 12.0099C6.33382 12.1325 6.10818 12.3363 5.98263 12.6213C5.8571 12.9063 5.84522 13.1931 5.94701 13.4816C5.98773 13.597 6.03353 13.698 6.08443 13.7846C6.13532 13.8711 6.18791 13.9505 6.24221 14.0227L9.47914 18.3404C10.8432 20.1584 12.292 21.2856 13.8256 21.722C15.3592 22.1585 16.8895 22.081 18.4163 21.4895Z" fill="black" fill-opacity="0.8"/>
</svg>
