<svg width="24" height="24" viewBox="0 0 24 24" fill="none" xmlns="http://www.w3.org/2000/svg">
<path d="M16.1794 21.4895C17.6353 20.9556 18.7647 20.2053 19.5676 19.2386C20.3705 18.2718 20.8362 17.1338 20.9646 15.8245C21.0931 14.5151 20.8719 13.0704 20.301 11.4905L19.6051 9.54263C19.391 8.94385 19.1215 8.4605 18.7968 8.09257C18.4721 7.72465 18.1314 7.47575 17.7745 7.3459C17.4177 7.21604 17.0786 7.20883 16.7574 7.32426C16.5362 7.41082 16.4649 7.56232 16.5434 7.77875L16.8538 8.64446C16.9252 8.84646 16.9342 9.01419 16.8807 9.14765C16.8271 9.28112 16.7397 9.3731 16.6183 9.4236C16.4899 9.46688 16.3632 9.45426 16.2383 9.38572C16.1134 9.31718 16.0117 9.18192 15.9332 8.97992L15.7298 8.41721C15.5442 7.89057 15.2445 7.52264 14.8305 7.31343C14.4166 7.10422 13.9848 7.08258 13.5352 7.24851C13.1427 7.39279 13.0107 7.63807 13.1392 7.98436L13.5567 9.16388C13.6352 9.36588 13.6476 9.53361 13.5941 9.66707C13.5406 9.80054 13.4532 9.89252 13.3318 9.94302C13.2034 9.98631 13.0749 9.97548 12.9465 9.91056C12.818 9.84563 12.7181 9.70856 12.6467 9.49935L12.2506 8.41721C12.0365 7.82564 11.7296 7.44148 11.33 7.26474C10.9303 7.08799 10.5092 7.08258 10.0668 7.24851C9.67423 7.39279 9.54221 7.63807 9.67067 7.98436L10.495 10.2893C10.5735 10.4913 10.586 10.6608 10.5324 10.7979C10.4789 10.935 10.3915 11.0252 10.2702 11.0684C10.1417 11.1117 10.0132 11.1009 9.88478 11.036C9.75631 10.9711 9.6564 10.834 9.58503 10.6248L6.80168 2.90914C6.66608 2.534 6.45019 2.27249 6.15402 2.12459C5.85784 1.9767 5.55274 1.96047 5.23873 2.0759C4.90329 2.19854 4.66956 2.41316 4.53753 2.71977C4.4055 3.02637 4.40728 3.36724 4.54288 3.74238L8.61086 15.0398C8.66082 15.1769 8.6626 15.296 8.61621 15.397C8.56982 15.498 8.5038 15.5629 8.41817 15.5918C8.24688 15.6567 8.05775 15.581 7.85079 15.3645L5.09955 12.3778C4.89259 12.1614 4.68384 12.0243 4.4733 11.9666C4.26277 11.9089 4.04688 11.9233 3.82564 12.0099C3.47593 12.1325 3.23685 12.3363 3.10839 12.6213C2.97993 12.9063 2.96565 13.1931 3.06557 13.4816C3.10839 13.597 3.15835 13.698 3.21544 13.7846C3.27254 13.8711 3.32963 13.9505 3.38672 14.0227L6.78027 18.3404C8.21477 20.1584 9.73847 21.2856 11.3514 21.722C12.9643 22.1585 14.5736 22.081 16.1794 21.4895Z" fill="black" fill-opacity="0.8"/>
</svg>
