<svg width="24" height="24" viewBox="0 0 24 24" fill="none" xmlns="http://www.w3.org/2000/svg">
<path d="M7.44199 1C6.76329 1 6.12412 1.12987 5.5245 1.38961C4.92487 1.64935 4.39937 2.00733 3.948 2.46354C3.49663 2.91976 3.14246 3.44923 2.88547 4.05197C2.62849 4.6547 2.5 5.30239 2.5 5.99503C2.5 6.58778 2.59719 7.15222 2.79158 7.68836C2.98596 8.22449 3.25448 8.70901 3.59712 9.14191C3.68278 9.24181 3.77339 9.31507 3.86893 9.36169C3.96448 9.40831 4.05837 9.43163 4.15062 9.43163C4.31536 9.43163 4.46032 9.37668 4.58552 9.26678C4.71071 9.15689 4.78484 9.0187 4.8079 8.8522C4.83097 8.6857 4.77331 8.5192 4.63494 8.35269C4.37137 8.03301 4.16545 7.6717 4.01719 7.26877C3.86893 6.86584 3.7948 6.44126 3.7948 5.99503C3.7948 5.31571 3.95789 4.69799 4.28406 4.14188C4.61023 3.58576 5.05006 3.14121 5.60357 2.80821C6.15707 2.4752 6.76988 2.3087 7.44199 2.3087C8.1141 2.3087 8.72526 2.4752 9.27547 2.80821C9.82568 3.14121 10.2639 3.58576 10.59 4.14188C10.9162 4.69799 11.0793 5.31571 11.0793 5.99503C11.0793 6.02168 11.0793 6.05165 11.0793 6.08494C11.0793 6.11825 11.0793 6.15821 11.0793 6.20483C11.0859 6.43127 11.1534 6.59611 11.2819 6.69934C11.4104 6.80257 11.5537 6.85419 11.7119 6.85419C11.8634 6.85419 12.0067 6.80257 12.1418 6.69934C12.2769 6.59611 12.351 6.45791 12.3642 6.28475C12.3708 6.24479 12.3741 6.2015 12.3741 6.15488C12.3741 6.10825 12.3741 6.05497 12.3741 5.99503C12.3741 5.07595 12.1533 4.23845 11.7119 3.48254C11.2704 2.72662 10.6757 2.12388 9.92781 1.67433C9.17992 1.22478 8.35131 1 7.44199 1ZM17.0492 22.5286C18.3934 22.0358 19.4362 21.3432 20.1775 20.4507C20.9188 19.5583 21.3488 18.5076 21.4673 17.2988C21.5859 16.09 21.3817 14.7564 20.8546 13.2978L20.2121 11.4996C20.0144 10.9468 19.7656 10.5006 19.4658 10.1609C19.1661 9.82123 18.8514 9.59146 18.5219 9.47158C18.1925 9.3517 17.8795 9.34504 17.5829 9.4516C17.372 9.53153 17.3029 9.67139 17.3754 9.87119L17.6719 10.6704C17.7378 10.8569 17.746 11.0117 17.6966 11.1349C17.6472 11.2581 17.5665 11.343 17.4545 11.3896C17.3358 11.4296 17.2172 11.418 17.0986 11.3547C16.98 11.2915 16.8877 11.1666 16.8219 10.9801L16.634 10.4606C16.4562 9.97442 16.1778 9.63476 15.7988 9.44161C15.42 9.24847 15.023 9.22849 14.6079 9.38167C14.2455 9.51487 14.1203 9.74131 14.2323 10.061L14.6276 11.1499C14.6935 11.3364 14.7034 11.4912 14.6573 11.6145C14.6112 11.7376 14.5321 11.8226 14.42 11.8692C14.2949 11.9092 14.1746 11.8992 14.0593 11.8392C13.944 11.7793 13.8501 11.6527 13.7776 11.4596L13.4218 10.4606C13.2241 9.91448 12.9391 9.55983 12.5668 9.39666C12.1945 9.23349 11.8074 9.22849 11.4055 9.38167C11.0431 9.51487 10.9211 9.74131 11.0398 10.061L11.8008 12.1889C11.8667 12.3753 11.8766 12.5319 11.8305 12.6584C11.7843 12.7849 11.7053 12.8682 11.5933 12.9081C11.4681 12.9481 11.3478 12.9381 11.2325 12.8782C11.1172 12.8182 11.0266 12.6917 10.9607 12.4985L8.39085 5.37565C8.26565 5.02933 8.06633 4.7879 7.79287 4.65138C7.51941 4.51484 7.23772 4.49986 6.94779 4.60642C6.6315 4.71964 6.41405 4.91778 6.29545 5.20083C6.17684 5.48388 6.18014 5.79856 6.30533 6.14489L10.0612 16.5745C10.1074 16.7011 10.109 16.811 10.0662 16.9042C10.0234 16.9975 9.9624 17.0574 9.88333 17.0841C9.7186 17.1439 9.54398 17.074 9.35947 16.8742L6.8193 14.117C6.62821 13.9172 6.43547 13.7906 6.24109 13.7374C6.0467 13.684 5.84408 13.6973 5.63322 13.7773C5.31693 13.8905 5.09948 14.0786 4.98088 14.3418C4.86227 14.6048 4.84909 14.8695 4.94134 15.136C4.98088 15.2425 5.027 15.3358 5.07972 15.4157C5.13243 15.4956 5.18515 15.5689 5.23786 15.6354L8.37108 19.6215C9.69553 21.2998 11.1024 22.3405 12.5915 22.7434C14.0807 23.1463 15.5666 23.0747 17.0492 22.5286Z" fill="black" fill-opacity="0.8"/>
</svg>
