<svg width="24" height="24" viewBox="0 0 24 24" fill="none" xmlns="http://www.w3.org/2000/svg">
<path d="M22.5 13.0729C22.5 11.3484 22.0276 9.88527 21.0827 8.6834C20.1378 7.48152 18.7305 6.55398 16.8607 5.90079L11.9201 4.17636C11.7471 4.11757 11.5675 4.07348 11.3812 4.04409C11.1949 4.0147 11.0252 4 10.8721 4C10.3199 4 9.89567 4.17963 9.59956 4.53888C9.30346 4.89814 9.15541 5.31619 9.15541 5.79302C9.15541 6.13921 9.25688 6.45111 9.45983 6.72872C9.66278 7.00633 9.96054 7.22678 10.3531 7.39008L11.9501 8.04653C11.9967 8.05959 12.02 8.08572 12.02 8.12492C12.02 8.17064 11.99 8.1935 11.9301 8.1935H3.596C2.97053 8.1935 2.46483 8.38129 2.0789 8.75688C1.69297 9.13246 1.5 9.61093 1.5 10.1923C1.5 10.7736 1.69297 11.2488 2.0789 11.6179C2.46483 11.9869 2.97053 12.1714 3.596 12.1714H6.91967C6.85313 12.4001 6.81986 12.6319 6.81986 12.8671C6.81986 13.2917 6.93631 13.6575 7.1692 13.9645C7.40208 14.2714 7.71815 14.4903 8.11739 14.6209C8.01757 14.9083 7.96767 15.1924 7.96767 15.4733C7.96767 15.8848 8.07247 16.2327 8.28207 16.5168C8.49167 16.801 8.77946 16.9985 9.14543 17.1096C9.15874 18.0241 9.48644 18.7344 10.1286 19.2406C10.7707 19.7469 11.6673 20 12.8184 20H14.9943C16.5513 20 17.8904 19.7109 19.0116 19.1328C20.1328 18.5548 20.9945 17.7465 21.5967 16.7079C22.1989 15.6693 22.5 14.4576 22.5 13.0729ZM21.1226 13.1218C21.1226 14.278 20.878 15.2741 20.389 16.1102C19.8999 16.9463 19.1863 17.5881 18.2481 18.0355C17.3099 18.4829 16.1721 18.7066 14.8346 18.7066H13.018C12.2196 18.7066 11.6024 18.5874 11.1666 18.3491C10.7307 18.1106 10.5128 17.7726 10.5128 17.3349H11.6606C11.8403 17.3349 11.9867 17.2729 12.0998 17.1488C12.2129 17.0247 12.2695 16.8842 12.2695 16.7274C12.2695 16.5576 12.2129 16.409 12.0998 16.2817C11.9867 16.1543 11.8403 16.0906 11.6606 16.0906H10.1036C9.8441 16.0906 9.63782 16.022 9.48478 15.8848C9.33174 15.7477 9.25522 15.555 9.25522 15.3067C9.25522 15.1043 9.29847 14.9116 9.38497 14.7287H11.2714C11.4577 14.7287 11.6074 14.6667 11.7205 14.5425C11.8336 14.4184 11.8902 14.2747 11.8902 14.1114C11.8902 13.9481 11.8336 13.8028 11.7205 13.6754C11.6074 13.548 11.4577 13.4844 11.2714 13.4844H8.95579C8.68963 13.4844 8.4817 13.4141 8.33198 13.2737C8.18226 13.1333 8.1074 12.9422 8.1074 12.7005C8.1074 12.4915 8.15066 12.2956 8.23716 12.1127H10.8921C11.0718 12.1127 11.2198 12.0522 11.3362 11.9314C11.4527 11.8106 11.5109 11.6685 11.5109 11.5052C11.5109 11.3288 11.4527 11.1786 11.3362 11.0545C11.2198 10.9304 11.0718 10.8683 10.8921 10.8683H3.50618C3.29325 10.8683 3.12025 10.8063 2.98717 10.6822C2.85409 10.5581 2.78755 10.3948 2.78755 10.1923C2.78755 9.98978 2.85409 9.82322 2.98717 9.69258C3.12025 9.56194 3.29325 9.49662 3.50618 9.49662H13.8564C14.0827 9.49662 14.2707 9.4313 14.4204 9.30066C14.5701 9.17002 14.6449 9.00346 14.6449 8.80097C14.6449 8.62461 14.5967 8.46294 14.5002 8.31598C14.4037 8.169 14.2324 8.04326 13.9862 7.93875L10.952 6.59644C10.5927 6.45274 10.413 6.23066 10.413 5.93019C10.413 5.73423 10.4762 5.57746 10.6027 5.45989C10.7291 5.34231 10.8788 5.28353 11.0518 5.28353C11.1982 5.28353 11.3479 5.30965 11.5009 5.36191L16.4316 7.09614C18.135 7.69708 19.3427 8.5103 20.0546 9.53581C20.7666 10.5613 21.1226 11.7567 21.1226 13.1218Z" fill="black" fill-opacity="0.8"/>
</svg>
