<svg width="24" height="24" viewBox="0 0 24 24" fill="none" xmlns="http://www.w3.org/2000/svg">
<path d="M13.0729 22.5C14.4576 22.5 15.6693 22.1989 16.7079 21.5967C17.7465 20.9945 18.5548 20.1328 19.1328 19.0116C19.7109 17.8904 20 16.5513 20 14.9943V12.8085C20 11.664 19.7469 10.769 19.2406 10.1236C18.7344 9.47812 18.0241 9.15208 17.1096 9.14543C16.9985 8.77946 16.801 8.49167 16.5168 8.28207C16.2327 8.07247 15.8848 7.96767 15.4733 7.96767C15.1924 7.96767 14.9051 8.01757 14.6111 8.11739C14.487 7.7115 14.2714 7.39377 13.9645 7.1642C13.6575 6.93464 13.2917 6.81986 12.8671 6.81986C12.6319 6.81986 12.4001 6.85313 12.1714 6.91967V3.596C12.1714 2.96388 11.9869 2.45651 11.6179 2.07391C11.2488 1.6913 10.7736 1.5 10.1923 1.5C9.61093 1.5 9.13246 1.6913 8.75688 2.07391C8.38129 2.45651 8.1935 2.96388 8.1935 3.596V11.9201C8.1935 11.98 8.17064 12.01 8.12492 12.01C8.08572 12.01 8.05633 11.9867 8.03674 11.9401L7.39008 10.3531C7.22678 9.96054 7.00633 9.66278 6.72872 9.45983C6.45111 9.25688 6.13921 9.15541 5.79302 9.15541C5.31619 9.15541 4.89814 9.30346 4.53888 9.59956C4.17963 9.89567 4 10.3165 4 10.8622C4 11.0152 4.0147 11.1849 4.04409 11.3712C4.07348 11.5575 4.11757 11.7371 4.17636 11.9101L5.90079 16.8507C6.55398 18.7271 7.48152 20.1378 8.6834 21.0827C9.88527 22.0276 11.3484 22.5 13.0729 22.5ZM13.1218 21.1226C11.7567 21.1226 10.5613 20.7649 9.53581 20.0496C8.5103 19.3343 7.69708 18.125 7.09614 16.4216L5.36191 11.5009C5.30965 11.3479 5.28353 11.1949 5.28353 11.0418C5.28353 10.8688 5.34231 10.7191 5.45989 10.5927C5.57746 10.4662 5.73423 10.403 5.93019 10.403C6.23066 10.403 6.45274 10.5827 6.59644 10.942L7.93875 13.9762C8.04326 14.229 8.169 14.4037 8.31598 14.5002C8.46294 14.5967 8.62461 14.6449 8.80097 14.6449C9.00346 14.6449 9.17002 14.5701 9.30066 14.4204C9.4313 14.2707 9.49662 14.0827 9.49662 13.8564V3.50618C9.49662 3.29325 9.56194 3.12025 9.69258 2.98717C9.82322 2.85409 9.98978 2.78755 10.1923 2.78755C10.3948 2.78755 10.5581 2.85409 10.6822 2.98717C10.8063 3.12025 10.8683 3.29325 10.8683 3.50618V10.8921C10.8683 11.0651 10.9304 11.2115 11.0545 11.3313C11.1786 11.451 11.3256 11.5109 11.4954 11.5109C11.6652 11.5109 11.8106 11.451 11.9314 11.3313C12.0522 11.2115 12.1127 11.0651 12.1127 10.8921V8.23716C12.2956 8.14401 12.4915 8.09743 12.7005 8.09743C12.9422 8.09743 13.1333 8.17395 13.2737 8.32699C13.4141 8.48003 13.4844 8.68963 13.4844 8.95579V11.2714C13.4844 11.4577 13.548 11.6074 13.6754 11.7205C13.8028 11.8336 13.9481 11.8902 14.1114 11.8902C14.2747 11.8902 14.4184 11.8336 14.5425 11.7205C14.6667 11.6074 14.7287 11.4577 14.7287 11.2714V9.38497C14.9116 9.29847 15.1043 9.25522 15.3067 9.25522C15.555 9.25522 15.7477 9.33008 15.8848 9.47979C16.022 9.6295 16.0906 9.83744 16.0906 10.1036V11.6606C16.0906 11.8403 16.1543 11.9867 16.2817 12.0998C16.409 12.2129 16.5576 12.2695 16.7274 12.2695C16.8842 12.2695 17.0247 12.2129 17.1488 12.0998C17.2729 11.9867 17.3349 11.8403 17.3349 11.6606V10.5128C17.7726 10.5128 18.1106 10.7307 18.3491 11.1666C18.5874 11.6024 18.7066 12.2163 18.7066 13.0081V14.8346C18.7066 16.1721 18.4829 17.3082 18.0355 18.2431C17.5881 19.178 16.9463 19.8916 16.1102 20.384C15.2741 20.8764 14.278 21.1226 13.1218 21.1226Z" fill="black" fill-opacity="0.8"/>
</svg>
