<svg width="24" height="24" viewBox="0 0 24 24" fill="none" xmlns="http://www.w3.org/2000/svg">
<path d="M13.1168 22.5C14.5855 22.5 15.8325 22.2007 16.8579 21.6022C17.8833 21.0037 18.6633 20.1369 19.198 19.0017C19.7327 17.8666 20 16.501 20 14.9049V12.9236C20 12.3182 19.9154 11.797 19.7462 11.3602C19.577 10.9233 19.3536 10.5879 19.0762 10.354C18.7987 10.1201 18.4975 10.0032 18.1726 10.0032C17.9492 10.0032 17.8375 10.1133 17.8375 10.3334V11.2106C17.8375 11.4169 17.7919 11.5717 17.7005 11.6749C17.6092 11.7781 17.5026 11.8297 17.3807 11.8297C17.2521 11.8297 17.1421 11.7781 17.0508 11.6749C16.9594 11.5717 16.9138 11.4169 16.9138 11.2106V10.6327C16.9138 10.1029 16.7632 9.6764 16.4619 9.35306C16.1607 9.02972 15.7834 8.86805 15.3299 8.86805C14.9307 8.86805 14.731 9.04348 14.731 9.39434V10.5914C14.731 10.7978 14.687 10.9526 14.599 11.0558C14.511 11.159 14.4061 11.2106 14.2843 11.2106C14.1489 11.2106 14.0356 11.159 13.9442 11.0558C13.8528 10.9526 13.8071 10.7978 13.8071 10.5914V9.48721C13.8071 8.88869 13.6565 8.44495 13.3553 8.15601C13.0542 7.86707 12.6836 7.7226 12.2437 7.7226C11.8443 7.7226 11.6447 7.89803 11.6447 8.24888V10.5914C11.6447 10.7978 11.599 10.9526 11.5076 11.0558C11.4163 11.159 11.3097 11.2106 11.1878 11.2106C11.0592 11.2106 10.9493 11.159 10.8579 11.0558C10.7665 10.9526 10.7208 10.7978 10.7208 10.5914V2.75897C10.7208 2.38059 10.6125 2.07617 10.3959 1.8457C10.1794 1.61523 9.91202 1.5 9.59392 1.5C9.24874 1.5 8.96955 1.61523 8.75636 1.8457C8.54316 2.07617 8.43656 2.38059 8.43656 2.75897V14.2238C8.43656 14.3683 8.40102 14.4766 8.32996 14.5489C8.25889 14.6211 8.17936 14.6572 8.09138 14.6572C7.9154 14.6572 7.76989 14.5265 7.65482 14.2651L6.16244 10.6843C6.04738 10.4228 5.90525 10.2319 5.73604 10.1115C5.56684 9.99114 5.36718 9.93094 5.13706 9.93094C4.79188 9.93094 4.51608 10.0359 4.30965 10.2457C4.10322 10.4555 4 10.7049 4 10.9938C4 11.1177 4.01015 11.2277 4.03046 11.3241C4.05076 11.4204 4.07445 11.5098 4.10152 11.5924L5.7462 16.5766C6.44332 18.6818 7.43994 20.1953 8.73604 21.1172C10.0322 22.0391 11.4924 22.5 13.1168 22.5Z" fill="black" fill-opacity="0.8"/>
</svg>
