<svg width="24" height="24" viewBox="0 0 24 24" fill="none" xmlns="http://www.w3.org/2000/svg">
<path d="M1.5 13.1167C1.5 14.5854 1.79926 15.8324 2.39779 16.8578C2.99632 17.8832 3.86315 18.6633 4.99829 19.198C6.13343 19.7327 7.49903 20 9.0951 20H11.0764C11.6818 20 12.203 19.9154 12.6398 19.7461C13.0767 19.577 13.412 19.3536 13.6459 19.0761C13.8799 18.7986 13.9969 18.4974 13.9969 18.1726C13.9969 17.9424 13.8868 17.8274 13.6666 17.8274H12.7895C12.5831 17.8274 12.4282 17.7834 12.325 17.6954C12.2219 17.6074 12.1703 17.5025 12.1703 17.3806C12.1703 17.2453 12.2219 17.1319 12.325 17.0406C12.4282 16.9492 12.5831 16.9036 12.7895 16.9036H13.3674C13.8971 16.9036 14.3236 16.7547 14.647 16.4569C14.9703 16.1591 15.132 15.7834 15.132 15.3299C15.132 14.9306 14.9565 14.7309 14.6056 14.7309H13.4086C13.2023 14.7309 13.0475 14.687 12.9443 14.599C12.8411 14.511 12.7895 14.4061 12.7895 14.2842C12.7895 14.1489 12.8411 14.0355 12.9443 13.9441C13.0475 13.8528 13.2023 13.8071 13.4086 13.8071H14.5129C15.1114 13.8071 15.5551 13.6565 15.844 13.3553C16.133 13.0541 16.2775 12.6836 16.2775 12.2436C16.2775 11.8443 16.102 11.6447 15.7511 11.6447H13.4086C13.2023 11.6447 13.0475 11.599 12.9443 11.5076C12.8411 11.4162 12.7895 11.3096 12.7895 11.1878C12.7895 11.0592 12.8411 10.9492 12.9443 10.8579C13.0475 10.7665 13.2023 10.7208 13.4086 10.7208H21.241C21.6263 10.7208 21.9325 10.6125 22.1595 10.3959C22.3865 10.1793 22.5 9.912 22.5 9.5939C22.5 9.24872 22.3865 8.96953 22.1595 8.75633C21.9325 8.54313 21.6263 8.43654 21.241 8.43654H9.77619C9.63171 8.43654 9.52336 8.40101 9.45112 8.32995C9.37889 8.25888 9.34278 8.17597 9.34278 8.08121C9.34278 7.90524 9.47349 7.7631 9.73491 7.65481L13.3157 6.16243C13.5771 6.04737 13.7681 5.90524 13.8884 5.73604C14.0088 5.56683 14.069 5.36717 14.069 5.13706C14.069 4.79188 13.9641 4.51607 13.7543 4.30964C13.5445 4.10321 13.2951 4 13.0062 4C12.8893 4 12.7809 4.01015 12.6812 4.03046C12.5814 4.05076 12.4902 4.07445 12.4077 4.10152L7.42336 5.74619C5.31819 6.44331 3.80467 7.43992 2.8828 8.73603C1.96093 10.0321 1.5 11.4924 1.5 13.1167Z" fill="black" fill-opacity="0.8"/>
</svg>
