<svg width="24" height="24" viewBox="0 0 24 24" fill="none" xmlns="http://www.w3.org/2000/svg">
<path d="M10.8833 1C9.41456 1 8.16752 1.30083 7.14214 1.9025C6.11676 2.50417 5.33672 3.37058 4.80203 4.50171C4.26734 5.63285 4 6.99606 4 8.59134V10.5717C4 11.1768 4.0846 11.6976 4.25381 12.1343C4.42301 12.571 4.64636 12.9062 4.92386 13.14C5.20135 13.3737 5.50254 13.4906 5.82741 13.4906C6.05077 13.4906 6.16244 13.3806 6.16244 13.1606V12.2838C6.16244 12.0776 6.20813 11.9229 6.29949 11.8197C6.39087 11.7166 6.49747 11.665 6.61929 11.665C6.74789 11.665 6.85787 11.7166 6.94924 11.8197C7.04061 11.9229 7.0863 12.0776 7.0863 12.2838V12.8614C7.0863 13.3978 7.23689 13.8258 7.53808 14.1456C7.83926 14.4653 8.21659 14.6252 8.67006 14.6252C9.06938 14.6252 9.26904 14.4498 9.26904 14.0992V12.9027C9.26904 12.6964 9.31304 12.5417 9.40102 12.4386C9.48901 12.3354 9.59392 12.2838 9.71575 12.2838C9.85111 12.2838 9.96448 12.3354 10.0559 12.4386C10.1472 12.5417 10.1929 12.6964 10.1929 12.9027V14.0064C10.1929 14.6046 10.3435 15.0481 10.6447 15.3369C10.9459 15.6257 11.3164 15.7701 11.7564 15.7701C12.1557 15.7701 12.3553 15.5948 12.3553 15.2441V12.9027C12.3553 12.6964 12.3993 12.5417 12.4873 12.4386C12.5753 12.3354 12.6802 12.2838 12.802 12.2838C12.9374 12.2838 13.0508 12.3354 13.1422 12.4386C13.2335 12.5417 13.2792 12.6964 13.2792 12.9027V20.7313C13.2792 21.1164 13.3875 21.4241 13.6041 21.6544C13.8207 21.8848 14.088 22 14.4061 22C14.7445 22 15.0203 21.8848 15.2336 21.6544C15.4467 21.4241 15.5533 21.1164 15.5533 20.7313V9.27208C15.5533 9.12769 15.5906 9.01939 15.665 8.94719C15.7394 8.87499 15.8207 8.83889 15.9087 8.83889C16.0846 8.83889 16.2301 8.96953 16.3452 9.23083L17.8375 12.8099C17.9459 13.0781 18.0863 13.2724 18.2589 13.3927C18.4315 13.513 18.6294 13.5731 18.8528 13.5731C19.198 13.5731 19.4755 13.4665 19.6853 13.2534C19.8951 13.0403 20 12.7893 20 12.5004C20 12.3836 19.9898 12.2753 19.9695 12.1756C19.9492 12.0759 19.9222 11.9847 19.8883 11.9022L18.2538 6.92042C17.5567 4.82318 16.5584 3.31213 15.2589 2.38728C13.9594 1.46243 12.5009 1 10.8833 1Z" fill="black" fill-opacity="0.8"/>
</svg>
