<svg width="24" height="24" viewBox="0 0 24 24" fill="none" xmlns="http://www.w3.org/2000/svg">
<path d="M16.196 21.4717C17.5548 20.9772 18.6409 20.2509 19.4542 19.2927C20.2674 18.3346 20.7615 17.2081 20.9365 15.9134C21.1116 14.6187 20.9246 13.2158 20.3755 11.7047L19.6138 9.59264C19.2019 8.47995 18.6323 7.70209 17.9049 7.25907C17.1774 6.81606 16.3641 6.75253 15.465 7.06848C15.2248 6.75253 14.9263 6.54475 14.5694 6.44516C14.2125 6.34556 13.8351 6.36788 13.437 6.51212C13.1556 6.61515 12.888 6.76626 12.634 6.96545C12.3732 6.62202 12.049 6.39365 11.6612 6.28032C11.2734 6.16698 10.8702 6.18587 10.4516 6.33698C10.2182 6.42627 10.0021 6.54303 9.80303 6.68727L8.62945 3.47281C8.40984 2.85465 8.04953 2.42708 7.54853 2.19012C7.04753 1.95316 6.50878 1.9377 5.93229 2.14376C5.3558 2.35668 4.9526 2.71556 4.72269 3.22039C4.49277 3.72523 4.48763 4.2833 4.70724 4.89459L7.64118 12.972C7.66177 13.0338 7.64804 13.0716 7.6 13.0853C7.56569 13.099 7.53137 13.0887 7.49705 13.0544L6.29259 11.7356C5.99062 11.4197 5.66807 11.2119 5.32492 11.1123C4.98176 11.0127 4.63518 11.0247 4.28517 11.1484C3.81848 11.3201 3.45989 11.6154 3.20939 12.0344C2.95889 12.4534 2.93315 12.9273 3.13218 13.4562C3.18022 13.6073 3.25228 13.767 3.34836 13.9353C3.44445 14.1035 3.55082 14.2632 3.66749 14.4144L7.11615 18.5869C8.42013 20.1667 9.8322 21.1987 11.3524 21.6829C12.8725 22.1672 14.487 22.0968 16.196 21.4717ZM15.7532 20.122C14.4012 20.6166 13.0938 20.7024 11.8311 20.3797C10.5683 20.0568 9.33978 19.1742 8.14561 17.7318L4.69694 13.5798C4.58713 13.4493 4.50821 13.3119 4.46017 13.1677C4.3984 13.0028 4.40183 12.838 4.47047 12.6732C4.5391 12.5083 4.67293 12.3881 4.87195 12.3126C5.16706 12.2095 5.45188 12.3057 5.7264 12.601L8.11473 15.0634C8.30689 15.2695 8.49219 15.3914 8.67063 15.4292C8.84907 15.467 9.02408 15.4549 9.19565 15.3931C9.40154 15.3176 9.54223 15.1853 9.61773 14.9964C9.69322 14.8076 9.68979 14.5998 9.60744 14.3731L5.96317 4.33825C5.88768 4.13219 5.88939 3.94159 5.96832 3.76644C6.04724 3.59129 6.18622 3.46595 6.38525 3.39039C6.59114 3.32171 6.77815 3.33029 6.9463 3.41615C7.11444 3.502 7.23626 3.64796 7.31175 3.85401L9.91626 11.0144C9.97804 11.1861 10.0913 11.3063 10.256 11.375C10.4207 11.4437 10.5889 11.4471 10.7604 11.3853C10.9251 11.3235 11.0452 11.2136 11.1207 11.0556C11.1962 10.8977 11.2065 10.7362 11.1516 10.5714L10.2045 7.98542C10.3555 7.83431 10.5339 7.72098 10.7398 7.64543C10.98 7.55614 11.1962 7.56129 11.3884 7.66088C11.5806 7.76047 11.7212 7.93734 11.8105 8.19147L12.634 10.4478C12.6958 10.6195 12.809 10.738 12.9737 10.8032C13.1385 10.8685 13.3032 10.8702 13.4679 10.8084C13.6257 10.7534 13.7459 10.6487 13.8282 10.4941C13.9106 10.3396 13.9209 10.173 13.8591 9.99445L13.1899 8.16056C13.3409 8.00946 13.5194 7.89613 13.7252 7.82058C13.9654 7.73128 14.1816 7.73643 14.3739 7.83602C14.566 7.93562 14.7066 8.11249 14.7958 8.36661L15.3415 9.87082C15.4101 10.0494 15.5268 10.1713 15.6916 10.2366C15.8562 10.3018 16.0209 10.3035 16.1856 10.2417C16.3435 10.1868 16.4636 10.082 16.5459 9.92749C16.6283 9.77295 16.6386 9.60638 16.5768 9.4278L16.1651 8.31511C16.5974 8.15713 17.0092 8.24814 17.4003 8.58813C17.7916 8.92812 18.1244 9.48275 18.3989 10.252L19.0475 12.0138C19.5142 13.312 19.6926 14.4968 19.5829 15.5682C19.473 16.6397 19.0921 17.5635 18.4402 18.3397C17.7881 19.1159 16.8925 19.71 15.7532 20.122Z" fill="black" fill-opacity="0.8"/>
</svg>
