<svg width="24" height="24" viewBox="0 0 24 24" fill="none" xmlns="http://www.w3.org/2000/svg">
<path d="M5.81845 4.46187C4.85279 5.07317 4.00866 5.85103 3.28605 6.79545C2.56345 7.73987 2.00179 8.81651 1.60107 10.0254C1.20036 11.2342 1 12.5427 1 13.9507C1 14.1362 1.06405 14.2976 1.19215 14.4349C1.32024 14.5723 1.46969 14.6375 1.64049 14.6307C1.81129 14.6238 1.95252 14.5586 2.0642 14.4349C2.17587 14.3113 2.23499 14.1567 2.24157 13.9713C2.28098 12.1237 2.6587 10.4924 3.37474 9.07751C4.09078 7.66259 5.05315 6.54646 6.26187 5.72911L5.81845 4.46187ZM18.4016 21.4717C19.7023 20.9772 20.7419 20.2509 21.5203 19.2927C22.2987 18.3346 22.7717 17.2081 22.9393 15.9134C23.1068 14.6187 22.9277 13.2158 22.4022 11.7047L21.6731 9.59264C21.2855 8.47995 20.7435 7.70209 20.0472 7.25907C19.3509 6.81606 18.5691 6.75253 17.702 7.06848C17.472 6.75253 17.1863 6.54475 16.8447 6.44516C16.5031 6.34556 16.1418 6.36788 15.7608 6.51212C15.4915 6.61515 15.2353 6.76626 14.9923 6.96545C14.7426 6.62202 14.4322 6.39365 14.061 6.28032C13.6899 6.16698 13.304 6.18587 12.9033 6.33698C12.6799 6.42627 12.4729 6.54303 12.2824 6.68727L11.1592 3.47281C10.949 2.85465 10.6041 2.42708 10.1245 2.19012C9.64497 1.95316 9.1293 1.9377 8.57749 2.14376C8.02568 2.35668 7.63974 2.71556 7.41967 3.22039C7.19961 3.72523 7.19469 4.2833 7.4049 4.89459L10.2132 12.972C10.2329 13.0338 10.2198 13.0716 10.1738 13.0853C10.1409 13.099 10.1081 13.0887 10.0752 13.0544L8.92237 11.7356C8.63333 11.4197 8.32458 11.2119 7.99612 11.1123C7.66766 11.0127 7.33592 11.0247 7.0009 11.1484C6.5542 11.3201 6.21096 11.6154 5.97119 12.0344C5.73141 12.4534 5.70678 12.9273 5.89729 13.4562C5.94327 13.6073 6.01225 13.767 6.10421 13.9353C6.19618 14.1035 6.298 14.2632 6.40968 14.4144L9.71066 18.5869C10.9588 20.1667 12.3104 21.1987 13.7655 21.6829C15.2206 22.1672 16.7659 22.0968 18.4016 21.4717ZM17.9779 20.122C16.6838 20.6166 15.4324 20.7024 14.2237 20.3797C13.0149 20.0568 11.8391 19.1742 10.696 17.7318L7.39504 13.5798C7.29651 13.4493 7.22097 13.3119 7.16841 13.1677C7.10929 13.0028 7.11421 12.838 7.18319 12.6732C7.25217 12.5083 7.37862 12.3881 7.56256 12.3126C7.84503 12.2095 8.11765 12.3057 8.38041 12.601L10.6665 15.0634C10.8504 15.2695 11.0278 15.3914 11.1985 15.4292C11.3693 15.467 11.5401 15.4549 11.7109 15.3931C11.9014 15.3176 12.0328 15.1853 12.1052 14.9964C12.1774 14.8076 12.1741 14.5998 12.0953 14.3731L8.60705 4.33825C8.53479 4.13219 8.53643 3.94159 8.61198 3.76644C8.68752 3.59129 8.82383 3.46595 9.02091 3.39039C9.21141 3.32171 9.38713 3.33029 9.54808 3.41615C9.70902 3.502 9.82562 3.64796 9.89788 3.85401L12.3909 11.0144C12.45 11.1861 12.5584 11.3063 12.716 11.375C12.8737 11.4437 13.0346 11.4471 13.1988 11.3853C13.3565 11.3235 13.4731 11.2136 13.5487 11.0556C13.6242 10.8977 13.6324 10.7362 13.5733 10.5714L12.6767 7.98542C12.8211 7.83431 12.9886 7.72098 13.1791 7.64543C13.4091 7.55614 13.616 7.56129 13.7999 7.66088C13.9839 7.76047 14.1185 7.93734 14.2039 8.19147L14.9923 10.4478C15.0514 10.6195 15.1614 10.738 15.3223 10.8032C15.4833 10.8685 15.6426 10.8702 15.8003 10.8084C15.9514 10.7534 16.0663 10.6487 16.1452 10.4941C16.224 10.3396 16.2306 10.173 16.1648 9.99445L15.5243 8.16056C15.6689 8.00946 15.8397 7.89613 16.0367 7.82058C16.2666 7.73128 16.4736 7.73643 16.6575 7.83602C16.8414 7.93562 16.9761 8.11249 17.0615 8.36661L17.5837 9.87082C17.6494 10.0494 17.7611 10.1713 17.9188 10.2366C18.0765 10.3018 18.2341 10.3035 18.3917 10.2417C18.5428 10.1868 18.6578 10.082 18.7366 9.92749C18.8155 9.77295 18.8253 9.60638 18.7662 9.4278L18.3819 8.31511C18.7892 8.15713 19.18 8.24814 19.5545 8.58813C19.9289 8.92812 20.2475 9.48275 20.5103 10.252L21.1311 12.0138C21.5844 13.312 21.7568 14.4968 21.6484 15.5682C21.54 16.6397 21.1738 17.5635 20.5497 18.3397C19.9257 19.1159 19.0684 19.71 17.9779 20.122Z" fill="black" fill-opacity="0.8"/>
</svg>
