<svg width="24" height="24" viewBox="0 0 24 24" fill="none" xmlns="http://www.w3.org/2000/svg">
<path d="M1.5 13.0729C1.5 14.4576 1.80109 15.6693 2.40328 16.7079C3.00547 17.7465 3.86716 18.5548 4.98836 19.1328C6.10955 19.7109 7.44866 20 9.00569 20H11.1816C12.3327 20 13.2293 19.7469 13.8714 19.2406C14.5135 18.7344 14.8413 18.0241 14.8545 17.1096C15.2205 16.9985 15.5083 16.801 15.7179 16.5168C15.9275 16.2327 16.0324 15.8848 16.0324 15.4733C16.0324 15.1924 15.9824 14.9083 15.8826 14.6209C16.2818 14.4903 16.5979 14.2714 16.8308 13.9645C17.0637 13.6575 17.1801 13.2917 17.1801 12.8671C17.1801 12.6319 17.1435 12.4001 17.0703 12.1714H20.394C21.0261 12.1714 21.5352 11.9869 21.9211 11.6179C22.307 11.2488 22.5 10.7736 22.5 10.1923C22.5 9.61093 22.307 9.13246 21.9211 8.75688C21.5352 8.38129 21.0261 8.1935 20.394 8.1935H12.0699C12.01 8.1935 11.98 8.17064 11.98 8.12492C11.98 8.08572 12.0033 8.05959 12.0499 8.04653L13.6469 7.39008C14.0328 7.22678 14.3272 7.00633 14.5301 6.72872C14.7331 6.45111 14.8379 6.13921 14.8445 5.79302C14.8445 5.31619 14.6948 4.89814 14.3954 4.53888C14.096 4.17963 13.6735 4 13.1279 4C12.9748 4 12.8051 4.0147 12.6188 4.04409C12.4325 4.07348 12.2529 4.11757 12.0799 4.17636L7.13925 5.90079C5.26948 6.55398 3.86217 7.48152 2.9173 8.6834C1.97243 9.88527 1.5 11.3484 1.5 13.0729ZM2.87738 13.1218C2.87738 11.7567 3.23337 10.5613 3.94534 9.53581C4.65732 8.5103 5.86501 7.69708 7.56843 7.09614L12.499 5.36191C12.6521 5.30965 12.8018 5.28353 12.9482 5.28353C13.1212 5.28353 13.2709 5.34231 13.3973 5.45989C13.5238 5.57746 13.587 5.73423 13.587 5.93019C13.587 6.23066 13.4073 6.45274 13.048 6.59644L10.0138 7.93875C9.76092 8.04326 9.58792 8.169 9.49477 8.31598C9.40161 8.46294 9.35503 8.62461 9.35503 8.80097C9.35503 9.00346 9.42989 9.17002 9.5796 9.30066C9.72931 9.4313 9.91729 9.49662 10.1435 9.49662H20.4838C20.6967 9.49662 20.8714 9.56194 21.0078 9.69258C21.1442 9.82322 21.2124 9.98978 21.2124 10.1923C21.2124 10.3948 21.1442 10.5581 21.0078 10.6822C20.8714 10.8063 20.6967 10.8683 20.4838 10.8683H13.0979C12.9249 10.8683 12.7802 10.9304 12.6638 11.0545C12.5473 11.1786 12.4891 11.3288 12.4891 11.5052C12.4891 11.6685 12.5473 11.8106 12.6638 11.9314C12.7802 12.0522 12.9249 12.1127 13.0979 12.1127H15.7528C15.846 12.2956 15.8925 12.4915 15.8925 12.7005C15.8925 12.9422 15.816 13.1333 15.663 13.2737C15.5099 13.4141 15.3037 13.4844 15.0442 13.4844H12.7187C12.539 13.4844 12.3926 13.548 12.2795 13.6754C12.1664 13.8028 12.1098 13.9481 12.1098 14.1114C12.1098 14.2747 12.1664 14.4184 12.2795 14.5425C12.3926 14.6667 12.539 14.7287 12.7187 14.7287H14.6051C14.6982 14.9116 14.7448 15.1043 14.7448 15.3067C14.7448 15.555 14.6683 15.7477 14.5152 15.8848C14.3622 16.022 14.1559 16.0906 13.8964 16.0906H12.3394C12.153 16.0906 12.0033 16.1543 11.8902 16.2817C11.7771 16.409 11.7205 16.5576 11.7205 16.7274C11.7205 16.8842 11.7771 17.0247 11.8902 17.1488C12.0033 17.2729 12.153 17.3349 12.3394 17.3349H13.4871C13.4871 17.7726 13.2676 18.1106 12.8284 18.3491C12.3893 18.5874 11.7738 18.7066 10.9819 18.7066H9.16539C7.82794 18.7066 6.69011 18.4829 5.7519 18.0355C4.81368 17.5881 4.10004 16.9463 3.61098 16.1102C3.12191 15.2741 2.87738 14.278 2.87738 13.1218Z" fill="black" fill-opacity="0.8"/>
</svg>
