<svg width="24" height="24" viewBox="0 0 24 24" fill="none" xmlns="http://www.w3.org/2000/svg">
<path d="M10.9173 1.5C9.53907 1.5 8.33067 1.80109 7.29209 2.40328C6.25352 3.00546 5.44519 3.86716 4.86711 4.98835C4.28904 6.10954 4 7.44866 4 9.00569V11.1815C4 12.3327 4.25311 13.2293 4.75934 13.8714C5.26556 14.5136 5.97591 14.8413 6.89038 14.8545C7.00143 15.2205 7.19902 15.5083 7.48315 15.7179C7.76729 15.9275 8.11511 16.0323 8.52663 16.0323C8.8075 16.0323 9.09164 15.9824 9.37905 15.8826C9.50968 16.2885 9.7285 16.6062 10.0355 16.8358C10.3425 17.0653 10.7083 17.1801 11.1329 17.1801C11.368 17.1801 11.5999 17.1468 11.8285 17.0803V20.404C11.8285 21.0295 12.013 21.5352 12.3821 21.9211C12.7512 22.307 13.2264 22.5 13.8077 22.5C14.389 22.5 14.8659 22.307 15.2382 21.9211C15.6105 21.5352 15.7967 21.0295 15.7967 20.404V12.0699C15.7967 12.01 15.8228 11.98 15.875 11.98C15.9142 11.98 15.9404 12.0033 15.9535 12.0499L16.6099 13.6469C16.7732 14.0394 16.9936 14.3372 17.2712 14.5402C17.5489 14.7431 17.8608 14.8445 18.207 14.8445C18.6838 14.8445 19.1018 14.6965 19.4611 14.4004C19.8204 14.1043 20 13.6801 20 13.1278C20 12.9814 19.9853 12.8134 19.9559 12.6238C19.9265 12.4342 19.8824 12.2529 19.8236 12.0799L18.0991 7.13925C17.446 5.26948 16.5185 3.86216 15.3166 2.9173C14.1147 1.97243 12.6483 1.5 10.9173 1.5ZM10.8683 2.87738C12.24 2.87738 13.4386 3.23336 14.4642 3.94534C15.4897 4.65731 16.3029 5.86501 16.9038 7.56843L18.638 12.499C18.6903 12.6521 18.7165 12.8018 18.7165 12.9482C18.7165 13.1212 18.6577 13.2726 18.5401 13.4023C18.4225 13.532 18.2657 13.5969 18.0697 13.5969C17.7693 13.5969 17.5439 13.4139 17.3937 13.048L16.0612 10.0138C15.9502 9.76757 15.8212 9.59623 15.6742 9.49975C15.5272 9.40327 15.3688 9.35503 15.199 9.35503C14.99 9.35503 14.8201 9.42988 14.6895 9.57959C14.5589 9.72931 14.4936 9.91729 14.4936 10.1435V20.4938C14.4936 20.7067 14.4299 20.8797 14.3025 21.0128C14.1751 21.1459 14.0102 21.2124 13.8077 21.2124C13.6052 21.2124 13.4419 21.1459 13.3178 21.0128C13.1937 20.8797 13.1316 20.7067 13.1316 20.4938V13.1079C13.1316 12.9282 13.068 12.7801 12.9406 12.6637C12.8132 12.5472 12.6646 12.489 12.4948 12.489C12.3315 12.489 12.1894 12.5472 12.0686 12.6637C11.9477 12.7801 11.8873 12.9282 11.8873 13.1079V15.7628C11.7044 15.8493 11.5085 15.8925 11.2994 15.8925C11.0577 15.8925 10.8667 15.8177 10.7263 15.668C10.5858 15.5183 10.5156 15.3103 10.5156 15.0441V12.7286C10.5156 12.5423 10.4519 12.3926 10.3245 12.2795C10.1972 12.1664 10.0518 12.1098 9.88854 12.1098C9.72524 12.1098 9.58153 12.1664 9.45743 12.2795C9.33332 12.3926 9.27127 12.5423 9.27127 12.7286V14.615C9.08838 14.7015 8.89568 14.7448 8.69319 14.7448C8.44498 14.7448 8.25229 14.6683 8.11511 14.5152C7.97794 14.3622 7.90936 14.1559 7.90936 13.8964V12.3394C7.90936 12.1597 7.84567 12.0133 7.7183 11.9002C7.59092 11.7871 7.44232 11.7305 7.2725 11.7305C7.11573 11.7305 6.97529 11.7871 6.85119 11.9002C6.72708 12.0133 6.66503 12.1597 6.66503 12.3394V13.4871C6.22739 13.4871 5.88936 13.2692 5.65095 12.8334C5.41253 12.3976 5.29332 11.7804 5.29332 10.9819V9.16539C5.29332 7.82794 5.51704 6.69011 5.96448 5.7519C6.41191 4.81368 7.05367 4.10004 7.88976 3.61098C8.72585 3.12191 9.7187 2.87738 10.8683 2.87738Z" fill="black" fill-opacity="0.8"/>
</svg>
