<svg version="1.2" xmlns="http://www.w3.org/2000/svg" viewBox="0 0 1024 1024" width="1024" height="1024">
	<style>
		.s0 { fill: #ffffff } 
	</style>
	<path class="s0" d="m497.33 1020.31c-2.05-2.04-3.77-11.45-3.84-20.9-0.08-9.46-4.76-27.42-10.44-39.91-10.05-22.12-20.42-33.75-86.48-97.01-27.25-26.09-39.16-45.02-82.3-130.81-56.87-113.11-73.43-140.37-118.2-194.62-43.11-52.22-41.27-73.39 7.65-88.05 18.48-5.55 25.99-4.95 48.48 3.58 31.46 12.03 75.9 54.61 98.76 94.66 8.75 15.34 21.03 33.53 27.28 40.42 13.16 14.53 34.58 16.56 39.5 3.76 1.86-4.87 3.39-109.96 3.39-233.58 0-258.58-2.09-247.6 48.12-252.42 23.98-2.3 30.2-0.85 44.25 11.4l16.36 14.08v112.1c0 76.05 1.79 109.67 5.57 104.54 15.34-20.79 48.35-26.09 75.39-12.11 20.88 10.8 27.73 24.02 27.95 53.95 0.17 20.93 1.12 22.82 7.42 14.52 29.83-39.26 103.92-11.76 103.92 38.57v19.18l14.69-11.56c17.31-13.62 29.07-14.39 54.82-3.67 33.84 14.13 35.3 22.07 37.29 201.77l1.79 161.88-26.79 51.56c-29.64 57.07-40.32 87.89-45.89 132.51l-3.73 29.85h-140.62c-77.34 0-142.29-1.71-144.34-3.69zm-125.88-746.38c-34.7-31.34-50.59-68.09-50.59-116.99 0-162.4 212.09-217.06 292.07-75.27 15.39 27.29 17.28 35.58 17.19 75.27-0.09 37.51-2.5 49.18-15.14 73.32-13.42 25.62-49.91 63.3-61.3 63.3-10.99 0-2.58-27.44 12.93-42.17 40.82-38.78 53.12-103.26 28.72-150.58-14.91-28.93-49.71-60.44-76.49-69.29-55.35-18.26-124.46 7-155.21 56.74-32.07 51.87-25.28 112.81 18.07 162.18 11.46 13.06 17.29 24.99 16.13 33.07-1.72 12-2.99 11.54-26.38-9.58zm11.52-74.59c-51.38-118.45 117.99-204.65 181.56-92.41 15.14 26.73 16.72 67.79 3.68 95.28-15.97 33.64-20.88 29.5-17.19-14.51 4.01-47.84-2.67-68.63-29.2-90.95-31.93-26.86-92.42-16.43-112.89 19.48-4.03 7.08-8.58 35.42-10.12 63.02l-2.79 50.19z"/>
</svg>