<svg width="24" height="24" viewBox="0 0 24 24" fill="none" xmlns="http://www.w3.org/2000/svg">
<path d="M22 8.09583C22 7.27595 21.88 6.50325 21.64 5.77772C21.4 5.0522 21.0699 4.41289 20.6499 3.85981C20.2299 3.30671 19.7436 2.87238 19.1909 2.55679C18.6382 2.2412 18.0493 2.0834 17.424 2.0834H14.288C13.6627 1.74504 12.9758 1.47988 12.2274 1.28793C11.4789 1.09598 10.6815 1 9.83516 1H8.52773C7.93401 1 7.38924 1.01952 6.89343 1.05856C6.39761 1.0976 5.98232 1.15942 5.64757 1.24401C4.99069 1.41319 4.47119 1.71738 4.08906 2.1566C3.70693 2.59582 3.51587 3.1115 3.51587 3.70364C3.51587 3.94439 3.55061 4.1819 3.62009 4.41615C3.29797 4.66341 3.0469 4.96436 2.86689 5.31899C2.68688 5.67361 2.59687 6.0559 2.59687 6.46584C2.59687 6.87577 2.66951 7.24667 2.81478 7.57853C2.60003 7.80627 2.43108 8.08119 2.30791 8.40328C2.18475 8.72537 2.12316 9.06209 2.12316 9.41344C2.12316 9.64771 2.15001 9.88035 2.2037 10.1114C2.25738 10.3424 2.33476 10.5457 2.43581 10.7213C2.14527 11.1378 2 11.6453 2 12.244C2 12.732 2.11211 13.1729 2.33633 13.5665C2.56056 13.9602 2.86215 14.2741 3.24112 14.5084C3.62009 14.7427 4.04327 14.8598 4.51066 14.8598H8.10138C8.21507 14.8598 8.30508 14.8859 8.3714 14.9379C8.43772 14.9899 8.47088 15.0648 8.47088 15.1624C8.47088 15.4292 8.39035 15.7724 8.22929 16.1921C8.06823 16.6118 7.8819 17.0738 7.67031 17.5781C7.45872 18.0824 7.27081 18.6013 7.10659 19.1349C6.94238 19.6684 6.86027 20.1825 6.86027 20.677C6.86027 21.126 6.95343 21.5262 7.13975 21.8776C7.32608 22.2289 7.58346 22.5038 7.9119 22.7023C8.24034 22.9008 8.61615 23 9.03933 23C9.50041 23 9.89832 22.8666 10.2331 22.5998C10.5678 22.333 10.89 21.8971 11.1994 21.2919C11.49 20.7193 11.7963 20.158 12.1185 19.6082C12.4405 19.0584 12.7927 18.4988 13.1749 17.9295C13.557 17.3601 13.9786 16.7664 14.4397 16.1481C14.9007 15.53 15.4123 14.8663 15.9744 14.157H17.784C18.3651 14.157 18.9099 13.9992 19.4183 13.6837C19.9267 13.3681 20.3752 12.9321 20.7636 12.3758C21.1521 11.8195 21.4553 11.1769 21.6732 10.4481C21.8911 9.71934 22 8.93526 22 8.09583ZM16.4955 8.15439C16.4955 8.85716 16.4387 9.4916 16.325 10.0577C16.2113 10.6238 16.0265 11.172 15.7707 11.7023C15.5149 12.2326 15.1723 12.7939 14.7428 13.386C14.2691 14.0367 13.748 14.7345 13.1795 15.4796C12.6111 16.2246 12.0442 17.0233 11.4789 17.8757C10.9136 18.7281 10.3941 19.6424 9.92043 20.6185C9.74357 20.9893 9.58567 21.2333 9.44672 21.3505C9.30777 21.4676 9.15302 21.5262 8.98249 21.5262C8.77405 21.5262 8.60668 21.453 8.48035 21.3066C8.35403 21.1601 8.29087 20.9503 8.29087 20.677C8.29087 20.2801 8.37298 19.8425 8.5372 19.3642C8.70142 18.886 8.88932 18.398 9.10092 17.9002C9.3125 17.4024 9.49883 16.9176 9.65989 16.4459C9.82095 15.9741 9.90148 15.5463 9.90148 15.1624C9.90148 14.6093 9.70726 14.1749 9.31882 13.8594C8.93038 13.5438 8.45509 13.386 7.89295 13.386H4.51066C4.20117 13.386 3.94379 13.277 3.73851 13.059C3.53324 12.841 3.4306 12.5694 3.4306 12.244C3.4306 11.834 3.6043 11.4566 3.95169 11.1118C4.03379 11.0272 4.07959 10.9377 4.08906 10.8434C4.09854 10.749 4.06854 10.653 3.99906 10.5554C3.84116 10.3277 3.72746 10.1292 3.65798 9.96005C3.5885 9.79087 3.55377 9.60867 3.55377 9.41344C3.55377 9.18569 3.60588 8.97261 3.7101 8.77418C3.81431 8.57572 3.97695 8.3919 4.19801 8.22271C4.31171 8.13161 4.38908 8.02425 4.43013 7.90062C4.47119 7.77699 4.45382 7.64034 4.37802 7.49068C4.26433 7.26294 4.17749 7.07911 4.11749 6.93922C4.05748 6.79932 4.02747 6.64152 4.02747 6.46584C4.02747 5.96481 4.36539 5.53535 5.04122 5.17746C5.14859 5.11239 5.21649 5.03431 5.24492 4.94321C5.27334 4.85211 5.26228 4.75451 5.21176 4.6504C5.09807 4.35107 5.02543 4.15099 4.99385 4.05014C4.96227 3.94928 4.94648 3.83378 4.94648 3.70364C4.94648 3.46938 5.03174 3.26116 5.20228 3.07897C5.37281 2.89678 5.63177 2.76338 5.97916 2.6788C6.26339 2.60071 6.62183 2.5454 7.05448 2.51286C7.48714 2.48033 7.97506 2.46731 8.51825 2.47382L9.82569 2.48358C11.1521 2.49659 12.3143 2.74548 13.3122 3.23025C14.3101 3.71502 15.0902 4.38036 15.6524 5.22626C16.2145 6.07216 16.4955 7.0482 16.4955 8.15439ZM20.5694 8.09583C20.5694 8.94172 20.4384 9.71118 20.1763 10.4042C19.9142 11.0972 19.5715 11.6502 19.1483 12.0634C18.7251 12.4766 18.2704 12.6832 17.784 12.6832C17.6324 12.6832 17.484 12.6832 17.3387 12.6832C17.1934 12.6832 17.0482 12.6832 16.9029 12.6832C17.2566 12 17.5156 11.2923 17.6798 10.5603C17.844 9.82832 17.9261 9.0361 17.9261 8.18367C17.9261 7.26619 17.7698 6.41703 17.4571 5.6362C17.1445 4.85537 16.7039 4.16238 16.1355 3.55723C16.3502 3.55723 16.565 3.55723 16.7798 3.55723C16.9945 3.55723 17.2092 3.55723 17.424 3.55723C17.9798 3.55723 18.4961 3.76382 18.973 4.17702C19.4499 4.59021 19.8352 5.14167 20.1289 5.83141C20.4226 6.52115 20.5694 7.27595 20.5694 8.09583Z" fill="black" fill-opacity="0.8"/>
</svg>
