<svg width="24" height="24" viewBox="0 0 24 24" fill="none" xmlns="http://www.w3.org/2000/svg">
<path d="M14.704 6.41379C14.862 6.41379 14.9466 6.32683 14.9579 6.15292C15.02 5.62518 15.0849 5.21139 15.1526 4.91154C15.2203 4.61169 15.3275 4.38531 15.4742 4.23238C15.6209 4.07946 15.8396 3.96252 16.1301 3.88156C16.4207 3.8006 16.8199 3.71514 17.3277 3.62519C17.497 3.6072 17.5816 3.52024 17.5816 3.36431C17.5816 3.21439 17.5083 3.12743 17.3616 3.10345C16.8481 3.00149 16.4447 2.91004 16.1513 2.82908C15.8579 2.74812 15.6364 2.63268 15.4869 2.48276C15.3373 2.33283 15.2273 2.11094 15.1568 1.81709C15.0863 1.52324 15.02 1.11244 14.9579 0.584708C14.9466 0.410794 14.862 0.323837 14.704 0.323837C14.5573 0.323837 14.4783 0.407796 14.467 0.575712C14.3993 1.10944 14.3316 1.52924 14.2639 1.83508C14.1962 2.14093 14.089 2.37181 13.9423 2.52773C13.7956 2.68366 13.5755 2.7991 13.2821 2.87406C12.9887 2.94903 12.5824 3.02549 12.0633 3.10345C12.0013 3.10945 11.9491 3.13643 11.9068 3.18441C11.8644 3.23238 11.8433 3.29235 11.8433 3.36431C11.8433 3.52024 11.9166 3.6072 12.0633 3.62519C12.5824 3.73313 12.9887 3.82909 13.2821 3.91304C13.5755 3.997 13.7956 4.11394 13.9423 4.26387C14.089 4.41379 14.1962 4.63718 14.2639 4.93403C14.3316 5.23088 14.3993 5.64317 14.467 6.17091C14.4727 6.24288 14.498 6.30135 14.5432 6.34632C14.5884 6.3913 14.6419 6.41379 14.704 6.41379ZM9.04179 3.985C9.149 3.985 9.21389 3.92803 9.23646 3.81409C9.31545 3.36431 9.38881 3.04198 9.45652 2.84707C9.52422 2.65217 9.64835 2.51724 9.82891 2.44228C10.0095 2.36732 10.3142 2.28786 10.743 2.2039C10.8615 2.17391 10.9208 2.10495 10.9208 1.997C10.9208 1.88306 10.8615 1.81109 10.743 1.78111C10.4214 1.71514 10.1745 1.65517 10.0024 1.6012C9.83033 1.54722 9.70055 1.47226 9.61309 1.37631C9.52563 1.28036 9.45792 1.13943 9.40996 0.953526C9.362 0.767617 9.30417 0.509745 9.23646 0.179909C9.20824 0.0599698 9.14336 0 9.04179 0C8.93458 0 8.86969 0.0599698 8.84713 0.179909C8.77942 0.509745 8.72158 0.767617 8.67362 0.953526C8.62566 1.13943 8.55795 1.28036 8.47049 1.37631C8.38303 1.47226 8.25185 1.54722 8.07693 1.6012C7.90201 1.65517 7.65657 1.71514 7.34059 1.78111C7.2221 1.81109 7.16285 1.88306 7.16285 1.997C7.16285 2.10495 7.2221 2.17391 7.34059 2.2039C7.65657 2.26986 7.90342 2.32983 8.08116 2.38381C8.2589 2.43778 8.39291 2.51124 8.48319 2.6042C8.57347 2.69715 8.64118 2.83808 8.68631 3.02698C8.73146 3.21589 8.78506 3.47826 8.84713 3.81409C8.86969 3.92803 8.93458 3.985 9.04179 3.985ZM4.43754 24C4.55039 24 4.6181 23.931 4.64068 23.7931C4.71967 23.3553 4.7902 23.0105 4.85227 22.7586C4.91433 22.5067 5.00461 22.3163 5.12311 22.1874C5.24159 22.0585 5.42215 21.9565 5.66478 21.8816C5.90741 21.8066 6.24595 21.7271 6.68042 21.6432C6.8102 21.6072 6.87509 21.5292 6.87509 21.4093C6.87509 21.2833 6.8102 21.2084 6.68042 21.1844C6.24595 21.0944 5.91023 21.0105 5.67324 20.9325C5.43626 20.8546 5.25852 20.7511 5.14003 20.6222C5.02154 20.4932 4.93126 20.3043 4.86919 20.0555C4.80712 19.8066 4.73095 19.4633 4.64068 19.0255C4.6181 18.8876 4.55039 18.8186 4.43754 18.8186C4.3247 18.8186 4.25416 18.8876 4.22595 19.0255C4.13567 19.4633 4.0595 19.8066 3.99743 20.0555C3.93537 20.3043 3.8465 20.4932 3.73082 20.6222C3.61516 20.7511 3.44024 20.8546 3.20607 20.9325C2.97191 21.0105 2.63478 21.0944 2.19466 21.1844C2.06489 21.2084 2 21.2833 2 21.4093C2 21.5292 2.06489 21.6072 2.19466 21.6432C2.63478 21.7331 2.97332 21.8156 3.2103 21.8905C3.44729 21.9655 3.62503 22.0674 3.74352 22.1964C3.86201 22.3253 3.95229 22.5142 4.01436 22.7631C4.07643 23.012 4.14696 23.3553 4.22595 23.7931C4.25416 23.931 4.3247 24 4.43754 24ZM8.82173 21.1484C9.4819 21.8501 10.1731 22.3688 10.8954 22.7046C11.6176 23.0404 12.3441 23.2054 13.0747 23.1993C13.8055 23.1934 14.515 23.0255 15.2034 22.6957C15.8918 22.3658 16.5322 21.8861 17.1246 21.2564C18.0782 20.2488 18.6636 19.2039 18.8808 18.1215C19.098 17.039 19.0036 15.8651 18.5973 14.5997C18.4901 14.2399 18.3673 13.8756 18.2291 13.5068C18.0909 13.1379 17.9357 12.7616 17.7636 12.3778C17.5915 11.994 17.4081 11.6012 17.2135 11.1994C17.0188 10.7976 16.8143 10.3808 16.5999 9.94904C16.487 9.71513 16.3671 9.46925 16.2402 9.21139C16.1132 8.95352 15.9905 8.71664 15.872 8.50075C15.7535 8.28485 15.6463 8.12593 15.5504 8.02399C15.3924 7.85607 15.2104 7.77661 15.0045 7.7856C14.7985 7.7946 14.6109 7.88905 14.4417 8.06897C14.2498 8.27286 14.1524 8.50974 14.1497 8.77961C14.1468 9.04947 14.2188 9.40928 14.3655 9.85904L15.2796 12.6027C15.336 12.7466 15.3599 12.8651 15.3515 12.958C15.343 13.051 15.3162 13.1244 15.2711 13.1784C15.209 13.2444 15.1385 13.2759 15.0595 13.2729C14.9805 13.2699 14.8874 13.2114 14.7802 13.0975L8.50012 6.42279C8.3252 6.23688 8.1122 6.14392 7.86111 6.14392C7.61002 6.14392 7.39701 6.23688 7.2221 6.42279C7.04154 6.61469 6.95126 6.84408 6.95126 7.11094C6.95126 7.37781 7.04154 7.6042 7.2221 7.7901L11.7079 12.5577C11.595 12.6117 11.4822 12.6732 11.3693 12.7421C11.2564 12.8111 11.1436 12.8875 11.0307 12.9715L5.82559 7.43927C5.64503 7.24737 5.4292 7.15142 5.17811 7.15142C4.92703 7.15142 4.71402 7.24737 4.53911 7.43927C4.36419 7.62519 4.27673 7.85157 4.27673 8.11844C4.27673 8.38531 4.36419 8.61169 4.53911 8.7976L9.68503 14.2669C9.59476 14.3748 9.50871 14.4858 9.42689 14.5997C9.34507 14.7137 9.26749 14.8276 9.19414 14.9415L4.48832 9.94001C4.30776 9.75412 4.09194 9.66118 3.84085 9.66118C3.58976 9.66118 3.37676 9.75412 3.20185 9.94001C3.02693 10.126 2.93947 10.3538 2.93947 10.6237C2.93947 10.8936 3.02693 11.1215 3.20185 11.3073L8.31392 16.7406C8.26314 16.8965 8.21941 17.0495 8.18273 17.1994C8.14605 17.3493 8.1136 17.4962 8.08539 17.6402L4.53064 13.862C4.35573 13.6701 4.14131 13.5742 3.8874 13.5742C3.63349 13.5742 3.41908 13.6701 3.24417 13.862C3.06925 14.048 2.98179 14.2744 2.98179 14.5412C2.98179 14.8081 3.06925 15.0345 3.24417 15.2203L8.82173 21.1484ZM13.1805 8.19489L11.5132 6.42279C11.3383 6.23688 11.1239 6.14392 10.87 6.14392C10.616 6.14392 10.4016 6.23688 10.2267 6.42279C10.2154 6.43478 10.2041 6.45277 10.1929 6.47676L13.2651 9.75109C13.2144 9.46928 13.1806 9.19942 13.1636 8.94152C13.1467 8.68365 13.1523 8.43478 13.1805 8.19489ZM20.1293 21.2653C21.0828 20.2518 21.6682 19.2039 21.8854 18.1215C22.1027 17.039 22.011 15.8621 21.6104 14.5907C21.5032 14.2369 21.379 13.8756 21.238 13.5068C21.0969 13.1379 20.9417 12.7616 20.7725 12.3778C20.6032 11.994 20.4198 11.6012 20.2223 11.1994C20.0248 10.7976 19.8189 10.3808 19.6045 9.94904C19.4916 9.71513 19.3717 9.46925 19.2448 9.21139C19.1178 8.95352 18.9951 8.71664 18.8766 8.50075C18.7581 8.28485 18.6509 8.12893 18.555 8.03298C18.397 7.85907 18.215 7.77661 18.0091 7.7856C17.8031 7.7946 17.6155 7.88905 17.4463 8.06897C17.3334 8.1889 17.2516 8.32683 17.2008 8.48275C17.2967 8.66866 17.3884 8.85457 17.4758 9.04047C17.5633 9.22639 17.655 9.40931 17.7509 9.58924C17.9541 10.003 18.1515 10.4108 18.3434 10.8126C18.5353 11.2144 18.7144 11.6102 18.8808 12C19.0473 12.3898 19.201 12.7736 19.3421 13.1514C19.4832 13.5292 19.6045 13.8981 19.7061 14.2578C20.1744 15.7871 20.2646 17.1979 19.9769 18.4902C19.6891 19.7826 19.0092 20.9925 17.9372 22.12C17.576 22.5097 17.1895 22.8485 16.7776 23.1364C17.3814 23.0465 17.9667 22.8426 18.5338 22.5247C19.1009 22.2068 19.6327 21.7871 20.1293 21.2653Z" fill="black" fill-opacity="0.8"/>
</svg>
