<svg width="24" height="24" viewBox="0 0 24 24" fill="none" xmlns="http://www.w3.org/2000/svg">
<path d="M2 15.8944C2 16.7143 2.11843 17.487 2.35528 18.2125C2.59214 18.938 2.92216 19.579 3.34534 20.1353C3.76852 20.6917 4.25644 21.1277 4.8091 21.4432C5.36176 21.7588 5.95074 21.9166 6.57604 21.9166H9.712C10.331 22.2549 11.0163 22.5201 11.7679 22.7121C12.5196 22.904 13.3185 23 14.1649 23H15.4723C16.066 23 16.6108 22.9805 17.1066 22.9414C17.6024 22.9024 18.0177 22.8406 18.3525 22.756C19.0094 22.5869 19.5288 22.2826 19.911 21.8434C20.2931 21.4042 20.4841 20.8853 20.4841 20.2866C20.4841 20.0524 20.4462 19.8181 20.3704 19.5839C20.6989 19.3366 20.9516 19.0357 21.1284 18.681C21.3052 18.3264 21.3937 17.9441 21.3937 17.5342C21.3937 17.1178 21.321 16.7469 21.1758 16.4215C21.3968 16.1938 21.569 15.9188 21.6922 15.5967C21.8153 15.2746 21.8769 14.9347 21.8769 14.5768C21.8769 14.349 21.85 14.1197 21.7964 13.8886C21.7427 13.6576 21.6653 13.4543 21.5642 13.2787C21.8547 12.8622 22 12.3514 22 11.7463C22 11.2647 21.8879 10.8255 21.6637 10.4286C21.4395 10.0317 21.1379 9.71769 20.7589 9.4867C20.3799 9.2557 19.9567 9.1402 19.4893 9.1402H15.8987C15.785 9.1402 15.6934 9.11417 15.6239 9.06212C15.5544 9.01006 15.5196 8.93523 15.5196 8.83763C15.5196 8.57085 15.6018 8.2276 15.7661 7.8079C15.9303 7.3882 16.1182 6.92621 16.3297 6.42192C16.5413 5.91763 16.7293 5.3987 16.8935 4.86513C17.0577 4.33156 17.1398 3.81751 17.1398 3.32298C17.1398 2.874 17.045 2.47383 16.8555 2.12245C16.666 1.77108 16.4087 1.49616 16.0834 1.29769C15.7581 1.09923 15.3839 1 14.9607 1C14.4933 1 14.0922 1.13339 13.7574 1.40018C13.4227 1.66696 13.1038 2.10293 12.8006 2.70807C12.51 3.27418 12.2021 3.83378 11.8769 4.38687C11.5516 4.93996 11.1994 5.49956 10.8205 6.06567C10.4415 6.63177 10.0215 7.22553 9.56041 7.84695C9.09933 8.46836 8.58773 9.13369 8.02559 9.84296H6.21601C5.63494 9.84296 5.08859 9.99912 4.57698 10.3115C4.06537 10.6238 3.61693 11.0581 3.23164 11.6145C2.84636 12.1708 2.54477 12.815 2.32686 13.547C2.10895 14.279 2 15.0615 2 15.8944ZM7.50451 15.8456C7.50451 15.1428 7.56136 14.5084 7.67505 13.9423C7.78873 13.3762 7.97348 12.828 8.22929 12.2977C8.48509 11.7674 8.82774 11.2062 9.25724 10.614C9.73095 9.96333 10.2504 9.26383 10.8157 8.51553C11.381 7.76723 11.9479 6.96688 12.5163 6.11447C13.0848 5.26206 13.6059 4.35108 14.0796 3.38154C14.2565 3.01065 14.4144 2.76664 14.5534 2.64951C14.6923 2.53239 14.847 2.47383 15.0176 2.47383C15.226 2.47383 15.3933 2.54703 15.5196 2.69344C15.646 2.83984 15.7092 3.04969 15.7092 3.32298C15.7092 3.71991 15.6271 4.15587 15.4629 4.63088C15.2986 5.10589 15.1107 5.59391 14.8991 6.09495C14.6876 6.59598 14.4996 7.08238 14.3354 7.55413C14.1711 8.02588 14.089 8.45372 14.089 8.83763C14.089 9.39073 14.2849 9.82506 14.6765 10.1406C15.0681 10.4562 15.545 10.614 16.1071 10.614H19.4893C19.7989 10.614 20.0563 10.723 20.2615 10.941C20.4668 11.159 20.5694 11.4274 20.5694 11.7463C20.5694 12.1627 20.3957 12.5434 20.0483 12.8882C19.9663 12.9728 19.9205 13.0623 19.911 13.1566C19.9015 13.251 19.9315 13.3437 20.001 13.4348C20.1589 13.6691 20.2725 13.8708 20.342 14.04C20.4115 14.2091 20.4463 14.3881 20.4463 14.5768C20.4463 14.811 20.3926 15.0273 20.2852 15.2258C20.1778 15.4243 20.0167 15.6081 19.802 15.7773C19.682 15.8684 19.6031 15.9758 19.5652 16.0994C19.5273 16.223 19.5431 16.3597 19.6125 16.5094C19.7325 16.7371 19.8209 16.9209 19.8778 17.0608C19.9346 17.2007 19.9631 17.3585 19.9631 17.5342C19.9631 18.0352 19.6283 18.4646 18.9588 18.8225C18.8515 18.8811 18.7836 18.9559 18.7551 19.047C18.7267 19.1382 18.7346 19.239 18.7788 19.3496C18.8988 19.6424 18.9746 19.8409 19.0062 19.945C19.0378 20.0491 19.0535 20.163 19.0535 20.2866C19.0535 20.5274 18.9667 20.7372 18.793 20.9162C18.6193 21.0951 18.3588 21.2301 18.0114 21.3212C17.7335 21.3928 17.3782 21.4465 16.9456 21.4823C16.5129 21.5181 16.025 21.5327 15.4818 21.5262L14.1743 21.5067C12.8479 21.4936 11.6842 21.2464 10.6831 20.7649C9.68199 20.2833 8.90195 19.6196 8.34298 18.7737C7.784 17.9279 7.50451 16.9518 7.50451 15.8456ZM3.4306 15.8944C3.4306 15.055 3.56166 14.2888 3.82378 13.5958C4.0859 12.9028 4.42855 12.3498 4.85173 11.9366C5.27491 11.5234 5.72967 11.3168 6.21601 11.3168C6.36129 11.3168 6.50656 11.3168 6.65183 11.3168C6.7971 11.3168 6.94553 11.3168 7.09712 11.3168C6.7371 12.0001 6.47656 12.7077 6.3155 13.4397C6.15444 14.1717 6.07391 14.9639 6.07391 15.8163C6.07391 16.7338 6.22865 17.583 6.53814 18.3638C6.84763 19.1446 7.28976 19.8376 7.86453 20.4428C7.64978 20.4428 7.43503 20.4428 7.22028 20.4428C7.00554 20.4428 6.79079 20.4428 6.57604 20.4428C6.02022 20.4428 5.50229 20.2345 5.02227 19.8181C4.54224 19.4016 4.15696 18.8502 3.86642 18.1638C3.57588 17.4773 3.4306 16.7208 3.4306 15.8944Z" fill="black" fill-opacity="0.8"/>
</svg>
