<svg width="24" height="24" viewBox="0 0 24 24" fill="none" xmlns="http://www.w3.org/2000/svg">
<path d="M4 15.6047C4 16.6917 4.17064 17.6609 4.51192 18.5122C4.8532 19.3634 5.33166 20.0854 5.9473 20.678C6.56295 21.2706 7.29067 21.7224 8.13049 22.0334C8.97031 22.3445 9.88875 22.5 10.8858 22.5C12.4785 22.5 13.7934 22.1726 14.8306 21.5177C15.8679 20.863 16.7144 19.8808 17.3701 18.5711C17.5642 18.2044 17.7482 17.8214 17.9222 17.4219C18.0962 17.0225 18.2635 16.605 18.4241 16.1696C18.5847 15.7341 18.742 15.2806 18.8959 14.8091C19.0498 14.3377 19.207 13.8499 19.3677 13.3456C19.4546 13.0706 19.5466 12.7809 19.6436 12.4764C19.7407 12.1719 19.8243 11.8887 19.8946 11.6268C19.9649 11.3648 20 11.1553 20 10.9981C20 10.7362 19.9113 10.5234 19.734 10.3597C19.5567 10.196 19.3241 10.1141 19.0364 10.1141C18.7219 10.1141 18.4559 10.2189 18.2384 10.4284C18.0209 10.638 17.7951 10.9752 17.5609 11.4401L16.1656 14.3083C16.0987 14.4654 16.0251 14.5767 15.9448 14.6422C15.8645 14.7077 15.7842 14.7405 15.7039 14.7405C15.5968 14.7405 15.5115 14.7061 15.4479 14.6373C15.3843 14.5685 15.3526 14.449 15.3526 14.2788V3.97521C15.3526 3.68709 15.2472 3.4399 15.0364 3.23363C14.8256 3.02736 14.573 2.92423 14.2785 2.92423C13.9841 2.92423 13.7315 3.02736 13.5207 3.23363C13.3099 3.4399 13.2045 3.68709 13.2045 3.97521V11.3419C13.064 11.2895 12.9201 11.2437 12.7729 11.2044C12.6257 11.1651 12.4718 11.1324 12.3112 11.1062V2.56081C12.3112 2.26614 12.2058 2.01567 11.995 1.8094C11.7842 1.60313 11.5316 1.5 11.2371 1.5C10.936 1.5 10.6801 1.60313 10.4693 1.8094C10.2585 2.01567 10.1531 2.26614 10.1531 2.56081V10.9981C9.99917 11.0112 9.84191 11.0276 9.6813 11.0472C9.5207 11.0669 9.36345 11.0898 9.20954 11.116V3.3957C9.20954 3.10758 9.10414 2.86038 8.89335 2.65412C8.68256 2.44785 8.42994 2.34472 8.13551 2.34472C7.84107 2.34472 7.58846 2.44785 7.37766 2.65412C7.16688 2.86038 7.06149 3.10758 7.06149 3.3957V11.7839C6.89419 11.8625 6.73526 11.9444 6.5847 12.0295C6.43413 12.1146 6.29193 12.1997 6.15809 12.2849V6.45043C6.15809 6.16231 6.0527 5.91511 5.84191 5.70884C5.63112 5.50257 5.37851 5.39944 5.08407 5.39944C4.78294 5.39944 4.52698 5.50257 4.31619 5.70884C4.1054 5.91511 4 6.16231 4 6.45043V15.6047Z" fill="#007AFF"/>
</svg>
