<svg width="24" height="24" viewBox="0 0 24 24" fill="none" xmlns="http://www.w3.org/2000/svg">
<path d="M18.9162 18.9699C20.0829 17.8197 20.7599 16.5358 20.947 15.1181C21.1342 13.7005 20.8253 12.1613 20.0206 10.5007L17.9149 6.12768C17.7651 5.8263 17.5904 5.57721 17.3908 5.38039C17.0415 5.03596 16.6391 4.86836 16.1836 4.87759C15.7282 4.88681 15.332 5.05749 14.995 5.38962C14.7642 5.61719 14.6192 5.89242 14.5599 6.21532C14.5007 6.53822 14.5459 6.88111 14.6956 7.244L15.3226 8.72011C15.3413 8.76317 15.3382 8.79699 15.3133 8.82159C15.2821 8.85235 15.2446 8.84927 15.201 8.81237L9.89476 3.58137C9.50795 3.20004 9.08993 3.0063 8.64073 3.00015C8.19153 2.994 7.78288 3.17544 7.41478 3.54447C7.27752 3.67363 7.17302 3.81971 7.10128 3.98269C7.02952 4.14568 6.99053 4.31636 6.9843 4.49472C6.59748 4.20565 6.20287 4.06727 5.80046 4.07957C5.39804 4.09187 5.03462 4.25793 4.7102 4.57775C4.38578 4.89758 4.21733 5.25892 4.20485 5.66178C4.19237 6.06463 4.32339 6.45058 4.5979 6.81961C4.25476 6.81961 3.95529 6.94877 3.6995 7.20709C3.35635 7.54536 3.19102 7.92669 3.2035 8.35108C3.21598 8.77546 3.40315 9.16602 3.765 9.52275L4.50432 10.2516C4.32339 10.2454 4.14402 10.2823 3.96621 10.3623C3.7884 10.4422 3.63087 10.5499 3.49361 10.6852C3.26277 10.9128 3.11303 11.1649 3.04441 11.4417C2.97578 11.7185 2.9867 11.9968 3.07716 12.2766C3.16763 12.5565 3.33452 12.8194 3.57783 13.0654L9.26774 18.6747C10.2972 19.6895 11.3796 20.3707 12.5151 20.7182C13.6506 21.0657 14.7689 21.0918 15.8701 20.7966C16.9713 20.5014 17.9867 19.8925 18.9162 18.9699ZM17.971 18.1027C17.1912 18.8715 16.3567 19.3727 15.4677 19.6065C14.5786 19.8402 13.6724 19.8002 12.7491 19.4866C11.8257 19.1729 10.9211 18.5793 10.0351 17.706L4.5511 12.2997C4.40762 12.1582 4.33275 12.0029 4.32651 11.8338C4.32027 11.6647 4.38578 11.5124 4.52304 11.3771C4.66029 11.2418 4.81782 11.1742 4.99563 11.1742C5.17344 11.1742 5.33098 11.2449 5.46824 11.3863L8.85597 14.7168C8.97451 14.8399 9.11333 14.8968 9.27242 14.8875C9.43152 14.8783 9.5641 14.8214 9.67015 14.7168C9.7887 14.6061 9.85265 14.4709 9.86201 14.311C9.87136 14.151 9.81365 14.0126 9.68887 13.8957L4.63534 8.90463C4.49184 8.76316 4.41697 8.60786 4.41073 8.43872C4.40449 8.26959 4.47 8.12044 4.60726 7.99127C4.74452 7.85597 4.90205 7.78831 5.07986 7.78831C5.25767 7.78831 5.41832 7.85597 5.56181 7.99127L10.2785 12.6502C10.4032 12.7671 10.5452 12.8225 10.7043 12.8163C10.8634 12.8102 10.9959 12.7518 11.102 12.6411C11.2143 12.5304 11.2751 12.395 11.2845 12.2351C11.2938 12.0752 11.2392 11.9368 11.1207 11.82L5.58053 6.35832C5.43703 6.21686 5.36373 6.05849 5.36061 5.8832C5.35749 5.70791 5.42456 5.55568 5.56181 5.42652C5.69283 5.29121 5.84725 5.22663 6.02506 5.23278C6.20287 5.23893 6.36352 5.30966 6.50701 5.44497L12.0472 10.9066C12.1595 11.0235 12.2952 11.0804 12.4543 11.0773C12.6134 11.0742 12.7491 11.0173 12.8614 10.9066C12.9799 10.7897 13.0423 10.6514 13.0485 10.4915C13.0548 10.3315 13.0018 10.1962 12.8895 10.0855L8.16346 5.42652C8.01996 5.28506 7.94821 5.12822 7.94821 4.95601C7.94821 4.78379 8.01372 4.63003 8.14473 4.49472C8.28199 4.35941 8.43797 4.29483 8.61266 4.30098C8.78734 4.30713 8.94644 4.37786 9.08993 4.51317L15.6034 10.9343C15.7656 11.1004 15.9372 11.1849 16.1181 11.188C16.299 11.1911 16.4581 11.125 16.5954 10.9896C16.7139 10.8728 16.7919 10.7344 16.8293 10.5745C16.8668 10.4146 16.8387 10.2147 16.7451 9.97481L15.5753 6.94877C15.4942 6.73965 15.4849 6.55667 15.5472 6.39984C15.6096 6.243 15.7219 6.12768 15.8842 6.05387C16.0588 5.97392 16.2226 5.97238 16.3755 6.04926C16.5283 6.12614 16.6577 6.27529 16.7638 6.49671L18.935 11.0173C19.6587 12.5304 19.9098 13.8619 19.6883 15.012C19.4668 16.1622 18.8944 17.1924 17.971 18.1027Z" fill="black" fill-opacity="0.8"/>
</svg>
