<svg width="24" height="24" viewBox="0 0 24 24" fill="none" xmlns="http://www.w3.org/2000/svg">
<path d="M12.6981 22.6324C14.3723 22.6324 15.7987 22.2084 16.9773 21.3605L15.9829 20.3866C15.5007 20.6781 14.98 20.895 14.4209 21.0375C13.8617 21.1799 13.2707 21.2511 12.6479 21.2511C11.4626 21.2511 10.443 21.0077 9.58914 20.5208C8.73529 20.0339 8.07733 19.325 7.61525 18.3943C7.15318 17.4636 6.92214 16.3325 6.92214 15.0009V11.4436L5.59617 10.1319V15.1599C5.59617 16.71 5.89251 18.0432 6.48517 19.1595C7.07784 20.2757 7.90657 21.1336 8.97135 21.7331C10.0361 22.3326 11.2784 22.6324 12.6981 22.6324ZM18.4741 17.4155L19.4586 18.3893C19.5657 18.1773 19.6695 17.9554 19.7699 17.7235C19.8704 17.4917 19.9641 17.2533 20.0512 17.0081L21.8192 12.0894C21.9397 11.7582 22 11.4403 22 11.1355C21.9933 10.6453 21.8242 10.2246 21.4927 9.87353C21.1612 9.52243 20.7041 9.34688 20.1215 9.34688C19.7934 9.34688 19.4853 9.44624 19.1974 9.64498C18.9094 9.84372 18.6817 10.1418 18.5143 10.5393L17.8613 12.1192C17.8412 12.1656 17.8111 12.1888 17.7709 12.1888C17.7241 12.1888 17.7006 12.159 17.7006 12.0994V4.13008C17.7006 3.55375 17.5315 3.095 17.1933 2.75384C16.8551 2.41267 16.4048 2.24209 15.8422 2.24209C15.6347 2.24209 15.4404 2.27687 15.2596 2.34643C15.0789 2.41599 14.9181 2.51701 14.7775 2.6495C14.7105 2.13941 14.5196 1.73698 14.2049 1.44219C13.8901 1.1474 13.485 1 12.9894 1C12.5006 1 12.0954 1.14905 11.774 1.44715C11.4525 1.74526 11.255 2.13941 11.1813 2.62963C10.9201 2.37127 10.5953 2.24209 10.2069 2.24209C9.68457 2.24209 9.26434 2.4077 8.94624 2.73893C8.62814 3.07016 8.4691 3.51069 8.4691 4.06052V5.17344C8.33516 5.0277 8.17109 4.9184 7.97689 4.84553C7.78268 4.77266 7.57842 4.73623 7.36412 4.73623C7.11635 4.73623 6.89368 4.78591 6.69612 4.88528C6.49857 4.98464 6.33952 5.12044 6.21897 5.29268L7.30386 6.36585V6.2963C7.31725 6.2168 7.35073 6.15387 7.40431 6.1075C7.45788 6.06112 7.5282 6.03794 7.61525 6.03794C7.82286 6.03794 7.99363 6.10584 8.12756 6.24165C8.26149 6.37744 8.32846 6.55134 8.32846 6.76332V7.3794L9.60421 8.65131V4.23938C9.60421 4.0274 9.66615 3.85516 9.79004 3.72267C9.91393 3.59018 10.0797 3.52394 10.2873 3.52394C10.4949 3.52394 10.6656 3.59018 10.7996 3.72267C10.9335 3.85516 11.0005 4.0274 11.0005 4.23938V10.0226L12.2762 11.2845V3.01716C12.2762 2.80518 12.3432 2.62963 12.4771 2.49051C12.6111 2.3514 12.7819 2.28185 12.9894 2.28185C13.1904 2.28185 13.3561 2.3514 13.4867 2.49051C13.6172 2.62963 13.6825 2.80518 13.6825 3.01716V11.3342C13.6825 11.5065 13.7445 11.6506 13.8684 11.7665C13.9923 11.8825 14.1413 11.9404 14.3154 11.9404C14.4896 11.9404 14.6402 11.8825 14.7674 11.7665C14.8947 11.6506 14.9583 11.5065 14.9583 11.3342V4.23938C14.9583 4.0274 15.0236 3.85516 15.1542 3.72267C15.2847 3.59018 15.4538 3.52394 15.6614 3.52394C15.869 3.52394 16.0381 3.59018 16.1687 3.72267C16.2993 3.85516 16.3646 4.0274 16.3646 4.23938V14.0271C16.3646 14.2523 16.4316 14.4395 16.5656 14.5885C16.6995 14.7376 16.8702 14.8121 17.0778 14.8121C17.2586 14.8121 17.4244 14.7641 17.5751 14.668C17.7257 14.5719 17.858 14.4014 17.9718 14.1563L19.3882 11.0361C19.4887 10.8043 19.6209 10.642 19.785 10.5492C19.9491 10.4565 20.1248 10.4432 20.3123 10.5095C20.5065 10.5691 20.6338 10.69 20.6941 10.8722C20.7543 11.0543 20.741 11.2746 20.6539 11.533L18.8257 16.5908C18.7721 16.7365 18.7169 16.8789 18.6599 17.0181C18.603 17.1572 18.5411 17.2897 18.4741 17.4155ZM20.0713 22.7813C20.2186 22.9271 20.4011 23 20.6188 23C20.8364 23 21.0189 22.9271 21.1662 22.7813C21.3136 22.629 21.3872 22.4468 21.3872 22.2348C21.3872 22.0228 21.3136 21.844 21.1662 21.6983L3.31592 4.05059C3.16859 3.90485 2.9861 3.83197 2.76846 3.83197C2.55081 3.83197 2.36498 3.90485 2.21095 4.05059C2.07032 4.19633 2 4.37684 2 4.59214C2 4.80744 2.07032 4.98796 2.21095 5.13369L20.0713 22.7813Z" fill="black" fill-opacity="0.8"/>
</svg>
