<svg width="24" height="24" viewBox="0 0 24 24" fill="none" xmlns="http://www.w3.org/2000/svg">
<path d="M2 16.1286C2 17.1924 2.19099 18.1664 2.57297 19.0507C2.95495 19.9349 3.47731 20.643 4.14006 21.1749C4.80281 21.7068 5.55207 21.9728 6.38786 21.9728H8.18022C7.27261 21.2751 6.6066 20.4116 6.18217 19.3823C5.75776 18.3529 5.55534 17.2339 5.57492 16.025C5.58798 15.1269 5.69082 14.3152 5.88345 13.5899C6.07607 12.8645 6.31603 12.2238 6.60333 11.6677C6.89063 11.1116 7.18446 10.6367 7.48482 10.243H6.01568C5.25824 10.243 4.5759 10.5055 3.96866 11.0305C3.36141 11.5555 2.88149 12.2618 2.52889 13.1495C2.1763 14.0372 2 15.0302 2 16.1286ZM6.93634 16.0561C6.92328 17.037 7.09305 17.9454 7.44565 18.7813C7.79824 19.6172 8.30918 20.3477 8.97846 20.9728C9.64773 21.598 10.4574 22.0868 11.4074 22.4391C12.3575 22.7914 13.4202 22.9745 14.5955 22.9883L15.9863 22.9986C16.6457 23.0055 17.2138 22.9865 17.6905 22.9416C18.1671 22.8967 18.5426 22.8328 18.8169 22.7499C19.2152 22.6463 19.5759 22.4581 19.8991 22.1852C20.2224 21.9124 20.384 21.5203 20.384 21.0091C20.384 20.8019 20.3611 20.6223 20.3154 20.4703C20.2697 20.3183 20.2142 20.1836 20.1489 20.0662C20.064 19.9211 20.0836 19.8209 20.2076 19.7656C20.521 19.6344 20.792 19.4168 21.0205 19.1128C21.2491 18.8089 21.3633 18.4428 21.3633 18.0145C21.3633 17.531 21.2458 17.1268 21.0108 16.8021C20.8933 16.6363 20.9194 16.4982 21.0891 16.3877C21.3177 16.2495 21.5037 16.0387 21.6474 15.7555C21.7911 15.4723 21.8629 15.1546 21.8629 14.8022C21.8629 14.5605 21.827 14.3187 21.7552 14.0769C21.6833 13.8351 21.5788 13.6486 21.4418 13.5174C21.3112 13.3861 21.3242 13.2479 21.4809 13.1028C21.6442 12.9647 21.7715 12.7764 21.8629 12.5381C21.9543 12.2998 22 12.0287 22 11.7247C22 11.3793 21.9233 11.065 21.7698 10.7818C21.6164 10.4985 21.4058 10.2723 21.1381 10.1031C20.8704 9.93381 20.57 9.84919 20.237 9.84919H16.6621C16.205 9.84919 15.8393 9.73348 15.5651 9.50207C15.2909 9.27065 15.1537 8.95806 15.1537 8.5643C15.1537 8.19817 15.2386 7.77333 15.4084 7.28976C15.5782 6.8062 15.7757 6.29155 16.001 5.74582C16.2263 5.20008 16.4238 4.65608 16.5936 4.1138C16.7633 3.57152 16.8482 3.06205 16.8482 2.58539C16.8482 2.08802 16.7143 1.69944 16.4466 1.41966C16.1789 1.13989 15.8459 1 15.4476 1C15.0819 1 14.793 1.12262 14.5808 1.36785C14.3686 1.61309 14.1646 1.93604 13.9687 2.33671C13.2177 3.89101 12.3803 5.30716 11.4564 6.58514C10.5325 7.86313 9.68528 9.04095 8.91479 10.1186C8.47731 10.7265 8.11492 11.3241 7.82763 11.9112C7.54032 12.4984 7.32321 13.1236 7.1763 13.7868C7.02939 14.45 6.9494 15.2064 6.93634 16.0561Z" fill="black" fill-opacity="0.8"/>
</svg>
