<svg width="24" height="24" viewBox="0 0 24 24" fill="none" xmlns="http://www.w3.org/2000/svg">
<path d="M9.59449 18.8448C10.3346 19.5789 11.1095 20.1233 11.9192 20.4777C12.7289 20.8321 13.5433 21.0062 14.3624 20.9998C15.1816 20.9935 15.9771 20.8179 16.7488 20.4729C17.5205 20.128 18.2385 19.6233 18.9027 18.9587C19.9717 17.8891 20.628 16.7831 20.8716 15.6407C21.1151 14.4983 21.0123 13.2562 20.5632 11.9145C20.443 11.5411 20.3038 11.1613 20.1457 10.7753C19.9875 10.3892 19.8136 9.99361 19.6238 9.58855C19.434 9.18349 19.23 8.76736 19.0118 8.34014C18.7936 7.91293 18.5611 7.47148 18.3144 7.01579C18.1879 6.76896 18.0535 6.50947 17.9112 6.23732C17.7689 5.96517 17.6313 5.71675 17.4984 5.49207C17.3656 5.26739 17.2454 5.10125 17.1379 4.99365C16.9607 4.81011 16.7567 4.72309 16.5258 4.73258C16.295 4.74208 16.0846 4.84176 15.8949 5.03163C15.6798 5.24049 15.5707 5.48891 15.5675 5.77688C15.5643 6.06485 15.645 6.44934 15.8095 6.93035L16.8342 9.8164C16.8974 9.9683 16.9259 10.0933 16.9196 10.1914C16.9133 10.2895 16.8816 10.367 16.8247 10.424C16.7551 10.4936 16.6761 10.5268 16.5875 10.5237C16.499 10.5205 16.3914 10.4588 16.2649 10.3386L9.24342 3.2943C9.041 3.0981 8.79904 3 8.51755 3C8.23606 3 7.99727 3.0981 7.80117 3.2943C7.60507 3.49683 7.50703 3.73892 7.50703 4.02056C7.50703 4.30221 7.60507 4.54113 7.80117 4.73733L12.8301 9.76893C12.7099 9.82589 12.5849 9.89235 12.4553 9.9683C12.3256 10.0443 12.1975 10.1234 12.071 10.2056L6.23557 4.36708C6.03947 4.16455 5.7991 4.06328 5.51445 4.06328C5.22979 4.06328 4.98942 4.16455 4.79332 4.36708C4.59723 4.56328 4.49918 4.8022 4.49918 5.08384C4.49918 5.36548 4.59723 5.60757 4.79332 5.8101L10.5528 11.5727C10.4579 11.6866 10.3646 11.8037 10.2729 11.924C10.1812 12.0442 10.0942 12.1676 10.012 12.2942L4.73639 7.00629C4.53397 6.8101 4.29202 6.712 4.01052 6.712C3.72903 6.712 3.49024 6.8101 3.29414 7.00629C3.09805 7.20882 3 7.45091 3 7.73255C3 8.0142 3.09805 8.25312 3.29414 8.44933L9.03467 14.1834C8.97142 14.3416 8.91923 14.5015 8.87811 14.6629C8.837 14.8243 8.80062 14.9809 8.76899 15.1328L4.78384 11.1455C4.58774 10.943 4.34894 10.8417 4.06745 10.8417C3.78596 10.8417 3.54401 10.943 3.34158 11.1455C3.14549 11.3417 3.04744 11.5806 3.04744 11.8623C3.04744 12.1439 3.14549 12.386 3.34158 12.5885L9.59449 18.8448Z" fill="black" fill-opacity="0.8"/>
</svg>
