<svg width="24" height="24" viewBox="0 0 24 24" fill="none" xmlns="http://www.w3.org/2000/svg">
<path d="M22 7.87137C22 6.81443 21.809 5.84212 21.427 4.95444C21.045 4.06675 20.5227 3.35695 19.8599 2.82502C19.1972 2.2931 18.4479 2.02715 17.6121 2.02715H15.8198C16.7274 2.73177 17.3934 3.597 17.8178 4.62285C18.2422 5.6487 18.4447 6.76608 18.4251 7.97499C18.412 8.87304 18.3092 9.68647 18.1165 10.4153C17.9239 11.1441 17.684 11.7865 17.3967 12.3426C17.1094 12.8987 16.8156 13.3702 16.5152 13.757H17.9843C18.7418 13.757 19.4241 13.4963 20.0313 12.9747C20.6386 12.4532 21.1185 11.7468 21.4712 10.8556C21.8237 9.96454 22 8.96978 22 7.87137ZM17.0636 7.95427C17.0767 6.97332 16.907 6.06318 16.5543 5.22385C16.2018 4.38452 15.6908 3.65227 15.0216 3.02708C14.3523 2.4019 13.5426 1.91316 12.5925 1.56085C11.6425 1.20854 10.5798 1.02893 9.40451 1.02202L8.01371 1.00129C7.35423 0.99439 6.78616 1.01512 6.30951 1.06347C5.83284 1.11183 5.45413 1.174 5.17336 1.24999C4.78158 1.36052 4.42409 1.55222 4.10089 1.82508C3.77767 2.09795 3.61607 2.48653 3.61607 2.99082C3.61607 3.19806 3.63892 3.3794 3.68463 3.53483C3.73033 3.69026 3.78583 3.82669 3.85112 3.94413C3.93601 4.0892 3.91643 4.18592 3.79236 4.23427C3.47894 4.37243 3.20797 4.59176 2.97943 4.89226C2.7509 5.19276 2.63663 5.55717 2.63663 5.98547C2.63663 6.46903 2.75416 6.87315 2.98923 7.19784C3.10676 7.36363 3.08064 7.50179 2.91087 7.61232C2.68234 7.75739 2.49625 7.96981 2.3526 8.24959C2.20895 8.52937 2.13712 8.84541 2.13712 9.19771C2.13712 9.44642 2.17303 9.69166 2.24486 9.93345C2.31668 10.1752 2.42116 10.3583 2.55828 10.4827C2.68887 10.6139 2.67581 10.752 2.5191 10.8971C2.35586 11.0422 2.22853 11.2339 2.13712 11.4722C2.04571 11.7105 2 11.9782 2 12.2752C2 12.6207 2.07672 12.9367 2.23017 13.2234C2.38361 13.5101 2.59419 13.738 2.8619 13.9073C3.12961 14.0766 3.42997 14.1612 3.76298 14.1612H7.33791C7.79498 14.1612 8.16063 14.2769 8.43487 14.5083C8.70911 14.7397 8.84623 15.0523 8.84623 15.4461C8.84623 15.8053 8.76135 16.2284 8.59158 16.7154C8.42181 17.2025 8.22429 17.7188 7.99903 18.2645C7.77375 18.8103 7.57623 19.3543 7.40646 19.8966C7.2367 20.4388 7.15181 20.9483 7.15181 21.425C7.15181 21.9224 7.28567 22.3092 7.55338 22.5855C7.82109 22.8618 8.1541 23 8.5524 23C8.91806 23 9.20699 22.8791 9.4192 22.6373C9.63141 22.3955 9.83545 22.0709 10.0313 21.6634C10.7822 20.109 11.6197 18.6946 12.5436 17.42C13.4675 16.1455 14.3147 14.9694 15.0852 13.8918C15.5227 13.2769 15.8851 12.6759 16.1724 12.0887C16.4597 11.5016 16.6768 10.8764 16.8237 10.2133C16.9706 9.55004 17.0506 8.79705 17.0636 7.95427Z" fill="black" fill-opacity="0.8"/>
</svg>
