<svg width="24" height="24" viewBox="0 0 24 24" fill="none" xmlns="http://www.w3.org/2000/svg">
<path d="M13.0696 24C14.4389 24 15.6016 23.7267 16.5576 23.1802C17.5136 22.6337 18.2409 21.8422 18.7394 20.8057C19.2379 19.7692 19.4871 18.5222 19.4871 17.0648V15.2556C19.4871 14.7028 19.4083 14.227 19.2505 13.8281C19.0928 13.4291 18.8846 13.1229 18.6258 12.9093C18.3671 12.6958 18.0863 12.589 17.7833 12.589C17.5752 12.589 17.4711 12.6895 17.4711 12.8905V13.6915C17.4711 13.8799 17.4284 14.0212 17.3432 14.1155C17.258 14.2097 17.1587 14.2568 17.0451 14.2568C16.9252 14.2568 16.8226 14.2097 16.7374 14.1155C16.6523 14.0212 16.6097 13.8799 16.6097 13.6915V13.1638C16.6097 12.68 16.4693 12.2905 16.1884 11.9953C15.9076 11.7001 15.5558 11.5525 15.1331 11.5525C14.7608 11.5525 14.5746 11.7127 14.5746 12.033V13.126C14.5746 13.3145 14.5336 13.4559 14.4515 13.5501C14.3695 13.6444 14.2717 13.6915 14.1581 13.6915C14.0319 13.6915 13.9262 13.6444 13.841 13.5501C13.7558 13.4559 13.7132 13.3145 13.7132 13.126V12.1178C13.7132 11.5713 13.5728 11.1661 13.292 10.9022C13.0112 10.6384 12.6657 10.5065 12.2555 10.5065C11.8832 10.5065 11.6971 10.6667 11.6971 10.987V13.126C11.6971 13.3145 11.6545 13.4559 11.5693 13.5501C11.4841 13.6444 11.3847 13.6915 11.2711 13.6915C11.1512 13.6915 11.0487 13.6444 10.9635 13.5501C10.8783 13.4559 10.8357 13.3145 10.8357 13.126V5.9741C10.8357 5.6286 10.7348 5.35062 10.5328 5.14018C10.3309 4.92973 10.0817 4.82451 9.78507 4.82451C9.46324 4.82451 9.20294 4.92973 9.00416 5.14018C8.80539 5.35062 8.706 5.6286 8.706 5.9741V16.4429C8.706 16.5748 8.67287 16.6738 8.60661 16.7397C8.54036 16.8057 8.46621 16.8387 8.38417 16.8387C8.22011 16.8387 8.08444 16.7193 7.97716 16.4806L6.58574 13.2109C6.47846 12.9721 6.34595 12.7978 6.18819 12.6879C6.03044 12.5779 5.84428 12.523 5.62973 12.523C5.3079 12.523 5.05076 12.6188 4.8583 12.8104C4.66583 13.002 4.5696 13.2297 4.5696 13.4936C4.5696 13.6067 4.57906 13.7072 4.59799 13.7951C4.61692 13.883 4.63901 13.9647 4.66425 14.0401L6.19765 18.5913C6.84761 20.5136 7.77681 21.8956 8.98523 22.7374C10.1937 23.5791 11.5551 24 13.0696 24ZM4.95768 7.23676C5.37416 7.23676 5.72596 7.09228 6.01308 6.80331C6.3002 6.51434 6.44376 6.1657 6.44376 5.75738C6.44376 5.35533 6.3002 5.00983 6.01308 4.72086C5.72596 4.43189 5.37416 4.28741 4.95768 4.28741C4.55382 4.28741 4.20991 4.43189 3.92595 4.72086C3.64198 5.00983 3.5 5.35533 3.5 5.75738C3.5 6.1657 3.64198 6.51434 3.92595 6.80331C4.20991 7.09228 4.55382 7.23676 4.95768 7.23676ZM9.78507 2.94936C10.1952 2.94936 10.5455 2.80487 10.8357 2.5159C11.126 2.22694 11.2711 1.87829 11.2711 1.46997C11.2711 1.06793 11.126 0.72242 10.8357 0.433452C10.5455 0.144484 10.1952 0 9.78507 0C9.38121 0 9.03414 0.144484 8.74387 0.433452C8.45359 0.72242 8.30845 1.06793 8.30845 1.46997C8.30845 1.87829 8.45359 2.22694 8.74387 2.5159C9.03414 2.80487 9.38121 2.94936 9.78507 2.94936ZM14.6598 7.23676C15.0699 7.23676 15.4202 7.09228 15.7105 6.80331C16.0007 6.51434 16.1459 6.1657 16.1459 5.75738C16.1459 5.35533 16.0007 5.00983 15.7105 4.72086C15.4202 4.43189 15.0699 4.28741 14.6598 4.28741C14.2559 4.28741 13.9089 4.43189 13.6186 4.72086C13.3283 5.00983 13.1832 5.35533 13.1832 5.75738C13.1832 6.1657 13.3283 6.51434 13.6186 6.80331C13.9089 7.09228 14.2559 7.23676 14.6598 7.23676ZM19.0139 7.23676C19.4241 7.23676 19.7742 7.09228 20.0645 6.80331C20.3548 6.51434 20.5 6.1657 20.5 5.75738C20.5 5.35533 20.3548 5.00983 20.0645 4.72086C19.7742 4.43189 19.4241 4.28741 19.0139 4.28741C18.6101 4.28741 18.2646 4.43189 17.9774 4.72086C17.6903 5.00983 17.5468 5.35533 17.5468 5.75738C17.5468 6.1657 17.6903 6.51434 17.9774 6.80331C18.2646 7.09228 18.6101 7.23676 19.0139 7.23676ZM19.0139 2.94936C19.4241 2.94936 19.7742 2.80487 20.0645 2.5159C20.3548 2.22694 20.5 1.87829 20.5 1.46997C20.5 1.06793 20.3548 0.72242 20.0645 0.433452C19.7742 0.144484 19.4241 0 19.0139 0C18.6101 0 18.2646 0.144484 17.9774 0.433452C17.6903 0.72242 17.5468 1.06793 17.5468 1.46997C17.5468 1.87829 17.6903 2.22694 17.9774 2.5159C18.2646 2.80487 18.6101 2.94936 19.0139 2.94936Z" fill="black" fill-opacity="0.8"/>
</svg>
