<svg width="24" height="24" viewBox="0 0 24 24" fill="none" xmlns="http://www.w3.org/2000/svg">
<path d="M12.5679 24C13.9057 24 15.0763 23.7201 16.0796 23.1604C17.0829 22.6007 17.8638 21.7998 18.4223 20.7576C18.9808 19.7155 19.26 18.4708 19.26 17.0235V14.9918C19.26 13.9281 19.0155 13.0963 18.5264 12.4963C18.0374 11.8964 17.3511 11.5933 16.4677 11.5872C16.3604 11.247 16.1695 10.9795 15.895 10.7846C15.6205 10.5898 15.2845 10.4924 14.8869 10.4924C14.6156 10.4924 14.3379 10.5388 14.054 10.6316C13.9341 10.2543 13.7258 9.95902 13.4292 9.74565C13.1327 9.53227 12.7793 9.42558 12.3691 9.42558C12.142 9.42558 11.9179 9.4565 11.6971 9.51832V6.42906C11.6971 5.84151 11.5188 5.36992 11.1623 5.0143C10.8058 4.65867 10.3467 4.48086 9.78507 4.48086C9.22345 4.48086 8.76121 4.65867 8.39837 5.0143C8.03553 5.36992 7.85411 5.84151 7.85411 6.42906V14.1662C7.85411 14.2219 7.83203 14.2497 7.78785 14.2497C7.74999 14.2497 7.72159 14.228 7.70267 14.1847L7.07795 12.7097C6.92019 12.3448 6.70722 12.068 6.43903 11.8794C6.17084 11.6907 5.86952 11.5964 5.53507 11.5964C5.07442 11.5964 4.67056 11.734 4.32349 12.0093C3.97643 12.2845 3.80289 12.6757 3.80289 13.1829C3.80289 13.3251 3.81709 13.4828 3.84549 13.656C3.87389 13.8291 3.91648 13.9961 3.97327 14.1569L5.63919 18.7491C6.27022 20.4932 7.16629 21.8044 8.32738 22.6827C9.48848 23.5609 10.902 24 12.5679 24ZM12.6152 22.7197C11.2964 22.7197 10.1416 22.3873 9.15088 21.7224C8.16016 21.0576 7.37453 19.9335 6.79398 18.3502L5.11859 13.7766C5.06811 13.6343 5.04287 13.492 5.04287 13.3498C5.04287 13.189 5.09967 13.0498 5.21325 12.9324C5.32683 12.8148 5.47828 12.756 5.66759 12.756C5.95787 12.756 6.17242 12.923 6.31124 13.2571L7.60801 16.0773C7.70897 16.3123 7.83045 16.4746 7.97243 16.5643C8.11441 16.654 8.27059 16.6988 8.44097 16.6988C8.63659 16.6988 8.7975 16.6293 8.9237 16.4901C9.04992 16.351 9.11302 16.1763 9.11302 15.9659V6.34557C9.11302 6.14766 9.17612 5.98685 9.30233 5.86316C9.42853 5.73946 9.58945 5.67761 9.78507 5.67761C9.98069 5.67761 10.1384 5.73946 10.2583 5.86316C10.3782 5.98685 10.4382 6.14766 10.4382 6.34557V13.2106C10.4382 13.3715 10.4981 13.5075 10.618 13.6188C10.7379 13.7302 10.8799 13.7858 11.044 13.7858C11.208 13.7858 11.3484 13.7302 11.4652 13.6188C11.5819 13.5075 11.6403 13.3715 11.6403 13.2106V10.7429C11.817 10.6564 12.0063 10.6131 12.2082 10.6131C12.4417 10.6131 12.6263 10.6842 12.7619 10.8264C12.8976 10.9687 12.9655 11.1635 12.9655 11.4109V13.5631C12.9655 13.7364 13.027 13.8755 13.15 13.9807C13.2731 14.0858 13.4135 14.1384 13.5712 14.1384C13.729 14.1384 13.8679 14.0858 13.9877 13.9807C14.1076 13.8755 14.1676 13.7364 14.1676 13.5631V11.8098C14.3443 11.7294 14.5304 11.6892 14.726 11.6892C14.9658 11.6892 15.152 11.7588 15.2845 11.8979C15.417 12.0371 15.4833 12.2304 15.4833 12.4778V13.925C15.4833 14.092 15.5448 14.2281 15.6678 14.3332C15.7909 14.4383 15.9344 14.4909 16.0985 14.4909C16.2499 14.4909 16.3856 14.4383 16.5056 14.3332C16.6254 14.2281 16.6854 14.092 16.6854 13.925V12.8582C17.1082 12.8582 17.4347 13.0607 17.6651 13.4658C17.8954 13.8709 18.0105 14.4415 18.0105 15.1774V16.8752C18.0105 18.1183 17.7944 19.1743 17.3622 20.0432C16.9299 20.9122 16.3099 21.5756 15.5022 22.0333C14.6945 22.4909 13.7322 22.7197 12.6152 22.7197ZM4.95768 7.12485C5.37416 7.12485 5.72596 6.9826 6.01308 6.6981C6.3002 6.4136 6.44376 6.07034 6.44376 5.66834C6.44376 5.27251 6.3002 4.93235 6.01308 4.64785C5.72596 4.36335 5.37416 4.2211 4.95768 4.2211C4.55382 4.2211 4.20991 4.36335 3.92595 4.64785C3.64198 4.93235 3.5 5.27251 3.5 5.66834C3.5 6.07034 3.64198 6.4136 3.92595 6.6981C4.20991 6.9826 4.55382 7.12485 4.95768 7.12485ZM9.78507 2.90375C10.1952 2.90375 10.5455 2.7615 10.8357 2.477C11.126 2.1925 11.2711 1.84924 11.2711 1.44724C11.2711 1.05141 11.126 0.711248 10.8357 0.426749C10.5455 0.14225 10.1952 0 9.78507 0C9.38121 0 9.03414 0.14225 8.74387 0.426749C8.45359 0.711248 8.30845 1.05141 8.30845 1.44724C8.30845 1.84924 8.45359 2.1925 8.74387 2.477C9.03414 2.7615 9.38121 2.90375 9.78507 2.90375ZM14.6598 7.12485C15.0699 7.12485 15.4202 6.9826 15.7105 6.6981C16.0007 6.4136 16.1459 6.07034 16.1459 5.66834C16.1459 5.27251 16.0007 4.93235 15.7105 4.64785C15.4202 4.36335 15.0699 4.2211 14.6598 4.2211C14.2559 4.2211 13.9089 4.36335 13.6186 4.64785C13.3283 4.93235 13.1832 5.27251 13.1832 5.66834C13.1832 6.07034 13.3283 6.4136 13.6186 6.6981C13.9089 6.9826 14.2559 7.12485 14.6598 7.12485ZM19.0139 7.12485C19.4241 7.12485 19.7742 6.9826 20.0645 6.6981C20.3548 6.4136 20.5 6.07034 20.5 5.66834C20.5 5.27251 20.3548 4.93235 20.0645 4.64785C19.7742 4.36335 19.4241 4.2211 19.0139 4.2211C18.6101 4.2211 18.2646 4.36335 17.9774 4.64785C17.6903 4.93235 17.5468 5.27251 17.5468 5.66834C17.5468 6.07034 17.6903 6.4136 17.9774 6.6981C18.2646 6.9826 18.6101 7.12485 19.0139 7.12485ZM19.0139 2.90375C19.4241 2.90375 19.7742 2.7615 20.0645 2.477C20.3548 2.1925 20.5 1.84924 20.5 1.44724C20.5 1.05141 20.3548 0.711248 20.0645 0.426749C19.7742 0.14225 19.4241 0 19.0139 0C18.6101 0 18.2646 0.14225 17.9774 0.426749C17.6903 0.711248 17.5468 1.05141 17.5468 1.44724C17.5468 1.84924 17.6903 2.1925 17.9774 2.477C18.2646 2.7615 18.6101 2.90375 19.0139 2.90375Z" fill="black" fill-opacity="0.8"/>
</svg>
