<svg width="24" height="24" viewBox="0 0 24 24" fill="none" xmlns="http://www.w3.org/2000/svg">
<path d="M2.97608 8.6426C3.11537 8.67274 3.24885 8.64561 3.37653 8.56123C3.50421 8.47684 3.58256 8.3563 3.61157 8.19958C3.64059 8.0489 3.61593 7.90876 3.53758 7.77917C3.45923 7.64958 3.34171 7.56671 3.18501 7.53054L0.669141 6.96999C0.50664 6.93383 0.36155 6.96245 0.23387 7.05588C0.10619 7.14931 0.0307435 7.27739 0.00752903 7.44013C-0.0156855 7.59081 0.0147835 7.72944 0.098936 7.85602C0.183089 7.9826 0.29771 8.06095 0.4428 8.09108L2.97608 8.6426ZM3.85533 5.6319C3.95979 5.74642 4.08892 5.80369 4.24272 5.80369C4.39651 5.80369 4.52564 5.74642 4.63011 5.6319C4.73457 5.52341 4.78681 5.39081 4.78681 5.2341C4.78681 5.07738 4.73457 4.94177 4.63011 4.82724L2.80197 2.93766C2.6917 2.81711 2.56257 2.75834 2.41458 2.76135C2.26659 2.76437 2.13746 2.82313 2.02719 2.93766C1.92272 3.05217 1.86904 3.18478 1.86614 3.33547C1.86323 3.48615 1.91692 3.62177 2.02719 3.74231L3.85533 5.6319ZM7.09374 4.73684C7.24464 4.7067 7.36362 4.62382 7.45067 4.4882C7.53773 4.35259 7.56384 4.21245 7.52902 4.06779L6.98928 1.45491C6.95446 1.2982 6.87321 1.17765 6.74553 1.09327C6.61785 1.00888 6.48147 0.981759 6.33638 1.0119C6.19128 1.04203 6.07376 1.1234 5.98381 1.25601C5.89385 1.38861 5.86628 1.53327 5.9011 1.68998L6.44084 4.29382C6.47566 4.4445 6.55546 4.56505 6.68024 4.65547C6.80502 4.74588 6.94285 4.773 7.09374 4.73684ZM10.4453 20.9385C11.1243 21.6437 11.8353 22.1651 12.5782 22.5026C13.321 22.8401 14.0683 23.0059 14.8199 22.9998C15.5714 22.9939 16.3012 22.8251 17.0092 22.4936C17.7173 22.1621 18.376 21.6799 18.9854 21.047C19.9662 20.0344 20.5683 18.9841 20.7918 17.8962C21.0152 16.8083 20.918 15.6284 20.5001 14.3566C20.3898 13.9949 20.2636 13.6288 20.1214 13.2581C19.9792 12.8874 19.8211 12.5092 19.647 12.1234C19.4729 11.7377 19.2842 11.3429 19.0811 10.939C18.878 10.5352 18.6661 10.1163 18.4456 9.68232C18.3295 9.44725 18.2077 9.20013 18.08 8.94095C17.9523 8.68177 17.8275 8.44369 17.7057 8.22671C17.5838 8.00972 17.4735 7.84999 17.3749 7.74753C17.2066 7.57876 17.0165 7.49889 16.8046 7.50794C16.5928 7.51698 16.3999 7.61191 16.2257 7.79273C16.0284 7.99766 15.9283 8.23575 15.9254 8.50698C15.9225 8.77822 15.9965 9.13986 16.1474 9.59192L17.0963 12.3494C17.1486 12.4941 17.1718 12.6131 17.1659 12.7066C17.1601 12.8 17.1311 12.8739 17.0788 12.928C17.015 12.9944 16.9425 13.0261 16.8612 13.023C16.78 13.02 16.6842 12.9613 16.5739 12.8468L10.1145 6.13821C9.93461 5.95136 9.71552 5.85793 9.45724 5.85793C9.19902 5.85793 8.97995 5.95136 8.80001 6.13821C8.6201 6.33109 8.53014 6.56163 8.53014 6.82985C8.53014 7.09807 8.6201 7.32561 8.80001 7.51245L13.4139 12.3042C13.2978 12.3585 13.1818 12.4203 13.0657 12.4896C12.9496 12.5589 12.8336 12.6357 12.7175 12.7201L7.36362 7.15985C7.1837 6.96697 6.96316 6.87053 6.702 6.87053C6.44084 6.87053 6.2203 6.96697 6.04039 7.15985C5.86048 7.3467 5.77052 7.57424 5.77052 7.84246C5.77052 8.11068 5.86048 8.33821 6.04039 8.52506L11.3333 14.0221C11.2404 14.1306 11.152 14.2421 11.0678 14.3566C10.9836 14.4711 10.9038 14.5856 10.8284 14.7001L5.98816 9.67329C5.80244 9.48643 5.58045 9.39301 5.32219 9.39301C5.06393 9.39301 4.84485 9.48643 4.66494 9.67329C4.48502 9.86013 4.39506 10.0892 4.39506 10.3604C4.39506 10.6317 4.48502 10.8607 4.66494 11.0475L9.92302 16.5083C9.87078 16.665 9.82579 16.8188 9.78805 16.9695C9.75032 17.1201 9.71695 17.2678 9.68795 17.4125L6.03169 13.6152C5.85177 13.4223 5.63268 13.3259 5.37442 13.3259C5.11616 13.3259 4.89417 13.4223 4.70846 13.6152C4.52855 13.8021 4.43859 14.0296 4.43859 14.2978C4.43859 14.566 4.52855 14.7936 4.70846 14.9804L10.4453 20.9385ZM14.9286 7.91931L13.2137 6.13821C13.0338 5.95136 12.8132 5.85793 12.552 5.85793C12.2909 5.85793 12.0704 5.95136 11.8904 6.13821C11.8788 6.15026 11.8672 6.16834 11.8557 6.19245L15.0157 9.48342C14.9635 9.20014 14.9286 8.9289 14.9112 8.66972C14.8938 8.41054 14.8996 8.1604 14.9286 7.91931ZM22.0758 21.056C23.0566 20.0374 23.6587 18.9841 23.8822 17.8962C24.1056 16.8083 24.0113 15.6254 23.5992 14.3475C23.4889 13.9919 23.3613 13.6288 23.2162 13.2581C23.0711 12.8874 22.9115 12.5092 22.7374 12.1234C22.5633 11.7377 22.3761 11.3429 22.1759 10.939C21.9757 10.5352 21.7624 10.1163 21.536 9.68232C21.42 9.44725 21.2981 9.20013 21.1704 8.94095C21.0427 8.68177 20.9165 8.44369 20.7918 8.22671C20.667 8.00972 20.5552 7.85301 20.4566 7.75657C20.2941 7.58177 20.1084 7.49889 19.8994 7.50794C19.6905 7.51698 19.4961 7.61191 19.3162 7.79273C19.2001 7.91328 19.116 8.05191 19.0637 8.20863C19.1624 8.39547 19.2567 8.58232 19.3467 8.76918C19.4366 8.95602 19.5309 9.13986 19.6296 9.32068C19.8385 9.73657 20.0416 10.1464 20.239 10.5503C20.4363 10.9541 20.6205 11.3519 20.7918 11.7437C20.963 12.1355 21.1211 12.5212 21.2662 12.9009C21.4112 13.2807 21.536 13.6514 21.6405 14.013C22.1222 15.55 22.2151 16.968 21.9191 18.2668C21.6231 19.5657 20.9238 20.7818 19.8211 21.915C19.4496 22.3067 19.0521 22.6473 18.6284 22.9366C19.2494 22.8462 19.8515 22.6412 20.4348 22.3218C21.0181 22.0023 21.5651 21.5804 22.0758 21.056Z" fill="black" fill-opacity="0.8"/>
</svg>
