<svg width="24" height="24" viewBox="0 0 24 24" fill="none" xmlns="http://www.w3.org/2000/svg">
<path d="M12.7394 22.6556C13.6505 22.6556 14.4715 22.5476 15.2024 22.3315C15.9334 22.1154 16.5844 21.7913 17.1555 21.3591L5.74298 10.0249V15.5451C5.74298 16.666 5.91636 17.6655 6.26313 18.5433C6.60989 19.4212 7.09604 20.1656 7.72157 20.7768C8.3471 21.3879 9.08651 21.8538 9.93982 22.1745C10.7931 22.4953 11.7263 22.6556 12.7394 22.6556ZM19.644 18.1179C19.7052 17.9963 19.7647 17.868 19.8225 17.733C19.8803 17.5979 19.9296 17.4595 19.9704 17.3177C20.2152 16.6965 20.4498 16.0432 20.6742 15.3578C20.8985 14.6724 21.1263 13.9583 21.3575 13.2154C21.4459 12.9319 21.5393 12.6331 21.6379 12.3191C21.7365 12.0051 21.8215 11.7131 21.893 11.443C21.9643 11.1728 22 10.9567 22 10.7947C22 10.5246 21.9099 10.3051 21.7297 10.1363C21.5495 9.96748 21.3133 9.88307 21.0209 9.88307C20.7013 9.88307 20.4311 9.99111 20.2101 10.2072C19.9891 10.4233 19.7596 10.771 19.5216 11.2505L18.104 14.2082C18.036 14.3702 17.9613 14.485 17.8797 14.5525C17.7981 14.6201 17.7165 14.6538 17.6349 14.6538C17.5261 14.6538 17.4394 14.6184 17.3748 14.5474C17.3102 14.4765 17.2779 14.3533 17.2779 14.1778V3.55249C17.2779 3.25538 17.1708 3.00046 16.9567 2.78775C16.7425 2.57505 16.4858 2.4687 16.1866 2.4687C15.8875 2.4687 15.6308 2.57505 15.4166 2.78775C15.2025 3.00046 15.0954 3.25538 15.0954 3.55249V11.1492C14.9526 11.0952 14.8064 11.0479 14.6568 11.0074C14.5072 10.9669 14.3508 10.9331 14.1876 10.9061V2.09393C14.1876 1.79006 14.0805 1.53177 13.8664 1.31906C13.6522 1.10635 13.3955 1 13.0964 1C12.7904 1 12.5303 1.10635 12.3162 1.31906C12.102 1.53177 11.9949 1.79006 11.9949 2.09393V10.1768C11.9201 10.1836 11.8623 10.1886 11.8215 10.192C11.7807 10.1954 11.7331 10.2038 11.6787 10.2173L19.644 18.1179ZM8.85364 7.40149L11.0362 9.5792V2.95489C11.0362 2.65777 10.9291 2.40286 10.7149 2.19015C10.5008 1.97744 10.2441 1.87109 9.94492 1.87109C9.64575 1.87109 9.38908 1.97744 9.17491 2.19015C8.96073 2.40286 8.85364 2.65777 8.85364 2.95489V7.40149ZM6.55889 5.14273L7.93574 6.50001V6.10499C7.93574 5.80787 7.82865 5.55296 7.61448 5.34025C7.4003 5.12754 7.14363 5.02118 6.84446 5.02118C6.78327 5.02118 6.72888 5.03131 6.68128 5.05157C6.63369 5.07183 6.59289 5.10222 6.55889 5.14273ZM20.3478 22.7772C20.4974 22.9257 20.6826 23 20.9036 23C21.1246 23 21.3099 22.9257 21.4594 22.7772C21.6091 22.6219 21.6839 22.4362 21.6839 22.2201C21.6839 22.004 21.6091 21.8217 21.4594 21.6731L3.33606 3.68417C3.18647 3.53561 3.00119 3.46133 2.78021 3.46133C2.55924 3.46133 2.37056 3.53561 2.21418 3.68417C2.07139 3.83272 2 4.01673 2 4.2362C2 4.45565 2.07139 4.63966 2.21418 4.78822L20.3478 22.7772Z" fill="black" fill-opacity="0.8"/>
</svg>
