<svg width="24" height="24" viewBox="0 0 24 24" fill="none" xmlns="http://www.w3.org/2000/svg">
<path d="M10.9271 22.5C12.6515 22.5 14.1147 22.0434 15.3166 21.1301C16.5185 20.217 17.446 18.8569 18.0991 17.0498L19.8236 12.2749C19.9412 11.947 20 11.6351 20 11.3392C20 10.8312 19.8269 10.4148 19.4807 10.09C19.1345 9.76526 18.7132 9.60288 18.2167 9.60288C17.8771 9.60288 17.5635 9.70095 17.2761 9.8971C16.9887 10.0932 16.7634 10.381 16.6001 10.7604L15.9632 12.3038C15.9436 12.3489 15.9142 12.3714 15.875 12.3714C15.8293 12.3714 15.8065 12.3425 15.8065 12.2846V4.54823C15.8065 3.98231 15.6415 3.53376 15.3117 3.20257C14.9818 2.87138 14.5425 2.70578 13.9939 2.70578C13.7914 2.70578 13.6019 2.73955 13.4256 2.80707C13.2492 2.87459 13.0924 2.97266 12.9553 3.10128C12.89 2.60611 12.7038 2.21543 12.3968 1.92926C12.0898 1.64309 11.6946 1.5 11.2113 1.5C10.7344 1.5 10.3392 1.64469 10.0257 1.93408C9.71217 2.22347 9.51948 2.60611 9.44763 3.08199C9.19289 2.83118 8.87609 2.70578 8.49723 2.70578C7.98774 2.70578 7.57786 2.86816 7.2676 3.19293C6.95733 3.51768 6.8022 3.94694 6.8022 4.4807V5.55144C6.67156 5.41639 6.51153 5.31349 6.3221 5.24276C6.13267 5.17202 5.93345 5.13665 5.72443 5.13665C5.21494 5.13665 4.80016 5.30385 4.4801 5.63825C4.16003 5.97266 4 6.41318 4 6.95979V15.2459C4 16.7508 4.28904 18.045 4.86711 19.1286C5.44519 20.2122 6.25352 21.045 7.29209 21.627C8.33067 22.209 9.54234 22.5 10.9271 22.5ZM10.8781 21.1688C9.72197 21.1688 8.72748 20.9324 7.89467 20.4597C7.06184 19.9871 6.42008 19.2974 5.96938 18.3906C5.51867 17.4839 5.29332 16.3843 5.29332 15.0917V7.09484C5.29332 6.88906 5.35537 6.72185 5.47948 6.59324C5.60359 6.46462 5.76689 6.40032 5.96938 6.40032C6.17186 6.40032 6.33843 6.46462 6.46907 6.59324C6.59971 6.72185 6.66503 6.88906 6.66503 7.09484V12.0241C6.66503 12.1978 6.72708 12.3408 6.85119 12.4534C6.97529 12.5659 7.11573 12.6222 7.2725 12.6222C7.44232 12.6222 7.59092 12.5659 7.7183 12.4534C7.84567 12.3408 7.90936 12.1978 7.90936 12.0241V4.65434C7.90936 4.44855 7.96978 4.27974 8.09062 4.1479C8.21146 4.01607 8.37313 3.95016 8.57562 3.95016C8.77811 3.95016 8.94467 4.01607 9.07531 4.1479C9.20595 4.27974 9.27127 4.44855 9.27127 4.65434V11.5321C9.27127 11.7057 9.33332 11.8488 9.45743 11.9614C9.58153 12.0739 9.72524 12.1302 9.88854 12.1302C10.0518 12.1302 10.1972 12.0739 10.3245 11.9614C10.4519 11.8488 10.5156 11.7057 10.5156 11.5321V3.45819C10.5156 3.25241 10.5809 3.08199 10.7116 2.94694C10.8422 2.8119 11.0088 2.74438 11.2113 2.74438C11.4072 2.74438 11.5689 2.8119 11.6962 2.94694C11.8236 3.08199 11.8873 3.25241 11.8873 3.45819V11.5321C11.8873 11.6994 11.9477 11.8408 12.0686 11.9565C12.1894 12.0723 12.3347 12.1302 12.5046 12.1302C12.6744 12.1302 12.8214 12.0723 12.9455 11.9565C13.0696 11.8408 13.1316 11.6994 13.1316 11.5321V4.65434C13.1316 4.44855 13.1953 4.27974 13.3227 4.1479C13.4501 4.01607 13.615 3.95016 13.8175 3.95016C14.02 3.95016 14.1849 4.01607 14.3123 4.1479C14.4397 4.27974 14.5034 4.44855 14.5034 4.65434V14.1462C14.5034 14.3842 14.5687 14.5707 14.6993 14.7057C14.83 14.8408 14.9965 14.9083 15.199 14.9083C15.3754 14.9083 15.537 14.8633 15.684 14.7733C15.8309 14.6833 15.9599 14.5161 16.071 14.2717L17.4819 11.1752C17.5733 10.963 17.7023 10.8215 17.8689 10.7508C18.0355 10.68 18.2037 10.6768 18.3735 10.7411C18.563 10.8119 18.6854 10.9309 18.741 11.0981C18.7965 11.2653 18.7818 11.4678 18.6968 11.7057L16.9038 16.6351C16.3029 18.2814 15.4897 19.4486 14.4642 20.1366C13.4386 20.8247 12.2433 21.1688 10.8781 21.1688Z" fill="#007AFF"/>
</svg>
