<svg width="24" height="24" viewBox="0 0 24 24" fill="none" xmlns="http://www.w3.org/2000/svg">
<path d="M15.0369 6.41379C15.199 6.41379 15.2859 6.32683 15.2975 6.15292C15.3612 5.62518 15.4278 5.21139 15.4973 4.91154C15.5667 4.61169 15.6768 4.38531 15.8273 4.23238C15.9779 4.07946 16.2022 3.96252 16.5004 3.88156C16.7986 3.8006 17.2054 3.71514 17.7207 3.62519C17.9002 3.6072 17.99 3.52024 17.99 3.36431C17.99 3.21439 17.9118 3.12743 17.7554 3.10345C17.2343 3.00149 16.8232 2.91004 16.5221 2.82908C16.221 2.74812 15.9923 2.63268 15.8359 2.48276C15.6796 2.33283 15.5667 2.11094 15.4973 1.81709C15.4278 1.52324 15.3612 1.11244 15.2975 0.584708C15.2859 0.410794 15.199 0.323837 15.0369 0.323837C14.8864 0.323837 14.8053 0.407796 14.7937 0.575712C14.7243 1.10944 14.6548 1.52924 14.5853 1.83508C14.5158 2.14093 14.4058 2.37181 14.2552 2.52773C14.1047 2.68366 13.8789 2.7991 13.5778 2.87406C13.2767 2.94903 12.8598 3.02549 12.327 3.10345C12.2575 3.10945 12.2011 3.13643 12.1577 3.18441C12.1143 3.23238 12.0926 3.29235 12.0926 3.36431C12.0926 3.52024 12.1707 3.6072 12.327 3.62519C12.8598 3.73313 13.2767 3.82909 13.5778 3.91304C13.8789 3.997 14.1032 4.11394 14.2509 4.26387C14.3985 4.41379 14.5085 4.63718 14.5809 4.93403C14.6533 5.23088 14.7243 5.64317 14.7937 6.17091C14.7995 6.24288 14.8256 6.30135 14.8719 6.34632C14.9182 6.3913 14.9732 6.41379 15.0369 6.41379ZM9.22632 3.985C9.33055 3.985 9.39713 3.92803 9.42609 3.81409C9.50715 3.36431 9.58098 3.04198 9.64756 2.84707C9.71416 2.65217 9.84154 2.51724 10.0297 2.44228C10.2179 2.36732 10.532 2.28786 10.9721 2.2039C11.0937 2.17391 11.1545 2.10495 11.1545 1.997C11.1545 1.88306 11.0937 1.81109 10.9721 1.78111C10.6421 1.71514 10.3873 1.65517 10.2078 1.6012C10.0283 1.54722 9.8951 1.47226 9.80825 1.37631C9.72139 1.28036 9.65335 1.13943 9.60414 0.953526C9.55492 0.767617 9.49557 0.509745 9.42609 0.179909C9.39713 0.0599698 9.33055 0 9.22632 0C9.1163 0 9.04971 0.0599698 9.02655 0.179909C8.95707 0.509745 8.89772 0.767617 8.84851 0.953526C8.79929 1.13943 8.7298 1.28036 8.64005 1.37631C8.5503 1.47226 8.41567 1.54722 8.23618 1.6012C8.05667 1.65517 7.8019 1.71514 7.47185 1.78111C7.35026 1.81109 7.28946 1.88306 7.28946 1.997C7.28946 2.10495 7.35026 2.17391 7.47185 2.2039C7.8019 2.26986 8.05812 2.32983 8.24052 2.38381C8.42291 2.43778 8.55899 2.51124 8.64874 2.6042C8.73849 2.69715 8.80797 2.83808 8.85719 3.02698C8.90641 3.21589 8.96286 3.47826 9.02655 3.81409C9.04971 3.92803 9.1163 3.985 9.22632 3.985ZM4.49273 24C4.61433 24 4.68671 23.931 4.70987 23.7931C4.79093 23.3553 4.86331 23.0105 4.92701 22.7586C4.9907 22.5067 5.08335 22.3163 5.20495 22.1874C5.32654 22.0585 5.51038 21.9565 5.75647 21.8816C6.00256 21.8066 6.34853 21.7271 6.79438 21.6432C6.92756 21.6072 6.99415 21.5292 6.99415 21.4093C6.99415 21.2833 6.92756 21.2084 6.79438 21.1844C6.35432 21.0944 6.01269 21.0105 5.7695 20.9325C5.5263 20.8546 5.34391 20.7511 5.22232 20.6222C5.10072 20.4932 5.00807 20.3043 4.94438 20.0555C4.88068 19.8066 4.80251 19.4633 4.70987 19.0255C4.68671 18.8876 4.61433 18.8186 4.49273 18.8186C4.38272 18.8186 4.31034 18.8876 4.27559 19.0255C4.18874 19.4633 4.11347 19.8066 4.04978 20.0555C3.98608 20.3043 3.89489 20.4932 3.77618 20.6222C3.65748 20.7511 3.47654 20.8546 3.23334 20.9325C2.99014 21.0105 2.64562 21.0944 2.19977 21.1844C2.06659 21.2084 2 21.2833 2 21.4093C2 21.5292 2.06659 21.6072 2.19977 21.6432C2.64562 21.7331 2.99159 21.8156 3.23768 21.8905C3.48377 21.9655 3.66761 22.0674 3.78921 22.1964C3.91081 22.3253 4.00201 22.5142 4.06281 22.7631C4.1236 23.012 4.19453 23.3553 4.27559 23.7931C4.31034 23.931 4.38272 24 4.49273 24ZM17.851 21.4273C18.9338 20.3118 19.5606 19.0615 19.7314 17.6762C19.9022 16.2909 19.617 14.7916 18.8759 13.1784L16.9216 8.90554C16.7827 8.61169 16.6206 8.36881 16.4353 8.1769C16.111 7.84108 15.7375 7.67766 15.3148 7.68666C14.8921 7.69565 14.5245 7.86506 14.2118 8.19489C13.9975 8.41079 13.8629 8.67616 13.8079 8.991C13.7529 9.30582 13.7949 9.64316 13.9339 10.003L14.5158 11.4333C14.5332 11.4753 14.5303 11.5082 14.5071 11.5322C14.4723 11.5622 14.4376 11.5592 14.4029 11.5233L9.4782 6.42279C9.1192 6.05097 8.73125 5.86356 8.31435 5.86056C7.89744 5.85757 7.51817 6.03298 7.17655 6.3868C7.04916 6.51874 6.95072 6.66417 6.88124 6.82309C6.81175 6.98201 6.77701 7.14542 6.77701 7.31334C6.41801 7.03148 6.05177 6.89655 5.6783 6.90854C5.30483 6.92054 4.96464 7.08545 4.65776 7.4033C4.36245 7.70914 4.20756 8.05847 4.19308 8.45127C4.17861 8.84407 4.30166 9.22039 4.56222 9.58021C4.24375 9.58623 3.96581 9.71215 3.72841 9.95797C3.40994 10.2879 3.2565 10.6597 3.26808 11.0735C3.27966 11.4872 3.45337 11.8711 3.78921 12.2249L4.47536 12.9265C4.30744 12.9265 4.14097 12.964 3.97595 13.039C3.81092 13.1139 3.66182 13.2204 3.52864 13.3584C3.21018 13.6882 3.05818 14.0675 3.07265 14.4962C3.08713 14.925 3.26808 15.3163 3.6155 15.6701L8.89628 21.1394C9.85167 22.1289 10.8563 22.7946 11.9102 23.1364C12.964 23.4782 14.0019 23.5037 15.0239 23.2129C16.0459 22.9221 16.9883 22.3268 17.851 21.4273ZM16.9737 20.5817C16.2499 21.3314 15.4755 21.8201 14.6504 22.0479C13.8253 22.2758 12.9842 22.2383 12.1273 21.9355C11.2703 21.6327 10.4307 21.0524 9.60848 20.1949L4.51011 14.9236C4.38272 14.7856 4.31613 14.6342 4.31034 14.4693C4.30455 14.3044 4.36534 14.1559 4.49273 14.024C4.62012 13.898 4.76633 13.835 4.93135 13.835C5.09638 13.835 5.24258 13.901 5.36996 14.033L8.50542 17.2893C8.62123 17.4033 8.75296 17.4558 8.90062 17.4467C9.04827 17.4378 9.17131 17.3823 9.26975 17.2804C9.37397 17.1724 9.43188 17.0405 9.44346 16.8846C9.45504 16.7286 9.40293 16.5937 9.28712 16.4797L4.59696 11.6132C4.46378 11.4813 4.3943 11.3328 4.38851 11.1679C4.38272 11.003 4.44351 10.8546 4.5709 10.7226C4.69829 10.5907 4.8445 10.5247 5.00952 10.5247C5.17454 10.5247 5.32365 10.5937 5.45682 10.7316L9.8343 15.2654C9.94432 15.3853 10.0732 15.4408 10.2208 15.4317C10.3685 15.4228 10.4944 15.3643 10.5986 15.2564C10.7029 15.1484 10.7593 15.018 10.768 14.8651C10.7767 14.7122 10.726 14.5757 10.616 14.4558L5.47419 9.13043C5.34101 8.9985 5.27298 8.84708 5.27009 8.67616C5.26719 8.50524 5.32944 8.35382 5.45682 8.22188C5.57842 8.08995 5.72173 8.02698 5.88676 8.03298C6.05178 8.03898 6.20088 8.11094 6.33406 8.24887L11.4759 13.5742C11.5801 13.6821 11.706 13.7346 11.8537 13.7316C12.0013 13.7286 12.1273 13.6731 12.2315 13.5652C12.3415 13.4513 12.3994 13.3163 12.4052 13.1604C12.411 13.0045 12.3589 12.8725 12.2488 12.7646L7.87138 8.22188C7.73821 8.08995 7.67017 7.94003 7.66728 7.77211C7.66438 7.60419 7.72663 7.45427 7.85401 7.32234C7.9814 7.1904 8.12616 7.12594 8.28829 7.12893C8.45042 7.13193 8.59807 7.20239 8.73125 7.34033L14.7763 13.6012C14.9269 13.7571 15.0861 13.8366 15.254 13.8396C15.4219 13.8426 15.5696 13.7781 15.697 13.6462C15.807 13.5322 15.8794 13.3973 15.9141 13.2414C15.9489 13.0855 15.9228 12.8935 15.8359 12.6657L14.7503 9.70613C14.675 9.50821 14.6663 9.3313 14.7242 9.17541C14.7821 9.01949 14.8864 8.90554 15.0369 8.83358C15.199 8.75562 15.3496 8.75412 15.4885 8.82908C15.6275 8.90404 15.7462 9.04947 15.8447 9.26537L17.8597 13.6821C18.5371 15.1574 18.7731 16.4543 18.5675 17.5727C18.362 18.6911 17.8307 19.6941 16.9737 20.5817ZM9.40003 5.57721C9.27264 5.70315 9.17421 5.84708 9.10472 6.00899C9.03524 6.17091 8.9976 6.33583 8.99181 6.50375L10.0862 7.41229C9.9588 7.28036 9.89365 7.12893 9.89076 6.95802C9.88787 6.7871 9.95011 6.63568 10.0775 6.50375C10.2049 6.37181 10.3496 6.30884 10.5118 6.31484C10.6739 6.32083 10.8187 6.3928 10.9461 6.53073L13.8991 9.58924L14.6026 8.61769L11.693 5.61319C11.334 5.24138 10.9475 5.05397 10.5335 5.05097C10.1195 5.04798 9.74166 5.22339 9.40003 5.57721ZM20.0658 20.6267C21.1486 19.5052 21.7768 18.2533 21.9505 16.871C22.1242 15.4888 21.8405 13.988 21.0994 12.3688L19.1365 8.08696C18.9569 7.69115 18.7224 7.3913 18.433 7.1874C18.1434 6.9835 17.8221 6.88155 17.4689 6.88155C17.3299 6.88155 17.1721 6.90854 16.9955 6.96251C16.8189 7.01648 16.6509 7.10494 16.4917 7.22788C16.3325 7.35082 16.2008 7.51424 16.0965 7.71814C15.9923 7.92204 15.9402 8.17091 15.9402 8.46476C15.9402 8.57271 15.946 8.67465 15.9576 8.77061L16.9825 9.06746C16.9245 8.93553 16.8956 8.80659 16.8956 8.68066C16.8956 8.53673 16.9506 8.40479 17.0606 8.28485C17.1706 8.16491 17.3183 8.10495 17.5035 8.10495C17.77 8.10495 17.9726 8.25787 18.1115 8.56372L20.0831 12.8725C20.7548 14.3418 20.9893 15.6372 20.7867 16.7586C20.584 17.88 20.0513 18.8815 19.1886 19.7631C18.4879 20.4887 17.7439 20.9685 16.9564 21.2024L15.6883 22.5877C16.47 22.6117 17.2329 22.4587 17.977 22.1289C18.721 21.7991 19.4173 21.2983 20.0658 20.6267Z" fill="black" fill-opacity="0.8"/>
</svg>
