<svg width="24" height="24" viewBox="0 0 24 24" fill="none" xmlns="http://www.w3.org/2000/svg">
<path d="M3.03378 8.56863C3.18211 8.59847 3.32155 8.57161 3.45208 8.48804C3.58262 8.40448 3.66272 8.28509 3.69239 8.1299C3.72206 7.98067 3.69535 7.84189 3.61229 7.71355C3.52922 7.58522 3.41055 7.50315 3.25628 7.46734L0.684114 6.91221C0.517977 6.87639 0.368157 6.90474 0.234653 6.99727C0.10115 7.08979 0.0254979 7.21663 0.00769751 7.3778C-0.0160365 7.52702 0.0151143 7.66431 0.10115 7.78966C0.187186 7.91501 0.304372 7.99261 0.452709 8.02245L3.03378 8.56863ZM3.9327 5.58707C4.04543 5.70048 4.18042 5.75719 4.33766 5.75719C4.49489 5.75719 4.62691 5.70048 4.73372 5.58707C4.84052 5.47963 4.89392 5.34831 4.89392 5.19312C4.89392 5.03792 4.84052 4.90361 4.73372 4.7902L2.86467 2.9189C2.75193 2.79952 2.61991 2.74132 2.46861 2.74431C2.31731 2.74729 2.18529 2.80549 2.07255 2.9189C1.95981 3.03231 1.90196 3.16363 1.89899 3.31286C1.89603 3.46209 1.95388 3.59639 2.07255 3.71577L3.9327 5.58707ZM7.25248 4.70067C7.40675 4.67082 7.52839 4.58875 7.61739 4.45444C7.70639 4.32014 7.73309 4.18136 7.6975 4.0381L7.14568 1.45051C7.11008 1.29531 7.02701 1.17593 6.89647 1.09236C6.76594 1.0088 6.6265 0.981936 6.47817 1.01178C6.32389 1.04163 6.20225 1.12221 6.11325 1.25353C6.02425 1.38485 5.99755 1.52811 6.03315 1.6833L6.58496 4.26194C6.62057 4.41116 6.70215 4.53055 6.82972 4.62009C6.95729 4.70962 7.09821 4.73648 7.25248 4.70067ZM19.7484 21.0231C20.858 19.9128 21.5003 18.6683 21.6753 17.2895C21.8503 15.9106 21.5581 14.4183 20.7986 12.8126L18.7961 8.55967C18.6537 8.26719 18.4875 8.02544 18.2977 7.83443C17.9654 7.50016 17.5826 7.3375 17.1495 7.34646C16.7163 7.35541 16.3396 7.52404 16.0192 7.85234C15.7997 8.06722 15.6617 8.33135 15.6053 8.64473C15.549 8.9581 15.5949 9.29387 15.7433 9.65201L16.3307 11.0756C16.3485 11.1174 16.3455 11.1503 16.3218 11.1741C16.2921 11.204 16.2565 11.201 16.215 11.1652L11.1685 6.08848C10.8007 5.71839 10.4032 5.53186 9.97591 5.52888C9.54871 5.52589 9.16008 5.70048 8.81002 6.05266C8.67949 6.18398 8.5801 6.32873 8.51186 6.48691C8.44363 6.64509 8.40655 6.80775 8.40061 6.97489C8.03273 6.69434 7.65744 6.56003 7.27473 6.57197C6.89202 6.58391 6.5464 6.74805 6.23785 7.06442C5.92931 7.36884 5.76911 7.71654 5.75724 8.10752C5.74538 8.49849 5.86998 8.87305 6.13106 9.23119C5.80471 9.23716 5.51991 9.36251 5.27663 9.60724C4.95029 9.93554 4.79306 10.3056 4.80492 10.7175C4.81679 11.1293 4.99479 11.5114 5.33894 11.8636L6.04205 12.5619C5.86998 12.5619 5.69939 12.5992 5.53029 12.6739C5.36119 12.7484 5.21136 12.8544 5.08082 12.9917C4.75448 13.32 4.59873 13.6976 4.61357 14.1243C4.6284 14.5511 4.81085 14.9406 5.16093 15.2928L10.5722 20.7366C11.5513 21.7214 12.5808 22.384 13.6606 22.7243C14.7406 23.0645 15.8041 23.0899 16.8514 22.8004C17.8986 22.5109 18.8643 21.9185 19.7484 21.0231ZM18.8495 20.1815C18.1078 20.9276 17.3142 21.4141 16.4687 21.6408C15.6232 21.8677 14.7613 21.8304 13.8832 21.529C13.005 21.2275 12.1446 20.65 11.3021 19.7964L6.08655 14.5497C5.95008 14.4124 5.87888 14.2616 5.87294 14.0975C5.86701 13.9333 5.92932 13.7856 6.05985 13.6543C6.19038 13.5289 6.34021 13.4662 6.50932 13.4662C6.67842 13.4662 6.82824 13.5319 6.95877 13.6632L10.1807 16.9044C10.2934 17.0178 10.4254 17.0701 10.5767 17.0611C10.728 17.0522 10.857 16.997 10.9638 16.8955C11.0707 16.7881 11.1285 16.6567 11.1375 16.5015C11.1463 16.3463 11.0944 16.212 10.9817 16.0986L6.16666 11.2547C6.03018 11.1234 5.95898 10.9757 5.95304 10.8115C5.94711 10.6474 6.00942 10.4996 6.13995 10.3683C6.27049 10.237 6.42031 10.1713 6.58942 10.1713C6.75852 10.1713 6.91131 10.24 7.04778 10.3773L11.5335 14.8899C11.6521 15.0093 11.7871 15.0645 11.9385 15.0555C12.0898 15.0466 12.2158 14.9884 12.3167 14.8809C12.4235 14.7735 12.4814 14.6436 12.4902 14.4914C12.4992 14.3392 12.4472 14.2035 12.3345 14.0841L7.06558 8.78351C6.92911 8.65219 6.85939 8.50147 6.85642 8.33136C6.85345 8.16124 6.91724 8.01052 7.04778 7.87919C7.17238 7.74788 7.31923 7.6852 7.48833 7.69117C7.65744 7.69714 7.81023 7.76877 7.9467 7.90606L13.2156 13.2066C13.3224 13.314 13.4515 13.3662 13.6028 13.3633C13.7541 13.3603 13.8832 13.3051 13.9899 13.1977C14.1027 13.0842 14.162 12.9499 14.168 12.7947C14.1739 12.6395 14.1234 12.5082 14.0166 12.4007L9.52204 7.87919C9.38557 7.74788 9.31734 7.59865 9.31734 7.43151C9.31734 7.26438 9.3826 7.11516 9.51311 6.98383C9.63772 6.85252 9.78309 6.78835 9.9492 6.79133C10.1154 6.79432 10.2667 6.86445 10.4032 7.00174L16.5977 13.2334C16.752 13.3886 16.9152 13.4677 17.0872 13.4707C17.2593 13.4737 17.4106 13.4096 17.5411 13.2783C17.6539 13.1648 17.7281 13.0305 17.7637 12.8753C17.7993 12.7201 17.7726 12.5291 17.6836 12.3023L16.571 9.35654C16.4939 9.15956 16.485 8.98348 16.5443 8.82828C16.6036 8.67308 16.7104 8.55967 16.8647 8.48804C17.0309 8.41044 17.1852 8.40895 17.3276 8.48356C17.4699 8.55817 17.5945 8.70293 17.7013 8.91782L19.7662 13.314C20.4544 14.7824 20.6933 16.0733 20.4827 17.1865C20.272 18.2997 19.7276 19.298 18.8495 20.1815ZM11.0884 5.24684C10.9579 5.37219 10.8586 5.51545 10.7903 5.67661C10.7221 5.83777 10.682 6.00192 10.6702 6.16906L11.7916 7.07337C11.6611 6.94205 11.5943 6.79133 11.5913 6.62121C11.5884 6.45109 11.6522 6.30038 11.7827 6.16906C11.9132 6.03774 12.0615 5.97506 12.2277 5.98103C12.3938 5.987 12.5452 6.05863 12.6816 6.19592L15.6988 9.24015L16.4198 8.27315L13.447 5.28265C13.0732 4.91257 12.6742 4.72603 12.25 4.72305C11.8257 4.72007 11.4385 4.89466 11.0884 5.24684ZM22.0269 20.2262C23.1305 19.11 23.7713 17.8639 23.9493 16.4881C24.1273 15.1122 23.8365 13.6185 23.077 12.0068L21.0656 7.74489C20.8817 7.35093 20.6414 7.05248 20.3447 6.84953C20.048 6.64659 19.7187 6.54511 19.3568 6.54511C19.2144 6.54511 19.0542 6.57197 18.8762 6.6257C18.6982 6.67942 18.5261 6.76746 18.36 6.88982C18.1938 7.01219 18.0573 7.17485 17.9505 7.3778C17.8438 7.58074 17.7904 7.82846 17.7904 8.12095C17.7904 8.22839 17.7963 8.32986 17.8082 8.42537L18.8673 8.72083C18.8079 8.58952 18.7782 8.46118 18.7782 8.33583C18.7782 8.19257 18.8331 8.06125 18.9429 7.94187C19.0527 7.82249 19.2025 7.7628 19.3924 7.7628C19.6713 7.7628 19.879 7.91501 20.0154 8.21944L22.0358 12.5082C22.7241 13.9706 22.9644 15.26 22.7567 16.3762C22.549 17.4924 22.0031 18.4892 21.119 19.3667C20.4011 20.0889 19.6416 20.5664 18.8406 20.7993L17.5411 22.1781C18.3362 22.202 19.115 22.0497 19.8774 21.7214C20.6399 21.3931 21.3564 20.8947 22.0269 20.2262Z" fill="black" fill-opacity="0.8"/>
</svg>
