<svg width="24" height="24" viewBox="0 0 24 24" fill="none" xmlns="http://www.w3.org/2000/svg">
<path d="M12.0985 19.7996H20.5873C22.1958 19.7996 23 19.287 23 18.2618C23 17.6339 22.8047 16.9643 22.4141 16.2531C22.0234 15.5419 21.4555 14.8707 20.7104 14.2396C19.9652 13.6084 19.0609 13.0943 17.9974 12.6971C16.9337 12.2998 15.7356 12.1012 14.4029 12.1012C13.51 12.1012 12.6779 12.1957 11.9064 12.3847C11.135 12.5737 10.4342 12.8316 9.80394 13.1583C10.0075 13.3185 10.2028 13.4899 10.3899 13.6726C10.577 13.8552 10.7526 14.0522 10.9167 14.2637C11.396 14.0458 11.9278 13.8728 12.5121 13.7446C13.0964 13.6165 13.7267 13.5524 14.4029 13.5524C15.5321 13.5524 16.5316 13.711 17.4015 14.0282C18.2714 14.3453 19.0051 14.7442 19.6025 15.2247C20.1999 15.7052 20.6513 16.2034 20.9565 16.7193C21.2618 17.235 21.4145 17.6883 21.4145 18.0792C21.4145 18.1817 21.3866 18.2522 21.3308 18.2907C21.275 18.3291 21.1847 18.3482 21.06 18.3482H12.3447C12.3381 18.5982 12.3151 18.8449 12.2757 19.0883C12.2363 19.3318 12.1772 19.5689 12.0985 19.7996ZM14.4029 10.9094C15.1841 10.9094 15.8965 10.7044 16.5399 10.2943C17.1833 9.88426 17.697 9.33802 18.081 8.6556C18.4651 7.97323 18.6572 7.21877 18.6572 6.39222C18.6572 5.57208 18.4668 4.83044 18.086 4.16728C17.7052 3.50412 17.1931 2.97711 16.5497 2.58627C15.9063 2.19542 15.1907 2 14.4029 2C13.6282 2 12.9175 2.19863 12.2709 2.59588C11.6241 2.99314 11.1087 3.52494 10.7247 4.1913C10.3406 4.85767 10.1486 5.59771 10.1486 6.41144C10.1552 7.23158 10.3505 7.98285 10.7346 8.66524C11.1186 9.34759 11.6323 9.8922 12.2757 10.2991C12.9191 10.706 13.6282 10.9094 14.4029 10.9094ZM14.4029 9.45808C13.9236 9.45808 13.4821 9.32194 13.0783 9.04965C12.6746 8.77737 12.3496 8.41055 12.1034 7.9492C11.8572 7.48788 11.7341 6.97529 11.7341 6.41144C11.7341 5.854 11.8556 5.35263 12.0985 4.90732C12.3414 4.46201 12.6647 4.10801 13.0685 3.84531C13.4723 3.58261 13.9171 3.45126 14.4029 3.45126C14.8952 3.45126 15.3433 3.5794 15.7471 3.83569C16.1508 4.09199 16.4726 4.44279 16.7122 4.8881C16.9518 5.33341 17.0716 5.83478 17.0716 6.39222C17.0716 6.95606 16.9502 7.47025 16.7073 7.93478C16.4643 8.39932 16.141 8.76933 15.7373 9.04483C15.3335 9.32033 14.8887 9.45808 14.4029 9.45808ZM6.00269 23C6.67891 23 7.31901 22.8719 7.92301 22.6156C8.52701 22.3593 9.06043 22.0069 9.52328 21.5584C9.98612 21.1099 10.3489 20.5909 10.6115 20.0013C10.8741 19.4119 11.0054 18.784 11.0054 18.1177C11.0054 17.4449 10.8757 16.8137 10.6164 16.2242C10.3571 15.6348 9.99762 15.1158 9.53805 14.6673C9.07849 14.2188 8.5467 13.868 7.94271 13.6149C7.33871 13.3618 6.69204 13.2352 6.00269 13.2352C5.3199 13.2352 4.67652 13.3618 4.07252 13.6149C3.46852 13.868 2.93674 14.2204 2.47717 14.6721C2.01761 15.1238 1.65652 15.6428 1.39391 16.229C1.1313 16.8153 1 17.4449 1 18.1177C1 18.7904 1.1313 19.4215 1.39391 20.011C1.65652 20.6004 2.01761 21.1194 2.47717 21.5679C2.93674 22.0165 3.46852 22.3673 4.07252 22.6204C4.67652 22.8735 5.3199 23 6.00269 23ZM3.65891 18.8673C3.48821 18.8673 3.34378 18.808 3.2256 18.6895C3.10743 18.571 3.04834 18.4316 3.04834 18.2714C3.04834 18.1112 3.10907 17.9735 3.23052 17.8581C3.35198 17.7428 3.49478 17.6851 3.65891 17.6851H5.44137V15.2727C5.44137 15.1126 5.50045 14.9764 5.61862 14.8643C5.7368 14.7522 5.88123 14.6961 6.05193 14.6961C6.21606 14.6961 6.35721 14.7522 6.47538 14.8643C6.59356 14.9764 6.65264 15.1126 6.65264 15.2727V18.2714C6.65264 18.438 6.5952 18.5789 6.48031 18.6943C6.36541 18.8096 6.22262 18.8673 6.05193 18.8673H3.65891Z" fill="black" fill-opacity="0.8"/>
</svg>
