<svg width="24" height="24" viewBox="0 0 24 24" fill="none" xmlns="http://www.w3.org/2000/svg">
<path d="M14.59 12.2276C13.7367 12.2276 12.94 12.3168 12.2 12.4951C11.46 12.6736 10.7833 12.9152 10.17 13.2202C10.89 13.7975 11.465 14.5047 11.8949 15.3416C12.3249 16.1784 12.54 17.0834 12.54 18.0566C12.54 18.5626 12.48 19.0427 12.36 19.4968H20.87C21.6566 19.4968 22.2083 19.3881 22.525 19.1707C22.8417 18.9534 23 18.6307 23 18.2026C23 17.5798 22.8067 16.9212 22.42 16.227C22.0333 15.5329 21.4733 14.8825 20.7399 14.2759C20.0066 13.6693 19.1216 13.1763 18.085 12.7969C17.0483 12.4173 15.8833 12.2276 14.59 12.2276ZM14.59 10.4856C15.3033 10.4856 15.9633 10.2959 16.57 9.91634C17.1767 9.53681 17.665 9.02269 18.0349 8.37399C18.4049 7.72522 18.5899 6.99537 18.5899 6.18443C18.5899 5.38647 18.4049 4.67123 18.0349 4.0387C17.665 3.40616 17.1767 2.90825 16.57 2.54495C15.9633 2.18165 15.3033 2 14.59 2C13.8767 2 13.2167 2.18489 12.61 2.55468C12.0033 2.92447 11.515 3.42725 11.145 4.06302C10.775 4.69879 10.59 5.41242 10.59 6.20389C10.59 7.00835 10.775 7.73334 11.145 8.37887C11.515 9.02432 12.0033 9.53681 12.61 9.91634C13.2167 10.2959 13.8767 10.4856 14.59 10.4856ZM6.08 23C6.76666 23 7.41666 22.8703 8.02999 22.6108C8.64332 22.3513 9.18499 21.9945 9.65499 21.5404C10.125 21.0862 10.4933 20.5607 10.76 19.9638C11.0267 19.367 11.16 18.7313 11.16 18.0566C11.16 17.3754 11.0283 16.7363 10.765 16.1394C10.5017 15.5426 10.1367 15.0171 9.66999 14.563C9.20332 14.1089 8.66332 13.7537 8.05 13.4975C7.43666 13.2412 6.78 13.113 6.08 13.113C5.38666 13.113 4.73333 13.2412 4.12 13.4975C3.50667 13.7537 2.96666 14.1105 2.49999 14.5679C2.03333 15.0253 1.66667 15.5508 1.4 16.1443C1.13333 16.738 1 17.3754 1 18.0566C1 18.7378 1.13333 19.3768 1.4 19.9736C1.66667 20.5704 2.03333 21.0959 2.49999 21.55C2.96666 22.0042 3.50667 22.3594 4.12 22.6157C4.73333 22.8719 5.38666 23 6.08 23ZM3.70999 18.8156C3.53666 18.8156 3.39 18.7556 3.27 18.6355C3.15 18.5155 3.09 18.3744 3.09 18.2122C3.09 18.0501 3.15167 17.9106 3.275 17.7938C3.39833 17.677 3.54333 17.6186 3.70999 17.6186H5.51999V15.176C5.51999 15.0139 5.57999 14.876 5.69999 14.7625C5.81999 14.649 5.96666 14.5922 6.13999 14.5922C6.30666 14.5922 6.44999 14.649 6.56999 14.7625C6.68999 14.876 6.74999 15.0139 6.74999 15.176V18.2122C6.74999 18.3809 6.69166 18.5236 6.575 18.6404C6.45833 18.7572 6.31333 18.8156 6.13999 18.8156H3.70999Z" fill="black" fill-opacity="0.8"/>
</svg>
