<svg width="24" height="24" viewBox="0 0 24 24" fill="none" xmlns="http://www.w3.org/2000/svg">
<path d="M9.2402 19H18.2788C19.4543 19 20.042 18.6209 20.042 17.8628C20.042 17.3984 19.898 16.9033 19.6101 16.3773C19.3223 15.8514 18.9061 15.355 18.3616 14.8883C17.8171 14.4215 17.1574 14.0413 16.3826 13.7475C15.6078 13.4538 14.7334 13.3069 13.7595 13.3069C12.7808 13.3069 11.904 13.4538 11.1292 13.7475C10.3544 14.0413 9.69475 14.4215 9.15022 14.8883C8.60569 15.355 8.18951 15.8514 7.90167 16.3773C7.61378 16.9033 7.46984 17.3984 7.46984 17.8628C7.46984 18.6209 8.05996 19 9.2402 19ZM8.89473 17.9268C8.79879 17.9268 8.73042 17.9126 8.68965 17.8841C8.64887 17.8557 8.62849 17.8036 8.62849 17.7277C8.62849 17.4387 8.74123 17.1035 8.96673 16.722C9.19222 16.3406 9.52204 15.9722 9.95618 15.6168C10.3904 15.2614 10.9265 14.9665 11.5646 14.7319C12.2027 14.4974 12.9343 14.3801 13.7595 14.3801C14.5847 14.3801 15.3151 14.4974 15.9508 14.7319C16.5865 14.9665 17.1226 15.2614 17.5592 15.6168C17.9958 15.9722 18.3256 16.3406 18.5487 16.722C18.7718 17.1035 18.8833 17.4387 18.8833 17.7277C18.8833 17.8036 18.8629 17.8557 18.8222 17.8841C18.7814 17.9126 18.7154 17.9268 18.6242 17.9268H8.89473ZM13.7595 12.326C14.3304 12.326 14.851 12.1744 15.3211 11.8711C15.7913 11.5679 16.1667 11.1639 16.4473 10.6593C16.728 10.1547 16.8683 9.59674 16.8683 8.98549C16.8683 8.37898 16.7292 7.83052 16.4509 7.34011C16.1727 6.84969 15.7985 6.45996 15.3283 6.17092C14.8582 5.88188 14.3352 5.73736 13.7595 5.73736C13.1886 5.73736 12.6681 5.88425 12.1979 6.17803C11.7277 6.4718 11.3523 6.86509 11.0716 7.35787C10.791 7.85066 10.6506 8.39794 10.6506 8.99971C10.6555 9.60621 10.797 10.1618 11.0752 10.6664C11.3535 11.171 11.7277 11.5738 12.1979 11.8747C12.6681 12.1756 13.1886 12.326 13.7595 12.326ZM13.7595 11.2528C13.4093 11.2528 13.0866 11.1521 12.7916 10.9507C12.4965 10.7493 12.259 10.4781 12.0791 10.1369C11.8992 9.79575 11.8093 9.41668 11.8093 8.99971C11.8093 8.58747 11.898 8.2167 12.0755 7.88738C12.253 7.55807 12.4893 7.29627 12.7844 7.102C13.0794 6.90773 13.4045 6.81059 13.7595 6.81059C14.1193 6.81059 14.4468 6.90536 14.7418 7.09489C15.0369 7.28443 15.272 7.54385 15.447 7.87317C15.6222 8.20248 15.7098 8.57326 15.7098 8.98549C15.7098 9.40247 15.621 9.78272 15.4434 10.1262C15.2659 10.4698 15.0297 10.7434 14.7346 10.9472C14.4395 11.1509 14.1145 11.2528 13.7595 11.2528ZM1.46807 19H7.11723C6.94452 18.9052 6.80179 18.7607 6.68905 18.5664C6.57631 18.3722 6.53193 18.1661 6.55591 17.9481H1.28816C1.21619 17.9481 1.16222 17.9327 1.12624 17.9019C1.09025 17.8711 1.07226 17.8225 1.07226 17.7562C1.07226 17.3155 1.1898 16.8914 1.42488 16.4839C1.65997 16.0764 1.98141 15.7116 2.3892 15.3893C2.797 15.0672 3.26476 14.8125 3.7925 14.6253C4.32023 14.4381 4.87675 14.3446 5.46206 14.3446C5.76431 14.3446 6.05576 14.3682 6.33642 14.4156C6.61708 14.463 6.88575 14.5317 7.14242 14.6217C7.39907 14.7118 7.64496 14.8255 7.88008 14.9629C7.99519 14.8207 8.11992 14.6869 8.25428 14.5613C8.3886 14.4357 8.53492 14.3185 8.69326 14.2095C8.38621 14.0057 8.05878 13.8364 7.71096 13.7013C7.36312 13.5663 7.00089 13.4644 6.62428 13.3957C6.24767 13.327 5.86026 13.2927 5.46206 13.2927C4.70884 13.2927 4.00239 13.4159 3.34272 13.6622C2.68305 13.9086 2.10255 14.2451 1.6012 14.6715C1.09985 15.0979 0.707643 15.5813 0.424587 16.1214C0.141529 16.6616 0 17.2279 0 17.8201C0 18.2134 0.122339 18.5084 0.367016 18.705C0.611694 18.9017 0.97871 19 1.46807 19ZM5.46926 12.4824C5.96341 12.4824 6.41558 12.3509 6.82578 12.0879C7.236 11.8249 7.56223 11.4719 7.80447 11.0289C8.04677 10.5859 8.16792 10.0943 8.16792 9.55409C8.16792 9.02814 8.04677 8.54957 7.80447 8.11837C7.56223 7.68719 7.23719 7.34366 6.82938 7.08779C6.42158 6.83191 5.96821 6.70398 5.46926 6.70398C4.97511 6.70398 4.52413 6.8331 4.11634 7.09134C3.70854 7.34958 3.3823 7.69667 3.13763 8.13259C2.89295 8.56852 2.77061 9.04709 2.77061 9.56831C2.77061 10.1037 2.89295 10.5918 3.13763 11.0325C3.3823 11.4731 3.70854 11.8249 4.11634 12.0879C4.52413 12.3509 4.97511 12.4824 5.46926 12.4824ZM5.46926 11.4234C5.17661 11.4234 4.90674 11.3404 4.65966 11.1746C4.41259 11.0088 4.21469 10.7849 4.06596 10.5029C3.91723 10.221 3.84287 9.90947 3.84287 9.56831C3.84287 9.23663 3.91723 8.93337 4.06596 8.65855C4.21469 8.38373 4.41139 8.16576 4.65607 8.00465C4.90074 7.84355 5.17181 7.763 5.46926 7.763C5.77151 7.763 6.04617 7.84237 6.29325 8.0011C6.54032 8.15984 6.73702 8.37425 6.88335 8.64433C7.02968 8.91442 7.10284 9.21767 7.10284 9.55409C7.10284 9.89999 7.02848 10.2151 6.87975 10.4994C6.73103 10.7837 6.53312 11.0088 6.28605 11.1746C6.03897 11.3404 5.76671 11.4234 5.46926 11.4234ZM19.0848 12.0133C19.2048 12.0986 19.3391 12.127 19.4878 12.0985C19.6365 12.0702 19.7589 11.9872 19.8549 11.8498C20.1331 11.4897 20.3502 11.0585 20.5061 10.5562C20.662 10.054 20.74 9.5304 20.74 8.98549C20.74 8.44058 20.662 7.917 20.5061 7.41473C20.3502 6.91247 20.1331 6.48128 19.8549 6.12116C19.7589 5.98375 19.6365 5.90202 19.4878 5.87596C19.3391 5.8499 19.2048 5.87714 19.0848 5.95769C18.9361 6.0572 18.851 6.18632 18.8294 6.34505C18.8078 6.50379 18.8545 6.6566 18.9697 6.80348C19.1808 7.08779 19.3427 7.41947 19.4555 7.79854C19.5682 8.1776 19.6246 8.57326 19.6246 8.98549C19.6246 9.39773 19.567 9.7922 19.4519 10.1689C19.3367 10.5456 19.176 10.8785 18.9697 11.1675C18.8594 11.3191 18.8138 11.4731 18.8329 11.6295C18.8521 11.7859 18.9361 11.9138 19.0848 12.0133ZM21.7475 13.8684C21.8818 13.9584 22.0234 13.9892 22.1721 13.9607C22.3208 13.9323 22.4431 13.8494 22.5391 13.712C22.9996 13.0865 23.3583 12.3616 23.615 11.5371C23.8717 10.7126 24 9.86208 24 8.98549C24 8.1089 23.8729 7.256 23.6186 6.42679C23.3643 5.59758 23.0045 4.87498 22.5391 4.259C22.4431 4.12159 22.3208 4.03866 22.1721 4.01023C22.0234 3.9818 21.8818 4.0126 21.7475 4.10263C21.6179 4.19266 21.5436 4.3123 21.5244 4.46156C21.5052 4.61082 21.546 4.75889 21.6467 4.90578C22.0402 5.45543 22.3448 6.08326 22.5607 6.78927C22.7766 7.49528 22.8845 8.22736 22.8845 8.98549C22.8845 9.74363 22.7754 10.4745 22.5571 11.1782C22.3388 11.8818 22.0353 12.5108 21.6467 13.0652C21.546 13.2121 21.5052 13.3602 21.5244 13.5094C21.5436 13.6587 21.6179 13.7783 21.7475 13.8684Z" fill="black" fill-opacity="0.8"/>
</svg>
