<svg width="24" height="24" viewBox="0 0 24 24" fill="none" xmlns="http://www.w3.org/2000/svg">
<path d="M11.0579 20H22.1159C22.8085 20 23.2957 19.9006 23.5774 19.7018C23.8591 19.5031 24 19.208 24 18.8164C24 18.2469 23.8283 17.6447 23.485 17.01C23.1416 16.3752 22.6486 15.7805 22.0059 15.2258C21.3631 14.6711 20.5854 14.2202 19.6728 13.8731C18.7601 13.5261 17.7314 13.3526 16.5869 13.3526C15.4483 13.3526 14.4226 13.5261 13.5099 13.8731C12.5972 14.2202 11.8181 14.6711 11.1724 15.2258C10.5268 15.7805 10.0338 16.3752 9.69336 17.01C9.35288 17.6447 9.18264 18.2469 9.18264 18.8164C9.18264 19.208 9.32205 19.5031 9.60087 19.7018C9.87968 19.9006 10.3654 20 11.0579 20ZM16.5957 11.7597C17.2238 11.7597 17.8048 11.5862 18.339 11.2391C18.8731 10.8921 19.3016 10.4219 19.6244 9.82868C19.9472 9.23544 20.1086 8.56803 20.1086 7.82646C20.1086 7.09676 19.9472 6.44271 19.6244 5.86429C19.3016 5.28587 18.8731 4.83055 18.339 4.49833C17.8048 4.16611 17.2238 4 16.5957 4C15.9677 4 15.3867 4.16908 14.8525 4.50723C14.3184 4.84538 13.8884 5.30515 13.5627 5.88654C13.237 6.46792 13.0741 7.1205 13.0741 7.84427C13.0741 8.57989 13.2355 9.24285 13.5584 9.83313C13.8812 10.4234 14.3096 10.8921 14.8437 11.2391C15.3778 11.5862 15.9618 11.7597 16.5957 11.7597ZM1.54952 20H8.23184C8.00293 19.6618 7.89435 19.2554 7.90609 18.7809C7.91782 18.3062 8.02641 17.8079 8.23184 17.2858C8.43727 16.7638 8.72046 16.2581 9.0814 15.7686C9.44238 15.2791 9.86057 14.8476 10.336 14.4738C9.84296 14.1416 9.27804 13.8672 8.64123 13.6507C8.0044 13.4341 7.27513 13.3259 6.45341 13.3259C5.46148 13.3259 4.56786 13.4905 3.77256 13.8197C2.97726 14.149 2.29934 14.5821 1.73881 15.119C1.17828 15.6559 0.748349 16.2417 0.44901 16.8765C0.14967 17.5112 0 18.1371 0 18.7542C0 19.1516 0.118855 19.4586 0.356566 19.6751C0.594277 19.8917 0.99193 20 1.54952 20ZM6.45341 11.9644C7.00513 11.9644 7.51284 11.8131 7.97652 11.5105C8.4402 11.208 8.81291 10.7972 9.09465 10.2781C9.37635 9.75898 9.5172 9.17907 9.5172 8.53836C9.5172 7.89766 9.37635 7.32665 9.09465 6.82535C8.81291 6.32406 8.43873 5.92955 7.97212 5.64182C7.5055 5.35409 6.99927 5.21023 6.45341 5.21023C5.91343 5.21023 5.41013 5.35706 4.94351 5.65072C4.47689 5.94438 4.09978 6.34334 3.81218 6.84761C3.52458 7.35186 3.38371 7.92138 3.38959 8.55617C3.38959 9.19094 3.53045 9.7664 3.81218 10.2825C4.09391 10.7987 4.46809 11.208 4.9347 11.5105C5.40132 11.8131 5.90755 11.9644 6.45341 11.9644Z" fill="black" fill-opacity="0.8"/>
</svg>
