<svg width="24" height="24" viewBox="0 0 24 24" fill="none" xmlns="http://www.w3.org/2000/svg">
<path d="M12.0148 13.2416C12.4475 13.2416 12.8482 13.1208 13.217 12.8793C13.5857 12.6377 13.882 12.3094 14.1058 11.8944C14.3295 11.4793 14.4413 11.0126 14.4413 10.4944C14.4413 9.98114 14.3295 9.52328 14.1058 9.12076C13.882 8.71825 13.5857 8.40126 13.217 8.16982C12.8482 7.93837 12.4475 7.82264 12.0148 7.82264C11.5821 7.82264 11.1813 7.94088 10.8125 8.17737C10.4438 8.41384 10.1463 8.7346 9.92014 9.13963C9.69391 9.54466 9.5808 10.0013 9.5808 10.5094C9.5808 11.0227 9.69268 11.4855 9.91644 11.8981C10.1401 12.3107 10.4376 12.6377 10.8088 12.8793C11.1801 13.1208 11.5821 13.2416 12.0148 13.2416ZM7.93608 19H16.086C16.4057 19 16.6589 18.927 16.8458 18.7811C17.0326 18.6352 17.126 18.434 17.126 18.1774C17.126 17.7749 17.008 17.3522 16.772 16.9095C16.536 16.4667 16.1955 16.0516 15.7505 15.6642C15.3055 15.2768 14.7683 14.961 14.1389 14.717C13.5095 14.473 12.8015 14.351 12.0148 14.351C11.2231 14.351 10.5126 14.473 9.88321 14.717C9.25383 14.961 8.71664 15.2768 8.27164 15.6642C7.82669 16.0516 7.4862 16.4667 7.25016 16.9095C7.01415 17.3522 6.89614 17.7749 6.89614 18.1774C6.89614 18.434 6.98833 18.6352 7.17272 18.7811C7.35711 18.927 7.61156 19 7.93608 19ZM0.590044 18.8114C0.757222 18.8114 0.897358 18.7522 1.01045 18.634C1.12354 18.5157 1.18009 18.3711 1.18009 18.2C1.18009 16.8818 1.36202 15.6239 1.72588 14.4265C2.08974 13.229 2.60357 12.1308 3.26737 11.1321C3.93117 10.1333 4.7142 9.26542 5.61648 8.52831C6.51876 7.7912 7.50955 7.22013 8.58885 6.8151C9.66811 6.41006 10.8052 6.20755 12 6.20755C13.19 6.20755 14.3258 6.41006 15.4075 6.8151C16.4893 7.22013 17.4813 7.7912 18.3835 8.52831C19.2858 9.26542 20.0676 10.1333 20.729 11.1321C21.3903 12.1308 21.9042 13.229 22.2705 14.4265C22.6368 15.6239 22.8199 16.8818 22.8199 18.2C22.8199 18.3711 22.8765 18.5157 22.9896 18.634C23.1027 18.7522 23.2404 18.8114 23.4026 18.8114C23.5698 18.8114 23.7112 18.7522 23.8267 18.634C23.9422 18.5157 24 18.3711 24 18.2C24 16.7459 23.7972 15.3598 23.3916 14.0415C22.9859 12.7233 22.4155 11.5145 21.6805 10.4151C20.9453 9.31573 20.0775 8.36101 19.0769 7.55095C18.0763 6.74089 16.9773 6.11321 15.78 5.66793C14.5827 5.22264 13.3227 5 12 5C10.6773 5 9.41734 5.22264 8.22006 5.66793C7.02275 6.11321 5.92379 6.74089 4.92317 7.55095C3.92256 8.36101 3.05471 9.31573 2.31961 10.4151C1.58451 11.5145 1.01414 12.7233 0.608483 14.0415C0.202828 15.3598 0 16.7459 0 18.2C0 18.3711 0.0577751 18.5157 0.173325 18.634C0.288875 18.7522 0.427782 18.8114 0.590044 18.8114ZM4.3442 18.8038C4.50646 18.8038 4.64537 18.7447 4.76092 18.6264C4.87646 18.5082 4.93424 18.366 4.93424 18.2C4.93424 17.2692 5.08298 16.3774 5.38046 15.5246C5.67794 14.6717 6.09958 13.8981 6.64537 13.2038C7.19116 12.5094 7.83528 11.9333 8.57775 11.4755C8.53349 11.2843 8.50277 11.0717 8.4856 10.8377C8.46838 10.6038 8.47206 10.3736 8.49663 10.1472C7.54273 10.6302 6.71052 11.2818 6.00001 12.1019C5.2895 12.922 4.73756 13.8541 4.3442 14.8981C3.95083 15.9422 3.75415 17.0428 3.75415 18.2C3.75415 18.366 3.81193 18.5082 3.92748 18.6264C4.04303 18.7447 4.18194 18.8038 4.3442 18.8038ZM19.6484 18.8038C19.8157 18.8038 19.957 18.7447 20.0725 18.6264C20.1881 18.5082 20.2458 18.366 20.2458 18.2C20.2458 17.0479 20.0504 15.951 19.6595 14.9095C19.2686 13.868 18.7191 12.9384 18.0111 12.1208C17.303 11.3032 16.4745 10.6503 15.5255 10.1623C15.5501 10.3887 15.5538 10.6138 15.5366 10.8377C15.5194 11.0616 15.4862 11.2843 15.4371 11.5057C16.1746 11.9535 16.815 12.522 17.3584 13.2113C17.9017 13.9007 18.3221 14.6717 18.6196 15.5246C18.917 16.3774 19.0658 17.2692 19.0658 18.2C19.0658 18.366 19.1223 18.5082 19.2355 18.6264C19.3486 18.7447 19.4862 18.8038 19.6484 18.8038Z" fill="black" fill-opacity="0.8"/>
</svg>
