<svg width="24" height="24" viewBox="0 0 24 24" fill="none" xmlns="http://www.w3.org/2000/svg">
<path d="M7.93608 18.779H15.7836L11.2846 14.2479C10.6061 14.3222 9.99511 14.4881 9.45173 14.7456C8.9084 15.0031 8.44744 15.3138 8.06885 15.6778C7.69024 16.0418 7.40013 16.4243 7.19853 16.8254C6.99694 17.2265 6.89614 17.6078 6.89614 17.9693C6.89614 18.2219 6.98833 18.42 7.17272 18.5636C7.35711 18.7072 7.61156 18.779 7.93608 18.779ZM13.5341 12.4949C13.8095 12.2522 14.0295 11.9514 14.1942 11.5924C14.359 11.2333 14.4413 10.8384 14.4413 10.4076C14.4413 9.9025 14.3295 9.45187 14.1058 9.05571C13.882 8.65954 13.5857 8.34757 13.217 8.11977C12.8482 7.89198 12.4475 7.77808 12.0148 7.77808C11.6067 7.77808 11.2256 7.88455 10.8715 8.09749C10.5175 8.31043 10.2323 8.5927 10.016 8.94429L13.5341 12.4949ZM4.74248 7.65923C3.78366 8.45156 2.94899 9.38378 2.23848 10.4559C1.52797 11.528 0.977258 12.7016 0.586356 13.9768C0.195452 15.2519 0 16.5902 0 17.9916C0 18.16 0.0577751 18.3023 0.173325 18.4187C0.288875 18.5351 0.427782 18.5933 0.590044 18.5933C0.757222 18.5933 0.897358 18.5351 1.01045 18.4187C1.12354 18.3023 1.18009 18.16 1.18009 17.9916C1.18009 16.6992 1.36202 15.4661 1.72588 14.2925C2.08974 13.1188 2.60111 12.0406 3.25999 11.0576C3.91888 10.0746 4.69331 9.22407 5.58329 8.50603L4.74248 7.65923ZM8.07626 6.99814C8.68595 6.73568 9.31901 6.53513 9.97542 6.39647C10.6318 6.25781 11.3067 6.18849 12 6.18849C13.19 6.18849 14.3258 6.3878 15.4075 6.78644C16.4893 7.18508 17.4813 7.74713 18.3835 8.47261C19.2858 9.19808 20.0676 10.0523 20.729 11.0353C21.3903 12.0183 21.9042 13.099 22.2705 14.2776C22.6368 15.4562 22.8199 16.6942 22.8199 17.9916C22.8199 18.16 22.8765 18.3023 22.9896 18.4187C23.1027 18.5351 23.2404 18.5933 23.4026 18.5933C23.5698 18.5933 23.7112 18.5351 23.8267 18.4187C23.9422 18.3023 24 18.16 24 17.9916C24 16.5605 23.7972 15.1962 23.3916 13.8988C22.9859 12.6014 22.4155 11.4117 21.6805 10.3296C20.9453 9.2476 20.0775 8.30795 19.0769 7.51068C18.0763 6.7134 16.9773 6.09563 15.78 5.65738C14.5827 5.21913 13.3227 5 12 5C11.1395 5 10.3049 5.09409 9.49599 5.28226C8.68716 5.47044 7.91642 5.7428 7.18378 6.09935L8.07626 6.99814ZM7.64848 10.5859C6.85681 11.1059 6.16965 11.7484 5.58698 12.5135C5.00431 13.2785 4.55317 14.1278 4.23357 15.0613C3.91396 15.9947 3.75415 16.9715 3.75415 17.9916C3.75415 18.1551 3.81193 18.295 3.92748 18.4113C4.04303 18.5277 4.18194 18.5859 4.3442 18.5859C4.50646 18.5859 4.64537 18.5277 4.76092 18.4113C4.87646 18.295 4.93424 18.1551 4.93424 17.9916C4.93424 17.0904 5.07929 16.225 5.3694 15.3955C5.65951 14.5661 6.07131 13.8121 6.60481 13.1337C7.1383 12.4553 7.76644 11.8883 8.48923 11.4327L7.64848 10.5859ZM19.7738 18.571C19.9115 18.5463 20.0246 18.4794 20.1131 18.3705C20.2016 18.2615 20.2458 18.1352 20.2458 17.9916C20.2458 16.8576 20.0504 15.7781 19.6595 14.753C19.2686 13.7279 18.7191 12.8131 18.0111 12.0084C17.303 11.2037 16.4745 10.5611 15.5255 10.0808C15.5501 10.3036 15.5538 10.5252 15.5366 10.7456C15.5194 10.9659 15.4862 11.1851 15.4371 11.403C16.1648 11.8338 16.7978 12.3822 17.3362 13.0483C17.8746 13.7143 18.2938 14.4559 18.5937 15.273C18.8937 16.0901 19.051 16.9492 19.0658 17.8505C19.174 17.9743 19.2895 18.0969 19.4124 18.2182C19.5354 18.3395 19.6558 18.4571 19.7738 18.571ZM19.0068 20.8292C19.1199 20.9431 19.2551 21 19.4124 21C19.5698 21 19.7025 20.9431 19.8107 20.8292C19.9189 20.7153 19.9742 20.5816 19.9767 20.428C19.9791 20.2745 19.9238 20.1383 19.8107 20.0195L5.19976 5.28969C5.08667 5.1758 4.95145 5.11885 4.79411 5.11885C4.63676 5.11885 4.50155 5.1758 4.38845 5.28969C4.28028 5.39864 4.22619 5.53358 4.22619 5.69452C4.22619 5.85546 4.28028 5.9904 4.38845 6.09935L19.0068 20.8292Z" fill="black" fill-opacity="0.8"/>
</svg>
