<svg width="24" height="24" viewBox="0 0 24 24" fill="none" xmlns="http://www.w3.org/2000/svg">
<path d="M5.8841 21H18.116C19.7053 21 20.5 20.4816 20.5 19.4449C20.5 18.81 20.3054 18.1329 19.9162 17.4136C19.527 16.6944 18.9642 16.0157 18.2279 15.3774C17.4916 14.7392 16.5995 14.2192 15.5518 13.8175C14.5041 13.4157 13.3218 13.2149 12.0049 13.2149C10.6815 13.2149 9.49591 13.4157 8.44821 13.8175C7.40051 14.2192 6.5085 14.7392 5.77218 15.3774C5.03588 16.0157 4.4731 16.6944 4.08386 17.4136C3.69462 18.1329 3.5 18.81 3.5 19.4449C3.5 20.4816 4.2947 21 5.8841 21ZM5.42673 19.5324C5.29699 19.5324 5.20454 19.513 5.1494 19.4741C5.09426 19.4352 5.06669 19.3639 5.06669 19.2603C5.06669 18.8651 5.21752 18.4066 5.51918 17.885C5.82084 17.3634 6.26685 16.8596 6.85719 16.3737C7.44754 15.8877 8.17412 15.4843 9.03694 15.1636C9.89975 14.8428 10.8891 14.6825 12.0049 14.6825C13.1207 14.6825 14.1084 14.8428 14.968 15.1636C15.8275 15.4843 16.5525 15.8877 17.1428 16.3737C17.7332 16.8596 18.1792 17.3634 18.4809 17.885C18.7825 18.4066 18.9334 18.8651 18.9334 19.2603C18.9334 19.3639 18.9058 19.4352 18.8507 19.4741C18.7955 19.513 18.7063 19.5324 18.583 19.5324H5.42673ZM12.0049 12.0097C12.7769 12.0097 13.4808 11.8024 14.1165 11.3877C14.7523 10.973 15.2599 10.4206 15.6394 9.73056C16.0189 9.0405 16.2087 8.27754 16.2087 7.44169C16.2087 6.61232 16.0205 5.86231 15.6443 5.19168C15.268 4.52106 14.762 3.98812 14.1263 3.59287C13.4905 3.19762 12.7834 3 12.0049 3C11.2329 3 10.529 3.20086 9.89327 3.60259C9.2575 4.00432 8.74987 4.54212 8.37037 5.21598C7.99086 5.88985 7.8011 6.63823 7.8011 7.46113C7.8011 8.2905 7.99086 9.05022 8.37037 9.74029C8.74987 10.4304 9.2575 10.9811 9.89327 11.3925C10.529 11.804 11.2329 12.0097 12.0049 12.0097ZM12.0049 10.5421C11.5313 10.5421 11.095 10.4044 10.6961 10.129C10.2971 9.85367 9.97597 9.48272 9.7327 9.0162C9.48942 8.54968 9.36779 8.03132 9.36779 7.46113C9.36779 6.89741 9.4878 6.39039 9.72784 5.94007C9.96787 5.48974 10.2874 5.13175 10.6863 4.8661C11.0853 4.60044 11.5248 4.46761 12.0049 4.46761C12.4914 4.46761 12.9342 4.5972 13.3332 4.85637C13.7322 5.11555 14.0501 5.4703 14.2868 5.92063C14.5236 6.37095 14.6419 6.87797 14.6419 7.44169C14.6419 8.01188 14.5219 8.53186 14.2819 9.00162C14.0419 9.47139 13.7224 9.84558 13.3234 10.1242C12.9245 10.4028 12.485 10.5421 12.0049 10.5421Z" fill="black" fill-opacity="0.8"/>
</svg>
