<svg width="24" height="24" viewBox="0 0 24 24" fill="none" xmlns="http://www.w3.org/2000/svg">
<path d="M2.81716 8.49973C3.36875 8.49973 3.64454 8.22039 3.64454 7.66172V5.24987C3.64454 4.71844 3.78073 4.31817 4.05311 4.04905C4.3255 3.77993 4.71706 3.64538 5.22778 3.64538H7.69969C8.25809 3.64538 8.53728 3.36944 8.53728 2.81758C8.53728 2.27253 8.25809 2 7.69969 2H5.20736C4.13823 2 3.3364 2.26401 2.80184 2.79203C2.26728 3.32004 2 4.10866 2 5.15789V7.66172C2 8.22039 2.27239 8.49973 2.81716 8.49973ZM21.1726 8.49973C21.7242 8.49973 22 8.22039 22 7.66172V5.15789C22 4.10866 21.7327 3.32004 21.1982 2.79203C20.6636 2.26401 19.8618 2 18.7927 2H16.2901C15.7385 2 15.4627 2.27253 15.4627 2.81758C15.4627 3.36944 15.7385 3.64538 16.2901 3.64538H18.762C19.2659 3.64538 19.6574 3.77993 19.9366 4.04905C20.2158 4.31817 20.3554 4.71844 20.3554 5.24987V7.66172C20.3554 8.22039 20.6278 8.49973 21.1726 8.49973ZM5.20736 22H7.69969C8.25809 22 8.53728 21.7275 8.53728 21.1824C8.53728 20.6305 8.25809 20.3546 7.69969 20.3546H5.22778C4.71706 20.3546 4.3255 20.22 4.05311 19.951C3.78073 19.6818 3.64454 19.2815 3.64454 18.7501V16.3382C3.64454 15.7796 3.36875 15.5002 2.81716 15.5002C2.27239 15.5002 2 15.7796 2 16.3382V18.8318C2 19.8879 2.26728 20.6799 2.80184 21.2079C3.3364 21.736 4.13823 22 5.20736 22ZM16.2901 22H18.7927C19.8618 22 20.6636 21.736 21.1982 21.2079C21.7327 20.6799 22 19.8879 22 18.8318V16.3382C22 15.7796 21.7242 15.5002 21.1726 15.5002C20.6278 15.5002 20.3554 15.7796 20.3554 16.3382V18.7501C20.3554 19.2815 20.2158 19.6818 19.9366 19.951C19.6574 20.22 19.2659 20.3546 18.762 20.3546H16.2901C15.7385 20.3546 15.4627 20.6305 15.4627 21.1824C15.4627 21.7275 15.7385 22 16.2901 22ZM6.86921 17.6924H17.1387C17.3633 17.6924 17.53 17.6268 17.6386 17.4957C17.7472 17.3645 17.8015 17.194 17.8015 16.9842C17.8015 16.6769 17.6835 16.2778 17.4476 15.7869C17.2117 15.2961 16.8559 14.8052 16.3802 14.3143C15.9046 13.8234 15.3035 13.4094 14.5769 13.0722C13.8503 12.735 12.9926 12.5663 12.0039 12.5663C11.0152 12.5663 10.1575 12.735 9.43094 13.0722C8.70437 13.4094 8.10326 13.8234 7.62762 14.3143C7.15197 14.8052 6.79618 15.2961 6.56023 15.7869C6.32427 16.2778 6.2063 16.6769 6.2063 16.9842C6.2063 17.194 6.2606 17.3645 6.36922 17.4957C6.47783 17.6268 6.64449 17.6924 6.86921 17.6924ZM12.0039 11.6445C12.5358 11.652 13.0208 11.5171 13.459 11.2398C13.8972 10.9625 14.2455 10.586 14.5039 10.1101C14.7623 9.63418 14.8915 9.09647 14.8915 8.49693C14.8915 7.93485 14.7623 7.41962 14.5039 6.95123C14.2455 6.48284 13.8972 6.10812 13.459 5.82708C13.0208 5.54605 12.5358 5.40553 12.0039 5.40553C11.4721 5.40553 10.9871 5.54605 10.5489 5.82708C10.1107 6.10812 9.7624 6.48284 9.50398 6.95123C9.24556 7.41962 9.11635 7.93485 9.11635 8.49693C9.11635 9.09647 9.24556 9.6323 9.50398 10.1044C9.7624 10.5766 10.1107 10.9513 10.5489 11.2286C10.9871 11.5059 11.4721 11.6445 12.0039 11.6445Z" fill="black" fill-opacity="0.8"/>
</svg>
