<svg width="24" height="24" viewBox="0 0 24 24" fill="none" xmlns="http://www.w3.org/2000/svg">
<path d="M10.2671 11.5372C10.9674 11.5372 11.6154 11.3463 12.211 10.9645C12.8067 10.5827 13.2862 10.0654 13.6495 9.41273C14.0127 8.76003 14.1944 8.02575 14.1944 7.20988C14.1944 6.40707 14.0127 5.68747 13.6495 5.05109C13.2862 4.41471 12.8067 3.91377 12.211 3.54827C11.6154 3.18276 10.9674 3 10.2671 3C9.56667 3 8.91866 3.18602 8.32301 3.55805C7.72737 3.93009 7.24791 4.43593 6.88463 5.07557C6.52135 5.7152 6.33971 6.43317 6.33971 7.22946C6.33971 8.0388 6.52135 8.76819 6.88463 9.41762C7.24791 10.0671 7.72737 10.5827 8.32301 10.9645C8.91866 11.3463 9.56667 11.5372 10.2671 11.5372ZM3.67894 20.6032H16.7569C16.6392 20.3682 16.5803 20.1136 16.5803 19.8395V16.1485C16.1221 15.7896 15.7621 15.3425 15.5002 14.8072C14.8325 14.3569 14.0586 13.9914 13.1782 13.7108C12.2978 13.4301 11.3274 13.2897 10.2671 13.2897C8.99067 13.2897 7.84355 13.4806 6.82571 13.8624C5.80788 14.2443 4.94059 14.7403 4.22385 15.3506C3.50712 15.9609 2.95729 16.6152 2.57437 17.3136C2.19146 18.012 2 18.6744 2 19.301C2 19.7057 2.14891 20.0239 2.44673 20.2556C2.74456 20.4874 3.15529 20.6032 3.67894 20.6032ZM19.0152 9.44209C18.4523 9.44209 17.945 9.57589 17.4934 9.8435C17.0417 10.1111 16.6817 10.4701 16.4133 10.9204C16.1449 11.3708 16.0107 11.8701 16.0107 12.4184C16.0107 13.0515 16.1842 13.6194 16.5311 14.1219C16.8781 14.6245 17.3395 14.99 17.9156 15.2185V19.8395C17.9156 19.9309 17.9614 20.0288 18.053 20.1332L18.8384 20.9262C18.8843 20.972 18.9383 20.9964 19.0005 20.9997C19.0627 21.0029 19.12 20.9784 19.1723 20.9262L20.6549 19.4381C20.7072 19.3924 20.7334 19.3386 20.7334 19.2766C20.7334 19.2145 20.7072 19.1607 20.6549 19.115L19.7319 18.1849L21.0181 16.9415C21.064 16.8959 21.0853 16.8421 21.082 16.78C21.0787 16.718 21.0509 16.6576 20.9985 16.5989L19.7418 15.3457C20.4618 15.0585 21.0181 14.6604 21.4108 14.1513C21.8036 13.6422 22 13.0646 22 12.4184C22 11.8701 21.8658 11.3708 21.5974 10.9204C21.3291 10.4701 20.9691 10.1111 20.5174 9.8435C20.0657 9.57589 19.565 9.44209 19.0152 9.44209ZM19.0054 10.8715C19.2542 10.8715 19.4685 10.9612 19.6485 11.1407C19.8285 11.3202 19.9185 11.534 19.9185 11.782C19.9185 12.0496 19.8285 12.2732 19.6485 12.4527C19.4685 12.6321 19.2542 12.7219 19.0054 12.7219C18.7501 12.7219 18.5308 12.6321 18.3476 12.4527C18.1643 12.2732 18.0726 12.0496 18.0726 11.782C18.0726 11.534 18.1626 11.3202 18.3427 11.1407C18.5226 10.9612 18.7435 10.8715 19.0054 10.8715Z" fill="black" fill-opacity="0.8"/>
</svg>
