<svg width="24" height="24" viewBox="0 0 24 24" fill="none" xmlns="http://www.w3.org/2000/svg">
<path d="M12.2605 20H20.6231C22.2077 20 23 19.4816 23 18.4449C23 17.8099 22.8076 17.1328 22.4228 16.4135C22.038 15.6944 21.4785 15.0156 20.7444 14.3774C20.0103 13.7391 19.1194 13.2192 18.0717 12.8175C17.0239 12.4158 15.8435 12.2149 14.5306 12.2149C13.651 12.2149 12.8312 12.3105 12.0712 12.5016C11.3113 12.6928 10.6209 12.9536 10 13.284C10.2005 13.4459 10.3929 13.6193 10.5772 13.804C10.7616 13.9886 10.9346 14.1879 11.0963 14.4017C11.5684 14.1814 12.0923 14.0064 12.6679 13.8768C13.2436 13.7473 13.8645 13.6825 14.5306 13.6825C15.643 13.6825 16.6277 13.8428 17.4847 14.1636C18.3417 14.4843 19.0644 14.8877 19.653 15.3736C20.2415 15.8595 20.6862 16.3633 20.9869 16.885C21.2877 17.4066 21.438 17.865 21.438 18.2602C21.438 18.3639 21.4105 18.4352 21.3556 18.4741C21.3006 18.5129 21.2117 18.5323 21.0888 18.5323H12.503C12.4965 18.785 12.4738 19.0345 12.435 19.2807C12.3962 19.527 12.338 19.7667 12.2605 20ZM14.5306 11.0097C15.3002 11.0097 16.002 10.8024 16.6359 10.3877C17.2697 9.97303 17.7758 9.42063 18.1541 8.73053C18.5325 8.04048 18.7217 7.27753 18.7217 6.44167C18.7217 5.6123 18.5341 4.8623 18.159 4.19168C17.7839 3.52105 17.2794 2.98811 16.6455 2.59287C16.0117 2.19762 15.3067 2 14.5306 2C13.7674 2 13.0673 2.20086 12.4303 2.60259C11.7931 3.00432 11.2854 3.54211 10.9071 4.21598C10.5287 4.88984 10.3396 5.63822 10.3396 6.46111C10.346 7.29048 10.5384 8.05021 10.9168 8.74028C11.2951 9.43032 11.8012 9.98106 12.435 10.3925C13.0689 10.804 13.7674 11.0097 14.5306 11.0097ZM14.5306 9.54205C14.0584 9.54205 13.6235 9.40438 13.2257 9.12903C12.828 8.85368 12.5079 8.48273 12.2653 8.01618C12.0227 7.54966 11.9015 7.03131 11.9015 6.46111C11.9015 5.8974 12.0211 5.39038 12.2605 4.94006C12.4998 4.48973 12.8183 4.13174 13.2161 3.86609C13.6138 3.60043 14.052 3.4676 14.5306 3.4676C15.0156 3.4676 15.4571 3.59719 15.8548 3.85636C16.2526 4.11554 16.5695 4.4703 16.8056 4.92062C17.0417 5.37094 17.1597 5.87796 17.1597 6.44167C17.1597 7.01186 17.0401 7.53184 16.8008 8.0016C16.5614 8.47137 16.2429 8.84555 15.8452 9.12415C15.4474 9.40275 15.0092 9.54205 14.5306 9.54205Z" fill="black" fill-opacity="0.8"/>
<path fill-rule="evenodd" clip-rule="evenodd" d="M7.91928 22.6063C7.31561 22.8688 6.67585 23 6 23C5.31758 23 4.67454 22.8704 4.07087 22.6113C3.46719 22.352 2.9357 21.9928 2.47637 21.5334C2.01706 21.0741 1.65617 20.5426 1.3937 19.939C1.13123 19.3353 1 18.689 1 18.0001C1 17.3111 1.13123 16.6664 1.3937 16.0659C1.65617 15.4656 2.01706 14.9341 2.47637 14.4715C2.9357 14.0089 3.46719 13.648 4.07087 13.3888C4.67454 13.1296 5.31758 13 6 13C6.68898 13 7.3353 13.1296 7.93898 13.3888C8.54265 13.648 9.07414 14.0072 9.53346 14.4666C9.99278 14.9259 10.352 15.4574 10.6112 16.061C10.8704 16.6647 11 17.3111 11 18.0001C11 18.6824 10.8688 19.3255 10.6063 19.9291C10.3438 20.5328 9.98129 21.0643 9.5187 21.5237C9.0561 21.983 8.52296 22.3439 7.91928 22.6063ZM5.56201 20.9626C5.67027 21.0741 5.81627 21.1299 6 21.1299C6.18373 21.1299 6.32973 21.0741 6.43799 20.9626C6.54626 20.8511 6.60039 20.7067 6.60039 20.5295V18.6004H8.52952C8.70669 18.6004 8.85105 18.5463 8.96259 18.438C9.07415 18.3297 9.12992 18.1838 9.12992 18.0001C9.12992 17.8163 9.07415 17.6703 8.96259 17.562C8.85105 17.4538 8.70669 17.3997 8.52952 17.3997H6.60039V15.4705C6.60039 15.2933 6.54626 15.1489 6.43799 15.0374C6.32973 14.9259 6.18373 14.8701 6 14.8701C5.81627 14.8701 5.67027 14.9259 5.56201 15.0374C5.45374 15.1489 5.3996 15.2933 5.3996 15.4705V17.3997H3.47047C3.29331 17.3997 3.14895 17.4538 3.0374 17.562C2.92585 17.6703 2.87008 17.8163 2.87008 18.0001C2.87008 18.1838 2.92585 18.3297 3.0374 18.438C3.14895 18.5463 3.29331 18.6004 3.47047 18.6004H5.3996V20.5295C5.3996 20.7067 5.45374 20.8511 5.56201 20.9626Z" fill="#34C759"/>
</svg>
