<svg width="24" height="24" viewBox="0 0 24 24" fill="none" xmlns="http://www.w3.org/2000/svg">
<path d="M3.35612 22H15.3858C16.9501 22 17.7322 21.4946 17.7322 20.4837C17.7322 19.8645 17.5423 19.2043 17.1624 18.5031C16.7825 17.8018 16.2301 17.14 15.5054 16.5178C14.7807 15.8954 13.9012 15.3884 12.8668 14.9967C11.8324 14.605 10.6671 14.4091 9.37094 14.4091C8.06837 14.4091 6.90148 14.605 5.87027 14.9967C4.83907 15.3884 3.96111 15.8954 3.2364 16.5178C2.51169 17.14 1.95778 17.8018 1.57466 18.5031C1.19155 19.2043 1 19.8645 1 20.4837C1 21.4946 1.78537 22 3.35612 22ZM2.89639 20.569C2.76868 20.569 2.6777 20.5501 2.62342 20.5122C2.56915 20.4743 2.54202 20.4047 2.54202 20.3036C2.54202 19.9182 2.69207 19.4713 2.99217 18.9627C3.29227 18.4541 3.73124 17.9629 4.3091 17.489C4.88696 17.0152 5.6005 16.6219 6.44973 16.3092C7.29895 15.9965 8.27269 15.8401 9.37094 15.8401C10.4692 15.8401 11.4413 15.9965 12.2874 16.3092C13.1334 16.6219 13.8469 17.0152 14.428 17.489C15.009 17.9629 15.448 18.4541 15.7449 18.9627C16.0418 19.4713 16.1903 19.9182 16.1903 20.3036C16.1903 20.4047 16.1632 20.4743 16.1089 20.5122C16.0546 20.5501 15.9668 20.569 15.8455 20.569H2.89639ZM9.37094 13.1013C10.1308 13.1013 10.8236 12.8992 11.4493 12.4948C12.075 12.0905 12.5747 11.5519 12.9482 10.8791C13.3217 10.2062 13.5085 9.46232 13.5085 8.64732C13.5085 7.83865 13.3233 7.10736 12.953 6.45347C12.5827 5.79958 12.0846 5.27994 11.4589 4.89456C10.8331 4.50917 10.1372 4.31648 9.37094 4.31648C8.61749 4.31648 7.92629 4.51233 7.29736 4.90404C6.66842 5.29574 6.16718 5.82011 5.79366 6.47716C5.42013 7.13421 5.23336 7.86392 5.23336 8.66628C5.23974 9.47495 5.4297 10.2157 5.80323 10.8886C6.17676 11.5614 6.6764 12.0984 7.30214 12.4996C7.92789 12.9007 8.61749 13.1013 9.37094 13.1013ZM9.37094 11.6704C8.90482 11.6704 8.47542 11.5361 8.08273 11.2676C7.69004 10.9991 7.37397 10.6374 7.13453 10.1825C6.89509 9.72767 6.77537 9.22224 6.77537 8.66628C6.77537 8.11663 6.89349 7.62226 7.12975 7.18318C7.366 6.74409 7.68046 6.39503 8.07315 6.136C8.46584 5.87697 8.89843 5.74746 9.37094 5.74746C9.84982 5.74746 10.2856 5.87381 10.6783 6.12652C11.071 6.37924 11.3839 6.72514 11.6169 7.16422C11.8499 7.60331 11.9665 8.09768 11.9665 8.64732C11.9665 9.20329 11.8483 9.71029 11.6121 10.1683C11.3759 10.6264 11.0614 10.9912 10.6687 11.2629C10.276 11.5345 9.84343 11.6704 9.37094 11.6704ZM16.4584 12.6844C16.6181 12.7981 16.7969 12.836 16.9948 12.7981C17.1927 12.7602 17.3555 12.6497 17.4832 12.4664C17.8536 11.9863 18.1425 11.4114 18.35 10.7417C18.5576 10.072 18.6613 9.37387 18.6613 8.64732C18.6613 7.92078 18.5576 7.22266 18.35 6.55298C18.1425 5.88329 17.8536 5.30837 17.4832 4.82822C17.3555 4.645 17.1927 4.53602 16.9948 4.50128C16.7969 4.46653 16.6181 4.50285 16.4584 4.61025C16.2605 4.74293 16.1488 4.91509 16.1232 5.12674C16.0977 5.33838 16.1584 5.54213 16.3052 5.73798C16.5862 6.11705 16.8017 6.55929 16.9517 7.06472C17.1017 7.57014 17.1767 8.09768 17.1767 8.64732C17.1767 9.19697 17.1001 9.72293 16.9469 10.2252C16.7937 10.7275 16.5798 11.1713 16.3052 11.5567C16.1584 11.7588 16.0977 11.9641 16.1232 12.1726C16.1488 12.3811 16.2605 12.5517 16.4584 12.6844ZM20.0022 15.1578C20.181 15.2778 20.3693 15.3189 20.5673 15.281C20.7652 15.2431 20.928 15.1325 21.0557 14.9493C21.6687 14.1154 22.146 13.1488 22.4877 12.0495C22.8292 10.9502 23 9.81611 23 8.64732C23 7.47853 22.8308 6.34133 22.4925 5.23572C22.154 4.13011 21.6751 3.16664 21.0557 2.34533C20.928 2.16211 20.7652 2.05155 20.5673 2.01365C20.3693 1.97574 20.181 2.01681 20.0022 2.13684C19.8298 2.25688 19.7308 2.41641 19.7053 2.61542C19.6798 2.81443 19.7372 3.01186 19.8777 3.20771C20.4012 3.94057 20.8051 4.77768 21.0893 5.71903C21.3734 6.66038 21.5155 7.63648 21.5155 8.64732C21.5155 9.65817 21.3702 10.6327 21.0797 11.5709C20.7892 12.5091 20.3885 13.3478 19.8777 14.087C19.7372 14.2828 19.6798 14.4802 19.7053 14.6792C19.7308 14.8782 19.8298 15.0377 20.0022 15.1578Z" fill="black" fill-opacity="0.8"/>
<path d="M2.89639 20.569C2.76868 20.569 2.6777 20.5501 2.62342 20.5122C2.56915 20.4743 2.54202 20.4047 2.54202 20.3036C2.54202 19.9182 2.69207 19.4713 2.99217 18.9627C3.29227 18.4541 3.73124 17.9629 4.3091 17.489C4.88696 17.0152 5.6005 16.6219 6.44973 16.3092C7.29895 15.9965 8.27269 15.8401 9.37094 15.8401C10.4692 15.8401 11.4413 15.9965 12.2874 16.3092C13.1334 16.6219 13.8469 17.0152 14.428 17.489C15.009 17.9629 15.448 18.4541 15.7449 18.9627C16.0418 19.4713 16.1903 19.9182 16.1903 20.3036C16.1903 20.4047 16.1632 20.4743 16.1089 20.5122C16.0546 20.5501 15.9668 20.569 15.8455 20.569H2.89639Z" fill="black" fill-opacity="0.8"/>
<path d="M9.37094 11.6704C8.90482 11.6704 8.47542 11.5361 8.08273 11.2676C7.69004 10.9991 7.37397 10.6374 7.13453 10.1825C6.89509 9.72767 6.77537 9.22224 6.77537 8.66628C6.77537 8.11663 6.89349 7.62226 7.12975 7.18318C7.366 6.74409 7.68046 6.39503 8.07315 6.136C8.46584 5.87697 8.89843 5.74746 9.37094 5.74746C9.84982 5.74746 10.2856 5.87381 10.6783 6.12652C11.071 6.37924 11.3839 6.72514 11.6169 7.16422C11.8499 7.60331 11.9665 8.09768 11.9665 8.64732C11.9665 9.20329 11.8483 9.71029 11.6121 10.1683C11.3759 10.6264 11.0614 10.9912 10.6687 11.2629C10.276 11.5345 9.84343 11.6704 9.37094 11.6704Z" fill="black" fill-opacity="0.8"/>
</svg>
