<svg width="24" height="24" viewBox="0 0 24 24" fill="none" xmlns="http://www.w3.org/2000/svg">
<path d="M14.4021 8.77838C14.2189 8.77838 14.0662 8.71972 13.944 8.60239C13.8219 8.48506 13.7608 8.34167 13.7608 8.1722C13.7608 8.00272 13.8219 7.86095 13.944 7.74688C14.0662 7.63281 14.2189 7.57578 14.4021 7.57578H19.9593C20.1358 7.57578 20.285 7.63281 20.4072 7.74688C20.5293 7.86095 20.5904 8.00272 20.5904 8.1722C20.5904 8.34167 20.5293 8.48506 20.4072 8.60239C20.285 8.71972 20.1358 8.77838 19.9593 8.77838H14.4021ZM14.4021 12.6111C14.2189 12.6111 14.0662 12.5524 13.944 12.4351C13.8219 12.3178 13.7608 12.1711 13.7608 11.9951C13.7608 11.8322 13.8219 11.6937 13.944 11.5796C14.0662 11.4655 14.2189 11.4085 14.4021 11.4085H19.9593C20.1358 11.4085 20.285 11.4655 20.4072 11.5796C20.5293 11.6937 20.5904 11.8322 20.5904 11.9951C20.5904 12.1711 20.5293 12.3178 20.4072 12.4351C20.285 12.5524 20.1358 12.6111 19.9593 12.6111H14.4021ZM14.4021 16.434C14.2189 16.434 14.0662 16.377 13.944 16.2629C13.8219 16.1489 13.7608 16.0103 13.7608 15.8473C13.7608 15.6779 13.8219 15.5329 13.944 15.4123C14.0662 15.2917 14.2189 15.2314 14.4021 15.2314H19.9593C20.1358 15.2314 20.285 15.2917 20.4072 15.4123C20.5293 15.5329 20.5904 15.6779 20.5904 15.8473C20.5904 16.0103 20.5293 16.1489 20.4072 16.2629C20.285 16.377 20.1358 16.434 19.9593 16.434H14.4021ZM3.79645 16.5024C3.63359 16.5024 3.50976 16.4535 3.42494 16.3558C3.34012 16.258 3.29771 16.1375 3.29771 15.994C3.29771 15.7594 3.38762 15.4612 3.56744 15.0995C3.74725 14.7377 4.02206 14.3727 4.39187 14.0043C4.76167 13.6361 5.22647 13.3281 5.78627 13.0804C6.34607 12.8327 7.00595 12.7089 7.76592 12.7089C8.52588 12.7089 9.18746 12.8327 9.75066 13.0804C10.3138 13.3281 10.7803 13.6361 11.1501 14.0043C11.52 14.3727 11.7948 14.7377 11.9746 15.0995C12.1544 15.4612 12.2443 15.7594 12.2443 15.994C12.2443 16.1375 12.2019 16.258 12.1171 16.3558C12.0323 16.4535 11.9084 16.5024 11.7455 16.5024H3.79645ZM7.76592 12.0244C7.15523 12.0244 6.63106 11.8028 6.19339 11.3596C5.75574 10.9164 5.53691 10.3591 5.53691 9.68768C5.53691 9.27051 5.63699 8.8892 5.83717 8.54373C6.03733 8.19827 6.30705 7.92124 6.64632 7.71266C6.98559 7.50408 7.35879 7.39979 7.76592 7.39979C8.17983 7.39979 8.55473 7.50408 8.8906 7.71266C9.22648 7.92124 9.4945 8.19827 9.69468 8.54373C9.89484 8.8892 9.99493 9.27051 9.99493 9.68768C9.99493 10.3591 9.77779 10.9164 9.34353 11.3596C8.90926 11.8028 8.38339 12.0244 7.76592 12.0244ZM3.19594 21H20.8041C21.8762 21 22.6769 20.7474 23.2061 20.2423C23.7354 19.7371 24 18.9826 24 17.9788V6.03096C24 5.02716 23.7354 4.27105 23.2061 3.76263C22.6769 3.25421 21.8762 3 20.8041 3H3.19594C2.13062 3 1.33164 3.25258 0.798984 3.75774C0.266328 4.2629 0 5.02064 0 6.03096V17.9788C0 18.9826 0.266328 19.7371 0.798984 20.2423C1.33164 20.7474 2.13062 21 3.19594 21Z" fill="black" fill-opacity="0.8"/>
</svg>
