<svg width="24" height="24" viewBox="0 0 24 24" fill="none" xmlns="http://www.w3.org/2000/svg">
<path d="M0.00798402 14.0826C0.00266134 14.3109 0.0625415 14.4888 0.187624 14.6162C0.312707 14.7436 0.471057 14.8074 0.662674 14.8074C0.859616 14.8074 1.0193 14.7436 1.14171 14.6162C1.26413 14.4888 1.32801 14.3109 1.33333 14.0826L1.32534 10.7297C1.32534 10.5386 1.40253 10.443 1.55689 10.443C1.70592 10.443 1.78043 10.5386 1.78043 10.7297V19.2115C1.78043 19.4664 1.85096 19.6615 1.99201 19.7969C2.13306 19.9323 2.3127 20 2.53093 20C2.74384 20 2.91949 19.9323 3.05788 19.7969C3.19627 19.6615 3.26547 19.4664 3.26547 19.2115V13.9472C3.26547 13.7614 3.33466 13.6685 3.47305 13.6685C3.61676 13.6685 3.68862 13.7614 3.68862 13.9472V19.2115C3.68862 19.4664 3.75915 19.6615 3.9002 19.7969C4.04125 19.9323 4.21557 20 4.42315 20C4.64138 20 4.82102 19.9323 4.96207 19.7969C5.10312 19.6615 5.17364 19.4664 5.17364 19.2115V10.7297C5.17364 10.5386 5.24816 10.443 5.3972 10.443C5.54091 10.443 5.61276 10.5386 5.61276 10.7297L5.62075 14.0826C5.62075 14.3109 5.68329 14.4888 5.80838 14.6162C5.93346 14.7436 6.09181 14.8074 6.28343 14.8074C6.48037 14.8074 6.64005 14.7436 6.76246 14.6162C6.88489 14.4888 6.9461 14.3109 6.9461 14.0826V10.7775C6.9461 10.082 6.81702 9.52314 6.55887 9.10103C6.30073 8.67894 5.9135 8.37099 5.3972 8.1772C4.8809 7.9834 4.23952 7.88651 3.47305 7.88651C2.70659 7.88651 2.06653 7.9834 1.55289 8.1772C1.03925 8.37099 0.652029 8.67894 0.391217 9.10103C0.130406 9.52314 0 10.082 0 10.7775L0.00798402 14.0826ZM1.86826 5.61672C1.86826 5.90874 1.94012 6.17687 2.08383 6.4211C2.22754 6.66534 2.42182 6.86046 2.66666 7.00646C2.91151 7.15247 3.18031 7.22548 3.47305 7.22548C3.77112 7.22548 4.04258 7.15247 4.28742 7.00646C4.53226 6.86046 4.72787 6.66534 4.87424 6.4211C5.02062 6.17687 5.09381 5.90874 5.09381 5.61672C5.09381 5.31939 5.02062 5.04861 4.87424 4.80438C4.72787 4.56015 4.53226 4.36502 4.28742 4.21901C4.04258 4.073 3.77112 4 3.47305 4C3.18031 4 2.91151 4.073 2.66666 4.21901C2.42182 4.36502 2.22754 4.56015 2.08383 4.80438C1.94012 5.04861 1.86826 5.31939 1.86826 5.61672ZM17.0539 14.0826C17.0539 14.3109 17.1164 14.4888 17.2415 14.6162C17.3666 14.7436 17.5276 14.8074 17.7245 14.8074C17.9108 14.8074 18.0679 14.7436 18.1956 14.6162C18.3233 14.4888 18.3872 14.3109 18.3872 14.0826V10.7297C18.3872 10.5386 18.4617 10.443 18.6108 10.443C18.7545 10.443 18.8263 10.5386 18.8263 10.7297V19.2115C18.8263 19.4664 18.8982 19.6615 19.0419 19.7969C19.1856 19.9323 19.3666 20 19.5848 20C19.7924 20 19.9653 19.9323 20.1037 19.7969C20.2422 19.6615 20.3114 19.4664 20.3114 19.2115V13.9472C20.3114 13.7614 20.3832 13.6685 20.5269 13.6685C20.6653 13.6685 20.7345 13.7614 20.7345 13.9472V19.2115C20.7345 19.4664 20.8064 19.6615 20.9501 19.7969C21.0938 19.9323 21.2694 20 21.477 20C21.6952 20 21.8735 19.9323 22.0119 19.7969C22.1503 19.6615 22.2195 19.4664 22.2195 19.2115V10.7297C22.2195 10.5386 22.2967 10.443 22.451 10.443C22.6001 10.443 22.6746 10.5386 22.6746 10.7297V14.0826C22.6746 14.3109 22.7372 14.4888 22.8623 14.6162C22.9874 14.7436 23.1484 14.8074 23.3453 14.8074C23.5422 14.8074 23.7006 14.7436 23.8203 14.6162C23.9401 14.4888 24 14.3109 24 14.0826V10.7775C24 10.082 23.8709 9.52314 23.6127 9.10103C23.3546 8.67894 22.9674 8.37099 22.451 8.1772C21.9348 7.9834 21.2934 7.88651 20.5269 7.88651C19.7605 7.88651 19.1191 7.9834 18.6028 8.1772C18.0865 8.37099 17.6992 8.67894 17.4411 9.10103C17.183 9.52314 17.0539 10.082 17.0539 10.7775V14.0826ZM18.9142 5.61672C18.9142 5.90874 18.9874 6.17687 19.1337 6.4211C19.2801 6.66534 19.4757 6.86046 19.7205 7.00646C19.9654 7.15247 20.2342 7.22548 20.5269 7.22548C20.825 7.22548 21.0964 7.15247 21.3413 7.00646C21.5861 6.86046 21.7817 6.66534 21.9281 6.4211C22.0745 6.17687 22.1476 5.90874 22.1476 5.61672C22.1476 5.31939 22.0745 5.04861 21.9281 4.80438C21.7817 4.56015 21.5861 4.36502 21.3413 4.21901C21.0964 4.073 20.825 4 20.5269 4C20.2342 4 19.9654 4.073 19.7205 4.21901C19.4757 4.36502 19.2801 4.56015 19.1337 4.80438C18.9874 5.04861 18.9142 5.31939 18.9142 5.61672ZM8.93409 12.9995C9.21621 12.9995 9.45573 12.9013 9.65265 12.7048C9.84963 12.5084 9.94812 12.2694 9.94812 11.988C9.94812 11.7066 9.84963 11.4677 9.65265 11.2713C9.45573 11.0748 9.21621 10.9766 8.93409 10.9766C8.65203 10.9766 8.41118 11.0748 8.21153 11.2713C8.01195 11.4677 7.91216 11.7066 7.91216 11.988C7.91216 12.2694 8.01195 12.5084 8.21153 12.7048C8.41118 12.9013 8.65203 12.9995 8.93409 12.9995ZM12.008 12.9995C12.2901 12.9995 12.5309 12.9013 12.7305 12.7048C12.9301 12.5084 13.0299 12.2694 13.0299 11.988C13.0299 11.7066 12.9301 11.4677 12.7305 11.2713C12.5309 11.0748 12.2901 10.9766 12.008 10.9766C11.7259 10.9766 11.4863 11.0748 11.2894 11.2713C11.0925 11.4677 10.994 11.7066 10.994 11.988C10.994 12.2694 11.0925 12.5084 11.2894 12.7048C11.4863 12.9013 11.7259 12.9995 12.008 12.9995ZM15.0818 12.9995C15.3639 12.9995 15.6034 12.9013 15.8004 12.7048C15.9973 12.5084 16.0958 12.2694 16.0958 11.988C16.0958 11.7066 15.9973 11.4677 15.8004 11.2713C15.6034 11.0748 15.3639 10.9766 15.0818 10.9766C14.7997 10.9766 14.5602 11.0748 14.3633 11.2713C14.1663 11.4677 14.0678 11.7066 14.0678 11.988C14.0678 12.2694 14.1663 12.5084 14.3633 12.7048C14.5602 12.9013 14.7997 12.9995 15.0818 12.9995Z" fill="black" fill-opacity="0.8"/>
</svg>
