<svg width="24" height="24" viewBox="0 0 24 24" fill="none" xmlns="http://www.w3.org/2000/svg">
<path d="M8.00213 18H15.9979C16.5029 18 16.8562 17.9255 17.0578 17.7764C17.2594 17.6274 17.3602 17.406 17.3602 17.1123C17.3602 16.6852 17.2361 16.2336 16.9878 15.7575C16.7395 15.2814 16.383 14.8354 15.9183 14.4193C15.4536 14.0033 14.8913 13.6652 14.2313 13.4049C13.5714 13.1446 12.8276 13.0144 12 13.0144C11.1767 13.0144 10.435 13.1446 9.77506 13.4049C9.11513 13.6652 8.55173 14.0033 8.08485 14.4193C7.61802 14.8354 7.26152 15.2814 7.01537 15.7575C6.76922 16.2336 6.64615 16.6852 6.64615 17.1123C6.64615 17.406 6.74695 17.6274 6.94856 17.7764C7.15012 17.9255 7.50131 18 8.00213 18ZM12.0064 11.8198C12.4605 11.8198 12.8807 11.6896 13.2669 11.4294C13.653 11.1691 13.9639 10.8165 14.1995 10.3715C14.435 9.92658 14.5528 9.42602 14.5528 8.86985C14.5528 8.32257 14.435 7.83203 14.1995 7.39821C13.9639 6.9644 13.653 6.62291 13.2669 6.37375C12.8807 6.12458 12.4605 6 12.0064 6C11.5522 6 11.1321 6.12681 10.7459 6.38042C10.3597 6.63404 10.0488 6.97886 9.81326 7.4149C9.57771 7.85094 9.45994 8.34037 9.45994 8.8832C9.45994 9.43492 9.57771 9.93214 9.81326 10.3748C10.0488 10.8176 10.3597 11.1691 10.7459 11.4294C11.1321 11.6896 11.5522 11.8198 12.0064 11.8198ZM1.12042 18H5.95226C5.78674 17.7464 5.70822 17.4416 5.71671 17.0856C5.7252 16.7297 5.80371 16.3559 5.95226 15.9644C6.1008 15.5728 6.30556 15.1935 6.56655 14.8265C6.82757 14.4594 7.12995 14.1357 7.47371 13.8554C7.11722 13.6062 6.70874 13.4004 6.24828 13.238C5.7878 13.0756 5.26048 12.9944 4.66631 12.9944C3.94907 12.9944 3.30292 13.1179 2.72785 13.3648C2.15279 13.6118 1.6626 13.9366 1.25729 14.3392C0.851989 14.7419 0.541114 15.1813 0.324669 15.6574C0.108223 16.1334 0 16.6029 0 17.0656C0 17.3637 0.0859417 17.594 0.257825 17.7564C0.429709 17.9188 0.717242 18 1.12042 18ZM4.66631 11.9733C5.06525 11.9733 5.43236 11.8598 5.76764 11.6329C6.10292 11.406 6.37242 11.0979 6.57613 10.7086C6.77983 10.3192 6.88167 9.88431 6.88167 9.40377C6.88167 8.92324 6.77983 8.49499 6.57613 8.11901C6.37242 7.74304 6.10186 7.44716 5.76445 7.23136C5.42706 7.01557 5.06101 6.90767 4.66631 6.90767C4.27586 6.90767 3.91194 7.01779 3.57454 7.23804C3.23714 7.45828 2.96446 7.75751 2.7565 8.1357C2.54854 8.5139 2.44669 8.94104 2.45093 9.41712C2.45093 9.89321 2.55279 10.3248 2.7565 10.7119C2.96022 11.099 3.23077 11.406 3.56817 11.6329C3.90557 11.8598 4.27162 11.9733 4.66631 11.9733ZM22.8796 18C23.2828 18 23.5703 17.9188 23.7422 17.7564C23.9141 17.594 24 17.3637 24 17.0656C24 16.6029 23.8928 16.1334 23.6785 15.6574C23.4642 15.1813 23.1533 14.7419 22.7459 14.3392C22.3385 13.9366 21.8472 13.6118 21.2721 13.3648C20.6971 13.1179 20.0509 12.9944 19.3337 12.9944C18.7395 12.9944 18.2122 13.0756 17.7517 13.238C17.2913 13.4004 16.8828 13.6062 16.5263 13.8554C16.87 14.1357 17.1724 14.4594 17.4334 14.8265C17.6945 15.1935 17.8992 15.5728 18.0477 15.9644C18.1963 16.3559 18.2748 16.7297 18.2833 17.0856C18.2918 17.4416 18.2133 17.7464 18.0477 18H22.8796ZM19.3337 11.9733C19.7284 11.9733 20.0944 11.8598 20.4319 11.6329C20.7692 11.406 21.0398 11.099 21.2435 10.7119C21.4472 10.3248 21.549 9.89321 21.549 9.41712C21.549 8.94104 21.4461 8.5139 21.2403 8.1357C21.0345 7.75751 20.7629 7.45828 20.4255 7.23804C20.088 7.01779 19.7241 6.90767 19.3337 6.90767C18.939 6.90767 18.5729 7.01557 18.2355 7.23136C17.8982 7.44716 17.6276 7.74304 17.4239 8.11901C17.2202 8.49499 17.1183 8.92324 17.1183 9.40377C17.1183 9.88431 17.2202 10.3192 17.4239 10.7086C17.6276 11.0979 17.8971 11.406 18.2324 11.6329C18.5676 11.8598 18.9347 11.9733 19.3337 11.9733Z" fill="black" fill-opacity="0.8"/>
</svg>
