<svg width="24" height="24" viewBox="0 0 24 24" fill="none" xmlns="http://www.w3.org/2000/svg">
<path d="M11.0564 20H21.88C23.2933 20 24 19.5392 24 18.6177C24 18.0533 23.8276 17.4514 23.4829 16.8121C23.1382 16.1728 22.6398 15.5695 21.9878 15.0022C21.3357 14.4349 20.5457 13.9727 19.6179 13.6155C18.6901 13.2584 17.6402 13.0799 16.4682 13.0799C15.302 13.0799 14.2549 13.2584 13.3271 13.6155C12.3993 13.9727 11.6093 14.4349 10.9573 15.0022C10.3052 15.5695 9.80683 16.1728 9.46215 16.8121C9.11741 17.4514 8.94503 18.0533 8.94503 18.6177C8.94503 19.5392 9.64881 20 11.0564 20ZM10.6427 18.6955C10.5335 18.6955 10.4546 18.6782 10.4057 18.6436C10.3569 18.6091 10.3325 18.5457 10.3325 18.4536C10.3325 18.1023 10.4661 17.6948 10.7332 17.2311C11.0004 16.7675 11.3953 16.3197 11.9182 15.8877C12.4409 15.4557 13.0829 15.0972 13.8442 14.8121C14.6054 14.527 15.48 14.3844 16.4682 14.3844C17.4564 14.3844 18.3325 14.527 19.0965 14.8121C19.8607 15.0972 20.5041 15.4557 21.0269 15.8877C21.5497 16.3197 21.9447 16.7675 22.2118 17.2311C22.479 17.6948 22.6125 18.1023 22.6125 18.4536C22.6125 18.5457 22.5881 18.6091 22.5393 18.6436C22.4905 18.6782 22.4086 18.6955 22.2937 18.6955H10.6427ZM16.4768 12.0086C17.1605 12.0086 17.7838 11.8243 18.3468 11.4557C18.9098 11.0871 19.3594 10.5961 19.6955 9.98272C20.0315 9.36933 20.1996 8.69115 20.1996 7.94817C20.1996 7.21095 20.033 6.54428 19.6998 5.94816C19.3666 5.35205 18.9185 4.87833 18.3555 4.527C17.7925 4.17567 17.1663 4 16.4768 4C15.7932 4 15.1698 4.17855 14.6068 4.53564C14.0438 4.89273 13.5942 5.37077 13.2581 5.96976C12.922 6.56875 12.754 7.23398 12.754 7.96545C12.754 8.70267 12.922 9.37797 13.2581 9.99136C13.5942 10.6048 14.0438 11.0943 14.6068 11.46C15.1698 11.8258 15.7932 12.0086 16.4768 12.0086ZM16.4768 10.7041C16.0574 10.7041 15.6711 10.5817 15.3178 10.3369C14.9644 10.0922 14.68 9.76242 14.4646 9.34773C14.2492 8.93305 14.1415 8.47228 14.1415 7.96545C14.1415 7.46437 14.2463 7.01368 14.456 6.61339C14.6657 6.21311 14.9487 5.89489 15.3049 5.65875C15.661 5.42261 16.0517 5.30454 16.4768 5.30454C16.9077 5.30454 17.2998 5.41973 17.6531 5.65011C18.0065 5.88049 18.288 6.19582 18.4976 6.59612C18.7074 6.9964 18.8122 7.44709 18.8122 7.94817C18.8122 8.455 18.7059 8.91721 18.4933 9.33477C18.2808 9.75234 17.9978 10.085 17.6445 10.3326C17.2912 10.5803 16.9019 10.7041 16.4768 10.7041ZM1.74937 20H8.51418C8.30735 19.8848 8.13788 19.7092 8.00574 19.473C7.8736 19.2369 7.82189 18.9863 7.85061 18.7214H1.54255C1.45063 18.7214 1.38456 18.7027 1.34435 18.6652C1.30413 18.6278 1.28402 18.5687 1.28402 18.4881C1.28402 17.9525 1.42334 17.437 1.70197 16.9417C1.98061 16.4464 2.36409 16.0029 2.85242 15.6113C3.34075 15.2196 3.90089 14.91 4.53285 14.6825C5.16481 14.455 5.83411 14.3412 6.54075 14.3412C6.90268 14.3412 7.25169 14.37 7.58778 14.4277C7.92387 14.4852 8.24559 14.5687 8.55295 14.6782C8.86029 14.7876 9.15473 14.9258 9.43629 15.0929C9.56842 14.9201 9.71491 14.7574 9.87574 14.6048C10.0366 14.4521 10.2147 14.3096 10.4101 14.1771C10.0366 13.9294 9.64163 13.7235 9.22512 13.5594C8.8086 13.3952 8.37629 13.2714 7.92818 13.1879C7.48007 13.1044 7.01759 13.0626 6.54075 13.0626C5.63877 13.0626 4.79281 13.2124 4.00287 13.5119C3.21292 13.8114 2.51777 14.2203 1.91741 14.7386C1.31705 15.257 0.847394 15.8445 0.508438 16.5011C0.169479 17.1577 0 17.8459 0 18.5659C0 19.0439 0.146499 19.4025 0.439497 19.6414C0.732495 19.8805 1.16912 20 1.74937 20ZM6.54937 12.0778C7.1411 12.0778 7.68114 11.9179 8.16947 11.5983C8.6578 11.2786 9.04846 10.8495 9.34143 10.311C9.63446 9.7725 9.78097 9.17495 9.78097 8.51836C9.78097 7.87905 9.6359 7.29733 9.34575 6.77322C9.05566 6.2491 8.66644 5.83154 8.17809 5.52052C7.68976 5.2095 7.14685 5.05399 6.54937 5.05399C5.95763 5.05399 5.41615 5.21094 4.92494 5.52484C4.43374 5.83873 4.04165 6.26062 3.74865 6.79049C3.45565 7.32037 3.31203 7.90209 3.31777 8.53564C3.31777 9.18646 3.46427 9.7797 3.75726 10.3153C4.05026 10.851 4.44093 11.2786 4.92926 11.5983C5.41759 11.9179 5.95763 12.0778 6.54937 12.0778ZM6.54937 10.7905C6.19892 10.7905 5.87575 10.6897 5.57988 10.4881C5.28401 10.2865 5.04703 10.0144 4.86894 9.67171C4.69084 9.32901 4.60179 8.95032 4.60179 8.53564C4.60179 8.13247 4.6894 7.76386 4.86463 7.42981C5.03985 7.09575 5.2754 6.83081 5.57127 6.63499C5.86714 6.43916 6.19317 6.34125 6.54937 6.34125C6.9113 6.34125 7.24021 6.43773 7.53608 6.63067C7.83195 6.82362 8.0675 7.08424 8.24272 7.41253C8.41794 7.74082 8.50555 8.10943 8.50555 8.51836C8.50555 8.93881 8.41651 9.32182 8.23841 9.66739C8.06031 10.013 7.82189 10.2865 7.52315 10.4881C7.22441 10.6897 6.89981 10.7905 6.54937 10.7905Z" fill="black" fill-opacity="0.8"/>
</svg>
