<svg width="24" height="24" viewBox="0 0 24 24" fill="none" xmlns="http://www.w3.org/2000/svg">
<path d="M2.69047 20H12.6384C12.5469 19.8099 12.4969 19.6021 12.4884 19.3767C12.4799 19.1513 12.4984 18.9218 12.5441 18.6882H2.71617C2.28775 18.6882 1.95787 18.5809 1.72652 18.3664C1.49518 18.1518 1.37951 17.8327 1.37951 17.409V7.59913C1.37951 7.17545 1.49518 6.85497 1.72652 6.6377C1.95787 6.42043 2.28775 6.31179 2.71617 6.31179H17.4966C17.9193 6.31179 18.2478 6.42043 18.482 6.6377C18.7162 6.85497 18.8332 7.17545 18.8332 7.59913V8.38131C19.0732 8.38675 19.3046 8.40712 19.5274 8.44243C19.7501 8.47773 19.9786 8.54427 20.2128 8.64204V7.5258C20.2128 6.6893 19.9886 6.05921 19.5402 5.63552C19.0918 5.21184 18.4191 5 17.5223 5H2.69047C1.79936 5 1.12817 5.21048 0.676901 5.63145C0.225634 6.05242 0 6.68387 0 7.5258V17.4823C0 18.3188 0.225634 18.9476 0.676901 19.3686C1.12817 19.7895 1.79936 20 2.69047 20ZM3.30739 17.5801H12.964C13.1639 17.1673 13.4438 16.7844 13.8036 16.4313C14.1635 16.0782 14.582 15.7673 15.0589 15.4984C15.5359 15.2295 16.0514 15.0163 16.6055 14.8588C16.1771 14.5383 15.8344 14.1295 15.5773 13.6326C15.3203 13.1355 15.1918 12.5937 15.1918 12.0071C15.186 11.4802 15.2903 10.9859 15.5045 10.5242C15.7187 10.0625 16.0129 9.66459 16.3871 9.33053C16.7612 8.99647 17.1853 8.7534 17.6595 8.60131V8.16133C17.6595 7.67246 17.4081 7.42803 16.9054 7.42803H3.30739C2.80472 7.42803 2.55338 7.67246 2.55338 8.16133V16.8468C2.55338 17.3357 2.80472 17.5801 3.30739 17.5801ZM14.6862 20H22.9547C23.2803 20 23.5359 19.9321 23.7215 19.7963C23.9072 19.6605 24 19.4704 24 19.226C24 18.8458 23.8801 18.4479 23.6402 18.0323C23.4002 17.6168 23.0561 17.2257 22.6077 16.8591C22.1592 16.4924 21.6151 16.195 20.9753 15.9668C20.3356 15.7387 19.6187 15.6247 18.8247 15.6247C18.025 15.6247 17.3053 15.7387 16.6655 15.9668C16.0257 16.195 15.4802 16.4924 15.0289 16.8591C14.5776 17.2257 14.2335 17.6168 13.9964 18.0323C13.7594 18.4479 13.6409 18.8458 13.6409 19.226C13.6409 19.4704 13.7337 19.6605 13.9194 19.7963C14.105 19.9321 14.3606 20 14.6862 20ZM18.8247 14.5818C19.2645 14.5818 19.6701 14.4677 20.0414 14.2395C20.4127 14.0114 20.7126 13.7018 20.9411 13.3107C21.1696 12.9196 21.2838 12.4796 21.2838 11.9908C21.2838 11.5128 21.1696 11.0837 20.9411 10.7034C20.7126 10.3232 20.4113 10.0244 20.0371 9.80718C19.663 9.5899 19.2589 9.48126 18.8247 9.48126C18.3849 9.48126 17.9779 9.59126 17.6037 9.81125C17.2296 10.0312 16.9282 10.3327 16.6998 10.7157C16.4713 11.0986 16.357 11.5291 16.357 12.0071C16.357 12.4905 16.4713 12.9264 16.6998 13.3148C16.9282 13.7032 17.2296 14.0114 17.6037 14.2395C17.9779 14.4677 18.3849 14.5818 18.8247 14.5818Z" fill="black" fill-opacity="0.8"/>
</svg>
