<svg width="24" height="24" viewBox="0 0 24 24" fill="none" xmlns="http://www.w3.org/2000/svg">
<path d="M1.47369 18H9.03462C10.017 18 10.5083 17.657 10.5083 16.9711C10.5083 16.5509 10.388 16.1029 10.1474 15.627C9.90679 15.1511 9.55892 14.702 9.10379 14.2798C8.64865 13.8575 8.09726 13.5134 7.44962 13.2476C6.80202 12.9818 6.07119 12.8489 5.25715 12.8489C4.4391 12.8489 3.70627 12.9818 3.05865 13.2476C2.41103 13.5134 1.85965 13.8575 1.40451 14.2798C0.949376 14.702 0.601507 15.1511 0.360903 15.627C0.120301 16.1029 0 16.5509 0 16.9711C0 17.657 0.491229 18 1.47369 18ZM1.19098 17.0289C1.11078 17.0289 1.05363 17.0161 1.01955 16.9904C0.985466 16.9646 0.968425 16.9175 0.968425 16.8489C0.968425 16.5874 1.06166 16.284 1.24812 15.9389C1.43459 15.5938 1.71028 15.2605 2.07519 14.9389C2.4401 14.6174 2.88923 14.3505 3.42256 14.1382C3.95589 13.926 4.56742 13.8199 5.25715 13.8199C5.94686 13.8199 6.55738 13.926 7.08874 14.1382C7.62005 14.3505 8.06816 14.6174 8.43309 14.9389C8.79801 15.2605 9.07371 15.5938 9.26017 15.9389C9.44664 16.284 9.53987 16.5874 9.53987 16.8489C9.53987 16.9175 9.52283 16.9646 9.48875 16.9904C9.45467 17.0161 9.39952 17.0289 9.32331 17.0289H1.19098ZM5.25715 11.9614C5.73033 11.9614 6.16441 11.8242 6.5594 11.5498C6.95438 11.2755 7.26917 10.91 7.50376 10.4534C7.73835 9.99678 7.85564 9.49196 7.85564 8.93891C7.85564 8.39014 7.73935 7.89389 7.50677 7.45016C7.2742 7.00643 6.96142 6.6538 6.56845 6.39228C6.17545 6.13076 5.73835 6 5.25715 6C4.77996 6 4.34386 6.1329 3.94887 6.39871C3.55389 6.66452 3.2391 7.02036 3.00451 7.46624C2.76993 7.91211 2.65464 8.40729 2.65865 8.95177C2.65865 9.50054 2.77595 10.0032 3.01053 10.4598C3.24512 10.9164 3.5589 11.2808 3.95189 11.5531C4.34487 11.8253 4.77996 11.9614 5.25715 11.9614ZM5.25715 10.9904C4.96041 10.9904 4.68873 10.8992 4.44211 10.717C4.19549 10.5348 3.998 10.2894 3.84963 9.98071C3.70126 9.67203 3.62707 9.32905 3.62707 8.95177C3.62306 8.57878 3.69524 8.2433 3.84361 7.94534C3.99198 7.64738 4.18948 7.41051 4.4361 7.23473C4.68271 7.05895 4.9564 6.97106 5.25715 6.97106C5.55389 6.97106 5.82557 7.05681 6.07219 7.2283C6.31881 7.39979 6.5163 7.63452 6.66466 7.93248C6.81302 8.23044 6.8872 8.56592 6.8872 8.93891C6.8872 9.31618 6.81201 9.66024 6.66164 9.97106C6.51127 10.2819 6.31278 10.5295 6.06617 10.7138C5.81956 10.8982 5.54988 10.9904 5.25715 10.9904ZM11.994 12.8489C11.4928 12.8489 11.0216 12.9035 10.5804 13.0129C10.1393 13.1222 9.73233 13.2712 9.3594 13.4598C9.49975 13.5713 9.63308 13.687 9.75939 13.8071C9.8857 13.9271 10.005 14.0515 10.1173 14.1801C10.386 14.0729 10.6777 13.9861 10.9925 13.9196C11.3073 13.8531 11.6411 13.8199 11.994 13.8199C12.6837 13.8199 13.2952 13.926 13.8286 14.1382C14.3619 14.3505 14.811 14.6174 15.176 14.9389C15.5409 15.2605 15.8165 15.5938 16.003 15.9389C16.1895 16.284 16.2827 16.5874 16.2827 16.8489C16.2827 16.9175 16.2657 16.9646 16.2316 16.9904C16.1975 17.0161 16.1404 17.0289 16.0602 17.0289H11.2542C11.2501 17.2047 11.2301 17.373 11.194 17.5338C11.1579 17.6945 11.0917 17.8499 10.9955 18H15.7715C16.7579 18 17.2511 17.657 17.2511 16.9711C17.2511 16.5509 17.1308 16.1029 16.8903 15.627C16.6496 15.1511 16.3017 14.702 15.8466 14.2798C15.3915 13.8575 14.8401 13.5134 14.1925 13.2476C13.5449 12.9818 12.812 12.8489 11.994 12.8489ZM12 11.9614C12.4772 11.9614 12.9123 11.8242 13.3053 11.5498C13.6983 11.2755 14.0121 10.91 14.2466 10.4534C14.4812 9.99678 14.5985 9.49196 14.5985 8.93891C14.5985 8.39014 14.4822 7.89389 14.2497 7.45016C14.0171 7.00643 13.7043 6.6538 13.3113 6.39228C12.9183 6.13076 12.4812 6 12 6C11.5228 6 11.0877 6.1329 10.6948 6.39871C10.3017 6.66452 9.98797 7.02036 9.75342 7.46624C9.51883 7.91211 9.40153 8.40729 9.40153 8.95177C9.40153 9.50054 9.51883 10.0032 9.75342 10.4598C9.98797 10.9164 10.3017 11.2808 10.6948 11.5531C11.0877 11.8253 11.5228 11.9614 12 11.9614ZM12 10.9904C11.7073 10.9904 11.4366 10.8992 11.188 10.717C10.9394 10.5348 10.7409 10.2894 10.5925 9.98071C10.4441 9.67203 10.3699 9.32905 10.3699 8.95177C10.3699 8.57878 10.4431 8.2433 10.5895 7.94534C10.7358 7.64738 10.9333 7.41051 11.182 7.23473C11.4306 7.05895 11.7033 6.97106 12 6.97106C12.3007 6.97106 12.5744 7.05681 12.821 7.2283C13.0677 7.39979 13.2642 7.63452 13.4106 7.93248C13.5569 8.23044 13.6301 8.56592 13.6301 8.93891C13.6301 9.31618 13.5559 9.66024 13.4075 9.97106C13.2591 10.2819 13.0617 10.5295 12.8151 10.7138C12.5685 10.8982 12.2968 10.9904 12 10.9904ZM18.7429 12.8489C18.2376 12.8489 17.7644 12.9046 17.3233 13.016C16.8822 13.1276 16.4752 13.2776 16.1023 13.4662C16.2426 13.5777 16.377 13.6934 16.5053 13.8135C16.6336 13.9335 16.7519 14.06 16.8601 14.193C17.1288 14.0772 17.4205 13.9861 17.7353 13.9196C18.0501 13.8531 18.386 13.8199 18.7429 13.8199C19.4326 13.8199 20.0441 13.926 20.5775 14.1382C21.1108 14.3505 21.5589 14.6174 21.9218 14.9389C22.2847 15.2605 22.5604 15.5938 22.7489 15.9389C22.9374 16.284 23.0316 16.5874 23.0316 16.8489C23.0316 16.9175 23.0146 16.9646 22.9805 16.9904C22.9464 17.0161 22.8893 17.0289 22.809 17.0289H17.997C17.993 17.2047 17.973 17.373 17.9369 17.5338C17.9008 17.6945 17.8326 17.8499 17.7324 18H22.5203C23.5068 18 24 17.657 24 16.9711C24 16.5509 23.8797 16.1029 23.6391 15.627C23.3985 15.1511 23.0507 14.702 22.5955 14.2798C22.1404 13.8575 21.589 13.5134 20.9414 13.2476C20.2938 12.9818 19.5609 12.8489 18.7429 12.8489ZM18.7429 11.9614C19.2201 11.9614 19.6552 11.8242 20.0481 11.5498C20.4411 11.2755 20.7549 10.91 20.9895 10.4534C21.2241 9.99678 21.3414 9.49196 21.3414 8.93891C21.3414 8.39014 21.2251 7.89389 20.9925 7.45016C20.7599 7.00643 20.4471 6.6538 20.0542 6.39228C19.6612 6.13076 19.2241 6 18.7429 6C18.2657 6 17.8306 6.1329 17.4376 6.39871C17.0446 6.66452 16.7308 7.02036 16.4962 7.46624C16.2617 7.91211 16.1444 8.40729 16.1444 8.95177C16.1484 9.50054 16.2667 10.0032 16.4993 10.4598C16.7318 10.9164 17.0446 11.2808 17.4376 11.5531C17.8306 11.8253 18.2657 11.9614 18.7429 11.9614ZM18.7429 10.9904C18.4501 10.9904 18.1805 10.8992 17.9338 10.717C17.6872 10.5348 17.4887 10.2894 17.3384 9.98071C17.188 9.67203 17.1128 9.32905 17.1128 8.95177C17.1128 8.57878 17.187 8.2433 17.3353 7.94534C17.4837 7.64738 17.6812 7.41051 17.9278 7.23473C18.1744 7.05895 18.4461 6.97106 18.7429 6.97106C19.0436 6.97106 19.3173 7.05681 19.5639 7.2283C19.8106 7.39979 20.007 7.63452 20.1534 7.93248C20.2998 8.23044 20.373 8.56592 20.373 8.93891C20.373 9.31618 20.2988 9.66024 20.1504 9.97106C20.002 10.2819 19.8045 10.5295 19.5579 10.7138C19.3113 10.8982 19.0396 10.9904 18.7429 10.9904Z" fill="black" fill-opacity="0.8"/>
</svg>
