<svg width="24" height="24" viewBox="0 0 24 24" fill="none" xmlns="http://www.w3.org/2000/svg">
<path d="M3.57822 21H15.9548C16.447 21 16.8331 20.8865 17.1131 20.6594C17.393 20.4323 17.533 20.1205 17.533 19.7239C17.533 19.1098 17.353 18.4606 16.9931 17.7762C16.6332 17.0917 16.1163 16.4504 15.4425 15.8524C14.7688 15.2543 13.9535 14.7682 12.9967 14.394C12.04 14.0197 10.9617 13.8326 9.76189 13.8326C8.56822 13.8326 7.493 14.0197 6.53622 14.394C5.57945 14.7682 4.76265 15.2543 4.08583 15.8524C3.40901 16.4504 2.89217 17.0917 2.5353 17.7762C2.17843 18.4606 2 19.1098 2 19.7239C2 20.1205 2.13998 20.4323 2.41994 20.6594C2.69989 20.8865 3.08599 21 3.57822 21ZM9.77112 12.1151C10.4295 12.1151 11.0386 11.928 11.5985 11.5538C12.1584 11.1796 12.6091 10.6727 12.9506 10.0331C13.2921 9.39339 13.4629 8.67378 13.4629 7.87421C13.4629 7.08743 13.2921 6.3822 12.9506 5.75853C12.6091 5.13486 12.1584 4.64392 11.5985 4.28571C11.0386 3.92751 10.4295 3.7484 9.77112 3.7484C9.11275 3.7484 8.50361 3.9307 7.9437 4.29531C7.38379 4.65992 6.93309 5.15565 6.5916 5.78252C6.25012 6.40938 6.07938 7.11301 6.07938 7.89339C6.07938 8.68657 6.25012 9.40139 6.5916 10.0379C6.93309 10.6743 7.38379 11.1796 7.9437 11.5538C8.50361 11.928 9.11275 12.1151 9.77112 12.1151ZM18.779 9.89872C19.0066 9.89872 19.1866 9.83156 19.3189 9.69724C19.4512 9.56291 19.5174 9.40299 19.5174 9.21748C19.5174 9.1983 19.5174 9.17751 19.5174 9.15512C19.5174 9.13273 19.5174 9.11514 19.5174 9.10235C19.5174 8.83369 19.5943 8.60182 19.7481 8.40672C19.9018 8.21163 20.1418 8.00214 20.4679 7.77825C20.9109 7.47122 21.277 7.15139 21.5662 6.81877C21.8554 6.48615 22 6.03199 22 5.45629C22 4.92537 21.8631 4.47761 21.5893 4.113C21.3155 3.7484 20.9571 3.47175 20.514 3.28305C20.071 3.09435 19.588 3 19.065 3C18.2714 3 17.6238 3.16791 17.1223 3.50373C16.6209 3.83955 16.3055 4.22815 16.1763 4.66951C16.1517 4.74627 16.1332 4.82303 16.1209 4.89978C16.1086 4.97655 16.1025 5.0565 16.1025 5.13966C16.1025 5.35715 16.1701 5.52186 16.3055 5.63379C16.4409 5.74573 16.5855 5.80171 16.7393 5.80171C16.8931 5.80171 17.0238 5.76652 17.1315 5.69616C17.2392 5.6258 17.333 5.53305 17.413 5.41791L17.5792 5.18763C17.6899 5.00213 17.8161 4.84382 17.9576 4.71268C18.0991 4.58156 18.2575 4.48081 18.4329 4.41045C18.6082 4.34008 18.7974 4.3049 19.0005 4.3049C19.425 4.3049 19.7634 4.41844 20.0157 4.64552C20.268 4.8726 20.3941 5.16844 20.3941 5.53305C20.3941 5.85927 20.2957 6.12633 20.0988 6.33422C19.9019 6.54211 19.6004 6.79318 19.1943 7.08743C18.862 7.3241 18.5867 7.58636 18.3682 7.87421C18.1498 8.16205 18.0407 8.54265 18.0407 9.016C18.0407 9.03518 18.0407 9.05597 18.0407 9.07836C18.0407 9.10075 18.0407 9.12154 18.0407 9.14073C18.0407 9.64606 18.2868 9.89872 18.779 9.89872ZM18.7513 12.758C19.022 12.758 19.2558 12.6621 19.4527 12.4702C19.6496 12.2783 19.7481 12.0416 19.7481 11.7601C19.7481 11.4787 19.6496 11.242 19.4527 11.0501C19.2558 10.8582 19.022 10.7623 18.7513 10.7623C18.4805 10.7623 18.2483 10.8598 18.0545 11.0549C17.8607 11.25 17.7637 11.4851 17.7637 11.7601C17.7637 12.0352 17.8622 12.2703 18.0591 12.4654C18.256 12.6605 18.4867 12.758 18.7513 12.758Z" fill="black" fill-opacity="0.8"/>
</svg>
