<svg width="24" height="24" viewBox="0 0 24 24" fill="none" xmlns="http://www.w3.org/2000/svg">
<path d="M4.20357 16.2385C3.20611 16.2385 2.70739 15.7659 2.70739 14.8207V9.19881C2.70739 8.25367 3.20611 7.7811 4.20357 7.7811H10.0051C11.0093 7.7811 11.5114 8.25367 11.5114 9.19881V14.8207C11.5114 15.7659 11.0093 16.2385 10.0051 16.2385H4.20357ZM3.92876 15.2901H10.2901C10.1883 14.9837 9.99323 14.6985 9.70485 14.4346C9.41647 14.1706 9.05175 13.9555 8.6107 13.7893C8.16965 13.623 7.67092 13.5399 7.11452 13.5399C6.54454 13.5399 6.04073 13.623 5.60307 13.7893C5.1654 13.9555 4.80238 14.1706 4.514 14.4346C4.22562 14.6985 4.03054 14.9837 3.92876 15.2901ZM7.10434 12.8262C7.56575 12.8262 7.95591 12.66 8.27482 12.3276C8.59374 11.9951 8.7532 11.5845 8.7532 11.0956C8.7532 10.6328 8.59374 10.2368 8.27482 9.90766C7.95591 9.57849 7.56575 9.41391 7.10434 9.41391C6.64972 9.41391 6.26295 9.57849 5.94403 9.90766C5.62511 10.2368 5.46566 10.6328 5.46566 11.0956C5.46566 11.5845 5.62511 11.9951 5.94403 12.3276C6.26295 12.66 6.64972 12.8262 7.10434 12.8262ZM17.486 16.1309C16.6311 16.1309 15.8813 15.9598 15.2366 15.6176C14.592 15.2754 14.0916 14.7947 13.7354 14.1754C13.3791 13.5562 13.201 12.836 13.201 12.0147C13.201 11.1934 13.3808 10.4715 13.7405 9.849C14.1001 9.22651 14.5988 8.7409 15.2366 8.39218C15.8745 8.04346 16.6141 7.8691 17.4555 7.8691C18.2697 7.8691 18.9873 8.02553 19.6082 8.33841C20.229 8.65128 20.7159 9.088 21.0687 9.64856C21.4216 10.2091 21.5981 10.8577 21.5981 11.5942C21.5981 12.396 21.4199 13.038 21.0637 13.5204C20.7075 14.0027 20.2342 14.2439 19.6439 14.2439C19.0874 14.2439 18.6905 14.0451 18.453 13.6475C18.1341 14.0451 17.7167 14.2439 17.201 14.2439C16.6311 14.2439 16.1663 14.0386 15.8066 13.6279C15.447 13.2173 15.2672 12.6828 15.2672 12.0244C15.2672 11.3857 15.4453 10.8577 15.8015 10.4405C16.1578 10.0234 16.6141 9.81478 17.1705 9.81478C17.4215 9.81478 17.6353 9.85389 17.8117 9.93211C17.9882 10.0103 18.1409 10.1179 18.2698 10.2548V10.1765C18.3376 9.93537 18.5073 9.81478 18.7787 9.81478C18.9279 9.81478 19.0535 9.8653 19.1552 9.96633C19.257 10.0674 19.3079 10.1961 19.3079 10.3525V12.8555C19.3079 12.9989 19.3418 13.1032 19.4097 13.1683C19.4775 13.2336 19.5895 13.2662 19.7456 13.2662C19.9966 13.2662 20.1951 13.1228 20.341 12.836C20.4869 12.5492 20.5599 12.1548 20.5599 11.6529C20.5599 11.0923 20.4292 10.6035 20.168 10.1863C19.9067 9.76915 19.5437 9.44324 19.079 9.20859C18.6141 8.97393 18.0729 8.85661 17.4555 8.85661C16.8312 8.85661 16.2833 8.99023 15.8117 9.25747C15.3402 9.52472 14.972 9.89626 14.7074 10.3721C14.4428 10.8479 14.3105 11.3987 14.3105 12.0244C14.3105 12.6632 14.4428 13.214 14.7074 13.6769C14.972 14.1396 15.352 14.4948 15.8474 14.7425C16.3427 14.9902 16.9296 15.1141 17.6081 15.1141C17.9339 15.1141 18.1867 15.0929 18.3665 15.0505C18.5463 15.0082 18.7142 14.974 18.8703 14.9479C18.9449 14.9349 19.006 14.9234 19.0534 14.9136C19.1009 14.9039 19.1518 14.899 19.2061 14.899C19.3418 14.899 19.4538 14.943 19.542 15.031C19.6303 15.1189 19.6744 15.2281 19.6744 15.3586C19.6744 15.5932 19.5217 15.7757 19.2163 15.906C19.0127 15.9842 18.7583 16.0413 18.453 16.0771C18.1476 16.113 17.8253 16.1309 17.486 16.1309ZM17.3639 13.2173C17.6489 13.2173 17.8762 13.1065 18.0459 12.8849C18.2155 12.6632 18.3003 12.3601 18.3003 11.9756C18.3003 11.6171 18.2172 11.3335 18.0509 11.1249C17.8847 10.9164 17.6591 10.8121 17.3741 10.8121C17.0891 10.8121 16.8635 10.9164 16.6972 11.1249C16.531 11.3335 16.4478 11.6268 16.4478 12.0049C16.4478 12.383 16.5293 12.6795 16.6921 12.8946C16.855 13.1097 17.0789 13.2173 17.3639 13.2173ZM3.19594 21H20.8041C21.8762 21 22.6769 20.7474 23.2061 20.2423C23.7354 19.7371 24 18.9826 24 17.9788V6.03096C24 5.02716 23.7354 4.27105 23.2061 3.76263C22.6769 3.25421 21.8762 3 20.8041 3H3.19594C2.13062 3 1.33164 3.25258 0.798984 3.75774C0.266328 4.2629 0 5.02064 0 6.03096V17.9788C0 18.9826 0.266328 19.7371 0.798984 20.2423C1.33164 20.7474 2.13062 21 3.19594 21Z" fill="black" fill-opacity="0.8"/>
</svg>
