<svg version="1.2" xmlns="http://www.w3.org/2000/svg" viewBox="0 0 24 24" width="24" height="24">
	<style>
		.s0 { fill: #ffffff } 
	</style>
	<path class="s0" d="m12 24c-6.62 0-12-5.38-12-12 0-6.62 5.38-12 12-12 6.62 0 12 5.38 12 12 0 6.62-5.38 12-12 12zm0-2.37c5.33 0 9.64-4.3 9.64-9.63 0-5.33-4.31-9.64-9.64-9.64-5.33 0-9.64 4.31-9.64 9.64 0 5.33 4.31 9.63 9.64 9.63zm-0.01-14.24c-0.83 0-1.49-0.68-1.49-1.49 0-0.82 0.66-1.49 1.49-1.49 0.82 0 1.49 0.67 1.49 1.49 0 0.81-0.67 1.49-1.49 1.49zm0 0.75c1.64 0 3.92-0.28 5.03-0.45q0.16-0.03 0.31-0.03c0.28 0 0.58 0.23 0.58 0.65 0 0.3-0.18 0.55-0.47 0.63-0.38 0.12-2.98 0.41-3.3 0.48-0.33 0.07-0.51 0.34-0.51 0.73 0 0.6 0 2.49 0.12 3.36 0.13 0.85 1.14 4.98 1.18 5.16 0.11 0.44-0.14 0.85-0.6 0.85-0.31 0-0.54-0.19-0.65-0.61-0.19-0.85-0.92-3.7-1.13-4.39-0.17-0.5-0.28-0.67-0.56-0.67-0.28 0-0.41 0.17-0.55 0.67-0.23 0.7-0.94 3.56-1.15 4.39q-0.17 0.62-0.65 0.61c-0.45 0-0.72-0.41-0.59-0.85 0.05-0.18 1.03-4.31 1.17-5.16 0.15-0.87 0.15-2.76 0.15-3.36-0.01-0.39-0.21-0.66-0.53-0.73-0.33-0.06-2.93-0.36-3.29-0.48-0.3-0.06-0.49-0.33-0.49-0.63 0-0.42 0.29-0.65 0.58-0.65q0.16 0 0.32 0.03c1.1 0.17 3.41 0.45 5.03 0.45z"/>
</svg>