<svg width="24" height="24" viewBox="0 0 24 24" fill="none" xmlns="http://www.w3.org/2000/svg">
<path d="M6.5 14.8564C6.5 15.1717 6.59461 15.416 6.78384 15.5894C6.97306 15.7628 7.22119 15.8495 7.52824 15.8495C7.82814 15.8495 8.07449 15.7628 8.26728 15.5894C8.46008 15.416 8.55647 15.1717 8.55647 14.8564V10.3164C8.55647 10.0705 8.67429 9.94756 8.90994 9.94756C9.14557 9.94756 9.26339 10.0705 9.26339 10.3164V21.9123C9.26339 22.2591 9.37228 22.5271 9.59006 22.7162C9.80785 22.9054 10.081 23 10.4094 23C10.745 23 11.0217 22.9054 11.2395 22.7162C11.4573 22.5271 11.5662 22.2591 11.5662 21.9123V15.1118C11.5662 14.8154 11.709 14.6673 11.9946 14.6673C12.2874 14.6673 12.4338 14.8154 12.4338 15.1118V21.9123C12.4338 22.2591 12.5427 22.5271 12.7605 22.7162C12.9783 22.9054 13.2514 23 13.5798 23C13.9154 23 14.1921 22.9054 14.4099 22.7162C14.6277 22.5271 14.7366 22.2591 14.7366 21.9123V10.3164C14.7366 10.0705 14.8544 9.94756 15.0901 9.94756C15.3257 9.94756 15.4435 10.0705 15.4435 10.3164V14.8564C15.4435 15.1717 15.5399 15.416 15.7327 15.5894C15.9255 15.7628 16.1719 15.8495 16.4718 15.8495C16.7788 15.8495 17.0269 15.7628 17.2162 15.5894C17.4054 15.416 17.5 15.1717 17.5 14.8564V10.1462C17.5 8.90399 17.0305 7.95974 16.0915 7.31342C15.1525 6.6671 13.7869 6.34394 11.9946 6.34394C10.2095 6.34394 8.84745 6.6671 7.90847 7.31342C6.96949 7.95974 6.5 8.90399 6.5 10.1462V14.8564ZM11.9946 5.43594C12.4588 5.43594 12.8801 5.33348 13.2585 5.12855C13.637 4.92362 13.9387 4.65406 14.1636 4.31986C14.3885 3.98567 14.501 3.61995 14.501 3.2227C14.501 2.81284 14.3885 2.43924 14.1636 2.10189C13.9387 1.76455 13.637 1.49656 13.2585 1.29794C12.8801 1.09931 12.4588 1 11.9946 1C11.5305 1 11.1092 1.09931 10.7308 1.29794C10.3523 1.49656 10.0524 1.76455 9.83106 2.10189C9.60971 2.43924 9.49903 2.81284 9.49903 3.2227C9.49903 3.62626 9.60971 3.99513 9.83106 4.32933C10.0524 4.66351 10.3523 4.9315 10.7308 5.13327C11.1092 5.33505 11.5305 5.43594 11.9946 5.43594Z" fill="black" fill-opacity="0.8"/>
</svg>
