<svg width="24" height="24" viewBox="0 0 24 24" fill="none" xmlns="http://www.w3.org/2000/svg">
<path d="M5.22728 21H18.7727C19.3115 21 19.7341 20.8815 20.0404 20.6446C20.3468 20.4076 20.5 20.0823 20.5 19.6685C20.5 19.0277 20.3031 18.3503 19.9092 17.6362C19.5152 16.9221 18.9496 16.253 18.2121 15.629C17.4748 15.005 16.5825 14.4977 15.5353 14.1073C14.4882 13.7168 13.3081 13.5216 11.995 13.5216C10.6886 13.5216 9.5118 13.7168 8.46466 14.1073C7.41752 14.4977 6.52358 15.005 5.78283 15.629C5.04209 16.253 4.47643 16.9221 4.08586 17.6362C3.69529 18.3503 3.5 19.0277 3.5 19.6685C3.5 20.0823 3.6532 20.4076 3.9596 20.6446C4.266 20.8815 4.68856 21 5.22728 21ZM12.0051 11.7297C12.7256 11.7297 13.3923 11.5345 14.005 11.144C14.6178 10.7536 15.1111 10.2247 15.4849 9.55727C15.8586 8.88987 16.0455 8.13903 16.0455 7.30477C16.0455 6.48386 15.8586 5.74804 15.4849 5.09732C15.1111 4.44661 14.6178 3.93437 14.005 3.56062C13.3923 3.18687 12.7256 3 12.0051 3C11.2845 3 10.6179 3.19021 10.0051 3.57063C9.39227 3.95106 8.89901 4.4683 8.52527 5.12235C8.15153 5.77641 7.96466 6.51056 7.96466 7.3248C7.96466 8.15238 8.15153 8.8982 8.52527 9.56227C8.89901 10.2263 9.39227 10.7536 10.0051 11.144C10.6179 11.5345 11.2845 11.7297 12.0051 11.7297Z" fill="black" fill-opacity="0.8"/>
</svg>
