<svg width="24" height="24" viewBox="0 0 24 24" fill="none" xmlns="http://www.w3.org/2000/svg">
<path d="M10.4485 11.9444C11.2154 11.9444 11.9146 11.7385 12.5461 11.3268C13.1777 10.9152 13.6819 10.3668 14.0589 9.68174C14.4359 8.99668 14.6244 8.23926 14.6244 7.40947C14.6244 6.58611 14.4376 5.84155 14.0638 5.17579C13.69 4.51003 13.1874 3.98096 12.5559 3.58857C11.9243 3.19619 11.2218 3 10.4485 3C9.68809 3 8.99049 3.19941 8.35572 3.59822C7.72095 3.99704 7.21507 4.53093 6.83809 5.19991C6.46109 5.86889 6.27259 6.61184 6.27259 7.42876C6.27904 8.25212 6.47075 9.00633 6.84775 9.69139C7.22474 10.3764 7.72901 10.9232 8.36055 11.3317C8.9921 11.7401 9.68809 11.9444 10.4485 11.9444ZM10.4485 10.4874C9.97809 10.4874 9.5447 10.3507 9.14837 10.0773C8.75205 9.80396 8.43305 9.4357 8.19139 8.97256C7.94973 8.50942 7.8289 7.99482 7.8289 7.42876C7.8289 6.86914 7.94812 6.36579 8.18656 5.91874C8.425 5.47168 8.74238 5.11629 9.1387 4.85256C9.53503 4.58882 9.97164 4.45696 10.4485 4.45696C10.9318 4.45696 11.3717 4.58561 11.768 4.8429C12.1644 5.1002 12.4801 5.45238 12.7153 5.89944C12.9505 6.3465 13.0681 6.84984 13.0681 7.40947C13.0681 7.97552 12.9489 8.49173 12.7105 8.95808C12.472 9.42444 12.1547 9.79591 11.7583 10.0725C11.362 10.3491 10.9254 10.4874 10.4485 10.4874ZM4.37795 20.8694L16.9928 20.8501C16.793 20.5736 16.6899 20.268 16.6834 19.9335C16.677 19.8499 16.6721 19.7647 16.6689 19.6778C16.6657 19.591 16.6641 19.5025 16.6641 19.4125H3.91396C3.78508 19.4125 3.69325 19.3932 3.63847 19.3546C3.5837 19.316 3.55631 19.2452 3.55631 19.1423C3.55631 18.7499 3.70775 18.2948 4.01063 17.777C4.31351 17.2592 4.75656 16.7591 5.33977 16.2767C5.92298 15.7942 6.64314 15.3938 7.50024 15.0754C8.35733 14.757 9.34009 14.5978 10.4485 14.5978C11.4087 14.5978 12.2722 14.7264 13.0391 14.9837C13.806 15.241 14.4666 15.5691 15.0208 15.9679C15.575 16.3667 16.0196 16.7784 16.3548 17.2029V15.9486C16.0454 15.7235 15.7764 15.4629 15.5476 15.167C15.3188 14.8711 15.14 14.5495 15.0111 14.2022C14.386 13.8741 13.6901 13.6152 12.9232 13.4254C12.1563 13.2357 11.3314 13.1408 10.4485 13.1408C9.13388 13.1408 7.95617 13.3402 6.91541 13.739C5.87465 14.1378 4.98856 14.654 4.25712 15.2876C3.5257 15.9212 2.96665 16.595 2.57999 17.309C2.19333 18.0231 2 18.6952 2 19.3256C2 20.3548 2.79265 20.8694 4.37795 20.8694ZM19.0613 9.60937C18.5136 9.60937 18.0157 9.74124 17.5679 10.005C17.12 10.2687 16.7655 10.6225 16.5046 11.0663C16.2436 11.5102 16.1131 12.0023 16.1131 12.5426C16.1131 13.1666 16.2822 13.7262 16.6206 14.2215C16.9589 14.7168 17.4116 15.077 17.9787 15.3022V19.8563C17.9787 19.9464 18.0238 20.0429 18.1141 20.1458L18.8873 20.9273C18.9325 20.9724 18.9856 20.9965 19.0469 20.9997C19.1081 21.0029 19.1645 20.9787 19.216 20.9273L20.6854 19.4607C20.7305 19.4157 20.753 19.3626 20.753 19.3015C20.753 19.2404 20.7305 19.1873 20.6854 19.1423L19.7767 18.2256L21.0333 17.0003C21.0785 16.9553 21.0994 16.9022 21.0962 16.8411C21.0929 16.78 21.0655 16.7205 21.014 16.6626L19.7767 15.4275C20.4856 15.1445 21.0333 14.7521 21.42 14.2504C21.8067 13.7487 22 13.1794 22 12.5426C22 12.0023 21.8679 11.5102 21.6037 11.0663C21.3394 10.6225 20.985 10.2687 20.5404 10.005C20.0957 9.74124 19.6027 9.60937 19.0613 9.60937ZM19.0517 11.0181C19.303 11.0181 19.5157 11.1065 19.6897 11.2834C19.8637 11.4603 19.9507 11.671 19.9507 11.9154C19.9507 12.1792 19.8637 12.3995 19.6897 12.5764C19.5157 12.7532 19.303 12.8417 19.0517 12.8417C18.8004 12.8417 18.5845 12.7532 18.4041 12.5764C18.2236 12.3995 18.1334 12.1792 18.1334 11.9154C18.1334 11.671 18.222 11.4603 18.3992 11.2834C18.5764 11.1065 18.7939 11.0181 19.0517 11.0181Z" fill="black" fill-opacity="0.8"/>
</svg>
