<svg width="24" height="24" viewBox="0 0 24 24" fill="none" xmlns="http://www.w3.org/2000/svg">
<path d="M8.05229 18H15.9414C16.9665 18 17.4791 17.657 17.4791 16.9711C17.4791 16.5509 17.3535 16.1029 17.1025 15.627C16.8514 15.1511 16.4885 14.702 16.0136 14.2798C15.5387 13.8575 14.9634 13.5134 14.2876 13.2476C13.6119 12.9818 12.8494 12.8489 12 12.8489C11.1464 12.8489 10.3818 12.9818 9.70603 13.2476C9.03032 13.5134 8.45502 13.8575 7.98012 14.2798C7.50522 14.702 7.14226 15.1511 6.89123 15.627C6.64016 16.1029 6.51462 16.5509 6.51462 16.9711C6.51462 17.657 7.02718 18 8.05229 18ZM7.7573 17.0289C7.67363 17.0289 7.61401 17.0161 7.57845 16.9904C7.54288 16.9646 7.5251 16.9175 7.5251 16.8489C7.5251 16.5874 7.62238 16.284 7.81694 15.9389C8.0115 15.5938 8.29917 15.2605 8.67993 14.9389C9.06065 14.6174 9.52927 14.3505 10.0858 14.1382C10.6423 13.926 11.2803 13.8199 12 13.8199C12.7197 13.8199 13.3567 13.926 13.9111 14.1382C14.4655 14.3505 14.933 14.6174 15.3138 14.9389C15.6945 15.2605 15.9822 15.5938 16.1768 15.9389C16.3713 16.284 16.4686 16.5874 16.4686 16.8489C16.4686 16.9175 16.4508 16.9646 16.4153 16.9904C16.3797 17.0161 16.3222 17.0289 16.2426 17.0289H7.7573ZM12 11.9614C12.4979 11.9614 12.9519 11.8242 13.3619 11.5498C13.7719 11.2755 14.0993 10.91 14.3441 10.4534C14.5889 9.99678 14.7113 9.49196 14.7113 8.93891C14.7113 8.39014 14.5899 7.89389 14.3472 7.45016C14.1046 7.00643 13.7782 6.6538 13.3682 6.39228C12.9582 6.13076 12.5021 6 12 6C11.5021 6 11.0481 6.1329 10.638 6.39871C10.228 6.66452 9.90061 7.02036 9.65584 7.46624C9.41106 7.91211 9.28867 8.40729 9.28867 8.95177C9.28867 9.50054 9.41106 10.0032 9.65584 10.4598C9.90061 10.9164 10.228 11.2808 10.638 11.5531C11.0481 11.8253 11.5021 11.9614 12 11.9614ZM12 10.9904C11.6946 10.9904 11.4132 10.8992 11.1558 10.717C10.8985 10.5348 10.6914 10.2894 10.5345 9.98071C10.3776 9.67203 10.2992 9.32905 10.2992 8.95177C10.2992 8.57878 10.3766 8.2433 10.5314 7.94534C10.6862 7.64738 10.8922 7.41051 11.1495 7.23473C11.4069 7.05895 11.6904 6.97106 12 6.97106C12.3138 6.97106 12.5994 7.05681 12.8567 7.2283C13.114 7.39979 13.319 7.63452 13.4717 7.93248C13.6245 8.23044 13.7008 8.56592 13.7008 8.93891C13.7008 9.31618 13.6234 9.66024 13.4686 9.97106C13.3138 10.2819 13.1077 10.5295 12.8504 10.7138C12.5931 10.8982 12.3096 10.9904 12 10.9904ZM1.27406 18H6.20083C6.0502 17.9143 5.92677 17.7835 5.83054 17.6077C5.7343 17.4319 5.69665 17.2454 5.71756 17.0482H1.12343C1.05649 17.0482 1.00837 17.0343 0.97908 17.0064C0.949791 16.9785 0.935146 16.9346 0.935146 16.8746C0.935146 16.4759 1.03661 16.0922 1.23954 15.7235C1.44246 15.3548 1.72175 15.0246 2.0774 14.7331C2.43305 14.4416 2.841 14.2112 3.30125 14.0418C3.7615 13.8725 4.24895 13.7878 4.76359 13.7878C5.02719 13.7878 5.28137 13.8092 5.52614 13.8521C5.77091 13.895 6.00522 13.9571 6.22907 14.0386C6.4529 14.12 6.66735 14.2229 6.8724 14.3473C6.96863 14.2187 7.07532 14.0976 7.19245 13.9839C7.30959 13.8703 7.43931 13.7642 7.5816 13.6656C7.30961 13.4812 7.02195 13.3279 6.71861 13.2058C6.41526 13.0836 6.10041 12.9914 5.77405 12.9293C5.44769 12.8671 5.11087 12.836 4.76359 12.836C4.10669 12.836 3.49058 12.9475 2.91527 13.1704C2.33995 13.3933 1.83368 13.6977 1.39644 14.0836C0.959202 14.4694 0.617152 14.9067 0.370292 15.3955C0.123431 15.8842 0 16.3966 0 16.9325C0 17.2883 0.106694 17.5552 0.320083 17.7331C0.533472 17.911 0.851463 18 1.27406 18ZM4.76987 12.1029C5.20083 12.1029 5.59413 11.9839 5.94978 11.746C6.30543 11.508 6.58995 11.1886 6.80331 10.7878C7.01673 10.3869 7.12343 9.94212 7.12343 9.45338C7.12343 8.97749 7.01778 8.54448 6.80646 8.15434C6.59519 7.7642 6.31173 7.45338 5.95606 7.22187C5.60041 6.99035 5.20501 6.8746 4.76987 6.8746C4.33891 6.8746 3.94456 6.99143 3.58681 7.22508C3.22907 7.45873 2.94351 7.77277 2.73012 8.1672C2.51673 8.56163 2.41213 8.99464 2.41632 9.46624C2.41632 9.9507 2.52301 10.3923 2.7364 10.791C2.94979 11.1897 3.23431 11.508 3.58995 11.746C3.9456 11.9839 4.33891 12.1029 4.76987 12.1029ZM4.76987 11.1447C4.51464 11.1447 4.27928 11.0697 4.0638 10.9196C3.84832 10.7696 3.67573 10.567 3.54602 10.3119C3.41631 10.0568 3.35146 9.77492 3.35146 9.46624C3.35146 9.16613 3.41527 8.89175 3.54289 8.64309C3.6705 8.39443 3.84205 8.19721 4.05753 8.05145C4.27301 7.90568 4.51046 7.8328 4.76987 7.8328C5.03347 7.8328 5.27301 7.90461 5.48849 8.04823C5.70397 8.19186 5.87552 8.38585 6.00313 8.63023C6.13074 8.8746 6.19455 9.14898 6.19455 9.45338C6.19455 9.76635 6.1297 10.0514 5.99999 10.3087C5.87028 10.5659 5.69664 10.7696 5.47907 10.9196C5.2615 11.0697 5.0251 11.1447 4.76987 11.1447ZM22.7197 18C23.1464 18 23.4665 17.911 23.6799 17.7331C23.8933 17.5552 24 17.2883 24 16.9325C24 16.3966 23.8766 15.8842 23.6297 15.3955C23.3828 14.9067 23.0408 14.4694 22.6035 14.0836C22.1663 13.6977 21.66 13.3933 21.0847 13.1704C20.5094 12.9475 19.8933 12.836 19.2363 12.836C18.8891 12.836 18.5512 12.8671 18.2228 12.9293C17.8943 12.9914 17.5795 13.0836 17.2782 13.2058C16.977 13.3279 16.6903 13.4812 16.4184 13.6656C16.5606 13.7642 16.6893 13.8703 16.8044 13.9839C16.9194 14.0976 17.0272 14.2187 17.1276 14.3473C17.3326 14.2229 17.5471 14.12 17.7709 14.0386C17.9947 13.9571 18.229 13.895 18.4738 13.8521C18.7186 13.8092 18.9728 13.7878 19.2363 13.7878C19.7468 13.7878 20.2322 13.8725 20.6925 14.0418C21.1527 14.2112 21.5607 14.4416 21.9163 14.7331C22.2719 15.0246 22.5523 15.3548 22.7573 15.7235C22.9623 16.0922 23.0648 16.4759 23.0648 16.8746C23.0648 16.9346 23.0491 16.9785 23.0177 17.0064C22.9864 17.0343 22.9393 17.0482 22.8765 17.0482H18.2824C18.3033 17.2454 18.2646 17.4319 18.1663 17.6077C18.068 17.7835 17.9435 17.9143 17.7928 18H22.7197ZM19.2301 12.1029C19.6611 12.1029 20.0543 11.9839 20.41 11.746C20.7657 11.508 21.0502 11.1897 21.2635 10.791C21.477 10.3923 21.5837 9.9507 21.5837 9.46624C21.5837 8.99464 21.477 8.56163 21.2635 8.1672C21.0502 7.77277 20.7657 7.45873 20.41 7.22508C20.0543 6.99143 19.6611 6.8746 19.2301 6.8746C18.7949 6.8746 18.3995 6.99035 18.0439 7.22187C17.6883 7.45338 17.4048 7.7642 17.1935 8.15434C16.9822 8.54448 16.8766 8.97749 16.8766 9.45338C16.8766 9.94212 16.9833 10.3869 17.1966 10.7878C17.41 11.1886 17.6945 11.508 18.0502 11.746C18.4058 11.9839 18.7991 12.1029 19.2301 12.1029ZM19.2301 11.1447C18.9749 11.1447 18.7385 11.0697 18.5209 10.9196C18.3033 10.7696 18.1297 10.5659 18 10.3087C17.8703 10.0514 17.8054 9.76635 17.8054 9.45338C17.8054 9.14898 17.8692 8.8746 17.9968 8.63023C18.1245 8.38585 18.296 8.19186 18.5115 8.04823C18.7269 7.90461 18.9665 7.8328 19.2301 7.8328C19.4895 7.8328 19.7269 7.90568 19.9425 8.05145C20.1579 8.19721 20.3295 8.39443 20.4571 8.64309C20.5847 8.89175 20.6485 9.16613 20.6485 9.46624C20.6485 9.77492 20.5837 10.0568 20.454 10.3119C20.3242 10.567 20.1516 10.7696 19.9362 10.9196C19.7207 11.0697 19.4853 11.1447 19.2301 11.1447Z" fill="black" fill-opacity="0.8"/>
</svg>
