<svg width="24" height="24" viewBox="0 0 24 24" fill="none" xmlns="http://www.w3.org/2000/svg">
<path d="M14.4021 8.77838H19.9593C20.1358 8.77838 20.285 8.71972 20.4072 8.60239C20.5293 8.48506 20.5904 8.34167 20.5904 8.1722C20.5904 8.00272 20.5293 7.86095 20.4072 7.74688C20.285 7.63281 20.1358 7.57578 19.9593 7.57578H14.4021C14.2189 7.57578 14.0662 7.63281 13.944 7.74688C13.8219 7.86095 13.7608 8.00272 13.7608 8.1722C13.7608 8.34167 13.8219 8.48506 13.944 8.60239C14.0662 8.71972 14.2189 8.77838 14.4021 8.77838ZM14.4021 12.6111H19.9593C20.1358 12.6111 20.285 12.5524 20.4072 12.4351C20.5293 12.3178 20.5904 12.1711 20.5904 11.9951C20.5904 11.8322 20.5293 11.6937 20.4072 11.5796C20.285 11.4655 20.1358 11.4085 19.9593 11.4085H14.4021C14.2189 11.4085 14.0662 11.4655 13.944 11.5796C13.8219 11.6937 13.7608 11.8322 13.7608 11.9951C13.7608 12.1711 13.8219 12.3178 13.944 12.4351C14.0662 12.5524 14.2189 12.6111 14.4021 12.6111ZM14.4021 16.434H19.9593C20.1358 16.434 20.285 16.377 20.4072 16.2629C20.5293 16.1489 20.5904 16.0103 20.5904 15.8473C20.5904 15.6779 20.5293 15.5329 20.4072 15.4123C20.285 15.2917 20.1358 15.2314 19.9593 15.2314H14.4021C14.2189 15.2314 14.0662 15.2917 13.944 15.4123C13.8219 15.5329 13.7608 15.6779 13.7608 15.8473C13.7608 16.0103 13.8219 16.1489 13.944 16.2629C14.0662 16.377 14.2189 16.434 14.4021 16.434ZM3.79645 16.434H11.7455C11.9084 16.434 12.0323 16.3852 12.1171 16.2874C12.2019 16.1896 12.2443 16.069 12.2443 15.9256C12.2443 15.6975 12.1544 15.4009 11.9746 15.0359C11.7948 14.6708 11.52 14.3042 11.1501 13.936C10.7803 13.5677 10.3138 13.2597 9.75066 13.012C9.18746 12.7643 8.52588 12.6404 7.76592 12.6404C7.00595 12.6404 6.34607 12.7643 5.78627 13.012C5.22647 13.2597 4.76167 13.5677 4.39187 13.936C4.02206 14.3042 3.74725 14.6708 3.56744 15.0359C3.38762 15.4009 3.29771 15.6975 3.29771 15.9256C3.29771 16.069 3.34012 16.1896 3.42494 16.2874C3.50976 16.3852 3.63359 16.434 3.79645 16.434ZM7.76592 11.956C8.38339 11.956 8.90926 11.7344 9.34353 11.2912C9.77779 10.8479 9.99493 10.2906 9.99493 9.61924C9.99493 9.20207 9.89484 8.82076 9.69468 8.47529C9.4945 8.12982 9.22648 7.8528 8.8906 7.64422C8.55473 7.43564 8.17983 7.33134 7.76592 7.33134C7.35879 7.33134 6.98559 7.43564 6.64632 7.64422C6.30705 7.8528 6.03733 8.12982 5.83717 8.47529C5.63699 8.82076 5.53691 9.20207 5.53691 9.61924C5.53691 10.2906 5.75574 10.8479 6.19339 11.2912C6.63106 11.7344 7.15523 11.956 7.76592 11.956ZM3.19594 21H20.8041C21.8762 21 22.6769 20.7474 23.2061 20.2423C23.7354 19.7371 24 18.9826 24 17.9788V6.03096C24 5.02716 23.7354 4.27105 23.2061 3.76263C22.6769 3.25421 21.8762 3 20.8041 3H3.19594C2.13062 3 1.33164 3.25258 0.798984 3.75774C0.266328 4.2629 0 5.02064 0 6.03096V17.9788C0 18.9826 0.266328 19.7371 0.798984 20.2423C1.33164 20.7474 2.13062 21 3.19594 21ZM3.21629 19.4258C2.70739 19.4258 2.31723 19.2971 2.0458 19.0397C1.77439 18.7822 1.63868 18.3993 1.63868 17.8908V6.11896C1.63868 5.61054 1.77439 5.22597 2.0458 4.96524C2.31723 4.70451 2.70739 4.57415 3.21629 4.57415H20.7837C21.2859 4.57415 21.6744 4.70451 21.9492 4.96524C22.224 5.22597 22.3614 5.61054 22.3614 6.11896V17.8908C22.3614 18.3993 22.224 18.7822 21.9492 19.0397C21.6744 19.2971 21.2859 19.4258 20.7837 19.4258H3.21629Z" fill="black" fill-opacity="0.8"/>
</svg>
