<svg width="24" height="24" viewBox="0 0 24 24" fill="none" xmlns="http://www.w3.org/2000/svg">
<path d="M1.30176 18H8.97785C9.46269 18 9.80188 17.9255 9.99543 17.7764C10.1889 17.6274 10.2857 17.406 10.2857 17.1123C10.2857 16.6852 10.1665 16.2336 9.92822 15.7575C9.68986 15.2814 9.3476 14.8354 8.90143 14.4193C8.45531 14.0033 7.91545 13.6652 7.28187 13.4049C6.64833 13.1446 5.93431 13.0144 5.1398 13.0144C4.34938 13.0144 3.63738 13.1446 3.00382 13.4049C2.37026 13.6652 1.82939 14.0033 1.38121 14.4193C0.933027 14.8354 0.590781 15.2814 0.354469 15.7575C0.118156 16.2336 0 16.6852 0 17.1123C0 17.406 0.096766 17.6274 0.290298 17.7764C0.48383 17.9255 0.820983 18 1.30176 18ZM5.14592 11.8198C5.58187 11.8198 5.98522 11.6896 6.35597 11.4294C6.72675 11.1691 7.0252 10.8165 7.25133 10.3715C7.47746 9.92658 7.59052 9.42602 7.59052 8.86985C7.59052 8.32257 7.47746 7.83203 7.25133 7.39821C7.0252 6.9644 6.72675 6.62291 6.35597 6.37375C5.98522 6.12458 5.58187 6 5.14592 6C4.70996 6 4.30659 6.12681 3.93583 6.38042C3.56506 6.63404 3.26662 6.97886 3.04049 7.4149C2.81436 7.85094 2.7013 8.34037 2.7013 8.8832C2.7013 9.43492 2.81436 9.93214 3.04049 10.3748C3.26662 10.8176 3.56506 11.1691 3.93583 11.4294C4.30659 11.6896 4.70996 11.8198 5.14592 11.8198ZM12.0031 13.0144C11.4815 13.0144 10.9936 13.0756 10.5393 13.198C10.0851 13.3203 9.6705 13.4838 9.29564 13.6885C9.82938 14.1424 10.2562 14.6641 10.576 15.2536C10.8958 15.8431 11.0558 16.4627 11.0558 17.1123C11.0558 17.4594 10.9865 17.7553 10.848 18H15.8411C16.3219 18 16.659 17.9255 16.8526 17.7764C17.0461 17.6274 17.1429 17.406 17.1429 17.1123C17.1429 16.6852 17.0247 16.2336 16.7884 15.7575C16.5521 15.2814 16.2098 14.8354 15.7616 14.4193C15.3135 14.0033 14.7726 13.6652 14.1391 13.4049C13.5055 13.1446 12.7935 13.0144 12.0031 13.0144ZM12.0031 11.8198C12.4431 11.8198 12.8485 11.6896 13.2192 11.4294C13.59 11.1691 13.8874 10.8165 14.1115 10.3715C14.3356 9.92658 14.4476 9.42602 14.4476 8.86985C14.4476 8.32257 14.3346 7.83203 14.1085 7.39821C13.8824 6.9644 13.5839 6.62291 13.2132 6.37375C12.8424 6.12458 12.439 6 12.0031 6C11.5712 6 11.1688 6.12681 10.796 6.38042C10.4232 6.63404 10.1237 6.97886 9.89762 7.4149C9.67148 7.85094 9.56046 8.34037 9.56455 8.8832C9.56455 9.43492 9.6766 9.93214 9.90068 10.3748C10.1248 10.8176 10.4222 11.1691 10.793 11.4294C11.1638 11.6896 11.5671 11.8198 12.0031 11.8198ZM18.8541 13.0144C18.3366 13.0144 17.8508 13.0756 17.3965 13.198C16.9422 13.3203 16.5276 13.4816 16.1528 13.6819C16.6906 14.1357 17.1194 14.6585 17.4393 15.2502C17.7591 15.842 17.919 16.4627 17.919 17.1123C17.919 17.4594 17.8498 17.7553 17.7112 18H22.6922C23.177 18 23.5162 17.9255 23.7097 17.7764C23.9032 17.6274 24 17.406 24 17.1123C24 16.6852 23.8808 16.2336 23.6425 15.7575C23.4041 15.2814 23.0619 14.8354 22.6157 14.4193C22.1696 14.0033 21.6298 13.6652 20.9962 13.4049C20.3626 13.1446 19.6486 13.0144 18.8541 13.0144ZM18.8602 11.8198C19.2961 11.8198 19.6995 11.6896 20.0703 11.4294C20.4411 11.1691 20.7395 10.8165 20.9656 10.3715C21.1918 9.92658 21.3048 9.42602 21.3048 8.86985C21.3048 8.32257 21.1918 7.83203 20.9656 7.39821C20.7395 6.9644 20.4411 6.62291 20.0703 6.37375C19.6995 6.12458 19.2961 6 18.8602 6C18.4242 6 18.0209 6.12681 17.6501 6.38042C17.2794 6.63404 16.9809 6.97886 16.7548 7.4149C16.5287 7.85094 16.4156 8.34037 16.4156 8.8832C16.4156 9.43492 16.5287 9.93214 16.7548 10.3748C16.9809 10.8176 17.2794 11.1691 17.6501 11.4294C18.0209 11.6896 18.4242 11.8198 18.8602 11.8198Z" fill="black" fill-opacity="0.8"/>
</svg>
