<svg width="24" height="24" viewBox="0 0 24 24" fill="none" xmlns="http://www.w3.org/2000/svg">
<path d="M14.4786 12.5217C13.6139 12.5217 12.8067 12.6135 12.0569 12.797C11.3071 12.9805 10.6215 13.2292 10 13.5429C10.7296 14.1368 11.3122 14.8643 11.7478 15.7253C12.1835 16.5862 12.4014 17.5172 12.4014 18.5184C12.4014 19.0389 12.3406 19.5328 12.2191 20H20.8418C21.6388 20 22.1978 19.8882 22.5187 19.6646C22.8396 19.441 23 19.109 23 18.6686C23 18.0278 22.8041 17.3504 22.4123 16.6362C22.0205 15.9221 21.4531 15.253 20.71 14.629C19.967 14.005 19.0703 13.4978 18.0199 13.1074C16.9695 12.7169 15.789 12.5217 14.4786 12.5217ZM14.4786 10.7297C15.2013 10.7297 15.8701 10.5345 16.4848 10.144C17.0995 9.75357 17.5943 9.22467 17.9692 8.55731C18.3441 7.88988 18.5315 7.13904 18.5315 6.30478C18.5315 5.48387 18.3441 4.74805 17.9692 4.09733C17.5943 3.44661 17.0995 2.93437 16.4848 2.56063C15.8701 2.18688 15.2013 2 14.4786 2C13.7558 2 13.0871 2.19021 12.4723 2.57063C11.8576 2.95105 11.3628 3.46829 10.9879 4.12235C10.613 4.77641 10.4256 5.51056 10.4256 6.3248C10.4256 7.15239 10.613 7.89823 10.9879 8.56233C11.3628 9.22635 11.8576 9.75357 12.4723 10.144C13.0871 10.5345 13.7558 10.7297 14.4786 10.7297Z" fill="black" fill-opacity="0.8"/>
<path fill-rule="evenodd" clip-rule="evenodd" d="M7.91928 22.6063C7.31561 22.8688 6.67585 23 6 23C5.31758 23 4.67454 22.8704 4.07087 22.6113C3.46719 22.352 2.9357 21.9928 2.47637 21.5334C2.01706 21.0741 1.65617 20.5426 1.3937 19.939C1.13123 19.3353 1 18.689 1 18.0001C1 17.3111 1.13123 16.6664 1.3937 16.0659C1.65617 15.4656 2.01706 14.9341 2.47637 14.4715C2.9357 14.0089 3.46719 13.648 4.07087 13.3888C4.67454 13.1296 5.31758 13 6 13C6.68898 13 7.3353 13.1296 7.93898 13.3888C8.54265 13.648 9.07414 14.0072 9.53346 14.4666C9.99278 14.9259 10.352 15.4574 10.6112 16.061C10.8704 16.6647 11 17.3111 11 18.0001C11 18.6824 10.8688 19.3255 10.6063 19.9291C10.3438 20.5328 9.98129 21.0643 9.5187 21.5237C9.0561 21.983 8.52296 22.3439 7.91928 22.6063ZM5.56201 20.9626C5.67027 21.0741 5.81627 21.1299 6 21.1299C6.18373 21.1299 6.32973 21.0741 6.43799 20.9626C6.54626 20.8511 6.60039 20.7067 6.60039 20.5295V18.6004H8.52952C8.70669 18.6004 8.85105 18.5463 8.96259 18.438C9.07415 18.3297 9.12992 18.1838 9.12992 18.0001C9.12992 17.8163 9.07415 17.6703 8.96259 17.562C8.85105 17.4538 8.70669 17.3997 8.52952 17.3997H6.60039V15.4705C6.60039 15.2933 6.54626 15.1489 6.43799 15.0374C6.32973 14.9259 6.18373 14.8701 6 14.8701C5.81627 14.8701 5.67027 14.9259 5.56201 15.0374C5.45374 15.1489 5.3996 15.2933 5.3996 15.4705V17.3997H3.47047C3.29331 17.3997 3.14895 17.4538 3.0374 17.562C2.92585 17.6703 2.87008 17.8163 2.87008 18.0001C2.87008 18.1838 2.92585 18.3297 3.0374 18.438C3.14895 18.5463 3.29331 18.6004 3.47047 18.6004H5.3996V20.5295C5.3996 20.7067 5.45374 20.8511 5.56201 20.9626Z" fill="#34C759"/>
</svg>
