<svg width="24" height="24" viewBox="0 0 24 24" fill="none" xmlns="http://www.w3.org/2000/svg">
<path d="M9.10967 19H18.2266C18.7972 19 19.1973 18.9196 19.427 18.7588C19.6567 18.598 19.7715 18.3592 19.7715 18.0425C19.7715 17.5817 19.6301 17.0945 19.3472 16.5809C19.0643 16.0673 18.6582 15.5862 18.1287 15.1374C17.5992 14.6886 16.9586 14.3239 16.2067 14.0431C15.4548 13.7623 14.6074 13.6219 13.6645 13.6219C12.7265 13.6219 11.8815 13.7623 11.1297 14.0431C10.3778 14.3239 9.73708 14.6886 9.20763 15.1374C8.67814 15.5862 8.27195 16.0673 7.98908 16.5809C7.70621 17.0945 7.56478 17.5817 7.56478 18.0425C7.56478 18.3592 7.67962 18.598 7.90932 18.7588C8.13901 18.9196 8.53913 19 9.10967 19ZM13.6718 12.3331C14.1891 12.3331 14.6678 12.1927 15.1079 11.9119C15.5479 11.6311 15.9021 11.2508 16.1705 10.7708C16.4388 10.2908 16.573 9.75087 16.573 9.1509C16.573 8.56053 16.4388 8.03136 16.1705 7.56339C15.9021 7.09541 15.5479 6.72703 15.1079 6.45825C14.6678 6.18946 14.1891 6.05506 13.6718 6.05506C13.1544 6.05506 12.6757 6.19185 12.2357 6.46544C11.7957 6.73903 11.4415 7.11101 11.1731 7.58138C10.9048 8.05176 10.7706 8.57973 10.7706 9.1653C10.7706 9.76047 10.9048 10.2968 11.1731 10.7744C11.4415 11.252 11.7957 11.6311 12.2357 11.9119C12.6757 12.1927 13.1544 12.3331 13.6718 12.3331ZM1.27652 19H6.78874C6.60017 18.7264 6.50951 18.3976 6.51676 18.0136C6.52401 17.6297 6.61226 17.2265 6.7815 16.8041C6.95073 16.3817 7.18524 15.9725 7.48501 15.5765C7.78482 15.1806 8.12812 14.8314 8.51491 14.529C8.11361 14.2602 7.64943 14.0383 7.12238 13.863C6.59534 13.6879 5.99334 13.6003 5.3164 13.6003C4.49924 13.6003 3.76306 13.7335 3.10788 13.9999C2.4527 14.2663 1.89423 14.6166 1.43245 15.051C0.970685 15.4853 0.6165 15.9593 0.3699 16.473C0.1233 16.9865 0 17.4929 0 17.992C0 18.3136 0.0979147 18.562 0.293744 18.7372C0.489573 18.9124 0.817164 19 1.27652 19ZM5.32366 12.4987C5.77334 12.4987 6.18917 12.3763 6.57116 12.1316C6.95315 11.8867 7.2614 11.5544 7.49593 11.1344C7.73042 10.7144 7.84767 10.2452 7.84767 9.72687C7.84767 9.2085 7.73042 8.74652 7.49593 8.34095C7.2614 7.93537 6.95315 7.61618 6.57116 7.3834C6.18917 7.15061 5.77334 7.03422 5.32366 7.03422C4.87398 7.03422 4.45693 7.15301 4.07253 7.39059C3.68812 7.62818 3.37866 7.95096 3.14415 8.35894C2.90964 8.76692 2.79238 9.2277 2.79238 9.74127C2.79238 10.2548 2.90964 10.7204 3.14415 11.138C3.37866 11.5556 3.68691 11.8867 4.0689 12.1316C4.45089 12.3763 4.86914 12.4987 5.32366 12.4987ZM19.039 12.1172C19.1647 12.2035 19.3025 12.2323 19.4524 12.2035C19.6022 12.1748 19.7256 12.0908 19.8223 11.9515C20.1028 11.5868 20.3215 11.15 20.4786 10.6412C20.6358 10.1325 20.7144 9.60208 20.7144 9.05011C20.7144 8.49813 20.6358 7.96776 20.4786 7.45899C20.3215 6.95022 20.1028 6.51344 19.8223 6.14865C19.7256 6.00946 19.6022 5.92667 19.4524 5.90027C19.3025 5.87387 19.1647 5.90147 19.039 5.98306C18.8939 6.08386 18.8105 6.21465 18.7888 6.37545C18.767 6.53624 18.8141 6.69103 18.9302 6.83982C19.1429 7.12781 19.3061 7.46379 19.4198 7.84777C19.5334 8.23175 19.5902 8.63253 19.5902 9.05011C19.5902 9.46769 19.5322 9.86727 19.4161 10.2488C19.3001 10.6304 19.1381 10.9676 18.9302 11.2604C18.819 11.414 18.773 11.57 18.7923 11.7284C18.8117 11.8868 18.8939 12.0164 19.039 12.1172ZM21.7298 13.9963C21.8652 14.0874 22.0078 14.1186 22.1577 14.0898C22.3076 14.061 22.4309 13.977 22.5276 13.8378C22.9918 13.2043 23.3532 12.47 23.6119 11.6348C23.8706 10.7996 24 9.93806 24 9.05011C24 8.16215 23.8706 7.2982 23.6119 6.45825C23.3532 5.61829 22.9918 4.88632 22.5276 4.26235C22.4309 4.12316 22.3076 4.03917 22.1577 4.01037C22.0078 3.98157 21.8652 4.01277 21.7298 4.10396C21.5944 4.19516 21.5171 4.31635 21.4977 4.46754C21.4783 4.61874 21.5219 4.76873 21.6283 4.91752C22.0248 5.47429 22.3318 6.11026 22.5494 6.82542C22.767 7.54059 22.8758 8.28215 22.8758 9.05011C22.8758 9.81807 22.7658 10.5584 22.5457 11.2712C22.3257 11.984 22.0199 12.6211 21.6283 13.1827C21.5267 13.3315 21.4844 13.4815 21.5013 13.6327C21.5183 13.7838 21.5944 13.905 21.7298 13.9963Z" fill="black" fill-opacity="0.8"/>
</svg>
