<svg width="24" height="24" viewBox="0 0 24 24" fill="none" xmlns="http://www.w3.org/2000/svg">
<path d="M1.67579 21H14.8175C15.3402 21 15.7501 20.8815 16.0474 20.6446C16.3446 20.4076 16.4932 20.0823 16.4932 19.6685C16.4932 19.0277 16.3022 18.3503 15.92 17.6362C15.5378 16.9221 14.989 16.253 14.2736 15.629C13.5582 15.005 12.6925 14.4977 11.6766 14.1073C10.6607 13.7168 9.51573 13.5216 8.24174 13.5216C6.97428 13.5216 5.83259 13.7168 4.81666 14.1073C3.80074 14.4977 2.93344 15.005 2.21478 15.629C1.49612 16.253 0.947324 16.9221 0.568395 17.6362C0.189465 18.3503 0 19.0277 0 19.6685C0 20.0823 0.148632 20.4076 0.445897 20.6446C0.743161 20.8815 1.15312 21 1.67579 21ZM8.25154 11.7297C8.9506 11.7297 9.59738 11.5345 10.1919 11.144C10.7864 10.7536 11.265 10.2247 11.6276 9.55727C11.9902 8.88987 12.1715 8.13903 12.1715 7.30477C12.1715 6.48386 11.9902 5.74804 11.6276 5.09732C11.265 4.44661 10.7864 3.93437 10.1919 3.56062C9.59738 3.18687 8.9506 3 8.25154 3C7.55247 3 6.90568 3.19021 6.31115 3.57063C5.71662 3.95106 5.23806 4.4683 4.87546 5.12235C4.51287 5.77641 4.33157 6.51056 4.33157 7.3248C4.33157 8.15238 4.51287 8.8982 4.87546 9.56227C5.23806 10.2263 5.71662 10.7536 6.31115 11.144C6.90568 11.5345 7.55247 11.7297 8.25154 11.7297ZM18.4924 12.3203C18.8257 12.3203 19.0903 12.1668 19.2863 11.8598L23.7648 4.65183C23.8236 4.5584 23.8775 4.45662 23.9265 4.34649C23.9755 4.23637 24 4.12458 24 4.01112C24 3.79088 23.9183 3.61401 23.755 3.48053C23.5917 3.34705 23.4087 3.28031 23.2062 3.28031C22.9318 3.28031 22.7031 3.43048 22.5202 3.73081L18.4533 10.3982L16.5226 7.84537C16.4051 7.68519 16.2891 7.57674 16.1748 7.52002C16.0605 7.46329 15.9347 7.43492 15.7975 7.43492C15.5884 7.43492 15.4104 7.51334 15.2634 7.67018C15.1164 7.82702 15.0428 8.01556 15.0428 8.23581C15.0428 8.4427 15.118 8.6496 15.2682 8.8565L17.6595 11.8598C17.7836 12.02 17.9126 12.1368 18.0466 12.2102C18.1805 12.2836 18.3291 12.3203 18.4924 12.3203Z" fill="black" fill-opacity="0.8"/>
</svg>
