<svg width="24" height="24" viewBox="0 0 24 24" fill="none" xmlns="http://www.w3.org/2000/svg">
<path d="M4.50891 16.1114H10.1374C11.1077 16.1114 11.5928 15.6551 11.5928 14.7425V9.27703C11.5928 8.36448 11.1077 7.9082 10.1374 7.9082H4.50891C3.5386 7.9082 3.05344 8.36448 3.05344 9.27703V14.7425C3.05344 15.6551 3.5386 16.1114 4.50891 16.1114ZM4.23411 15.1923C4.33588 14.899 4.52588 14.622 4.80409 14.3613C5.08229 14.1005 5.43513 13.8903 5.86261 13.7306C6.29009 13.5709 6.77864 13.491 7.32826 13.491C7.87109 13.491 8.35625 13.5709 8.78373 13.7306C9.21121 13.8903 9.56575 14.1005 9.84735 14.3613C10.1289 14.622 10.3206 14.899 10.4224 15.1923H4.23411ZM7.32826 12.7969C6.88042 12.7969 6.50213 12.6372 6.19339 12.3178C5.88466 11.9984 5.73029 11.6008 5.73029 11.1249C5.73029 10.6687 5.88466 10.2825 6.19339 9.96633C6.50213 9.6502 6.88042 9.49213 7.32826 9.49213C7.76931 9.49213 8.14421 9.6502 8.45294 9.96633C8.76168 10.2825 8.91605 10.6687 8.91605 11.1249C8.91605 11.6008 8.76168 11.9984 8.45294 12.3178C8.14421 12.6372 7.76931 12.7969 7.32826 12.7969ZM16.9975 16.0038C17.3232 16.0038 17.6353 15.9875 17.9338 15.955C18.2324 15.9223 18.4801 15.8669 18.6769 15.7887C18.9686 15.6714 19.1145 15.4954 19.1145 15.2607C19.1145 15.1369 19.0738 15.0326 18.9924 14.9479C18.911 14.8631 18.8024 14.8207 18.6667 14.8207C18.6192 14.8207 18.57 14.8256 18.5192 14.8354C18.4682 14.8452 18.4089 14.8566 18.341 14.8697C18.1917 14.8892 18.0289 14.9202 17.8524 14.9625C17.676 15.0049 17.4284 15.0261 17.1094 15.0261C16.4513 15.0261 15.883 14.9055 15.4046 14.6643C14.9262 14.4232 14.5581 14.0777 14.3003 13.6279C14.0424 13.1782 13.9135 12.6437 13.9135 12.0244C13.9135 11.4183 14.0424 10.8838 14.3003 10.421C14.5581 9.95818 14.9161 9.59642 15.3741 9.33569C15.8321 9.07496 16.3631 8.9446 16.967 8.9446C17.5708 8.9446 18.0984 9.05867 18.5497 9.28681C19.0009 9.51494 19.3521 9.83271 19.6031 10.2401C19.8541 10.6475 19.9797 11.1217 19.9797 11.6627C19.9797 12.1516 19.9084 12.5361 19.7659 12.8164C19.6235 13.0967 19.4301 13.2368 19.1858 13.2368C18.9008 13.2368 18.7583 13.0999 18.7583 12.8262V10.4014C18.7583 10.2515 18.7108 10.1277 18.6158 10.0299C18.5208 9.93211 18.3987 9.88322 18.2494 9.88322C17.9916 9.88322 17.8287 10.0005 17.7608 10.2352V10.3134C17.6387 10.1765 17.4911 10.0706 17.3181 9.99566C17.1451 9.9207 16.9364 9.88322 16.6921 9.88322C16.1561 9.88322 15.7167 10.0853 15.3741 10.4894C15.0314 10.8935 14.8601 11.4052 14.8601 12.0244C14.8601 12.6632 15.0331 13.1814 15.3792 13.579C15.7252 13.9766 16.173 14.1754 16.7227 14.1754C17.2248 14.1754 17.6285 13.9832 17.9338 13.5986C18.1713 13.9832 18.5581 14.1754 19.0942 14.1754C19.6641 14.1754 20.1222 13.9408 20.4683 13.4715C20.8143 13.0022 20.9873 12.3797 20.9873 11.604C20.9873 10.8935 20.816 10.2662 20.4734 9.7219C20.1307 9.17763 19.6574 8.75395 19.0534 8.45085C18.4495 8.14775 17.7541 7.9962 16.967 7.9962C16.1527 7.9962 15.4351 8.16404 14.8143 8.49973C14.1934 8.83542 13.7083 9.30636 13.3588 9.91256C13.0094 10.5187 12.8347 11.2195 12.8347 12.0147C12.8347 12.8099 13.0077 13.5073 13.3537 14.1071C13.6997 14.7067 14.1866 15.1727 14.8143 15.5051C15.4419 15.8376 16.1697 16.0038 16.9975 16.0038ZM16.8753 13.188C16.6039 13.188 16.3885 13.0837 16.229 12.8751C16.0696 12.6665 15.9899 12.3764 15.9899 12.0049C15.9899 11.6399 16.0696 11.3547 16.229 11.1494C16.3885 10.9441 16.6073 10.8414 16.8856 10.8414C17.1638 10.8414 17.3843 10.9424 17.5471 11.1445C17.7099 11.3466 17.7914 11.6236 17.7914 11.9756C17.7914 12.3536 17.7099 12.6502 17.5471 12.8653C17.3843 13.0804 17.1604 13.188 16.8753 13.188ZM3.19594 21H20.8041C21.8762 21 22.6769 20.7474 23.2061 20.2423C23.7354 19.7371 24 18.9826 24 17.9788V6.03096C24 5.02716 23.7354 4.27105 23.2061 3.76263C22.6769 3.25421 21.8762 3 20.8041 3H3.19594C2.13062 3 1.33164 3.25258 0.798984 3.75774C0.266328 4.2629 0 5.02064 0 6.03096V17.9788C0 18.9826 0.266328 19.7371 0.798984 20.2423C1.33164 20.7474 2.13062 21 3.19594 21ZM3.21629 19.4258C2.70739 19.4258 2.31723 19.2971 2.0458 19.0397C1.77439 18.7822 1.63868 18.3993 1.63868 17.8908V6.11896C1.63868 5.61054 1.77439 5.22597 2.0458 4.96524C2.31723 4.70451 2.70739 4.57415 3.21629 4.57415H20.7837C21.2859 4.57415 21.6744 4.70451 21.9492 4.96524C22.224 5.22597 22.3614 5.61054 22.3614 6.11896V17.8908C22.3614 18.3993 22.224 18.7822 21.9492 19.0397C21.6744 19.2971 21.2859 19.4258 20.7837 19.4258H3.21629Z" fill="black" fill-opacity="0.8"/>
</svg>
