<svg width="24" height="24" viewBox="0 0 24 24" fill="none" xmlns="http://www.w3.org/2000/svg">
<path d="M1.6799 21H14.8539C15.3778 21 15.7888 20.8815 16.0868 20.6446C16.3848 20.4076 16.5337 20.0823 16.5337 19.6685C16.5337 19.0277 16.3422 18.3503 15.9591 17.6362C15.576 16.9221 15.0258 16.253 14.3086 15.629C13.5915 15.005 12.7237 14.4977 11.7052 14.1073C10.6869 13.7168 9.53911 13.5216 8.26198 13.5216C6.99141 13.5216 5.84691 13.7168 4.82849 14.1073C3.81007 14.4977 2.94065 15.005 2.22022 15.629C1.49979 16.253 0.949651 16.9221 0.569791 17.6362C0.18993 18.3503 0 19.0277 0 19.6685C0 20.0823 0.148997 20.4076 0.446992 20.6446C0.744986 20.8815 1.15596 21 1.6799 21ZM8.27181 11.7297C8.97259 11.7297 9.62095 11.5345 10.2169 11.144C10.8129 10.7536 11.2927 10.2247 11.6562 9.55727C12.0196 8.88987 12.2014 8.13903 12.2014 7.30477C12.2014 6.48386 12.0196 5.74804 11.6562 5.09732C11.2927 4.44661 10.8129 3.93437 10.2169 3.56062C9.62095 3.18687 8.97259 3 8.27181 3C7.57102 3 6.92264 3.19021 6.32665 3.57063C5.73066 3.95106 5.25093 4.4683 4.88744 5.12235C4.52395 5.77641 4.34221 6.51056 4.34221 7.3248C4.34221 8.15238 4.52395 8.8982 4.88744 9.56227C5.25093 10.2263 5.73066 10.7536 6.32665 11.144C6.92264 11.5345 7.57102 11.7297 8.27181 11.7297ZM16.4945 11.5795C16.7237 11.5795 16.9137 11.4961 17.0643 11.3292L19.8445 8.48608L22.6443 11.3292C22.8015 11.4961 22.9881 11.5795 23.2043 11.5795C23.4204 11.5795 23.6055 11.4994 23.7594 11.3392C23.9133 11.1791 23.9902 10.9889 23.9902 10.7686C23.9902 10.5484 23.9116 10.3582 23.7544 10.198L20.9644 7.35483L23.7642 4.49165C23.9214 4.33148 24 4.1446 24 3.93103C24 3.71079 23.923 3.52225 23.7691 3.3654C23.6152 3.20856 23.4302 3.13014 23.2141 3.13014C23.0111 3.13014 22.831 3.21357 22.6738 3.38042L19.8445 6.23358L17.0447 3.39043C16.9005 3.23025 16.7172 3.15017 16.4945 3.15017C16.2784 3.15017 16.0933 3.22692 15.9394 3.38042C15.7855 3.53393 15.7085 3.7208 15.7085 3.94104C15.7085 4.16129 15.7871 4.34816 15.9443 4.50167L18.7343 7.35483L15.9443 10.208C15.7871 10.3615 15.7085 10.5484 15.7085 10.7686C15.7085 10.9889 15.7855 11.1791 15.9394 11.3392C16.0933 11.4994 16.2784 11.5795 16.4945 11.5795Z" fill="black" fill-opacity="0.8"/>
</svg>
