<svg width="24" height="24" viewBox="0 0 24 24" fill="none" xmlns="http://www.w3.org/2000/svg">
<path d="M12 22C13.366 22 14.652 21.7385 15.8578 21.2156C17.0637 20.6928 18.1274 19.9706 19.049 19.049C19.9706 18.1274 20.6928 17.0637 21.2156 15.8578C21.7385 14.652 22 13.366 22 12C22 10.634 21.7385 9.34803 21.2156 8.14214C20.6928 6.93627 19.9706 5.87255 19.049 4.95097C18.1274 4.02941 17.0621 3.30719 15.8529 2.78431C14.6438 2.26144 13.3562 2 11.9902 2C10.6242 2 9.33823 2.26144 8.13235 2.78431C6.92646 3.30719 5.86437 4.02941 4.94607 4.95097C4.02778 5.87255 3.30719 6.93627 2.78431 8.14214C2.26144 9.34803 2 10.634 2 12C2 13.366 2.26144 14.652 2.78431 15.8578C3.30719 17.0637 4.02941 18.1274 4.95097 19.049C5.87255 19.9706 6.93627 20.6928 8.14214 21.2156C9.34803 21.7385 10.634 22 12 22ZM12 20.3333C10.8431 20.3333 9.76143 20.1176 8.7549 19.6863C7.74836 19.2549 6.86437 18.6585 6.10293 17.8971C5.3415 17.1356 4.74673 16.2517 4.31862 15.2451C3.89052 14.2386 3.67647 13.1569 3.67647 12C3.67647 10.8431 3.89052 9.76143 4.31862 8.7549C4.74673 7.74836 5.33987 6.86274 6.09803 6.09803C6.8562 5.33333 7.73855 4.73692 8.74509 4.30882C9.75163 3.88072 10.8333 3.66667 11.9902 3.66667C13.1471 3.66667 14.2288 3.88072 15.2353 4.30882C16.2418 4.73692 17.1274 5.33333 17.8922 6.09803C18.6569 6.86274 19.2549 7.74836 19.6863 8.7549C20.1176 9.76143 20.3333 10.8431 20.3333 12C20.3333 13.1569 20.1193 14.2386 19.6912 15.2451C19.263 16.2517 18.6683 17.1356 17.9068 17.8971C17.1454 18.6585 16.2598 19.2549 15.2499 19.6863C14.2402 20.1176 13.1569 20.3333 12 20.3333ZM11.9902 16.9117C12.6699 16.9117 13.268 16.7892 13.7843 16.5441C14.3007 16.299 14.701 16.018 14.9853 15.701C15.2696 15.384 15.4118 15.1176 15.4118 14.902C15.4118 14.7843 15.3644 14.7026 15.2696 14.6568C15.1748 14.6111 15.0752 14.6111 14.9705 14.6568C14.6176 14.8529 14.2108 15.0408 13.75 15.2205C13.2892 15.4003 12.7026 15.4902 11.9902 15.4902C11.2778 15.4902 10.6912 15.4003 10.2304 15.2205C9.7696 15.0408 9.35947 14.8529 9 14.6568C8.89542 14.6111 8.79738 14.6111 8.70588 14.6568C8.61437 14.7026 8.56862 14.7843 8.56862 14.902C8.56862 15.1176 8.71078 15.384 8.99509 15.701C9.2794 16.018 9.67973 16.299 10.1961 16.5441C10.7124 16.7892 11.3104 16.9117 11.9902 16.9117ZM9.07842 11.1274C9.39215 11.1274 9.66666 11.0016 9.90195 10.75C10.1372 10.4984 10.2549 10.1765 10.2549 9.78431C10.2549 9.39215 10.1372 9.06862 9.90195 8.81372C9.66666 8.55882 9.39215 8.43136 9.07842 8.43136C8.77123 8.43136 8.50326 8.55882 8.2745 8.81372C8.04574 9.06862 7.93136 9.39215 7.93136 9.78431C7.93136 10.1765 8.04574 10.4984 8.2745 10.75C8.50326 11.0016 8.77123 11.1274 9.07842 11.1274ZM14.8921 11.1274C15.2058 11.1274 15.4803 11.0016 15.7157 10.75C15.951 10.4984 16.0686 10.1765 16.0686 9.78431C16.0686 9.39215 15.951 9.06862 15.7157 8.81372C15.4803 8.55882 15.2058 8.43136 14.8921 8.43136C14.5849 8.43136 14.317 8.55882 14.0882 8.81372C13.8594 9.06862 13.7451 9.39215 13.7451 9.78431C13.7451 10.1765 13.8594 10.4984 14.0882 10.75C14.317 11.0016 14.5849 11.1274 14.8921 11.1274Z" fill="black" fill-opacity="0.8"/>
</svg>
