<svg width="24" height="24" viewBox="0 0 24 24" fill="none" xmlns="http://www.w3.org/2000/svg">
<path d="M12 22C13.366 22 14.652 21.7385 15.8578 21.2156C17.0637 20.6928 18.1274 19.9706 19.049 19.049C19.9706 18.1274 20.6928 17.0637 21.2156 15.8578C21.7385 14.652 22 13.366 22 12C22 10.634 21.7385 9.34803 21.2156 8.14214C20.6928 6.93627 19.9706 5.87255 19.049 4.95097C18.1274 4.02941 17.0621 3.30719 15.8529 2.78431C14.6438 2.26144 13.3562 2 11.9902 2C10.6242 2 9.33823 2.26144 8.13235 2.78431C6.92646 3.30719 5.86437 4.02941 4.94607 4.95097C4.02778 5.87255 3.30719 6.93627 2.78431 8.14214C2.26144 9.34803 2 10.634 2 12C2 13.366 2.26144 14.652 2.78431 15.8578C3.30719 17.0637 4.02941 18.1274 4.95097 19.049C5.87255 19.9706 6.93627 20.6928 8.14214 21.2156C9.34803 21.7385 10.634 22 12 22ZM12 17.049C11.2941 17.049 10.6765 16.9215 10.147 16.6667C9.61764 16.4117 9.20424 16.1209 8.90685 15.7941C8.60947 15.4673 8.46078 15.1928 8.46078 14.9705C8.46078 14.8464 8.5098 14.7614 8.60783 14.7157C8.70588 14.6699 8.80719 14.6699 8.91176 14.7157C9.28431 14.9118 9.70751 15.1046 10.1814 15.2941C10.6552 15.4837 11.2614 15.5784 12 15.5784C12.732 15.5784 13.3366 15.4853 13.8137 15.299C14.2909 15.1128 14.7124 14.9183 15.0784 14.7157C15.183 14.6699 15.2843 14.6699 15.3824 14.7157C15.4804 14.7614 15.5294 14.8464 15.5294 14.9705C15.5294 15.1928 15.3824 15.4673 15.0882 15.7941C14.7941 16.1209 14.3807 16.4117 13.8481 16.6667C13.3154 16.9215 12.6994 17.049 12 17.049ZM9 11.0784C8.68627 11.0784 8.41012 10.9493 8.17156 10.6912C7.933 10.433 7.81372 10.1013 7.81372 9.69607C7.81372 9.28431 7.93137 8.9477 8.16666 8.68627C8.40195 8.42483 8.67973 8.29411 9 8.29411C9.32679 8.29411 9.6111 8.42483 9.85294 8.68627C10.0948 8.9477 10.2157 9.28431 10.2157 9.69607C10.2157 10.1013 10.0931 10.433 9.84803 10.6912C9.60293 10.9493 9.32025 11.0784 9 11.0784ZM14.9902 11.0784C14.6765 11.0784 14.3987 10.9493 14.1569 10.6912C13.915 10.433 13.7941 10.1013 13.7941 9.69607C13.7941 9.28431 13.9134 8.9477 14.152 8.68627C14.3905 8.42483 14.6699 8.29411 14.9902 8.29411C15.317 8.29411 15.6013 8.42483 15.8432 8.68627C16.085 8.9477 16.2059 9.28431 16.2059 9.69607C16.2059 10.1013 16.0833 10.433 15.8382 10.6912C15.5931 10.9493 15.3105 11.0784 14.9902 11.0784Z" fill="black" fill-opacity="0.8"/>
</svg>
