<svg width="24" height="24" viewBox="0 0 24 24" fill="none" xmlns="http://www.w3.org/2000/svg">
<path d="M7.39072 22H16.6132C17.3939 22 18.0142 21.7716 18.4741 21.3149C18.934 20.8582 19.17 20.2401 19.1821 19.4607L19.3002 10.5454L21.4696 11.0478C21.9053 11.1452 22.2624 11.1041 22.5407 10.9245C22.8191 10.7448 23.0158 10.4297 23.1308 9.97907L23.9295 6.73635C24.0445 6.2918 24.0188 5.91272 23.8524 5.59911C23.686 5.28549 23.394 5.04038 22.9765 4.86378L16.6587 2.15085C16.4226 2.04733 16.2153 1.99709 16.0368 2.00013C15.8583 2.00318 15.6722 2.05037 15.4785 2.14171C15.0852 2.33049 14.7085 2.4873 14.3484 2.61214C13.9884 2.73698 13.6193 2.83289 13.241 2.89987C12.8628 2.96686 12.4498 3.00036 12.002 3.00036C11.5542 3.00036 11.1412 2.96686 10.7629 2.89987C10.3847 2.83289 10.0156 2.73698 9.65551 2.61214C9.29544 2.4873 8.91571 2.33049 8.51631 2.14171C8.32872 2.05037 8.14415 2.00318 7.9626 2.00013C7.78105 1.99709 7.57227 2.04733 7.33626 2.15085L1.02755 4.86378C0.603943 5.04038 0.310443 5.28549 0.147052 5.59911C-0.0163392 5.91272 -0.043571 6.2918 0.0653566 6.73635L0.873235 9.97907C0.98216 10.4297 1.17732 10.7448 1.45872 10.9245C1.74012 11.1041 2.09867 11.1452 2.53438 11.0478L4.70385 10.5454L4.82185 19.4607C4.83396 20.2401 5.06845 20.8582 5.52535 21.3149C5.98223 21.7716 6.60403 22 7.39072 22ZM7.40888 20.5933C7.03974 20.5933 6.75078 20.4867 6.542 20.2736C6.33322 20.0605 6.22581 19.7651 6.21976 19.3875L6.09268 9.20265C6.09268 9.09303 6.05485 9.00625 5.97921 8.94231C5.90357 8.87837 5.8022 8.85859 5.67512 8.88294L2.49807 9.59543C2.32258 9.63806 2.21365 9.57716 2.17129 9.41273L1.45418 6.53538C1.42392 6.42577 1.42543 6.34356 1.45872 6.28876C1.49201 6.23395 1.55403 6.18828 1.6448 6.15174L8.17138 3.34746C8.78258 3.67021 9.39531 3.9138 10.0096 4.07822C10.6238 4.24264 11.2879 4.32485 12.002 4.32485C12.7161 4.32485 13.3803 4.24264 13.9945 4.07822C14.6087 3.9138 15.2214 3.67021 15.8326 3.34746L22.3592 6.15174C22.4439 6.18828 22.5044 6.23395 22.5407 6.28876C22.577 6.34356 22.5801 6.42577 22.5498 6.53538L21.8236 9.41273C21.7873 9.57716 21.6814 9.63806 21.5059 9.59543L18.3289 8.88294C18.2018 8.85859 18.1004 8.87837 18.0248 8.94231C17.9491 9.00625 17.9113 9.09303 17.9113 9.20265L17.7842 19.3875C17.7781 19.7651 17.6707 20.0605 17.4619 20.2736C17.2532 20.4867 16.9642 20.5933 16.5951 20.5933H7.40888ZM12.002 7.06519C12.7161 7.06519 13.3863 6.90838 14.0126 6.59476C14.6389 6.28114 15.1669 5.84878 15.5966 5.29767C16.0263 4.74656 16.3077 4.1178 16.4408 3.4114L15.1155 2.8268C15.055 3.36268 14.8765 3.84529 14.5799 4.27461C14.2834 4.70393 13.9097 5.0419 13.4589 5.28853C13.0081 5.53516 12.5224 5.65848 12.002 5.65848C11.4816 5.65848 10.9959 5.53516 10.5451 5.28853C10.0942 5.0419 9.72058 4.70393 9.42406 4.27461C9.12752 3.84529 8.949 3.36268 8.88848 2.8268L7.5632 3.4114C7.69633 4.1178 7.97772 4.74656 8.40738 5.29767C8.83704 5.84878 9.36503 6.28114 9.99135 6.59476C10.6177 6.90838 11.2879 7.06519 12.002 7.06519Z" fill="black" fill-opacity="0.8"/>
</svg>
