<svg width="24" height="24" viewBox="0 0 24 24" fill="none" xmlns="http://www.w3.org/2000/svg">
<path d="M7.36574 22H16.6335C17.4779 22 18.1082 21.7934 18.5244 21.3803C18.9406 20.9672 19.1547 20.3383 19.1669 19.4936L19.2853 10.4784L21.518 10.9925C21.9433 11.0843 22.291 11.0445 22.5613 10.8732C22.8317 10.7018 23.0185 10.3958 23.1218 9.9551L23.9329 6.69601C24.0423 6.26146 24.0179 5.89271 23.8599 5.58975C23.702 5.2868 23.4134 5.04658 22.9942 4.86908L16.5788 2.11493C16.3965 2.03536 16.2203 1.99711 16.0503 2.00017C15.8802 2.00323 15.7101 2.04454 15.5399 2.12411C15.139 2.31384 14.7547 2.47297 14.3872 2.6015C14.0197 2.73002 13.643 2.82795 13.2571 2.89527C12.8714 2.9626 12.4537 2.99626 12.0042 2.99626C11.5485 2.99626 11.1278 2.9626 10.742 2.89527C10.3562 2.82795 9.97959 2.73002 9.61205 2.6015C9.2445 2.47297 8.86024 2.31384 8.45927 2.12411C8.28917 2.04454 8.11906 2.00323 7.94896 2.00017C7.77885 1.99711 7.60267 2.03536 7.42041 2.11493L1.00497 4.86908C0.591856 5.04658 0.304802 5.2868 0.143809 5.58975C-0.0171848 5.89271 -0.0430044 6.26146 0.0663498 6.69601L0.877392 9.9551C0.980672 10.3958 1.16749 10.7018 1.43783 10.8732C1.70818 11.0445 2.05599 11.0843 2.48125 10.9925L4.72301 10.4784L4.83236 19.4936C4.84452 20.3383 5.05867 20.9672 5.47482 21.3803C5.89097 21.7934 6.52128 22 7.36574 22ZM12.0042 5.86058C11.4817 5.86058 11.0154 5.7749 10.6053 5.60353C10.1953 5.43216 9.84596 5.18735 9.55737 4.86908C9.2688 4.55083 9.04553 4.16831 8.88758 3.72152C9.36142 3.90513 9.86413 4.0459 10.3957 4.14383C10.9273 4.24175 11.4635 4.29071 12.0042 4.29071C12.5388 4.29071 13.0718 4.24175 13.6034 4.14383C14.135 4.0459 14.6377 3.90513 15.1116 3.72152C14.9597 4.16218 14.741 4.54165 14.4555 4.85991C14.17 5.17817 13.8206 5.42451 13.4076 5.59894C12.9944 5.77337 12.5266 5.86058 12.0042 5.86058Z" fill="black" fill-opacity="0.8"/>
</svg>
