<svg width="24" height="24" viewBox="0 0 24 24" fill="none" xmlns="http://www.w3.org/2000/svg">
<path d="M11.8519 22.9905C12.9025 22.9905 13.8857 22.7973 14.8018 22.411C15.7178 22.0247 16.5233 21.488 17.2184 20.8009C17.9133 20.1138 18.4562 19.3175 18.8469 18.4119C19.2377 17.5063 19.4331 16.5374 19.4331 15.5052C19.4331 14.8276 19.2986 14.237 19.0296 13.7336C18.7605 13.2302 18.3841 12.8375 17.9005 12.5557C17.4169 12.2739 16.8516 12.133 16.2046 12.133H14.8306C14.7089 12.133 14.6144 12.0966 14.5471 12.0237C14.4799 11.9509 14.4719 11.8417 14.5231 11.696L15.5224 8.70379C15.7338 8.06418 15.697 7.47682 15.4119 6.94171C15.1269 6.40659 14.6064 6.04404 13.8505 5.85405L9.66118 4.81865C9.4626 4.76799 9.27523 4.75691 9.09907 4.7854C8.92292 4.8139 8.72914 4.88831 8.51775 5.00863L4.45332 7.27893C4.20991 7.41192 4.06418 7.62565 4.01613 7.92012C3.96809 8.21459 4.02734 8.47582 4.19389 8.70379C4.36044 8.93811 4.57824 9.07585 4.84728 9.11701C5.11632 9.15817 5.37575 9.11225 5.62557 8.97927L9.37292 7.00346L12.0345 7.72538C12.1178 7.74438 12.1594 7.79346 12.1594 7.87262C12.1594 7.95178 12.1434 8.02936 12.1114 8.10535L10.8719 11.5916C10.6861 12.1235 10.6493 12.6048 10.7614 13.0354C10.8735 13.466 11.0993 13.808 11.4388 14.0613C11.7783 14.3146 12.1946 14.4413 12.6879 14.4413H16.5121C16.9156 14.4413 17.2183 14.5379 17.4201 14.731C17.6219 14.9242 17.7228 15.1822 17.7228 15.5052C17.7228 16.3031 17.5707 17.0536 17.2664 17.7565C16.9621 18.4594 16.5409 19.0768 16.0028 19.6088C15.4648 20.1408 14.8418 20.5571 14.134 20.8579C13.4261 21.1587 12.6655 21.3091 11.8519 21.3091C10.6797 21.3091 9.65317 21.0764 8.77238 20.6109C7.8916 20.1455 7.20619 19.4964 6.71615 18.6637C6.22611 17.8309 5.98109 16.8572 5.98109 15.7426C5.98109 14.8687 6.16205 14.0518 6.52398 13.2919C6.8859 12.5319 7.37754 11.8891 7.99889 11.3636C8.2231 11.1673 8.33359 10.9567 8.33039 10.7319C8.32718 10.5071 8.24872 10.3123 8.09498 10.1477C7.94124 9.98301 7.74587 9.89118 7.50885 9.87218C7.27184 9.85319 7.02842 9.95452 6.7786 10.1762C6.00991 10.8601 5.39977 11.6818 4.94817 12.6412C4.49656 13.6006 4.27076 14.6344 4.27076 15.7426C4.27076 17.1929 4.58624 18.4626 5.21721 19.5518C5.84817 20.6411 6.73216 21.4865 7.86917 22.0881C9.00619 22.6897 10.3338 22.9905 11.8519 22.9905ZM15.8683 5.44559C16.2847 5.44559 16.6611 5.34427 16.9974 5.14162C17.3337 4.93897 17.6027 4.66983 17.8045 4.33419C18.0063 3.99856 18.1071 3.6281 18.1071 3.2228C18.1071 2.81117 18.0079 2.43753 17.8093 2.1019C17.6107 1.76626 17.3416 1.4987 17.0021 1.29922C16.6626 1.09974 16.2847 1 15.8683 1C15.4519 1 15.074 1.09974 14.7346 1.29922C14.395 1.4987 14.126 1.76626 13.9274 2.1019C13.7288 2.43753 13.6295 2.81117 13.6295 3.2228C13.6295 3.6281 13.7288 3.99856 13.9274 4.33419C14.126 4.66983 14.395 4.93897 14.7346 5.14162C15.074 5.34427 15.4519 5.44559 15.8683 5.44559ZM18.8951 23C19.1961 23 19.4556 22.8924 19.6733 22.6771C19.8911 22.4617 20 22.2052 20 21.9075C20 21.5973 19.8911 21.336 19.6733 21.1239C19.4556 20.9118 19.1961 20.8057 18.8951 20.8057C18.5876 20.8057 18.3249 20.9118 18.1071 21.1239C17.8894 21.336 17.7805 21.5973 17.7805 21.9075C17.7805 22.2052 17.8894 22.4617 18.1071 22.6771C18.3249 22.8924 18.5876 23 18.8951 23Z" fill="black" fill-opacity="0.8"/>
</svg>
