<svg width="24" height="24" viewBox="0 0 24 24" fill="none" xmlns="http://www.w3.org/2000/svg">
<path d="M12 22C13.366 22 14.652 21.7385 15.8578 21.2156C17.0637 20.6928 18.1274 19.9706 19.049 19.049C19.9706 18.1274 20.6928 17.0637 21.2156 15.8578C21.7385 14.652 22 13.366 22 12C22 10.634 21.7385 9.34803 21.2156 8.14214C20.6928 6.93627 19.9706 5.87255 19.049 4.95097C18.1274 4.02941 17.0621 3.30719 15.8529 2.78431C14.6438 2.26144 13.3562 2 11.9902 2C10.6242 2 9.33823 2.26144 8.13235 2.78431C6.92646 3.30719 5.86437 4.02941 4.94607 4.95097C4.02778 5.87255 3.30719 6.93627 2.78431 8.14214C2.26144 9.34803 2 10.634 2 12C2 13.366 2.26144 14.652 2.78431 15.8578C3.30719 17.0637 4.02941 18.1274 4.95097 19.049C5.87255 19.9706 6.93627 20.6928 8.14214 21.2156C9.34803 21.7385 10.634 22 12 22ZM12 20.3333C10.8431 20.3333 9.76143 20.1176 8.7549 19.6863C7.74836 19.2549 6.86437 18.6585 6.10293 17.8971C5.3415 17.1356 4.74673 16.2517 4.31862 15.2451C3.89052 14.2386 3.67647 13.1569 3.67647 12C3.67647 10.8431 3.89052 9.76143 4.31862 8.7549C4.74673 7.74836 5.33987 6.86274 6.09803 6.09803C6.8562 5.33333 7.73855 4.73692 8.74509 4.30882C9.75163 3.88072 10.8333 3.66667 11.9902 3.66667C13.1471 3.66667 14.2288 3.88072 15.2353 4.30882C16.2418 4.73692 17.1274 5.33333 17.8922 6.09803C18.6569 6.86274 19.2549 7.74836 19.6863 8.7549C20.1176 9.76143 20.3333 10.8431 20.3333 12C20.3333 13.1569 20.1193 14.2386 19.6912 15.2451C19.263 16.2517 18.6683 17.1356 17.9068 17.8971C17.1454 18.6585 16.2598 19.2549 15.2499 19.6863C14.2402 20.1176 13.1569 20.3333 12 20.3333ZM8.64705 16.147C8.87581 16.147 9.06535 16.0654 9.21568 15.902L11.9902 13.1176L14.7843 15.902C14.9412 16.0654 15.1275 16.147 15.3431 16.147C15.5588 16.147 15.7435 16.0686 15.8971 15.9117C16.0507 15.7548 16.1275 15.5686 16.1275 15.3529C16.1275 15.1372 16.049 14.9509 15.8921 14.7941L13.1079 12.0098L15.902 9.20587C16.0588 9.04901 16.1372 8.866 16.1372 8.65686C16.1372 8.44117 16.0604 8.25653 15.9068 8.10293C15.7532 7.94934 15.5686 7.87254 15.3529 7.87254C15.1503 7.87254 14.9705 7.95424 14.8137 8.11764L11.9902 10.9118L9.19607 8.12745C9.05228 7.97058 8.86927 7.89215 8.64705 7.89215C8.43136 7.89215 8.24673 7.96731 8.09313 8.11764C7.93953 8.26797 7.86273 8.45097 7.86273 8.66665C7.86273 8.88234 7.94117 9.06535 8.09803 9.21568L10.8823 12.0098L8.09803 14.8039C7.94117 14.9542 7.86273 15.1372 7.86273 15.3529C7.86273 15.5686 7.93953 15.7548 8.09313 15.9117C8.24673 16.0686 8.43136 16.147 8.64705 16.147Z" fill="#FF3B30"/>
</svg>
