<svg width="24" height="24" viewBox="0 0 24 24" fill="none" xmlns="http://www.w3.org/2000/svg">
<path d="M5.24711 19.7528C5.3606 19.86 5.48984 19.9325 5.63485 19.9704C5.77986 20.0082 5.92486 20.0082 6.06987 19.9704C6.21488 19.9325 6.34097 19.86 6.44814 19.7528L12.5006 13.6974L18.553 19.7528C18.6602 19.86 18.7863 19.9325 18.9313 19.9704C19.0763 20.0082 19.2229 20.0098 19.371 19.9751C19.5192 19.9404 19.6469 19.8663 19.754 19.7528C19.8613 19.6455 19.9322 19.5194 19.9669 19.3743C20.0015 19.2293 20.0015 19.0842 19.9669 18.9391C19.9322 18.7941 19.8613 18.6679 19.754 18.5606L13.7016 12.4958L19.754 6.44051C19.8613 6.33327 19.9338 6.20712 19.9716 6.06205C20.0095 5.91698 20.0095 5.7719 19.9716 5.62682C19.9338 5.48175 19.8613 5.35559 19.754 5.24836C19.6406 5.13483 19.5114 5.06071 19.3664 5.02602C19.2213 4.99133 19.0763 4.99133 18.9313 5.02602C18.7863 5.06071 18.6602 5.13483 18.553 5.24836L12.5006 11.3037L6.44814 5.24836C6.34097 5.13483 6.2133 5.06071 6.06514 5.02602C5.91698 4.99133 5.7704 4.99133 5.62539 5.02602C5.48039 5.06071 5.35429 5.13483 5.24711 5.24836C5.13994 5.35559 5.06901 5.48175 5.03433 5.62682C4.99966 5.7719 4.99966 5.91698 5.03433 6.06205C5.06901 6.20712 5.13994 6.33327 5.24711 6.44051L11.2996 12.4958L5.24711 18.5606C5.13994 18.6679 5.06743 18.7941 5.0296 18.9391C4.99178 19.0842 4.9902 19.2293 5.02488 19.3743C5.05955 19.5194 5.13363 19.6455 5.24711 19.7528Z" fill="#FF3B30"/>
</svg>
