<svg version="1.2" xmlns="http://www.w3.org/2000/svg" viewBox="0 0 24 24" width="24" height="24">
	<style>
		.s0 { fill: #000000 } 
	</style>
	<path id="Path 0" class="s0" d="m11.64 3.03c-0.07 0.01-0.2 0.05-0.29 0.09-0.09 0.05-0.22 0.12-0.29 0.17-0.07 0.05-0.18 0.16-0.24 0.24-0.06 0.08-0.14 0.23-0.18 0.33-0.03 0.09-0.08 0.24-0.09 0.33-0.02 0.1-0.02 0.28-0.02 0.46 0.01 0.17 0.03 1.34 0.04 2.61 0.02 1.27 0.03 2.32 0.02 2.32 0 0-0.15-0.08-0.33-0.18-0.18-0.11-0.46-0.28-0.64-0.38-0.17-0.11-0.36-0.22-0.41-0.25q-0.09-0.05-0.14-0.08-0.05-0.03-0.15-0.08c-0.05-0.04-0.13-0.08-0.16-0.1-0.04-0.02-0.12-0.07-0.19-0.11q-0.11-0.07-0.15-0.08-0.02-0.01-0.06-0.04-0.04-0.04-0.11-0.08c-0.05-0.02-0.28-0.16-0.52-0.3-0.24-0.15-0.46-0.28-0.48-0.29-0.03-0.01-0.1-0.06-0.17-0.1-0.07-0.04-0.14-0.08-0.17-0.1-0.02-0.01-0.11-0.07-0.2-0.12-0.1-0.06-0.2-0.12-0.23-0.14-0.03-0.02-0.13-0.08-0.23-0.14-0.09-0.06-0.22-0.13-0.29-0.16-0.07-0.03-0.15-0.06-0.18-0.06q-0.06-0.01-0.12-0.03c-0.04 0-0.15-0.01-0.25-0.02q-0.17 0-0.33 0.04c-0.09 0.03-0.18 0.05-0.2 0.06-0.02 0-0.1 0.04-0.17 0.09-0.08 0.04-0.2 0.14-0.28 0.22-0.07 0.08-0.15 0.16-0.17 0.19q-0.03 0.05-0.05 0.11-0.03 0.06-0.06 0.1-0.03 0.04-0.05 0.11-0.02 0.07-0.03 0.1-0.01 0.03-0.03 0.12c-0.02 0.06-0.03 0.18-0.03 0.26-0.01 0.09 0.01 0.23 0.02 0.32 0.02 0.08 0.07 0.21 0.11 0.29 0.04 0.09 0.1 0.19 0.13 0.23 0.03 0.04 0.1 0.12 0.17 0.18 0.07 0.07 0.15 0.13 0.18 0.15 0.02 0.02 0.2 0.13 0.4 0.23 0.19 0.11 0.35 0.2 0.35 0.2 0 0 0.08 0.04 0.17 0.09 0.1 0.06 0.23 0.13 0.3 0.17 0.07 0.03 0.14 0.07 0.16 0.08 0.02 0.02 0.24 0.14 0.5 0.29 0.25 0.14 0.51 0.28 0.57 0.32 0.06 0.03 0.15 0.08 0.2 0.11 0.04 0.03 0.13 0.08 0.2 0.11 0.06 0.04 0.16 0.1 0.23 0.13 0.07 0.04 0.17 0.09 0.23 0.13 0.05 0.03 0.15 0.08 0.22 0.12 0.07 0.04 0.14 0.08 0.16 0.1q0.04 0.03 0.1 0.06c0.03 0.01 0.11 0.05 0.16 0.09 0.06 0.03 0.16 0.08 0.23 0.12 0.06 0.04 0.18 0.1 0.24 0.14 0.07 0.04 0.15 0.08 0.17 0.09q0.04 0.02 0.04 0.05c-0.01 0.01-0.47 0.28-1.04 0.6-0.57 0.32-1.28 0.72-1.59 0.89-0.31 0.18-0.78 0.44-1.06 0.59-0.27 0.16-0.6 0.34-0.74 0.42-0.13 0.07-0.3 0.18-0.37 0.25-0.07 0.06-0.18 0.18-0.24 0.28-0.05 0.09-0.13 0.23-0.16 0.32-0.04 0.12-0.05 0.21-0.05 0.41 0 0.21 0.01 0.3 0.06 0.43 0.03 0.08 0.09 0.22 0.13 0.29 0.04 0.08 0.14 0.21 0.22 0.29 0.07 0.08 0.18 0.17 0.25 0.21 0.06 0.04 0.18 0.1 0.27 0.13 0.09 0.04 0.24 0.07 0.33 0.08 0.1 0.01 0.25 0.01 0.33-0.01 0.08-0.01 0.21-0.04 0.28-0.07 0.08-0.03 0.61-0.33 1.19-0.68 0.57-0.34 1.24-0.74 1.49-0.88 0.24-0.15 0.8-0.48 1.24-0.74 0.44-0.25 0.8-0.46 0.8-0.46 0.01 0.01 0 1.05-0.02 2.33-0.01 1.28-0.03 2.46-0.04 2.63 0 0.18 0 0.36 0.02 0.46 0.01 0.09 0.06 0.24 0.09 0.33 0.04 0.1 0.12 0.24 0.18 0.32 0.06 0.08 0.17 0.19 0.24 0.24 0.07 0.06 0.2 0.13 0.28 0.17 0.09 0.04 0.23 0.09 0.32 0.1 0.08 0.02 0.21 0.03 0.28 0.03 0.08 0 0.2-0.01 0.29-0.03 0.08-0.01 0.22-0.06 0.31-0.1 0.09-0.04 0.22-0.11 0.28-0.17 0.07-0.05 0.18-0.16 0.24-0.24 0.06-0.08 0.14-0.22 0.18-0.32 0.04-0.09 0.08-0.24 0.09-0.33 0.02-0.1 0.03-0.28 0.02-0.45-0.01-0.16-0.03-1.34-0.04-2.64-0.02-1.29-0.02-2.35-0.02-2.35q0.01-0.01 0.09 0.04c0.05 0.02 0.14 0.07 0.2 0.11q0.09 0.06 0.11 0.06c0.01 0 0.08 0.05 0.16 0.1 0.08 0.05 0.17 0.11 0.2 0.12q0.07 0.04 0.14 0.08 0.08 0.05 0.15 0.09 0.07 0.04 0.15 0.08 0.07 0.04 0.09 0.06 0.02 0.02 0.15 0.09 0.12 0.06 0.14 0.08 0.03 0.02 0.12 0.07c0.05 0.04 0.13 0.08 0.17 0.11 0.04 0.02 0.14 0.08 0.22 0.13 0.09 0.04 0.35 0.2 0.59 0.34 0.24 0.14 0.46 0.28 0.49 0.3 0.04 0.02 0.12 0.07 0.19 0.11q0.12 0.08 0.15 0.09c0.01-0.01 0.08 0.04 0.16 0.09 0.08 0.05 0.16 0.1 0.18 0.11q0.04 0.02 0.08 0.05c0.03 0.02 0.18 0.1 0.33 0.19 0.15 0.1 0.32 0.19 0.38 0.22 0.06 0.03 0.15 0.06 0.2 0.08 0.05 0.02 0.2 0.04 0.33 0.04 0.13 0 0.27-0.01 0.31-0.02 0.04-0.01 0.12-0.03 0.18-0.05 0.06-0.02 0.17-0.07 0.24-0.11 0.07-0.03 0.19-0.14 0.27-0.22 0.08-0.08 0.17-0.17 0.18-0.2q0.03-0.05 0.06-0.12 0.02-0.06 0.05-0.07 0.02 0 0.05-0.1 0.03-0.1 0.04-0.12 0-0.02 0.03-0.11c0.01-0.06 0.03-0.18 0.03-0.27 0-0.1-0.01-0.25-0.03-0.33-0.01-0.08-0.07-0.22-0.11-0.31-0.05-0.1-0.15-0.24-0.23-0.33-0.08-0.08-0.22-0.2-0.32-0.26-0.09-0.05-0.24-0.14-0.32-0.18-0.08-0.04-0.22-0.12-0.3-0.16-0.08-0.04-0.19-0.11-0.25-0.14-0.05-0.03-0.15-0.08-0.21-0.12-0.06-0.03-0.27-0.15-0.47-0.26-0.2-0.11-0.38-0.21-0.4-0.22-0.02-0.01-0.09-0.05-0.16-0.09-0.07-0.04-0.18-0.11-0.25-0.14-0.07-0.04-0.17-0.09-0.22-0.13-0.06-0.03-0.14-0.07-0.18-0.1-0.04-0.02-0.12-0.06-0.17-0.09-0.05-0.04-0.13-0.08-0.17-0.1q-0.08-0.04-0.12-0.06c-0.02-0.02-0.32-0.19-0.68-0.4-0.49-0.28-0.63-0.37-0.6-0.39 0.01-0.02 0.48-0.28 1.04-0.6 0.55-0.31 1.33-0.75 1.74-0.97 0.4-0.23 0.9-0.51 1.11-0.62 0.22-0.12 0.46-0.26 0.55-0.31 0.09-0.05 0.22-0.14 0.29-0.2 0.07-0.06 0.17-0.19 0.23-0.28 0.06-0.09 0.13-0.23 0.16-0.32 0.04-0.12 0.05-0.21 0.05-0.42 0-0.2-0.01-0.29-0.05-0.42-0.03-0.09-0.09-0.22-0.14-0.3-0.04-0.07-0.14-0.2-0.21-0.28-0.08-0.08-0.19-0.18-0.25-0.21-0.07-0.04-0.19-0.1-0.28-0.14-0.09-0.03-0.24-0.07-0.33-0.08-0.1 0-0.24 0-0.33 0.01-0.08 0.02-0.21 0.05-0.28 0.08-0.08 0.03-0.61 0.33-1.18 0.67-0.58 0.35-1.25 0.75-1.5 0.89-0.24 0.15-0.8 0.48-1.24 0.73-0.44 0.26-0.8 0.47-0.8 0.47 0-0.01 0-1.06 0.02-2.34 0.01-1.27 0.03-2.45 0.04-2.62 0.01-0.18 0-0.36-0.02-0.46-0.01-0.09-0.05-0.24-0.09-0.33-0.04-0.1-0.12-0.25-0.18-0.33-0.06-0.08-0.17-0.19-0.24-0.24-0.06-0.05-0.19-0.12-0.28-0.16-0.09-0.04-0.23-0.09-0.31-0.11-0.09-0.01-0.23-0.02-0.31-0.02-0.09 0-0.22 0.01-0.28 0.03z"/>
</svg>