<svg width="24" height="24" viewBox="0 0 24 24" fill="none" xmlns="http://www.w3.org/2000/svg">
<path fill-rule="evenodd" clip-rule="evenodd" d="M16.0976 6.55556C14.8246 6.55556 13.7927 7.60022 13.7927 8.88889C13.7927 10.1776 14.8246 11.2222 16.0976 11.2222C17.3705 11.2222 18.4024 10.1776 18.4024 8.88889C18.4024 7.60022 17.3705 6.55556 16.0976 6.55556ZM12.2561 8.88889C12.2561 6.74111 13.976 5 16.0976 5C17.956 5 19.5063 6.33604 19.8622 8.11111H21.7317C22.156 8.11111 22.5 8.45933 22.5 8.88889C22.5 9.31844 22.156 9.66667 21.7317 9.66667H19.8622C19.5063 11.4417 17.956 12.7778 16.0976 12.7778C13.976 12.7778 12.2561 11.0367 12.2561 8.88889ZM1.5 8.88889C1.5 8.45933 1.84398 8.11111 2.26829 8.11111H9.43902C9.86334 8.11111 10.2073 8.45933 10.2073 8.88889C10.2073 9.31844 9.86334 9.66667 9.43902 9.66667H2.26829C1.84398 9.66667 1.5 9.31844 1.5 8.88889ZM7.90244 12.7778C6.62949 12.7778 5.59756 13.8224 5.59756 15.1111C5.59756 16.3998 6.62949 17.4444 7.90244 17.4444C9.17539 17.4444 10.2073 16.3998 10.2073 15.1111C10.2073 13.8224 9.17539 12.7778 7.90244 12.7778ZM4.13782 14.3333C4.49375 12.5583 6.04397 11.2222 7.90244 11.2222C10.024 11.2222 11.7439 12.9633 11.7439 15.1111C11.7439 17.2589 10.024 19 7.90244 19C6.04397 19 4.49375 17.664 4.13782 15.8889H2.26829C1.84398 15.8889 1.5 15.5407 1.5 15.1111C1.5 14.6816 1.84398 14.3333 2.26829 14.3333H4.13782ZM13.2805 15.1111C13.2805 14.6816 13.6245 14.3333 14.0488 14.3333H21.7317C22.156 14.3333 22.5 14.6816 22.5 15.1111C22.5 15.5407 22.156 15.8889 21.7317 15.8889H14.0488C13.6245 15.8889 13.2805 15.5407 13.2805 15.1111Z" fill="black" fill-opacity="0.8"/>
</svg>
