<svg width="24" height="24" viewBox="0 0 24 24" fill="none" xmlns="http://www.w3.org/2000/svg">
<path fill-rule="evenodd" clip-rule="evenodd" d="M9.43902 3C9.86334 3 10.2073 3.34538 10.2073 3.77143V7.88571C10.2073 8.31176 9.86334 8.65714 9.43902 8.65714C9.01471 8.65714 8.67073 8.31176 8.67073 7.88571V6.6H2.26829C1.84398 6.6 1.5 6.25462 1.5 5.82857C1.5 5.40252 1.84398 5.05714 2.26829 5.05714H8.67073V3.77143C8.67073 3.34538 9.01471 3 9.43902 3ZM12.7683 5.82857C12.7683 5.40252 13.1123 5.05714 13.5366 5.05714H21.7317C22.156 5.05714 22.5 5.40252 22.5 5.82857C22.5 6.25462 22.156 6.6 21.7317 6.6H13.5366C13.1123 6.6 12.7683 6.25462 12.7683 5.82857ZM15.5854 9.17143C16.0097 9.17143 16.3537 9.51681 16.3537 9.94286V14.0571C16.3537 14.4832 16.0097 14.8286 15.5854 14.8286C15.161 14.8286 14.8171 14.4832 14.8171 14.0571V12.7714H2.26829C1.84398 12.7714 1.5 12.426 1.5 12C1.5 11.574 1.84398 11.2286 2.26829 11.2286H14.8171V9.94286C14.8171 9.51681 15.161 9.17143 15.5854 9.17143ZM18.9146 12C18.9146 11.574 19.2586 11.2286 19.6829 11.2286H21.7317C22.156 11.2286 22.5 11.574 22.5 12C22.5 12.426 22.156 12.7714 21.7317 12.7714H19.6829C19.2586 12.7714 18.9146 12.426 18.9146 12ZM5.34146 15.3429C5.76578 15.3429 6.10976 15.6882 6.10976 16.1143V20.2286C6.10976 20.6546 5.76578 21 5.34146 21C4.91715 21 4.57317 20.6546 4.57317 20.2286V18.9429H2.26829C1.84398 18.9429 1.5 18.5975 1.5 18.1714C1.5 17.7454 1.84398 17.4 2.26829 17.4H4.57317V16.1143C4.57317 15.6882 4.91715 15.3429 5.34146 15.3429ZM8.67073 18.1714C8.67073 17.7454 9.01471 17.4 9.43902 17.4H21.7317C22.156 17.4 22.5 17.7454 22.5 18.1714C22.5 18.5975 22.156 18.9429 21.7317 18.9429H9.43902C9.01471 18.9429 8.67073 18.5975 8.67073 18.1714Z" fill="black" fill-opacity="0.8"/>
</svg>
