<svg width="24" height="24" viewBox="0 0 24 24" fill="none" xmlns="http://www.w3.org/2000/svg">
<path fill-rule="evenodd" clip-rule="evenodd" d="M16.0976 9.69231C14.8246 9.69231 13.7927 10.7255 13.7927 12C13.7927 13.2745 14.8246 14.3077 16.0976 14.3077C17.3705 14.3077 18.4024 13.2745 18.4024 12C18.4024 10.7255 17.3705 9.69231 16.0976 9.69231ZM12.2561 12C12.2561 9.87583 13.976 8.15384 16.0976 8.15384C17.956 8.15384 19.5063 9.4752 19.8622 11.2308H21.7317C22.156 11.2308 22.5 11.5752 22.5 12C22.5 12.4248 22.156 12.7692 21.7317 12.7692H19.8622C19.5063 14.5248 17.956 15.8462 16.0976 15.8462C13.976 15.8462 12.2561 14.1242 12.2561 12ZM1.5 12C1.5 11.5752 1.84398 11.2308 2.26829 11.2308H9.43902C9.86334 11.2308 10.2073 11.5752 10.2073 12C10.2073 12.4248 9.86334 12.7692 9.43902 12.7692H2.26829C1.84398 12.7692 1.5 12.4248 1.5 12ZM7.90244 15.8462C6.62949 15.8462 5.59756 16.8793 5.59756 18.1538C5.59756 19.4283 6.62949 20.4615 7.90244 20.4615C9.17539 20.4615 10.2073 19.4283 10.2073 18.1538C10.2073 16.8793 9.17539 15.8462 7.90244 15.8462ZM4.13782 17.3846C4.49375 15.629 6.04397 14.3077 7.90244 14.3077C10.024 14.3077 11.7439 16.0297 11.7439 18.1538C11.7439 20.278 10.024 22 7.90244 22C6.04397 22 4.49375 20.6786 4.13782 18.9231H2.26829C1.84398 18.9231 1.5 18.5787 1.5 18.1538C1.5 17.729 1.84398 17.3846 2.26829 17.3846H4.13782ZM13.2805 18.1538C13.2805 17.729 13.6245 17.3846 14.0488 17.3846H21.7317C22.156 17.3846 22.5 17.729 22.5 18.1538C22.5 18.5787 22.156 18.9231 21.7317 18.9231H14.0488C13.6245 18.9231 13.2805 18.5787 13.2805 18.1538Z" fill="black" fill-opacity="0.8"/>
<path fill-rule="evenodd" clip-rule="evenodd" d="M7.90244 2.00001C6.04397 2.00001 4.49375 3.32136 4.13782 5.07693H2.26829C1.84398 5.07693 1.5 5.42133 1.5 5.84616C1.5 6.27099 1.84398 6.61539 2.26829 6.61539H4.13782C4.49375 8.37096 6.04397 9.69231 7.90244 9.69231C10.024 9.69231 11.7439 7.97033 11.7439 5.84616C11.7439 3.72199 10.024 2.00001 7.90244 2.00001ZM7.90244 3.53847C6.62949 3.53847 5.59756 4.57166 5.59756 5.84616C5.59756 7.12066 6.62949 8.15385 7.90244 8.15385C9.17539 8.15385 10.2073 7.12066 10.2073 5.84616C10.2073 4.57166 9.17539 3.53847 7.90244 3.53847Z" fill="black" fill-opacity="0.8"/>
<path d="M14.0488 5.07693C13.6245 5.07693 13.2805 5.42133 13.2805 5.84616C13.2805 6.27099 13.6245 6.61539 14.0488 6.61539H21.7317C22.156 6.61539 22.5 6.27099 22.5 5.84616C22.5 5.42133 22.156 5.07693 21.7317 5.07693H14.0488Z" fill="black" fill-opacity="0.8"/>
</svg>
