<svg width="24" height="24" viewBox="0 0 24 24" fill="none" xmlns="http://www.w3.org/2000/svg">
<path fill-rule="evenodd" clip-rule="evenodd" d="M12.1599 4.04791C12.0684 3.96617 11.9316 3.96617 11.8401 4.04791L5.04008 10.1182C4.98737 10.1652 4.95714 10.2332 4.95714 10.3047V19.7656C4.95714 19.9025 5.06587 20.0134 5.2 20.0134H9.32857V13.9183C9.32857 13.4531 9.69826 13.0759 10.1543 13.0759H13.8457C14.3017 13.0759 14.6714 13.4531 14.6714 13.9183V20.0134H18.8C18.9341 20.0134 19.0429 19.9025 19.0429 19.7656V10.3047C19.0429 10.2332 19.0126 10.1652 18.9599 10.1182L12.1599 4.04791ZM10.8805 2.92912C11.5215 2.35696 12.4785 2.35696 13.1195 2.92912L19.9195 8.99942C20.2884 9.32875 20.5 9.80454 20.5 10.3047V19.7656C20.5 20.7235 19.7389 21.5 18.8 21.5H14.04C13.584 21.5 13.2143 21.1228 13.2143 20.6576V14.5625H10.7857V20.6576C10.7857 21.1228 10.416 21.5 9.96 21.5H5.2C4.26112 21.5 3.5 20.7235 3.5 19.7656V10.3047C3.5 9.80453 3.71162 9.32875 4.08054 8.99942L10.8805 2.92912Z" fill="black" fill-opacity="0.8"/>
</svg>
