<svg width="24" height="24" viewBox="0 0 24 24" fill="none" xmlns="http://www.w3.org/2000/svg">
<path d="M14.3733 19.5433H9.61753V13.5629C9.61753 13.3518 9.68358 13.1844 9.81569 13.0607C9.94779 12.9371 10.1183 12.8753 10.3272 12.8753H13.6728C13.8879 12.8753 14.0584 12.9371 14.1843 13.0607C14.3103 13.1844 14.3733 13.3518 14.3733 13.5629V19.5433ZM3.87559 19.0005C3.87559 19.6338 4.05838 20.1254 4.42397 20.4752C4.78956 20.8251 5.29801 21 5.94932 21H18.0691C18.7143 21 19.2197 20.8251 19.5853 20.4752C19.9509 20.1254 20.1336 19.6338 20.1336 19.0005V11.8347L12.5576 5.60096C12.189 5.29333 11.8203 5.29333 11.4516 5.60096L3.87559 11.8347V19.0005ZM1 10.93C1 11.117 1.07066 11.2844 1.21198 11.4322C1.3533 11.5799 1.54685 11.6538 1.79263 11.6538C1.92166 11.6538 2.03994 11.6237 2.14747 11.5634C2.255 11.503 2.35791 11.4367 2.45623 11.3643L11.6821 3.76429C11.7865 3.67381 11.8956 3.62857 12.0092 3.62857C12.1229 3.62857 12.232 3.67381 12.3364 3.76429L21.5622 11.3643C21.6544 11.4367 21.7543 11.503 21.8618 11.5634C21.9693 11.6237 22.0876 11.6538 22.2167 11.6538C22.4317 11.6538 22.616 11.592 22.7696 11.4683C22.9232 11.3447 23 11.1743 23 10.9571C23 10.7038 22.9048 10.4987 22.7143 10.3419L13.1198 2.42524C12.7757 2.14175 12.4055 2 12.0092 2C11.6129 2 11.2428 2.14175 10.8987 2.42524L1.29493 10.3419C1.09831 10.4987 1 10.6948 1 10.93Z" fill="#32ADE6"/>
</svg>
