<svg width="24" height="24" viewBox="0 0 24 24" fill="none" xmlns="http://www.w3.org/2000/svg">
<path d="M9.34103 20.5682H14.6591V13.9815C14.6591 13.7763 14.5945 13.6105 14.4655 13.4838C14.3364 13.3572 14.1675 13.2938 13.9586 13.2938H10.0507C9.83566 13.2938 9.66361 13.3572 9.53458 13.4838C9.40555 13.6105 9.34103 13.7763 9.34103 13.9815V20.5682ZM5.73734 21.5H18.2074C18.8648 21.5 19.3748 21.3251 19.7374 20.9752C20.0999 20.6254 20.2812 20.1338 20.2812 19.5005V9.50286L18.7973 8.50763V19.1295C18.7973 19.4251 18.7205 19.6512 18.5669 19.8081C18.4132 19.9649 18.189 20.0433 17.8941 20.0433H6.0507C5.75577 20.0433 5.52996 19.9649 5.37328 19.8081C5.2166 19.6512 5.13826 19.4251 5.13826 19.1295V8.51667L3.65438 9.50286V19.5005C3.65438 20.1338 3.83718 20.6254 4.20277 20.9752C4.56836 21.3251 5.07989 21.5 5.73734 21.5ZM1 11.43C1 11.617 1.07066 11.7844 1.21198 11.9322C1.3533 12.0799 1.54685 12.1538 1.79263 12.1538C1.92166 12.1538 2.03994 12.1237 2.14747 12.0634C2.255 12.003 2.35791 11.9367 2.45623 11.8643L11.6821 4.26429C11.7865 4.17381 11.8956 4.12857 12.0092 4.12857C12.1229 4.12857 12.232 4.17381 12.3364 4.26429L21.5622 11.8643C21.6544 11.9367 21.7543 12.003 21.8618 12.0634C21.9693 12.1237 22.0876 12.1538 22.2167 12.1538C22.4317 12.1538 22.616 12.092 22.7696 11.9683C22.9232 11.8447 23 11.6743 23 11.4571C23 11.2038 22.9048 10.9987 22.7143 10.8419L13.1198 2.92524C12.7757 2.64175 12.4055 2.5 12.0092 2.5C11.6129 2.5 11.2428 2.64175 10.8987 2.92524L1.29493 10.8419C1.09831 10.9987 1 11.1948 1 11.43Z" fill="black" fill-opacity="0.8"/>
</svg>
