<svg width="24" height="24" viewBox="0 0 24 24" fill="none" xmlns="http://www.w3.org/2000/svg">
<path fill-rule="evenodd" clip-rule="evenodd" d="M13.697 4.72727C13.697 4.32561 14.0226 4 14.4242 4H19.2727C19.6744 4 20 4.32561 20 4.72727V9.57576C20 9.97742 19.6744 10.303 19.2727 10.303C18.8711 10.303 18.5455 9.97742 18.5455 9.57576V6.48306L12.9991 12.0294C12.7151 12.3134 12.2546 12.3134 11.9706 12.0294C11.6866 11.7454 11.6866 11.2849 11.9706 11.0009L17.5169 5.45455H14.4242C14.0226 5.45455 13.697 5.12893 13.697 4.72727ZM7.801 4.9697L9.57595 4.9697C9.97761 4.9697 10.3032 5.29531 10.3032 5.69697C10.3032 6.09863 9.97761 6.42424 9.57595 6.42424H7.83049C7.27542 6.42424 6.90273 6.42481 6.61571 6.44825C6.33712 6.47101 6.20393 6.51163 6.11616 6.55636C5.88809 6.67257 5.70287 6.85778 5.58666 7.08586C5.54194 7.17363 5.50131 7.30682 5.47856 7.5854C5.45511 7.87243 5.45455 8.24511 5.45455 8.80019V16.1699C5.45455 16.725 5.45511 17.0975 5.47855 17.3843C5.5013 17.6626 5.5419 17.7957 5.58666 17.8835C5.70308 18.112 5.8885 18.2975 6.11616 18.4135C6.20376 18.4582 6.33671 18.4987 6.61479 18.5215C6.90131 18.5449 7.27329 18.5455 7.82731 18.5455H15.203C15.757 18.5455 16.1288 18.5449 16.4151 18.5215C16.6929 18.4988 16.8257 18.4582 16.9134 18.4135C17.1416 18.2973 17.3277 18.1112 17.4439 17.8832C17.4885 17.7956 17.5291 17.6627 17.5518 17.3849C17.5752 17.0985 17.5758 16.7267 17.5758 16.1727V14.4242C17.5758 14.0226 17.9014 13.697 18.303 13.697C18.7047 13.697 19.0303 14.0226 19.0303 14.4242V16.2022C19.0303 16.7191 19.0303 17.1507 19.0015 17.5034C18.9714 17.8713 18.9064 18.2168 18.7399 18.5436C18.4841 19.0455 18.0753 19.454 17.5737 19.7096C17.2469 19.8761 16.9015 19.9411 16.5336 19.9712C16.181 20 15.7494 20 15.2325 20H7.79781C7.28088 20 6.84914 20 6.49632 19.9712C6.12836 19.9411 5.78266 19.8761 5.45581 19.7096C4.95363 19.4537 4.5461 19.0452 4.29065 18.5439C4.12403 18.2169 4.05894 17.8711 4.02884 17.5028C3.99998 17.1496 3.99999 16.7174 4 16.1994V8.7707C3.99999 8.25271 3.99998 7.82028 4.02884 7.46699C4.05893 7.09858 4.12399 6.75259 4.29065 6.42551C4.54631 5.92374 4.95405 5.51601 5.45581 5.26035C5.7829 5.09369 6.12888 5.02862 6.4973 4.99853C6.85058 4.96968 7.28301 4.96969 7.801 4.9697Z" fill="black" fill-opacity="0.8"/>
</svg>
