<svg width="24" height="24" viewBox="0 0 24 24" fill="none" xmlns="http://www.w3.org/2000/svg">
<path fill-rule="evenodd" clip-rule="evenodd" d="M14 6.78261C14 6.35039 13.6534 6 13.2258 6H4.77419C4.34662 6 4 6.35039 4 6.78261C4 7.21483 4.34662 7.56522 4.77419 7.56522H13.2258C13.6534 7.56522 14 7.21483 14 6.78261ZM20 12C20 11.5678 19.6534 11.2174 19.2258 11.2174H4.77419C4.34662 11.2174 4 11.5678 4 12C4 12.4322 4.34662 12.7826 4.77419 12.7826H19.2258C19.6534 12.7826 20 12.4322 20 12ZM14 17.2174C14 16.7852 13.6534 16.4348 13.2258 16.4348H4.77419C4.34662 16.4348 4 16.7852 4 17.2174C4 17.6496 4.34662 18 4.77419 18H13.2258C13.6534 18 14 17.6496 14 17.2174Z" fill="black" fill-opacity="0.8"/>
</svg>
