<svg width="24" height="24" viewBox="0 0 24 24" fill="none" xmlns="http://www.w3.org/2000/svg">
<path fill-rule="evenodd" clip-rule="evenodd" d="M10 6.78261C10 6.35039 10.3466 6 10.7742 6H19.2258C19.6534 6 20 6.35039 20 6.78261C20 7.21483 19.6534 7.56522 19.2258 7.56522H10.7742C10.3466 7.56522 10 7.21483 10 6.78261ZM4 12C4 11.5678 4.34662 11.2174 4.77419 11.2174H19.2258C19.6534 11.2174 20 11.5678 20 12C20 12.4322 19.6534 12.7826 19.2258 12.7826H4.77419C4.34662 12.7826 4 12.4322 4 12ZM10 17.2174C10 16.7852 10.3466 16.4348 10.7742 16.4348H19.2258C19.6534 16.4348 20 16.7852 20 17.2174C20 17.6496 19.6534 18 19.2258 18H10.7742C10.3466 18 10 17.6496 10 17.2174Z" fill="black" fill-opacity="0.8"/>
</svg>
