<svg width="24" height="24" viewBox="0 0 24 24" fill="none" xmlns="http://www.w3.org/2000/svg">
<path fill-rule="evenodd" clip-rule="evenodd" d="M20 6.78261C20 6.35039 19.6534 6 19.2258 6H4.77419C4.34662 6 4 6.35039 4 6.78261C4 7.21483 4.34662 7.56522 4.77419 7.56522H19.2258C19.6534 7.56522 20 7.21483 20 6.78261ZM20 12C20 11.5678 19.6534 11.2174 19.2258 11.2174H9.77419C9.34662 11.2174 9 11.5678 9 12C9 12.4322 9.34662 12.7826 9.77419 12.7826H19.2258C19.6534 12.7826 20 12.4322 20 12ZM20 17.2174C20 16.7852 19.6534 16.4348 19.2258 16.4348H4.77419C4.34662 16.4348 4 16.7852 4 17.2174C4 17.6496 4.34662 18 4.77419 18H19.2258C19.6534 18 20 17.6496 20 17.2174Z" fill="black" fill-opacity="0.8"/>
</svg>
