<svg width="24" height="24" viewBox="0 0 24 24" fill="none" xmlns="http://www.w3.org/2000/svg">
<path fill-rule="evenodd" clip-rule="evenodd" d="M4 6.78261C4 6.35039 4.34662 6 4.77419 6H19.2258C19.6534 6 20 6.35039 20 6.78261C20 7.21483 19.6534 7.56522 19.2258 7.56522H4.77419C4.34662 7.56522 4 7.21483 4 6.78261ZM4 12C4 11.5678 4.34662 11.2174 4.77419 11.2174H14.2258C14.6534 11.2174 15 11.5678 15 12C15 12.4322 14.6534 12.7826 14.2258 12.7826H4.77419C4.34662 12.7826 4 12.4322 4 12ZM4 17.2174C4 16.7852 4.34662 16.4348 4.77419 16.4348H19.2258C19.6534 16.4348 20 16.7852 20 17.2174C20 17.6496 19.6534 18 19.2258 18H4.77419C4.34662 18 4 17.6496 4 17.2174Z" fill="black" fill-opacity="0.8"/>
</svg>
