<svg width="24" height="24" viewBox="0 0 24 24" fill="none" xmlns="http://www.w3.org/2000/svg">
<path fill-rule="evenodd" clip-rule="evenodd" d="M20 6.78261C20 6.35039 19.6534 6 19.2258 6H10.7742C10.3466 6 10 6.35039 10 6.78261C10 7.21483 10.3466 7.56522 10.7742 7.56522H19.2258C19.6534 7.56522 20 7.21483 20 6.78261ZM20 12C20 11.5678 19.6534 11.2174 19.2258 11.2174H4.77419C4.34662 11.2174 4 11.5678 4 12C4 12.4322 4.34662 12.7826 4.77419 12.7826H19.2258C19.6534 12.7826 20 12.4322 20 12ZM14 17.2174C14 16.7852 13.6534 16.4348 13.2258 16.4348H4.77419C4.34662 16.4348 4 16.7852 4 17.2174C4 17.6496 4.34662 18 4.77419 18H13.2258C13.6534 18 14 17.6496 14 17.2174Z" fill="black" fill-opacity="0.8"/>
</svg>
