<svg width="24" height="24" viewBox="0 0 24 24" fill="none" xmlns="http://www.w3.org/2000/svg">
<path fill-rule="evenodd" clip-rule="evenodd" d="M18.1538 3.53846C16.8793 3.53846 15.8462 4.57165 15.8462 5.84615C15.8462 6.19047 15.9211 6.51519 16.0547 6.80668C16.42 7.60318 17.2234 8.15385 18.1538 8.15385C19.4284 8.15385 20.4615 7.12066 20.4615 5.84615C20.4615 4.57165 19.4284 3.53846 18.1538 3.53846ZM14.3077 5.84615C14.3077 3.72198 16.0297 2 18.1538 2C20.278 2 22 3.72198 22 5.84615C22 7.97033 20.278 9.69231 18.1538 9.69231C16.8888 9.69231 15.7675 9.0816 15.067 8.14072L9.5543 10.976C9.6443 11.3025 9.69231 11.646 9.69231 12C9.69231 12.3047 9.65674 12.6016 9.58942 12.8867L15.1539 15.7469C15.8582 14.8702 16.9399 14.3077 18.1538 14.3077C20.278 14.3077 22 16.0297 22 18.1538C22 20.278 20.278 22 18.1538 22C16.0297 22 14.3077 20.278 14.3077 18.1538C14.3077 17.7944 14.3572 17.4458 14.4499 17.1148L8.9413 14.2834C8.24136 15.2306 7.11618 15.8462 5.84615 15.8462C3.72198 15.8462 2 14.1242 2 12C2 9.87583 3.72198 8.15385 5.84615 8.15385C7.06572 8.15385 8.1518 8.72157 8.85585 9.60525L14.4139 6.74663C14.3444 6.45736 14.3077 6.15574 14.3077 5.84615ZM5.84615 9.69231C4.57165 9.69231 3.53846 10.7255 3.53846 12C3.53846 13.2745 4.57165 14.3077 5.84615 14.3077C6.7802 14.3077 7.58626 13.7527 7.94949 12.9513C8.08051 12.6622 8.15385 12.3407 8.15385 12C8.15385 11.6225 8.06381 11.2683 7.90472 10.9556C7.52253 10.2043 6.74346 9.69231 5.84615 9.69231ZM18.1538 15.8462C17.2607 15.8462 16.4846 16.3534 16.1006 17.0991C15.9382 17.4144 15.8462 17.7723 15.8462 18.1538C15.8462 19.4284 16.8793 20.4615 18.1538 20.4615C19.4284 20.4615 20.4615 19.4284 20.4615 18.1538C20.4615 16.8793 19.4284 15.8462 18.1538 15.8462Z" fill="black" fill-opacity="0.8"/>
</svg>
