<svg width="24" height="24" viewBox="0 0 24 24" fill="none" xmlns="http://www.w3.org/2000/svg">
<path fill-rule="evenodd" clip-rule="evenodd" d="M21.4042 8.70295L15.5829 8.01595L13.1274 2.71767C12.6936 1.78172 11.3772 1.76147 10.9045 2.65553L10.8254 2.82199L9.64606 5.36669L8.41839 8.01565L2.59624 8.70295C1.54477 8.82703 1.12251 10.1205 1.89987 10.836L6.20372 14.7976L5.06126 20.5205C4.85457 21.5558 5.96269 22.3525 6.8851 21.8387L12.0011 18.9892L17.116 21.8394C18.0414 22.355 19.145 21.5524 18.939 20.5205L17.7968 14.7976L22.1001 10.8362C22.8763 10.1218 22.4573 8.82722 21.4042 8.70295ZM12.0006 3.82451L9.71216 8.76224C9.5308 9.15356 9.15825 9.42066 8.73118 9.47107L3.30579 10.1115L7.31702 13.8037C7.6351 14.0965 7.7749 14.5317 7.69114 14.9513L6.6265 20.2845L11.395 17.6285C11.7704 17.4194 12.2289 17.4177 12.6066 17.6281L17.3738 20.2847L16.3093 14.951C16.2254 14.5306 16.3661 14.096 16.6835 13.8038L20.6944 10.1115L15.269 9.47125C14.8392 9.42053 14.4692 9.15098 14.289 8.76213L12.0006 3.82451Z" fill="#FFCC00"/>
</svg>
