<svg version="1.2" xmlns="http://www.w3.org/2000/svg" viewBox="0 0 24 24" width="24" height="24">
	<style>
		.s0 { opacity: .99;fill: #000000 } 
	</style>
	<path id="Path 0" fill-rule="evenodd" class="s0" d="m3.94 5c0.18 0 0.23 0.01 0.25 0.03q0.03 0.03 0.05 0.03 0.03 0 0.13 0.05 0.12 0.06 0.25 0.2 0.12 0.12 0.25 0.37v0.76c0 0.41 0.02 1.91 0.04 5.9l0.06 0.22c0.03 0.12 0.07 0.27 0.09 0.32 0.02 0.06 0.09 0.22 0.16 0.35 0.1 0.19 0.16 0.28 0.3 0.44 0.1 0.12 0.24 0.26 0.32 0.32 0.07 0.07 0.18 0.15 0.25 0.2 0.07 0.04 0.2 0.12 0.3 0.17 0.09 0.05 0.24 0.11 0.34 0.14 0.09 0.03 0.29 0.08 0.44 0.1 0.26 0.04 0.33 0.04 9.5 0.05v-1.39l0.06-0.1c0.03-0.06 0.09-0.15 0.15-0.2q0.09-0.09 0.19-0.11 0.11-0.03 0.23-0.02c0.07 0.01 0.17 0.03 0.23 0.06 0.06 0.03 0.23 0.11 0.38 0.2 0.15 0.08 0.47 0.26 0.71 0.4 0.24 0.13 0.72 0.4 1.07 0.6 0.35 0.2 0.83 0.46 1.06 0.6q0.43 0.24 0.54 0.34c0.07 0.06 0.14 0.14 0.17 0.19 0.04 0.07 0.05 0.11 0.05 0.24 0 0.13-0.01 0.17-0.05 0.25-0.03 0.06-0.09 0.14-0.14 0.18-0.05 0.05-0.19 0.15-0.33 0.23-0.13 0.08-0.53 0.3-0.89 0.5-0.35 0.2-0.75 0.43-0.89 0.5-0.14 0.08-0.35 0.2-0.47 0.26-0.12 0.07-0.38 0.22-0.58 0.32-0.19 0.11-0.44 0.25-0.55 0.3-0.15 0.08-0.21 0.1-0.31 0.1-0.07 0.01-0.17 0-0.22-0.01-0.05-0.01-0.13-0.05-0.18-0.08-0.06-0.05-0.1-0.1-0.23-0.34v-1.13l-3.26 0.01c-1.79 0-3.98-0.01-4.86-0.01-1.47-0.02-1.61-0.03-1.79-0.06-0.11-0.02-0.28-0.06-0.36-0.08-0.09-0.02-0.22-0.06-0.29-0.08-0.07-0.02-0.23-0.09-0.36-0.14-0.13-0.06-0.34-0.17-0.47-0.24-0.13-0.08-0.36-0.23-0.5-0.35-0.15-0.12-0.36-0.3-0.47-0.42-0.11-0.11-0.26-0.28-0.34-0.38-0.07-0.09-0.18-0.23-0.23-0.31-0.05-0.08-0.12-0.19-0.16-0.26-0.04-0.06-0.1-0.17-0.14-0.25-0.04-0.08-0.1-0.23-0.15-0.34-0.04-0.11-0.1-0.31-0.14-0.45-0.03-0.14-0.08-0.33-0.09-0.44-0.02-0.1-0.04-0.23-0.05-0.28-0.01-0.07-0.01-1.16 0-6.67l0.04-0.12c0.02-0.07 0.06-0.16 0.09-0.2 0.02-0.05 0.09-0.12 0.14-0.18 0.06-0.05 0.14-0.12 0.19-0.16q0.08-0.05 0.15-0.06 0.06-0.02 0.08-0.04 0.01-0.03 0.24-0.03zm8.34 0.27c3.62 0.01 4.37 0.01 4.42 0.03q0.06 0.03 0.16 0.08c0.06 0.03 0.15 0.1 0.21 0.16 0.08 0.09 0.13 0.16 0.25 0.46v0.25c-0.01 0.24-0.01 0.24-0.09 0.38-0.04 0.08-0.11 0.19-0.16 0.23-0.04 0.05-0.13 0.12-0.19 0.16q-0.1 0.06-0.14 0.07-0.03 0-0.09 0.03c-0.06 0.03-0.34 0.03-3.41 0.04-1.83 0.01-3.84 0-4.45-0.01-0.95-0.01-1.12-0.02-1.19-0.05-0.05-0.01-0.13-0.06-0.18-0.09-0.06-0.04-0.13-0.1-0.17-0.14-0.04-0.05-0.1-0.12-0.12-0.15-0.03-0.04-0.07-0.14-0.1-0.21q-0.05-0.14-0.05-0.29c0-0.08 0.02-0.19 0.03-0.25 0.02-0.06 0.05-0.15 0.08-0.21 0.02-0.06 0.1-0.16 0.16-0.23 0.07-0.07 0.14-0.14 0.16-0.14q0.04-0.02 0.13-0.05c0.05-0.03 0.14-0.05 0.22-0.06 0.08 0 2.11-0.01 4.52-0.01zm-0.76 4.62c2.81 0.01 3.14 0.01 3.21 0.04q0.07 0.03 0.15 0.07c0.05 0.02 0.13 0.08 0.19 0.14 0.06 0.06 0.14 0.16 0.17 0.22 0.03 0.06 0.07 0.14 0.08 0.18q0.03 0.07 0.02 0.32c-0.01 0.2-0.02 0.27-0.05 0.35-0.02 0.06-0.08 0.16-0.14 0.23-0.06 0.07-0.13 0.14-0.18 0.17-0.04 0.03-0.14 0.08-0.36 0.17l-6.93-0.01-0.15-0.07q-0.14-0.07-0.26-0.18c-0.08-0.09-0.13-0.16-0.28-0.45l0.01-0.24c0-0.23 0-0.24 0.07-0.39q0.06-0.15 0.17-0.27c0.07-0.07 0.15-0.13 0.18-0.15q0.07-0.03 0.15-0.07c0.08-0.04 0.11-0.04 0.44-0.05 0.19 0 0.36 0 0.36-0.01 0.01-0.01 1.42-0.01 3.15 0z"/>
</svg>