<svg version="1.2" xmlns="http://www.w3.org/2000/svg" viewBox="0 0 24 24" width="24" height="24">
	<style>
		.s0 { opacity: .99;fill: #000000 } 
	</style>
	<path id="Path 0" fill-rule="evenodd" class="s0" d="m4.97 6c0.2 0 0.25 0.01 0.26 0.03q0.01 0.02 0.03 0.03 0.04 0 0.15 0.05 0.12 0.05 0.25 0.19c0.07 0.07 0.15 0.17 0.17 0.21 0.02 0.05 0.05 0.13 0.07 0.17 0.03 0.08 0.03 0.41 0.04 3.39 0.01 2.97 0.01 3.31 0.04 3.48 0.02 0.1 0.05 0.23 0.06 0.28 0.02 0.06 0.05 0.17 0.08 0.24 0.02 0.07 0.06 0.17 0.09 0.22q0.05 0.09 0.05 0.1 0.01 0.02 0.08 0.15 0.07 0.13 0.09 0.15c0.01 0 0.07 0.08 0.14 0.16 0.06 0.08 0.15 0.19 0.2 0.23 0.04 0.04 0.14 0.13 0.22 0.19 0.07 0.06 0.2 0.15 0.28 0.19 0.08 0.05 0.16 0.09 0.17 0.1q0.03 0.02 0.11 0.06 0.07 0.03 0.13 0.06c0.03 0.01 0.12 0.04 0.21 0.06 0.08 0.03 0.23 0.06 0.33 0.07 0.1 0.01 0.24 0.03 0.31 0.04 0.08 0.01 2.2 0.02 4.87 0.02 4.05 0 4.75 0 4.84 0.02 0.06 0.02 0.15 0.05 0.21 0.08q0.1 0.05 0.24 0.18 0.13 0.13 0.18 0.24c0.03 0.06 0.07 0.15 0.08 0.19q0.02 0.06 0.04 0.07c0 0 0.01 0.08 0.01 0.19q0 0.18-0.02 0.19-0.02 0.01-0.05 0.1c-0.02 0.05-0.05 0.13-0.07 0.17-0.02 0.04-0.09 0.14-0.16 0.21q-0.13 0.12-0.24 0.18-0.11 0.05-0.15 0.06-0.03 0-0.04 0.03c-0.01 0.02-0.59 0.03-5.11 0.03-3.1 0-5.09-0.01-5.1-0.02q-0.01-0.02-0.15-0.04c-0.09-0.01-0.28-0.05-0.42-0.09-0.15-0.03-0.28-0.07-0.31-0.08q-0.04-0.02-0.14-0.05c-0.06-0.02-0.19-0.08-0.3-0.13-0.11-0.05-0.27-0.13-0.35-0.18-0.09-0.05-0.2-0.12-0.26-0.15q-0.1-0.07-0.11-0.08c-0.01-0.01-0.1-0.07-0.19-0.15-0.1-0.07-0.28-0.22-0.39-0.33-0.1-0.11-0.25-0.27-0.33-0.35-0.07-0.09-0.17-0.21-0.22-0.28-0.05-0.06-0.12-0.17-0.17-0.24q-0.07-0.11-0.07-0.12-0.01-0.02-0.05-0.09c-0.03-0.03-0.1-0.16-0.15-0.28-0.06-0.11-0.13-0.27-0.15-0.36-0.03-0.08-0.06-0.16-0.07-0.18-0.01-0.01-0.04-0.12-0.07-0.24-0.02-0.11-0.05-0.23-0.07-0.26-0.01-0.03-0.02-0.16-0.04-0.28-0.01-0.13-0.03-0.23-0.04-0.23 0 0-0.01-1.53-0.01-3.41q0-3.4 0.02-3.41 0.02-0.01 0.03-0.07c0.01-0.04 0.03-0.12 0.06-0.18 0.03-0.06 0.1-0.16 0.17-0.23q0.13-0.13 0.24-0.19 0.11-0.05 0.15-0.05 0.03-0.01 0.04-0.03c0.01-0.02 0.06-0.03 0.26-0.03zm8.4 0.27c3.91 0 4.56 0 4.6 0.02q0.05 0.03 0.09 0.03 0.04 0 0.07 0.03 0.03 0.03 0.07 0.04c0.03 0.01 0.11 0.07 0.19 0.15 0.07 0.07 0.13 0.15 0.13 0.16q0.01 0.03 0.04 0.09 0.04 0.08 0.07 0.15 0.03 0.06 0.03 0.3c0 0.17-0.01 0.24-0.03 0.3-0.02 0.03-0.06 0.11-0.08 0.17-0.03 0.06-0.1 0.15-0.17 0.22-0.06 0.06-0.14 0.12-0.17 0.14q-0.06 0.02-0.08 0.04-0.01 0.02-0.07 0.03-0.06 0.01-0.1 0.04c-0.03 0.02-0.75 0.03-4.59 0.03-3.84 0-4.56-0.01-4.59-0.03q-0.04-0.03-0.1-0.04-0.06-0.01-0.07-0.03-0.01-0.02-0.07-0.04c-0.04-0.02-0.12-0.09-0.18-0.15-0.07-0.07-0.14-0.17-0.17-0.22q-0.04-0.09-0.05-0.12 0-0.03-0.02-0.07c-0.03-0.03-0.03-0.09-0.03-0.26 0-0.19 0-0.25 0.04-0.33q0.03-0.09 0.06-0.15 0.03-0.04 0.03-0.07c0-0.01 0.06-0.08 0.13-0.16q0.13-0.14 0.19-0.15 0.06-0.01 0.08-0.04 0.03-0.02 0.06-0.03 0.04 0 0.09-0.03c0.04-0.02 0.69-0.02 4.6-0.02zm-1 4.73c3.12 0 3.56 0 3.6 0.03q0.04 0.02 0.07 0.03 0.04 0 0.07 0.03 0.03 0.02 0.08 0.03c0.02 0.01 0.11 0.08 0.18 0.15 0.08 0.08 0.14 0.16 0.15 0.19q0.01 0.04 0.04 0.07 0.02 0.03 0.03 0.07 0 0.04 0.02 0.07c0.03 0.03 0.03 0.1 0.03 0.29 0 0.18-0.01 0.26-0.03 0.3q-0.02 0.06-0.03 0.09 0 0.04-0.01 0.05-0.02 0.01-0.05 0.08c-0.02 0.04-0.09 0.12-0.15 0.18-0.06 0.07-0.16 0.14-0.2 0.16q-0.07 0.03-0.28 0.12h-7.05l-0.1-0.04c-0.05-0.02-0.13-0.06-0.17-0.08-0.04-0.02-0.13-0.09-0.2-0.15q-0.12-0.12-0.17-0.23-0.05-0.1-0.06-0.13 0-0.03-0.02-0.06c-0.03-0.03-0.03-0.1-0.03-0.27 0-0.19 0-0.25 0.04-0.32q0.03-0.1 0.06-0.15 0.03-0.05 0.03-0.07c0-0.01 0.06-0.09 0.14-0.16 0.07-0.08 0.14-0.15 0.16-0.15q0.03 0 0.1-0.03 0.07-0.04 0.13-0.07c0.06-0.02 0.48-0.03 3.62-0.03z"/>
</svg>