<svg version="1.2" xmlns="http://www.w3.org/2000/svg" viewBox="0 0 24 24" width="24" height="24">
	<style>
		.s0 { fill: #000000 } 
	</style>
	<path id="Path 0" fill-rule="evenodd" class="s0" d="m15.68 0l0.38 0.12c0.21 0.07 0.51 0.2 0.67 0.29 0.15 0.09 0.48 0.36 0.71 0.6q0.44 0.43 0.61 0.76c0.1 0.18 0.22 0.51 0.28 0.72 0.08 0.33 0.09 0.52 0.09 2.6l1.42 0.01c1.35 0.02 1.44 0.03 1.81 0.14 0.21 0.06 0.51 0.19 0.66 0.28 0.16 0.09 0.48 0.36 0.72 0.6 0.33 0.32 0.48 0.52 0.63 0.81 0.11 0.21 0.23 0.54 0.27 0.74 0.08 0.33 0.08 0.92 0.06 13.2l-0.14 0.39c-0.07 0.21-0.21 0.51-0.31 0.66-0.09 0.16-0.32 0.44-0.51 0.63-0.18 0.18-0.46 0.41-0.62 0.5-0.16 0.1-0.46 0.24-1.05 0.45l-6.42 0.01c-5.87 0.02-6.46 0.01-6.79-0.06-0.19-0.05-0.52-0.17-0.73-0.28-0.24-0.12-0.52-0.32-0.74-0.53-0.2-0.19-0.46-0.48-0.57-0.65-0.11-0.17-0.25-0.45-0.32-0.64-0.06-0.18-0.14-0.47-0.16-0.64-0.03-0.17-0.05-0.76-0.05-2.3h-1.35c-1.21 0.01-1.39-0.01-1.73-0.09-0.22-0.06-0.54-0.18-0.72-0.28-0.18-0.1-0.49-0.33-0.69-0.51-0.2-0.19-0.45-0.48-0.56-0.65-0.12-0.17-0.26-0.45-0.32-0.64-0.07-0.18-0.15-0.48-0.17-0.67-0.04-0.23-0.05-2.28-0.03-12.84l0.13-0.39c0.07-0.21 0.21-0.52 0.31-0.69 0.1-0.17 0.34-0.47 0.54-0.67 0.2-0.19 0.49-0.43 0.65-0.52 0.15-0.09 0.42-0.22 0.58-0.28 0.16-0.06 0.41-0.12 0.55-0.15 0.14-0.02 3.04-0.04 12.91-0.03zm-13.3 2.34q-0.25 0.24-0.34 0.49c-0.09 0.25-0.09 0.43-0.08 6.45 0.01 5.75 0.02 6.21 0.09 6.36 0.05 0.1 0.17 0.26 0.26 0.38 0.1 0.11 0.3 0.26 0.45 0.33 0.26 0.13 0.27 0.13 1.54 0.14l1.28 0.01 0.02-8.66c0.2-0.6 0.34-0.91 0.44-1.08 0.1-0.17 0.34-0.47 0.54-0.67 0.2-0.19 0.5-0.44 0.67-0.54 0.17-0.1 0.48-0.23 0.69-0.31l0.38-0.13 8.19-0.02c-0.02-2.06-0.02-2.08-0.15-2.35-0.09-0.17-0.21-0.34-0.34-0.44-0.11-0.09-0.28-0.2-0.37-0.25-0.16-0.09-0.4-0.09-6.37-0.1-5.66 0-6.23 0-6.43 0.07-0.11 0.05-0.33 0.19-0.47 0.32zm5.59 5.11q-0.26 0.24-0.34 0.49c-0.09 0.25-0.1 0.43-0.08 6.45 0.01 5.75 0.01 6.21 0.09 6.36 0.04 0.1 0.16 0.26 0.26 0.38 0.1 0.11 0.3 0.26 0.45 0.33l0.26 0.13c12.14 0 12.33 0 12.56-0.09 0.13-0.05 0.33-0.18 0.45-0.29 0.12-0.11 0.27-0.32 0.34-0.46l0.12-0.26v-12.37c-0.22-0.44-0.34-0.61-0.47-0.71-0.11-0.09-0.28-0.2-0.37-0.25-0.16-0.08-0.41-0.09-6.38-0.1-5.65 0-6.22 0-6.42 0.07-0.12 0.05-0.33 0.19-0.47 0.32z"/>
</svg>