<svg version="1.2" xmlns="http://www.w3.org/2000/svg" viewBox="0 0 24 24" width="24" height="24">
	<style>
		.s0 { fill: #000000 } 
	</style>
	<path id="Path 0" fill-rule="evenodd" class="s0" d="m6.24 6.42q0.12 0 0.14 0.02 0 0.03 0.1 0.09c0.05 0.03 0.51 0.47 1.01 0.96 0.51 0.5 0.94 0.91 0.96 0.91 0.02 0 0.45-0.41 0.96-0.91 0.5-0.5 0.96-0.94 1.02-0.99q0.11-0.08 0.23-0.08 0.11 0 0.16 0.04c0.03 0.02 0.11 0.09 0.17 0.15 0.12 0.1 0.12 0.11 0.13 0.53l-0.98 0.98c-0.53 0.54-0.98 1-0.98 1.01-0.01 0.01 0.2 0.23 0.91 0.94h2.84l0.11-0.18c0.05-0.1 0.2-0.36 0.33-0.59 0.12-0.22 0.27-0.49 0.33-0.59 0.06-0.1 0.18-0.32 0.27-0.48 0.09-0.17 0.18-0.32 0.19-0.34 0.02-0.03 0.12-0.21 0.23-0.39 0.1-0.19 0.2-0.38 0.22-0.41 0.02-0.03 0.08-0.13 0.13-0.2 0.04-0.08 0.13-0.19 0.18-0.24 0.06-0.06 0.14-0.12 0.19-0.15q0.08-0.03 0.08-0.06 0.01-0.02 0.16-0.02 0.14 0 0.15 0.03 0.01 0.03 0.07 0.05c0.04 0 0.13 0.06 0.21 0.13 0.07 0.06 0.18 0.19 0.24 0.29 0.05 0.09 0.13 0.23 0.17 0.29 0.04 0.07 0.19 0.35 0.34 0.61 0.15 0.27 0.31 0.56 0.36 0.64 0.05 0.09 0.17 0.3 0.26 0.47 0.09 0.17 0.2 0.35 0.23 0.4q0.05 0.08 0.06 0.1c0 0.01 0.08 0.16 0.36 0.64h1.06l2.04 2.06c1.13 1.14 2.06 2.1 2.08 2.14 0.02 0.04 0.04 0.14 0.04 0.22q0 0.15-0.07 0.26c-0.04 0.06-0.12 0.14-0.18 0.18q-0.11 0.07-0.26 0.07c-0.08 0-0.18-0.02-0.23-0.04-0.05-0.02-0.83-0.77-3.38-3.32v2.71q0 2.69-0.03 2.7-0.03 0.02-0.03 0.37c0 0.27-0.02 0.43-0.06 0.59-0.04 0.13-0.1 0.3-0.15 0.39-0.04 0.09-0.14 0.25-0.22 0.35-0.08 0.1-0.24 0.26-0.35 0.35-0.11 0.09-0.3 0.22-0.42 0.28-0.12 0.06-0.3 0.13-0.41 0.15-0.16 0.04-0.79 0.05-5.2 0.05-4.42 0-5.05-0.01-5.21-0.05-0.11-0.02-0.29-0.09-0.41-0.15-0.12-0.06-0.31-0.19-0.42-0.28-0.11-0.09-0.27-0.25-0.35-0.35-0.07-0.1-0.18-0.26-0.22-0.35-0.05-0.09-0.11-0.26-0.15-0.39-0.03-0.12-0.06-0.3-0.06-0.4q0-0.17-0.03-0.18c-0.02 0-0.03-0.99-0.03-5.79l-1.66 1.66c-1.38 1.38-1.68 1.67-1.79 1.7-0.07 0.02-0.17 0.03-0.23 0.02-0.06-0.01-0.16-0.05-0.22-0.09-0.06-0.04-0.13-0.12-0.17-0.18q-0.06-0.11-0.06-0.25c0-0.08 0.02-0.18 0.05-0.23 0.02-0.04 0.96-1.01 4.11-4.2h1.67l0.93-0.93-0.95-0.96c-0.52-0.52-0.96-0.98-0.98-1.01q-0.03-0.06-0.05-0.07-0.03-0.01-0.03-0.15c0-0.09 0.02-0.18 0.04-0.21 0.02-0.03 0.09-0.1 0.15-0.15 0.06-0.06 0.12-0.12 0.14-0.14q0.04-0.03 0.16-0.03zm8.6 2.1c-0.14 0.24-0.31 0.55-0.38 0.68-0.07 0.12-0.2 0.37-0.3 0.54l-0.17 0.31c2.08 0.02 2.69 0.02 2.7 0.01 0 0-0.03-0.09-0.09-0.19-0.05-0.11-0.13-0.25-0.18-0.33-0.05-0.08-0.12-0.21-0.16-0.28-0.05-0.08-0.12-0.2-0.15-0.27-0.04-0.07-0.12-0.21-0.19-0.33-0.06-0.11-0.2-0.36-0.31-0.56-0.11-0.19-0.23-0.36-0.26-0.36q-0.05-0.01-0.15 0.17c-0.06 0.1-0.23 0.37-0.36 0.61zm-6.61 1.55c0.33 0 0.42-0.01 0.42-0.03q-0.01-0.02-0.1-0.1l-0.11-0.09zm-2.03 4.34v3.26c0.13 0.29 0.22 0.44 0.32 0.54q0.16 0.17 0.36 0.27l0.2 0.09h9.85c0.33-0.16 0.46-0.25 0.56-0.36 0.1-0.1 0.19-0.25 0.24-0.36l0.08-0.18v-6.59c-10.59-0.01-11.59 0-11.6 0.03-0.01 0.02-0.01 1.51-0.01 3.3z"/>
</svg>