<svg version="1.2" xmlns="http://www.w3.org/2000/svg" viewBox="0 0 24 24" width="24" height="24">
	<style>
		.s0 { fill: #000000 } 
	</style>
	<path id="Path 0" fill-rule="evenodd" class="s0" d="m8.84 6.47c0.07 0 0.16 0.02 0.2 0.04 0.05 0.01 0.11 0.08 0.14 0.14 0.05 0.1 0.05 0.15 0.03 0.26-0.01 0.08-0.05 0.23-0.07 0.33-0.03 0.1-0.09 0.32-0.13 0.48-0.04 0.16-0.13 0.47-0.19 0.69-0.06 0.21-0.1 0.4-0.1 0.42 0 0.02 0.11 0.06 0.25 0.1 0.14 0.03 0.44 0.11 0.67 0.17 0.22 0.06 0.53 0.15 0.68 0.19 0.16 0.04 0.32 0.1 0.38 0.12 0.05 0.03 0.12 0.09 0.15 0.14 0.04 0.07 0.05 0.12 0.04 0.23q-0.02 0.14-0.1 0.21c-0.04 0.04-0.12 0.08-0.16 0.09-0.05 0.01-0.17 0-0.28-0.03-0.1-0.02-0.44-0.11-0.75-0.19-0.3-0.08-0.66-0.17-0.78-0.21-0.12-0.03-0.23-0.06-0.26-0.06-0.03 0-0.07 0.09-0.2 0.59l3.66 0.01-0.14-0.27c-0.12-0.23-0.14-0.29-0.14-0.46 0-0.11 0.02-0.26 0.05-0.34 0.03-0.07 0.08-0.18 0.12-0.24 0.05-0.05 0.14-0.14 0.21-0.18 0.08-0.05 0.65-0.38 1.27-0.74 1.04-0.6 1.16-0.66 1.33-0.68 0.14-0.02 0.23-0.01 0.37 0.03q0.19 0.05 0.32 0.18c0.09 0.09 0.32 0.45 0.79 1.26 0.35 0.63 0.68 1.21 0.8 1.44l1.84-0.01 2.04 2.07c1.13 1.14 2.06 2.1 2.08 2.14 0.02 0.04 0.04 0.13 0.04 0.22q0 0.15-0.07 0.25c-0.04 0.06-0.12 0.14-0.18 0.18q-0.11 0.08-0.26 0.07c-0.08 0-0.18-0.01-0.23-0.03-0.05-0.02-0.83-0.77-3.38-3.32v2.71q0 2.69-0.03 2.7-0.03 0.02-0.03 0.37c0 0.27-0.02 0.42-0.06 0.59-0.04 0.12-0.1 0.3-0.15 0.39-0.04 0.09-0.14 0.25-0.22 0.35-0.08 0.1-0.24 0.26-0.35 0.35-0.11 0.09-0.3 0.21-0.42 0.27-0.12 0.06-0.3 0.13-0.41 0.16-0.16 0.04-0.79 0.05-5.2 0.05-4.42 0-5.05-0.01-5.21-0.05-0.11-0.03-0.29-0.1-0.41-0.16-0.12-0.06-0.31-0.18-0.42-0.27-0.11-0.09-0.27-0.25-0.35-0.35-0.07-0.1-0.18-0.26-0.22-0.35-0.05-0.09-0.11-0.27-0.15-0.39-0.03-0.12-0.06-0.31-0.06-0.41q0-0.16-0.03-0.17c-0.02 0-0.03-0.99-0.03-5.79l-1.66 1.66c-1.38 1.38-1.68 1.66-1.79 1.69-0.07 0.02-0.17 0.03-0.23 0.02-0.06-0.01-0.16-0.05-0.22-0.09-0.06-0.04-0.13-0.12-0.17-0.18q-0.06-0.11-0.06-0.25c0-0.07 0.02-0.17 0.05-0.22 0.02-0.05 0.96-1.01 4.11-4.2h2.42l0.08-0.29q0.08-0.25 0.1-0.53l-0.45-0.12c-0.25-0.07-0.63-0.18-0.86-0.24-0.22-0.06-0.47-0.13-0.55-0.15q-0.15-0.05-0.21-0.13c-0.03-0.05-0.06-0.12-0.08-0.17q-0.02-0.08 0.03-0.2c0.03-0.09 0.08-0.14 0.28-0.24l0.88 0.22c0.48 0.13 0.94 0.25 1.03 0.27q0.14 0.05 0.16 0.04c0 0 0.12-0.42 0.25-0.91 0.14-0.5 0.27-0.96 0.29-1.02 0.01-0.07 0.07-0.15 0.11-0.18q0.09-0.06 0.2-0.07zm3.98 2.61c-0.19 0.12-0.36 0.22-0.37 0.24q-0.02 0.04-0.02 0.1c0 0.04 0.08 0.22 0.19 0.41l0.2 0.36h3.41q-0.45-0.79-0.79-1.38c-0.22-0.38-0.42-0.72-0.44-0.75q-0.03-0.05-0.1-0.09-0.07-0.03-0.08-0.03c-0.01 0-0.38 0.21-0.84 0.47-0.45 0.26-0.97 0.56-1.16 0.67zm-6.62 5.44v3.26c0.13 0.3 0.22 0.44 0.32 0.54q0.16 0.18 0.36 0.27l0.2 0.09h9.85c0.33-0.15 0.46-0.24 0.56-0.36 0.1-0.1 0.19-0.24 0.24-0.35l0.08-0.19v-6.58c-10.59-0.02-11.59-0.01-11.6 0.02-0.01 0.03-0.01 1.51-0.01 3.3zm4.66-11.01c0.04 0 0.14 0.03 0.22 0.06 0.08 0.03 0.35 0.17 0.6 0.32 0.25 0.15 0.84 0.5 1.32 0.79 0.48 0.29 0.97 0.58 1.08 0.65 0.11 0.07 0.22 0.17 0.26 0.22 0.03 0.06 0.07 0.15 0.09 0.21 0.02 0.08 0 0.14-0.05 0.26-0.07 0.16-0.08 0.16-0.91 0.64-0.46 0.27-1.2 0.69-1.64 0.94-0.65 0.38-0.81 0.46-0.92 0.47q-0.12-0.01-0.23-0.08c-0.06-0.04-0.14-0.13-0.18-0.21-0.05-0.12-0.06-0.22-0.08-0.73-0.01-0.33-0.02-1.17-0.02-1.87 0-1.27 0-1.28 0.07-1.42q0.07-0.14 0.19-0.19c0.07-0.03 0.16-0.06 0.2-0.06zm0.24 2.3c0.02 0.73 0.04 1.33 0.06 1.34 0.01 0 0.09-0.03 0.18-0.07 0.09-0.05 0.57-0.32 1.06-0.6 0.48-0.28 0.93-0.55 0.99-0.59 0.11-0.08 0.11-0.08 0.05-0.12-0.03-0.03-0.3-0.19-0.59-0.36-0.29-0.18-0.79-0.47-1.09-0.66-0.31-0.18-0.58-0.33-0.6-0.33q-0.04 0-0.06 0.03c-0.01 0.03-0.01 0.64 0 1.36z"/>
</svg>