<svg version="1.2" xmlns="http://www.w3.org/2000/svg" viewBox="0 0 24 24" width="24" height="24">
	<style>
		.s0 { fill: #000000 } 
	</style>
	<path id="Path 0" fill-rule="evenodd" class="s0" d="m1.89 0.96c0.11 0.01 0.24 0.04 0.29 0.06 0.05 0.03 0.4 0.34 0.76 0.69 0.37 0.35 1.14 1.11 2.78 2.75l1.65-1.64c0.9-0.9 1.7-1.68 1.77-1.73 0.07-0.05 0.19-0.1 0.26-0.12 0.07-0.01 0.21-0.02 0.3-0.01 0.1 0.01 0.23 0.05 0.31 0.09 0.07 0.04 0.18 0.14 0.25 0.22 0.06 0.07 0.13 0.19 0.15 0.25 0.01 0.06 0.03 0.18 0.03 0.27 0 0.09-0.02 0.22-0.04 0.29-0.03 0.09-0.16 0.25-0.54 0.64-0.27 0.28-1.04 1.06-2.93 2.96l1.59 1.59c0.87 0.88 1.65 1.67 1.72 1.77 0.08 0.1 0.15 0.23 0.17 0.29 0.01 0.06 0.03 0.17 0.03 0.25 0 0.08-0.02 0.2-0.04 0.26-0.03 0.06-0.09 0.17-0.14 0.23-0.05 0.07-0.16 0.17-0.24 0.22-0.13 0.09-0.17 0.09-0.41 0.09-0.14 0-0.31-0.02-0.36-0.04-0.07-0.03-0.78-0.71-3.53-3.44l-1.7 1.69c-1.09 1.08-1.74 1.7-1.82 1.74q-0.13 0.07-0.37 0.06c-0.2 0-0.27-0.01-0.39-0.08-0.07-0.04-0.19-0.13-0.24-0.2-0.06-0.07-0.13-0.2-0.16-0.29q-0.05-0.16-0.04-0.33c0.01-0.1 0.04-0.24 0.08-0.31 0.04-0.08 0.64-0.71 3.42-3.5l-1.41-1.42c-0.77-0.78-1.55-1.56-1.72-1.74-0.29-0.31-0.31-0.34-0.34-0.51-0.02-0.11-0.03-0.26-0.02-0.35 0.01-0.09 0.05-0.22 0.09-0.29 0.05-0.07 0.14-0.17 0.22-0.24 0.08-0.06 0.19-0.13 0.25-0.15q0.12-0.04 0.32-0.02zm15.97-0.01q0.21 0.01 0.4 0.1c0.11 0.05 0.26 0.15 0.33 0.22 0.08 0.08 0.21 0.24 0.3 0.36 0.08 0.12 0.23 0.37 0.33 0.56 0.11 0.18 0.41 0.72 0.68 1.2 0.26 0.48 0.92 1.63 1.44 2.58 0.53 0.94 1.08 1.93 1.23 2.2 0.15 0.28 0.3 0.58 0.34 0.68 0.06 0.13 0.07 0.24 0.07 0.44q0 0.28-0.05 0.44c-0.03 0.09-0.12 0.22-0.2 0.32-0.1 0.1-0.23 0.19-0.56 0.35h-8.68l-0.2-0.1q-0.2-0.09-0.36-0.26c-0.12-0.13-0.17-0.22-0.22-0.39-0.05-0.17-0.06-0.25-0.05-0.42 0.02-0.11 0.05-0.29 0.09-0.38 0.03-0.1 0.12-0.29 0.19-0.42 0.07-0.13 0.3-0.53 0.5-0.9 0.2-0.36 0.43-0.76 0.5-0.89 0.08-0.13 0.38-0.67 0.67-1.19 0.29-0.52 0.82-1.47 1.19-2.12 0.36-0.66 0.74-1.31 0.82-1.46 0.09-0.15 0.22-0.35 0.3-0.44 0.07-0.1 0.21-0.23 0.3-0.29 0.1-0.06 0.24-0.13 0.31-0.16 0.07-0.02 0.22-0.03 0.33-0.03zm-0.53 2.97c-0.18 0.31-0.57 1-0.87 1.53-0.3 0.54-0.78 1.41-1.08 1.94-0.29 0.53-0.57 1.04-0.62 1.13-0.08 0.16-0.08 0.17-0.02 0.22 0.05 0.06 0.24 0.06 3.09 0.06 2.65 0 3.04-0.01 3.09-0.05q0.05-0.05 0.03-0.11c-0.01-0.04-0.15-0.3-0.3-0.58-0.16-0.28-0.55-0.98-0.87-1.57-0.33-0.58-0.84-1.48-1.13-2.01-0.3-0.53-0.59-1.04-0.65-1.14-0.07-0.09-0.14-0.18-0.16-0.18q-0.04 0-0.11 0.09c-0.05 0.06-0.23 0.36-0.4 0.67zm-11.12 8.55c0.16 0 0.43 0.01 0.6 0.03 0.18 0.02 0.47 0.07 0.65 0.11 0.19 0.04 0.45 0.12 0.59 0.17 0.14 0.05 0.36 0.14 0.48 0.2 0.13 0.05 0.34 0.16 0.47 0.24 0.13 0.09 0.35 0.24 0.49 0.35 0.14 0.11 0.39 0.33 0.55 0.5 0.16 0.16 0.36 0.38 0.44 0.49 0.08 0.11 0.22 0.31 0.31 0.46 0.09 0.15 0.22 0.43 0.3 0.61 0.08 0.19 0.18 0.47 0.23 0.63 0.04 0.15 0.1 0.41 0.13 0.57 0.02 0.16 0.05 0.45 0.06 0.64 0.02 0.2 0.01 0.51-0.01 0.69-0.02 0.18-0.06 0.45-0.09 0.59-0.02 0.14-0.1 0.41-0.16 0.59-0.06 0.19-0.16 0.45-0.22 0.58-0.06 0.13-0.18 0.35-0.26 0.48-0.08 0.13-0.22 0.33-0.3 0.43-0.08 0.11-0.27 0.33-0.43 0.49-0.16 0.17-0.4 0.39-0.53 0.49-0.13 0.1-0.32 0.23-0.42 0.3-0.11 0.06-0.33 0.18-0.5 0.27-0.17 0.09-0.46 0.21-0.65 0.27-0.18 0.06-0.45 0.14-0.58 0.16-0.14 0.03-0.44 0.07-0.67 0.09-0.32 0.03-0.54 0.03-0.84 0-0.23-0.02-0.54-0.06-0.68-0.08-0.14-0.03-0.4-0.11-0.59-0.17-0.18-0.06-0.48-0.18-0.65-0.27-0.17-0.09-0.39-0.21-0.49-0.27-0.1-0.07-0.27-0.19-0.38-0.26-0.1-0.08-0.33-0.28-0.49-0.44-0.17-0.16-0.38-0.4-0.48-0.53-0.11-0.13-0.26-0.36-0.35-0.51-0.09-0.15-0.23-0.42-0.31-0.61-0.08-0.18-0.18-0.47-0.22-0.62-0.05-0.16-0.11-0.42-0.14-0.58q-0.05-0.28-0.05-0.86c0-0.41 0.01-0.67 0.05-0.87 0.03-0.16 0.08-0.39 0.12-0.53 0.04-0.13 0.12-0.38 0.19-0.56 0.07-0.17 0.2-0.45 0.29-0.6 0.09-0.16 0.26-0.42 0.38-0.58 0.12-0.16 0.35-0.41 0.5-0.57 0.16-0.15 0.39-0.35 0.51-0.45 0.12-0.09 0.33-0.23 0.45-0.31 0.12-0.07 0.33-0.19 0.46-0.25 0.14-0.06 0.38-0.15 0.55-0.21 0.16-0.06 0.44-0.14 0.61-0.18 0.16-0.03 0.41-0.08 0.54-0.09 0.13-0.02 0.37-0.03 0.54-0.03zm-0.7 1.68c-0.13 0.03-0.31 0.07-0.38 0.1-0.08 0.02-0.25 0.09-0.37 0.14-0.13 0.06-0.3 0.14-0.39 0.2-0.08 0.05-0.24 0.16-0.35 0.24-0.1 0.08-0.29 0.25-0.41 0.37-0.12 0.12-0.3 0.34-0.39 0.48-0.09 0.14-0.21 0.33-0.25 0.42-0.05 0.1-0.13 0.3-0.18 0.45-0.05 0.16-0.12 0.42-0.14 0.59-0.03 0.16-0.05 0.42-0.05 0.56 0 0.14 0.02 0.39 0.05 0.55 0.02 0.16 0.08 0.41 0.13 0.56 0.04 0.14 0.14 0.37 0.2 0.5 0.07 0.13 0.2 0.35 0.29 0.47 0.09 0.13 0.28 0.35 0.42 0.5 0.15 0.14 0.38 0.33 0.52 0.43 0.14 0.09 0.37 0.22 0.52 0.28 0.14 0.06 0.37 0.15 0.52 0.19 0.15 0.04 0.43 0.1 0.61 0.12 0.2 0.02 0.45 0.03 0.63 0.01 0.15-0.01 0.38-0.04 0.51-0.06 0.12-0.03 0.32-0.08 0.45-0.12 0.12-0.05 0.33-0.13 0.46-0.19 0.13-0.07 0.36-0.21 0.5-0.31 0.15-0.11 0.36-0.29 0.48-0.41 0.12-0.12 0.29-0.32 0.37-0.44 0.09-0.13 0.21-0.34 0.28-0.47 0.07-0.13 0.16-0.36 0.21-0.5 0.04-0.15 0.1-0.4 0.13-0.56 0.02-0.16 0.05-0.41 0.05-0.55 0-0.14-0.03-0.4-0.05-0.56-0.03-0.17-0.1-0.43-0.15-0.59-0.05-0.15-0.13-0.35-0.18-0.45-0.04-0.09-0.14-0.26-0.21-0.37-0.08-0.12-0.21-0.3-0.3-0.4-0.09-0.11-0.26-0.27-0.37-0.36-0.11-0.1-0.3-0.24-0.42-0.32-0.11-0.07-0.29-0.18-0.4-0.22-0.1-0.05-0.25-0.11-0.34-0.14-0.09-0.04-0.28-0.09-0.43-0.13-0.19-0.05-0.41-0.07-0.72-0.08-0.25-0.01-0.49-0.01-0.53 0-0.04 0.01-0.19 0.04-0.32 0.07zm15.83-1.22l0.22 0.07c0.12 0.05 0.3 0.12 0.4 0.18 0.1 0.05 0.27 0.19 0.39 0.31 0.13 0.11 0.28 0.28 0.34 0.38 0.06 0.1 0.16 0.3 0.31 0.72v3.33c0 3.15 0 3.34-0.06 3.52-0.03 0.11-0.1 0.28-0.16 0.4-0.06 0.12-0.19 0.3-0.32 0.44-0.13 0.13-0.31 0.3-0.42 0.37-0.11 0.06-0.31 0.16-0.7 0.29h-6.66l-0.24-0.07c-0.13-0.04-0.32-0.12-0.42-0.18-0.09-0.05-0.27-0.19-0.39-0.3-0.12-0.12-0.27-0.29-0.34-0.39-0.06-0.1-0.16-0.3-0.31-0.72l-0.01-3.23c0-2.8 0-3.27 0.04-3.49 0.03-0.15 0.1-0.36 0.17-0.49 0.08-0.15 0.21-0.33 0.33-0.47 0.12-0.12 0.3-0.28 0.4-0.35 0.11-0.07 0.26-0.16 0.35-0.19 0.09-0.03 0.25-0.08 0.35-0.1 0.16-0.04 0.84-0.04 6.73-0.03zm-6.61 1.7c-0.04 0.04-0.09 0.12-0.12 0.17-0.04 0.08-0.04 0.49-0.04 3.18 0.01 3.02 0.01 3.08 0.08 3.16 0.03 0.05 0.12 0.12 0.19 0.16 0.12 0.06 0.19 0.06 3.15 0.06 2.96 0 3.03 0 3.15-0.06 0.07-0.04 0.16-0.11 0.2-0.16 0.06-0.08 0.06-0.14 0.07-3.16 0.01-3.07 0.01-3.09-0.06-3.2-0.04-0.07-0.11-0.15-0.15-0.19-0.09-0.06-0.14-0.06-3.18-0.07-1.7 0-3.12 0.01-3.15 0.02q-0.07 0.03-0.14 0.09z"/>
</svg>