<svg width="24" height="24" viewBox="0 0 24 24" fill="none" xmlns="http://www.w3.org/2000/svg">
<path fill-rule="evenodd" clip-rule="evenodd" d="M12 3.53846C7.32682 3.53846 3.53846 7.32682 3.53846 12C3.53846 16.6732 7.32682 20.4615 12 20.4615C16.6732 20.4615 20.4615 16.6732 20.4615 12C20.4615 7.32682 16.6732 3.53846 12 3.53846ZM2 12C2 6.47715 6.47715 2 12 2C17.5228 2 22 6.47715 22 12C22 17.5228 17.5228 22 12 22C6.47715 22 2 17.5228 2 12ZM12 7.58994C12.4248 7.58994 12.7692 7.93434 12.7692 8.35918V12.4617C12.7692 12.8866 12.4248 13.231 12 13.231C11.5752 13.231 11.2308 12.8866 11.2308 12.4617V8.35918C11.2308 7.93434 11.5752 7.58994 12 7.58994ZM11.1797 15.5387C11.1797 15.1138 11.5241 14.7694 11.9489 14.7694H12.0511C12.4759 14.7694 12.8203 15.1138 12.8203 15.5387V15.6412C12.8203 15.8458 12.7389 16.0419 12.5939 16.1862C12.449 16.3306 12.2526 16.4113 12.0481 16.4105L11.9459 16.4101C11.5222 16.4084 11.1797 16.0645 11.1797 15.6408V15.5387Z" fill="black" fill-opacity="0.8"/>
</svg>
