<svg width="24" height="24" viewBox="0 0 24 24" fill="none" xmlns="http://www.w3.org/2000/svg">
<path fill-rule="evenodd" clip-rule="evenodd" d="M12 3.53846C7.32682 3.53846 3.53846 7.32682 3.53846 12C3.53846 16.6732 7.32682 20.4615 12 20.4615C16.6732 20.4615 20.4615 16.6732 20.4615 12C20.4615 7.32682 16.6732 3.53846 12 3.53846ZM2 12C2 6.47715 6.47715 2 12 2C17.5228 2 22 6.47715 22 12C22 17.5228 17.5228 22 12 22C6.47715 22 2 17.5228 2 12ZM11.1797 7.89744C11.1797 7.4726 11.5241 7.12821 11.9489 7.12821H12.0511C12.4759 7.12821 12.8203 7.4726 12.8203 7.89744V8C12.8203 8.42424 12.4768 8.7684 12.0526 8.76923L11.9504 8.76943C11.7462 8.76983 11.5501 8.68896 11.4055 8.54466C11.2609 8.40036 11.1797 8.20447 11.1797 8.0002V7.89744ZM12 10.2051C12.4248 10.2051 12.7692 10.5495 12.7692 10.9744V16.1026C12.7692 16.5274 12.4248 16.8718 12 16.8718C11.5752 16.8718 11.2308 16.5274 11.2308 16.1026V10.9744C11.2308 10.5495 11.5752 10.2051 12 10.2051Z" fill="black" fill-opacity="0.8"/>
</svg>
