<svg width="24" height="24" viewBox="0 0 24 24" fill="none" xmlns="http://www.w3.org/2000/svg">
<path fill-rule="evenodd" clip-rule="evenodd" d="M12.5256 4.65401C12.191 4.5058 11.8086 4.5058 11.4741 4.65401C11.3625 4.70344 11.1913 4.83318 10.9028 5.23953C10.6166 5.64257 10.2848 6.21295 9.80746 7.03553L4.79335 15.677C4.31569 16.5002 3.985 17.0718 3.77723 17.5202C3.56776 17.9723 3.54039 18.1849 3.55318 18.3059C3.59144 18.6682 3.78255 18.9975 4.07894 19.2117C4.17782 19.2832 4.37627 19.3658 4.87408 19.4113C5.36789 19.4564 6.0302 19.4571 6.98495 19.4571H17.0151C17.9698 19.4571 18.6321 19.4564 19.1258 19.4113C19.6236 19.3658 19.822 19.2832 19.9209 19.2117C20.2174 18.9974 20.4086 18.668 20.4468 18.3059C20.4596 18.1848 20.4322 17.9722 20.2228 17.5201C20.0151 17.0718 19.6844 16.5001 19.2068 15.677L14.1935 7.03699C13.7159 6.21377 13.3837 5.64306 13.0974 5.23986C12.8087 4.83339 12.6374 4.70353 12.5256 4.65401ZM10.8434 3.24454C11.5794 2.91849 12.4202 2.91849 13.1562 3.24454C13.6581 3.46688 14.0288 3.87794 14.3637 4.34945C14.6965 4.81803 15.0642 5.45178 15.5183 6.23438L20.5669 14.9353C21.0214 15.7186 21.3894 16.3528 21.631 16.8743C21.8739 17.3986 22.0463 17.9236 21.9889 18.4672C21.9047 19.2647 21.4839 19.9889 20.8323 20.4599C20.3879 20.7812 19.845 20.8949 19.2676 20.9477C18.6944 21 17.9604 21 17.0544 21H6.94563C6.03957 21 5.3056 21 4.73238 20.9477C4.15488 20.8949 3.61194 20.7812 3.16754 20.4599C2.51588 19.9888 2.09532 19.2646 2.01109 18.4672C1.95366 17.9235 2.12614 17.3986 2.3691 16.8742C2.61057 16.3531 2.97835 15.7192 3.43249 14.9366L8.48428 6.23024C8.93723 5.44958 9.30422 4.81709 9.63641 4.34925C9.97105 3.87798 10.3416 3.46686 10.8434 3.24454ZM12 8.1429C12.4282 8.1429 12.7753 8.48828 12.7753 8.91433V13.0286C12.7753 13.4546 12.4282 13.8 12 13.8C11.5718 13.8 11.2247 13.4546 11.2247 13.0286V8.91433C11.2247 8.48828 11.5718 8.1429 12 8.1429ZM11.1732 16.1143C11.1732 15.6883 11.5203 15.3429 11.9485 15.3429H12.0525C12.4807 15.3429 12.8278 15.6883 12.8278 16.1143V16.2172C12.8278 16.6426 12.4816 16.9878 12.054 16.9886L11.95 16.9888C11.7441 16.9892 11.5466 16.9081 11.4008 16.7634C11.2551 16.6187 11.1732 16.4222 11.1732 16.2174V16.1143Z" fill="black" fill-opacity="0.8"/>
</svg>
