<svg width="24" height="24" viewBox="0 0 24 24" fill="none" xmlns="http://www.w3.org/2000/svg">
<path fill-rule="evenodd" clip-rule="evenodd" d="M7.03177 2H16.9687C17.5181 1.99999 17.9765 1.99998 18.3509 2.03075C18.7416 2.06284 19.1082 2.13225 19.455 2.30985C19.9864 2.58198 20.4203 3.01624 20.6919 3.55199C20.8686 3.90044 20.9375 4.26897 20.9694 4.66124C21 5.03737 21 5.49764 21 6.04872V10.1823C21 17.4473 15.5146 20.6874 13.2703 21.7083L13.2619 21.7122C13.0207 21.8219 12.8344 21.9063 12.4791 21.9676C12.3312 21.9931 12.1456 22 12.0005 22C11.8554 22 11.6699 21.9931 11.522 21.9676C11.1633 21.9057 10.976 21.8205 10.7295 21.7084C8.48522 20.6874 3 17.4473 3 10.1823L3 6.05212C2.99999 5.49991 2.99998 5.03891 3.03059 4.66229C3.06251 4.26953 3.13152 3.90069 3.3083 3.55199C3.57948 3.01708 4.01197 2.58241 4.5442 2.30985C4.89114 2.13218 5.25813 2.06282 5.64892 2.03074C6.02365 1.99998 6.48234 1.99999 7.03177 2ZM5.77452 3.57624C5.47902 3.6005 5.33774 3.64381 5.24464 3.69149C5.00272 3.81537 4.80626 4.01283 4.68299 4.25597C4.63555 4.34954 4.59246 4.49153 4.56832 4.78852C4.54346 5.09451 4.54286 5.49182 4.54286 6.08356V10.1823C4.54286 16.4973 9.27722 19.3456 11.3656 20.2957C11.5782 20.3924 11.6218 20.4115 11.7827 20.4393C11.7827 20.4392 11.7882 20.4401 11.8004 20.4414C11.8137 20.4427 11.8311 20.4441 11.8524 20.4454C11.8954 20.4479 11.9468 20.4494 12.0005 20.4494C12.0543 20.4494 12.1056 20.4479 12.1486 20.4454C12.17 20.4441 12.1874 20.4427 12.2006 20.4414C12.2093 20.4405 12.2146 20.4398 12.217 20.4395C12.2184 20.4393 12.2187 20.4392 12.218 20.4393C12.3777 20.4118 12.4197 20.3931 12.6314 20.2969L12.6398 20.293C14.7312 19.3403 19.4571 16.4915 19.4571 10.1823V6.08017C19.4571 5.48955 19.4565 5.093 19.4317 4.78754C19.4076 4.49109 19.3646 4.34936 19.3172 4.25597C19.1944 4.01366 18.9973 3.8158 18.7545 3.69149C18.6613 3.64374 18.5202 3.60047 18.2252 3.57623C17.9211 3.55125 17.5261 3.55064 16.9373 3.55064H7.06306C6.47428 3.55064 6.07897 3.55125 5.77452 3.57624ZM12 7.16881C12.426 7.16881 12.7714 7.51593 12.7714 7.94413V12.0792C12.7714 12.5074 12.426 12.8545 12 12.8545C11.574 12.8545 11.2286 12.5074 11.2286 12.0792V7.94413C11.2286 7.51593 11.574 7.16881 12 7.16881ZM11.1773 15.1805C11.1773 14.7523 11.5227 14.4051 11.9488 14.4051H12.0512C12.4773 14.4051 12.8227 14.7523 12.8227 15.1805V15.2838C12.8227 15.7115 12.4782 16.0583 12.0527 16.0592L11.9503 16.0594C11.7454 16.0598 11.5488 15.9783 11.4038 15.8328C11.2588 15.6874 11.1773 15.4899 11.1773 15.284V15.1805Z" fill="black" fill-opacity="0.8"/>
</svg>
