<svg width="24" height="24" viewBox="0 0 24 24" fill="none" xmlns="http://www.w3.org/2000/svg">
<path fill-rule="evenodd" clip-rule="evenodd" d="M12 3.53846C7.32682 3.53846 3.53846 7.32682 3.53846 12C3.53846 16.6732 7.32682 20.4615 12 20.4615C16.6732 20.4615 20.4615 16.6732 20.4615 12C20.4615 7.32682 16.6732 3.53846 12 3.53846ZM2 12C2 6.47715 6.47715 2 12 2C17.5228 2 22 6.47715 22 12C22 17.5228 17.5228 22 12 22C6.47715 22 2 17.5228 2 12ZM11.3977 6.15009C12.0983 6.03895 12.8156 6.12359 13.4711 6.39493C14.1267 6.66631 14.6943 7.11387 15.1112 7.68757C15.5284 8.26162 15.7782 8.93947 15.8339 9.64638C15.8897 10.3536 15.7486 11.0626 15.4266 11.6946C15.1047 12.3266 14.6147 12.857 14.0098 13.2278C13.6262 13.4628 13.2062 13.6277 12.7692 13.7169V14.0515C12.7692 14.4764 12.4248 14.8208 12 14.8208C11.5752 14.8208 11.2308 14.4764 11.2308 14.0515V13.0254C11.2308 12.6006 11.5752 12.2562 12 12.2562C12.4256 12.2562 12.843 12.1385 13.2059 11.9161C13.5687 11.6937 13.8626 11.3756 14.0558 10.9963C14.249 10.617 14.3336 10.1915 14.3002 9.76729C14.2667 9.3427 14.1168 8.93615 13.8667 8.59208C13.6164 8.24766 13.2758 7.97915 12.8827 7.81641C12.4895 7.65364 12.0592 7.60285 11.6388 7.66955C11.2183 7.73627 10.824 7.91807 10.5006 8.1945C10.1769 8.4711 9.93633 8.8313 9.80498 9.23603C9.67385 9.64011 9.23996 9.86138 8.83587 9.73025C8.43178 9.59911 8.21051 9.16522 8.34165 8.76113C8.56066 8.08629 8.96187 7.48575 9.50105 7.02496C10.0404 6.56399 10.6972 6.26123 11.3977 6.15009ZM11.1797 17.1282C11.1797 16.7034 11.5241 16.359 11.9489 16.359H12.0511C12.4759 16.359 12.8203 16.7034 12.8203 17.1282V17.2308C12.8203 17.655 12.4768 17.9992 12.0526 18L11.9504 18.0002C11.7461 18.0006 11.5501 17.9197 11.4055 17.7754C11.2609 17.6311 11.1797 17.4352 11.1797 17.231V17.1282Z" fill="black" fill-opacity="0.8"/>
</svg>
