<svg width="24" height="24" viewBox="0 0 24 24" fill="none" xmlns="http://www.w3.org/2000/svg">
<path fill-rule="evenodd" clip-rule="evenodd" d="M5.49748 6.58534C4.27433 8.05264 3.53846 9.94039 3.53846 12C3.53846 16.6732 7.32682 20.4615 12 20.4615C14.0596 20.4615 15.9474 19.7257 17.4147 18.5025L5.49748 6.58534ZM6.58534 5.49748L18.5025 17.4147C19.7257 15.9474 20.4615 14.0596 20.4615 12C20.4615 7.32682 16.6732 3.53846 12 3.53846C9.94039 3.53846 8.05264 4.27433 6.58534 5.49748ZM2 12C2 6.47715 6.47715 2 12 2C17.5228 2 22 6.47715 22 12C22 17.5228 17.5228 22 12 22C6.47715 22 2 17.5228 2 12Z" fill="black" fill-opacity="0.8"/>
</svg>
