<svg width="24" height="24" viewBox="0 0 24 24" fill="none" xmlns="http://www.w3.org/2000/svg">
<path d="M1 7.11563C1 7.90938 1.24049 8.68751 1.72148 9.45002C2.20247 10.2125 2.8983 10.9031 3.80897 11.5219C4.71964 12.1407 5.82752 12.6329 7.13261 12.9985C8.43769 13.3641 9.91434 13.5469 11.5626 13.5469C13.1466 13.5469 14.62 13.3594 15.9828 12.9844C17.3456 12.6094 18.5209 12.0719 19.5085 11.3719C18.9249 11.1219 18.4695 10.7281 18.1424 10.1906C17.4241 10.8719 16.5006 11.3907 15.3719 11.7469C14.2432 12.1032 12.9734 12.2813 11.5626 12.2813C10.126 12.2813 8.90585 12.1219 7.90219 11.8031C6.89853 11.4844 6.08566 11.0781 5.46357 10.5844C4.84149 10.0906 4.38776 9.57501 4.10237 9.03751C3.81699 8.50001 3.67429 8.01251 3.67429 7.57501C3.67429 7.13751 3.74484 6.75626 3.88593 6.43125C3.4306 6.18126 3.06665 5.83282 2.79409 5.38595C2.52153 4.93907 2.37883 4.45938 2.36601 3.94688C1.45534 4.77813 1 5.83438 1 7.11563ZM16.8438 15.6094C16.8438 14.8094 16.6947 13.9469 16.3965 13.0219C16.0982 12.0969 15.683 11.1657 15.1506 10.2281C14.6184 9.29064 13.9963 8.39376 13.2844 7.53751C12.5726 6.68126 11.7998 5.91407 10.9661 5.23595C10.1324 4.55782 9.2698 4.02188 8.37836 3.62813C8.38478 3.66563 8.38798 3.7047 8.38798 3.74532C8.38798 3.78594 8.38798 3.82501 8.38798 3.8625C8.38798 4.36876 8.25972 4.85001 8.0032 5.30626C8.70223 5.51251 9.38363 5.84532 10.0474 6.3047C10.7112 6.76407 11.33 7.31407 11.904 7.9547C12.478 8.59532 12.9814 9.28907 13.4143 10.036C13.8472 10.7828 14.1855 11.5532 14.4292 12.3469C14.6729 13.1407 14.7947 13.9188 14.7947 14.6813C14.7947 15.4125 14.6601 16.0563 14.3908 16.6125C14.1214 17.1688 13.7574 17.6047 13.2989 17.9203C12.8403 18.236 12.3192 18.3938 11.7356 18.3938C11.8062 18.6938 11.8415 18.9688 11.8415 19.2188C11.8415 19.875 11.6395 20.4656 11.2354 20.9907C11.2803 20.9969 11.33 21 11.3846 21C11.4391 21 11.492 21 11.5432 21C12.5694 21 13.4816 20.7672 14.28 20.3016C15.0785 19.8359 15.7054 19.1984 16.1607 18.3891C16.6161 17.5797 16.8438 16.6531 16.8438 15.6094ZM17.5172 3C16.6193 3 15.7199 3.19688 14.8188 3.59063C13.9177 3.98438 13.0471 4.51875 12.2071 5.19376C11.367 5.86876 10.5877 6.63595 9.86943 7.49532C9.15116 8.3547 8.52106 9.25626 7.97914 10.2C7.43723 11.1438 7.01557 12.0797 6.71414 13.0078C6.41273 13.9359 6.26202 14.8031 6.26202 15.6094C6.26202 16.1969 6.34539 16.7719 6.51213 17.3344C6.73017 17.0219 7.03801 16.7719 7.43562 16.5844C7.83324 16.3969 8.20841 16.2969 8.56114 16.2844C8.47777 16.0407 8.41364 15.7844 8.36875 15.5156C8.32385 15.2469 8.30141 14.9688 8.30141 14.6813C8.30141 13.8438 8.45532 12.9781 8.76316 12.0844C9.07099 11.1906 9.49586 10.3266 10.0378 9.4922C10.5797 8.65782 11.205 7.90782 11.9136 7.2422C12.6223 6.57657 13.379 6.04844 14.1839 5.65782C14.9888 5.2672 15.8048 5.07188 16.6321 5.07188C17.7993 5.07188 18.6202 5.45313 19.0947 6.21563C19.5886 5.90313 20.1337 5.74688 20.7302 5.74688C21.1663 5.74688 21.5896 5.83751 22 6.01876C21.7755 5.08126 21.2673 4.34375 20.4752 3.80626C19.6832 3.26875 18.6972 3 17.5172 3Z" fill="#8E8E93"/>
<path d="M4.98089 5.86207C5.34288 5.86207 5.67303 5.77668 5.97133 5.60592C6.26964 5.43514 6.50762 5.20361 6.68526 4.91133C6.8629 4.61905 6.95173 4.29228 6.95173 3.93103C6.95173 3.39902 6.759 2.94417 6.37355 2.5665C5.9881 2.18883 5.52388 2 4.98089 2C4.4312 2 3.96363 2.18883 3.57818 2.5665C3.19272 2.94417 3 3.39902 3 3.93103C3 4.29228 3.08882 4.61905 3.26647 4.91133C3.44411 5.20361 3.68209 5.43514 3.98039 5.60592C4.2787 5.77668 4.6122 5.86207 4.98089 5.86207ZM21.0291 10.936C21.3978 10.936 21.7313 10.8489 22.0296 10.6749C22.3279 10.5008 22.5642 10.2677 22.7386 9.97537C22.9129 9.68309 23 9.35961 23 9.00493C23 8.64368 22.9112 8.31692 22.7335 8.02464C22.5559 7.73235 22.3179 7.49918 22.0196 7.32513C21.7212 7.15107 21.3911 7.06404 21.0291 7.06404C20.6672 7.06404 20.337 7.15107 20.0387 7.32513C19.7404 7.49918 19.5024 7.73235 19.3247 8.02464C19.1471 8.31692 19.0583 8.64368 19.0583 9.00493C19.0583 9.35961 19.1471 9.68309 19.3247 9.97537C19.5024 10.2677 19.7404 10.5008 20.0387 10.6749C20.337 10.8489 20.6672 10.936 21.0291 10.936ZM8.59074 22C8.95273 22 9.28287 21.9146 9.58118 21.7438C9.87949 21.5731 10.1175 21.3415 10.2951 21.0492C10.4728 20.757 10.5616 20.4303 10.5616 20.069C10.5616 19.7143 10.4728 19.3908 10.2951 19.0985C10.1175 18.8063 9.87949 18.5731 9.58118 18.399C9.28287 18.225 8.95273 18.138 8.59074 18.138C8.22205 18.138 7.88855 18.225 7.59024 18.399C7.29193 18.5731 7.05563 18.8063 6.88134 19.0985C6.70705 19.3908 6.61991 19.7143 6.61991 20.069C6.61991 20.4237 6.70705 20.7472 6.88134 21.0395C7.05563 21.3317 7.29193 21.5648 7.59024 21.7389C7.88855 21.913 8.22205 22 8.59074 22Z" fill="#FF9500"/>
</svg>
