<svg width="24" height="24" viewBox="0 0 24 24" fill="none" xmlns="http://www.w3.org/2000/svg">
<path d="M8.90692 16.0046C8.90692 16.6122 9.19969 16.916 9.78523 16.916H14.2244C14.8098 16.916 15.1026 16.6122 15.1026 16.0046V12.718C15.1026 12.1534 14.8512 11.8558 14.3484 11.8251V10.8492C14.3484 10.0882 14.132 9.47448 13.6993 9.00804C13.2665 8.54161 12.7033 8.30839 12.0096 8.30839C11.3094 8.30839 10.743 8.54161 10.3103 9.00804C9.87748 9.47448 9.66109 10.0882 9.66109 10.8492V11.8251C9.15831 11.8558 8.90692 12.1534 8.90692 12.718V16.0046ZM10.5585 11.8159V10.7572C10.5585 10.2723 10.6906 9.8826 10.9547 9.58801C11.2188 9.29342 11.5704 9.14613 12.0096 9.14613C12.4423 9.14613 12.7908 9.29342 13.0549 9.58801C13.319 9.8826 13.4511 10.2723 13.4511 10.7572V11.8159H10.5585ZM18.864 20C19.5831 20 20.2546 19.8819 20.8782 19.6455C21.502 19.4092 22.0477 19.0824 22.5155 18.6651C22.9833 18.2478 23.3476 17.7629 23.6086 17.2106C23.8695 16.6582 24 16.066 24 15.4338C24 14.7894 23.8791 14.1833 23.6372 13.6156C23.3954 13.0479 23.0485 12.5447 22.5966 12.1058C22.1448 11.667 21.607 11.3218 20.9832 11.0702C20.9832 10.0452 20.8082 9.10164 20.4582 8.23934C20.1082 7.37705 19.6165 6.6283 18.9832 5.99309C18.35 5.35788 17.6118 4.8669 16.7685 4.52014C15.9252 4.17338 15.0135 4 14.0334 4C13.1678 4 12.3866 4.13349 11.6897 4.40046C10.9928 4.66743 10.3755 5.0234 9.83772 5.46835C9.29992 5.9133 8.84009 6.40582 8.45822 6.94591C7.87271 6.7802 7.28878 6.75412 6.70644 6.86765C6.1241 6.9812 5.59427 7.20828 5.11695 7.5489C4.63961 7.88952 4.25457 8.31913 3.96181 8.83774C3.66905 9.35634 3.51631 9.93784 3.50357 10.5823C2.7844 10.6927 2.16229 10.9566 1.63723 11.374C1.11217 11.7913 0.708035 12.3161 0.42482 12.9482C0.141607 13.5803 0 14.2708 0 15.0196C0 15.6947 0.143198 16.3329 0.429594 16.9344C0.71599 17.5358 1.11853 18.0652 1.63723 18.5224C2.15592 18.9796 2.76213 19.3402 3.45585 19.6041C4.14956 19.868 4.90374 20 5.71837 20H18.864ZM18.864 18.5178H5.71837C4.91646 18.5178 4.20047 18.3567 3.5704 18.0345C2.94033 17.7123 2.44392 17.2857 2.08115 16.7549C1.71838 16.224 1.537 15.6455 1.537 15.0196C1.537 14.4058 1.6611 13.8488 1.9093 13.3487C2.15751 12.8485 2.51869 12.4511 2.99283 12.1565C3.46698 11.8619 4.04136 11.7146 4.71599 11.7146C4.83691 11.7146 4.89738 11.6532 4.89738 11.5305C4.89738 10.8185 5.01671 10.2309 5.25537 9.76753C5.49403 9.30417 5.81066 8.95127 6.20525 8.70885C6.59983 8.46643 7.03738 8.32834 7.51789 8.29458C7.9984 8.26082 8.48368 8.32066 8.97374 8.47409C9.08193 8.50478 9.16149 8.4741 9.21241 8.38204C9.52425 7.85423 9.89657 7.36938 10.3293 6.9275C10.7621 6.48561 11.2824 6.13424 11.8902 5.87341C12.498 5.61258 13.2124 5.48216 14.0334 5.48216C15.0771 5.48216 16 5.71998 16.8019 6.19562C17.6038 6.67126 18.2403 7.2988 18.7112 8.07824C19.1822 8.85768 19.4431 9.70156 19.494 10.6099C19.5067 10.8247 19.5083 11.0502 19.4988 11.2865C19.4892 11.5228 19.4749 11.7484 19.4558 11.9632C19.4431 12.0798 19.494 12.1503 19.6086 12.1749C20.4741 12.359 21.1662 12.7395 21.6849 13.3164C22.2036 13.8933 22.463 14.5991 22.463 15.4338C22.463 16.0046 22.3039 16.5232 21.9856 16.9896C21.6675 17.4561 21.2363 17.8274 20.6921 18.1035C20.1479 18.3797 19.5386 18.5178 18.864 18.5178Z" fill="black" fill-opacity="0.8"/>
</svg>
