<svg width="24" height="24" viewBox="0 0 24 24" fill="none" xmlns="http://www.w3.org/2000/svg">
<path d="M18.864 20C19.5831 20 20.2546 19.8819 20.8782 19.6455C21.502 19.4092 22.0477 19.0824 22.5155 18.6651C22.9833 18.2478 23.3476 17.7629 23.6086 17.2106C23.8695 16.6582 24 16.066 24 15.4338C24 14.7894 23.8791 14.1833 23.6372 13.6156C23.3954 13.0479 23.0485 12.5447 22.5966 12.1058C22.1448 11.667 21.607 11.3218 20.9832 11.0702C20.9832 10.0452 20.8082 9.10164 20.4582 8.23934C20.1082 7.37705 19.6165 6.6283 18.9832 5.99309C18.35 5.35788 17.6118 4.8669 16.7685 4.52014C15.9252 4.17338 15.0135 4 14.0334 4C13.1678 4 12.3866 4.13349 11.6897 4.40046C10.9928 4.66743 10.3755 5.0234 9.83772 5.46835C9.29992 5.9133 8.84009 6.40582 8.45822 6.94591C7.87271 6.7802 7.28878 6.75412 6.70644 6.86765C6.1241 6.9812 5.59427 7.20828 5.11695 7.5489C4.63961 7.88952 4.25457 8.31913 3.96181 8.83774C3.66905 9.35634 3.51631 9.93784 3.50357 10.5823C2.7844 10.6927 2.16229 10.9566 1.63723 11.374C1.11217 11.7913 0.708035 12.3161 0.42482 12.9482C0.141607 13.5803 0 14.2708 0 15.0196C0 15.6947 0.143198 16.3329 0.429594 16.9344C0.71599 17.5358 1.11853 18.0652 1.63723 18.5224C2.15592 18.9796 2.76213 19.3402 3.45585 19.6041C4.14956 19.868 4.90374 20 5.71837 20H18.864ZM18.864 18.5178H5.71837C4.91646 18.5178 4.20047 18.3567 3.5704 18.0345C2.94033 17.7123 2.44392 17.2857 2.08115 16.7549C1.71838 16.224 1.537 15.6455 1.537 15.0196C1.537 14.4058 1.6611 13.8488 1.9093 13.3487C2.15751 12.8485 2.51869 12.4511 2.99283 12.1565C3.46698 11.8619 4.04136 11.7146 4.71599 11.7146C4.83691 11.7146 4.89738 11.6532 4.89738 11.5305C4.89738 10.8185 5.01671 10.2309 5.25537 9.76753C5.49403 9.30417 5.81066 8.95127 6.20525 8.70885C6.59983 8.46643 7.03738 8.32834 7.51789 8.29458C7.9984 8.26082 8.48368 8.32066 8.97374 8.47409C9.08193 8.50478 9.16149 8.4741 9.21241 8.38204C9.52425 7.85423 9.89657 7.36938 10.3293 6.9275C10.7621 6.48561 11.2824 6.13424 11.8902 5.87341C12.498 5.61258 13.2124 5.48216 14.0334 5.48216C15.0771 5.48216 16 5.71998 16.8019 6.19562C17.6038 6.67126 18.2403 7.2988 18.7112 8.07824C19.1822 8.85768 19.4431 9.70156 19.494 10.6099C19.5067 10.8247 19.5083 11.0502 19.4988 11.2865C19.4892 11.5228 19.4749 11.7484 19.4558 11.9632C19.4431 12.0798 19.494 12.1503 19.6086 12.1749C20.4741 12.359 21.1662 12.7395 21.6849 13.3164C22.2036 13.8933 22.463 14.5991 22.463 15.4338C22.463 16.0046 22.3039 16.5232 21.9856 16.9896C21.6675 17.4561 21.2363 17.8274 20.6921 18.1035C20.1479 18.3797 19.5386 18.5178 18.864 18.5178ZM16.0477 13.1323C16.0477 12.4511 15.8759 11.8358 15.5322 11.2865C15.1885 10.7372 14.7367 10.3015 14.1766 9.97927C13.6166 9.65706 13.0119 9.49596 12.3628 9.49596C12.3246 9.49596 12.2864 9.49749 12.2482 9.50056C12.21 9.50363 12.1718 9.50823 12.1336 9.51437L12.735 8.91598C12.786 8.86688 12.8258 8.80858 12.8544 8.74107C12.8831 8.67356 12.8974 8.60605 12.8974 8.53854C12.8974 8.39124 12.8449 8.2639 12.7398 8.15649C12.6348 8.04909 12.506 7.99539 12.3532 7.99539C12.2768 7.99539 12.2036 8.01073 12.1336 8.04142C12.0636 8.0721 12.0032 8.11507 11.9523 8.1703L10.3007 9.79055C10.1989 9.88875 10.1464 10.0161 10.1432 10.1726C10.14 10.3291 10.1925 10.4595 10.3007 10.5638L11.9714 12.1749C12.0732 12.2731 12.1973 12.3222 12.3437 12.3222C12.4964 12.3222 12.6268 12.2716 12.735 12.1703C12.8433 12.069 12.8974 11.9447 12.8974 11.7974C12.8974 11.6563 12.8401 11.5305 12.7255 11.42L11.895 10.6283C11.9395 10.6222 11.9888 10.616 12.0429 10.6099C12.097 10.6037 12.1495 10.6007 12.2005 10.6007C12.6969 10.6007 13.1456 10.7157 13.5465 10.9459C13.9475 11.176 14.2673 11.4844 14.506 11.8711C14.7446 12.2577 14.864 12.6874 14.864 13.1599C14.864 13.6386 14.7446 14.0728 14.506 14.4625C14.2673 14.8523 13.9475 15.1623 13.5465 15.3924C13.1456 15.6226 12.6969 15.7376 12.2005 15.7376C11.7104 15.7376 11.2649 15.6226 10.864 15.3924C10.463 15.1623 10.1431 14.8523 9.90449 14.4625C9.66585 14.0728 9.54653 13.6386 9.54653 13.1599C9.54653 13.0065 9.48766 12.8745 9.36992 12.7641C9.25218 12.6536 9.11376 12.5984 8.95465 12.5984C8.79554 12.5984 8.65711 12.6536 8.53937 12.7641C8.42163 12.8745 8.36276 13.0065 8.36276 13.1599C8.36276 13.8473 8.5346 14.4717 8.87827 15.0333C9.22195 15.5949 9.68495 16.043 10.2673 16.3774C10.8496 16.7119 11.494 16.8791 12.2005 16.8791C12.9133 16.8791 13.5608 16.7119 14.1432 16.3774C14.7255 16.043 15.1885 15.5934 15.5322 15.0287C15.8759 14.4641 16.0477 13.832 16.0477 13.1323Z" fill="black" fill-opacity="0.8"/>
</svg>
