<svg width="24" height="24" viewBox="0 0 24 24" fill="none" xmlns="http://www.w3.org/2000/svg">
<path d="M18.864 20C19.5831 20 20.2546 19.8819 20.8782 19.6455C21.502 19.4092 22.0477 19.0824 22.5155 18.6651C22.9833 18.2478 23.3476 17.7629 23.6086 17.2106C23.8695 16.6582 24 16.066 24 15.4338C24 14.7894 23.8791 14.1833 23.6372 13.6156C23.3954 13.0479 23.0485 12.5447 22.5966 12.1058C22.1448 11.667 21.607 11.3218 20.9832 11.0702C20.9832 10.0452 20.8082 9.10164 20.4582 8.23934C20.1082 7.37705 19.6165 6.6283 18.9832 5.99309C18.35 5.35788 17.6118 4.8669 16.7685 4.52014C15.9252 4.17338 15.0135 4 14.0334 4C13.1678 4 12.3866 4.13349 11.6897 4.40046C10.9928 4.66743 10.3755 5.0234 9.83772 5.46835C9.29992 5.9133 8.84009 6.40582 8.45822 6.94591C7.87271 6.7802 7.28878 6.75412 6.70644 6.86765C6.1241 6.9812 5.59427 7.20828 5.11695 7.5489C4.63961 7.88952 4.25457 8.31913 3.96181 8.83774C3.66905 9.35634 3.51631 9.93784 3.50357 10.5823C2.7844 10.6927 2.16229 10.9566 1.63723 11.374C1.11217 11.7913 0.708035 12.3161 0.42482 12.9482C0.141607 13.5803 0 14.2708 0 15.0196C0 15.6947 0.143198 16.3329 0.429594 16.9344C0.71599 17.5358 1.11853 18.0652 1.63723 18.5224C2.15592 18.9796 2.76213 19.3402 3.45585 19.6041C4.14956 19.868 4.90374 20 5.71837 20H18.864ZM11.3222 16.382C11.1631 16.382 11.0183 16.3483 10.8878 16.2807C10.7574 16.2132 10.6348 16.1089 10.5203 15.9677L8.38186 13.3717C8.23548 13.1876 8.16229 13.0004 8.16229 12.8101C8.16229 12.5892 8.23866 12.4066 8.3914 12.2624C8.54414 12.1181 8.72553 12.046 8.93555 12.046C9.22831 12.046 9.46379 12.1688 9.642 12.4142L11.284 14.4855L14.5489 9.22899C14.7144 8.95281 14.9435 8.81472 15.2362 8.81472C15.459 8.81472 15.6483 8.88223 15.8043 9.01725C15.9602 9.15227 16.0381 9.32105 16.0381 9.52358C16.0381 9.63405 16.0143 9.73839 15.9666 9.83658C15.9189 9.93478 15.8727 10.0207 15.8281 10.0943L12.0859 15.9585C11.9077 16.2409 11.6531 16.382 11.3222 16.382Z" fill="black" fill-opacity="0.8"/>
</svg>
