<svg width="24" height="24" viewBox="0 0 24 24" fill="none" xmlns="http://www.w3.org/2000/svg">
<path d="M14.8544 15.7512V17.246H19.3127C20.2928 17.246 21.1329 17.0712 21.8329 16.7215C22.533 16.3717 23.0692 15.8982 23.4415 15.3008C23.8138 14.7035 24 14.0304 24 13.2813C24 12.3404 23.7311 11.5063 23.1933 10.779C22.6555 10.0517 21.9188 9.50233 20.9832 9.13093C20.9832 8.09719 20.8082 7.14547 20.4582 6.27577C20.1082 5.40607 19.6165 4.65243 18.9832 4.01486C18.35 3.37729 17.6118 2.88208 16.7685 2.52924C15.9252 2.17641 15.0135 2 14.0334 2C13.1678 2 12.3866 2.13463 11.6897 2.4039C10.9928 2.67317 10.3755 3.03373 9.83772 3.48561C9.29992 3.93749 8.84009 4.43269 8.45822 4.97122C7.91726 4.82885 7.35879 4.81647 6.78281 4.93408C6.20684 5.05169 5.67382 5.27918 5.18376 5.61654C4.69371 5.95389 4.29435 6.37946 3.98568 6.89323C3.67701 7.40701 3.51631 7.99197 3.50357 8.64811C2.7844 8.75334 2.16229 9.00249 1.63723 9.39555C1.11217 9.78862 0.708035 10.2854 0.42482 10.8858C0.141607 11.4863 0 12.1517 0 12.8821C0 13.6868 0.198886 14.4188 0.596659 15.0781C0.994429 15.7373 1.56563 16.2634 2.31026 16.6565C3.05489 17.0495 3.94908 17.246 4.99283 17.246H9.2315V15.7512H4.98329C4.2323 15.7512 3.60063 15.6228 3.0883 15.3659C2.57597 15.109 2.18934 14.7638 1.9284 14.3305C1.66746 13.8972 1.537 13.4144 1.537 12.8821C1.537 11.9907 1.81385 11.2525 2.36754 10.6676C2.92124 10.0827 3.70405 9.79017 4.71599 9.79017C4.83691 9.79017 4.89738 9.72518 4.89738 9.59519C4.89738 8.64192 5.10103 7.90995 5.50835 7.39927C5.91567 6.88859 6.43118 6.56671 7.05489 6.43362C7.6786 6.30054 8.31821 6.32684 8.97374 6.51255C9.08193 6.5435 9.16149 6.51564 9.21241 6.42898C9.52425 5.89045 9.89657 5.39989 10.3293 4.9573C10.7621 4.51471 11.2824 4.16032 11.8902 3.89415C12.498 3.62798 13.2124 3.4949 14.0334 3.4949C15.0771 3.4949 16 3.73476 16.8019 4.21449C17.6038 4.69422 18.2403 5.32715 18.7112 6.11329C19.1822 6.89942 19.4431 7.75365 19.494 8.67597C19.5067 8.88643 19.5083 9.11082 19.4988 9.34914C19.4892 9.58745 19.4749 9.81493 19.4558 10.0316C19.4431 10.1554 19.494 10.2266 19.6086 10.2451C20.4741 10.4308 21.1662 10.7837 21.6849 11.3036C22.2036 11.8236 22.463 12.4829 22.463 13.2813C22.463 13.9932 22.1973 14.5828 21.6659 15.0502C21.1345 15.5175 20.3469 15.7512 19.3031 15.7512H14.8544ZM12.0477 22C12.2514 22 12.428 21.9288 12.5775 21.7865C12.7271 21.6441 12.8019 21.477 12.8019 21.2851V12.5757L12.7446 10.858L13.3842 11.5171L14.8353 12.9193C14.9881 13.0678 15.1599 13.142 15.3508 13.142C15.5481 13.142 15.7136 13.0817 15.8472 12.961C15.9809 12.8403 16.0477 12.684 16.0477 12.4921C16.0477 12.294 15.9713 12.13 15.8186 12.0001L12.5919 9.06593C12.4964 8.97928 12.4057 8.91738 12.3198 8.88023C12.2339 8.8431 12.1432 8.82453 12.0477 8.82453C11.9459 8.82453 11.8536 8.8431 11.7709 8.88023C11.6882 8.91738 11.5959 8.97928 11.494 9.06593L8.2673 12.0001C8.11455 12.13 8.03818 12.294 8.03818 12.4921C8.03818 12.684 8.10342 12.8403 8.23388 12.961C8.36435 13.0817 8.52824 13.142 8.72553 13.142C8.92283 13.142 9.09785 13.0678 9.25059 12.9193L10.7017 11.5171L11.3413 10.858L11.284 12.5757V21.2851C11.284 21.477 11.3588 21.6441 11.5084 21.7865C11.6579 21.9288 11.8377 22 12.0477 22Z" fill="black" fill-opacity="0.8"/>
</svg>
