<svg width="24" height="24" viewBox="0 0 24 24" fill="none" xmlns="http://www.w3.org/2000/svg">
<path d="M5.71837 20.3962H14.8544L3.77088 9.46225C3.68814 9.65723 3.62291 9.86163 3.57518 10.0755C3.52744 10.2893 3.50357 10.5126 3.50357 10.7453C2.7844 10.8585 2.16229 11.1289 1.63723 11.5566C1.11217 11.9843 0.708035 12.522 0.42482 13.1698C0.141607 13.8176 0 14.5252 0 15.2925C0 15.9843 0.143198 16.6384 0.429594 17.2547C0.71599 17.871 1.11853 18.4151 1.63723 18.8868C2.15592 19.3585 2.76213 19.728 3.45585 19.9952C4.14956 20.2626 4.90374 20.3962 5.71837 20.3962ZM20 20.2359C20.7828 20.0786 21.4749 19.7846 22.0763 19.3538C22.6778 18.9229 23.1488 18.3931 23.4892 17.7642C23.8297 17.1352 24 16.4528 24 15.7169C24 15.0566 23.8791 14.4355 23.6372 13.8538C23.3954 13.272 23.0485 12.7563 22.5966 12.3066C22.1448 11.8569 21.607 11.5031 20.9832 11.2453C20.9832 10.195 20.8082 9.22798 20.4582 8.34434C20.1082 7.46069 19.6165 6.69339 18.9832 6.04244C18.35 5.3915 17.6118 4.88836 16.7685 4.53301C15.9252 4.17767 15.0135 4 14.0334 4C13.1678 4 12.3866 4.13679 11.6897 4.41037C10.9928 4.68395 10.3755 5.04873 9.83772 5.50471C9.29992 5.96069 8.84009 6.4654 8.45822 7.01887C8.17183 6.93081 7.86793 6.88521 7.54654 6.88207C7.22513 6.87892 6.90851 6.91823 6.59666 6.99999L20 20.2359ZM18.883 22.7924C19.0294 22.9308 19.2028 23 19.4033 23C19.6038 23 19.7772 22.9308 19.9237 22.7924C20.0636 22.6478 20.1352 22.4748 20.1384 22.2735C20.1416 22.0723 20.07 21.9025 19.9237 21.7641L3.99045 6.02829C3.84407 5.88364 3.66746 5.81289 3.46062 5.81603C3.25378 5.81918 3.08035 5.88993 2.94033 6.02829C2.80032 6.16666 2.7319 6.33962 2.73508 6.54716C2.73826 6.75471 2.80668 6.92452 2.94033 7.0566L18.883 22.7924Z" fill="black" fill-opacity="0.8"/>
</svg>
