<svg width="24" height="24" viewBox="0 0 24 24" fill="none" xmlns="http://www.w3.org/2000/svg">
<path d="M5.18376 16.6869H11.1122V11.2039C11.1122 10.9654 11.2061 10.7597 11.3938 10.5868C11.5816 10.4139 11.8059 10.3274 12.0669 10.3274C12.3214 10.3274 12.5426 10.4139 12.7303 10.5868C12.918 10.7597 13.0119 10.9654 13.0119 11.2039V16.6869H19.4081C20.3246 16.6869 21.1265 16.5229 21.8139 16.195C22.5012 15.867 23.0374 15.4213 23.4225 14.8578C23.8075 14.2943 24 13.6607 24 12.9571C24 12.0805 23.7311 11.271 23.1933 10.5286C22.6555 9.78623 21.9188 9.23316 20.9832 8.86941C20.9832 7.87359 20.8082 6.95677 20.4582 6.11896C20.1082 5.28116 19.6165 4.55516 18.9832 3.94097C18.35 3.32677 17.6118 2.84973 16.7685 2.50984C15.9252 2.16995 15.0135 2 14.0334 2C13.1678 2 12.3866 2.12969 11.6897 2.38908C10.9928 2.64848 10.3755 2.99583 9.83772 3.43113C9.29992 3.86643 8.84009 4.34347 8.45822 4.86226C7.91726 4.72511 7.35879 4.71318 6.78281 4.82647C6.20684 4.93977 5.67382 5.15891 5.18376 5.4839C4.69371 5.80888 4.29435 6.21884 3.98568 6.71377C3.67701 7.20871 3.51631 7.77221 3.50357 8.40429C2.7844 8.51162 2.16229 8.76356 1.63723 9.16011C1.11217 9.55667 0.708035 10.0516 0.42482 10.6449C0.141607 11.2382 0 11.8807 0 12.5724C0 13.3357 0.214797 14.0274 0.644391 14.6476C1.07399 15.2678 1.67701 15.7627 2.45346 16.1324C3.22991 16.5021 4.14001 16.6869 5.18376 16.6869ZM12.0669 22C12.1623 22 12.253 21.9821 12.3389 21.9463C12.4248 21.9105 12.5155 21.8479 12.611 21.7585L15.8377 18.8425C15.9904 18.6995 16.0668 18.5415 16.0668 18.3686C16.0668 18.1896 16 18.0406 15.8664 17.9213C15.7327 17.8021 15.5672 17.7424 15.37 17.7424C15.1599 17.7424 14.9881 17.814 14.8544 17.957L13.4033 19.4061L12.7637 20.0322L12.821 18.6995V16.678C12.821 16.4872 12.7462 16.3232 12.5966 16.186C12.447 16.0489 12.2705 15.9803 12.0669 15.9803C11.8568 15.9803 11.677 16.0489 11.5274 16.186C11.3779 16.3232 11.3031 16.4872 11.3031 16.678V18.6995L11.3604 20.0411L10.7208 19.4061L9.26968 17.957C9.13603 17.814 8.96101 17.7424 8.74462 17.7424C8.54733 17.7424 8.38345 17.8021 8.25297 17.9213C8.12251 18.0406 8.05728 18.1896 8.05728 18.3686C8.05728 18.5415 8.13365 18.6995 8.28639 18.8425L11.5131 21.7585C11.6086 21.8479 11.6993 21.9105 11.7852 21.9463C11.8711 21.9821 11.965 22 12.0669 22Z" fill="black" fill-opacity="0.8"/>
</svg>
