<svg width="24" height="24" viewBox="0 0 24 24" fill="none" xmlns="http://www.w3.org/2000/svg">
<path d="M18.864 20C19.5831 20 20.2546 19.8819 20.8782 19.6455C21.502 19.4092 22.0477 19.0824 22.5155 18.6651C22.9833 18.2478 23.3476 17.7629 23.6086 17.2106C23.8695 16.6582 24 16.066 24 15.4338C24 14.7894 23.8791 14.1833 23.6372 13.6156C23.3954 13.0479 23.0485 12.5447 22.5966 12.1058C22.1448 11.667 21.607 11.3218 20.9832 11.0702C20.9832 10.0452 20.8082 9.10164 20.4582 8.23934C20.1082 7.37705 19.6165 6.6283 18.9832 5.99309C18.35 5.35788 17.6118 4.8669 16.7685 4.52014C15.9252 4.17338 15.0135 4 14.0334 4C13.1678 4 12.3866 4.13349 11.6897 4.40046C10.9928 4.66743 10.3755 5.0234 9.83772 5.46835C9.29992 5.9133 8.84009 6.40582 8.45822 6.94591C7.87271 6.7802 7.28878 6.75412 6.70644 6.86765C6.1241 6.9812 5.59427 7.20828 5.11695 7.5489C4.63961 7.88952 4.25457 8.31913 3.96181 8.83774C3.66905 9.35634 3.51631 9.93784 3.50357 10.5823C2.7844 10.6927 2.16229 10.9566 1.63723 11.374C1.11217 11.7913 0.708035 12.3161 0.42482 12.9482C0.141607 13.5803 0 14.2708 0 15.0196C0 15.6947 0.143198 16.3329 0.429594 16.9344C0.71599 17.5358 1.11853 18.0652 1.63723 18.5224C2.15592 18.9796 2.76213 19.3402 3.45585 19.6041C4.14956 19.868 4.90374 20 5.71837 20H18.864ZM16.1719 13.1415C16.1719 13.8596 15.9936 14.5117 15.6372 15.0978C15.2808 15.6839 14.8035 16.1488 14.2052 16.4925C13.607 16.8362 12.9388 17.008 12.2005 17.008C11.4686 17.008 10.8035 16.8362 10.2053 16.4925C9.60701 16.1488 9.12966 15.687 8.77326 15.107C8.41686 14.527 8.23865 13.8811 8.23865 13.1691C8.23865 13.0096 8.29912 12.873 8.42004 12.7595C8.54097 12.6459 8.68416 12.5892 8.84963 12.5892C9.02147 12.5892 9.16785 12.6459 9.28877 12.7595C9.4097 12.873 9.47016 13.0096 9.47016 13.1691C9.47016 13.6601 9.59268 14.1066 9.83772 14.5086C10.0828 14.9106 10.4121 15.2313 10.8257 15.4707C11.2395 15.71 11.6977 15.8296 12.2005 15.8296C12.7096 15.8296 13.171 15.71 13.5847 15.4707C13.9984 15.2313 14.3277 14.9106 14.5728 14.5086C14.8178 14.1066 14.9403 13.6601 14.9403 13.1691C14.9403 12.6843 14.8178 12.2424 14.5728 11.8435C14.3277 11.4446 13.9984 11.1269 13.5847 10.8907C13.171 10.6544 12.7096 10.5362 12.2005 10.5362C12.0859 10.5362 11.9841 10.5454 11.895 10.5638L12.7446 11.374C12.8592 11.4844 12.9165 11.6133 12.9165 11.7606C12.9165 11.9202 12.8608 12.0521 12.7494 12.1565C12.638 12.2608 12.5028 12.313 12.3437 12.313C12.1973 12.313 12.07 12.2608 11.9618 12.1565L10.2434 10.4994C10.1352 10.3951 10.0811 10.2601 10.0811 10.0943C10.0811 9.92864 10.1352 9.79668 10.2434 9.69849L11.9427 8.02301C11.9936 7.96777 12.0557 7.92481 12.1288 7.89412C12.202 7.86343 12.2768 7.84809 12.3532 7.84809C12.506 7.84809 12.638 7.90333 12.7494 8.0138C12.8608 8.12427 12.9165 8.25622 12.9165 8.40965C12.9165 8.47717 12.9021 8.54621 12.8735 8.61679C12.8448 8.68737 12.8051 8.74721 12.7542 8.7963L12.1432 9.41311C12.1814 9.40697 12.2196 9.40236 12.2578 9.3993C12.296 9.39623 12.3341 9.3947 12.3723 9.3947C13.0405 9.3947 13.6626 9.5604 14.2386 9.89181C14.8146 10.2232 15.2808 10.6728 15.6372 11.2405C15.9936 11.8082 16.1719 12.4419 16.1719 13.1415Z" fill="black" fill-opacity="0.8"/>
</svg>
