<svg width="24" height="24" viewBox="0 0 24 24" fill="none" xmlns="http://www.w3.org/2000/svg">
<path d="M14.8544 15.2469V16.6869H19.3127C20.2928 16.6869 21.1329 16.5185 21.8329 16.1816C22.533 15.8447 23.0692 15.3885 23.4415 14.813C23.8138 14.2376 24 13.5891 24 12.8676C24 11.9612 23.7311 11.1577 23.1933 10.4571C22.6555 9.75642 21.9188 9.22719 20.9832 8.86941C20.9832 7.87359 20.8082 6.95677 20.4582 6.11896C20.1082 5.28116 19.6165 4.55516 18.9832 3.94097C18.35 3.32677 17.6118 2.84973 16.7685 2.50984C15.9252 2.16995 15.0135 2 14.0334 2C13.1678 2 12.3866 2.12969 11.6897 2.38908C10.9928 2.64848 10.3755 2.99583 9.83772 3.43113C9.29992 3.86643 8.84009 4.34347 8.45822 4.86226C7.91726 4.72511 7.35879 4.71318 6.78281 4.82647C6.20684 4.93977 5.67382 5.15891 5.18376 5.4839C4.69371 5.80888 4.29435 6.21884 3.98568 6.71377C3.67701 7.20871 3.51631 7.77221 3.50357 8.40429C2.7844 8.50566 2.16229 8.74568 1.63723 9.12433C1.11217 9.50298 0.708035 9.98152 0.42482 10.56C0.141607 11.1383 0 11.7794 0 12.483C0 13.2582 0.198886 13.9633 0.596659 14.5983C0.994429 15.2334 1.56563 15.7403 2.31026 16.119C3.05489 16.4976 3.94908 16.6869 4.99283 16.6869H9.2315V15.2469H4.98329C4.2323 15.2469 3.60063 15.1232 3.0883 14.8757C2.57597 14.6282 2.18934 14.2958 1.9284 13.8783C1.66746 13.4609 1.537 12.9958 1.537 12.483C1.537 11.6243 1.81385 10.9132 2.36754 10.3498C2.92124 9.78623 3.70405 9.50447 4.71599 9.50447C4.83691 9.50447 4.89738 9.44186 4.89738 9.31664C4.89738 8.39833 5.10103 7.6932 5.50835 7.20125C5.91567 6.7093 6.43118 6.39922 7.05489 6.27102C7.6786 6.14281 8.31821 6.16815 8.97374 6.34705C9.08193 6.37686 9.16149 6.35003 9.21241 6.26655C9.52425 5.74776 9.89657 5.27519 10.3293 4.84884C10.7621 4.42248 11.2824 4.0811 11.8902 3.82468C12.498 3.56827 13.2124 3.44007 14.0334 3.44007C15.0771 3.44007 16 3.67114 16.8019 4.13327C17.6038 4.5954 18.2403 5.20512 18.7112 5.96243C19.1822 6.71974 19.4431 7.54263 19.494 8.43113C19.5067 8.63387 19.5083 8.85003 19.4988 9.07961C19.4892 9.30918 19.4749 9.52831 19.4558 9.737C19.4431 9.85625 19.494 9.92482 19.6086 9.94272C20.4741 10.1216 21.1662 10.4615 21.6849 10.9624C22.2036 11.4633 22.463 12.0984 22.463 12.8676C22.463 13.5533 22.1973 14.1213 21.6659 14.5716C21.1345 15.0218 20.3469 15.2469 19.3031 15.2469H14.8544ZM12.0477 22C12.1432 22 12.2339 21.9806 12.3198 21.9418C12.4057 21.9031 12.4964 21.8419 12.5919 21.7585L15.8186 18.932C15.9713 18.8068 16.0477 18.6488 16.0477 18.4579C16.0477 18.279 15.9809 18.13 15.8472 18.0107C15.7136 17.8915 15.5481 17.8318 15.3508 17.8318C15.1599 17.8318 14.9881 17.9034 14.8353 18.0465L13.3842 19.4061L12.7446 20.0322L12.8019 18.6995V11.0251C12.8019 10.8342 12.7271 10.6703 12.5775 10.5331C12.428 10.396 12.2514 10.3274 12.0477 10.3274C11.8377 10.3274 11.6579 10.396 11.5084 10.5331C11.3588 10.6703 11.284 10.8342 11.284 11.0251V18.6995L11.3413 20.0411L10.7017 19.4061L9.25059 18.0465C9.09785 17.9034 8.92283 17.8318 8.72553 17.8318C8.52824 17.8318 8.36435 17.8915 8.23388 18.0107C8.10342 18.13 8.03818 18.279 8.03818 18.4579C8.03818 18.6488 8.11455 18.8068 8.2673 18.932L11.494 21.7585C11.5959 21.8419 11.6882 21.9031 11.7709 21.9418C11.8536 21.9806 11.9459 22 12.0477 22Z" fill="black" fill-opacity="0.8"/>
</svg>
