<svg width="24" height="24" viewBox="0 0 24 24" fill="none" xmlns="http://www.w3.org/2000/svg">
<path d="M18.864 20C19.5831 20 20.2546 19.8819 20.8782 19.6455C21.502 19.4092 22.0477 19.0824 22.5155 18.6651C22.9833 18.2478 23.3476 17.7629 23.6086 17.2106C23.8695 16.6582 24 16.066 24 15.4338C24 14.7894 23.8791 14.1833 23.6372 13.6156C23.3954 13.0479 23.0485 12.5447 22.5966 12.1058C22.1448 11.667 21.607 11.3218 20.9832 11.0702C20.9832 10.0452 20.8082 9.10164 20.4582 8.23934C20.1082 7.37705 19.6165 6.6283 18.9832 5.99309C18.35 5.35788 17.6118 4.8669 16.7685 4.52014C15.9252 4.17338 15.0135 4 14.0334 4C13.1678 4 12.3866 4.13349 11.6897 4.40046C10.9928 4.66743 10.3755 5.0234 9.83772 5.46835C9.29992 5.9133 8.84009 6.40582 8.45822 6.94591C7.87271 6.7802 7.28878 6.75412 6.70644 6.86765C6.1241 6.9812 5.59427 7.20828 5.11695 7.5489C4.63961 7.88952 4.25457 8.31913 3.96181 8.83774C3.66905 9.35634 3.51631 9.93784 3.50357 10.5823C2.7844 10.6927 2.16229 10.9566 1.63723 11.374C1.11217 11.7913 0.708035 12.3161 0.42482 12.9482C0.141607 13.5803 0 14.2708 0 15.0196C0 15.6947 0.143198 16.3329 0.429594 16.9344C0.71599 17.5358 1.11853 18.0652 1.63723 18.5224C2.15592 18.9796 2.76213 19.3402 3.45585 19.6041C4.14956 19.868 4.90374 20 5.71837 20H18.864ZM8.17184 16.1611C7.64995 15.6578 7.38901 15.084 7.38901 14.4395C7.38901 13.7951 7.64995 13.2213 8.17184 12.718L9.80429 11.153C9.70246 11.4047 9.64518 11.6486 9.63246 11.8849C9.61972 12.1212 9.64518 12.3467 9.70882 12.5615L8.89736 13.3441C8.57279 13.6571 8.40891 14.0115 8.40572 14.4073C8.40254 14.8032 8.56642 15.1576 8.89736 15.4707C9.22195 15.7775 9.58949 15.9324 10 15.9355C10.4105 15.9386 10.778 15.7836 11.1026 15.4707L12.9451 13.6846C13.2824 13.3655 13.4527 13.0065 13.4558 12.6076C13.459 12.2086 13.2919 11.8588 12.9547 11.5581C12.7828 11.4047 12.603 11.2911 12.4153 11.2175C12.2275 11.1438 12.035 11.1223 11.8377 11.153C11.9077 11.0671 11.973 10.9904 12.0334 10.9229C12.0938 10.8554 12.1431 10.7971 12.1813 10.748L12.6778 10.2785C12.8242 10.3153 12.9849 10.3813 13.1599 10.4764C13.3349 10.5715 13.5083 10.6989 13.6801 10.8584C14.0366 11.1899 14.2721 11.5596 14.3866 11.9678C14.5012 12.3759 14.4996 12.784 14.3818 13.1922C14.2641 13.6003 14.0302 13.9731 13.6801 14.3107L11.7518 16.1611C11.2235 16.6644 10.6253 16.916 9.95699 16.916C9.28876 16.916 8.69371 16.6644 8.17184 16.1611ZM16.3246 8.3176C16.8401 8.81472 17.0994 9.38548 17.1026 10.0299C17.1058 10.6743 16.8464 11.2482 16.3246 11.7514L14.6921 13.3256C14.7939 13.074 14.8496 12.8301 14.8592 12.5938C14.8687 12.3575 14.8448 12.1289 14.7876 11.9079L15.599 11.1346C15.9236 10.8278 16.0859 10.4749 16.0859 10.0759C16.0859 9.67701 15.9205 9.32105 15.5895 9.00804C15.2713 8.70118 14.9085 8.54621 14.5012 8.54315C14.0939 8.54007 13.7247 8.69811 13.3938 9.01725L11.5417 10.794C11.2172 11.1131 11.0517 11.4722 11.0453 11.8711C11.039 12.27 11.2045 12.6199 11.5417 12.9206C11.7009 13.0679 11.8711 13.1783 12.0525 13.252C12.2339 13.3256 12.4137 13.3625 12.5919 13.3625C12.5473 13.43 12.5091 13.4852 12.4773 13.5281C12.4455 13.5711 12.3882 13.6387 12.3055 13.7307L11.8091 14.2002C11.6754 14.1634 11.5211 14.0959 11.346 13.9977C11.171 13.8995 10.9976 13.7737 10.8257 13.6202C10.4693 13.2888 10.2323 12.919 10.1146 12.5109C9.99681 12.1028 9.99681 11.6946 10.1146 11.2865C10.2323 10.8784 10.4662 10.5055 10.8163 10.168L12.7446 8.30839C13.2665 7.80513 13.8632 7.55503 14.5346 7.5581C15.206 7.56117 15.8027 7.81434 16.3246 8.3176Z" fill="black" fill-opacity="0.8"/>
</svg>
