<svg width="24" height="24" viewBox="0 0 24 24" fill="none" xmlns="http://www.w3.org/2000/svg">
<path d="M7.29355 18.3705C7.52267 17.8734 7.87589 17.3824 8.35321 16.8975C8.83054 16.4127 9.4288 16.0123 10.148 15.6961C10.8672 15.3801 11.7073 15.2221 12.6683 15.2221C13.6293 15.2221 14.4694 15.3801 15.1885 15.6961C15.9077 16.0123 16.5059 16.4127 16.9832 16.8975C17.4606 17.3824 17.8138 17.8734 18.0429 18.3705H7.29355ZM12.6683 14.0806C12.191 14.0744 11.755 13.947 11.3604 13.6985C10.9658 13.4499 10.6523 13.1185 10.4201 12.7042C10.1877 12.29 10.0716 11.8343 10.0716 11.3371C10.0716 10.8462 10.1877 10.3997 10.4201 9.99768C10.6523 9.59569 10.9658 9.27348 11.3604 9.03105C11.755 8.78863 12.191 8.66742 12.6683 8.66742C13.1456 8.66742 13.5799 8.78863 13.9714 9.03105C14.3628 9.27348 14.6762 9.59569 14.9117 9.99768C15.1471 10.3997 15.2649 10.8462 15.2649 11.3371C15.2649 11.8343 15.1471 12.2915 14.9117 12.7088C14.6762 13.1262 14.3628 13.4606 13.9714 13.7123C13.5799 13.9639 13.1456 14.0867 12.6683 14.0806ZM18.864 20C19.5831 20 20.2546 19.8819 20.8782 19.6455C21.502 19.4092 22.0477 19.0824 22.5155 18.6651C22.9833 18.2478 23.3476 17.7629 23.6086 17.2106C23.8695 16.6582 24 16.066 24 15.4338C24 14.7894 23.8791 14.1833 23.6372 13.6156C23.3954 13.0479 23.0485 12.5447 22.5966 12.1058C22.1448 11.667 21.607 11.3218 20.9832 11.0702C20.9832 10.0452 20.8082 9.10164 20.4582 8.23934C20.1082 7.37705 19.6165 6.6283 18.9832 5.99309C18.35 5.35788 17.6118 4.8669 16.7685 4.52014C15.9252 4.17338 15.0135 4 14.0334 4C13.1678 4 12.3866 4.13349 11.6897 4.40046C10.9928 4.66743 10.3755 5.0234 9.83772 5.46835C9.29992 5.9133 8.84009 6.40582 8.45822 6.94591C7.87271 6.7802 7.28878 6.75412 6.70644 6.86765C6.1241 6.9812 5.59427 7.20828 5.11695 7.5489C4.63961 7.88952 4.25457 8.31913 3.96181 8.83774C3.66905 9.35634 3.51631 9.93784 3.50357 10.5823C2.7844 10.6927 2.16229 10.9566 1.63723 11.374C1.11217 11.7913 0.708035 12.3161 0.42482 12.9482C0.141607 13.5803 0 14.2708 0 15.0196C0 15.6947 0.143198 16.3329 0.429594 16.9344C0.71599 17.5358 1.11853 18.0652 1.63723 18.5224C2.15592 18.9796 2.76213 19.3402 3.45585 19.6041C4.14956 19.868 4.90374 20 5.71837 20H18.864Z" fill="black" fill-opacity="0.8"/>
</svg>
