<svg width="24" height="24" viewBox="0 0 24 24" fill="none" xmlns="http://www.w3.org/2000/svg">
<path d="M18.864 20C19.5831 20 20.2546 19.8819 20.8782 19.6455C21.502 19.4092 22.0477 19.0824 22.5155 18.6651C22.9833 18.2478 23.3476 17.7629 23.6086 17.2106C23.8695 16.6582 24 16.066 24 15.4338C24 14.7894 23.8791 14.1833 23.6372 13.6156C23.3954 13.0479 23.0485 12.5447 22.5966 12.1058C22.1448 11.667 21.607 11.3218 20.9832 11.0702C20.9832 10.0452 20.8082 9.10164 20.4582 8.23934C20.1082 7.37705 19.6165 6.6283 18.9832 5.99309C18.35 5.35788 17.6118 4.8669 16.7685 4.52014C15.9252 4.17338 15.0135 4 14.0334 4C13.1678 4 12.3866 4.13349 11.6897 4.40046C10.9928 4.66743 10.3755 5.0234 9.83772 5.46835C9.29992 5.9133 8.84009 6.40582 8.45822 6.94591C7.87271 6.7802 7.28878 6.75412 6.70644 6.86765C6.1241 6.9812 5.59427 7.20828 5.11695 7.5489C4.63961 7.88952 4.25457 8.31913 3.96181 8.83774C3.66905 9.35634 3.51631 9.93784 3.50357 10.5823C2.7844 10.6927 2.16229 10.9566 1.63723 11.374C1.11217 11.7913 0.708035 12.3161 0.42482 12.9482C0.141607 13.5803 0 14.2708 0 15.0196C0 15.6947 0.143198 16.3329 0.429594 16.9344C0.71599 17.5358 1.11853 18.0652 1.63723 18.5224C2.15592 18.9796 2.76213 19.3402 3.45585 19.6041C4.14956 19.868 4.90374 20 5.71837 20H18.864ZM18.864 18.5178H5.71837C4.91646 18.5178 4.20047 18.3567 3.5704 18.0345C2.94033 17.7123 2.44392 17.2857 2.08115 16.7549C1.71838 16.224 1.537 15.6455 1.537 15.0196C1.537 14.4058 1.6611 13.8488 1.9093 13.3487C2.15751 12.8485 2.51869 12.4511 2.99283 12.1565C3.46698 11.8619 4.04136 11.7146 4.71599 11.7146C4.83691 11.7146 4.89738 11.6532 4.89738 11.5305C4.89738 10.8185 5.01671 10.2309 5.25537 9.76753C5.49403 9.30417 5.81066 8.95127 6.20525 8.70885C6.59983 8.46643 7.03738 8.32834 7.51789 8.29458C7.9984 8.26082 8.48368 8.32066 8.97374 8.47409C9.08193 8.50478 9.16149 8.4741 9.21241 8.38204C9.52425 7.85423 9.89657 7.36938 10.3293 6.9275C10.7621 6.48561 11.2824 6.13424 11.8902 5.87341C12.498 5.61258 13.2124 5.48216 14.0334 5.48216C15.0771 5.48216 16 5.71998 16.8019 6.19562C17.6038 6.67126 18.2403 7.2988 18.7112 8.07824C19.1822 8.85768 19.4431 9.70156 19.494 10.6099C19.5067 10.8247 19.5083 11.0502 19.4988 11.2865C19.4892 11.5228 19.4749 11.7484 19.4558 11.9632C19.4431 12.0798 19.494 12.1503 19.6086 12.1749C20.4741 12.359 21.1662 12.7395 21.6849 13.3164C22.2036 13.8933 22.463 14.5991 22.463 15.4338C22.463 16.0046 22.3039 16.5232 21.9856 16.9896C21.6675 17.4561 21.2363 17.8274 20.6921 18.1035C20.1479 18.3797 19.5386 18.5178 18.864 18.5178ZM8.17184 16.2163C8.69371 16.7196 9.28876 16.9697 9.95699 16.9666C10.6253 16.9635 11.2203 16.7134 11.7422 16.2163L13.6801 14.3567C14.202 13.8534 14.463 13.2796 14.463 12.6352C14.463 11.9908 14.202 11.4169 13.6801 10.9137C13.5147 10.748 13.3428 10.6176 13.1647 10.5224C12.9865 10.4273 12.8242 10.3613 12.6778 10.3245L12.1813 10.794C12.1368 10.8431 12.0859 10.9014 12.0286 10.9689C11.9714 11.0364 11.9077 11.1162 11.8377 11.2083C12.035 11.1776 12.2291 11.1975 12.4201 11.2681C12.6109 11.3387 12.7892 11.4538 12.9547 11.6133C13.2792 11.9202 13.4415 12.27 13.4415 12.6628C13.4415 13.0556 13.276 13.4116 12.9451 13.7307L11.1026 15.5167C10.7717 15.8296 10.4009 15.9861 9.99042 15.9861C9.57993 15.9861 9.21558 15.8327 8.89736 15.5259C8.57279 15.2068 8.40891 14.8493 8.40572 14.4534C8.40254 14.0575 8.56642 13.7031 8.89736 13.3901L9.70882 12.6076C9.64518 12.3928 9.61972 12.1672 9.63246 11.9309C9.64518 11.6946 9.70246 11.4507 9.80429 11.1991L8.17184 12.7641C7.64995 13.2674 7.38901 13.8412 7.38901 14.4855C7.38901 15.13 7.64995 15.7069 8.17184 16.2163ZM16.3246 8.36363C15.8027 7.86036 15.206 7.6072 14.5346 7.60413C13.8632 7.60106 13.2665 7.85116 12.7446 8.35442L10.8163 10.214C10.2944 10.7173 10.035 11.2927 10.0382 11.9401C10.0414 12.5876 10.3039 13.163 10.8257 13.6663C10.9912 13.832 11.1631 13.9609 11.3413 14.0529C11.5195 14.1449 11.6754 14.2124 11.8091 14.2554L12.3055 13.7767C12.3882 13.6847 12.4455 13.6171 12.4773 13.5742C12.5091 13.5312 12.5473 13.476 12.5919 13.4085C12.4074 13.4146 12.2244 13.3793 12.0429 13.3026C11.8615 13.2259 11.6913 13.1139 11.5322 12.9666C11.214 12.6536 11.0533 12.3007 11.0501 11.9079C11.0469 11.5151 11.2108 11.1622 11.5417 10.8492L13.3938 9.06327C13.7184 8.74414 14.0859 8.58457 14.4964 8.58457C14.9069 8.58457 15.2713 8.74107 15.5895 9.05407C15.9141 9.37321 16.0779 9.73071 16.0811 10.1266C16.0843 10.5224 15.9236 10.8769 15.599 11.1899L14.7876 11.9539C14.8448 12.1749 14.8671 12.4035 14.8544 12.6398C14.8417 12.8761 14.7876 13.1231 14.6921 13.3809L16.3246 11.8067C16.8464 11.3034 17.1058 10.7296 17.1026 10.0851C17.0994 9.44072 16.8401 8.86689 16.3246 8.36363Z" fill="black" fill-opacity="0.8"/>
</svg>
