<svg width="24" height="24" viewBox="0 0 24 24" fill="none" xmlns="http://www.w3.org/2000/svg">
<path d="M18.864 20C19.5831 20 20.2546 19.8819 20.8782 19.6455C21.502 19.4092 22.0477 19.0824 22.5155 18.6651C22.9833 18.2478 23.3476 17.7629 23.6086 17.2106C23.8695 16.6582 24 16.066 24 15.4338C24 14.7894 23.8791 14.1833 23.6372 13.6156C23.3954 13.0479 23.0485 12.5447 22.5966 12.1058C22.1448 11.667 21.607 11.3218 20.9832 11.0702C20.9832 10.0452 20.8082 9.10164 20.4582 8.23934C20.1082 7.37705 19.6165 6.6283 18.9832 5.99309C18.35 5.35788 17.6118 4.8669 16.7685 4.52014C15.9252 4.17338 15.0135 4 14.0334 4C13.1678 4 12.3866 4.13349 11.6897 4.40046C10.9928 4.66743 10.3755 5.0234 9.83772 5.46835C9.29992 5.9133 8.84009 6.40582 8.45822 6.94591C7.87271 6.7802 7.28878 6.75412 6.70644 6.86765C6.1241 6.9812 5.59427 7.20828 5.11695 7.5489C4.63961 7.88952 4.25457 8.31913 3.96181 8.83774C3.66905 9.35634 3.51631 9.93784 3.50357 10.5823C2.7844 10.6927 2.16229 10.9566 1.63723 11.374C1.11217 11.7913 0.708035 12.3161 0.42482 12.9482C0.141607 13.5803 0 14.2708 0 15.0196C0 15.6947 0.143198 16.3329 0.429594 16.9344C0.71599 17.5358 1.11853 18.0652 1.63723 18.5224C2.15592 18.9796 2.76213 19.3402 3.45585 19.6041C4.14956 19.868 4.90374 20 5.71837 20H18.864ZM8.48687 13.1507C8.48687 12.4511 8.66507 11.8174 9.02148 11.2497C9.37788 10.682 9.84407 10.2324 10.4201 9.90102C10.996 9.56961 11.6182 9.4039 12.2864 9.4039C12.3246 9.4039 12.3644 9.40543 12.4057 9.4085C12.4471 9.41157 12.4837 9.41617 12.5155 9.42231L11.9045 8.80551C11.8536 8.75641 11.8138 8.69657 11.7852 8.626C11.7566 8.55542 11.7422 8.48637 11.7422 8.41886C11.7422 8.26543 11.7979 8.13348 11.9093 8.02301C12.0207 7.91254 12.1527 7.8573 12.3055 7.8573C12.3819 7.8573 12.4583 7.87264 12.5346 7.90332C12.611 7.93401 12.6715 7.97697 12.716 8.03221L14.4153 9.7077C14.5235 9.80589 14.5775 9.93785 14.5775 10.1036C14.5775 10.2693 14.5235 10.4043 14.4153 10.5086L12.6969 12.1657C12.5887 12.27 12.4614 12.3222 12.3151 12.3222C12.1559 12.3222 12.0207 12.27 11.9093 12.1657C11.7979 12.0614 11.7422 11.9294 11.7422 11.7698C11.7422 11.6225 11.7995 11.4936 11.9141 11.3832L12.7637 10.5731C12.681 10.5546 12.5791 10.5454 12.4582 10.5454C11.9491 10.5454 11.4877 10.6636 11.074 10.8999C10.6603 11.1362 10.331 11.4538 10.0859 11.8527C9.84089 12.2516 9.71837 12.6935 9.71837 13.1783C9.71837 13.6693 9.84089 14.1158 10.0859 14.5178C10.331 14.9198 10.6603 15.2405 11.074 15.4798C11.4877 15.7192 11.9491 15.8389 12.4582 15.8389C12.961 15.8389 13.4192 15.7192 13.8329 15.4798C14.2466 15.2405 14.576 14.9198 14.821 14.5178C15.066 14.1158 15.1885 13.6693 15.1885 13.1783C15.1885 13.0188 15.249 12.8822 15.37 12.7687C15.4909 12.6551 15.6372 12.5984 15.8091 12.5984C15.9746 12.5984 16.1177 12.6551 16.2386 12.7687C16.3596 12.8822 16.4201 13.0188 16.4201 13.1783C16.4201 13.8902 16.2418 14.5362 15.8854 15.1162C15.529 15.6961 15.0517 16.158 14.4535 16.5017C13.8552 16.8454 13.1901 17.0172 12.4582 17.0172C11.7263 17.0172 11.0596 16.8454 10.4582 16.5017C9.85678 16.158 9.37788 15.6931 9.02148 15.107C8.66507 14.5209 8.48687 13.8688 8.48687 13.1507Z" fill="black" fill-opacity="0.8"/>
</svg>
