<svg width="24" height="24" viewBox="0 0 24 24" fill="none" xmlns="http://www.w3.org/2000/svg">
<path d="M5.71837 20.3962H14.8544L13.3079 18.8773H5.71837C4.91646 18.8773 4.20047 18.7122 3.5704 18.3821C2.94033 18.0519 2.44392 17.6148 2.08115 17.0708C1.71838 16.5267 1.537 15.934 1.537 15.2925C1.537 14.6635 1.6611 14.0928 1.9093 13.5802C2.15751 13.0676 2.51869 12.6604 2.99283 12.3585C3.46698 12.0566 4.04136 11.9057 4.71599 11.9057C4.83691 11.9057 4.89738 11.8428 4.89738 11.717C4.89738 11.5283 4.9101 11.3522 4.93556 11.1887C4.96101 11.0252 4.9992 10.8711 5.05012 10.7264L3.78043 9.47169C3.69133 9.66037 3.62291 9.86163 3.57518 10.0755C3.52744 10.2893 3.50357 10.5126 3.50357 10.7453C2.7844 10.8585 2.16229 11.1289 1.63723 11.5566C1.11217 11.9843 0.708035 12.522 0.42482 13.1698C0.141607 13.8176 0 14.5252 0 15.2925C0 15.9843 0.143198 16.6384 0.429594 17.2547C0.71599 17.871 1.11853 18.4135 1.63723 18.8821C2.15592 19.3506 2.76213 19.7201 3.45585 19.9905C4.14956 20.261 4.90374 20.3962 5.71837 20.3962ZM20 20.2359C20.7892 20.0786 21.4845 19.7846 22.0859 19.3538C22.6873 18.9229 23.1567 18.3931 23.494 17.7642C23.8313 17.1352 24 16.4528 24 15.7169C24 15.0566 23.8791 14.4355 23.6372 13.8538C23.3954 13.272 23.0485 12.7563 22.5966 12.3066C22.1448 11.8569 21.607 11.5031 20.9832 11.2453C20.9832 10.195 20.8082 9.22798 20.4582 8.34434C20.1082 7.46069 19.6165 6.69339 18.9832 6.04244C18.35 5.3915 17.6118 4.88836 16.7685 4.53301C15.9252 4.17767 15.0135 4 14.0334 4C13.1678 4 12.3866 4.13679 11.6897 4.41037C10.9928 4.68395 10.3755 5.04873 9.83772 5.50471C9.29992 5.96069 8.84009 6.4654 8.45822 7.01887C8.1591 6.9371 7.85361 6.89779 7.54176 6.90094C7.22991 6.90408 6.92124 6.94339 6.61575 7.01887L8.07637 8.46226C8.22275 8.45597 8.37231 8.46383 8.52505 8.48584C8.6778 8.50785 8.82736 8.54087 8.97374 8.5849C9.08193 8.61635 9.16149 8.5849 9.21241 8.49056C9.52425 7.94968 9.89657 7.45282 10.3293 6.99999C10.7621 6.54716 11.2824 6.1871 11.8902 5.91981C12.498 5.65251 13.2124 5.51886 14.0334 5.51886C15.0771 5.51886 16 5.76257 16.8019 6.25C17.6038 6.73741 18.2403 7.3805 18.7112 8.17924C19.1822 8.97798 19.4431 9.84276 19.494 10.7736C19.5067 10.9937 19.5083 11.2248 19.4988 11.467C19.4892 11.7091 19.4749 11.9402 19.4558 12.1604C19.4431 12.2799 19.494 12.3522 19.6086 12.3773C20.4741 12.5661 21.1662 12.956 21.6849 13.5471C22.2036 14.1383 22.463 14.8616 22.463 15.7169C22.463 16.3019 22.3039 16.8333 21.9856 17.3113C21.6675 17.7893 21.2363 18.1698 20.6921 18.4529C20.1479 18.7358 19.5386 18.8773 18.864 18.8773H18.6252L20 20.2359ZM18.883 22.7924C19.0294 22.9308 19.2028 23 19.4033 23C19.6038 23 19.7772 22.9308 19.9237 22.7924C20.0636 22.6478 20.1352 22.4748 20.1384 22.2735C20.1416 22.0723 20.07 21.9025 19.9237 21.7641L3.99045 6.02829C3.84407 5.88364 3.66746 5.81289 3.46062 5.81603C3.25378 5.81918 3.08035 5.88993 2.94033 6.02829C2.80032 6.16666 2.7319 6.33962 2.73508 6.54716C2.73826 6.75471 2.80668 6.92452 2.94033 7.0566L18.883 22.7924Z" fill="black" fill-opacity="0.8"/>
</svg>
