<svg width="24" height="24" viewBox="0 0 24 24" fill="none" xmlns="http://www.w3.org/2000/svg">
<path d="M18.864 20C19.5831 20 20.2546 19.8819 20.8782 19.6455C21.502 19.4092 22.0477 19.0824 22.5155 18.6651C22.9833 18.2478 23.3476 17.7629 23.6086 17.2106C23.8695 16.6582 24 16.066 24 15.4338C24 14.7894 23.8791 14.1833 23.6372 13.6156C23.3954 13.0479 23.0485 12.5447 22.5966 12.1058C22.1448 11.667 21.607 11.3218 20.9832 11.0702C20.9832 10.0452 20.8082 9.10164 20.4582 8.23934C20.1082 7.37705 19.6165 6.6283 18.9832 5.99309C18.35 5.35788 17.6118 4.8669 16.7685 4.52014C15.9252 4.17338 15.0135 4 14.0334 4C13.1678 4 12.3866 4.13349 11.6897 4.40046C10.9928 4.66743 10.3755 5.0234 9.83772 5.46835C9.29992 5.9133 8.84009 6.40582 8.45822 6.94591C7.87271 6.7802 7.28878 6.75412 6.70644 6.86765C6.1241 6.9812 5.59427 7.20828 5.11695 7.5489C4.63961 7.88952 4.25457 8.31913 3.96181 8.83774C3.66905 9.35634 3.51631 9.93784 3.50357 10.5823C2.7844 10.6927 2.16229 10.9566 1.63723 11.374C1.11217 11.7913 0.708035 12.3161 0.42482 12.9482C0.141607 13.5803 0 14.2708 0 15.0196C0 15.6947 0.143198 16.3329 0.429594 16.9344C0.71599 17.5358 1.11853 18.0652 1.63723 18.5224C2.15592 18.9796 2.76213 19.3402 3.45585 19.6041C4.14956 19.868 4.90374 20 5.71837 20H18.864ZM6.58711 13.0679C6.58711 12.5462 6.71916 12.0706 6.98328 11.6409C7.24741 11.2113 7.60063 10.8707 8.04295 10.6191C8.48528 10.3675 8.97374 10.2416 9.50834 10.2416C10.1257 10.2416 10.6841 10.4058 11.1837 10.7342C11.6833 11.0625 12.0414 11.5029 12.2578 12.0552H16.8019C16.9038 12.0552 17.0024 12.0951 17.0978 12.1749L17.852 12.9114C17.8966 12.9543 17.9205 13.005 17.9237 13.0633C17.9268 13.1216 17.9029 13.1753 17.852 13.2244L16.4105 14.6236C16.3596 14.6789 16.3039 14.7065 16.2434 14.7065C16.1829 14.7065 16.1272 14.6789 16.0763 14.6236L15.1789 13.7491L13.9379 14.9551C13.8997 15.0042 13.8504 15.0257 13.7899 15.0196C13.7295 15.0134 13.6738 14.9858 13.6229 14.9367L12.3818 13.7584C12.1018 14.4457 11.7104 14.972 11.2076 15.3372C10.7049 15.7023 10.1384 15.8849 9.50834 15.8849C8.97374 15.8849 8.48528 15.7591 8.04295 15.5074C7.60063 15.2558 7.24741 14.9167 6.98328 14.4902C6.71916 14.0636 6.58711 13.5895 6.58711 13.0679ZM7.99045 13.0587C7.99045 13.298 8.07955 13.5021 8.25775 13.6709C8.43595 13.8396 8.64597 13.924 8.88782 13.924C9.14876 13.924 9.36674 13.8396 9.54176 13.6709C9.71678 13.5021 9.80429 13.298 9.80429 13.0587C9.80429 12.8193 9.71678 12.6152 9.54176 12.4465C9.36674 12.2777 9.14876 12.1933 8.88782 12.1933C8.64597 12.1933 8.43595 12.2762 8.25775 12.4419C8.07955 12.6076 7.99045 12.8132 7.99045 13.0587Z" fill="black" fill-opacity="0.8"/>
</svg>
