<svg width="24" height="24" viewBox="0 0 24 24" fill="none" xmlns="http://www.w3.org/2000/svg">
<path d="M18.864 20C19.5831 20 20.2546 19.8819 20.8782 19.6455C21.502 19.4092 22.0477 19.0824 22.5155 18.6651C22.9833 18.2478 23.3476 17.7629 23.6086 17.2106C23.8695 16.6582 24 16.066 24 15.4338C24 14.7894 23.8791 14.1833 23.6372 13.6156C23.3954 13.0479 23.0485 12.5447 22.5966 12.1058C22.1448 11.667 21.607 11.3218 20.9832 11.0702C20.9832 10.0452 20.8082 9.10164 20.4582 8.23934C20.1082 7.37705 19.6165 6.6283 18.9832 5.99309C18.35 5.35788 17.6118 4.8669 16.7685 4.52014C15.9252 4.17338 15.0135 4 14.0334 4C13.1678 4 12.3866 4.13349 11.6897 4.40046C10.9928 4.66743 10.3755 5.0234 9.83772 5.46835C9.29992 5.9133 8.84009 6.40582 8.45822 6.94591C7.87271 6.7802 7.28878 6.75412 6.70644 6.86765C6.1241 6.9812 5.59427 7.20828 5.11695 7.5489C4.63961 7.88952 4.25457 8.31913 3.96181 8.83774C3.66905 9.35634 3.51631 9.93784 3.50357 10.5823C2.7844 10.6927 2.16229 10.9566 1.63723 11.374C1.11217 11.7913 0.708035 12.3161 0.42482 12.9482C0.141607 13.5803 0 14.2708 0 15.0196C0 15.6947 0.143198 16.3329 0.429594 16.9344C0.71599 17.5358 1.11853 18.0652 1.63723 18.5224C2.15592 18.9796 2.76213 19.3402 3.45585 19.6041C4.14956 19.868 4.90374 20 5.71837 20H18.864ZM10.0334 16.069C9.87428 16.2101 9.69925 16.273 9.50834 16.2577C9.31741 16.2424 9.15194 16.1703 9.01193 16.0414C8.87191 15.9186 8.79554 15.7637 8.78281 15.5765C8.77008 15.3893 8.84009 15.222 8.99283 15.0747L10.9499 13.1691L8.99283 11.2635C8.84009 11.1162 8.77326 10.9505 8.79235 10.7664C8.81145 10.5823 8.88464 10.4227 9.01193 10.2877C9.14558 10.1527 9.30946 10.0805 9.50357 10.0713C9.69767 10.0621 9.87428 10.1281 10.0334 10.2693L12 12.1565L13.9666 10.2693C14.1193 10.122 14.2927 10.0575 14.4868 10.0759C14.681 10.0943 14.848 10.1649 14.988 10.2877C15.1281 10.4166 15.2029 10.5746 15.2124 10.7618C15.222 10.949 15.1536 11.1162 15.0072 11.2635L13.0501 13.1691L15.0072 15.0747C15.1536 15.222 15.2188 15.3878 15.2029 15.5719C15.1869 15.756 15.1121 15.9156 14.9785 16.0506C14.8513 16.1856 14.689 16.2577 14.4916 16.2669C14.2943 16.2761 14.1193 16.2101 13.9666 16.069L12 14.1818L10.0334 16.069Z" fill="black" fill-opacity="0.8"/>
</svg>
