<svg width="24" height="24" viewBox="0 0 24 24" fill="none" xmlns="http://www.w3.org/2000/svg">
<path d="M18.864 20C19.5831 20 20.2546 19.8819 20.8782 19.6455C21.502 19.4092 22.0477 19.0824 22.5155 18.6651C22.9833 18.2478 23.3476 17.7629 23.6086 17.2106C23.8695 16.6582 24 16.066 24 15.4338C24 14.7894 23.8791 14.1833 23.6372 13.6156C23.3954 13.0479 23.0485 12.5447 22.5966 12.1058C22.1448 11.667 21.607 11.3218 20.9832 11.0702C20.9832 10.0452 20.8082 9.10164 20.4582 8.23934C20.1082 7.37705 19.6165 6.6283 18.9832 5.99309C18.35 5.35788 17.6118 4.8669 16.7685 4.52014C15.9252 4.17338 15.0135 4 14.0334 4C13.1678 4 12.3866 4.13349 11.6897 4.40046C10.9928 4.66743 10.3755 5.0234 9.83772 5.46835C9.29992 5.9133 8.84009 6.40582 8.45822 6.94591C7.87271 6.7802 7.28878 6.75412 6.70644 6.86765C6.1241 6.9812 5.59427 7.20828 5.11695 7.5489C4.63961 7.88952 4.25457 8.31913 3.96181 8.83774C3.66905 9.35634 3.51631 9.93784 3.50357 10.5823C2.7844 10.6927 2.16229 10.9566 1.63723 11.374C1.11217 11.7913 0.708035 12.3161 0.42482 12.9482C0.141607 13.5803 0 14.2708 0 15.0196C0 15.6947 0.143198 16.3329 0.429594 16.9344C0.71599 17.5358 1.11853 18.0652 1.63723 18.5224C2.15592 18.9796 2.76213 19.3402 3.45585 19.6041C4.14956 19.868 4.90374 20 5.71837 20H18.864ZM18.864 18.5178H5.71837C4.91646 18.5178 4.20047 18.3567 3.5704 18.0345C2.94033 17.7123 2.44392 17.2857 2.08115 16.7549C1.71838 16.224 1.537 15.6455 1.537 15.0196C1.537 14.4058 1.6611 13.8488 1.9093 13.3487C2.15751 12.8485 2.51869 12.4511 2.99283 12.1565C3.46698 11.8619 4.04136 11.7146 4.71599 11.7146C4.83691 11.7146 4.89738 11.6532 4.89738 11.5305C4.89738 10.8185 5.01671 10.2309 5.25537 9.76753C5.49403 9.30417 5.81066 8.95127 6.20525 8.70885C6.59983 8.46643 7.03738 8.32834 7.51789 8.29458C7.9984 8.26082 8.48368 8.32066 8.97374 8.47409C9.08193 8.50478 9.16149 8.4741 9.21241 8.38204C9.52425 7.85423 9.89657 7.36938 10.3293 6.9275C10.7621 6.48561 11.2824 6.13424 11.8902 5.87341C12.498 5.61258 13.2124 5.48216 14.0334 5.48216C15.0771 5.48216 16 5.71998 16.8019 6.19562C17.6038 6.67126 18.2403 7.2988 18.7112 8.07824C19.1822 8.85768 19.4431 9.70156 19.494 10.6099C19.5067 10.8247 19.5083 11.0502 19.4988 11.2865C19.4892 11.5228 19.4749 11.7484 19.4558 11.9632C19.4431 12.0798 19.494 12.1503 19.6086 12.1749C20.4741 12.359 21.1662 12.7395 21.6849 13.3164C22.2036 13.8933 22.463 14.5991 22.463 15.4338C22.463 16.0046 22.3039 16.5232 21.9856 16.9896C21.6675 17.4561 21.2363 17.8274 20.6921 18.1035C20.1479 18.3797 19.5386 18.5178 18.864 18.5178ZM8.61097 13.1323C8.61097 13.832 8.78281 14.4641 9.12649 15.0287C9.47016 15.5934 9.93315 16.043 10.5155 16.3774C11.0978 16.7119 11.7454 16.8791 12.4582 16.8791C13.1646 16.8791 13.809 16.7119 14.3914 16.3774C14.9737 16.043 15.4367 15.5949 15.7804 15.0333C16.1241 14.4717 16.2959 13.8473 16.2959 13.1599C16.2959 13.0065 16.2371 12.8745 16.1194 12.7641C16.0016 12.6536 15.8632 12.5984 15.7041 12.5984C15.5449 12.5984 15.4065 12.6536 15.2887 12.7641C15.171 12.8745 15.1122 13.0065 15.1122 13.1599C15.1122 13.6386 14.9928 14.0728 14.7542 14.4625C14.5155 14.8523 14.1957 15.1623 13.7947 15.3924C13.3938 15.6226 12.9483 15.7376 12.4582 15.7376C11.9618 15.7376 11.5131 15.6226 11.1122 15.3924C10.7112 15.1623 10.3914 14.8523 10.1527 14.4625C9.91404 14.0728 9.79471 13.6386 9.79471 13.1599C9.79471 12.6874 9.91404 12.2577 10.1527 11.8711C10.3914 11.4844 10.7112 11.176 11.1122 10.9459C11.5131 10.7157 11.9618 10.6007 12.4582 10.6007C12.5091 10.6007 12.5617 10.6037 12.6158 10.6099C12.6699 10.616 12.7192 10.6222 12.7637 10.6283L11.9331 11.42C11.8186 11.5305 11.7613 11.6563 11.7613 11.7974C11.7613 11.9447 11.8154 12.069 11.9237 12.1703C12.0318 12.2716 12.1623 12.3222 12.3151 12.3222C12.4614 12.3222 12.5855 12.2731 12.6873 12.1749L14.358 10.5638C14.4662 10.4595 14.5187 10.3291 14.5155 10.1726C14.5123 10.0161 14.4598 9.88875 14.358 9.79055L12.7064 8.1703C12.6619 8.11507 12.603 8.0721 12.5298 8.04142C12.4567 8.01073 12.3819 7.99539 12.3055 7.99539C12.1527 7.99539 12.0239 8.04909 11.9189 8.15649C11.8138 8.2639 11.7613 8.39124 11.7613 8.53854C11.7613 8.60605 11.7756 8.67356 11.8043 8.74107C11.8329 8.80858 11.8727 8.86688 11.9237 8.91598L12.5251 9.51437C12.4932 9.50823 12.4567 9.50363 12.4153 9.50056C12.3739 9.49749 12.3341 9.49596 12.2959 9.49596C11.6467 9.49596 11.0421 9.65706 10.4821 9.97927C9.92204 10.3015 9.47016 10.7372 9.12649 11.2865C8.78281 11.8358 8.61097 12.4511 8.61097 13.1323Z" fill="black" fill-opacity="0.8"/>
</svg>
