<svg width="24" height="24" viewBox="0 0 24 24" fill="none" xmlns="http://www.w3.org/2000/svg">
<path d="M0 12.98C0 13.7727 0.214797 14.4911 0.644391 15.1352C1.07399 15.7792 1.67701 16.2932 2.45346 16.6772C3.22991 17.0612 4.14001 17.2532 5.18376 17.2532H11.3031V21.2848C11.3031 21.4767 11.3779 21.6439 11.5274 21.7864C11.677 21.9288 11.8568 22 12.0669 22C12.2705 22 12.447 21.9288 12.5966 21.7864C12.7462 21.6439 12.821 21.4767 12.821 21.2848V17.2532H19.4081C20.3246 17.2532 21.1265 17.0829 21.8139 16.7423C22.5012 16.4017 23.0374 15.9387 23.4225 15.3535C23.8075 14.7683 24 14.1103 24 13.3795C24 12.4691 23.7311 11.6284 23.1933 10.8574C22.6555 10.0864 21.9188 9.512 20.9832 9.13424C20.9832 8.10002 20.8082 7.14786 20.4582 6.27775C20.1082 5.40765 19.6165 4.65366 18.9832 4.01579C18.35 3.37792 17.6118 2.88249 16.7685 2.52949C15.9252 2.1765 15.0135 2 14.0334 2C13.1678 2 12.3866 2.13469 11.6897 2.40408C10.9928 2.67348 10.3755 3.03422 9.83772 3.4863C9.29992 3.93838 8.84009 4.43382 8.45822 4.9726C7.91726 4.83016 7.35879 4.81778 6.78281 4.93544C6.20684 5.0531 5.67382 5.28069 5.18376 5.61821C4.69371 5.95572 4.29435 6.38149 3.98568 6.89549C3.67701 7.40951 3.51631 7.99474 3.50357 8.65119C2.7844 8.76266 2.16229 9.02431 1.63723 9.43614C1.11217 9.84797 0.708035 10.362 0.42482 10.9782C0.141607 11.5944 0 12.2617 0 12.98ZM11.3031 16.8723V12.0883L11.3604 10.7041L10.8735 11.2058L9.26968 12.8592C9.13603 13.0079 8.96101 13.0822 8.74462 13.0822C8.54733 13.0822 8.38345 13.0203 8.25297 12.8964C8.12251 12.7726 8.05728 12.6178 8.05728 12.4319C8.05728 12.2524 8.13365 12.0882 8.28639 11.9396L11.5131 8.91129C11.6086 8.8184 11.6993 8.75337 11.7852 8.71622C11.8711 8.67906 11.965 8.66048 12.0669 8.66048C12.1623 8.66048 12.253 8.67906 12.3389 8.71622C12.4248 8.75337 12.5155 8.8184 12.611 8.91129L15.8377 11.9396C15.9904 12.0882 16.0668 12.2524 16.0668 12.4319C16.0668 12.6178 16 12.7726 15.8664 12.8964C15.7327 13.0203 15.5672 13.0822 15.37 13.0822C15.1599 13.0822 14.9881 13.0079 14.8544 12.8592L13.2506 11.2058L12.7637 10.7041L12.821 12.0883V16.8723C12.821 17.0767 12.7462 17.2501 12.5966 17.3925C12.447 17.535 12.2705 17.6062 12.0669 17.6062C11.8568 17.6062 11.677 17.535 11.5274 17.3925C11.3779 17.2501 11.3031 17.0767 11.3031 16.8723Z" fill="black" fill-opacity="0.8"/>
</svg>
