<svg width="24" height="24" viewBox="0 0 24 24" fill="none" xmlns="http://www.w3.org/2000/svg">
<path d="M11.7608 22.5405C12.3286 22.5405 12.8947 22.4851 13.4593 22.3742C14.0239 22.2635 14.5741 22.1041 15.11 21.896C15.1802 21.8692 15.2504 21.8423 15.3206 21.8154C15.3908 21.7886 15.4546 21.7584 15.512 21.7248C15.3589 21.557 15.2105 21.3741 15.067 21.1761C14.9234 20.978 14.8006 20.7784 14.6986 20.577C14.6411 20.6038 14.5821 20.629 14.5215 20.6525C14.4609 20.676 14.4019 20.6978 14.3445 20.718C13.5151 19.3687 12.8979 17.9591 12.4928 16.489C12.0877 15.019 11.8852 13.5423 11.8852 12.0587C11.8852 10.5618 12.0781 9.11027 12.4641 7.70399C12.85 6.29771 13.413 4.98038 14.1531 3.75198C15.1355 4.06076 16.0319 4.5407 16.8421 5.19182C17.6523 5.84294 18.3333 6.61824 18.8851 7.51772C19.437 8.4172 19.8182 9.39723 20.0286 10.4578C20.2583 10.4578 20.48 10.4863 20.6937 10.5434C20.9075 10.6005 21.1451 10.6793 21.4067 10.78C21.2344 9.55162 20.8644 8.40545 20.2967 7.34151C19.7288 6.27757 19.0095 5.34453 18.1387 4.54238C17.2679 3.74023 16.2887 3.11596 15.201 2.66958C14.1132 2.22319 12.9633 2 11.7512 2C10.4179 2 9.16267 2.2685 7.98564 2.80551C6.80861 3.34251 5.77033 4.08425 4.87081 5.03072C3.97129 5.97718 3.26794 7.06965 2.76076 8.30812C2.25359 9.54659 2 10.8673 2 12.2702C2 13.6731 2.25518 14.9921 2.76555 16.2272C3.27592 17.4624 3.98086 18.5515 4.88038 19.4946C5.7799 20.4377 6.81818 21.1778 7.9952 21.7148C9.17224 22.2518 10.4274 22.527 11.7608 22.5405ZM11.7608 21.171C10.6061 21.171 9.51833 20.9378 8.4976 20.4712C7.47687 20.0047 6.57735 19.362 5.79904 18.5431C5.02073 17.7242 4.40989 16.7777 3.96651 15.7037C3.52312 14.6297 3.30143 13.4852 3.30143 12.2702C3.30143 11.0552 3.52152 9.91075 3.96172 8.83674C4.40191 7.76273 5.01116 6.81626 5.78947 5.99732C6.56778 5.17839 7.46729 4.53566 8.48803 4.06914C9.50876 3.60262 10.5965 3.36936 11.7512 3.36936C12.1658 3.36936 12.5709 3.39956 12.9665 3.45998C12.2329 4.76221 11.6762 6.13996 11.2966 7.59323C10.9171 9.0465 10.7273 10.535 10.7273 12.0587C10.7273 13.1327 10.8198 14.1883 11.0048 15.2254C11.1898 16.2625 11.4641 17.2677 11.8277 18.241C12.1914 19.2144 12.6379 20.1474 13.1675 21.0402C12.9378 21.0871 12.7065 21.1207 12.4737 21.1408C12.2408 21.1609 12.0032 21.171 11.7608 21.171ZM3.54067 8.00102C4.32536 8.88037 5.20893 9.63217 6.19138 10.2564C7.17384 10.8807 8.22168 11.3556 9.33492 11.6812C10.4482 12.0068 11.5949 12.1696 12.7751 12.1696C14.1659 12.1628 15.5103 11.9212 16.8086 11.4446C18.1068 10.968 19.295 10.2833 20.3732 9.39053L19.8373 8.26282C18.8485 9.12873 17.7512 9.7916 16.5455 10.2514C15.3397 10.7112 14.0829 10.9445 12.7751 10.9512C11.0781 10.9579 9.47208 10.5921 7.95693 9.85369C6.44178 9.11531 5.14832 8.08158 4.07655 6.75249L3.54067 8.00102ZM7.25358 20.6677L8.63157 20.9999C8.30621 20.1877 8.059 19.3553 7.88994 18.5028C7.72088 17.6503 7.62997 16.7844 7.61722 15.905C7.5279 14.2336 7.6858 12.6092 8.0909 11.0317C8.49601 9.45429 9.11802 7.97921 9.95693 6.60649C10.7958 5.23377 11.8245 4.02383 13.043 2.97667L11.8277 2.47323C10.622 3.60095 9.60286 4.88137 8.77033 6.3145C7.93779 7.74763 7.32376 9.27809 6.92823 10.9059C6.53269 12.5336 6.37639 14.2067 6.45932 15.9251C6.47208 16.7307 6.54385 17.5295 6.67464 18.3216C6.80542 19.1137 6.9984 19.8957 7.25358 20.6677ZM12.5263 16.5494C10.7655 16.5025 9.04625 16.1283 7.36842 15.4267C5.69059 14.7253 4.16587 13.71 2.79426 12.3809L2.51675 13.7504C3.95853 15.0458 5.55502 16.0326 7.30621 16.7106C9.05741 17.3885 10.8421 17.7443 12.6603 17.7778L12.5263 16.5494ZM15.3397 11.2029C15.1419 10.6256 14.9888 10.0299 14.8803 9.41569C14.7719 8.8015 14.7145 8.17891 14.7082 7.54793C14.6954 6.84311 14.748 6.14501 14.866 5.45361C14.984 4.76222 15.161 4.09432 15.3971 3.44991L14.2871 3.11764C14.0319 3.82246 13.8421 4.54573 13.7177 5.28747C13.5933 6.02921 13.5375 6.78605 13.5502 7.55799C13.563 8.92735 13.7926 10.2665 14.2392 11.5755L15.3397 11.2029ZM7.59808 12.0487C8.01275 12.0487 8.36522 11.8943 8.65549 11.5855C8.94577 11.2767 9.0909 10.9042 9.0909 10.4679C9.0909 10.0316 8.94577 9.6607 8.65549 9.35528C8.36522 9.04986 8.01275 8.89715 7.59808 8.89715C7.1834 8.89715 6.82934 9.04986 6.53588 9.35528C6.24242 9.6607 6.09569 10.0316 6.09569 10.4679C6.09569 10.9042 6.24242 11.2767 6.53588 11.5855C6.82934 11.8943 7.1834 12.0487 7.59808 12.0487ZM14.7847 12.522C15.1866 12.522 15.5311 12.3709 15.8182 12.0688C16.1052 11.7668 16.2488 11.4009 16.2488 10.9713C16.2488 10.5484 16.1052 10.1843 15.8182 9.87886C15.5311 9.57344 15.1866 9.42072 14.7847 9.42072C14.3764 9.42072 14.0271 9.57344 13.7368 9.87886C13.4465 10.1843 13.3014 10.5484 13.3014 10.9713C13.3014 11.4009 13.4465 11.7668 13.7368 12.0688C14.0271 12.3709 14.3764 12.522 14.7847 12.522ZM12.0287 18.6538C12.437 18.6538 12.7863 18.5011 13.0765 18.1957C13.3668 17.8903 13.5119 17.5161 13.5119 17.073C13.5119 16.6434 13.3668 16.2759 13.0765 15.9705C12.7863 15.6651 12.437 15.5124 12.0287 15.5124C11.614 15.5124 11.26 15.6651 10.9665 15.9705C10.673 16.2759 10.5263 16.6434 10.5263 17.073C10.5263 17.5161 10.673 17.8903 10.9665 18.1957C11.26 18.5011 11.614 18.6538 12.0287 18.6538ZM15.0526 18.2712C15.0526 18.7948 15.1292 19.2479 15.2823 19.6305C15.4354 20.0131 15.6714 20.3689 15.9904 20.6979C16.3094 21.0268 16.7225 21.3607 17.2297 21.6996C17.7369 22.0386 18.3445 22.4296 19.0526 22.8727C19.2057 22.9666 19.3716 23.0086 19.5503 22.9985C19.7289 22.9885 19.882 22.9465 20.0095 22.8727C20.9537 22.2887 21.7193 21.7836 22.3062 21.3573C22.8931 20.9311 23.3221 20.4847 23.5932 20.0182C23.8644 19.5517 24 18.9693 24 18.2712V14.3343C24 14.0188 23.9378 13.7554 23.8133 13.5439C23.6889 13.3325 23.4737 13.1563 23.1675 13.0153C23.0079 12.9482 22.7878 12.8609 22.5071 12.7535C22.2264 12.6461 21.9266 12.5336 21.6077 12.4162C21.2887 12.2987 20.9936 12.1896 20.7224 12.0889C20.4513 11.9883 20.252 11.9111 20.1244 11.8574C19.933 11.7768 19.7432 11.7349 19.555 11.7315C19.3668 11.7282 19.1898 11.7567 19.0239 11.8171C18.8708 11.8708 18.6539 11.9497 18.3732 12.0538C18.0925 12.1578 17.7894 12.2719 17.464 12.3961C17.1387 12.5203 16.8341 12.6377 16.5502 12.7485C16.2663 12.8592 16.0479 12.9482 15.8947 13.0153C15.5885 13.1563 15.3716 13.3325 15.244 13.5439C15.1164 13.7554 15.0526 14.0188 15.0526 14.3343V18.2712ZM16.4594 18.0799V14.8076C16.4594 14.6599 16.4849 14.5441 16.5359 14.4601C16.5869 14.3763 16.6858 14.3041 16.8325 14.2437C17.0048 14.1766 17.193 14.1044 17.3971 14.0272C17.6013 13.95 17.8086 13.8695 18.0192 13.7856C18.2296 13.7017 18.437 13.6194 18.6411 13.5389C18.8453 13.4583 19.0303 13.3878 19.1961 13.3274C19.2599 13.3006 19.3174 13.2822 19.3684 13.2721C19.4194 13.262 19.4736 13.257 19.5311 13.257V21.3423C19.4354 21.3423 19.3397 21.3154 19.244 21.2616C18.5168 20.7985 17.9506 20.4209 17.5455 20.1289C17.1403 19.8369 16.858 19.5433 16.6985 19.2479C16.5391 18.9525 16.4594 18.5632 16.4594 18.0799Z" fill="black" fill-opacity="0.8"/>
</svg>
