<svg width="24" height="24" viewBox="0 0 24 24" fill="none" xmlns="http://www.w3.org/2000/svg">
<path d="M3.57843 7.84313C4.38889 8.69934 5.29575 9.43136 6.29902 10.0392C7.30228 10.647 8.37417 11.1095 9.5147 11.4265C10.6552 11.7435 11.8301 11.9019 13.0392 11.9019C14.4706 11.8954 15.8513 11.6601 17.1814 11.1961C18.5114 10.732 19.7288 10.0654 20.8333 9.19607L20.2745 8.09803C19.2614 8.94117 18.1373 9.58659 16.902 10.0343C15.6666 10.482 14.379 10.7091 13.0392 10.7157C11.3006 10.7222 9.65522 10.366 8.10293 9.64705C6.55065 8.9281 5.22549 7.92156 4.12745 6.62745L3.57843 7.84313ZM2.52941 13.4412C3.80392 14.5261 5.19444 15.3905 6.70098 16.0343C8.20751 16.6781 9.76633 17.0915 11.3774 17.2744C12.9885 17.4575 14.5947 17.4052 16.196 17.1176C17.7974 16.83 19.3333 16.3006 20.8039 15.5294L20.7745 14.1863C19.3497 15.0098 17.8464 15.58 16.2647 15.8971C14.683 16.214 13.0964 16.281 11.5049 16.0981C9.91338 15.915 8.37581 15.4885 6.89215 14.8187C5.40849 14.1487 4.05228 13.2451 2.82353 12.1079L2.52941 13.4412ZM7.39215 20.1765L8.79411 20.4999C8.46731 19.7091 8.21568 18.8987 8.0392 18.0686C7.86273 17.2385 7.76796 16.3954 7.75489 15.5392C7.66339 13.9117 7.82515 12.3301 8.24019 10.7941C8.65522 9.25816 9.29411 7.82188 10.1569 6.48529C11.0196 5.14869 12.0751 3.97058 13.3235 2.95098L12.0686 2.46078C10.8333 3.55882 9.79084 4.80555 8.94117 6.20097C8.09149 7.5964 7.46241 9.08659 7.05392 10.6716C6.64542 12.2566 6.48365 13.8856 6.56862 15.5588C6.58169 16.3431 6.65686 17.1209 6.79411 17.8922C6.93137 18.6634 7.13071 19.4248 7.39215 20.1765ZM13.8529 21.1471L14.9608 20.6569C14.0458 19.3627 13.3448 17.9624 12.8578 16.4558C12.3709 14.9493 12.1274 13.3954 12.1274 11.7941C12.1274 10.2712 12.3431 8.79738 12.7745 7.37254C13.2059 5.94771 13.8366 4.61765 14.6667 3.38235L13.5097 2.97059C12.6731 4.28431 12.0359 5.68954 11.598 7.18627C11.1601 8.683 10.9412 10.2189 10.9412 11.7941C10.9412 13.4869 11.1895 15.1258 11.6863 16.7107C12.183 18.2957 12.9052 19.7745 13.8529 21.1471ZM19.6274 17.5L20.4215 16.598C19.3235 15.9706 18.3742 15.183 17.5735 14.2353C16.7729 13.2876 16.1519 12.232 15.7107 11.0686C15.2696 9.90522 15.0392 8.683 15.0196 7.40195C15.0131 6.71568 15.0686 6.03594 15.1863 5.36274C15.3039 4.68954 15.4869 4.03921 15.7352 3.41176L14.5883 3.08823C14.3268 3.77451 14.134 4.47876 14.0098 5.20098C13.8856 5.9232 13.8267 6.66012 13.8333 7.41175C13.8529 8.80391 14.098 10.1356 14.5686 11.4069C15.0392 12.6781 15.7059 13.8349 16.5686 14.8774C17.4314 15.9199 18.451 16.7941 19.6274 17.5ZM7.74509 11.7843C8.16339 11.7843 8.52124 11.634 8.81862 11.3333C9.116 11.0327 9.2647 10.6699 9.2647 10.2451C9.2647 9.82025 9.116 9.45914 8.81862 9.16176C8.52124 8.86437 8.16339 8.71567 7.74509 8.71567C7.31372 8.71567 6.94934 8.86437 6.65196 9.16176C6.35457 9.45914 6.20587 9.82025 6.20587 10.2451C6.20587 10.6699 6.35457 11.0327 6.65196 11.3333C6.94934 11.634 7.31372 11.7843 7.74509 11.7843ZM15.2549 12.598C15.6667 12.598 16.0196 12.4493 16.3137 12.1519C16.6078 11.8546 16.7549 11.4967 16.7549 11.0784C16.7549 10.6667 16.6078 10.3137 16.3137 10.0196C16.0196 9.72548 15.6667 9.57842 15.2549 9.57842C14.8301 9.57842 14.4706 9.72548 14.1764 10.0196C13.8824 10.3137 13.7353 10.6667 13.7353 11.0784C13.7353 11.4967 13.8824 11.8546 14.1764 12.1519C14.4706 12.4493 14.8301 12.598 15.2549 12.598ZM12.3334 18.2647C12.7517 18.2647 13.1095 18.116 13.4068 17.8186C13.7042 17.5212 13.8529 17.1601 13.8529 16.7352C13.8529 16.3104 13.7042 15.9493 13.4068 15.6519C13.1095 15.3546 12.7517 15.2059 12.3334 15.2059C11.902 15.2059 11.5376 15.3546 11.2402 15.6519C10.9428 15.9493 10.7941 16.3104 10.7941 16.7352C10.7941 17.1601 10.9428 17.5212 11.2402 17.8186C11.5376 18.116 11.902 18.2647 12.3334 18.2647ZM12 22C13.366 22 14.652 21.7385 15.8578 21.2156C17.0637 20.6928 18.1274 19.9706 19.049 19.049C19.9706 18.1274 20.6928 17.0637 21.2156 15.8578C21.7385 14.652 22 13.366 22 12C22 10.634 21.7385 9.34803 21.2156 8.14214C20.6928 6.93627 19.9706 5.87255 19.049 4.95097C18.1274 4.02941 17.0621 3.30719 15.8529 2.78431C14.6438 2.26144 13.3562 2 11.9902 2C10.6242 2 9.33823 2.26144 8.13235 2.78431C6.92646 3.30719 5.86437 4.02941 4.94607 4.95097C4.02778 5.87255 3.30719 6.93627 2.78431 8.14214C2.26144 9.34803 2 10.634 2 12C2 13.366 2.26144 14.652 2.78431 15.8578C3.30719 17.0637 4.02941 18.1274 4.95097 19.049C5.87255 19.9706 6.93627 20.6928 8.14214 21.2156C9.34803 21.7385 10.634 22 12 22ZM12 20.6667C10.817 20.6667 9.70261 20.4395 8.65686 19.9852C7.6111 19.531 6.68954 18.9052 5.89215 18.1078C5.09477 17.3104 4.46895 16.3889 4.01471 15.3431C3.56045 14.2974 3.33333 13.183 3.33333 12C3.33333 10.817 3.56045 9.70261 4.01471 8.65686C4.46895 7.6111 5.09314 6.68954 5.88725 5.89215C6.68136 5.09477 7.6013 4.46895 8.64705 4.01471C9.6928 3.56045 10.8072 3.33333 11.9902 3.33333C13.1732 3.33333 14.2876 3.56045 15.3333 4.01471C16.3791 4.46895 17.3023 5.09477 18.1029 5.89215C18.9035 6.68954 19.531 7.6111 19.9852 8.65686C20.4395 9.70261 20.6667 10.817 20.6667 12C20.6667 13.183 20.4395 14.2974 19.9852 15.3431C19.531 16.3889 18.9052 17.3104 18.1078 18.1078C17.3104 18.9052 16.3889 19.531 15.3431 19.9852C14.2974 20.4395 13.183 20.6667 12 20.6667Z" fill="#007AFF"/>
</svg>
