<svg width="24" height="24" viewBox="0 0 24 24" fill="none" xmlns="http://www.w3.org/2000/svg">
<path d="M2 9.8911C2 11.1437 2.21196 12.335 2.63589 13.4649C3.05982 14.5948 3.66431 15.5957 4.44936 16.4673C4.6315 16.674 4.83719 16.7789 5.06642 16.7821C5.29566 16.7854 5.48564 16.6966 5.63637 16.5157C5.7871 16.3414 5.8452 16.1477 5.81065 15.9347C5.77611 15.7216 5.67405 15.515 5.50448 15.3148C4.87015 14.5916 4.38342 13.7668 4.04428 12.8402C3.70514 11.9137 3.53557 10.9306 3.53557 9.8911C3.53557 8.85155 3.70514 7.8685 4.04428 6.94196C4.38342 6.01541 4.87015 5.19055 5.50448 4.46739C5.67405 4.26723 5.77611 4.06061 5.81065 3.84754C5.8452 3.63446 5.7871 3.44076 5.63637 3.26643C5.48564 3.08564 5.29566 2.99686 5.06642 3.00008C4.83719 3.00331 4.6315 3.10824 4.44936 3.31485C3.92809 3.89596 3.48532 4.5368 3.12106 5.23737C2.75679 5.93793 2.47888 6.67885 2.28733 7.46012C2.09578 8.24139 2 9.05171 2 9.8911ZM5.96609 9.8911C5.96609 10.6013 6.07914 11.2809 6.30523 11.9298C6.53133 12.5787 6.84849 13.1647 7.25672 13.6877C7.42001 13.9072 7.62255 14.0186 7.86435 14.0219C8.10615 14.025 8.30555 13.9362 8.46256 13.7555C8.61329 13.5811 8.66824 13.3906 8.62742 13.184C8.5866 12.9774 8.49082 12.7676 8.3401 12.5545C8.05747 12.1929 7.84708 11.7845 7.70891 11.3293C7.57074 10.8741 7.50165 10.3947 7.50165 9.8911C7.50165 9.38747 7.57387 8.90966 7.71833 8.45769C7.86278 8.00571 8.07003 7.5957 8.3401 7.22767C8.49082 7.0146 8.5866 6.80475 8.62742 6.59814C8.66824 6.39152 8.61329 6.20104 8.46256 6.0267C8.30555 5.84592 8.10615 5.75714 7.86435 5.76036C7.62255 5.76359 7.42001 5.87497 7.25672 6.0945C6.84849 6.6175 6.53133 7.20345 6.30523 7.85236C6.07914 8.50127 5.96609 9.18085 5.96609 9.8911ZM10.309 9.8911C10.309 10.2398 10.3985 10.5545 10.5775 10.8354C10.7565 11.1163 10.9904 11.3245 11.2793 11.4601V20.1671C11.2793 20.4124 11.3468 20.6126 11.4819 20.7675C11.6169 20.9225 11.7912 21 12.0047 21C12.2245 21 12.3988 20.9241 12.5276 20.7724C12.6563 20.6207 12.7207 20.4189 12.7207 20.1671V11.4601C13.0033 11.3245 13.2357 11.1163 13.4178 10.8354C13.5999 10.5545 13.691 10.2398 13.691 9.8911C13.691 9.56826 13.6156 9.27447 13.465 9.00975C13.3142 8.74502 13.1117 8.53356 12.8573 8.37536C12.603 8.21717 12.3188 8.13808 12.0047 8.13808C11.6844 8.13808 11.3971 8.21717 11.1427 8.37536C10.8884 8.53356 10.6858 8.74502 10.5351 9.00975C10.3844 9.27447 10.309 9.56826 10.309 9.8911ZM15.5375 13.7555C15.6944 13.9362 15.8938 14.025 16.1357 14.0219C16.3775 14.0186 16.58 13.9072 16.7433 13.6877C17.1516 13.1647 17.4687 12.5787 17.6948 11.9298C17.9209 11.2809 18.0339 10.6013 18.0339 9.8911C18.0339 9.18085 17.9209 8.50127 17.6948 7.85236C17.4687 7.20345 17.1516 6.6175 16.7433 6.0945C16.58 5.87497 16.3775 5.76359 16.1357 5.76036C15.8938 5.75714 15.6944 5.84592 15.5375 6.0267C15.3867 6.20104 15.3318 6.39152 15.3726 6.59814C15.4134 6.80475 15.5092 7.0146 15.66 7.22767C15.93 7.5957 16.1373 8.00571 16.2817 8.45769C16.4261 8.90966 16.4984 9.38747 16.4984 9.8911C16.4984 10.3947 16.4293 10.8741 16.2912 11.3293C16.153 11.7845 15.9426 12.1929 15.66 12.5545C15.5092 12.7676 15.4134 12.9774 15.3726 13.184C15.3318 13.3906 15.3867 13.5811 15.5375 13.7555ZM18.3637 16.5157C18.5144 16.6966 18.706 16.7854 18.9383 16.7821C19.1707 16.7789 19.3748 16.674 19.5507 16.4673C20.3357 15.5957 20.9402 14.5948 21.3641 13.4649C21.788 12.335 22 11.1437 22 9.8911C22 9.05171 21.9042 8.24139 21.7127 7.46012C21.5211 6.67885 21.2432 5.93793 20.879 5.23737C20.5147 4.5368 20.0719 3.89596 19.5507 3.31485C19.3748 3.10824 19.1707 3.00331 18.9383 3.00008C18.706 2.99686 18.5144 3.08564 18.3637 3.26643C18.2129 3.44076 18.1548 3.63446 18.1893 3.84754C18.2239 4.06061 18.3259 4.26723 18.4955 4.46739C19.1298 5.19055 19.6166 6.01541 19.9558 6.94196C20.2949 7.8685 20.4644 8.85155 20.4644 9.8911C20.4644 10.9306 20.2949 11.9137 19.9558 12.8402C19.6166 13.7668 19.1298 14.5916 18.4955 15.3148C18.3259 15.515 18.2239 15.7216 18.1893 15.9347C18.1548 16.1477 18.2129 16.3414 18.3637 16.5157Z" fill="#34C759"/>
</svg>
