<svg width="24" height="24" viewBox="0 0 24 24" fill="none" xmlns="http://www.w3.org/2000/svg">
<path d="M6.32582 19C6.68432 19 6.99183 18.8717 7.24834 18.6152C7.50486 18.3587 7.63311 18.0512 7.63311 17.6927C7.63311 17.328 7.5064 17.0175 7.25298 16.7609C6.99956 16.5044 6.69051 16.3761 6.32582 16.3761C5.96733 16.3761 5.65673 16.5075 5.39404 16.7702C5.13135 17.0329 5 17.3497 5 17.7205C5 18.0604 5.13289 18.3587 5.39868 18.6152C5.66446 18.8717 5.97351 19 6.32582 19ZM5.13907 13.3444C5.13907 13.5483 5.21324 13.723 5.36159 13.8682C5.50993 14.0135 5.68609 14.0861 5.89007 14.0861C6.62561 14.0861 7.29779 14.2684 7.90662 14.6331C8.51545 14.9978 9.00221 15.4846 9.36689 16.0934C9.73156 16.7022 9.9139 17.3744 9.9139 18.1099C9.9139 18.3139 9.98653 18.4901 10.1318 18.6384C10.277 18.7867 10.4517 18.8609 10.6556 18.8609C10.8596 18.8609 11.0358 18.7867 11.1841 18.6384C11.3324 18.4901 11.4066 18.3139 11.4066 18.1099C11.4066 17.3497 11.2629 16.6357 10.9755 15.9682C10.6881 15.3006 10.2909 14.715 9.7841 14.2113C9.27726 13.7075 8.69006 13.3119 8.02251 13.0245C7.35497 12.7371 6.64415 12.5934 5.89007 12.5934C5.68609 12.5934 5.50993 12.6675 5.36159 12.8159C5.21324 12.9642 5.13907 13.1404 5.13907 13.3444ZM5.13907 9.66357C5.13907 9.86755 5.21324 10.0422 5.36159 10.1874C5.50993 10.3327 5.68609 10.4053 5.89007 10.4053C6.9532 10.4053 7.94989 10.6046 8.88013 11.0033C9.81037 11.402 10.6294 11.9552 11.3371 12.6629C12.0448 13.3706 12.598 14.1896 12.9967 15.1199C13.3954 16.0501 13.5947 17.0468 13.5947 18.1099C13.5947 18.3139 13.6673 18.4901 13.8126 18.6384C13.9578 18.7867 14.1324 18.8609 14.3364 18.8609C14.5404 18.8609 14.7165 18.7867 14.8649 18.6384C15.0132 18.4901 15.0874 18.3139 15.0874 18.1099C15.0874 16.8428 14.8479 15.6529 14.3689 14.5404C13.8898 13.4278 13.2285 12.4512 12.3848 11.6106C11.5411 10.77 10.5645 10.1102 9.45496 9.63112C8.34547 9.15209 7.15717 8.91258 5.89007 8.91258C5.68609 8.91258 5.50993 8.98675 5.36159 9.1351C5.21324 9.28344 5.13907 9.4596 5.13907 9.66357ZM5.13907 5.74172C5.13907 5.9457 5.21324 6.12186 5.36159 6.2702C5.50993 6.41855 5.68609 6.49272 5.89007 6.49272C7.16953 6.49272 8.39028 6.68742 9.55231 7.07682C10.7143 7.46622 11.779 8.01788 12.7464 8.73178C13.7137 9.44569 14.5527 10.2863 15.2635 11.2536C15.9744 12.221 16.526 13.2856 16.9185 14.4477C17.311 15.6097 17.5073 16.8305 17.5073 18.1099C17.5073 18.3139 17.5814 18.4901 17.7298 18.6384C17.8782 18.7867 18.0543 18.8609 18.2582 18.8609C18.4622 18.8609 18.6369 18.7867 18.7821 18.6384C18.9274 18.4901 19 18.3139 19 18.1099C19 16.6635 18.779 15.2867 18.3371 13.9795C17.8951 12.6722 17.2724 11.4715 16.4689 10.3775C15.6653 9.28344 14.7165 8.33466 13.6225 7.53113C12.5285 6.72759 11.3263 6.10485 10.0159 5.66291C8.70552 5.22097 7.33024 5 5.89007 5C5.68609 5 5.50993 5.07263 5.36159 5.21788C5.21324 5.36313 5.13907 5.53775 5.13907 5.74172Z" fill="black" fill-opacity="0.8"/>
</svg>
