<svg width="24" height="24" viewBox="0 0 24 24" fill="none" xmlns="http://www.w3.org/2000/svg">
<path d="M0 12.0024C0 13.4943 0.276391 14.9059 0.829173 16.2373C1.38195 17.5687 2.16199 18.7426 3.16929 19.759C3.33512 19.9254 3.51785 20.0057 3.71746 19.9997C3.91707 19.9938 4.08137 19.9195 4.21036 19.7768C4.34548 19.6401 4.40076 19.4796 4.37619 19.2953C4.35162 19.1111 4.26257 18.9387 4.10901 18.7782C3.22456 17.8867 2.54894 16.8599 2.08214 15.6979C1.61535 14.5359 1.38195 13.3041 1.38195 12.0024C1.38195 10.7007 1.61535 9.4689 2.08214 8.3069C2.54894 7.1449 3.22456 6.11812 4.10901 5.22655C4.26257 5.06607 4.35162 4.8937 4.37619 4.70945C4.40076 4.52519 4.34548 4.36174 4.21036 4.21909C4.08137 4.08238 3.91707 4.00957 3.71746 4.00066C3.51785 3.99174 3.33512 4.07347 3.16929 4.24584C2.16199 5.26222 1.38195 6.43462 0.829173 7.76304C0.276391 9.09147 0 10.5046 0 12.0024ZM3.29826 12.0024C3.29826 13.0604 3.48713 14.0663 3.86487 15.0203C4.24261 15.9743 4.78464 16.8198 5.49097 17.5569C5.65066 17.7352 5.83492 17.8258 6.04375 17.8288C6.25258 17.8317 6.42455 17.756 6.55968 17.6014C6.6948 17.4528 6.74855 17.2894 6.72091 17.1111C6.69327 16.9328 6.5996 16.7604 6.43991 16.594C5.8687 15.9758 5.43108 15.2744 5.12705 14.4899C4.82302 13.7053 4.67101 12.8761 4.67101 12.0024C4.67101 11.1287 4.82302 10.2995 5.12705 9.51496C5.43108 8.73039 5.8687 8.02903 6.43991 7.41088C6.5996 7.24445 6.69327 7.07208 6.72091 6.89377C6.74855 6.71546 6.6948 6.54904 6.55968 6.3945C6.42455 6.24591 6.25258 6.17309 6.04375 6.17606C5.83492 6.17903 5.65066 6.26671 5.49097 6.43908C4.78464 7.1761 4.24261 8.02309 3.86487 8.98003C3.48713 9.93697 3.29826 10.9444 3.29826 12.0024ZM6.58732 12.0024C6.58732 12.6027 6.68866 13.1763 6.89135 13.7231C7.09404 14.27 7.37964 14.7633 7.74816 15.2031C7.89557 15.3933 8.0783 15.4914 8.29634 15.4973C8.51438 15.5033 8.69403 15.429 8.8353 15.2745C8.97042 15.1259 9.01956 14.9639 8.9827 14.7885C8.94585 14.6132 8.85987 14.4334 8.72475 14.2491C8.47292 13.946 8.28406 13.6028 8.15814 13.2194C8.03223 12.836 7.96928 12.4304 7.96928 12.0024C7.96928 11.5745 8.03223 11.1688 8.15814 10.7854C8.28406 10.4021 8.47292 10.0558 8.72475 9.74676C8.85987 9.56846 8.94585 9.39163 8.9827 9.21629C9.01956 9.04095 8.97042 8.87898 8.8353 8.73039C8.69403 8.57585 8.51438 8.50156 8.29634 8.5075C8.0783 8.51344 7.89557 8.60854 7.74816 8.7928C7.37964 9.23857 7.09404 9.73488 6.89135 10.2817C6.68866 10.8285 6.58732 11.4021 6.58732 12.0024ZM17.4126 12.0024C17.4126 11.4021 17.3113 10.8285 17.1086 10.2817C16.9059 9.73488 16.6203 9.23857 16.2518 8.7928C16.0982 8.60854 15.914 8.51344 15.699 8.5075C15.484 8.50156 15.3059 8.57585 15.1646 8.73039C15.0234 8.87898 14.9727 9.04095 15.0127 9.21629C15.0526 9.39163 15.1401 9.56846 15.2752 9.74676C15.5209 10.0558 15.7082 10.4021 15.8372 10.7854C15.9662 11.1688 16.0307 11.5745 16.0307 12.0024C16.0307 12.4304 15.9662 12.836 15.8372 13.2194C15.7082 13.6028 15.5209 13.946 15.2752 14.2491C15.1401 14.4334 15.0526 14.6132 15.0127 14.7885C14.9727 14.9639 15.0234 15.1259 15.1646 15.2745C15.3059 15.429 15.484 15.5033 15.699 15.4973C15.914 15.4914 16.0982 15.3933 16.2518 15.2031C16.6203 14.7633 16.9059 14.27 17.1086 13.7231C17.3113 13.1763 17.4126 12.6027 17.4126 12.0024ZM20.7017 12.0024C20.7017 10.9444 20.5129 9.93697 20.1351 8.98003C19.7574 8.02309 19.2153 7.1761 18.5089 6.43908C18.3432 6.26671 18.1574 6.17903 17.9516 6.17606C17.7459 6.17309 17.5754 6.24591 17.4402 6.3945C17.3052 6.54904 17.2514 6.71546 17.279 6.89377C17.3067 7.07208 17.3973 7.24445 17.5508 7.41088C18.1282 8.02903 18.5689 8.73039 18.8729 9.51496C19.1769 10.2995 19.329 11.1287 19.329 12.0024C19.329 12.8761 19.1769 13.7053 18.8729 14.4899C18.5689 15.2744 18.1282 15.9758 17.5508 16.594C17.3973 16.7604 17.3067 16.9328 17.279 17.1111C17.2514 17.2894 17.3052 17.4528 17.4402 17.6014C17.5754 17.756 17.7459 17.8317 17.9516 17.8288C18.1574 17.8258 18.3432 17.7352 18.5089 17.5569C19.2153 16.8198 19.7574 15.9743 20.1351 15.0203C20.5129 14.0663 20.7017 13.0604 20.7017 12.0024ZM24 12.0024C24 10.5046 23.7221 9.09147 23.1662 7.76304C22.6103 6.43462 21.8318 5.26222 20.8307 4.24584C20.6648 4.07347 20.4821 3.99174 20.2825 4.00066C20.0828 4.00957 19.9186 4.08238 19.7896 4.21909C19.6545 4.36174 19.5992 4.52519 19.6238 4.70945C19.6483 4.8937 19.7374 5.06607 19.891 5.22655C20.7754 6.11812 21.451 7.1449 21.9178 8.3069C22.3846 9.4689 22.618 10.7007 22.618 12.0024C22.618 13.3041 22.3846 14.5359 21.9178 15.6979C21.451 16.8599 20.7754 17.8867 19.891 18.7782C19.7374 18.9387 19.6483 19.1111 19.6238 19.2953C19.5992 19.4796 19.6545 19.6401 19.7896 19.7768C19.9186 19.9195 20.0828 19.9938 20.2825 19.9997C20.4821 20.0057 20.6648 19.9254 20.8307 19.759C21.8318 18.7426 22.6103 17.5687 23.1662 16.2373C23.7221 14.9059 24 13.4943 24 12.0024ZM10.3186 12.0202C10.3186 12.3115 10.3969 12.5775 10.5535 12.8182C10.7101 13.0589 10.9159 13.2521 11.1708 13.3977C11.4257 13.5433 11.7067 13.6161 12.0138 13.6161C12.3148 13.6161 12.5912 13.5433 12.843 13.3977C13.0948 13.2521 13.296 13.0559 13.4464 12.8093C13.5969 12.5626 13.6722 12.2937 13.6722 12.0024C13.6722 11.5566 13.5109 11.1748 13.1885 10.8568C12.866 10.5388 12.4745 10.3798 12.0138 10.3798C11.7005 10.3798 11.4165 10.4541 11.1616 10.6027C10.9067 10.7513 10.7025 10.9504 10.5489 11.2C10.3954 11.4497 10.3186 11.7231 10.3186 12.0202Z" fill="black" fill-opacity="0.8"/>
</svg>
