<svg width="24" height="24" viewBox="0 0 24 24" fill="none" xmlns="http://www.w3.org/2000/svg">
<path d="M5.63637 17.5999C5.7871 17.4288 5.8452 17.2388 5.81065 17.0297C5.77611 16.8206 5.67405 16.6179 5.50448 16.4214C4.87015 15.7119 4.38342 14.9025 4.04428 13.9933C3.70514 13.0842 3.53557 12.1196 3.53557 11.0996C3.53557 10.257 3.65175 9.4555 3.88412 8.69523C4.1165 7.93496 4.44936 7.23488 4.88271 6.59498L3.7805 5.48309C3.20898 6.2687 2.76935 7.13984 2.46161 8.09652C2.15387 9.05319 2 10.0542 2 11.0996C2 12.3287 2.21196 13.4976 2.63589 14.6063C3.05982 15.7151 3.66431 16.6971 4.44936 17.5523C4.6315 17.7551 4.83719 17.858 5.06642 17.8612C5.29566 17.8644 5.48564 17.7773 5.63637 17.5999ZM8.46256 14.8915C8.61329 14.7204 8.66824 14.5335 8.62742 14.3307C8.5866 14.128 8.49082 13.9221 8.3401 13.713C8.05747 13.3582 7.84708 12.9575 7.70891 12.5109C7.57074 12.0642 7.50165 11.5938 7.50165 11.0996C7.50165 10.8208 7.52834 10.5516 7.58173 10.2918C7.63511 10.032 7.71205 9.78178 7.81253 9.54103L6.63496 8.35311C6.41514 8.76492 6.24871 9.20366 6.13566 9.66932C6.02261 10.135 5.96609 10.6117 5.96609 11.0996C5.96609 11.7965 6.07914 12.4633 6.30523 13.1001C6.53133 13.7368 6.84849 14.3117 7.25672 14.8249C7.42001 15.0403 7.62255 15.1496 7.86435 15.1528C8.10615 15.1559 8.30555 15.0688 8.46256 14.8915ZM12.0047 22C12.2245 22 12.3988 21.9256 12.5276 21.7767C12.6563 21.6278 12.7207 21.4298 12.7207 21.1827V14.5018L11.2793 13.0477V21.1827C11.2793 21.4234 11.3468 21.6198 11.4819 21.7719C11.6169 21.924 11.7912 22 12.0047 22ZM17.4593 13.6465C17.6477 13.26 17.7906 12.853 17.8879 12.4253C17.9853 11.9976 18.0339 11.5557 18.0339 11.0996C18.0339 10.4027 17.9209 9.73585 17.6948 9.09913C17.4687 8.4624 17.1516 7.88744 16.7433 7.37426C16.58 7.15885 16.3775 7.04956 16.1357 7.04639C15.8938 7.04323 15.6944 7.13034 15.5375 7.30774C15.3867 7.4788 15.3318 7.6657 15.3726 7.86844C15.4134 8.07118 15.5092 8.27708 15.66 8.48615C15.93 8.84728 16.1373 9.24959 16.2817 9.69309C16.4261 10.1366 16.4984 10.6054 16.4984 11.0996C16.4984 11.334 16.478 11.5653 16.4371 11.7934C16.3963 12.0214 16.3351 12.2368 16.2534 12.4395L17.4593 13.6465ZM20.342 16.564C20.8696 15.7784 21.2778 14.9231 21.5667 13.9981C21.8556 13.0731 22 12.1069 22 11.0996C22 10.276 21.9042 9.48085 21.7127 8.71424C21.5211 7.94763 21.2432 7.22063 20.879 6.53322C20.5147 5.8458 20.0719 5.217 19.5507 4.64679C19.3748 4.44405 19.1707 4.3411 18.9383 4.33793C18.706 4.33476 18.5144 4.42188 18.3637 4.59927C18.2129 4.77033 18.1548 4.9604 18.1893 5.16948C18.2239 5.37856 18.3259 5.58129 18.4955 5.77769C19.1298 6.48728 19.6166 7.29665 19.9558 8.20581C20.2949 9.11496 20.4644 10.0796 20.4644 11.0996C20.4644 11.9042 20.3577 12.6708 20.1442 13.3994C19.9306 14.128 19.6229 14.8059 19.221 15.4331L20.342 16.564ZM20.2195 20.2988C20.3639 20.4383 20.5382 20.508 20.7424 20.508C20.9465 20.508 21.1145 20.4383 21.2464 20.2988C21.3908 20.1531 21.4631 19.9789 21.4631 19.7762C21.4631 19.5734 21.3908 19.4024 21.2464 19.263L4.35516 2.21393C4.21071 2.07454 4.038 2.00327 3.83703 2.0001C3.63605 1.99693 3.46334 2.06821 3.31889 2.21393C3.18072 2.35331 3.11163 2.52595 3.11163 2.73186C3.11163 2.93777 3.18072 3.11041 3.31889 3.24979L20.2195 20.2988Z" fill="black" fill-opacity="0.8"/>
</svg>
