<svg width="24" height="24" viewBox="0 0 24 24" fill="none" xmlns="http://www.w3.org/2000/svg">
<path d="M5.10769 6.95961C4.30526 7.36329 3.56333 7.82688 2.8819 8.3504C2.20047 8.87392 1.60501 9.43528 1.09553 10.0345C1.03184 10.1165 1 10.2048 1 10.2994C1 10.394 1.0414 10.4855 1.12419 10.5738L2.45203 11.8794C2.54118 11.974 2.64626 12.0198 2.76726 12.0166C2.88827 12.0135 2.99335 11.9646 3.08251 11.87C4.29889 10.5959 5.67449 9.65289 7.20931 9.04107L5.10769 6.95961ZM11.5845 8.15172C11.6545 8.1391 11.7277 8.12964 11.8042 8.12333C11.8806 8.11702 11.9538 8.11387 12.0239 8.11387C13.8135 8.14541 15.4518 8.48601 16.9388 9.13568C18.4258 9.78535 19.7553 10.7062 20.9271 11.8983C21.0162 11.9866 21.1197 12.0292 21.2376 12.0261C21.3553 12.0229 21.4588 11.974 21.5481 11.8794L22.8663 10.5738C22.9554 10.4855 23 10.394 23 10.2994C23 10.2048 22.9682 10.1165 22.9045 10.0345C22.1339 9.13253 21.1802 8.32202 20.0435 7.60297C18.9067 6.88392 17.6505 6.31625 16.2748 5.89996C14.8993 5.48366 13.4728 5.27552 11.9952 5.27552C11.5176 5.27552 11.0336 5.30075 10.5432 5.3512C10.0528 5.40167 9.537 5.48051 8.99567 5.58773L11.5845 8.15172ZM9.36823 11.1604C8.43206 11.4127 7.58027 11.7753 6.81286 12.2484C6.04545 12.7215 5.40701 13.2576 4.89754 13.8569C4.82748 13.9388 4.79563 14.0271 4.802 14.1217C4.80837 14.2163 4.85295 14.3046 4.93574 14.3866L6.41642 15.8436C6.51832 15.9382 6.62817 15.9808 6.74599 15.9714C6.86381 15.9619 6.97048 15.9067 7.06601 15.8058C7.44812 15.3895 7.89392 15.0221 8.4034 14.7036C8.91288 14.3851 9.46375 14.1327 10.056 13.9467C10.6483 13.7606 11.2565 13.6644 11.8806 13.6581L9.36823 11.1604ZM18.472 14.9732L19.0643 14.3866C19.1471 14.3046 19.1901 14.2163 19.1932 14.1217C19.1964 14.0271 19.1662 13.9388 19.1025 13.8569C18.6249 13.2639 17.988 12.7246 17.1919 12.239C16.3959 11.7533 15.5457 11.4001 14.6413 11.1793L18.472 14.9732ZM12.0048 16.3262C11.3234 16.3262 10.7009 16.4807 10.1372 16.7898C9.57361 17.0988 9.13896 17.4584 8.83327 17.8684C8.78233 17.9441 8.7664 18.0229 8.7855 18.1049C8.80461 18.1869 8.84919 18.2626 8.91925 18.332L11.2406 20.5459C11.4316 20.7225 11.5813 20.8423 11.6895 20.9053C11.7978 20.9684 11.9029 21 12.0048 21C12.113 21 12.2213 20.9684 12.3296 20.9053C12.4378 20.8423 12.5875 20.7225 12.7786 20.5459L15.0903 18.332C15.1668 18.2626 15.2113 18.179 15.2241 18.0812C15.2368 17.9834 15.2113 17.8936 15.1477 17.8116C14.8356 17.4142 14.4026 17.0673 13.8485 16.7709C13.2945 16.4744 12.6799 16.3262 12.0048 16.3262ZM20.0483 20.158C20.1947 20.2967 20.3699 20.3661 20.5737 20.3661C20.7775 20.3661 20.9494 20.2967 21.0895 20.158C21.2296 20.0129 21.3013 19.8395 21.3044 19.6376C21.3076 19.4358 21.2359 19.2655 21.0895 19.1267L5.03127 3.21298C4.88479 3.07421 4.70806 3.00325 4.50109 3.0001C4.29411 2.99695 4.12057 3.06791 3.98047 3.21298C3.84036 3.35174 3.7703 3.5252 3.7703 3.73334C3.7703 3.94149 3.84036 4.11179 3.98047 4.24424L20.0483 20.158Z" fill="black" fill-opacity="0.8"/>
</svg>
