<svg width="24" height="24" viewBox="0 0 24 24" fill="none" xmlns="http://www.w3.org/2000/svg">
<path d="M11.9952 20C12.2628 20 12.5081 19.933 12.7311 19.7989C12.9541 19.6648 13.1293 19.4876 13.2567 19.2673C13.3842 19.047 13.4479 18.8028 13.4479 18.5346C13.4479 18.2665 13.3842 18.0223 13.2567 17.802C13.1293 17.5817 12.9541 17.4061 12.7311 17.2752C12.5081 17.1443 12.2628 17.0789 11.9952 17.0789C11.7276 17.0789 11.4839 17.1427 11.2641 17.2704C11.0443 17.3981 10.8691 17.5737 10.7385 17.7972C10.6079 18.0207 10.5426 18.2665 10.5426 18.5346C10.5426 18.8028 10.6079 19.047 10.7385 19.2673C10.8691 19.4876 11.0443 19.6648 11.2641 19.7989C11.4839 19.933 11.7276 20 11.9952 20ZM12.0047 15.3837C12.2532 15.3837 12.4571 15.3071 12.6164 15.1538C12.7757 15.0006 12.8585 14.7898 12.8649 14.5216C12.8713 13.8193 12.8776 13.1138 12.884 12.4051C12.8904 11.6963 12.8968 10.9892 12.9031 10.2837C12.9095 9.57812 12.9143 8.87098 12.9175 8.16225C12.9206 7.45352 12.9254 6.74638 12.9318 6.04085C12.9382 5.3353 12.9445 4.62816 12.9509 3.91944C12.9509 3.64488 12.8553 3.423 12.6642 3.2538C12.4731 3.0846 12.2501 3 11.9952 3C11.7404 3 11.5174 3.0846 11.3263 3.2538C11.1351 3.423 11.0395 3.64488 11.0395 3.91944C11.0459 4.62816 11.0523 5.3353 11.0587 6.04085C11.065 6.74638 11.0714 7.45352 11.0778 8.16225C11.0841 8.87098 11.0921 9.57812 11.1017 10.2837C11.1112 10.9892 11.1192 11.6963 11.1256 12.4051C11.132 13.1138 11.1383 13.8193 11.1446 14.5216C11.151 14.7898 11.2323 15.0006 11.3884 15.1538C11.5445 15.3071 11.7499 15.3837 12.0047 15.3837ZM9.62517 4.2738C8.45925 4.46535 7.3443 4.77822 6.28031 5.21239C5.21633 5.64657 4.24155 6.17652 3.35596 6.80225C2.47037 7.42797 1.71539 8.12713 1.09102 8.89971C1.0273 8.97633 0.997042 9.06413 1.00023 9.16309C1.00341 9.26206 1.04323 9.35624 1.11969 9.44563L2.43851 10.7865C2.53408 10.8822 2.64239 10.9285 2.76344 10.9253C2.8845 10.9222 2.98962 10.8727 3.07882 10.7769C3.98351 9.81277 4.99334 9.02901 6.10829 8.42563C7.22324 7.82225 8.40827 7.40883 9.66339 7.18535L9.62517 4.2738ZM14.3557 4.28338L14.3271 7.19492C15.5822 7.40563 16.7656 7.81587 17.8774 8.42563C18.9891 9.03539 20.0069 9.82234 20.9307 10.7865C21.02 10.8759 21.1219 10.919 21.2365 10.9158C21.3512 10.9126 21.4564 10.8631 21.5519 10.7673L22.8708 9.44563C22.9536 9.35624 22.9966 9.26206 22.9998 9.16309C23.003 9.06413 22.9696 8.97633 22.8995 8.89971C22.2687 8.13352 21.5137 7.43596 20.6345 6.80704C19.7553 6.17812 18.7837 5.64497 17.7197 5.20761C16.6557 4.77023 15.5344 4.46216 14.3557 4.28338ZM14.3175 9.95323L14.2888 13.0085C14.8177 13.2 15.3098 13.449 15.7653 13.7555C16.2209 14.0619 16.6239 14.4035 16.9743 14.7803C17.0635 14.876 17.1638 14.9223 17.2753 14.9191C17.3868 14.9159 17.4935 14.8665 17.5954 14.7707L19.0672 13.3053C19.1436 13.2224 19.185 13.1314 19.1914 13.0324C19.1978 12.9334 19.166 12.8456 19.0958 12.769C18.5671 12.1177 17.8886 11.5415 17.0603 11.0403C16.232 10.5391 15.3178 10.1767 14.3175 9.95323ZM9.69206 9.95323C8.6918 10.1831 7.77913 10.5438 6.95407 11.0355C6.129 11.5271 5.4457 12.105 4.90415 12.769C4.83407 12.8456 4.80062 12.9334 4.8038 13.0324C4.80698 13.1314 4.84999 13.2224 4.93282 13.3053L6.41411 14.7899C6.51605 14.8856 6.62754 14.9287 6.7486 14.9191C6.86964 14.9096 6.97795 14.8505 7.07352 14.742C7.41756 14.3653 7.81576 14.0269 8.26811 13.7268C8.72046 13.4266 9.20467 13.1808 9.72074 12.9892L9.69206 9.95323Z" fill="black" fill-opacity="0.8"/>
</svg>
