<svg width="24" height="24" viewBox="0 0 24 24" fill="none" xmlns="http://www.w3.org/2000/svg">
<path d="M11.9952 20C12.1035 20 12.2118 19.9695 12.3201 19.9086C12.4284 19.8476 12.575 19.7241 12.7597 19.538L15.0916 17.2852C15.1617 17.2146 15.2047 17.1296 15.2206 17.0301C15.2366 16.9306 15.2095 16.8392 15.1394 16.7557C14.8272 16.3514 14.3924 15.9984 13.8349 15.6968C13.2775 15.3951 12.6642 15.2443 11.9952 15.2443C11.3072 15.2443 10.6828 15.4015 10.1221 15.716C9.56146 16.0305 9.12503 16.3963 8.81284 16.8135C8.76825 16.8905 8.75391 16.9708 8.76984 17.0542C8.78577 17.1376 8.83196 17.2146 8.90841 17.2852L11.2307 19.538C11.4154 19.7176 11.562 19.8396 11.6703 19.9038C11.7786 19.9679 11.8869 20 11.9952 20ZM6.40455 14.7629C6.50649 14.8592 6.61798 14.9025 6.73904 14.893C6.86009 14.8833 6.9684 14.8271 7.06396 14.7245C7.63737 14.0827 8.36368 13.5532 9.24289 13.136C10.1221 12.7188 11.0396 12.5135 11.9952 12.5199C12.9637 12.5135 13.8875 12.7236 14.7667 13.1504C15.6459 13.5772 16.3786 14.1115 16.9647 14.7534C17.0539 14.8496 17.1542 14.8978 17.2657 14.8978C17.3772 14.8978 17.484 14.8496 17.5859 14.7534L19.0672 13.2708C19.1436 13.1938 19.185 13.1055 19.1914 13.006C19.1978 12.9066 19.166 12.8151 19.0958 12.7317C18.618 12.1348 18.0144 11.6021 17.2849 11.1336C16.5554 10.6651 15.7399 10.2944 14.8384 10.0217C13.9368 9.7489 12.9891 9.61252 11.9952 9.61252C11.0013 9.61252 10.0536 9.7489 9.15211 10.0217C8.25059 10.2944 7.43667 10.6651 6.71036 11.1336C5.98405 11.6021 5.37879 12.1348 4.89459 12.7317C4.8245 12.8151 4.79265 12.905 4.79902 13.0012C4.80539 13.0975 4.8468 13.1873 4.92326 13.2708L6.40455 14.7629ZM2.43851 10.7389C2.52771 10.8352 2.63443 10.8817 2.75867 10.8785C2.8829 10.8753 2.98962 10.8255 3.07882 10.7293C4.25111 9.47134 5.59701 8.51666 7.11652 7.86523C8.63604 7.2138 10.2623 6.88809 11.9952 6.88809C13.741 6.88809 15.3751 7.21541 16.8978 7.87005C18.4205 8.52468 19.7648 9.48096 20.9307 10.7389C21.02 10.8287 21.1235 10.8721 21.2413 10.8688C21.3592 10.8656 21.4628 10.8159 21.5519 10.7196L22.8708 9.39111C22.9536 9.30126 22.9966 9.2082 22.9998 9.11192C23.003 9.01566 22.9696 8.92581 22.8995 8.84237C22.154 7.91176 21.2111 7.08224 20.0706 6.35379C18.9302 5.62535 17.6687 5.05094 16.2861 4.63057C14.9036 4.21019 13.4733 4 11.9952 4C10.5171 4 9.08681 4.20858 7.70427 4.62575C6.32173 5.04292 5.06024 5.61733 3.9198 6.34898C2.77937 7.08063 1.83644 7.91176 1.09102 8.84237C1.0273 8.92581 0.997042 9.01566 1.00023 9.11192C1.00341 9.2082 1.04323 9.30126 1.11969 9.39111L2.43851 10.7389Z" fill="#007AFF"/>
</svg>
