<svg width="24" height="24" viewBox="0 0 24 24" fill="none" xmlns="http://www.w3.org/2000/svg">
<path d="M12 22C13.2977 22 14.5194 21.7621 15.6649 21.2864C16.8105 20.8106 17.8211 20.1534 18.6965 19.3149C19.572 18.4764 20.2582 17.5085 20.7549 16.4113C21.2516 15.314 21.5 14.1439 21.5 12.901C21.5 11.6581 21.2516 10.488 20.7549 9.39073C20.2582 8.2935 19.572 7.32561 18.6965 6.48707C17.8211 5.64854 16.809 4.99138 15.6603 4.51562C14.5116 4.03985 13.2884 3.80197 11.9907 3.80197C10.693 3.80197 9.47132 4.03985 8.32573 4.51562C7.18014 4.99138 6.17116 5.64854 5.29877 6.48707C4.42639 7.32561 3.74183 8.2935 3.2451 9.39073C2.74837 10.488 2.5 11.6581 2.5 12.901C2.5 14.1439 2.74837 15.314 3.2451 16.4113C3.74183 17.5085 4.42794 18.4764 5.30343 19.3149C6.17892 20.1534 7.18946 20.8106 8.33504 21.2864C9.48063 21.7621 10.7023 22 12 22ZM12 14.3461C11.5778 14.3461 11.2223 14.2049 10.9336 13.9224C10.6448 13.6399 10.5005 13.3024 10.5005 12.91C10.5005 12.6304 10.5781 12.3762 10.7333 12.1472C10.8885 11.9182 11.0935 11.7383 11.348 11.6075V7.18288C11.348 7.01041 11.4101 6.86471 11.5343 6.74577C11.6585 6.62683 11.8106 6.56736 11.9907 6.56736C12.1769 6.56736 12.3322 6.62683 12.4564 6.74577C12.5806 6.86471 12.6427 7.01041 12.6427 7.18288V11.6164C12.9034 11.7354 13.1114 11.9093 13.2667 12.1383C13.4219 12.3672 13.4995 12.6245 13.4995 12.91C13.4995 13.3084 13.3536 13.6474 13.0617 13.9268C12.7699 14.2064 12.416 14.3461 12 14.3461ZM10.9941 4.28368H12.9872V2.98127C12.9872 2.71365 12.891 2.4832 12.6986 2.28992C12.506 2.09664 12.2701 2 11.9907 2C11.7175 2 11.4831 2.09664 11.2875 2.28992C11.0919 2.4832 10.9941 2.71365 10.9941 2.98127V4.28368ZM17.8024 6.2819L19.1716 7.65568L20.2147 6.64764C20.4382 6.43355 20.55 6.19269 20.55 5.92508C20.55 5.6753 20.4584 5.46269 20.2752 5.28725C20.092 5.11181 19.8639 5.02409 19.5906 5.02409C19.2926 5.02409 19.0381 5.12222 18.8269 5.31847L17.8024 6.2819Z" fill="black" fill-opacity="0.8"/>
</svg>
