<svg width="24" height="24" viewBox="0 0 24 24" fill="none" xmlns="http://www.w3.org/2000/svg">
<path d="M12 22C13.3117 22 14.5423 21.7605 15.6917 21.2816C16.8411 20.8026 17.8514 20.1404 18.7225 19.295C19.5937 18.4497 20.2744 17.4709 20.7646 16.3587C21.2549 15.2466 21.5 14.054 21.5 12.7811C21.5 11.5082 21.2549 10.3141 20.7646 9.19865C20.2744 8.08325 19.5937 7.10286 18.7225 6.25747C17.8514 5.41208 16.8411 4.74992 15.6917 4.27097C14.5423 3.79203 13.3117 3.55256 12 3.55256C10.6883 3.55256 9.45937 3.79203 8.31328 4.27097C7.16719 4.74992 6.15856 5.41208 5.28739 6.25747C4.41623 7.10286 3.73387 8.08325 3.24032 9.19865C2.74677 10.3141 2.5 11.5082 2.5 12.7811C2.5 14.054 2.74677 15.2466 3.24032 16.3587C3.73387 17.4709 4.41623 18.4497 5.28739 19.295C6.15856 20.1404 7.16719 20.8026 8.31328 21.2816C9.45937 21.7605 10.6883 22 12 22ZM7.47855 13.8419C7.28643 13.8419 7.12413 13.7776 6.99162 13.649C6.85913 13.5204 6.79288 13.3629 6.79288 13.1765C6.79288 12.9836 6.85913 12.8229 6.99162 12.6943C7.12413 12.5658 7.28643 12.5015 7.47855 12.5015H11.3044V7.33269C11.3044 7.13983 11.3706 6.97911 11.5031 6.85053C11.6356 6.72196 11.7979 6.65767 11.99 6.65767C12.1888 6.65767 12.3544 6.72196 12.4869 6.85053C12.6194 6.97911 12.6857 7.13983 12.6857 7.33269V13.1765C12.6857 13.3629 12.6194 13.5204 12.4869 13.649C12.3544 13.7776 12.1888 13.8419 11.99 13.8419H7.47855ZM3.84153 6.03086C3.9144 6.03086 3.98065 6.02282 4.04027 6.00675C4.09989 5.99068 4.16614 5.95693 4.23901 5.9055L7.56799 3.46577C7.73361 3.34362 7.81642 3.19897 7.81642 3.03182C7.81642 2.84539 7.72698 2.67181 7.54811 2.51109C7.35599 2.34394 7.10756 2.21697 6.80282 2.13018C6.49808 2.04339 6.19665 2 5.89853 2C5.38179 2 4.91143 2.12215 4.48744 2.36644C4.06345 2.61074 3.72724 2.937 3.47882 3.34522C3.23039 3.75345 3.10617 4.20829 3.10617 4.70974C3.10617 4.88975 3.12108 5.06332 3.15089 5.23047C3.1807 5.39762 3.22211 5.53584 3.2751 5.64513C3.3281 5.76728 3.40429 5.8621 3.50366 5.9296C3.60303 5.99711 3.71565 6.03086 3.84153 6.03086ZM20.1584 6.03086C20.2843 6.03086 20.397 5.9955 20.4963 5.92478C20.5956 5.85407 20.6752 5.76085 20.7348 5.64513C20.7878 5.54227 20.8275 5.40566 20.854 5.2353C20.8806 5.06493 20.8938 4.88975 20.8938 4.70974C20.8938 4.20829 20.7696 3.75345 20.5212 3.34522C20.2728 2.937 19.9366 2.61074 19.5126 2.36644C19.0886 2.12215 18.6182 2 18.1014 2C17.8033 2 17.5019 2.04339 17.1972 2.13018C16.8924 2.21697 16.6439 2.34394 16.4518 2.51109C16.273 2.67181 16.1836 2.84539 16.1836 3.03182C16.1836 3.19897 16.2697 3.34362 16.442 3.46577L19.761 5.9055C19.8338 5.95693 19.9001 5.99068 19.9597 6.00675C20.0193 6.02282 20.0856 6.03086 20.1584 6.03086ZM3.69247 21.7203C3.83822 21.8682 4.01874 21.9421 4.23404 21.9421C4.44935 21.9421 4.63319 21.865 4.78556 21.7107L6.6637 19.8978L5.59048 18.866L3.7024 20.6789C3.55003 20.8267 3.47385 21.0035 3.47385 21.2092C3.47385 21.415 3.54672 21.5853 3.69247 21.7203ZM20.3075 21.7203C20.4532 21.5853 20.5277 21.415 20.5311 21.2092C20.5344 21.0035 20.4565 20.8267 20.2975 20.6789L18.4095 18.866L17.3462 19.8978L19.2144 21.7107C19.3668 21.865 19.5506 21.9421 19.766 21.9421C19.9813 21.9421 20.1618 21.8682 20.3075 21.7203Z" fill="black" fill-opacity="0.8"/>
</svg>
