<svg width="24" height="24" viewBox="0 0 24 24" fill="none" xmlns="http://www.w3.org/2000/svg">
<path d="M12 22C13.2977 22 14.5194 21.7621 15.6649 21.2864C16.8105 20.8106 17.8211 20.1534 18.6965 19.3149C19.572 18.4764 20.2582 17.5085 20.7549 16.4113C21.2516 15.314 21.5 14.1439 21.5 12.901C21.5 11.6581 21.2516 10.488 20.7549 9.39073C20.2582 8.2935 19.572 7.32561 18.6965 6.48707C17.8211 5.64854 16.809 4.99138 15.6603 4.51562C14.5116 4.03985 13.2884 3.80197 11.9907 3.80197C10.693 3.80197 9.47132 4.03985 8.32573 4.51562C7.18014 4.99138 6.17116 5.64854 5.29877 6.48707C4.42639 7.32561 3.74183 8.2935 3.2451 9.39073C2.74837 10.488 2.5 11.6581 2.5 12.901C2.5 14.1439 2.74837 15.314 3.2451 16.4113C3.74183 17.5085 4.42794 18.4764 5.30343 19.3149C6.17892 20.1534 7.18946 20.8106 8.33504 21.2864C9.48063 21.7621 10.7023 22 12 22ZM12 20.4835C10.901 20.4835 9.87336 20.2873 8.91715 19.8947C7.96094 19.5022 7.12115 18.9596 6.39779 18.2667C5.67442 17.5739 5.10939 16.7696 4.70269 15.8537C4.29599 14.9379 4.09264 13.9536 4.09264 12.901C4.09264 11.8484 4.29599 10.8641 4.70269 9.94827C5.10939 9.03242 5.67287 8.2266 6.39313 7.53079C7.11339 6.83498 7.95162 6.2923 8.90784 5.90277C9.86405 5.51324 10.8917 5.31847 11.9907 5.31847C13.0897 5.31847 14.1173 5.51324 15.0735 5.90277C16.0297 6.2923 16.8711 6.83498 17.5976 7.53079C18.324 8.2266 18.8922 9.03242 19.302 9.94827C19.7117 10.8641 19.9166 11.8484 19.9166 12.901C19.9166 13.9536 19.7133 14.9379 19.3066 15.8537C18.8999 16.7696 18.3348 17.5739 17.6115 18.2667C16.8881 18.9596 16.0468 19.5022 15.0874 19.8947C14.1282 20.2873 13.099 20.4835 12 20.4835ZM10.9941 4.35504H12.9872V2.98127C12.9872 2.71365 12.891 2.4832 12.6986 2.28992C12.506 2.09664 12.2701 2 11.9907 2C11.7175 2 11.4831 2.09664 11.2875 2.28992C11.0919 2.4832 10.9941 2.71365 10.9941 2.98127V4.35504ZM17.8024 6.2819L19.1902 7.64675L20.2147 6.64764C20.4382 6.43355 20.55 6.19269 20.55 5.92508C20.55 5.6753 20.4584 5.46269 20.2752 5.28725C20.092 5.11181 19.8639 5.02409 19.5906 5.02409C19.2926 5.02409 19.0381 5.12222 18.8269 5.31847L17.8024 6.2819Z" fill="#FF9500"/>
<path d="M12.0723 15.5156C12.5084 15.5156 12.8795 15.3626 13.1855 15.0566C13.4915 14.7507 13.6445 14.3796 13.6445 13.9434C13.6445 13.6309 13.5632 13.3493 13.4004 13.0986C13.2376 12.848 13.0195 12.6576 12.7461 12.5273V7.67383C12.7461 7.48502 12.681 7.32552 12.5508 7.19531C12.4206 7.0651 12.2578 7 12.0625 7C11.8737 7 11.7142 7.0651 11.584 7.19531C11.4538 7.32552 11.3887 7.48502 11.3887 7.67383V12.5176C11.1217 12.6608 10.9069 12.8577 10.7441 13.1084C10.5814 13.3591 10.5 13.6374 10.5 13.9434C10.5 14.3731 10.6514 14.7425 10.9541 15.0518C11.2568 15.361 11.6296 15.5156 12.0723 15.5156Z" fill="black" fill-opacity="0.8"/>
</svg>
