<svg width="24" height="24" viewBox="0 0 24 24" fill="none" xmlns="http://www.w3.org/2000/svg">
<path d="M10.5344 22C11.2231 22 11.8969 21.9298 12.5561 21.7893C13.2152 21.6487 13.8465 21.4477 14.4499 21.1863C14.0957 20.7746 13.794 20.3007 13.5448 19.7648C13.0791 19.9477 12.5938 20.0883 12.0888 20.1863C11.5838 20.2844 11.0657 20.3334 10.5344 20.3334C9.37359 20.3334 8.28817 20.1177 7.27817 19.6863C6.26817 19.2549 5.38113 18.6585 4.61707 17.8971C3.85301 17.1356 3.25619 16.2516 2.82661 15.2451C2.39703 14.2386 2.18224 13.1569 2.18224 12C2.18224 10.8432 2.39703 9.76145 2.82661 8.75491C3.25619 7.74838 3.85137 6.86276 4.61215 6.09805C5.37293 5.33334 6.25832 4.73693 7.26833 4.30883C8.27833 3.88072 9.36376 3.66667 10.5246 3.66667C11.5805 3.66667 12.579 3.84804 13.5202 4.21078C14.4613 4.57353 15.3025 5.08007 16.0436 5.7304C16.7847 6.38073 17.3929 7.14217 17.8684 8.01472C18.3439 8.88727 18.6538 9.83335 18.7981 10.853C19.0408 10.8203 19.3228 10.8105 19.6441 10.8235C19.9655 10.8366 20.2508 10.8726 20.5 10.9314C20.3623 9.68302 20.0081 8.51962 19.4375 7.44119C18.8669 6.36275 18.1291 5.41504 17.2241 4.59805C16.319 3.78105 15.2959 3.14379 14.1547 2.68628C13.0136 2.22876 11.8035 2 10.5246 2C9.15389 2 7.86351 2.26144 6.65347 2.78431C5.44344 3.30719 4.37605 4.02942 3.45131 4.95099C2.52656 5.87255 1.80349 6.93628 1.2821 8.14217C0.760699 9.34805 0.5 10.634 0.5 12C0.5 13.366 0.762338 14.652 1.28701 15.8579C1.81169 17.0637 2.5364 18.1275 3.46114 19.0491C4.38589 19.9706 5.45328 20.6928 6.66331 21.2157C7.87334 21.7386 9.16372 22 10.5344 22ZM5.37949 13.0589H10.5246C10.7148 13.0589 10.8771 12.9935 11.0116 12.8628C11.146 12.7321 11.2133 12.5687 11.2133 12.3726V5.76472C11.2133 5.57517 11.146 5.41504 11.0116 5.28432C10.8771 5.1536 10.7148 5.08824 10.5246 5.08824C10.3344 5.08824 10.1737 5.1536 10.0426 5.28432C9.91139 5.41504 9.8458 5.57517 9.8458 5.76472V11.6961H5.37949C5.1893 11.6961 5.02862 11.7615 4.89744 11.8922C4.76627 12.0229 4.70069 12.183 4.70069 12.3726C4.70069 12.5687 4.76627 12.7321 4.89744 12.8628C5.02862 12.9935 5.1893 13.0589 5.37949 13.0589Z" fill="black" fill-opacity="0.8"/>
<path fill-rule="evenodd" clip-rule="evenodd" d="M20.9193 21.6062C20.3156 21.8687 19.6759 22 19 22C18.3177 22 17.6746 21.8704 17.0709 21.6112C16.4672 21.352 15.9358 20.9928 15.4764 20.5334C15.0171 20.0741 14.6562 19.5426 14.3938 18.9389C14.1313 18.3352 14 17.6889 14 16.9999C14 16.311 14.1313 15.6663 14.3938 15.0659C14.6562 14.4655 15.0171 13.934 15.4764 13.4714C15.9358 13.0088 16.4672 12.648 17.0709 12.3887C17.6746 12.1296 18.3177 12 19 12C19.689 12 20.3353 12.1296 20.939 12.3887C21.5426 12.648 22.0741 13.0072 22.5334 13.4666C22.9928 13.9259 23.352 14.4574 23.6113 15.061C23.8704 15.6647 24 16.311 24 16.9999C24 17.6823 23.8688 18.3254 23.6063 18.9291C23.3439 19.5328 22.9813 20.0642 22.5187 20.5236C22.0561 20.9829 21.523 21.3438 20.9193 21.6062ZM18.1438 19.8936C18.2356 19.9264 18.3209 19.9428 18.3997 19.9428C18.6358 19.9428 18.8097 19.8674 18.9213 19.7165L21.9725 15.4743C22.0184 15.4088 22.0529 15.3431 22.0758 15.2775C22.0988 15.2119 22.1102 15.1529 22.1102 15.1003C22.1102 14.9297 22.0479 14.7854 21.9233 14.6673C21.7986 14.5492 21.6542 14.4901 21.4902 14.4901C21.2736 14.4901 21.0997 14.582 20.9685 14.7657L18.3799 18.368L16.9823 16.8622C16.9298 16.8031 16.8642 16.7522 16.7855 16.7096C16.7067 16.667 16.6149 16.6457 16.5099 16.6457C16.3393 16.6457 16.1949 16.7047 16.0768 16.8228C15.9587 16.9409 15.8996 17.0885 15.8996 17.2657C15.8996 17.3379 15.9111 17.4117 15.9341 17.4872C15.9571 17.5626 15.985 17.62 16.0178 17.6594L17.9075 19.7362C17.9731 19.8084 18.0518 19.8609 18.1438 19.8936Z" fill="#007AFF"/>
</svg>
