<svg width="24" height="24" viewBox="0 0 24 24" fill="none" xmlns="http://www.w3.org/2000/svg">
<path d="M6.87255 13.0588C6.67647 13.0588 6.51307 12.9934 6.38234 12.8627C6.25163 12.732 6.18627 12.5686 6.18627 12.3725C6.18627 12.183 6.25163 12.0228 6.38234 11.8921C6.51307 11.7614 6.67647 11.6961 6.87255 11.6961H11.3137V5.7647C11.3137 5.57516 11.3791 5.41503 11.5098 5.28431C11.6405 5.15359 11.8006 5.08823 11.9902 5.08823C12.1862 5.08823 12.3496 5.15359 12.4804 5.28431C12.6111 5.41503 12.6765 5.57516 12.6765 5.7647V12.3725C12.6765 12.5686 12.6111 12.732 12.4804 12.8627C12.3496 12.9934 12.1862 13.0588 11.9902 13.0588H6.87255ZM12 22C13.366 22 14.652 21.7385 15.8578 21.2156C17.0637 20.6928 18.1274 19.9706 19.049 19.049C19.9706 18.1274 20.6928 17.0637 21.2156 15.8578C21.7385 14.652 22 13.366 22 12C22 10.634 21.7385 9.34803 21.2156 8.14214C20.6928 6.93627 19.9706 5.87255 19.049 4.95097C18.1274 4.02941 17.0621 3.30719 15.8529 2.78431C14.6438 2.26144 13.3562 2 11.9902 2C10.6242 2 9.33823 2.26144 8.13235 2.78431C6.92646 3.30719 5.86437 4.02941 4.94607 4.95097C4.02778 5.87255 3.30719 6.93627 2.78431 8.14214C2.26144 9.34803 2 10.634 2 12C2 13.366 2.26144 14.652 2.78431 15.8578C3.30719 17.0637 4.02941 18.1274 4.95097 19.049C5.87255 19.9706 6.93627 20.6928 8.14214 21.2156C9.34803 21.7385 10.634 22 12 22Z" fill="black" fill-opacity="0.8"/>
</svg>
