<svg width="24" height="24" viewBox="0 0 24 24" fill="none" xmlns="http://www.w3.org/2000/svg">
<path d="M10.5344 22C11.2231 22 11.8969 21.9298 12.5561 21.7893C13.2152 21.6487 13.8465 21.4477 14.4499 21.1863C14.0957 20.7746 13.794 20.3007 13.5448 19.7648C13.0791 19.9477 12.5938 20.0883 12.0888 20.1863C11.5838 20.2844 11.0657 20.3334 10.5344 20.3334C9.37359 20.3334 8.28817 20.1177 7.27817 19.6863C6.26817 19.2549 5.38113 18.6585 4.61707 17.8971C3.85301 17.1356 3.25619 16.2516 2.82661 15.2451C2.39703 14.2386 2.18224 13.1569 2.18224 12C2.18224 10.8432 2.39703 9.76145 2.82661 8.75491C3.25619 7.74838 3.85137 6.86276 4.61215 6.09805C5.37293 5.33334 6.25832 4.73693 7.26833 4.30883C8.27833 3.88072 9.36376 3.66667 10.5246 3.66667C11.5805 3.66667 12.579 3.84804 13.5202 4.21078C14.4613 4.57353 15.3025 5.08007 16.0436 5.7304C16.7847 6.38073 17.3929 7.14217 17.8684 8.01472C18.3439 8.88727 18.6538 9.83335 18.7981 10.853C19.0408 10.8203 19.3228 10.8105 19.6441 10.8235C19.9655 10.8366 20.2508 10.8726 20.5 10.9314C20.3623 9.68302 20.0081 8.51962 19.4375 7.44119C18.8669 6.36275 18.1291 5.41504 17.2241 4.59805C16.319 3.78105 15.2959 3.14379 14.1547 2.68628C13.0136 2.22876 11.8035 2 10.5246 2C9.15389 2 7.86351 2.26144 6.65347 2.78431C5.44344 3.30719 4.37605 4.02942 3.45131 4.95099C2.52656 5.87255 1.80349 6.93628 1.2821 8.14217C0.760699 9.34805 0.5 10.634 0.5 12C0.5 13.366 0.762338 14.652 1.28701 15.8579C1.81169 17.0637 2.5364 18.1275 3.46114 19.0491C4.38589 19.9706 5.45328 20.6928 6.66331 21.2157C7.87334 21.7386 9.16372 22 10.5344 22ZM5.37949 13.0589H10.5246C10.7148 13.0589 10.8771 12.9935 11.0116 12.8628C11.146 12.7321 11.2133 12.5687 11.2133 12.3726V5.76472C11.2133 5.57517 11.146 5.41504 11.0116 5.28432C10.8771 5.1536 10.7148 5.08824 10.5246 5.08824C10.3344 5.08824 10.1737 5.1536 10.0426 5.28432C9.91139 5.41504 9.8458 5.57517 9.8458 5.76472V11.6961H5.37949C5.1893 11.6961 5.02862 11.7615 4.89744 11.8922C4.76627 12.0229 4.70069 12.183 4.70069 12.3726C4.70069 12.5687 4.76627 12.7321 4.89744 12.8628C5.02862 12.9935 5.1893 13.0589 5.37949 13.0589Z" fill="black" fill-opacity="0.8"/>
<path fill-rule="evenodd" clip-rule="evenodd" d="M19 22C19.6759 22 20.3156 21.8687 20.9193 21.6062C21.523 21.3438 22.0561 20.9829 22.5187 20.5236C22.9813 20.0642 23.3439 19.5328 23.6063 18.9291C23.8688 18.3254 24 17.6823 24 16.9999C24 16.311 23.8704 15.6647 23.6113 15.061C23.352 14.4574 22.9928 13.9259 22.5334 13.4666C22.0741 13.0072 21.5426 12.648 20.939 12.3887C20.3353 12.1296 19.689 12 19 12C18.3177 12 17.6746 12.1296 17.0709 12.3887C16.4672 12.648 15.9358 13.0088 15.4764 13.4714C15.0171 13.934 14.6562 14.4655 14.3938 15.0659C14.1313 15.6663 14 16.311 14 16.9999C14 17.6889 14.1313 18.3352 14.3938 18.9389C14.6562 19.5426 15.0171 20.0741 15.4764 20.5334C15.9358 20.9928 16.4672 21.352 17.0709 21.6112C17.6746 21.8704 18.3177 22 19 22ZM19.0098 17.8465C18.8327 17.8465 18.69 17.7923 18.5817 17.684C18.4734 17.5757 18.416 17.4396 18.4094 17.2756L18.3307 14.4606C18.3242 14.2572 18.3833 14.0932 18.5079 13.9685C18.6325 13.8438 18.7999 13.7815 19.0098 13.7815C19.2133 13.7815 19.3773 13.8438 19.502 13.9685C19.6267 14.0932 19.6857 14.2572 19.6792 14.4606L19.6004 17.2756C19.5939 17.4396 19.5364 17.5757 19.4282 17.684C19.3199 17.7923 19.1804 17.8465 19.0098 17.8465ZM18.4193 19.9478C18.5833 20.1086 18.7769 20.189 19 20.189C19.2297 20.189 19.4265 20.1086 19.5906 19.9478C19.7546 19.787 19.8367 19.5919 19.8367 19.3622C19.8367 19.1391 19.7563 18.9438 19.5955 18.7765C19.4347 18.6092 19.2362 18.5256 19 18.5256C18.7769 18.5256 18.5833 18.6076 18.4193 18.7716C18.2553 18.9357 18.1733 19.1325 18.1733 19.3622C18.1733 19.5919 18.2553 19.787 18.4193 19.9478Z" fill="#FF3B30"/>
</svg>
