<svg width="24" height="24" viewBox="0 0 24 24" fill="none" xmlns="http://www.w3.org/2000/svg">
<path d="M10.5344 22C11.2296 22 11.9052 21.9298 12.561 21.7893C13.2169 21.6487 13.8465 21.4477 14.4499 21.1863C13.9776 20.6307 13.607 20.0082 13.3381 19.3186C13.0693 18.6291 12.9349 17.8987 12.9349 17.1275C12.9349 16.2582 13.1005 15.4428 13.4316 14.6814C13.7628 13.92 14.2203 13.2484 14.804 12.6667C15.3877 12.085 16.0616 11.6291 16.8257 11.299C17.5898 10.969 18.4079 10.8039 19.2802 10.8039C19.7064 10.8039 20.113 10.8464 20.5 10.9314C20.3623 9.68302 20.0081 8.51962 19.4375 7.44119C18.8669 6.36275 18.1291 5.41504 17.2241 4.59805C16.319 3.78105 15.2959 3.14379 14.1547 2.68628C13.0136 2.22876 11.8035 2 10.5246 2C9.15389 2 7.86351 2.26144 6.65347 2.78431C5.44344 3.30719 4.37605 4.02942 3.45131 4.95099C2.52656 5.87255 1.80349 6.93628 1.2821 8.14217C0.760699 9.34805 0.5 10.634 0.5 12C0.5 13.366 0.762338 14.652 1.28701 15.8579C1.81169 17.0637 2.5364 18.1275 3.46114 19.0491C4.38589 19.9706 5.45328 20.6928 6.66331 21.2157C7.87334 21.7386 9.16372 22 10.5344 22ZM5.37949 13.0589C5.1893 13.0589 5.02862 12.9935 4.89744 12.8628C4.76627 12.7321 4.70069 12.5687 4.70069 12.3726C4.70069 12.183 4.76627 12.0229 4.89744 11.8922C5.02862 11.7615 5.1893 11.6961 5.37949 11.6961H9.8458V5.76472C9.8458 5.57517 9.91139 5.41504 10.0426 5.28432C10.1737 5.1536 10.3344 5.08824 10.5246 5.08824C10.7148 5.08824 10.8771 5.1536 11.0116 5.28432C11.146 5.41504 11.2133 5.57517 11.2133 5.76472V12.3726C11.2133 12.5687 11.146 12.7321 11.0116 12.8628C10.8771 12.9935 10.7148 13.0589 10.5246 13.0589H5.37949Z" fill="black" fill-opacity="0.8"/>
<path fill-rule="evenodd" clip-rule="evenodd" d="M19 22C19.6759 22 20.3156 21.8687 20.9193 21.6062C21.523 21.3438 22.0561 20.9829 22.5187 20.5236C22.9813 20.0642 23.3439 19.5328 23.6063 18.9291C23.8688 18.3254 24 17.6823 24 16.9999C24 16.311 23.8704 15.6647 23.6113 15.061C23.352 14.4574 22.9928 13.9259 22.5334 13.4666C22.0741 13.0072 21.5426 12.648 20.939 12.3887C20.3353 12.1296 19.689 12 19 12C18.3177 12 17.6746 12.1296 17.0709 12.3887C16.4672 12.648 15.9358 13.0088 15.4764 13.4714C15.0171 13.934 14.6562 14.4655 14.3938 15.0659C14.1313 15.6663 14 16.311 14 16.9999C14 17.6889 14.1313 18.3352 14.3938 18.9389C14.6562 19.5426 15.0171 20.0741 15.4764 20.5334C15.9358 20.9928 16.4672 21.352 17.0709 21.6112C17.6746 21.8704 18.3177 22 19 22ZM19.0098 17.8465C18.8327 17.8465 18.69 17.7923 18.5817 17.684C18.4734 17.5757 18.416 17.4396 18.4094 17.2756L18.3307 14.4606C18.3242 14.2572 18.3833 14.0932 18.5079 13.9685C18.6325 13.8438 18.7999 13.7815 19.0098 13.7815C19.2133 13.7815 19.3773 13.8438 19.502 13.9685C19.6267 14.0932 19.6857 14.2572 19.6792 14.4606L19.6004 17.2756C19.5939 17.4396 19.5364 17.5757 19.4282 17.684C19.3199 17.7923 19.1804 17.8465 19.0098 17.8465ZM18.4193 19.9478C18.5833 20.1086 18.7769 20.189 19 20.189C19.2297 20.189 19.4265 20.1086 19.5906 19.9478C19.7546 19.787 19.8367 19.5919 19.8367 19.3622C19.8367 19.1391 19.7563 18.9438 19.5955 18.7765C19.4347 18.6092 19.2362 18.5256 19 18.5256C18.7769 18.5256 18.5833 18.6076 18.4193 18.7716C18.2553 18.9357 18.1733 19.1325 18.1733 19.3622C18.1733 19.5919 18.2553 19.787 18.4193 19.9478Z" fill="#FF3B30"/>
</svg>
