<svg width="24" height="24" viewBox="0 0 24 24" fill="none" xmlns="http://www.w3.org/2000/svg">
<path d="M2.11765 17.3262V20.2765C2.11765 21.4255 2.70915 22 3.89216 22H7.02941C5.95751 21.4807 5.01634 20.8348 4.20588 20.0624C3.39542 19.2899 2.69935 18.3778 2.11765 17.3262ZM21.9216 17.3262C21.3399 18.3778 20.6438 19.2899 19.8333 20.0624C19.0228 20.8348 18.0849 21.4807 17.0196 22H20.1471C21.3301 22 21.9216 21.4255 21.9216 20.2765V17.3262ZM8.63725 9.54627L11.549 12.4382C11.6863 12.5745 11.848 12.6427 12.0343 12.6427C12.2206 12.6427 12.3823 12.5745 12.5196 12.4382L16.9901 7.99807C17.1274 7.86175 17.1977 7.70108 17.201 7.51608C17.2042 7.33107 17.134 7.17366 16.9901 7.04383C16.8464 6.914 16.6846 6.84746 16.5048 6.84422C16.3251 6.84097 16.1667 6.90751 16.0294 7.04383L12.0294 11.0166L9.60783 8.59203C9.46404 8.45571 9.30064 8.38755 9.11763 8.38755C8.93463 8.38755 8.7745 8.45571 8.63725 8.59203C8.50653 8.72186 8.43954 8.87927 8.43626 9.06428C8.433 9.24928 8.49999 9.40995 8.63725 9.54627ZM12 21.8637C13.366 21.8637 14.652 21.6041 15.8578 21.0848C17.0637 20.5654 18.1274 19.8481 19.049 18.9329C19.9706 18.0176 20.6928 16.9611 21.2156 15.7635C21.7385 14.5658 22 13.2886 22 11.9319C22 10.5752 21.7385 9.29798 21.2156 8.10031C20.6928 6.90264 19.9706 5.84616 19.049 4.93088C18.1274 4.01558 17.0621 3.29828 15.8529 2.77897C14.6438 2.25966 13.3562 2 11.9902 2C10.6242 2 9.33823 2.25966 8.13235 2.77897C6.92646 3.29828 5.86437 4.01558 4.94607 4.93088C4.02778 5.84616 3.30719 6.90264 2.78431 8.10031C2.26144 9.29798 2 10.5752 2 11.9319C2 13.2886 2.26144 14.5658 2.78431 15.7635C3.30719 16.9611 4.02941 18.0176 4.95097 18.9329C5.87255 19.8481 6.93627 20.5654 8.14214 21.0848C9.34803 21.6041 10.634 21.8637 12 21.8637ZM12 20.2084C10.8431 20.2084 9.76143 19.9942 8.7549 19.5657C7.74836 19.1373 6.86437 18.545 6.10293 17.7887C5.3415 17.0325 4.74673 16.1545 4.31862 15.1548C3.89052 14.1552 3.67647 13.0808 3.67647 11.9319C3.67647 10.7829 3.89052 9.70856 4.31862 8.70888C4.74673 7.7092 5.33987 6.82961 6.09803 6.07011C6.8562 5.31062 7.73855 4.71828 8.74509 4.29309C9.75163 3.86791 10.8333 3.65531 11.9902 3.65531C13.1471 3.65531 14.2288 3.86791 15.2353 4.29309C16.2418 4.71828 17.1274 5.31062 17.8922 6.07011C18.6569 6.82961 19.2549 7.7092 19.6863 8.70888C20.1176 9.70856 20.3333 10.7829 20.3333 11.9319C20.3333 13.0808 20.1193 14.1552 19.6912 15.1548C19.263 16.1545 18.6683 17.0325 17.9068 17.7887C17.1454 18.545 16.2598 19.1373 15.2499 19.5657C14.2402 19.9942 13.1569 20.2084 12 20.2084Z" fill="black" fill-opacity="0.8"/>
</svg>
