<svg width="24" height="24" viewBox="0 0 24 24" fill="none" xmlns="http://www.w3.org/2000/svg">
<path d="M2.09804 17.3262V20.2765C2.09804 21.4255 2.68954 22 3.87254 22H7.00979C5.9379 21.4807 4.99673 20.8348 4.18627 20.0624C3.37581 19.2899 2.67974 18.3778 2.09804 17.3262ZM21.9019 17.3262C21.3202 18.3778 20.6242 19.2899 19.8137 20.0624C19.0032 20.8348 18.0653 21.4807 17 22H20.1274C21.3104 22 21.9019 21.4255 21.9019 20.2765V17.3262ZM8.49018 9.53654C8.3464 9.40021 8.27613 9.2363 8.2794 9.0448C8.28267 8.85331 8.35293 8.6894 8.49018 8.55308C8.63398 8.41028 8.80065 8.33887 8.99019 8.33887C9.17973 8.33887 9.34639 8.41028 9.49019 8.55308L11.9902 11.0458L16.1078 6.9562C16.2516 6.81338 16.4167 6.7436 16.6029 6.74685C16.7892 6.7501 16.9542 6.81988 17.0981 6.9562C17.2418 7.09251 17.3137 7.25804 17.3137 7.45278C17.3137 7.64753 17.2418 7.81306 17.0981 7.94938L12.5 12.5258C12.3562 12.6686 12.1879 12.74 11.9951 12.74C11.8023 12.74 11.634 12.6686 11.4902 12.5258L8.49018 9.53654ZM12 21.8637C13.366 21.8637 14.652 21.6041 15.8578 21.0848C17.0637 20.5654 18.1274 19.8481 19.049 18.9329C19.9706 18.0176 20.6928 16.9611 21.2156 15.7635C21.7385 14.5658 22 13.2886 22 11.9319C22 10.5752 21.7385 9.29798 21.2156 8.10031C20.6928 6.90264 19.9706 5.84616 19.049 4.93088C18.1274 4.01558 17.0621 3.29828 15.8529 2.77897C14.6438 2.25966 13.3562 2 11.9902 2C10.6242 2 9.33823 2.25966 8.13235 2.77897C6.92646 3.29828 5.86437 4.01558 4.94607 4.93088C4.02778 5.84616 3.30719 6.90264 2.78431 8.10031C2.26144 9.29798 2 10.5752 2 11.9319C2 13.2886 2.26144 14.5658 2.78431 15.7635C3.30719 16.9611 4.02941 18.0176 4.95097 18.9329C5.87255 19.8481 6.93627 20.5654 8.14214 21.0848C9.34803 21.6041 10.634 21.8637 12 21.8637Z" fill="black" fill-opacity="0.8"/>
</svg>
