<svg width="24" height="24" viewBox="0 0 24 24" fill="none" xmlns="http://www.w3.org/2000/svg">
<path d="M7.66895 21H16.3311C16.8498 21 17.2577 20.863 17.5546 20.5889C17.8515 20.3148 18 19.9168 18 19.3947V19.199C18 18.6117 17.8601 18.0212 17.5802 17.4274C17.3003 16.8336 16.9454 16.261 16.5154 15.7097C16.0853 15.1583 15.6399 14.6493 15.1792 14.1827C14.7184 13.7161 14.3106 13.3132 13.9556 12.9739C13.6075 12.6411 13.4403 12.3067 13.4539 11.9706C13.4676 11.6346 13.6348 11.3132 13.9556 11.0065C14.3106 10.6672 14.7184 10.2643 15.1792 9.79771C15.6399 9.33115 16.0853 8.82381 16.5154 8.27569C16.9454 7.72756 17.3003 7.1566 17.5802 6.56281C17.8601 5.96901 18 5.3752 18 4.7814V4.61501C18 4.08646 17.8515 3.68515 17.5546 3.41109C17.2577 3.13703 16.8498 3 16.3311 3H7.66895C7.157 3 6.75085 3.13703 6.45051 3.41109C6.15017 3.68515 6 4.08646 6 4.61501V4.7814C6 5.3752 6.13993 5.96901 6.4198 6.56281C6.69966 7.1566 7.05461 7.72756 7.48465 8.27569C7.91468 8.82381 8.36007 9.33115 8.82082 9.79771C9.28157 10.2643 9.68942 10.6672 10.0444 11.0065C10.372 11.3132 10.5427 11.6346 10.5563 11.9706C10.57 12.3067 10.3993 12.6411 10.0444 12.9739C9.68942 13.3132 9.28157 13.7161 8.82082 14.1827C8.36007 14.6493 7.91468 15.1583 7.48465 15.7097C7.05461 16.261 6.69966 16.8336 6.4198 17.4274C6.13993 18.0212 6 18.6117 6 19.199V19.3947C6 19.9168 6.15017 20.3148 6.45051 20.5889C6.75085 20.863 7.157 21 7.66895 21Z" fill="#5856D6"/>
<path d="M8.42074 20C8.20015 20 8.06573 19.9062 8.01747 19.7187C7.96922 19.5312 8.02092 19.3717 8.17258 19.2401L11.4711 16.2401C11.5332 16.1875 11.578 16.1414 11.6056 16.1019C11.6331 16.0624 11.6469 16.0032 11.6469 15.9244V11.5526C11.6469 11.3289 11.6176 11.148 11.559 11.0099C11.5004 10.8717 11.3815 10.7303 11.2023 10.5855C10.8576 10.3026 10.4664 9.97697 10.0287 9.60855C9.59092 9.24013 9.2135 8.89473 8.8964 8.57237C8.76542 8.44079 8.72578 8.3125 8.77748 8.1875C8.82919 8.0625 8.93432 8 9.09287 8H14.9041C15.0696 8 15.1781 8.0625 15.2298 8.1875C15.2815 8.3125 15.2385 8.44079 15.1006 8.57237C14.7835 8.89473 14.4078 9.24013 13.9735 9.60855C13.5392 9.97697 13.1463 10.3026 12.7947 10.5855C12.6224 10.7303 12.5069 10.8717 12.4483 11.0099C12.3897 11.148 12.3604 11.3289 12.3604 11.5526V15.9244C12.3604 16.0032 12.3725 16.0624 12.3966 16.1019C12.4207 16.1414 12.4638 16.1875 12.5258 16.2401L15.8244 19.2401C15.9761 19.3717 16.0295 19.5312 15.9847 19.7187C15.9399 19.9062 15.8037 20 15.5762 20H8.42074Z" fill="white"/>
</svg>
