<svg width="24" height="24" viewBox="0 0 24 24" fill="none" xmlns="http://www.w3.org/2000/svg">
<path d="M12 22C13.366 22 14.652 21.7385 15.8578 21.2156C17.0637 20.6928 18.1274 19.9706 19.049 19.049C19.9706 18.1274 20.6928 17.0637 21.2156 15.8578C21.7385 14.652 22 13.366 22 12C22 10.634 21.7385 9.34803 21.2156 8.14214C20.6928 6.93627 19.9722 5.87255 19.0539 4.95097C18.1356 4.02941 17.0735 3.30719 15.8677 2.78431C14.6617 2.26144 13.3758 2 12.0098 2C11.7484 2 11.5539 2.07353 11.4265 2.22059C11.299 2.36765 11.2353 2.56863 11.2353 2.82353V6.61764C11.2353 6.83333 11.3023 7.0147 11.4363 7.16176C11.5702 7.30882 11.7418 7.38235 11.951 7.38235C12.1667 7.38235 12.3415 7.30882 12.4755 7.16176C12.6095 7.0147 12.6765 6.83333 12.6765 6.61764V2.80392L11.9902 3.66667C13.1536 3.66667 14.2386 3.88072 15.2451 4.30882C16.2517 4.73692 17.1356 5.33169 17.8971 6.09313C18.6585 6.85457 19.2533 7.74019 19.6813 8.74999C20.1095 9.75979 20.3236 10.8431 20.3236 12C20.3236 13.1569 20.1095 14.2386 19.6813 15.2451C19.2533 16.2517 18.6585 17.1356 17.8971 17.8971C17.1356 18.6585 16.2517 19.2549 15.2451 19.6863C14.2386 20.1176 13.1569 20.3333 12 20.3333C10.8431 20.3333 9.75979 20.1176 8.74999 19.6863C7.74019 19.2549 6.85457 18.6585 6.09313 17.8971C5.33169 17.1356 4.73692 16.2517 4.30882 15.2451C3.88072 14.2386 3.66667 13.1569 3.66667 12C3.6732 10.9673 3.84967 9.99182 4.19608 9.07352C4.54248 8.15522 5.02614 7.3366 5.64705 6.61764C5.79085 6.4281 5.86601 6.22549 5.87254 6.0098C5.87908 5.79412 5.80065 5.60131 5.63725 5.43137C5.47386 5.26143 5.27287 5.18464 5.03431 5.20098C4.79575 5.21732 4.58823 5.33333 4.41176 5.54902C3.66666 6.42483 3.07843 7.41339 2.64706 8.5147C2.21569 9.61601 2 10.7778 2 12C2 13.366 2.26144 14.652 2.78431 15.8578C3.30719 17.0637 4.02941 18.1274 4.95097 19.049C5.87255 19.9706 6.93627 20.6928 8.14214 21.2156C9.34803 21.7385 10.634 22 12 22Z" fill="#FF9500"/>
<path d="M13.4903 13.501C13.7608 13.2172 13.9231 12.9149 13.9772 12.5941C14.0313 12.2732 13.989 11.9607 13.8504 11.6568C13.7118 11.3528 13.4835 11.0893 13.1656 10.8664L7.79933 7.11714C7.63026 7.0023 7.47133 6.9719 7.32255 7.02594C7.17376 7.07998 7.07401 7.17963 7.02329 7.32487C6.97257 7.47011 7.00469 7.62717 7.11966 7.79605L10.8629 13.1565C11.0861 13.4807 11.3498 13.7121 11.6542 13.8506C11.9585 13.9891 12.273 14.0313 12.5976 13.9773C12.9222 13.9232 13.2198 13.7644 13.4903 13.501Z" fill="black" fill-opacity="0.8"/>
</svg>
