<svg width="24" height="24" viewBox="0 0 24 24" fill="none" xmlns="http://www.w3.org/2000/svg">
<path d="M10.9694 21C11.3163 21 11.6021 20.886 11.8265 20.6581C12.051 20.4301 12.1633 20.1401 12.1633 19.7879V15.8304H12.4592C13.7789 15.8304 14.9455 15.9616 15.9592 16.2241C16.9728 16.4865 17.8674 16.9372 18.6429 17.576C19.4183 18.2148 20.102 19.1006 20.6939 20.2333C20.8708 20.5648 21.0697 20.7755 21.2908 20.8653C21.5119 20.9551 21.7313 21 21.9489 21C22.2211 21 22.4643 20.8808 22.6786 20.6425C22.8929 20.4042 23 20.0607 23 19.6118C23 17.6986 22.7942 15.9772 22.3827 14.4474C21.9711 12.9175 21.3384 11.6105 20.4847 10.5262C19.631 9.44182 18.5391 8.61304 17.2092 8.03979C15.8792 7.46654 14.2959 7.17992 12.4592 7.17992H12.1633V3.2639C12.1633 2.91857 12.051 2.62159 11.8265 2.37295C11.6021 2.12432 11.3095 2 10.949 2C10.6973 2 10.4728 2.05698 10.2755 2.17094C10.0782 2.2849 9.84353 2.4731 9.57142 2.73555L1.52041 10.3811C1.32313 10.5676 1.18707 10.7575 1.11224 10.9509C1.03741 11.1443 1 11.3273 1 11.5C1 11.6657 1.03741 11.8453 1.11224 12.0387C1.18707 12.2321 1.32313 12.422 1.52041 12.6085L9.57142 20.3266C9.81632 20.5614 10.0476 20.7323 10.2653 20.8394C10.483 20.9465 10.7177 21 10.9694 21ZM10.3878 18.7725C10.3265 18.7725 10.2687 18.7415 10.2143 18.6794L2.93878 11.6968C2.89796 11.6554 2.86905 11.6191 2.85204 11.588C2.83503 11.557 2.82653 11.5276 2.82653 11.5C2.82653 11.4378 2.86395 11.3722 2.93878 11.3031L10.2041 4.22737C10.2313 4.20665 10.2585 4.18765 10.2857 4.17039C10.3129 4.15312 10.3435 4.14448 10.3775 4.14448C10.4728 4.14448 10.5204 4.19283 10.5204 4.28952V8.40239C10.5204 8.6303 10.6361 8.74426 10.8673 8.74426H12.2347C13.6361 8.74426 14.8504 8.92556 15.8776 9.28815C16.9048 9.65074 17.7721 10.1515 18.4796 10.7903C19.187 11.4292 19.7584 12.1665 20.1938 13.0022C20.6292 13.8378 20.9541 14.7305 21.1684 15.6802C21.3827 16.6298 21.5102 17.5916 21.551 18.5654C21.551 18.6414 21.5238 18.6794 21.4693 18.6794C21.4489 18.6794 21.4319 18.6707 21.4183 18.6534C21.4048 18.6361 21.3912 18.6103 21.3776 18.5758C20.9762 17.7124 20.3673 16.9562 19.551 16.3069C18.7347 15.6577 17.716 15.1553 16.4949 14.7996C15.2738 14.4439 13.8538 14.2661 12.2347 14.2661H10.8673C10.6361 14.2661 10.5204 14.38 10.5204 14.608V18.6172C10.5204 18.7208 10.4762 18.7725 10.3878 18.7725Z" fill="black" fill-opacity="0.8"/>
</svg>
