<svg width="24" height="24" viewBox="0 0 24 24" fill="none" xmlns="http://www.w3.org/2000/svg">
<path d="M10.9694 21C11.3163 21 11.6021 20.886 11.8265 20.6581C12.051 20.4301 12.1633 20.1401 12.1633 19.7879V15.8304H12.4592C13.7789 15.8304 14.9455 15.9616 15.9592 16.2241C16.9728 16.4865 17.8674 16.9372 18.6429 17.576C19.4183 18.2148 20.102 19.1006 20.6939 20.2333C20.8708 20.5648 21.0697 20.7755 21.2908 20.8653C21.5119 20.9551 21.7313 21 21.9489 21C22.2211 21 22.4643 20.8808 22.6786 20.6425C22.8929 20.4042 23 20.0607 23 19.6118C23 17.6986 22.7942 15.9772 22.3827 14.4474C21.9711 12.9175 21.3384 11.6105 20.4847 10.5262C19.631 9.44182 18.5391 8.61304 17.2092 8.03979C15.8792 7.46654 14.2959 7.17992 12.4592 7.17992H12.1633V3.2639C12.1633 2.91857 12.051 2.62159 11.8265 2.37295C11.6021 2.12432 11.3095 2 10.949 2C10.6973 2 10.4728 2.05698 10.2755 2.17094C10.0782 2.2849 9.84353 2.4731 9.57142 2.73555L1.52041 10.3811C1.32313 10.5676 1.18707 10.7575 1.11224 10.9509C1.03741 11.1443 1 11.3273 1 11.5C1 11.6657 1.03741 11.8453 1.11224 12.0387C1.18707 12.2321 1.32313 12.422 1.52041 12.6085L9.57142 20.3266C9.81632 20.5614 10.0476 20.7323 10.2653 20.8394C10.483 20.9465 10.7177 21 10.9694 21Z" fill="black" fill-opacity="0.8"/>
</svg>
