<svg width="24" height="24" viewBox="0 0 24 24" fill="none" xmlns="http://www.w3.org/2000/svg">
<path d="M2 12C2 12.2674 2.11129 12.5031 2.33387 12.7071L9.48518 19.7044C9.6934 19.9015 9.92675 20 10.1852 20C10.4509 20 10.6753 19.9138 10.8584 19.7414C11.0414 19.569 11.133 19.3527 11.133 19.0923C11.133 18.9657 11.1097 18.8443 11.063 18.7282C11.0163 18.6121 10.9499 18.5119 10.8637 18.4274L8.45125 16.021L4.18632 12.2111L3.96014 12.7282L7.4281 12.9393H21.0522C21.3322 12.9393 21.5601 12.8514 21.7361 12.6755C21.912 12.4995 22 12.2744 22 12C22 11.7256 21.912 11.5004 21.7361 11.3245C21.5601 11.1486 21.3322 11.0607 21.0522 11.0607H7.4281L3.96014 11.2718L4.18632 11.7995L8.45125 7.97889L10.8637 5.57256C10.9499 5.48813 11.0163 5.38786 11.063 5.27177C11.1097 5.15567 11.133 5.0343 11.133 4.90765C11.133 4.64732 11.0414 4.43096 10.8584 4.25858C10.6753 4.08619 10.4509 4 10.1852 4C10.056 4 9.93213 4.02463 9.81366 4.07388C9.69519 4.12313 9.57852 4.20405 9.46364 4.31662L2.33387 11.2929C2.11129 11.4969 2 11.7326 2 12Z" fill="black" fill-opacity="0.8"/>
</svg>
