<svg width="24" height="24" viewBox="0 0 24 24" fill="none" xmlns="http://www.w3.org/2000/svg">
<path d="M12.0046 17C12.1213 17 12.2333 16.9744 12.3408 16.9233C12.4483 16.8722 12.5419 16.7989 12.6218 16.7035L19.7513 8.59509C19.9171 8.41105 20 8.19291 20 7.9407C20 7.76346 19.9632 7.60327 19.8895 7.46012C19.8158 7.31697 19.716 7.2045 19.5901 7.1227C19.4642 7.0409 19.3214 7 19.1617 7C18.9346 7 18.735 7.08862 18.5631 7.26585L11.5072 15.272H12.4928L5.43696 7.26585C5.27116 7.08862 5.07158 7 4.83823 7C4.67856 7 4.53579 7.0409 4.4099 7.1227C4.28401 7.2045 4.18423 7.31697 4.11054 7.46012C4.03685 7.60327 4 7.76346 4 7.9407C4 8.07021 4.02149 8.1912 4.06448 8.30368C4.10747 8.41616 4.16887 8.5167 4.2487 8.60531L11.3782 16.7035C11.5625 16.9012 11.7712 17 12.0046 17Z" fill="black" fill-opacity="0.8"/>
</svg>
