<svg width="24" height="24" viewBox="0 0 24 24" fill="none" xmlns="http://www.w3.org/2000/svg">
<path d="M12.7183 22.2103C12.8068 22.4489 12.9457 22.6401 13.1348 22.7841C13.3239 22.928 13.5272 23 13.7445 23C14.1066 23 14.4064 22.8807 14.6439 22.6422C14.8813 22.4036 15 22.1034 15 21.7414C15 21.5523 14.9618 21.3507 14.8853 21.1369C14.8088 20.923 14.7384 20.7338 14.674 20.5693L11.0402 11.1178V12.8699L14.674 3.41839C14.7384 3.26211 14.8088 3.07291 14.8853 2.85081C14.9618 2.62871 15 2.42718 15 2.24621C15 1.88428 14.8813 1.58609 14.6439 1.35165C14.4064 1.11722 14.1066 1 13.7445 1C13.5272 1 13.3239 1.06992 13.1348 1.20976C12.9457 1.3496 12.8068 1.53879 12.7183 1.77734L9.4829 10.1924C9.37022 10.4721 9.26157 10.7744 9.15694 11.0993C9.05231 11.4242 9 11.7224 9 11.9938C9 12.2653 9.05231 12.5614 9.15694 12.8822C9.26157 13.203 9.37022 13.5074 9.4829 13.7954L12.7183 22.2103Z" fill="black" fill-opacity="0.8"/>
</svg>
