<svg width="24" height="24" viewBox="0 0 24 24" fill="none" xmlns="http://www.w3.org/2000/svg">
<path d="M11.2817 22.2103L14.5171 13.7954C14.6217 13.5074 14.7284 13.203 14.837 12.8822C14.9457 12.5614 15 12.2653 15 11.9938C15 11.7224 14.9457 11.4242 14.837 11.0993C14.7284 10.7744 14.6217 10.4721 14.5171 10.1924L11.2817 1.77734C11.1932 1.53879 11.0523 1.3496 10.8592 1.20976C10.666 1.06992 10.4608 1 10.2435 1C9.88934 1 9.59356 1.11722 9.35614 1.35165C9.11871 1.58609 9 1.88428 9 2.24621C9 2.42718 9.03823 2.62871 9.11469 2.85081C9.19115 3.07291 9.25755 3.26211 9.31388 3.41839L12.9477 12.8699V11.1178L9.31388 20.5693C9.25755 20.7338 9.19115 20.923 9.11469 21.1369C9.03823 21.3507 9 21.5523 9 21.7414C9 22.1034 9.11871 22.4036 9.35614 22.6422C9.59356 22.8807 9.88934 23 10.2435 23C10.4608 23 10.666 22.928 10.8592 22.7841C11.0523 22.6401 11.1932 22.4489 11.2817 22.2103Z" fill="black" fill-opacity="0.8"/>
</svg>
