<svg width="24" height="24" viewBox="0 0 24 24" fill="none" xmlns="http://www.w3.org/2000/svg">
<path d="M1.77734 12.7137C1.53879 12.8024 1.3496 12.9415 1.20976 13.131C1.06992 13.3206 1 13.5242 1 13.7419C1 14.1048 1.11927 14.4052 1.35782 14.6431C1.59637 14.881 1.8925 15 2.24621 15C2.43541 15 2.639 14.9617 2.85699 14.8851C3.07497 14.8085 3.26211 14.7379 3.41839 14.6734L12.8699 11.0444H11.1301L20.5816 14.6734C20.7379 14.7379 20.9271 14.8085 21.1492 14.8851C21.3713 14.9617 21.5728 15 21.7538 15C22.1075 15 22.4036 14.881 22.6422 14.6431C22.8807 14.4052 23 14.1048 23 13.7419C23 13.5242 22.9301 13.3206 22.7903 13.131C22.6504 12.9415 22.4612 12.8024 22.2227 12.7137L13.8076 9.48387C13.5197 9.37903 13.2154 9.27218 12.8946 9.16331C12.5738 9.05444 12.2776 9 12.0062 9C11.7265 9 11.4263 9.05444 11.1055 9.16331C10.7846 9.27218 10.4844 9.37903 10.2047 9.48387L1.77734 12.7137Z" fill="black" fill-opacity="0.8"/>
</svg>
