<svg width="24" height="24" viewBox="0 0 24 24" fill="none" xmlns="http://www.w3.org/2000/svg">
<path d="M17 12C17 11.8833 16.9744 11.7742 16.9233 11.6728C16.8722 11.5714 16.7989 11.4777 16.7035 11.3917L8.60531 4.23963C8.42127 4.07988 8.19632 4 7.93047 4C7.76005 4 7.60327 4.03687 7.46012 4.1106C7.31697 4.18433 7.2045 4.28418 7.1227 4.41014C7.0409 4.5361 7 4.67896 7 4.83871C7 5.06605 7.08862 5.26575 7.26585 5.43779L14.7096 12L7.26585 18.5622C7.08862 18.7343 7 18.934 7 19.1614C7 19.3211 7.0409 19.464 7.1227 19.5899C7.2045 19.7159 7.31697 19.8157 7.46012 19.8894C7.60327 19.9631 7.76005 20 7.93047 20C8.19632 20 8.42127 19.9171 8.60531 19.7512L16.7035 12.6083C16.7989 12.5223 16.8722 12.4286 16.9233 12.3272C16.9744 12.2258 17 12.1168 17 12Z" fill="black" fill-opacity="0.8"/>
</svg>
