<svg width="24" height="24" viewBox="0 0 24 24" fill="none" xmlns="http://www.w3.org/2000/svg">
<path d="M12 3C11.8821 3 11.7659 3.02373 11.6515 3.07119C11.5371 3.11864 11.4174 3.19322 11.2926 3.29491L4.28088 8.85761C4.09363 9.01355 4 9.23727 4 9.5288C4 9.70507 4.04161 9.8627 4.12484 10.0017C4.20806 10.1407 4.32076 10.2508 4.46294 10.3322C4.60512 10.4135 4.76637 10.4542 4.94669 10.4542C5.06459 10.4542 5.17903 10.4339 5.28999 10.3932C5.40096 10.3525 5.51886 10.2847 5.6437 10.1898L12 5.12542L18.3564 10.1898C18.4743 10.2847 18.5904 10.3525 18.7048 10.3932C18.8192 10.4339 18.9319 10.4542 19.043 10.4542C19.2302 10.4542 19.395 10.4135 19.5371 10.3322C19.6793 10.2508 19.792 10.1407 19.8751 10.0017C19.9584 9.8627 20 9.70507 20 9.5288C20 9.23727 19.9064 9.01355 19.7192 8.85761L12.7074 3.28475C12.5826 3.18983 12.463 3.11864 12.3485 3.07119C12.2341 3.02373 12.1179 3 12 3ZM12 21C12.1179 21 12.2341 20.9763 12.3485 20.9288C12.463 20.8813 12.5826 20.8101 12.7074 20.7152L19.7192 15.1424C19.9064 14.9797 20 14.7559 20 14.4711C20 14.2949 19.9584 14.1355 19.8751 13.9932C19.792 13.8508 19.6793 13.739 19.5371 13.6576C19.395 13.5763 19.2302 13.5356 19.043 13.5356C18.9319 13.5356 18.8192 13.5576 18.7048 13.6017C18.5904 13.6457 18.4743 13.7152 18.3564 13.8102L12 18.8745L5.6437 13.8102C5.51886 13.7152 5.40096 13.6457 5.28999 13.6017C5.17903 13.5576 5.06459 13.5356 4.94669 13.5356C4.76637 13.5356 4.60512 13.5763 4.46294 13.6576C4.32076 13.739 4.20806 13.8508 4.12484 13.9932C4.04161 14.1355 4 14.2949 4 14.4711C4 14.7559 4.09363 14.9797 4.28088 15.1424L11.2926 20.7051C11.4174 20.8067 11.5371 20.8813 11.6515 20.9288C11.7659 20.9763 11.8821 21 12 21Z" fill="black" fill-opacity="0.8"/>
</svg>
