<svg width="24" height="24" viewBox="0 0 24 24" fill="none" xmlns="http://www.w3.org/2000/svg">
<path d="M4.2487 15.4049C4.16887 15.4867 4.10747 15.5855 4.06448 15.7014C4.02149 15.8173 4 15.94 4 16.0695C4 16.2468 4.03685 16.4053 4.11054 16.545C4.18423 16.6847 4.28401 16.7955 4.4099 16.8773C4.53579 16.9591 4.67856 17 4.83823 17C5.09 17 5.28958 16.9114 5.43696 16.7342L11.9713 9.26413L18.5631 16.7342C18.7166 16.9114 18.9161 17 19.1617 17C19.3214 17 19.4642 16.9591 19.5901 16.8773C19.716 16.7955 19.8158 16.6847 19.8895 16.545C19.9632 16.4053 20 16.2468 20 16.0695C20 15.8037 19.9171 15.5821 19.7513 15.4049L12.6218 7.30675C12.5419 7.21132 12.4483 7.13633 12.3408 7.0818C12.2333 7.02727 12.1213 7 12.0046 7C11.759 7 11.5502 7.10225 11.3782 7.30675L4.2487 15.4049Z" fill="black" fill-opacity="0.8"/>
</svg>
