<svg width="24" height="24" viewBox="0 0 24 24" fill="none" xmlns="http://www.w3.org/2000/svg">
<path d="M7 12C7 12.1168 7.02386 12.2258 7.07157 12.3272C7.11929 12.4286 7.19087 12.5223 7.2863 12.6083L15.3947 19.7512C15.5787 19.9171 15.8003 20 16.0593 20C16.2365 20 16.395 19.9631 16.5348 19.8894C16.6745 19.8157 16.787 19.7159 16.8722 19.5899C16.9574 19.464 17 19.3211 17 19.1614C17 18.934 16.908 18.7343 16.7239 18.5622L9.28016 12L16.7239 5.43779C16.908 5.26575 17 5.06605 17 4.83871C17 4.67896 16.9574 4.5361 16.8722 4.41014C16.787 4.28418 16.6745 4.18433 16.5348 4.1106C16.395 4.03687 16.2365 4 16.0593 4C15.8003 4 15.5787 4.07988 15.3947 4.23963L7.2863 11.3917C7.19087 11.4777 7.11929 11.5714 7.07157 11.6728C7.02386 11.7742 7 11.8833 7 12Z" fill="black" fill-opacity="0.8"/>
</svg>
