<svg width="24" height="24" viewBox="0 0 24 24" fill="none" xmlns="http://www.w3.org/2000/svg">
<path d="M1.77734 11.2863L10.2047 14.5161C10.4844 14.621 10.7846 14.7278 11.1055 14.8367C11.4263 14.9456 11.7265 15 12.0062 15C12.2776 15 12.5738 14.9456 12.8946 14.8367C13.2154 14.7278 13.5197 14.621 13.8076 14.5161L22.2227 11.2863C22.4612 11.1895 22.6504 11.0484 22.7903 10.8629C22.9301 10.6774 23 10.4718 23 10.246C23 9.89113 22.8807 9.59476 22.6422 9.35685C22.4036 9.11895 22.1075 9 21.7538 9C21.5728 9 21.3713 9.03831 21.1492 9.11492C20.9271 9.19153 20.7379 9.25806 20.5816 9.31452L11.1301 12.9556H12.8699L3.41839 9.31452C3.26211 9.25806 3.07497 9.19153 2.85699 9.11492C2.639 9.03831 2.43541 9 2.24621 9C1.8925 9 1.59637 9.11895 1.35782 9.35685C1.11927 9.59476 1 9.89113 1 10.246C1 10.4718 1.06992 10.6774 1.20976 10.8629C1.3496 11.0484 1.53879 11.1895 1.77734 11.2863Z" fill="black" fill-opacity="0.8"/>
</svg>
