<svg width="24" height="24" viewBox="0 0 24 24" fill="none" xmlns="http://www.w3.org/2000/svg">
<path d="M3 13.9568C3 15.2171 3.2326 16.3939 3.69779 17.4872C4.16298 18.5806 4.80645 19.5411 5.62818 20.3687C6.44991 21.1965 7.40576 21.8419 8.49574 22.3051C9.58572 22.7684 10.7555 23 12.0051 23C13.2478 23 14.4142 22.7684 15.5042 22.3051C16.5942 21.8419 17.5501 21.1965 18.3718 20.3687C19.1935 19.5411 19.837 18.5806 20.3022 17.4872C20.7674 16.3939 21 15.2171 21 13.9568C21 12.7102 20.7674 11.5402 20.3022 10.4468C19.837 9.35346 19.1935 8.39464 18.3718 7.57037C17.5501 6.74609 16.5942 6.10063 15.5042 5.634C14.4142 5.16736 13.2478 4.93405 12.0051 4.93405C11.6927 4.93405 11.3871 4.94937 11.0883 4.98003C10.7895 5.01068 10.5076 5.05326 10.2428 5.10775L12.9524 2.42034C13.0271 2.33859 13.0832 2.24663 13.1205 2.14445C13.1579 2.04227 13.1765 1.94008 13.1765 1.8379C13.1765 1.59947 13.1001 1.40022 12.9473 1.24013C12.7945 1.08004 12.6061 1 12.382 1C12.1307 1 11.9304 1.08175 11.781 1.24524L7.58403 5.51649C7.41425 5.6936 7.32936 5.89797 7.32936 6.12958C7.32936 6.24539 7.34973 6.35439 7.39048 6.45657C7.43123 6.55875 7.49575 6.65412 7.58403 6.74268L11.781 10.9731C11.9304 11.1297 12.1273 11.2081 12.3718 11.2081C12.6027 11.2081 12.7945 11.1297 12.9473 10.9731C13.1001 10.8164 13.1765 10.6222 13.1765 10.3906C13.1765 10.2816 13.1579 10.1777 13.1205 10.079C13.0832 9.98018 13.0237 9.88992 12.9423 9.80817L9.9066 6.78355C10.2054 6.71543 10.5314 6.66434 10.8845 6.63028C11.2377 6.59622 11.6112 6.57919 12.0051 6.57919C13.0238 6.57919 13.978 6.76993 14.8676 7.15142C15.7572 7.5329 16.5381 8.06084 17.2104 8.73525C17.8828 9.40966 18.4091 10.1931 18.7894 11.0855C19.1697 11.9779 19.3599 12.935 19.3599 13.9568C19.3599 14.9854 19.1697 15.9476 18.7894 16.8435C18.4091 17.7393 17.8828 18.5261 17.2104 19.2039C16.5381 19.8817 15.7572 20.4096 14.8676 20.7877C13.978 21.1658 13.0238 21.3548 12.0051 21.3548C10.9796 21.3548 10.0221 21.1658 9.13242 20.7877C8.24277 20.4096 7.46179 19.8817 6.78946 19.2039C6.11714 18.5261 5.59083 17.7393 5.21052 16.8435C4.83022 15.9476 4.64007 14.9854 4.64007 13.9568C4.64007 13.7115 4.56876 13.5089 4.42615 13.3489C4.28353 13.1888 4.08998 13.1087 3.8455 13.1087C3.60102 13.1087 3.39898 13.1888 3.23939 13.3489C3.0798 13.5089 3 13.7115 3 13.9568Z" fill="black" fill-opacity="0.8"/>
</svg>
