<svg width="24" height="24" viewBox="0 0 24 24" fill="none" xmlns="http://www.w3.org/2000/svg">
<path d="M12 2C11.7256 2 11.5004 2.08647 11.3245 2.2594C11.1486 2.43233 11.0607 2.65643 11.0607 2.93171V16.8756L11.1662 20.0307L11.7572 19.8189L7.97889 15.658L5.57256 13.2864C5.48813 13.2017 5.38786 13.1382 5.27177 13.0958C5.15567 13.0535 5.0343 13.0323 4.90765 13.0323C4.64732 13.0323 4.43096 13.1205 4.25858 13.2969C4.08619 13.4734 4 13.6923 4 13.9534C4 14.2075 4.0985 14.4369 4.29551 14.6416L11.2929 21.6823C11.3984 21.7882 11.511 21.8676 11.6306 21.9205C11.7502 21.9735 11.8733 22 12 22C12.1337 22 12.2603 21.9735 12.3799 21.9205C12.4996 21.8676 12.6086 21.7882 12.7071 21.6823L19.715 14.6416C19.905 14.4369 20 14.2075 20 13.9534C20 13.6923 19.9138 13.4734 19.7414 13.2969C19.569 13.1205 19.3527 13.0323 19.0923 13.0323C18.9657 13.0323 18.8443 13.0535 18.7282 13.0958C18.6121 13.1382 18.5119 13.2017 18.4274 13.2864L16.021 15.658L12.2322 19.8189L12.8338 20.0307L12.9393 16.8756V2.93171C12.9393 2.65643 12.8514 2.43233 12.6755 2.2594C12.4995 2.08647 12.2744 2 12 2Z" fill="black" fill-opacity="0.8"/>
</svg>
