<svg width="24" height="24" viewBox="0 0 24 24" fill="none" xmlns="http://www.w3.org/2000/svg">
<path d="M20 8.05419C20 7.75789 19.9007 7.51219 19.7022 7.31707C19.5035 7.12195 19.2742 7.02439 19.0143 7.02439C18.747 7.02439 18.5177 7.12375 18.3263 7.32248C18.1349 7.52122 18.0392 7.75067 18.0392 8.01083V12.0108L18.2343 17.0731L16.4469 15.0569L5.68992 4.29268C5.49493 4.09756 5.26744 4 5.00745 4C4.8269 4 4.6608 4.04878 4.50914 4.14634C4.35748 4.2439 4.23471 4.37037 4.14083 4.52574C4.04694 4.68112 4 4.84553 4 5.01897C4 5.2719 4.10111 5.49954 4.30332 5.70189L15.0386 16.4552L17.0535 18.2331L11.7671 18.0596H7.9973C7.74454 18.0596 7.51885 18.1553 7.32025 18.3468C7.12165 18.5384 7.02235 18.7642 7.02235 19.0244C7.02235 19.2845 7.11623 19.5121 7.30401 19.7073C7.49177 19.9024 7.73731 20 8.04063 20H18.9384C19.2634 20 19.5198 19.9042 19.7076 19.7127C19.8954 19.5212 19.9892 19.2701 19.9892 18.9594L20 8.05419Z" fill="black" fill-opacity="0.8"/>
</svg>
