<svg width="24" height="24" viewBox="0 0 24 24" fill="none" xmlns="http://www.w3.org/2000/svg">
<rect width="24" height="24" fill="white"/>
<path d="M12.0053 3C11.7321 3 11.5063 3.08508 11.3277 3.25525C11.1491 3.42541 11.0598 3.64322 11.0598 3.90868V14.2206L11.1438 16.4157L7.98163 13.0465L5.62837 10.7901C5.54432 10.7084 5.44277 10.6455 5.32371 10.6012C5.20464 10.557 5.08208 10.5349 4.95601 10.5349C4.68987 10.5349 4.471 10.6217 4.29941 10.7952C4.12782 10.9688 4.04202 11.1815 4.04202 11.4334C4.04202 11.5559 4.06829 11.6733 4.12081 11.7856C4.17334 11.8979 4.24863 12.0085 4.34669 12.1174L11.3014 18.8763C11.3995 18.9784 11.508 19.0567 11.6271 19.1112C11.7461 19.1657 11.8722 19.1929 12.0053 19.1929C12.1313 19.1929 12.2557 19.1657 12.3782 19.1112C12.5008 19.0567 12.6111 18.9784 12.7092 18.8763L19.6534 12.1174C19.7585 12.0085 19.8372 11.8979 19.8897 11.7856C19.9423 11.6733 19.9686 11.5559 19.9686 11.4334C19.9686 11.1815 19.8828 10.9688 19.7112 10.7952C19.5395 10.6217 19.3206 10.5349 19.0545 10.5349C18.9285 10.5349 18.8059 10.557 18.6868 10.6012C18.5677 10.6455 18.4662 10.7084 18.3821 10.7901L16.0289 13.0465L12.8667 16.4056L12.9403 14.2206V3.90868C12.9403 3.64322 12.8527 3.42541 12.6776 3.25525C12.5025 3.08508 12.2784 3 12.0053 3ZM4.90348 19.1725C4.63734 19.1725 4.42022 19.2575 4.25213 19.4277C4.08404 19.5978 4 19.8156 4 20.0811C4 20.3466 4.08404 20.5661 4.25213 20.7397C4.42022 20.9132 4.63734 21 4.90348 21H19.0756C19.3487 21 19.5711 20.9132 19.7427 20.7397C19.9142 20.5661 20 20.3466 20 20.0811C20 19.8156 19.9142 19.5978 19.7427 19.4277C19.5711 19.2575 19.3487 19.1725 19.0756 19.1725H4.90348Z" fill="black" fill-opacity="0.8"/>
</svg>
