<svg width="24" height="24" viewBox="0 0 24 24" fill="none" xmlns="http://www.w3.org/2000/svg">
<path d="M4 8.05419L4.01083 18.9594C4.01083 19.2701 4.10472 19.5212 4.29249 19.7127C4.48025 19.9042 4.73663 20 5.06161 20H15.9593C16.2627 20 16.5083 19.9024 16.696 19.7073C16.8838 19.5121 16.9777 19.2845 16.9777 19.0244C16.9777 18.7642 16.8784 18.5384 16.6798 18.3468C16.4812 18.1553 16.2555 18.0596 16.0027 18.0596H12.2329L6.94652 18.2331L8.96142 16.4552L19.6967 5.70189C19.8989 5.49954 20 5.2719 20 5.01897C20 4.84553 19.9531 4.68112 19.8592 4.52574C19.7653 4.37037 19.6407 4.2439 19.4855 4.14634C19.3302 4.04878 19.1623 4 18.9818 4C18.7218 4 18.4943 4.09756 18.2993 4.29268L7.55315 15.0569L5.76575 17.0731L5.96074 12.0108V8.01083C5.96074 7.75067 5.86505 7.52122 5.67367 7.32248C5.48229 7.12375 5.25299 7.02439 4.98578 7.02439C4.7258 7.02439 4.4965 7.12195 4.2979 7.31707C4.0993 7.51219 4 7.75789 4 8.05419Z" fill="black" fill-opacity="0.8"/>
</svg>
