<svg width="24" height="24" viewBox="0 0 24 24" fill="none" xmlns="http://www.w3.org/2000/svg">
<path d="M13.0306 21C13.2755 21 13.5085 20.9465 13.7296 20.8394C13.9507 20.7323 14.1837 20.5614 14.4286 20.3266L22.4795 12.6085C22.6768 12.422 22.8129 12.2321 22.8878 12.0387C22.9626 11.8453 23 11.6657 23 11.5C23 11.3273 22.9626 11.1443 22.8878 10.9509C22.8129 10.7575 22.6768 10.5676 22.4795 10.3811L14.4286 2.73555C14.1564 2.4731 13.9201 2.2849 13.7194 2.17094C13.5187 2.05698 13.2959 2 13.051 2C12.6905 2 12.3962 2.12432 12.1684 2.37295C11.9405 2.62159 11.8265 2.91857 11.8265 3.2639V7.17992H11.5306C9.70067 7.17992 8.12074 7.46654 6.79081 8.03979C5.46088 8.61304 4.36904 9.44182 3.51531 10.5262C2.66156 11.6105 2.02891 12.9175 1.61735 14.4474C1.20578 15.9772 1 17.6986 1 19.6118C1 20.0607 1.10714 20.4042 1.32143 20.6425C1.53571 20.8808 1.77891 21 2.05102 21C2.26871 21 2.48809 20.9551 2.70918 20.8653C2.93027 20.7755 3.12925 20.5648 3.30612 20.2333C3.89796 19.1006 4.58163 18.2148 5.35714 17.576C6.13265 16.9372 7.0272 16.4865 8.04081 16.2241C9.05442 15.9616 10.2177 15.8304 11.5306 15.8304H11.8265V19.7879C11.8265 20.1401 11.9405 20.4301 12.1684 20.6581C12.3962 20.886 12.6837 21 13.0306 21ZM13.6122 18.7725C13.517 18.7725 13.4694 18.7208 13.4694 18.6172V14.608C13.4694 14.38 13.3571 14.2661 13.1326 14.2661H11.7653C9.34352 14.2661 7.36394 14.6597 5.82653 15.4471C4.28911 16.2345 3.22109 17.2773 2.62244 18.5758C2.60884 18.6103 2.59523 18.6361 2.58163 18.6534C2.56803 18.6707 2.54762 18.6794 2.52041 18.6794C2.47279 18.6794 2.44898 18.6414 2.44898 18.5654C2.48979 17.5916 2.61564 16.6298 2.82653 15.6802C3.03741 14.7305 3.36224 13.8378 3.80101 13.0022C4.23979 12.1665 4.81292 11.4292 5.5204 10.7903C6.22789 10.1515 7.09524 9.65074 8.12245 9.28815C9.14966 8.92556 10.3639 8.74426 11.7653 8.74426H13.1326C13.3571 8.74426 13.4694 8.6303 13.4694 8.40239V4.28952C13.4694 4.19283 13.5204 4.14448 13.6225 4.14448C13.6496 4.14448 13.6785 4.15312 13.7092 4.17039C13.7398 4.18765 13.7687 4.20665 13.7959 4.22737L21.0612 11.3031C21.1292 11.3722 21.1633 11.4378 21.1633 11.5C21.1633 11.5276 21.1565 11.557 21.1428 11.588C21.1292 11.6191 21.102 11.6554 21.0612 11.6968L13.7857 18.6794C13.7313 18.7415 13.6735 18.7725 13.6122 18.7725Z" fill="black" fill-opacity="0.8"/>
</svg>
