<svg width="24" height="24" viewBox="0 0 24 24" fill="none" xmlns="http://www.w3.org/2000/svg">
<path d="M22 12C22 11.7326 21.8923 11.4969 21.6769 11.2929L14.5363 4.31662C14.4214 4.20405 14.3047 4.12313 14.1863 4.07388C14.0678 4.02463 13.944 4 13.8147 4C13.5491 4 13.3265 4.08619 13.147 4.25858C12.9675 4.43096 12.8777 4.64732 12.8777 4.90765C12.8777 5.0343 12.8993 5.15567 12.9424 5.27177C12.9854 5.38786 13.0501 5.48813 13.1363 5.57256L15.5488 7.97889L19.8244 11.7995L20.0398 11.2718L16.5719 11.0607H2.94776C2.66774 11.0607 2.43978 11.1486 2.26387 11.3245C2.08796 11.5004 2 11.7256 2 12C2 12.2744 2.08796 12.4995 2.26387 12.6755C2.43978 12.8514 2.66774 12.9393 2.94776 12.9393H16.5719L20.0398 12.7282L19.8244 12.2111L15.5488 16.021L13.1363 18.4274C13.0501 18.5119 12.9854 18.6121 12.9424 18.7282C12.8993 18.8443 12.8777 18.9657 12.8777 19.0923C12.8777 19.3527 12.9675 19.569 13.147 19.7414C13.3265 19.9138 13.5491 20 13.8147 20C14.0733 20 14.3066 19.9015 14.5148 19.7044L21.6769 12.7071C21.8923 12.5031 22 12.2674 22 12Z" fill="black" fill-opacity="0.8"/>
</svg>
