<svg width="24" height="24" viewBox="0 0 24 24" fill="none" xmlns="http://www.w3.org/2000/svg">
<path d="M0.603085 12.4553L6.70023 16.2276C6.97408 16.3956 7.2345 16.4701 7.4815 16.4512C7.7285 16.4322 7.9312 16.3306 8.08961 16.1463C8.24803 15.962 8.32725 15.7046 8.32725 15.3739V7.61788C8.32725 7.29809 8.24938 7.0447 8.09363 6.85771C7.93792 6.67073 7.73656 6.56639 7.48956 6.5447C7.24256 6.52303 6.97945 6.59891 6.70023 6.77235L0.603085 10.5447C0.329237 10.7073 0.149357 10.9078 0.0634435 11.1463C-0.0224696 11.3848 -0.0211272 11.622 0.0674707 11.8577C0.156069 12.0935 0.334607 12.2927 0.603085 12.4553ZM12 20C12.1557 20 12.294 19.9458 12.4148 19.8373C12.5356 19.7289 12.596 19.5935 12.596 19.4309V3.56097C12.596 3.40379 12.5356 3.271 12.4148 3.1626C12.294 3.0542 12.1557 3 12 3C11.8443 3 11.7074 3.0542 11.5892 3.1626C11.4711 3.271 11.412 3.40379 11.412 3.56097V19.4309C11.412 19.5935 11.4711 19.7289 11.5892 19.8373C11.7074 19.9458 11.8443 20 12 20ZM17.2998 16.2276L23.405 12.4553C23.6681 12.2927 23.8439 12.0935 23.9326 11.8577C24.0211 11.622 24.0225 11.3848 23.9365 11.1463C23.8506 10.9078 23.6734 10.7073 23.405 10.5447L17.2998 6.77235C17.0205 6.59891 16.7574 6.52303 16.5104 6.5447C16.2634 6.56639 16.0621 6.67073 15.9064 6.85771C15.7506 7.0447 15.6728 7.29809 15.6728 7.61788V15.3739C15.6728 15.7046 15.752 15.962 15.9104 16.1463C16.0688 16.3306 16.2715 16.4322 16.5185 16.4512C16.7655 16.4701 17.0259 16.3956 17.2998 16.2276Z" fill="black" fill-opacity="0.8"/>
</svg>
