<svg width="24" height="24" viewBox="0 0 24 24" fill="none" xmlns="http://www.w3.org/2000/svg">
<path d="M0.603085 12.4553L6.70023 16.2276C6.95797 16.3848 7.21034 16.4552 7.45734 16.439C7.70434 16.4227 7.91107 16.3238 8.07753 16.1423C8.24401 15.9607 8.32725 15.7046 8.32725 15.3739V7.61788C8.32725 7.29809 8.24535 7.04741 8.08155 6.86585C7.91778 6.68428 7.71239 6.58265 7.46539 6.56097C7.21839 6.53929 6.96334 6.60975 6.70023 6.77235L0.603085 10.5447C0.329237 10.7073 0.149357 10.9078 0.0634435 11.1463C-0.0224696 11.3848 -0.0211272 11.622 0.0674707 11.8577C0.156069 12.0935 0.334607 12.2927 0.603085 12.4553ZM1.4649 11.6667C1.40046 11.6233 1.36019 11.5718 1.34409 11.5121C1.32798 11.4525 1.36825 11.3902 1.4649 11.3252L6.86938 7.95121C6.90696 7.92411 6.96334 7.91327 7.03851 7.91868C7.11368 7.92411 7.15127 7.98102 7.15127 8.08942V14.9106C7.15127 15.0081 7.11637 15.0637 7.04657 15.0772C6.97677 15.0908 6.9177 15.0813 6.86938 15.0488L1.4649 11.6667ZM12 20C12.1557 20 12.294 19.9458 12.4148 19.8373C12.5356 19.7289 12.596 19.5935 12.596 19.4309V3.56097C12.596 3.40379 12.5356 3.271 12.4148 3.1626C12.294 3.0542 12.1557 3 12 3C11.8443 3 11.7074 3.0542 11.5892 3.1626C11.4711 3.271 11.412 3.40379 11.412 3.56097V19.4309C11.412 19.5935 11.4711 19.7289 11.5892 19.8373C11.7074 19.9458 11.8443 20 12 20ZM17.2998 16.2276L23.405 12.4553C23.6681 12.2927 23.8439 12.0935 23.9326 11.8577C24.0211 11.622 24.0225 11.3848 23.9365 11.1463C23.8506 10.9078 23.6734 10.7073 23.405 10.5447L17.2998 6.77235C17.0366 6.60975 16.7816 6.53929 16.5346 6.56097C16.2876 6.58265 16.0822 6.68428 15.9185 6.86585C15.7547 7.04741 15.6728 7.29809 15.6728 7.61788V15.3739C15.6728 15.7046 15.756 15.9607 15.9224 16.1423C16.0889 16.3238 16.2957 16.4227 16.5427 16.439C16.7896 16.4552 17.042 16.3848 17.2998 16.2276ZM17.1306 15.0488C17.0823 15.0758 17.0232 15.084 16.9534 15.0732C16.8836 15.0623 16.8487 15.0081 16.8487 14.9106V8.08942C16.8487 7.98102 16.8863 7.92411 16.9615 7.91868C17.0366 7.91327 17.093 7.92411 17.1306 7.95121L22.5351 11.3252C22.6317 11.3902 22.672 11.4539 22.6559 11.5162C22.6398 11.5785 22.5995 11.6287 22.5351 11.6667L17.1306 15.0488Z" fill="black" fill-opacity="0.8"/>
</svg>
