<svg width="24" height="24" viewBox="0 0 24 24" fill="none" xmlns="http://www.w3.org/2000/svg">
<rect width="24" height="24" fill="white"/>
<path d="M4.82861 19.0966V4.92449C4.82861 4.65135 4.74348 4.42898 4.57322 4.25739C4.40296 4.0858 4.18162 4 3.9092 4C3.64359 4 3.42565 4.0858 3.25539 4.25739C3.08513 4.42898 3 4.65135 3 4.92449V19.0966C3 19.3627 3.08513 19.5798 3.25539 19.7479C3.42565 19.916 3.64359 20 3.9092 20C4.18162 20 4.40296 19.916 4.57322 19.7479C4.74348 19.5798 4.82861 19.3627 4.82861 19.0966ZM21 12.0053C21 11.7251 20.9166 11.4975 20.7498 11.3224C20.5829 11.1473 20.3667 11.0598 20.1011 11.0598H9.78322L7.59706 11.1438L10.9478 7.98163L13.2055 5.61787C13.294 5.53382 13.3604 5.43227 13.4047 5.3132C13.449 5.19414 13.4711 5.07157 13.4711 4.94551C13.4711 4.68637 13.3843 4.46925 13.2106 4.29416C13.0369 4.11906 12.8241 4.03152 12.5721 4.03152C12.4427 4.03152 12.3218 4.05778 12.2094 4.11031C12.0971 4.16284 11.9898 4.24163 11.8876 4.34669L5.11464 11.2909C5.01249 11.396 4.93417 11.508 4.87969 11.6271C4.8252 11.7461 4.79796 11.8722 4.79796 12.0053C4.79796 12.1313 4.8252 12.2539 4.87969 12.373C4.93417 12.492 5.01249 12.6041 5.11464 12.7092L11.8876 19.6534C11.9898 19.7585 12.0971 19.8355 12.2094 19.8845C12.3218 19.9335 12.4427 19.958 12.5721 19.958C12.8241 19.958 13.0369 19.8722 13.2106 19.7006C13.3843 19.5291 13.4711 19.3137 13.4711 19.0545C13.4711 18.9285 13.449 18.8059 13.4047 18.6868C13.3604 18.5677 13.294 18.4627 13.2055 18.3717L10.9478 16.0184L7.58685 12.8667L9.78322 12.9403H20.1011C20.3667 12.9403 20.5829 12.8527 20.7498 12.6776C20.9166 12.5025 21 12.2784 21 12.0053Z" fill="black" fill-opacity="0.8"/>
</svg>
