<svg width="24" height="24" viewBox="0 0 24 24" fill="none" xmlns="http://www.w3.org/2000/svg">
<path d="M8.42768 13.0115C8.71476 12.8393 8.90811 12.6284 9.00773 12.3788C9.10732 12.1291 9.10876 11.878 9.01205 11.6255C8.91541 11.373 8.72062 11.1607 8.42768 10.9885L1.76639 6.99425C1.48517 6.82208 1.20835 6.74748 0.935923 6.77044C0.663494 6.79339 0.4394 6.901 0.26364 7.09325C0.08788 7.2855 0 7.55092 0 7.88952V16.1018C0 16.4519 0.0893448 16.7231 0.268034 16.9154C0.446723 17.1076 0.67228 17.2123 0.944705 17.2295C1.21714 17.2467 1.49103 17.1721 1.76639 17.0057L8.42768 13.0115ZM7.48737 12.1765L1.59063 15.7575C1.5379 15.7862 1.47199 15.7948 1.3929 15.7833C1.31381 15.7719 1.27426 15.7145 1.27426 15.6112V8.38879C1.27426 8.27402 1.31527 8.21376 1.39729 8.20802C1.47931 8.20228 1.54376 8.21376 1.59063 8.24246L7.47859 11.8149C7.5899 11.8837 7.6353 11.9512 7.6148 12.0172C7.59429 12.0832 7.55181 12.1363 7.48737 12.1765ZM11.9956 21C12.1714 21 12.3237 20.9426 12.4526 20.8278C12.5815 20.713 12.6459 20.5695 12.6459 20.3974V3.59397C12.6459 3.42755 12.5815 3.28694 12.4526 3.17217C12.3237 3.05739 12.1714 3 11.9956 3C11.8257 3 11.6763 3.05739 11.5474 3.17217C11.4185 3.28694 11.3541 3.42755 11.3541 3.59397V20.3974C11.3541 20.5695 11.4185 20.713 11.5474 20.8278C11.6763 20.9426 11.8257 21 11.9956 21ZM22.2249 17.0057C22.5061 17.1721 22.7814 17.2467 23.0509 17.2295C23.3204 17.2123 23.546 17.1076 23.7276 16.9154C23.9092 16.7231 24 16.4519 24 16.1018V7.88952C24 7.55092 23.9107 7.2855 23.732 7.09325C23.5533 6.901 23.3292 6.79339 23.0597 6.77044C22.7902 6.74748 22.5119 6.82208 22.2249 6.99425L15.5635 10.9885C15.2706 11.1607 15.0773 11.373 14.9835 11.6255C14.8898 11.878 14.8912 12.1291 14.988 12.3788C15.0846 12.6284 15.2765 12.8393 15.5635 13.0115L22.2249 17.0057ZM22.4006 15.7575L16.5126 12.1765C16.4423 12.1363 16.3984 12.0832 16.3808 12.0172C16.3632 11.9512 16.4072 11.8837 16.5126 11.8149L22.4006 8.24246C22.4475 8.21376 22.5119 8.20228 22.5939 8.20802C22.6759 8.21376 22.7169 8.27402 22.7169 8.38879V15.6112C22.7169 15.7145 22.6789 15.7719 22.6027 15.7833C22.5265 15.7948 22.4592 15.7862 22.4006 15.7575Z" fill="black" fill-opacity="0.8"/>
</svg>
