<svg width="24" height="24" viewBox="0 0 24 24" fill="none" xmlns="http://www.w3.org/2000/svg">
<path d="M3.27986 5.95512C3.09329 6.13519 3 6.34476 3 6.58382C3 6.82288 3.09329 7.02934 3.27986 7.20321L8.08419 11.8975C8.26455 12.0776 8.46978 12.1677 8.69989 12.1677C8.94866 12.1677 9.14923 12.0901 9.3016 11.9348C9.45397 11.7796 9.53015 11.5809 9.53015 11.3387C9.53015 11.1151 9.4493 10.9226 9.2876 10.7612L7.28191 8.82387L5.54676 7.32429L7.70171 7.41743H20.165C20.4075 7.41743 20.6065 7.33826 20.7621 7.17993C20.9175 7.02158 20.9952 6.82133 20.9952 6.57917C20.9952 6.337 20.9175 6.1383 20.7621 5.98306C20.6065 5.82782 20.4075 5.7502 20.165 5.7502H7.70171L5.54676 5.83403L7.28191 4.34377L9.2876 2.39712C9.4493 2.24188 9.53015 2.04939 9.53015 1.81964C9.53015 1.57748 9.45397 1.38033 9.3016 1.2282C9.14923 1.07607 8.94866 1 8.69989 1C8.46978 1 8.26455 1.08693 8.08419 1.2608L3.27986 5.95512ZM20.7247 18.0449C20.9113 17.8648 21.003 17.6537 20.9999 17.4115C20.9968 17.1693 20.9051 16.9613 20.7247 16.7874L15.9204 12.0931C15.74 11.9193 15.5317 11.8323 15.2954 11.8323C15.0528 11.8323 14.8553 11.9084 14.703 12.0605C14.5506 12.2126 14.4744 12.4098 14.4744 12.652C14.4744 12.8817 14.5522 13.0742 14.7077 13.2294L16.7226 15.1761L18.4578 16.6757L16.3029 16.5826H3.83959C3.59704 16.5826 3.39647 16.6602 3.23788 16.8154C3.07929 16.9706 3 17.1693 3 17.4115C3 17.6599 3.07929 17.8617 3.23788 18.017C3.39647 18.1722 3.59704 18.2498 3.83959 18.2498H16.3029L18.4578 18.1566L16.7226 19.6562L14.7077 21.5936C14.5522 21.755 14.4744 21.9506 14.4744 22.1803C14.4744 22.4225 14.5506 22.6197 14.703 22.7718C14.8553 22.9239 15.0528 23 15.2954 23C15.5317 23 15.74 22.913 15.9204 22.7391L20.7247 18.0449Z" fill="black" fill-opacity="0.8"/>
</svg>
