<svg width="24" height="24" viewBox="0 0 24 24" fill="none" xmlns="http://www.w3.org/2000/svg">
<path d="M1.76639 17.0057L8.42768 13.0115C8.71476 12.8393 8.90811 12.6284 9.00773 12.3788C9.10732 12.1291 9.10876 11.878 9.01205 11.6255C8.91541 11.373 8.72062 11.1607 8.42768 10.9885L1.76639 6.99425C1.46174 6.81061 1.17466 6.73026 0.905164 6.75322C0.635665 6.77618 0.41743 6.88665 0.250458 7.08464C0.0834859 7.28263 0 7.55092 0 7.88952V16.1018C0 16.4519 0.0849506 16.7245 0.254852 16.9196C0.424753 17.1147 0.644451 17.2224 0.913947 17.2425C1.18345 17.2625 1.46759 17.1836 1.76639 17.0057ZM11.9956 21C12.1714 21 12.3237 20.9426 12.4526 20.8278C12.5815 20.713 12.6459 20.5695 12.6459 20.3974V3.59397C12.6459 3.42755 12.5815 3.28694 12.4526 3.17217C12.3237 3.05739 12.1714 3 11.9956 3C11.8257 3 11.6763 3.05739 11.5474 3.17217C11.4185 3.28694 11.3541 3.42755 11.3541 3.59397V20.3974C11.3541 20.5695 11.4185 20.713 11.5474 20.8278C11.6763 20.9426 11.8257 21 11.9956 21ZM22.2249 17.0057C22.5236 17.1836 22.8078 17.2625 23.0773 17.2425C23.3468 17.2224 23.568 17.1147 23.7407 16.9196C23.9136 16.7245 24 16.4519 24 16.1018V7.88952C24 7.55092 23.915 7.28263 23.7451 7.08464C23.5753 6.88665 23.3556 6.77618 23.0861 6.75322C22.8166 6.73026 22.5295 6.81061 22.2249 6.99425L15.5635 10.9885C15.2706 11.1607 15.0773 11.373 14.9835 11.6255C14.8898 11.878 14.8912 12.1291 14.988 12.3788C15.0846 12.6284 15.2765 12.8393 15.5635 13.0115L22.2249 17.0057Z" fill="black" fill-opacity="0.8"/>
</svg>
