<svg width="24" height="24" viewBox="0 0 24 24" fill="none" xmlns="http://www.w3.org/2000/svg">
<path d="M10.9039 19.7513C10.9872 19.8311 11.0802 19.8925 11.1827 19.9355C11.2853 19.9785 11.4007 20 11.5289 20C11.6955 20 11.8446 19.9632 11.976 19.8895C12.1074 19.8158 12.2116 19.716 12.2885 19.5901C12.3654 19.4642 12.4039 19.3214 12.4039 19.1617C12.4039 18.9346 12.3205 18.735 12.1539 18.5631L4.625 11.5072V12.4928L12.1539 5.44617C12.3205 5.27423 12.4039 5.07465 12.4039 4.84744C12.4039 4.68778 12.3654 4.54347 12.2885 4.41451C12.2116 4.28555 12.1074 4.18423 11.976 4.11054C11.8446 4.03685 11.6955 4 11.5289 4C11.2853 4 11.0769 4.0829 10.9039 4.2487L3.28846 11.3874C3.19231 11.4611 3.12019 11.5532 3.07212 11.6638C3.02404 11.7743 3 11.8879 3 12.0046C3 12.238 3.09295 12.4437 3.27885 12.6218L10.9039 19.7513ZM19.4904 19.7513C19.5737 19.8311 19.6683 19.8925 19.7741 19.9355C19.8799 19.9785 19.9937 20 20.1154 20C20.2821 20 20.4327 19.9632 20.5674 19.8895C20.702 19.8158 20.8078 19.716 20.8847 19.5901C20.9616 19.4642 21 19.3214 21 19.1617C21 18.9346 20.9135 18.735 20.7405 18.5631L13.2212 11.5072V12.4928L20.7405 5.44617C20.9135 5.27423 21 5.07465 21 4.84744C21 4.68778 20.9616 4.54347 20.8847 4.41451C20.8078 4.28555 20.702 4.18423 20.5674 4.11054C20.4327 4.03685 20.2821 4 20.1154 4C19.8783 4 19.6699 4.0829 19.4904 4.2487L11.875 11.3874C11.7853 11.4611 11.7148 11.5532 11.6635 11.6638C11.6122 11.7743 11.5866 11.8879 11.5866 12.0046C11.5866 12.238 11.6827 12.4437 11.875 12.6218L19.4904 19.7513Z" fill="black" fill-opacity="0.8"/>
</svg>
