<svg width="24" height="24" viewBox="0 0 24 24" fill="none" xmlns="http://www.w3.org/2000/svg">
<rect width="24" height="24" fill="white"/>
<path d="M2 12.0049C2 12.1215 2.0237 12.2348 2.0711 12.345C2.1185 12.4551 2.19299 12.5587 2.29457 12.6559L7.71865 17.7377C7.90825 17.9126 8.12832 18 8.37888 18C8.64974 18 8.86813 17.9207 9.03404 17.762C9.19994 17.6033 9.28289 17.3976 9.28289 17.145C9.28289 17.0219 9.26088 16.9118 9.21687 16.8146C9.17285 16.7175 9.11021 16.63 9.02895 16.5523L6.65212 14.3466L4.75266 12.7725L7.1092 12.8697H16.8908L19.2473 12.7725L17.3479 14.3466L14.9711 16.5523C14.8898 16.63 14.8271 16.7175 14.7831 16.8146C14.7391 16.9118 14.7172 17.0219 14.7172 17.145C14.7172 17.3976 14.8001 17.6033 14.966 17.762C15.1319 17.9207 15.3503 18 15.6211 18C15.8717 18 16.0918 17.9126 16.2814 17.7377L21.7054 12.6559C21.807 12.5587 21.8815 12.4551 21.929 12.345C21.9763 12.2348 22 12.1215 22 12.0049C22 11.8818 21.9763 11.7652 21.929 11.6551C21.8815 11.545 21.807 11.4446 21.7054 11.3539L16.2814 6.27207C16.0918 6.09069 15.8717 6 15.6211 6C15.3503 6 15.1319 6.07935 14.966 6.23806C14.8001 6.39676 14.7172 6.60243 14.7172 6.85506C14.7172 6.97814 14.7391 7.08826 14.7831 7.18543C14.8271 7.2826 14.8898 7.37005 14.9711 7.44778L17.3479 9.66317L19.2473 11.2276L16.8908 11.1401H7.1092L4.75266 11.2276L6.65212 9.66317L9.02895 7.44778C9.11021 7.37005 9.17285 7.2826 9.21687 7.18543C9.26088 7.08826 9.28289 6.97814 9.28289 6.85506C9.28289 6.60243 9.19994 6.39676 9.03404 6.23806C8.86813 6.07935 8.64974 6 8.37888 6C8.12832 6 7.90825 6.09069 7.71865 6.27207L2.29457 11.3539C2.19299 11.4446 2.1185 11.545 2.0711 11.6551C2.0237 11.7652 2 11.8818 2 12.0049Z" fill="black" fill-opacity="0.8"/>
</svg>
