<svg width="24" height="24" viewBox="0 0 24 24" fill="none" xmlns="http://www.w3.org/2000/svg">
<path d="M3.40324 12.667L11.1229 12.6989C11.2006 12.6989 11.2553 12.7148 11.2871 12.7467C11.3188 12.7787 11.3347 12.8336 11.3347 12.9117L11.3559 20.6042C11.3559 20.9234 11.4212 21.1895 11.5518 21.4023C11.6824 21.615 11.8536 21.7728 12.0654 21.8757C12.2772 21.9785 12.5031 22.0176 12.7431 21.9928C12.9831 21.9679 13.2108 21.8757 13.4261 21.7161C13.6414 21.5565 13.8197 21.3242 13.9609 21.0192L21.7864 4.11255C21.963 3.72243 22.0301 3.37486 21.9877 3.06985C21.9453 2.76484 21.82 2.51835 21.6118 2.33038C21.4035 2.14241 21.1423 2.03424 20.8281 2.00587C20.514 1.9775 20.1699 2.05198 19.7957 2.22931L2.87378 10.1134C2.59845 10.2411 2.39019 10.4078 2.249 10.6135C2.10781 10.8192 2.02662 11.0408 2.00545 11.2785C1.98427 11.5161 2.02486 11.7395 2.12722 11.9488C2.22959 12.158 2.38666 12.3283 2.59845 12.4595C2.81024 12.5907 3.0785 12.6599 3.40324 12.667Z" fill="#007AFF"/>
</svg>
