<svg width="24" height="24" viewBox="0 0 24 24" fill="none" xmlns="http://www.w3.org/2000/svg">
<path d="M7.05418 23C7.26501 23 7.47146 22.9462 7.6735 22.8385C7.87556 22.7309 8.06443 22.5933 8.24012 22.4258L11.7628 19.0163C11.8624 18.9206 11.9415 18.8727 12 18.8727C12.0586 18.8727 12.1376 18.9206 12.2372 19.0163L15.7599 22.4258C15.9297 22.5933 16.1172 22.7309 16.3221 22.8385C16.5271 22.9462 16.735 23 16.9459 23C17.2445 23 17.4949 22.8804 17.6969 22.6411C17.899 22.4019 18 22.1327 18 21.8336C18 21.6542 17.9678 21.4628 17.9034 21.2594C17.839 21.0561 17.7628 20.8288 17.675 20.5775L13.2123 8.81485C13.0601 8.42605 12.8829 8.14342 12.6808 7.96697C12.4788 7.79051 12.2518 7.70229 12 7.70229C11.7482 7.70229 11.5212 7.79051 11.3192 7.96697C11.1171 8.14342 10.94 8.42605 10.7877 8.81485L6.32504 20.5775C6.23719 20.8288 6.16105 21.0561 6.09663 21.2594C6.03221 21.4628 6 21.6542 6 21.8336C6 22.1327 6.10103 22.4019 6.30308 22.6411C6.50513 22.8804 6.75549 23 7.05418 23ZM7.61641 21.0441C7.58712 21.0022 7.58127 20.9573 7.59883 20.9095L11.8682 9.73002C11.9034 9.6403 11.9473 9.59544 12 9.59544C12.0469 9.59544 12.0908 9.6403 12.1318 9.73002L16.4012 20.9095C16.4188 20.9752 16.4129 21.0201 16.3837 21.0441C16.3485 21.062 16.3134 21.056 16.2782 21.0261L12.6852 17.6974C12.5564 17.5718 12.4378 17.4776 12.3294 17.4148C12.2211 17.352 12.1113 17.3206 12 17.3206C11.8887 17.3206 11.7789 17.352 11.6706 17.4148C11.5622 17.4776 11.4436 17.5718 11.3148 17.6974L7.72182 21.0261C7.67497 21.068 7.63983 21.0739 7.61641 21.0441ZM12 6.47308C12.2109 6.47308 12.3807 6.4028 12.5095 6.26224C12.6384 6.12167 12.7028 5.93176 12.7028 5.6925V1.77162C12.7028 1.53834 12.6384 1.35141 12.5095 1.21085C12.3807 1.07028 12.2109 1 12 1C11.7892 1 11.6179 1.07028 11.4861 1.21085C11.3543 1.35141 11.2885 1.53834 11.2885 1.77162V5.6925C11.2885 5.93176 11.3543 6.12167 11.4861 6.26224C11.6179 6.4028 11.7892 6.47308 12 6.47308Z" fill="#007AFF"/>
</svg>
