<svg width="24" height="24" viewBox="0 0 24 24" fill="none" xmlns="http://www.w3.org/2000/svg">
<path d="M7.39716 8.05289L2.86221 10.1885C2.59053 10.3154 2.38503 10.4811 2.24571 10.6855C2.10638 10.8899 2.02627 11.1101 2.00537 11.3462C1.98448 11.5824 2.02453 11.8044 2.12554 12.0123C2.22655 12.2202 2.38155 12.3894 2.59053 12.5198C2.79951 12.6502 3.06423 12.7189 3.38466 12.726L11.0021 12.7577C11.0788 12.7577 11.1328 12.7735 11.1641 12.8053C11.1955 12.837 11.2111 12.8916 11.2111 12.9691L11.232 20.6131C11.232 20.9302 11.2965 21.1945 11.4253 21.406C11.5542 21.6175 11.7231 21.7743 11.9321 21.8765C12.1411 21.9787 12.364 22.0175 12.6009 21.9928C12.8377 21.9681 13.0624 21.8765 13.2748 21.7179C13.4873 21.5593 13.6632 21.3285 13.8025 21.0254L15.8401 16.6061L7.39716 8.05289ZM17.6792 12.5779L21.5245 4.22564C21.6987 3.83798 21.7649 3.49261 21.7231 3.18953C21.6813 2.88645 21.5576 2.64151 21.3521 2.45473C21.1466 2.26795 20.8888 2.16046 20.5788 2.13227C20.2689 2.10408 19.9293 2.17808 19.5601 2.35429L11.3679 6.2027L17.6792 12.5779ZM20.6363 19.6721C20.7896 19.8272 20.9794 19.9047 21.2058 19.9047C21.4322 19.9047 21.622 19.8272 21.7753 19.6721C21.9216 19.51 21.9965 19.3179 21.9999 19.0959C22.0034 18.8739 21.9285 18.6818 21.7753 18.5197L5.68349 2.23799C5.53024 2.08293 5.34042 2.00364 5.11402 2.00011C4.88761 1.99659 4.6943 2.07588 4.53408 2.23799C4.38083 2.39306 4.3042 2.58513 4.3042 2.8142C4.3042 3.04327 4.38083 3.23534 4.53408 3.3904L20.6363 19.6721Z" fill="black" fill-opacity="0.8"/>
</svg>
