<svg width="24" height="24" viewBox="0 0 24 24" fill="none" xmlns="http://www.w3.org/2000/svg">
<path d="M3.42966 12.7852L11.0245 12.8166C11.087 12.8166 11.1286 12.8271 11.1495 12.8482C11.1703 12.8692 11.1807 12.9113 11.1807 12.9744L11.2016 20.5781C11.2016 20.9077 11.271 21.1829 11.4099 21.4037C11.5488 21.6245 11.7259 21.784 11.9413 21.8822C12.1566 21.9803 12.3875 22.0172 12.6341 21.9927C12.8806 21.9681 13.1133 21.8735 13.332 21.7087C13.5509 21.5439 13.7297 21.3108 13.8686 21.0093L15.9314 16.5397L14.702 15.2986L12.8476 19.3371C12.8407 19.3581 12.8303 19.3669 12.8164 19.3635C12.8025 19.3599 12.7955 19.3477 12.7955 19.3266L12.8372 13.4056L10.5556 11.113L4.70067 11.1445C4.67983 11.1445 4.66768 11.1375 4.66421 11.1235C4.66074 11.1094 4.67289 11.0954 4.70067 11.0814L8.6908 9.24096L7.47189 7.99997L2.88792 10.1559C2.59621 10.2891 2.37917 10.4644 2.23679 10.6818C2.09441 10.8991 2.01627 11.127 2.00238 11.3654C1.98849 11.6037 2.03537 11.8298 2.14303 12.0437C2.25068 12.2575 2.4139 12.4328 2.63268 12.5695C2.85146 12.7063 3.11712 12.7781 3.42966 12.7852ZM17.7546 12.5643L21.5676 4.29804C21.7412 3.91242 21.8072 3.56186 21.7655 3.24636C21.7238 2.93085 21.5988 2.67494 21.3905 2.47863C21.1821 2.28231 20.9165 2.16838 20.5935 2.13683C20.2705 2.10528 19.9181 2.18065 19.5361 2.36294L11.3891 6.18056L12.6393 7.42154L19.6715 4.16132C19.7062 4.1473 19.7306 4.14555 19.7444 4.15607C19.7583 4.16658 19.7583 4.19288 19.7444 4.23494L16.5044 11.3128L17.7546 12.5643ZM20.6403 19.579C20.7932 19.7332 20.9825 19.8104 21.2082 19.8104C21.4339 19.8104 21.6231 19.7332 21.776 19.579C21.9218 19.4177 21.9965 19.2267 21.9999 19.0058C22.0034 18.785 21.9287 18.5939 21.776 18.4327L5.73207 2.23674C5.57926 2.08249 5.39 2.00362 5.16428 2.00011C4.93855 1.99661 4.74582 2.07548 4.58607 2.23674C4.43327 2.39099 4.35687 2.58204 4.35687 2.80991C4.35687 3.03777 4.43327 3.22883 4.58607 3.38307L20.6403 19.579Z" fill="black" fill-opacity="0.8"/>
</svg>
