<svg width="24" height="24" viewBox="0 0 24 24" fill="none" xmlns="http://www.w3.org/2000/svg">
<path d="M5.1017 22C5.35102 22 5.5717 21.9519 5.76374 21.8558C5.95578 21.7596 6.17645 21.5961 6.42577 21.3654L11.8635 16.2404C11.9174 16.1827 11.9646 16.1538 12.0051 16.1538C12.0387 16.1538 12.0859 16.1827 12.1465 16.2404L17.5742 21.3654C17.8235 21.5961 18.0442 21.7596 18.2363 21.8558C18.4283 21.9519 18.649 22 18.8982 22C19.2419 22 19.5115 21.8894 19.7069 21.6683C19.9023 21.4471 20 21.1731 20 20.8461C20 20.6667 19.968 20.4728 19.904 20.2644C19.8399 20.0561 19.7709 19.8526 19.6967 19.6539L13.3796 3.23077C13.2179 2.80769 13.0208 2.49679 12.7884 2.29808C12.5559 2.09936 12.2948 2 12.0051 2C11.7153 2 11.4542 2.09936 11.2217 2.29808C10.9893 2.49679 10.7922 2.80769 10.6304 3.23077L4.30322 19.6539C4.2291 19.8526 4.16003 20.0561 4.09602 20.2644C4.03201 20.4728 4 20.6667 4 20.8461C4 21.1731 4.0977 21.4471 4.29311 21.6683C4.48852 21.8894 4.75805 22 5.1017 22ZM5.79911 19.9039C5.76542 19.8846 5.75868 19.8462 5.7789 19.7885L11.904 4.08654C11.9309 4.01603 11.9646 3.98077 12.0051 3.98077C12.0387 3.98077 12.0691 4.01603 12.096 4.08654L18.221 19.7885C18.2413 19.8462 18.2379 19.8846 18.211 19.9039C18.184 19.9167 18.1537 19.9103 18.12 19.8847L12.5104 14.4711C12.4228 14.3878 12.3352 14.3317 12.2476 14.3029C12.16 14.2741 12.0792 14.2596 12.0051 14.2596C11.9309 14.2596 11.8501 14.2741 11.7625 14.3029C11.6749 14.3317 11.5873 14.3878 11.4997 14.4711L5.89008 19.8847C5.85639 19.9103 5.82606 19.9167 5.79911 19.9039Z" fill="#007AFF"/>
</svg>
