<svg width="24" height="24" viewBox="0 0 24 24" fill="none" xmlns="http://www.w3.org/2000/svg">
<path d="M2.8979 10.0785C2.60292 10.2126 2.38343 10.389 2.23945 10.6078C2.09547 10.8266 2.01646 11.0559 2.00241 11.2959C1.98836 11.5358 2.03577 11.7634 2.14463 11.9786C2.2535 12.1939 2.41855 12.3703 2.63979 12.5079C2.86103 12.6455 3.12968 12.7179 3.44573 12.7249L11.1259 12.7567C11.1891 12.7567 11.2313 12.7673 11.2524 12.7884C11.2734 12.8096 11.284 12.852 11.284 12.9154L11.305 20.5688C11.305 20.9005 11.3753 21.1775 11.5157 21.3998C11.6562 21.6221 11.8353 21.7826 12.053 21.8814C12.2708 21.9802 12.5043 22.0173 12.7536 21.9926C13.0029 21.9679 13.2382 21.8726 13.4594 21.7068C13.6807 21.5409 13.8616 21.3063 14.0021 21.0029L21.7876 4.18236C21.9632 3.79422 22.0299 3.44137 21.9878 3.12381C21.9456 2.80624 21.8192 2.54866 21.6086 2.35106C21.3978 2.15346 21.1292 2.03878 20.8026 2.00703C20.476 1.97527 20.1196 2.05113 19.7333 2.23462L2.8979 10.0785ZM4.73104 11.0736C4.70997 11.0736 4.69768 11.0665 4.69417 11.0524C4.69066 11.0383 4.70295 11.0242 4.73104 11.0101L19.8702 4.04475C19.9053 4.03064 19.9299 4.02887 19.944 4.03946C19.958 4.05005 19.958 4.07651 19.944 4.11885L12.9696 19.3197C12.9626 19.3409 12.9521 19.3497 12.9381 19.3462C12.924 19.3427 12.9169 19.3303 12.9169 19.3092L12.9696 11.8251C12.9696 11.5923 12.8958 11.4017 12.7484 11.2535C12.6009 11.1053 12.4077 11.0312 12.1689 11.0312L4.73104 11.0736Z" fill="#007AFF"/>
</svg>
