<svg width="24" height="24" viewBox="0 0 24 24" fill="none" xmlns="http://www.w3.org/2000/svg">
<path d="M3.875 20C4.00321 20 4.12019 19.9785 4.22597 19.9355C4.33174 19.8925 4.42628 19.8311 4.50962 19.7513L12.125 12.6218C12.3109 12.4437 12.4039 12.238 12.4039 12.0046C12.4039 11.8879 12.3798 11.7743 12.3318 11.6638C12.2837 11.5532 12.2148 11.4611 12.125 11.3874L4.50001 4.2487C4.32693 4.0829 4.1186 4 3.875 4C3.70834 4 3.5593 4.03685 3.42789 4.11054C3.29648 4.18423 3.19231 4.28555 3.11539 4.41451C3.03846 4.54347 3 4.68778 3 4.84744C3 5.07465 3.08333 5.27423 3.25 5.44617L10.7789 12.4928V11.5072L3.25 18.5631C3.08333 18.735 3 18.9346 3 19.1617C3 19.3214 3.03846 19.4642 3.11539 19.5901C3.19231 19.716 3.29648 19.8158 3.42789 19.8895C3.5593 19.9632 3.70834 20 3.875 20ZM12.4712 20C12.593 20 12.7068 19.9785 12.8125 19.9355C12.9183 19.8925 13.0129 19.8311 13.0962 19.7513L20.7116 12.6218C20.9039 12.4437 21 12.238 21 12.0046C21 11.8879 20.9744 11.7743 20.9231 11.6638C20.8718 11.5532 20.8013 11.4611 20.7116 11.3874L13.0962 4.2487C12.9167 4.0829 12.7084 4 12.4712 4C12.3045 4 12.1555 4.03685 12.0241 4.11054C11.8927 4.18423 11.7869 4.28555 11.7068 4.41451C11.6266 4.54347 11.5866 4.68778 11.5866 4.84744C11.5866 5.07465 11.6731 5.27423 11.8462 5.44617L19.3654 12.4928V11.5072L11.8462 18.5631C11.6731 18.735 11.5866 18.9346 11.5866 19.1617C11.5866 19.3214 11.6266 19.4642 11.7068 19.5901C11.7869 19.716 11.8927 19.8158 12.0241 19.8895C12.1555 19.9632 12.3045 20 12.4712 20Z" fill="black" fill-opacity="0.8"/>
</svg>
