<svg width="24" height="24" viewBox="0 0 24 24" fill="none" xmlns="http://www.w3.org/2000/svg">
<rect width="24" height="24" fill="white"/>
<path d="M3 12.0053C3 12.2784 3.08343 12.5025 3.25028 12.6776C3.41714 12.8527 3.63337 12.9403 3.89898 12.9403H14.227L16.4132 12.8667L13.0522 16.0184L10.7946 18.3717C10.7128 18.4627 10.6498 18.5677 10.6056 18.6868C10.5613 18.8059 10.5392 18.9285 10.5392 19.0545C10.5392 19.3137 10.6243 19.5291 10.7946 19.7006C10.9648 19.8722 11.1759 19.958 11.4279 19.958C11.5573 19.958 11.6782 19.9335 11.7906 19.8845C11.903 19.8355 12.0102 19.7585 12.1124 19.6534L18.8853 12.7092C18.9875 12.6041 19.0659 12.492 19.1204 12.373C19.1749 12.2539 19.2021 12.1313 19.2021 12.0053C19.2021 11.8722 19.1749 11.7461 19.1204 11.6271C19.0659 11.508 18.9875 11.396 18.8853 11.2909L12.1124 4.34669C12.0102 4.24163 11.903 4.16284 11.7906 4.11031C11.6782 4.05778 11.5573 4.03152 11.4279 4.03152C11.1759 4.03152 10.9648 4.11906 10.7946 4.29416C10.6243 4.46925 10.5392 4.68637 10.5392 4.94551C10.5392 5.07157 10.5613 5.19414 10.6056 5.3132C10.6498 5.43227 10.7128 5.53382 10.7946 5.61787L13.0522 7.98163L16.403 11.1438L14.227 11.0598H3.89898C3.63337 11.0598 3.41714 11.1473 3.25028 11.3224C3.08343 11.4975 3 11.7251 3 12.0053ZM19.1714 19.0966C19.1714 19.3627 19.2566 19.5798 19.4268 19.7479C19.5971 19.916 19.8184 20 20.0908 20C20.3565 20 20.5744 19.916 20.7446 19.7479C20.9149 19.5798 21 19.3627 21 19.0966V4.92449C21 4.65135 20.9149 4.42898 20.7446 4.25739C20.5744 4.0858 20.3565 4 20.0908 4C19.8184 4 19.5971 4.0858 19.4268 4.25739C19.2566 4.42898 19.1714 4.65135 19.1714 4.92449V19.0966Z" fill="black" fill-opacity="0.8"/>
</svg>
