<svg width="24" height="24" viewBox="0 0 24 24" fill="none" xmlns="http://www.w3.org/2000/svg">
<path d="M0.232999 9.77568C0.401006 9.94516 0.590015 10.025 0.800024 10.0152C1.01003 10.0055 1.19581 9.91909 1.35735 9.75613L2.28786 8.82728L3.72239 7.29224V17.9691C3.72239 18.9794 3.97763 19.7372 4.48811 20.2423C4.99859 20.7474 5.75786 21 6.7659 21H14.6558C14.9336 21 15.1485 20.9316 15.3003 20.7948C15.4522 20.6579 15.5249 20.4656 15.5184 20.2179C15.5184 19.9636 15.4441 19.7681 15.2955 19.6313C15.1469 19.4944 14.9336 19.4259 14.6558 19.4259H6.79498C6.31035 19.4259 5.93718 19.2972 5.67547 19.0397C5.41377 18.7822 5.28291 18.3993 5.28291 17.8909V7.27269L6.72713 8.82728L7.65764 9.75613C7.82565 9.91909 8.01304 10.0055 8.21982 10.0152C8.4266 10.025 8.61399 9.94516 8.78199 9.77568C8.94354 9.61273 9.0227 9.4237 9.01947 9.2086C9.01624 8.9935 8.93062 8.80447 8.76261 8.64152L5.49615 5.35634C5.17953 5.04346 4.85159 4.88703 4.51234 4.88703C4.1731 4.88703 3.84516 5.04346 3.52853 5.35634L0.262076 8.64152C0.0940691 8.80447 0.00683461 8.9935 0.000372797 9.2086C-0.00608903 9.4237 0.071453 9.61273 0.232999 9.77568ZM8.48152 3.78219C8.48798 4.0364 8.56552 4.23194 8.71414 4.36883C8.86277 4.50571 9.07278 4.57415 9.34418 4.57415H17.2147C17.6993 4.57415 18.0708 4.70289 18.3294 4.96035C18.5878 5.21782 18.7171 5.60077 18.7171 6.10919V16.7274L17.2728 15.163L16.3423 14.2439C16.1743 14.081 15.9869 13.9946 15.7801 13.9848C15.5734 13.9751 15.386 14.0517 15.218 14.2146C15.0564 14.3841 14.9773 14.5747 14.9805 14.7866C14.9837 14.9984 15.0693 15.1891 15.2373 15.3586L18.5039 18.634C18.8205 18.9534 19.15 19.113 19.4924 19.113C19.8349 19.113 20.1645 18.9534 20.4811 18.634L23.7379 15.3586C23.9059 15.1891 23.9931 14.9984 23.9996 14.7866C24.0061 14.5747 23.9285 14.3841 23.767 14.2146C23.599 14.0517 23.4116 13.9751 23.2048 13.9848C22.998 13.9946 22.8106 14.081 22.6426 14.2439L21.7121 15.163L20.2776 16.7078V6.03097C20.2776 5.02065 20.024 4.2629 19.5167 3.75774C19.0095 3.25258 18.2486 3 17.2341 3H9.34418C9.07278 3 8.85954 3.06844 8.70446 3.20532C8.54937 3.34221 8.47506 3.53449 8.48152 3.78219Z" fill="black" fill-opacity="0.8"/>
</svg>
