<svg width="24" height="24" viewBox="0 0 24 24" fill="none" xmlns="http://www.w3.org/2000/svg">
<path d="M7.69441 14.7519C7.90196 14.705 8.0593 14.591 8.16643 14.41C8.27356 14.2291 8.29699 14.0348 8.23673 13.827L7.39312 10.4796C7.29938 10.1377 7.13534 9.89982 6.901 9.7658C6.7738 9.68537 6.64156 9.64182 6.50431 9.63517C6.36705 9.62844 6.21139 9.64851 6.03731 9.69539L2.73314 10.6303C2.5122 10.6906 2.35151 10.8112 2.25108 10.9922C2.15065 11.1732 2.13056 11.3642 2.19082 11.5653C2.24438 11.7797 2.36322 11.9388 2.54735 12.0427C2.73147 12.1466 2.92731 12.165 3.13487 12.098L6.05739 11.2335L6.76041 14.1989C6.80728 14.4201 6.92277 14.581 7.10689 14.6815C7.29102 14.782 7.48686 14.8055 7.69441 14.7519ZM4.77188 20.3712H10.155C10.3893 20.3712 10.5851 20.2975 10.7425 20.1501C10.8998 20.0027 10.9785 19.815 10.9785 19.5871C10.9785 19.3593 10.8998 19.17 10.7425 19.0192C10.5851 18.8683 10.3893 18.7929 10.155 18.7929H4.78193C4.43377 18.7929 4.15424 18.6723 3.94333 18.4311C3.73243 18.1898 3.62697 17.9117 3.62697 17.5967C3.62697 17.5029 3.63702 17.404 3.65711 17.3001C3.67719 17.1963 3.71401 17.0975 3.76758 17.0037L7.25251 10.761L5.88666 9.95685L2.37159 16.2296C2.25108 16.4508 2.15902 16.6769 2.09541 16.9081C2.0318 17.1393 2 17.3689 2 17.5967C2 18.1128 2.11215 18.5819 2.33644 19.0041C2.56074 19.4262 2.88044 19.7597 3.29556 20.0043C3.71067 20.2489 4.20277 20.3712 4.77188 20.3712ZM17.165 9.71556L18.5308 8.92139L14.8852 2.3973C14.6308 1.93488 14.2877 1.5864 13.8558 1.35184C13.4239 1.11728 12.9737 1 12.505 1C12.0363 1 11.5861 1.11896 11.1542 1.35686C10.7224 1.59477 10.3759 1.94159 10.1148 2.3973L7.3429 7.35319C7.21569 7.58105 7.18054 7.79551 7.23745 7.99655C7.29436 8.1976 7.4199 8.35509 7.61406 8.46903C7.81492 8.58295 8.02081 8.60808 8.23171 8.54442C8.44262 8.48075 8.60498 8.3484 8.7188 8.14735L11.4907 3.17134C11.6045 2.9703 11.7518 2.82454 11.9326 2.73406C12.1134 2.64358 12.3042 2.59835 12.505 2.59835C12.6992 2.59835 12.8849 2.64358 13.0624 2.73406C13.2398 2.82454 13.3854 2.9703 13.4993 3.17134L17.165 9.71556ZM17.3056 9.95685C17.4797 10.0037 17.6337 10.0238 17.7676 10.0171C17.9015 10.0104 18.0354 9.96687 18.1694 9.88644C18.4037 9.73896 18.5677 9.50105 18.6615 9.1727L19.495 5.82521C19.5552 5.61746 19.5335 5.42311 19.4297 5.24216C19.3259 5.06122 19.1703 4.94729 18.9627 4.90038C18.7551 4.84677 18.5593 4.87022 18.3752 4.97074C18.1911 5.07127 18.0756 5.23211 18.0287 5.45327L17.3257 8.41876L14.3931 7.55425C14.1855 7.49393 13.9914 7.51571 13.8107 7.61958C13.6299 7.72346 13.5093 7.87927 13.4491 8.08702C13.3955 8.28807 13.419 8.47908 13.5194 8.66003C13.6199 8.84097 13.7772 8.9616 13.9914 9.02191L17.3056 9.95685ZM13.1176 20.3712H20.2281C20.7973 20.3712 21.2894 20.2489 21.7045 20.0043C22.1196 19.7597 22.4393 19.4262 22.6636 19.0041C22.8879 18.5819 23 18.1128 23 17.5967C23 17.3689 22.9699 17.141 22.9096 16.9132C22.8493 16.6853 22.7556 16.4574 22.6284 16.2296L19.967 11.4748C19.8532 11.2603 19.6925 11.1279 19.485 11.0776C19.2774 11.0274 19.0765 11.0592 18.8824 11.1732C18.6882 11.2871 18.561 11.4496 18.5007 11.6607C18.4404 11.8718 18.4672 12.0778 18.581 12.2789L21.2224 17.0037C21.2759 17.0975 21.3161 17.1963 21.3429 17.3001C21.3697 17.404 21.3831 17.5029 21.3831 17.5967C21.3831 17.9117 21.2743 18.1898 21.0567 18.4311C20.8391 18.6723 20.5562 18.7929 20.2081 18.7929H13.1176V20.3712ZM15.2869 22.7638C15.4409 22.9245 15.6217 23.0033 15.8293 22.9999C16.0369 22.9966 16.2143 22.9179 16.3615 22.7638C16.5156 22.6163 16.5926 22.437 16.5926 22.2259C16.5926 22.0148 16.5122 21.8322 16.3515 21.6781L14.142 19.5871L16.3515 17.4962C16.5122 17.3421 16.5926 17.1594 16.5926 16.9483C16.5926 16.7372 16.5156 16.5579 16.3615 16.4105C16.2143 16.2564 16.0369 16.1777 15.8293 16.1743C15.6217 16.1709 15.4409 16.2497 15.2869 16.4105L12.8164 18.803C12.5753 19.0443 12.4548 19.3057 12.4548 19.5871C12.4548 19.8686 12.5753 20.1266 12.8164 20.3612L15.2869 22.7638Z" fill="black" fill-opacity="0.8"/>
</svg>
