<svg width="24" height="24" viewBox="0 0 24 24" fill="none" xmlns="http://www.w3.org/2000/svg">
<path d="M4.15132 17.0157H5.97616V8.34557C5.97616 7.43808 6.21574 6.71906 6.69488 6.18852C7.17403 5.65799 7.78062 5.39272 8.51463 5.39272C9.25544 5.39272 9.87052 5.65624 10.3599 6.18329C10.8492 6.71033 11.0939 7.43109 11.0939 8.34557V15.5183C11.0939 16.5305 11.2825 17.4083 11.6597 18.1517C12.0369 18.8952 12.5568 19.4694 13.2195 19.8743C13.8822 20.2792 14.6383 20.4816 15.4878 20.4816C16.3374 20.4816 17.0901 20.2792 17.7459 19.8743C18.4017 19.4694 18.9166 18.8952 19.2904 18.1517C19.6642 17.4083 19.851 16.5305 19.851 15.5183V6.93197H18.0263V15.6649C18.0263 16.5654 17.7867 17.2809 17.3075 17.8114C16.8283 18.3419 16.2218 18.6072 15.4878 18.6072C14.747 18.6072 14.1319 18.3454 13.6426 17.8219C13.1532 17.2984 12.9086 16.5794 12.9086 15.6649V8.49217C12.9086 7.47996 12.72 6.60213 12.3427 5.85868C11.9655 5.11524 11.4456 4.54107 10.7829 4.13619C10.1203 3.73131 9.36419 3.52886 8.51463 3.52886C7.66507 3.52886 6.91237 3.73131 6.25651 4.13619C5.60066 4.54107 5.08583 5.11524 4.71202 5.85868C4.33822 6.60213 4.15132 7.47996 4.15132 8.49217V17.0157ZM2.72406 16.2199C2.35706 16.2199 2.12937 16.3298 2.04102 16.5497C1.95267 16.7696 2.00704 17.0226 2.20414 17.3088L4.48775 20.6387C4.65766 20.883 4.85135 21.0034 5.06884 20.9999C5.28633 20.9964 5.47662 20.876 5.63974 20.6387L7.92334 17.2983C8.12043 17.0121 8.17311 16.7608 8.08136 16.5444C7.98961 16.3281 7.76362 16.2199 7.40341 16.2199H2.72406ZM16.6092 7.7906H21.2783C21.6385 7.7906 21.8645 7.68066 21.9562 7.46077C22.048 7.24087 21.9954 6.98782 21.7983 6.70161L19.5248 3.36133C19.3618 3.12398 19.1698 3.00356 18.9489 3.00007C18.728 2.99658 18.536 3.117 18.3728 3.36133L16.0892 6.69114C15.8854 6.98433 15.8293 7.24087 15.9211 7.46077C16.0128 7.68066 16.2422 7.7906 16.6092 7.7906Z" fill="black" fill-opacity="0.8"/>
</svg>
