<svg width="24" height="24" viewBox="0 0 24 24" fill="none" xmlns="http://www.w3.org/2000/svg">
<rect width="24" height="24" fill="white"/>
<path d="M5.18627 20C5.38235 20 5.56699 19.9631 5.7402 19.8893C5.9134 19.8156 6.10131 19.725 6.30392 19.6176L18.902 13.3484C19.3203 13.1338 19.6079 12.9224 19.7647 12.7145C19.9216 12.5065 20 12.2683 20 12C20 11.7317 19.9216 11.4935 19.7647 11.2855C19.6079 11.0776 19.3203 10.8696 18.902 10.6616L6.30392 4.38239C6.09477 4.28176 5.90359 4.19287 5.73039 4.11572C5.55719 4.03857 5.37255 4 5.17648 4C4.817 4 4.53105 4.13082 4.31863 4.39245C4.10621 4.65409 4 5.00294 4 5.43899L4.0098 18.561C4.0098 18.9971 4.11601 19.3459 4.32843 19.6075C4.54085 19.8692 4.8268 20 5.18627 20Z" fill="black" fill-opacity="0.8"/>
</svg>
