<svg width="24" height="24" viewBox="0 0 24 24" fill="none" xmlns="http://www.w3.org/2000/svg">
<path d="M10.8117 23C12.1696 23 13.3578 22.7373 14.3763 22.2118C15.3947 21.6863 16.1869 20.9489 16.7527 19.9996C17.3185 19.0503 17.6014 17.9416 17.6014 16.6736V14.6597C17.6014 14.4224 17.5102 14.219 17.3277 14.0495C17.1451 13.88 16.9261 13.7953 16.6705 13.7953C16.4077 13.7953 16.1851 13.88 16.0025 14.0495C15.82 14.219 15.7288 14.4224 15.7288 14.6597V16.6736C15.7288 17.589 15.5225 18.3909 15.11 19.0791C14.6975 19.7673 14.1226 20.303 13.3852 20.6862C12.6478 21.0692 11.79 21.2608 10.8117 21.2608C9.82605 21.2608 8.96273 21.0692 8.2217 20.6862C7.48066 20.303 6.9039 19.7673 6.4914 19.0791C6.0789 18.3909 5.87266 17.589 5.87266 16.6736V7.30607C5.87266 6.39745 6.0789 5.59902 6.4914 4.91078C6.9039 4.22254 7.48066 3.68686 8.2217 3.30375C8.96273 2.92064 9.82605 2.72909 10.8117 2.72909C11.79 2.72909 12.6478 2.92064 13.3852 3.30375C14.1226 3.68686 14.6975 4.22254 15.11 4.91078C15.5225 5.59902 15.7288 6.39745 15.7288 7.30607V8.53677H17.6014V7.30607C17.6014 6.04486 17.3185 4.9396 16.7527 3.99029C16.1869 3.041 15.3947 2.30529 14.3763 1.78317C13.3578 1.26106 12.1696 1 10.8117 1C9.44641 1 8.25273 1.26106 7.23061 1.78317C6.20849 2.30529 5.41453 3.041 4.84872 3.99029C4.28291 4.9396 4 6.04486 4 7.30607V16.6736C4 17.9416 4.28291 19.0503 4.84872 19.9996C5.41453 20.9489 6.20849 21.6863 7.23061 22.2118C8.25273 22.7373 9.44641 23 10.8117 23ZM19.2222 7.34676H14.1846C13.7977 7.34676 13.5549 7.45355 13.4564 7.66715C13.3578 7.88073 13.4144 8.12654 13.6261 8.40455L16.0792 11.6491C16.2544 11.8796 16.4589 11.9966 16.6925 12C16.9261 12.0034 17.1342 11.8864 17.3167 11.6491L19.7807 8.41472C19.9925 8.12993 20.0509 7.88073 19.9559 7.66715C19.861 7.45355 19.6165 7.34676 19.2222 7.34676Z" fill="black" fill-opacity="0.8"/>
</svg>
