<svg width="24" height="24" viewBox="0 0 24 24" fill="none" xmlns="http://www.w3.org/2000/svg">
<path d="M9.34762 23C9.65899 23 9.89809 22.9108 10.0649 22.7325C10.2317 22.5542 10.3151 22.3018 10.3151 21.9754V13.1755H9.49218C9.72201 13.8585 10.0556 14.5093 10.4931 15.1279C10.9305 15.7464 11.455 16.3194 12.0666 16.8469C12.6783 17.3743 13.3659 17.8506 14.1295 18.2756C14.8932 18.7006 15.7161 19.0649 16.5983 19.3685C16.9097 19.4899 17.1859 19.488 17.4268 19.3628C17.6678 19.2376 17.8328 19.0611 17.9217 18.8334C18.0181 18.6133 18.0255 18.3781 17.9439 18.1277C17.8624 17.8772 17.6622 17.6798 17.3434 17.5356C16.3129 17.103 15.3677 16.6078 14.5076 16.05C13.6476 15.4922 12.9044 14.8623 12.2779 14.1602C11.6515 13.4582 11.1677 12.6784 10.8267 11.8208C10.4856 10.9632 10.3151 10.0183 10.3151 8.98609V4.73979H8.36898V21.9754C8.36898 22.3018 8.45239 22.5542 8.61921 22.7325C8.78601 22.9108 9.02882 23 9.34762 23ZM6.78984 6.20835H11.8943C12.2872 6.20835 12.5337 6.08882 12.6338 5.84975C12.7339 5.61068 12.6764 5.33557 12.4614 5.0244L9.97037 1.39284C9.79245 1.13479 9.58486 1.00387 9.34762 1.00008C9.11037 0.996285 8.89908 1.1272 8.71373 1.39284L6.22268 5.01301C6.00768 5.33177 5.94837 5.61068 6.04475 5.84975C6.14113 6.08882 6.38949 6.20835 6.78984 6.20835Z" fill="black" fill-opacity="0.8"/>
</svg>
