<svg width="24" height="24" viewBox="0 0 24 24" fill="none" xmlns="http://www.w3.org/2000/svg">
<path d="M12.001 21C12.63 21 12.9446 20.6243 12.9446 19.873V13.7705C12.9446 13.1327 13.1054 12.4434 13.4272 11.7027C13.7489 10.9621 14.1791 10.2214 14.7178 9.48079C15.2565 8.74013 15.8548 8.05441 16.5128 7.42361C17.1708 6.79281 17.8324 6.26833 18.4975 5.85016L19.3651 5.29732C19.6761 5.10595 19.8316 4.82954 19.8316 4.46807C19.8316 4.21291 19.7466 4.00205 19.5767 3.8355C19.4068 3.66894 19.1844 3.58566 18.9097 3.58566C18.6276 3.58566 18.3529 3.67426 18.0854 3.85145L17.5105 4.22355C16.8526 4.65589 16.2127 5.16443 15.5909 5.74915C14.9691 6.33388 14.4051 6.93988 13.899 7.56714C13.3929 8.19439 12.9735 8.79683 12.6409 9.37447C12.3083 9.95212 12.0986 10.4465 12.0118 10.8576H11.9793C11.8925 10.4465 11.6847 9.95212 11.3557 9.37447C11.0267 8.79683 10.6073 8.19261 10.0976 7.56181C9.58784 6.93101 9.02387 6.32502 8.40567 5.74384C7.78746 5.16265 7.14937 4.65589 6.4914 4.22355L5.91658 3.85145C5.64183 3.67426 5.36346 3.58566 5.08147 3.58566C4.80672 3.58566 4.58619 3.67248 4.41989 3.84613C4.25359 4.01978 4.17044 4.22355 4.17044 4.45744C4.17044 4.82599 4.3259 5.10595 4.6368 5.29732L5.50445 5.85016C6.16965 6.26833 6.82943 6.79281 7.48379 7.42361C8.13814 8.05441 8.73465 8.74013 9.27332 9.48079C9.81198 10.2214 10.244 10.9621 10.5694 11.7027C10.8947 12.4434 11.0574 13.1327 11.0574 13.7705V19.873C11.0574 20.6243 11.3719 21 12.001 21ZM4.53919 7.14719L7.57597 3.28798C7.80734 2.9903 7.86338 2.73515 7.74408 2.52252C7.62478 2.30989 7.38437 2.19649 7.02285 2.18231L2.80389 2.00157C2.50021 1.9874 2.27607 2.06891 2.13146 2.2461C1.98685 2.42329 1.96155 2.65718 2.05554 2.94777L3.30279 6.89204C3.41125 7.23933 3.58478 7.44487 3.82338 7.50866C4.06198 7.57245 4.30059 7.45196 4.53919 7.14719ZM19.3327 7.13656C19.5568 7.44842 19.79 7.57599 20.0321 7.51929C20.2744 7.46259 20.4534 7.26414 20.569 6.92393L21.9356 3.01157C22.0368 2.72097 22.0187 2.4853 21.8814 2.30457C21.744 2.12384 21.5234 2.03701 21.2198 2.0441L16.99 2.10789C16.6285 2.11498 16.3844 2.22129 16.2579 2.42684C16.1314 2.63238 16.1802 2.88753 16.4043 3.1923L19.3327 7.13656Z" fill="black" fill-opacity="0.8"/>
</svg>
