<svg width="24" height="24" viewBox="0 0 24 24" fill="none" xmlns="http://www.w3.org/2000/svg">
<path d="M5.13227 23C5.49172 23 5.83769 22.8864 6.17018 22.6592L6.87111 22.182C7.33839 21.8638 7.84162 21.4616 8.38079 20.9752C8.91997 20.4889 9.44117 19.9753 9.9444 19.4345C10.4476 18.8936 10.8835 18.3709 11.2519 17.8664C11.6203 17.362 11.863 16.928 11.9798 16.5643H12.0202C12.137 16.928 12.3774 17.3598 12.7414 17.8597C13.1053 18.3596 13.5389 18.8823 14.0421 19.4276C14.5454 19.973 15.0666 20.4889 15.6057 20.9752C16.1449 21.4616 16.6526 21.8638 17.1289 22.182L17.8298 22.6592C18.1623 22.8864 18.5038 23 18.8542 23C19.1957 23 19.472 22.8932 19.6832 22.6796C19.8944 22.4659 20 22.191 20 21.8547C20 21.4002 19.8068 21.0502 19.4204 20.8047L18.3555 20.1094C17.8882 19.7913 17.358 19.3686 16.765 18.8414C16.1719 18.3142 15.6035 17.7051 15.0598 17.0143C14.5162 16.3234 14.0668 15.5826 13.7119 14.7918C13.3569 14.001 13.1794 13.1874 13.1794 12.3511V5.39735H10.8206V12.3511C10.8206 13.1874 10.6431 14.001 10.2881 14.7918C9.93316 15.5826 9.4816 16.3212 8.93345 17.0075C8.38529 17.6937 7.81691 18.3028 7.22831 18.8345C6.63971 19.3663 6.11177 19.7913 5.64449 20.1094L4.57961 20.8047C4.1932 21.0502 4 21.4047 4 21.8684C4 22.1774 4.10334 22.4432 4.31002 22.6659C4.51671 22.8886 4.79079 23 5.13227 23ZM8.90649 7.23806H15.0935C15.5698 7.23806 15.8686 7.0949 15.9899 6.80857C16.1112 6.52223 16.0371 6.19272 15.7675 5.82004L12.7616 1.4705C12.5459 1.16144 12.2943 1.00464 12.0067 1.0001C11.7192 0.995551 11.4631 1.15235 11.2384 1.4705L8.21904 5.8064C7.95844 6.18818 7.88655 6.52223 8.00337 6.80857C8.12019 7.0949 8.42123 7.23806 8.90649 7.23806Z" fill="black" fill-opacity="0.8"/>
</svg>
