<svg width="24" height="24" viewBox="0 0 24 24" fill="none" xmlns="http://www.w3.org/2000/svg">
<path d="M3.90144 20C4.15077 20 4.35695 19.9153 4.51998 19.7458C4.68301 19.5764 4.76452 19.3596 4.76452 19.0952C4.76452 18.919 4.75973 18.7395 4.75013 18.5565C4.74054 18.3735 4.73575 18.1635 4.73575 17.9263C4.73575 16.6658 4.88759 15.6459 5.19126 14.8665C5.49494 14.0872 5.9936 13.518 6.68726 13.1588C7.38092 12.7996 8.31592 12.6201 9.49227 12.6201H16.1092L18.4683 12.4676L15.227 15.5984L13.098 17.8958C13.0277 17.9771 12.9718 18.0754 12.9302 18.1906C12.8886 18.3058 12.8678 18.4244 12.8678 18.5464C12.8678 18.7971 12.9494 19.0055 13.1124 19.1715C13.2755 19.3375 13.4752 19.4205 13.7118 19.4205C13.9419 19.4205 14.1497 19.3257 14.3351 19.1359L20.7027 12.3964C20.9009 12.1931 21 11.9627 21 11.7052C21 11.4477 20.9009 11.2206 20.7027 11.0241L14.3543 4.30495C14.1561 4.10165 13.9419 4 13.7118 4C13.4752 4 13.2755 4.08302 13.1124 4.24905C12.9494 4.41508 12.8678 4.62346 12.8678 4.8742C12.8678 4.99618 12.887 5.11308 12.9254 5.2249C12.9637 5.33672 13.0213 5.43329 13.098 5.51461L15.227 7.81193L18.4587 10.9428L16.1092 10.8005H9.40596C7.12999 10.8005 5.49334 11.3579 4.496 12.4727C3.49867 13.5874 3 15.3748 3 17.8348C3 18.133 3.00639 18.4023 3.01918 18.6429C3.03197 18.8834 3.05434 19.0817 3.08631 19.2375C3.11188 19.3731 3.15663 19.4985 3.22056 19.6137C3.2845 19.7289 3.3724 19.8221 3.48428 19.8932C3.59616 19.9644 3.73521 20 3.90144 20Z" fill="black" fill-opacity="0.8"/>
</svg>
