<svg width="24" height="24" viewBox="0 0 24 24" fill="none" xmlns="http://www.w3.org/2000/svg">
<path d="M17.827 3C15.4628 3 13.71 3.47644 12.5689 4.42932C11.4277 5.38221 10.8572 6.96717 10.8572 9.18421V15.7877L10.9289 18.3701L8.88918 16.2832L5.52723 13.1578C5.44523 13.0815 5.34786 13.0244 5.23511 12.9862C5.12236 12.9481 5.00448 12.9291 4.88149 12.9291C4.62866 12.9291 4.41854 13.0085 4.25112 13.1672C4.08371 13.3261 4 13.523 4 13.7581C4 13.9868 4.09567 14.1932 4.287 14.3775L11.0827 20.7141C11.2808 20.9047 11.5097 21 11.7694 21C12.0291 21 12.258 20.9047 12.4561 20.7141L19.262 14.3775C19.4466 14.1932 19.5388 13.9868 19.5388 13.7581C19.5388 13.523 19.4551 13.3261 19.2876 13.1672C19.1203 13.0085 18.9101 12.9291 18.6573 12.9291C18.5343 12.9291 18.4165 12.9481 18.3037 12.9862C18.1909 13.0244 18.0936 13.0815 18.0116 13.1578L14.6496 16.2832L12.5996 18.3795L12.6816 15.7877L12.6714 9.26997C12.6714 8.12016 12.8559 7.21015 13.2249 6.53996C13.5939 5.86977 14.1644 5.39015 14.9366 5.10111C15.7087 4.81206 16.703 4.66754 17.9193 4.66754C18.1585 4.66754 18.3686 4.67072 18.5497 4.67707C18.7308 4.68343 18.9101 4.68661 19.0878 4.68661C19.3475 4.68661 19.5644 4.61355 19.7387 4.46744C19.9129 4.32133 20 4.1244 20 3.87665C20 3.71149 19.9641 3.57332 19.8924 3.46215C19.8207 3.35098 19.725 3.26363 19.6055 3.20011C19.4859 3.13658 19.3612 3.09211 19.2313 3.0667C19.0741 3.04129 18.8742 3.02382 18.6317 3.01429C18.3891 3.00476 18.1209 3 17.827 3Z" fill="black" fill-opacity="0.8"/>
</svg>
