<svg width="24" height="24" viewBox="0 0 24 24" fill="none" xmlns="http://www.w3.org/2000/svg">
<path d="M13.3383 20C13.6458 20 13.899 19.898 14.0979 19.6941C14.2969 19.4901 14.3964 19.2306 14.3964 18.9155V15.3746H14.6586C15.8282 15.3746 16.8621 15.492 17.7604 15.7268C18.6586 15.9616 19.4514 16.3648 20.1386 16.9364C20.8259 17.508 21.4317 18.3006 21.9562 19.314C22.113 19.6106 22.2893 19.7991 22.4853 19.8795C22.6812 19.9598 22.8756 20 23.0685 20C23.3097 20 23.5252 19.8934 23.7152 19.6801C23.9051 19.4669 24 19.1595 24 18.7579C24 17.0462 23.8176 15.5059 23.4528 14.1371C23.0881 12.7683 22.5274 11.5989 21.7708 10.6287C21.0143 9.65847 20.0467 8.91693 18.8681 8.40402C17.6895 7.89112 16.2863 7.63466 14.6586 7.63466H14.3964V4.13086C14.3964 3.82188 14.2969 3.55616 14.0979 3.3337C13.899 3.11123 13.6398 3 13.3203 3C13.0972 3 12.8982 3.05098 12.7234 3.15294C12.5486 3.25491 12.3406 3.4233 12.0995 3.65812L4.96458 10.4989C4.78974 10.6657 4.66917 10.8357 4.60285 11.0087C4.53654 11.1817 4.50338 11.3455 4.50338 11.5C4.50338 11.6483 4.53654 11.809 4.60285 11.982C4.66917 12.155 4.78974 12.325 4.96458 12.4918L12.0995 19.3975C12.3165 19.6075 12.5215 19.7605 12.7144 19.8563C12.9073 19.9521 13.1153 20 13.3383 20ZM12.8229 18.007C12.7687 18.007 12.7144 17.9792 12.6601 17.9237L6.22154 11.6761C6.18538 11.639 6.15975 11.6066 6.14468 11.5788C6.12961 11.551 6.12207 11.5247 6.12207 11.5C6.12207 11.4444 6.15523 11.3857 6.22154 11.3239L12.6601 4.99291C12.6842 4.97437 12.7083 4.95737 12.7325 4.94193C12.7566 4.92647 12.7837 4.91875 12.8139 4.91875C12.8982 4.91875 12.9404 4.96201 12.9404 5.04852V8.72845C12.9404 8.93237 13.0429 9.03433 13.2479 9.03433H14.4596C15.7016 9.03433 16.7777 9.19655 17.688 9.52098C18.5983 9.8454 19.367 10.2934 19.9939 10.865C20.6209 11.4366 21.1273 12.0963 21.5131 12.844C21.899 13.5917 22.1868 14.3904 22.3767 15.2401C22.5667 16.0899 22.6797 16.9503 22.7158 17.8216C22.7158 17.8897 22.6917 17.9237 22.6435 17.9237C22.6254 17.9237 22.6104 17.9159 22.5983 17.9004C22.5863 17.885 22.5742 17.8618 22.5621 17.8309C22.2065 17.0585 21.6669 16.3818 20.9435 15.8009C20.22 15.2201 19.3157 14.7705 18.2306 14.4522C17.1454 14.134 15.8884 13.9749 14.4596 13.9749H13.2479C13.0429 13.9749 12.9404 14.0769 12.9404 14.2808V17.868C12.9404 17.9607 12.9013 18.007 12.8229 18.007ZM8.83496 20C9.14244 20 9.39563 19.898 9.59454 19.6941C9.7935 19.4901 9.89299 19.2306 9.89299 18.9155V16.5332L8.43707 15.3467V17.868C8.43707 17.9607 8.39487 18.007 8.31047 18.007C8.26223 18.007 8.21099 17.9792 8.15673 17.9237L1.71816 11.6761C1.68199 11.639 1.65637 11.6066 1.64129 11.5788C1.62622 11.551 1.61869 11.5247 1.61869 11.5C1.61869 11.4444 1.65185 11.3857 1.71816 11.3239L8.15673 4.99291C8.18085 4.97437 8.20497 4.95737 8.22908 4.94193C8.25319 4.92647 8.28032 4.91875 8.31047 4.91875C8.39487 4.91875 8.43707 4.96201 8.43707 5.04852V7.63466L9.89299 6.45746V4.13086C9.89299 3.82188 9.79199 3.55616 9.59 3.3337C9.38807 3.11123 9.13036 3 8.81686 3C8.59381 3 8.39487 3.05098 8.22003 3.15294C8.0452 3.25491 7.83722 3.4233 7.59607 3.65812L0.452147 10.4989C0.277317 10.6657 0.158251 10.8357 0.0949508 11.0087C0.0316503 11.1817 0 11.3455 0 11.5C0 11.6483 0.0331575 11.809 0.0994725 11.982C0.165787 12.155 0.283346 12.325 0.452147 12.4918L7.59607 19.3975C7.80707 19.6075 8.01054 19.7605 8.20647 19.8563C8.4024 19.9521 8.6119 20 8.83496 20Z" fill="black" fill-opacity="0.8"/>
</svg>
