<svg width="24" height="24" viewBox="0 0 24 24" fill="none" xmlns="http://www.w3.org/2000/svg">
<path d="M20.0985 4C19.8492 4 19.6446 4.08302 19.4848 4.24905C19.325 4.41508 19.2451 4.63024 19.2451 4.89454C19.2451 5.07751 19.2483 5.25879 19.2546 5.43838C19.261 5.61796 19.2642 5.82973 19.2642 6.0737C19.2642 7.3274 19.1124 8.34392 18.8087 9.12326C18.5051 9.90258 18.0064 10.4735 17.3127 10.8361C16.619 11.1986 15.6841 11.3799 14.5078 11.3799H7.89078L5.53169 11.5324L8.77304 8.39136L10.902 6.09403C10.9787 6.01271 11.0362 5.91614 11.0746 5.80432C11.1129 5.69251 11.1321 5.5756 11.1321 5.45362C11.1321 5.20288 11.0522 4.9945 10.8924 4.82846C10.7325 4.66243 10.5344 4.57942 10.2978 4.57942C10.0677 4.57942 9.85668 4.6709 9.66488 4.85387L3.29728 11.6036C3.09909 11.8001 3 12.0271 3 12.2846C3 12.5421 3.09909 12.7726 3.29728 12.9759L9.64571 19.695C9.85029 19.8983 10.0677 20 10.2978 20C10.5344 20 10.7325 19.917 10.8924 19.7509C11.0522 19.5849 11.1321 19.3765 11.1321 19.1257C11.1321 19.0038 11.1129 18.8852 11.0746 18.7701C11.0362 18.6548 10.9787 18.5565 10.902 18.4752L8.77304 16.1779L5.54129 13.0572L7.89078 13.1995H14.594C16.87 13.1995 18.5066 12.6421 19.5039 11.5273C20.5013 10.4125 21 8.62516 21 6.16519C21 5.867 20.9952 5.59593 20.9856 5.35197C20.976 5.10801 20.9553 4.90809 20.9233 4.75222C20.8913 4.61669 20.8433 4.49132 20.7794 4.37611C20.7155 4.26091 20.6276 4.16942 20.5157 4.10165C20.4038 4.03388 20.2648 4 20.0985 4Z" fill="black" fill-opacity="0.8"/>
</svg>
