<svg width="24" height="24" viewBox="0 0 24 24" fill="none" xmlns="http://www.w3.org/2000/svg">
<path d="M17.827 21C18.1209 21 18.3891 20.9968 18.6317 20.9904C18.8742 20.9841 19.0741 20.965 19.2313 20.9333C19.3612 20.9078 19.4859 20.8618 19.6055 20.7951C19.725 20.7284 19.8207 20.6411 19.8924 20.5331C19.9641 20.4251 20 20.2884 20 20.1233C20 19.8756 19.9129 19.6787 19.7387 19.5326C19.5644 19.3865 19.3475 19.3134 19.0878 19.3134C18.9101 19.3134 18.7308 19.3166 18.5497 19.3229C18.3686 19.3293 18.1585 19.3324 17.9193 19.3324C16.703 19.3324 15.7087 19.1879 14.9366 18.8988C14.1644 18.6098 13.5939 18.1302 13.2249 17.46C12.8559 16.7898 12.6714 15.8798 12.6714 14.73L12.6816 8.21228L12.5996 5.62043L14.6496 7.71677L18.0116 10.8422C18.0936 10.9185 18.1909 10.9756 18.3037 11.0137C18.4165 11.0519 18.5343 11.0709 18.6573 11.0709C18.9101 11.0709 19.1203 10.9915 19.2876 10.8327C19.4551 10.6739 19.5388 10.477 19.5388 10.2419C19.5388 10.0132 19.4466 9.80676 19.262 9.62254L12.4561 3.28587C12.258 3.09529 12.0291 3 11.7694 3C11.5097 3 11.2808 3.09529 11.0827 3.28587L4.287 9.62254C4.09567 9.80676 4 10.0132 4 10.2419C4 10.477 4.08371 10.6739 4.25112 10.8327C4.41854 10.9915 4.62866 11.0709 4.88149 11.0709C5.00448 11.0709 5.12236 11.0519 5.23511 11.0137C5.34786 10.9756 5.44523 10.9185 5.52723 10.8422L8.88918 7.71677L10.9289 5.62996L10.8572 8.21228V14.8158C10.8572 17.0328 11.4277 18.6178 12.5689 19.5706C13.71 20.5235 15.4628 21 17.827 21Z" fill="black" fill-opacity="0.8"/>
</svg>
