<svg width="24" height="24" viewBox="0 0 24 24" fill="none" xmlns="http://www.w3.org/2000/svg">
<path d="M6.16273 3C5.86889 3 5.60239 3.00476 5.36323 3.01429C5.12407 3.02382 4.9259 3.04129 4.76874 3.0667C4.63207 3.09211 4.50566 3.13658 4.3895 3.20011C4.27333 3.26363 4.17937 3.35098 4.10762 3.46215C4.03587 3.57332 4 3.71149 4 3.87665C4 4.1244 4.08542 4.32133 4.25625 4.46744C4.42708 4.61355 4.64574 4.68661 4.91224 4.68661C5.0899 4.68661 5.26757 4.68343 5.44523 4.67707C5.6229 4.67072 5.83131 4.66754 6.07048 4.66754C7.28679 4.66754 8.28274 4.81206 9.05831 5.10111C9.83388 5.39015 10.4062 5.86977 10.7752 6.53996C11.1442 7.21015 11.3252 8.12016 11.3184 9.26997L11.3082 15.7877L11.4004 18.3795L9.34018 16.2832L5.98847 13.1578C5.90647 13.0815 5.80739 13.0244 5.69123 12.9862C5.57506 12.9481 5.45548 12.9291 5.33248 12.9291C5.07965 12.9291 4.86953 13.0085 4.70212 13.1672C4.5347 13.3261 4.45099 13.523 4.45099 13.7581C4.45099 13.9868 4.54666 14.1932 4.73799 14.3775L11.5439 20.7141C11.7421 20.9047 11.9676 21 12.2204 21C12.4801 21 12.709 20.9047 12.9071 20.7141L19.713 14.3775C19.9043 14.1932 20 13.9868 20 13.7581C20 13.523 19.9163 13.3261 19.7489 13.1672C19.5815 13.0085 19.3679 12.9291 19.1083 12.9291C18.9921 12.9291 18.876 12.9481 18.7598 12.9862C18.6437 13.0244 18.5446 13.0815 18.4626 13.1578L15.1006 16.2832L13.0609 18.3701L13.1429 15.7877V9.18421C13.1429 6.96717 12.5723 5.38221 11.4312 4.42932C10.29 3.47644 8.53386 3 6.16273 3Z" fill="black" fill-opacity="0.8"/>
</svg>
