<svg width="24" height="24" viewBox="0 0 24 24" fill="none" xmlns="http://www.w3.org/2000/svg">
<path d="M3.90144 4C3.73521 4 3.59616 4.03388 3.48428 4.10165C3.3724 4.16942 3.2845 4.26091 3.22056 4.37611C3.15663 4.49132 3.11188 4.61669 3.08631 4.75222C3.05434 4.90809 3.03197 5.10801 3.01918 5.35197C3.00639 5.59593 3 5.867 3 6.16519C3 8.62516 3.49867 10.4125 4.496 11.5273C5.49334 12.6421 7.12999 13.1995 9.40596 13.1995H16.1092L18.4587 13.0572L15.227 16.1779L13.098 18.4752C13.0213 18.5565 12.9637 18.6548 12.9254 18.7701C12.887 18.8852 12.8678 19.0038 12.8678 19.1257C12.8678 19.3765 12.9494 19.5849 13.1124 19.7509C13.2755 19.917 13.4752 20 13.7118 20C13.9419 20 14.1561 19.8983 14.3543 19.695L20.7027 12.9759C20.9009 12.7726 21 12.5421 21 12.2846C21 12.0271 20.9009 11.8001 20.7027 11.6036L14.3351 4.85387C14.1497 4.6709 13.9419 4.57942 13.7118 4.57942C13.4752 4.57942 13.2755 4.66243 13.1124 4.82846C12.9494 4.9945 12.8678 5.20288 12.8678 5.45362C12.8678 5.5756 12.8886 5.69251 12.9302 5.80432C12.9718 5.91614 13.0277 6.01271 13.098 6.09403L15.227 8.39136L18.4683 11.5324L16.1092 11.3799H9.49227C8.31592 11.3799 7.38092 11.1986 6.68726 10.8361C5.9936 10.4735 5.49494 9.90258 5.19126 9.12326C4.88759 8.34392 4.73575 7.3274 4.73575 6.0737C4.73575 5.82973 4.74054 5.61796 4.75013 5.43838C4.75973 5.25879 4.76452 5.07751 4.76452 4.89454C4.76452 4.63024 4.68301 4.41508 4.51998 4.24905C4.35695 4.08302 4.15077 4 3.90144 4Z" fill="black" fill-opacity="0.8"/>
</svg>
