<svg width="24" height="24" viewBox="0 0 24 24" fill="none" xmlns="http://www.w3.org/2000/svg">
<path d="M13.3343 19.9908C13.6419 19.9908 13.8952 19.8889 14.0942 19.685C14.2932 19.4812 14.3928 19.2218 14.3928 18.9069V15.3679H14.6551C15.8251 15.3679 16.8594 15.4852 17.758 15.7199C18.6566 15.9546 19.4497 16.3576 20.1372 16.9289C20.8248 17.5002 21.4309 18.2923 21.9556 19.3052C22.1124 19.6016 22.2888 19.79 22.4848 19.8703C22.6807 19.9506 22.8752 19.9908 23.0682 19.9908C23.3095 19.9908 23.5251 19.8842 23.7151 19.6711C23.905 19.458 24 19.1508 24 18.7494C24 17.0385 23.8176 15.4991 23.4527 14.1311C23.0879 12.763 22.527 11.5942 21.7701 10.6245C21.0132 9.65487 20.0452 8.91372 18.8662 8.4011C17.6871 7.88847 16.2834 7.63216 14.6551 7.63216H14.3928V4.13025C14.3928 3.82144 14.2932 3.55586 14.0942 3.33351C13.8952 3.11117 13.6359 3 13.3162 3C13.0931 3 12.8941 3.05095 12.7192 3.15286C12.5443 3.25477 12.3362 3.42307 12.095 3.65777L4.95741 10.4948C4.78854 10.6554 4.66943 10.8206 4.60008 10.9905C4.53072 11.1603 4.49605 11.3286 4.49605 11.4954C4.49605 11.656 4.53072 11.8227 4.60008 11.9956C4.66943 12.1686 4.78854 12.3323 4.95741 12.4867L12.095 19.3886C12.3121 19.5986 12.5171 19.7514 12.7101 19.8472C12.9031 19.9429 13.1112 19.9908 13.3343 19.9908ZM8.8383 20C9.1459 20 9.39919 19.9197 9.59817 19.7591C9.79721 19.5986 9.89673 19.4102 9.89673 19.194V18.8791L4.08895 13.3853C3.81153 13.1259 3.59593 12.8356 3.44214 12.5145C3.28836 12.1933 3.21146 11.8567 3.21146 11.5046C3.21146 11.1526 3.28685 10.816 3.43762 10.4948C3.58839 10.1737 3.8055 9.8803 4.08895 9.61473L9.89673 4.1673V3.85232C9.89673 3.62997 9.79569 3.43388 9.59363 3.26403C9.39162 3.09419 9.13381 3.00926 8.8202 3.00926C8.59706 3.00926 8.39804 3.06022 8.22314 3.16213C8.04825 3.26403 7.84018 3.43233 7.59894 3.66703L0.452318 10.5041C0.283453 10.6709 0.16585 10.8407 0.0995101 11.0136C0.03317 11.1866 0 11.3502 0 11.5046C0 11.6529 0.03317 11.8135 0.0995101 11.9864C0.16585 12.1593 0.283453 12.3292 0.452318 12.496L7.59894 19.3979C7.81003 19.6079 8.01357 19.7607 8.20957 19.8565C8.40558 19.9522 8.61516 20 8.8383 20Z" fill="black" fill-opacity="0.8"/>
</svg>
