<svg width="24" height="24" viewBox="0 0 24 24" fill="none" xmlns="http://www.w3.org/2000/svg">
<path d="M20.0985 20C20.2648 20 20.4038 19.9644 20.5157 19.8932C20.6276 19.8221 20.7155 19.7289 20.7794 19.6137C20.8433 19.4985 20.8913 19.3731 20.9233 19.2375C20.9553 19.0817 20.976 18.8834 20.9856 18.6429C20.9952 18.4023 21 18.133 21 17.8348C21 15.3748 20.5013 13.5874 19.5039 12.4727C18.5066 11.3579 16.87 10.8005 14.594 10.8005H7.89078L5.54129 10.9428L8.77304 7.81193L10.902 5.51461C10.9787 5.43329 11.0362 5.33672 11.0746 5.2249C11.1129 5.11308 11.1321 4.99618 11.1321 4.8742C11.1321 4.62346 11.0522 4.41508 10.8924 4.24905C10.7325 4.08302 10.5344 4 10.2978 4C10.0677 4 9.85029 4.10165 9.64571 4.30495L3.29728 11.0241C3.09909 11.2206 3 11.4477 3 11.7052C3 11.9627 3.09909 12.1931 3.29728 12.3964L9.66488 19.1359C9.85668 19.3257 10.0677 19.4205 10.2978 19.4205C10.5344 19.4205 10.7325 19.3375 10.8924 19.1715C11.0522 19.0055 11.1321 18.7971 11.1321 18.5464C11.1321 18.4244 11.1129 18.3058 11.0746 18.1906C11.0362 18.0754 10.9787 17.9771 10.902 17.8958L8.77304 15.5984L5.53169 12.4676L7.89078 12.6201H14.5078C15.6841 12.6201 16.619 12.7996 17.3127 13.1588C18.0064 13.518 18.5051 14.0872 18.8087 14.8665C19.1124 15.6459 19.2642 16.6658 19.2642 17.9263C19.2642 18.1635 19.261 18.3735 19.2546 18.5565C19.2483 18.7395 19.2451 18.919 19.2451 19.0952C19.2451 19.3596 19.325 19.5764 19.4848 19.7458C19.6446 19.9153 19.8492 20 20.0985 20Z" fill="black" fill-opacity="0.8"/>
</svg>
