<svg width="24" height="24" viewBox="0 0 24 24" fill="none" xmlns="http://www.w3.org/2000/svg">
<path d="M6.16273 21C8.53386 21 10.29 20.5235 11.4312 19.5706C12.5723 18.6178 13.1429 17.0328 13.1429 14.8158V8.21228L13.0609 5.62996L15.1006 7.71677L18.4626 10.8422C18.5446 10.9185 18.6437 10.9756 18.7598 11.0137C18.876 11.0519 18.9921 11.0709 19.1083 11.0709C19.3679 11.0709 19.5815 10.9915 19.7489 10.8327C19.9163 10.6739 20 10.477 20 10.2419C20 10.0132 19.9043 9.80676 19.713 9.62254L12.9071 3.28587C12.709 3.09529 12.4801 3 12.2204 3C11.9676 3 11.7421 3.09529 11.5439 3.28587L4.73799 9.62254C4.54666 9.80676 4.45099 10.0132 4.45099 10.2419C4.45099 10.477 4.5347 10.6739 4.70212 10.8327C4.86953 10.9915 5.07965 11.0709 5.33248 11.0709C5.45548 11.0709 5.57506 11.0519 5.69123 11.0137C5.80739 10.9756 5.90647 10.9185 5.98847 10.8422L9.34018 7.71677L11.4004 5.62043L11.3082 8.21228L11.3184 14.73C11.3252 15.8798 11.1442 16.7898 10.7752 17.46C10.4062 18.1302 9.83388 18.6098 9.05831 18.8988C8.28274 19.1879 7.28679 19.3324 6.07048 19.3324C5.83131 19.3324 5.6229 19.3293 5.44523 19.3229C5.26757 19.3166 5.0899 19.3134 4.91224 19.3134C4.64574 19.3134 4.42708 19.3865 4.25625 19.5326C4.08542 19.6787 4 19.8756 4 20.1233C4 20.2884 4.03587 20.4251 4.10762 20.5331C4.17937 20.6411 4.27333 20.7284 4.3895 20.7951C4.50566 20.8618 4.63207 20.9078 4.76874 20.9333C4.9259 20.965 5.12407 20.9841 5.36323 20.9904C5.60239 20.9968 5.86889 21 6.16273 21Z" fill="black" fill-opacity="0.8"/>
</svg>
