<svg width="24" height="24" viewBox="0 0 24 24" fill="none" xmlns="http://www.w3.org/2000/svg">
<path d="M12 22C12.2744 22 12.4995 21.9135 12.6755 21.7406C12.8514 21.5677 12.9393 21.3436 12.9393 21.0683V7.12439L12.8338 3.9693L12.2322 4.18105L16.021 8.34197L18.4274 10.7136C18.5119 10.7983 18.6121 10.8618 18.7282 10.9042C18.8443 10.9465 18.9657 10.9677 19.0923 10.9677C19.3527 10.9677 19.569 10.8795 19.7414 10.703C19.9138 10.5265 20 10.3077 20 10.0466C20 9.79247 19.905 9.56307 19.715 9.35838L12.7071 2.31763C12.6086 2.21175 12.4996 2.13234 12.3799 2.07941C12.2603 2.02647 12.1337 2 12 2C11.8733 2 11.7502 2.02647 11.6306 2.07941C11.511 2.13234 11.3984 2.21175 11.2929 2.31763L4.29551 9.35838C4.0985 9.56307 4 9.79247 4 10.0466C4 10.3077 4.08619 10.5265 4.25858 10.703C4.43096 10.8795 4.64732 10.9677 4.90765 10.9677C5.0343 10.9677 5.15567 10.9465 5.27177 10.9042C5.38786 10.8618 5.48813 10.7983 5.57256 10.7136L7.97889 8.34197L11.7572 4.18105L11.1662 3.9693L11.0607 7.12439V21.0683C11.0607 21.3436 11.1486 21.5677 11.3245 21.7406C11.5004 21.9135 11.7256 22 12 22Z" fill="black" fill-opacity="0.8"/>
</svg>
