<svg width="24" height="24" viewBox="0 0 24 24" fill="none" xmlns="http://www.w3.org/2000/svg">
<rect width="24" height="24" fill="white"/>
<path d="M12.0049 22C12.1215 22 12.2348 21.9763 12.345 21.929C12.4551 21.8815 12.5587 21.807 12.6559 21.7054L17.7377 16.2814C17.9126 16.0918 18 15.8717 18 15.6211C18 15.3503 17.9207 15.1319 17.762 14.966C17.6033 14.8001 17.3976 14.7172 17.145 14.7172C17.0219 14.7172 16.9118 14.7391 16.8146 14.7831C16.7175 14.8271 16.63 14.8898 16.5523 14.9711L14.3466 17.3479L12.7725 19.2473L12.8697 16.8908V7.1092L12.7725 4.75266L14.3466 6.65212L16.5523 9.02895C16.63 9.11021 16.7175 9.17285 16.8146 9.21687C16.9118 9.26088 17.0219 9.28289 17.145 9.28289C17.3976 9.28289 17.6033 9.19994 17.762 9.03404C17.9207 8.86813 18 8.64974 18 8.37888C18 8.12832 17.9126 7.90825 17.7377 7.71865L12.6559 2.29457C12.5587 2.19299 12.4551 2.1185 12.345 2.0711C12.2348 2.0237 12.1215 2 12.0049 2C11.8818 2 11.7652 2.0237 11.6551 2.0711C11.545 2.1185 11.4446 2.19299 11.3539 2.29457L6.27207 7.71865C6.09069 7.90825 6 8.12832 6 8.37888C6 8.64974 6.07935 8.86813 6.23806 9.03404C6.39676 9.19994 6.60243 9.28289 6.85506 9.28289C6.97814 9.28289 7.08826 9.26088 7.18543 9.21687C7.2826 9.17285 7.37005 9.11021 7.44778 9.02895L9.66317 6.65212L11.2276 4.75266L11.1401 7.1092V16.8908L11.2276 19.2473L9.66317 17.3479L7.44778 14.9711C7.37005 14.8898 7.2826 14.8271 7.18543 14.7831C7.08826 14.7391 6.97814 14.7172 6.85506 14.7172C6.60243 14.7172 6.39676 14.8001 6.23806 14.966C6.07935 15.1319 6 15.3503 6 15.6211C6 15.8717 6.09069 16.0918 6.27207 16.2814L11.3539 21.7054C11.4446 21.807 11.545 21.8815 11.6551 21.929C11.7652 21.9763 11.8818 22 12.0049 22Z" fill="black" fill-opacity="0.8"/>
</svg>
