<svg width="24" height="24" viewBox="0 0 24 24" fill="none" xmlns="http://www.w3.org/2000/svg">
<path d="M6.0111 3.29209L1.26325 8.22289C1.08775 8.408 1 8.61863 1 8.8548C1 9.11011 1.07678 9.31596 1.23034 9.47234C1.3839 9.62873 1.58291 9.70692 1.82735 9.70692C2.05926 9.70692 2.25669 9.62394 2.41966 9.45798L4.37521 7.39949L5.88888 5.61867L5.79487 7.83034V20.1334C5.79487 20.3823 5.87321 20.5881 6.02991 20.7509C6.1866 20.9137 6.39031 20.9951 6.64102 20.9951C6.88546 20.9951 7.08603 20.9137 7.24273 20.7509C7.39942 20.5881 7.47777 20.3823 7.47777 20.1334V7.83034L7.39315 5.61867L8.89742 7.39949L10.8623 9.45798C11.0191 9.62394 11.2134 9.70692 11.4453 9.70692C11.6897 9.70692 11.8887 9.62873 12.0423 9.47234C12.1959 9.31596 12.2726 9.11011 12.2726 8.8548C12.2726 8.61863 12.1849 8.408 12.0093 8.22289L7.27093 3.29209C7.09543 3.10061 6.88546 3.00327 6.64102 3.00008C6.39658 2.99688 6.1866 3.09422 6.0111 3.29209ZM17.9982 20.7175L22.7367 15.7674C22.9122 15.5888 23 15.3781 23 15.1356C23 14.8803 22.9232 14.676 22.7696 14.5228C22.616 14.3696 22.417 14.293 22.1726 14.293C21.9407 14.293 21.7464 14.3728 21.5897 14.5324L19.6342 16.5909L18.1205 18.3813L18.2051 16.1696V3.86656C18.2051 3.61762 18.1268 3.41177 17.9701 3.24901C17.8134 3.08625 17.6128 3.00486 17.3684 3.00486C17.1239 3.00486 16.9218 3.08625 16.762 3.24901C16.6021 3.41177 16.5222 3.61762 16.5222 3.86656V16.1696L16.6162 18.3813L15.1025 16.5909L13.147 14.5324C12.984 14.3728 12.7897 14.293 12.5641 14.293C12.3197 14.293 12.1191 14.3696 11.9624 14.5228C11.8057 14.676 11.7274 14.8803 11.7274 15.1356C11.7274 15.3781 11.8182 15.5888 12 15.7674L16.7385 20.7175C16.914 20.9026 17.1224 20.9967 17.3637 20.9999C17.6049 21.0031 17.8165 20.9089 17.9982 20.7175Z" fill="black" fill-opacity="0.8"/>
</svg>
