<svg width="24" height="24" viewBox="0 0 24 24" fill="none" xmlns="http://www.w3.org/2000/svg">
<rect width="24" height="24" fill="white"/>
<path d="M1.30583 12.6857L4.36131 15.5713C4.57774 15.7745 4.80053 15.8666 5.02969 15.8475C5.25885 15.8285 5.453 15.7301 5.61214 15.5523C5.77127 15.3745 5.85084 15.1491 5.85084 14.8761V12.8571H11.1501V18.1617H9.11639C8.84267 18.1617 8.61669 18.2395 8.43845 18.3951C8.26022 18.5506 8.16155 18.7443 8.14245 18.976C8.12336 19.2077 8.21566 19.4283 8.41936 19.6379L11.3125 22.6854C11.5162 22.9013 11.7486 23.006 12.0096 22.9997C12.2705 22.9934 12.4997 22.8854 12.697 22.6759L15.5806 19.6379C15.7843 19.4283 15.8782 19.2077 15.8623 18.976C15.8464 18.7443 15.7477 18.5506 15.5663 18.3951C15.3849 18.2395 15.1573 18.1617 14.8836 18.1617H12.8594V12.8571H18.1491V14.8761C18.1491 15.1491 18.2287 15.3745 18.3879 15.5523C18.547 15.7301 18.7411 15.8285 18.9703 15.8475C19.1995 15.8666 19.4223 15.7745 19.6387 15.5713L22.6846 12.6952C22.8883 12.4984 22.9933 12.2698 22.9997 12.0095C23.0061 11.7492 22.9043 11.5175 22.6942 11.3143L19.6387 8.42866C19.4223 8.22549 19.1995 8.13342 18.9703 8.15247C18.7411 8.17151 18.547 8.26993 18.3879 8.4477C18.2287 8.62548 18.1491 8.85087 18.1491 9.12388V11.1524H12.8594V5.83825H14.8836C15.1573 5.83825 15.3849 5.75888 15.5663 5.60016C15.7477 5.44143 15.8464 5.24778 15.8623 5.01921C15.8782 4.79065 15.7843 4.57161 15.5806 4.36209L12.6875 1.31455C12.4838 1.09868 12.253 0.993923 11.9952 1.00027C11.7374 1.00662 11.5067 1.11455 11.303 1.32407L8.41936 4.36209C8.21566 4.57161 8.12336 4.79065 8.14245 5.01921C8.16155 5.24778 8.26022 5.44143 8.43845 5.60016C8.61669 5.75888 8.84267 5.83825 9.11639 5.83825H11.1501V11.1524H5.85084V9.12388C5.85084 8.85087 5.77127 8.62548 5.61214 8.4477C5.453 8.26993 5.25885 8.17151 5.02969 8.15247C4.80053 8.13342 4.57774 8.22549 4.36131 8.42866L1.31538 11.3048C1.11168 11.5016 1.00665 11.7301 1.00028 11.9905C0.993915 12.2508 1.09576 12.4825 1.30583 12.6857Z" fill="black" fill-opacity="0.8"/>
</svg>
