<svg width="24" height="24" viewBox="0 0 24 24" fill="none" xmlns="http://www.w3.org/2000/svg">
<path d="M4 15.9566C4 16.2529 4.0993 16.4986 4.2979 16.6937C4.4965 16.8888 4.7258 16.9864 4.98578 16.9864C5.25299 16.9864 5.48229 16.8852 5.67367 16.6829C5.86505 16.4805 5.96074 16.2529 5.96074 15.9999V11.9891L5.76575 6.92683L7.55315 8.95392L18.2993 19.7073C18.4943 19.9024 18.7218 20 18.9818 20C19.1623 20 19.3302 19.953 19.4855 19.859C19.6407 19.7651 19.7653 19.6405 19.8592 19.4851C19.9531 19.3297 20 19.1653 20 18.9919C20 18.7389 19.8989 18.5113 19.6967 18.3089L8.96142 7.54471L6.94652 5.77777L12.2329 5.95121H16.0027C16.2555 5.95121 16.4812 5.85546 16.6798 5.66395C16.8784 5.47244 16.9777 5.24661 16.9777 4.98645C16.9777 4.72629 16.8838 4.49684 16.696 4.2981C16.5083 4.09937 16.2627 4 15.9593 4H5.06161C4.73663 4 4.48025 4.09756 4.29249 4.29268C4.10472 4.4878 4.01083 4.74074 4.01083 5.05149L4 15.9566Z" fill="black" fill-opacity="0.8"/>
</svg>
