<svg width="24" height="24" viewBox="0 0 24 24" fill="none" xmlns="http://www.w3.org/2000/svg">
<rect width="24" height="24" fill="white"/>
<path d="M2 7.6515C2 7.95849 2.0907 8.18699 2.27211 8.337C2.45351 8.48701 2.66632 8.55329 2.91052 8.53585C3.15472 8.51841 3.3745 8.40852 3.56986 8.20618L8.20618 3.56986C8.40852 3.36752 8.51841 3.14425 8.53585 2.90005C8.55329 2.65585 8.48701 2.44479 8.337 2.26688C8.18699 2.08896 7.95849 2 7.6515 2H2.95238C2.65934 2 2.42735 2.08896 2.25641 2.26688C2.08547 2.44479 2 2.67678 2 2.96285V7.6515ZM4.70016 6.01884L17.9603 19.2894L19.2894 17.9812L6.02931 4.70016L4.70016 6.01884ZM22 16.3485C22 16.0415 21.9093 15.813 21.7279 15.663C21.5465 15.513 21.3337 15.4468 21.0895 15.4642C20.8453 15.4816 20.622 15.588 20.4197 15.7833L15.7833 20.4197C15.588 20.622 15.4816 20.8453 15.4642 21.0895C15.4468 21.3337 15.513 21.5465 15.663 21.7279C15.813 21.9093 16.0415 22 16.3485 22H21.0476C21.3407 22 21.5727 21.9093 21.7437 21.7279C21.9146 21.5465 22 21.3163 22 21.0372V16.3485ZM22 7.6515V2.96285C22 2.67678 21.9146 2.44479 21.7437 2.26688C21.5727 2.08896 21.3407 2 21.0476 2H16.3485C16.0415 2 15.813 2.08896 15.663 2.26688C15.513 2.44479 15.4468 2.65585 15.4642 2.90005C15.4816 3.14425 15.588 3.36752 15.7833 3.56986L20.4197 8.20618C20.622 8.40852 20.8453 8.51841 21.0895 8.53585C21.3337 8.55329 21.5465 8.48701 21.7279 8.337C21.9093 8.18699 22 7.95849 22 7.6515ZM6.02931 19.2894L19.2999 6.01884L17.9707 4.70016L4.70016 17.9707L6.02931 19.2894ZM2 16.3485V21.0372C2 21.3163 2.08547 21.5465 2.25641 21.7279C2.42735 21.9093 2.65934 22 2.95238 22H7.6515C7.95849 22 8.18699 21.9093 8.337 21.7279C8.48701 21.5465 8.55329 21.3337 8.53585 21.0895C8.51841 20.8453 8.40852 20.622 8.20618 20.4197L3.56986 15.7833C3.3745 15.588 3.15472 15.4816 2.91052 15.4642C2.66632 15.4468 2.45351 15.513 2.27211 15.663C2.0907 15.813 2 16.0415 2 16.3485Z" fill="black" fill-opacity="0.8"/>
</svg>
