<svg width="24" height="24" viewBox="0 0 24 24" fill="none" xmlns="http://www.w3.org/2000/svg">
<path d="M20 15.2093L19.9892 4.98577C19.9892 4.69444 19.8954 4.45732 19.7076 4.27439C19.5198 4.09146 19.2634 4 18.9384 4H8.04063C7.73731 4 7.49177 4.09316 7.30401 4.27947C7.11623 4.46578 7.02235 4.68089 7.02235 4.92479C7.02235 5.16869 7.12165 5.38041 7.32025 5.55995C7.51885 5.73949 7.74454 5.82926 7.9973 5.82926H11.7671L17.0535 5.66666L15.0386 7.32317L4.30332 17.4146C4.10111 17.6043 4 17.8178 4 18.0549C4 18.2174 4.04694 18.3716 4.14083 18.5172C4.23471 18.6629 4.35748 18.7798 4.50914 18.8678C4.6608 18.9559 4.8269 19 5.00745 19C5.26744 19 5.49493 18.9085 5.68992 18.7256L16.4469 8.6443L18.2343 6.7439L18.0392 11.4898V15.2499C18.0392 15.4871 18.1349 15.7005 18.3263 15.8902C18.5177 16.0799 18.747 16.1747 19.0143 16.1747C19.2742 16.1747 19.5035 16.0833 19.7022 15.9003C19.9007 15.7175 20 15.4871 20 15.2093Z" fill="black" fill-opacity="0.8"/>
</svg>
