<svg width="24" height="24" viewBox="0 0 24 24" fill="none" xmlns="http://www.w3.org/2000/svg">
<rect width="24" height="24" fill="white"/>
<path d="M12.0053 21C12.2784 21 12.5025 20.9149 12.6776 20.7448C12.8527 20.5746 12.9403 20.3568 12.9403 20.0914V9.77936L12.8667 7.59444L16.0289 10.9535L18.3821 13.2099C18.4662 13.2915 18.5677 13.3545 18.6868 13.3988C18.8059 13.443 18.9285 13.4651 19.0545 13.4651C19.3206 13.4651 19.5395 13.3784 19.7112 13.2048C19.8828 13.0312 19.9686 12.8185 19.9686 12.5666C19.9686 12.4441 19.9423 12.3267 19.8897 12.2144C19.8372 12.1021 19.7585 11.9915 19.6534 11.8826L12.7092 5.12365C12.6111 5.02156 12.5008 4.94328 12.3782 4.88882C12.2557 4.83438 12.1313 4.80715 12.0053 4.80715C11.8722 4.80715 11.7461 4.83438 11.6271 4.88882C11.508 4.94328 11.3995 5.02156 11.3014 5.12365L4.34669 11.8826C4.24863 11.9915 4.17334 12.1021 4.12081 12.2144C4.06829 12.3267 4.04202 12.4441 4.04202 12.5666C4.04202 12.8185 4.12782 13.0312 4.29941 13.2048C4.471 13.3784 4.68987 13.4651 4.95601 13.4651C5.08208 13.4651 5.20464 13.443 5.32371 13.3988C5.44277 13.3545 5.54432 13.2915 5.62837 13.2099L7.98163 10.9535L11.1438 7.58423L11.0598 9.77936V20.0914C11.0598 20.3568 11.1491 20.5746 11.3277 20.7448C11.5063 20.9149 11.7321 21 12.0053 21ZM4.90348 4.82757H19.0756C19.3487 4.82757 19.5711 4.74249 19.7427 4.57232C19.9142 4.40216 20 4.18435 20 3.91889C20 3.65343 19.9142 3.43392 19.7427 3.26035C19.5711 3.08678 19.3487 3 19.0756 3H4.90348C4.63734 3 4.42022 3.08678 4.25213 3.26035C4.08404 3.43392 4 3.65343 4 3.91889C4 4.18435 4.08404 4.40216 4.25213 4.57232C4.42022 4.74249 4.63734 4.82757 4.90348 4.82757Z" fill="black" fill-opacity="0.8"/>
</svg>
