<svg width="24" height="24" viewBox="0 0 24 24" fill="none" xmlns="http://www.w3.org/2000/svg">
<path d="M21 14.8457C21 13.6174 20.7349 12.5354 20.2048 11.5997C19.6746 10.664 18.9016 9.9325 17.8858 9.40517C16.8699 8.87783 15.6381 8.61416 14.1905 8.61416H7.79048L4.8381 8.74921L5.00953 9.19294L7.36192 7.15757L10.1143 4.4373C10.1841 4.36013 10.2397 4.27332 10.281 4.17686C10.3222 4.08039 10.3429 3.97106 10.3429 3.84888C10.3429 3.59808 10.2651 3.3939 10.1095 3.23634C9.95398 3.07878 9.74922 3 9.49525 3C9.26033 3 9.05716 3.09003 8.88573 3.2701L3.28571 8.83602C3.19048 8.92606 3.11905 9.02574 3.07143 9.13507C3.02381 9.24439 3 9.36014 3 9.48233C3 9.59809 3.02381 9.71063 3.07143 9.81996C3.11905 9.92928 3.19048 10.029 3.28571 10.119L8.88573 15.6849C9.05716 15.865 9.26033 15.955 9.49525 15.955C9.74922 15.955 9.95398 15.8762 10.1095 15.7187C10.2651 15.5611 10.3429 15.357 10.3429 15.1062C10.3429 14.984 10.3222 14.8746 10.281 14.7781C10.2397 14.6817 10.1841 14.5948 10.1143 14.5177L7.36192 11.8071L5.00953 9.76207L4.8381 10.2058L7.79048 10.3409H14.3334C15.4191 10.3409 16.3302 10.5274 17.0667 10.9003C17.8032 11.2733 18.3587 11.7926 18.7333 12.4582C19.108 13.1238 19.2953 13.8875 19.2953 14.7492C19.2953 15.6174 19.108 16.3923 18.7333 17.074C18.3587 17.7557 17.8032 18.2943 17.0667 18.6898C16.3302 19.0853 15.4191 19.283 14.3334 19.283H12.1429C11.8826 19.283 11.673 19.3666 11.5143 19.5338C11.3556 19.701 11.2762 19.9036 11.2762 20.1415C11.2762 20.3794 11.3556 20.582 11.5143 20.7492C11.673 20.9164 11.8826 21 12.1429 21H14.3429C15.7651 21 16.9715 20.7444 17.9619 20.2332C18.9524 19.7219 19.7063 19.0048 20.2238 18.082C20.7413 17.1592 21 16.0804 21 14.8457Z" fill="black" fill-opacity="0.8"/>
</svg>
