<svg width="24" height="24" viewBox="0 0 24 24" fill="none" xmlns="http://www.w3.org/2000/svg">
<path d="M3 14.8457C3 16.0804 3.25873 17.1592 3.77619 18.082C4.29365 19.0048 5.04762 19.7219 6.0381 20.2332C7.02858 20.7444 8.23493 21 9.65715 21H11.8572C12.1175 21 12.327 20.9164 12.4857 20.7492C12.6445 20.582 12.7238 20.3794 12.7238 20.1415C12.7238 19.9036 12.6445 19.701 12.4857 19.5338C12.327 19.3666 12.1175 19.283 11.8572 19.283H9.66668C8.58097 19.283 7.66985 19.0853 6.93334 18.6898C6.19683 18.2943 5.63969 17.7557 5.26191 17.074C4.88413 16.3923 4.69524 15.6174 4.69524 14.7492C4.69524 13.8875 4.88413 13.1238 5.26191 12.4582C5.63969 11.7926 6.19683 11.2733 6.93334 10.9003C7.66985 10.5274 8.58097 10.3409 9.66668 10.3409H16.2001L19.162 10.2058L18.9905 9.76207L16.6286 11.8071L13.8857 14.5177C13.8095 14.5948 13.7524 14.6817 13.7143 14.7781C13.6762 14.8746 13.6571 14.984 13.6571 15.1062C13.6571 15.357 13.7333 15.5611 13.8857 15.7187C14.0381 15.8762 14.2413 15.955 14.4952 15.955C14.7365 15.955 14.9429 15.865 15.1143 15.6849L20.7144 10.119C20.8095 10.029 20.881 9.92928 20.9286 9.81996C20.9762 9.71063 21 9.59809 21 9.48233C21 9.36014 20.9762 9.24439 20.9286 9.13507C20.881 9.02574 20.8095 8.92606 20.7144 8.83602L15.1143 3.2701C14.9429 3.09003 14.7365 3 14.4952 3C14.2413 3 14.0381 3.07878 13.8857 3.23634C13.7333 3.3939 13.6571 3.59808 13.6571 3.84888C13.6571 3.97106 13.6762 4.08039 13.7143 4.17686C13.7524 4.27332 13.8095 4.36013 13.8857 4.4373L16.6286 7.15757L18.9905 9.19294L19.162 8.74921L16.2001 8.61416H9.80953C8.36191 8.61416 7.13017 8.87783 6.11429 9.40517C5.09842 9.9325 4.3254 10.664 3.79524 11.5997C3.26508 12.5354 3 13.6174 3 14.8457Z" fill="black" fill-opacity="0.8"/>
</svg>
