<svg width="24" height="24" viewBox="0 0 24 24" fill="none" xmlns="http://www.w3.org/2000/svg">
<path d="M14.8456 3C13.6174 3 12.5354 3.26596 11.5997 3.79789C10.664 4.32981 9.93246 5.10078 9.40513 6.11081C8.8778 7.12084 8.61413 8.35091 8.61413 9.80104V16.2222L8.74918 19.1667L9.19291 18.9957L7.15754 16.6496L4.4373 13.914C4.36013 13.838 4.27331 13.7794 4.17685 13.7382C4.08038 13.6971 3.97106 13.6765 3.84887 13.6765C3.59807 13.6765 3.39389 13.7541 3.23633 13.9092C3.07878 14.0644 3 14.2686 3 14.5219C3 14.7562 3.09003 14.962 3.2701 15.1393L8.836 20.7245C8.92603 20.8195 9.02571 20.8891 9.13504 20.9335C9.24436 20.9778 9.36011 21 9.4823 21C9.59805 21 9.7106 20.9778 9.81992 20.9335C9.92924 20.8891 10.0289 20.8195 10.119 20.7245L15.6849 15.1393C15.8649 14.962 15.9549 14.7562 15.9549 14.5219C15.9549 14.2686 15.8762 14.0644 15.7186 13.9092C15.5611 13.7541 15.3569 13.6765 15.1061 13.6765C14.9839 13.6765 14.8746 13.6971 14.7781 13.7382C14.6816 13.7794 14.5948 13.838 14.5177 13.914L11.8071 16.6496L9.76204 18.9957L10.2058 19.1667L10.3408 16.2222V9.64906C10.3408 8.57255 10.5273 7.66543 10.9003 6.9277C11.2733 6.18997 11.7926 5.63429 12.4582 5.26068C13.1237 4.88707 13.8874 4.70026 14.7491 4.70026C15.6173 4.70026 16.3922 4.88707 17.0739 5.26068C17.7556 5.63429 18.2942 6.18997 18.6897 6.9277C19.0852 7.66543 19.2829 8.57255 19.2829 9.64906V11.8338C19.2829 12.0997 19.3665 12.3103 19.5337 12.4654C19.7009 12.6206 19.9035 12.6981 20.1414 12.6981C20.3793 12.6981 20.5819 12.619 20.7492 12.4607C20.9164 12.3024 21 12.0934 21 11.8338V9.64906C21 8.2306 20.7444 7.02585 20.2331 6.03482C19.7218 5.0438 19.0048 4.29024 18.082 3.77414C17.1592 3.25805 16.0804 3 14.8456 3Z" fill="black" fill-opacity="0.8"/>
</svg>
