<svg width="24" height="24" viewBox="0 0 24 24" fill="none" xmlns="http://www.w3.org/2000/svg">
<path d="M9.15433 21C10.3826 21 11.4646 20.7356 12.4003 20.2068C13.336 19.6781 14.0675 18.9071 14.5948 17.8939C15.1222 16.8807 15.3859 15.6522 15.3859 14.2084V7.77782L15.2507 4.83324L14.807 5.00422L16.852 7.35038L19.5627 10.086C19.6399 10.162 19.7267 10.2206 19.8231 10.2617C19.9195 10.3029 20.0289 10.3235 20.1511 10.3235C20.4019 10.3235 20.606 10.2459 20.7636 10.0907C20.9212 9.9356 21 9.73138 21 9.47808C21 9.24378 20.9132 9.03798 20.7395 8.86067L15.1736 3.27546C15.0771 3.18047 14.9742 3.11082 14.8649 3.06649C14.7556 3.02216 14.643 3 14.5273 3C14.4051 3 14.2894 3.02216 14.1801 3.06649C14.0707 3.11082 13.971 3.18047 13.881 3.27546L8.3151 8.86067C8.13503 9.03798 8.045 9.24378 8.045 9.47808C8.045 9.73138 8.12539 9.9356 8.28616 10.0907C8.44693 10.2459 8.6495 10.3235 8.89388 10.3235C9.0225 10.3235 9.13503 10.3029 9.23149 10.2617C9.32796 10.2206 9.41478 10.162 9.49195 10.086L12.2026 7.35038L14.2475 5.00422L13.7942 4.83324L13.6688 7.77782V14.3509C13.6688 15.4337 13.4807 16.3424 13.1045 17.077C12.7283 17.8116 12.209 18.3673 11.5466 18.744C10.8842 19.1208 10.1189 19.3092 9.25078 19.3092C8.38263 19.3092 7.60771 19.1208 6.92604 18.744C6.24436 18.3673 5.70578 17.8116 5.31029 17.077C4.91479 16.3424 4.71704 15.4337 4.71704 14.3509V12.1662C4.71704 11.9066 4.63344 11.6976 4.46624 11.5393C4.29903 11.381 4.09646 11.3018 3.85852 11.3018C3.62058 11.3018 3.41801 11.381 3.2508 11.5393C3.0836 11.6976 3 11.9066 3 12.1662V14.3604C3 15.7789 3.25723 16.982 3.7717 17.9699C4.28617 18.9578 5.00482 19.7098 5.92765 20.2259C6.85047 20.742 7.92603 21 9.15433 21Z" fill="black" fill-opacity="0.8"/>
</svg>
