<svg width="24" height="24" viewBox="0 0 24 24" fill="none" xmlns="http://www.w3.org/2000/svg">
<path d="M12.0242 1.57389C12.2498 1.57389 12.4366 1.49986 12.5849 1.35181C12.7331 1.20375 12.8072 1.01707 12.8072 0.791772C12.8072 0.572908 12.7315 0.38623 12.58 0.231738C12.4286 0.0772461 12.2433 0 12.0242 0C11.8051 0 11.6182 0.0772461 11.4635 0.231738C11.3088 0.38623 11.2315 0.572908 11.2315 0.791772C11.2315 1.01063 11.3072 1.1957 11.4587 1.34697C11.6101 1.49825 11.7986 1.57389 12.0242 1.57389ZM7.40357 4.23888C7.62912 4.23888 7.81762 4.16324 7.96906 4.01197C8.1205 3.86069 8.19623 3.6724 8.19623 3.44711C8.19623 3.22824 8.11889 3.04157 7.96423 2.88707C7.80957 2.73258 7.62268 2.65534 7.40357 2.65534C7.19091 2.65534 7.00563 2.73419 6.84775 2.8919C6.68986 3.04961 6.61092 3.23468 6.61092 3.44711C6.61092 3.66597 6.68825 3.85265 6.84292 4.00714C6.99758 4.16163 7.18446 4.23888 7.40357 4.23888ZM16.6351 4.23888C16.8607 4.23888 17.0491 4.16324 17.2005 4.01197C17.352 3.86069 17.4277 3.6724 17.4277 3.44711C17.4277 3.22824 17.3504 3.04157 17.1958 2.88707C17.0411 2.73258 16.8542 2.65534 16.6351 2.65534C16.4224 2.65534 16.2371 2.73419 16.0792 2.8919C15.9214 3.04961 15.8424 3.23468 15.8424 3.44711C15.8424 3.66597 15.9198 3.85265 16.0745 4.00714C16.2291 4.16163 16.416 4.23888 16.6351 4.23888ZM2.79265 6.93284C3.01821 6.93284 3.20509 6.85881 3.35331 6.71075C3.50153 6.5627 3.57564 6.3728 3.57564 6.14107C3.57564 5.9222 3.49992 5.73713 3.34847 5.58585C3.19703 5.43458 3.01176 5.35894 2.79265 5.35894C2.57355 5.35894 2.38666 5.43619 2.232 5.59069C2.07733 5.74518 2 5.92864 2 6.14107C2 6.36636 2.07572 6.55465 2.22716 6.70593C2.3786 6.8572 2.5671 6.93284 2.79265 6.93284ZM12.0242 6.93284C12.2498 6.93284 12.4366 6.85881 12.5849 6.71075C12.7331 6.5627 12.8072 6.3728 12.8072 6.14107C12.8072 5.9222 12.7315 5.73713 12.58 5.58585C12.4286 5.43458 12.2433 5.35894 12.0242 5.35894C11.8051 5.35894 11.6182 5.43619 11.4635 5.59069C11.3088 5.74518 11.2315 5.92864 11.2315 6.14107C11.2315 6.36636 11.3072 6.55465 11.4587 6.70593C11.6101 6.8572 11.7986 6.93284 12.0242 6.93284ZM21.217 6.93284C21.4426 6.93284 21.6295 6.85881 21.7777 6.71075C21.9259 6.5627 22 6.3728 22 6.14107C22 5.9222 21.9243 5.73713 21.7728 5.58585C21.6214 5.43458 21.4361 5.35894 21.217 5.35894C20.9979 5.35894 20.811 5.43619 20.6564 5.59069C20.5017 5.74518 20.4244 5.92864 20.4244 6.14107C20.4244 6.36636 20.5017 6.55465 20.6564 6.70593C20.811 6.8572 20.9979 6.93284 21.217 6.93284ZM7.40357 9.60748C7.62912 9.60748 7.81762 9.53184 7.96906 9.38057C8.1205 9.22929 8.19623 9.04101 8.19623 8.81571C8.19623 8.59684 8.11889 8.41016 7.96423 8.25568C7.80957 8.10118 7.62268 8.02393 7.40357 8.02393C7.19091 8.02393 7.00563 8.10279 6.84775 8.2605C6.68986 8.41821 6.61092 8.60328 6.61092 8.81571C6.61092 9.03458 6.68825 9.22125 6.84292 9.37574C6.99758 9.53024 7.18446 9.60748 7.40357 9.60748ZM16.6351 9.60748C16.8607 9.60748 17.0491 9.53184 17.2005 9.38057C17.352 9.22929 17.4277 9.04101 17.4277 8.81571C17.4277 8.59684 17.3504 8.41016 17.1958 8.25568C17.0411 8.10118 16.8542 8.02393 16.6351 8.02393C16.4224 8.02393 16.2371 8.10279 16.0792 8.2605C15.9214 8.41821 15.8424 8.60328 15.8424 8.81571C15.8424 9.03458 15.9198 9.22125 16.0745 9.37574C16.2291 9.53024 16.416 9.60748 16.6351 9.60748ZM2.79265 12.2822C3.01821 12.2822 3.20509 12.2081 3.35331 12.0601C3.50153 11.912 3.57564 11.7254 3.57564 11.5C3.57564 11.2811 3.49992 11.0945 3.34847 10.94C3.19703 10.7855 3.01176 10.7083 2.79265 10.7083C2.57355 10.7083 2.38666 10.7855 2.232 10.94C2.07733 11.0945 2 11.2811 2 11.5C2 11.7189 2.07572 11.904 2.22716 12.0552C2.3786 12.2065 2.5671 12.2822 2.79265 12.2822ZM12.0242 12.2822C12.2498 12.2822 12.4366 12.2081 12.5849 12.0601C12.7331 11.912 12.8072 11.7254 12.8072 11.5C12.8072 11.2811 12.7315 11.0945 12.58 10.94C12.4286 10.7855 12.2433 10.7083 12.0242 10.7083C11.8051 10.7083 11.6182 10.7855 11.4635 10.94C11.3088 11.0945 11.2315 11.2811 11.2315 11.5C11.2315 11.7189 11.3072 11.904 11.4587 12.0552C11.6101 12.2065 11.7986 12.2822 12.0242 12.2822ZM21.217 12.2822C21.4426 12.2822 21.6295 12.2081 21.7777 12.0601C21.9259 11.912 22 11.7254 22 11.5C22 11.2747 21.9243 11.0865 21.7728 10.9352C21.6214 10.7839 21.4361 10.7083 21.217 10.7083C20.9979 10.7083 20.811 10.7871 20.6564 10.9448C20.5017 11.1025 20.4244 11.2876 20.4244 11.5C20.4244 11.7189 20.5017 11.904 20.6564 12.0552C20.811 12.2065 20.9979 12.2822 21.217 12.2822ZM7.40357 14.9664C7.62912 14.9664 7.81762 14.8924 7.96906 14.7443C8.1205 14.5963 8.19623 14.4096 8.19623 14.1843C8.19623 13.9655 8.11889 13.7788 7.96423 13.6243C7.80957 13.4698 7.62268 13.3925 7.40357 13.3925C7.19091 13.3925 7.00563 13.4698 6.84775 13.6243C6.68986 13.7788 6.61092 13.9655 6.61092 14.1843C6.61092 14.4032 6.68825 14.5882 6.84292 14.7395C6.99758 14.8908 7.18446 14.9664 7.40357 14.9664ZM16.6351 14.9664C16.8607 14.9664 17.0491 14.8924 17.2005 14.7443C17.352 14.5963 17.4277 14.4096 17.4277 14.1843C17.4277 13.9655 17.3504 13.7788 17.1958 13.6243C17.0411 13.4698 16.8542 13.3925 16.6351 13.3925C16.4224 13.3925 16.2371 13.4698 16.0792 13.6243C15.9214 13.7788 15.8424 13.9655 15.8424 14.1843C15.8424 14.4032 15.9198 14.5882 16.0745 14.7395C16.2291 14.8908 16.416 14.9664 16.6351 14.9664ZM2.79265 17.6411C3.01821 17.6411 3.20509 17.5671 3.35331 17.419C3.50153 17.271 3.57564 17.081 3.57564 16.8493C3.57564 16.6304 3.49992 16.4454 3.34847 16.2941C3.19703 16.1428 3.01176 16.0672 2.79265 16.0672C2.57355 16.0672 2.38666 16.1444 2.232 16.2989C2.07733 16.4535 2 16.6369 2 16.8493C2 17.0746 2.07572 17.2629 2.22716 17.4142C2.3786 17.5654 2.5671 17.6411 2.79265 17.6411ZM12.0242 17.6411C12.2498 17.6411 12.4366 17.5671 12.5849 17.419C12.7331 17.271 12.8072 17.081 12.8072 16.8493C12.8072 16.6304 12.7315 16.4454 12.58 16.2941C12.4286 16.1428 12.2433 16.0672 12.0242 16.0672C11.8051 16.0672 11.6182 16.1444 11.4635 16.2989C11.3088 16.4535 11.2315 16.6369 11.2315 16.8493C11.2315 17.0746 11.3072 17.2629 11.4587 17.4142C11.6101 17.5654 11.7986 17.6411 12.0242 17.6411ZM21.217 17.6411C21.4426 17.6411 21.6295 17.5671 21.7777 17.419C21.9259 17.271 22 17.081 22 16.8493C22 16.6304 21.9243 16.4454 21.7728 16.2941C21.6214 16.1428 21.4361 16.0672 21.217 16.0672C20.9979 16.0672 20.811 16.1444 20.6564 16.2989C20.5017 16.4535 20.4244 16.6369 20.4244 16.8493C20.4244 17.0746 20.5017 17.2629 20.6564 17.4142C20.811 17.5654 20.9979 17.6411 21.217 17.6411ZM7.40357 20.335C7.62912 20.335 7.81762 20.261 7.96906 20.1129C8.1205 19.9649 8.19623 19.7782 8.19623 19.5529C8.19623 19.3276 8.11889 19.1393 7.96423 18.988C7.80957 18.8368 7.62268 18.7611 7.40357 18.7611C7.19091 18.7611 7.00563 18.8384 6.84775 18.9929C6.68986 19.1474 6.61092 19.3341 6.61092 19.5529C6.61092 19.7718 6.68825 19.9568 6.84292 20.1081C6.99758 20.2594 7.18446 20.335 7.40357 20.335ZM16.6351 20.335C16.8607 20.335 17.0491 20.261 17.2005 20.1129C17.352 19.9649 17.4277 19.7782 17.4277 19.5529C17.4277 19.3276 17.3504 19.1393 17.1958 18.988C17.0411 18.8368 16.8542 18.7611 16.6351 18.7611C16.4224 18.7611 16.2371 18.8384 16.0792 18.9929C15.9214 19.1474 15.8424 19.3341 15.8424 19.5529C15.8424 19.7718 15.9198 19.9568 16.0745 20.1081C16.2291 20.2594 16.416 20.335 16.6351 20.335ZM12.0242 23C12.2498 23 12.4366 22.9244 12.5849 22.7731C12.7331 22.6218 12.8072 22.4335 12.8072 22.2082C12.8072 21.9894 12.7315 21.8027 12.58 21.6482C12.4286 21.4937 12.2433 21.4165 12.0242 21.4165C11.8051 21.4165 11.6182 21.4954 11.4635 21.653C11.3088 21.8108 11.2315 21.9958 11.2315 22.2082C11.2315 22.4271 11.3072 22.6138 11.4587 22.7682C11.6101 22.9227 11.7986 23 12.0242 23Z" fill="black" fill-opacity="0.8"/>
</svg>
