<svg width="24" height="24" viewBox="0 0 24 24" fill="none" xmlns="http://www.w3.org/2000/svg">
<g clip-path="url(#clip0_37_366)">
<path d="M10.0139 2.54414C10.3581 2.54414 10.647 2.42161 10.8806 2.17655C11.1142 1.93148 11.231 1.6316 11.231 1.2769C11.231 0.922208 11.1127 0.620718 10.876 0.372431C10.6394 0.124144 10.352 0 10.0139 0C9.68806 0 9.40528 0.125756 9.16553 0.377267C8.92579 0.628779 8.80592 0.928658 8.80592 1.2769C8.80592 1.62515 8.92425 1.92342 9.16092 2.1717C9.39757 2.41999 9.68189 2.54414 10.0139 2.54414ZM5.61551 5.21403C5.95975 5.21403 6.24713 5.0915 6.47765 4.84644C6.70817 4.60137 6.82343 4.29827 6.82343 3.93713C6.82343 3.58243 6.70664 3.28255 6.47304 3.03749C6.23945 2.79242 5.9536 2.66989 5.61551 2.66989C5.28355 2.66989 4.99924 2.79404 4.76258 3.04232C4.52591 3.29061 4.40757 3.58888 4.40757 3.93713C4.40757 4.29182 4.52437 4.59331 4.75796 4.8416C4.99156 5.08989 5.27741 5.21403 5.61551 5.21403ZM14.4214 5.21403C14.7656 5.21403 15.053 5.0915 15.2835 4.84644C15.5141 4.60137 15.6293 4.29827 15.6293 3.93713C15.6293 3.58243 15.5125 3.28255 15.2789 3.03749C15.0453 2.79242 14.7595 2.66989 14.4214 2.66989C14.0895 2.66989 13.8052 2.79404 13.5685 3.04232C13.3318 3.29061 13.2134 3.58888 13.2134 3.93713C13.2134 4.29182 13.3302 4.59331 13.5638 4.8416C13.7974 5.08989 14.0833 5.21403 14.4214 5.21403ZM1.21715 7.91294C1.55525 7.91294 1.8411 7.79041 2.0747 7.54535C2.30829 7.30028 2.42509 6.99718 2.42509 6.63604C2.42509 6.2878 2.30675 5.98953 2.07008 5.74124C1.83342 5.49295 1.54911 5.3688 1.21715 5.3688C0.885202 5.3688 0.599356 5.49295 0.359613 5.74124C0.119871 5.98953 0 6.2878 0 6.63604C0 6.99074 0.118334 7.29222 0.355003 7.54051C0.591672 7.7888 0.879054 7.91294 1.21715 7.91294ZM10.0139 8.27086C10.4503 8.27086 10.8191 8.11286 11.1203 7.79686C11.4216 7.48086 11.5722 7.09392 11.5722 6.63604C11.5722 6.19106 11.4201 5.80895 11.1158 5.48972C10.8115 5.1705 10.4442 5.01088 10.0139 5.01088C9.73722 5.01088 9.48057 5.08505 9.24391 5.23337C9.00724 5.3817 8.81821 5.58001 8.67682 5.8283C8.53544 6.07659 8.46474 6.34584 8.46474 6.63604C8.46474 7.08747 8.61689 7.4728 8.92118 7.79202C9.22547 8.11125 9.5897 8.27086 10.0139 8.27086ZM18.7921 7.91294C19.1302 7.91294 19.4161 7.79041 19.6496 7.54535C19.8832 7.30028 20 6.99718 20 6.63604C20 6.28134 19.8832 5.98146 19.6496 5.7364C19.4161 5.49134 19.1302 5.3688 18.7921 5.3688C18.4601 5.3688 18.1743 5.49456 17.9345 5.74607C17.6948 5.99758 17.575 6.29424 17.575 6.63604C17.575 6.99074 17.6933 7.29222 17.93 7.54051C18.1666 7.7888 18.454 7.91294 18.7921 7.91294ZM5.61551 10.9407C6.05195 10.9407 6.41925 10.7827 6.7174 10.4667C7.01554 10.1508 7.16461 9.76704 7.16461 9.31561C7.16461 8.86417 7.01246 8.48046 6.70817 8.16446C6.40388 7.84845 6.03966 7.69045 5.61551 7.69045C5.33273 7.69045 5.07455 7.76461 4.84095 7.91294C4.60735 8.06127 4.41986 8.25796 4.27848 8.50302C4.13709 8.74809 4.0664 9.01895 4.0664 9.31561C4.0664 9.76057 4.21701 10.1427 4.51822 10.4619C4.81943 10.7811 5.18519 10.9407 5.61551 10.9407ZM14.4214 10.9407C14.8579 10.9407 15.2252 10.7827 15.5233 10.4667C15.8215 10.1508 15.9706 9.76704 15.9706 9.31561C15.9706 8.86417 15.8184 8.48046 15.5141 8.16446C15.2098 7.84845 14.8456 7.69045 14.4214 7.69045C14.1386 7.69045 13.8804 7.76461 13.6468 7.91294C13.4132 8.06127 13.2258 8.25796 13.0844 8.50302C12.943 8.74809 12.8723 9.01895 12.8723 9.31561C12.8723 9.76057 13.0229 10.1427 13.3241 10.4619C13.6253 10.7811 13.9911 10.9407 14.4214 10.9407ZM1.21715 13.272C1.55525 13.272 1.8411 13.1495 2.0747 12.9044C2.30829 12.6594 2.42509 12.3595 2.42509 12.0048C2.42509 11.6501 2.30675 11.3502 2.07008 11.1052C1.83342 10.8601 1.54911 10.7376 1.21715 10.7376C0.885202 10.7376 0.599356 10.8617 0.359613 11.11C0.119871 11.3583 0 11.6566 0 12.0048C0 12.3595 0.118334 12.6594 0.355003 12.9044C0.591672 13.1495 0.879054 13.272 1.21715 13.272ZM10.0139 13.8621C10.3458 13.8621 10.6455 13.7799 10.9129 13.6155C11.1803 13.451 11.3939 13.2269 11.5537 12.9432C11.7135 12.6594 11.7934 12.3466 11.7934 12.0048C11.7934 11.6631 11.7135 11.3519 11.5537 11.0714C11.3939 10.7909 11.1787 10.5667 10.9082 10.399C10.6378 10.2313 10.3396 10.1475 10.0139 10.1475C9.69423 10.1475 9.40069 10.2313 9.13326 10.399C8.86586 10.5667 8.6507 10.7924 8.4878 11.0761C8.3249 11.3599 8.24345 11.6695 8.24345 12.0048C8.24345 12.3466 8.32336 12.6578 8.48319 12.9383C8.64302 13.2188 8.85817 13.4429 9.12865 13.6106C9.39915 13.7783 9.69423 13.8621 10.0139 13.8621ZM19.8986 12.5079C19.9662 12.3338 20 12.1661 20 12.0048C20 11.6501 19.8832 11.3502 19.6496 11.1052C19.4161 10.8601 19.1302 10.7376 18.7921 10.7376C18.4601 10.7376 18.1743 10.8617 17.9345 11.11C17.6948 11.3583 17.575 11.6566 17.575 12.0048C17.575 12.1661 17.6088 12.3305 17.6764 12.4982C18.0329 12.3177 18.4048 12.2274 18.7921 12.2274C19.1794 12.2274 19.5482 12.3209 19.8986 12.5079ZM5.61551 16.3192C6.04581 16.3192 6.41157 16.1612 6.71279 15.8452C7.014 15.5292 7.16461 15.1455 7.16461 14.6941C7.16461 14.2427 7.01246 13.8573 6.70817 13.5381C6.40388 13.2189 6.03966 13.0593 5.61551 13.0593C5.33273 13.0593 5.07455 13.135 4.84095 13.2866C4.60735 13.4382 4.41986 13.6365 4.27848 13.8815C4.13709 14.1266 4.0664 14.3975 4.0664 14.6941C4.0664 15.1391 4.21854 15.5212 4.52283 15.8404C4.82712 16.1596 5.19135 16.3192 5.61551 16.3192ZM14.4214 16.3192C14.6673 16.3192 14.8948 16.2612 15.1038 16.1451L15.9521 14.5393V14.4909C15.9091 14.0911 15.7416 13.7525 15.4495 13.4752C15.1575 13.1979 14.8148 13.0593 14.4214 13.0593C13.9972 13.0593 13.633 13.2205 13.3287 13.543C13.0244 13.8654 12.8723 14.2491 12.8723 14.6941C12.8723 15.1391 13.0244 15.5212 13.3287 15.8404C13.633 16.1596 13.9972 16.3192 14.4214 16.3192ZM1.21715 18.6409C1.55525 18.6409 1.8411 18.5184 2.0747 18.2733C2.30829 18.0283 2.42509 17.7251 2.42509 17.364C2.42509 17.0158 2.30675 16.7175 2.07008 16.4692C1.83342 16.2209 1.54911 16.0967 1.21715 16.0967C0.885202 16.0967 0.599356 16.2225 0.359613 16.4741C0.119871 16.7255 0 17.0222 0 17.364C0 17.7187 0.118334 18.0202 0.355003 18.2685C0.591672 18.5168 0.879054 18.6409 1.21715 18.6409ZM10.0139 18.9988C10.4503 18.9988 10.8191 18.8408 11.1203 18.5248C11.4216 18.2088 11.5722 17.8219 11.5722 17.364C11.5722 16.919 11.4201 16.5369 11.1158 16.2177C10.8115 15.8985 10.4442 15.7389 10.0139 15.7389C9.73722 15.7389 9.48057 15.813 9.24391 15.9613C9.00724 16.1097 8.81821 16.308 8.67682 16.5563C8.53544 16.8045 8.46474 17.0737 8.46474 17.364C8.46474 17.8154 8.61689 18.2007 8.92118 18.52C9.22547 18.8392 9.5897 18.9988 10.0139 18.9988ZM5.61551 21.3398C5.95975 21.3398 6.24713 21.2173 6.47765 20.9722C6.70817 20.7272 6.82343 20.4273 6.82343 20.0726C6.82343 19.7179 6.70664 19.4164 6.47304 19.1681C6.23945 18.9198 5.9536 18.7956 5.61551 18.7956C5.28355 18.7956 4.99924 18.9214 4.76258 19.173C4.52591 19.4244 4.40757 19.7243 4.40757 20.0726C4.40757 20.4208 4.52437 20.7191 4.75796 20.9674C4.99156 21.2157 5.27741 21.3398 5.61551 21.3398ZM10.0139 24C10.3581 24 10.647 23.8791 10.8806 23.6373C11.1142 23.3954 11.231 23.0939 11.231 22.7328C11.231 22.3781 11.1127 22.0782 10.876 21.8331C10.6394 21.5881 10.352 21.4655 10.0139 21.4655C9.68806 21.4655 9.40528 21.5897 9.16553 21.838C8.92579 22.0863 8.80592 22.3845 8.80592 22.7328C8.80592 23.0875 8.92425 23.3873 9.16092 23.6324C9.39757 23.8775 9.68189 24 10.0139 24Z" fill="black" fill-opacity="0.8"/>
<path fill-rule="evenodd" clip-rule="evenodd" d="M14.3061 24H22.6843C23.0842 24 23.4034 23.8769 23.6421 23.6308C23.8807 23.3848 24 23.0795 24 22.7152C24 22.4915 23.9387 22.2774 23.8162 22.0729L19.6174 14.652C19.4949 14.4347 19.332 14.2717 19.1288 14.1631C18.9257 14.0544 18.7177 14 18.5048 14C18.2791 14 18.063 14.0544 17.8566 14.1631C17.6502 14.2717 17.489 14.4347 17.373 14.652L13.1838 22.0825C13.0613 22.2806 13 22.4915 13 22.7152C13 23.0795 13.1177 23.3848 13.3531 23.6308C13.5885 23.8769 13.9062 24 14.3061 24ZM18.5048 20.2512C18.3307 20.2512 18.1904 20.2001 18.084 20.0978C17.9776 19.9955 17.9211 19.8613 17.9147 19.6951L17.8373 16.9626C17.8309 16.7645 17.8889 16.6047 18.0114 16.4832C18.134 16.3618 18.2984 16.3011 18.5048 16.3011C18.7048 16.3011 18.866 16.3618 18.9886 16.4832C19.1111 16.6047 19.1692 16.7645 19.1627 16.9626L19.0853 19.6951C19.0789 19.8613 19.0224 19.9955 18.916 20.0978C18.8096 20.2001 18.6725 20.2512 18.5048 20.2512ZM17.9244 22.303C18.0856 22.4628 18.2759 22.5426 18.4952 22.5426C18.7209 22.5426 18.9144 22.4628 19.0756 22.303C19.2369 22.1432 19.3176 21.9514 19.3176 21.7277C19.3176 21.5104 19.2385 21.3218 19.0805 21.1621C18.9224 21.0022 18.7273 20.9223 18.4952 20.9223C18.2759 20.9223 18.0856 21.0022 17.9244 21.1621C17.7632 21.3218 17.6825 21.5104 17.6825 21.7277C17.6825 21.9514 17.7632 22.1432 17.9244 22.303Z" fill="#FFCC00"/>
</g>
<defs>
<clipPath id="clip0_37_366">
<rect width="24" height="24" fill="white"/>
</clipPath>
</defs>
</svg>
