<svg width="24" height="24" viewBox="0 0 24 24" fill="none" xmlns="http://www.w3.org/2000/svg">
<path d="M12.0198 2.09382C12.3173 2.09382 12.5652 1.99341 12.7635 1.79259C12.9618 1.59177 13.0609 1.34321 13.0609 1.04692C13.0609 0.757202 12.9601 0.510287 12.7585 0.306172C12.5569 0.102057 12.3106 0 12.0198 0C11.7356 0 11.4894 0.102057 11.2812 0.306172C11.0729 0.510287 10.9688 0.757202 10.9688 1.04692C10.9688 1.33662 11.0713 1.58354 11.2762 1.78765C11.4811 1.99177 11.729 2.09382 12.0198 2.09382ZM7.28045 4.80987C7.5779 4.80987 7.82743 4.70946 8.02903 4.50864C8.23064 4.30782 8.33145 4.05926 8.33145 3.76295C8.33145 3.47325 8.22899 3.22634 8.02408 3.02222C7.81917 2.8181 7.57129 2.71605 7.28045 2.71605C6.99622 2.71605 6.75 2.81975 6.54178 3.02715C6.33357 3.23456 6.22946 3.47983 6.22946 3.76295C6.22946 4.05267 6.33191 4.29958 6.53683 4.50369C6.74174 4.70781 6.98961 4.80987 7.28045 4.80987ZM16.7493 4.80987C17.0467 4.80987 17.2963 4.70946 17.4978 4.50864C17.6995 4.30782 17.8003 4.05926 17.8003 3.76295C17.8003 3.47325 17.6978 3.22634 17.493 3.02222C17.288 2.8181 17.0401 2.71605 16.7493 2.71605C16.465 2.71605 16.2188 2.81975 16.0106 3.02715C15.8024 3.23456 15.6983 3.47983 15.6983 3.76295C15.6983 4.05267 15.8008 4.29958 16.0057 4.50369C16.2105 4.70781 16.4584 4.80987 16.7493 4.80987ZM2.55099 7.56542C2.84844 7.56542 3.09632 7.46501 3.29462 7.26419C3.49292 7.06337 3.59207 6.81481 3.59207 6.51851C3.59207 6.22879 3.49127 5.98353 3.28966 5.78271C3.08805 5.58188 2.84183 5.48147 2.55099 5.48147C2.26015 5.48147 2.01228 5.58353 1.80736 5.78765C1.60245 5.99176 1.5 6.23538 1.5 6.51851C1.5 6.80822 1.60245 7.05513 1.80736 7.25925C2.01228 7.46336 2.26015 7.56542 2.55099 7.56542ZM12.0198 7.93086C12.4098 7.93086 12.742 7.79423 13.0163 7.52097C13.2906 7.24773 13.4277 6.91357 13.4277 6.51851C13.4277 6.13662 13.2906 5.8074 13.0163 5.53086C12.742 5.25431 12.4098 5.11604 12.0198 5.11604C11.6364 5.11604 11.3043 5.25431 11.0234 5.53086C10.7424 5.8074 10.602 6.13662 10.602 6.51851C10.602 6.90698 10.7408 7.23949 11.0184 7.51604C11.296 7.79258 11.6298 7.93086 12.0198 7.93086ZM21.449 7.56542C21.7464 7.56542 21.996 7.46501 22.1975 7.26419C22.3992 7.06337 22.5 6.81481 22.5 6.51851C22.5 6.22879 22.3976 5.98353 22.1927 5.78271C21.9877 5.58188 21.7398 5.48147 21.449 5.48147C21.1647 5.48147 20.9185 5.58353 20.7103 5.78765C20.5021 5.99176 20.398 6.23538 20.398 6.51851C20.398 6.80822 20.5005 7.05513 20.7054 7.25925C20.9103 7.46336 21.1582 7.56542 21.449 7.56542ZM7.28045 10.6667C7.67705 10.6667 8.01251 10.53 8.28682 10.2568C8.56114 9.98353 8.69829 9.64937 8.69829 9.25431C8.69829 8.86583 8.55949 8.53332 8.28187 8.25678C8.00425 7.98024 7.67044 7.84197 7.28045 7.84197C6.89707 7.84197 6.56657 7.98189 6.28895 8.26172C6.01133 8.54155 5.87252 8.87241 5.87252 9.25431C5.87252 9.64278 6.00968 9.97529 6.28399 10.2518C6.55831 10.5284 6.89046 10.6667 7.28045 10.6667ZM16.7493 10.6667C17.1459 10.6667 17.4814 10.53 17.7556 10.2568C18.03 9.98353 18.1671 9.64937 18.1671 9.25431C18.1671 8.86583 18.0283 8.53332 17.7507 8.25678C17.4731 7.98024 17.1393 7.84197 16.7493 7.84197C16.3659 7.84197 16.0354 7.98189 15.7578 8.26172C15.4802 8.54155 15.3413 8.87241 15.3413 9.25431C15.3413 9.64278 15.4785 9.97529 15.7528 10.2518C16.0272 10.5284 16.3593 10.6667 16.7493 10.6667ZM2.55099 13.0469C2.84183 13.0469 3.08805 12.9449 3.28966 12.7408C3.49127 12.5366 3.59207 12.2897 3.59207 11.9999C3.59207 11.7102 3.49127 11.4633 3.28966 11.2592C3.08805 11.0551 2.84183 10.9531 2.55099 10.9531C2.26015 10.9531 2.01228 11.0551 1.80736 11.2592C1.60245 11.4633 1.5 11.7102 1.5 11.9999C1.5 12.2897 1.60245 12.5366 1.80736 12.7408C2.01228 12.9449 2.26015 13.0469 2.55099 13.0469ZM12.0198 13.6494C12.4759 13.6494 12.8659 13.4897 13.1898 13.1704C13.5137 12.851 13.6756 12.4609 13.6756 11.9999C13.6756 11.6971 13.5996 11.4205 13.4476 11.1703C13.2956 10.9201 13.0956 10.721 12.8478 10.5728C12.5998 10.4247 12.3238 10.3506 12.0198 10.3506C11.7158 10.3506 11.4398 10.4263 11.1919 10.5778C10.9441 10.7292 10.7441 10.93 10.5921 11.1802C10.44 11.4305 10.364 11.7037 10.364 11.9999C10.364 12.3029 10.4384 12.5778 10.5871 12.8247C10.7358 13.0716 10.9358 13.2708 11.187 13.4222C11.4381 13.5737 11.7158 13.6494 12.0198 13.6494ZM21.449 13.0469C21.7464 13.0469 21.996 12.9465 22.1975 12.7456C22.3992 12.5448 22.5 12.2963 22.5 11.9999C22.5 11.7102 22.3976 11.4633 22.1927 11.2592C21.9877 11.0551 21.7398 10.9531 21.449 10.9531C21.1647 10.9531 20.9185 11.0568 20.7103 11.2642C20.5021 11.4716 20.398 11.7168 20.398 11.9999C20.398 12.2897 20.5005 12.5366 20.7054 12.7408C20.9103 12.9449 21.1582 13.0469 21.449 13.0469ZM7.28045 16.158C7.67705 16.158 8.01251 16.0214 8.28682 15.7481C8.56114 15.4749 8.69829 15.1407 8.69829 14.7457C8.69829 14.3572 8.55949 14.0247 8.28187 13.7482C8.00425 13.4716 7.67044 13.3333 7.28045 13.3333C6.89707 13.3333 6.56657 13.4732 6.28895 13.753C6.01133 14.0329 5.87252 14.3638 5.87252 14.7457C5.87252 15.1341 6.00968 15.4666 6.28399 15.7432C6.55831 16.0198 6.89046 16.158 7.28045 16.158ZM16.7493 16.158C17.1459 16.158 17.4814 16.0214 17.7556 15.7481C18.03 15.4749 18.1671 15.1407 18.1671 14.7457C18.1671 14.3572 18.0283 14.0247 17.7507 13.7482C17.4731 13.4716 17.1393 13.3333 16.7493 13.3333C16.3659 13.3333 16.0354 13.4732 15.7578 13.753C15.4802 14.0329 15.3413 14.3638 15.3413 14.7457C15.3413 15.1341 15.4785 15.4666 15.7528 15.7432C16.0272 16.0198 16.3593 16.158 16.7493 16.158ZM2.55099 18.5184C2.84844 18.5184 3.09632 18.4181 3.29462 18.2173C3.49292 18.0164 3.59207 17.7679 3.59207 17.4716C3.59207 17.1819 3.49127 16.9366 3.28966 16.7358C3.08805 16.535 2.84183 16.4345 2.55099 16.4345C2.26676 16.4345 2.02054 16.5366 1.81232 16.7407C1.60411 16.9448 1.5 17.1885 1.5 17.4716C1.5 17.7679 1.6008 18.0164 1.80241 18.2173C2.00401 18.4181 2.25354 18.5184 2.55099 18.5184ZM12.0198 18.884C12.4098 18.884 12.742 18.7473 13.0163 18.474C13.2906 18.2008 13.4277 17.8666 13.4277 17.4716C13.4277 17.0897 13.2906 16.7605 13.0163 16.4839C12.742 16.2074 12.4098 16.0691 12.0198 16.0691C11.6364 16.0691 11.3043 16.209 11.0234 16.4889C10.7424 16.7687 10.602 17.0963 10.602 17.4716C10.602 17.8601 10.7408 18.1926 11.0184 18.4691C11.296 18.7457 11.6298 18.884 12.0198 18.884ZM21.449 18.5184C21.7464 18.5184 21.996 18.4197 22.1975 18.2222C22.3992 18.0247 22.5 17.7745 22.5 17.4716C22.5 17.1819 22.3976 16.9366 22.1927 16.7358C21.9877 16.535 21.7398 16.4345 21.449 16.4345C21.1647 16.4345 20.9185 16.5366 20.7103 16.7407C20.5021 16.9448 20.398 17.1885 20.398 17.4716C20.398 17.7679 20.5005 18.0164 20.7054 18.2173C20.9103 18.4181 21.1582 18.5184 21.449 18.5184ZM7.28045 21.2741C7.5779 21.2741 7.82743 21.1753 8.02903 20.9778C8.23064 20.7802 8.33145 20.5333 8.33145 20.237C8.33145 19.9473 8.22899 19.7004 8.02408 19.4962C7.81917 19.2921 7.57129 19.1901 7.28045 19.1901C6.99622 19.1901 6.75 19.2921 6.54178 19.4962C6.33357 19.7004 6.22946 19.9473 6.22946 20.237C6.22946 20.5268 6.33191 20.772 6.53683 20.9728C6.74174 21.1737 6.98961 21.2741 7.28045 21.2741ZM16.7493 21.2741C17.0467 21.2741 17.2963 21.1753 17.4978 20.9778C17.6995 20.7802 17.8003 20.5333 17.8003 20.237C17.8003 19.9473 17.6978 19.7004 17.493 19.4962C17.288 19.2921 17.0401 19.1901 16.7493 19.1901C16.465 19.1901 16.2188 19.2921 16.0106 19.4962C15.8024 19.7004 15.6983 19.9473 15.6983 20.237C15.6983 20.5268 15.8008 20.772 16.0057 20.9728C16.2105 21.1737 16.4584 21.2741 16.7493 21.2741ZM12.0198 24C12.3173 24 12.5652 23.8996 12.7635 23.6987C12.9618 23.4979 13.0609 23.2494 13.0609 22.953C13.0609 22.6633 12.9601 22.4164 12.7585 22.2123C12.5569 22.0082 12.3106 21.9062 12.0198 21.9062C11.7356 21.9062 11.4894 22.0099 11.2812 22.2173C11.0729 22.4247 10.9688 22.6699 10.9688 22.953C10.9688 23.2428 11.0713 23.4897 11.2762 23.6938C11.4811 23.8979 11.729 24 12.0198 24Z" fill="black" fill-opacity="0.8"/>
</svg>
