<svg width="24" height="24" viewBox="0 0 24 24" fill="none" xmlns="http://www.w3.org/2000/svg">
<path d="M5.52913 14.8838H17.488C18.2782 14.8838 19.009 14.7524 19.6803 14.4897C20.3516 14.227 20.9362 13.862 21.4341 13.3946C21.9319 12.9273 22.3174 12.3835 22.5905 11.7633C22.8635 11.1432 23 10.4819 23 9.77935C23 9.04619 22.8539 8.37263 22.5616 7.75865C22.2692 7.14463 21.8613 6.61004 21.3378 6.15488C20.8142 5.69972 20.2023 5.3469 19.502 5.09641C18.8017 4.84592 18.0436 4.72068 17.2278 4.72068C16.8294 3.96921 16.3203 3.31397 15.7004 2.75494C15.0805 2.19593 14.3754 1.76368 13.5852 1.45821C12.795 1.15274 11.9341 1 11.0026 1C10.0968 1 9.24399 1.15732 8.44416 1.47196C7.64433 1.7866 6.92963 2.2219 6.30005 2.77786C5.67046 3.33382 5.16134 3.98143 4.77267 4.72068C4.384 5.45992 4.15112 6.25416 4.07402 7.10337C3.48941 7.26222 2.96584 7.52341 2.50329 7.88693C2.04074 8.25041 1.67455 8.69181 1.40473 9.21113C1.13491 9.73046 1 10.3139 1 10.9616C1 11.6825 1.17827 12.3407 1.53482 12.9364C1.89137 13.5321 2.40692 14.0056 3.08148 14.3569C3.75603 14.7081 4.57191 14.8838 5.52913 14.8838ZM5.50986 13.4175C4.84815 13.4175 4.29888 13.3106 3.86203 13.0967C3.42517 12.8829 3.09593 12.5943 2.87429 12.2308C2.65265 11.8672 2.54183 11.4594 2.54183 11.0074C2.54183 10.4575 2.72171 9.95499 3.08148 9.49979C3.44124 9.04466 4.03227 8.71324 4.85458 8.50554C5.1244 8.43829 5.31392 8.33747 5.42313 8.20309C5.53235 8.06871 5.5998 7.8732 5.6255 7.61658C5.67689 6.86511 5.85516 6.17626 6.16032 5.55004C6.46547 4.92381 6.86218 4.38007 7.35043 3.91881C7.83867 3.45754 8.39597 3.10013 9.02234 2.84659C9.64871 2.59305 10.3088 2.46628 11.0026 2.46628C12.0883 2.46628 13.0488 2.73968 13.8839 3.28647C14.7191 3.83327 15.3969 4.61376 15.9172 5.62794C16.0264 5.85399 16.1613 6.01131 16.3219 6.0999C16.4826 6.18848 16.7074 6.23278 16.9965 6.23278C17.9473 6.23278 18.7551 6.3962 19.4201 6.72306C20.085 7.04992 20.5909 7.48524 20.9378 8.02901C21.2847 8.57273 21.4582 9.16838 21.4582 9.81595C21.4582 10.4819 21.2879 11.0868 20.9474 11.6305C20.607 12.1743 20.1444 12.6081 19.5598 12.9319C18.9752 13.2556 18.3167 13.4175 17.5843 13.4175H5.50986Z" fill="white"/>
<path d="M5.50986 13.4175C4.84815 13.4175 4.29888 13.3106 3.86203 13.0967C3.42517 12.8829 3.09593 12.5943 2.87429 12.2308C2.65265 11.8672 2.54183 11.4594 2.54183 11.0074C2.54183 10.4575 2.72171 9.95499 3.08148 9.49979C3.44124 9.04466 4.03227 8.71324 4.85458 8.50554C5.1244 8.43829 5.31392 8.33747 5.42313 8.20309C5.53235 8.06871 5.5998 7.8732 5.6255 7.61658C5.67689 6.86511 5.85516 6.17626 6.16032 5.55004C6.46547 4.92381 6.86218 4.38007 7.35043 3.91881C7.83867 3.45754 8.39597 3.10013 9.02234 2.84659C9.64871 2.59305 10.3088 2.46628 11.0026 2.46628C12.0883 2.46628 13.0488 2.73968 13.8839 3.28647C14.7191 3.83327 15.3969 4.61376 15.9172 5.62794C16.0264 5.85399 16.1613 6.01131 16.3219 6.0999C16.4826 6.18848 16.7074 6.23278 16.9965 6.23278C17.9473 6.23278 18.7551 6.3962 19.4201 6.72306C20.085 7.04992 20.5909 7.48524 20.9378 8.02901C21.2847 8.57273 21.4582 9.16838 21.4582 9.81595C21.4582 10.4819 21.2879 11.0868 20.9474 11.6305C20.607 12.1743 20.1444 12.6081 19.5598 12.9319C18.9752 13.2556 18.3167 13.4175 17.5843 13.4175H5.50986Z" fill="white"/>
<path d="M12.3368 18.2838H14.3174C14.4587 18.2838 14.5455 18.3357 14.5776 18.4395C14.6097 18.5434 14.5744 18.6442 14.4716 18.742L10.2123 22.8934C10.1095 22.9911 10.0099 23.0216 9.91356 22.985C9.81077 22.9484 9.78828 22.8628 9.8461 22.7284L11.1635 19.6858H9.48956C9.3675 19.6858 9.28238 19.6538 9.23419 19.5897C9.18601 19.5255 9.18761 19.4353 9.23901 19.3193L10.5496 16.4784C10.5945 16.3868 10.6491 16.3165 10.7134 16.2676C10.7776 16.2187 10.8772 16.1943 11.0121 16.1943H13.1032C13.206 16.1943 13.2767 16.2279 13.3153 16.2951C13.3538 16.3623 13.3442 16.4479 13.2863 16.5517L12.3368 18.2838Z" fill="#FFCC00"/>
</svg>
