<svg width="24" height="24" viewBox="0 0 24 24" fill="none" xmlns="http://www.w3.org/2000/svg">
<path d="M5.52913 14.8838H17.488C18.2782 14.8838 19.009 14.7524 19.6803 14.4897C20.3516 14.227 20.9362 13.862 21.4341 13.3946C21.9319 12.9273 22.3174 12.3835 22.5905 11.7633C22.8635 11.1432 23 10.4819 23 9.77935C23 9.04619 22.8539 8.37263 22.5616 7.75865C22.2692 7.14463 21.8613 6.61004 21.3378 6.15488C20.8142 5.69972 20.2023 5.3469 19.502 5.09641C18.8017 4.84592 18.0436 4.72068 17.2278 4.72068C16.8294 3.96921 16.3203 3.31397 15.7004 2.75494C15.0805 2.19593 14.3754 1.76368 13.5852 1.45821C12.795 1.15274 11.9341 1 11.0026 1C10.0968 1 9.24399 1.15732 8.44416 1.47196C7.64433 1.7866 6.92963 2.2219 6.30005 2.77786C5.67046 3.33382 5.16134 3.98143 4.77267 4.72068C4.384 5.45992 4.15112 6.25416 4.07402 7.10337C3.48941 7.26222 2.96584 7.52341 2.50329 7.88693C2.04074 8.25041 1.67455 8.69181 1.40473 9.21113C1.13491 9.73046 1 10.3139 1 10.9616C1 11.6825 1.17827 12.3407 1.53482 12.9364C1.89137 13.5321 2.40692 14.0056 3.08148 14.3569C3.75603 14.7081 4.57191 14.8838 5.52913 14.8838Z" fill="white"/>
<path d="M12.337 18.2838H14.3177C14.459 18.2838 14.5457 18.3357 14.5779 18.4395C14.61 18.5434 14.5746 18.6442 14.4718 18.742L10.2125 22.8934C10.1097 22.9911 10.0102 23.0216 9.9138 22.985C9.81101 22.9484 9.78853 22.8628 9.84635 22.7284L11.1637 19.6858H9.48981C9.36774 19.6858 9.28262 19.6538 9.23444 19.5897C9.18625 19.5255 9.18786 19.4353 9.23925 19.3193L10.5498 16.4784C10.5948 16.3868 10.6494 16.3165 10.7136 16.2676C10.7779 16.2187 10.8775 16.1943 11.0124 16.1943H13.1034C13.2063 16.1943 13.277 16.2279 13.3155 16.2951C13.3541 16.3623 13.3444 16.4479 13.2866 16.5517L12.337 18.2838Z" fill="#FFCC00"/>
<path d="M3.30265 20.2525C3.44633 20.3352 3.59654 20.3543 3.75328 20.3098C3.91001 20.2652 4.03083 20.1729 4.11574 20.0329L5.38924 17.8847C5.47413 17.7384 5.49699 17.5904 5.45781 17.4408C5.41862 17.2912 5.32392 17.1719 5.17371 17.0828C5.03004 17 4.88147 16.9793 4.728 17.0207C4.57452 17.0621 4.45533 17.156 4.37043 17.3024L3.08713 19.4791C3.00224 19.6128 2.97938 19.7544 3.01856 19.904C3.05775 20.0536 3.15245 20.1697 3.30265 20.2525ZM5.2031 22.9257C5.34678 23.0021 5.49699 23.0196 5.65373 22.9782C5.81046 22.9369 5.93128 22.8462 6.01619 22.7061L7.28969 20.5484C7.37458 20.402 7.39744 20.2541 7.35826 20.1045C7.31907 19.9549 7.22437 19.8387 7.07416 19.756C6.92396 19.6732 6.77375 19.6526 6.62355 19.694C6.47334 19.7353 6.35579 19.8292 6.27088 19.9756L4.97779 22.1429C4.89942 22.2829 4.87983 22.4277 4.91902 22.5773C4.9582 22.7268 5.0529 22.843 5.2031 22.9257ZM16.9192 20.2525C17.063 20.3352 17.2132 20.3543 17.37 20.3098C17.5266 20.2652 17.6474 20.1729 17.7324 20.0329L19.0058 17.8847C19.0973 17.7384 19.1218 17.5904 19.0794 17.4408C19.0369 17.2912 18.9438 17.1719 18.8001 17.0828C18.6499 17 18.4997 16.9793 18.3495 17.0207C18.1993 17.0621 18.0785 17.156 17.9871 17.3024L16.7038 19.4791C16.6188 19.6128 16.596 19.7544 16.6352 19.904C16.6744 20.0536 16.769 20.1697 16.9192 20.2525ZM18.8198 22.9257C18.9634 23.0021 19.1136 23.0196 19.2704 22.9782C19.4271 22.9369 19.5479 22.8462 19.6328 22.7061L20.9064 20.5484C20.9978 20.402 21.0223 20.2541 20.9798 20.1045C20.9373 19.9549 20.8443 19.8387 20.7006 19.756C20.5504 19.6732 20.3986 19.6526 20.2451 19.694C20.0916 19.7353 19.9724 19.8292 19.8875 19.9756L18.6042 22.1429C18.5193 22.2829 18.4965 22.4277 18.5357 22.5773C18.5749 22.7268 18.6696 22.843 18.8198 22.9257Z" fill="#5856D6"/>
</svg>
