<svg width="24" height="24" viewBox="0 0 24 24" fill="none" xmlns="http://www.w3.org/2000/svg">
<path d="M3.80879 20H13.7392C14.608 20 15.3912 19.7934 16.0887 19.3803C16.7862 18.9671 17.3399 18.4105 17.7499 17.7103C18.1598 17.0102 18.3648 16.2217 18.3648 15.3449C18.3648 14.4745 18.1553 13.6939 17.7362 13.0032C17.317 12.3126 16.7449 11.7669 16.0199 11.3664C15.2949 10.9659 14.4765 10.7624 13.5648 10.7561C13.2038 10.0497 12.7587 9.4473 12.2295 8.94899C11.7002 8.45069 11.1082 8.06908 10.4535 7.80415C9.79883 7.53923 9.10132 7.40677 8.36099 7.40677C7.61453 7.40677 6.90631 7.54712 6.23633 7.82781C5.56635 8.1085 4.96826 8.498 4.44206 8.9963C3.91587 9.49461 3.4891 10.0781 3.16176 10.7467C2.83442 11.4153 2.63404 12.1375 2.56061 12.9134C1.78356 13.1531 1.16253 13.5883 0.697515 14.219C0.232505 14.8498 0 15.5815 0 16.4142C0 17.1269 0.160612 17.7513 0.481835 18.2874C0.803059 18.8236 1.24971 19.2431 1.8218 19.5459C2.39388 19.8486 3.05621 20 3.80879 20ZM19.4294 15.1557C20.1453 15.0296 20.7862 14.8009 21.3522 14.4698C21.9181 14.1386 22.3984 13.7538 22.7931 13.3155C23.1878 12.8771 23.4876 12.4277 23.6926 11.9672C23.8975 11.5068 24 11.081 24 10.6899C24 10.507 23.9618 10.3556 23.8853 10.2358C23.8088 10.1159 23.6972 10.056 23.5503 10.056C23.3974 10.056 23.2169 10.1064 23.0088 10.2074C22.8008 10.3083 22.5469 10.4076 22.2471 10.5054C21.9473 10.6032 21.5863 10.6521 21.164 10.6521C20.4176 10.6521 19.7705 10.507 19.2229 10.2168C18.6754 9.92668 18.2532 9.51826 17.9564 8.99157C17.6596 8.46488 17.5113 7.85146 17.5113 7.15131C17.5113 6.7287 17.5648 6.34866 17.6719 6.0112C17.779 5.67374 17.886 5.3757 17.9931 5.11708C18.1002 4.85847 18.1537 4.64717 18.1537 4.48317C18.1537 4.33178 18.1063 4.21194 18.0114 4.12363C17.9166 4.03532 17.7775 3.99432 17.5939 4.00063C17.1717 4.01955 16.7327 4.14728 16.2768 4.38382C15.821 4.62036 15.3866 4.9452 14.9736 5.35836C14.5606 5.77151 14.2026 6.24932 13.8998 6.79177C13.5969 7.33423 13.3843 7.92084 13.2619 8.55161C13.4026 8.68407 13.5403 8.84491 13.675 9.03414C13.8096 9.22337 13.935 9.44099 14.0513 9.68699C14.8222 9.75007 15.5319 9.93614 16.1805 10.2452C16.8291 10.5543 17.3951 10.958 17.8784 11.4563C18.3617 11.9546 18.738 12.5191 19.0073 13.1499C19.2765 13.7807 19.4172 14.4493 19.4294 15.1557Z" fill="white"/>
</svg>
