<svg width="24" height="24" viewBox="0 0 24 24" fill="none" xmlns="http://www.w3.org/2000/svg">
<g clip-path="url(#clip0_37_269)">
<path d="M3.32 17H11.976C12.728 17 13.408 16.8208 14.0161 16.4625C14.6241 16.104 15.1067 15.6174 15.4641 15.0026C15.8214 14.3879 16 13.7 16 12.9391C16 12.1782 15.8173 11.4959 15.452 10.8921C15.0867 10.2884 14.5894 9.81005 13.96 9.45717C13.3307 9.10428 12.616 8.92508 11.816 8.91954C11.5067 8.30752 11.1214 7.78371 10.66 7.34813C10.1987 6.91253 9.68139 6.57895 9.10805 6.34737C8.53472 6.11579 7.92538 6 7.28002 6C6.62935 6 6.01335 6.1213 5.43201 6.36391C4.85068 6.60652 4.33068 6.947 3.87201 7.38534C3.41334 7.82369 3.04001 8.33371 2.75201 8.91539C2.46401 9.49711 2.29067 10.1271 2.23201 10.8053C1.54934 11.0148 1.00667 11.3966 0.604002 11.9508C0.201334 12.5049 0 13.1459 0 13.8737C0 14.4913 0.14 15.0357 0.420001 15.5071C0.700001 15.9786 1.08934 16.3453 1.58801 16.6072C2.08667 16.8691 2.664 17 3.32 17Z" fill="white"/>
<path d="M17.4859 12.2489C18.0999 11.8308 18.5841 11.3139 18.9386 10.6979C19.2931 10.082 19.4703 9.40615 19.4703 8.67035C19.4703 7.90117 19.2861 7.20303 18.9177 6.57596C18.5493 5.94888 18.0511 5.45 17.4232 5.07933C16.7952 4.70865 16.0988 4.52332 15.3341 4.52332C14.575 4.52332 13.8842 4.70865 13.2618 5.07933C12.6395 5.45 12.1553 5.93912 11.8092 6.54669C11.9822 6.72506 12.1441 6.91458 12.2948 7.11524C12.4455 7.31591 12.5851 7.53887 12.7134 7.78412C13.6344 7.85659 14.4382 8.08653 15.1248 8.47395C15.8114 8.86134 16.357 9.37692 16.7617 10.0207C17.1664 10.6645 17.4078 11.4072 17.4859 12.2489ZM10.4779 4.8076C10.6175 4.94137 10.7849 5.00826 10.9803 5.00826C11.1756 5.00826 11.3375 4.94137 11.4659 4.8076C11.5943 4.67382 11.6599 4.51078 11.6627 4.31848C11.6655 4.12617 11.5999 3.96313 11.4659 3.82936L10.1765 2.54175C10.0425 2.40798 9.88063 2.34109 9.69087 2.34109C9.5011 2.34109 9.33923 2.40798 9.20525 2.54175C9.07127 2.67553 9.00288 2.83857 9.00008 3.03087C8.99734 3.22318 9.06573 3.38622 9.20525 3.52L10.4779 4.8076ZM15.3341 3.19391C15.5239 3.19391 15.6872 3.12424 15.8239 2.98489C15.9607 2.84554 16.0291 2.68389 16.0291 2.49995V0.693968C16.0291 0.498875 15.9607 0.334442 15.8239 0.200668C15.6872 0.0668895 15.5239 0 15.3341 0C15.1443 0 14.9811 0.0668895 14.8443 0.200668C14.7076 0.334442 14.6392 0.498875 14.6392 0.693968V2.49995C14.6392 2.68389 14.7076 2.84554 14.8443 2.98489C14.9811 3.12424 15.1443 3.19391 15.3341 3.19391ZM19.2023 4.8076C19.3307 4.94137 19.494 5.00826 19.6921 5.00826C19.8903 5.00826 20.0564 4.94137 20.1903 4.8076L21.4713 3.52C21.6053 3.38622 21.6723 3.22318 21.6723 3.03087C21.6723 2.83857 21.6053 2.67553 21.4713 2.54175C21.3374 2.40798 21.1756 2.34109 20.9857 2.34109C20.796 2.34109 20.6341 2.40798 20.5001 2.54175L19.2023 3.82936C19.0684 3.96313 19.0028 4.12617 19.0056 4.31848C19.0084 4.51078 19.0739 4.67382 19.2023 4.8076ZM21.4965 9.36437H23.3134C23.5032 9.36437 23.6651 9.29607 23.799 9.15948C23.933 9.02295 24 8.85991 24 8.67035C24 8.47526 23.933 8.31085 23.799 8.17711C23.6651 8.04332 23.5032 7.97643 23.3134 7.97643H21.4965C21.3123 7.97643 21.1504 8.04332 21.0109 8.17711C20.8713 8.31085 20.8016 8.47526 20.8016 8.67035C20.8016 8.85991 20.8713 9.02295 21.0109 9.15948C21.1504 9.29607 21.3123 9.36437 21.4965 9.36437ZM20.5001 14.799C20.6341 14.9384 20.796 15.0053 20.9857 14.9997C21.1756 14.9941 21.3374 14.9245 21.4713 14.7907C21.6053 14.6625 21.6723 14.5022 21.6723 14.3099C21.6723 14.1176 21.6053 13.9545 21.4713 13.8208L20.1736 12.5415C20.0396 12.4133 19.8778 12.3478 19.688 12.345C19.4982 12.3423 19.3363 12.4078 19.2023 12.5415C19.0684 12.6753 19.0014 12.8384 19.0014 13.0307C19.0014 13.223 19.0684 13.386 19.2023 13.5198L20.5001 14.799Z" fill="#FFCC00"/>
<path d="M9.79849 19.8197H8.17532L8.16052 20.1801L9.00538 18.3262C9.04986 18.2346 9.05727 18.1574 9.02762 18.0945C8.99797 18.0315 8.94363 18 8.8646 18H7.31556C7.2118 18 7.13768 18.0229 7.09321 18.0687C7.04875 18.1145 7.00922 18.1774 6.97463 18.2575L6.02594 20.7552C5.99135 20.8582 5.99135 20.9398 6.02594 20.9998C6.06053 21.0599 6.12476 21.09 6.21865 21.09H7.54533L7.64168 20.5922L6.5077 23.7507C6.46323 23.8709 6.48052 23.9482 6.55958 23.9825C6.6337 24.0225 6.70534 23.9939 6.77452 23.8966L9.90967 20.2316C9.9887 20.1401 10.0159 20.0486 9.99118 19.957C9.96644 19.8655 9.90221 19.8197 9.79849 19.8197Z" fill="#FFCC00"/>
</g>
<defs>
<clipPath id="clip0_37_269">
<rect width="24" height="24" fill="white"/>
</clipPath>
</defs>
</svg>
