<svg width="24" height="24" viewBox="0 0 24 24" fill="none" xmlns="http://www.w3.org/2000/svg">
<path d="M3.79718 17H13.6973C14.5574 17 15.3351 16.7945 16.0305 16.3835C16.7259 15.9725 17.278 15.4146 17.6867 14.7096C18.0953 14.0046 18.2996 13.2159 18.2996 12.3433C18.2996 11.4708 18.0907 10.6885 17.6729 9.99615C17.2551 9.30379 16.6863 8.75687 15.9665 8.35539C15.2467 7.95391 14.4293 7.75001 13.5143 7.74369C13.1605 7.03555 12.7198 6.43175 12.1922 5.93226C11.6645 5.43278 11.0729 5.05026 10.4171 4.7847C9.76139 4.51916 9.06447 4.38639 8.32636 4.38639C7.58217 4.38639 6.87763 4.52706 6.21274 4.80842C5.54786 5.08978 4.95312 5.48019 4.42852 5.97968C3.90393 6.47917 3.47694 7.06243 3.14755 7.72946C2.81815 8.39649 2.6199 9.12201 2.55281 9.90603C1.77202 10.1463 1.15136 10.5825 0.690813 11.2148C0.230271 11.847 0 12.5805 0 13.4151C0 14.1232 0.160122 14.7475 0.480366 15.2882C0.800611 15.8287 1.2459 16.2491 1.81625 16.5495C2.38658 16.8498 3.04689 17 3.79718 17ZM19.4435 12.1821C20.1571 12.0557 20.7945 11.8265 21.3558 11.4945C21.9169 11.1626 22.3942 10.7769 22.7877 10.3375C23.1811 9.8981 23.4816 9.44762 23.6889 8.98606C23.8963 8.52452 24 8.09775 24 7.70575C24 7.52239 23.9604 7.37065 23.8811 7.25053C23.8018 7.13039 23.6889 7.07033 23.5426 7.07033C23.3962 7.07033 23.2192 7.12091 23.0118 7.22207C22.8044 7.32323 22.5513 7.42439 22.2524 7.52556C21.9535 7.62672 21.5936 7.6773 21.1728 7.6773C20.4285 7.6773 19.7834 7.5303 19.2375 7.2363C18.6916 6.9423 18.2692 6.53133 17.9703 6.00339C17.6714 5.47545 17.522 4.86058 17.522 4.15877C17.522 3.73516 17.5769 3.35422 17.6867 3.01597C17.7964 2.6777 17.9047 2.37896 18.0114 2.11973C18.1182 1.8605 18.1716 1.6487 18.1716 1.48431C18.1716 1.33257 18.1243 1.21244 18.0298 1.12392C17.9352 1.0354 17.7964 0.994307 17.6134 1.00063C17.1864 1.0196 16.7472 1.14764 16.2959 1.38473C15.8445 1.62183 15.4129 1.94744 15.0011 2.36158C14.5894 2.77571 14.2326 3.25464 13.9307 3.79838C13.6287 4.34212 13.4168 4.93013 13.2948 5.56239C13.4351 5.69516 13.5723 5.85639 13.7065 6.04606C13.8407 6.23574 13.9627 6.45387 14.0724 6.70046C14.8472 6.76368 15.5578 6.9502 16.2043 7.26C16.851 7.56981 17.4137 7.97446 17.8925 8.47394C18.3714 8.97346 18.7465 9.54091 19.018 10.1763C19.2894 10.8117 19.4312 11.4803 19.4435 12.1821Z" fill="white"/>
<path d="M3.99592 21.0285L5.15047 18.8806C5.22686 18.7349 5.24595 18.5876 5.20776 18.4387C5.16957 18.2898 5.08584 18.1742 4.95658 18.0919C4.82144 18.0095 4.6863 17.9889 4.55116 18.0301C4.41602 18.0713 4.30732 18.1647 4.22506 18.3105L3.07051 20.4773C3 20.6103 2.98237 20.7513 3.01762 20.9002C3.05288 21.0491 3.13808 21.1647 3.27322 21.2471C3.40248 21.3232 3.53762 21.3406 3.67863 21.2994C3.81965 21.2582 3.92541 21.1679 3.99592 21.0285ZM6.75451 23.699L7.90026 21.5607C7.98252 21.415 8.00455 21.2677 7.96636 21.1188C7.92816 20.9699 7.84443 20.8543 7.71517 20.7719C7.58003 20.6832 7.44489 20.661 7.30976 20.7053C7.17462 20.7497 7.06592 20.8448 6.98366 20.9905L5.82911 23.1478C5.75272 23.2872 5.73216 23.4298 5.76741 23.5755C5.80266 23.7213 5.8908 23.8353 6.03182 23.9176C6.16108 24 6.29621 24.0206 6.43723 23.9794C6.57824 23.9382 6.68401 23.8447 6.75451 23.699ZM11.0114 21.019L12.1571 18.8712C12.2394 18.7255 12.2614 18.5782 12.2233 18.4293C12.1851 18.2804 12.1013 18.1647 11.972 18.0824C11.8369 18 11.7017 17.9794 11.5666 18.0206C11.4315 18.0618 11.3228 18.1552 11.2405 18.3009L10.086 20.4678C10.0096 20.6009 9.98905 20.7418 10.0242 20.8907C10.0595 21.0396 10.1447 21.1552 10.2798 21.2376C10.415 21.3136 10.5516 21.331 10.6897 21.2898C10.8277 21.2486 10.935 21.1584 11.0114 21.019ZM13.77 23.6895L14.9158 21.5512C14.998 21.4055 15.02 21.2582 14.9818 21.1093C14.9436 20.9604 14.8569 20.8448 14.7218 20.7624C14.5926 20.6737 14.4589 20.6515 14.3208 20.6959C14.1828 20.7402 14.0755 20.8352 13.9991 20.981L12.8445 23.1383C12.7682 23.2777 12.7476 23.4203 12.7829 23.566C12.8182 23.7117 12.9034 23.8258 13.0385 23.9082C13.1677 23.9905 13.3029 24.0111 13.4439 23.9699C13.5849 23.9287 13.6936 23.8353 13.77 23.6895Z" fill="#5856D6"/>
</svg>
