<svg width="24" height="24" viewBox="0 0 24 24" fill="none" xmlns="http://www.w3.org/2000/svg">
<path d="M3.53566 17H12.7097C13.5181 17 14.2458 16.8201 14.893 16.4603C15.5402 16.1005 16.0532 15.613 16.4319 14.9977C16.8106 14.3825 17 13.6931 17 12.9296C17 12.1715 16.805 11.4904 16.4149 10.8862C16.0249 10.2819 15.495 9.80402 14.8252 9.45246C14.1554 9.1009 13.3993 8.92237 12.5571 8.91685C12.2293 8.31261 11.8237 7.7935 11.3404 7.35955C10.8571 6.92559 10.3102 6.59051 9.69976 6.3543C9.08928 6.1181 8.43358 6 7.73266 6C7.04305 6 6.38877 6.12222 5.76982 6.36667C5.15087 6.61111 4.59833 6.95031 4.11222 7.38426C3.6261 7.81822 3.23042 8.32633 2.92518 8.90859C2.61995 9.49088 2.43342 10.1199 2.36558 10.7955C1.65902 11.0042 1.08811 11.3832 0.652867 11.9326C0.217622 12.4819 0 13.1246 0 13.8607C0 14.4759 0.146966 15.0183 0.440897 15.488C0.734826 15.9576 1.14746 16.3271 1.6788 16.5963C2.21014 16.8654 2.82909 17 3.53566 17Z" fill="white"/>
<path d="M17.4859 12.4323C18.0999 12.0421 18.5841 11.5596 18.9386 10.9847C19.2931 10.4099 19.4703 9.77909 19.4703 9.0924C19.4703 8.37444 19.2861 7.72283 18.9176 7.13755C18.5492 6.55228 18.0511 6.08667 17.4231 5.74071C16.7951 5.39474 16.0988 5.22176 15.3341 5.22176C14.575 5.22176 13.8842 5.39474 13.2619 5.74071C12.6395 6.08667 12.1552 6.54318 11.8091 7.11024C11.9822 7.27672 12.1441 7.4536 12.2947 7.64089C12.4455 7.82818 12.585 8.03627 12.7134 8.26518C13.6344 8.33281 14.4382 8.54741 15.1248 8.90898C15.8114 9.27056 16.357 9.75178 16.7617 10.3526C17.1664 10.9535 17.4078 11.6467 17.4859 12.4323ZM10.4779 5.48708C10.6174 5.61194 10.7848 5.67437 10.9802 5.67437C11.1756 5.67437 11.3374 5.61194 11.4658 5.48708C11.5942 5.36223 11.6598 5.21006 11.6626 5.03058C11.6654 4.85109 11.5998 4.70152 11.4658 4.58186L10.1764 3.3723C10.0425 3.24745 9.88061 3.18502 9.69079 3.18502C9.50102 3.18502 9.33915 3.24745 9.20517 3.3723C9.07119 3.49716 9.00283 3.64933 9.00008 3.82882C8.99728 4.0083 9.06564 4.16047 9.20517 4.28533L10.4779 5.48708ZM15.3341 3.98099C15.5239 3.98099 15.6871 3.91596 15.8239 3.7859C15.9607 3.65584 16.029 3.50497 16.029 3.33328V1.6477C16.029 1.47082 15.9607 1.31865 15.8239 1.19119C15.6871 1.06373 15.5239 1 15.3341 1C15.1443 1 14.981 1.06373 14.8443 1.19119C14.7075 1.31865 14.6391 1.47082 14.6391 1.6477V3.33328C14.6391 3.50497 14.7075 3.65584 14.8443 3.7859C14.981 3.91596 15.1443 3.98099 15.3341 3.98099ZM21.4965 9.74006H23.3134C23.5032 9.74006 23.6651 9.67632 23.799 9.54884C23.933 9.42141 24 9.26927 24 9.0924C24 8.91029 23.933 8.75681 23.799 8.63195C23.6651 8.50709 23.5032 8.44467 23.3134 8.44467H21.4965C21.3123 8.44467 21.1504 8.50709 21.0109 8.63195C20.8713 8.75681 20.8015 8.91029 20.8015 9.0924C20.8015 9.26927 20.8713 9.42141 21.0109 9.54884C21.1504 9.67632 21.3123 9.74006 21.4965 9.74006ZM19.2024 5.48708C19.3307 5.61194 19.494 5.67437 19.6922 5.67437C19.8903 5.67437 20.0563 5.61194 20.1903 5.48708L21.4714 4.28533C21.6053 4.16047 21.6723 4.0083 21.6723 3.82882C21.6723 3.64933 21.6053 3.49716 21.4714 3.3723C21.3374 3.24745 21.1756 3.18502 20.9858 3.18502C20.796 3.18502 20.6341 3.24745 20.5002 3.3723L19.2024 4.58186C19.0684 4.70152 19.0028 4.85109 19.0056 5.03058C19.0084 5.21006 19.074 5.36223 19.2024 5.48708ZM20.5002 14.8202C20.6341 14.9451 20.796 15.0049 20.9858 14.9997C21.1756 14.9945 21.3374 14.9321 21.4714 14.8125C21.6053 14.6876 21.6723 14.5354 21.6723 14.3559C21.6723 14.1765 21.6053 14.0243 21.4714 13.8994L20.1736 12.7054C20.0396 12.5858 19.8778 12.5246 19.688 12.522C19.4982 12.5195 19.3363 12.5806 19.2024 12.7054C19.0684 12.8303 19.0014 12.9825 19.0014 13.1619C19.0014 13.3414 19.0684 13.4936 19.2024 13.6185L20.5002 14.8202Z" fill="#FFCC00"/>
<path d="M3.08727 21.0296L4.32828 18.8809C4.41738 18.7351 4.44124 18.5878 4.39988 18.4388C4.35851 18.29 4.26782 18.1743 4.12781 18.0919C3.98144 18.0095 3.83506 17.9888 3.68869 18.0301C3.54231 18.0713 3.42457 18.1648 3.33547 18.3105L2.08491 20.4686C2.00218 20.6081 1.9799 20.7507 2.01809 20.8965C2.05628 21.0423 2.14856 21.1595 2.29493 21.2482C2.44131 21.3243 2.58928 21.3417 2.73883 21.3005C2.88839 21.2593 3.00453 21.169 3.08727 21.0296ZM6.07524 23.701L7.31625 21.562C7.40535 21.4161 7.42922 21.2688 7.38786 21.1199C7.34649 20.971 7.2558 20.8521 7.11579 20.7633C6.96941 20.6809 6.82304 20.6604 6.67666 20.7016C6.53028 20.7427 6.41255 20.8362 6.32345 20.9821L5.07289 23.1496C4.99015 23.2827 4.96788 23.4237 5.00606 23.5727C5.04425 23.7216 5.13653 23.8373 5.28291 23.9196C5.42929 24.0021 5.57725 24.0211 5.72681 23.9767C5.87636 23.9324 5.99251 23.8405 6.07524 23.701ZM10.6861 21.02L11.9271 18.8715C12.0098 18.7257 12.0321 18.5783 11.9939 18.4294C11.9557 18.2804 11.8634 18.1648 11.717 18.0823C11.5771 18 11.4323 17.9794 11.2827 18.0206C11.1332 18.0618 11.017 18.1552 10.9343 18.301L9.68377 20.4591C9.601 20.5986 9.57871 20.7412 9.6169 20.8869C9.65509 21.0327 9.74737 21.15 9.89374 21.2387C10.0337 21.3147 10.1801 21.3322 10.3328 21.291C10.4856 21.2498 10.6034 21.1595 10.6861 21.02ZM13.6645 23.6915L14.9151 21.5524C14.9978 21.4067 15.0201 21.2593 14.9819 21.1104C14.9437 20.9614 14.8514 20.8426 14.7051 20.7539C14.5587 20.6714 14.4123 20.6508 14.266 20.692C14.1195 20.7333 14.0018 20.8267 13.9127 20.9725L12.6621 23.1401C12.5857 23.2732 12.5666 23.4142 12.6048 23.5631C12.643 23.7121 12.7353 23.8278 12.8817 23.9102C13.0217 23.9926 13.1681 24.0116 13.3209 23.9672C13.4736 23.9229 13.5881 23.831 13.6645 23.6915Z" fill="#5856D6"/>
</svg>
