<svg width="24" height="24" viewBox="0 0 24 24" fill="none" xmlns="http://www.w3.org/2000/svg">
<path d="M3.50172 17.5783H12.4377C13.236 17.5783 13.9546 17.3978 14.5933 17.0367C15.232 16.6756 15.7399 16.1845 16.117 15.5635C16.4942 14.9425 16.6828 14.2463 16.6828 13.4748C16.6828 12.7088 16.4914 12.0208 16.1088 11.4107C15.7261 10.8007 15.2071 10.3178 14.5519 9.96213C13.8967 9.60653 13.1562 9.42323 12.3304 9.41225C11.8458 8.50949 11.192 7.79959 10.3689 7.28254C9.54577 6.76549 8.62217 6.50697 7.59808 6.50697C6.91535 6.50697 6.26979 6.62871 5.6614 6.87219C5.05299 7.11566 4.50929 7.45626 4.03028 7.89397C3.55128 8.33168 3.16174 8.84052 2.86167 9.42049C2.5616 10.0005 2.37577 10.6269 2.3042 11.2999C1.61597 11.5133 1.05988 11.8977 0.635926 12.453C0.211975 13.0084 0 13.6581 0 14.4022C0 15.0205 0.145905 15.569 0.437715 16.0477C0.729527 16.5264 1.13834 16.9012 1.66414 17.1721C2.18995 17.4429 2.80248 17.5783 3.50172 17.5783ZM3.46868 16.2652C3.00069 16.2652 2.60702 16.1845 2.28768 16.0231C1.96834 15.8617 1.72746 15.6429 1.56504 15.3665C1.40262 15.0902 1.3214 14.7797 1.3214 14.435C1.3214 14.0028 1.4563 13.6089 1.72609 13.2533C1.99587 12.8976 2.43634 12.6404 3.04749 12.4818C3.2457 12.427 3.38748 12.3491 3.47282 12.2479C3.55816 12.1466 3.60908 11.9921 3.6256 11.7841C3.67516 11.2096 3.81143 10.6803 4.03441 10.1961C4.2574 9.71186 4.54921 9.29191 4.90984 8.93627C5.27047 8.58063 5.68066 8.3057 6.1404 8.11146C6.60014 7.91722 7.08603 7.82011 7.59808 7.82011C8.13214 7.82011 8.62491 7.91449 9.07638 8.10325C9.52787 8.29202 9.93256 8.56559 10.2905 8.92396C10.6483 9.28232 10.9566 9.71866 11.2154 10.233C11.3035 10.4081 11.4068 10.5298 11.5251 10.5982C11.6435 10.6666 11.8073 10.7008 12.0165 10.7008C12.7268 10.7008 13.3311 10.8293 13.8293 11.0865C14.3276 11.3437 14.7061 11.6843 14.9649 12.1083C15.2237 12.5323 15.3531 12.9988 15.3531 13.5076C15.3531 14.022 15.2264 14.487 14.9732 14.9028C14.7199 15.3186 14.3744 15.6497 13.9367 15.8959C13.499 16.1421 13.0076 16.2652 12.4625 16.2652H3.46868ZM15.4522 5.44005C14.6924 5.44005 14.0041 5.62197 13.3875 5.98582C12.7708 6.34966 12.2794 6.83935 11.9133 7.45489C11.5471 8.07042 11.3641 8.75571 11.3641 9.51075C11.3641 9.56 11.3668 9.60924 11.3724 9.65849C11.3778 9.70774 11.3806 9.75699 11.3806 9.80623L12.6276 9.92112C12.6111 9.85546 12.5987 9.78842 12.5905 9.72001C12.5822 9.65166 12.5781 9.5819 12.5781 9.51075C12.5781 8.96909 12.7061 8.48214 12.9621 8.0499C13.2181 7.61766 13.5623 7.27433 13.9945 7.01991C14.4267 6.76549 14.9126 6.63828 15.4522 6.63828C15.9917 6.63828 16.4776 6.76549 16.9098 7.01991C17.342 7.27433 17.6862 7.61766 17.9422 8.0499C18.1982 8.48214 18.3262 8.96909 18.3262 9.51075C18.3262 9.943 18.2395 10.3452 18.0661 10.7172C17.8926 11.0893 17.6545 11.4107 17.3517 11.6815C17.0489 11.9524 16.6993 12.1507 16.3028 12.2765L16.3111 13.5159C16.9332 13.3791 17.4866 13.1178 17.9711 12.732C18.4556 12.3463 18.8369 11.8745 19.1149 11.3164C19.393 10.7583 19.532 10.1564 19.532 9.51075C19.532 8.75571 19.3503 8.07042 18.987 7.45489C18.6235 6.83935 18.1321 6.34966 17.5127 5.98582C16.8933 5.62197 16.2065 5.44005 15.4522 5.44005ZM10.6621 5.71909C10.7997 5.8504 10.9649 5.91605 11.1576 5.91605C11.3503 5.91605 11.51 5.8504 11.6366 5.71909C11.7633 5.58777 11.828 5.42773 11.8307 5.23897C11.8334 5.0502 11.7687 4.89017 11.6366 4.75886L10.3648 3.49496C10.2326 3.36365 10.073 3.29799 9.88579 3.29799C9.69856 3.29799 9.53886 3.36365 9.40671 3.49496C9.27461 3.62627 9.20718 3.78631 9.20442 3.97507C9.20165 4.16384 9.26908 4.32388 9.40671 4.45519L10.6621 5.71909ZM15.4522 4.13511C15.6394 4.13511 15.8004 4.06672 15.9353 3.92994C16.0702 3.79315 16.1376 3.63448 16.1376 3.45392V1.68119C16.1376 1.48969 16.0702 1.32828 15.9353 1.19697C15.8004 1.06566 15.6394 1 15.4522 1C15.265 1 15.104 1.06566 14.969 1.19697C14.8341 1.32828 14.7667 1.48969 14.7667 1.68119V3.45392C14.7667 3.63448 14.8341 3.79315 14.969 3.92994C15.104 4.06672 15.265 4.13511 15.4522 4.13511ZM19.2677 5.71909C19.3944 5.8504 19.5554 5.91605 19.7509 5.91605C19.9463 5.91605 20.1101 5.8504 20.2422 5.71909L21.5059 4.45519C21.638 4.32388 21.7041 4.16384 21.7041 3.97507C21.7041 3.78631 21.638 3.62627 21.5059 3.49496C21.3737 3.36365 21.214 3.29799 21.0269 3.29799C20.8396 3.29799 20.68 3.36365 20.5479 3.49496L19.2677 4.75886C19.1356 4.89017 19.0709 5.0502 19.0736 5.23897C19.0764 5.42773 19.1411 5.58777 19.2677 5.71909ZM21.5306 10.192H23.3228C23.51 10.192 23.6697 10.1249 23.8018 9.99087C23.9339 9.85686 24 9.69681 24 9.51075C24 9.31926 23.9339 9.15786 23.8018 9.02655C23.6697 8.89524 23.51 8.82958 23.3228 8.82958H21.5306C21.3489 8.82958 21.1893 8.89524 21.0516 9.02655C20.914 9.15786 20.8451 9.31926 20.8451 9.51075C20.8451 9.69681 20.914 9.85686 21.0516 9.99087C21.1893 10.1249 21.3489 10.192 21.5306 10.192ZM20.5479 15.5266C20.68 15.6634 20.8396 15.729 21.0269 15.7235C21.214 15.7181 21.3737 15.6497 21.5059 15.5184C21.638 15.3926 21.7041 15.2352 21.7041 15.0464C21.7041 14.8577 21.638 14.6977 21.5059 14.5664L20.2257 13.3107C20.0936 13.1848 19.9339 13.1205 19.7467 13.1178C19.5595 13.115 19.3999 13.1793 19.2677 13.3107C19.1356 13.442 19.0695 13.602 19.0695 13.7908C19.0695 13.9795 19.1356 14.1396 19.2677 14.2709L20.5479 15.5266ZM3.36132 21.4357L4.43496 19.5808C4.51205 19.455 4.53269 19.3278 4.4969 19.1992C4.46112 19.0707 4.38266 18.9709 4.26153 18.8997C4.13489 18.8285 4.00826 18.8108 3.88162 18.8463C3.75499 18.8819 3.65313 18.9626 3.57605 19.0885L2.49415 20.9515C2.42258 21.0719 2.40331 21.195 2.43634 21.3208C2.46937 21.4467 2.54921 21.5479 2.67584 21.6245C2.80248 21.6901 2.93049 21.7052 3.05987 21.6696C3.18927 21.634 3.28975 21.5561 3.36132 21.4357ZM5.94632 23.7419L7.01996 21.8953C7.09704 21.7694 7.11769 21.6422 7.0819 21.5137C7.04611 21.3851 6.96766 21.2825 6.84652 21.2059C6.71989 21.1348 6.59325 21.117 6.46662 21.1526C6.33999 21.1881 6.23813 21.2688 6.16105 21.3947L5.07915 23.2659C5.00757 23.3808 4.9883 23.5025 5.02134 23.6311C5.05437 23.7597 5.1342 23.8595 5.26084 23.9306C5.38747 24.0018 5.51548 24.0182 5.64487 23.9799C5.77426 23.9416 5.87474 23.8623 5.94632 23.7419ZM9.93527 21.4275L11.009 19.5727C11.0805 19.4469 11.0998 19.3196 11.0667 19.1911C11.0337 19.0625 10.9539 18.9626 10.8272 18.8915C10.7061 18.8204 10.5809 18.8026 10.4515 18.8382C10.3221 18.8737 10.2216 18.9544 10.1501 19.0802L9.06817 20.9432C8.99657 21.0636 8.97729 21.1868 9.01033 21.3126C9.04337 21.4384 9.1232 21.5396 9.24983 21.6162C9.37093 21.6819 9.49756 21.6969 9.62972 21.6614C9.76187 21.6258 9.86372 21.5479 9.93527 21.4275ZM12.512 23.7337L13.5939 21.8871C13.6655 21.7613 13.6848 21.634 13.6518 21.5055C13.6187 21.3769 13.5389 21.2743 13.4123 21.1977C13.2856 21.1266 13.159 21.1088 13.0324 21.1443C12.9057 21.1799 12.8038 21.2606 12.7268 21.3865L11.6448 23.2576C11.5788 23.3725 11.5623 23.4943 11.5953 23.6229C11.6283 23.7515 11.7082 23.8513 11.8348 23.9225C11.956 23.9936 12.0826 24.01 12.2148 23.9717C12.3469 23.9334 12.446 23.8541 12.512 23.7337Z" fill="black" fill-opacity="0.8"/>
</svg>
