<svg width="24" height="24" viewBox="0 0 24 24" fill="none" xmlns="http://www.w3.org/2000/svg">
<path d="M5.51047 19H17.4954C18.2687 19 18.9897 18.8688 19.6586 18.6064C20.3275 18.344 20.9121 17.98 21.4122 17.5142C21.9123 17.0484 22.302 16.5045 22.5812 15.8825C22.8604 15.2604 23 14.5868 23 13.8616C23 13.1364 22.8558 12.4643 22.5674 11.8452C22.279 11.2261 21.874 10.6852 21.3523 10.2224C20.8307 9.75952 20.217 9.39987 19.5114 9.1434C18.8056 8.88692 18.0354 8.75868 17.2009 8.75868C16.5872 7.59128 15.7403 6.67298 14.6603 6.00379C13.5802 5.3346 12.359 5 10.9967 5C10.1069 5 9.26305 5.15624 8.46528 5.46873C7.66751 5.78122 6.95412 6.21752 6.32511 6.77764C5.6961 7.33775 5.18523 7.99368 4.79248 8.74541C4.39973 9.49715 4.16347 10.3123 4.08368 11.1908C3.47002 11.3618 2.93152 11.6315 2.46821 12C2.00488 12.3685 1.64435 12.8151 1.38661 13.3398C1.12887 13.8646 1 14.4394 1 15.0644C1 15.7897 1.17643 16.45 1.52929 17.0455C1.88215 17.641 2.39456 18.1156 3.06653 18.4693C3.7385 18.8231 4.55315 19 5.51047 19ZM5.49205 17.5761C4.85998 17.5761 4.31995 17.4744 3.87198 17.271C3.42399 17.0676 3.08033 16.7802 2.841 16.4087C2.60168 16.0373 2.48202 15.6039 2.48202 15.1086C2.48202 14.4719 2.68453 13.9324 3.08955 13.4902C3.49457 13.048 4.07141 12.7296 4.82009 12.535C5.07783 12.4761 5.26193 12.3818 5.37239 12.252C5.48285 12.1223 5.54729 11.9278 5.5657 11.6683C5.62093 10.9196 5.79889 10.2268 6.09959 9.59001C6.40029 8.95325 6.7961 8.39755 7.28704 7.92293C7.77797 7.44831 8.33948 7.07981 8.97156 6.81744C9.60364 6.55507 10.2787 6.42388 10.9967 6.42388C11.7392 6.42388 12.4204 6.55212 13.0402 6.80859C13.66 7.06507 14.2154 7.43209 14.7063 7.90966C15.1973 8.38724 15.6145 8.96504 15.9581 9.64307C16.0686 9.86123 16.2006 10.013 16.354 10.0985C16.5074 10.184 16.7253 10.2268 17.0075 10.2268C17.9649 10.2268 18.7796 10.3948 19.4515 10.7309C20.1234 11.067 20.6343 11.5136 20.9842 12.0707C21.3339 12.6279 21.5088 13.2396 21.5088 13.9059C21.5088 14.5898 21.3355 15.2089 20.9888 15.7631C20.642 16.3173 20.1741 16.758 19.585 17.0852C18.9959 17.4125 18.3331 17.5761 17.5967 17.5761H5.49205Z" fill="white"/>
</svg>
