<svg width="24" height="24" viewBox="0 0 24 24" fill="none" xmlns="http://www.w3.org/2000/svg">
<path d="M3.53566 20H12.7097C13.5181 20 14.2458 19.8201 14.893 19.4603C15.5402 19.1005 16.0532 18.613 16.4319 17.9977C16.8106 17.3825 17 16.6931 17 15.9296C17 15.1715 16.805 14.4904 16.4149 13.8862C16.0249 13.2819 15.495 12.804 14.8252 12.4525C14.1554 12.1009 13.3993 11.9224 12.5571 11.9169C12.2293 11.3126 11.8237 10.7935 11.3404 10.3595C10.8571 9.92559 10.3102 9.59051 9.69976 9.3543C9.08928 9.1181 8.43358 9 7.73266 9C7.04305 9 6.38877 9.12222 5.76982 9.36667C5.15087 9.61111 4.59833 9.95031 4.11222 10.3843C3.6261 10.8182 3.23042 11.3263 2.92518 11.9086C2.61995 12.4909 2.43342 13.1199 2.36558 13.7955C1.65902 14.0042 1.08811 14.3832 0.652867 14.9326C0.217622 15.4819 0 16.1246 0 16.8607C0 17.4759 0.146966 18.0183 0.440897 18.488C0.734826 18.9576 1.14746 19.3271 1.6788 19.5963C2.21014 19.8654 2.82909 20 3.53566 20Z" fill="white"/>
<path d="M17.4859 15.4323C18.0999 15.0421 18.5841 14.5596 18.9386 13.9847C19.2931 13.4099 19.4703 12.7791 19.4703 12.0924C19.4703 11.3744 19.2861 10.7228 18.9176 10.1376C18.5492 9.55228 18.0511 9.08667 17.4231 8.74071C16.7951 8.39474 16.0988 8.22176 15.3341 8.22176C14.575 8.22176 13.8842 8.39474 13.2619 8.74071C12.6395 9.08667 12.1552 9.54318 11.8091 10.1102C11.9822 10.2767 12.1441 10.4536 12.2947 10.6409C12.4455 10.8282 12.585 11.0363 12.7134 11.2652C13.6344 11.3328 14.4382 11.5474 15.1248 11.909C15.8114 12.2706 16.357 12.7518 16.7617 13.3526C17.1664 13.9535 17.4078 14.6467 17.4859 15.4323ZM10.4779 8.48708C10.6174 8.61194 10.7848 8.67437 10.9802 8.67437C11.1756 8.67437 11.3374 8.61194 11.4658 8.48708C11.5942 8.36223 11.6598 8.21006 11.6626 8.03058C11.6654 7.85109 11.5998 7.70152 11.4658 7.58186L10.1764 6.3723C10.0425 6.24745 9.88061 6.18502 9.69079 6.18502C9.50102 6.18502 9.33915 6.24745 9.20517 6.3723C9.07119 6.49716 9.00283 6.64933 9.00008 6.82882C8.99728 7.0083 9.06564 7.16047 9.20517 7.28533L10.4779 8.48708ZM15.3341 6.98099C15.5239 6.98099 15.6871 6.91596 15.8239 6.7859C15.9607 6.65584 16.029 6.50497 16.029 6.33328V4.6477C16.029 4.47082 15.9607 4.31865 15.8239 4.19119C15.6871 4.06373 15.5239 4 15.3341 4C15.1443 4 14.981 4.06373 14.8443 4.19119C14.7075 4.31865 14.6391 4.47082 14.6391 4.6477V6.33328C14.6391 6.50497 14.7075 6.65584 14.8443 6.7859C14.981 6.91596 15.1443 6.98099 15.3341 6.98099ZM21.4965 12.7401H23.3134C23.5032 12.7401 23.6651 12.6763 23.799 12.5488C23.933 12.4214 24 12.2693 24 12.0924C24 11.9103 23.933 11.7568 23.799 11.6319C23.6651 11.5071 23.5032 11.4447 23.3134 11.4447H21.4965C21.3123 11.4447 21.1504 11.5071 21.0109 11.6319C20.8713 11.7568 20.8015 11.9103 20.8015 12.0924C20.8015 12.2693 20.8713 12.4214 21.0109 12.5488C21.1504 12.6763 21.3123 12.7401 21.4965 12.7401ZM19.2024 8.48708C19.3307 8.61194 19.494 8.67437 19.6922 8.67437C19.8903 8.67437 20.0563 8.61194 20.1903 8.48708L21.4714 7.28533C21.6053 7.16047 21.6723 7.0083 21.6723 6.82882C21.6723 6.64933 21.6053 6.49716 21.4714 6.3723C21.3374 6.24745 21.1756 6.18502 20.9858 6.18502C20.796 6.18502 20.6341 6.24745 20.5002 6.3723L19.2024 7.58186C19.0684 7.70152 19.0028 7.85109 19.0056 8.03058C19.0084 8.21006 19.074 8.36223 19.2024 8.48708ZM20.5002 17.8202C20.6341 17.9451 20.796 18.0049 20.9858 17.9997C21.1756 17.9945 21.3374 17.9321 21.4714 17.8125C21.6053 17.6876 21.6723 17.5354 21.6723 17.3559C21.6723 17.1765 21.6053 17.0243 21.4714 16.8994L20.1736 15.7054C20.0396 15.5858 19.8778 15.5246 19.688 15.522C19.4982 15.5195 19.3363 15.5806 19.2024 15.7054C19.0684 15.8303 19.0014 15.9825 19.0014 16.1619C19.0014 16.3414 19.0684 16.4936 19.2024 16.6185L20.5002 17.8202Z" fill="#FFCC00"/>
</svg>
