<svg width="24" height="24" viewBox="0 0 24 24" fill="none" xmlns="http://www.w3.org/2000/svg">
<path d="M3.87064 16.4786H13.7481C14.6305 16.4786 15.4247 16.2803 16.1308 15.8837C16.8367 15.4869 17.3981 14.9501 17.815 14.2731C18.2319 13.5961 18.4404 12.837 18.4404 11.996C18.4404 11.1609 18.2289 10.4109 17.8059 9.74575C17.3829 9.08071 16.8093 8.55432 16.0851 8.16658C15.3608 7.77887 14.5423 7.57905 13.6294 7.56712C13.0939 6.58292 12.3711 5.80898 11.4613 5.2453C10.5515 4.68162 9.53056 4.39978 8.39857 4.39978C7.64392 4.39978 6.93034 4.5325 6.25785 4.79793C5.58535 5.06337 4.98436 5.43468 4.45489 5.91187C3.92542 6.38906 3.49484 6.94379 3.16316 7.57607C2.83147 8.20832 2.62607 8.8913 2.54696 9.62499C1.78622 9.85765 1.17154 10.2767 0.702924 10.8821C0.234308 11.4875 0 12.1988 0 13.016C0 13.6841 0.161277 14.2791 0.483831 14.801C0.806387 15.3229 1.25827 15.733 1.83947 16.0313C2.42067 16.3295 3.09773 16.4786 3.87064 16.4786ZM3.83413 15.0471C3.31682 15.0471 2.88168 14.9576 2.5287 14.7786C2.17572 14.5997 1.90946 14.3596 1.72993 14.0584C1.55039 13.7572 1.46062 13.4216 1.46062 13.0518C1.46062 12.5746 1.60973 12.1422 1.90794 11.7544C2.20615 11.3668 2.69302 11.0864 3.36856 10.9134C3.58765 10.8537 3.74437 10.7687 3.8387 10.6584C3.93303 10.5481 3.98932 10.3796 4.00758 10.1529C4.06235 9.52659 4.21298 8.94948 4.45946 8.42156C4.70594 7.89368 5.02849 7.43738 5.42712 7.05265C5.82574 6.66792 6.27915 6.36819 6.78732 6.15345C7.2955 5.93871 7.83258 5.83134 8.39857 5.83134C8.9889 5.83134 9.53359 5.93424 10.0326 6.14003C10.5317 6.34581 10.979 6.64555 11.3746 7.03923C11.7702 7.43291 12.111 7.90712 12.397 8.46188C12.4944 8.65275 12.6085 8.78694 12.7393 8.86446C12.8702 8.94203 13.0513 8.98081 13.2825 8.98081C14.0676 8.98081 14.7356 9.1195 15.2863 9.39686C15.8371 9.67422 16.2555 10.044 16.5415 10.5063C16.8276 10.9685 16.9706 11.48 16.9706 12.0407C16.9706 12.5955 16.8306 13.0995 16.5507 13.5528C16.2707 14.0062 15.8888 14.3685 15.405 14.6399C14.9211 14.9114 14.378 15.0471 13.7755 15.0471H3.83413ZM17.637 11.9065C18.3186 11.9483 18.9485 11.917 19.5267 11.8126C20.1048 11.7082 20.6297 11.5457 21.1014 11.325C21.5731 11.1043 21.99 10.8433 22.352 10.5421C22.7142 10.2409 23.0246 9.9128 23.2832 9.55793C23.5419 9.20299 23.7442 8.83764 23.8902 8.46188C24.0424 8.10396 24.0364 7.78782 23.872 7.51343C23.7077 7.23905 23.446 7.10186 23.087 7.10186C22.8131 7.10186 22.5392 7.14063 22.2654 7.21818C21.9915 7.29572 21.6111 7.33449 21.1243 7.33449C20.3453 7.33449 19.6925 7.19879 19.1661 6.92739C18.6396 6.65599 18.241 6.27126 17.9702 5.77319C17.6994 5.27513 17.564 4.68013 17.564 3.98821C17.564 3.64821 17.5914 3.35593 17.6462 3.11137C17.7009 2.86681 17.7541 2.64909 17.8059 2.45822C17.8577 2.26734 17.8835 2.0884 17.8835 1.92139C17.8835 1.55157 17.742 1.28762 17.459 1.12955C17.176 0.971484 16.8337 0.958061 16.432 1.08929C15.9512 1.24437 15.4947 1.48148 15.0627 1.8006C14.6305 2.11972 14.2502 2.50445 13.9216 2.9548C13.5929 3.40514 13.3327 3.90619 13.141 4.45794C12.9493 5.00969 12.8535 5.59574 12.8535 6.21608C12.8535 6.60976 12.89 6.99748 12.963 7.37923C13.0361 7.76098 13.1456 8.13081 13.2917 8.48872L14.807 8.46188C14.3992 7.79379 14.1954 7.03327 14.1954 6.18029C14.1954 5.75082 14.2547 5.34521 14.3734 4.96346C14.4921 4.58171 14.6564 4.23128 14.8664 3.91216C15.0763 3.59304 15.3167 3.3112 15.5876 3.06664C15.8584 2.82208 16.1429 2.61928 16.4411 2.45822L16.5415 2.5298C16.4685 2.74454 16.4015 2.99953 16.3407 3.29479C16.2798 3.59005 16.2494 3.91066 16.2494 4.25662C16.2494 5.11556 16.4457 5.87012 16.8382 6.52029C17.2308 7.17046 17.7709 7.67896 18.4586 8.0458C19.1463 8.41267 19.9314 8.5961 20.8138 8.5961C21.1364 8.5961 21.4422 8.57222 21.7313 8.52445C22.0204 8.47675 22.2714 8.4171 22.4844 8.34552L22.5483 8.41707C22.3962 8.69743 22.1787 8.97779 21.8957 9.25815C21.6127 9.5385 21.2673 9.78903 20.8595 10.0097C20.4518 10.2304 19.9786 10.3959 19.44 10.5063C18.9013 10.6167 18.3003 10.648 17.637 10.6003V11.9065ZM11.4294 19.637H9.43014L9.41191 20.0218L10.4525 18.0802C10.5013 17.9848 10.5089 17.9057 10.4754 17.843C10.4419 17.7804 10.3734 17.7491 10.27 17.7491H8.36205C8.24033 17.7491 8.15209 17.7715 8.09732 17.8162C8.04255 17.861 7.99386 17.9281 7.95126 18.0176L6.78276 20.6212C6.73407 20.7226 6.73255 20.8046 6.7782 20.8672C6.82384 20.9299 6.90448 20.9612 7.02011 20.9612H8.65418L8.76373 20.4422L7.37613 23.7349C7.32136 23.8601 7.33962 23.9436 7.43091 23.9854C7.5222 24.0211 7.61349 23.9913 7.70478 23.8959L11.5662 20.0665C11.6575 19.971 11.6895 19.8756 11.6622 19.7802C11.6347 19.6847 11.5571 19.637 11.4294 19.637Z" fill="black" fill-opacity="0.8"/>
</svg>
