<svg width="24" height="24" viewBox="0 0 24 24" fill="none" xmlns="http://www.w3.org/2000/svg">
<path d="M3.79718 16.2724H13.6973C14.5574 16.2724 15.3351 16.0762 16.0305 15.6839C16.7259 15.2916 17.278 14.759 17.6867 14.0862C18.0953 13.4132 18.2996 12.6604 18.2996 11.8276C18.2996 10.9947 18.0907 10.2479 17.6729 9.58704C17.2551 8.92616 16.6863 8.40411 15.9665 8.02089C15.2467 7.63767 14.4293 7.44304 13.5143 7.43701C13.1605 6.76108 12.7198 6.18473 12.1922 5.70796C11.6645 5.23119 11.0729 4.86607 10.4171 4.61259C9.76139 4.35912 9.06447 4.23239 8.32636 4.23239C7.58217 4.23239 6.87763 4.36667 6.21274 4.63523C5.54786 4.90379 4.95312 5.27645 4.42852 5.75322C3.90393 6.23 3.47694 6.78673 3.14755 7.42343C2.81815 8.06016 2.6199 8.75269 2.55281 9.50101C1.77202 9.73035 1.15136 10.1468 0.690813 10.7502C0.230271 11.3538 0 12.0538 0 12.8505C0 13.5264 0.160122 14.1224 0.480366 14.6384C0.800611 15.1543 1.2459 15.5557 1.81625 15.8423C2.38658 16.129 3.04689 16.2724 3.79718 16.2724ZM19.4435 11.6736C20.1571 11.5529 20.7945 11.3341 21.3558 11.0173C21.9169 10.7004 22.3942 10.3323 22.7877 9.91287C23.1811 9.49344 23.4816 9.06344 23.6889 8.62288C23.8963 8.18231 24 7.77495 24 7.40079C24 7.22578 23.9604 7.08094 23.8811 6.96627C23.8018 6.85161 23.6889 6.79427 23.5426 6.79427C23.3962 6.79427 23.2192 6.84255 23.0118 6.93912C22.8044 7.03568 22.5513 7.13224 22.2524 7.2288C21.9535 7.32536 21.5936 7.37364 21.1728 7.37364C20.4285 7.37364 19.7834 7.23333 19.2375 6.9527C18.6916 6.67206 18.2692 6.27978 17.9703 5.77585C17.6714 5.27193 17.522 4.68502 17.522 4.01512C17.522 3.61077 17.5769 3.24715 17.6867 2.92428C17.7964 2.6014 17.9047 2.31625 18.0114 2.06881C18.1182 1.82137 18.1716 1.6192 18.1716 1.46228C18.1716 1.31744 18.1243 1.20278 18.0298 1.11829C17.9352 1.03379 17.7964 0.994566 17.6134 1.0006C17.1864 1.0187 16.7472 1.14092 16.2959 1.36724C15.8445 1.59355 15.4129 1.90435 15.0011 2.29965C14.5894 2.69495 14.2326 3.1521 13.9307 3.67112C13.6287 4.19014 13.4168 4.7514 13.2948 5.3549C13.4351 5.48164 13.5723 5.63554 13.7065 5.81659C13.8407 5.99764 13.9627 6.20585 14.0724 6.44122C14.8472 6.50157 15.5578 6.6796 16.2043 6.97532C16.851 7.27104 17.4137 7.6573 17.8925 8.13408C18.3714 8.61086 18.7465 9.1525 19.018 9.75899C19.2894 10.3656 19.4312 11.0038 19.4435 11.6736ZM11.4282 19.5856H9.42434L9.40607 19.9749L10.4491 18.0105C10.504 17.9139 10.5131 17.8339 10.4765 17.7706C10.4399 17.7072 10.3728 17.6755 10.2753 17.6755H8.36295C8.23485 17.6755 8.14336 17.6981 8.08846 17.7434C8.03356 17.7886 7.98476 17.8565 7.94206 17.9471L6.77088 20.5814C6.72818 20.684 6.72818 20.767 6.77088 20.8304C6.81358 20.8937 6.89288 20.9254 7.00878 20.9254H8.6466L8.76555 20.4003L7.36562 23.7317C7.31073 23.8584 7.33207 23.9429 7.42967 23.9852C7.52117 24.0214 7.60962 23.9912 7.69502 23.8946L11.5654 20.0201C11.663 19.9236 11.6966 19.827 11.6661 19.7304C11.6355 19.6339 11.5562 19.5856 11.4282 19.5856Z" fill="white"/>
</svg>
