<svg width="24" height="24" viewBox="0 0 24 24" fill="none" xmlns="http://www.w3.org/2000/svg">
<path d="M3.87064 20H13.7481C14.6305 20 15.4247 19.795 16.1308 19.385C16.8367 18.975 17.3981 18.42 17.815 17.7202C18.2319 17.0204 18.4404 16.2358 18.4404 15.3665C18.4404 14.5033 18.2289 13.7279 17.8059 13.0404C17.3829 12.3529 16.8093 11.8088 16.0851 11.408C15.3608 11.0072 14.5423 10.8007 13.6294 10.7883C13.0939 9.77099 12.3711 8.97098 11.4613 8.38831C10.5515 7.80564 9.53056 7.51431 8.39857 7.51431C7.64392 7.51431 6.93034 7.65304 6.25785 7.9305C5.58535 8.20796 4.98436 8.59178 4.45489 9.08196C3.92542 9.57214 3.49484 10.144 3.16316 10.7976C2.83147 11.4512 2.62607 12.1571 2.54696 12.9155C1.78622 13.156 1.17154 13.5891 0.702924 14.2149C0.234308 14.8408 0 15.576 0 16.4208C0 17.1114 0.161277 17.7264 0.483831 18.2659C0.806387 18.8054 1.25827 19.2293 1.83947 19.5375C2.42067 19.8458 3.09773 20 3.87064 20ZM3.83413 18.5202C3.31682 18.5202 2.88168 18.4277 2.5287 18.2428C2.17572 18.0578 1.90946 17.8096 1.72993 17.4982C1.55039 17.1869 1.46062 16.8401 1.46062 16.4578C1.46062 15.9645 1.60973 15.5175 1.90794 15.1167C2.20615 14.7159 2.69302 14.4261 3.36856 14.2473C3.58765 14.1918 3.74437 14.1055 3.8387 13.9884C3.93303 13.8712 3.98932 13.6955 4.00758 13.4612C4.06235 12.8138 4.21298 12.2173 4.45946 11.6716C4.70594 11.1259 5.02849 10.6542 5.42712 10.2565C5.82574 9.85885 6.27915 9.55056 6.78732 9.33167C7.2955 9.11279 7.83258 9.00334 8.39857 9.00334C8.9889 9.00334 9.53359 9.10971 10.0326 9.32243C10.5317 9.53515 10.979 9.84343 11.3746 10.2473C11.7702 10.6512 12.111 11.1398 12.397 11.7132C12.4944 11.9105 12.6085 12.0492 12.7393 12.1294C12.8702 12.2096 13.0513 12.2496 13.2825 12.2496C14.0676 12.2496 14.7356 12.393 15.2863 12.6797C15.8371 12.9664 16.2555 13.3502 16.5415 13.8312C16.8276 14.3121 16.9706 14.8393 16.9706 15.4127C16.9706 15.9861 16.8306 16.5071 16.5507 16.9757C16.2707 17.4443 15.8888 17.8189 15.405 18.0994C14.9211 18.3799 14.378 18.5202 13.7755 18.5202H3.83413ZM17.637 15.2832C18.3186 15.3202 18.9485 15.2848 19.5267 15.1769C20.1048 15.069 20.6297 14.9009 21.1014 14.6728C21.5731 14.4446 21.99 14.1749 22.352 13.8635C22.7142 13.5521 23.0246 13.213 23.2832 12.8462C23.5419 12.4793 23.7442 12.1017 23.8902 11.7132C24.0424 11.3433 24.0364 11.0165 23.872 10.7328C23.7077 10.4492 23.446 10.3074 23.087 10.3074C22.8131 10.3074 22.5392 10.3475 22.2654 10.4276C21.9915 10.5078 21.6111 10.5479 21.1243 10.5479C20.3453 10.5479 19.6925 10.4076 19.1661 10.1271C18.6396 9.84652 18.241 9.44882 17.9702 8.93398C17.6994 8.41914 17.564 7.8041 17.564 7.08887C17.564 6.73742 17.5914 6.4353 17.6462 6.1825C17.7009 5.9297 17.7541 5.70465 17.8059 5.50735C17.8577 5.31004 17.8835 5.12507 17.8835 4.95243C17.8835 4.57015 17.742 4.29731 17.459 4.13392C17.176 3.97052 16.8337 3.95665 16.432 4.0923C15.9512 4.25261 15.4947 4.49924 15.0627 4.83219C14.6305 5.16514 14.2502 5.56284 13.9216 6.02527C13.5929 6.4877 13.3327 7.00409 13.141 7.57442C12.9493 8.14476 12.8535 8.75055 12.8535 9.39179C12.8535 9.79873 12.89 10.1995 12.963 10.5941C13.0361 10.9887 13.1456 11.371 13.2917 11.741L14.807 11.7132C14.3992 11.0226 14.1954 10.2365 14.1954 9.3548C14.1954 8.91086 14.2547 8.49159 14.3734 8.09697C14.4921 7.70236 14.6564 7.34166 14.8664 7.01488C15.0763 6.68809 15.3167 6.39676 15.5876 6.14088C15.8584 5.885 16.1429 5.67382 16.4411 5.50735L16.5415 5.58133C16.4685 5.8033 16.4015 6.06689 16.3407 6.37209C16.2798 6.6773 16.2494 7.00871 16.2494 7.36633C16.2494 8.25421 16.4457 9.03418 16.8382 9.70625C17.2308 10.3783 17.7709 10.9039 18.4586 11.2831C19.1463 11.6623 19.9314 11.8519 20.8138 11.8519C21.1364 11.8519 21.4422 11.8273 21.7313 11.778C22.0204 11.7286 22.2714 11.667 22.4844 11.593L22.5483 11.667C22.3962 11.9568 22.1787 12.2466 21.8957 12.5363C21.6127 12.8261 21.2673 13.0851 20.8595 13.3132C20.4518 13.5414 19.9786 13.7125 19.44 13.8266C18.9013 13.9406 18.3003 13.9729 17.637 13.9236V15.2832Z" fill="white"/>
</svg>
