<svg width="24" height="24" viewBox="0 0 24 24" fill="none" xmlns="http://www.w3.org/2000/svg">
<path d="M3.50172 17.2388H12.4377C13.236 17.2388 13.9546 17.062 14.5933 16.7083C15.232 16.3546 15.7399 15.8736 16.117 15.2653C16.4942 14.657 16.6828 13.975 16.6828 13.2193C16.6828 12.469 16.4914 11.7951 16.1088 11.1976C15.7261 10.6 15.2071 10.127 14.5519 9.77861C13.8967 9.43029 13.1562 9.25075 12.3304 9.23999C11.8458 8.35571 11.192 7.66034 10.3689 7.15388C9.54577 6.64742 8.62217 6.39419 7.59808 6.39419C6.91535 6.39419 6.26979 6.51344 5.6614 6.75193C5.05299 6.99042 4.50929 7.32404 4.03028 7.75279C3.55128 8.18153 3.16174 8.67996 2.86167 9.24806C2.5616 9.81612 2.37577 10.4298 2.3042 11.089C1.61597 11.298 1.05988 11.6745 0.635926 12.2185C0.211975 12.7624 0 13.3989 0 14.1277C0 14.7333 0.145905 15.2706 0.437715 15.7395C0.729527 16.2085 1.13834 16.5756 1.66414 16.8409C2.18995 17.1062 2.80248 17.2388 3.50172 17.2388ZM3.46868 15.9526C3.00069 15.9526 2.60702 15.8735 2.28768 15.7154C1.96834 15.5573 1.72746 15.343 1.56504 15.0723C1.40262 14.8017 1.3214 14.4975 1.3214 14.1599C1.3214 13.7365 1.4563 13.3506 1.72609 13.0022C1.99587 12.6539 2.43634 12.4021 3.04749 12.2466C3.2457 12.193 3.38748 12.1166 3.47282 12.0175C3.55816 11.9183 3.60908 11.767 3.6256 11.5633C3.67516 11.0006 3.81143 10.482 4.03441 10.0077C4.2574 9.53343 4.54921 9.12211 4.90984 8.77373C5.27047 8.42538 5.68066 8.15608 6.1404 7.96582C6.60014 7.77556 7.08603 7.68043 7.59808 7.68043C8.13214 7.68043 8.62491 7.77289 9.07638 7.95779C9.52787 8.14268 9.93256 8.41066 10.2905 8.76171C10.6483 9.11272 10.9566 9.54013 11.2154 10.0439C11.3035 10.2154 11.4068 10.3347 11.5251 10.4017C11.6435 10.4686 11.8073 10.5021 12.0165 10.5021C12.7268 10.5021 13.3311 10.6281 13.8293 10.88C14.3276 11.1319 14.7061 11.4655 14.9649 11.8808C15.2237 12.2962 15.3531 12.7531 15.3531 13.2515C15.3531 13.7553 15.2264 14.2108 14.9732 14.6181C14.7199 15.0254 14.3744 15.3497 13.9367 15.5909C13.499 15.832 13.0076 15.9526 12.4625 15.9526H3.46868ZM15.4522 5.34912C14.6924 5.34912 14.0041 5.52731 13.3875 5.88371C12.7708 6.24011 12.2794 6.71977 11.9133 7.3227C11.5471 7.92562 11.3641 8.59688 11.3641 9.33647C11.3641 9.38471 11.3668 9.43295 11.3724 9.48119C11.3778 9.52943 11.3806 9.57498 11.3806 9.61784L12.6276 9.73037C12.6111 9.66605 12.5987 9.60176 12.5905 9.53749C12.5822 9.47317 12.5781 9.40617 12.5781 9.33647C12.5781 8.8059 12.7061 8.32892 12.9621 7.90553C13.2181 7.48214 13.5623 7.14584 13.9945 6.89663C14.4267 6.64742 14.9126 6.52281 15.4522 6.52281C15.9917 6.52281 16.4776 6.64742 16.9098 6.89663C17.342 7.14584 17.6862 7.48214 17.9422 7.90553C18.1982 8.32892 18.3262 8.8059 18.3262 9.33647C18.3262 9.75987 18.2395 10.1538 18.0661 10.5183C17.8926 10.8827 17.6545 11.1975 17.3517 11.4628C17.0489 11.7281 16.6993 11.9223 16.3028 12.0456L16.3111 13.2595C16.9332 13.1255 17.4866 12.8696 17.9711 12.4918C18.4556 12.1139 18.8369 11.6517 19.1149 11.105C19.393 10.5584 19.532 9.9689 19.532 9.33647C19.532 8.59688 19.3503 7.92562 18.987 7.3227C18.6235 6.71977 18.1321 6.24011 17.5127 5.88371C16.8933 5.52731 16.2065 5.34912 15.4522 5.34912ZM10.6621 5.62244C10.7997 5.75107 10.9649 5.81538 11.1576 5.81538C11.3503 5.81538 11.51 5.75107 11.6366 5.62244C11.7633 5.49382 11.828 5.33706 11.8307 5.15216C11.8334 4.96726 11.7687 4.8105 11.6366 4.68187L10.3648 3.44387C10.2326 3.31524 10.073 3.25093 9.88579 3.25093C9.69856 3.25093 9.53886 3.31524 9.40671 3.44387C9.27461 3.57249 9.20718 3.72925 9.20442 3.91415C9.20165 4.09905 9.26908 4.25581 9.40671 4.38444L10.6621 5.62244ZM15.4522 4.07091C15.6394 4.07091 15.8004 4.00392 15.9353 3.86994C16.0702 3.73595 16.1376 3.58053 16.1376 3.40367V1.66724C16.1376 1.47966 16.0702 1.32156 15.9353 1.19294C15.8004 1.06431 15.6394 1 15.4522 1C15.265 1 15.104 1.06431 14.969 1.19294C14.8341 1.32156 14.7667 1.47966 14.7667 1.66724V3.40367C14.7667 3.58053 14.8341 3.73595 14.969 3.86994C15.104 4.00392 15.265 4.07091 15.4522 4.07091ZM19.2677 5.62244C19.3944 5.75107 19.5554 5.81538 19.7509 5.81538C19.9463 5.81538 20.1101 5.75107 20.2422 5.62244L21.5059 4.38444C21.638 4.25581 21.7041 4.09905 21.7041 3.91415C21.7041 3.72925 21.638 3.57249 21.5059 3.44387C21.3737 3.31524 21.214 3.25093 21.0269 3.25093C20.8396 3.25093 20.68 3.31524 20.5479 3.44387L19.2677 4.68187C19.1356 4.8105 19.0709 4.96726 19.0736 5.15216C19.0764 5.33706 19.1411 5.49382 19.2677 5.62244ZM21.5306 10.0038H23.3228C23.51 10.0038 23.6697 9.93809 23.8018 9.80676C23.9339 9.67543 24 9.51867 24 9.33647C24 9.14889 23.9339 8.99078 23.8018 8.86214C23.6697 8.73356 23.51 8.66927 23.3228 8.66927H21.5306C21.3489 8.66927 21.1893 8.73356 21.0516 8.86214C20.914 8.99078 20.8451 9.14889 20.8451 9.33647C20.8451 9.51867 20.914 9.67543 21.0516 9.80676C21.1893 9.93809 21.3489 10.0038 21.5306 10.0038ZM20.5479 15.2291C20.68 15.3631 20.8396 15.4274 21.0269 15.422C21.214 15.4167 21.3737 15.3496 21.5059 15.221C21.638 15.0977 21.7041 14.9437 21.7041 14.7588C21.7041 14.5739 21.638 14.4171 21.5059 14.2885L20.2257 13.0586C20.0936 12.9353 19.9339 12.8723 19.7467 12.8696C19.5595 12.8669 19.3999 12.9299 19.2677 13.0586C19.1356 13.1872 19.0695 13.344 19.0695 13.5288C19.0695 13.7137 19.1356 13.8705 19.2677 13.9991L20.5479 15.2291ZM10.34 20.0847H8.53132L8.51483 20.4223L9.45626 18.6858C9.50035 18.6001 9.50726 18.5278 9.47698 18.4689C9.44665 18.4099 9.38469 18.3804 9.2911 18.3804H7.56504C7.45492 18.3804 7.37509 18.4018 7.32554 18.4447C7.27598 18.4876 7.23194 18.5465 7.1934 18.6216L6.13627 20.9609C6.09222 21.0574 6.09085 21.1338 6.13214 21.19C6.17344 21.2463 6.24639 21.2745 6.351 21.2745H7.82932L7.92843 20.8082L6.67309 23.7665C6.62354 23.8791 6.64005 23.9515 6.72265 23.9836C6.80523 24.0211 6.88782 23.9943 6.97041 23.9032L10.4638 20.4705C10.5464 20.3848 10.5753 20.2991 10.5506 20.2133C10.5258 20.1276 10.4556 20.0847 10.34 20.0847Z" fill="black" fill-opacity="0.8"/>
</svg>
