<svg width="24" height="24" viewBox="0 0 24 24" fill="none" xmlns="http://www.w3.org/2000/svg">
<path d="M3.87064 16.842H13.7481C14.6305 16.842 15.4247 16.639 16.1308 16.2331C16.8367 15.8271 17.3981 15.2777 17.815 14.5848C18.2319 13.8918 18.4404 13.115 18.4404 12.2542C18.4404 11.3995 18.2289 10.6318 17.8059 9.95115C17.3829 9.27043 16.8093 8.73166 16.0851 8.33484C15.3608 7.93802 14.5423 7.73351 13.6294 7.7213C13.0939 6.71399 12.3711 5.92188 11.4613 5.34497C10.5515 4.76806 9.53056 4.4796 8.39857 4.4796C7.64392 4.4796 6.93034 4.61544 6.25785 4.8871C5.58535 5.15877 4.98436 5.5388 4.45489 6.02719C3.92542 6.51558 3.49484 7.08334 3.16316 7.73045C2.83147 8.37757 2.62607 9.07658 2.54696 9.82746C1.78622 10.0656 1.17154 10.4945 0.702924 11.1141C0.234308 11.7337 0 12.4617 0 13.2981C0 13.9818 0.161277 14.5908 0.483831 15.125C0.806387 15.6592 1.25827 16.0789 1.83947 16.3841C2.42067 16.6894 3.09773 16.842 3.87064 16.842ZM3.83413 15.3768C3.31682 15.3768 2.88168 15.2853 2.5287 15.1021C2.17572 14.919 1.90946 14.6733 1.72993 14.365C1.55039 14.0566 1.46062 13.7132 1.46062 13.3348C1.46062 12.8464 1.60973 12.4037 1.90794 12.0069C2.20615 11.6101 2.69302 11.3232 3.36856 11.1462C3.58765 11.0851 3.74437 10.9981 3.8387 10.8852C3.93303 10.7722 3.98932 10.5998 4.00758 10.3678C4.06235 9.72675 4.21298 9.1361 4.45946 8.59583C4.70594 8.05554 5.02849 7.58852 5.42712 7.19475C5.82574 6.80098 6.27915 6.49421 6.78732 6.27444C7.2955 6.05466 7.83258 5.94478 8.39857 5.94478C8.9889 5.94478 9.53359 6.05008 10.0326 6.2607C10.5317 6.47132 10.979 6.7781 11.3746 7.18102C11.7702 7.58394 12.111 8.06928 12.397 8.63703C12.4944 8.83239 12.6085 8.96974 12.7393 9.04907C12.8702 9.12846 13.0513 9.16816 13.2825 9.16816C14.0676 9.16816 14.7356 9.3101 15.2863 9.59397C15.8371 9.87785 16.2555 10.2563 16.5415 10.7294C16.8276 11.2026 16.9706 11.7261 16.9706 12.2999C16.9706 12.8677 16.8306 13.3835 16.5507 13.8475C16.2707 14.3115 15.8888 14.6824 15.405 14.9602C14.9211 15.238 14.378 15.3768 13.7755 15.3768H3.83413ZM17.637 12.1626C18.3186 12.2053 18.9485 12.1733 19.5267 12.0664C20.1048 11.9596 20.6297 11.7932 21.1014 11.5674C21.5731 11.3415 21.99 11.0744 22.352 10.7661C22.7142 10.4578 23.0246 10.122 23.2832 9.75882C23.5419 9.39555 23.7442 9.02162 23.8902 8.63703C24.0424 8.27073 24.0364 7.94718 23.872 7.66636C23.7077 7.38553 23.446 7.24512 23.087 7.24512C22.8131 7.24512 22.5392 7.2848 22.2654 7.36416C21.9915 7.44352 21.6111 7.4832 21.1243 7.4832C20.3453 7.4832 19.6925 7.34432 19.1661 7.06655C18.6396 6.78878 18.241 6.39501 17.9702 5.88525C17.6994 5.37549 17.564 4.76653 17.564 4.05836C17.564 3.71038 17.5914 3.41125 17.6462 3.16095C17.7009 2.91065 17.7541 2.68782 17.8059 2.49246C17.8577 2.2971 17.8835 2.11396 17.8835 1.94302C17.8835 1.56451 17.742 1.29437 17.459 1.13259C17.176 0.970811 16.8337 0.957077 16.432 1.09139C15.9512 1.25011 15.4947 1.49278 15.0627 1.81939C14.6305 2.146 14.2502 2.53977 13.9216 3.00069C13.5929 3.46161 13.3327 3.97442 13.141 4.53912C12.9493 5.10382 12.8535 5.70363 12.8535 6.33854C12.8535 6.74146 12.89 7.13828 12.963 7.52899C13.0361 7.91971 13.1456 8.29821 13.2917 8.6645L14.807 8.63703C14.3992 7.95328 14.1954 7.17491 14.1954 6.30191C14.1954 5.86236 14.2547 5.44722 14.3734 5.05651C14.4921 4.6658 14.6564 4.30713 14.8664 3.98052C15.0763 3.65391 15.3167 3.36546 15.5876 3.11516C15.8584 2.86486 16.1429 2.65729 16.4411 2.49246L16.5415 2.56571C16.4685 2.78549 16.4015 3.04647 16.3407 3.34867C16.2798 3.65086 16.2494 3.979 16.2494 4.33308C16.2494 5.21219 16.4457 5.98446 16.8382 6.64989C17.2308 7.31532 17.7709 7.83576 18.4586 8.21122C19.1463 8.58668 19.9314 8.77441 20.8138 8.77441C21.1364 8.77441 21.4422 8.74999 21.7313 8.70113C22.0204 8.6523 22.2714 8.59125 22.4844 8.51799L22.5483 8.59124C22.3962 8.87814 22.1787 9.16506 21.8957 9.452C21.6127 9.73894 21.2673 9.99535 20.8595 10.2212C20.4518 10.4471 19.9786 10.6165 19.44 10.7294C18.9013 10.8424 18.3003 10.8745 17.637 10.8257V12.1626ZM3.71546 21.1368L4.90221 19.0672C4.98741 18.9268 5.01023 18.7849 4.97067 18.6414C4.93112 18.4979 4.84439 18.3865 4.7105 18.3072C4.57052 18.2278 4.43055 18.2079 4.29057 18.2476C4.15059 18.2873 4.03801 18.3774 3.95281 18.5178L2.75692 20.6057C2.67781 20.7339 2.65651 20.8697 2.69302 21.0131C2.72953 21.1566 2.81778 21.268 2.95776 21.3474C3.09773 21.4207 3.23923 21.4375 3.38225 21.3978C3.52527 21.3581 3.63634 21.2711 3.71546 21.1368ZM6.57279 23.71L7.75955 21.6496C7.84475 21.5092 7.86757 21.3672 7.82801 21.2238C7.78846 21.0803 7.70173 20.9689 7.56784 20.8895C7.42786 20.8041 7.28789 20.7827 7.14791 20.8254C7.00794 20.8682 6.89535 20.9598 6.81015 21.1002L5.61426 23.1789C5.53515 23.3132 5.51385 23.4505 5.55036 23.591C5.58687 23.7314 5.67512 23.8413 5.81509 23.9206C5.95507 24 6.09657 24.0198 6.23959 23.9802C6.38261 23.9405 6.49368 23.8504 6.57279 23.71ZM10.982 21.1276L12.1688 19.0581C12.2479 18.9177 12.2692 18.7758 12.2327 18.6323C12.1961 18.4888 12.1079 18.3774 11.9679 18.298C11.8341 18.2187 11.6956 18.1988 11.5526 18.2385C11.4096 18.2781 11.2985 18.3682 11.2194 18.5086L10.0236 20.5965C9.94441 20.7247 9.92309 20.8606 9.95961 21.004C9.99613 21.1475 10.0844 21.2589 10.2243 21.3382C10.3582 21.4115 10.4982 21.4283 10.6443 21.3886C10.7903 21.3489 10.9029 21.2619 10.982 21.1276ZM13.8302 23.7008L15.0261 21.6405C15.1053 21.5001 15.1266 21.3581 15.0901 21.2147C15.0535 21.0712 14.9653 20.9598 14.8253 20.8804C14.6854 20.7949 14.5454 20.7736 14.4054 20.8163C14.2654 20.859 14.1528 20.9506 14.0676 21.091L12.8717 23.1697C12.7987 23.304 12.7804 23.4414 12.8169 23.5818C12.8534 23.7222 12.9417 23.8321 13.0816 23.9115C13.2156 23.9908 13.3556 24.0107 13.5017 23.971C13.6477 23.9313 13.7572 23.8413 13.8302 23.7008Z" fill="black" fill-opacity="0.8"/>
</svg>
