<svg width="24" height="24" viewBox="0 0 24 24" fill="none" xmlns="http://www.w3.org/2000/svg">
<path d="M3.50172 20H12.4377C13.236 20 13.9546 19.8148 14.5933 19.4445C15.232 19.0742 15.7399 18.5707 16.117 17.9339C16.4942 17.2971 16.6828 16.5832 16.6828 15.7921C16.6828 15.0066 16.4914 14.3011 16.1088 13.6755C15.7261 13.0499 15.2071 12.5548 14.5519 12.1901C13.8967 11.8254 13.1562 11.6375 12.3304 11.6263C11.8458 10.7005 11.192 9.97251 10.3689 9.44232C9.54577 8.91212 8.62217 8.64702 7.59808 8.64702C6.91535 8.64702 6.26979 8.77185 5.6614 9.02152C5.05299 9.27119 4.50929 9.62045 4.03028 10.0693C3.55128 10.5181 3.16174 11.0399 2.86167 11.6346C2.5616 12.2294 2.37577 12.8718 2.3042 13.5619C1.61597 13.7807 1.05988 14.1748 0.635926 14.7443C0.211975 15.3137 0 15.98 0 16.7431C0 17.3771 0.145905 17.9395 0.437715 18.4304C0.729527 18.9214 1.13834 19.3057 1.66414 19.5834C2.18995 19.8611 2.80248 20 3.50172 20ZM3.46868 18.6535C3.00069 18.6535 2.60702 18.5707 2.28768 18.4052C1.96834 18.2397 1.72746 18.0152 1.56504 17.7319C1.40262 17.4486 1.3214 17.1302 1.3214 16.7767C1.3214 16.3334 1.4563 15.9295 1.72609 15.5648C1.99587 15.2001 2.43634 14.9364 3.04749 14.7737C3.2457 14.7177 3.38748 14.6377 3.47282 14.5339C3.55816 14.4301 3.60908 14.2716 3.6256 14.0584C3.67516 13.4693 3.81143 12.9264 4.03441 12.4299C4.2574 11.9334 4.54921 11.5042 4.90984 11.1423C5.27047 10.7804 5.68066 10.4985 6.1404 10.2965C6.60014 10.0945 7.08603 9.99355 7.59808 9.99355C8.13214 9.99355 8.62491 10.0903 9.07638 10.2839C9.52787 10.4775 9.93256 10.7594 10.2905 11.1297C10.6483 11.5 10.9566 11.946 11.2154 12.4678C11.3035 12.6473 11.4068 12.7722 11.5251 12.8423C11.6435 12.9125 11.8073 12.9475 12.0165 12.9475C12.7268 12.9475 13.3311 13.0794 13.8293 13.3431C14.3276 13.6067 14.7061 13.956 14.9649 14.3908C15.2237 14.8256 15.3531 15.3039 15.3531 15.8257C15.3531 16.3531 15.2264 16.83 14.9732 17.2564C14.7199 17.6828 14.3744 18.0223 13.9367 18.2747C13.499 18.5272 13.0076 18.6535 12.4625 18.6535H3.46868ZM15.4522 8.79009C15.9917 8.79009 16.4776 8.91913 16.9098 9.17722C17.342 9.4353 17.6862 9.78736 17.9422 10.2334C18.1982 10.6794 18.3262 11.1774 18.3262 11.7273C18.3262 12.1704 18.2395 12.5828 18.0661 12.9643C17.8926 13.3459 17.6545 13.6755 17.3517 13.9532C17.0489 14.231 16.6993 14.4343 16.3028 14.5634L16.3111 15.8342C16.9332 15.6939 17.4866 15.426 17.9711 15.0305C18.4556 14.6349 18.8369 14.151 19.1149 13.5787C19.393 13.0064 19.532 12.3893 19.532 11.7273C19.532 10.953 19.3503 10.2502 18.987 9.61904C18.6235 8.98786 18.1321 8.48572 17.5127 8.11262C16.8933 7.73951 16.2065 7.55296 15.4522 7.55296C14.6924 7.55296 14.0041 7.73951 13.3875 8.11262C12.7708 8.48572 12.2794 8.98786 11.9133 9.61904C11.5471 10.2502 11.3641 10.953 11.3641 11.7273C11.3641 11.7777 11.3668 11.8282 11.3724 11.8787C11.3778 11.9292 11.3806 11.9797 11.3806 12.0302L12.6276 12.148C12.6111 12.0806 12.5987 12.0119 12.5905 11.9418C12.5822 11.8717 12.5781 11.8002 12.5781 11.7273C12.5781 11.1774 12.7061 10.6794 12.9621 10.2334C13.2181 9.78736 13.5623 9.4353 13.9945 9.17722C14.4267 8.91913 14.9126 8.79009 15.4522 8.79009ZM10.6621 7.8391C10.7997 7.97375 10.9649 8.04108 11.1576 8.04108C11.3503 8.04108 11.51 7.97375 11.6366 7.8391C11.7633 7.70445 11.828 7.54034 11.8307 7.34678C11.8334 7.15321 11.7687 6.99191 11.6366 6.86286L10.3648 5.55841C10.2326 5.42376 10.073 5.35644 9.88579 5.35644C9.69856 5.35644 9.53886 5.42376 9.40671 5.55841C9.27461 5.69306 9.20718 5.85717 9.20442 6.05074C9.20165 6.2443 9.26908 6.40841 9.40671 6.54306L10.6621 7.8391ZM15.4522 6.21485C15.6394 6.21485 15.8004 6.14471 15.9353 6.00445C16.0702 5.86419 16.1376 5.70148 16.1376 5.51633V3.69851C16.1376 3.50776 16.0702 3.34365 15.9353 3.20619C15.8004 3.06873 15.6394 3 15.4522 3C15.265 3 15.104 3.06873 14.969 3.20619C14.8341 3.34365 14.7667 3.50776 14.7667 3.69851V5.51633C14.7667 5.70148 14.8341 5.86419 14.969 6.00445C15.104 6.14471 15.265 6.21485 15.4522 6.21485ZM19.2677 7.8391C19.3944 7.97375 19.5554 8.04108 19.7509 8.04108C19.9463 8.04108 20.1101 7.97375 20.2422 7.8391L21.5059 6.54306C21.638 6.40841 21.7041 6.2443 21.7041 6.05074C21.7041 5.85717 21.638 5.69306 21.5059 5.55841C21.3737 5.42376 21.214 5.35644 21.0269 5.35644C20.8396 5.35644 20.68 5.42376 20.5479 5.55841L19.2677 6.86286C19.1356 6.99191 19.0709 7.15321 19.0736 7.34678C19.0764 7.54034 19.1411 7.70445 19.2677 7.8391ZM21.5306 12.4257H23.3228C23.51 12.4257 23.6697 12.357 23.8018 12.2195C23.9339 12.0821 24 11.918 24 11.7273C24 11.5309 23.9339 11.3653 23.8018 11.2307C23.6697 11.096 23.51 11.0287 23.3228 11.0287H21.5306C21.3489 11.0287 21.1893 11.096 21.0516 11.2307C20.914 11.3653 20.8451 11.5309 20.8451 11.7273C20.8451 11.918 20.914 12.0821 21.0516 12.2195C21.1893 12.357 21.3489 12.4257 21.5306 12.4257ZM20.5479 17.9044C20.68 18.0391 20.8396 18.1036 21.0269 18.098C21.214 18.0924 21.3737 18.0251 21.5059 17.896C21.638 17.7614 21.7041 17.5973 21.7041 17.4037C21.7041 17.2102 21.638 17.046 21.5059 16.9114L20.2257 15.6237C20.0936 15.4947 19.9339 15.4287 19.7467 15.4259C19.5595 15.4232 19.3999 15.4891 19.2677 15.6237C19.1356 15.7584 19.0695 15.9225 19.0695 16.116C19.0695 16.3096 19.1356 16.4737 19.2677 16.6084L20.5479 17.9044Z" fill="black" fill-opacity="0.8"/>
</svg>
