<svg width="24" height="24" viewBox="0 0 24 24" fill="none" xmlns="http://www.w3.org/2000/svg">
<path d="M5.52913 16H17.488C18.2782 16 19.009 15.8581 19.6803 15.5743C20.3516 15.2905 20.9362 14.8961 21.4341 14.3911C21.9319 13.8862 22.3174 13.2987 22.5905 12.6287C22.8635 11.9587 23 11.2442 23 10.4852C23 9.69309 22.8539 8.96536 22.5616 8.302C22.2692 7.63864 21.8613 7.06108 21.3378 6.56933C20.8142 6.07758 20.2023 5.69639 19.502 5.42576C18.8017 5.15513 18.0436 5.01982 17.2278 5.01982C16.8294 4.20793 16.3203 3.50001 15.7004 2.89605C15.0805 2.29209 14.3754 1.82509 13.5852 1.49505C12.795 1.16502 11.9341 1 11.0026 1C10.0968 1 9.24399 1.16997 8.44416 1.5099C7.64433 1.84984 6.92963 2.32014 6.30005 2.9208C5.67046 3.52146 5.16134 4.22114 4.77267 5.01982C4.384 5.8185 4.15112 6.67659 4.07402 7.59408C3.48941 7.7657 2.96584 8.04788 2.50329 8.44062C2.04074 8.83336 1.67455 9.31025 1.40473 9.87129C1.13491 10.4324 1 11.0628 1 11.7625C1 12.5413 1.17827 13.2525 1.53482 13.896C1.89137 14.5396 2.40692 15.0512 3.08148 15.4307C3.75603 15.8102 4.57191 16 5.52913 16Z" fill="white"/>
<path d="M6.08727 20.0285L7.32828 17.8806C7.41738 17.7349 7.44125 17.5876 7.39988 17.4387C7.35851 17.2898 7.26782 17.1742 7.12781 17.0919C6.98143 17.0095 6.83506 16.9889 6.68868 17.0301C6.54231 17.0713 6.42457 17.1647 6.33548 17.3105L5.08491 19.4773C5.00218 19.6103 4.9799 19.7513 5.01809 19.9002C5.05627 20.0491 5.15173 20.1647 5.30448 20.2471C5.44449 20.3232 5.59086 20.3406 5.7436 20.2994C5.89634 20.2582 6.0109 20.1679 6.08727 20.0285ZM9.07525 22.699L10.3163 20.5607C10.4054 20.415 10.4292 20.2676 10.3879 20.1188C10.3465 19.9699 10.2558 19.8542 10.1158 19.7719C9.96942 19.6895 9.82304 19.6689 9.67666 19.7101C9.53029 19.7513 9.41256 19.8448 9.32346 19.9905L8.07289 22.1478C7.99016 22.2872 7.96789 22.4297 8.00607 22.5754C8.04425 22.7212 8.13653 22.8353 8.28291 22.9176C8.42928 23 8.57725 23.0206 8.72682 22.9794C8.87637 22.9382 8.99252 22.8447 9.07525 22.699ZM13.6861 20.019L14.9271 17.8712C15.0162 17.7255 15.0401 17.5782 14.9988 17.4293C14.9574 17.2804 14.8635 17.1647 14.7171 17.0824C14.5771 17 14.4323 16.9794 14.2827 17.0206C14.1331 17.0618 14.017 17.1552 13.9343 17.3009L12.6837 19.4678C12.601 19.6009 12.5787 19.7418 12.6169 19.8907C12.6551 20.0396 12.7473 20.1552 12.8937 20.2376C13.0338 20.3136 13.1802 20.331 13.3329 20.2898C13.4856 20.2486 13.6033 20.1584 13.6861 20.019ZM16.6741 22.6895L17.9151 20.5512C17.9978 20.4055 18.0201 20.2582 17.9819 20.1093C17.9437 19.9604 17.8514 19.8448 17.7051 19.7624C17.5587 19.68 17.4123 19.6594 17.266 19.7006C17.1196 19.7418 17.005 19.8352 16.9223 19.981L15.6622 22.1383C15.5858 22.2777 15.5667 22.4203 15.6049 22.566C15.6431 22.7117 15.7354 22.8257 15.8818 22.9081C16.0217 22.9905 16.1681 23.0111 16.3209 22.9699C16.4736 22.9287 16.5914 22.8352 16.6741 22.6895Z" fill="#5856D6"/>
</svg>
