<svg width="24" height="24" viewBox="0 0 24 24" fill="none" xmlns="http://www.w3.org/2000/svg">
<path d="M5.52913 15.5186H17.488C18.2782 15.5186 19.009 15.3812 19.6803 15.1065C20.3516 14.8318 20.9362 14.4501 21.4341 13.9613C21.9319 13.4726 22.3174 12.904 22.5905 12.2555C22.8635 11.607 23 10.9155 23 10.1808C23 9.4141 22.8539 8.70972 22.5616 8.06766C22.2692 7.42558 21.8613 6.86656 21.3378 6.39059C20.8142 5.91462 20.2023 5.54567 19.502 5.28372C18.8017 5.02178 18.0436 4.89081 17.2278 4.89081C16.8294 4.10498 16.3203 3.41977 15.7004 2.8352C15.0805 2.25062 14.3754 1.79861 13.5852 1.47916C12.795 1.15972 11.9341 1 11.0026 1C10.0968 1 9.24399 1.16451 8.44416 1.49354C7.64433 1.82256 6.92963 2.27777 6.30005 2.85915C5.67046 3.44054 5.16134 4.11776 4.77267 4.89081C4.384 5.66386 4.15112 6.49441 4.07402 7.38246C3.48941 7.54857 2.96584 7.82169 2.50329 8.20182C2.04074 8.58196 1.67455 9.04354 1.40473 9.58658C1.13491 10.1296 1 10.7398 1 11.417C1 12.1709 1.17827 12.8593 1.53482 13.4822C1.89137 14.1051 2.40692 14.6002 3.08148 14.9676C3.75603 15.3349 4.57191 15.5186 5.52913 15.5186ZM5.50986 13.9853C4.84815 13.9853 4.29888 13.8735 3.86203 13.6499C3.42517 13.4263 3.09593 13.1245 2.87429 12.7443C2.65265 12.3641 2.54183 11.9377 2.54183 11.4649C2.54183 10.8899 2.72171 10.3644 3.08148 9.88844C3.44124 9.4125 4.03227 9.06592 4.85458 8.84872C5.1244 8.77843 5.31392 8.673 5.42313 8.53244C5.53235 8.39189 5.5998 8.18745 5.6255 7.91911C5.67689 7.13329 5.85516 6.41295 6.16032 5.7581C6.46547 5.10324 6.86218 4.53463 7.35043 4.05227C7.83867 3.56991 8.39597 3.19617 9.02234 2.93103C9.64871 2.66589 10.3088 2.53332 11.0026 2.53332C12.0883 2.53332 13.0488 2.81922 13.8839 3.39103C14.7191 3.96283 15.3969 4.779 15.9172 5.83955C16.0264 6.07593 16.1613 6.24045 16.3219 6.33308C16.4826 6.42572 16.7074 6.47204 16.9965 6.47204C17.9473 6.47204 18.7551 6.64294 19.4201 6.98475C20.085 7.32656 20.5909 7.78176 20.9378 8.35037C21.2847 8.91897 21.4582 9.5419 21.4582 10.2191C21.4582 10.9155 21.2879 11.548 20.9474 12.1165C20.607 12.6852 20.1444 13.1388 19.5598 13.4774C18.9752 13.816 18.3167 13.9853 17.5843 13.9853H5.50986ZM5.77968 20.0037L7.03242 17.8378C7.12236 17.6908 7.14645 17.5423 7.10469 17.3921C7.06294 17.242 6.97139 17.1254 6.83005 17.0424C6.68229 16.9593 6.53453 16.9385 6.38677 16.9801C6.23902 17.0216 6.12017 17.1159 6.03023 17.2628L4.76785 19.4478C4.68434 19.5819 4.66185 19.7241 4.7004 19.8742C4.73894 20.0244 4.83531 20.141 4.98949 20.2241C5.13083 20.3007 5.27858 20.3183 5.43277 20.2768C5.58695 20.2352 5.70259 20.1442 5.77968 20.0037ZM8.79589 22.6965L10.0486 20.5402C10.1386 20.3933 10.1627 20.2448 10.1209 20.0946C10.0791 19.9445 9.9876 19.8279 9.84626 19.7449C9.6985 19.6618 9.55074 19.641 9.40298 19.6826C9.25523 19.7241 9.13638 19.8183 9.04644 19.9653L7.78406 22.1407C7.70055 22.2812 7.67806 22.4249 7.71661 22.5719C7.75515 22.7189 7.8483 22.8339 7.99606 22.9169C8.14382 23 8.29319 23.0208 8.44416 22.9792C8.59513 22.9377 8.71238 22.8434 8.79589 22.6965ZM13.4503 19.994L14.703 17.8282C14.7929 17.6813 14.8171 17.5328 14.7753 17.3826C14.7336 17.2325 14.6388 17.1159 14.4911 17.0328C14.3497 16.9498 14.2035 16.929 14.0525 16.9705C13.9016 17.012 13.7843 17.1063 13.7009 17.2532L12.4385 19.4382C12.3549 19.5724 12.3324 19.7146 12.371 19.8647C12.4095 20.0148 12.5027 20.1314 12.6504 20.2144C12.7918 20.2911 12.9396 20.3087 13.0938 20.2671C13.2479 20.2256 13.3668 20.1346 13.4503 19.994ZM16.4665 22.6869L17.7193 20.5307C17.8028 20.3838 17.8252 20.2352 17.7867 20.0851C17.7481 19.935 17.655 19.8183 17.5072 19.7353C17.3595 19.6522 17.2117 19.6315 17.064 19.6729C16.9162 19.7145 16.8006 19.8087 16.717 19.9557L15.4451 22.1311C15.368 22.2717 15.3487 22.4154 15.3872 22.5624C15.4258 22.7093 15.5189 22.8243 15.6667 22.9073C15.808 22.9904 15.9558 23.0112 16.11 22.9696C16.2642 22.9281 16.383 22.8338 16.4665 22.6869Z" fill="white"/>
</svg>
