<svg version="1.2" xmlns="http://www.w3.org/2000/svg" viewBox="0 0 24 24" width="24" height="24">
	<style>
		.s0 { fill: #000000 } 
	</style>
	<path id="Path 0" class="s0" d="m5.88 3.02q0 0.02-0.06 0.03-0.05 0-0.12 0.08l-0.08 0.08c0 1.89 0.01 1.98 0.04 2.03q0.05 0.06 0.14 0.11 0.09 0.04 0.16 0.04 0.06 0 0.14-0.04 0.07-0.04 0.1-0.06 0.02-0.03 0.06-0.13c0.04-0.09 0.04-0.21 0.04-0.97 0-0.55 0-0.87-0.02-0.87q-0.02-0.02-0.02-0.07-0.01-0.05-0.08-0.13-0.07-0.07-0.11-0.07-0.04-0.01-0.05-0.03-0.02-0.02-0.08-0.02-0.05 0-0.06 0.02zm7.57 0.77q-0.06 0.05-0.11 0.11c-0.04 0.07-0.04 0.13-0.04 8.81-0.01 8.7 0 8.74 0.04 8.82q0.05 0.07 0.14 0.11 0.08 0.04 0.09 0.06 0.01 0.02 0.05 0.02 0.05 0 0.05-0.02 0-0.02 0.05-0.03 0.05 0 0.14-0.09l0.1-0.1v-17.53q-0.16-0.15-0.19-0.17-0.06-0.03-0.15-0.03-0.1 0.01-0.17 0.04zm-13.28 3.97q-0.06 0.04-0.08 0.07-0.03 0.04-0.06 0.13-0.05 0.1-0.02 0.14 0.03 0.05 0.04 0.11 0.02 0.05 0.05 0.09 0.04 0.02 0.09 0.04 0.06 0.01 0.06 0.03 0.01 0.02 0.09 0.03 0.08 0 0.11 0.01c0.01 0.01 0.11 0.03 0.22 0.05 0.11 0.01 0.26 0.04 0.33 0.05 0.07 0.02 0.22 0.04 0.32 0.06 0.1 0.01 0.2 0.03 0.21 0.04 0.01 0.01 0.1 0.02 0.2 0.03 0.1 0.01 0.21 0.03 0.26 0.04q0.08 0.04 0.08 0 0.01-0.02 0.06-0.03 0.06 0 0.13-0.07c0.06-0.06 0.07-0.09 0.07-0.22q0.01-0.14-0.02-0.2-0.03-0.05-0.1-0.1-0.07-0.03-0.12-0.04-0.05 0-0.07-0.02c0-0.02-0.1-0.03-0.2-0.04-0.11-0.01-0.21-0.02-0.22-0.03q-0.03-0.02-0.12-0.04c-0.05 0-0.19-0.02-0.3-0.04-0.12-0.02-0.22-0.04-0.24-0.04-0.01-0.01-0.11-0.03-0.22-0.04-0.1-0.01-0.2-0.03-0.2-0.04q-0.02-0.01-0.15-0.01-0.13 0-0.2 0.04zm18.93 2.06q-0.02 0.02-0.1 0.04-0.07 0.01-0.07 0.03-0.01 0.02-0.1 0.06-0.09 0.04-0.12 0.04-0.02 0-0.02 0.02-0.01 0.03-0.07 0.04-0.06 0.01-0.07 0.03 0 0.03-0.04 0.04-0.04 0.01-0.1 0.05-0.07 0.04-0.14 0.09-0.07 0.05-0.07 0.07 0 0.01-0.03 0.01-0.04 0.01-0.11 0.07c-0.04 0.03-0.19 0.17-0.34 0.31-0.14 0.13-0.3 0.31-0.36 0.38-0.05 0.07-0.1 0.14-0.1 0.15q-0.01 0.02-0.04 0.05c-0.03 0.02-0.09 0.11-0.15 0.2-0.05 0.09-0.15 0.28-0.22 0.43-0.07 0.14-0.13 0.27-0.13 0.3q0 0.03-0.02 0.05-0.03 0.02-0.04 0.12-0.01 0.09-0.03 0.1-0.03 0.01-0.04 0.07c0 0.03-0.02 0.13-0.04 0.22-0.02 0.09-0.04 0.19-0.05 0.22-0.02 0.02-0.03 0.33-0.03 0.69q0 0.66 0.03 0.68c0.01 0.02 0.03 0.1 0.04 0.19q0.02 0.15 0.04 0.17 0.02 0.02 0.02 0.08 0 0.07 0.02 0.08 0.02 0.02 0.04 0.1 0.02 0.09 0.03 0.12 0.02 0.03 0.05 0.1c0.02 0.05 0.07 0.15 0.11 0.24 0.04 0.08 0.08 0.15 0.08 0.16q0.02 0.02 0.03 0.07 0.02 0.06 0.05 0.1 0.04 0.03 0.04 0.06 0 0.03 0.02 0.03 0.02 0 0.04 0.04 0.01 0.04 0.05 0.1c0.02 0.04 0.09 0.13 0.16 0.22 0.06 0.08 0.23 0.26 0.38 0.4 0.14 0.14 0.31 0.3 0.38 0.36 0.07 0.05 0.17 0.11 0.21 0.14q0.08 0.04 0.12 0.08 0.04 0.04 0.09 0.06 0.06 0.02 0.13 0.07c0.04 0.02 0.11 0.06 0.17 0.09q0.09 0.04 0.13 0.06 0.04 0.02 0.08 0.02 0.03 0 0.03 0.03 0.01 0.02 0.1 0.04 0.08 0.01 0.09 0.03 0.01 0.02 0.11 0.03 0.09 0.01 0.11 0.04 0.02 0.02 0.07 0.02 0.06 0 0.1 0.02c0.03 0.01 0.12 0.04 0.22 0.05 0.1 0.01 0.28 0.04 0.41 0.05 0.13 0.01 0.39 0.01 0.59 0.01 0.19-0.01 0.36-0.03 0.38-0.04 0.02-0.01 0.11-0.02 0.2-0.03q0.14-0.01 0.17-0.04 0.01-0.02 0.08-0.02 0.06 0 0.07-0.02 0.01-0.02 0.09-0.03 0.09-0.02 0.14-0.04 0.05-0.03 0.1-0.05 0.04-0.02 0.07-0.03c0.02 0 0.16-0.06 0.32-0.14 0.15-0.07 0.3-0.15 0.32-0.17q0.05-0.02 0.06-0.04 0.02-0.01 0.08-0.06 0.07-0.04 0.1-0.05c0.02-0.01 0.14-0.11 0.27-0.23 0.13-0.11 0.31-0.29 0.4-0.4 0.1-0.1 0.19-0.21 0.21-0.24q0.04-0.05 0.08-0.15 0.03-0.1 0.01-0.12-0.02-0.03-0.02-0.07-0.01-0.05-0.08-0.12-0.07-0.07-0.13-0.1-0.05-0.03-0.09-0.03-0.05 0.01-0.16 0.04-0.11 0.04-0.16 0.06-0.05 0.02-0.16 0.04c-0.05 0.02-0.14 0.04-0.19 0.04q-0.09 0.02-0.13 0.04-0.03 0.03-0.57 0.03-0.53 0-0.56-0.03-0.04-0.02-0.13-0.04c-0.05-0.01-0.15-0.03-0.23-0.04q-0.12-0.03-0.13-0.05-0.01-0.02-0.05-0.02-0.05 0-0.13-0.04c-0.05-0.02-0.19-0.08-0.31-0.14-0.12-0.06-0.24-0.12-0.26-0.14q-0.05-0.02-0.05-0.04 0-0.01-0.02-0.01-0.03-0.01-0.11-0.07c-0.05-0.03-0.13-0.09-0.18-0.13-0.04-0.04-0.14-0.12-0.21-0.19-0.07-0.07-0.2-0.2-0.28-0.3-0.09-0.1-0.16-0.19-0.16-0.19q-0.01-0.02-0.07-0.1c-0.03-0.05-0.08-0.12-0.1-0.16q-0.03-0.07-0.08-0.14-0.05-0.07-0.07-0.14-0.02-0.07-0.06-0.15-0.04-0.07-0.04-0.11-0.01-0.03-0.04-0.08-0.03-0.07-0.05-0.17-0.01-0.1-0.03-0.13-0.02-0.02-0.03-0.1c-0.01-0.05-0.03-0.14-0.04-0.21-0.01-0.07-0.02-0.32-0.02-0.54 0-0.23 0.01-0.47 0.02-0.54 0.01-0.07 0.03-0.17 0.04-0.21q0.01-0.08 0.03-0.11 0.02-0.03 0.03-0.12 0.02-0.09 0.05-0.16 0.03-0.07 0.04-0.09 0-0.03 0.04-0.13c0.03-0.06 0.07-0.14 0.09-0.18 0.02-0.04 0.07-0.13 0.1-0.2q0.07-0.13 0.09-0.14 0.03 0 0.04-0.04 0.01-0.04 0.06-0.11 0.04-0.07 0.06-0.11 0.01-0.03 0.03-0.07 0.03-0.04-0.01-0.15-0.04-0.1-0.07-0.15-0.05-0.04-0.1-0.07-0.07-0.03-0.17-0.03-0.11 0.01-0.13 0.02zm-16.92-5.47q-0.05 0.02-0.13 0.1c-0.08 0.08-0.09 0.1-0.09 0.23q0 0.13 0.03 0.14 0.02 0.01 0.02 0.04 0.01 0.03 0.07 0.1 0.07 0.06 0.07 0.09 0.01 0.02 0.09 0.11c0.05 0.05 0.13 0.15 0.19 0.22 0.05 0.06 0.19 0.22 0.3 0.35 0.11 0.12 0.2 0.23 0.2 0.24 0 0.01 0.06 0.09 0.15 0.18 0.12 0.13 0.16 0.16 0.23 0.16q0.07 0 0.13 0 0.06-0.01 0.13-0.05 0.07-0.04 0.11-0.11 0.04-0.07 0.04-0.16 0-0.09-0.03-0.16-0.04-0.07-0.08-0.12c-0.03-0.03-0.1-0.11-0.17-0.19-0.07-0.08-0.2-0.23-0.28-0.33-0.08-0.1-0.17-0.2-0.19-0.23-0.02-0.02-0.08-0.09-0.13-0.15q-0.09-0.1-0.1-0.13c0-0.02-0.07-0.09-0.15-0.17-0.13-0.13-0.16-0.15-0.25-0.16q-0.1-0.01-0.16 0zm7.31 0c-0.03 0.01-0.1 0.07-0.16 0.13-0.06 0.06-0.16 0.17-0.22 0.24q-0.1 0.12-0.11 0.15c0 0-0.09 0.11-0.19 0.23-0.11 0.12-0.24 0.28-0.3 0.35-0.06 0.07-0.13 0.16-0.17 0.2-0.03 0.03-0.08 0.1-0.12 0.16q-0.06 0.1-0.06 0.18 0 0.07 0.04 0.13 0.05 0.06 0.05 0.09 0.01 0.03 0.09 0.07c0.05 0.02 0.13 0.04 0.18 0.03q0.09 0 0.15-0.03 0.06-0.03 0.1-0.07 0.04-0.04 0.04-0.06 0.01-0.02 0.1-0.11 0.08-0.09 0.09-0.11 0.01-0.03 0.07-0.09c0.03-0.04 0.12-0.14 0.2-0.24 0.08-0.09 0.19-0.22 0.25-0.29 0.06-0.06 0.14-0.16 0.19-0.22 0.04-0.06 0.11-0.13 0.14-0.17q0.06-0.08 0.07-0.12 0-0.04 0.02-0.09 0.03-0.06 0-0.08-0.02-0.02-0.02-0.06-0.01-0.04-0.09-0.12-0.09-0.09-0.18-0.1-0.09-0.01-0.16 0zm-3.85 1.82q-0.06 0.02-0.14 0.02-0.08 0-0.13 0.02-0.05 0.02-0.15 0.04-0.1 0.01-0.12 0.03-0.02 0.03-0.07 0.03-0.06 0-0.06 0.02-0.01 0.02-0.04 0.03-0.05 0-0.14 0.04-0.09 0.04-0.12 0.05-0.03 0-0.04 0.02-0.01 0.02-0.13 0.08-0.12 0.06-0.14 0.08-0.02 0.02-0.13 0.1c-0.07 0.04-0.22 0.17-0.34 0.29-0.12 0.12-0.21 0.23-0.21 0.24q-0.01 0.02-0.06 0.08-0.06 0.06-0.06 0.08-0.01 0.03-0.04 0.06c-0.01 0.02-0.09 0.15-0.16 0.29-0.07 0.15-0.13 0.28-0.13 0.29q0 0.03-0.02 0.07-0.02 0.05-0.05 0.14c-0.02 0.05-0.04 0.15-0.04 0.22q-0.02 0.11-0.04 0.13c-0.01 0.01-0.01 0.19-0.01 0.41 0 0.22 0 0.4 0.01 0.41q0.02 0.02 0.04 0.13c0 0.07 0.02 0.17 0.04 0.22q0.03 0.09 0.05 0.14 0.02 0.05 0.03 0.11 0.02 0.06 0.05 0.12 0.02 0.06 0.04 0.07 0.02 0 0.02 0.02 0 0.03 0.05 0.15c0.03 0.06 0.08 0.13 0.1 0.15q0.03 0.04 0.04 0.06 0.01 0.04 0.1 0.15c0.05 0.07 0.15 0.19 0.22 0.27 0.07 0.08 0.21 0.2 0.31 0.27 0.1 0.08 0.19 0.14 0.21 0.15q0.04 0.02 0.15 0.09c0.07 0.04 0.17 0.09 0.23 0.12q0.09 0.04 0.14 0.06 0.04 0.02 0.12 0.05 0.09 0.02 0.1 0.03 0.02 0.02 0.08 0.02 0.06 0 0.08 0.02 0.02 0.01 0.08 0.02c0.04 0.01 0.14 0.02 0.23 0.03 0.09 0.02 0.24 0.03 0.34 0.03 0.1 0 0.24-0.01 0.33-0.02 0.08 0 0.17-0.02 0.18-0.03 0.02 0 0.1-0.02 0.18-0.04 0.08-0.02 0.19-0.04 0.25-0.06q0.11-0.03 0.11-0.05 0.01-0.01 0.04-0.02 0.03 0 0.08-0.02 0.04-0.02 0.13-0.06c0.05-0.02 0.13-0.07 0.16-0.1q0.07-0.05 0.09-0.05 0.03-0.01 0.12-0.08 0.09-0.07 0.13-0.1c0.02-0.01 0.13-0.11 0.24-0.22 0.11-0.11 0.23-0.24 0.26-0.28q0.06-0.08 0.11-0.14c0.02-0.03 0.1-0.18 0.18-0.33 0.07-0.15 0.13-0.28 0.13-0.3q0-0.03 0.02-0.07 0.02-0.04 0.05-0.09c0.01-0.03 0.03-0.13 0.04-0.21q0.02-0.14 0.04-0.17c0.01 0 0.01-0.2 0.01-0.44 0-0.24 0-0.44-0.01-0.44q-0.02-0.02-0.04-0.17c-0.01-0.08-0.03-0.17-0.04-0.19-0.01-0.03-0.05-0.14-0.1-0.25-0.04-0.12-0.09-0.24-0.11-0.27q-0.04-0.06-0.06-0.1-0.01-0.03-0.04-0.08c-0.02-0.03-0.07-0.11-0.12-0.18-0.05-0.07-0.2-0.23-0.33-0.37-0.13-0.13-0.25-0.24-0.26-0.24q-0.03 0-0.11-0.07-0.07-0.06-0.1-0.09-0.03-0.02-0.08-0.04-0.06-0.02-0.12-0.05c-0.03-0.02-0.11-0.06-0.17-0.09-0.05-0.03-0.14-0.06-0.19-0.08q-0.09-0.03-0.12-0.05-0.03-0.01-0.14-0.03-0.11-0.02-0.14-0.04c-0.02-0.01-0.1-0.02-0.19-0.03-0.09-0.01-0.28-0.02-0.41-0.03-0.14 0-0.27 0-0.29 0.02zm5.73 1.57q-0.04 0.02-0.1 0.01-0.07-0.02-0.09 0.01-0.02 0.02-0.12 0.03-0.1 0-0.12 0.01c-0.01 0.01-0.1 0.03-0.21 0.04-0.11 0.01-0.21 0.03-0.22 0.04q-0.02 0.02-0.11 0.02-0.1 0-0.12 0.02c0 0.01-0.08 0.03-0.18 0.04-0.09 0.01-0.21 0.03-0.25 0.04q-0.09 0.03-0.16 0.06-0.07 0.05-0.12 0.11-0.04 0.07-0.03 0.21 0.01 0.13 0.06 0.18c0.03 0.03 0.09 0.07 0.15 0.1 0.09 0.04 0.12 0.04 0.18 0.02 0.04-0.01 0.15-0.03 0.24-0.04 0.1-0.01 0.19-0.02 0.2-0.03 0.02-0.01 0.11-0.03 0.21-0.04 0.1-0.01 0.19-0.03 0.2-0.04q0.01-0.02 0.11-0.02 0.1 0 0.11-0.01c0.01-0.01 0.1-0.03 0.22-0.04 0.11-0.01 0.2-0.03 0.21-0.04q0.02-0.02 0.09-0.02c0.05 0 0.13-0.03 0.18-0.05q0.09-0.05 0.14-0.15c0.04-0.07 0.05-0.12 0.04-0.2q-0.01-0.11-0.1-0.19c-0.07-0.07-0.1-0.08-0.23-0.09q-0.13 0-0.18 0.02zm-8.96 2.95q-0.04 0.03-0.12 0.07-0.09 0.04-0.09 0.06-0.01 0.02-0.07 0.03-0.06 0.02-0.13 0.06-0.07 0.05-0.14 0.09-0.07 0.03-0.13 0.08c-0.03 0.02-0.1 0.06-0.16 0.09q-0.09 0.04-0.1 0.06 0 0.03-0.06 0.04-0.07 0.02-0.14 0.07-0.07 0.05-0.14 0.08-0.07 0.04-0.14 0.09-0.07 0.05-0.1 0.05-0.04 0.01-0.1 0.08-0.06 0.07-0.09 0.13-0.02 0.05-0.02 0.12 0 0.06 0.05 0.15 0.05 0.09 0.11 0.12 0.06 0.03 0.13 0.06 0.08 0.02 0.09 0 0.01-0.02 0.05-0.02 0.03-0.01 0.09-0.03 0.05-0.02 0.14-0.08 0.09-0.05 0.13-0.07 0.03-0.02 0.05-0.03 0.01-0.02 0.07-0.05c0.03-0.01 0.11-0.06 0.17-0.09q0.11-0.07 0.16-0.09 0.03-0.02 0.04-0.03 0.02-0.02 0.1-0.06c0.04-0.02 0.13-0.07 0.2-0.1q0.11-0.06 0.15-0.09 0.04-0.03 0.15-0.09c0.07-0.04 0.15-0.1 0.18-0.14q0.07-0.06 0.08-0.16 0.02-0.1-0.03-0.2-0.04-0.1-0.13-0.14-0.08-0.04-0.09-0.06 0-0.02-0.06-0.02-0.06 0.01-0.1 0.02zm6.86 0.03q-0.09 0.05-0.14 0.11-0.04 0.06-0.06 0.13-0.02 0.08 0 0.16 0.03 0.08 0.08 0.14 0.05 0.05 0.1 0.08c0.02 0.02 0.1 0.06 0.16 0.1q0.11 0.05 0.15 0.09 0.05 0.03 0.15 0.08 0.1 0.05 0.15 0.08 0.04 0.02 0.06 0.04 0.02 0.01 0.1 0.06c0.05 0.03 0.13 0.07 0.18 0.1q0.08 0.05 0.13 0.07 0.05 0.03 0.14 0.08c0.05 0.03 0.13 0.08 0.17 0.1q0.09 0.04 0.16 0.07 0.08 0.03 0.09 0.01 0.02-0.02 0.06-0.02 0.06-0.01 0.12-0.05 0.06-0.05 0.1-0.12 0.03-0.08 0.04-0.17 0-0.09-0.04-0.13-0.03-0.04-0.03-0.06-0.01-0.01-0.03-0.04-0.04-0.03-0.13-0.09c-0.05-0.03-0.14-0.07-0.2-0.1q-0.09-0.05-0.11-0.07-0.01-0.02-0.09-0.06c-0.05-0.02-0.12-0.06-0.17-0.09q-0.07-0.05-0.12-0.07-0.05-0.02-0.07-0.03-0.02-0.02-0.15-0.1-0.13-0.07-0.15-0.09-0.02-0.02-0.12-0.07c-0.06-0.03-0.16-0.08-0.22-0.12q-0.11-0.06-0.17-0.07-0.05 0.01-0.14 0.05zm-4.82 1.74c-0.04 0.02-0.11 0.08-0.14 0.13-0.04 0.05-0.08 0.12-0.09 0.16q-0.01 0.06-0.03 0.1c-0.01 0.02-0.05 0.14-0.09 0.26-0.04 0.12-0.09 0.26-0.11 0.3q-0.03 0.07-0.03 0.1 0 0.02-0.02 0.06-0.02 0.05-0.05 0.1c-0.01 0.04-0.04 0.12-0.06 0.18-0.02 0.06-0.06 0.15-0.08 0.19q-0.03 0.07-0.03 0.12 0 0.05-0.02 0.06-0.02 0.02-0.03 0.14c0 0.1 0.01 0.15 0.04 0.2q0.05 0.06 0.1 0.09 0.05 0.02 0.05 0.04 0.01 0.01 0.13 0.01 0.12 0 0.19-0.04c0.04-0.02 0.09-0.08 0.12-0.13q0.05-0.09 0.06-0.15 0-0.04 0.01-0.05 0.02-0.01 0.07-0.15c0.02-0.08 0.05-0.15 0.06-0.17q0.01-0.02 0.03-0.09 0.02-0.07 0.06-0.16 0.05-0.1 0.06-0.17 0.02-0.07 0.04-0.11 0.02-0.04 0.04-0.08 0.02-0.05 0.03-0.13 0.02-0.08 0.04-0.09 0.01-0.01 0.03-0.09 0.02-0.09 0.04-0.14 0.02-0.04 0.05-0.1 0.04-0.07 0.01-0.12-0.03-0.04-0.03-0.07-0.01-0.03-0.09-0.12-0.08-0.08-0.11-0.09-0.03 0-0.1-0.01-0.07-0.01-0.15 0.02zm2.76-0.01q-0.06 0.01-0.15 0.11c-0.08 0.08-0.09 0.11-0.09 0.22q0 0.13 0.03 0.17 0.02 0.04 0.04 0.1 0.02 0.07 0.06 0.17 0.05 0.09 0.06 0.16 0.02 0.07 0.05 0.13 0.03 0.06 0.03 0.11 0 0.05 0.03 0.05 0.02 0.01 0.02 0.06 0 0.06 0.02 0.07 0.02 0.02 0.03 0.05 0 0.04 0.03 0.12 0.04 0.09 0.06 0.13 0.02 0.04 0.04 0.11 0.02 0.08 0.05 0.14 0.02 0.06 0.03 0.1 0 0.04 0.04 0.1 0.05 0.07 0.11 0.11c0.04 0.03 0.12 0.04 0.19 0.05 0.1 0 0.13-0.01 0.21-0.09q0.1-0.07 0.1-0.11 0.01-0.04 0.03-0.09 0.04-0.04 0-0.09-0.02-0.05-0.03-0.09 0-0.05-0.02-0.06-0.02-0.02-0.04-0.09-0.01-0.07-0.04-0.12-0.02-0.05-0.04-0.08-0.01-0.04-0.03-0.13-0.01-0.08-0.03-0.09-0.02 0-0.04-0.09-0.01-0.09-0.04-0.13-0.02-0.05-0.05-0.13-0.04-0.09-0.04-0.13 0-0.03-0.02-0.04-0.03-0.02-0.03-0.05 0-0.04-0.04-0.12-0.03-0.09-0.05-0.13-0.02-0.04-0.04-0.13-0.02-0.09-0.08-0.15-0.06-0.05-0.09-0.08-0.04-0.03-0.12-0.04-0.08-0.01-0.15 0z"/>
</svg>