<svg width="24" height="24" viewBox="0 0 24 24" fill="none" xmlns="http://www.w3.org/2000/svg">
<path d="M5.52913 16.061H17.488C18.2782 16.061 19.009 15.9185 19.6803 15.6335C20.3516 15.3485 20.9362 14.9525 21.4341 14.4455C21.9319 13.9385 22.3174 13.3487 22.5905 12.676C22.8635 12.0033 23 11.2858 23 10.5237C23 9.7284 22.8539 8.99772 22.5616 8.33166C22.2692 7.6656 21.8613 7.08569 21.3378 6.59195C20.8142 6.0982 20.2023 5.71547 19.502 5.44374C18.8017 5.17201 18.0436 5.03615 17.2278 5.03615C16.8294 4.22096 16.3203 3.51016 15.7004 2.90375C15.0805 2.29733 14.3754 1.82843 13.5852 1.49706C12.795 1.16569 11.9341 1 11.0026 1C10.0968 1 9.24399 1.17066 8.44416 1.51197C7.64433 1.85329 6.92963 2.3255 6.30005 2.9286C5.67046 3.5317 5.16134 4.23422 4.77267 5.03615C4.384 5.83807 4.15112 6.69965 4.07402 7.62087C3.48941 7.79318 2.96584 8.0765 2.50329 8.47084C2.04074 8.86517 1.67455 9.344 1.40473 9.90732C1.13491 10.4707 1 11.1036 1 11.8062C1 12.5882 1.17827 13.3023 1.53482 13.9485C1.89137 14.5947 2.40692 15.1083 3.08148 15.4893C3.75603 15.8705 4.57191 16.061 5.52913 16.061ZM5.50986 14.4704C4.84815 14.4704 4.29888 14.3544 3.86203 14.1225C3.42517 13.8905 3.09593 13.5773 2.87429 13.183C2.65265 12.7886 2.54183 12.3462 2.54183 11.8558C2.54183 11.2594 2.72171 10.7142 3.08148 10.2204C3.44124 9.72673 4.03227 9.36721 4.85458 9.14188C5.1244 9.06897 5.31392 8.95962 5.42313 8.81381C5.53235 8.66801 5.5998 8.45593 5.6255 8.17757C5.67689 7.36239 5.85516 6.61514 6.16032 5.93582C6.46547 5.25651 6.86218 4.66666 7.35043 4.16628C7.83867 3.66591 8.39597 3.2782 9.02234 3.00316C9.64871 2.72812 10.3088 2.5906 11.0026 2.5906C12.0883 2.5906 13.0488 2.88718 13.8839 3.48033C14.7191 4.0735 15.3969 4.92016 15.9172 6.02032C16.0264 6.26554 16.1613 6.4362 16.3219 6.5323C16.4826 6.6284 16.7074 6.67644 16.9965 6.67644C17.9473 6.67644 18.7551 6.85373 19.4201 7.2083C20.085 7.56287 20.5909 8.03508 20.9378 8.62493C21.2847 9.21478 21.4582 9.86097 21.4582 10.5635C21.4582 11.2859 21.2879 11.942 20.9474 12.5319C20.607 13.1217 20.1444 13.5922 19.5598 13.9435C18.9752 14.2948 18.3167 14.4704 17.5843 14.4704H5.50986ZM18.3649 18.3674H5.82786C5.66083 18.3674 5.51789 18.427 5.39904 18.5463C5.28019 18.6656 5.22076 18.8147 5.22076 18.9936C5.22076 19.1726 5.28019 19.3217 5.39904 19.441C5.51789 19.5603 5.66083 19.6199 5.82786 19.6199H18.3649C18.5383 19.6199 18.6829 19.5603 18.7985 19.441C18.9142 19.3217 18.972 19.1726 18.972 18.9936C18.972 18.8147 18.9142 18.6656 18.7985 18.5463C18.6829 18.427 18.5383 18.3674 18.3649 18.3674ZM18.3649 21.7374H5.82786C5.66083 21.7374 5.51789 21.7971 5.39904 21.9164C5.28019 22.0357 5.22076 22.1848 5.22076 22.3638C5.22076 22.5427 5.28019 22.6934 5.39904 22.816C5.51789 22.9387 5.66083 23 5.82786 23H18.3649C18.5383 23 18.6829 22.9387 18.7985 22.816C18.9142 22.6934 18.972 22.5427 18.972 22.3638C18.972 22.1848 18.9142 22.0357 18.7985 21.9164C18.6829 21.7971 18.5383 21.7374 18.3649 21.7374Z" fill="white"/>
</svg>
