<svg width="24" height="24" viewBox="0 0 24 24" fill="none" xmlns="http://www.w3.org/2000/svg">
<path d="M5.52913 16.061H17.488C18.2782 16.061 19.009 15.9185 19.6803 15.6335C20.3516 15.3485 20.9362 14.9525 21.4341 14.4455C21.9319 13.9385 22.3174 13.3487 22.5905 12.676C22.8635 12.0033 23 11.2858 23 10.5237C23 9.7284 22.8539 8.99772 22.5616 8.33166C22.2692 7.6656 21.8613 7.08569 21.3378 6.59195C20.8142 6.0982 20.2023 5.71547 19.502 5.44374C18.8017 5.17201 18.0436 5.03615 17.2278 5.03615C16.8294 4.22096 16.3203 3.51016 15.7004 2.90375C15.0805 2.29733 14.3754 1.82843 13.5852 1.49706C12.795 1.16569 11.9341 1 11.0026 1C10.0968 1 9.24399 1.17066 8.44416 1.51197C7.64433 1.85329 6.92963 2.3255 6.30005 2.9286C5.67046 3.5317 5.16134 4.23422 4.77267 5.03615C4.384 5.83807 4.15112 6.69965 4.07402 7.62087C3.48941 7.79318 2.96584 8.0765 2.50329 8.47084C2.04074 8.86517 1.67455 9.344 1.40473 9.90732C1.13491 10.4707 1 11.1036 1 11.8062C1 12.5882 1.17827 13.3023 1.53482 13.9485C1.89137 14.5947 2.40692 15.1083 3.08148 15.4893C3.75603 15.8705 4.57191 16.061 5.52913 16.061ZM18.3649 18.3674H5.82786C5.66083 18.3674 5.51789 18.427 5.39904 18.5463C5.28019 18.6656 5.22076 18.8147 5.22076 18.9936C5.22076 19.1726 5.28019 19.3217 5.39904 19.441C5.51789 19.5603 5.66083 19.6199 5.82786 19.6199H18.3649C18.5383 19.6199 18.6829 19.5603 18.7985 19.441C18.9142 19.3217 18.972 19.1726 18.972 18.9936C18.972 18.8147 18.9142 18.6656 18.7985 18.5463C18.6829 18.427 18.5383 18.3674 18.3649 18.3674ZM18.3649 21.7374H5.82786C5.66083 21.7374 5.51789 21.7971 5.39904 21.9164C5.28019 22.0357 5.22076 22.1848 5.22076 22.3638C5.22076 22.5427 5.28019 22.6934 5.39904 22.816C5.51789 22.9387 5.66083 23 5.82786 23H18.3649C18.5383 23 18.6829 22.9387 18.7985 22.816C18.9142 22.6934 18.972 22.5427 18.972 22.3638C18.972 22.1848 18.9142 22.0357 18.7985 21.9164C18.6829 21.7971 18.5383 21.7374 18.3649 21.7374Z" fill="white"/>
</svg>
