<svg width="24" height="24" viewBox="0 0 24 24" fill="none" xmlns="http://www.w3.org/2000/svg">
<path d="M5.52913 15.3293H17.488C18.2782 15.3293 19.009 15.1937 19.6803 14.9226C20.3516 14.6514 20.9362 14.2747 21.4341 13.7924C21.9319 13.31 22.3174 12.7488 22.5905 12.1088C22.8635 11.4688 23 10.7862 23 10.061C23 9.30435 22.8539 8.60917 22.5616 7.97549C22.2692 7.34179 21.8613 6.79005 21.3378 6.32029C20.8142 5.85052 20.2023 5.48638 19.502 5.22785C18.8017 4.96933 18.0436 4.84006 17.2278 4.84006C16.8294 4.06449 16.3203 3.38822 15.7004 2.81126C15.0805 2.2343 14.3754 1.78819 13.5852 1.47291C12.795 1.15764 11.9341 1 11.0026 1C10.0968 1 9.24399 1.16237 8.44416 1.4871C7.64433 1.81184 6.92963 2.26111 6.30005 2.83491C5.67046 3.40871 5.16134 4.0771 4.77267 4.84006C4.384 5.60303 4.15112 6.42275 4.07402 7.29922C3.48941 7.46317 2.96584 7.73273 2.50329 8.1079C2.04074 8.4831 1.67455 8.93866 1.40473 9.47458C1.13491 10.0106 1 10.6128 1 11.2812C1 12.0252 1.17827 12.7046 1.53482 13.3195C1.89137 13.9342 2.40692 14.4229 3.08148 14.7854C3.75603 15.148 4.57191 15.3293 5.52913 15.3293ZM6.77224 18.7343L7.41788 17.6182C7.50139 17.4795 7.52388 17.3345 7.48534 17.1831C7.44679 17.0318 7.35685 16.912 7.21551 16.8237C7.06775 16.7417 6.91839 16.7228 6.76742 16.7669C6.61644 16.8111 6.4992 16.9057 6.41568 17.0507L5.76041 18.1857C5.68332 18.3182 5.66244 18.4585 5.69777 18.6067C5.7331 18.7548 5.82465 18.8698 5.97241 18.9518C6.12017 19.0338 6.26953 19.0528 6.4205 19.0086C6.57148 18.9644 6.68872 18.873 6.77224 18.7343ZM10.9737 20.1814L12.4771 17.6277C12.5605 17.4826 12.583 17.336 12.5445 17.1879C12.5059 17.0397 12.416 16.9246 12.2747 16.8427C12.1269 16.7607 11.9776 16.7402 11.8266 16.7812C11.6756 16.8222 11.5583 16.9152 11.4748 17.0602L9.9619 19.6328C9.88481 19.7652 9.86553 19.9055 9.90409 20.0537C9.94263 20.2019 10.0358 20.317 10.1835 20.3989C10.3249 20.4809 10.4726 20.4998 10.6268 20.4557C10.781 20.4116 10.8966 20.3201 10.9737 20.1814ZM16.8713 18.7722L17.5169 17.656C17.6004 17.511 17.6228 17.3644 17.5843 17.2162C17.5457 17.068 17.4558 16.9498 17.3145 16.8616C17.1668 16.7796 17.0174 16.7606 16.8664 16.8048C16.7154 16.849 16.5982 16.9404 16.5147 17.0791L15.8594 18.2235C15.7823 18.3559 15.7614 18.4962 15.7968 18.6444C15.8321 18.7926 15.9236 18.9077 16.0714 18.9897C16.2127 19.0654 16.3605 19.0827 16.5147 19.0417C16.6689 19.0007 16.7877 18.9109 16.8713 18.7722ZM5.06658 21.5529C5.34925 21.5529 5.59337 21.4504 5.79895 21.2455C6.00453 21.0406 6.10732 20.7962 6.10732 20.5124C6.10732 20.2413 6.00453 20.0049 5.79895 19.8031C5.59337 19.6013 5.34925 19.5004 5.06658 19.5004C4.77749 19.5004 4.53015 19.6013 4.32458 19.8031C4.119 20.0049 4.01621 20.2413 4.01621 20.5124C4.01621 20.7962 4.119 21.0406 4.32458 21.2455C4.53015 21.4504 4.77749 21.5529 5.06658 21.5529ZM9.26808 23C9.55717 23 9.80451 22.8975 10.0101 22.6926C10.2157 22.4876 10.3184 22.2465 10.3184 21.969C10.3184 21.6916 10.2157 21.452 10.0101 21.2502C9.80451 21.0484 9.55717 20.9476 9.26808 20.9476C8.98541 20.9476 8.74128 21.0484 8.53571 21.2502C8.33013 21.452 8.22734 21.6916 8.22734 21.969C8.22734 22.2465 8.33013 22.4876 8.53571 22.6926C8.74128 22.8975 8.98541 23 9.26808 23ZM15.1656 21.5907C15.4483 21.5907 15.6924 21.4882 15.898 21.2833C16.1036 21.0783 16.2064 20.834 16.2064 20.5503C16.2064 20.2792 16.1036 20.0411 15.898 19.8362C15.6924 19.6313 15.4483 19.5288 15.1656 19.5288C14.8765 19.5288 14.6291 19.6313 14.4236 19.8362C14.218 20.0411 14.1152 20.2792 14.1152 20.5503C14.1152 20.834 14.218 21.0783 14.4236 21.2833C14.6291 21.4882 14.8765 21.5907 15.1656 21.5907Z" fill="white"/>
</svg>
