<svg width="24" height="24" viewBox="0 0 24 24" fill="none" xmlns="http://www.w3.org/2000/svg">
<path d="M5.52913 15.5052H17.488C18.2782 15.5052 19.009 15.368 19.6803 15.0936C20.3516 14.8191 20.9362 14.4377 21.4341 13.9494C21.9319 13.4611 22.3174 12.893 22.5905 12.2451C22.8635 11.5973 23 10.9063 23 10.1723C23 9.40637 22.8539 8.70264 22.5616 8.06115C22.2692 7.41966 21.8613 6.86115 21.3378 6.38562C20.8142 5.91009 20.2023 5.54147 19.502 5.27977C18.8017 5.01807 18.0436 4.88722 17.2278 4.88722C16.8294 4.10211 16.3203 3.41754 15.7004 2.83351C15.0805 2.24946 14.3754 1.79787 13.5852 1.47872C12.795 1.15957 11.9341 1 11.0026 1C10.0968 1 9.24399 1.16436 8.44416 1.49308C7.64433 1.82181 6.92963 2.27659 6.30005 2.85744C5.67046 3.43829 5.16134 4.11488 4.77267 4.88722C4.384 5.65955 4.15112 6.48934 4.07402 7.37657C3.48941 7.54253 2.96584 7.8154 2.50329 8.19519C2.04074 8.57496 1.67455 9.03613 1.40473 9.57869C1.13491 10.1213 1 10.7308 1 11.4074C1 12.1606 1.17827 12.8484 1.53482 13.4707C1.89137 14.093 2.40692 14.5877 3.08148 14.9547C3.75603 15.3217 4.57191 15.5052 5.52913 15.5052ZM5.50986 13.9733C4.84815 13.9733 4.29888 13.8616 3.86203 13.6382C3.42517 13.4148 3.09593 13.1132 2.87429 12.7335C2.65265 12.3537 2.54183 11.9276 2.54183 11.4553C2.54183 10.8809 2.72171 10.3558 3.08148 9.88027C3.44124 9.40477 4.03227 9.05848 4.85458 8.84142C5.1244 8.77123 5.31392 8.66593 5.42313 8.52551C5.53235 8.38508 5.5998 8.18083 5.6255 7.91274C5.67689 7.12764 5.85516 6.40796 6.16032 5.7537C6.46547 5.09945 6.86218 4.53137 7.35043 4.04946C7.83867 3.56754 8.39597 3.19414 9.02234 2.92925C9.64871 2.66435 10.3088 2.53191 11.0026 2.53191C12.0883 2.53191 13.0488 2.81755 13.8839 3.38882C14.7191 3.96009 15.3969 4.77551 15.9172 5.83509C16.0264 6.07126 16.1613 6.23562 16.3219 6.32817C16.4826 6.42072 16.7074 6.467 16.9965 6.467C17.9473 6.467 18.7551 6.63774 19.4201 6.97923C20.085 7.32072 20.5909 7.77551 20.9378 8.34359C21.2847 8.91169 21.4582 9.53402 21.4582 10.2106C21.4582 10.9063 21.2879 11.5383 20.9474 12.1063C20.607 12.6744 20.1444 13.1276 19.5598 13.4659C18.9752 13.8042 18.3167 13.9733 17.5843 13.9733H5.50986ZM3.80421 22.7053L6.63732 17.8319C6.72084 17.6787 6.74332 17.5287 6.70478 17.3819C6.66624 17.2351 6.57309 17.1202 6.42533 17.0372C6.27757 16.9542 6.12981 16.9319 5.98205 16.9702C5.83429 17.0085 5.71865 17.1042 5.63514 17.2574L2.79238 22.15C2.71529 22.284 2.69441 22.4259 2.72974 22.576C2.76508 22.726 2.85662 22.8425 3.00438 22.9255C3.15214 23.0021 3.30151 23.0196 3.45248 22.9781C3.60345 22.9366 3.72069 22.8457 3.80421 22.7053ZM7.64915 22.7053L10.4726 17.8319C10.5626 17.6787 10.5867 17.5287 10.5449 17.3819C10.5032 17.2351 10.4116 17.1202 10.2703 17.0372C10.1225 16.9542 9.97475 16.9319 9.82699 16.9702C9.67923 17.0085 9.56038 17.1042 9.47044 17.2574L6.63732 22.15C6.56023 22.284 6.53935 22.4259 6.57468 22.576C6.61002 22.726 6.70156 22.8425 6.84932 22.9255C6.99066 23.0021 7.13842 23.0196 7.2926 22.9781C7.44679 22.9366 7.56564 22.8457 7.64915 22.7053ZM11.4845 22.7053L14.3079 17.8319C14.3978 17.6787 14.422 17.5287 14.3802 17.3819C14.3385 17.2351 14.2469 17.1202 14.1055 17.0372C13.9578 16.9542 13.81 16.9319 13.6623 16.9702C13.5145 17.0085 13.3957 17.1042 13.3057 17.2574L10.4726 22.15C10.3955 22.284 10.3747 22.4259 10.41 22.576C10.4453 22.726 10.5369 22.8425 10.6846 22.9255C10.826 23.0021 10.9737 23.0196 11.1279 22.9781C11.2821 22.9366 11.4009 22.8457 11.4845 22.7053ZM15.2908 22.7148L18.1432 17.8127C18.2267 17.6723 18.2492 17.5255 18.2107 17.3723C18.1721 17.2191 18.079 17.1074 17.9312 17.0372C17.7899 16.9606 17.6438 16.9398 17.4928 16.9749C17.3418 17.0101 17.2278 17.101 17.1507 17.2479L14.3176 22.1307C14.234 22.2775 14.21 22.4259 14.2454 22.576C14.2807 22.726 14.369 22.8425 14.5103 22.9255C14.6452 23.0021 14.7898 23.0196 14.944 22.9781C15.0981 22.9366 15.2137 22.8488 15.2908 22.7148Z" fill="white"/>
</svg>
