<svg width="24" height="24" viewBox="0 0 24 24" fill="none" xmlns="http://www.w3.org/2000/svg">
<path d="M5.52913 16H17.488C18.2782 16 19.009 15.8581 19.6803 15.5743C20.3516 15.2905 20.9362 14.8961 21.4341 14.3911C21.9319 13.8861 22.3174 13.2987 22.5905 12.6287C22.8635 11.9587 23 11.2442 23 10.4852C23 9.6931 22.8539 8.96536 22.5616 8.30199C22.2692 7.63862 21.8613 7.06106 21.3378 6.56931C20.8142 6.07756 20.2023 5.69637 19.502 5.42574C18.8017 5.15512 18.0436 5.0198 17.2278 5.0198C16.8294 4.20792 16.3203 3.5 15.7004 2.89604C15.0805 2.29208 14.3754 1.82508 13.5852 1.49505C12.795 1.16502 11.9341 1 11.0026 1C10.0968 1 9.24399 1.16997 8.44416 1.5099C7.64433 1.84984 6.92963 2.32013 6.30005 2.92079C5.67046 3.52145 5.16134 4.22112 4.77267 5.0198C4.384 5.81848 4.15112 6.67657 4.07402 7.59406C3.48941 7.76568 2.96584 8.04786 2.50329 8.44061C2.04074 8.83333 1.67455 9.31023 1.40473 9.8713C1.13491 10.4324 1 11.0627 1 11.7624C1 12.5413 1.17827 13.2525 1.53482 13.896C1.89137 14.5396 2.40692 15.0512 3.08148 15.4307C3.75603 15.8102 4.57191 16 5.52913 16Z" fill="white"/>
<path d="M4.05485 22.7076L6.79377 17.8729C6.8745 17.7209 6.89624 17.5721 6.85898 17.4264C6.82172 17.2808 6.73166 17.1668 6.58882 17.0844C6.44597 17.0022 6.30312 16.98 6.16028 17.018C6.01743 17.056 5.90564 17.151 5.8249 17.3029L3.07666 22.1567C3.00213 22.2896 2.98194 22.4305 3.0161 22.5793C3.05026 22.7281 3.13876 22.8437 3.28161 22.9261C3.42446 23.0021 3.56886 23.0195 3.71481 22.9783C3.86076 22.9371 3.9741 22.8469 4.05485 22.7076ZM7.77195 22.7076L10.5016 17.8729C10.5885 17.7209 10.6118 17.5721 10.5714 17.4264C10.5311 17.2808 10.4426 17.1668 10.3059 17.0844C10.1631 17.0022 10.0202 16.98 9.87738 17.018C9.73453 17.056 9.61963 17.151 9.53268 17.3029L6.79377 22.1567C6.71923 22.2896 6.69905 22.4305 6.73321 22.5793C6.76737 22.7281 6.85587 22.8437 6.99871 22.9261C7.13535 23.0021 7.2782 23.0195 7.42725 22.9783C7.57631 22.9371 7.69121 22.8469 7.77195 22.7076ZM11.4797 22.7076L14.2093 17.8729C14.2963 17.7209 14.3196 17.5721 14.2792 17.4264C14.2389 17.2808 14.1503 17.1668 14.0137 17.0844C13.8708 17.0022 13.728 16.98 13.5851 17.018C13.4423 17.056 13.3274 17.151 13.2405 17.3029L10.5016 22.1567C10.427 22.2896 10.4068 22.4305 10.441 22.5793C10.4752 22.7281 10.5637 22.8437 10.7065 22.9261C10.8431 23.0021 10.986 23.0195 11.1351 22.9783C11.2841 22.9371 11.399 22.8469 11.4797 22.7076ZM15.1596 22.717L17.9171 17.8538C17.9979 17.7145 18.0196 17.5689 17.9823 17.4169C17.9451 17.2649 17.855 17.1541 17.7122 17.0844C17.5756 17.0084 17.4343 16.9879 17.2883 17.0227C17.1424 17.0576 17.0321 17.1478 16.9576 17.2935L14.2187 22.1376C14.1379 22.2833 14.1146 22.4305 14.1488 22.5793C14.183 22.7281 14.2684 22.8437 14.405 22.9261C14.5354 23.0021 14.6752 23.0195 14.8242 22.9783C14.9733 22.9371 15.085 22.85 15.1596 22.717Z" fill="#5856D6"/>
</svg>
