<svg width="24" height="24" viewBox="0 0 24 24" fill="none" xmlns="http://www.w3.org/2000/svg">
<path d="M18.5717 21C19.3898 21 20.1347 20.8044 20.8063 20.4131C21.4779 20.0217 22.0114 19.4983 22.4068 18.8427C22.8023 18.1871 23 17.4542 23 16.6441C23 15.9783 22.8653 15.3261 22.596 14.6877C22.3267 14.0492 22.0523 13.4657 21.7727 12.9371L19.4921 8.66361C19.3694 8.4302 19.2415 8.26201 19.1086 8.15904C18.9756 8.05606 18.7966 8.00457 18.5717 8.00457C18.3398 8.00457 18.1574 8.05606 18.0245 8.15904C17.8915 8.26201 17.7637 8.4302 17.641 8.66361L15.3808 12.9371C15.0944 13.4657 14.8182 14.0492 14.5524 14.6877C14.2864 15.3261 14.1535 15.9783 14.1535 16.6441C14.1535 17.4542 14.3512 18.1871 14.7466 18.8427C15.1421 19.4983 15.6739 20.0217 16.3421 20.4131C17.0103 20.8044 17.7535 21 18.5717 21ZM18.5717 19.6407C18.0057 19.6407 17.4892 19.5068 17.0222 19.2392C16.5552 18.9714 16.1853 18.6127 15.9126 18.1631C15.6399 17.7134 15.5035 17.2071 15.5035 16.6441C15.5035 16.1362 15.6126 15.6299 15.8308 15.1253C16.049 14.6207 16.2978 14.1041 16.5774 13.5755L18.4796 10.0229C18.5068 9.96797 18.5409 9.9405 18.5818 9.9405C18.6227 9.9405 18.6568 9.96797 18.6841 10.0229L20.5557 13.5755C20.8352 14.1041 21.0875 14.6207 21.3125 15.1253C21.5375 15.6299 21.65 16.1362 21.65 16.6441C21.65 17.2071 21.5119 17.7134 21.2358 18.1631C20.9597 18.6127 20.5898 18.9714 20.1262 19.2392C19.6626 19.5068 19.1444 19.6407 18.5717 19.6407ZM5.14339 8.54005C6.0502 8.54005 6.88712 8.40961 7.65415 8.14874C8.42119 7.88787 9.15243 7.56522 9.84788 7.18077C10.5433 6.79634 11.2336 6.41018 11.9188 6.02231C12.6041 5.63444 13.3149 5.31007 14.0513 5.0492C14.7876 4.78833 15.5853 4.6579 16.4444 4.6579C16.9421 4.6579 17.4262 4.71968 17.8966 4.84325C18.3671 4.96682 18.8614 5.17964 19.3796 5.4817C19.5978 5.60527 19.8023 5.63616 19.9932 5.57438C20.1841 5.51259 20.3341 5.40618 20.4432 5.25515C20.566 5.06979 20.6103 4.85526 20.5761 4.61156C20.542 4.36785 20.3818 4.16018 20.0955 3.98856C19.5227 3.65218 18.9347 3.40332 18.3313 3.24199C17.7279 3.08066 17.0989 3 16.4444 3C15.5171 3 14.6649 3.13043 13.8876 3.3913C13.1103 3.65217 12.3723 3.97655 11.6735 4.36442C10.9746 4.75229 10.2859 5.13844 9.60754 5.52289C8.92914 5.90732 8.22517 6.22998 7.49563 6.49085C6.76609 6.75172 5.98201 6.88215 5.14339 6.88215C4.63885 6.88215 4.15136 6.82037 3.68091 6.6968C3.21046 6.57323 2.71615 6.36041 2.19797 6.05835C1.97979 5.93478 1.77525 5.90389 1.58434 5.96568C1.39344 6.02746 1.24344 6.1373 1.13435 6.2952C1.01844 6.48055 0.977531 6.69508 1.01162 6.93879C1.04571 7.18249 1.20253 7.38673 1.48207 7.55149C2.06161 7.88787 2.65137 8.13673 3.25137 8.29805C3.85136 8.45938 4.48203 8.54005 5.14339 8.54005ZM5.15362 14.0698C5.96497 14.0698 6.71837 13.9616 7.41382 13.7454C8.10926 13.5292 8.77403 13.258 9.40811 12.9319C10.0422 12.6058 10.6643 12.266 11.2746 11.9125C11.8848 11.5589 12.5086 11.238 13.1461 10.9497C13.7836 10.6613 14.4569 10.4554 15.166 10.3318C15.3228 10.0298 15.483 9.72941 15.6467 9.43078C15.8103 9.13215 15.9705 8.83181 16.1274 8.52975C15.2206 8.57094 14.3888 8.72883 13.6319 9.00343C12.8751 9.27804 12.1609 9.60412 11.4894 9.98169C10.8178 10.3593 10.153 10.7334 9.49504 11.1041C8.83709 11.4748 8.15528 11.7855 7.44961 12.036C6.74394 12.2866 5.97861 12.4119 5.15362 12.4119C4.64908 12.4119 4.16329 12.3484 3.69624 12.2214C3.22921 12.0944 2.73319 11.8799 2.2082 11.5778C1.99002 11.4542 1.78548 11.4233 1.59457 11.4851C1.40366 11.5469 1.25707 11.6568 1.1548 11.8147C1.03208 12 0.987758 12.2145 1.02185 12.4582C1.05594 12.7019 1.21276 12.9062 1.4923 13.071C2.07184 13.4073 2.66331 13.6579 3.26671 13.8227C3.87011 13.9874 4.49908 14.0698 5.15362 14.0698ZM5.14339 19.5892C5.91384 19.5892 6.63485 19.4897 7.30643 19.2906C7.97801 19.0915 8.61721 18.8375 9.22402 18.5287C9.83083 18.2197 10.4274 17.897 11.0138 17.5607C11.6001 17.2243 12.1967 16.9154 12.8036 16.6339C12.7763 16.4073 12.7899 16.1138 12.8444 15.7534C12.899 15.393 12.9706 15.0618 13.0592 14.7597C12.3774 15.0343 11.7245 15.3519 11.1007 15.7123C10.4768 16.0726 9.85299 16.421 9.22914 16.7575C8.60528 17.0939 7.95926 17.3736 7.29109 17.5967C6.62292 17.8198 5.90702 17.9313 5.14339 17.9313C4.63885 17.9313 4.15136 17.8678 3.68091 17.7409C3.21046 17.6138 2.71615 17.3993 2.19797 17.0972C1.97979 16.9736 1.77525 16.9427 1.58434 17.0045C1.39344 17.0663 1.24344 17.1762 1.13435 17.3341C1.01844 17.5194 0.977531 17.734 1.01162 17.9777C1.04571 18.2214 1.20253 18.4256 1.48207 18.5903C2.06161 18.9268 2.65137 19.1774 3.25137 19.3421C3.85136 19.5068 4.48203 19.5892 5.14339 19.5892Z" fill="black" fill-opacity="0.8"/>
</svg>
