<svg width="24" height="24" viewBox="0 0 24 24" fill="none" xmlns="http://www.w3.org/2000/svg">
<path d="M6 21.2713C6 21.4694 6.06907 21.6404 6.20722 21.7843C6.34537 21.9281 6.51805 22 6.72527 22C8.13815 22 9.45526 21.7667 10.6766 21.3001C11.898 20.8335 12.967 20.1623 13.8838 19.2866C14.8006 18.411 15.5165 17.3579 16.0314 16.1275C16.5463 14.8971 16.8038 13.5213 16.8038 12C16.8038 11.3288 16.6782 10.6977 16.427 10.1064C16.1758 9.51518 15.8289 8.99425 15.3862 8.54362C14.9435 8.093 14.4333 7.73985 13.8556 7.48418C13.2779 7.22851 12.6593 7.10067 12 7.10067C11.5165 7.10067 11.0565 7.17737 10.6201 7.33078C10.1837 7.48418 9.78964 7.6983 9.43799 7.97315C9.77708 7.26366 10.2104 6.62927 10.7378 6.06999C11.2653 5.51071 11.8681 5.03611 12.5463 4.64621C13.2245 4.25631 13.9623 3.95909 14.7598 3.75455C15.5573 3.55002 16.3956 3.44775 17.2748 3.44775C17.482 3.44775 17.6546 3.37584 17.7928 3.23202C17.9309 3.08821 18 2.91723 18 2.71908C18 2.52093 17.9309 2.35155 17.7928 2.21093C17.6546 2.07031 17.482 2 17.2748 2C15.8619 2 14.5447 2.2333 13.3234 2.6999C12.102 3.16651 11.033 3.83765 10.1162 4.71332C9.19938 5.589 8.48509 6.64206 7.97332 7.87249C7.46154 9.10291 7.20565 10.4787 7.20565 12C7.20565 12.6711 7.33124 13.3007 7.58241 13.8888C7.83359 14.4768 8.17896 14.9962 8.61852 15.4468C9.05809 15.8974 9.56829 16.2506 10.1491 16.5062C10.73 16.7619 11.3469 16.8897 12 16.8897C12.4835 16.8897 12.9435 16.813 13.3799 16.6596C13.8163 16.5062 14.2104 16.2953 14.562 16.0268C14.2229 16.7363 13.7881 17.3707 13.2575 17.93C12.7268 18.4893 12.1225 18.9639 11.4443 19.3538C10.7661 19.7437 10.0298 20.0409 9.23548 20.2455C8.44113 20.45 7.6044 20.5523 6.72527 20.5523C6.51805 20.5523 6.34537 20.6226 6.20722 20.7631C6.06907 20.9038 6 21.0732 6 21.2713ZM10.6342 12C10.6342 11.6165 10.7677 11.2889 11.0345 11.0173C11.3014 10.7456 11.6232 10.6098 12 10.6098C12.3768 10.6098 12.6986 10.7456 12.9655 11.0173C13.2323 11.2889 13.3658 11.6165 13.3658 12C13.3658 12.3771 13.2323 12.7031 12.9655 12.9779C12.6986 13.2528 12.3768 13.3903 12 13.3903C11.6232 13.3903 11.3014 13.2544 11.0345 12.9827C10.7677 12.7111 10.6342 12.3835 10.6342 12Z" fill="white"/>
</svg>
