<svg width="24" height="24" viewBox="0 0 24 24" fill="none" xmlns="http://www.w3.org/2000/svg">
<path d="M17.6817 15.508C16.3098 15.508 15.0714 15.3031 13.9665 14.8931C12.8616 14.4832 11.9155 13.8918 11.1282 13.119C10.3409 12.3461 9.73778 11.4136 9.31879 10.3216C8.8998 9.2295 8.69031 7.99798 8.69031 6.62701C8.69031 6.25067 8.71903 5.83905 8.77647 5.39213C8.83392 4.94523 8.90995 4.51344 9.00456 4.09677C9.09917 3.68011 9.20729 3.33064 9.32894 3.04838C9.37624 2.93414 9.40665 2.83837 9.42017 2.76109C9.43368 2.6838 9.44044 2.62164 9.44044 2.5746C9.44044 2.44019 9.38975 2.31082 9.28838 2.18649C9.18702 2.06216 9.03834 2 8.84237 2C8.7883 2 8.7072 2.0084 8.59908 2.0252C8.49095 2.042 8.37945 2.07056 8.26457 2.11089C7.01436 2.6082 5.91958 3.35249 4.98023 4.34375C4.04088 5.33502 3.30934 6.47917 2.7856 7.77621C2.26187 9.07325 2 10.4274 2 11.8387C2 13.324 2.26525 14.6848 2.79574 15.9213C3.32623 17.1579 4.06622 18.2315 5.01571 19.1421C5.96519 20.0527 7.07686 20.7567 8.35072 21.254C9.62459 21.7513 11.0015 22 12.4815 22C13.5763 22 14.6204 21.8471 15.6137 21.5414C16.6072 21.2355 17.5195 20.8121 18.3508 20.2712C19.1819 19.7302 19.9016 19.1018 20.5098 18.3861C21.118 17.6704 21.5776 16.9026 21.8885 16.0827C21.9358 15.9617 21.9662 15.8491 21.9797 15.7449C21.9932 15.6408 22 15.5652 22 15.5181C22 15.33 21.9358 15.1788 21.8073 15.0645C21.679 14.9502 21.5438 14.8931 21.4019 14.8931C21.287 14.8931 21.1417 14.9234 20.966 14.9838C20.5741 15.1116 20.0841 15.2309 19.4962 15.3417C18.9083 15.4526 18.3034 15.508 17.6817 15.508Z" fill="white"/>
</svg>
