<svg width="24" height="24" viewBox="0 0 24 24" fill="none" xmlns="http://www.w3.org/2000/svg">
<path d="M10.7356 22C11.9551 22 13.0845 21.8106 14.1239 21.4318C15.1634 21.0531 16.0746 20.5075 16.8576 19.7949C17.6405 19.0823 18.2553 18.2221 18.7017 17.2143C18.795 17.0088 18.8316 16.8275 18.8116 16.6702C18.7916 16.5129 18.7317 16.3862 18.6317 16.2899C18.545 16.2064 18.4284 16.1566 18.2819 16.1406C18.1353 16.1245 17.9754 16.1518 17.8022 16.2224C17.4223 16.3637 17.0008 16.4744 16.5377 16.5546C16.0746 16.6349 15.5566 16.675 14.9835 16.675C13.4909 16.675 12.1949 16.3925 11.0955 15.8276C9.99601 15.2627 9.14477 14.4635 8.54173 13.43C7.9387 12.3964 7.63718 11.1735 7.63718 9.76119C7.63718 9.17702 7.68883 8.61852 7.79211 8.08571C7.89539 7.55288 8.02366 7.13241 8.17692 6.82427C8.37681 6.44552 8.37681 6.1438 8.17692 5.91912C8.08363 5.8164 7.9537 5.75221 7.78711 5.72653C7.62053 5.70085 7.42063 5.73294 7.18741 5.82282C6.16125 6.22083 5.26004 6.81143 4.48376 7.59461C3.70748 8.37779 3.09945 9.29257 2.65967 10.339C2.21989 11.3853 2 12.5055 2 13.6995C2 14.8743 2.21156 15.9656 2.63468 16.9735C3.0578 17.9814 3.65917 18.8609 4.43878 19.6119C5.21839 20.363 6.14127 20.9488 7.2074 21.3693C8.27353 21.7898 9.44962 22 10.7356 22ZM10.7556 20.5363C9.6895 20.5363 8.71498 20.3614 7.83209 20.0116C6.9492 19.6617 6.18624 19.1722 5.54323 18.5431C4.90022 17.914 4.4038 17.1773 4.05398 16.3331C3.70415 15.489 3.52924 14.5726 3.52924 13.584C3.52924 12.7815 3.65251 12.0144 3.89905 11.2826C4.1456 10.5508 4.49542 9.87835 4.94853 9.26528C5.40163 8.65222 5.93803 8.1178 6.55772 7.66202C6.43112 7.97657 6.3345 8.35853 6.26787 8.8079C6.20124 9.25726 6.16792 9.71305 6.16792 10.1753C6.16792 11.7545 6.52108 13.1379 7.22739 14.3255C7.9337 15.5131 8.91988 16.4375 10.1859 17.0987C11.452 17.7599 12.9246 18.0906 14.6038 18.0906C15.0502 18.0906 15.465 18.0665 15.8481 18.0183C16.2312 17.9702 16.5294 17.9108 16.7426 17.8402C16.3295 18.3987 15.8147 18.8785 15.1984 19.2797C14.5821 19.681 13.8957 19.9907 13.1394 20.209C12.3832 20.4272 11.5885 20.5363 10.7556 20.5363ZM18.1519 13.1988C18.3518 13.1988 18.4651 13.0961 18.4918 12.8907C18.5718 12.2423 18.6584 11.7368 18.7516 11.3741C18.8449 11.0114 18.9898 10.737 19.1864 10.5508C19.383 10.3646 19.6745 10.2234 20.061 10.1271C20.4475 10.0308 20.9805 9.93131 21.6602 9.8286C21.8867 9.79008 22 9.68095 22 9.5012C22 9.32146 21.9 9.21232 21.7001 9.17381C21.0205 9.05184 20.4825 8.9411 20.086 8.8416C19.6895 8.7421 19.3913 8.60247 19.1914 8.42272C18.9915 8.24298 18.8449 7.97496 18.7516 7.61868C18.6584 7.2624 18.5718 6.76007 18.4918 6.1117C18.4651 5.90627 18.3518 5.80356 18.1519 5.80356C17.952 5.80356 17.8388 5.90307 17.8121 6.10207C17.7255 6.75686 17.6372 7.26882 17.5472 7.63794C17.4573 8.00706 17.314 8.28631 17.1174 8.47568C16.9209 8.66506 16.626 8.80629 16.2328 8.89937C15.8398 8.99246 15.2967 9.08394 14.6038 9.17381C14.5171 9.18665 14.4455 9.22195 14.3888 9.27973C14.3322 9.3375 14.3039 9.41133 14.3039 9.5012C14.3039 9.68095 14.4038 9.79008 14.6038 9.8286C15.2967 9.95057 15.8398 10.0629 16.2328 10.1656C16.626 10.2683 16.9209 10.4112 17.1174 10.5941C17.314 10.7771 17.4573 11.0483 17.5472 11.4078C17.6372 11.7673 17.7255 12.268 17.8121 12.91C17.8255 12.9934 17.8621 13.0624 17.922 13.117C17.982 13.1715 18.0586 13.1988 18.1519 13.1988ZM13.3743 6.67982C13.4876 6.67982 13.5542 6.62205 13.5742 6.5065C13.6542 6.10849 13.7258 5.79554 13.7892 5.56764C13.8524 5.33975 13.9423 5.16642 14.059 5.04767C14.1756 4.92891 14.3555 4.83582 14.5987 4.76842C14.8419 4.70101 15.1801 4.62558 15.6132 4.54212C15.7398 4.52287 15.8031 4.45547 15.8031 4.33992C15.8031 4.23078 15.7398 4.16658 15.6132 4.14732C15.1801 4.05746 14.8452 3.97882 14.6087 3.91141C14.3722 3.84401 14.1956 3.75092 14.079 3.63216C13.9624 3.5134 13.8724 3.34168 13.8091 3.11699C13.7458 2.89231 13.6675 2.58097 13.5742 2.18296C13.5542 2.06099 13.4876 2 13.3743 2C13.2611 2 13.1911 2.06099 13.1644 2.18296C13.0778 2.58097 13.0028 2.89231 12.9396 3.11699C12.8762 3.34168 12.7863 3.5134 12.6697 3.63216C12.5531 3.75092 12.3765 3.84401 12.1399 3.91141C11.9034 3.97882 11.5686 4.05746 11.1354 4.14732C11.0088 4.16658 10.9455 4.23078 10.9455 4.33992C10.9455 4.45547 11.0088 4.52287 11.1354 4.54212C11.5686 4.632 11.9051 4.71064 12.1449 4.77804C12.3848 4.84545 12.5648 4.93693 12.6847 5.05248C12.8046 5.16803 12.8945 5.33975 12.9545 5.56764C13.0145 5.79554 13.0845 6.10849 13.1644 6.5065C13.1911 6.62205 13.2611 6.67982 13.3743 6.67982Z" fill="black" fill-opacity="0.8"/>
</svg>
