<svg width="24" height="24" viewBox="0 0 24 24" fill="none" xmlns="http://www.w3.org/2000/svg">
<path d="M17.6163 15.4256C15.7939 15.4256 14.2183 15.0795 12.8896 14.3875C11.561 13.6954 10.5371 12.7101 9.8181 11.4315C9.09908 10.1529 8.73957 8.6337 8.73957 6.87394C8.73957 6.12258 8.7959 5.43384 8.90856 4.80771C9.02122 4.18157 9.17032 3.69055 9.35588 3.33465C9.42877 3.18965 9.47682 3.07431 9.50001 2.98863C9.5232 2.90295 9.5348 2.81068 9.5348 2.71181C9.5348 2.54704 9.46688 2.38721 9.33103 2.23233C9.19517 2.07744 9.02122 2 8.80915 2C8.7694 2 8.70313 2.00824 8.61035 2.02472C8.51757 2.04119 8.4016 2.07909 8.26243 2.13841C7.03645 2.63272 5.95295 3.36101 5.01193 4.32328C4.07091 5.28554 3.33367 6.39775 2.8002 7.6599C2.26673 8.92205 2 10.2452 2 11.6292C2 13.132 2.25679 14.5144 2.77038 15.7765C3.28396 17.0387 4.00795 18.1344 4.94235 19.0638C5.87675 19.993 6.97848 20.7147 8.24753 21.2288C9.51658 21.7429 10.9066 22 12.4175 22C13.8556 22 15.1909 21.7611 16.4235 21.2833C17.6561 20.8054 18.7363 20.1215 19.664 19.2318C20.5918 18.342 21.3241 17.2809 21.8609 16.0485C21.9205 15.9166 21.9586 15.7996 21.9752 15.6975C21.9917 15.5953 22 15.5179 22 15.4651C22 15.2608 21.9288 15.096 21.7863 14.9708C21.6438 14.8456 21.4964 14.783 21.344 14.783C21.2644 14.783 21.1882 14.7896 21.1153 14.8028C21.0425 14.8159 20.9464 14.8423 20.8271 14.8818C20.5554 14.9939 20.2456 15.0894 19.8976 15.1685C19.5497 15.2476 19.1819 15.3103 18.7942 15.3564C18.4066 15.4025 18.0139 15.4256 17.6163 15.4256ZM3.56064 11.56C3.56064 10.5385 3.73128 9.54654 4.07257 8.58427C4.41385 7.622 4.89762 6.74212 5.52386 5.94462C6.15011 5.14713 6.89067 4.48146 7.74554 3.9476C7.58649 4.40237 7.46555 4.88515 7.38272 5.39594C7.29988 5.90673 7.25846 6.44553 7.25846 7.01235C7.25846 9.0687 7.66105 10.8334 8.46622 12.3065C9.27138 13.7795 10.4311 14.9082 11.9453 15.6925C13.4596 16.4768 15.2738 16.869 17.3877 16.869C17.898 16.869 18.3751 16.8377 18.8191 16.775C19.2631 16.7125 19.6905 16.6087 20.1014 16.4636C19.5978 17.2875 18.9533 17.9993 18.168 18.5991C17.3828 19.1989 16.5047 19.6586 15.5338 19.9782C14.563 20.2979 13.5441 20.4577 12.4772 20.4577C11.1915 20.4577 10.0053 20.2385 8.91851 19.8003C7.83169 19.362 6.88735 18.7441 6.08549 17.9466C5.28364 17.1491 4.66236 16.2082 4.22168 15.1241C3.78098 14.0398 3.56064 12.8518 3.56064 11.56Z" fill="black" fill-opacity="0.8"/>
</svg>
