<svg width="24" height="24" viewBox="0 0 24 24" fill="none" xmlns="http://www.w3.org/2000/svg">
<path d="M10.6357 22C11.8418 22 12.9579 21.8138 13.984 21.4415C15.0102 21.0692 15.9097 20.5316 16.6827 19.8286C17.4556 19.1257 18.0653 18.2735 18.5117 17.272C18.6717 16.9125 18.655 16.6397 18.4618 16.4535C18.3019 16.2995 18.062 16.2834 17.7422 16.4054C17.329 16.5595 16.8859 16.675 16.4128 16.752C15.9397 16.8291 15.43 16.8676 14.8836 16.8676C13.3777 16.8676 12.0667 16.5803 10.9505 16.0058C9.83443 15.4312 8.96986 14.6208 8.35683 13.5744C7.7438 12.528 7.43729 11.2891 7.43729 9.85749C7.43729 9.31183 7.48726 8.76296 7.58721 8.21088C7.68716 7.6588 7.82043 7.21585 7.98701 6.88204C8.16692 6.53539 8.17025 6.26577 7.99701 6.07318C7.82376 5.87418 7.53391 5.85171 7.12744 6.00578C6.10129 6.39737 5.20507 6.98154 4.43878 7.7583C3.6725 8.53506 3.07447 9.44182 2.64468 10.4786C2.21489 11.5153 2 12.6211 2 13.7959C2 14.9706 2.21156 16.0555 2.63468 17.0506C3.0578 18.0456 3.65584 18.9138 4.42879 19.6553C5.20174 20.3967 6.11461 20.9729 7.16742 21.3837C8.22023 21.7946 9.37632 22 10.6357 22ZM18.1519 13.1988C18.3518 13.1988 18.4651 13.0961 18.4918 12.8907C18.5718 12.2423 18.6584 11.7368 18.7516 11.3741C18.8449 11.0114 18.9898 10.737 19.1864 10.5508C19.383 10.3646 19.6745 10.2234 20.061 10.1271C20.4475 10.0308 20.9805 9.93131 21.6602 9.8286C21.8867 9.79008 22 9.68095 22 9.5012C22 9.32146 21.9 9.21232 21.7001 9.17381C21.0205 9.05184 20.4825 8.9411 20.086 8.8416C19.6895 8.7421 19.3913 8.60247 19.1914 8.42272C18.9915 8.24298 18.8449 7.97496 18.7516 7.61868C18.6584 7.2624 18.5718 6.76007 18.4918 6.1117C18.4651 5.90627 18.3518 5.80356 18.1519 5.80356C17.952 5.80356 17.8388 5.90307 17.8121 6.10207C17.7255 6.75686 17.6372 7.26882 17.5472 7.63794C17.4573 8.00706 17.314 8.28631 17.1174 8.47568C16.9209 8.66506 16.626 8.80629 16.2328 8.89937C15.8398 8.99246 15.2967 9.08394 14.6038 9.17381C14.5171 9.18665 14.4455 9.22195 14.3888 9.27973C14.3322 9.3375 14.3039 9.41133 14.3039 9.5012C14.3039 9.68095 14.4038 9.79008 14.6038 9.8286C15.2967 9.95057 15.8398 10.0629 16.2328 10.1656C16.626 10.2683 16.9209 10.4112 17.1174 10.5941C17.314 10.7771 17.4573 11.0483 17.5472 11.4078C17.6372 11.7673 17.7255 12.268 17.8121 12.91C17.8255 12.9934 17.8621 13.0624 17.922 13.117C17.982 13.1715 18.0586 13.1988 18.1519 13.1988ZM13.3743 6.67982C13.4876 6.67982 13.5542 6.62205 13.5742 6.5065C13.6542 6.10849 13.7258 5.79554 13.7892 5.56764C13.8524 5.33975 13.9423 5.16642 14.059 5.04767C14.1756 4.92891 14.3555 4.83582 14.5987 4.76842C14.8419 4.70101 15.1801 4.62558 15.6132 4.54212C15.7398 4.52287 15.8031 4.45547 15.8031 4.33992C15.8031 4.23078 15.7398 4.16658 15.6132 4.14732C15.1801 4.05746 14.8452 3.97882 14.6087 3.91141C14.3722 3.84401 14.1956 3.75092 14.079 3.63216C13.9624 3.5134 13.8724 3.34168 13.8091 3.11699C13.7458 2.89231 13.6675 2.58097 13.5742 2.18296C13.5542 2.06099 13.4876 2 13.3743 2C13.2611 2 13.1911 2.06099 13.1644 2.18296C13.0778 2.58097 13.0028 2.89231 12.9396 3.11699C12.8762 3.34168 12.7863 3.5134 12.6697 3.63216C12.5531 3.75092 12.3765 3.84401 12.1399 3.91141C11.9034 3.97882 11.5686 4.05746 11.1354 4.14732C11.0088 4.16658 10.9455 4.23078 10.9455 4.33992C10.9455 4.45547 11.0088 4.52287 11.1354 4.54212C11.5686 4.632 11.9051 4.71064 12.1449 4.77804C12.3848 4.84545 12.5648 4.93693 12.6847 5.05248C12.8046 5.16803 12.8945 5.33975 12.9545 5.56764C13.0145 5.79554 13.0845 6.10849 13.1644 6.5065C13.1911 6.62205 13.2611 6.67982 13.3743 6.67982Z" fill="white"/>
</svg>
