<svg width="24" height="24" viewBox="0 0 24 24" fill="none" xmlns="http://www.w3.org/2000/svg">
<path d="M5.52913 16H17.488C18.2782 16 19.009 15.8581 19.6803 15.5743C20.3516 15.2905 20.9362 14.8961 21.4341 14.3911C21.9319 13.8861 22.3174 13.2987 22.5905 12.6287C22.8635 11.9587 23 11.2442 23 10.4852C23 9.69309 22.8539 8.96536 22.5616 8.302C22.2692 7.63863 21.8613 7.06107 21.3378 6.56931C20.8142 6.07756 20.2023 5.69637 19.502 5.42575C18.8017 5.15512 18.0436 5.01981 17.2278 5.01981C16.8294 4.20792 16.3203 3.5 15.7004 2.89605C15.0805 2.29208 14.3754 1.82508 13.5852 1.49505C12.795 1.16502 11.9341 1 11.0026 1C10.0968 1 9.24399 1.16997 8.44416 1.5099C7.64433 1.84984 6.92963 2.32013 6.30005 2.92079C5.67046 3.52145 5.16134 4.22113 4.77267 5.01981C4.384 5.81849 4.15112 6.67658 4.07402 7.59408C3.48941 7.76569 2.96584 8.04787 2.50329 8.44061C2.04074 8.83333 1.67455 9.31022 1.40473 9.8713C1.13491 10.4324 1 11.0627 1 11.7624C1 12.5413 1.17827 13.2525 1.53482 13.896C1.89137 14.5396 2.40692 15.0512 3.08148 15.4307C3.75603 15.8102 4.57191 16 5.52913 16Z" fill="white"/>
<path d="M5.18083 20.0173L6.52864 17.8774C6.62541 17.7323 6.65133 17.5855 6.6064 17.4372C6.56148 17.2888 6.46298 17.1736 6.31092 17.0916C6.15195 17.0095 5.99297 16.989 5.834 17.03C5.67503 17.0711 5.54717 17.1642 5.4504 17.3094L4.09222 19.4681C4.00237 19.6007 3.97817 19.7412 4.01964 19.8895C4.06111 20.0379 4.16479 20.1531 4.33068 20.2352C4.48274 20.3109 4.64171 20.3282 4.8076 20.2873C4.97348 20.2462 5.09789 20.1562 5.18083 20.0173ZM7.59653 22.7159L10.655 17.8679C10.7449 17.7291 10.7691 17.5871 10.7276 17.4419C10.6862 17.2967 10.5928 17.1831 10.4477 17.101C10.2956 17.019 10.1366 16.9969 9.97075 17.0348C9.80486 17.0727 9.67699 17.1642 9.58714 17.3094L6.54938 22.1383C6.45953 22.2835 6.43533 22.4303 6.4768 22.5786C6.51828 22.7269 6.61505 22.8422 6.7671 22.9242C6.91916 23 7.07295 23.0189 7.22847 22.9811C7.38399 22.9432 7.50668 22.8548 7.59653 22.7159ZM13.4336 20.0079L14.7814 17.8679C14.8781 17.7228 14.9041 17.576 14.8592 17.4277C14.8143 17.2794 14.7123 17.1642 14.5533 17.0821C14.4012 17 14.244 16.9795 14.0815 17.0205C13.9191 17.0616 13.793 17.1547 13.7032 17.2999L12.345 19.4587C12.2551 19.5913 12.2309 19.7317 12.2724 19.88C12.3138 20.0284 12.4141 20.1436 12.573 20.2257C12.7251 20.3014 12.8841 20.3188 13.05 20.2778C13.2159 20.2367 13.3437 20.1468 13.4336 20.0079ZM15.8389 22.7065L18.9077 17.8585C18.9976 17.7196 19.0218 17.5776 18.9804 17.4324C18.9389 17.2872 18.8421 17.1736 18.6901 17.0916C18.5449 17.0095 18.3894 16.9874 18.2235 17.0253C18.0576 17.0632 17.9297 17.1547 17.8399 17.2999L14.7918 22.1289C14.7019 22.2741 14.6777 22.4208 14.7192 22.5692C14.7606 22.7175 14.8574 22.8327 15.0095 22.9147C15.1616 22.9905 15.3153 23.0094 15.4708 22.9716C15.6264 22.9337 15.7491 22.8453 15.8389 22.7065Z" fill="#5856D6"/>
</svg>
