<svg width="24" height="24" viewBox="0 0 24 24" fill="none" xmlns="http://www.w3.org/2000/svg">
<path d="M5.52913 15.5039H17.488C18.2782 15.5039 19.009 15.3667 19.6803 15.0922C20.3516 14.8178 20.9362 14.4365 21.4341 13.9482C21.9319 13.4599 22.3174 12.8919 22.5905 12.2441C22.8635 11.5963 23 10.9054 23 10.1715C23 9.40557 22.8539 8.70191 22.5616 8.06048C22.2692 7.41905 21.8613 6.8606 21.3378 6.38511C20.8142 5.90962 20.2023 5.54104 19.502 5.27937C18.8017 5.01769 18.0436 4.88685 17.2278 4.88685C16.8294 4.10182 16.3203 3.41732 15.7004 2.83333C15.0805 2.24935 14.3754 1.79779 13.5852 1.47868C12.795 1.15956 11.9341 1 11.0026 1C10.0968 1 9.24399 1.16435 8.44416 1.49304C7.64433 1.82173 6.92963 2.27647 6.30005 2.85726C5.67046 3.43806 5.16134 4.11459 4.77267 4.88685C4.384 5.65912 4.15112 6.48883 4.07402 7.37598C3.48941 7.54192 2.96584 7.81476 2.50329 8.19451C2.04074 8.57424 1.67455 9.03536 1.40473 9.57788C1.13491 10.1204 1 10.7299 1 11.4064C1 12.1595 1.17827 12.8472 1.53482 13.4695C1.89137 14.0918 2.40692 14.5864 3.08148 14.9534C3.75603 15.3204 4.57191 15.5039 5.52913 15.5039ZM5.50986 13.9721C4.84815 13.9721 4.29888 13.8604 3.86203 13.637C3.42517 13.4136 3.09593 13.1121 2.87429 12.7324C2.65265 12.3526 2.54183 11.9266 2.54183 11.4543C2.54183 10.8799 2.72171 10.355 3.08148 9.87943C3.44124 9.40397 4.03227 9.05775 4.85458 8.84077C5.1244 8.77053 5.31392 8.66521 5.42313 8.5248C5.53235 8.38439 5.5998 8.18015 5.6255 7.91209C5.67689 7.12706 5.85516 6.40745 6.16032 5.75326C6.46547 5.09907 6.86218 4.53104 7.35043 4.04917C7.83867 3.5673 8.39597 3.19394 9.02234 2.92906C9.64871 2.6642 10.3088 2.53177 11.0026 2.53177C12.0883 2.53177 13.0488 2.81737 13.8839 3.38859C14.7191 3.95982 15.3969 4.77517 15.9172 5.83463C16.0264 6.07078 16.1613 6.23513 16.3219 6.32767C16.4826 6.42022 16.7074 6.46649 16.9965 6.46649C17.9473 6.46649 18.7551 6.63721 19.4201 6.97867C20.085 7.32013 20.5909 7.77487 20.9378 8.3429C21.2847 8.91094 21.4582 9.53321 21.4582 10.2097C21.4582 10.9054 21.2879 11.5373 20.9474 12.1053C20.607 12.6733 20.1444 13.1265 19.5598 13.4648C18.9752 13.803 18.3167 13.9721 17.5843 13.9721H5.50986ZM5.77968 19.9843L7.03242 17.8207C7.12236 17.6739 7.14645 17.5255 7.10469 17.3755C7.06294 17.2255 6.97139 17.1091 6.83005 17.0261C6.68229 16.9431 6.53453 16.9224 6.38677 16.9639C6.23902 17.0054 6.12017 17.0995 6.03023 17.2463L4.76785 19.429C4.68434 19.5631 4.66185 19.7051 4.7004 19.8551C4.73894 20.0051 4.83531 20.1216 4.98949 20.2046C5.13083 20.2811 5.27858 20.2986 5.43277 20.2572C5.58695 20.2157 5.70259 20.1247 5.77968 19.9843ZM8.02497 22.7127L10.8677 17.8111C10.9513 17.6707 10.9738 17.5271 10.9352 17.3803C10.8967 17.2335 10.8099 17.1186 10.675 17.0356C10.5337 16.9527 10.3859 16.9304 10.2317 16.9687C10.0775 17.007 9.95869 17.0995 9.87517 17.2463L7.05169 22.1287C6.96818 22.2756 6.94569 22.424 6.98423 22.5739C7.02278 22.7239 7.11272 22.8404 7.25406 22.9234C7.39539 23 7.53833 23.0191 7.68288 22.9809C7.82743 22.9426 7.94146 22.8532 8.02497 22.7127ZM13.4503 19.9748L14.703 17.8111C14.7929 17.6643 14.8171 17.5159 14.7753 17.3659C14.7336 17.216 14.6388 17.0995 14.4911 17.0165C14.3497 16.9335 14.2035 16.9128 14.0525 16.9543C13.9016 16.9958 13.7843 17.0899 13.7009 17.2367L12.4385 19.4195C12.3549 19.5536 12.3324 19.6955 12.371 19.8455C12.4095 19.9955 12.5027 20.1119 12.6504 20.195C12.7918 20.2715 12.9396 20.2891 13.0938 20.2476C13.2479 20.2061 13.3668 20.1152 13.4503 19.9748ZM15.6859 22.7032L18.5383 17.8016C18.6219 17.6611 18.6444 17.5175 18.6058 17.3707C18.5673 17.2239 18.4773 17.1091 18.336 17.0261C18.2011 16.9431 18.0565 16.9208 17.9023 16.9591C17.7481 16.9974 17.6293 17.0899 17.5458 17.2367L14.7127 22.1192C14.6291 22.266 14.6066 22.4144 14.6452 22.5644C14.6837 22.7144 14.7737 22.8309 14.9151 22.9138C15.0564 22.9904 15.1993 23.0095 15.3438 22.9712C15.4884 22.9329 15.6025 22.8436 15.6859 22.7032Z" fill="white"/>
</svg>
