<svg width="24" height="24" viewBox="0 0 24 24" fill="none" xmlns="http://www.w3.org/2000/svg">
<path d="M5.52913 14H17.488C18.2782 14 19.009 13.8675 19.6803 13.6026C20.3516 13.3377 20.9362 12.9696 21.4341 12.4984C21.9319 12.0271 22.3174 11.4788 22.5905 10.8535C22.8635 10.2282 23 9.56128 23 8.85277C23 8.11349 22.8539 7.43429 22.5616 6.81518C22.2692 6.19603 21.8613 5.65698 21.3378 5.19801C20.8142 4.73905 20.2023 4.38327 19.502 4.13069C18.8017 3.8781 18.0436 3.75181 17.2278 3.75181C16.8294 2.99406 16.3203 2.33333 15.7004 1.76964C15.0805 1.20594 14.3754 0.77008 13.5852 0.462044C12.795 0.154015 11.9341 0 11.0026 0C10.0968 0 9.24399 0.158636 8.44416 0.475907C7.64433 0.793178 6.92963 1.23212 6.30005 1.79274C5.67046 2.35336 5.16134 3.00638 4.77267 3.75181C4.384 4.49724 4.15112 5.29811 4.07402 6.1544C3.48941 6.31463 2.96584 6.57801 2.50329 6.94453C2.04074 7.31111 1.67455 7.75621 1.40473 8.27981C1.13491 8.80347 1 9.39183 1 10.0449C1 10.7718 1.17827 11.4356 1.53482 12.0363C1.89137 12.6369 2.40692 13.1144 3.08148 13.4686C3.75603 13.8229 4.57191 14 5.52913 14Z" fill="white"/>
<path d="M7.09831 17.1317L7.74821 15.9364C7.83228 15.7879 7.85491 15.6326 7.81611 15.4705C7.77731 15.3085 7.68678 15.1802 7.54451 15.0856C7.39578 14.9978 7.24543 14.9776 7.09347 15.0248C6.9415 15.0721 6.82348 15.1734 6.73941 15.3287L6.07982 16.5442C6.00222 16.686 5.9812 16.8363 6.01677 16.995C6.05233 17.1536 6.14448 17.2768 6.29321 17.3647C6.44195 17.4525 6.5923 17.4727 6.74426 17.4254C6.89623 17.3781 7.01425 17.2802 7.09831 17.1317ZM11.3275 18.6814L12.8407 15.9466C12.9248 15.7913 12.9474 15.6343 12.9086 15.4756C12.8698 15.3169 12.7792 15.1936 12.637 15.1059C12.4883 15.0181 12.3379 14.9961 12.186 15.04C12.034 15.0839 11.9159 15.1836 11.8319 15.3389L10.309 18.0939C10.2314 18.2358 10.212 18.386 10.2508 18.5447C10.2896 18.7034 10.3834 18.8266 10.5321 18.9144C10.6744 19.0022 10.8231 19.0225 10.9783 18.9752C11.1335 18.9279 11.2499 18.83 11.3275 18.6814ZM17.2639 17.1723L17.9138 15.977C17.9978 15.8217 18.0204 15.6647 17.9816 15.506C17.9428 15.3473 17.8523 15.2207 17.71 15.1261C17.5613 15.0383 17.411 15.018 17.259 15.0653C17.107 15.1126 16.989 15.2106 16.905 15.3591L16.2454 16.5847C16.1678 16.7265 16.1467 16.8768 16.1823 17.0354C16.2179 17.1941 16.31 17.3174 16.4587 17.4052C16.601 17.4863 16.7498 17.5048 16.905 17.4609C17.0602 17.417 17.1798 17.3208 17.2639 17.1723Z" fill="#5856D6"/>
<path d="M4.62111 21.4761C4.71721 21.4761 4.79443 21.4412 4.85277 21.3715C4.91111 21.3018 4.93684 21.2205 4.92998 21.1274L4.85791 20.1713L5.68157 20.7092C5.75707 20.7623 5.84287 20.7789 5.93897 20.759C6.03506 20.739 6.10713 20.6926 6.15518 20.6195C6.21009 20.5465 6.22381 20.4619 6.19636 20.3656C6.1689 20.2693 6.1037 20.1979 6.00074 20.1514L5.11531 19.7331L6.01104 19.3048C6.10713 19.2649 6.16719 19.1985 6.19121 19.1056C6.21524 19.0126 6.20666 18.9263 6.16547 18.8466C6.12429 18.7669 6.05222 18.7205 5.94926 18.7072C5.8463 18.6939 5.75707 18.7105 5.68157 18.757L4.85791 19.3048L4.94027 18.3486C4.94714 18.2491 4.91969 18.1661 4.85791 18.0996C4.79614 18.0332 4.71721 18 4.62111 18C4.51129 18 4.42721 18.0332 4.36886 18.0996C4.31052 18.1661 4.28135 18.2491 4.28135 18.3486L4.35342 19.3048L3.51947 18.757C3.45083 18.7105 3.36846 18.6939 3.27237 18.7072C3.17627 18.7205 3.1042 18.7669 3.05615 18.8466C3.00811 18.9263 2.9961 19.011 3.02012 19.1006C3.04414 19.1903 3.1042 19.2583 3.2003 19.3048L4.08574 19.7331L3.2003 20.1514C3.1042 20.1979 3.04243 20.2676 3.01497 20.3606C2.98752 20.4535 2.99782 20.5398 3.04586 20.6195C3.08704 20.6992 3.15912 20.7474 3.26208 20.764C3.36503 20.7805 3.45083 20.7656 3.51947 20.7192L4.35342 20.1813L4.29165 21.1274C4.29165 21.2205 4.3191 21.3018 4.37401 21.3715C4.42892 21.4412 4.51129 21.4761 4.62111 21.4761ZM9.53217 23C9.62827 23 9.70549 22.9651 9.76383 22.8954C9.82218 22.8257 9.84791 22.7443 9.84105 22.6514L9.77928 21.7052L10.5926 22.233C10.6681 22.2862 10.7539 22.3045 10.85 22.2878C10.9461 22.2712 11.0216 22.2231 11.0765 22.1434C11.1246 22.0704 11.1349 21.9857 11.1074 21.8894C11.0799 21.7931 11.0181 21.7218 10.9221 21.6753L10.0367 21.267L10.9324 20.8386C11.0216 20.7922 11.0799 20.7225 11.1074 20.6295C11.1349 20.5365 11.128 20.4535 11.0869 20.3805C11.0388 20.2942 10.9633 20.2444 10.8603 20.2311C10.7574 20.2178 10.6681 20.2344 10.5926 20.2809L9.77928 20.8386L9.85135 19.8726C9.86507 19.7796 9.83933 19.6982 9.77412 19.6285C9.70892 19.5588 9.62827 19.5239 9.53217 19.5239C9.42922 19.5239 9.34686 19.5588 9.28508 19.6285C9.22331 19.6982 9.19585 19.7796 9.20271 19.8726L9.26449 20.8386L8.44083 20.2809C8.36532 20.2344 8.28124 20.2178 8.18858 20.2311C8.09592 20.2444 8.02213 20.2942 7.96723 20.3805C7.92604 20.4535 7.91574 20.5348 7.93634 20.6245C7.95693 20.7141 8.01527 20.7855 8.11137 20.8386L9.00709 21.267L8.11137 21.6852C8.01527 21.7251 7.95522 21.7915 7.93119 21.8844C7.90717 21.9774 7.91575 22.0638 7.95693 22.1434C8.00497 22.2297 8.07876 22.2795 8.17828 22.2928C8.27781 22.3061 8.36532 22.2895 8.44083 22.243L9.26449 21.7052L9.21301 22.6514C9.20614 22.7443 9.23188 22.8257 9.29023 22.8954C9.34857 22.9651 9.42922 23 9.53217 23ZM15.411 21.5159C15.5003 21.5159 15.5758 21.4794 15.6376 21.4064C15.6993 21.3334 15.7268 21.2503 15.7199 21.1573L15.6479 20.2112L16.4715 20.7491C16.547 20.8022 16.6328 20.8188 16.7288 20.7988C16.825 20.7789 16.8971 20.7324 16.9451 20.6594C17 20.5863 17.0137 20.5016 16.9863 20.4054C16.9588 20.3091 16.8936 20.2377 16.7906 20.1913L15.9052 19.7729L16.801 19.3446C16.897 19.2981 16.9571 19.2301 16.9811 19.1405C17.0052 19.0508 16.9966 18.9662 16.9554 18.8865C16.9142 18.8068 16.8421 18.7603 16.7392 18.7471C16.6362 18.7338 16.547 18.7503 16.4715 18.7969L15.6479 19.3446L15.7302 18.3885C15.7371 18.2889 15.7079 18.2042 15.6427 18.1345C15.5775 18.0648 15.5003 18.0299 15.411 18.0299C15.3012 18.0299 15.2171 18.0648 15.1588 18.1345C15.1005 18.2042 15.0713 18.2889 15.0713 18.3885L15.1433 19.3446L14.3094 18.7969C14.2339 18.7503 14.1498 18.7321 14.0572 18.7421C13.9645 18.752 13.8941 18.8002 13.8461 18.8865C13.798 18.9662 13.786 19.0508 13.8101 19.1405C13.8341 19.2301 13.8942 19.2981 13.9902 19.3446L14.8756 19.7729L13.9902 20.1913C13.8873 20.2377 13.8238 20.3074 13.7997 20.4005C13.7757 20.4934 13.7877 20.5797 13.8358 20.6594C13.877 20.7391 13.9473 20.7872 14.0469 20.8038C14.1464 20.8204 14.2339 20.8022 14.3094 20.7491L15.1433 20.2212L15.0815 21.1573C15.0815 21.2503 15.109 21.3334 15.164 21.4064C15.2189 21.4794 15.3012 21.5159 15.411 21.5159Z" fill="white"/>
</svg>
