<svg width="24" height="24" viewBox="0 0 24 24" fill="none" xmlns="http://www.w3.org/2000/svg">
<path d="M5.52913 14.5653H17.488C18.2782 14.5653 19.009 14.437 19.6803 14.1803C20.3516 13.9236 20.9362 13.5669 21.4341 13.1103C21.9319 12.6537 22.3174 12.1224 22.5905 11.5165C22.8635 10.9106 23 10.2644 23 9.57793C23 8.86159 22.8539 8.20348 22.5616 7.60359C22.2692 7.00367 21.8613 6.48135 21.3378 6.03663C20.8142 5.59192 20.2023 5.24719 19.502 5.00244C18.8017 4.7577 18.0436 4.63533 17.2278 4.63533C16.8294 3.9011 16.3203 3.26089 15.7004 2.71469C15.0805 2.1685 14.3754 1.74617 13.5852 1.4477C12.795 1.14923 11.9341 1 11.0026 1C10.0968 1 9.24399 1.15371 8.44416 1.46113C7.64433 1.76855 6.92963 2.19387 6.30005 2.73708C5.67046 3.28029 5.16134 3.91304 4.77267 4.63533C4.384 5.35762 4.15112 6.13362 4.07402 6.96332C3.48941 7.11858 2.96584 7.37378 2.50329 7.72893C2.04074 8.08413 1.67455 8.5154 1.40473 9.02275C1.13491 9.53016 1 10.1002 1 10.733C1 11.4374 1.17827 12.0806 1.53482 12.6626C1.89137 13.2446 2.40692 13.7072 3.08148 14.0504C3.75603 14.3937 4.57191 14.5653 5.52913 14.5653ZM5.50986 13.1327C4.84815 13.1327 4.29888 13.0282 3.86203 12.8193C3.42517 12.6104 3.09593 12.3283 2.87429 11.9731C2.65265 11.618 2.54183 11.2195 2.54183 10.7778C2.54183 10.2405 2.72171 9.74957 3.08148 9.30488C3.44124 8.86012 4.03227 8.53628 4.85458 8.33334C5.1244 8.26769 5.31392 8.16919 5.42313 8.03783C5.53235 7.90653 5.5998 7.71551 5.6255 7.46477C5.67689 6.73056 5.85516 6.05752 6.16032 5.44567C6.46547 4.83381 6.86218 4.30254 7.35043 3.85186C7.83867 3.40117 8.39597 3.05196 9.02234 2.80424C9.64871 2.55651 10.3088 2.43264 11.0026 2.43264C12.0883 2.43264 13.0488 2.69977 13.8839 3.23403C14.7191 3.76828 15.3969 4.53086 15.9172 5.52177C16.0264 5.74264 16.1613 5.89635 16.3219 5.9829C16.4826 6.06946 16.7074 6.11274 16.9965 6.11274C17.9473 6.11274 18.7551 6.27242 19.4201 6.59178C20.085 6.91112 20.5909 7.33644 20.9378 7.86774C21.2847 8.39899 21.4582 8.981 21.4582 9.61378C21.4582 10.2644 21.2879 10.8554 20.9474 11.3867C20.607 11.9179 20.1444 12.3417 19.5598 12.6581C18.9752 12.9745 18.3167 13.1327 17.5843 13.1327H5.50986ZM6.77224 17.7888L7.41788 16.7321C7.50139 16.6008 7.52388 16.4636 7.48534 16.3203C7.44679 16.1771 7.35685 16.0636 7.21551 15.98C7.06775 15.9024 6.91839 15.8845 6.76742 15.9263C6.61644 15.9681 6.4992 16.0576 6.41568 16.1949L5.76041 17.2694C5.68332 17.3948 5.66244 17.5276 5.69777 17.6679C5.7331 17.8081 5.82465 17.9171 5.97241 17.9947C6.12017 18.0723 6.26953 18.0902 6.4205 18.0484C6.57148 18.0066 6.68872 17.9201 6.77224 17.7888ZM10.9737 19.1587L12.4771 16.7411C12.5605 16.6038 12.583 16.4651 12.5445 16.3248C12.5059 16.1845 12.416 16.0756 12.2747 15.998C12.1269 15.9204 11.9776 15.901 11.8266 15.9398C11.6756 15.9786 11.5583 16.0666 11.4748 16.2039L9.9619 18.6394C9.88481 18.7647 9.86553 18.8976 9.90409 19.0378C9.94263 19.1781 10.0358 19.2871 10.1835 19.3646C10.3249 19.4423 10.4726 19.4602 10.6268 19.4184C10.781 19.3766 10.8966 19.2901 10.9737 19.1587ZM16.8713 17.8246L17.5169 16.768C17.6004 16.6307 17.6228 16.4919 17.5843 16.3516C17.5457 16.2113 17.4558 16.0994 17.3145 16.0159C17.1668 15.9382 17.0174 15.9203 16.8664 15.9621C16.7154 16.0039 16.5982 16.0905 16.5147 16.2218L15.8594 17.3052C15.7823 17.4306 15.7614 17.5634 15.7968 17.7037C15.8321 17.844 15.9236 17.9529 16.0714 18.0306C16.2127 18.1022 16.3605 18.1186 16.5147 18.0798C16.6689 18.041 16.7877 17.9559 16.8713 17.8246ZM4.98949 21.63C5.07943 21.63 5.15171 21.5987 5.20632 21.536C5.26092 21.4733 5.28501 21.4002 5.27859 21.3166L5.21113 20.457L5.98205 20.9406C6.05271 20.9883 6.13302 21.0032 6.22296 20.9853C6.3129 20.9674 6.38036 20.9256 6.42533 20.86C6.47672 20.7943 6.48956 20.7182 6.46387 20.6317C6.43817 20.5451 6.37714 20.4809 6.28077 20.4391L5.45204 20.0631L6.29041 19.678C6.38036 19.6422 6.43657 19.5825 6.45905 19.4989C6.48154 19.4154 6.47351 19.3378 6.43496 19.2661C6.39641 19.1945 6.32896 19.1527 6.23259 19.1408C6.13623 19.1289 6.05271 19.1438 5.98205 19.1856L5.21113 19.678L5.28822 18.8184C5.29465 18.7289 5.26895 18.6543 5.21113 18.5946C5.15331 18.5349 5.07943 18.505 4.98949 18.505C4.8867 18.505 4.80801 18.5349 4.7534 18.5946C4.69879 18.6543 4.67149 18.7289 4.67149 18.8184L4.73894 19.678L3.95839 19.1856C3.89415 19.1438 3.81706 19.1289 3.72711 19.1408C3.63717 19.1527 3.56972 19.1945 3.52475 19.2661C3.47978 19.3378 3.46853 19.4139 3.49102 19.4945C3.5135 19.5751 3.56972 19.6363 3.65966 19.678L4.4884 20.0631L3.65966 20.4391C3.56972 20.4809 3.5119 20.5436 3.4862 20.6272C3.46051 20.7107 3.47015 20.7883 3.51512 20.86C3.55366 20.9316 3.62112 20.9749 3.71748 20.9898C3.81384 21.0047 3.89415 20.9913 3.95839 20.9496L4.73894 20.466L4.68113 21.3166C4.68113 21.4002 4.70682 21.4733 4.75821 21.536C4.80961 21.5987 4.8867 21.63 4.98949 21.63ZM9.58608 23C9.67602 23 9.74829 22.9686 9.8029 22.9059C9.85751 22.8433 9.8816 22.7702 9.87517 22.6866L9.81736 21.836L10.5786 22.3105C10.6493 22.3583 10.7296 22.3747 10.8195 22.3597C10.9095 22.3448 10.9802 22.3015 11.0315 22.2299C11.0765 22.1643 11.0862 22.0882 11.0604 22.0016C11.0347 21.915 10.9769 21.8509 10.887 21.8091L10.0583 21.442L10.8966 21.0569C10.9801 21.0152 11.0347 20.9525 11.0604 20.869C11.0862 20.7853 11.0798 20.7107 11.0412 20.6451C10.9962 20.5675 10.9255 20.5227 10.8292 20.5107C10.7328 20.4988 10.6493 20.5138 10.5786 20.5556L9.81736 21.0569L9.88481 20.1884C9.89766 20.1049 9.87357 20.0318 9.81253 19.969C9.7515 19.9064 9.67602 19.8751 9.58608 19.8751C9.48972 19.8751 9.41263 19.9064 9.35481 19.969C9.29699 20.0318 9.27129 20.1049 9.27771 20.1884L9.33554 21.0569L8.56462 20.5556C8.49395 20.5138 8.41525 20.4988 8.32852 20.5107C8.24179 20.5227 8.17273 20.5675 8.12134 20.6451C8.08279 20.7107 8.07315 20.7838 8.09243 20.8645C8.1117 20.945 8.16631 21.0092 8.25625 21.0569L9.09461 21.442L8.25625 21.818C8.16631 21.8539 8.1101 21.9135 8.08761 21.9971C8.06513 22.0807 8.07316 22.1583 8.1117 22.2299C8.15667 22.3075 8.22573 22.3523 8.31888 22.3642C8.41203 22.3762 8.49395 22.3613 8.56462 22.3195L9.33554 21.836L9.28735 22.6866C9.28092 22.7702 9.30501 22.8433 9.35962 22.9059C9.41423 22.9686 9.48972 23 9.58608 23ZM15.0885 21.6658C15.172 21.6658 15.2427 21.633 15.3005 21.5674C15.3583 21.5017 15.384 21.4271 15.3776 21.3435L15.3102 20.4929L16.081 20.9764C16.1517 21.0242 16.232 21.0391 16.3219 21.0212C16.4119 21.0033 16.4794 20.9615 16.5243 20.8958C16.5757 20.8301 16.5885 20.754 16.5629 20.6674C16.5372 20.5809 16.4761 20.5167 16.3797 20.475L15.551 20.0989L16.3894 19.7139C16.4793 19.6721 16.5356 19.6109 16.5581 19.5303C16.5805 19.4497 16.5725 19.3736 16.534 19.302C16.4954 19.2304 16.428 19.1886 16.3316 19.1767C16.2352 19.1647 16.1517 19.1796 16.081 19.2214L15.3102 19.7139L15.3872 18.8543C15.3936 18.7647 15.3663 18.6886 15.3053 18.626C15.2443 18.5633 15.172 18.5319 15.0885 18.5319C14.9857 18.5319 14.907 18.5633 14.8524 18.626C14.7978 18.6886 14.7705 18.7647 14.7705 18.8543L14.8379 19.7139L14.0574 19.2214C13.9867 19.1796 13.908 19.1632 13.8213 19.1722C13.7346 19.1811 13.6687 19.2244 13.6238 19.302C13.5788 19.3736 13.5675 19.4497 13.59 19.5303C13.6125 19.6109 13.6687 19.6721 13.7587 19.7139L14.5874 20.0989L13.7587 20.475C13.6623 20.5167 13.6029 20.5794 13.5804 20.663C13.5579 20.7466 13.5691 20.8242 13.6141 20.8958C13.6527 20.9675 13.7185 21.0107 13.8117 21.0257C13.9048 21.0406 13.9867 21.0242 14.0574 20.9764L14.8379 20.5018L14.7801 21.3435C14.7801 21.4271 14.8058 21.5017 14.8572 21.5674C14.9086 21.633 14.9857 21.6658 15.0885 21.6658Z" fill="white"/>
</svg>
