<svg width="24" height="24" viewBox="0 0 24 24" fill="none" xmlns="http://www.w3.org/2000/svg">
<path d="M7.78412 20H18.8761C19.7046 20 20.4272 19.8299 21.0439 19.4898C21.6607 19.1496 22.1409 18.691 22.4846 18.114C22.8282 17.5369 23 16.8899 23 16.1732C22.9939 15.5778 22.8651 15.025 22.6134 14.5148C22.3618 14.0046 22.0136 13.5672 21.5687 13.2028C21.1238 12.8383 20.6098 12.5801 20.0268 12.4283C19.9532 11.6872 19.7123 11.016 19.3042 10.4146C18.8961 9.81322 18.373 9.33638 17.7348 8.98407C17.0966 8.63175 16.4 8.45559 15.6452 8.45559C14.9272 8.45559 14.2552 8.61505 13.6293 8.93396C13.0033 9.25286 12.4787 9.69174 12.0552 10.2506C11.8895 10.2141 11.7162 10.1822 11.5352 10.1549C11.3542 10.1276 11.1747 10.1139 10.9967 10.1139C10.4076 10.12 9.85985 10.2506 9.35357 10.5057C8.84729 10.7608 8.42233 11.1086 8.07868 11.549C7.73502 11.9894 7.50489 12.492 7.38829 13.057C6.77463 13.1238 6.22232 13.3182 5.73139 13.6401C5.24045 13.962 4.85384 14.3721 4.57155 14.8702C4.28926 15.3683 4.14812 15.918 4.14812 16.5194C4.14812 17.1876 4.30461 17.7844 4.61758 18.3098C4.93055 18.8352 5.36166 19.2483 5.91089 19.549C6.46012 19.8497 7.08453 20 7.78412 20ZM7.78412 18.6242C7.11521 18.6242 6.57365 18.4298 6.15942 18.041C5.74519 17.6522 5.53808 17.145 5.53808 16.5194C5.53808 16.1246 5.63627 15.7677 5.83264 15.4488C6.02902 15.1299 6.2929 14.8747 6.62428 14.6834C6.95566 14.4921 7.33 14.3934 7.74729 14.3873C8.0664 14.3812 8.29806 14.3219 8.44228 14.2096C8.58649 14.0972 8.67086 13.9074 8.69541 13.6401C8.74451 13.0144 8.98537 12.4996 9.418 12.0957C9.85064 11.6917 10.3769 11.4898 10.9967 11.4898C11.1747 11.4898 11.3296 11.5049 11.4615 11.5353C11.5935 11.5657 11.7545 11.6173 11.9448 11.6902C12.1964 11.7874 12.3989 11.8132 12.5524 11.7677C12.7058 11.7221 12.8346 11.5991 12.9389 11.3987C13.1783 10.9248 13.5419 10.5467 14.0297 10.2643C14.5176 9.98179 15.0561 9.83753 15.6452 9.83145C16.1975 9.83145 16.7023 9.96812 17.1595 10.2415C17.6166 10.5148 17.9802 10.8793 18.2503 11.3349C18.5203 11.7905 18.6553 12.2946 18.6553 12.8474C18.6553 13.1633 18.712 13.3835 18.8255 13.508C18.9391 13.6325 19.1523 13.716 19.4653 13.7586C19.8703 13.8011 20.234 13.9362 20.5561 14.1641C20.8783 14.3919 21.1345 14.6819 21.3247 15.0342C21.5149 15.3865 21.61 15.7662 21.61 16.1732C21.61 16.6652 21.495 17.0949 21.2649 17.4624C21.0347 17.8299 20.7157 18.1154 20.3076 18.319C19.8995 18.5224 19.4223 18.6242 18.8761 18.6242H7.78412ZM1 11.7267C1 12.4131 1.17336 13.0418 1.52008 13.6127C1.86681 14.1838 2.35468 14.6424 2.98368 14.9886C3.6127 15.3349 4.3537 15.508 5.2067 15.508H5.29876L5.73139 14.1322H5.40001C4.79247 14.1322 4.26319 14.0274 3.81214 13.8178C3.36109 13.6082 3.0113 13.3227 2.76277 12.9613C2.51423 12.5999 2.38996 12.1883 2.38996 11.7267C2.38996 11.3015 2.48662 10.9112 2.67992 10.5558C2.87322 10.2005 3.13403 9.9089 3.46234 9.68111C3.79066 9.45332 4.1512 9.31512 4.54394 9.26653C4.82623 9.23615 5.02567 9.15111 5.14227 9.0114C5.25886 8.87169 5.31716 8.65604 5.31716 8.36447C5.31103 7.82992 5.44603 7.33638 5.72219 6.88383C5.99834 6.43129 6.36961 6.06682 6.836 5.79044C7.30238 5.51405 7.8148 5.37586 8.37324 5.37586C8.93781 5.38194 9.44562 5.52013 9.89667 5.79044C10.3477 6.06075 10.7266 6.44192 11.0335 6.93395C11.1439 7.1101 11.2836 7.22096 11.4524 7.26653C11.6211 7.31208 11.822 7.29841 12.0552 7.22552C12.1841 7.18907 12.3375 7.15263 12.5155 7.11618C12.6935 7.07973 12.8837 7.06151 13.0862 7.06151C13.6508 7.06151 14.1387 7.25134 14.5498 7.63099C14.961 8.01064 15.1758 8.47989 15.1942 9.03873H16.6117C16.5995 8.41307 16.4384 7.84663 16.1285 7.33941C15.8186 6.8322 15.4074 6.42977 14.895 6.13213C14.3826 5.83448 13.8134 5.68565 13.1875 5.68565C12.9543 5.68565 12.7364 5.69932 12.5339 5.72666C12.3314 5.75399 12.1442 5.79196 11.9724 5.84055C11.4447 5.21489 10.8878 4.75171 10.3017 4.45103C9.71564 4.15034 9.07282 4 8.37324 4C7.61229 4.00607 6.91117 4.18527 6.26988 4.53759C5.6286 4.8899 5.10084 5.36675 4.68661 5.96812C4.27239 6.56948 4.02232 7.24374 3.9364 7.99089C3.35956 8.14275 2.85022 8.40092 2.40837 8.76538C1.96653 9.12985 1.62134 9.56721 1.3728 10.0775C1.12427 10.5877 1 11.1374 1 11.7267Z" fill="white"/>
</svg>
