<svg width="24" height="24" viewBox="0 0 24 24" fill="none" xmlns="http://www.w3.org/2000/svg">
<path d="M7.95355 20H19.1931C19.9466 20 20.6098 19.8349 21.1825 19.5046C21.7551 19.1744 22.2012 18.7294 22.5207 18.1698C22.8402 17.6102 23 16.9848 23 16.2936C23 15.6942 22.8704 15.1392 22.6111 14.6285C22.3519 14.1177 21.9993 13.6881 21.5532 13.3395C21.1071 12.9909 20.6037 12.7584 20.0431 12.6422C19.9949 11.896 19.7809 11.2156 19.4011 10.6009C19.0213 9.98626 18.5225 9.49696 17.9046 9.13305C17.2867 8.76913 16.6041 8.58717 15.8565 8.58717C15.1211 8.58717 14.4459 8.75842 13.831 9.10093C13.2162 9.44344 12.7158 9.90827 12.33 10.4954C11.9502 10.367 11.5675 10.3028 11.1817 10.3028C10.603 10.3028 10.071 10.4327 9.58568 10.6927C9.10041 10.9526 8.69652 11.3089 8.37402 11.7615C8.05151 12.2141 7.84805 12.7279 7.76366 13.3028C7.16083 13.3211 6.61678 13.4832 6.13152 13.789C5.64625 14.0948 5.26044 14.497 4.9741 14.9954C4.68776 15.4939 4.54459 16.0428 4.54459 16.6422C4.54459 17.2661 4.68625 17.8318 4.96958 18.3395C5.2529 18.8471 5.65076 19.2508 6.16316 19.5505C6.67556 19.8502 7.27236 20 7.95355 20ZM3.65844 15.2203C3.82121 14.6514 4.05631 14.1545 4.36374 13.7293C4.67118 13.3043 5.04041 12.9572 5.47143 12.6881C5.90244 12.419 6.38621 12.2324 6.92272 12.1285C7.14576 11.419 7.47731 10.8303 7.91737 10.3624C8.35743 9.89451 8.86983 9.54436 9.45457 9.31195C10.0393 9.07952 10.6662 8.96331 11.3354 8.96331C11.4439 8.96331 11.5509 8.96943 11.6564 8.98166C11.7619 8.9939 11.8628 9.00613 11.9593 9.01837C12.3572 8.43121 12.8545 7.9939 13.4513 7.70643C14.0481 7.41897 14.7323 7.27524 15.5039 7.27524C15.3472 6.85934 15.0413 6.4939 14.5861 6.17891C14.1309 5.86392 13.5417 5.70643 12.8183 5.70643C12.6074 5.70643 12.4099 5.72478 12.226 5.76147C12.0422 5.79817 11.8568 5.8471 11.6699 5.90826C11.2721 5.3211 10.7702 4.85627 10.1644 4.51376C9.55856 4.17125 8.89395 4 8.17056 4C7.42909 4 6.7464 4.18196 6.12248 4.54587C5.49855 4.90979 4.99218 5.39756 4.60336 6.00918C4.21455 6.6208 3.99904 7.2997 3.95684 8.04588C3.39019 8.16821 2.88382 8.40521 2.43773 8.7569C1.99164 9.10858 1.6405 9.53824 1.3843 10.0459C1.1281 10.5535 1 11.1071 1 11.7064C1 12.5138 1.23209 13.237 1.69626 13.8762C2.16043 14.5153 2.81449 14.9633 3.65844 15.2203Z" fill="white"/>
</svg>
