<svg width="24" height="24" viewBox="0 0 24 24" fill="none" xmlns="http://www.w3.org/2000/svg">
<path d="M12.0022 22C12.2257 22 12.4 21.9324 12.5253 21.7972C12.6506 21.662 12.7132 21.4856 12.7132 21.268V19.1217L14.4602 20.091C14.643 20.1899 14.8241 20.2262 15.0035 20.1998C15.1829 20.1734 15.3269 20.0712 15.4352 19.8932C15.5232 19.7415 15.5401 19.5799 15.486 19.4085C15.4318 19.2371 15.3099 19.0986 15.1203 18.993L12.7132 17.6578V16.4016L12.5101 12.8704L15.5672 14.7992L16.6946 15.4224L16.6743 18.1227C16.6675 18.3402 16.7268 18.5166 16.8521 18.6518C16.9773 18.787 17.128 18.8546 17.3041 18.8546C17.5208 18.8546 17.685 18.7853 17.7967 18.6468C17.9084 18.5084 17.9642 18.3337 17.9642 18.1227L17.9744 16.1444L19.894 17.2325C20.0904 17.3446 20.2783 17.3792 20.4577 17.3363C20.6372 17.2934 20.7777 17.183 20.8792 17.005C20.9876 16.8203 21.0163 16.6373 20.9656 16.456C20.9147 16.2747 20.7946 16.1345 20.605 16.0356L18.6854 14.9575L20.4323 13.9584C20.6151 13.8463 20.7404 13.7111 20.8081 13.5529C20.8759 13.3947 20.8555 13.2265 20.7472 13.0485C20.6456 12.8902 20.5051 12.7929 20.3256 12.7567C20.1462 12.7204 19.9651 12.755 19.7823 12.8606L17.3954 14.2255L16.2681 13.6024L12.9874 12L16.2782 10.3976L17.3853 9.76459L19.7721 11.1296C19.9617 11.2351 20.1496 11.2697 20.3358 11.2334C20.522 11.1972 20.6625 11.1032 20.7574 10.9515C20.8589 10.7735 20.8759 10.6037 20.8081 10.4421C20.7404 10.2806 20.6151 10.1437 20.4323 10.0317L18.6854 9.04253L20.605 7.96439C20.8013 7.85229 20.9249 7.71052 20.9757 7.53907C21.0265 7.36762 20.9977 7.18628 20.8893 6.99505C20.781 6.81701 20.6372 6.70656 20.4577 6.6637C20.2783 6.62084 20.0938 6.65546 19.9042 6.76755L17.9744 7.83581L17.9541 5.86746C17.9541 5.65645 17.8999 5.48335 17.7916 5.34817C17.6833 5.21299 17.5241 5.1454 17.3142 5.1454C17.1246 5.1454 16.9689 5.21299 16.847 5.34817C16.7251 5.48335 16.6675 5.65645 16.6743 5.86746L16.6845 8.55786L15.5672 9.1909L12.5101 11.1296L12.7132 7.58853V6.33234L15.1203 5.00692C15.3099 4.89482 15.4318 4.75469 15.486 4.58655C15.5401 4.4184 15.5232 4.25519 15.4352 4.09693C15.3269 3.91889 15.1829 3.81668 15.0035 3.79031C14.8241 3.76393 14.643 3.8035 14.4602 3.909L12.7132 4.87834V2.72206C12.7132 2.51105 12.6506 2.33795 12.5253 2.20277C12.4 2.06759 12.2257 2 12.0022 2C11.7923 2 11.623 2.06759 11.4944 2.20277C11.3657 2.33795 11.3014 2.51105 11.3014 2.72206V4.87834L9.524 3.909C9.33441 3.8035 9.15497 3.76393 8.98569 3.79031C8.81641 3.81668 8.67422 3.91889 8.55911 4.09693C8.47108 4.25519 8.45585 4.4184 8.51341 4.58655C8.57096 4.75469 8.69453 4.89152 8.88412 4.99703L11.3014 6.33234V7.58853L11.4944 11.1296L8.43722 9.1909L7.30983 8.55786L7.33014 5.86746C7.33692 5.65645 7.27937 5.48335 7.15749 5.34817C7.0356 5.21299 6.88325 5.1454 6.70043 5.1454C6.47698 5.1454 6.31109 5.21299 6.20275 5.34817C6.09442 5.48335 6.04025 5.65645 6.04025 5.86746L6.03008 7.83581L4.10031 6.76755C3.91749 6.66205 3.73298 6.62908 3.54677 6.66865C3.36056 6.70821 3.21668 6.81701 3.11511 6.99505C3 7.18628 2.97122 7.36927 3.02878 7.54401C3.08633 7.71876 3.20991 7.85888 3.3995 7.96439L5.30896 9.04253L3.57216 10.0317C3.38934 10.1437 3.26407 10.2773 3.19636 10.4322C3.12865 10.5872 3.14558 10.7603 3.24715 10.9515C3.33517 11.1098 3.47229 11.2054 3.65849 11.2384C3.8447 11.2713 4.03599 11.2351 4.23235 11.1296L6.60902 9.77448L7.72626 10.3976L11.0069 12L7.72626 13.6024L6.60902 14.2354L4.22219 12.8606C4.0326 12.755 3.84809 12.7204 3.66865 12.7567C3.48922 12.7929 3.35549 12.8869 3.26746 13.0385C3.15912 13.2298 3.13712 13.4029 3.20144 13.5578C3.26577 13.7128 3.38934 13.8463 3.57216 13.9584L5.31912 14.9575L3.3995 16.0356C3.20991 16.1411 3.08802 16.2829 3.03386 16.4609C2.97969 16.6389 3.00677 16.817 3.11511 16.9951C3.22345 17.1863 3.36903 17.3 3.55185 17.3363C3.73467 17.3726 3.91749 17.3379 4.10031 17.2325L6.03008 16.1642L6.04025 18.1227C6.04025 18.3337 6.09442 18.5084 6.20275 18.6468C6.31109 18.7853 6.4736 18.8546 6.69028 18.8546C6.8731 18.8546 7.02714 18.787 7.1524 18.6518C7.27767 18.5166 7.33692 18.3402 7.33014 18.1227L7.31999 15.4224L8.43722 14.8091L11.4944 12.8704L11.3014 16.4016V17.6578L8.88412 18.993C8.69453 19.0986 8.57096 19.2371 8.51341 19.4085C8.45585 19.5799 8.47108 19.7415 8.55911 19.8932C8.67422 20.0712 8.81641 20.1734 8.98569 20.1998C9.15497 20.2262 9.33441 20.1899 9.524 20.091L11.3014 19.1117V21.268C11.3014 21.4856 11.3657 21.662 11.4944 21.7972C11.623 21.9324 11.7923 22 12.0022 22Z" fill="white"/>
</svg>
