<svg width="24" height="24" viewBox="0 0 24 24" fill="none" xmlns="http://www.w3.org/2000/svg">
<path d="M5.52913 14.9456H17.488C18.2782 14.9456 19.009 14.8137 19.6803 14.5497C20.3516 14.2859 20.9362 13.9192 21.4341 13.4498C21.9319 12.9804 22.3174 12.4342 22.5905 11.8113C22.8635 11.1885 23 10.5241 23 9.81839C23 9.08197 22.8539 8.40541 22.5616 7.7887C22.2692 7.17196 21.8613 6.635 21.3378 6.17782C20.8142 5.72064 20.2023 5.36624 19.502 5.11464C18.8017 4.86304 18.0436 4.73723 17.2278 4.73723C16.8294 3.98242 16.3203 3.32426 15.7004 2.76275C15.0805 2.20125 14.3754 1.76708 13.5852 1.46025C12.795 1.15342 11.9341 1 11.0026 1C10.0968 1 9.24399 1.15802 8.44416 1.47406C7.64433 1.7901 6.92963 2.22734 6.30005 2.78577C5.67046 3.34421 5.16134 3.9947 4.77267 4.73723C4.384 5.47977 4.15112 6.27754 4.07402 7.13054C3.48941 7.29009 2.96584 7.55243 2.50329 7.91756C2.04074 8.28272 1.67455 8.72608 1.40473 9.24765C1.13491 9.76928 1 10.3554 1 11.0059C1 11.73 1.17827 12.3912 1.53482 12.9896C1.89137 13.5879 2.40692 14.0634 3.08148 14.4163C3.75603 14.7692 4.57191 14.9456 5.52913 14.9456ZM5.50986 13.4728C4.84815 13.4728 4.29888 13.3654 3.86203 13.1506C3.42517 12.9359 3.09593 12.6459 2.87429 12.2807C2.65265 11.9156 2.54183 11.506 2.54183 11.0519C2.54183 10.4996 2.72171 9.99484 3.08148 9.53769C3.44124 9.08047 4.03227 8.74754 4.85458 8.53891C5.1244 8.47142 5.31392 8.37016 5.42313 8.23512C5.53235 8.10014 5.5998 7.90376 5.6255 7.64599C5.67689 6.8912 5.85516 6.1993 6.16032 5.57029C6.46547 4.94128 6.86218 4.39511 7.35043 3.9318C7.83867 3.46847 8.39597 3.10948 9.02234 2.85481C9.64871 2.60014 10.3088 2.4728 11.0026 2.4728C12.0883 2.4728 13.0488 2.74742 13.8839 3.29665C14.7191 3.84588 15.3969 4.62984 15.9172 5.64853C16.0264 5.87559 16.1613 6.03361 16.3219 6.12259C16.4826 6.21157 16.7074 6.25606 16.9965 6.25606C17.9473 6.25606 18.7551 6.42022 19.4201 6.74853C20.085 7.07684 20.5909 7.51409 20.9378 8.06026C21.2847 8.6064 21.4582 9.20473 21.4582 9.85525C21.4582 10.5241 21.2879 11.1316 20.9474 11.6778C20.607 12.224 20.1444 12.6597 19.5598 12.9849C18.9752 13.3102 18.3167 13.4728 17.5843 13.4728H5.50986ZM6.07841 19.5389C6.16835 19.5389 6.24062 19.5067 6.29523 19.4423C6.34984 19.3778 6.37393 19.3026 6.3675 19.2167L6.30969 18.333L7.07096 18.8302C7.14163 18.8792 7.22194 18.8946 7.31187 18.8762C7.40181 18.8577 7.47248 18.8148 7.52388 18.7473C7.56885 18.6798 7.57849 18.6015 7.55278 18.5125C7.52709 18.4235 7.46606 18.3576 7.3697 18.3146L6.5506 17.928L7.37933 17.5322C7.46927 17.4954 7.52548 17.434 7.54797 17.3481C7.57045 17.2622 7.56563 17.1824 7.53351 17.1088C7.48854 17.0351 7.41787 16.9922 7.32151 16.9799C7.22515 16.9676 7.14163 16.983 7.07096 17.0259L6.30969 17.5322L6.37714 16.6485C6.38999 16.5565 6.3659 16.4798 6.30487 16.4184C6.24383 16.357 6.16835 16.3263 6.07841 16.3263C5.97562 16.3263 5.89692 16.357 5.84232 16.4184C5.78771 16.4798 5.76362 16.5565 5.77004 16.6485L5.82786 17.5322L5.05695 17.0259C4.98628 16.983 4.90598 16.9676 4.81604 16.9799C4.7261 16.9922 4.65864 17.0351 4.61367 17.1088C4.57513 17.1824 4.56549 17.2607 4.58476 17.3435C4.60403 17.4264 4.65864 17.4893 4.74858 17.5322L5.57731 17.928L4.74858 18.3146C4.65864 18.3576 4.60082 18.422 4.57513 18.508C4.54942 18.5939 4.55906 18.6737 4.60403 18.7473C4.649 18.8209 4.71806 18.8654 4.81121 18.8808C4.90437 18.8961 4.98628 18.8823 5.05695 18.8393L5.82786 18.3423L5.77968 19.2167C5.77325 19.3026 5.79574 19.3778 5.84714 19.4423C5.89853 19.5067 5.97562 19.5389 6.07841 19.5389ZM11.417 19.5389C11.507 19.5389 11.5793 19.5067 11.6339 19.4423C11.6885 19.3778 11.7125 19.3026 11.7061 19.2167L11.6483 18.333L12.4096 18.8302C12.4802 18.8792 12.5605 18.8946 12.6504 18.8762C12.7404 18.8577 12.8111 18.8148 12.8625 18.7473C12.9074 18.6798 12.9171 18.6015 12.8914 18.5125C12.8657 18.4235 12.8046 18.3576 12.7083 18.3146L11.8796 17.928L12.7179 17.5322C12.8079 17.4954 12.8641 17.434 12.8866 17.3481C12.9091 17.2622 12.9042 17.1824 12.8721 17.1088C12.8271 17.0351 12.7565 16.9922 12.6601 16.9799C12.5637 16.9676 12.4802 16.983 12.4096 17.0259L11.6483 17.5322L11.7158 16.6485C11.7286 16.5565 11.7045 16.4798 11.6434 16.4184C11.5824 16.357 11.507 16.3263 11.417 16.3263C11.3142 16.3263 11.2355 16.357 11.1809 16.4184C11.1263 16.4798 11.1022 16.5565 11.1086 16.6485L11.1664 17.5322L10.3859 17.0259C10.3217 16.983 10.2446 16.9676 10.1546 16.9799C10.0647 16.9922 9.99723 17.0351 9.95227 17.1088C9.9073 17.1824 9.89606 17.2607 9.91854 17.3435C9.94103 17.4264 9.99724 17.4893 10.0872 17.5322L10.9159 17.928L10.0872 18.3146C9.99724 18.3576 9.93942 18.422 9.91372 18.508C9.88802 18.5939 9.89766 18.6737 9.94263 18.7473C9.9876 18.8209 10.0567 18.8654 10.1498 18.8808C10.243 18.8961 10.3217 18.8823 10.3859 18.8393L11.1664 18.3423L11.1183 19.2167C11.1118 19.3026 11.1343 19.3778 11.1858 19.4423C11.2371 19.5067 11.3142 19.5389 11.417 19.5389ZM16.7556 19.5389C16.8455 19.5389 16.9178 19.5067 16.9724 19.4423C17.027 19.3778 17.0511 19.3026 17.0447 19.2167L16.9772 18.333L17.7482 18.8302C17.8188 18.8792 17.8991 18.8946 17.9891 18.8762C18.079 18.8577 18.1497 18.8148 18.201 18.7473C18.246 18.6798 18.2557 18.6015 18.2299 18.5125C18.2043 18.4235 18.1433 18.3576 18.0469 18.3146L17.2181 17.928L18.0566 17.5322C18.1465 17.4954 18.2027 17.434 18.2252 17.3481C18.2476 17.2622 18.2428 17.1824 18.2107 17.1088C18.1657 17.0351 18.095 16.9922 17.9987 16.9799C17.9024 16.9676 17.8188 16.983 17.7482 17.0259L16.9772 17.5322L17.0543 16.6485C17.0672 16.5565 17.0431 16.4798 16.9821 16.4184C16.921 16.357 16.8455 16.3263 16.7556 16.3263C16.6528 16.3263 16.5741 16.357 16.5195 16.4184C16.4649 16.4798 16.4408 16.5565 16.4472 16.6485L16.5051 17.5322L15.7245 17.0259C15.6603 16.983 15.5832 16.9676 15.4932 16.9799C15.4033 16.9922 15.3358 17.0351 15.2908 17.1088C15.2459 17.1824 15.2347 17.2607 15.2571 17.3435C15.2796 17.4264 15.3358 17.4893 15.4257 17.5322L16.2545 17.928L15.4257 18.3146C15.3358 18.3576 15.278 18.422 15.2524 18.508C15.2266 18.5939 15.2363 18.6737 15.2813 18.7473C15.3262 18.8209 15.3952 18.8654 15.4884 18.8808C15.5815 18.8961 15.6603 18.8823 15.7245 18.8393L16.5051 18.3423L16.4569 19.2167C16.4505 19.3026 16.4729 19.3778 16.5243 19.4423C16.5757 19.5067 16.6528 19.5389 16.7556 19.5389ZM3.9873 23C4.07724 23 4.14951 22.9663 4.20412 22.8988C4.25873 22.8312 4.28282 22.7545 4.27639 22.6686L4.21858 21.7941L4.97985 22.2912C5.05052 22.3342 5.13082 22.348 5.22076 22.3326C5.3107 22.3173 5.38137 22.2728 5.43277 22.1992C5.47774 22.1317 5.48738 22.0534 5.46167 21.9645C5.43598 21.8755 5.37495 21.8095 5.27859 21.7665L4.45949 21.3891L5.28822 20.9933C5.37816 20.9503 5.43437 20.8859 5.45686 20.8C5.47934 20.7141 5.47452 20.6374 5.4424 20.5699C5.39743 20.4963 5.32676 20.4518 5.2304 20.4364C5.13403 20.4211 5.05052 20.4349 4.97985 20.4778L4.21858 20.9933L4.28603 20.1004C4.29888 20.0145 4.27479 19.9393 4.21376 19.8749C4.15273 19.8104 4.07724 19.7782 3.9873 19.7782C3.88451 19.7782 3.80581 19.8104 3.75121 19.8749C3.6966 19.9393 3.67251 20.0145 3.67893 20.1004L3.73675 20.9933L2.96584 20.4778C2.89517 20.4349 2.81487 20.4196 2.72493 20.4318C2.63499 20.4441 2.56753 20.4901 2.52256 20.5699C2.48402 20.6374 2.47438 20.7125 2.49365 20.7954C2.51292 20.8783 2.56753 20.9442 2.65747 20.9933L3.4862 21.3891L2.65747 21.7758C2.56753 21.8126 2.50971 21.8739 2.48402 21.9598C2.45832 22.0457 2.46795 22.1255 2.51292 22.1992C2.55789 22.2789 2.62695 22.3249 2.7201 22.3373C2.81326 22.3495 2.89517 22.3342 2.96584 22.2912L3.73675 21.7941L3.68857 22.6686C3.68214 22.7545 3.70463 22.8312 3.75603 22.8988C3.80742 22.9663 3.88451 23 3.9873 23ZM9.32589 23C9.41584 23 9.48811 22.9663 9.54272 22.8988C9.59732 22.8312 9.62141 22.7545 9.61499 22.6686L9.55717 21.7941L10.3184 22.2912C10.3891 22.3342 10.4694 22.348 10.5594 22.3326C10.6493 22.3173 10.72 22.2728 10.7714 22.1992C10.8163 22.1317 10.826 22.0534 10.8003 21.9645C10.7746 21.8755 10.7135 21.8095 10.6172 21.7665L9.78844 21.3891L10.6268 20.9933C10.7168 20.9503 10.773 20.8859 10.7955 20.8C10.8179 20.7141 10.8131 20.6374 10.781 20.5699C10.736 20.4963 10.6654 20.4518 10.569 20.4364C10.4726 20.4211 10.3891 20.4349 10.3184 20.4778L9.55717 20.9933L9.62462 20.1004C9.63747 20.0145 9.61338 19.9393 9.55235 19.8749C9.49132 19.8104 9.41584 19.7782 9.32589 19.7782C9.22311 19.7782 9.14441 19.8104 9.0898 19.8749C9.03519 19.9393 9.0111 20.0145 9.01753 20.1004L9.07534 20.9933L8.2948 20.4778C8.23055 20.4349 8.15346 20.4196 8.06352 20.4318C7.97358 20.4441 7.90612 20.4901 7.86115 20.5699C7.82261 20.6374 7.81297 20.7125 7.83225 20.7954C7.85151 20.8783 7.90612 20.9442 7.99606 20.9933L8.8248 21.3891L7.99606 21.7758C7.90612 21.8126 7.8483 21.8739 7.82261 21.9598C7.79691 22.0457 7.80655 22.1255 7.85152 22.1992C7.89649 22.2789 7.96555 22.3249 8.0587 22.3373C8.15185 22.3495 8.23055 22.3342 8.2948 22.2912L9.07534 21.7941L9.02717 22.6686C9.02074 22.7545 9.04322 22.8312 9.09461 22.8988C9.14601 22.9663 9.22311 23 9.32589 23ZM14.6645 23C14.7545 23 14.8267 22.9663 14.8813 22.8988C14.9359 22.8312 14.96 22.7545 14.9536 22.6686L14.8862 21.7941L15.657 22.2912C15.7277 22.3342 15.808 22.348 15.898 22.3326C15.9879 22.3173 16.0586 22.2728 16.11 22.1992C16.155 22.1317 16.1646 22.0534 16.1389 21.9645C16.1131 21.8755 16.0521 21.8095 15.9557 21.7665L15.127 21.3891L15.9654 20.9933C16.0553 20.9503 16.1115 20.8859 16.134 20.8C16.1565 20.7141 16.1517 20.6374 16.1196 20.5699C16.0746 20.4963 16.0039 20.4518 15.9076 20.4364C15.8112 20.4211 15.7277 20.4349 15.657 20.4778L14.8862 20.9933L14.9632 20.1004C14.9761 20.0145 14.9519 19.9393 14.8909 19.8749C14.8299 19.8104 14.7545 19.7782 14.6645 19.7782C14.5617 19.7782 14.483 19.8104 14.4284 19.8749C14.3738 19.9393 14.3497 20.0145 14.3562 20.1004L14.414 20.9933L13.6334 20.4778C13.5691 20.4349 13.4921 20.4196 13.4022 20.4318C13.3122 20.4441 13.2447 20.4901 13.1998 20.5699C13.1548 20.6374 13.1435 20.7125 13.166 20.7954C13.1885 20.8783 13.2447 20.9442 13.3347 20.9933L14.1634 21.3891L13.3347 21.7758C13.2447 21.8126 13.1869 21.8739 13.1612 21.9598C13.1355 22.0457 13.1452 22.1255 13.1901 22.1992C13.2351 22.2789 13.3042 22.3249 13.3973 22.3373C13.4905 22.3495 13.5691 22.3342 13.6334 22.2912L14.414 21.7941L14.3657 22.6686C14.3594 22.7545 14.3819 22.8312 14.4332 22.8988C14.4846 22.9663 14.5617 23 14.6645 23Z" fill="white"/>
</svg>
