<svg version="1.2" xmlns="http://www.w3.org/2000/svg" viewBox="0 0 24 24" width="24" height="24">
	<path id="Path 0" fill="#ffcc00" d="m11.75 0.03c-0.05 0.02-0.16 0.09-0.23 0.15-0.07 0.06-0.15 0.17-0.18 0.23q-0.06 0.13-0.2 1.08c-0.07 0.53-0.19 1.28-0.26 1.68-0.07 0.39-0.18 0.97-0.25 1.28-0.06 0.31-0.17 0.75-0.23 0.97-0.06 0.22-0.16 0.55-0.22 0.72-0.06 0.17-0.16 0.45-0.23 0.61-0.07 0.16-0.18 0.41-0.25 0.55-0.07 0.14-0.2 0.36-0.28 0.5-0.09 0.14-0.24 0.36-0.35 0.5-0.11 0.14-0.33 0.38-0.49 0.53-0.16 0.16-0.41 0.37-0.55 0.47-0.14 0.11-0.39 0.26-0.56 0.35-0.16 0.09-0.44 0.23-0.62 0.31-0.18 0.08-0.53 0.21-0.77 0.3-0.25 0.08-0.65 0.2-0.9 0.26-0.25 0.06-0.7 0.16-1.01 0.22-0.31 0.06-0.89 0.16-1.29 0.22-0.4 0.06-1.07 0.15-1.5 0.2-0.43 0.06-0.84 0.12-0.92 0.15-0.07 0.03-0.19 0.11-0.27 0.19-0.07 0.08-0.14 0.19-0.16 0.25-0.02 0.07-0.03 0.18-0.03 0.24 0 0.07 0.02 0.18 0.04 0.25 0.02 0.07 0.08 0.17 0.13 0.24 0.05 0.06 0.16 0.14 0.23 0.18q0.13 0.07 0.64 0.13c0.27 0.04 0.77 0.11 1.1 0.16 0.33 0.05 0.88 0.15 1.21 0.21 0.33 0.06 0.85 0.16 1.15 0.23 0.29 0.07 0.74 0.18 0.99 0.25 0.25 0.07 0.63 0.2 0.85 0.28 0.22 0.08 0.54 0.22 0.71 0.3 0.17 0.08 0.44 0.22 0.59 0.31 0.16 0.09 0.41 0.26 0.56 0.38 0.15 0.12 0.39 0.34 0.53 0.48 0.14 0.15 0.33 0.37 0.42 0.5 0.1 0.13 0.25 0.36 0.34 0.52 0.09 0.15 0.25 0.46 0.34 0.67 0.1 0.22 0.25 0.6 0.33 0.85 0.09 0.25 0.21 0.68 0.28 0.95 0.07 0.28 0.19 0.77 0.25 1.1 0.07 0.32 0.18 0.88 0.24 1.23 0.06 0.36 0.16 1.01 0.23 1.44q0.12 0.8 0.18 0.93c0.04 0.07 0.1 0.16 0.15 0.21 0.05 0.05 0.15 0.12 0.22 0.15 0.07 0.03 0.19 0.06 0.29 0.06 0.13 0 0.21-0.02 0.34-0.09 0.1-0.05 0.2-0.13 0.26-0.21 0.04-0.07 0.1-0.19 0.13-0.28 0.02-0.08 0.08-0.44 0.12-0.78 0.05-0.35 0.14-0.97 0.21-1.38 0.07-0.41 0.17-0.99 0.23-1.28 0.06-0.3 0.16-0.77 0.23-1.05 0.07-0.29 0.2-0.72 0.28-0.97 0.08-0.25 0.22-0.63 0.31-0.85 0.1-0.21 0.25-0.54 0.36-0.72 0.1-0.18 0.28-0.46 0.4-0.62 0.12-0.17 0.37-0.44 0.54-0.61 0.18-0.18 0.45-0.4 0.61-0.51 0.15-0.1 0.41-0.26 0.57-0.35 0.16-0.09 0.44-0.22 0.62-0.3 0.18-0.07 0.52-0.2 0.76-0.28 0.24-0.08 0.57-0.18 0.74-0.22 0.17-0.04 0.52-0.12 0.78-0.17 0.25-0.06 0.79-0.16 1.19-0.22 0.4-0.07 1.19-0.18 1.75-0.25 0.82-0.11 1.06-0.15 1.17-0.2 0.07-0.04 0.18-0.13 0.24-0.2 0.05-0.06 0.11-0.17 0.13-0.23 0.02-0.06 0.03-0.17 0.03-0.24 0-0.06-0.02-0.18-0.04-0.25-0.02-0.07-0.1-0.18-0.18-0.27q-0.14-0.14-0.26-0.18c-0.07-0.01-0.42-0.07-0.79-0.11-0.37-0.04-1-0.13-1.41-0.19-0.41-0.06-0.97-0.15-1.24-0.2-0.27-0.06-0.69-0.14-0.92-0.19-0.23-0.05-0.61-0.15-0.85-0.22-0.24-0.07-0.63-0.21-0.87-0.3-0.24-0.1-0.54-0.23-0.68-0.3-0.14-0.07-0.36-0.2-0.5-0.28-0.13-0.09-0.33-0.22-0.43-0.3-0.1-0.08-0.29-0.24-0.41-0.37-0.13-0.12-0.31-0.32-0.41-0.44-0.1-0.12-0.26-0.34-0.36-0.5-0.1-0.15-0.26-0.44-0.36-0.64-0.1-0.2-0.24-0.53-0.32-0.73-0.08-0.21-0.21-0.58-0.28-0.83-0.07-0.25-0.19-0.71-0.26-1.02-0.07-0.31-0.16-0.75-0.2-0.97-0.04-0.23-0.11-0.62-0.16-0.88-0.04-0.26-0.13-0.87-0.2-1.36q-0.13-0.89-0.19-1.02c-0.03-0.07-0.1-0.17-0.16-0.23-0.06-0.06-0.14-0.12-0.19-0.15-0.06-0.03-0.18-0.05-0.28-0.06-0.11 0-0.24 0.01-0.3 0.03z"/>
</svg>