<svg width="24" height="24" viewBox="0 0 24 24" fill="none" xmlns="http://www.w3.org/2000/svg">
<path d="M13.3427 23C13.4725 23 13.5795 22.9598 13.6638 22.8794C13.7481 22.799 13.8032 22.6913 13.8292 22.5564C13.9654 21.5018 14.1194 20.6113 14.2913 19.8847C14.4632 19.1581 14.6903 18.5601 14.9724 18.0908C15.2546 17.6214 15.6292 17.2468 16.0962 16.9671C16.5633 16.6874 17.1568 16.4672 17.8767 16.3064C18.5967 16.1457 19.4854 16.0074 20.5427 15.8917C20.6789 15.8788 20.7892 15.8274 20.8736 15.7374C20.9579 15.6474 21 15.5381 21 15.4094C21 15.2873 20.9579 15.1812 20.8736 15.0912C20.7892 15.0012 20.6789 14.9497 20.5427 14.9368C19.4854 14.8211 18.5967 14.6828 17.8767 14.5221C17.1568 14.3614 16.5633 14.1396 16.0962 13.8567C15.6292 13.5737 15.2546 13.1976 14.9724 12.7282C14.6903 12.2588 14.4632 11.6624 14.2913 10.9391C14.1194 10.2157 13.9654 9.32354 13.8292 8.26261C13.8032 8.134 13.7481 8.02951 13.6638 7.94914C13.5795 7.86877 13.4725 7.82858 13.3427 7.82858C13.2195 7.82858 13.1141 7.86877 13.0265 7.94914C12.9389 8.02951 12.8854 8.134 12.8659 8.26261C12.7297 9.32354 12.5757 10.2157 12.4038 10.9391C12.2319 11.6624 12.0032 12.2588 11.7178 12.7282C11.4324 13.1976 11.0562 13.5737 10.5892 13.8567C10.1222 14.1396 9.52865 14.3614 8.80865 14.5221C8.08865 14.6828 7.20324 14.8211 6.15243 14.9368C6.00973 14.9497 5.89622 15.0012 5.8119 15.0912C5.72757 15.1812 5.6854 15.2873 5.6854 15.4094C5.6854 15.5381 5.72757 15.6474 5.8119 15.7374C5.89622 15.8274 6.00973 15.8788 6.15243 15.8917C7.20324 16.0267 8.08703 16.1794 8.80379 16.3498C9.52055 16.5202 10.1108 16.7437 10.5746 17.0202C11.0384 17.2966 11.413 17.6664 11.6984 18.1294C11.9838 18.5923 12.2124 19.1822 12.3843 19.8991C12.5562 20.6161 12.7168 21.5018 12.8659 22.5564C12.8854 22.6913 12.9389 22.799 13.0265 22.8794C13.1141 22.9598 13.2195 23 13.3427 23ZM6.74595 12.3327C6.83676 12.3327 6.91135 12.3038 6.96974 12.2459C7.02811 12.188 7.06379 12.1173 7.07676 12.0338C7.16108 11.3908 7.24865 10.8892 7.33946 10.5292C7.43027 10.1691 7.57135 9.89741 7.7627 9.71416C7.95406 9.5309 8.23946 9.38944 8.61892 9.28978C8.99838 9.19012 9.52541 9.07599 10.2 8.94739C10.3946 8.90881 10.4919 8.7995 10.4919 8.61946C10.4919 8.52944 10.4643 8.45549 10.4092 8.39762C10.3541 8.33976 10.2843 8.30761 10.2 8.30118C9.52541 8.20473 8.99676 8.1115 8.61406 8.02148C8.23135 7.93146 7.94432 7.79161 7.75298 7.60193C7.56162 7.41224 7.42216 7.13093 7.3346 6.758C7.24703 6.38506 7.16108 5.87388 7.07676 5.22446C7.05081 5.0187 6.94054 4.91582 6.74595 4.91582C6.55136 4.91582 6.44108 5.02192 6.41513 5.23411C6.3373 5.8771 6.25298 6.37702 6.16217 6.73388C6.07135 7.09075 5.92865 7.3592 5.73405 7.53923C5.53946 7.71927 5.25081 7.85912 4.86811 7.95879C4.48541 8.05845 3.96 8.17259 3.29189 8.30118C3.0973 8.33333 3 8.43942 3 8.61946C3 8.80593 3.11027 8.91524 3.33081 8.94739C3.99243 9.0567 4.51297 9.15958 4.89243 9.25603C5.27189 9.35248 5.5573 9.49232 5.74865 9.67558C5.94 9.85883 6.07946 10.1337 6.16703 10.5002C6.2546 10.8667 6.3373 11.3715 6.41513 12.0144C6.44108 12.2266 6.55136 12.3327 6.74595 12.3327ZM11.4551 5.69706C11.5719 5.69706 11.6432 5.63276 11.6692 5.50417C11.7405 5.11194 11.8054 4.8033 11.8638 4.57826C11.9222 4.35321 12.0081 4.18121 12.1216 4.06226C12.2351 3.9433 12.4086 3.84846 12.6422 3.77773C12.8757 3.707 13.2033 3.63627 13.6249 3.56554C13.7546 3.53982 13.8195 3.46587 13.8195 3.34371C13.8195 3.22797 13.7546 3.15724 13.6249 3.13152C13.2033 3.05436 12.8757 2.98203 12.6422 2.91451C12.4086 2.847 12.2351 2.75376 12.1216 2.63481C12.0081 2.51585 11.9222 2.34385 11.8638 2.1188C11.8054 1.89376 11.7405 1.58512 11.6692 1.1929C11.6432 1.0643 11.5719 1 11.4551 1C11.3319 1 11.2605 1.0643 11.2411 1.1929C11.1632 1.58512 11.0968 1.89376 11.0416 2.1188C10.9865 2.34385 10.9022 2.51585 10.7886 2.63481C10.6751 2.75376 10.5016 2.847 10.2681 2.91451C10.0346 2.98203 9.70703 3.05436 9.2854 3.13152C9.15568 3.15724 9.09081 3.22797 9.09081 3.34371C9.09081 3.46587 9.15568 3.53982 9.2854 3.56554C9.70703 3.63627 10.0346 3.707 10.2681 3.77773C10.5016 3.84846 10.6751 3.9433 10.7886 4.06226C10.9022 4.18121 10.9865 4.35321 11.0416 4.57826C11.0968 4.8033 11.1632 5.11194 11.2411 5.50417C11.2605 5.63276 11.3319 5.69706 11.4551 5.69706Z" fill="#FFCC00"/>
</svg>
