<svg width="24" height="24" viewBox="0 0 24 24" fill="none" xmlns="http://www.w3.org/2000/svg">
<path d="M8.09989 18.7549H10.5626C9.92584 18.4738 9.40302 18.0228 8.99414 17.402C8.58525 16.7811 8.3808 16.085 8.3808 15.3137C8.3808 14.6209 8.54467 13.9886 8.87241 13.4167C9.20015 12.8448 9.6387 12.3873 10.1881 12.0441C10.7374 11.701 11.343 11.5294 12.0047 11.5294C12.6601 11.5294 13.2626 11.701 13.8119 12.0441C14.3613 12.3873 14.7999 12.8448 15.1276 13.4167C15.4554 13.9886 15.6192 14.6209 15.6192 15.3137C15.6192 16.085 15.4148 16.7811 15.0058 17.402C14.597 18.0228 14.0742 18.4738 13.4374 18.7549H15.9001C16.2809 18.2909 16.579 17.7647 16.7943 17.1765C17.0098 16.5882 17.1175 15.9673 17.1175 15.3137C17.1175 14.5817 16.9848 13.8922 16.7194 13.2451C16.4542 12.598 16.0843 12.0261 15.6098 11.5294C15.1354 11.0327 14.5891 10.6438 13.9711 10.3627C13.3531 10.0817 12.6976 9.94118 12.0047 9.94118C11.3055 9.94118 10.6469 10.0817 10.0289 10.3627C9.41085 10.6438 8.86461 11.0327 8.39017 11.5294C7.91572 12.0261 7.54584 12.598 7.28053 13.2451C7.01521 13.8922 6.88255 14.5817 6.88255 15.3137C6.88255 15.9673 6.99024 16.5882 7.20562 17.1765C7.42099 17.7647 7.71908 18.2909 8.09989 18.7549ZM2.03199 15.8627H4.33554C4.579 15.8627 4.78033 15.7843 4.93953 15.6274C5.09871 15.4706 5.17831 15.2843 5.17831 15.0686C5.17206 14.8464 5.0909 14.6569 4.93484 14.5C4.77877 14.3431 4.579 14.2647 4.33554 14.2647H2.03199C1.78853 14.2647 1.58876 14.3431 1.4327 14.5C1.27663 14.6569 1.1986 14.8464 1.1986 15.0686C1.1986 15.2843 1.27663 15.4706 1.4327 15.6274C1.58876 15.7843 1.78853 15.8627 2.03199 15.8627ZM7.17284 10.2647C7.31643 10.1078 7.38666 9.91503 7.38354 9.68627C7.38041 9.45752 7.29145 9.25164 7.11666 9.06863L5.48732 7.36275C5.31253 7.18628 5.119 7.09641 4.90675 7.09313C4.6945 7.08987 4.51346 7.16667 4.36363 7.32353C4.21381 7.47386 4.14046 7.66177 4.14358 7.88725C4.1467 8.11274 4.23566 8.31699 4.41046 8.5L6.0398 10.2059C6.20835 10.3824 6.40343 10.4739 6.62505 10.4804C6.84666 10.4869 7.02926 10.415 7.17284 10.2647ZM16.8271 10.2647C16.977 10.415 17.1611 10.4869 17.3796 10.4804C17.5981 10.4739 17.7917 10.3824 17.9602 10.2059L19.5896 8.5C19.7643 8.31699 19.8533 8.11438 19.8564 7.89215C19.8595 7.66993 19.7862 7.48039 19.6363 7.32353C19.4928 7.16667 19.3133 7.08987 19.0979 7.09313C18.8826 7.09641 18.6875 7.18628 18.5126 7.36275L16.8833 9.06863C16.7085 9.25164 16.618 9.45752 16.6118 9.68627C16.6056 9.91503 16.6773 10.1078 16.8271 10.2647ZM19.6644 15.8627H21.968C22.2115 15.8627 22.4112 15.7843 22.5673 15.6274C22.7234 15.4706 22.8014 15.2843 22.8014 15.0686C22.8014 14.8464 22.7234 14.6569 22.5673 14.5C22.4112 14.3431 22.2115 14.2647 21.968 14.2647H19.6644C19.4272 14.2647 19.2274 14.3431 19.0651 14.5C18.9028 14.6569 18.8217 14.8464 18.8217 15.0686C18.8279 15.2843 18.9107 15.4706 19.0698 15.6274C19.229 15.7843 19.4272 15.8627 19.6644 15.8627ZM12.0047 8.16667C12.2107 8.16667 12.3886 8.08333 12.5385 7.91667C12.6882 7.75 12.7631 7.53921 12.7631 7.28431V4.87255C12.7631 4.61765 12.6882 4.4085 12.5385 4.2451C12.3886 4.0817 12.2107 4 12.0047 4C11.7924 4 11.6114 4.0817 11.4615 4.2451C11.3118 4.4085 11.2369 4.61765 11.2369 4.87255V7.28431C11.2369 7.53921 11.3118 7.75163 11.4615 7.92157C11.6114 8.09151 11.7924 8.17321 12.0047 8.16667ZM0.81467 20H23.1853C23.4038 20 23.5942 19.9232 23.7565 19.7696C23.9188 19.616 24 19.4313 24 19.2156C24 19 23.9188 18.8137 23.7565 18.6569C23.5942 18.5 23.4038 18.4215 23.1853 18.4215H0.81467C0.596176 18.4215 0.405774 18.5 0.243464 18.6569C0.0811548 18.8137 0 19 0 19.2156C0 19.4313 0.0811548 19.616 0.243464 19.7696C0.405774 19.9232 0.596176 20 0.81467 20Z" fill="#FFCC00"/>
</svg>
