<svg width="24" height="24" viewBox="0 0 24 24" fill="none" xmlns="http://www.w3.org/2000/svg">
<path d="M8.02512 14.9848H10.532C9.88387 14.7182 9.35325 14.292 8.9402 13.7062C8.52714 13.1204 8.32061 12.4618 8.32061 11.7303C8.32061 11.0733 8.48583 10.472 8.81628 9.92645C9.14672 9.38094 9.59155 8.94701 10.1508 8.62467C10.71 8.30233 11.3264 8.14116 12 8.14116C12.6736 8.14116 13.2884 8.30233 13.8445 8.62467C14.4005 8.94701 14.8453 9.38094 15.179 9.92645C15.5126 10.472 15.6794 11.0733 15.6794 11.7303C15.6794 12.4618 15.4713 13.1204 15.055 13.7062C14.6388 14.292 14.1098 14.7182 13.4679 14.9848H15.9653C16.3529 14.5446 16.6579 14.0471 16.8804 13.4924C17.1028 12.9376 17.214 12.3502 17.214 11.7303C17.214 11.0298 17.0774 10.3728 16.8041 9.75908C16.5309 9.14538 16.1544 8.60453 15.6746 8.13651C15.1948 7.66849 14.6404 7.3012 14.0113 7.03465C13.3821 6.7681 12.7117 6.63482 12 6.63482C11.2883 6.63482 10.6178 6.7681 9.98872 7.03465C9.3596 7.3012 8.80516 7.66849 8.32538 8.13651C7.8456 8.60453 7.46908 9.14538 7.19583 9.75908C6.92258 10.3728 6.78595 11.0298 6.78595 11.7303C6.78595 12.3502 6.89557 12.9376 7.11481 13.4924C7.33404 14.0471 7.63748 14.5446 8.02512 14.9848ZM1.84835 12.251H4.19323C4.44107 12.251 4.64759 12.1766 4.81282 12.0279C4.97804 11.8791 5.05748 11.6994 5.05112 11.4886C5.04476 11.284 4.96215 11.1074 4.80328 10.9586C4.64442 10.8098 4.44107 10.7354 4.19323 10.7354H1.84835C1.60052 10.7354 1.39717 10.8098 1.2383 10.9586C1.07943 11.1074 1 11.284 1 11.4886C1 11.6994 1.07943 11.8791 1.2383 12.0279C1.39717 12.1766 1.60052 12.251 1.84835 12.251ZM7.08145 6.93237C7.22761 6.78359 7.2991 6.60227 7.29592 6.38841C7.29274 6.17455 7.20218 5.98084 7.02426 5.80727L5.36568 4.18935C5.18775 4.01577 4.99075 3.92899 4.77469 3.92899C4.55863 3.92899 4.37435 4.00028 4.22183 4.14285C4.06932 4.28543 3.99465 4.4652 3.99783 4.68216C4.001 4.89912 4.09156 5.09129 4.26949 5.25866L5.92807 6.87658C6.106 7.05015 6.30617 7.14003 6.52858 7.14623C6.751 7.15243 6.93529 7.08114 7.08145 6.93237ZM12 4.95181C12.2097 4.94561 12.3908 4.86502 12.5433 4.71005C12.6958 4.55508 12.772 4.35671 12.772 4.11495V1.82756C12.772 1.5858 12.6958 1.38743 12.5433 1.23246C12.3908 1.07749 12.2097 1 12 1C11.7839 1 11.6012 1.07749 11.4519 1.23246C11.3025 1.38743 11.2279 1.5858 11.2279 1.82756V4.11495C11.2279 4.35671 11.3025 4.55818 11.4519 4.71935C11.6012 4.88053 11.7839 4.95801 12 4.95181ZM16.9185 6.93237C17.0647 7.07494 17.249 7.14468 17.4714 7.14159C17.6938 7.13848 17.894 7.05015 18.0719 6.87658L19.7305 5.25866C19.9084 5.09129 19.9974 4.90067 19.9974 4.68681C19.9974 4.47295 19.9211 4.29163 19.7686 4.14285C19.6288 3.99408 19.4477 3.92124 19.2253 3.92434C19.0029 3.92744 18.8027 4.01577 18.6247 4.18935L16.9662 5.80727C16.7946 5.98084 16.7057 6.1761 16.6993 6.39306C16.6929 6.61002 16.766 6.78979 16.9185 6.93237ZM19.8067 12.251H22.1516C22.3995 12.251 22.6028 12.1766 22.7616 12.0279C22.9205 11.8791 23 11.6994 23 11.4886C23 11.284 22.9205 11.1074 22.7616 10.9586C22.6028 10.8098 22.3995 10.7354 22.1516 10.7354H19.8067C19.5589 10.7354 19.3524 10.8098 19.1871 10.9586C19.0219 11.1074 18.9425 11.284 18.9489 11.4886C18.9489 11.6994 19.0299 11.8791 19.1919 12.0279C19.3539 12.1766 19.5589 12.251 19.8067 12.251ZM3.03985 15.8495H22.3994C22.5646 15.8495 22.706 15.7937 22.8236 15.6821C22.9412 15.5705 23 15.4311 23 15.2637C23 15.0964 22.9412 14.9569 22.8236 14.8453C22.706 14.7337 22.5646 14.6779 22.3994 14.6779H3.03985C2.86828 14.6779 2.7253 14.7337 2.61092 14.8453C2.49653 14.9569 2.43934 15.0964 2.43934 15.2637C2.43934 15.4311 2.49653 15.5705 2.61092 15.6821C2.7253 15.7937 2.86828 15.8495 3.03985 15.8495ZM1.60052 19.4294H20.9601C21.1317 19.4294 21.2747 19.3721 21.3891 19.2574C21.5035 19.1427 21.5607 19.0016 21.5607 18.8343C21.5607 18.6669 21.5035 18.5274 21.3891 18.4159C21.2747 18.3043 21.1317 18.2485 20.9601 18.2485H1.60052C1.4353 18.2485 1.2939 18.3043 1.17634 18.4159C1.05878 18.5274 1 18.6669 1 18.8343C1 19.0016 1.05878 19.1427 1.17634 19.2574C1.2939 19.3721 1.4353 19.4294 1.60052 19.4294ZM3.03985 23H22.3994C22.5646 23 22.706 22.9442 22.8236 22.8326C22.9412 22.721 23 22.5815 23 22.4141C23 22.2468 22.9412 22.1058 22.8236 21.9911C22.706 21.8764 22.5646 21.819 22.3994 21.819H3.03985C2.86828 21.819 2.7253 21.8764 2.61092 21.9911C2.49653 22.1058 2.43934 22.2468 2.43934 22.4141C2.43934 22.5815 2.49653 22.721 2.61092 22.8326C2.7253 22.9442 2.86828 23 3.03985 23Z" fill="black" fill-opacity="0.8"/>
</svg>
