<svg width="24" height="24" viewBox="0 0 24 24" fill="none" xmlns="http://www.w3.org/2000/svg">
<path d="M17.1664 11.062C17.1664 10.3521 17.0313 9.68207 16.7613 9.05205C16.4912 8.42203 16.1178 7.86717 15.6412 7.38747C15.1646 6.90776 14.6149 6.53199 13.9921 6.26016C13.3694 5.98832 12.7053 5.85241 12 5.85241C11.2946 5.85241 10.6305 5.98832 10.0078 6.26016C9.38502 6.53199 8.83534 6.90776 8.35874 7.38747C7.88214 7.86717 7.5088 8.42203 7.23872 9.05205C6.96865 9.68207 6.83361 10.3521 6.83361 11.062C6.83361 11.401 6.87015 11.7352 6.94323 12.0646C7.01631 12.394 7.11322 12.7058 7.23396 13H16.7565C16.8836 12.7058 16.9837 12.394 17.0567 12.0646C17.1298 11.7352 17.1664 11.401 17.1664 11.062ZM1.84835 11.6089H4.19323C4.44107 11.6089 4.64759 11.5321 4.81282 11.3786C4.97804 11.2251 5.05748 11.0396 5.05112 10.8221C5.04476 10.6111 4.96215 10.4288 4.80328 10.2753C4.64442 10.1218 4.44107 10.045 4.19323 10.045H1.84835C1.60052 10.045 1.39717 10.1218 1.2383 10.2753C1.07943 10.4288 1 10.6111 1 10.8221C1 11.0396 1.07943 11.2251 1.2383 11.3786C1.39717 11.5321 1.60052 11.6089 1.84835 11.6089ZM7.08145 6.12105C7.22761 5.96754 7.2991 5.78045 7.29592 5.55979C7.29274 5.33913 7.20218 5.13925 7.02426 4.96016L5.36568 3.29078C5.18775 3.11169 4.99075 3.02214 4.77469 3.02214C4.55863 3.02214 4.37435 3.0957 4.22183 3.24281C4.06932 3.39632 3.99465 3.5834 3.99783 3.80407C4.001 4.02473 4.09156 4.2246 4.26949 4.4037L5.92807 6.07307C6.106 6.24577 6.30617 6.33531 6.52858 6.34171C6.751 6.3481 6.93529 6.27455 7.08145 6.12105ZM12 4.0775C12.2097 4.0711 12.3908 3.98795 12.5433 3.82805C12.6958 3.66814 12.772 3.46347 12.772 3.21402V0.853876C12.772 0.604429 12.6958 0.399755 12.5433 0.239853C12.3908 0.0799511 12.2097 0 12 0C11.7839 0 11.6012 0.0799511 11.4519 0.239853C11.3025 0.399755 11.2279 0.604429 11.2279 0.853876V3.21402C11.2279 3.46347 11.3025 3.67134 11.4519 3.83764C11.6012 4.00395 11.7839 4.0839 12 4.0775ZM16.9185 6.12105C17.0647 6.27455 17.249 6.3481 17.4714 6.34171C17.6938 6.33531 17.894 6.24577 18.0719 6.07307L19.7305 4.4037C19.9084 4.2246 19.9974 4.02473 19.9974 3.80407C19.9974 3.5834 19.9211 3.39632 19.7686 3.24281C19.6288 3.08931 19.4477 3.01415 19.2253 3.01735C19.0029 3.02055 18.8027 3.11169 18.6247 3.29078L16.9662 4.96016C16.7946 5.13925 16.7057 5.34072 16.6993 5.56458C16.6929 5.78845 16.766 5.97393 16.9185 6.12105ZM19.8067 11.6089H22.1516C22.3995 11.6089 22.6028 11.5321 22.7616 11.3786C22.9205 11.2251 23 11.0396 23 10.8221C23 10.6111 22.9205 10.4288 22.7616 10.2753C22.6028 10.1218 22.3995 10.045 22.1516 10.045H19.8067C19.5589 10.045 19.3524 10.1218 19.1871 10.2753C19.0219 10.4288 18.9425 10.6111 18.9489 10.8221C18.9489 11.0396 19.0299 11.2251 19.1919 11.3786C19.3539 11.5321 19.5589 11.6089 19.8067 11.6089Z" fill="#FFCC00"/>
<path d="M3.03985 15.4191H22.3994C22.5646 15.4191 22.706 15.3501 22.8236 15.2123C22.9412 15.0745 23 14.905 23 14.704C23 14.5028 22.9412 14.3352 22.8236 14.2011C22.706 14.067 22.5646 14 22.3994 14H3.03985C2.86828 14 2.7253 14.067 2.61092 14.2011C2.49653 14.3352 2.43934 14.5028 2.43934 14.704C2.43934 14.905 2.49653 15.0745 2.61092 15.2123C2.7253 15.3501 2.86828 15.4191 3.03985 15.4191ZM1.60052 19.7095H20.9601C21.1317 19.7095 21.2747 19.6425 21.3891 19.5084C21.5035 19.3743 21.5607 19.2067 21.5607 19.0055C21.5607 18.8045 21.5035 18.635 21.3891 18.4972C21.2747 18.3594 21.1317 18.2905 20.9601 18.2905H1.60052C1.4353 18.2905 1.2939 18.3594 1.17634 18.4972C1.05878 18.635 1 18.8045 1 19.0055C1 19.2067 1.05878 19.3743 1.17634 19.5084C1.2939 19.6425 1.4353 19.7095 1.60052 19.7095ZM3.03985 24H22.3994C22.5646 24 22.706 23.933 22.8236 23.7989C22.9412 23.6648 23 23.4972 23 23.296C23 23.095 22.9412 22.9274 22.8236 22.7933C22.706 22.6592 22.5646 22.5922 22.3994 22.5922H3.03985C2.86828 22.5922 2.7253 22.6592 2.61092 22.7933C2.49653 22.9274 2.43934 23.095 2.43934 23.296C2.43934 23.4972 2.49653 23.6648 2.61092 23.7989C2.7253 23.933 2.86828 24 3.03985 24Z" fill="white"/>
</svg>
