<svg width="24" height="24" viewBox="0 0 24 24" fill="none" xmlns="http://www.w3.org/2000/svg">
<path d="M17.6332 15.0376C17.6332 14.3292 17.4859 13.6623 17.1912 13.0368C16.8964 12.4114 16.4907 11.8594 15.974 11.3807C15.4573 10.9021 14.8591 10.5255 14.1794 10.2511C13.4998 9.97669 12.775 9.83948 12.0052 9.83948C11.2284 9.83948 10.5002 9.97669 9.8206 10.2511C9.14089 10.5255 8.5427 10.9021 8.02601 11.3807C7.50932 11.8594 7.1036 12.4114 6.80884 13.0368C6.51408 13.6623 6.36671 14.3292 6.36671 15.0376C6.36671 15.3822 6.40485 15.7204 6.48114 16.0523C6.55743 16.3841 6.6684 16.7 6.81404 17H17.1859C17.3316 16.7 17.4426 16.3841 17.5188 16.0523C17.5951 15.7204 17.6332 15.3822 17.6332 15.0376ZM0.925877 15.5832H3.48504C3.75552 15.5832 3.97919 15.5066 4.15605 15.3534C4.3329 15.2003 4.42133 15.0185 4.42133 14.8078C4.41439 14.5909 4.32422 14.4058 4.15084 14.2526C3.97745 14.0994 3.75552 14.0228 3.48504 14.0228H0.925877C0.655395 14.0228 0.433462 14.0994 0.260077 14.2526C0.0866925 14.4058 0 14.5909 0 14.8078C0 15.0185 0.0866925 15.2003 0.260077 15.3534C0.433462 15.5066 0.655395 15.5832 0.925877 15.5832ZM5.37841 10.0597C5.56567 10.232 5.7824 10.3213 6.02861 10.3277C6.27482 10.3341 6.47768 10.2639 6.63719 10.1171C6.79671 9.96393 6.87473 9.77566 6.87126 9.55229C6.86779 9.32893 6.76896 9.12789 6.57478 8.9492L4.76463 7.28351C4.57044 7.10481 4.35544 7.01547 4.11964 7.01547C3.88383 7.01547 3.68271 7.09205 3.51625 7.24522C3.34981 7.39201 3.26832 7.57549 3.27178 7.79566C3.27525 8.01583 3.37408 8.21527 3.56827 8.39397L5.37841 10.0597ZM17.3628 10.1171C17.5292 10.2639 17.7338 10.3341 17.9766 10.3277C18.2193 10.3213 18.4343 10.232 18.6216 10.0597L20.4317 8.39397C20.6259 8.21527 20.7247 8.01743 20.7282 7.80044C20.7317 7.58346 20.6502 7.39838 20.4837 7.24522C20.3242 7.09205 20.1248 7.01547 19.8856 7.01547C19.6463 7.01547 19.4296 7.10481 19.2353 7.28351L17.4252 8.9492C17.231 9.12789 17.1305 9.32893 17.1235 9.55229C17.1166 9.77566 17.1964 9.96393 17.3628 10.1171ZM20.5149 15.5832H23.0742C23.3446 15.5832 23.5665 15.5066 23.74 15.3534C23.9133 15.2003 24 15.0185 24 14.8078C24 14.5909 23.9133 14.4058 23.74 14.2526C23.5665 14.0994 23.3446 14.0228 23.0742 14.0228H20.5149C20.2514 14.0228 20.0295 14.0994 19.8491 14.2526C19.6688 14.4058 19.5787 14.5909 19.5787 14.8078C19.5856 15.0185 19.6775 15.2003 19.8544 15.3534C20.0312 15.5066 20.2514 15.5832 20.5149 15.5832ZM12.0052 8.06849C12.2341 8.06849 12.4317 7.98712 12.5982 7.82438C12.7646 7.66164 12.8478 7.45582 12.8478 7.20692V4.85199C12.8478 4.60309 12.7646 4.39887 12.5982 4.23932C12.4317 4.07977 12.2341 4 12.0052 4C11.7694 4 11.5683 4.07977 11.4018 4.23932C11.2354 4.39887 11.1522 4.60309 11.1522 4.85199V7.20692C11.1522 7.45582 11.2354 7.66323 11.4018 7.82917C11.5683 7.9951 11.7694 8.07487 12.0052 8.06849Z" fill="#FFCC00"/>
<path d="M0.81467 20H23.1853C23.4038 20 23.5942 19.9027 23.7565 19.7081C23.9188 19.5135 24 19.2795 24 19.0062C24 18.7329 23.9188 18.4969 23.7565 18.2982C23.5942 18.0994 23.4038 18 23.1853 18H0.81467C0.596176 18 0.405774 18.0994 0.243464 18.2982C0.0811548 18.4969 0 18.7329 0 19.0062C0 19.2795 0.0811548 19.5135 0.243464 19.7081C0.405774 19.9027 0.596176 20 0.81467 20Z" fill="white"/>
</svg>
