<svg width="24" height="24" viewBox="0 0 24 24" fill="none" xmlns="http://www.w3.org/2000/svg">
<path d="M11.9949 17.1731C12.6994 17.1731 13.365 17.038 13.9917 16.7678C14.6183 16.4976 15.1688 16.1244 15.643 15.6481C16.1172 15.1718 16.4898 14.6229 16.7607 14.0014C17.0317 13.3799 17.1672 12.7144 17.1672 12.0051C17.1672 11.2957 17.0317 10.6286 16.7607 10.0037C16.4898 9.37877 16.1172 8.82818 15.643 8.3519C15.1688 7.87562 14.6183 7.50237 13.9917 7.23214C13.365 6.96191 12.6994 6.8268 11.9949 6.8268C11.2836 6.8268 10.6163 6.96191 9.99306 7.23214C9.36981 7.50237 8.81939 7.87562 8.34179 8.3519C7.8642 8.82818 7.48991 9.37877 7.21893 10.0037C6.94796 10.6286 6.81247 11.2957 6.81247 12.0051C6.81247 12.7144 6.94796 13.3799 7.21893 14.0014C7.48991 14.6229 7.8642 15.1718 8.34179 15.6481C8.81939 16.1244 9.36981 16.4976 9.99306 16.7678C10.6163 17.038 11.2836 17.1731 11.9949 17.1731ZM11.9949 15.6227C11.331 15.6227 10.7247 15.4589 10.176 15.1313C9.62724 14.8036 9.1869 14.3661 8.85496 13.8189C8.52301 13.2717 8.35703 12.6671 8.35703 12.0051C8.35703 11.343 8.52301 10.7384 8.85496 10.1911C9.1869 9.64393 9.62724 9.20481 10.176 8.87378C10.7247 8.54275 11.331 8.37724 11.9949 8.37724C12.6588 8.37724 13.2651 8.54275 13.8139 8.87378C14.3626 9.20481 14.8012 9.64393 15.1298 10.1911C15.4583 10.7384 15.6226 11.343 15.6226 12.0051C15.6226 12.6671 15.4583 13.2717 15.1298 13.8189C14.8012 14.3661 14.3626 14.8036 13.8139 15.1313C13.2651 15.4589 12.6588 15.6227 11.9949 15.6227ZM12.8892 1.89175C12.8892 1.64855 12.8011 1.43912 12.625 1.26347C12.4488 1.08782 12.2388 1 11.9949 1C11.7578 1 11.5512 1.08782 11.375 1.26347C11.1989 1.43912 11.1108 1.64855 11.1108 1.89175V4.01981C11.1108 4.25625 11.1989 4.4623 11.375 4.63795C11.5512 4.8136 11.7578 4.90143 11.9949 4.90143C12.2388 4.90143 12.4488 4.8136 12.625 4.63795C12.8011 4.4623 12.8892 4.25625 12.8892 4.01981V1.89175ZM17.0147 5.75264C16.8454 5.92154 16.7607 6.12927 16.7607 6.37585C16.7607 6.62244 16.8454 6.83018 17.0147 6.99907C17.1841 7.16796 17.3925 7.2541 17.6397 7.25747C17.887 7.26086 18.0987 7.17472 18.2748 6.99907L19.7889 5.48917C19.9583 5.32027 20.043 5.11085 20.043 4.86089C20.043 4.61093 19.9583 4.4015 19.7889 4.2326C19.6195 4.06371 19.4129 3.97926 19.169 3.97926C18.9252 3.97926 18.7185 4.06371 18.5491 4.2326L17.0147 5.75264ZM22.1057 12.8867C22.3497 12.8867 22.5597 12.7989 22.7358 12.6232C22.9119 12.4476 23 12.2415 23 12.0051C23 11.7619 22.9119 11.5541 22.7358 11.3819C22.5597 11.2096 22.3497 11.1234 22.1057 11.1234H19.982C19.7449 11.1234 19.5383 11.2096 19.3621 11.3819C19.186 11.5541 19.0979 11.7619 19.0979 12.0051C19.0979 12.2415 19.186 12.4476 19.3621 12.6232C19.5383 12.7989 19.7449 12.8867 19.982 12.8867H22.1057ZM18.2647 17.0212C18.0953 16.8523 17.887 16.7678 17.6397 16.7678C17.3925 16.7678 17.1841 16.8523 17.0147 17.0212C16.8454 17.1901 16.7607 17.3961 16.7607 17.6394C16.7607 17.8825 16.8454 18.0919 17.0147 18.2676L18.5491 19.7877C18.7185 19.9565 18.9252 20.0393 19.169 20.0359C19.4129 20.0325 19.6195 19.9464 19.7889 19.7775C19.9583 19.6086 20.043 19.4009 20.043 19.1543C20.043 18.9077 19.9583 18.7 19.7889 18.531L18.2647 17.0212ZM12.8892 19.9903C12.8892 19.7471 12.8011 19.5376 12.625 19.362C12.4488 19.1864 12.2388 19.0985 11.9949 19.0985C11.7578 19.0985 11.5512 19.1864 11.375 19.362C11.1989 19.5376 11.1108 19.7471 11.1108 19.9903V22.1184C11.1108 22.3548 11.1989 22.5609 11.375 22.7365C11.5512 22.9122 11.7578 23 11.9949 23C12.2388 23 12.4488 22.9122 12.625 22.7365C12.8011 22.5609 12.8892 22.3548 12.8892 22.1184V19.9903ZM4.20092 18.521C4.03156 18.6898 3.94688 18.8976 3.94688 19.1442C3.94688 19.3907 4.02817 19.5985 4.19076 19.7673C4.36012 19.9363 4.57013 20.0224 4.82079 20.0258C5.07143 20.0291 5.28144 19.9464 5.4508 19.7775L6.96489 18.2676C7.13425 18.0987 7.22062 17.891 7.22402 17.6443C7.2274 17.3978 7.14441 17.1901 6.97505 17.0212C6.80569 16.8523 6.59569 16.7678 6.34503 16.7678C6.09438 16.7678 5.88437 16.8523 5.71501 17.0212L4.20092 18.521ZM1.88406 11.1234C1.64696 11.1234 1.44034 11.2096 1.2642 11.3819C1.08807 11.5541 1 11.7619 1 12.0051C1 12.2415 1.08807 12.4476 1.2642 12.6232C1.44034 12.7989 1.64696 12.8867 1.88406 12.8867H4.00784C4.25173 12.8867 4.46174 12.7989 4.63787 12.6232C4.81401 12.4476 4.90207 12.2415 4.90207 12.0051C4.90207 11.7619 4.81401 11.5541 4.63787 11.3819C4.46174 11.2096 4.25173 11.1234 4.00784 11.1234H1.88406ZM5.71501 6.99907C5.88437 7.16796 6.09268 7.25241 6.33995 7.25241C6.58722 7.25241 6.79553 7.16796 6.96489 6.99907C7.13425 6.83694 7.22062 6.6292 7.22402 6.37585C7.2274 6.12251 7.14441 5.91478 6.97505 5.75264L5.46097 4.2326C5.29838 4.07047 5.09345 3.98771 4.84619 3.98434C4.59892 3.98096 4.38722 4.06371 4.21108 4.2326C4.04172 4.4015 3.95704 4.60924 3.95704 4.85582C3.95704 5.10241 4.03834 5.31015 4.20092 5.47904L5.71501 6.99907Z" fill="#FFCC00"/>
</svg>
