<svg width="24" height="24" viewBox="0 0 24 24" fill="none" xmlns="http://www.w3.org/2000/svg">
<path d="M8.02512 14.7637H10.532C9.88387 14.5074 9.35325 14.0895 8.9402 13.51C8.52714 12.9304 8.32061 12.2806 8.32061 11.5607C8.32061 10.914 8.48583 10.3238 8.81628 9.78992C9.14672 9.25609 9.59155 8.82902 10.1508 8.50873C10.71 8.18843 11.3264 8.02828 12 8.02828C12.6736 8.02828 13.2884 8.18843 13.8445 8.50873C14.4005 8.82902 14.8453 9.25609 15.179 9.78992C15.5126 10.3238 15.6794 10.914 15.6794 11.5607C15.6794 12.2806 15.4713 12.9304 15.055 13.51C14.6388 14.0895 14.1098 14.5074 13.4679 14.7637H15.9653C16.3529 14.3366 16.6579 13.8486 16.8804 13.2995C17.1028 12.7504 17.214 12.1708 17.214 11.5607C17.214 10.8774 17.0774 10.2322 16.8041 9.62519C16.5309 9.01815 16.1544 8.48432 15.6746 8.0237C15.1948 7.56308 14.6404 7.2016 14.0113 6.93926C13.3821 6.67692 12.7117 6.54575 12 6.54575C11.2883 6.54575 10.6178 6.67692 9.98872 6.93926C9.3596 7.2016 8.80516 7.56308 8.32538 8.0237C7.8456 8.48432 7.46908 9.01815 7.19583 9.62519C6.92258 10.2322 6.78595 10.8774 6.78595 11.5607C6.78595 12.1708 6.89557 12.7504 7.11481 13.2995C7.33404 13.8486 7.63748 14.3366 8.02512 14.7637ZM1.84835 12.0732H4.19323C4.44107 12.0732 4.64759 12 4.81282 11.8535C4.97804 11.7072 5.05748 11.5333 5.05112 11.3319C5.04476 11.1245 4.96215 10.9476 4.80328 10.8012C4.64442 10.6547 4.44107 10.5815 4.19323 10.5815H1.84835C1.60052 10.5815 1.39717 10.6547 1.2383 10.8012C1.07943 10.9476 1 11.1245 1 11.3319C1 11.5333 1.07943 11.7072 1.2383 11.8535C1.39717 12 1.60052 12.0732 1.84835 12.0732ZM7.08145 6.83859C7.22761 6.69217 7.2991 6.51372 7.29592 6.30324C7.29274 6.09276 7.20218 5.9021 7.02426 5.73128L5.36568 4.13893C5.18775 3.97421 4.99075 3.89032 4.77469 3.88726C4.55863 3.88421 4.37435 3.95285 4.22183 4.09317C4.06932 4.2396 3.99465 4.41805 3.99783 4.62853C4.001 4.83901 4.09156 5.02966 4.26949 5.20049L5.92807 6.79284C6.106 6.95756 6.30617 7.04297 6.52858 7.04908C6.751 7.05517 6.93529 6.98501 7.08145 6.83859ZM12 4.88934C12.2097 4.88934 12.3908 4.81156 12.5433 4.65599C12.6958 4.50041 12.772 4.30365 12.772 4.06571V1.81447C12.772 1.57654 12.6958 1.38131 12.5433 1.22879C12.3908 1.07626 12.2097 1 12 1C11.7839 1 11.6012 1.07626 11.4519 1.22879C11.3025 1.38131 11.2279 1.57654 11.2279 1.81447V4.06571C11.2279 4.30365 11.3025 4.50193 11.4519 4.66056C11.6012 4.81919 11.7839 4.89545 12 4.88934ZM16.9185 6.83859C17.0647 6.98501 17.249 7.05517 17.4714 7.04908C17.6938 7.04297 17.894 6.95756 18.0719 6.79284L19.7305 5.20049C19.9084 5.02966 19.9974 4.83901 19.9974 4.62853C19.9974 4.41805 19.9211 4.2396 19.7686 4.09317C19.6288 3.95285 19.4477 3.88421 19.2253 3.88726C19.0029 3.89032 18.8027 3.97421 18.6247 4.13893L16.9662 5.73128C16.7946 5.9021 16.7057 6.09428 16.6993 6.30781C16.6929 6.52134 16.766 6.69827 16.9185 6.83859ZM19.8067 12.0732H22.1516C22.3995 12.0732 22.6028 12 22.7616 11.8535C22.9205 11.7072 23 11.5333 23 11.3319C23 11.1245 22.9205 10.9491 22.7616 10.8058C22.6028 10.6624 22.3995 10.5876 22.1516 10.5815H19.8067C19.5589 10.5815 19.3524 10.6547 19.1871 10.8012C19.0219 10.9476 18.9425 11.1245 18.9489 11.3319C18.9489 11.5333 19.0299 11.7072 19.1919 11.8535C19.3539 12 19.5589 12.0732 19.8067 12.0732ZM2.29635 15.624H21.6559C21.8275 15.624 21.9705 15.5675 22.0849 15.4546C22.1993 15.3417 22.2564 15.203 22.2564 15.0383C22.2564 14.8735 22.1993 14.7362 22.0849 14.6264C21.9705 14.5166 21.8275 14.4617 21.6559 14.4617H2.29635C2.13114 14.4617 1.98975 14.5166 1.87218 14.6264C1.75462 14.7362 1.69584 14.8735 1.69584 15.0383C1.69584 15.203 1.75462 15.3417 1.87218 15.4546C1.98975 15.5675 2.13114 15.624 2.29635 15.624ZM3.15424 18.5707C3.28133 18.5707 3.39254 18.5249 3.48787 18.4334C3.58318 18.3419 3.63084 18.2321 3.63084 18.104C3.63084 17.9759 3.58318 17.8676 3.48787 17.7791C3.39254 17.6907 3.28133 17.6464 3.15424 17.6464C3.01444 17.6464 2.89847 17.6907 2.80633 17.7791C2.71418 17.8676 2.6681 17.9759 2.6681 18.104C2.6681 18.2321 2.71418 18.3419 2.80633 18.4334C2.89847 18.5249 3.01444 18.5707 3.15424 18.5707ZM7.17676 18.5707C7.31021 18.5707 7.4246 18.5249 7.51992 18.4334C7.61524 18.3419 7.6629 18.2321 7.6629 18.104C7.6629 17.9759 7.61524 17.8676 7.51992 17.7791C7.4246 17.6907 7.31021 17.6464 7.17676 17.6464C7.04332 17.6464 6.92893 17.6907 6.83361 17.7791C6.73829 17.8676 6.69063 17.9759 6.69063 18.104C6.69063 18.2321 6.73829 18.3419 6.83361 18.4334C6.92893 18.5249 7.04332 18.5707 7.17676 18.5707ZM11.2088 18.5707C11.3359 18.5707 11.4471 18.5249 11.5425 18.4334C11.6378 18.3419 11.6855 18.2321 11.6855 18.104C11.6855 17.9759 11.6378 17.8676 11.5425 17.7791C11.4471 17.6907 11.3359 17.6464 11.2088 17.6464C11.069 17.6464 10.953 17.6907 10.8609 17.7791C10.7687 17.8676 10.7227 17.9759 10.7227 18.104C10.7227 18.2321 10.7687 18.3419 10.8609 18.4334C10.953 18.5249 11.069 18.5707 11.2088 18.5707ZM15.2314 18.5707C15.3648 18.5707 15.4792 18.5249 15.5745 18.4334C15.6698 18.3419 15.7175 18.2321 15.7175 18.104C15.7175 17.9759 15.6698 17.8676 15.5745 17.7791C15.4792 17.6907 15.3648 17.6464 15.2314 17.6464C15.0979 17.6464 14.9835 17.6907 14.8882 17.7791C14.7928 17.8676 14.7452 17.9759 14.7452 18.104C14.7452 18.2321 14.7928 18.3419 14.8882 18.4334C14.9835 18.5249 15.0979 18.5707 15.2314 18.5707ZM19.2634 18.5707C19.3904 18.5707 19.5017 18.5249 19.597 18.4334C19.6923 18.3419 19.74 18.2321 19.74 18.104C19.74 17.9759 19.6923 17.8676 19.597 17.7791C19.5017 17.6907 19.3904 17.6464 19.2634 17.6464C19.1236 17.6464 19.0076 17.6907 18.9155 17.7791C18.8233 17.8676 18.7773 17.9759 18.7773 18.104C18.7773 18.2321 18.8233 18.3419 18.9155 18.4334C19.0076 18.5249 19.1236 18.5707 19.2634 18.5707ZM1.93414 20.7944C2.06759 20.7944 2.18197 20.7487 2.27729 20.6572C2.37261 20.5657 2.42028 20.4528 2.42028 20.3186C2.42028 20.1966 2.37261 20.0898 2.27729 19.9983C2.18197 19.9068 2.06759 19.8611 1.93414 19.8611C1.80069 19.8611 1.68631 19.9068 1.59099 19.9983C1.49567 20.0898 1.44801 20.1966 1.44801 20.3186C1.44801 20.4528 1.49567 20.5657 1.59099 20.6572C1.68631 20.7487 1.80069 20.7944 1.93414 20.7944ZM5.9662 20.7944C6.09329 20.7944 6.2045 20.7487 6.29982 20.6572C6.39514 20.5657 6.4428 20.4528 6.4428 20.3186C6.4428 20.1966 6.39514 20.0898 6.29982 19.9983C6.2045 19.9068 6.09329 19.8611 5.9662 19.8611C5.82639 19.8611 5.70883 19.9068 5.61351 19.9983C5.51819 20.0898 5.47053 20.1966 5.47053 20.3186C5.47053 20.4528 5.51819 20.5657 5.61351 20.6572C5.70883 20.7487 5.82639 20.7944 5.9662 20.7944ZM9.98872 20.7944C10.1222 20.7944 10.2366 20.7487 10.3319 20.6572C10.4272 20.5657 10.4749 20.4528 10.4749 20.3186C10.4749 20.1966 10.4272 20.0898 10.3319 19.9983C10.2366 19.9068 10.1222 19.8611 9.98872 19.8611C9.85527 19.8611 9.74089 19.9068 9.64556 19.9983C9.55025 20.0898 9.50259 20.1966 9.50259 20.3186C9.50259 20.4528 9.55025 20.5657 9.64556 20.6572C9.74089 20.7487 9.85527 20.7944 9.98872 20.7944ZM14.0207 20.7944C14.1479 20.7944 14.2591 20.7487 14.3544 20.6572C14.4497 20.5657 14.4974 20.4528 14.4974 20.3186C14.4974 20.1966 14.4497 20.0898 14.3544 19.9983C14.2591 19.9068 14.1479 19.8611 14.0207 19.8611C13.881 19.8611 13.7634 19.9068 13.6681 19.9983C13.5727 20.0898 13.5251 20.1966 13.5251 20.3186C13.5251 20.4528 13.5727 20.5657 13.6681 20.6572C13.7634 20.7487 13.881 20.7944 14.0207 20.7944ZM18.0433 20.7944C18.1767 20.7944 18.2911 20.7487 18.3865 20.6572C18.4818 20.5657 18.5294 20.4528 18.5294 20.3186C18.5294 20.1966 18.4818 20.0898 18.3865 19.9983C18.2911 19.9068 18.1767 19.8611 18.0433 19.8611C17.9099 19.8611 17.7955 19.9068 17.7002 19.9983C17.6048 20.0898 17.5572 20.1966 17.5572 20.3186C17.5572 20.4528 17.6048 20.5657 17.7002 20.6572C17.7955 20.7487 17.9099 20.7944 18.0433 20.7944ZM22.0754 20.7944C22.2024 20.7944 22.3137 20.7487 22.409 20.6572C22.5043 20.5657 22.552 20.4528 22.552 20.3186C22.552 20.1966 22.5043 20.0898 22.409 19.9983C22.3137 19.9068 22.2024 19.8611 22.0754 19.8611C21.9356 19.8611 21.818 19.9068 21.7227 19.9983C21.6274 20.0898 21.5797 20.1966 21.5797 20.3186C21.5797 20.4528 21.6274 20.5657 21.7227 20.6572C21.818 20.7487 21.9356 20.7944 22.0754 20.7944ZM4.74609 23C4.87954 23 4.99234 22.9542 5.08448 22.8627C5.17662 22.7712 5.22269 22.6614 5.22269 22.5332C5.22269 22.4051 5.17662 22.2968 5.08448 22.2083C4.99234 22.1199 4.87954 22.0756 4.74609 22.0756C4.61264 22.0756 4.49826 22.1199 4.40294 22.2083C4.30762 22.2968 4.25996 22.4051 4.25996 22.5332C4.25996 22.6614 4.30762 22.7712 4.40294 22.8627C4.49826 22.9542 4.61264 23 4.74609 23ZM8.77815 23C8.90524 23 9.01645 22.9542 9.11177 22.8627C9.20709 22.7712 9.25475 22.6614 9.25475 22.5332C9.25475 22.4051 9.20709 22.2968 9.11177 22.2083C9.01645 22.1199 8.90524 22.0756 8.77815 22.0756C8.63835 22.0756 8.52079 22.1199 8.42546 22.2083C8.33014 22.2968 8.28249 22.4051 8.28249 22.5332C8.28249 22.6614 8.33014 22.7712 8.42546 22.8627C8.52079 22.9542 8.63835 23 8.77815 23ZM12.8006 23C12.9341 23 13.0469 22.9542 13.139 22.8627C13.2312 22.7712 13.2773 22.6614 13.2773 22.5332C13.2773 22.4051 13.2312 22.2968 13.139 22.2083C13.0469 22.1199 12.9341 22.0756 12.8006 22.0756C12.6672 22.0756 12.5529 22.1199 12.4575 22.2083C12.3622 22.2968 12.3145 22.4051 12.3145 22.5332C12.3145 22.6614 12.3622 22.7712 12.4575 22.8627C12.5529 22.9542 12.6672 23 12.8006 23ZM16.8327 23C16.9598 23 17.071 22.9542 17.1664 22.8627C17.2617 22.7712 17.3093 22.6614 17.3093 22.5332C17.3093 22.4051 17.2617 22.2968 17.1664 22.2083C17.071 22.1199 16.9598 22.0756 16.8327 22.0756C16.693 22.0756 16.5754 22.1199 16.4801 22.2083C16.3847 22.2968 16.3371 22.4051 16.3371 22.5332C16.3371 22.6614 16.3847 22.7712 16.4801 22.8627C16.5754 22.9542 16.693 23 16.8327 23ZM20.8553 23C20.9887 23 21.1015 22.9542 21.1937 22.8627C21.2858 22.7712 21.3319 22.6614 21.3319 22.5332C21.3319 22.4051 21.2858 22.2968 21.1937 22.2083C21.1015 22.1199 20.9887 22.0756 20.8553 22.0756C20.7218 22.0756 20.6074 22.1199 20.5121 22.2083C20.4168 22.2968 20.3692 22.4051 20.3692 22.5332C20.3692 22.6614 20.4168 22.7712 20.5121 22.8627C20.6074 22.9542 20.7218 23 20.8553 23Z" fill="black" fill-opacity="0.8"/>
</svg>
