<svg width="24" height="24" viewBox="0 0 24 24" fill="none" xmlns="http://www.w3.org/2000/svg">
<path d="M17.1664 11.062C17.1664 10.3521 17.0313 9.68367 16.7613 9.05684C16.4912 8.43003 16.1178 7.87677 15.6412 7.39706C15.1646 6.91736 14.6149 6.53999 13.9921 6.26495C13.3694 5.98992 12.7053 5.85241 12 5.85241C11.2946 5.85241 10.6305 5.98992 10.0078 6.26495C9.38502 6.53999 8.83534 6.91736 8.35874 7.39706C7.88214 7.87677 7.5088 8.43003 7.23872 9.05684C6.96865 9.68367 6.83361 10.3521 6.83361 11.062C6.83361 11.4074 6.87015 11.7432 6.94323 12.0694C7.01631 12.3956 7.11322 12.7058 7.23396 13H16.7565C16.8836 12.7058 16.9837 12.3956 17.0567 12.0694C17.1298 11.7432 17.1664 11.4074 17.1664 11.062ZM1.84835 11.6089H4.19323C4.44107 11.6089 4.64759 11.5321 4.81282 11.3786C4.97804 11.2251 5.05748 11.0429 5.05112 10.8318C5.04476 10.6143 4.96215 10.4304 4.80328 10.2801C4.64442 10.1298 4.44107 10.0547 4.19323 10.0547H1.84835C1.60052 10.0547 1.39717 10.1298 1.2383 10.2801C1.07943 10.4304 1 10.6143 1 10.8318C1 11.0429 1.07943 11.2251 1.2383 11.3786C1.39717 11.5321 1.60052 11.6089 1.84835 11.6089ZM7.08145 6.13063C7.22761 5.97713 7.2991 5.78845 7.29592 5.56458C7.29274 5.34072 7.20218 5.13925 7.02426 4.96016L5.36568 3.29078C5.18775 3.11809 4.99075 3.03014 4.77469 3.02694C4.55863 3.02374 4.37435 3.0989 4.22183 3.25241C4.06932 3.39952 3.99465 3.5834 3.99783 3.80407C4.001 4.02473 4.09156 4.2246 4.26949 4.4037L5.92807 6.07307C6.106 6.24577 6.30617 6.33691 6.52858 6.3465C6.751 6.3561 6.93529 6.28414 7.08145 6.13063ZM12 4.0775C12.2097 4.0775 12.3908 3.99595 12.5433 3.83285C12.6958 3.66975 12.772 3.46347 12.772 3.21402V0.853876C12.772 0.610825 12.6958 0.40775 12.5433 0.244649C12.3908 0.0815498 12.2097 0 12 0C11.7839 0 11.6012 0.0815498 11.4519 0.244649C11.3025 0.40775 11.2279 0.610825 11.2279 0.853876V3.21402C11.2279 3.46347 11.3025 3.67134 11.4519 3.83764C11.6012 4.00395 11.7839 4.0839 12 4.0775ZM16.9185 6.13063C17.0647 6.27774 17.249 6.3481 17.4714 6.34171C17.6938 6.33531 17.894 6.24577 18.0719 6.07307L19.7305 4.4037C19.9084 4.2246 19.9974 4.02633 19.9974 3.80886C19.9974 3.59139 19.9211 3.40591 19.7686 3.25241C19.6288 3.0989 19.4477 3.02374 19.2253 3.02694C19.0029 3.03014 18.8027 3.11809 18.6247 3.29078L16.9662 4.96016C16.7946 5.13925 16.7057 5.34072 16.6993 5.56458C16.6929 5.78845 16.766 5.97713 16.9185 6.13063ZM19.8067 11.6089H22.1516C22.3995 11.6089 22.6028 11.5321 22.7616 11.3786C22.9205 11.2251 23 11.0429 23 10.8318C23 10.6143 22.9205 10.4304 22.7616 10.2801C22.6028 10.1298 22.3995 10.0547 22.1516 10.0547H19.8067C19.5589 10.0547 19.3524 10.1298 19.1871 10.2801C19.0219 10.4304 18.9425 10.6143 18.9489 10.8318C18.9489 11.0429 19.0299 11.2251 19.1919 11.3786C19.3539 11.5321 19.5589 11.6089 19.8067 11.6089Z" fill="#FFCC00"/>
<path d="M1.88437 15.3613H22.0659C22.2448 15.3613 22.3939 15.2969 22.5131 15.1683C22.6323 15.0397 22.6919 14.8789 22.6919 14.686C22.6919 14.4931 22.6323 14.3305 22.5131 14.1983C22.3939 14.0661 22.2448 14 22.0659 14H1.88437C1.71213 14 1.56474 14.0661 1.44219 14.1983C1.31963 14.3305 1.25836 14.4931 1.25836 14.686C1.25836 14.8789 1.31963 15.0397 1.44219 15.1683C1.56474 15.2969 1.71213 15.3613 1.88437 15.3613ZM2.77868 18.8124C2.91117 18.8124 3.0271 18.7606 3.12647 18.657C3.22583 18.5534 3.27552 18.423 3.27552 18.2659C3.27552 18.1158 3.22583 17.989 3.12647 17.8854C3.0271 17.7817 2.91117 17.7299 2.77868 17.7299C2.63294 17.7299 2.51205 17.7817 2.41599 17.8854C2.31993 17.989 2.2719 18.1158 2.2719 18.2659C2.2719 18.423 2.31993 18.5534 2.41599 18.657C2.51205 18.7606 2.63294 18.8124 2.77868 18.8124ZM6.97199 18.8124C7.1111 18.8124 7.23035 18.7606 7.32972 18.657C7.42908 18.5534 7.47876 18.423 7.47876 18.2659C7.47876 18.1158 7.42908 17.989 7.32972 17.8854C7.23035 17.7817 7.1111 17.7299 6.97199 17.7299C6.83288 17.7299 6.71364 17.7817 6.61427 17.8854C6.5149 17.989 6.46522 18.1158 6.46522 18.2659C6.46522 18.423 6.5149 18.5534 6.61427 18.657C6.71364 18.7606 6.83288 18.8124 6.97199 18.8124ZM11.1753 18.8124C11.3077 18.8124 11.4237 18.7606 11.523 18.657C11.6224 18.5534 11.6721 18.423 11.6721 18.2659C11.6721 18.1158 11.6224 17.989 11.523 17.8854C11.4237 17.7817 11.3077 17.7299 11.1753 17.7299C11.0295 17.7299 10.9086 17.7817 10.8125 17.8854C10.7165 17.989 10.6685 18.1158 10.6685 18.2659C10.6685 18.423 10.7165 18.5534 10.8125 18.657C10.9086 18.7606 11.0295 18.8124 11.1753 18.8124ZM15.3686 18.8124C15.5077 18.8124 15.6269 18.7606 15.7262 18.657C15.8256 18.5534 15.8753 18.423 15.8753 18.2659C15.8753 18.1158 15.8256 17.989 15.7262 17.8854C15.6269 17.7817 15.5077 17.7299 15.3686 17.7299C15.2294 17.7299 15.1102 17.7817 15.0108 17.8854C14.9114 17.989 14.8617 18.1158 14.8617 18.2659C14.8617 18.423 14.9114 18.5534 15.0108 18.657C15.1102 18.7606 15.2294 18.8124 15.3686 18.8124ZM19.5718 18.8124C19.7042 18.8124 19.8202 18.7606 19.9195 18.657C20.0189 18.5534 20.0686 18.423 20.0686 18.2659C20.0686 18.1158 20.0189 17.989 19.9195 17.8854C19.8202 17.7817 19.7042 17.7299 19.5718 17.7299C19.4261 17.7299 19.3052 17.7817 19.2091 17.8854C19.1131 17.989 19.065 18.1158 19.065 18.2659C19.065 18.423 19.1131 18.5534 19.2091 18.657C19.3052 18.7606 19.4261 18.8124 19.5718 18.8124ZM1.50677 21.4169C1.64589 21.4169 1.76513 21.3633 1.86449 21.2562C1.96387 21.149 2.01355 21.0204 2.01355 20.8703C2.01355 20.7202 1.96387 20.5916 1.86449 20.4844C1.76513 20.3773 1.64589 20.3237 1.50677 20.3237C1.36766 20.3237 1.24842 20.3773 1.14905 20.4844C1.04968 20.5916 1 20.7202 1 20.8703C1 21.0204 1.04968 21.149 1.14905 21.2562C1.24842 21.3633 1.36766 21.4169 1.50677 21.4169ZM5.71002 21.4169C5.84251 21.4169 5.95844 21.3633 6.05781 21.2562C6.15718 21.149 6.20686 21.0204 6.20686 20.8703C6.20686 20.7202 6.15718 20.5916 6.05781 20.4844C5.95844 20.3773 5.84251 20.3237 5.71002 20.3237C5.56429 20.3237 5.44173 20.3773 5.34236 20.4844C5.243 20.5916 5.19331 20.7202 5.19331 20.8703C5.19331 21.0204 5.243 21.149 5.34236 21.2562C5.44173 21.3633 5.56429 21.4169 5.71002 21.4169ZM9.90333 21.4169C10.0424 21.4169 10.1617 21.3633 10.2611 21.2562C10.3604 21.149 10.4101 21.0204 10.4101 20.8703C10.4101 20.7202 10.3604 20.5916 10.2611 20.4844C10.1617 20.3773 10.0424 20.3237 9.90333 20.3237C9.76422 20.3237 9.64498 20.3773 9.54561 20.4844C9.44624 20.5916 9.39656 20.7202 9.39656 20.8703C9.39656 21.0204 9.44624 21.149 9.54561 21.2562C9.64498 21.3633 9.76422 21.4169 9.90333 21.4169ZM14.1065 21.4169C14.2391 21.4169 14.355 21.3633 14.4543 21.2562C14.5537 21.149 14.6034 21.0204 14.6034 20.8703C14.6034 20.7202 14.5537 20.5916 14.4543 20.4844C14.355 20.3773 14.2391 20.3237 14.1065 20.3237C13.9608 20.3237 13.8383 20.3773 13.7389 20.4844C13.6395 20.5916 13.5898 20.7202 13.5898 20.8703C13.5898 21.0204 13.6395 21.149 13.7389 21.2562C13.8383 21.3633 13.9608 21.4169 14.1065 21.4169ZM18.2999 21.4169C18.439 21.4169 18.5582 21.3633 18.6576 21.2562C18.757 21.149 18.8067 21.0204 18.8067 20.8703C18.8067 20.7202 18.757 20.5916 18.6576 20.4844C18.5582 20.3773 18.439 20.3237 18.2999 20.3237C18.1608 20.3237 18.0416 20.3773 17.9422 20.4844C17.8428 20.5916 17.7931 20.7202 17.7931 20.8703C17.7931 21.0204 17.8428 21.149 17.9422 21.2562C18.0416 21.3633 18.1608 21.4169 18.2999 21.4169ZM22.5031 21.4169C22.6356 21.4169 22.7516 21.3633 22.8509 21.2562C22.9503 21.149 23 21.0204 23 20.8703C23 20.7202 22.9503 20.5916 22.8509 20.4844C22.7516 20.3773 22.6356 20.3237 22.5031 20.3237C22.3574 20.3237 22.2349 20.3773 22.1355 20.4844C22.0361 20.5916 21.9864 20.7202 21.9864 20.8703C21.9864 21.0204 22.0361 21.149 22.1355 21.2562C22.2349 21.3633 22.3574 21.4169 22.5031 21.4169ZM4.43812 24C4.57723 24 4.69482 23.9464 4.79087 23.8392C4.88693 23.732 4.93495 23.6034 4.93495 23.4533C4.93495 23.3033 4.88693 23.1764 4.79087 23.0728C4.69482 22.9692 4.57723 22.9174 4.43812 22.9174C4.299 22.9174 4.17976 22.9692 4.0804 23.0728C3.98103 23.1764 3.93134 23.3033 3.93134 23.4533C3.93134 23.6034 3.98103 23.732 4.0804 23.8392C4.17976 23.9464 4.299 24 4.43812 24ZM8.64137 24C8.77385 24 8.88978 23.9464 8.98916 23.8392C9.08852 23.732 9.1382 23.6034 9.1382 23.4533C9.1382 23.3033 9.08852 23.1764 8.98916 23.0728C8.88978 22.9692 8.77385 22.9174 8.64137 22.9174C8.49563 22.9174 8.37308 22.9692 8.2737 23.0728C8.17434 23.1764 8.12466 23.3033 8.12466 23.4533C8.12466 23.6034 8.17434 23.732 8.2737 23.8392C8.37308 23.9464 8.49563 24 8.64137 24ZM12.8346 24C12.9738 24 13.0914 23.9464 13.1874 23.8392C13.2835 23.732 13.3315 23.6034 13.3315 23.4533C13.3315 23.3033 13.2835 23.1764 13.1874 23.0728C13.0914 22.9692 12.9738 22.9174 12.8346 22.9174C12.6956 22.9174 12.5764 22.9692 12.477 23.0728C12.3776 23.1764 12.3279 23.3033 12.3279 23.4533C12.3279 23.6034 12.3776 23.732 12.477 23.8392C12.5764 23.9464 12.6956 24 12.8346 24ZM17.0379 24C17.1704 24 17.2863 23.9464 17.3857 23.8392C17.4851 23.732 17.5348 23.6034 17.5348 23.4533C17.5348 23.3033 17.4851 23.1764 17.3857 23.0728C17.2863 22.9692 17.1704 22.9174 17.0379 22.9174C16.8922 22.9174 16.7697 22.9692 16.6703 23.0728C16.5709 23.1764 16.5212 23.3033 16.5212 23.4533C16.5212 23.6034 16.5709 23.732 16.6703 23.8392C16.7697 23.9464 16.8922 24 17.0379 24ZM21.2312 24C21.3704 24 21.488 23.9464 21.584 23.8392C21.6801 23.732 21.7281 23.6034 21.7281 23.4533C21.7281 23.3033 21.6801 23.1764 21.584 23.0728C21.488 22.9692 21.3704 22.9174 21.2312 22.9174C21.0921 22.9174 20.9729 22.9692 20.8735 23.0728C20.7742 23.1764 20.7245 23.3033 20.7245 23.4533C20.7245 23.6034 20.7742 23.732 20.8735 23.8392C20.9729 23.9464 21.0921 24 21.2312 24Z" fill="white"/>
</svg>
