<svg width="24" height="24" viewBox="0 0 24 24" fill="none" xmlns="http://www.w3.org/2000/svg">
<path d="M8.09989 20.7829H10.5626C9.92584 20.5082 9.40302 20.0674 8.99414 19.4605C8.58525 18.8535 8.3808 18.1763 8.3808 17.4289C8.3808 16.7516 8.54467 16.1319 8.87241 15.5697C9.20015 15.0075 9.6387 14.5587 10.1881 14.2233C10.7374 13.8879 11.343 13.7202 12.0047 13.7202C12.6601 13.7202 13.2626 13.8879 13.8119 14.2233C14.3613 14.5587 14.7999 15.0075 15.1276 15.5697C15.4554 16.1319 15.6192 16.7516 15.6192 17.4289C15.6192 18.1763 15.4148 18.8535 15.0058 19.4605C14.597 20.0674 14.0742 20.5082 13.4374 20.7829H15.9001C16.2809 20.3293 16.579 19.8166 16.7943 19.2448C17.0098 18.673 17.1175 18.0677 17.1175 17.4289C17.1175 16.7069 16.9848 16.0296 16.7194 15.3972C16.4542 14.7647 16.0843 14.2072 15.6098 13.7249C15.1354 13.2426 14.5891 12.864 13.9711 12.5893C13.3531 12.3146 12.6976 12.1773 12.0047 12.1773C11.3055 12.1773 10.6469 12.3146 10.0289 12.5893C9.41085 12.864 8.86461 13.2426 8.39017 13.7249C7.91572 14.2072 7.54584 14.7647 7.28053 15.3972C7.01521 16.0296 6.88255 16.7069 6.88255 17.4289C6.88255 18.0677 6.99024 18.673 7.20562 19.2448C7.42099 19.8166 7.71908 20.3293 8.09989 20.7829ZM2.03199 17.9559H4.33554C4.579 17.9559 4.78033 17.8808 4.93953 17.7307C5.09871 17.5806 5.17831 17.3969 5.17831 17.1797C5.17206 16.9689 5.0909 16.7868 4.93484 16.6334C4.77877 16.4801 4.579 16.4034 4.33554 16.4034H2.03199C1.78853 16.4034 1.58876 16.4801 1.4327 16.6334C1.27663 16.7868 1.1986 16.9689 1.1986 17.1797C1.1986 17.3969 1.27663 17.5806 1.4327 17.7307C1.58876 17.8808 1.78853 17.9559 2.03199 17.9559ZM7.17284 12.4839C7.31643 12.3306 7.38666 12.1421 7.38354 11.9185C7.38041 11.6949 7.29145 11.4969 7.11666 11.3244L5.48732 9.6569C5.31253 9.47802 5.119 9.38858 4.90675 9.38858C4.6945 9.38858 4.51346 9.46206 4.36363 9.609C4.21381 9.75594 4.14046 9.93961 4.14358 10.16C4.1467 10.3804 4.23566 10.5801 4.41046 10.759L6.0398 12.4264C6.20835 12.6053 6.40343 12.6979 6.62505 12.7043C6.84666 12.7107 7.02926 12.6373 7.17284 12.4839ZM16.8271 12.4839C16.977 12.6309 17.1611 12.7027 17.3796 12.6995C17.5981 12.6963 17.7917 12.6053 17.9602 12.4264L19.5896 10.759C19.7643 10.5801 19.8533 10.382 19.8564 10.1648C19.8595 9.94759 19.7862 9.76232 19.6363 9.609C19.4928 9.45566 19.3133 9.38059 19.0979 9.38379C18.8826 9.38698 18.6875 9.47802 18.5126 9.6569L16.8833 11.3244C16.7085 11.4969 16.618 11.6965 16.6118 11.9233C16.6056 12.1501 16.6773 12.337 16.8271 12.4839ZM19.6644 17.9559H21.968C22.2115 17.9559 22.4112 17.8808 22.5673 17.7307C22.7234 17.5806 22.8014 17.3969 22.8014 17.1797C22.8014 16.9689 22.7234 16.7868 22.5673 16.6334C22.4112 16.4801 22.2115 16.4034 21.968 16.4034H19.6644C19.4272 16.4034 19.2274 16.4801 19.0651 16.6334C18.9028 16.7868 18.8217 16.9689 18.8217 17.1797C18.8279 17.3969 18.9107 17.5806 19.0698 17.7307C19.229 17.8808 19.4272 17.9559 19.6644 17.9559ZM0.81467 22H23.1853C23.4038 22 23.5942 21.9249 23.7565 21.7748C23.9188 21.6246 24 21.4442 24 21.2333C24 21.0225 23.9188 20.842 23.7565 20.6919C23.5942 20.5418 23.4038 20.4667 23.1853 20.4667H0.81467C0.596176 20.4667 0.405774 20.5418 0.243464 20.6919C0.0811548 20.842 0 21.0225 0 21.2333C0 21.4442 0.0811548 21.6246 0.243464 21.7748C0.405774 21.9249 0.596176 22 0.81467 22ZM12.0047 9.81982C12.2107 9.81982 12.3886 9.73837 12.5385 9.57546C12.6882 9.41254 12.7631 9.21289 12.7631 8.97651V5.38284L12.6508 3.93579L13.3437 4.75035L14.5142 5.96741C14.5829 6.03129 14.6609 6.084 14.7484 6.12553C14.8358 6.16706 14.9232 6.18782 15.0105 6.18782C15.1978 6.18782 15.3523 6.12713 15.4741 6.00574C15.5958 5.88435 15.6566 5.73102 15.6566 5.54575C15.6566 5.44353 15.6379 5.35249 15.6004 5.27263C15.563 5.19277 15.5068 5.11451 15.432 5.03784L12.5104 2.24916C12.3293 2.08305 12.1608 2 12.0047 2C11.8423 2 11.6707 2.08305 11.4896 2.24916L8.56809 5.03784C8.49317 5.11451 8.43699 5.19277 8.39954 5.27263C8.36207 5.35249 8.34334 5.44353 8.34334 5.54575C8.34334 5.73102 8.40421 5.88435 8.52594 6.00574C8.64768 6.12713 8.80218 6.18782 8.98946 6.18782C9.07686 6.18782 9.16426 6.16706 9.25166 6.12553C9.33906 6.084 9.41709 6.03129 9.48576 5.96741L10.7499 4.65452L11.3492 3.93579L11.2369 5.38284V8.97651C11.2369 9.21289 11.3118 9.41254 11.4615 9.57546C11.6114 9.73837 11.7924 9.81982 12.0047 9.81982Z" fill="#FFCC00"/>
</svg>
