<svg width="24" height="24" viewBox="0 0 24 24" fill="none" xmlns="http://www.w3.org/2000/svg">
<path d="M17.6332 16.8369C17.6332 16.0561 17.4859 15.321 17.1912 14.6317C16.8964 13.9423 16.4907 13.3339 15.974 12.8063C15.4573 12.2787 14.8591 11.8654 14.1794 11.5665C13.4998 11.2676 12.775 11.1181 12.0052 11.1181C11.2284 11.1181 10.5002 11.2676 9.8206 11.5665C9.14089 11.8654 8.5427 12.2787 8.02601 12.8063C7.50932 13.3339 7.1036 13.9423 6.80884 14.6317C6.51408 15.321 6.36671 16.0561 6.36671 16.8369C6.36671 17.2238 6.40485 17.5984 6.48114 17.9607C6.55743 18.3229 6.6684 18.6694 6.81404 19H17.1859C17.3316 18.6694 17.4426 18.3229 17.5188 17.9607C17.5951 17.5984 17.6332 17.2238 17.6332 16.8369ZM0.925877 17.4384H3.48504C3.75552 17.4384 3.97919 17.3557 4.15605 17.1904C4.3329 17.0251 4.42133 16.8229 4.42133 16.5837C4.41439 16.3516 4.32422 16.1511 4.15084 15.9823C3.97745 15.8134 3.75552 15.729 3.48504 15.729H0.925877C0.655395 15.729 0.433462 15.8134 0.260077 15.9823C0.0866925 16.1511 0 16.3516 0 16.5837C0 16.8229 0.0866925 17.0251 0.260077 17.1904C0.433462 17.3557 0.655395 17.4384 0.925877 17.4384ZM5.37841 11.3502C5.56567 11.5471 5.7824 11.6491 6.02861 11.6562C6.27482 11.6632 6.47768 11.5823 6.63719 11.4135C6.79671 11.2447 6.87473 11.0371 6.87126 10.7909C6.86779 10.5448 6.76896 10.3267 6.57478 10.1368L4.76463 8.30082C4.57044 8.10386 4.35544 8.00538 4.11964 8.00538C3.88383 8.00538 3.68271 8.08628 3.51625 8.24806C3.34981 8.40985 3.26832 8.61209 3.27178 8.85477C3.27525 9.09746 3.37408 9.31728 3.56827 9.51423L5.37841 11.3502ZM17.3628 11.4135C17.5292 11.5753 17.7338 11.6544 17.9766 11.6509C18.2193 11.6473 18.4343 11.5471 18.6216 11.3502L20.4317 9.51423C20.6259 9.31728 20.7247 9.09922 20.7282 8.86005C20.7317 8.62088 20.6502 8.41688 20.4837 8.24806C20.3242 8.07924 20.1248 7.99659 19.8856 8.00011C19.6463 8.00362 19.4296 8.10386 19.2353 8.30082L17.4252 10.1368C17.231 10.3267 17.1305 10.5465 17.1235 10.7962C17.1166 11.046 17.1964 11.2517 17.3628 11.4135ZM20.5149 17.4384H23.0742C23.3446 17.4384 23.5665 17.3557 23.74 17.1904C23.9133 17.0251 24 16.8229 24 16.5837C24 16.3516 23.9133 16.1511 23.74 15.9823C23.5665 15.8134 23.3446 15.729 23.0742 15.729H20.5149C20.2514 15.729 20.0295 15.8134 19.8491 15.9823C19.6688 16.1511 19.5787 16.3516 19.5787 16.5837C19.5856 16.8229 19.6775 17.0251 19.8544 17.1904C20.0312 17.3557 20.2514 17.4384 20.5149 17.4384Z" fill="#FFCC00"/>
<path d="M0.81467 22H23.1853C23.4038 22 23.5942 21.9249 23.7565 21.7748C23.9188 21.6246 24 21.4442 24 21.2333C24 21.0225 23.9188 20.842 23.7565 20.6919C23.5942 20.5418 23.4038 20.4667 23.1853 20.4667H0.81467C0.596176 20.4667 0.405774 20.5418 0.243464 20.6919C0.0811548 20.842 0 21.0225 0 21.2333C0 21.4442 0.0811548 21.6246 0.243464 21.7748C0.405774 21.9249 0.596176 22 0.81467 22ZM12.0047 9.81982C12.2107 9.81982 12.3886 9.73837 12.5385 9.57546C12.6882 9.41254 12.7631 9.21289 12.7631 8.97651V5.38284L12.6508 3.93579L13.3437 4.75035L14.5142 5.96741C14.5829 6.03129 14.6609 6.084 14.7484 6.12553C14.8358 6.16706 14.9232 6.18782 15.0105 6.18782C15.1978 6.18782 15.3523 6.12713 15.4741 6.00574C15.5958 5.88435 15.6566 5.73102 15.6566 5.54575C15.6566 5.44353 15.6379 5.35249 15.6004 5.27263C15.563 5.19277 15.5068 5.11451 15.432 5.03784L12.5104 2.24916C12.3293 2.08305 12.1608 2 12.0047 2C11.8423 2 11.6707 2.08305 11.4896 2.24916L8.56809 5.03784C8.49317 5.11451 8.43699 5.19277 8.39954 5.27263C8.36207 5.35249 8.34334 5.44353 8.34334 5.54575C8.34334 5.73102 8.40421 5.88435 8.52594 6.00574C8.64768 6.12713 8.80218 6.18782 8.98946 6.18782C9.07686 6.18782 9.16426 6.16706 9.25166 6.12553C9.33906 6.084 9.41709 6.03129 9.48576 5.96741L10.7499 4.65452L11.3492 3.93579L11.2369 5.38284V8.97651C11.2369 9.21289 11.3118 9.41254 11.4615 9.57546C11.6114 9.73837 11.7924 9.81982 12.0047 9.81982Z" fill="white"/>
</svg>
