<svg width="24" height="24" viewBox="0 0 24 24" fill="none" xmlns="http://www.w3.org/2000/svg">
<path d="M17.6332 17.8369C17.6332 17.0561 17.4859 16.321 17.1912 15.6317C16.8964 14.9423 16.4907 14.3339 15.974 13.8063C15.4573 13.2787 14.8591 12.8654 14.1794 12.5665C13.4998 12.2676 12.775 12.1181 12.0052 12.1181C11.2284 12.1181 10.5002 12.2676 9.8206 12.5665C9.14089 12.8654 8.5427 13.2787 8.02601 13.8063C7.50932 14.3339 7.1036 14.9423 6.80884 15.6317C6.51408 16.321 6.36671 17.0561 6.36671 17.8369C6.36671 18.2238 6.40485 18.5984 6.48114 18.9607C6.55743 19.3229 6.6684 19.6694 6.81404 20H17.1859C17.3316 19.6694 17.4426 19.3229 17.5188 18.9607C17.5951 18.5984 17.6332 18.2238 17.6332 17.8369ZM0.925877 18.4384H3.48504C3.75552 18.4384 3.97919 18.3557 4.15605 18.1904C4.3329 18.0251 4.42133 17.8229 4.42133 17.5837C4.41439 17.3516 4.32422 17.1511 4.15084 16.9823C3.97745 16.8134 3.75552 16.729 3.48504 16.729H0.925877C0.655395 16.729 0.433462 16.8134 0.260077 16.9823C0.0866925 17.1511 0 17.3516 0 17.5837C0 17.8229 0.0866925 18.0251 0.260077 18.1904C0.433462 18.3557 0.655395 18.4384 0.925877 18.4384ZM5.37841 12.3502C5.56567 12.5471 5.7824 12.6491 6.02861 12.6562C6.27482 12.6632 6.47768 12.5823 6.63719 12.4135C6.79671 12.2447 6.87473 12.0371 6.87126 11.7909C6.86779 11.5448 6.76896 11.3267 6.57478 11.1368L4.76463 9.30082C4.57044 9.10386 4.35544 9.00538 4.11964 9.00538C3.88383 9.00538 3.68271 9.08628 3.51625 9.24806C3.34981 9.40985 3.26832 9.61209 3.27178 9.85477C3.27525 10.0975 3.37408 10.3173 3.56827 10.5142L5.37841 12.3502ZM17.3628 12.4135C17.5292 12.5753 17.7338 12.6544 17.9766 12.6509C18.2193 12.6473 18.4343 12.5471 18.6216 12.3502L20.4317 10.5142C20.6259 10.3173 20.7247 10.0992 20.7282 9.86005C20.7317 9.62088 20.6502 9.41688 20.4837 9.24806C20.3242 9.07924 20.1248 8.99659 19.8856 9.00011C19.6463 9.00362 19.4296 9.10386 19.2353 9.30082L17.4252 11.1368C17.231 11.3267 17.1305 11.5465 17.1235 11.7962C17.1166 12.046 17.1964 12.2517 17.3628 12.4135ZM20.5149 18.4384H23.0742C23.3446 18.4384 23.5665 18.3557 23.74 18.1904C23.9133 18.0251 24 17.8229 24 17.5837C24 17.3516 23.9133 17.1511 23.74 16.9823C23.5665 16.8134 23.3446 16.729 23.0742 16.729H20.5149C20.2514 16.729 20.0295 16.8134 19.8491 16.9823C19.6688 17.1511 19.5787 17.3516 19.5787 17.5837C19.5856 17.8229 19.6775 18.0251 19.8544 18.1904C20.0312 18.3557 20.2514 18.4384 20.5149 18.4384Z" fill="#FFCC00"/>
<path d="M0.81467 22H23.1853C23.4038 22 23.5942 21.9249 23.7565 21.7748C23.9188 21.6246 24 21.4442 24 21.2333C24 21.0225 23.9188 20.842 23.7565 20.6919C23.5942 20.5418 23.4038 20.4667 23.1853 20.4667H0.81467C0.596176 20.4667 0.405774 20.5418 0.243464 20.6919C0.0811548 20.842 0 21.0225 0 21.2333C0 21.4442 0.0811548 21.6246 0.243464 21.7748C0.405774 21.9249 0.596176 22 0.81467 22ZM12.0047 2C11.7924 2 11.6114 2.08305 11.4615 2.24916C11.3118 2.41527 11.2369 2.61651 11.2369 2.8529V6.43698L11.3492 7.88403L10.7499 7.1653L9.48576 5.862C9.41709 5.79172 9.33906 5.73741 9.25166 5.69908C9.16426 5.66075 9.07686 5.64159 8.98946 5.64159C8.80218 5.64159 8.64768 5.70068 8.52594 5.81887C8.40421 5.93707 8.34334 6.09199 8.34334 6.28365C8.34334 6.38587 8.36207 6.47691 8.39954 6.55677C8.43699 6.63663 8.49317 6.7117 8.56809 6.78198L11.4896 9.57066C11.6707 9.73677 11.8423 9.81982 12.0047 9.81982C12.1608 9.81982 12.3293 9.73677 12.5104 9.57066L15.432 6.78198C15.5068 6.7117 15.563 6.63663 15.6004 6.55677C15.6379 6.47691 15.6566 6.38587 15.6566 6.28365C15.6566 6.09199 15.5958 5.93707 15.4741 5.81887C15.3523 5.70068 15.1978 5.64159 15.0105 5.64159C14.9232 5.64159 14.8358 5.66075 14.7484 5.69908C14.6609 5.73741 14.5829 5.79172 14.5142 5.862L13.3437 7.06947L12.6508 7.88403L12.7631 6.43698V2.8529C12.7631 2.61651 12.6882 2.41527 12.5385 2.24916C12.3886 2.08305 12.2107 2 12.0047 2Z" fill="white"/>
</svg>
