<svg width="24" height="24" viewBox="0 0 24 24" fill="none" xmlns="http://www.w3.org/2000/svg">
<path d="M8.01435 24C8.70334 24 9.34927 23.8724 9.95214 23.6171C10.555 23.3618 11.0845 23.0072 11.5407 22.5534C11.9968 22.0996 12.354 21.5748 12.6124 20.9791C12.8708 20.3834 13 19.7452 13 19.0644C13 18.3458 12.8533 17.6745 12.5598 17.0504C12.2663 16.4264 11.8325 15.8591 11.2584 15.3485C11.1563 15.254 11.0893 15.1688 11.0574 15.0932C11.0255 15.0175 11.0096 14.9104 11.0096 14.7718L11.0191 6.28096C11.0191 5.6254 10.8931 5.0502 10.6411 4.55538C10.3891 4.06056 10.0383 3.67762 9.5885 3.40657C9.13874 3.13552 8.61403 3 8.01435 3C7.40828 3 6.87878 3.13552 6.42583 3.40657C5.97288 3.67762 5.61881 4.06056 5.36363 4.55538C5.10845 5.0502 4.98085 5.6254 4.98085 6.28096L5 14.7718C5 14.9104 4.98245 15.0175 4.94736 15.0932C4.91227 15.1688 4.84369 15.254 4.74162 15.3485C4.17384 15.8591 3.74163 16.4264 3.44498 17.0504C3.14833 17.6745 3 18.3458 3 19.0644C3 19.7452 3.12919 20.3834 3.38756 20.9791C3.64593 21.5748 4.00478 22.0996 4.46411 22.5534C4.92344 23.0072 5.45614 23.3618 6.06219 23.6171C6.66825 23.8724 7.31897 24 8.01435 24ZM8.01435 22.629C7.34449 22.629 6.73684 22.4683 6.19138 22.1468C5.64593 21.8253 5.21212 21.3951 4.88995 20.8562C4.56778 20.3172 4.4067 19.72 4.4067 19.0644C4.4067 18.4719 4.54386 17.9203 4.81818 17.4097C5.0925 16.8992 5.48165 16.4768 5.98564 16.1427C6.13237 16.0419 6.23763 15.9379 6.30143 15.8308C6.36523 15.7236 6.39713 15.5723 6.39713 15.3769V6.33769C6.39713 5.74516 6.54545 5.27083 6.8421 4.91468C7.13875 4.55854 7.5295 4.38046 8.01435 4.38046C8.48643 4.38046 8.8708 4.55854 9.16746 4.91468C9.4641 5.27083 9.61243 5.74516 9.61243 6.33769V15.3769C9.61243 15.5723 9.64273 15.7236 9.70333 15.8308C9.76394 15.9379 9.8708 16.0419 10.0239 16.1427C10.5279 16.4768 10.917 16.8992 11.1914 17.4097C11.4657 17.9203 11.6029 18.4719 11.6029 19.0644C11.6029 19.72 11.4402 20.3172 11.1148 20.8562C10.7895 21.3951 10.3556 21.8253 9.81338 22.1468C9.27112 22.4683 8.67144 22.629 8.01435 22.629Z" fill="white"/>
<path d="M8 22C8.55372 22 9.05579 21.8822 9.50621 21.6467C9.95662 21.4111 10.3182 21.0971 10.5909 20.7046C10.8636 20.3121 11 19.8767 11 19.3986C11 18.899 10.8512 18.4511 10.5537 18.055C10.2562 17.6589 9.86777 17.3503 9.38843 17.1291C9.19009 17.0292 9.05166 16.9293 8.97314 16.8293C8.89463 16.7294 8.85538 16.5474 8.85538 16.2833V5.86713C8.85538 5.60307 8.77273 5.39253 8.60744 5.23552C8.44215 5.07851 8.23967 5 8 5C7.76033 5 7.55786 5.07851 7.39257 5.23552C7.22727 5.39253 7.14463 5.60307 7.14463 5.86713V16.2833C7.14463 16.5474 7.10537 16.7294 7.02686 16.8293C6.94835 16.9293 6.80992 17.0292 6.61157 17.1291C6.13224 17.3503 5.74381 17.6589 5.44628 18.055C5.14876 18.4511 5 18.899 5 19.3986C5 19.8767 5.1343 20.3139 5.40289 20.71C5.67149 21.1061 6.03306 21.4201 6.48761 21.6521C6.94215 21.884 7.44628 22 8 22Z" fill="#FF3B30"/>
<path d="M12.7437 3.61882C12.9469 3.61882 13.1216 3.54145 13.2679 3.38672C13.4143 3.23199 13.4875 3.04726 13.4875 2.83253V0.786288C13.4875 0.571559 13.4143 0.386829 13.2679 0.232097C13.1216 0.0773657 12.9469 0 12.7437 0C12.5406 0 12.3659 0.0773657 12.2195 0.232097C12.0732 0.386829 12 0.571559 12 0.786288V2.83253C12 3.04726 12.0732 3.23199 12.2195 3.38672C12.3659 3.54145 12.5406 3.61882 12.7437 3.61882ZM16.8835 5.44717C17.0209 5.59874 17.1942 5.67611 17.4033 5.67927C17.6123 5.68243 17.7915 5.60506 17.9409 5.44717L19.3029 3.99775C19.4522 3.84618 19.5254 3.66145 19.5224 3.44356C19.5194 3.22567 19.4462 3.04094 19.3029 2.88937C19.1655 2.7378 18.9938 2.66043 18.7876 2.65727C18.5815 2.65412 18.4068 2.73149 18.2634 2.88937L16.8835 4.34826C16.7402 4.49984 16.67 4.68299 16.673 4.89772C16.6759 5.11245 16.7461 5.2956 16.8835 5.44717ZM19.3298 10.6101H21.2652C21.4684 10.6101 21.6416 10.5328 21.7849 10.378C21.9283 10.2233 22 10.0386 22 9.8239C22 9.60914 21.9283 9.4244 21.7849 9.26966C21.6416 9.11494 21.4684 9.03757 21.2652 9.03757H19.3298C19.1326 9.03757 18.9594 9.11494 18.8101 9.26966C18.6607 9.4244 18.586 9.60914 18.586 9.8239C18.586 10.0386 18.6607 10.2233 18.8101 10.378C18.9594 10.5328 19.1326 10.6101 19.3298 10.6101ZM18.2634 16.7773C18.4068 16.9289 18.5815 17.0031 18.7876 16.9999C18.9938 16.9967 19.1655 16.9194 19.3029 16.7679C19.4462 16.6163 19.5194 16.4315 19.5224 16.2137C19.5254 15.9958 19.4522 15.8142 19.3029 15.6689L17.923 14.21C17.7796 14.0647 17.6064 13.9921 17.4033 13.9921C17.2001 13.9921 17.0269 14.0647 16.8835 14.21C16.7402 14.3616 16.6685 14.5479 16.6685 14.7689C16.6685 14.99 16.7402 15.1763 16.8835 15.3279L18.2634 16.7773ZM12.7437 14.5226C13.359 14.5226 13.934 14.4011 14.4686 14.1579C15.0033 13.9148 15.4737 13.5785 15.8799 13.149C16.2862 12.7195 16.6028 12.2206 16.8298 11.6522C17.0567 11.0838 17.1702 10.4744 17.1702 9.8239C17.1702 8.95233 16.9731 8.16129 16.5788 7.45078C16.1846 6.74028 15.6514 6.17504 14.9793 5.75506C14.3073 5.33507 13.5621 5.12508 12.7437 5.12508C12.6422 5.12508 12.5436 5.13297 12.448 5.14877C12.3524 5.16455 12.2539 5.18192 12.1523 5.20087C12.218 5.42191 12.2658 5.654 12.2957 5.89715C12.3256 6.14031 12.3405 6.39135 12.3405 6.65029L12.3315 14.4753C12.3973 14.4879 12.4645 14.499 12.5332 14.5085C12.6019 14.5179 12.672 14.5226 12.7437 14.5226Z" fill="#FFCC00"/>
</svg>
