<svg width="24" height="24" viewBox="0 0 24 24" fill="none" xmlns="http://www.w3.org/2000/svg">
<path d="M7.15495 24C7.86327 24 8.52731 23.8742 9.14708 23.6227C9.76686 23.3711 10.3112 23.0218 10.7801 22.5746C11.2491 22.1274 11.6163 21.6103 11.882 21.0233C12.1476 20.4364 12.2804 19.8075 12.2804 19.1367C12.2804 18.4286 12.1296 17.7671 11.8278 17.1522C11.5262 16.5373 11.0802 15.9783 10.4899 15.4752C10.385 15.382 10.3161 15.2981 10.2833 15.2236C10.2505 15.1491 10.2341 15.0435 10.2341 14.9069L10.244 6.54039C10.244 5.89442 10.1144 5.32765 9.85539 4.84007C9.59633 4.35249 9.23562 3.97516 8.77324 3.70808C8.31088 3.441 7.77145 3.30746 7.15495 3.30746C6.53189 3.30746 5.98754 3.441 5.52189 3.70808C5.05624 3.97516 4.69224 4.35249 4.42991 4.84007C4.16757 5.32765 4.0364 5.89442 4.0364 6.54039L4.05608 14.9069C4.05608 15.0435 4.03804 15.1491 4.00196 15.2236C3.96589 15.2981 3.89539 15.382 3.79046 15.4752C3.20675 15.9783 2.76242 16.5373 2.45745 17.1522C2.15248 17.7671 2 18.4286 2 19.1367C2 19.8075 2.13281 20.4364 2.39843 21.0233C2.66404 21.6103 3.03296 22.1274 3.50517 22.5746C3.97738 23.0218 4.52501 23.3711 5.14806 23.6227C5.77111 23.8742 6.44007 24 7.15495 24ZM7.15495 22.6491C6.46631 22.6491 5.84162 22.4907 5.28087 22.174C4.72012 21.8572 4.27415 21.4333 3.94294 20.9022C3.61174 20.3712 3.44614 19.7826 3.44614 19.1367C3.44614 18.5528 3.58715 18.0093 3.86916 17.5062C4.15117 17.0031 4.55124 16.587 5.06936 16.2578C5.2202 16.1584 5.32841 16.056 5.394 15.9504C5.45959 15.8447 5.49238 15.6957 5.49238 15.5031V6.59628C5.49238 6.01243 5.64487 5.54504 5.94983 5.19411C6.2548 4.84318 6.65651 4.66771 7.15495 4.66771C7.64027 4.66771 8.03542 4.84318 8.34039 5.19411C8.64536 5.54504 8.79784 6.01243 8.79784 6.59628V15.5031C8.79784 15.6957 8.829 15.8447 8.8913 15.9504C8.9536 16.056 9.06346 16.1584 9.22086 16.2578C9.73898 16.587 10.139 17.0031 10.4211 17.5062C10.7031 18.0093 10.8441 18.5528 10.8441 19.1367C10.8441 19.7826 10.6768 20.3712 10.3424 20.9022C10.0079 21.4333 9.5619 21.8572 9.00443 22.174C8.44696 22.4907 7.83047 22.6491 7.15495 22.6491ZM7.14511 21.3914C7.58453 21.3914 7.98296 21.2889 8.34039 21.0839C8.69782 20.8789 8.98476 20.6056 9.20119 20.264C9.41761 19.9224 9.52583 19.5435 9.52583 19.1273C9.52583 18.6926 9.40778 18.3028 9.17167 17.9581C8.93557 17.6133 8.62732 17.3447 8.24693 17.1522C8.08953 17.0652 7.97967 16.9783 7.91736 16.8914C7.85506 16.8044 7.82391 16.646 7.82391 16.4162V7.35095C7.82391 7.12113 7.75833 6.9379 7.62716 6.80126C7.49598 6.66461 7.3353 6.59628 7.14511 6.59628C6.95491 6.59628 6.79423 6.66461 6.66307 6.80126C6.53189 6.9379 6.46631 7.12113 6.46631 7.35095V16.4162C6.46631 16.646 6.43515 16.8044 6.37285 16.8914C6.31055 16.9783 6.20069 17.0652 6.04329 17.1522C5.6629 17.3447 5.35465 17.6133 5.11854 17.9581C4.88244 18.3028 4.76439 18.6926 4.76439 19.1273C4.76439 19.5435 4.87096 19.9239 5.08411 20.2687C5.29727 20.6134 5.5842 20.8867 5.94492 21.0886C6.30563 21.2904 6.70569 21.3914 7.14511 21.3914ZM11.8377 14.2826C12.7362 14.2826 13.5543 14.0746 14.2921 13.6584C15.03 13.2423 15.6154 12.6848 16.0482 11.9861C16.481 11.2873 16.6975 10.5124 16.6975 9.66155C16.6975 8.80438 16.481 8.02641 16.0482 7.32765C15.6154 6.62889 15.03 6.07299 14.2921 5.65995C13.5543 5.2469 12.7362 5.04038 11.8377 5.04038C11.3917 5.04038 10.9605 5.09784 10.544 5.21275C10.1276 5.32765 9.73242 5.49069 9.35859 5.70187L10.1456 6.86648C10.3948 6.72362 10.6637 6.61182 10.9523 6.53107C11.2409 6.45032 11.536 6.40995 11.8377 6.40995C12.4804 6.40995 13.0592 6.55281 13.5741 6.83852C14.0889 7.12424 14.4988 7.51399 14.8038 8.00778C15.1088 8.50157 15.2612 9.05283 15.2612 9.66155C15.2612 10.2702 15.1088 10.8199 14.8038 11.3106C14.4988 11.8013 14.0889 12.1911 13.5741 12.4799C13.0592 12.7687 12.4804 12.9131 11.8377 12.9131C11.4442 12.9131 11.0654 12.851 10.7014 12.7267C10.3374 12.6025 10.0046 12.4286 9.7029 12.205V13.8075C10.0308 13.9628 10.3735 14.0808 10.7309 14.1616C11.0884 14.2423 11.4573 14.2826 11.8377 14.2826ZM11.8377 3.55901C12.0607 3.55901 12.2525 3.48293 12.4132 3.33075C12.5739 3.17858 12.6542 2.9969 12.6542 2.78572V0.773294C12.6542 0.562113 12.5739 0.380436 12.4132 0.228262C12.2525 0.0760872 12.0607 0 11.8377 0C11.6147 0 11.4229 0.0760872 11.2622 0.228262C11.1015 0.380436 11.0212 0.562113 11.0212 0.773294V2.78572C11.0212 2.9969 11.1015 3.17858 11.2622 3.33075C11.4229 3.48293 11.6147 3.55901 11.8377 3.55901ZM16.3827 5.35715C16.5336 5.50622 16.7238 5.58231 16.9533 5.58541C17.1828 5.58852 17.3796 5.51243 17.5436 5.35715L19.0389 3.93168C19.2028 3.78262 19.2832 3.60094 19.2799 3.38665C19.2766 3.17236 19.1963 2.99069 19.0389 2.84162C18.8881 2.69255 18.6995 2.61647 18.4732 2.61336C18.2469 2.61026 18.0551 2.68635 17.8977 2.84162L16.3827 4.2764C16.2253 4.42548 16.1483 4.6056 16.1516 4.81678C16.1548 5.02796 16.2318 5.20808 16.3827 5.35715ZM19.0684 10.4348H21.1933C21.4163 10.4348 21.6065 10.3587 21.7639 10.2065C21.9213 10.0544 22 9.87271 22 9.66155C22 9.45034 21.9213 9.26865 21.7639 9.11647C21.6065 8.9643 21.4163 8.88822 21.1933 8.88822H19.0684C18.852 8.88822 18.6618 8.9643 18.4978 9.11647C18.3338 9.26865 18.2518 9.45034 18.2518 9.66155C18.2518 9.87271 18.3338 10.0544 18.4978 10.2065C18.6618 10.3587 18.852 10.4348 19.0684 10.4348ZM17.8977 16.5C18.0551 16.6491 18.2469 16.7221 18.4732 16.719C18.6995 16.7158 18.8881 16.6398 19.0389 16.4908C19.1963 16.3417 19.2766 16.16 19.2799 15.9457C19.2832 15.7314 19.2028 15.5528 19.0389 15.4099L17.5239 13.9751C17.3665 13.8323 17.1763 13.7609 16.9533 13.7609C16.7303 13.7609 16.5401 13.8323 16.3827 13.9751C16.2253 14.1242 16.1466 14.3075 16.1466 14.5249C16.1466 14.7423 16.2253 14.9255 16.3827 15.0746L17.8977 16.5Z" fill="black" fill-opacity="0.8"/>
</svg>
