<svg width="24" height="24" viewBox="0 0 24 24" fill="none" xmlns="http://www.w3.org/2000/svg">
<path d="M8.01435 24C8.70334 24 9.34927 23.8724 9.95214 23.6171C10.555 23.3618 11.0845 23.0072 11.5407 22.5534C11.9968 22.0996 12.354 21.5748 12.6124 20.9791C12.8708 20.3834 13 19.7452 13 19.0644C13 18.3458 12.8533 17.6745 12.5598 17.0504C12.2663 16.4264 11.8325 15.8591 11.2584 15.3485C11.1563 15.254 11.0893 15.1688 11.0574 15.0932C11.0255 15.0175 11.0096 14.9104 11.0096 14.7718L11.0191 6.28096C11.0191 5.6254 10.8931 5.0502 10.6411 4.55538C10.3891 4.06056 10.0383 3.67762 9.5885 3.40657C9.13874 3.13552 8.61403 3 8.01435 3C7.40828 3 6.87878 3.13552 6.42583 3.40657C5.97288 3.67762 5.61881 4.06056 5.36363 4.55538C5.10845 5.0502 4.98085 5.6254 4.98085 6.28096L5 14.7718C5 14.9104 4.98245 15.0175 4.94736 15.0932C4.91227 15.1688 4.84369 15.254 4.74162 15.3485C4.17384 15.8591 3.74163 16.4264 3.44498 17.0504C3.14833 17.6745 3 18.3458 3 19.0644C3 19.7452 3.12919 20.3834 3.38756 20.9791C3.64593 21.5748 4.00478 22.0996 4.46411 22.5534C4.92344 23.0072 5.45614 23.3618 6.06219 23.6171C6.66825 23.8724 7.31897 24 8.01435 24ZM8.01435 22.629C7.34449 22.629 6.73684 22.4683 6.19138 22.1468C5.64593 21.8253 5.21212 21.3951 4.88995 20.8562C4.56778 20.3172 4.4067 19.72 4.4067 19.0644C4.4067 18.4719 4.54386 17.9203 4.81818 17.4097C5.0925 16.8992 5.48165 16.4768 5.98564 16.1427C6.13237 16.0419 6.23763 15.9379 6.30143 15.8308C6.36523 15.7236 6.39713 15.5723 6.39713 15.3769V6.33769C6.39713 5.74516 6.54545 5.27083 6.8421 4.91468C7.13875 4.55854 7.5295 4.38046 8.01435 4.38046C8.48643 4.38046 8.8708 4.55854 9.16746 4.91468C9.4641 5.27083 9.61243 5.74516 9.61243 6.33769V15.3769C9.61243 15.5723 9.64273 15.7236 9.70333 15.8308C9.76394 15.9379 9.8708 16.0419 10.0239 16.1427C10.5279 16.4768 10.917 16.8992 11.1914 17.4097C11.4657 17.9203 11.6029 18.4719 11.6029 19.0644C11.6029 19.72 11.4402 20.3172 11.1148 20.8562C10.7895 21.3951 10.3556 21.8253 9.81338 22.1468C9.27112 22.4683 8.67144 22.629 8.01435 22.629Z" fill="white"/>
<path d="M8 22C8.55372 22 9.05579 21.8822 9.50621 21.6467C9.95662 21.4111 10.3182 21.0971 10.5909 20.7046C10.8636 20.3121 11 19.8767 11 19.3986C11 18.899 10.8512 18.4511 10.5537 18.055C10.2562 17.6589 9.86777 17.3503 9.38843 17.1291C9.19009 17.0292 9.05166 16.9293 8.97314 16.8293C8.89463 16.7294 8.85538 16.5474 8.85538 16.2833V13.8671C8.85538 13.6031 8.77273 13.3925 8.60744 13.2355C8.44215 13.0785 8.23967 13 8 13C7.76033 13 7.55786 13.0785 7.39257 13.2355C7.22727 13.3925 7.14463 13.6031 7.14463 13.8671V16.2833C7.14463 16.5474 7.10537 16.7294 7.02686 16.8293C6.94835 16.9293 6.80992 17.0292 6.61157 17.1291C6.13224 17.3503 5.74381 17.6589 5.44628 18.055C5.14876 18.4511 5 18.899 5 19.3986C5 19.8767 5.1343 20.3139 5.40289 20.71C5.67149 21.1061 6.03306 21.4201 6.48761 21.6521C6.94215 21.884 7.44628 22 8 22Z" fill="#5856D6"/>
<path d="M20.665 11.4951L19.3345 10.7377L20.5183 10.0492C20.6422 9.97707 20.7253 9.87543 20.7677 9.74428C20.8101 9.61314 20.7987 9.48527 20.7334 9.36068C20.6617 9.22953 20.5574 9.15248 20.4204 9.12953C20.2834 9.10658 20.1465 9.13445 20.0096 9.21314L18.3464 10.1672L15.4311 8.50494L18.3758 6.83281L20.0389 7.79674C20.1693 7.87543 20.3014 7.90165 20.4351 7.87543C20.5688 7.8492 20.6781 7.77051 20.7628 7.63937C20.828 7.52133 20.8395 7.39674 20.7971 7.26559C20.7547 7.13444 20.6715 7.0328 20.5476 6.96067L19.3638 6.27214L20.6747 5.51476C20.8247 5.42952 20.9242 5.31641 20.9732 5.17542C21.0221 5.03444 21.0041 4.89182 20.9194 4.74755C20.8476 4.60984 20.7383 4.52787 20.5916 4.50165C20.4449 4.47542 20.3063 4.49837 20.1759 4.5705L18.8454 5.35739V4.00001C18.8454 3.84919 18.7997 3.72296 18.7084 3.62132C18.6171 3.51968 18.5029 3.46886 18.366 3.46886C18.2095 3.46886 18.0872 3.52132 17.9991 3.62624C17.9111 3.73115 17.8671 3.86558 17.8671 4.02951L17.8572 5.93771L14.942 7.65904L14.9713 4.23607L16.6247 3.27214C16.7616 3.18689 16.8529 3.08034 16.8985 2.95247C16.9442 2.8246 16.9312 2.69509 16.8594 2.56393C16.7877 2.43935 16.6849 2.36394 16.5512 2.3377C16.4175 2.31148 16.2887 2.33443 16.1648 2.40656L14.9811 3.09509L14.9909 1.6C14.9909 1.43606 14.9436 1.29508 14.849 1.17705C14.7544 1.05902 14.6257 1 14.4626 1C14.2995 1 14.1707 1.05902 14.0761 1.17705C13.9816 1.29508 13.9343 1.43606 13.9343 1.6L13.9441 3.09509L12.7604 2.40656C12.6364 2.33443 12.5076 2.31148 12.3739 2.3377C12.2402 2.36394 12.1375 2.43935 12.0658 2.56393C11.994 2.69509 11.981 2.8246 12.0266 2.95247C12.0723 3.08034 12.1636 3.18689 12.3005 3.27214L13.9538 4.23607L13.9832 7.65904L12.1245 6.54755V7.71805L13.4843 8.50494L12.1245 9.28199V10.4525L13.9832 9.35085L13.9538 12.7541L12.4571 13.6197C12.5158 13.7509 12.6022 13.8902 12.7163 14.0377C12.8305 14.1853 12.9495 14.3049 13.0734 14.3967L13.9441 13.8951L13.9343 15.4099C13.9343 15.5804 13.9816 15.7213 14.0761 15.8328C14.1707 15.9443 14.2995 16 14.4626 16C14.6257 16 14.7544 15.9426 14.849 15.8279C14.9436 15.7131 14.9909 15.5738 14.9909 15.4099L14.9811 13.905L16.155 14.5837C16.279 14.6558 16.4078 14.6787 16.5415 14.6524C16.6752 14.6263 16.7779 14.5509 16.8497 14.4262C16.9279 14.2886 16.9426 14.1558 16.8936 14.0279C16.8448 13.9 16.7518 13.7967 16.6148 13.7181L14.9713 12.7541L14.942 9.35085L17.8377 11.0623V12.9804C17.8377 13.1312 17.8834 13.2607 17.9747 13.3689C18.066 13.4771 18.1866 13.5312 18.3366 13.5312C18.4736 13.5312 18.5877 13.4787 18.679 13.3738C18.7704 13.2689 18.816 13.1476 18.816 13.0099L18.8258 11.6427L20.1367 12.4099C20.2867 12.5017 20.4351 12.5344 20.5819 12.5082C20.7286 12.482 20.8411 12.4 20.9194 12.2623C21.0041 12.1181 21.0204 11.9755 20.9683 11.8345C20.9161 11.6934 20.815 11.5803 20.665 11.4951Z" fill="white"/>
</svg>
