<svg width="24" height="24" viewBox="0 0 24 24" fill="none" xmlns="http://www.w3.org/2000/svg">
<path d="M11.236 23C11.9554 23 12.6299 22.8663 13.2594 22.599C13.8889 22.3317 14.4418 21.9604 14.9181 21.4852C15.3944 21.01 15.7675 20.4604 16.0373 19.8366C16.3071 19.2129 16.442 18.5446 16.442 17.8317C16.442 17.0792 16.2887 16.3763 15.9823 15.7228C15.6759 15.0693 15.2229 14.4753 14.6233 13.9406C14.5168 13.8416 14.4468 13.7525 14.4135 13.6733C14.3802 13.5941 14.3636 13.4819 14.3636 13.3367L14.3735 4.44555C14.3735 3.75908 14.242 3.15677 13.9788 2.63862C13.7157 2.12046 13.3493 1.71782 12.8797 1.43069C12.4101 1.14356 11.8622 1 11.236 1C10.6031 1 10.0502 1.14356 9.57724 1.43069C9.10427 1.71782 8.73456 2.12046 8.4681 2.63862C8.20163 3.15677 8.0684 3.75908 8.0684 4.44555L8.08839 13.3367C8.08839 13.4819 8.07007 13.5941 8.03343 13.6733C7.99679 13.7525 7.92518 13.8416 7.81859 13.9406C7.22572 14.4753 6.7744 15.0693 6.46464 15.7228C6.15488 16.3763 6 17.0792 6 17.8317C6 18.5446 6.1349 19.2129 6.40469 19.8366C6.67448 20.4604 7.04919 21.01 7.52882 21.4852C8.00845 21.9604 8.56469 22.3317 9.19753 22.599C9.83038 22.8663 10.5099 23 11.236 23ZM11.236 21.5644C10.5365 21.5644 9.902 21.3961 9.33243 21.0595C8.76287 20.7228 8.30989 20.2706 7.97348 19.703C7.63707 19.1353 7.46887 18.5116 7.46887 17.8317C7.46887 17.2113 7.61209 16.6337 7.89854 16.099C8.18498 15.5644 8.59134 15.1222 9.1176 14.7723C9.27081 14.6667 9.38072 14.5577 9.44734 14.4455C9.51396 14.3333 9.54727 14.1749 9.54727 13.9703V4.50495C9.54727 3.88449 9.70215 3.38779 10.0119 3.01485C10.3217 2.64192 10.7297 2.45545 11.236 2.45545C11.7289 2.45545 12.1303 2.64192 12.44 3.01485C12.7498 3.38779 12.9047 3.88449 12.9047 4.50495V13.9703C12.9047 14.1749 12.9363 14.3333 12.9996 14.4455C13.0629 14.5577 13.1745 14.6667 13.3343 14.7723C13.8606 15.1222 14.267 15.5644 14.5534 16.099C14.8399 16.6337 14.9831 17.2113 14.9831 17.8317C14.9831 18.5116 14.8132 19.1353 14.4735 19.703C14.1337 20.2706 13.6807 20.7228 13.1145 21.0595C12.5483 21.3961 11.9221 21.5644 11.236 21.5644ZM11.226 20.2278C11.6723 20.2278 12.077 20.1189 12.44 19.901C12.8031 19.6832 13.0945 19.3927 13.3144 19.0297C13.5342 18.6667 13.6441 18.264 13.6441 17.8218C13.6441 17.3597 13.5242 16.9455 13.2844 16.5792C13.0446 16.2129 12.7315 15.9241 12.3451 15.7129C12.1852 15.6271 12.0737 15.5363 12.0104 15.4406C11.9471 15.3449 11.9154 15.1783 11.9154 14.9406V9.65351C11.9154 9.40926 11.8488 9.21619 11.7156 9.07427C11.5824 8.93236 11.4192 8.8614 11.226 8.8614C11.0328 8.8614 10.8696 8.93236 10.7364 9.07427C10.6031 9.21619 10.5365 9.40926 10.5365 9.65351V14.9406C10.5365 15.1783 10.5049 15.3449 10.4416 15.4406C10.3783 15.5363 10.2667 15.6271 10.1068 15.7129C9.72047 15.9241 9.40737 16.2129 9.16755 16.5792C8.92774 16.9455 8.80783 17.3597 8.80783 17.8218C8.80783 18.264 8.91608 18.6667 9.13258 19.0297C9.34909 19.3927 9.64053 19.6832 10.0069 19.901C10.3733 20.1189 10.7796 20.2278 11.226 20.2278ZM16.2421 4.63366H18.4104C18.5903 4.63366 18.7335 4.57591 18.8401 4.4604C18.9467 4.34489 19 4.21123 19 4.05941C19 3.9076 18.9467 3.77393 18.8401 3.65842C18.7335 3.54291 18.5903 3.48515 18.4104 3.48515H16.2421C16.0689 3.48515 15.9273 3.54291 15.8174 3.65842C15.7075 3.77393 15.6526 3.9076 15.6526 4.05941C15.6526 4.21123 15.7075 4.34489 15.8174 4.4604C15.9273 4.57591 16.0689 4.63366 16.2421 4.63366ZM16.2421 7.41585H18.4104C18.5903 7.41585 18.7335 7.35809 18.8401 7.24259C18.9467 7.12707 19 6.99341 19 6.84159C19 6.68317 18.9467 6.54786 18.8401 6.43565C18.7335 6.32344 18.5903 6.26733 18.4104 6.26733H16.2421C16.0689 6.26733 15.9273 6.32344 15.8174 6.43565C15.7075 6.54786 15.6526 6.68317 15.6526 6.84159C15.6526 6.99341 15.7075 7.12707 15.8174 7.24259C15.9273 7.35809 16.0689 7.41585 16.2421 7.41585ZM16.2421 10.1981H18.4104C18.5903 10.1981 18.7335 10.1403 18.8401 10.0248C18.9467 9.90928 19 9.7756 19 9.62377C19 9.46535 18.9467 9.32839 18.8401 9.21289C18.7335 9.09737 18.5903 9.03962 18.4104 9.03962H16.2421C16.0689 9.03962 15.9273 9.09737 15.8174 9.21289C15.7075 9.32839 15.6526 9.46535 15.6526 9.62377C15.6526 9.7756 15.7075 9.90928 15.8174 10.0248C15.9273 10.1403 16.0689 10.1981 16.2421 10.1981ZM16.2421 12.9802H18.4104C18.5903 12.9802 18.7335 12.9224 18.8401 12.8069C18.9467 12.6914 19 12.5544 19 12.396C19 12.2442 18.9467 12.1105 18.8401 11.995C18.7335 11.8795 18.5903 11.8218 18.4104 11.8218H16.2421C16.0689 11.8218 15.9273 11.8795 15.8174 11.995C15.7075 12.1105 15.6526 12.2442 15.6526 12.396C15.6526 12.5544 15.7075 12.6914 15.8174 12.8069C15.9273 12.9224 16.0689 12.9802 16.2421 12.9802Z" fill="white"/>
</svg>
