<svg width="24" height="24" viewBox="0 0 24 24" fill="none" xmlns="http://www.w3.org/2000/svg">
<path d="M11.8482 10.2432C13.3024 10.2432 14.5953 10.1609 15.7271 9.99644C16.8588 9.83195 17.8166 9.59893 18.6006 9.29736C19.3846 8.99579 19.9805 8.64092 20.3883 8.23274C20.7961 7.82456 21 7.37983 21 6.89854C21 6.30759 20.7249 5.79737 20.1748 5.36787C19.6248 4.93836 18.8661 4.60938 17.8988 4.38092C16.9315 4.15246 15.8156 4.03823 14.551 4.03823C13.1285 4.03823 11.8593 4.15855 10.7434 4.3992C9.62749 4.63984 8.64909 4.94902 7.80821 5.32674C7.5806 5.4364 7.43677 5.58414 7.37671 5.76996C7.31664 5.95577 7.33086 6.12787 7.41938 6.28627C7.50789 6.46295 7.65489 6.57413 7.86036 6.61982C8.06585 6.66551 8.26342 6.64876 8.45309 6.56956C9.21179 6.26495 10.0811 5.98775 11.0611 5.73797C12.0411 5.48819 13.1759 5.3633 14.4657 5.3633C15.5279 5.3633 16.4352 5.43488 17.1876 5.57805C17.9399 5.72121 18.5152 5.90855 18.9135 6.14006C19.3119 6.37156 19.5111 6.62134 19.5111 6.8894C19.5111 7.12091 19.3372 7.35394 18.9894 7.58849C18.6417 7.82304 18.1343 8.03626 17.4673 8.22817C16.8003 8.42008 15.9894 8.57543 15.0348 8.69423C14.0801 8.81303 12.9958 8.87243 11.7819 8.87243C9.40462 8.87243 7.59324 8.65006 6.34773 8.20533C5.10221 7.76059 4.47945 7.10568 4.47945 6.24058C4.47945 5.73492 4.75606 5.22622 5.30927 4.71447C5.86248 4.20273 6.82507 3.73363 8.19703 3.30716C8.43097 3.23406 8.59377 3.11526 8.68544 2.95077C8.77712 2.78628 8.79134 2.61265 8.72812 2.42988C8.65858 2.24102 8.53845 2.11309 8.36774 2.04607C8.19703 1.97906 7.98207 1.98515 7.72285 2.06435C6.66069 2.36896 5.78029 2.74211 5.08166 3.1838C4.38303 3.62548 3.86143 4.10982 3.51686 4.6368C3.17229 5.16378 3 5.71056 3 6.27713C3 7.57478 3.74921 8.5602 5.24762 9.23339C6.74604 9.90658 8.94625 10.2432 11.8482 10.2432ZM12.1328 13.2589C13.6185 13.2589 15.0205 13.1492 16.3388 12.9299C17.657 12.7105 18.7998 12.4089 19.7671 12.0252C19.9504 11.952 20.0784 11.8363 20.1511 11.6779C20.2238 11.5195 20.2159 11.3581 20.1274 11.1936C20.0453 11.0413 19.922 10.9484 19.7576 10.9148C19.5933 10.8813 19.4036 10.9042 19.1886 10.9834C18.3098 11.3063 17.2587 11.5683 16.0353 11.7693C14.8119 11.9703 13.511 12.0708 12.1328 12.0708C11.4563 12.0708 10.7576 12.0434 10.0369 11.9886C9.3161 11.9337 8.60641 11.85 7.90778 11.7373C7.20916 11.6246 6.55637 11.4829 5.94941 11.3124C5.73445 11.2514 5.54636 11.2514 5.38513 11.3124C5.22391 11.3733 5.11801 11.4921 5.06744 11.6687C5.01686 11.8393 5.03424 11.9978 5.1196 12.144C5.20495 12.2902 5.35826 12.3937 5.57955 12.4547C6.23076 12.6314 6.92781 12.7791 7.67069 12.8979C8.41358 13.0166 9.16595 13.1065 9.9278 13.1675C10.6897 13.2284 11.4246 13.2589 12.1328 13.2589ZM12.7777 16.238C14.0168 16.2258 15.2181 16.1328 16.3814 15.9592C17.5448 15.7856 18.6607 15.5221 19.7292 15.1688C19.9821 15.0895 20.137 14.9677 20.1939 14.8032C20.2508 14.6387 20.2476 14.4834 20.1844 14.3372C20.1212 14.1788 20.0074 14.0767 19.843 14.0311C19.6786 13.9853 19.4731 13.999 19.2265 14.0722C18.177 14.4011 17.1212 14.6448 16.059 14.8032C14.9968 14.9616 13.903 15.0409 12.7777 15.0409C12.2971 15.0409 11.8198 15.0271 11.3456 14.9997C10.8714 14.9723 10.4383 14.9312 10.0463 14.8763C9.81242 14.8458 9.62749 14.8717 9.49155 14.954C9.35562 15.0362 9.27185 15.1596 9.24024 15.3241C9.20862 15.4886 9.24024 15.6394 9.33508 15.7765C9.42991 15.9135 9.60061 16.0034 9.84719 16.0461C10.2139 16.1069 10.647 16.1541 11.1464 16.1876C11.6459 16.2212 12.1897 16.238 12.7777 16.238ZM11.9146 19.0434C12.49 19.1104 13.0954 19.147 13.7307 19.1531C14.3661 19.1592 15.0047 19.1287 15.6465 19.0617C16.2882 18.9947 16.9062 18.882 17.5005 18.7236C17.7155 18.6687 17.8625 18.5621 17.9414 18.4037C18.0205 18.2453 18.0347 18.0869 17.9842 17.9285C17.9273 17.758 17.8198 17.6422 17.6618 17.5813C17.5037 17.5203 17.3108 17.5173 17.0833 17.5721C16.3119 17.7671 15.4994 17.892 14.6459 17.9468C13.7924 18.0016 12.9515 17.9803 12.1233 17.8829C11.8957 17.8585 11.7076 17.892 11.559 17.9834C11.4104 18.0748 11.3266 18.2057 11.3077 18.3763C11.2887 18.5408 11.3266 18.687 11.4215 18.815C11.5163 18.9429 11.6807 19.019 11.9146 19.0434ZM11.2697 21.9403C11.5669 21.9829 11.883 22.0028 12.2181 21.9997C12.5532 21.9966 12.8757 21.9768 13.1855 21.9403C13.4004 21.9159 13.5585 21.8428 13.6597 21.7209C13.7608 21.5991 13.805 21.4529 13.7924 21.2823C13.7734 21.13 13.7023 21.0082 13.5791 20.9168C13.4557 20.8254 13.2771 20.7919 13.0432 20.8162C12.4868 20.8833 11.9304 20.8863 11.3741 20.8254C11.1591 20.795 10.9884 20.8269 10.8619 20.9213C10.7355 21.0158 10.6596 21.1361 10.6343 21.2823C10.6154 21.4407 10.658 21.5839 10.7624 21.7119C10.8667 21.8397 11.0358 21.9159 11.2697 21.9403Z" fill="white"/>
</svg>
