<svg width="24" height="24" viewBox="0 0 24 24" fill="none" xmlns="http://www.w3.org/2000/svg">
<path d="M2.88837 9.53549C4.29106 9.0859 5.70348 8.8611 7.12565 8.8611C7.72309 8.8611 8.27995 8.88554 8.79622 8.9344C9.31248 8.98327 9.82225 9.03051 10.3255 9.07612C10.8288 9.12173 11.3629 9.14454 11.9279 9.14454C12.5123 9.14454 13.0172 9.02399 13.4426 8.78291C13.868 8.54183 14.1959 8.21442 14.4264 7.80066C14.657 7.38691 14.7723 6.9194 14.7723 6.39814C14.7723 5.87037 14.6505 5.3996 14.407 4.98585C14.1635 4.5721 13.8355 4.24957 13.4231 4.01826C13.0107 3.78695 12.5546 3.67129 12.0546 3.67129C11.4961 3.67129 10.9928 3.82604 10.5447 4.13554C10.0966 4.44504 9.76868 4.8311 9.56088 5.29372C9.48295 5.45662 9.46184 5.62114 9.49756 5.78729C9.53327 5.95344 9.63555 6.08212 9.8044 6.17335C9.96025 6.25154 10.1226 6.26294 10.2914 6.20755C10.4603 6.15217 10.5967 6.02674 10.7006 5.83127C10.811 5.58367 10.9879 5.37354 11.2314 5.20087C11.475 5.0282 11.7493 4.94187 12.0546 4.94187C12.4571 4.94187 12.7981 5.07381 13.0774 5.3377C13.3566 5.60159 13.4962 5.95507 13.4962 6.39814C13.4962 6.84121 13.3533 7.19795 13.0676 7.46836C12.7818 7.73876 12.402 7.87396 11.9279 7.87396C11.3889 7.87396 10.871 7.84953 10.3742 7.80066C9.87745 7.7518 9.36606 7.70293 8.84005 7.65405C8.31404 7.60519 7.74258 7.58075 7.12565 7.58075C6.3269 7.58075 5.53464 7.64754 4.74888 7.78112C3.96311 7.91469 3.21307 8.0955 2.49873 8.32355C2.29093 8.38219 2.14806 8.4897 2.07013 8.64608C1.99221 8.80246 1.97922 8.96536 2.03117 9.13477C2.07663 9.30417 2.17566 9.4296 2.32827 9.51105C2.48088 9.59249 2.66758 9.60064 2.88837 9.53549ZM18.1231 14.1095C18.8829 14.1095 19.5534 13.9613 20.1346 13.6649C20.7158 13.3684 21.172 12.9595 21.5032 12.4383C21.8344 11.917 22 11.3175 22 10.6399C22 9.9753 21.8458 9.38399 21.5373 8.86599C21.2288 8.34798 20.8148 7.94075 20.2953 7.64428C19.7758 7.34781 19.2011 7.19958 18.5712 7.19958C17.9802 7.19958 17.451 7.32501 16.9834 7.57587C16.5159 7.82673 16.1327 8.16718 15.834 8.59722C15.5353 9.02726 15.3469 9.51268 15.269 10.0535C15.2365 10.2555 15.2707 10.4298 15.3713 10.5764C15.4719 10.723 15.6099 10.8061 15.7853 10.8256C15.9672 10.8517 16.1279 10.8109 16.2675 10.7034C16.4071 10.5959 16.4964 10.4249 16.5354 10.1903C16.5938 9.8515 16.7188 9.5534 16.9103 9.29603C17.1019 9.03866 17.3406 8.83667 17.6263 8.69006C17.9121 8.54346 18.227 8.47015 18.5712 8.47015C18.9673 8.47015 19.3294 8.563 19.6573 8.7487C19.9852 8.9344 20.245 9.19015 20.4366 9.51594C20.6282 9.84173 20.7239 10.2164 20.7239 10.6399C20.7239 11.2915 20.4885 11.8209 20.0177 12.2281C19.5469 12.6354 18.9154 12.839 18.1231 12.839C17.3828 12.839 16.623 12.7527 15.8437 12.58C15.0644 12.4073 14.2608 12.2102 13.4329 11.9887C12.6049 11.7671 11.7445 11.57 10.8515 11.3974C9.95862 11.2247 9.02513 11.1384 8.05104 11.1384C7.04448 11.1384 6.08175 11.2182 5.16287 11.3778C4.24397 11.5375 3.35593 11.7704 2.49873 12.0767C2.29742 12.1418 2.15618 12.2526 2.075 12.4089C1.99383 12.5653 1.97922 12.7282 2.03117 12.8976C2.07663 13.0671 2.17728 13.1941 2.33314 13.2788C2.48899 13.3635 2.67407 13.3668 2.88837 13.2886C3.68063 12.9889 4.49886 12.7689 5.34307 12.6288C6.18728 12.4888 7.08993 12.4188 8.05104 12.4188C9.01863 12.4188 9.9359 12.5035 10.8028 12.6729C11.6698 12.8423 12.5058 13.0394 13.3111 13.2641C14.1164 13.4889 14.9151 13.686 15.7074 13.8554C16.4996 14.0248 17.3049 14.1095 18.1231 14.1095ZM11.9376 21C12.4377 21 12.889 20.886 13.2916 20.6579C13.6943 20.4299 14.0125 20.1122 14.2462 19.7049C14.48 19.2977 14.5969 18.827 14.5969 18.2927C14.5969 17.1394 14.0255 16.2516 12.8826 15.6294C11.7396 15.0071 10.0869 14.6959 7.9244 14.6959C7.02175 14.6959 6.09799 14.779 5.15312 14.9452C4.20825 15.1114 3.32346 15.3378 2.49873 15.6245C2.29742 15.6896 2.15618 15.8004 2.075 15.9568C1.99383 16.1132 1.97922 16.2761 2.03117 16.4455C2.07663 16.6083 2.17728 16.7338 2.33314 16.8218C2.48899 16.9097 2.67407 16.9146 2.88837 16.8364C3.66114 16.5628 4.4745 16.351 5.32846 16.2012C6.18241 16.0512 7.04772 15.9763 7.9244 15.9763C9.69075 15.9763 11.0334 16.1848 11.9523 16.6018C12.8712 17.0188 13.3306 17.5824 13.3306 18.2927C13.3306 18.7422 13.1942 19.0941 12.9215 19.3482C12.6488 19.6023 12.3208 19.7294 11.9376 19.7294C11.5545 19.7294 11.2477 19.6088 11.0171 19.3678C10.7866 19.1267 10.6356 18.8009 10.5642 18.3905C10.5382 18.208 10.4619 18.0532 10.3353 17.9262C10.2086 17.7991 10.0382 17.7454 9.82388 17.7649C9.60309 17.778 9.44723 17.8643 9.35632 18.0239C9.2654 18.1835 9.23618 18.3611 9.26865 18.5566C9.35307 19.2408 9.6323 19.819 10.1064 20.2914C10.5804 20.7638 11.1908 21 11.9376 21ZM18.9706 5.53806C19.0745 5.53806 19.1605 5.49734 19.2287 5.41589C19.2969 5.33445 19.3277 5.23834 19.3212 5.12757L19.2628 4.31635L19.9446 4.77572C20.0226 4.83436 20.1151 4.85391 20.2223 4.83436C20.3294 4.81481 20.4122 4.75943 20.4707 4.66821C20.5356 4.57699 20.5502 4.47599 20.5145 4.36522C20.4788 4.25446 20.4057 4.17627 20.2953 4.13066L19.5745 3.76903L20.3148 3.39763C20.4057 3.35202 20.469 3.27709 20.5048 3.17284C20.5405 3.06858 20.5324 2.96759 20.4804 2.86986C20.4349 2.78515 20.3554 2.72977 20.2418 2.7037C20.1281 2.67764 20.0258 2.69719 19.9349 2.76234L19.2628 3.2217L19.331 2.42027C19.3375 2.3095 19.305 2.21176 19.2335 2.12706C19.1621 2.04235 19.0745 2 18.9706 2C18.8537 2 18.7595 2.03909 18.6881 2.11728C18.6166 2.19547 18.5841 2.29321 18.5907 2.41049L18.6491 3.23148L17.9575 2.76234C17.8666 2.7037 17.7708 2.68416 17.6702 2.7037C17.5695 2.72325 17.4932 2.77863 17.4413 2.86986C17.3828 2.96759 17.3698 3.06858 17.4023 3.17284C17.4347 3.27709 17.4997 3.35202 17.5971 3.39763L18.3276 3.76903L17.6069 4.13066C17.5029 4.17627 17.4331 4.2512 17.3974 4.35545C17.3617 4.45971 17.3731 4.56396 17.4315 4.66821C17.477 4.75943 17.5533 4.81481 17.6604 4.83436C17.7676 4.85391 17.8666 4.83436 17.9575 4.77572L18.6491 4.31635L18.6004 5.12757C18.6004 5.24485 18.6345 5.34259 18.7027 5.42078C18.7709 5.49897 18.8602 5.53806 18.9706 5.53806ZM18.9706 19.5632C19.0745 19.5632 19.1605 19.5225 19.2287 19.4411C19.2969 19.3597 19.3277 19.2635 19.3212 19.1528L19.2628 18.3415L19.9446 18.8009C20.0226 18.853 20.1151 18.8693 20.2223 18.8497C20.3294 18.8302 20.4122 18.7781 20.4707 18.6934C20.5356 18.5957 20.5502 18.4914 20.5145 18.3806C20.4788 18.2699 20.4057 18.195 20.2953 18.1559L19.5745 17.7942L20.3148 17.4229C20.4057 17.3707 20.469 17.2941 20.5048 17.1932C20.5405 17.0922 20.5324 16.9928 20.4804 16.895C20.4349 16.8038 20.3554 16.7468 20.2418 16.724C20.1281 16.7012 20.0258 16.7224 19.9349 16.7875L19.2628 17.2469L19.331 16.4357C19.3375 16.3314 19.305 16.237 19.2335 16.1522C19.1621 16.0675 19.0745 16.0252 18.9706 16.0252C18.8537 16.0252 18.7595 16.0643 18.6881 16.1425C18.6166 16.2206 18.5841 16.3151 18.5907 16.4259L18.6491 17.2566L17.9575 16.7875C17.8666 16.7289 17.7708 16.7077 17.6702 16.724C17.5695 16.7403 17.4932 16.7973 17.4413 16.895C17.3828 16.9928 17.3698 17.0922 17.4023 17.1932C17.4347 17.2941 17.4997 17.3707 17.5971 17.4229L18.3276 17.7942L17.6069 18.1461C17.5029 18.1917 17.4331 18.2683 17.3974 18.3757C17.3617 18.4832 17.3731 18.5891 17.4315 18.6934C17.477 18.7781 17.5533 18.8318 17.6604 18.8546C17.7676 18.8775 17.8666 18.8595 17.9575 18.8009L18.6491 18.3415L18.6004 19.1528C18.6004 19.2701 18.6345 19.3678 18.7027 19.4459C18.7709 19.5241 18.8602 19.5632 18.9706 19.5632Z" fill="white"/>
</svg>
