<svg width="24" height="24" viewBox="0 0 24 24" fill="none" xmlns="http://www.w3.org/2000/svg">
<path d="M2.88837 9.09138C4.29106 8.62437 5.70348 8.39087 7.12565 8.39087C7.72309 8.39087 8.27995 8.41625 8.79622 8.46701C9.31248 8.51777 9.82225 8.56684 10.3255 8.61422C10.8288 8.66159 11.3629 8.68528 11.9279 8.68528C12.5123 8.68528 13.0172 8.56007 13.4426 8.30965C13.868 8.05923 14.1959 7.71913 14.4264 7.28935C14.657 6.85956 14.7723 6.37395 14.7723 5.83249C14.7723 5.28427 14.6505 4.79527 14.407 4.36549C14.1635 3.9357 13.8355 3.60068 13.4231 3.36041C13.0107 3.12014 12.5546 3 12.0546 3C11.4961 3 10.9928 3.16075 10.5447 3.48224C10.0966 3.80373 9.76868 4.20474 9.56088 4.68529C9.48295 4.85449 9.46184 5.02539 9.49756 5.19797C9.53327 5.37056 9.63555 5.50423 9.8044 5.59899C9.96025 5.68021 10.1226 5.69205 10.2914 5.63452C10.4603 5.57699 10.5967 5.4467 10.7006 5.24366C10.811 4.98647 10.9879 4.76819 11.2314 4.58883C11.475 4.40948 11.7493 4.3198 12.0546 4.3198C12.4571 4.3198 12.7981 4.45685 13.0774 4.73097C13.3566 5.00508 13.4962 5.37225 13.4962 5.83249C13.4962 6.29273 13.3533 6.66329 13.0676 6.94417C12.7818 7.22505 12.402 7.36549 11.9279 7.36549C11.3889 7.36549 10.871 7.34011 10.3742 7.28935C9.87745 7.23859 9.36606 7.18782 8.84005 7.13706C8.31404 7.0863 7.74258 7.06092 7.12565 7.06092C6.3269 7.06092 5.53464 7.13029 4.74888 7.26904C3.96311 7.40779 3.21307 7.5956 2.49873 7.83249C2.29093 7.89341 2.14806 8.00508 2.07013 8.16752C1.99221 8.32996 1.97922 8.49916 2.03117 8.67514C2.07663 8.85111 2.17566 8.98139 2.32827 9.06599C2.48088 9.1506 2.66758 9.15906 2.88837 9.09138ZM18.1231 13.8426C18.8829 13.8426 19.5534 13.6886 20.1346 13.3807C20.7158 13.0728 21.172 12.6481 21.5032 12.1066C21.8344 11.5651 22 10.9425 22 10.2386C22 9.54823 21.8458 8.93402 21.5373 8.39594C21.2288 7.85787 20.8148 7.43486 20.2953 7.12691C19.7758 6.81895 19.2011 6.66498 18.5712 6.66498C17.9802 6.66498 17.451 6.79527 16.9834 7.05584C16.5159 7.31642 16.1327 7.67006 15.834 8.11676C15.5353 8.56346 15.3469 9.06769 15.269 9.62945C15.2365 9.83926 15.2707 10.0203 15.3713 10.1726C15.4719 10.3249 15.6099 10.4112 15.7853 10.4315C15.9672 10.4586 16.1279 10.4163 16.2675 10.3046C16.4071 10.1929 16.4964 10.0152 16.5354 9.77158C16.5938 9.41963 16.7188 9.10999 16.9103 8.84265C17.1019 8.5753 17.3406 8.36549 17.6263 8.2132C17.9121 8.06092 18.227 7.98477 18.5712 7.98477C18.9673 7.98477 19.3294 8.08122 19.6573 8.27411C19.9852 8.46701 20.245 8.73266 20.4366 9.07108C20.6282 9.40949 20.7239 9.79866 20.7239 10.2386C20.7239 10.9154 20.4885 11.4653 20.0177 11.8884C19.5469 12.3113 18.9154 12.5228 18.1231 12.5228C17.3828 12.5228 16.623 12.4332 15.8437 12.2538C15.0644 12.0744 14.2608 11.8697 13.4329 11.6396C12.6049 11.4095 11.7445 11.2047 10.8515 11.0254C9.95862 10.846 9.02513 10.7564 8.05104 10.7564C7.04448 10.7564 6.08175 10.8393 5.16287 11.0051C4.24397 11.1709 3.35593 11.4129 2.49873 11.731C2.29742 11.7987 2.15618 11.9137 2.075 12.0761C1.99383 12.2386 1.97922 12.4078 2.03117 12.5838C2.07663 12.7597 2.17728 12.8917 2.33314 12.9797C2.48899 13.0677 2.67407 13.071 2.88837 12.9898C3.68063 12.6785 4.49886 12.4501 5.34307 12.3046C6.18728 12.1591 7.08993 12.0863 8.05104 12.0863C9.01863 12.0863 9.9359 12.1743 10.8028 12.3503C11.6698 12.5262 12.5058 12.731 13.3111 12.9645C14.1164 13.1979 14.9151 13.4027 15.7074 13.5786C16.4996 13.7546 17.3049 13.8426 18.1231 13.8426ZM11.9376 21C12.4377 21 12.889 20.8816 13.2916 20.6447C13.6943 20.4078 14.0125 20.0778 14.2462 19.6549C14.48 19.2318 14.5969 18.7428 14.5969 18.1878C14.5969 16.9898 14.0255 16.0677 12.8826 15.4213C11.7396 14.775 10.0869 14.4518 7.9244 14.4518C7.02175 14.4518 6.09799 14.5381 5.15312 14.7107C4.20825 14.8832 3.32346 15.1184 2.49873 15.4162C2.29742 15.4839 2.15618 15.599 2.075 15.7615C1.99383 15.9239 1.97922 16.093 2.03117 16.269C2.07663 16.4383 2.17728 16.5686 2.33314 16.6599C2.48899 16.7512 2.67407 16.7563 2.88837 16.6752C3.66114 16.3909 4.4745 16.1709 5.32846 16.0152C6.18241 15.8596 7.04772 15.7818 7.9244 15.7818C9.69075 15.7818 11.0334 15.9983 11.9523 16.4315C12.8712 16.8647 13.3306 17.4501 13.3306 18.1878C13.3306 18.6548 13.1942 19.0203 12.9215 19.2843C12.6488 19.5482 12.3208 19.6802 11.9376 19.6802C11.5545 19.6802 11.2477 19.555 11.0171 19.3046C10.7866 19.0542 10.6356 18.7157 10.5642 18.2894C10.5382 18.0999 10.4619 17.9391 10.3353 17.8071C10.2086 17.6751 10.0382 17.6193 9.82388 17.6396C9.60309 17.6531 9.44723 17.7428 9.35632 17.9087C9.2654 18.0744 9.23618 18.2589 9.26865 18.4619C9.35307 19.1726 9.6323 19.7733 10.1064 20.264C10.5804 20.7547 11.1908 21 11.9376 21Z" fill="white"/>
</svg>
