<svg width="24" height="24" viewBox="0 0 24 24" fill="none" xmlns="http://www.w3.org/2000/svg">
<path fill-rule="evenodd" clip-rule="evenodd" d="M12 2.53488C9.74107 2.53488 7.58349 3.37703 5.99977 4.86254C4.41765 6.34653 3.53846 8.34878 3.53846 10.4258C3.53846 12.5597 4.88107 15.3421 6.72648 17.6428C7.63676 18.7777 8.63636 19.7528 9.59053 20.437C10.5668 21.137 11.4015 21.4651 12 21.4651C12.5985 21.4651 13.4332 21.137 14.4095 20.437C15.3636 19.7528 16.3632 18.7777 17.2735 17.6428C19.1189 15.3421 20.4615 12.5597 20.4615 10.4258C20.4615 8.34878 19.5823 6.34653 18.0002 4.86254C16.4165 3.37703 14.2589 2.53488 12 2.53488ZM4.94596 3.74427C6.82444 1.98228 9.36262 1 12 1C14.6374 1 17.1756 1.98228 19.054 3.74427C20.9341 5.50778 22 7.91008 22 10.4258C22 13.0736 20.4055 16.1946 18.4747 18.6018C17.4969 19.8209 16.3986 20.9009 15.3073 21.6834C14.2381 22.45 13.0798 23 12 23C10.9202 23 9.76191 22.45 8.69268 21.6834C7.60141 20.9009 6.5031 19.8209 5.52527 18.6018C3.59446 16.1946 2 13.0736 2 10.4258C2 7.91008 3.06586 5.50778 4.94596 3.74427ZM6.61539 10.7814V11.0698C6.61539 11.5625 6.88439 12.1072 7.50021 12.554C8.11974 13.0035 8.99893 13.2791 9.94872 13.2791C10.0674 13.2791 10.1568 13.2473 10.2051 13.2186V12.9302C10.2051 12.4375 9.93612 11.8928 9.32031 11.446C8.70078 10.9965 7.82159 10.7209 6.8718 10.7209C6.75311 10.7209 6.66371 10.7527 6.61539 10.7814ZM5.69412 9.5508C6.03632 9.3025 6.4615 9.18605 6.8718 9.18605C8.09814 9.18605 9.30595 9.53772 10.2252 10.2047C11.1481 10.8744 11.7436 11.844 11.7436 12.9302V13.3023C11.7436 13.7964 11.4723 14.1982 11.1264 14.4492C10.7842 14.6975 10.359 14.814 9.94872 14.814C8.72238 14.814 7.51456 14.4623 6.59533 13.7953C5.67238 13.1256 5.07692 12.156 5.07692 11.0698V10.6977C5.07692 10.2036 5.34821 9.80178 5.69412 9.5508ZM17.1282 10.7209C16.1784 10.7209 15.2992 10.9965 14.6797 11.446C14.0639 11.8928 13.7949 12.4375 13.7949 12.9302V13.2186C13.8432 13.2473 13.9326 13.2791 14.0513 13.2791C15.0011 13.2791 15.8803 13.0035 16.4998 12.554C17.1156 12.1072 17.3846 11.5625 17.3846 11.0698V10.7814C17.3363 10.7527 17.2469 10.7209 17.1282 10.7209ZM13.7748 10.2047C14.694 9.53772 15.9019 9.18605 17.1282 9.18605C17.5385 9.18605 17.9637 9.30251 18.3059 9.5508C18.6518 9.80178 18.9231 10.2036 18.9231 10.6977V11.0698C18.9231 12.156 18.3276 13.1256 17.4047 13.7953C16.4854 14.4623 15.2776 14.814 14.0513 14.814C13.641 14.814 13.2158 14.6975 12.8736 14.4492C12.5277 14.1982 12.2564 13.7964 12.2564 13.3023V12.9302C12.2564 11.844 12.8519 10.8744 13.7748 10.2047ZM10.2051 18.1395C10.2051 17.7157 10.5495 17.3721 10.9744 17.3721H13.0256C13.4505 17.3721 13.7949 17.7157 13.7949 18.1395C13.7949 18.5634 13.4505 18.907 13.0256 18.907H10.9744C10.5495 18.907 10.2051 18.5634 10.2051 18.1395Z" fill="black" fill-opacity="0.8"/>
</svg>
