<svg width="24" height="24" viewBox="0 0 24 24" fill="none" xmlns="http://www.w3.org/2000/svg">
<path d="M17.4545 9.74114H17.0909V8.23995C17.0909 8.04088 17.0143 7.84997 16.8779 7.70921C16.7415 7.56844 16.5565 7.48936 16.3636 7.48936C16.3729 6.95695 16.2412 6.43203 15.9829 5.9711C15.7245 5.51017 15.3493 5.1307 14.8975 4.87355C14.3751 4.57349 13.7772 4.44271 13.1818 4.49826C13.1079 4.50772 13.0329 4.49728 12.9641 4.46795C12.8953 4.43861 12.835 4.39139 12.7891 4.33088C12.4725 3.9029 12.0616 3.55904 11.5905 3.32785C11.1193 3.09667 10.6015 2.98484 10.0801 3.00165C9.55864 3.01846 9.04861 3.16342 8.59236 3.4245C8.1361 3.68557 7.74678 4.05523 7.45673 4.50276C6.71894 4.54861 6.02586 4.88308 5.51871 5.438C5.01157 5.99292 4.72853 6.72654 4.72727 7.48936C4.53439 7.48936 4.3494 7.56844 4.21301 7.70921C4.07662 7.84997 4 8.04088 4 8.23995V17.247C4.00115 18.242 4.38464 19.1959 5.06634 19.8995C5.74804 20.603 6.67229 20.9988 7.63636 21H13.4545C14.4186 20.9988 15.3429 20.603 16.0246 19.8995C16.7063 19.1959 17.0898 18.242 17.0909 17.247H17.4545C18.1296 17.247 18.7771 16.9703 19.2545 16.4776C19.7318 15.9849 20 15.3167 20 14.62V12.3682C20 11.6715 19.7318 11.0033 19.2545 10.5106C18.7771 10.0179 18.1296 9.74114 17.4545 9.74114ZM7.63636 5.98818C7.67819 5.98959 7.71981 5.99487 7.76073 6.00394C7.91746 6.03025 8.07823 6.00288 8.21848 5.92604C8.35873 5.84919 8.47076 5.72708 8.53745 5.57836C8.67042 5.28702 8.8738 5.03591 9.12803 4.84917C9.38225 4.66244 9.67876 4.54637 9.98903 4.51214C10.2993 4.47791 10.6129 4.52667 10.8996 4.65372C11.1863 4.78077 11.4365 4.98185 11.6262 5.23759C11.8211 5.50477 12.0798 5.71521 12.3771 5.84835C12.6743 5.98148 13 6.03277 13.3222 5.99719C13.6328 5.97194 13.9438 6.04275 14.2153 6.2006C14.4317 6.33213 14.6101 6.52096 14.7321 6.74754C14.8541 6.97412 14.9152 7.23023 14.9091 7.48936H12C11.4213 7.48936 10.8664 7.7266 10.4572 8.14889C10.0481 8.57118 9.81818 9.14393 9.81818 9.74114V11.9929C9.81818 12.192 9.74156 12.3829 9.60517 12.5237C9.46878 12.6644 9.28379 12.7435 9.09091 12.7435C8.89802 12.7435 8.71304 12.6644 8.57665 12.5237C8.44026 12.3829 8.36364 12.192 8.36364 11.9929V9.74114C8.36364 9.14393 8.13377 8.57118 7.7246 8.14889C7.31543 7.7266 6.76047 7.48936 6.18182 7.48936C6.18182 7.09123 6.33506 6.70939 6.60784 6.42787C6.88062 6.14634 7.25059 5.98818 7.63636 5.98818ZM15.6364 17.247C15.6364 17.8443 15.4065 18.417 14.9973 18.8393C14.5882 19.2616 14.0332 19.4988 13.4545 19.4988H7.63636C7.05771 19.4988 6.50276 19.2616 6.09359 18.8393C5.68442 18.417 5.45455 17.8443 5.45455 17.247V8.99055H6.18182C6.3747 8.99055 6.55969 9.06963 6.69608 9.21039C6.83247 9.35115 6.90909 9.54207 6.90909 9.74114V11.9929C6.90909 12.5901 7.13896 13.1629 7.54813 13.5852C7.9573 14.0074 8.51226 14.2447 9.09091 14.2447C9.66956 14.2447 10.2245 14.0074 10.6337 13.5852C11.0429 13.1629 11.2727 12.5901 11.2727 11.9929V9.74114C11.2727 9.54207 11.3494 9.35115 11.4857 9.21039C11.6221 9.06963 11.8071 8.99055 12 8.99055H15.6364V17.247ZM18.5455 14.62C18.5455 14.9186 18.4305 15.205 18.2259 15.4161C18.0213 15.6272 17.7439 15.7459 17.4545 15.7459H17.0909V11.2423H17.4545C17.7439 11.2423 18.0213 11.3609 18.2259 11.5721C18.4305 11.7832 18.5455 12.0696 18.5455 12.3682V14.62Z" fill="black" fill-opacity="0.8"/>
</svg>
