<svg width="24" height="24" viewBox="0 0 24 24" fill="none" xmlns="http://www.w3.org/2000/svg">
<path d="M12 22C13.366 22 14.652 21.7385 15.8578 21.2156C17.0637 20.6928 18.1274 19.9706 19.049 19.049C19.9706 18.1274 20.6928 17.0637 21.2156 15.8578C21.7385 14.652 22 13.366 22 12C22 10.634 21.7385 9.34803 21.2156 8.14214C20.6928 6.93627 19.9706 5.87255 19.049 4.95097C18.1274 4.02941 17.0621 3.30719 15.8529 2.78431C14.6438 2.26144 13.3562 2 11.9902 2C10.6242 2 9.33823 2.26144 8.13235 2.78431C6.92646 3.30719 5.86437 4.02941 4.94607 4.95097C4.02778 5.87255 3.30719 6.93627 2.78431 8.14214C2.26144 9.34803 2 10.634 2 12C2 13.366 2.26144 14.652 2.78431 15.8578C3.30719 17.0637 4.02941 18.1274 4.95097 19.049C5.87255 19.9706 6.93627 20.6928 8.14214 21.2156C9.34803 21.7385 10.634 22 12 22ZM12 20.3333C10.8431 20.3333 9.76143 20.1176 8.7549 19.6863C7.74836 19.2549 6.86437 18.6585 6.10293 17.8971C5.3415 17.1356 4.74673 16.2517 4.31862 15.2451C3.89052 14.2386 3.67647 13.1569 3.67647 12C3.67647 10.8431 3.89052 9.76143 4.31862 8.7549C4.74673 7.74836 5.33987 6.86274 6.09803 6.09803C6.8562 5.33333 7.73855 4.73692 8.74509 4.30882C9.75163 3.88072 10.8333 3.66667 11.9902 3.66667C13.1471 3.66667 14.2288 3.88072 15.2353 4.30882C16.2418 4.73692 17.1274 5.33333 17.8922 6.09803C18.6569 6.86274 19.2549 7.74836 19.6863 8.7549C20.1176 9.76143 20.3333 10.8431 20.3333 12C20.3333 13.1569 20.1193 14.2386 19.6912 15.2451C19.263 16.2517 18.6683 17.1356 17.9068 17.8971C17.1454 18.6585 16.2598 19.2549 15.2499 19.6863C14.2402 20.1176 13.1569 20.3333 12 20.3333ZM9.00979 7.48038C8.87908 7.7745 8.78267 8.06209 8.72058 8.34313C8.65849 8.62417 8.62744 8.90522 8.62744 9.18626C8.62744 9.80064 8.76633 10.3644 9.04411 10.8774C9.32189 11.3905 9.71077 11.799 10.2108 12.103C10.7108 12.4069 11.3006 12.5588 11.9804 12.5588C12.6601 12.5588 13.2516 12.4069 13.7549 12.103C14.2581 11.799 14.647 11.3905 14.9216 10.8774C15.196 10.3644 15.3333 9.80064 15.3333 9.18626C15.3333 8.90522 15.3039 8.62417 15.2451 8.34313C15.1863 8.06209 15.0948 7.7745 14.9705 7.48038C14.9183 7.36273 14.8284 7.29411 14.701 7.27451C14.5735 7.2549 14.4608 7.29738 14.3628 7.40195L13.2353 8.55881L12.2745 7.30391C12.1961 7.19934 12.0997 7.14705 11.9853 7.14705C11.8709 7.14705 11.7745 7.19934 11.6961 7.30391L10.7255 8.55881L9.59803 7.40195C9.49999 7.29738 9.38888 7.2549 9.2647 7.27451C9.14051 7.29411 9.05555 7.36273 9.00979 7.48038ZM11.5588 17.6961C11.5588 17.8137 11.5997 17.9101 11.6814 17.9853C11.7631 18.0605 11.8627 18.0981 11.9804 18.0981C12.8496 18.0981 13.6764 17.933 14.4608 17.6029C15.2451 17.2728 15.9297 16.8137 16.5147 16.2255C17.0996 15.6372 17.5229 14.964 17.7843 14.2059C17.8497 14.049 17.8529 13.9215 17.7941 13.8235C17.7352 13.7255 17.6209 13.6765 17.4509 13.6765C16.5882 13.6765 15.8105 13.8317 15.1176 14.1421C14.4248 14.4526 13.8333 14.8693 13.3431 15.3921C12.8529 15.915 12.4836 16.5 12.2353 17.147L12.4019 17.3235V12.0196H11.5588V17.6961ZM10.9706 15.8529C10.5 15.2124 9.88398 14.6895 9.12254 14.2843C8.3611 13.8791 7.49019 13.6765 6.5098 13.6765C6.33986 13.6765 6.22385 13.7255 6.16176 13.8235C6.09967 13.9215 6.09803 14.049 6.15685 14.2059C6.39215 14.8725 6.75 15.4738 7.23038 16.0098C7.71077 16.5458 8.27613 16.9869 8.92646 17.3333C9.57678 17.6797 10.2778 17.9019 11.0294 18C11.0098 17.9542 10.9951 17.9068 10.9853 17.8578C10.9755 17.8088 10.9706 17.7549 10.9706 17.6961V15.8529Z" fill="black" fill-opacity="0.8"/>
</svg>
