<svg width="24" height="24" viewBox="0 0 24 24" fill="none" xmlns="http://www.w3.org/2000/svg">
<path d="M6.4249 2.60241C6.19046 3.12759 6.01779 3.65123 5.9069 4.17331C5.79601 4.6954 5.74056 5.20977 5.74056 5.71641C5.74056 6.56288 5.88789 7.35682 6.18253 8.09825C6.47718 8.83968 6.89856 9.49306 7.44667 10.0584C7.99477 10.6237 8.65377 11.0671 9.42365 11.3883C10.1935 11.7096 11.0569 11.8703 12.0137 11.8703C12.9705 11.8703 13.8338 11.7096 14.6037 11.3883C15.3736 11.0671 16.0342 10.6237 16.5855 10.0584C17.1368 9.49306 17.5582 8.83968 17.8496 8.09825C18.1411 7.35682 18.2868 6.56288 18.2868 5.71641C18.2868 5.20977 18.2314 4.6954 18.1205 4.17331C18.0096 3.65123 17.8401 3.12759 17.6119 2.60241C17.5106 2.37998 17.3458 2.25487 17.1177 2.22706C16.8896 2.19926 16.6837 2.27495 16.5 2.45413L14.3709 4.5672L12.5554 2.27804C12.4097 2.09268 12.2291 2 12.0137 2C11.7983 2 11.6209 2.09268 11.4814 2.27804L9.66602 4.5672L7.52746 2.45413C7.35003 2.27495 7.14727 2.19926 6.91915 2.22706C6.69104 2.25487 6.52628 2.37998 6.4249 2.60241ZM11.2533 21.3049C11.2533 21.515 11.3262 21.6833 11.472 21.81C11.6177 21.9367 11.7983 22 12.0137 22C13.243 22 14.4311 21.8255 15.578 21.4764C16.7249 21.1273 17.7847 20.6361 18.7573 20.0028C19.7299 19.3695 20.5759 18.6188 21.2951 17.7507C22.0142 16.8826 22.5576 15.9296 22.9251 14.8916C23.0265 14.6074 23.0249 14.3819 22.9203 14.215C22.8158 14.0482 22.6083 13.9648 22.2978 13.9648C21.0812 13.9648 19.9549 14.127 18.9189 14.4513C17.8828 14.7757 16.9498 15.2252 16.1197 15.7998C15.2896 16.3744 14.5736 17.0417 13.9717 17.8017C13.3697 18.5617 12.8913 19.3803 12.5365 20.2577L12.7836 20.5728V10.9342H11.2533V21.3049ZM9.95116 17.7647C9.35553 17.0108 8.64426 16.3497 7.81735 15.7813C6.99043 15.2129 6.06372 14.7681 5.03721 14.4468C4.0107 14.1254 2.89864 13.9648 1.70105 13.9648C1.3969 13.9648 1.19096 14.0482 1.08324 14.215C0.975518 14.3819 0.97235 14.6074 1.07373 14.8916C1.49828 16.0902 2.15094 17.173 3.03171 18.14C3.91249 19.1069 4.95325 19.9101 6.15402 20.5496C7.35478 21.1891 8.64585 21.617 10.0272 21.8333C9.97651 21.6417 9.95116 21.4656 9.95116 21.3049V17.7647Z" fill="black" fill-opacity="0.8"/>
</svg>
