<svg width="24" height="24" viewBox="0 0 24 24" fill="none" xmlns="http://www.w3.org/2000/svg">
<path d="M12 22C13.366 22 14.652 21.7385 15.8578 21.2156C17.0637 20.6928 18.1274 19.9706 19.049 19.049C19.9706 18.1274 20.6928 17.0637 21.2156 15.8578C21.7385 14.652 22 13.366 22 12C22 10.634 21.7385 9.34803 21.2156 8.14214C20.6928 6.93627 19.9706 5.87255 19.049 4.95097C18.1274 4.02941 17.0621 3.30719 15.8529 2.78431C14.6438 2.26144 13.3562 2 11.9902 2C10.6242 2 9.33823 2.26144 8.13235 2.78431C6.92646 3.30719 5.86437 4.02941 4.94607 4.95097C4.02778 5.87255 3.30719 6.93627 2.78431 8.14214C2.26144 9.34803 2 10.634 2 12C2 13.366 2.26144 14.652 2.78431 15.8578C3.30719 17.0637 4.02941 18.1274 4.95097 19.049C5.87255 19.9706 6.93627 20.6928 8.14214 21.2156C9.34803 21.7385 10.634 22 12 22ZM5.98038 14.2549C5.92156 14.0915 5.9232 13.9591 5.98529 13.8578C6.04738 13.7565 6.16993 13.7059 6.35294 13.7059C7.35947 13.7059 8.25489 13.9151 9.03921 14.3334C9.82352 14.7517 10.4575 15.2876 10.9412 15.9411V17.8529C10.9412 17.9117 10.9461 17.9673 10.9559 18.0196C10.9657 18.0719 10.9837 18.1209 11.0098 18.1666C10.2386 18.0621 9.51633 17.8317 8.84313 17.4754C8.16993 17.1192 7.58496 16.665 7.08823 16.1127C6.5915 15.5604 6.22221 14.9411 5.98038 14.2549ZM8.52941 9.07842C8.52941 8.79084 8.56209 8.50162 8.62744 8.21077C8.6928 7.91992 8.79084 7.62417 8.92156 7.32352C8.97385 7.19934 9.06372 7.12908 9.19117 7.11274C9.31862 7.0964 9.43464 7.14052 9.53921 7.24509L10.6961 8.43136L11.6961 7.13725C11.7745 7.02614 11.8742 6.97058 11.9951 6.97058C12.116 6.97058 12.2157 7.02614 12.2941 7.13725L13.2843 8.43136L14.4412 7.24509C14.5457 7.14052 14.6634 7.0964 14.7941 7.11274C14.9248 7.12908 15.0196 7.19934 15.0784 7.32352C15.2026 7.62417 15.2958 7.91992 15.3579 8.21077C15.4199 8.50162 15.4509 8.79084 15.4509 9.07842C15.4509 9.67319 15.3284 10.2189 15.0833 10.7157C14.8382 11.2124 14.4902 11.6225 14.0392 11.9461C13.5883 12.2696 13.0523 12.464 12.4313 12.5294V16.8726C12.7189 16.2712 13.1111 15.732 13.6078 15.2549C14.1046 14.7777 14.6912 14.4003 15.3676 14.1225C16.0441 13.8448 16.7974 13.7059 17.6274 13.7059C17.8039 13.7059 17.9232 13.7565 17.9853 13.8578C18.0474 13.9591 18.0457 14.0915 17.9804 14.2549C17.7124 15.0392 17.2762 15.7336 16.6716 16.3382C16.067 16.9428 15.3594 17.415 14.549 17.7549C13.7386 18.0948 12.8856 18.2647 11.9902 18.2647C11.8725 18.2647 11.7712 18.2271 11.6863 18.152C11.6013 18.0768 11.5588 17.9771 11.5588 17.8529V12.5294C10.9444 12.464 10.4101 12.2696 9.95587 11.9461C9.50162 11.6225 9.15032 11.2124 8.90195 10.7157C8.65359 10.2189 8.52941 9.67319 8.52941 9.07842Z" fill="black" fill-opacity="0.8"/>
</svg>
