<svg width="24" height="24" viewBox="0 0 24 24" fill="none" xmlns="http://www.w3.org/2000/svg">
<path fill-rule="evenodd" clip-rule="evenodd" d="M8.46555 3.08209C8.84579 3.27315 8.99937 3.73674 8.80859 4.11754L7.83862 6.05363C7.64784 6.43443 7.18495 6.58824 6.80471 6.39718C6.42448 6.20612 6.2709 5.74253 6.46168 5.36173L7.43165 3.42564C7.62243 3.04484 8.08532 2.89103 8.46555 3.08209ZM11.3755 3.08209C11.7557 3.27315 11.9093 3.73674 11.7185 4.11754L10.7485 6.05363C10.5578 6.43443 10.0949 6.58824 9.71462 6.39718C9.33439 6.20612 9.18081 5.74253 9.37159 5.36173L10.3416 3.42564C10.5323 3.04484 10.9952 2.89103 11.3755 3.08209ZM14.2854 3.08209C14.6656 3.27315 14.8192 3.73674 14.6284 4.11754L13.6584 6.05363C13.4677 6.43443 13.0048 6.58824 12.6245 6.39718C12.2443 6.20612 12.0907 5.74253 12.2815 5.36173L13.2515 3.42564C13.4422 3.04484 13.9051 2.89103 14.2854 3.08209ZM4.16541 9.38324C4.0938 9.38324 4.04054 9.44024 4.04054 9.50518V13.4518C4.04054 16.7485 6.70519 19.4292 10.0081 19.4569H10.112C13.4149 19.4292 16.0796 16.7485 16.0796 13.4518V9.50518C16.0796 9.44073 16.0264 9.38324 15.9543 9.38324H4.16541ZM17.4184 15.1915C17.0105 16.9181 16.0088 18.4152 14.6409 19.4569H16.8498C17.2753 19.4569 17.6201 19.8023 17.6201 20.2284C17.6201 20.6544 17.2753 20.9998 16.8498 20.9998H10.1152L10.0601 21L10.005 20.9998H3.27027C2.84486 20.9998 2.5 20.6544 2.5 20.2284C2.5 19.8023 2.84486 19.4569 3.27027 19.4569H5.47925C3.66887 18.0783 2.5 15.902 2.5 13.4518V9.50518C2.5 8.5831 3.24804 7.84039 4.16541 7.84039H15.9543C16.6236 7.84039 17.2035 8.23594 17.4678 8.80844H18.3048C20.0669 8.80844 21.5 10.2348 21.5 12C21.5 13.7651 20.0669 15.1915 18.3048 15.1915H17.4184ZM17.6201 10.3513V13.6487H18.3048C19.2212 13.6487 19.9595 12.908 19.9595 12C19.9595 11.092 19.2212 10.3513 18.3048 10.3513H17.6201Z" fill="black" fill-opacity="0.8"/>
</svg>
