<svg width="24" height="24" viewBox="0 0 24 24" fill="none" xmlns="http://www.w3.org/2000/svg">
<path fill-rule="evenodd" clip-rule="evenodd" d="M8.02565 5.51621C8.72988 4.02935 10.2441 3 12 3C13.7559 3 15.2701 4.02935 15.9744 5.51621C16.0446 5.51317 16.1151 5.51163 16.186 5.51163C18.8447 5.51163 21 7.66691 21 10.3256C21 12.1512 19.9839 13.7382 18.4884 14.5542L18.4884 17.0668C18.4884 17.819 18.4884 18.4463 18.4215 18.9442C18.3508 19.4698 18.1954 19.9443 17.814 20.3257C17.4327 20.707 16.9582 20.8624 16.4326 20.9331C15.9346 21 15.3074 21 14.5552 21H9.44484C8.69263 21 8.06537 21 7.56741 20.9331C7.04182 20.8624 6.56729 20.707 6.18596 20.3257C5.80464 19.9443 5.64919 19.4698 5.57853 18.9442C5.51158 18.4463 5.5116 17.819 5.51163 17.0668L5.51163 14.5542C4.01613 13.7382 3 12.1512 3 10.3256C3 7.66691 5.15528 5.51163 7.81395 5.51163C7.88485 5.51163 7.95543 5.51316 8.02565 5.51621ZM7.64871 6.77121C5.76031 6.85754 4.25581 8.41586 4.25581 10.3256C4.25581 11.7837 5.13295 13.0383 6.39093 13.5879C6.61963 13.6879 6.76744 13.9137 6.76744 14.1633V16.3953H17.2326L17.2326 14.1633C17.2326 13.9137 17.3804 13.6879 17.6091 13.5879C18.867 13.0383 19.7442 11.7837 19.7442 10.3256C19.7442 8.41586 18.2397 6.85754 16.3513 6.77121C16.3803 6.97528 16.3953 7.18368 16.3953 7.39535V7.81395C16.3953 8.16074 16.1142 8.44186 15.7674 8.44186C15.4207 8.44186 15.1395 8.16074 15.1395 7.81395V7.39535C15.1395 7.04133 15.0812 6.70224 14.9741 6.38639C14.5536 5.14662 13.38 4.25581 12 4.25581C10.62 4.25581 9.44635 5.14662 9.02592 6.38639C8.91881 6.70224 8.86047 7.04133 8.86047 7.39535V7.81395C8.86047 8.16074 8.57934 8.44186 8.23256 8.44186C7.88577 8.44186 7.60465 8.16074 7.60465 7.81395V7.39535C7.60465 7.18368 7.61966 6.97528 7.64871 6.77121ZM17.231 17.6512H6.76896C6.7725 18.1279 6.78426 18.4876 6.82315 18.7769C6.87509 19.1632 6.96486 19.3286 7.07396 19.4377C7.18306 19.5468 7.34841 19.6365 7.73475 19.6885C8.13915 19.7429 8.68129 19.7442 9.48837 19.7442H14.5116C15.3187 19.7442 15.8609 19.7429 16.2653 19.6885C16.6516 19.6365 16.8169 19.5468 16.926 19.4377C17.0351 19.3286 17.1249 19.1632 17.1769 18.7769C17.2157 18.4876 17.2275 18.1279 17.231 17.6512Z" fill="black" fill-opacity="0.8"/>
</svg>
