<svg width="24" height="24" viewBox="0 0 24 24" fill="none" xmlns="http://www.w3.org/2000/svg">
<path fill-rule="evenodd" clip-rule="evenodd" d="M12.0002 2C10.3 2 8.89424 2.14976 7.81248 2.33227L7.68703 2.35333C6.74729 2.51064 5.9662 2.64138 5.35547 3.39356C4.9638 3.87595 4.83743 4.39726 4.8083 4.97963L4.35057 5.1322C3.91975 5.27578 3.54215 5.40162 3.24258 5.54099C2.91872 5.69165 2.62193 5.88571 2.39504 6.20051C2.16815 6.51532 2.07791 6.85825 2.0374 7.21313C1.99993 7.5414 1.99996 7.93942 2 8.39353L2.00001 8.52863C2 8.9024 1.99999 9.23253 2.02758 9.50865C2.05749 9.80789 2.12371 10.0988 2.28915 10.3799C2.45458 10.6611 2.67672 10.8603 2.92378 11.0317C3.15175 11.1899 3.44034 11.3502 3.76709 11.5317L6.22399 12.8967C6.72576 13.8839 7.41504 14.764 8.36296 15.3998C9.18812 15.9532 10.1784 16.3006 11.3515 16.3935C11.3198 16.4732 11.3023 16.5602 11.3023 16.6512V18.2791H9.97193C9.19594 18.2791 8.52782 18.8268 8.37563 19.5877L8.17225 20.6047H6.41861C6.0333 20.6047 5.72094 20.917 5.72094 21.3023C5.72094 21.6876 6.0333 22 6.41861 22H17.5814C17.9667 22 18.2791 21.6876 18.2791 21.3023C18.2791 20.917 17.9667 20.6047 17.5814 20.6047H15.8278L15.6244 19.5877C15.4722 18.8268 14.8041 18.2791 14.0281 18.2791H12.6977V16.6512C12.6977 16.5602 12.6803 16.4732 12.6486 16.3935C13.8217 16.3007 14.8121 15.9533 15.6374 15.3998C16.5854 14.764 17.2747 13.8838 17.7765 12.8965L20.2329 11.5317C20.5597 11.3502 20.8482 11.1899 21.0762 11.0317C21.3233 10.8603 21.5454 10.6611 21.7109 10.3799C21.8763 10.0988 21.9425 9.80789 21.9724 9.50865C22 9.23254 22 8.90244 22 8.52868L22 8.39354C22 7.93943 22.0001 7.5414 21.9626 7.21313C21.9221 6.85825 21.8319 6.51532 21.605 6.20051C21.3781 5.88571 21.0813 5.69165 20.7574 5.54099C20.4578 5.40162 20.0802 5.27578 19.6494 5.13221L19.192 4.97974C19.1629 4.39733 19.0366 3.87598 18.6449 3.39356C18.0341 2.64138 17.253 2.51064 16.3133 2.35333L16.1878 2.33227C15.1061 2.14976 13.7004 2 12.0002 2ZM14.4048 20.6047L14.2562 19.8614C14.2344 19.7527 14.139 19.6744 14.0281 19.6744H9.97193C9.86108 19.6744 9.76563 19.7527 9.74389 19.8614L9.59523 20.6047H14.4048ZM4.82651 6.44439L4.83917 6.44017C4.90575 7.8544 5.06549 9.41745 5.46324 10.8778L4.4719 10.3271C4.1099 10.126 3.88323 9.99912 3.71935 9.88539C3.56826 9.78053 3.51906 9.71872 3.49175 9.67232C3.46445 9.62591 3.4343 9.55288 3.41602 9.36989C3.39618 9.17139 3.39537 8.91165 3.39536 8.49753L3.39536 8.43006C3.39534 7.92859 3.39639 7.61107 3.42375 7.37137C3.44907 7.14949 3.49052 7.06701 3.52702 7.01637C3.56351 6.96574 3.62865 6.90033 3.83114 6.80614C4.04988 6.70437 4.35077 6.60297 4.82651 6.44439ZM19.1612 6.44027C19.0946 7.85441 18.9348 9.41734 18.5371 10.8776L19.5281 10.3271C19.8901 10.126 20.1168 9.99912 20.2807 9.88539C20.4317 9.78053 20.4809 9.71872 20.5082 9.67232C20.5356 9.62591 20.5657 9.55288 20.584 9.36989C20.6038 9.17139 20.6046 8.91165 20.6046 8.49753L20.6046 8.43006C20.6047 7.92859 20.6036 7.61107 20.5763 7.37137C20.5509 7.14949 20.5095 7.06701 20.473 7.01637C20.4365 6.96574 20.3713 6.90033 20.1689 6.80614C19.9501 6.70437 19.6492 6.60297 19.1735 6.44439L19.1612 6.44027ZM8.04462 3.70818C9.05415 3.53785 10.3821 3.39535 12.0002 3.39535C13.6182 3.39535 14.9462 3.53785 15.9557 3.70818C17.0784 3.8976 17.3143 3.96846 17.5616 4.2731C17.8054 4.57332 17.8285 4.85727 17.7785 6.11788C17.6951 8.21895 17.4179 10.4863 16.5595 12.2106C16.1358 13.0618 15.5819 13.7569 14.8601 14.241C14.143 14.7219 13.2179 15.0233 12.0002 15.0233C10.7824 15.0233 9.85728 14.7219 9.14019 14.241C8.41846 13.7569 7.8645 13.0618 7.44079 12.2106C6.58243 10.4863 6.30527 8.21895 6.22185 6.11788C6.1718 4.85727 6.19495 4.57332 6.43872 4.2731C6.68606 3.96846 6.92191 3.8976 8.04462 3.70818Z" fill="black" fill-opacity="0.8"/>
</svg>
