<svg width="24" height="24" viewBox="0 0 24 24" fill="none" xmlns="http://www.w3.org/2000/svg">
<path fill-rule="evenodd" clip-rule="evenodd" d="M4.82858 8.37821C4.83018 5.3459 7.49084 3 10.6286 3C11.8065 3 12.9082 3.32611 13.8289 3.89184C13.9406 3.96046 14.154 3.9981 14.4167 3.93301C14.6677 3.87081 14.9303 3.83795 15.2 3.83795C16.8097 3.83795 18.232 5.03861 18.2568 6.66161C19.8341 7.26605 21 8.72079 21 10.4763C21 11.8292 20.4053 13.488 19.1095 14.3171L18.4258 19.1034C18.3968 19.3066 18.3692 19.4998 18.3332 19.6619C18.2938 19.8392 18.2335 20.0347 18.1113 20.2251C17.9365 20.4975 17.6873 20.7133 17.3934 20.8476C17.1877 20.9416 16.986 20.9736 16.8053 20.9874C16.6406 21 16.4467 21 16.2429 21H7.75724C7.55342 21 7.35942 21 7.19474 20.9874C7.01407 20.9736 6.81227 20.9416 6.60659 20.8476C6.31312 20.7135 6.06351 20.4978 5.88848 20.2251C5.76625 20.0347 5.70604 19.8392 5.66676 19.6622C5.63095 19.5007 5.6035 19.3084 5.57464 19.1063L5.5713 19.0829C5.57083 19.0796 5.57039 19.0764 5.56996 19.0731L4.9035 14.4078C3.64416 13.8666 3 12.5911 3 11.3144C3 10.0905 3.71028 9.05095 4.7149 8.49069C4.76564 8.46239 4.7988 8.42839 4.81597 8.40264C4.82469 8.38956 4.82768 8.38141 4.82858 8.37821ZM6.48947 14.6L7.09854 18.8635C7.09901 18.8667 7.09945 18.87 7.09987 18.8733C7.13255 19.1019 7.15182 19.2325 7.17301 19.328C7.18192 19.3682 7.18873 19.3898 7.19203 19.3992C7.2044 19.416 7.22063 19.4301 7.23979 19.4403C7.24946 19.4423 7.2717 19.4459 7.31259 19.4491C7.41108 19.4566 7.54488 19.4571 7.78084 19.4571H9.40002V14.6H6.48947ZM10.9429 14.6V19.4571H13.0572V14.6H10.9429ZM14.6 14.6V19.4571H16.2192C16.4552 19.4571 16.589 19.4566 16.6874 19.4491C16.7283 19.4459 16.7505 19.4423 16.7602 19.4403C16.7791 19.4302 16.7953 19.4161 16.8078 19.3991C16.8111 19.3898 16.818 19.3681 16.827 19.3275C16.8485 19.2307 16.8681 19.0977 16.9015 18.8635L17.5106 14.6H14.6ZM18.212 13.0571C18.9567 12.62 19.4571 11.5472 19.4571 10.4763C19.4571 9.43717 18.758 8.49594 17.6817 8.09357C17.0881 7.87164 16.7143 7.30311 16.7143 6.70491C16.7143 6.03547 16.1008 5.3808 15.2 5.3808C15.056 5.3808 14.9179 5.39833 14.7878 5.43058C14.2602 5.5613 13.5895 5.55561 13.0212 5.20637C12.3427 4.78948 11.5205 4.54286 10.6286 4.54286C8.21287 4.54286 6.37143 6.32304 6.37143 8.38095C6.37143 9.04722 5.94819 9.56947 5.46636 9.83818C4.88898 10.1602 4.54286 10.7168 4.54286 11.3144C4.54286 12.1774 4.99103 12.8478 5.70035 13.0571H18.212ZM16.8057 19.4048C16.8054 19.4052 16.8056 19.4048 16.8057 19.4048V19.4048Z" fill="black" fill-opacity="0.8"/>
</svg>
