<svg width="24" height="24" viewBox="0 0 24 24" fill="none" xmlns="http://www.w3.org/2000/svg">
<g clip-path="url(#clip0_8_12776)">
<path d="M3.56641 21.4375H9.89453V19.8652H3.58594C3.09766 19.8652 2.72331 19.7366 2.46289 19.4795C2.20248 19.2224 2.07227 18.8399 2.07227 18.332V6.56445C2.07227 6.05664 2.2041 5.67415 2.46777 5.41699C2.73144 5.15983 3.10417 5.03125 3.58594 5.03125H9.89453V3.45898H3.56641C2.54427 3.45898 1.77767 3.71126 1.2666 4.21582C0.755534 4.72038 0.5 5.47722 0.5 6.48633V18.4102C0.5 19.4193 0.755534 20.1761 1.2666 20.6807C1.77767 21.1852 2.54427 21.4375 3.56641 21.4375ZM14.1328 21.4375H20.4609C21.483 21.4375 22.2496 21.1852 22.7607 20.6807C23.2718 20.1761 23.5273 19.4193 23.5273 18.4102V6.48633C23.5273 5.47722 23.2734 4.72038 22.7656 4.21582C22.2578 3.71126 21.4896 3.45898 20.4609 3.45898H14.1328V5.03125H20.4414C20.9232 5.03125 21.2959 5.15983 21.5596 5.41699C21.8233 5.67415 21.9551 6.05664 21.9551 6.56445V18.332C21.9551 18.8399 21.8249 19.2224 21.5645 19.4795C21.304 19.7366 20.9297 19.8652 20.4414 19.8652H14.1328V21.4375ZM12.0137 24.377C12.2285 24.377 12.414 24.2989 12.5703 24.1426C12.7266 23.9863 12.8047 23.8008 12.8047 23.5859V1.28125C12.8047 1.06641 12.7266 0.882487 12.5703 0.729492C12.414 0.576497 12.2285 0.5 12.0137 0.5C11.7988 0.5 11.6149 0.576497 11.4619 0.729492C11.3089 0.882487 11.2324 1.06641 11.2324 1.28125V23.5859C11.2324 23.8008 11.3089 23.9863 11.4619 24.1426C11.6149 24.2989 11.7988 24.377 12.0137 24.377ZM4.80664 13.6445C5.13867 13.6445 5.41862 13.5257 5.64648 13.2881C5.87435 13.0504 5.98828 12.7656 5.98828 12.4336C5.98828 12.1015 5.87435 11.8167 5.64648 11.5791C5.41862 11.3415 5.13867 11.2227 4.80664 11.2227C4.47461 11.2227 4.18978 11.3415 3.95215 11.5791C3.71452 11.8167 3.5957 12.1015 3.5957 12.4336C3.5957 12.7656 3.71452 13.0504 3.95215 13.2881C4.18978 13.5257 4.47461 13.6445 4.80664 13.6445ZM8.32227 13.6445C8.6543 13.6445 8.93587 13.5257 9.16699 13.2881C9.39811 13.0504 9.51367 12.7656 9.51367 12.4336C9.51367 12.1015 9.39811 11.8167 9.16699 11.5791C8.93587 11.3415 8.6543 11.2227 8.32227 11.2227C7.99674 11.2227 7.71517 11.3415 7.47754 11.5791C7.23991 11.8167 7.12109 12.1015 7.12109 12.4336C7.12109 12.7656 7.23991 13.0504 7.47754 13.2881C7.71517 13.5257 7.99674 13.6445 8.32227 13.6445ZM15.2754 14.4258C15.2689 14.5755 15.3291 14.6683 15.4561 14.7041C15.583 14.7399 15.6921 14.7122 15.7832 14.6211L16.9453 13.4785L18.2344 16.6621C18.2539 16.7272 18.3011 16.7761 18.376 16.8086C18.4509 16.8411 18.5208 16.8444 18.5859 16.8184L19.3281 16.5156C19.3932 16.4961 19.4372 16.4505 19.46 16.3789C19.4827 16.3073 19.4746 16.2357 19.4355 16.1641L18.0684 13.0098L19.7188 12.9609C19.8555 12.9609 19.9499 12.9039 20.002 12.79C20.0541 12.6761 20.028 12.567 19.9238 12.4629L15.8125 8.22461C15.7148 8.12695 15.6107 8.09765 15.5 8.13672C15.3893 8.17578 15.334 8.26693 15.334 8.41016L15.2754 14.4258Z" fill="black" fill-opacity="0.8"/>
</g>
<defs>
<clipPath id="clip0_8_12776">
<rect width="24" height="24" fill="white"/>
</clipPath>
</defs>
</svg>
