<svg width="24" height="24" viewBox="0 0 24 24" fill="none" xmlns="http://www.w3.org/2000/svg">
<path fill-rule="evenodd" clip-rule="evenodd" d="M3.35843 2.53846C2.87722 2.53846 2.41369 2.73284 2.07037 3.0821C1.72672 3.43171 1.53191 3.90795 1.53191 4.40659V13.1972C1.53461 14.8609 2.18556 16.4538 3.33906 17.6272C4.49235 18.8005 6.05373 19.459 7.68042 19.4615H16.3196C17.9463 19.459 19.5076 18.8005 20.6609 17.6272C21.8146 16.4536 22.4655 14.8606 22.4681 13.1966V4.40659C22.4681 3.90795 22.2733 3.43171 21.9296 3.0821C21.5863 2.73284 21.1228 2.53846 20.6416 2.53846C20.1604 2.53846 19.6968 2.73284 19.3535 3.0821C19.0099 3.43171 18.8151 3.90795 18.8151 4.40659C18.8151 4.83143 18.4721 5.17582 18.0491 5.17582H5.9509C5.52787 5.17582 5.18494 4.83143 5.18494 4.40659C5.18494 3.90795 4.99014 3.43171 4.64649 3.0821C4.30316 2.73284 3.83964 2.53846 3.35843 2.53846ZM0.980178 2.00129C1.60922 1.36135 2.46451 1 3.35843 1C4.25235 1 5.10764 1.36135 5.73668 2.00129C6.18321 2.45555 6.48988 3.0237 6.63012 3.63736H17.3699C17.5101 3.0237 17.8168 2.45555 18.2633 2.00129C18.8924 1.36135 19.7476 1 20.6416 1C21.5355 1 22.3908 1.36135 23.0198 2.00129C23.6485 2.64089 24 3.50629 24 4.40659V13.199C23.9968 15.2638 23.1892 17.245 21.7511 18.7081C20.3127 20.1714 18.3606 20.9968 16.322 21H7.678C5.63944 20.9968 3.6873 20.1714 2.24886 18.7081C0.810752 17.245 0.00316484 15.2638 9.13092e-07 13.199L0 4.40659C0 3.50629 0.351464 2.64089 0.980178 2.00129ZM7.46099 8.69231C5.96088 8.69231 4.59574 10.097 4.59574 12.0256V13.0513C4.59574 14.9799 5.96088 16.3846 7.46099 16.3846H16.539C18.0391 16.3846 19.4043 14.9799 19.4043 13.0513V12.0256C19.4043 10.097 18.0391 8.69231 16.539 8.69231H7.46099ZM3.06383 12.0256C3.06383 9.4227 4.95019 7.15385 7.46099 7.15385H16.539C19.0498 7.15385 20.9362 9.4227 20.9362 12.0256V13.0513C20.9362 15.6542 19.0498 17.9231 16.539 17.9231H7.46099C4.95019 17.9231 3.06383 15.6542 3.06383 13.0513V12.0256ZM8.42553 11.7692C8.00251 11.7692 7.65957 12.1136 7.65957 12.5385C7.65957 12.9633 8.00251 13.3077 8.42553 13.3077C8.84856 13.3077 9.19149 12.9633 9.19149 12.5385C9.19149 12.1136 8.84856 11.7692 8.42553 11.7692ZM6.12766 12.5385C6.12766 11.264 7.15645 10.2308 8.42553 10.2308C9.69461 10.2308 10.7234 11.264 10.7234 12.5385C10.7234 13.813 9.69461 14.8462 8.42553 14.8462C7.15645 14.8462 6.12766 13.813 6.12766 12.5385ZM15.5745 11.7692C15.1514 11.7692 14.8085 12.1136 14.8085 12.5385C14.8085 12.9633 15.1514 13.3077 15.5745 13.3077C15.9975 13.3077 16.3404 12.9633 16.3404 12.5385C16.3404 12.1136 15.9975 11.7692 15.5745 11.7692ZM13.2766 12.5385C13.2766 11.264 14.3054 10.2308 15.5745 10.2308C16.8435 10.2308 17.8723 11.264 17.8723 12.5385C17.8723 13.813 16.8435 14.8462 15.5745 14.8462C14.3054 14.8462 13.2766 13.813 13.2766 12.5385Z" fill="black" fill-opacity="0.8"/>
</svg>
