<svg width="24" height="24" viewBox="0 0 24 24" fill="none" xmlns="http://www.w3.org/2000/svg">
<path fill-rule="evenodd" clip-rule="evenodd" d="M9.15375 4.8837C7.37124 6.58496 5.37143 9.51533 5.37143 13.3883C5.37143 16.7857 8.29642 19.6154 12 19.6154C15.7036 19.6154 18.6286 16.7857 18.6286 13.3883C18.6286 10.3724 17.0935 7.95237 15.9084 6.66982C15.5494 7.43708 15.0316 8.3313 14.3775 9.07153C13.6667 9.87594 12.7001 10.6027 11.5221 10.6206C10.7237 10.7116 9.72621 10.3926 9.18954 9.27599C8.73567 8.33168 8.66515 6.91609 9.15375 4.8837ZM10.2604 3.21391C10.6297 3.48563 10.8244 3.97914 10.6789 4.48439C9.99944 6.84314 10.1395 8.08082 10.4234 8.67151C10.6704 9.18545 11.0668 9.2857 11.3866 9.24248L11.4319 9.23636H11.4776C12.0981 9.23636 12.7369 8.84826 13.3541 8.14978C13.9593 7.46485 14.4512 6.58261 14.7751 5.84276C15.0728 5.16257 16.0222 4.82371 16.6542 5.45739C18.0154 6.82228 20 9.688 20 13.3883C20 17.6339 16.3756 21 12 21C7.62444 21 4 17.6339 4 13.3883C4 8.50039 6.81259 4.99259 8.90141 3.26344C9.33035 2.90835 9.87817 2.93278 10.2604 3.21391Z" fill="black" fill-opacity="0.8"/>
</svg>
