<svg width="24" height="24" viewBox="0 0 24 24" fill="none" xmlns="http://www.w3.org/2000/svg">
<path fill-rule="evenodd" clip-rule="evenodd" d="M12.9008 2.81024C13.5912 2.388 14.4884 2.36742 15.2546 2.93121C17.6998 4.73048 20.5 7.93779 20.5 12.4878C20.5 16.0467 18.9972 18.3353 17.0839 19.7095C15.9084 20.5537 14.5943 21.0427 13.4088 21.2903C12.9719 21.4413 12.5514 21.5 12.2144 21.5C12.12 21.5 12.0193 21.4963 11.9134 21.4882C11.763 21.4962 11.618 21.5 11.4793 21.5C10.1368 21.5 8.15307 21.0472 6.49024 19.6824C4.79797 18.2933 3.5 16.009 3.5 12.4878C3.5 9.61117 4.99357 7.67646 6.39925 6.58539C6.98447 6.13116 7.68576 6.1236 8.24068 6.43187C8.77737 6.73002 9.15348 7.30472 9.22144 7.97975L9.3003 8.7631C9.33062 9.06419 9.48192 9.31409 9.64001 9.43574C9.71419 9.49283 9.7744 9.51076 9.81447 9.51383C9.84829 9.51642 9.90084 9.51178 9.97896 9.46012C10.5791 9.06331 11.0348 8.34952 11.3414 7.50951C11.6451 6.67727 11.7703 5.80783 11.7703 5.21574V4.91315C11.7703 4.00362 12.2246 3.22383 12.9008 2.81024ZM13.0397 19.9353C12.6485 20.0129 12.275 20.0602 11.9331 20.0824C11.4884 20.0365 10.9281 19.8821 10.46 19.5556C9.92271 19.1807 9.47297 18.5608 9.47297 17.4744C9.47297 16.1633 10.2702 15.1675 11.1176 14.5297C11.12 14.5392 11.1216 14.551 11.1216 14.5656V14.5758C11.1216 14.7887 11.1216 15.1108 11.161 15.446C11.2002 15.7793 11.2845 16.1891 11.4922 16.5495C11.637 16.8007 11.8595 17.0132 12.1616 17.1038C12.4584 17.1928 12.7414 17.1367 12.9619 17.0307C13.3809 16.8293 13.6806 16.4087 13.8063 15.9651C14.185 16.279 14.527 16.7696 14.527 17.4744C14.527 18.5996 14.1158 19.2228 13.6654 19.5819C13.468 19.7394 13.2519 19.8544 13.0397 19.9353ZM15.6918 18.9499C15.8948 18.832 16.0944 18.7035 16.289 18.5637C17.8472 17.4446 19.1216 15.5777 19.1216 12.4878C19.1216 8.57282 16.7121 5.73452 14.4468 4.06764C14.1485 3.84808 13.8501 3.86599 13.611 4.01225C13.3577 4.16718 13.1486 4.48592 13.1486 4.91315V5.21574C13.1486 5.97176 12.9952 7.00674 12.6335 7.99778C12.2746 8.98104 11.6778 10.0094 10.7301 10.6361C10.0555 11.0822 9.32789 10.954 8.80854 10.5543C8.3183 10.1771 7.99483 9.55891 7.9291 8.90602L7.85023 8.12267C7.82651 7.88701 7.70099 7.72995 7.58015 7.66282C7.47754 7.60582 7.36539 7.59945 7.23526 7.70046C6.07075 8.60433 4.87838 10.163 4.87838 12.4878C4.87838 15.6154 6.01044 17.4866 7.3557 18.5908C7.721 18.8906 8.10654 19.1375 8.49617 19.3384C8.24515 18.8248 8.09459 18.2072 8.09459 17.4744C8.09459 15.5077 9.30772 14.1339 10.3442 13.3676C10.8154 13.0192 11.3819 13.0297 11.8143 13.296C12.2317 13.553 12.5 14.0284 12.5 14.5656C12.5 14.7851 12.5007 15.0332 12.5296 15.2794C12.5344 15.3198 12.5397 15.3585 12.5456 15.3955C12.6928 15.0509 12.9634 14.7836 13.2837 14.6424C13.668 14.4729 14.1567 14.4763 14.5649 14.7886C15.2077 15.2804 15.9054 16.1634 15.9054 17.4744C15.9054 18.0296 15.8282 18.5199 15.6918 18.9499Z" fill="black" fill-opacity="0.8"/>
</svg>
