<svg width="24" height="24" viewBox="0 0 24 24" fill="none" xmlns="http://www.w3.org/2000/svg">
<path fill-rule="evenodd" clip-rule="evenodd" d="M9.4945 4.10931C9.86386 3.17834 11.081 2.60274 12.0249 3.32704C13.5974 4.53369 15.5698 6.30768 17.1563 8.33679C18.7286 10.3476 20 12.708 20 15.0706C20 17.1827 19.3506 18.7523 18.4107 19.8764C17.4796 20.9898 16.2966 21.6274 15.2746 21.9478C14.7498 22.1123 14.2697 21.8699 14.0366 21.4757C13.8168 21.1042 13.8157 20.6102 14.0903 20.2126C14.8741 19.0779 15.7029 17.4461 15.7029 15.9916C15.7029 15.2699 15.3941 14.4157 14.8954 13.5391C14.5203 12.8799 14.0607 12.2478 13.6131 11.7057C13.5202 12.9977 13.2414 14.6212 12.3766 15.9636C11.9837 16.5736 11.1101 16.6418 10.645 16.0493C10.4998 15.8643 10.3564 15.6611 10.2252 15.4752C10.2173 15.464 10.2094 15.4528 10.2016 15.4418C10.1298 15.3401 10.0616 15.2439 9.99554 15.1535C9.36857 15.7825 8.78476 16.5351 8.78476 17.3731C8.78476 18.1133 9.15153 19.1253 9.58535 19.9827C9.81999 20.4464 9.72189 20.9604 9.43946 21.2971C9.13913 21.655 8.59256 21.8391 8.07377 21.5365C6.29631 20.5001 4 18.2864 4 15.0706C4 14.1984 4.29357 13.2963 4.70427 12.4151C5.11775 11.528 5.67844 10.6037 6.26729 9.68029C6.47129 9.36038 6.67832 9.04082 6.88499 8.7218C7.89487 7.16294 8.89625 5.6172 9.4945 4.10931ZM10.9927 4.40299C10.899 4.43567 10.8107 4.51446 10.768 4.62201C10.114 6.27042 9.0195 7.95778 8.00944 9.51498C7.80863 9.82456 7.61116 10.129 7.42115 10.427C6.8367 11.3435 6.31814 12.2031 5.94569 13.0023C5.57046 13.8073 5.37143 14.4937 5.37143 15.0706C5.37143 17.1838 6.6574 18.8247 8.00737 19.8397C7.68316 19.065 7.41333 18.1716 7.41333 17.3731C7.41333 15.7791 8.60133 14.5759 9.26532 13.9425C9.69535 13.5323 10.4378 13.4956 10.8706 14.0335C11.0271 14.2281 11.1801 14.444 11.3191 14.641L11.3357 14.6644C11.3747 14.7197 11.4127 14.7735 11.4499 14.8258C12.0613 13.6521 12.2325 12.2206 12.2753 11.0423C12.293 10.5575 12.5913 10.174 12.9826 10.0137C13.3823 9.84989 13.8788 9.92204 14.2204 10.3027L13.7117 10.7659L14.2204 10.3027C14.8296 10.9817 15.5315 11.879 16.0852 12.8521C16.6315 13.8122 17.0743 14.9167 17.0743 15.9916C17.0743 17.5505 16.3723 19.1323 15.6628 20.3097C16.259 20.0156 16.8603 19.5861 17.3618 18.9863C18.0811 18.1261 18.6286 16.8768 18.6286 15.0706C18.6286 13.1764 17.5886 11.1223 16.079 9.19161C14.5836 7.27919 12.7036 5.58455 11.1938 4.42601C11.1439 4.38766 11.0793 4.37281 10.9927 4.40299Z" fill="black" fill-opacity="0.8"/>
</svg>
