<svg width="24" height="24" viewBox="0 0 24 24" fill="none" xmlns="http://www.w3.org/2000/svg">
<path d="M10.1395 9.67442C10.1395 10.445 9.72306 11.0698 9.2093 11.0698C8.69555 11.0698 8.27907 10.445 8.27907 9.67442C8.27907 8.90379 8.69555 8.27907 9.2093 8.27907C9.72306 8.27907 10.1395 8.90379 10.1395 9.67442Z" fill="black" fill-opacity="0.8"/>
<path d="M14.7907 11.0698C15.3045 11.0698 15.7209 10.445 15.7209 9.67442C15.7209 8.90379 15.3045 8.27907 14.7907 8.27907C14.2769 8.27907 13.8605 8.90379 13.8605 9.67442C13.8605 10.445 14.2769 11.0698 14.7907 11.0698Z" fill="black" fill-opacity="0.8"/>
<path d="M9.62474 14.2302C9.31519 14.0008 8.87825 14.0657 8.6488 14.3752C8.41935 14.6848 8.48429 15.1217 8.79384 15.3512C9.6984 16.0217 10.8047 16.4186 12 16.4186C13.1953 16.4186 14.3016 16.0217 15.2061 15.3512C15.5157 15.1217 15.5806 14.6848 15.3512 14.3752C15.1217 14.0657 14.6848 14.0008 14.3752 14.2302C13.6977 14.7324 12.8799 15.0233 12 15.0233C11.1201 15.0233 10.3023 14.7324 9.62474 14.2302Z" fill="black" fill-opacity="0.8"/>
<path fill-rule="evenodd" clip-rule="evenodd" d="M12 2C6.45782 2 2 6.62196 2 12.2796V19.1842C2 20.9019 3.77903 22.0894 5.34195 21.2844C5.97605 20.9579 6.73011 21.0054 7.32239 21.4121C8.4638 22.196 9.9548 22.196 11.0962 21.4121L11.4243 21.1869C11.7741 20.9466 12.2259 20.9466 12.5757 21.1869L12.9038 21.4121C14.0452 22.196 15.5362 22.196 16.6776 21.4121C17.2699 21.0054 18.024 20.9579 18.658 21.2844C20.221 22.0894 22 20.9019 22 19.1842V12.2796C22 6.62196 17.5422 2 12 2ZM3.39535 12.2796C3.39535 7.35335 7.26712 3.39535 12 3.39535C16.7329 3.39535 20.6047 7.35335 20.6047 12.2796V19.1842C20.6047 19.9267 19.8702 20.3392 19.2969 20.044C18.2044 19.4813 16.9016 19.5656 15.8877 20.2619C15.2222 20.7189 14.3592 20.7189 13.6937 20.2619L13.3656 20.0366C12.5399 19.4696 11.4601 19.4696 10.6344 20.0366L10.3063 20.2619C9.64081 20.7189 8.7778 20.7189 8.11228 20.2619C7.09836 19.5656 5.79559 19.4813 4.70307 20.044C4.12976 20.3392 3.39535 19.9267 3.39535 19.1842V12.2796Z" fill="black" fill-opacity="0.8"/>
</svg>
