<svg width="24" height="24" viewBox="0 0 24 24" fill="none" xmlns="http://www.w3.org/2000/svg">
<path d="M10.1395 10.6047C10.1395 11.3753 9.72306 12 9.2093 12C8.69555 12 8.27907 11.3753 8.27907 10.6047C8.27907 9.83402 8.69555 9.2093 9.2093 9.2093C9.72306 9.2093 10.1395 9.83402 10.1395 10.6047Z" fill="black" fill-opacity="0.8"/>
<path d="M15.7209 10.6047C15.7209 11.3753 15.3045 12 14.7907 12C14.2769 12 13.8605 11.3753 13.8605 10.6047C13.8605 9.83402 14.2769 9.2093 14.7907 9.2093C15.3045 9.2093 15.7209 9.83402 15.7209 10.6047Z" fill="black" fill-opacity="0.8"/>
<path fill-rule="evenodd" clip-rule="evenodd" d="M12 2C6.45782 2 2 6.62196 2 12.2796V19.1842C2 20.9019 3.77903 22.0894 5.34195 21.2844C5.97605 20.9579 6.73011 21.0054 7.32239 21.4121C8.4638 22.196 9.9548 22.196 11.0962 21.4121L11.4243 21.1869C11.7741 20.9466 12.2259 20.9466 12.5757 21.1869L12.9038 21.4121C14.0452 22.196 15.5362 22.196 16.6776 21.4121C17.2699 21.0054 18.024 20.9579 18.658 21.2844C20.221 22.0894 22 20.9019 22 19.1842V12.2796C22 6.62196 17.5422 2 12 2ZM3.39535 12.2796C3.39535 7.35335 7.26712 3.39535 12 3.39535C16.7329 3.39535 20.6047 7.35335 20.6047 12.2796V19.1842C20.6047 19.9267 19.8702 20.3392 19.2969 20.044C18.2044 19.4813 16.9016 19.5656 15.8877 20.2619C15.2222 20.7189 14.3592 20.7189 13.6937 20.2619L13.3656 20.0366C12.5399 19.4696 11.4601 19.4696 10.6344 20.0366L10.3063 20.2619C9.64081 20.7189 8.7778 20.7189 8.11228 20.2619C7.09836 19.5656 5.79559 19.4813 4.70307 20.044C4.12976 20.3392 3.39535 19.9267 3.39535 19.1842V12.2796Z" fill="black" fill-opacity="0.8"/>
</svg>
