<svg width="24" height="24" viewBox="0 0 24 24" fill="none" xmlns="http://www.w3.org/2000/svg">
<path fill-rule="evenodd" clip-rule="evenodd" d="M6.66703 4H17.3334C17.8196 3.99999 18.2298 3.99998 18.5658 4.02711C18.9174 4.0555 19.2546 4.11731 19.5759 4.27906C20.0637 4.52459 20.4634 4.91748 20.7146 5.40445C20.8803 5.72588 20.9435 6.06341 20.9725 6.4131C21 6.74623 21 7.15224 21 7.6306V16.3591C21 16.7115 21 17.0227 20.9897 17.2921C21.0088 17.4086 21.0012 17.528 20.9677 17.6407C20.9367 17.9725 20.8709 18.2917 20.7146 18.5948C20.4638 19.081 20.0645 19.4752 19.5759 19.7211C19.2548 19.8828 18.918 19.9445 18.5667 19.9729C18.2312 20 17.8217 20 17.3365 20H6.66404C6.17877 20 5.76908 20 5.43338 19.9729C5.0821 19.9446 4.74498 19.8828 4.42379 19.7211C3.93473 19.475 3.53615 19.0805 3.28564 18.5948C3.00092 18.0428 3.00056 17.5069 3.00001 16.6908L3 7.6336C2.99999 7.15424 2.99998 6.74758 3.02756 6.41401C3.0565 6.0639 3.11974 5.7261 3.28564 5.40445C3.53658 4.91792 3.93557 4.52481 4.42379 4.27906C4.7452 4.11727 5.0826 4.05548 5.4343 4.0271C5.77045 3.99998 6.18078 3.99999 6.66703 4ZM5.55795 5.57051C5.29963 5.59135 5.18524 5.62801 5.1155 5.66311C4.91558 5.76374 4.75551 5.92294 4.65582 6.11622C4.62242 6.18098 4.58601 6.28951 4.56513 6.54205C4.54348 6.80394 4.54286 7.14587 4.54286 7.66469V14.537L7.54264 10.9909C7.54681 10.986 7.55103 10.9811 7.55532 10.9763L7.56903 10.9605C7.74613 10.7563 7.91017 10.5672 8.06003 10.422C8.22063 10.2664 8.42124 10.1037 8.68778 10.0103C9.05786 9.88073 9.46125 9.88386 9.82889 10.0183C10.0941 10.1153 10.2925 10.2807 10.4512 10.4387C10.5994 10.5863 10.7613 10.7782 10.9362 10.9856L13.3962 13.9019C13.5811 14.1212 13.6895 14.2486 13.7763 14.3355C13.8129 14.3721 13.8349 14.3902 13.845 14.3979C13.8684 14.4048 13.8949 14.4061 13.9221 14.4002C13.9327 14.3937 13.9569 14.3774 13.9983 14.3429C14.0935 14.2634 14.2141 14.1452 14.42 13.9418L14.8935 13.4741C15.0768 13.293 15.2472 13.1246 15.4014 12.9962C15.5672 12.8581 15.7704 12.7171 16.0312 12.6427C16.3967 12.5385 16.7857 12.5612 17.1351 12.7038C17.3862 12.8062 17.5726 12.9684 17.7225 13.1241C17.8621 13.2691 18.0134 13.456 18.1761 13.6569L19.4571 15.2389V7.66173C19.4571 7.14389 19.4565 6.80262 19.4349 6.5412C19.414 6.28913 19.3777 6.18083 19.3444 6.11622C19.2449 5.92337 19.0846 5.76396 18.8842 5.66311C18.8144 5.62797 18.7001 5.59134 18.442 5.57051C18.1753 5.54897 17.8276 5.54839 17.303 5.54839H6.69732C6.17275 5.54839 5.82488 5.54897 5.55795 5.57051ZM19.4138 17.6404L16.9937 14.652C16.8088 14.4235 16.7001 14.2905 16.6129 14.2C16.5754 14.161 16.5529 14.142 16.5428 14.1341C16.5169 14.1257 16.4897 14.1243 16.4643 14.1294C16.4534 14.1362 16.4286 14.1528 16.3865 14.1879C16.2893 14.2688 16.1663 14.3894 15.9568 14.5963L15.4829 15.0645C15.3033 15.242 15.1358 15.4074 14.9843 15.5338C14.8207 15.6702 14.6206 15.8094 14.3639 15.8843C14.0073 15.9882 13.6234 15.9738 13.2724 15.8363C13.0236 15.7388 12.8371 15.5821 12.6871 15.4321C12.5483 15.2933 12.3974 15.1144 12.2363 14.9233L9.7764 12.0072C9.57701 11.7708 9.45896 11.6319 9.36444 11.5378C9.32357 11.4971 9.29908 11.4773 9.28807 11.4691C9.26203 11.462 9.23461 11.4619 9.2088 11.4684C9.19765 11.4765 9.17294 11.496 9.13166 11.536C9.03641 11.6282 8.91738 11.7643 8.71698 11.9953L4.54411 16.928C4.55043 17.6177 4.58087 17.7377 4.65582 17.8831C4.75594 18.0772 4.91642 18.2369 5.1155 18.3371C5.18508 18.3721 5.29925 18.4087 5.55709 18.4295C5.82354 18.451 6.17075 18.4516 6.69432 18.4516H17.3061C17.8297 18.4516 18.1767 18.451 18.4429 18.4295C18.7005 18.4087 18.8145 18.3721 18.8842 18.3371C19.0837 18.2367 19.2445 18.0767 19.3444 17.8831C19.3687 17.8359 19.3938 17.7674 19.4138 17.6404ZM13.0571 9.29032C13.0571 8.35246 13.8234 7.6129 14.7429 7.6129C15.6624 7.6129 16.4286 8.35246 16.4286 9.29032C16.4286 10.2282 15.6624 10.9677 14.7429 10.9677C13.8234 10.9677 13.0571 10.2282 13.0571 9.29032ZM14.7429 9.16129C14.6525 9.16129 14.6 9.23051 14.6 9.29032C14.6 9.35014 14.6525 9.41936 14.7429 9.41936C14.8333 9.41936 14.8857 9.35014 14.8857 9.29032C14.8857 9.23051 14.8333 9.16129 14.7429 9.16129Z" fill="black" fill-opacity="0.8"/>
<path d="M14.6 9.29032C14.6 9.23051 14.6525 9.16129 14.7429 9.16129C14.8333 9.16129 14.8857 9.23051 14.8857 9.29032C14.8857 9.35014 14.8333 9.41936 14.7429 9.41936C14.6525 9.41936 14.6 9.35014 14.6 9.29032Z" fill="black" fill-opacity="0.8"/>
</svg>
