<svg width="24" height="24" viewBox="0 0 24 24" fill="none" xmlns="http://www.w3.org/2000/svg">
<path d="M2.81716 8.49973C3.36875 8.49973 3.64454 8.22039 3.64454 7.66172V5.24987C3.64454 4.71844 3.78073 4.31817 4.05311 4.04905C4.3255 3.77993 4.71706 3.64538 5.22778 3.64538H7.69969C8.25809 3.64538 8.53728 3.36944 8.53728 2.81758C8.53728 2.27253 8.25809 2 7.69969 2H5.20736C4.13823 2 3.3364 2.26401 2.80184 2.79203C2.26728 3.32004 2 4.10866 2 5.15789V7.66172C2 8.22039 2.27239 8.49973 2.81716 8.49973ZM21.1726 8.49973C21.7242 8.49973 22 8.22039 22 7.66172V5.15789C22 4.10866 21.7327 3.32004 21.1982 2.79203C20.6636 2.26401 19.8618 2 18.7927 2H16.2901C15.7385 2 15.4627 2.27253 15.4627 2.81758C15.4627 3.36944 15.7385 3.64538 16.2901 3.64538H18.762C19.2659 3.64538 19.6574 3.77993 19.9366 4.04905C20.2158 4.31817 20.3554 4.71844 20.3554 5.24987V7.66172C20.3554 8.22039 20.6278 8.49973 21.1726 8.49973ZM5.20736 22H7.69969C8.25809 22 8.53728 21.7275 8.53728 21.1824C8.53728 20.6305 8.25809 20.3546 7.69969 20.3546H5.22778C4.71706 20.3546 4.3255 20.22 4.05311 19.951C3.78073 19.6818 3.64454 19.2815 3.64454 18.7501V16.3382C3.64454 15.7796 3.36875 15.5002 2.81716 15.5002C2.27239 15.5002 2 15.7796 2 16.3382V18.8318C2 19.8879 2.26728 20.6799 2.80184 21.2079C3.3364 21.736 4.13823 22 5.20736 22ZM16.2901 22H18.7927C19.8618 22 20.6636 21.736 21.1982 21.2079C21.7327 20.6799 22 19.8879 22 18.8318V16.3382C22 15.7796 21.7242 15.5002 21.1726 15.5002C20.6278 15.5002 20.3554 15.7796 20.3554 16.3382V18.7501C20.3554 19.2815 20.2158 19.6818 19.9366 19.951C19.6574 20.22 19.2659 20.3546 18.762 20.3546H16.2901C15.7385 20.3546 15.4627 20.6305 15.4627 21.1824C15.4627 21.7275 15.7385 22 16.2901 22ZM12.0102 5.77107C11.3769 5.77107 10.8049 5.92267 10.2942 6.22585C9.78345 6.52903 9.37658 6.93612 9.07355 7.4471C8.77051 7.95809 8.61899 8.52357 8.61899 9.14357C8.61899 9.86576 8.81477 10.513 9.20633 11.0853C9.59789 11.6576 10.1205 12.0732 10.7743 12.3321V17.5646C10.7811 17.694 10.8355 17.8064 10.9377 17.9018L11.8161 18.791C11.8706 18.8455 11.9319 18.8745 12 18.8779C12.0681 18.8812 12.1294 18.8523 12.1839 18.791L13.8693 17.1252C13.9305 17.0639 13.9611 16.9974 13.9611 16.9258C13.9611 16.8543 13.9305 16.7947 13.8693 16.747L12.8274 15.6944L14.2676 14.2738C14.3221 14.2262 14.3459 14.1665 14.3391 14.095C14.3323 14.0235 14.3017 13.9605 14.2472 13.906L12.8274 12.4752C13.6514 12.1414 14.2846 11.6866 14.7273 11.1109C15.1699 10.5352 15.3912 9.87939 15.3912 9.14357C15.3912 8.52357 15.238 7.95809 14.9316 7.4471C14.6251 6.93612 14.2165 6.52903 13.7058 6.22585C13.1951 5.92267 12.6299 5.77107 12.0102 5.77107ZM12 7.38579C12.286 7.38579 12.5294 7.48969 12.7303 7.69749C12.9312 7.90529 13.0317 8.15226 13.0317 8.43842C13.0317 8.73138 12.9312 8.98006 12.7303 9.18446C12.5294 9.38884 12.286 9.49104 12 9.49104C11.714 9.49104 11.4671 9.38884 11.2594 9.18446C11.0518 8.98006 10.9479 8.73138 10.9479 8.43842C10.9479 8.15226 11.0501 7.90529 11.2543 7.69749C11.4586 7.48969 11.7072 7.38579 12 7.38579Z" fill="black" fill-opacity="0.8"/>
</svg>
