<svg width="24" height="24" viewBox="0 0 24 24" fill="none" xmlns="http://www.w3.org/2000/svg">
<path d="M6.57633 5L18.7043 17.2588C18.8936 17.4501 18.9999 17.7094 19 17.9799C19.0001 18.2504 18.8938 18.5098 18.7046 18.7011C18.5155 18.8924 18.2588 18.9999 17.9912 19C17.7236 19.0001 17.4669 18.8927 17.2777 18.7015L14.1863 15.5762L11.808 17.9795L9.03677 15.1785V16.9597C9.03677 17.14 8.9659 17.3129 8.83976 17.4404C8.71362 17.5679 8.54254 17.6396 8.36415 17.6396C8.18576 17.6396 8.01468 17.5679 7.88854 17.4404C7.7624 17.3129 7.69153 17.14 7.69153 16.9597V14.2404C7.69134 14.0671 7.6257 13.9004 7.50801 13.7744C7.39032 13.6484 7.22948 13.5726 7.05833 13.5624C6.88719 13.5523 6.71867 13.6086 6.58721 13.7198C6.45574 13.831 6.37126 13.9888 6.35101 14.1608L6.3463 14.2404V14.9202C6.3463 15.1005 6.27543 15.2734 6.14929 15.4009C6.02315 15.5284 5.85207 15.6 5.67368 15.6C5.49529 15.6 5.32421 15.5284 5.19807 15.4009C5.07193 15.2734 5.00106 15.1005 5.00106 14.9202L5.00106 8.94714C4.97312 7.52825 5.49666 6.15483 6.4593 5.12169L6.57633 5ZM6.73843 7.0871L6.70413 7.16189C6.50212 7.61293 6.38314 8.09742 6.35302 8.59159L6.3463 8.80166L6.34563 8.88324C6.35372 9.89218 6.73248 10.8621 7.40836 11.6046L7.52741 11.7304L11.8073 16.0562L13.7101 14.1336L6.73843 7.0871Z" fill="black" fill-opacity="0.8"/>
</svg>
