<svg width="24" height="24" viewBox="0 0 24 24" fill="none" xmlns="http://www.w3.org/2000/svg">
<path d="M6.1889 5L19.1832 17.2588C19.386 17.4501 19.4999 17.7094 19.5 17.9799C19.5001 18.2504 19.3862 18.5098 19.1835 18.7011C18.9808 18.8924 18.7059 18.9999 18.4192 19C18.1324 19.0001 17.8574 18.8927 17.6547 18.7015L14.3425 15.5762L11.7942 17.9795L6.1889 12.6917C5.12958 11.6925 4.52411 10.3436 4.5007 8.93065C4.4773 7.51768 5.0378 6.1516 6.06351 5.12169L6.1889 5ZM6.36258 7.0871L6.32583 7.16189C5.97637 7.89071 5.86159 8.70033 5.99573 9.49017C6.12987 10.28 6.50703 11.0153 7.08036 11.6046L7.20792 11.7304L11.7935 16.0562L13.8323 14.1336L6.36258 7.0871Z" fill="black" fill-opacity="0.8"/>
</svg>
