<svg width="24" height="24" viewBox="0 0 24 24" fill="none" xmlns="http://www.w3.org/2000/svg">
<path fill-rule="evenodd" clip-rule="evenodd" d="M13.8461 4.38461C12.6991 4.38461 11.7692 5.31448 11.7692 6.46153C11.7692 6.8458 11.6363 7.22943 11.3984 7.52729C11.1563 7.83045 10.7744 8.07692 10.2935 8.07692H8.30768C8.18023 8.07692 8.07692 8.18023 8.07692 8.30768V10.2935C8.07692 10.7744 7.83046 11.1563 7.52729 11.3984C7.22943 11.6363 6.8458 11.7692 6.46153 11.7692C5.31448 11.7692 4.38461 12.6991 4.38461 13.8461C4.38461 14.9932 5.31448 15.9231 6.46153 15.9231C6.84579 15.9231 7.22941 16.056 7.52727 16.2938C7.83045 16.5359 8.07692 16.9178 8.07692 17.3987V19.3846C8.07692 19.512 8.18023 19.6154 8.30768 19.6154L19.3846 19.6154C19.512 19.6154 19.6154 19.5121 19.6154 19.3846V17.4051C19.6119 17.3996 19.6037 17.3897 19.5864 17.3758C19.5375 17.3368 19.4596 17.3077 19.3846 17.3077C17.4728 17.3077 15.9231 15.7579 15.9231 13.8461C15.9231 11.9344 17.4728 10.3846 19.3846 10.3846C19.4596 10.3846 19.5375 10.3555 19.5863 10.3165C19.6037 10.3026 19.6119 10.2926 19.6154 10.2871L19.6154 8.30768C19.6154 8.18029 19.5121 8.07692 19.3846 8.07692H17.3987C16.9178 8.07692 16.5359 7.83045 16.2938 7.52727C16.056 7.22941 15.9231 6.84579 15.9231 6.46153C15.9231 5.31448 14.9932 4.38461 13.8461 4.38461ZM19.6176 10.2821C19.6178 10.2821 19.6176 10.2834 19.6161 10.286C19.6167 10.2833 19.6174 10.2821 19.6176 10.2821ZM19.6176 17.4102C19.6174 17.4102 19.6166 17.4089 19.6161 17.4063C19.6176 17.4089 19.6179 17.4102 19.6176 17.4102ZM10.3846 6.46153C10.3846 4.54978 11.9344 3 13.8461 3C15.7579 3 17.3077 4.54978 17.3077 6.46153C17.3077 6.53652 17.3368 6.61443 17.3758 6.6633C17.3897 6.68069 17.3996 6.68881 17.4051 6.6923H19.3846C20.2767 6.6923 21 7.41548 21 8.30768L21 10.2935C21 10.7744 20.7535 11.1563 20.4503 11.3984C20.1525 11.6363 19.7689 11.7692 19.3846 11.7692C18.2375 11.7692 17.3077 12.6991 17.3077 13.8461C17.3077 14.9932 18.2375 15.9231 19.3846 15.9231C19.7688 15.9231 20.1525 16.056 20.4503 16.2938C20.7535 16.5359 21 16.9178 21 17.3987V19.3846C21 20.2767 20.2768 21 19.3846 21L8.30768 21C7.41553 21 6.6923 20.2767 6.6923 19.3846V17.4051C6.68881 17.3996 6.68069 17.3897 6.6633 17.3758C6.61443 17.3368 6.53652 17.3077 6.46153 17.3077C4.54978 17.3077 3 15.7579 3 13.8461C3 11.9344 4.54978 10.3846 6.46153 10.3846C6.5365 10.3846 6.61441 10.3555 6.66328 10.3165C6.68068 10.3026 6.68881 10.2926 6.6923 10.2871V8.30768C6.6923 7.41553 7.41553 6.6923 8.30768 6.6923H10.2871C10.2926 6.68881 10.3026 6.68068 10.3165 6.66328C10.3555 6.61441 10.3846 6.5365 10.3846 6.46153ZM10.2821 6.69456C10.2821 6.69434 10.2833 6.6936 10.286 6.69302C10.2834 6.6945 10.2821 6.69479 10.2821 6.69456ZM6.69456 10.2821C6.69479 10.2821 6.6945 10.2834 6.69302 10.286C6.6936 10.2833 6.69434 10.2821 6.69456 10.2821ZM6.69456 17.4102C6.69434 17.4102 6.6936 17.4089 6.69303 17.4063C6.69451 17.4089 6.69479 17.4102 6.69456 17.4102ZM17.4102 6.69457C17.4102 6.69479 17.4088 6.69451 17.4063 6.69303C17.4089 6.6936 17.4102 6.69434 17.4102 6.69457Z" fill="black" fill-opacity="0.8"/>
</svg>
