<svg width="24" height="24" viewBox="0 0 24 24" fill="none" xmlns="http://www.w3.org/2000/svg">
<path fill-rule="evenodd" clip-rule="evenodd" d="M3.5696 7.21638L4.23685 8.25925C6.4952 6.64893 9.20883 5.77695 12 5.77695C14.7912 5.77695 17.5048 6.64893 19.7631 8.25925L20.4304 7.21638C17.9679 5.47618 15.0219 4.54054 12 4.54054C8.97813 4.54054 6.03206 5.47618 3.5696 7.21638ZM20.5881 9.82554C20.6033 9.80424 20.6173 9.78239 20.63 9.76008L21.7675 7.98222C21.7679 7.98164 21.7683 7.98106 21.7686 7.98048C21.974 7.66131 22.0467 7.27434 21.9705 6.90194C21.8949 6.5325 21.679 6.20782 21.3698 5.99483C18.6367 4.04705 15.3603 3 12 3C8.63969 3 5.36329 4.04705 2.63025 5.99482C2.321 6.20781 2.10512 6.53249 2.02953 6.90194C1.95331 7.27442 2.02605 7.66148 2.2315 7.9807C2.23183 7.98121 2.23215 7.98172 2.23248 7.98222L3.36998 9.76007C3.38271 9.78238 3.39667 9.80424 3.41187 9.82554L5.19378 12.6106C5.19706 12.6158 5.20041 12.6211 5.20382 12.6263L10.7644 21.3171C10.7651 21.3182 10.7659 21.3194 10.7666 21.3205C10.8979 21.5286 11.0797 21.6997 11.2947 21.8183C11.5108 21.9376 11.7535 22 12 22C12.2465 22 12.4892 21.9376 12.7053 21.8183C12.9203 21.6997 13.1021 21.5286 13.2334 21.3205C13.2341 21.3194 13.2349 21.3182 13.2356 21.3171L20.5881 9.82554ZM18.9321 9.55817C16.9221 8.10548 14.4966 7.31749 12 7.31749C9.50344 7.31749 7.07788 8.10548 5.06792 9.55817L5.90004 10.8587C6.00279 10.7666 6.10604 10.6834 6.20521 10.6075C6.66821 10.253 7.21912 10.0313 7.79857 9.96564C8.378 9.90002 8.96457 9.99295 9.49525 10.2346C10.026 10.4764 10.481 10.8579 10.811 11.3387C11.141 11.8195 11.3332 12.3812 11.3666 12.9634C11.4001 13.5456 11.2733 14.1256 11.0003 14.641C10.7274 15.1563 10.3187 15.5871 9.81889 15.8875C9.65356 15.9869 9.46837 16.0688 9.27555 16.1344L12 20.3926L14.0476 17.1924C13.9131 17.1026 13.7853 17.0026 13.6652 16.893C13.2967 16.5564 13.0118 16.1385 12.8337 15.6723C12.6555 15.2061 12.5891 14.7047 12.6399 14.2082C12.6906 13.7118 12.857 13.2342 13.1257 12.8136C13.3943 12.393 13.7575 12.041 14.1862 11.7854C14.6149 11.5299 15.0973 11.3776 15.595 11.3405C16.0928 11.3035 16.5924 11.3826 17.0543 11.5717C17.209 11.6351 17.358 11.7102 17.5002 11.7962L18.9321 9.55817ZM16.6697 13.0942C16.6062 13.0578 16.5401 13.0256 16.4719 12.9976C16.2307 12.8989 15.9695 12.8575 15.7091 12.8768C15.4488 12.8962 15.1968 12.9759 14.9733 13.1091C14.7498 13.2424 14.561 13.4255 14.4218 13.6435C14.2825 13.8616 14.1965 14.1086 14.1703 14.3651C14.1441 14.6215 14.1784 14.8806 14.2705 15.1217C14.3627 15.3629 14.5103 15.5797 14.702 15.7547C14.7575 15.8054 14.8162 15.8522 14.8778 15.8948L16.6697 13.0942ZM8.40266 14.7702C8.64586 14.7283 8.88151 14.6542 9.02711 14.5667C9.28769 14.41 9.49983 14.186 9.64121 13.9191C9.78256 13.6523 9.84797 13.3524 9.83072 13.0518C9.81347 12.7511 9.71417 12.4605 9.54307 12.2112C9.37194 11.9618 9.13533 11.7631 8.8583 11.637C8.58124 11.5108 8.27458 11.4621 7.97145 11.4964C7.66833 11.5307 7.38077 11.6467 7.13966 11.8313C6.9727 11.9591 6.8448 12.074 6.74884 12.1853L8.40266 14.7702ZM3.50163 7.26442L3.50319 7.26334L3.50163 7.26442Z" fill="black" fill-opacity="0.8"/>
</svg>
