<svg width="24" height="24" viewBox="0 0 24 24" fill="none" xmlns="http://www.w3.org/2000/svg">
<path fill-rule="evenodd" clip-rule="evenodd" d="M12.4516 5.45455C8.62179 5.45455 5.5676 8.41219 5.5676 12C5.5676 13.8966 6.41604 15.6107 7.78426 16.8112C9.49302 16.3961 11.5056 15.6073 13.5492 14.4805C15.9322 13.1666 17.8687 11.6628 19.1011 10.2997C18.318 7.52537 15.6523 5.45455 12.4516 5.45455ZM19.334 12.1424C18.015 13.3859 16.2692 14.6441 14.2591 15.7524C12.5945 16.6702 10.9313 17.3845 9.39941 17.8686C10.3181 18.3015 11.3538 18.5455 12.4516 18.5455C16.2306 18.5455 19.2544 15.6657 19.334 12.1424ZM7.41628 18.3813C8.8178 19.3984 10.5635 20 12.4516 20C17.0339 20 20.799 16.4454 20.799 12C20.799 11.553 20.7606 11.1142 20.6869 10.6864C21.2048 10.0335 21.5996 9.37826 21.8152 8.74892C22.0612 8.03091 22.0992 7.25939 21.696 6.59244C21.2913 5.92309 20.5742 5.57845 19.8048 5.42961C19.0652 5.28653 18.1854 5.3034 17.2336 5.4421C15.8766 4.53199 14.2261 4 12.4516 4C7.86931 4 4.1042 7.55457 4.1042 12C4.1042 12.1142 4.10669 12.2278 4.11163 12.3408C3.31897 13.164 2.70359 13.9935 2.34762 14.7787C1.96735 15.6176 1.82518 16.5497 2.30434 17.3422C2.7636 18.1019 3.62175 18.4435 4.5222 18.5568C5.35342 18.6614 6.34342 18.5908 7.41628 18.3813ZM6.03367 17.1158C5.30229 16.2738 4.74655 15.2841 4.42352 14.1989C4.09082 14.6244 3.84304 15.0207 3.68184 15.3763C3.38924 16.0217 3.4378 16.3931 3.55868 16.593C3.68196 16.7969 3.99891 17.0248 4.70603 17.1138C5.08111 17.161 5.52676 17.1628 6.03367 17.1158ZM18.7828 6.78555C19.0599 6.79088 19.308 6.81535 19.5252 6.85737C20.0782 6.96434 20.3334 7.16259 20.4416 7.34163C20.5442 7.51133 20.5953 7.79739 20.4299 8.28005C20.3652 8.46901 20.2712 8.67467 20.147 8.8949C19.8071 8.12142 19.3444 7.41108 18.7828 6.78555Z" fill="black" fill-opacity="0.8"/>
</svg>
