<svg width="24" height="24" viewBox="0 0 24 24" fill="none" xmlns="http://www.w3.org/2000/svg">
<path fill-rule="evenodd" clip-rule="evenodd" d="M22.2822 1.52067C21.1077 1.34984 18.246 1.29031 15.3355 4.20083L13.9657 5.57065C13.9655 5.57083 13.9659 5.57047 13.9657 5.57065L7.61731 11.919L12.081 16.3827L19.7992 8.66448C22.7097 5.75395 22.6502 2.89231 22.4793 1.71783L22.4781 1.70933C22.4718 1.66184 22.45 1.61774 22.4161 1.58386C22.3823 1.54998 22.3382 1.52819 22.2907 1.52186L22.2822 1.52067ZM11.4109 17.7703L6.22972 12.5891L1.36642 11.6141C1.36626 11.6141 1.36658 11.6141 1.36642 11.6141C1.06519 11.5541 0.785393 11.4134 0.557766 11.2072C0.330018 11.0008 0.162558 10.7366 0.0732528 10.4425C-0.0160523 10.1485 -0.023853 9.83567 0.0506843 9.53753C0.125222 9.23939 0.2793 8.96708 0.49648 8.74965L4.42337 4.83487C4.73646 4.51719 5.16206 4.33546 5.60817 4.32911L5.61853 4.32896L13.1497 4.32903L14.3067 3.17203C17.6255 -0.146708 20.993 -0.136305 22.4878 0.0803222C22.8501 0.129713 23.1863 0.296439 23.4449 0.555056C23.7036 0.813708 23.8703 1.14996 23.9197 1.51232C24.1363 3.00722 24.1466 6.37466 20.828 9.69329L19.671 10.8503V18.3918C19.6646 18.8379 19.4828 19.2635 19.1652 19.5765L15.2514 23.5024L15.2504 23.5035C15.0329 23.7207 14.7606 23.8748 14.4625 23.9493C14.1643 24.0239 13.8515 24.0161 13.5575 23.9267C13.2634 23.8374 12.9991 23.67 12.7928 23.4422C12.5866 23.2146 12.446 22.9352 12.386 22.6339C12.386 22.6338 12.386 22.634 12.386 22.6339L11.4109 17.7703ZM18.216 12.3052L12.8708 17.6504L13.8129 22.3498C13.8215 22.3929 13.8416 22.4328 13.8711 22.4654C13.9005 22.4979 13.9383 22.5218 13.9803 22.5346C14.0223 22.5473 14.067 22.5485 14.1096 22.5378C14.152 22.5272 14.1908 22.5053 14.2218 22.4745C14.2216 22.4746 14.2219 22.4744 14.2218 22.4745L18.1433 18.5408C18.1882 18.4968 18.2142 18.4373 18.216 18.3746V12.3052ZM11.6948 5.78399H5.62543C5.56274 5.78578 5.50311 5.8118 5.45915 5.85666L5.4532 5.86274L1.52588 9.77786C1.52576 9.77798 1.52599 9.77775 1.52588 9.77786C1.49504 9.80886 1.4728 9.84798 1.46219 9.89042C1.45155 9.93301 1.45266 9.97769 1.46542 10.0197C1.47818 10.0617 1.5021 10.0995 1.53463 10.1289C1.56717 10.1584 1.6071 10.1785 1.65016 10.1871L1.65129 10.1873L6.34955 11.1292L11.6948 5.78399ZM5.90795 15.7974C6.03602 16.1782 5.83112 16.5908 5.4503 16.7188C3.70339 17.3063 2.79116 18.7703 2.31217 20.2087C2.07485 20.9214 1.95485 21.5992 1.8947 22.1006C1.89448 22.1024 1.89427 22.1042 1.89405 22.1059C1.89584 22.1057 1.89764 22.1055 1.89943 22.1053C2.40085 22.0452 3.0786 21.9252 3.79127 21.6878C5.22965 21.2088 6.69372 20.2966 7.28118 18.5497C7.40924 18.1689 7.82177 17.964 8.20259 18.092C8.58341 18.2201 8.7883 18.6326 8.66024 19.0135C7.86549 21.3768 5.8983 22.5197 4.25096 23.0683C3.42077 23.3447 2.64206 23.4816 2.07272 23.5499C1.78699 23.5842 1.55124 23.6015 1.38459 23.6103C1.3012 23.6147 1.2349 23.6169 1.18809 23.6181C1.16468 23.6187 1.14612 23.619 1.1327 23.6191L1.11648 23.6193L1.11132 23.6193L1.1095 23.6193C1.10919 23.6193 1.10818 23.6193 1.10818 22.8918C0.380699 22.8918 0.3807 22.8915 0.3807 22.8912L0.380705 22.8887L0.380728 22.8835L0.380878 22.8673C0.381039 22.8539 0.381346 22.8353 0.381926 22.8119C0.383087 22.7651 0.385344 22.6988 0.389733 22.6154C0.398502 22.4488 0.415826 22.213 0.4501 21.9273C0.518397 21.3579 0.655286 20.5792 0.931744 19.749C1.48032 18.1017 2.6232 16.1345 4.98654 15.3398C5.36736 15.2117 5.77989 15.4166 5.90795 15.7974ZM1.10818 22.8918L0.3807 22.8912C0.3807 23.293 0.706402 23.6193 1.10818 23.6193L1.10818 22.8918Z" fill="black" fill-opacity="0.8"/>
</svg>
