<svg width="24" height="24" viewBox="0 0 24 24" fill="none" xmlns="http://www.w3.org/2000/svg">
<path fill-rule="evenodd" clip-rule="evenodd" d="M9.47976 3.52668C10.9479 2.82444 12.5998 2.82444 14.068 3.52668L20.1218 6.42237C21.0739 6.87775 21.5 7.86667 21.5 8.76925C21.5 9.67184 21.0739 10.6607 20.1218 11.1161L18.7856 11.7553V16.2696C18.7856 17.4263 18.2171 18.543 17.1824 19.1277C16.5022 19.512 15.6084 19.9746 14.6679 20.3427C13.7384 20.7065 12.7092 21 11.7737 21C10.8383 21 9.80906 20.7065 8.87957 20.3427C7.939 19.9746 7.04522 19.512 6.36509 19.1277C5.3303 18.543 4.76189 17.4263 4.76189 16.2696V11.5385C4.76189 11.5002 4.76493 11.4627 4.77077 11.4261C4.74949 11.2932 4.76594 11.1525 4.82623 11.0213C4.98531 10.6751 5.38935 10.526 5.72867 10.6883L10.0559 12.7581C11.1591 13.2858 12.3888 13.2858 13.492 12.7581L19.5458 9.86246C19.9105 9.68798 20.1429 9.27178 20.1429 8.76925C20.1429 8.26672 19.9105 7.85052 19.5458 7.67604L13.4919 4.78036C12.3887 4.2527 11.159 4.2527 10.0558 4.78036L4.00204 7.676C3.66272 7.8383 3.25868 7.68923 3.0996 7.34304C2.94052 6.99685 3.08663 6.58463 3.42596 6.42232L9.47976 3.52668ZM6.11902 12.4042V16.2696C6.11902 16.9739 6.46169 17.5995 7.02258 17.9164C7.67097 18.2828 8.50465 18.713 9.36567 19.05C10.2378 19.3913 11.0842 19.6154 11.7737 19.6154C12.4632 19.6154 13.3097 19.3913 14.1818 19.05C15.0428 18.713 15.8765 18.2828 16.5249 17.9164C17.0858 17.5995 17.4284 16.9739 17.4284 16.2696V12.4044L14.068 14.0118C12.5999 14.714 10.948 14.714 9.47984 14.0118L6.11902 12.4042Z" fill="black" fill-opacity="0.8"/>
<path d="M6.9689 8.03498C7.11653 8.38642 6.95696 8.79341 6.6125 8.94402L5.63928 9.36957C5.09393 9.60802 4.73461 9.76615 4.47055 9.91771C4.22086 10.061 4.11267 10.1681 4.04392 10.2745C3.97516 10.3809 3.92132 10.5245 3.89057 10.8151C3.85805 11.1224 3.85713 11.5217 3.85713 12.127V14.7692C3.85713 15.1516 3.55333 15.4615 3.17857 15.4615C2.80381 15.4615 2.5 15.1516 2.5 14.7692V12.0911C2.49998 11.5313 2.49997 11.0568 2.54128 10.6665C2.58524 10.2511 2.68083 9.86828 2.91093 9.51225C3.14103 9.15623 3.44823 8.91581 3.80514 8.71095C4.14056 8.51843 4.56799 8.33155 5.07235 8.11104L6.0779 7.67136C6.42236 7.52075 6.82128 7.68354 6.9689 8.03498Z" fill="black" fill-opacity="0.8"/>
</svg>
