<svg width="24" height="24" viewBox="0 0 24 24" fill="none" xmlns="http://www.w3.org/2000/svg">
<path fill-rule="evenodd" clip-rule="evenodd" d="M12 2.46667C10.0245 2.46667 8.10565 3.09106 6.53563 4.24096C4.96599 5.39057 3.83223 7.00119 3.3014 8.82455C2.77067 10.6475 2.87017 12.588 3.58556 14.3522C4.30112 16.1168 5.59541 17.6121 7.27658 18.6064C7.49965 18.7383 7.6365 18.9784 7.6365 19.2378V21.4453C7.6365 21.4603 7.64244 21.4801 7.66169 21.4987C7.68181 21.5181 7.71431 21.5333 7.75329 21.5333H9.31395V19.3333C9.31395 18.9283 9.64193 18.6 10.0465 18.6C10.4511 18.6 10.7791 18.9283 10.7791 19.3333V21.5333H13.2209V19.3333C13.2209 18.9283 13.5489 18.6 13.9535 18.6C14.3581 18.6 14.686 18.9283 14.686 19.3333V21.5333H16.2467C16.2857 21.5333 16.3182 21.5181 16.3383 21.4987C16.3576 21.4801 16.3635 21.4603 16.3635 21.4453V19.2378C16.3635 18.9784 16.5004 18.7383 16.7234 18.6064C18.4046 17.6121 19.6989 16.1168 20.4144 14.3522C21.1298 12.588 21.2293 10.6475 20.6986 8.82455C20.1678 7.00119 19.034 5.39057 17.4644 4.24096C15.8943 3.09106 13.9755 2.46667 12 2.46667ZM7.75329 23C7.34174 23 6.94218 22.8421 6.64373 22.5535C6.34442 22.264 6.17139 21.8659 6.17139 21.4453V19.6464C4.39386 18.4964 3.01471 16.8438 2.22803 14.9038C1.38885 12.8344 1.27155 10.555 1.8948 8.41418C2.51794 6.27376 3.84572 4.39376 5.67052 3.05727C7.49492 1.72106 9.71753 1 12 1C14.2825 1 16.5051 1.72106 18.3295 3.05727C20.1543 4.39376 21.4821 6.27376 22.1052 8.41418C22.7284 10.555 22.6112 12.8344 21.772 14.9038C20.9853 16.8438 19.6061 18.4964 17.8286 19.6464V21.4453C17.8286 21.8659 17.6556 22.264 17.3563 22.5535C17.0578 22.8421 16.6583 23 16.2467 23H7.75329ZM8.09302 11.2667C7.41872 11.2667 6.87209 11.8139 6.87209 12.4889C6.87209 13.1639 7.41872 13.7111 8.09302 13.7111C8.76732 13.7111 9.31395 13.1639 9.31395 12.4889C9.31395 11.8139 8.76732 11.2667 8.09302 11.2667ZM5.40698 12.4889C5.40698 11.0039 6.60956 9.8 8.09302 9.8C9.57649 9.8 10.7791 11.0039 10.7791 12.4889C10.7791 13.9739 9.57649 15.1778 8.09302 15.1778C6.60956 15.1778 5.40698 13.9739 5.40698 12.4889ZM15.907 11.2667C15.2327 11.2667 14.686 11.8139 14.686 12.4889C14.686 13.1639 15.2327 13.7111 15.907 13.7111C16.5813 13.7111 17.1279 13.1639 17.1279 12.4889C17.1279 11.8139 16.5813 11.2667 15.907 11.2667ZM13.2209 12.4889C13.2209 11.0039 14.4235 9.8 15.907 9.8C17.3904 9.8 18.593 11.0039 18.593 12.4889C18.593 13.9739 17.3904 15.1778 15.907 15.1778C14.4235 15.1778 13.2209 13.9739 13.2209 12.4889Z" fill="black" fill-opacity="0.8"/>
</svg>
