<svg width="24" height="24" viewBox="0 0 24 24" fill="none" xmlns="http://www.w3.org/2000/svg">
<path fill-rule="evenodd" clip-rule="evenodd" d="M6.75965 8.95359C7.24403 6.69561 9.29324 5 11.7477 5H12.2523C14.7068 5 16.756 6.69561 17.2404 8.95359C18.5037 9.28805 19.6021 9.7484 20.4226 10.3162C21.3209 10.9377 22 11.7745 22 12.7966C22 13.5575 21.6189 14.2211 21.0613 14.7588C20.5062 15.2941 19.7387 15.7448 18.8465 16.1087C18.837 16.1126 18.8275 16.1164 18.818 16.1203L19.6007 17.6495C19.7731 17.9863 19.6335 18.3959 19.2888 18.5643C18.9442 18.7328 18.5251 18.5963 18.3528 18.2596L17.4888 16.5715C16.094 16.9661 14.4539 17.2109 12.6977 17.2624V19.3182C12.6977 19.6947 12.3853 20 12 20C11.6147 20 11.3023 19.6947 11.3023 19.3182V17.2624C9.54605 17.2109 7.90602 16.9661 6.51118 16.5715L5.64723 18.2596C5.47486 18.5963 5.05577 18.7328 4.71116 18.5643C4.36654 18.3959 4.22691 17.9863 4.39928 17.6495L5.18199 16.1203C5.17249 16.1164 5.16301 16.1126 5.15354 16.1087C4.26131 15.7448 3.49378 15.2941 2.93867 14.7588C2.38106 14.2211 2 13.5575 2 12.7966C2 11.7745 2.67912 10.9377 3.57742 10.3162C4.39795 9.7484 5.49635 9.28805 6.75965 8.95359ZM6.71403 10.3853C5.74442 10.6749 4.95349 11.0348 4.38374 11.4291C3.65157 11.9357 3.39535 12.4143 3.39535 12.7966C3.39535 13.0833 3.53489 13.418 3.91873 13.7881C4.30506 14.1607 4.89982 14.5276 5.69098 14.8503C7.27029 15.4944 9.50045 15.909 12 15.909C14.4995 15.909 16.7297 15.4944 18.309 14.8503C19.1002 14.5276 19.6949 14.1607 20.0813 13.7881C20.4651 13.418 20.6047 13.0833 20.6047 12.7966C20.6047 12.4143 20.3484 11.9357 19.6163 11.4291C19.0465 11.0348 18.2556 10.6749 17.286 10.3853C17.2205 10.5864 17.0943 10.7943 16.8638 10.951C16.3045 11.3311 15.0191 11.8182 12 11.8182C8.98086 11.8182 7.69549 11.3311 7.13625 10.951C6.90574 10.7943 6.77945 10.5864 6.71403 10.3853ZM8.04744 9.8988C8.40752 10.0865 9.4458 10.4545 12 10.4545C14.5542 10.4545 15.5925 10.0865 15.9526 9.8988C15.908 7.93898 14.2684 6.36364 12.2523 6.36364H11.7477C9.73159 6.36364 8.09199 7.93898 8.04744 9.8988ZM15.9532 9.98711C15.9532 9.98711 15.9532 9.98671 15.9533 9.98592L15.9532 9.98711Z" fill="black" fill-opacity="0.8"/>
<path d="M12.9302 13.8636C12.9302 14.3657 12.5138 14.7727 12 14.7727C11.4862 14.7727 11.0698 14.3657 11.0698 13.8636C11.0698 13.3616 11.4862 12.9545 12 12.9545C12.5138 12.9545 12.9302 13.3616 12.9302 13.8636Z" fill="black" fill-opacity="0.8"/>
<path d="M8.27907 12.9545C8.27907 13.4566 7.86259 13.8636 7.34884 13.8636C6.83508 13.8636 6.4186 13.4566 6.4186 12.9545C6.4186 12.4525 6.83508 12.0455 7.34884 12.0455C7.86259 12.0455 8.27907 12.4525 8.27907 12.9545Z" fill="black" fill-opacity="0.8"/>
<path d="M17.5814 12.9545C17.5814 13.4566 17.1649 13.8636 16.6512 13.8636C16.1374 13.8636 15.7209 13.4566 15.7209 12.9545C15.7209 12.4525 16.1374 12.0455 16.6512 12.0455C17.1649 12.0455 17.5814 12.4525 17.5814 12.9545Z" fill="black" fill-opacity="0.8"/>
</svg>
