<svg width="24" height="24" viewBox="0 0 24 24" fill="none" xmlns="http://www.w3.org/2000/svg">
<path fill-rule="evenodd" clip-rule="evenodd" d="M11.557 2C6.27883 2 2 6.27883 2 11.557C2 12.187 2.51068 12.6977 3.14064 12.6977H11.3023V19.4419C11.3023 20.0841 10.7817 20.6047 10.1395 20.6047C9.49734 20.6047 8.97674 20.0841 8.97674 19.4419V18.5116C8.97674 18.1263 8.66438 17.814 8.27907 17.814C7.89375 17.814 7.5814 18.1263 7.5814 18.5116V19.4419C7.5814 20.8547 8.72671 22 10.1395 22C11.5524 22 12.6977 20.8547 12.6977 19.4419V12.6977H20.8594C21.4893 12.6977 22 12.187 22 11.557C22 6.27883 17.7212 2 12.443 2H11.557ZM9.06406 3.7831C5.85278 4.81207 3.50736 7.77563 3.39925 11.3023H6.80506C6.9688 9.96066 7.2944 7.95745 7.91269 6.17447C8.20934 5.31903 8.5845 4.48069 9.06406 3.7831ZM8.21125 11.3023C8.37501 10.0169 8.68226 8.21412 9.23103 6.63163C9.56705 5.66264 9.97711 4.82596 10.4631 4.24347C10.9411 3.67059 11.4443 3.39535 12 3.39535C12.5557 3.39535 13.0589 3.67059 13.5369 4.24347C14.0229 4.82596 14.433 5.66264 14.769 6.63163C15.3178 8.21412 15.625 10.0169 15.7888 11.3023H8.21125ZM17.195 11.3023C17.0312 9.96066 16.7056 7.95745 16.0873 6.17447C15.7907 5.31903 15.4155 4.4807 14.936 3.7831C18.1472 4.81208 20.4926 7.77564 20.6008 11.3023H17.195Z" fill="black" fill-opacity="0.8"/>
</svg>
