<svg width="24" height="24" viewBox="0 0 24 24" fill="none" xmlns="http://www.w3.org/2000/svg">
<path fill-rule="evenodd" clip-rule="evenodd" d="M5 5.4413C5 4.09301 6.0695 3 7.38879 3H16.6112C17.9305 3 19 4.09301 19 5.4413V8.30771C19 12.0251 16.2256 15.0803 12.6774 15.4285V19.6154H15.3871C15.7612 19.6154 16.0645 19.9253 16.0645 20.3077C16.0645 20.69 15.7612 21 15.3871 21H8.6129C8.23877 21 7.93548 20.69 7.93548 20.3077C7.93548 19.9253 8.23877 19.6154 8.6129 19.6154H11.3226V15.4285C7.77444 15.0803 5 12.0251 5 8.30771V5.4413ZM7.38879 4.38462C6.81776 4.38462 6.35484 4.85771 6.35484 5.4413V8.30771C6.35484 8.33484 6.35502 8.36192 6.35539 8.38896C6.53799 8.31651 6.76168 8.23133 7.00948 8.14454C7.64928 7.92045 8.51186 7.66302 9.24874 7.61671C10.5753 7.53333 11.5323 8.12907 12.3096 8.61289C12.3239 8.62177 12.3381 8.63062 12.3522 8.63942C13.1637 9.14424 13.7923 9.51791 14.6681 9.46287C15.2128 9.42863 15.9308 9.22452 16.5513 9.00721C16.8532 8.90147 17.1173 8.79793 17.3056 8.72092C17.3996 8.68249 17.4743 8.65085 17.5248 8.6291C17.5501 8.61822 17.5693 8.60983 17.5818 8.60431L17.5956 8.59824L17.5986 8.59692C17.6118 8.59098 17.6256 8.58533 17.639 8.58032C17.6431 8.48998 17.6452 8.39909 17.6452 8.30771V5.4413C17.6452 4.85771 17.1822 4.38462 16.6112 4.38462H7.38879ZM17.3375 10.1912C16.5736 12.4526 14.4724 14.077 12 14.077C9.38802 14.077 7.19037 12.264 6.5461 9.80227C6.58776 9.78467 6.63755 9.76391 6.69441 9.74066C6.88275 9.66365 7.14683 9.56011 7.44872 9.45438C8.06918 9.23706 8.78724 9.03295 9.33191 8.99872C10.2077 8.94367 10.8363 9.31735 11.6478 9.82216C11.6619 9.83096 11.6761 9.83981 11.6904 9.84869C12.4677 10.3325 13.4247 10.9283 14.7513 10.8449C15.4881 10.7986 16.3507 10.5411 16.9905 10.317C17.1127 10.2742 17.2291 10.2318 17.3375 10.1912Z" fill="black" fill-opacity="0.8"/>
</svg>
