<svg xmlns="http://www.w3.org/2000/svg" width="1024" height="1024" xmlns:v="https://vecta.io/nano"><style><![CDATA[.B{animation:f0 1.2s step-end infinite}.C{animation:f1 1.2s step-end infinite}.D{animation:f2 1.2s step-end infinite}.E{animation:f3 1.2s step-end infinite}.F{animation:f4 1.2s step-end infinite}.G{animation:f5 1.2s step-end infinite}@keyframes f0{0%{visibility:hidden}0.0000%{visibility:visible}16.6667%{visibility:hidden}100%{visibility:hidden}} @keyframes f1{0%{visibility:hidden}16.6667%{visibility:visible}33.3333%{visibility:hidden}100%{visibility:hidden}} @keyframes f2{0%{visibility:hidden}33.3333%{visibility:visible}50.0000%{visibility:hidden}100%{visibility:hidden}} @keyframes f3{0%{visibility:hidden}50.0000%{visibility:visible}66.6667%{visibility:hidden}100%{visibility:hidden}} @keyframes f4{0%{visibility:hidden}66.6667%{visibility:visible}83.3333%{visibility:hidden}100%{visibility:hidden}} @keyframes f5{0%{visibility:hidden}83.3333%{visibility:visible}100.0000%{visibility:hidden}100%{visibility:hidden}}.H{visibility:hidden}]]></style><g class="B H"><path d="M0 0l4.5 4 2.17 1.96c15.13 14.37 23.1 35.4 24 55.99l.04 11.01-.02 6.56-.42 25.23c-.71 25.76-.9 51.48-.84 77.25l.02 15.65.05 30.35 9.67-5.3 2.76-1.52c5.09-2.79 10.11-5.65 15.06-8.68 3.26-1.95 6.57-3.78 9.89-5.62 10.33-5.77 20.43-11.92 30.55-18.05l26.13-15.33c6.95-3.99 13.88-7.96 20.56-12.38 5.27-3.46 10.65-6.57 16.16-9.62 4.99-2.77 9.87-5.69 14.72-8.69 10.12-6.25 20.41-12.21 30.7-18.18l26.86-15.88 23.29-13.7 16.4-9.7 12.89-7.46 5.81-3.37c15.23-8.64 35.35-9.59 52.01-5.56C359.48 73.81 373.4 81.68 384.5 95l1.76 2.03c8.97 10.8 14.52 24.54 18.24 37.97l1 1c.09 1.93.11 3.86.1 5.79l-.01 3.54-.03 3.73-.01 3.75-.05 9.19-2 1c-.42 1.65-.76 3.32-1.06 5-2.7 11.46-9.43 24.73-17.94 33h-2l-.81 1.94C380.5 205 380.5 205 377.5 206l-2 4c-1.57 1.25-1.57 1.25-3.42 2.3l-2.09 1.2-2.24 1.25-2.31 1.32-4.69 2.66-6.1 3.49-18.21 10.17-23.79 13.4L284 261.75c-7.29 3.91-14.47 7.89-21.43 12.37-6.37 3.9-13.03 7.33-19.62 10.85-11.11 5.95-22.08 12.05-32.88 18.54-8.3 4.98-16.8 9.58-25.38 14.05-7.58 3.99-14.91 8.39-22.26 12.79-5.72 3.39-11.44 6.53-17.43 9.41-3.32 1.65-6.45 3.53-9.6 5.47l-13.66 8.08c-4.26 2.5-8.45 5.07-12.59 7.77-1.65.92-1.65.92-3.65.92v2l2.12.77c3.23 1.38 6.03 3.1 9 4.98 4.85 3.04 9.76 5.86 14.8 8.55 3.91 2.16 7.74 4.43 11.58 6.7 5.5 3.25 11.02 6.42 16.64 9.45l10.67 5.93 2.07 1.16 9.83 5.6c5.34 3.09 10.68 6.1 16.23 8.8 5.12 2.51 9.99 5.35 14.85 8.31 11.92 7.24 23.97 14.28 36.51 20.36 2.89 1.49 5.59 3.15 8.32 4.89 6.43 4.04 13.06 7.62 19.76 11.19 19.85 10.6 39.52 21.6 58.68 33.43 4.14 2.51 8.42 4.63 12.75 6.76 9.86 4.83 19.56 10.29 28.19 17.12v2l1.94.81c2.06 1.19 2.06 1.19 3.06 4.19h2c5.71 6.14 9.86 13.15 13.44 20.69l1 2.08c2.01 4.42 3.22 8.67 4.05 13.46l.51 1.77 2 1 .12 12.88.06 3.7.02 3.54.03 3.27c-.23 2.61-.23 2.61-2.23 4.61l-1.4 5.71c-4.03 15.43-12.05 28.43-23.6 39.29l-2.31 2.5c-10.93 10.16-24.22 15.5-38.69 18.5l-2.43.55c-20.24 3.51-38.44-3.49-55.57-13.55l-3.26-1.86-8.74-5.14-6.37-3.74L245.5 625l-19.79-11.7-6.24-3.68-18.67-10.94-31.19-18.41-18.12-10.71a294.17 294.17 0 0 1-11.23-6.92c-5.85-3.74-11.85-7.2-17.88-10.64l-26.94-15.81-3.16-1.9-6.01-3.63c-9.78-5.87-19.62-11.62-29.59-17.18l-18.89-10.85-2.31-1.34-2.04-1.2C31.49 499 29.51 498 27.5 497l.73 85.49.34 39.71.3 34.68.15 18.3 1.13 73.14.6 34.18.03 2.45.02 2.37.02 2.11c.07 23.38-7.06 44.78-23.48 61.75-15.48 15.54-35.89 23.55-57.84 24.07-20.35-.48-39.99-7.45-55-21.25l-2.17-1.96c-15.13-14.37-23.1-35.4-24-55.99-.07-3.67-.07-7.34-.04-11.01l.02-6.56.41-24.74 1.29-82.13.16-18.5.29-34.83.34-39.74.7-81.54-7.21 3.83-2.05 1.09c-4.8 2.56-9.52 5.21-14.18 8.02l-16.37 9.44c-10.19 5.67-20.15 11.74-30.12 17.79-8.64 5.24-17.37 10.3-26.13 15.33-6.95 3.99-13.88 7.96-20.56 12.38-5.27 3.46-10.65 6.57-16.16 9.62-4.99 2.77-9.87 5.69-14.72 8.69-10.12 6.25-20.41 12.21-30.7 18.18l-26.86 15.88-23.29 13.7-16.4 9.7c-4.26 2.55-8.56 5.03-12.89 7.46l-5.81 3.37c-15.23 8.64-35.35 9.59-52.01 5.56-16.52-4.85-30.44-12.72-41.54-26.04l-1.76-2.03c-8.97-10.8-14.52-24.54-18.24-37.97l-1-1c-.09-1.93-.11-3.86-.1-5.79l.01-3.54.03-3.73.01-3.75.05-9.19 2-1c.42-1.65.76-3.32 1.06-5 2.7-11.46 9.43-24.73 17.94-33h2l.81-1.94c1.19-2.06 1.19-2.06 4.19-3.06l2-4c1.57-1.25 1.57-1.25 3.42-2.3l2.09-1.2 2.24-1.25 2.31-1.32 4.69-2.66 6.1-3.49 18.21-10.17 23.79-13.4 28.65-15.96c7.29-3.91 14.47-7.89 21.43-12.37 6.37-3.9 13.03-7.33 19.62-10.85 11.11-5.95 22.08-12.05 32.88-18.54 8.3-4.98 16.8-9.58 25.38-14.05 7.58-3.99 14.91-8.39 22.26-12.79 5.72-3.39 11.44-6.53 17.43-9.41 3.32-1.65 6.45-3.53 9.6-5.47l13.66-8.08c4.26-2.5 8.45-5.07 12.59-7.77 1.65-.92 1.65-.92 3.65-.92v-2l-2.12-.77c-3.23-1.38-6.03-3.1-9-4.98-4.85-3.04-9.76-5.86-14.8-8.55-3.91-2.16-7.74-4.43-11.58-6.7-5.5-3.25-11.02-6.42-16.64-9.45l-10.67-5.93-2.07-1.16-9.83-5.6c-5.34-3.09-10.68-6.1-16.23-8.8-5.12-2.51-9.99-5.35-14.85-8.31-11.92-7.24-23.97-14.28-36.51-20.36-2.89-1.49-5.59-3.15-8.32-4.89-6.43-4.04-13.06-7.62-19.76-11.19-19.85-10.6-39.52-21.6-58.68-33.43-4.14-2.51-8.42-4.63-12.75-6.76-9.86-4.83-19.56-10.29-28.19-17.12v-2l-1.94-.81c-2.06-1.19-2.06-1.19-3.06-4.19h-2c-5.71-6.14-9.86-13.15-13.44-20.69l-1-2.08c-2.01-4.42-3.22-8.67-4.05-13.46l-.51-1.77-2-1-.12-12.88-.06-3.7-.02-3.54-.03-3.27c.23-2.61.23-2.61 2.23-4.61l1.4-5.71c4.03-15.43 12.05-28.43 23.6-39.29l2.31-2.5C-466.26 76.34-452.97 71-438.5 68l2.43-.55c20.24-3.51 38.44 3.49 55.57 13.55l3.26 1.86 8.74 5.14 6.37 3.74 15.63 9.26 19.79 11.7 6.24 3.68 18.67 10.94 31.19 18.41 18.12 10.71a294.17 294.17 0 0 1 11.23 6.92c5.85 3.74 11.85 7.2 17.88 10.64l26.94 15.81 3.16 1.9 6.01 3.63c9.78 5.87 19.62 11.62 29.58 17.18l19.07 10.94 2.33 1.35 2.07 1.21c1.22.7 2.46 1.35 3.72 1.98l.05-33.47.03-15.56-.77-71.38-.07-2.31-.06-2.27-.43-27.51-.03-2.44-.02-2.38-.02-2.11c-.07-23.38 7.06-44.78 23.48-61.75C-79.7-21.94-32.18-24.74 0 0z" transform="translate(562.5 149)"/></g><g class="C H"><path d="M0 0l2.18.62C9.53 2.79 16.22 6.48 23 10v2l1.69.19c3.25 1.14 4.96 3.34 7.31 5.81l2 1v2l3 1 1 4 3 1c6.86 7.32 10.23 16.53 13 26l.66 2.17c1.26 4.8 1.6 9.64 1.88 14.58l.13 2.26c.43 7.96.47 15.9.46 23.86l.01 4.76-.01 12.63-.01 7.89-.76 76.51-.14 6.57-.07 3.16c-.18 9.3-.17 18.6-.09 27.91l.02 3.23.03 2.84c-.11 2.65-.58 5.04-1.11 7.63a79.47 79.47 0 0 0-.1 4.63l.01 2.72.03 2.92.02 6.28.02 3.32c.1 17.84.04 35.66-.71 53.49l-.15 3.69-.14 3.15c-.07 2.74-.07 2.74.51 5.15.71 3.67.63 7.29.61 11.01l-.01 2.4-.03 7.55-.01 5.14L55 373l1.79-1.05 35.09-20.39 3.22-1.86 15.32-8.8 7.17-4.1 5.05-2.88 3.1-1.78 2.72-1.55c2.6-1.56 2.6-1.56 4.99-3.56 2.73-2.18 5.52-3.87 8.55-5.6l3.44-1.97 3.56-2.02 3.56-2.04 6.56-3.75a185.75 185.75 0 0 0 5.63-3.36C167 307 167 307 169 307l1-3c2.08-1.45 2.08-1.45 4.81-2.96l3.01-1.68 3.18-1.74 3.08-1.71 6.06-3.34 5.39-3.01c16.02-9.09 37.11-14.7 55.47-10.56l3.17.66c10.59 2.49 19.42 6.95 28.83 12.34v2l4 1v2h2v2l3 1c1.75 1.97 3.39 3.92 5 6l1.81 2.25C300 310 300 310 300 312l3 1v2l3 1c2.89 3.73 3.97 7.9 5.25 12.37.71 2.5 1.49 4.97 2.31 7.44l.69 2.08c.73 2.17.73 2.17 1.8 4.39 1.21 3.47 1.41 6.83 1.57 10.47l.11 2.18.27 6.07.2 2.45c.62 10.87-3.34 23-8.2 32.55l-1 2h-2l-.62 2.5c-1.73 4.39-4.15 8.05-7.38 11.5h-2l-.19 1.75c-1.15 3.19-3.1 4.28-5.81 6.25l-2.5 2-2.5 2-2.31 1.91c-2.67 2.08-5.37 3.78-8.3 5.48l-3.26 1.89-3.44 1.97-1.78 1.02c-7.17 4.12-14.37 8.09-21.83 11.65-7.49 3.65-14.6 7.98-21.75 12.25-5.03 2.98-9.95 5.53-15.33 7.83-4.32 2.33-8.56 4.79-12.81 7.25l-3.73 2.14-9.59 5.53-8.82 5.08L135 510l2.44 1.88C140 514 140 514 141 516c2.53.66 2.53.66 5 1v2l2.38.44C151 520 151 520 153 521v2l2.38.44C158 524 158 524 160 525v2l7 2v2l5 1v2l2.38.44C177 535 177 535 179 536v2l2.06.25c3.81.97 6.58 2.71 9.94 4.75v2l2.05.25c3.75.95 6.79 2.77 10.07 4.75 4.76 2.86 4.76 2.86 9.88 5v2l7 2v2l7 2v2l2.06.81c3.34 1.35 6.64 2.77 9.94 4.19v2l3.07.77c3.92 1.12 7.3 2.87 10.87 4.85l3.46 1.92L259 581v2l1.62.45c5.47 1.64 9.97 3.95 14.81 6.99 4.05 2.46 8.3 4.51 12.57 6.56v2l7 2v2l7 2v2l7 2v2l5 1v2l2.2.34c2.93.69 5.02 1.72 7.61 3.22l2.4 1.38L328 620v2l2.05.25c3.75.95 6.79 2.77 10.07 4.75 4.76 2.86 4.76 2.86 9.88 5v2l2 .75c6.6 2.75 12.65 6.18 18.7 9.98 2.21 1.35 2.21 1.35 4.53 1.82l1.77.45 1 2c1.61.97 3.27 1.88 4.94 2.75l11.75 6.5 2.51 1.45 1.8 1.3v2l1.81.44c1.75.45 3.48.99 5.19 1.56l1 4 3 1v2h2c1.41 1.61 2.72 3.29 4 5l1.45 1.83c5.45 6.97 8.57 13.85 11.24 22.23l.65 2.04c1.31 4.28 2.12 8.44 2.66 12.9l.35 2.23A56.18 56.18 0 0 1 430 744l-.94 3.44c-2.85 9.58-6.78 18.68-13.06 26.56h-2l-.69 1.56c-1.14 2.13-2.34 4.12-3.69 6.13l-1.21 1.82c-1.71 1.81-2.99 2.1-5.41 2.49l-.23 2.3c-.98 3.42-2.06 4.04-5.07 5.85l-2.65 1.6-2.8 1.63-2.75 1.69c-7.09 4.19-7.09 4.19-12.5 2.93-1.7.72-3.41 1.45-5.08 2.25-3.42 1.34-6.91 1.37-10.54 1.5l-2.39.1c-13.57.49-27.73-.51-39.99-6.85l-1-2c-2.53-.66-2.53-.66-5-1v-2l-1.79-.55c-8.51-2.71-8.51-2.71-12.21-5.45v-2l-3.44-.88L292 784l-1-2-3-1v-2l-2.38-.44C283 778 283 778 281 777v-2l-7-2v-2l-2.62-.81c-3.3-1.16-6.29-2.57-9.38-4.19v-2l-7-2v-2l-7-2v-2l-2.14-.8c-3.02-1.26-5.81-2.74-8.67-4.32l-2.96-1.64L232 748v-2l-2.38-.44C227 745 227 745 225 744v-2l-7-2v-2l-2.12-.81c-3.05-1.26-5.95-2.69-8.88-4.19l-3.38-1.69L201 730v-2l-2.81-.94L192 725l-1-2c-1.53-.91-3.1-1.75-4.69-2.56-4.66-2.48-9.09-5.17-13.5-8.06-4.81-3.15-9.61-5.92-14.81-8.38a301.19 301.19 0 0 1-7-4v-2l-2.12-.25c-3.57-.93-5.95-2.55-8.88-4.75l-1-2a129.94 129.94 0 0 0-7-2v-2l-2.16-.81c-2.93-1.23-5.6-2.66-8.36-4.23l-3.1-1.76-3.19-1.82-3.26-1.86L104 672v-2l-2.25-.38c-2.55-.57-4.48-1.36-6.75-2.62v-2l-1.62-.31c-3.01-.87-5.62-2.25-8.38-3.69v-2l-9-3v-2l-1.76-.38c-2.23-.62-4.07-1.42-6.13-2.47l-2.15-1.08-2.21-1.13-2.26-1.15L56 645l-.05 34.12-.03 15.84-.01 15.35-.02 5.8c-.03 10.82.18 21.58.75 32.39.41 7.9.47 15.76.42 23.68l-.01 4.35-.03 9.11-.05 23.78v2.36c-.01 13.96.23 27.9.67 41.86.41 13.12.43 26.23.32 39.36l-.01 2.31-.05 6.16c.09 3.28.54 6.3 1.1 9.53l-1 5 1 3-1 2c.09 1.48.25 2.96.44 4.44 1.6 16.27 1.04 31.25-5.57 46.44-.83 2.03-1.4 3.99-1.87 6.12h-2l-.29 1.62c-.93 3.12-2.44 5.64-4.09 8.44l-1.83 3.16c-1.47 2.29-2.69 4.08-4.79 5.78h-2v2l-5 2 1 4-10.12 6-2.89 1.73-2.81 1.65-2.57 1.52c-3.05 1.29-5.33 1.22-8.61 1.1l-2.28.93c-3.98 1.57-7.98 1.81-12.22 2.19l-2.7.26c-11.26.99-20.98 1.2-31.8-2.38l-2.19-.62c-7.35-2.18-14.04-5.86-20.81-9.38v-2l-1.69-.19c-3.25-1.14-4.96-3.34-7.31-5.81l-2-1v-2l-3-1-1-4-3-1c-6.86-7.32-10.23-16.53-13-26l-.66-2.17c-1.26-4.8-1.6-9.64-1.88-14.58l-.13-2.26c-.43-7.96-.47-15.9-.46-23.86l-.01-4.76.01-12.63.01-7.89.76-76.51.14-6.57.07-3.16c.18-9.3.17-18.6.09-27.91l-.02-3.23-.03-2.84c.11-2.65.58-5.04 1.11-7.63a79.47 79.47 0 0 0 .1-4.63l-.01-2.72-.03-2.92-.02-6.28-.02-3.32c-.1-17.84-.04-35.66.71-53.49l.15-3.69.14-3.15c.07-2.74.07-2.74-.52-5.14-.7-3.75-.51-7.44-.38-11.24l.07-2.47.25-7.76.16-5.28.4-12.91a1848.73 1848.73 0 0 0-53.85 30.41l-13.05 7.56-1.75 1.01-8.36 4.78c-8.35 4.8-16.49 9.85-24.45 15.27-5.19 3.48-10.63 6.46-16.1 9.47l-28.32 16.16-26.04 15.1-6.05 3.49-6.36 3.64-3.25 1.86-2.93 1.67c-2.44 1.41-2.44 1.41-3.94 3.05-2.3 2.27-4.98 3.65-7.79 5.25l-1.84 1.05-3.83 2.18-5.84 3.33c-10.4 5.92-10.4 5.92-15.25 7.72v2l-2.31 1.33-8.52 4.91-3.68 2.12-5.31 3.07-3.23 1.85-5.61 3.35c-9.08 5.33-19.94 8.32-30.34 9.37l-3.78.51c-13.32 1.51-26.94-1.11-39.22-6.51v-2l-2.38-.44C-434 796-434 796-436 795v-2l-5-1v-2l-2.75-.69c-3.73-1.5-5.08-2.98-7.25-6.31v-2l-3-1v-2h-2c-1.37-1.57-1.37-1.57-2.88-3.69-1.66-2.31-3.31-4.53-5.16-6.7-2.12-2.82-3.25-5.36-4.46-8.67l-1.27-3.45L-471 752l-1.17-3.27c-1.82-5.25-3.35-10.17-3.83-15.73l-.34-3.15c-.74-7.73-.6-14.34 1.34-21.85l.46-1.9c2.66-10.84 6.48-24.78 15.54-32.1h2v-2h2l2-5h2v-2l5-2v-2l5-2v-2l2.31-1.33 8.52-4.91 3.68-2.12 5.31-3.07 3.23-1.85 5.4-3.26c2.55-1.46 2.55-1.46 5.95-2.92 3.57-1.53 6.81-3.28 10.16-5.23l1.81-1.04L-389 628l7.44-4.31 3.31-1.93c3.34-1.81 6.75-3.27 10.25-4.76 1.98-1.06 3.95-2.14 5.89-3.27l3.36-1.92 3.56-2.06 3.74-2.15 9.59-5.53 8.64-4.97 31.84-18.48 20.57-11.87 1.9-1.09c2.38-1.33 4.71-2.58 7.25-3.57 2.94-1.21 5.6-2.67 8.36-4.26l3.37-1.93 3.62-2.09 3.76-2.16 9.68-5.57 5.34-3.08 22.53-13 3.25-1.89L-178 508l-7-4v-2l-5-1v-2l-2.38-.44C-195 498-195 498-197 497v-2l-2.38-.44C-202 494-202 494-204 493v-2l-7-2v-2l-5-1v-2l-2.38-.44C-221 483-221 483-223 482v-2l-2.06-.25c-3.81-.97-6.58-2.71-9.94-4.75v-2l-2.05-.25c-3.75-.95-6.79-2.77-10.07-4.75-4.76-2.86-4.76-2.86-9.88-5v-2l-7-2v-2l-7-2v-2l-2.06-.81L-283 448v-2l-3.07-.77c-3.92-1.12-7.3-2.87-10.87-4.85l-3.46-1.92-2.6-1.46v-2l-1.62-.45c-5.47-1.64-9.97-3.95-14.81-6.99-4.05-2.46-8.3-4.51-12.57-6.56v-2l-7-2v-2l-7-2v-2l-7-2v-2l-5-1v-2l-2.2-.34c-2.93-.69-5.02-1.72-7.61-3.22l-2.4-1.38L-372 398v-2l-2.05-.25c-3.75-.95-6.79-2.77-10.07-4.75-4.76-2.86-4.76-2.86-9.88-5v-2l-2-.75c-6.6-2.75-12.65-6.18-18.7-9.98-2.21-1.35-2.21-1.35-4.53-1.82L-421 371l-1-2c-1.61-.97-3.27-1.88-4.94-2.75l-11.75-6.5-2.51-1.45-1.8-1.3v-2l-1.81-.44c-1.75-.45-3.48-.99-5.19-1.56l-1-4-3-1v-2h-2c-1.41-1.61-2.72-3.29-4-5l-1.45-1.83c-5.45-6.97-8.57-13.85-11.24-22.23l-.65-2.04c-1.31-4.28-2.12-8.44-2.66-12.9l-.35-2.23A56.18 56.18 0 0 1-474 274l.94-3.44c2.85-9.58 6.78-18.68 13.06-26.56h2l.69-1.56c1.14-2.13 2.34-4.12 3.69-6.13l1.21-1.82c1.71-1.81 2.99-2.1 5.41-2.49l.23-2.3c.98-3.42 2.06-4.04 5.07-5.85l2.65-1.6 2.8-1.63 2.75-1.69c7.09-4.19 7.09-4.19 12.5-2.93 1.7-.72 3.41-1.45 5.08-2.25 3.42-1.34 6.91-1.37 10.54-1.5l2.39-.1c13.57-.49 27.73.51 39.99 6.85l1 2c2.53.66 2.53.66 5 1v2l1.79.55c8.51 2.71 8.51 2.71 12.21 5.45v2l3.44.88L-336 234l1 2 3 1v2l2.38.44C-327 240-327 240-325 241v2l7 2v2l2.62.81c3.3 1.16 6.29 2.57 9.38 4.19v2l7 2v2l7 2v2l2.14.8c3.02 1.26 5.81 2.74 8.67 4.32l2.96 1.64L-276 270v2l2.38.44C-271 273-271 273-269 274v2l7 2v2l2.12.81c3.05 1.26 5.95 2.69 8.88 4.19l3.38 1.69L-245 288v2l2.81.94C-236 293-236 293-235 295c1.53.91 3.1 1.75 4.69 2.56 4.66 2.48 9.09 5.17 13.5 8.06 4.81 3.15 9.61 5.92 14.81 8.38a301.19 301.19 0 0 1 7 4v2l2.12.25c3.57.93 5.95 2.55 8.88 4.75l1 2a129.94 129.94 0 0 0 7 2v2l2.16.81c2.93 1.23 5.6 2.66 8.36 4.23l3.1 1.76 3.19 1.82 3.26 1.86L-148 346v2l2.25.38c2.55.57 4.48 1.36 6.75 2.62v2l1.62.31c3.01.87 5.62 2.25 8.38 3.69v2l9 3v2l1.76.38c2.23.62 4.07 1.42 6.13 2.47l2.15 1.08 2.21 1.13 2.26 1.15L-100 373l.05-34.12.03-15.84.01-15.35.02-5.8c.03-10.82-.18-21.58-.75-32.39-.41-7.9-.47-15.76-.42-23.68l.01-4.35.03-9.11.05-23.78v-2.36c.01-13.96-.23-27.9-.67-41.86-.41-13.12-.43-26.23-.32-39.36l.01-2.31.05-6.16c-.09-3.28-.54-6.3-1.1-9.53l1-5-1-3 1-2c-.09-1.48-.25-2.96-.44-4.44-1.6-16.27-1.04-31.25 5.57-46.44.83-2.03 1.4-3.99 1.87-6.12h2l.29-1.62c.93-3.12 2.44-5.64 4.09-8.44l1.83-3.16C-85.32 24.49-84.1 22.7-82 21h2v-2l5-2-1-4 10.12-6 2.89-1.73 2.81-1.65 2.57-1.52C-54.56.81-52.28.88-49 1c1.68-.64 3.34-1.31 5-2 14.49-2.7 29.92-3.94 44 1z" transform="translate(534 3)"/></g><g class="D H"><path d="M0 0l2.32.24c3.63.42 5.72.83 8.8 2.88l2.87-.03c3.6.04 5.24.84 8.31 2.66l2.82 1.64L28 9.12l2.95 1.74 7.17 4.26-1 4 5 2v2h2c4.26 4.57 9.05 11.11 10.56 17.25l.44 1.75 2 1c1.7 3.53 2.81 7.28 4 11l1.15 3.45c3.99 13.53 4.55 28.69 1.85 42.55v3l-.06 2.57c-.11 2.44-.11 2.44 1.06 4.43-.09 1.46-.25 2.91-.43 4.36-.82 8.04-.64 16.08-.58 24.15.09 14.45.02 28.87-.49 43.31-.43 12.51-.54 25.02-.53 37.54l.01 2.36.05 23.78c.11 27.18.11 27.18-.52 37.55-1 16.61-.61 33.31-.57 49.95l.02 14.24.04 27.76 3.36-1.71 4.4-2.22 2.21-1.13 2.14-1.09 1.97-1c1.96-.86 3.84-1.39 5.92-1.85v-2l9-3v-2c6.63-4 6.63-4 10-4v-2c5.63-3 5.63-3 9-3v-2l11-6.4 3.75-2.19 5.37-3.12 3.27-1.91c2.61-1.38 2.61-1.38 4.61-1.38l1-2 6-2 1-2c1.75-1.28 1.75-1.28 3.88-2.62l2.12-1.35c2-1.03 2-1.03 5-1.03v-2c4.67-3.38 9.9-5.99 15.07-8.5 4.11-2 7.8-4.34 11.56-6.94 3.57-2.33 7.32-4.28 11.09-6.26 2.39-1.22 2.39-1.22 4.28-3.3 5.54-3 5.54-3 8-3v-2l2.44-1.18c3.61-1.84 7.11-3.81 10.61-5.83 1.95-.99 1.95-.99 3.95-.99l1-2 6-2 1-2c3-2 3-2 6-2v-2l6.88-4 1.97-1.15c4.93-2.85 4.93-2.85 7.15-2.85v-2l7-2v-2l7-2v-2l4.88-2.5 2.74-1.4c2.38-1.1 2.38-1.1 4.38-1.1v-2l7-2v-2c2.65-1.46 3.9-2 7-2v-2l3-1 2-2a145.41 145.41 0 0 1 6-2v-2l5.88-3 3.3-1.68c2.82-1.32 2.82-1.32 4.82-1.32v-2l2.44-.37 2.56-.63c.34-.65.66-1.31 1-2 15.51-9.05 38.16-8.55 55-5l2.16 1.14c1.81 1.11 1.81 1.11 3.66.27 4.5-.84 8.66 2.96 12.37 5.22l2.81 1.62 2.67 1.61 2.45 1.46c2.37 2.12 2.41 3.62 2.88 6.68l2.19.82c4.25 1.79 6.46 5.3 8.81 9.18v2h2l2.93 5.28c1.08 1.89 1.08 1.89 3.07 3.72 5.69 9.97 8.36 20.72 10 32l.32 2.02c2.41 17.42-4.03 36.37-13.32 50.98-.97 1.03-1.97 2.03-3 3l-2.06 2.69-1.94 2.31h-2l-1 3h-2l-.81 1.88c-1.19 2.12-1.19 2.12-4.19 4.12h-3l-1 2c-5.59 4.49-11.55 7.99-18.06 10.96-2.1.89-2.1.89-2.94 3.04l-4.7 1.95c-3.95 1.81-7.61 4.11-11.33 6.34-8.14 4.71-8.14 4.71-10.97 4.71v2l-2.74 1.07c-4.8 2.02-9.15 4.79-13.58 7.51-2.68 1.42-2.68 1.42-5.68 1.42l-1 2c-1.58 1.1-3.21 2.14-4.87 3.13l-2.68 1.63c-2.44 1.24-2.44 1.24-5.45 1.24v2l-2.43.38-2.57.62-1 2-6 2-1 2c-1.97.73-3.97 1.4-6 2v2l-7 2v2l-3.21 1.58c-8.94 4.32-8.94 4.32-17.47 9.36-2.97 1.85-4.88 2.74-8.32 3.06v2l-6.62 3.38-1.87.96c-3.76 1.9-7.46 3.43-11.51 4.66v2l-4.87 2.5-2.74 1.41c-2.39 1.09-2.39 1.09-4.39 1.09l-1 2-6 2-1 2c-1.97.73-3.97 1.4-6 2v2l-2.88 1.43-3.8 1.89-1.9.93c-2.81 1.4-5.53 2.82-8.18 4.49-2.24 1.26-2.24 1.26-5.24 1.26v2l-4.31 2.5-2.42 1.41c-2.27 1.09-2.27 1.09-5.27 1.09l-1 2c-3 2-3 2-6 2v2l-5 1v2l-3.43.88-3.57 1.12-1 2c-3 2-3 2-6 2l-1 2c-3 2-3 2-6 2v2l-2.43.38-2.57.62-1 2a148.34 148.34 0 0 1-5 4l2.16 1.24 39.22 22.45 3.21 1.85 15.65 9.19 3.01 1.8 5.55 3.35c4.34 2.6 8.48 4.71 13.26 6.36 3.62 1.42 6.88 3.5 10.2 5.52l4.47 2.67 4.27 2.57 6.63 3.94 2.66 1.59c2.73 1.55 2.73 1.55 5.82 2.76 5.42 2.26 10.44 5.3 15.52 8.21l3.1 1.77c13.15 7.48 13.15 7.48 16.27 10.73 2.54 2.08 5.1 4.08 7.76 6 2.32 2.07 2.92 2.97 3.24 6h2c1.7 1.8 1.7 1.8 3.57 4.19l1.88 2.36c1.62 2.55 2.17 4.48 2.55 7.45h2l3 7 1.5 3.57c4.14 11.4 5.02 22.46 4.5 34.43l-.12 2.99c-.38 5.27-1.6 9.2-3.88 14.01l-2 5.5c-3.91 10.87-3.91 10.87-7 15.5h-2l-1 3h-2l-.68 2.76c-1.52 3.74-3.1 4.91-6.32 7.24l-2 3h-2v2h-2l-1 2-3 1v2c-13.69 7.94-26.92 13.5-43 14l-1.95.08c-5.7.13-10.92-.59-16.48-1.82l-2.54-.56c-10.04-2.28-18.2-6.18-27.07-11.4-2.91-1.71-5.85-3.33-8.82-4.93l-2.49-1.35-4.87-2.6-2.23-1.22-2-1.06c-1.55-1.14-1.55-1.14-2.55-4.14-2.27-1.05-2.27-1.05-5-2a232.02 232.02 0 0 1-5.78-3.15l-3.3-1.85-3.42-1.93-3.41-1.92-9.09-5.15-2.67-1.51c-2.33-1.49-2.33-1.49-3.79-2.97-2.11-2.08-4.46-3.33-7.04-4.78l-3.39-1.93-1.81-1.01-5.65-3.19-5.85-3.32-19.17-10.97-3.2-1.85-31.43-18.47.02 3.32.04 12.22.02 5.28.02 7.6.02 2.38c0 2.96-.03 5.78-.63 8.69-.73 3.81-.49 7.54-.36 11.41l.14 5.47.09 2.91c.53 18.67.74 37.31.61 55.99l-.02 2.49-.03 4.58c-.02 3.71.34 7.04 1.08 10.66.08 2.25.09 4.49.07 6.73l-.03 4.22-.02 2.29c-.12 16.17.09 32.32.41 48.49l.7 71.81.01 7.16v11.33 4.17c.03 23.19.03 23.19-4.14 33.8l-1.16 3.2c-5.87 15.83-5.87 15.83-11.84 20.8h-2l-2 5h-2v2c-1.97 1.37-3.98 2.7-6 4l-1.74 1.76-1.26 1.24h-2v2c-14.96 8.59-14.96 8.59-22.76 9.64-2.31.38-4.14 1.09-6.3 1.99-9.8 3.39-21.68 1.55-31.81.5l-2.32-.24c-3.63-.42-5.72-.83-8.81-2.89l-2.86.04c-3.6-.04-5.24-.84-8.31-2.66l-2.82-1.64-2.88-1.74-2.95-1.73-7.18-4.27 1-4-5-2v-2h-2c-4.25-4.56-9.04-11.1-10.55-17.24l-.45-1.76-2-1c-1.69-3.52-2.8-7.27-4-11l-1.14-3.44c-3.99-13.53-4.55-28.69-1.86-42.56v-3l.07-2.56c.11-2.44.11-2.44-1.07-4.44.1-1.45.26-2.9.44-4.35.82-8.04.64-16.08.58-24.15-.09-14.45-.02-28.87.48-43.31.44-12.51.55-25.02.54-37.54l-.01-2.36-.05-23.78c-.11-27.18-.11-27.18.52-37.55 1-16.61.61-33.31.57-49.95l-.02-14.24-.05-27.77-3.35 1.72-4.39 2.22-2.22 1.13-2.14 1.09-1.97 1c-1.96.86-3.84 1.39-5.93 1.84v2l-9 3v2c-6.62 4-6.62 4-10 4v2c-5.62 3-5.62 3-9 3v2l-10.99 6.41-3.75 2.19-5.37 3.12-3.27 1.91c-2.62 1.37-2.62 1.37-4.62 1.37l-1 2-6 2-1 2c-1.74 1.29-1.74 1.29-3.87 2.63l-2.12 1.35c-2 1.02-2 1.02-5.01 1.02v2c-4.66 3.39-9.89 6-15.06 8.5-4.11 2.01-7.8 4.35-11.56 6.95-3.57 2.33-7.32 4.28-11.09 6.26-2.39 1.22-2.39 1.22-4.29 3.29-5.53 3-5.53 3-8 3v2l-2.43 1.19c-3.61 1.84-7.11 3.81-10.61 5.83-1.96.98-1.96.98-3.96.98l-1 2-6 2-1 2c-2.99 2-2.99 2-6 2v2l-6.87 4-1.97 1.16c-4.93 2.84-4.93 2.84-7.16 2.84v2l-7 2v2l-7 2v2l-4.87 2.5-2.74 1.41c-2.38 1.09-2.38 1.09-4.39 1.09v2l-7 2v2c-2.64 1.47-3.89 2-7 2v2l-3 1-2 2c-1.98.72-3.98 1.39-6 2v2l-5.87 3-3.3 1.69c-2.83 1.31-2.83 1.31-4.83 1.31v2l-2.43.38-2.57.62-1 2c-15.5 9.06-38.15 8.56-55 5l-2.15-1.13c-1.81-1.11-1.81-1.11-3.66-.27-4.5.84-8.66-2.96-12.37-5.22l-2.81-1.62-2.67-1.61-2.45-1.46c-2.37-2.12-2.41-3.62-2.89-6.69l-2.18-.81c-4.25-1.79-6.46-5.3-8.82-9.19v-2h-2l-2.92-5.27c-1.08-1.89-1.08-1.89-3.08-3.73-5.68-9.96-8.35-20.71-10-32l-.31-2.01c-2.41-17.42 4.03-36.37 13.31-50.99.98-1.02 1.98-2.02 3-3l2.07-2.68 1.93-2.32h2l1-3h2l.82-1.87c1.18-2.13 1.18-2.13 4.18-4.13h3l1-2c5.6-4.48 11.56-7.98 18.07-10.95 2.1-.89 2.1-.89 2.93-3.05l4.71-1.94c3.95-1.81 7.61-4.11 11.33-6.34 8.14-4.72 8.14-4.72 10.96-4.72v-2l2.76-1.06c4.79-2.02 9.14-4.79 13.57-7.51 2.67-1.43 2.67-1.43 5.67-1.43l1-2c1.59-1.09 3.22-2.13 4.88-3.12l2.68-1.63c2.44-1.25 2.44-1.25 5.44-1.25v-2l2.44-.37 2.56-.63 1-2 6-2c.34-.65.66-1.32 1-2 1.98-.72 3.98-1.39 6-2v-2l7-2v-2l3.22-1.57c8.94-4.32 8.94-4.32 17.47-9.36 2.97-1.85 4.88-2.74 8.31-3.07v-2l6.63-3.37 1.87-.96c3.76-1.9 7.46-3.43 11.5-4.67v-2l4.88-2.5 2.74-1.4c2.39-1.1 2.39-1.1 4.38-1.1.34-.65.66-1.32 1-2l6-2c.34-.65.66-1.32 1-2 1.98-.72 3.98-1.39 6-2v-2l2.89-1.42 3.8-1.89 1.9-.93c2.81-1.4 5.53-2.82 8.18-4.49 2.23-1.27 2.23-1.27 5.23-1.27v-2l4.32-2.5 2.42-1.4c2.26-1.1 2.26-1.1 5.26-1.1.34-.65.66-1.32 1-2 3-2 3-2 6-2v-2l5-1v-2l3.44-.87 3.56-1.13 1-2c3-2 3-2 6-2l1-2c3-2 3-2 6-2v-2l2.44-.37 2.56-.63 1-2a215.52 215.52 0 0 1 6-4c-8.66-5.4-17.42-10.59-26.31-15.62l-7.42-4.22-1.86-1.07-17.53-10.15-5.82-3.4-9.48-5.54-10.51-6.12-3.25-1.9c-5.08-2.95-10.1-5.61-15.5-7.91-4.93-2.27-9.57-5.13-14.25-7.88l-5.19-3.02-5.35-3.11-16.53-9.56-6.45-3.72-13.43-7.74-6.8-3.91-3.29-1.89c-7.1-4.09-14.12-8.27-21.07-12.6-2.85-1.7-2.85-1.7-5.78-2.54-3.26-1.12-5.93-2.54-8.89-4.29l-3.24-1.91-3.42-2.02c-7.19-4.22-14.35-8.41-21.87-12-6.78-3.26-13.27-6.95-19.76-10.75l-2.99-1.73-2.75-1.64-2.49-1.46-1.77-1.3v-2l-5-2v-2l-5-2v-2l-3-1c-.68-2.06-.68-2.06-1-4h-2v-2h-2c-13.68-15.64-18.79-36.88-17.68-57.27.38-5.3 1.34-9.68 3.65-14.51 1.11-2.37 1.79-4.69 2.47-7.22 2.45-8.36 6.13-15.05 12.11-21.4 1.55-1.55 1.55-1.55 2.45-3.6h2l1-3h2l.19-1.74c1.16-3.21 3.03-4.37 5.81-6.26 2.32-.74 2.32-.74 4-1v-2l5-1v-2c2.65-1.46 3.9-2 7-2v-2c25.39-8.34 48.34-9.35 73 3 8.14 4.44 16.08 9.21 24 14l2.83 1.58 2.17 1.42v2l2.1.78c5.23 2.2 10.06 5.18 14.97 7.99l5.79 3.29 3.71 2.12 3.38 1.93c2.89 1.79 5.41 3.76 8.05 5.89 1.76 1.1 3.54 2.16 5.34 3.18l3.13 1.8 3.35 1.9 5.29 3.03 3.61 2.06 17.16 9.97 24.86 14.33c27.56 15.7 27.56 15.7 35.08 21.17 4.98 3.57 10.26 6.46 15.63 9.39 6.37 3.5 12.66 7.12 18.93 10.8l28.99 16.72c8.09 4.6 16.12 9.28 24.05 14.15 2.57 1.61 2.57 1.61 5.58 2.5l-.1-3.4-.38-12.56-.16-5.42-.23-7.81-.09-2.44c-.08-3.07-.14-5.85.46-8.86.76-3.8.51-7.53.38-11.4l-.14-5.47-.09-2.91c-.53-18.67-.74-37.31-.61-55.99l.02-2.49.03-4.58c.02-3.71-.34-7.04-1.09-10.67a167.29 167.29 0 0 1-.06-6.72l.03-4.22.02-2.29c.12-16.17-.09-32.32-.41-48.49l-.7-71.81-.01-7.16V90.1v-4.17c-.03-23.19-.03-23.19 4.13-33.81l1.17-3.19c5.87-15.83 5.87-15.83 11.83-20.81h2l2-5h2v-2l6-4 1.76-1.74 1.24-1.26h2v-2c14.97-8.58 14.97-8.58 22.77-9.63 2.31-.38 4.14-1.09 6.3-1.99C-22.01-2.89-10.13-1.05 0 0z" transform="translate(527.875 .875)"/></g><g class="E H"><path d="M0 0l4.5 4 2.17 1.96c15.13 14.37 23.1 35.4 24 55.99l.04 11.01-.02 6.56-.41 24.74-1.29 82.13-.16 18.5-.29 34.83-.34 39.74-.7 81.54 7.21-3.83 2.05-1.09c4.8-2.56 9.52-5.21 14.18-8.02l16.37-9.44c10.19-5.67 20.15-11.74 30.12-17.79l26.13-15.33c6.95-3.99 13.88-7.96 20.56-12.38 5.27-3.46 10.65-6.57 16.16-9.62 4.99-2.77 9.87-5.69 14.72-8.69 10.12-6.25 20.41-12.21 30.7-18.18l26.86-15.88 23.29-13.7 16.4-9.7 12.89-7.46 5.81-3.37c15.23-8.64 35.35-9.59 52.01-5.56 16.52 4.85 30.44 12.72 41.54 26.04l1.76 2.03c8.97 10.8 14.52 24.54 18.24 37.97l1 1c.09 1.93.11 3.86.1 5.79l-.01 3.54-.03 3.73-.01 3.75-.05 9.19-2 1c-.42 1.65-.76 3.32-1.06 5-2.7 11.46-9.43 24.73-17.94 33h-2l-.81 1.94C380.5 337 380.5 337 377.5 338l-2 4c-1.57 1.25-1.57 1.25-3.42 2.3l-2.09 1.2-2.24 1.25-2.31 1.32-4.69 2.66-6.1 3.49-18.21 10.17-23.79 13.4L284 393.75c-7.29 3.91-14.47 7.89-21.43 12.37-6.37 3.9-13.03 7.33-19.62 10.85-11.11 5.95-22.08 12.05-32.88 18.54-8.3 4.98-16.8 9.58-25.38 14.05-7.58 3.99-14.91 8.39-22.26 12.79-5.72 3.39-11.44 6.53-17.43 9.41-3.32 1.65-6.45 3.53-9.6 5.47l-13.66 8.08c-4.26 2.5-8.45 5.07-12.59 7.77-1.65.92-1.65.92-3.65.92v2l2.12.77c3.23 1.38 6.03 3.1 9 4.98 4.85 3.04 9.76 5.86 14.8 8.55 3.91 2.16 7.74 4.43 11.58 6.7 5.5 3.25 11.02 6.42 16.64 9.45l10.67 5.93 2.07 1.16 9.83 5.6c5.34 3.09 10.68 6.1 16.23 8.8 5.12 2.51 9.99 5.35 14.85 8.31 11.92 7.24 23.97 14.28 36.51 20.36 2.89 1.49 5.59 3.15 8.32 4.89 6.43 4.04 13.06 7.62 19.76 11.19 19.85 10.6 39.52 21.6 58.68 33.43 4.14 2.51 8.42 4.63 12.75 6.76 9.86 4.83 19.56 10.29 28.19 17.12v2l1.94.81c2.06 1.19 2.06 1.19 3.06 4.19h2c5.71 6.14 9.86 13.15 13.44 20.69l1 2.08c2.01 4.42 3.22 8.67 4.05 13.46l.51 1.77 2 1 .12 12.88.06 3.7.02 3.54.03 3.27c-.23 2.61-.23 2.61-2.23 4.61l-1.4 5.71c-4.03 15.43-12.05 28.43-23.6 39.29l-2.31 2.5c-10.93 10.16-24.22 15.5-38.69 18.5l-2.43.55c-20.24 3.51-38.44-3.49-55.57-13.55l-3.26-1.86-8.74-5.14-6.37-3.74L245.5 757l-19.79-11.7-6.24-3.68-18.67-10.94-31.19-18.41-18.12-10.71a294.17 294.17 0 0 1-11.23-6.92c-5.85-3.74-11.85-7.2-17.88-10.64l-26.94-15.81-3.16-1.9-6.01-3.63-29.58-17.18-19.07-10.94-2.33-1.35-2.07-1.21c-1.22-.7-2.46-1.35-3.72-1.98l-.05 33.47-.03 15.56.77 71.38.07 2.31.06 2.27.43 27.51.03 2.44.02 2.38.02 2.11c.07 23.38-7.06 44.78-23.48 61.75-15.48 15.54-35.89 23.55-57.84 24.07-20.35-.48-39.99-7.45-55-21.25l-2.17-1.96c-15.13-14.37-23.1-35.4-24-55.99-.07-3.67-.07-7.34-.04-11.01l.02-6.56.42-25.23c.71-25.76.9-51.48.84-77.25l-.02-15.65-.05-30.35-9.67 5.3-2.76 1.52c-5.09 2.79-10.11 5.65-15.06 8.68-3.26 1.95-6.57 3.78-9.89 5.62-10.33 5.77-20.43 11.92-30.55 18.05-8.64 5.24-17.37 10.3-26.13 15.33-6.95 3.99-13.88 7.96-20.56 12.38-5.27 3.46-10.65 6.57-16.16 9.62-4.99 2.77-9.87 5.69-14.72 8.69-10.12 6.25-20.41 12.21-30.7 18.18l-26.86 15.88-23.29 13.7-16.4 9.7c-4.26 2.55-8.56 5.03-12.89 7.46l-5.81 3.37c-15.23 8.64-35.35 9.59-52.01 5.56-16.52-4.85-30.44-12.72-41.54-26.04l-1.76-2.03c-8.97-10.8-14.52-24.54-18.24-37.97l-1-1c-.09-1.93-.11-3.86-.1-5.79l.01-3.54.03-3.73.01-3.75.05-9.19 2-1c.42-1.65.76-3.32 1.06-5 2.7-11.46 9.43-24.73 17.94-33h2l.81-1.94c1.19-2.06 1.19-2.06 4.19-3.06l2-4c1.57-1.25 1.57-1.25 3.42-2.3l2.09-1.2 2.24-1.25 2.31-1.32 4.69-2.66 6.1-3.49 18.21-10.17 23.79-13.4 28.65-15.96c7.29-3.91 14.47-7.89 21.43-12.37 6.37-3.9 13.03-7.33 19.62-10.85 11.11-5.95 22.08-12.05 32.88-18.54 8.3-4.98 16.8-9.58 25.38-14.05 7.58-3.99 14.91-8.39 22.26-12.79 5.72-3.39 11.44-6.53 17.43-9.41 3.32-1.65 6.45-3.53 9.6-5.47l13.66-8.08c4.26-2.5 8.45-5.07 12.59-7.77 1.65-.92 1.65-.92 3.65-.92v-2l-2.12-.77c-3.23-1.38-6.03-3.1-9-4.98-4.85-3.04-9.76-5.86-14.8-8.55-3.91-2.16-7.74-4.43-11.58-6.7-5.5-3.25-11.02-6.42-16.64-9.45l-10.67-5.93-2.07-1.16-9.83-5.6c-5.34-3.09-10.68-6.1-16.23-8.8-5.12-2.51-9.99-5.35-14.85-8.31-11.92-7.24-23.97-14.28-36.51-20.36-2.89-1.49-5.59-3.15-8.32-4.89-6.43-4.04-13.06-7.62-19.76-11.19-19.85-10.6-39.52-21.6-58.68-33.43-4.14-2.51-8.42-4.63-12.75-6.76-9.86-4.83-19.56-10.29-28.19-17.12v-2l-1.94-.81c-2.06-1.19-2.06-1.19-3.06-4.19h-2c-5.71-6.14-9.86-13.15-13.44-20.69l-1-2.08c-2.01-4.42-3.22-8.67-4.05-13.46l-.51-1.77-2-1-.12-12.88-.06-3.7-.02-3.54-.03-3.27c.23-2.61.23-2.61 2.23-4.61l1.4-5.71c4.03-15.43 12.05-28.43 23.6-39.29l2.31-2.5c10.93-10.16 24.22-15.5 38.69-18.5l2.43-.55c20.24-3.51 38.44 3.49 55.57 13.55l3.26 1.86 8.74 5.14 6.37 3.74 15.63 9.26 19.79 11.7 6.24 3.68 18.67 10.94 31.19 18.41 18.12 10.71a294.17 294.17 0 0 1 11.23 6.92c5.85 3.74 11.85 7.2 17.88 10.64l26.94 15.81 3.16 1.9 6.01 3.63c9.78 5.87 19.62 11.62 29.59 17.18l18.89 10.85 2.31 1.34 2.04 1.2c1.95 1.09 3.93 2.09 5.94 3.09l-.73-85.49-.34-39.71-.3-34.68-.15-18.3-1.13-73.14-.6-34.18-.03-2.45-.02-2.37-.02-2.11c-.07-23.38 7.06-44.78 23.48-61.75C-79.7-21.94-32.18-24.74 0 0z" transform="translate(562.5 17)"/></g><g class="F H"><path d="M0 0l2.18.62C9.53 2.79 16.22 6.48 23 10v2l1.69.19c3.25 1.14 4.96 3.34 7.31 5.81l2 1v2l3 1 1 4 3 1c6.86 7.32 10.23 16.53 13 26l.66 2.17c1.26 4.8 1.6 9.64 1.88 14.58l.13 2.26c.43 7.96.47 15.9.46 23.86l.01 4.76-.01 12.63-.01 7.89-.76 76.51-.14 6.57-.07 3.16c-.18 9.3-.17 18.6-.09 27.91l.02 3.23.03 2.84c-.11 2.65-.58 5.04-1.11 7.63a79.47 79.47 0 0 0-.1 4.63l.01 2.72.03 2.92.02 6.28.02 3.32c.1 17.84.04 35.66-.71 53.49l-.15 3.69-.14 3.15c-.07 2.74-.07 2.74.52 5.14.7 3.75.51 7.44.38 11.24l-.07 2.47-.25 7.76-.16 5.28L54 374a1848.73 1848.73 0 0 0 53.85-30.41l13.05-7.56 1.75-1.01 8.36-4.78c8.35-4.8 16.49-9.85 24.45-15.27 5.19-3.48 10.63-6.46 16.1-9.47l28.32-16.16 26.04-15.1 6.05-3.49 6.36-3.64 3.25-1.86 2.93-1.67c2.44-1.41 2.44-1.41 3.94-3.05 2.3-2.27 4.98-3.65 7.79-5.25l1.84-1.05 3.83-2.18 5.84-3.33c10.4-5.92 10.4-5.92 15.25-7.72v-2l2.31-1.33 8.52-4.91 3.68-2.12 5.31-3.07 3.23-1.85 5.61-3.35c9.08-5.33 19.94-8.32 30.34-9.37l3.78-.51c13.32-1.51 26.94 1.11 39.22 6.51v2l2.38.44C390 222 390 222 392 223v2l5 1v2l2.75.69c3.73 1.5 5.08 2.98 7.25 6.31v2l3 1v2h2c1.37 1.57 1.37 1.57 2.88 3.69 1.66 2.31 3.31 4.53 5.16 6.7 2.12 2.82 3.25 5.36 4.46 8.67l1.27 3.45L427 266l1.17 3.27c1.82 5.25 3.35 10.17 3.83 15.73l.34 3.15c.74 7.73.6 14.34-1.34 21.85l-.46 1.9c-2.66 10.84-6.48 24.78-15.54 32.1h-2v2h-2l-2 5h-2v2l-5 2v2l-5 2v2l-2.31 1.33-8.52 4.91-3.68 2.12-5.31 3.07-3.23 1.85-5.4 3.26C366 379 366 379 362.6 380.46c-3.57 1.53-6.81 3.28-10.16 5.23l-1.81 1.04L345 390l-7.44 4.31-3.31 1.93c-3.34 1.81-6.75 3.27-10.25 4.76-1.98 1.06-3.95 2.14-5.89 3.27l-3.36 1.92-3.56 2.06-3.74 2.15-9.59 5.53-8.64 4.97-31.84 18.48-20.57 11.87-1.9 1.09c-2.38 1.33-4.71 2.58-7.25 3.57-2.94 1.21-5.6 2.67-8.36 4.26l-3.37 1.93-3.62 2.09-3.76 2.16-9.68 5.57-5.34 3.08L171 488l-3.25 1.89L134 510l7 4v2l5 1v2l2.38.44C151 520 151 520 153 521v2l2.38.44C158 524 158 524 160 525v2l7 2v2l5 1v2l2.38.44C177 535 177 535 179 536v2l2.06.25c3.81.97 6.58 2.71 9.94 4.75v2l2.05.25c3.75.95 6.79 2.77 10.07 4.75 4.76 2.86 4.76 2.86 9.88 5v2l7 2v2l7 2v2l2.06.81c3.34 1.35 6.64 2.77 9.94 4.19v2l3.07.77c3.92 1.12 7.3 2.87 10.87 4.85l3.46 1.92L259 581v2l1.62.45c5.47 1.64 9.97 3.95 14.81 6.99 4.05 2.46 8.3 4.51 12.57 6.56v2l7 2v2l7 2v2l7 2v2l5 1v2l2.2.34c2.93.69 5.02 1.72 7.61 3.22l2.4 1.38L328 620v2l2.05.25c3.75.95 6.79 2.77 10.07 4.75 4.76 2.86 4.76 2.86 9.88 5v2l2 .75c6.6 2.75 12.65 6.18 18.7 9.98 2.21 1.35 2.21 1.35 4.53 1.82l1.77.45 1 2c1.61.97 3.27 1.88 4.94 2.75l11.75 6.5 2.51 1.45 1.8 1.3v2l1.81.44c1.75.45 3.48.99 5.19 1.56l1 4 3 1v2h2c1.41 1.61 2.72 3.29 4 5l1.45 1.83c5.45 6.97 8.57 13.85 11.24 22.23l.65 2.04c1.31 4.28 2.12 8.44 2.66 12.9l.35 2.23A56.18 56.18 0 0 1 430 744l-.94 3.44c-2.85 9.58-6.78 18.68-13.06 26.56h-2l-.69 1.56c-1.14 2.13-2.34 4.12-3.69 6.13l-1.21 1.82c-1.71 1.81-2.99 2.1-5.41 2.49l-.23 2.3c-.98 3.42-2.06 4.04-5.07 5.85l-2.65 1.6-2.8 1.63-2.75 1.69c-7.09 4.19-7.09 4.19-12.5 2.93-1.7.72-3.41 1.45-5.08 2.25-3.42 1.34-6.91 1.37-10.54 1.5l-2.39.1c-13.57.49-27.73-.51-39.99-6.85l-1-2c-2.53-.66-2.53-.66-5-1v-2l-1.79-.55c-8.51-2.71-8.51-2.71-12.21-5.45v-2l-3.44-.88L292 784l-1-2-3-1v-2l-2.38-.44C283 778 283 778 281 777v-2l-7-2v-2l-2.62-.81c-3.3-1.16-6.29-2.57-9.38-4.19v-2l-7-2v-2l-7-2v-2l-2.14-.8c-3.02-1.26-5.81-2.74-8.67-4.32l-2.96-1.64L232 748v-2l-2.38-.44C227 745 227 745 225 744v-2l-7-2v-2l-2.12-.81c-3.05-1.26-5.95-2.69-8.88-4.19l-3.38-1.69L201 730v-2l-2.81-.94L192 725l-1-2c-1.53-.91-3.1-1.75-4.69-2.56-4.66-2.48-9.09-5.17-13.5-8.06-4.81-3.15-9.61-5.92-14.81-8.38a301.19 301.19 0 0 1-7-4v-2l-2.12-.25c-3.57-.93-5.95-2.55-8.88-4.75l-1-2a129.94 129.94 0 0 0-7-2v-2l-2.16-.81c-2.93-1.23-5.6-2.66-8.36-4.23l-3.1-1.76-3.19-1.82-3.26-1.86L104 672v-2l-2.25-.38c-2.55-.57-4.48-1.36-6.75-2.62v-2l-1.62-.31c-3.01-.87-5.62-2.25-8.38-3.69v-2l-9-3v-2l-1.76-.38c-2.23-.62-4.07-1.42-6.13-2.47l-2.15-1.08-2.21-1.13-2.26-1.15L56 645l-.05 34.12-.03 15.84-.01 15.35-.02 5.8c-.03 10.82.18 21.58.75 32.39.41 7.9.47 15.76.42 23.68l-.01 4.35-.03 9.11-.05 23.78v2.36c-.01 13.96.23 27.9.67 41.86.41 13.12.43 26.23.32 39.36l-.01 2.31-.05 6.16c.09 3.28.54 6.3 1.1 9.53l-1 5 1 3-1 2c.09 1.48.25 2.96.44 4.44 1.6 16.27 1.04 31.25-5.57 46.44-.83 2.03-1.4 3.99-1.87 6.12h-2l-.29 1.62c-.93 3.12-2.44 5.64-4.09 8.44l-1.83 3.16c-1.47 2.29-2.69 4.08-4.79 5.78h-2v2l-5 2 1 4-10.12 6-2.89 1.73-2.81 1.65-2.57 1.52c-3.05 1.29-5.33 1.22-8.61 1.1l-2.28.93c-3.98 1.57-7.98 1.81-12.22 2.19l-2.7.26c-11.26.99-20.98 1.2-31.8-2.38l-2.19-.62c-7.35-2.18-14.04-5.86-20.81-9.38v-2l-1.69-.19c-3.25-1.14-4.96-3.34-7.31-5.81l-2-1v-2l-3-1-1-4-3-1c-6.86-7.32-10.23-16.53-13-26l-.66-2.17c-1.26-4.8-1.6-9.64-1.88-14.58l-.13-2.26c-.43-7.96-.47-15.9-.46-23.86l-.01-4.76.01-12.63.01-7.89.76-76.51.14-6.57.07-3.16c.18-9.3.17-18.6.09-27.91l-.02-3.23-.03-2.84c.11-2.65.58-5.04 1.11-7.63a79.47 79.47 0 0 0 .1-4.63l-.01-2.72-.03-2.92-.02-6.28-.02-3.32c-.1-17.84-.04-35.66.71-53.49l.15-3.69.14-3.15c.07-2.74.07-2.74-.51-5.15-.71-3.67-.63-7.29-.61-11.01l.01-2.4.03-7.55.01-5.14L-99 645l-1.79 1.05-35.09 20.39-3.22 1.86-15.32 8.8-7.17 4.1-5.05 2.88-3.1 1.78-2.72 1.55c-2.6 1.56-2.6 1.56-4.99 3.56-2.73 2.18-5.52 3.87-8.55 5.6l-3.44 1.97-3.56 2.02-3.56 2.04-6.56 3.75a185.75 185.75 0 0 0-5.63 3.36C-211 711-211 711-213 711l-1 3c-2.08 1.45-2.08 1.45-4.81 2.96l-3.01 1.68-3.18 1.74-3.08 1.71-6.06 3.34-5.39 3.01c-16.02 9.09-37.11 14.7-55.47 10.56l-3.17-.66c-10.59-2.49-19.42-6.95-28.83-12.34v-2l-4-1v-2h-2v-2l-3-1c-1.75-1.97-3.39-3.92-5-6l-1.81-2.25C-344 708-344 708-344 706l-3-1v-2l-3-1c-2.89-3.73-3.97-7.9-5.25-12.37-.71-2.5-1.49-4.97-2.31-7.44l-.69-2.08c-.73-2.17-.73-2.17-1.8-4.39-1.21-3.47-1.41-6.83-1.57-10.47l-.11-2.18-.27-6.07-.2-2.45c-.62-10.87 3.34-23 8.2-32.55l1-2h2l.62-2.5c1.73-4.39 4.15-8.05 7.38-11.5h2l.19-1.75c1.15-3.19 3.1-4.28 5.81-6.25l2.5-2 2.5-2 2.31-1.91c2.67-2.08 5.37-3.78 8.3-5.48l3.26-1.89 3.44-1.97 1.78-1.02c7.17-4.12 14.37-8.09 21.83-11.65 7.49-3.65 14.6-7.98 21.75-12.25 5.03-2.98 9.95-5.53 15.33-7.83 4.32-2.33 8.56-4.79 12.81-7.25l3.73-2.14 9.59-5.53 8.82-5.08 38.05-22-2.44-1.88C-184 504-184 504-185 502c-2.53-.66-2.53-.66-5-1v-2l-2.38-.44C-195 498-195 498-197 497v-2l-2.38-.44C-202 494-202 494-204 493v-2l-7-2v-2l-5-1v-2l-2.38-.44C-221 483-221 483-223 482v-2l-2.06-.25c-3.81-.97-6.58-2.71-9.94-4.75v-2l-2.05-.25c-3.75-.95-6.79-2.77-10.07-4.75-4.76-2.86-4.76-2.86-9.88-5v-2l-7-2v-2l-7-2v-2l-2.06-.81L-283 448v-2l-3.07-.77c-3.92-1.12-7.3-2.87-10.87-4.85l-3.46-1.92-2.6-1.46v-2l-1.62-.45c-5.47-1.64-9.97-3.95-14.81-6.99-4.05-2.46-8.3-4.51-12.57-6.56v-2l-7-2v-2l-7-2v-2l-7-2v-2l-5-1v-2l-2.2-.34c-2.93-.69-5.02-1.72-7.61-3.22l-2.4-1.38L-372 398v-2l-2.05-.25c-3.75-.95-6.79-2.77-10.07-4.75-4.76-2.86-4.76-2.86-9.88-5v-2l-2-.75c-6.6-2.75-12.65-6.18-18.7-9.98-2.21-1.35-2.21-1.35-4.53-1.82L-421 371l-1-2c-1.61-.97-3.27-1.88-4.94-2.75l-11.75-6.5-2.51-1.45-1.8-1.3v-2l-1.81-.44c-1.75-.45-3.48-.99-5.19-1.56l-1-4-3-1v-2h-2c-1.41-1.61-2.72-3.29-4-5l-1.45-1.83c-5.45-6.97-8.57-13.85-11.24-22.23l-.65-2.04c-1.31-4.28-2.12-8.44-2.66-12.9l-.35-2.23A56.18 56.18 0 0 1-474 274l.94-3.44c2.85-9.58 6.78-18.68 13.06-26.56h2l.69-1.56c1.14-2.13 2.34-4.12 3.69-6.13l1.21-1.82c1.71-1.81 2.99-2.1 5.41-2.49l.23-2.3c.98-3.42 2.06-4.04 5.07-5.85l2.65-1.6 2.8-1.63 2.75-1.69c7.09-4.19 7.09-4.19 12.5-2.93 1.7-.72 3.41-1.45 5.08-2.25 3.42-1.34 6.91-1.37 10.54-1.5l2.39-.1c13.57-.49 27.73.51 39.99 6.85l1 2c2.53.66 2.53.66 5 1v2l1.79.55c8.51 2.71 8.51 2.71 12.21 5.45v2l3.44.88L-336 234l1 2 3 1v2l2.38.44C-327 240-327 240-325 241v2l7 2v2l2.62.81c3.3 1.16 6.29 2.57 9.38 4.19v2l7 2v2l7 2v2l2.14.8c3.02 1.26 5.81 2.74 8.67 4.32l2.96 1.64L-276 270v2l2.38.44C-271 273-271 273-269 274v2l7 2v2l2.12.81c3.05 1.26 5.95 2.69 8.88 4.19l3.38 1.69L-245 288v2l2.81.94C-236 293-236 293-235 295c1.53.91 3.1 1.75 4.69 2.56 4.66 2.48 9.09 5.17 13.5 8.06 4.81 3.15 9.61 5.92 14.81 8.38a301.19 301.19 0 0 1 7 4v2l2.12.25c3.57.93 5.95 2.55 8.88 4.75l1 2a129.94 129.94 0 0 0 7 2v2l2.16.81c2.93 1.23 5.6 2.66 8.36 4.23l3.1 1.76 3.19 1.82 3.26 1.86L-148 346v2l2.25.38c2.55.57 4.48 1.36 6.75 2.62v2l1.62.31c3.01.87 5.62 2.25 8.38 3.69v2l9 3v2l1.76.38c2.23.62 4.07 1.42 6.13 2.47l2.15 1.08 2.21 1.13 2.26 1.15L-100 373l.05-34.12.03-15.84.01-15.35.02-5.8c.03-10.82-.18-21.58-.75-32.39-.41-7.9-.47-15.76-.42-23.68l.01-4.35.03-9.11.05-23.78v-2.36c.01-13.96-.23-27.9-.67-41.86-.41-13.12-.43-26.23-.32-39.36l.01-2.31.05-6.16c-.09-3.28-.54-6.3-1.1-9.53l1-5-1-3 1-2c-.09-1.48-.25-2.96-.44-4.44-1.6-16.27-1.04-31.25 5.57-46.44.83-2.03 1.4-3.99 1.87-6.12h2l.29-1.62c.93-3.12 2.44-5.64 4.09-8.44l1.83-3.16C-85.32 24.49-84.1 22.7-82 21h2v-2l5-2-1-4 10.12-6 2.89-1.73 2.81-1.65 2.57-1.52C-54.56.81-52.28.88-49 1c1.68-.64 3.34-1.31 5-2 14.49-2.7 29.92-3.94 44 1z" transform="translate(534 3)"/></g><g class="G H"><path d="M0 0l2.32.24c3.63.42 5.72.83 8.8 2.88l2.87-.03c3.6.04 5.24.84 8.31 2.66l2.82 1.64L28 9.12l2.95 1.74 7.17 4.26-1 4 5 2v2h2c4.26 4.57 9.05 11.11 10.56 17.25l.44 1.75 2 1c1.7 3.53 2.81 7.28 4 11l1.15 3.45c3.99 13.53 4.55 28.69 1.85 42.55v3l-.06 2.57c-.11 2.44-.11 2.44 1.06 4.43-.09 1.46-.25 2.91-.43 4.36-.82 8.04-.64 16.08-.58 24.15.09 14.45.02 28.87-.49 43.31-.43 12.51-.54 25.02-.53 37.54l.01 2.36.05 23.78c.11 27.18.11 27.18-.52 37.55-1 16.61-.61 33.31-.57 49.95l.02 14.24.04 27.76 3.36-1.71 4.4-2.22 2.21-1.13 2.14-1.09 1.97-1c1.96-.86 3.84-1.39 5.92-1.85v-2l9-3v-2c6.63-4 6.63-4 10-4v-2c5.63-3 5.63-3 9-3v-2l11-6.4 3.75-2.19 5.37-3.12 3.27-1.91c2.61-1.38 2.61-1.38 4.61-1.38l1-2 6-2 1-2c1.75-1.28 1.75-1.28 3.88-2.62l2.12-1.35c2-1.03 2-1.03 5-1.03v-2c4.67-3.38 9.9-5.99 15.07-8.5 4.11-2 7.8-4.34 11.56-6.94 3.57-2.33 7.32-4.28 11.09-6.26 2.39-1.22 2.39-1.22 4.28-3.3 5.54-3 5.54-3 8-3v-2l2.44-1.18c3.61-1.84 7.11-3.81 10.61-5.83 1.95-.99 1.95-.99 3.95-.99l1-2 6-2 1-2c3-2 3-2 6-2v-2l6.88-4 1.97-1.15c4.93-2.85 4.93-2.85 7.15-2.85v-2l7-2v-2l7-2v-2l4.88-2.5 2.74-1.4c2.38-1.1 2.38-1.1 4.38-1.1v-2l7-2v-2c2.65-1.46 3.9-2 7-2v-2l3-1 2-2a145.41 145.41 0 0 1 6-2v-2l5.88-3 3.3-1.68c2.82-1.32 2.82-1.32 4.82-1.32v-2l2.44-.37 2.56-.63c.34-.65.66-1.31 1-2 15.51-9.05 38.16-8.55 55-5l2.16 1.14c1.81 1.11 1.81 1.11 3.66.27 4.5-.84 8.66 2.96 12.37 5.22l2.81 1.62 2.67 1.61 2.45 1.46c2.37 2.12 2.41 3.62 2.88 6.68l2.19.82c4.25 1.79 6.46 5.3 8.81 9.18v2h2l2.93 5.28c1.08 1.89 1.08 1.89 3.07 3.72 5.69 9.97 8.36 20.72 10 32l.32 2.02c2.41 17.42-4.03 36.37-13.32 50.98-.97 1.03-1.97 2.03-3 3l-2.06 2.69-1.94 2.31h-2l-1 3h-2l-.81 1.88c-1.19 2.12-1.19 2.12-4.19 4.12h-3l-1 2c-5.59 4.49-11.55 7.99-18.06 10.96-2.1.89-2.1.89-2.94 3.04l-4.7 1.95c-3.95 1.81-7.61 4.11-11.33 6.34-8.14 4.71-8.14 4.71-10.97 4.71v2l-2.74 1.07c-4.8 2.02-9.15 4.79-13.58 7.51-2.68 1.42-2.68 1.42-5.68 1.42l-1 2c-1.58 1.1-3.21 2.14-4.87 3.13l-2.68 1.63c-2.44 1.24-2.44 1.24-5.45 1.24v2l-2.43.38-2.57.62-1 2-6 2-1 2c-1.97.73-3.97 1.4-6 2v2l-7 2v2l-3.21 1.58c-8.94 4.32-8.94 4.32-17.47 9.36-2.97 1.85-4.88 2.74-8.32 3.06v2l-6.62 3.38-1.87.96c-3.76 1.9-7.46 3.43-11.51 4.66v2l-4.87 2.5-2.74 1.41c-2.39 1.09-2.39 1.09-4.39 1.09l-1 2-6 2-1 2c-1.97.73-3.97 1.4-6 2v2l-2.88 1.43-3.8 1.89-1.9.93c-2.81 1.4-5.53 2.82-8.18 4.49-2.24 1.26-2.24 1.26-5.24 1.26v2l-4.31 2.5-2.42 1.41c-2.27 1.09-2.27 1.09-5.27 1.09l-1 2c-3 2-3 2-6 2v2l-5 1v2l-3.43.88-3.57 1.12-1 2c-3 2-3 2-6 2l-1 2c-3 2-3 2-6 2v2l-2.43.38-2.57.62-1 2c-1.97 1.38-3.97 2.71-6 4 8.67 5.41 17.43 10.6 26.32 15.63l7.42 4.22 1.86 1.07 17.53 10.15 5.82 3.4 9.48 5.54 10.51 6.12 3.25 1.9c5.08 2.95 10.1 5.61 15.5 7.91 4.93 2.27 9.57 5.13 14.25 7.88l5.19 3.02 5.35 3.11 16.52 9.55 6.46 3.73 13.43 7.74 6.8 3.91 3.29 1.89c7.1 4.09 14.12 8.27 21.07 12.6 2.85 1.7 2.85 1.7 5.78 2.54 3.26 1.12 5.93 2.54 8.89 4.29l3.24 1.91 3.42 2.02c7.19 4.22 14.35 8.41 21.88 12 6.77 3.26 13.26 6.95 19.74 10.75l3 1.73 2.76 1.64 2.48 1.46 1.76 1.29v2l5 2v2l5 2v2l3 1c.69 2.07.69 2.07 1 4h2v2h2c13.69 15.65 18.8 36.89 17.69 57.28-.38 5.3-1.34 9.68-3.65 14.51-1.11 2.37-1.79 4.69-2.47 7.21-2.45 8.37-6.13 15.06-12.11 21.41-1.55 1.55-1.55 1.55-2.46 3.59h-2l-1 3h-2l-.18 1.76c-1.16 3.2-3.03 4.36-5.82 6.24-2.31.76-2.31.76-4 1v2l-5 1v2c-2.64 1.47-3.89 2-7 2v2c-25.38 8.35-48.33 9.36-73-3-8.13-4.43-16.07-9.2-24-14l-2.82-1.57-2.18-1.43v-2l-2.09-.77c-5.23-2.2-10.06-5.18-14.97-7.99l-5.79-3.29-3.71-2.12-3.38-1.93c-2.89-1.79-5.41-3.76-8.06-5.9a149.56 149.56 0 0 0-5.33-3.17l-3.13-1.8-3.35-1.9-5.29-3.03-3.61-2.06-17.16-9.97-24.86-14.33c-27.56-15.7-27.56-15.7-35.08-21.17-4.98-3.57-10.26-6.46-15.63-9.39-6.37-3.5-12.66-7.12-18.93-10.8l-28.99-16.72c-8.09-4.6-16.12-9.28-24.05-14.15-2.57-1.61-2.57-1.61-5.59-2.51l.11 3.41.38 12.56.16 5.42.23 7.81.09 2.44c.08 3.07.14 5.85-.47 8.86-.75 3.8-.5 7.53-.37 11.4l.14 5.47.09 2.91c.53 18.67.74 37.31.61 55.99l-.02 2.49-.03 4.58c-.02 3.71.34 7.04 1.08 10.66.08 2.25.09 4.49.07 6.73l-.03 4.22-.02 2.29c-.12 16.17.09 32.32.41 48.49l.7 71.81.01 7.16v11.33 4.17c.03 23.19.03 23.19-4.14 33.8l-1.16 3.2c-5.87 15.83-5.87 15.83-11.84 20.8h-2l-2 5h-2v2c-1.97 1.37-3.98 2.7-6 4l-1.74 1.76-1.26 1.24h-2v2c-14.96 8.59-14.96 8.59-22.76 9.64-2.31.38-4.14 1.09-6.3 1.99-9.8 3.39-21.68 1.55-31.81.5l-2.32-.24c-3.63-.42-5.72-.83-8.81-2.89l-2.86.04c-3.6-.04-5.24-.84-8.31-2.66l-2.82-1.64-2.88-1.74-2.95-1.73-7.18-4.27 1-4-5-2v-2h-2c-4.25-4.56-9.04-11.1-10.55-17.24l-.45-1.76-2-1c-1.69-3.52-2.8-7.27-4-11l-1.14-3.44c-3.99-13.53-4.55-28.69-1.86-42.56v-3l.07-2.56c.11-2.44.11-2.44-1.07-4.44.1-1.45.26-2.9.44-4.35.82-8.04.64-16.08.58-24.15-.09-14.45-.02-28.87.48-43.31.44-12.51.55-25.02.54-37.54l-.01-2.36-.05-23.78c-.11-27.18-.11-27.18.52-37.55 1-16.61.61-33.31.57-49.95l-.02-14.24-.05-27.77-3.35 1.72-4.39 2.22-2.22 1.13-2.14 1.09-1.97 1c-1.96.86-3.84 1.39-5.93 1.84v2l-9 3v2c-6.62 4-6.62 4-10 4v2c-5.62 3-5.62 3-9 3v2l-10.99 6.41-3.75 2.19-5.37 3.12-3.27 1.91c-2.62 1.37-2.62 1.37-4.62 1.37l-1 2-6 2-1 2c-1.74 1.29-1.74 1.29-3.87 2.63l-2.12 1.35c-2 1.02-2 1.02-5.01 1.02v2c-4.66 3.39-9.89 6-15.06 8.5-4.11 2.01-7.8 4.35-11.56 6.95-3.57 2.33-7.32 4.28-11.09 6.26-2.39 1.22-2.39 1.22-4.29 3.29-5.53 3-5.53 3-8 3v2l-2.43 1.19c-3.61 1.84-7.11 3.81-10.61 5.83-1.96.98-1.96.98-3.96.98l-1 2-6 2-1 2c-2.99 2-2.99 2-6 2v2l-6.87 4-1.97 1.16c-4.93 2.84-4.93 2.84-7.16 2.84v2l-7 2v2l-7 2v2l-4.87 2.5-2.74 1.41c-2.38 1.09-2.38 1.09-4.39 1.09v2l-7 2v2c-2.64 1.47-3.89 2-7 2v2l-3 1-2 2c-1.98.72-3.98 1.39-6 2v2l-5.87 3-3.3 1.69c-2.83 1.31-2.83 1.31-4.83 1.31v2l-2.43.38-2.57.62-1 2c-15.5 9.06-38.15 8.56-55 5l-2.15-1.13c-1.81-1.11-1.81-1.11-3.66-.27-4.5.84-8.66-2.96-12.37-5.22l-2.81-1.62-2.67-1.61-2.45-1.46c-2.37-2.12-2.41-3.62-2.89-6.69l-2.18-.81c-4.25-1.79-6.46-5.3-8.82-9.19v-2h-2l-2.92-5.27c-1.08-1.89-1.08-1.89-3.08-3.73-5.68-9.96-8.35-20.71-10-32l-.31-2.01c-2.41-17.42 4.03-36.37 13.31-50.99.98-1.02 1.98-2.02 3-3l2.07-2.68 1.93-2.32h2l1-3h2l.82-1.87c1.18-2.13 1.18-2.13 4.18-4.13h3l1-2c5.6-4.48 11.56-7.98 18.07-10.95 2.1-.89 2.1-.89 2.93-3.05l4.71-1.94c3.95-1.81 7.61-4.11 11.33-6.34 8.14-4.72 8.14-4.72 10.96-4.72v-2l2.76-1.06c4.79-2.02 9.14-4.79 13.57-7.51 2.67-1.43 2.67-1.43 5.67-1.43l1-2c1.59-1.09 3.22-2.13 4.88-3.12l2.68-1.63c2.44-1.25 2.44-1.25 5.44-1.25v-2l2.44-.37 2.56-.63 1-2 6-2c.34-.65.66-1.32 1-2 1.98-.72 3.98-1.39 6-2v-2l7-2v-2l3.22-1.57c8.94-4.32 8.94-4.32 17.47-9.36 2.97-1.85 4.88-2.74 8.31-3.07v-2l6.63-3.37 1.87-.96c3.76-1.9 7.46-3.43 11.5-4.67v-2l4.88-2.5 2.74-1.4c2.39-1.1 2.39-1.1 4.38-1.1.34-.65.66-1.32 1-2l6-2c.34-.65.66-1.32 1-2 1.98-.72 3.98-1.39 6-2v-2l2.89-1.42 3.8-1.89 1.9-.93c2.81-1.4 5.53-2.82 8.18-4.49 2.23-1.27 2.23-1.27 5.23-1.27v-2l4.32-2.5 2.42-1.4c2.26-1.1 2.26-1.1 5.26-1.1.34-.65.66-1.32 1-2 3-2 3-2 6-2v-2l5-1v-2l3.44-.87 3.56-1.13 1-2c3-2 3-2 6-2l1-2c3-2 3-2 6-2v-2l2.44-.37 2.56-.63 1-2 5-4-2.15-1.23-39.22-22.45-3.21-1.85-15.65-9.19-3.01-1.8-5.55-3.35c-4.34-2.6-8.48-4.71-13.26-6.36-3.62-1.42-6.88-3.5-10.19-5.51l-4.48-2.68-4.28-2.58-6.62-3.93-2.66-1.59c-2.73-1.55-2.73-1.55-5.82-2.76-5.42-2.26-10.44-5.3-15.52-8.22l-3.1-1.76c-13.15-7.48-13.15-7.48-16.28-10.74-2.53-2.07-5.09-4.07-7.74-6-2.33-2.06-2.93-2.96-3.26-6h-2c-1.69-1.79-1.69-1.79-3.56-4.18l-1.88-2.36c-1.62-2.55-2.17-4.48-2.56-7.46h-2l-3-7-1.5-3.56c-4.13-11.4-5.01-22.46-4.5-34.44l.13-2.98c.38-5.27 1.6-9.2 3.87-14.02l2-5.5c3.92-10.86 3.92-10.86 7-15.5h2l1-3h2l.69-2.74c1.52-3.75 3.1-4.92 6.31-7.26l2-3h2v-2h2l1-2 3-1v-2c13.7-7.93 26.93-13.49 43-14l1.96-.07c5.7-.13 10.92.59 16.48 1.83l2.54.55c10.04 2.28 18.2 6.18 27.07 11.4 2.91 1.71 5.85 3.33 8.82 4.93l2.49 1.35 4.87 2.6 2.23 1.22 2 1.06c1.54 1.13 1.54 1.13 2.54 4.13 2.28 1.06 2.28 1.06 5 2l5.79 3.16 3.3 1.85 3.41 1.93 3.42 1.92 9.08 5.14 2.68 1.52c2.33 1.49 2.33 1.49 3.79 2.97 2.11 2.08 4.46 3.33 7.04 4.78l3.39 1.93 1.81 1.01 5.65 3.19 5.85 3.32 19.17 10.97 3.2 1.85 31.42 18.46-.01-3.31-.04-12.22-.02-5.28-.02-7.6-.02-2.38c0-2.96.03-5.78.63-8.69.73-3.81.49-7.54.36-11.41l-.14-5.47-.09-2.91c-.53-18.67-.74-37.31-.61-55.99l.02-2.49.03-4.58c.02-3.71-.34-7.04-1.09-10.67a167.29 167.29 0 0 1-.06-6.72l.03-4.22.02-2.29c.12-16.17-.09-32.32-.41-48.49l-.7-71.81-.01-7.16V90.1v-4.17c-.03-23.19-.03-23.19 4.13-33.81l1.17-3.19c5.87-15.83 5.87-15.83 11.83-20.81h2l2-5h2v-2l6-4 1.76-1.74 1.24-1.26h2v-2c14.97-8.58 14.97-8.58 22.77-9.63 2.31-.38 4.14-1.09 6.3-1.99C-22.01-2.89-10.13-1.05 0 0z" transform="translate(527.875 .875)"/></g></svg>