<svg width="24" height="24" viewBox="0 0 24 24" fill="none" xmlns="http://www.w3.org/2000/svg">
<path d="M12 7.20869C12.4509 7.20869 12.8327 7.05097 13.1454 6.73555C13.4582 6.42012 13.6145 6.04487 13.6145 5.60979C13.6145 5.16021 13.4582 4.77951 13.1454 4.46771C12.8327 4.1559 12.4509 4 12 4C11.5564 4 11.1782 4.1559 10.8655 4.46771C10.5527 4.77951 10.3964 5.16021 10.3964 5.60979C10.3964 6.04487 10.5527 6.42012 10.8655 6.73555C11.1782 7.05097 11.5564 7.20869 12 7.20869ZM12 20C12.4509 20 12.8327 19.8423 13.1454 19.5269C13.4582 19.2114 13.6145 18.8325 13.6145 18.3901C13.6145 17.9478 13.4582 17.5707 13.1454 17.2589C12.8327 16.9472 12.4509 16.7913 12 16.7913C11.5564 16.7913 11.1782 16.9472 10.8655 17.2589C10.5527 17.5707 10.3964 17.9478 10.3964 18.3901C10.3964 18.8325 10.5527 19.2114 10.8655 19.5269C11.1782 19.8423 11.5564 20 12 20ZM3.97091 12.9408H20.029C20.2036 12.9408 20.3654 12.8973 20.5145 12.8103C20.6636 12.7233 20.7818 12.6055 20.8691 12.4568C20.9564 12.3082 21 12.1432 21 11.9619C21 11.7879 20.9564 11.6265 20.8691 11.4779C20.7818 11.3292 20.6636 11.2114 20.5145 11.1244C20.3654 11.0374 20.2036 10.9939 20.029 10.9939H3.97091C3.79636 10.9939 3.63636 11.0374 3.49091 11.1244C3.34545 11.2114 3.22727 11.3292 3.13636 11.4779C3.04545 11.6265 3 11.7879 3 11.9619C3 12.1432 3.04545 12.3082 3.13636 12.4568C3.22727 12.6055 3.34545 12.7233 3.49091 12.8103C3.63636 12.8973 3.79636 12.9408 3.97091 12.9408Z" fill="black" fill-opacity="0.8"/>
</svg>
