<svg width="24" height="24" viewBox="0 0 24 24" fill="none" xmlns="http://www.w3.org/2000/svg">
<path d="M5.02299 9.20715H18.9769C19.1609 9.20715 19.3295 9.15578 19.4827 9.05302C19.636 8.95027 19.7605 8.81669 19.8563 8.65228C19.9521 8.48787 20 8.30292 20 8.09741C20 7.90012 19.9521 7.71722 19.8563 7.54871C19.7605 7.38019 19.636 7.24661 19.4827 7.14797C19.3295 7.04932 19.1609 7 18.9769 7H5.02299C4.83908 7 4.6705 7.04932 4.51724 7.14797C4.36398 7.24661 4.23946 7.38019 4.14368 7.54871C4.04789 7.71722 4 7.90012 4 8.09741C4 8.30292 4.04789 8.48787 4.14368 8.65228C4.23946 8.81669 4.36398 8.95027 4.51724 9.05302C4.6705 9.15578 4.83908 9.20715 5.02299 9.20715ZM5.02299 17H18.9769C19.1609 17 19.3295 16.9507 19.4827 16.852C19.636 16.7534 19.7605 16.6198 19.8563 16.4513C19.9521 16.2828 20 16.0999 20 15.9026C20 15.6971 19.9521 15.5121 19.8563 15.3477C19.7605 15.1833 19.636 15.0497 19.4827 14.947C19.3295 14.8442 19.1609 14.7929 18.9769 14.7929H5.02299C4.83908 14.7929 4.6705 14.8442 4.51724 14.947C4.36398 15.0497 4.23946 15.1833 4.14368 15.3477C4.04789 15.5121 4 15.6971 4 15.9026C4 16.0999 4.04789 16.2828 4.14368 16.4513C4.23946 16.6198 4.36398 16.7534 4.51724 16.852C4.6705 16.9507 4.83908 17 5.02299 17Z" fill="black" fill-opacity="0.8"/>
</svg>
