<svg width="24" height="24" viewBox="0 0 24 24" fill="none" xmlns="http://www.w3.org/2000/svg">
<path d="M1.21394 18.9824C2.09517 18.9824 2.76208 18.7773 3.21468 18.3671C3.66729 17.9569 4.00149 17.2566 4.2173 16.2663L5.2424 11.4584H6.86998C7.13374 11.4584 7.34206 11.3939 7.49493 11.265C7.64779 11.1361 7.72423 10.9633 7.72423 10.7464C7.72423 10.5531 7.66578 10.4022 7.54888 10.2938C7.43198 10.1854 7.26863 10.1312 7.05881 10.1312H5.53015L5.78193 8.93576C5.90183 8.37908 6.07268 7.97768 6.29448 7.73157C6.51629 7.48546 6.87597 7.3624 7.37353 7.3624C7.45147 7.3624 7.52341 7.36094 7.58935 7.35801C7.65529 7.35508 7.71524 7.35069 7.76919 7.34482C8.20081 7.3038 8.41662 7.09578 8.41662 6.72076C8.41662 6.47464 8.31021 6.29445 8.0974 6.18019C7.88459 6.06592 7.56237 6.00879 7.13075 6.00879C6.2735 6.00879 5.60958 6.22707 5.13899 6.66362C4.6684 7.10018 4.3312 7.78724 4.12738 8.7248L3.83064 10.1312H2.71562C2.45185 10.1312 2.24203 10.1941 2.08617 10.3201C1.93031 10.4461 1.85238 10.6205 1.85238 10.8431C1.85238 11.0306 1.91232 11.1801 2.03222 11.2914C2.15211 11.4027 2.31697 11.4584 2.52678 11.4584H3.5429L2.55376 16.0554C2.42787 16.6297 2.25253 17.0355 2.02772 17.2728C1.80292 17.5101 1.45073 17.6288 0.971151 17.6288C0.905207 17.6288 0.84376 17.6302 0.78681 17.6332C0.72986 17.6361 0.680403 17.6405 0.63844 17.6464C0.428624 17.6698 0.269763 17.7372 0.161858 17.8485C0.0539526 17.9599 0 18.1063 0 18.288C0 18.5224 0.101911 18.6967 0.305732 18.811C0.509553 18.9252 0.812288 18.9824 1.21394 18.9824ZM11.9595 19C12.1154 19 12.2413 18.9604 12.3371 18.8813C12.4331 18.8022 12.4811 18.6865 12.4811 18.5341C12.4811 18.4697 12.4721 18.4126 12.4541 18.3628C12.4361 18.3129 12.4031 18.2411 12.3552 18.1474C11.8036 17.3153 11.378 16.4261 11.0782 15.4797C10.7786 14.5333 10.6287 13.5445 10.6287 12.5132C10.6287 11.517 10.7741 10.5326 11.0648 9.55983C11.3555 8.5871 11.7857 7.68469 12.3552 6.8526C12.4031 6.7647 12.4361 6.69439 12.4541 6.64165C12.4721 6.58891 12.4811 6.53031 12.4811 6.46585C12.4811 6.32522 12.4331 6.21242 12.3371 6.12745C12.2413 6.04248 12.1154 6 11.9595 6C11.8156 6 11.6792 6.03809 11.5503 6.11427C11.4215 6.19044 11.2851 6.32522 11.1412 6.51859C10.4638 7.35655 9.95576 8.28679 9.61703 9.30932C9.27835 10.3319 9.10901 11.3969 9.10901 12.5044C9.10901 13.6119 9.27538 14.6696 9.6081 15.6775C9.94082 16.6853 10.4519 17.62 11.1412 18.4814C11.2851 18.6748 11.4215 18.8095 11.5503 18.8857C11.6792 18.9619 11.8156 19 11.9595 19ZM13.8479 16.6707C13.9917 16.6707 14.1191 16.6414 14.23 16.5828C14.3409 16.5242 14.4533 16.4158 14.5672 16.2576L16.5365 13.5152H16.5724L18.5867 16.3015C18.7006 16.4539 18.8115 16.5535 18.9194 16.6003C19.0274 16.6473 19.1352 16.6707 19.2431 16.6707C19.4589 16.6707 19.6313 16.6062 19.7602 16.4773C19.8891 16.3484 19.9535 16.1931 19.9535 16.0114C19.9535 15.9236 19.9415 15.8416 19.9176 15.7653C19.8936 15.6892 19.8516 15.613 19.7916 15.5368L17.4896 12.478L19.7916 9.46314C19.9055 9.31079 19.9625 9.14671 19.9625 8.97092C19.9625 8.7834 19.8936 8.62959 19.7557 8.50946C19.6178 8.38933 19.4559 8.32927 19.2701 8.32927C19.1083 8.32927 18.9764 8.36589 18.8744 8.43914C18.7725 8.51239 18.6796 8.61347 18.5957 8.74239L16.6984 11.4584H16.6534L14.747 8.7336C14.6571 8.60468 14.5567 8.50507 14.4459 8.43475C14.3349 8.36443 14.1925 8.32927 14.0187 8.32927C13.8089 8.32927 13.6335 8.39812 13.4927 8.53583C13.3518 8.67354 13.2813 8.83028 13.2813 9.00607C13.2813 9.13499 13.2993 9.24194 13.3353 9.3269C13.3713 9.41187 13.4192 9.49244 13.4792 9.56861L15.6733 12.4341L13.3443 15.572C13.2843 15.654 13.2439 15.7346 13.223 15.8137C13.202 15.8928 13.1915 15.9763 13.1915 16.0642C13.1915 16.2341 13.2559 16.3777 13.3847 16.4949C13.5136 16.6121 13.668 16.6707 13.8479 16.6707ZM21.1495 19C21.2933 19 21.4297 18.9619 21.5586 18.8857C21.6875 18.8095 21.8238 18.6748 21.9677 18.4814C22.6571 17.62 23.1682 16.6853 23.5009 15.6775C23.8336 14.6696 24 13.6119 24 12.5044C24 11.3969 23.8306 10.3319 23.4919 9.30932C23.1532 8.28679 22.6451 7.35655 21.9677 6.51859C21.8238 6.32522 21.6875 6.19044 21.5586 6.11427C21.4297 6.03809 21.2933 6 21.1495 6C20.9936 6 20.8677 6.04248 20.7718 6.12745C20.6758 6.21242 20.6279 6.32522 20.6279 6.46585C20.6279 6.53031 20.6369 6.58891 20.6549 6.64165C20.6728 6.69439 20.7058 6.7647 20.7538 6.8526C21.3233 7.68469 21.7534 8.5871 22.0441 9.55983C22.3349 10.5326 22.4803 11.517 22.4803 12.5132C22.4803 13.5445 22.3305 14.5333 22.0307 15.4797C21.731 16.4261 21.3053 17.3153 20.7538 18.1474C20.7058 18.2411 20.6728 18.3129 20.6549 18.3628C20.6369 18.4126 20.6279 18.4697 20.6279 18.5341C20.6279 18.6748 20.6758 18.7876 20.7718 18.8726C20.8677 18.9575 20.9936 19 21.1495 19Z" fill="black" fill-opacity="0.8"/>
</svg>
