<svg width="24" height="24" viewBox="0 0 24 24" fill="none" xmlns="http://www.w3.org/2000/svg">
<path d="M5.86357 19C6.00581 19 6.12942 18.9789 6.2344 18.9367C6.33938 18.8946 6.44268 18.8489 6.54428 18.7997L17.9637 13.4759C18.2617 13.3354 18.509 13.1474 18.7054 12.9119C18.9018 12.6765 19 12.3901 19 12.0527C19 11.7154 18.9018 11.429 18.7054 11.1935C18.509 10.9581 18.2617 10.7701 17.9637 10.6295L6.54428 5.17922C6.44945 5.13002 6.35124 5.08785 6.24964 5.05271C6.14804 5.01757 6.0329 5 5.90421 5C5.64006 5 5.42332 5.08609 5.25399 5.25828C5.08466 5.43047 5 5.65713 5 5.93825C5 6.18424 5.05757 6.38102 5.17271 6.52861C5.28786 6.67621 5.4538 6.80271 5.67054 6.90813L16.6023 11.9157V12.0316L5.67054 17.0814C5.4538 17.1868 5.28786 17.3133 5.17271 17.4608C5.05757 17.6084 5 17.8052 5 18.0512C5 18.3394 5.08128 18.5696 5.24383 18.7418C5.40639 18.9139 5.61297 19 5.86357 19Z" fill="black" fill-opacity="0.8"/>
</svg>
