<svg width="24" height="24" viewBox="0 0 24 24" fill="none" xmlns="http://www.w3.org/2000/svg">
<path d="M18.1466 19C18.3972 19 18.6021 18.9139 18.7612 18.7418C18.9204 18.5696 19 18.3394 19 18.0512C19 17.8052 18.9424 17.6084 18.8273 17.4608C18.7122 17.3133 18.5496 17.1868 18.3397 17.0814L7.39769 12.0316V11.9157L18.3397 6.90813C18.5496 6.80271 18.7122 6.67621 18.8273 6.52861C18.9424 6.38102 19 6.18424 19 5.93825C19 5.65713 18.9171 5.43047 18.7511 5.25828C18.5852 5.08609 18.3701 5 18.106 5C17.9705 5 17.8536 5.01757 17.7554 5.05271C17.6572 5.08785 17.5573 5.13002 17.4558 5.17922L6.03629 10.6295C5.73827 10.7701 5.49105 10.9581 5.29463 11.1935C5.09821 11.429 5 11.7154 5 12.0527C5 12.3901 5.0999 12.6765 5.29971 12.9119C5.49952 13.1474 5.74504 13.3354 6.03629 13.4759L17.4558 18.7997C17.5641 18.8489 17.6691 18.8946 17.7707 18.9367C17.8723 18.9789 17.9976 19 18.1466 19Z" fill="black" fill-opacity="0.8"/>
</svg>
