<svg width="24" height="24" viewBox="0 0 24 24" fill="none" xmlns="http://www.w3.org/2000/svg">
<path d="M2.75053 8.00317H8.54332C8.75474 8.00317 8.93269 7.93082 9.07716 7.78611C9.22162 7.64142 9.29385 7.46673 9.29385 7.26204C9.29385 7.05734 9.22162 6.88088 9.07716 6.73265C8.93269 6.58443 8.75474 6.51032 8.54332 6.51032H2.75053C2.53911 6.51032 2.36117 6.58443 2.2167 6.73265C2.07223 6.88088 2 7.05734 2 7.26204C2 7.46673 2.07223 7.64142 2.2167 7.78611C2.36117 7.93082 2.53911 8.00317 2.75053 8.00317ZM5.80548 22C5.98167 22 6.12966 21.9594 6.24946 21.8782C6.36927 21.7971 6.49612 21.6577 6.63001 21.46L12.8245 12.2594L18.8499 3.34462C18.9204 3.23875 18.9714 3.13993 19.0031 3.04817C19.0349 2.95641 19.0508 2.8576 19.0508 2.75172C19.0508 2.53997 18.9714 2.36174 18.8128 2.21705C18.6543 2.07235 18.4658 2 18.2474 2C18.0641 2 17.9109 2.03706 17.7875 2.11117C17.6642 2.18528 17.5285 2.33174 17.3805 2.55055L11.334 11.5394L5.17124 20.6342C5.10077 20.733 5.04791 20.83 5.01268 20.9254C4.97745 21.0206 4.95983 21.1247 4.95983 21.2376C4.95983 21.4706 5.04263 21.6558 5.20824 21.7935C5.37385 21.9312 5.57293 22 5.80548 22ZM14.7061 17.3732C14.7061 17.5779 14.7784 17.7526 14.9228 17.8973C15.0673 18.042 15.2417 18.1143 15.4461 18.1143H17.613V20.2847C17.613 20.4894 17.6853 20.6641 17.8298 20.8088C17.9742 20.9535 18.1486 21.0259 18.353 21.0259C18.5574 21.0259 18.7336 20.9535 18.8816 20.8088C19.0296 20.6641 19.1036 20.4894 19.1036 20.2847V18.1143H21.2494C21.4538 18.1143 21.63 18.042 21.778 17.8973C21.926 17.7526 22 17.5779 22 17.3732C22 17.1614 21.926 16.9832 21.778 16.8385C21.63 16.6938 21.4538 16.6214 21.2494 16.6214H19.1036V14.4722C19.1036 14.2604 19.0296 14.0822 18.8816 13.9375C18.7336 13.7928 18.5574 13.7204 18.353 13.7204C18.1416 13.7204 17.9655 13.7928 17.8244 13.9375C17.6835 14.0822 17.613 14.2604 17.613 14.4722V16.6214H15.4461C15.2417 16.6214 15.0673 16.6938 14.9228 16.8385C14.7784 16.9832 14.7061 17.1614 14.7061 17.3732Z" fill="black" fill-opacity="0.8"/>
</svg>
