<svg width="24" height="24" viewBox="0 0 24 24" fill="none" xmlns="http://www.w3.org/2000/svg">
<path d="M6.68432 22C7.20635 22 7.51756 21.7433 7.61795 21.2299L11.1918 3.11909C11.1985 3.08487 11.2069 3.03867 11.2169 2.98049C11.227 2.92231 11.232 2.859 11.232 2.79055C11.232 2.54415 11.1517 2.35079 10.9911 2.21047C10.8304 2.07016 10.6297 2 10.3887 2C10.1076 2 9.89681 2.07358 9.75627 2.22074C9.61572 2.3679 9.52202 2.56126 9.47517 2.80082L5.90128 20.8912C5.88789 20.9459 5.87785 21.0024 5.87116 21.0605C5.86447 21.1187 5.86112 21.1718 5.86112 21.2197C5.86112 21.4729 5.93808 21.6663 6.09202 21.7997C6.24595 21.9332 6.44338 22 6.68432 22ZM13.2097 22C13.7317 22 14.0429 21.7433 14.1433 21.2299L17.7273 3.11909C17.7339 3.08487 17.7406 3.03867 17.7473 2.98049C17.754 2.92231 17.7574 2.859 17.7574 2.79055C17.7574 2.54415 17.6771 2.35079 17.5164 2.21047C17.3558 2.07016 17.1583 2 16.9241 2C16.6363 2 16.4238 2.07358 16.2866 2.22074C16.1494 2.3679 16.0574 2.56126 16.0105 2.80082L12.4266 20.8912C12.4199 20.9459 12.4133 21.0024 12.4066 21.0605C12.3999 21.1187 12.3965 21.1718 12.3965 21.2197C12.3965 21.4729 12.4735 21.6663 12.6274 21.7997C12.7813 21.9332 12.9754 22 13.2097 22ZM5.10819 9.04311H20.0664C20.3408 9.04311 20.565 8.95242 20.739 8.77104C20.913 8.58965 21 8.35865 21 8.07802C21 7.85214 20.9297 7.65878 20.7892 7.49794C20.6486 7.33709 20.4679 7.25667 20.247 7.25667H5.28889C5.01449 7.25667 4.79029 7.35078 4.61629 7.539C4.44227 7.72723 4.35527 7.96508 4.35527 8.25255C4.35527 8.48527 4.42554 8.67521 4.56609 8.82237C4.70664 8.96953 4.88734 9.04311 5.10819 9.04311ZM3.75293 16.2505H18.7111C18.9855 16.2505 19.2097 16.1598 19.3837 15.9784C19.5577 15.797 19.6447 15.566 19.6447 15.2853C19.6447 15.0595 19.5744 14.8662 19.4338 14.7053C19.2933 14.5445 19.1126 14.464 18.8918 14.464H3.93363C3.65923 14.464 3.43502 14.5582 3.26101 14.7464C3.087 14.9346 3 15.1725 3 15.46C3 15.6927 3.0686 15.8826 3.2058 16.0298C3.343 16.1769 3.52538 16.2505 3.75293 16.2505Z" fill="black" fill-opacity="0.8"/>
</svg>
