<svg width="24" height="24" viewBox="0 0 24 24" fill="none" xmlns="http://www.w3.org/2000/svg">
<path d="M6.21949 11.7814C7.21821 11.7814 8.00292 11.3934 8.57362 10.6175C9.14432 9.8416 9.42967 8.78767 9.42967 7.45573C9.42967 6.12379 9.14432 5.07457 8.57362 4.30807C8.00292 3.54157 7.21821 3.15832 6.21949 3.15832C5.22076 3.15832 4.4345 3.54314 3.8607 4.31278C3.2869 5.08242 3 6.13007 3 7.45573C3 8.78767 3.28535 9.8416 3.85605 10.6175C4.42675 11.3934 5.21456 11.7814 6.21949 11.7814ZM6.21949 10.462C5.67981 10.462 5.25798 10.1997 4.95402 9.67511C4.65007 9.1505 4.49809 8.41071 4.49809 7.45573C4.49809 6.5196 4.65007 5.78766 4.95402 5.25991C5.25798 4.73215 5.67981 4.46828 6.21949 4.46828C6.75297 4.46828 7.17168 4.73058 7.47565 5.25519C7.7796 5.7798 7.93158 6.51331 7.93158 7.45573C7.93158 8.41071 7.78115 9.1505 7.4803 9.67511C7.17944 10.1997 6.75917 10.462 6.21949 10.462ZM16.7899 20.8474C17.7885 20.8474 18.5732 20.4594 19.144 19.6835C19.7147 18.9076 20 17.8568 20 16.5312C20 15.1992 19.7147 14.1485 19.144 13.3788C18.5732 12.6092 17.7885 12.2243 16.7899 12.2243C15.7911 12.2243 15.0048 12.6092 14.4311 13.3788C13.8573 14.1485 13.5704 15.1992 13.5704 16.5312C13.5704 17.8631 13.8557 18.9155 14.4264 19.6883C14.9971 20.461 15.7849 20.8474 16.7899 20.8474ZM16.7899 19.5374C16.2501 19.5374 15.8283 19.2736 15.5243 18.7458C15.2204 18.2181 15.0684 17.4799 15.0684 16.5312C15.0684 15.5887 15.2204 14.8552 15.5243 14.3306C15.8283 13.806 16.2501 13.5437 16.7899 13.5437C17.3233 13.5437 17.742 13.8045 18.046 14.3259C18.3499 14.8474 18.5019 15.5825 18.5019 16.5312C18.5019 17.4799 18.3515 18.2181 18.0506 18.7458C17.7498 19.2736 17.3295 19.5374 16.7899 19.5374ZM5.54953 20.8851C5.72323 20.9857 5.92018 21.0202 6.14039 20.9888C6.36061 20.9574 6.54516 20.8349 6.69403 20.6213L17.6273 4.25153C17.7886 4.01906 17.8366 3.79445 17.7715 3.5777C17.7063 3.36094 17.587 3.19916 17.4133 3.09236C17.2519 3.0044 17.0674 2.97927 16.8596 3.01696C16.6518 3.05466 16.4673 3.18974 16.3059 3.4222L5.37274 19.7448C5.20525 19.9836 5.14942 20.2066 5.20525 20.4139C5.26108 20.6212 5.37584 20.7783 5.54953 20.8851Z" fill="black" fill-opacity="0.8"/>
</svg>
