<svg width="24" height="24" viewBox="0 0 24 24" fill="none" xmlns="http://www.w3.org/2000/svg">
<path d="M2 7.31497C2 7.51967 2.07223 7.69436 2.2167 7.83906C2.36117 7.98376 2.53911 8.05611 2.75053 8.05611H4.8964V10.216C4.8964 10.4277 4.97039 10.6042 5.11839 10.7454C5.26638 10.8865 5.43904 10.9571 5.63636 10.9571C5.84777 10.9571 6.02571 10.8848 6.17018 10.7401C6.31465 10.5954 6.38688 10.4207 6.38688 10.216V8.05611H8.54332C8.75474 8.05611 8.93269 7.98376 9.07716 7.83906C9.22162 7.69436 9.29385 7.51967 9.29385 7.31497C9.29385 7.10322 9.22162 6.925 9.07716 6.7803C8.93269 6.6356 8.75474 6.56325 8.54332 6.56325H6.38688V4.40339C6.38688 4.19163 6.31465 4.01341 6.17018 3.86871C6.02571 3.72401 5.84777 3.65167 5.63636 3.65167C5.43199 3.65167 5.25757 3.72401 5.1131 3.86871C4.96863 4.01341 4.8964 4.19163 4.8964 4.40339V6.56325H2.75053C2.53911 6.56325 2.36117 6.6356 2.2167 6.7803C2.07223 6.925 2 7.10322 2 7.31497ZM12.7294 12.4288L18.8605 3.34462C18.9309 3.23875 18.982 3.13993 19.0137 3.04817C19.0454 2.95641 19.0613 2.8576 19.0613 2.75172C19.0613 2.53997 18.982 2.36174 18.8234 2.21705C18.6649 2.07235 18.4764 2 18.2579 2C18.0746 2 17.9214 2.03706 17.798 2.11117C17.6747 2.18528 17.5391 2.33174 17.3911 2.55055L11.3234 11.5712L5.18181 20.6342C5.11134 20.733 5.05849 20.83 5.02325 20.9254C4.98801 21.0206 4.97039 21.1247 4.97039 21.2376C4.97039 21.4706 5.0532 21.6558 5.21881 21.7935C5.38441 21.9312 5.5835 22 5.81606 22C5.99224 22 6.14023 21.9594 6.26004 21.8782C6.37984 21.7971 6.50668 21.6577 6.64058 21.46L12.7294 12.4288ZM14.7061 17.4156C14.7061 17.6273 14.7784 17.8055 14.9228 17.9502C15.0673 18.0949 15.2417 18.1672 15.4461 18.1672H21.2494C21.4538 18.1672 21.63 18.0949 21.778 17.9502C21.926 17.8055 22 17.6273 22 17.4156C22 17.2108 21.926 17.0361 21.778 16.8915C21.63 16.7468 21.4538 16.6745 21.2494 16.6745H15.4461C15.2417 16.6745 15.0673 16.7468 14.9228 16.8915C14.7784 17.0361 14.7061 17.2108 14.7061 17.4156Z" fill="black" fill-opacity="0.8"/>
</svg>
