<svg width="24" height="24" viewBox="0 0 24 24" fill="none" xmlns="http://www.w3.org/2000/svg">
<path d="M5 9.3016C5 9.56013 5.10212 9.78454 5.30636 9.97485C5.5106 10.1652 5.75144 10.2603 6.0289 10.2603H10.9653V14.6984C10.9653 14.9569 11.0655 15.1777 11.2659 15.3609C11.4663 15.544 11.709 15.6355 11.9942 15.6355C12.2794 15.6355 12.5241 15.544 12.7283 15.3609C12.9325 15.1777 13.0347 14.9569 13.0347 14.6984V10.2603H17.971C18.2563 10.2603 18.4991 10.1652 18.6994 9.97485C18.8998 9.78454 19 9.56013 19 9.3016C19 9.03589 18.8998 8.80788 18.6994 8.61758C18.4991 8.42727 18.2563 8.33212 17.971 8.33212H13.0347V3.94793C13.0347 3.68941 12.9325 3.46678 12.7283 3.28007C12.5241 3.09336 12.2794 3 11.9942 3C11.709 3 11.4663 3.09336 11.2659 3.28007C11.0655 3.46678 10.9653 3.68941 10.9653 3.94793V8.33212H6.0289C5.75144 8.33212 5.5106 8.42727 5.30636 8.61758C5.10212 8.80788 5 9.03589 5 9.3016ZM5 20.0305C5 20.2962 5.10212 20.5242 5.30636 20.7145C5.5106 20.9048 5.75144 21 6.0289 21H17.971C18.2485 21 18.4894 20.9048 18.6936 20.7145C18.8979 20.5242 19 20.2962 19 20.0305C19 19.772 18.8979 19.5475 18.6936 19.3572C18.4894 19.1669 18.2485 19.0718 17.971 19.0718H6.0289C5.75144 19.0718 5.5106 19.1669 5.30636 19.3572C5.10212 19.5475 5 19.772 5 20.0305Z" fill="black" fill-opacity="0.8"/>
</svg>
