<svg width="24" height="24" viewBox="0 0 24 24" fill="none" xmlns="http://www.w3.org/2000/svg">
<path d="M7.27508 21H16.1341C16.3751 21 16.5781 20.9267 16.7431 20.78C16.908 20.6334 16.9905 20.433 16.9905 20.1787C16.9905 19.931 16.908 19.7306 16.7431 19.5774C16.5781 19.4242 16.3751 19.3476 16.1341 19.3476H8.00778V19.2596L13.1557 12.8457C13.2762 12.6893 13.3698 12.5329 13.4364 12.3764C13.503 12.22 13.5363 12.0636 13.5363 11.9071C13.5363 11.7507 13.503 11.591 13.4364 11.428C13.3698 11.2651 13.273 11.1086 13.1462 10.9587L8.01729 4.74036V4.65236H16.1341C16.3814 4.65236 16.5876 4.57578 16.7526 4.4226C16.9175 4.26942 17 4.06899 17 3.82129C17 3.56708 16.9175 3.36665 16.7526 3.21999C16.5876 3.07333 16.3814 3 16.1341 3H7.2846C7.01182 3 6.78027 3.05703 6.58996 3.1711C6.39965 3.28517 6.25533 3.43509 6.15701 3.62086C6.05868 3.80663 6.00952 4.00706 6.00952 4.22216C6.00952 4.39164 6.03965 4.55948 6.09991 4.72569C6.16018 4.89191 6.25375 5.04998 6.38062 5.1999L11.8711 11.8485V11.956L6.36159 18.8001C6.24106 18.9501 6.15066 19.1081 6.0904 19.2743C6.03013 19.4405 6 19.6084 6 19.7778C6 19.993 6.04916 20.1934 6.14749 20.3792C6.24582 20.5649 6.39014 20.7148 6.58045 20.8289C6.77076 20.943 7.0023 21 7.27508 21Z" fill="black" fill-opacity="0.8"/>
</svg>
