<svg width="24" height="24" viewBox="0 0 24 24" fill="none" xmlns="http://www.w3.org/2000/svg">
<path d="M4.85126 21C5.33225 21 5.70484 20.8529 5.96905 20.5588C6.23325 20.2646 6.43648 19.9036 6.57875 19.4757L11.2023 4.78496H22.0245C22.3158 4.78496 22.5512 4.70306 22.7307 4.53927C22.9102 4.37548 23 4.15654 23 3.88245C23 3.61504 22.9102 3.40111 22.7307 3.24067C22.5512 3.08022 22.3158 3 22.0245 3H11.182C10.6671 3 10.2759 3.10028 10.0083 3.30084C9.74071 3.50139 9.53917 3.82229 9.40368 4.26351L4.96304 18.6535H4.7903L2.87991 12.005C2.79861 11.7309 2.68006 11.527 2.52424 11.3933C2.36843 11.2596 2.17197 11.1928 1.93487 11.1928C1.66389 11.1928 1.44034 11.278 1.2642 11.4485C1.08807 11.6189 1 11.8245 1 12.0652C1 12.1655 1.01016 12.2607 1.03048 12.351C1.05081 12.4412 1.07113 12.5231 1.09145 12.5967L3.24572 19.5861C3.37444 19.9939 3.56243 20.3315 3.8097 20.5989C4.05697 20.8663 4.40415 21 4.85126 21ZM13.1331 18.9543C13.3159 18.9543 13.4683 18.9159 13.5903 18.839C13.7122 18.7621 13.8443 18.6267 13.9866 18.4329L16.3949 15.0735H16.4356L18.8235 18.4329C18.9726 18.6267 19.1064 18.7621 19.2249 18.839C19.3434 18.9159 19.4942 18.9543 19.6771 18.9543C19.9277 18.9543 20.1378 18.8774 20.3072 18.7237C20.4765 18.5699 20.5612 18.376 20.5612 18.1421C20.5612 17.9281 20.4934 17.7309 20.3579 17.5504L17.5635 13.8L20.3782 10.0295C20.5205 9.84234 20.5916 9.64513 20.5916 9.43789C20.5916 9.21727 20.5104 9.03176 20.3478 8.88134C20.1852 8.73092 19.982 8.65571 19.7381 8.65571C19.5619 8.65571 19.4112 8.69081 19.2859 8.76101C19.1606 8.8312 19.0336 8.95989 18.9048 9.14708L16.5981 12.5265H16.5473L14.1694 9.13705C14.0408 8.95655 13.9138 8.8312 13.7884 8.76101C13.6631 8.69081 13.5056 8.65571 13.3159 8.65571C13.072 8.65571 12.8621 8.73761 12.6859 8.9014C12.5098 9.06519 12.4217 9.25739 12.4217 9.478C12.4217 9.70529 12.503 9.91922 12.6655 10.1198L15.3381 13.7499L12.503 17.6106C12.3743 17.7844 12.3099 17.9749 12.3099 18.1822C12.3099 18.4028 12.3878 18.5866 12.5437 18.7337C12.6995 18.8808 12.896 18.9543 13.1331 18.9543Z" fill="black" fill-opacity="0.8"/>
</svg>
