<svg version="1.2" xmlns="http://www.w3.org/2000/svg" viewBox="0 0 2048 2048" width="2048" height="2048">
	<style>
		.s0 { fill: #ea4335 } 
		.s1 { fill: #fbbc05 } 
		.s2 { fill: #4285f4 } 
		.s3 { fill: #34a853 } 
	</style>
	<g id="Background">
		<path id="Path 0" class="s0" d="m1002.5 0.69c-3.3 0.18-16.8 1-30 1.82-13.2 0.83-26.82 1.84-30.26 2.25-3.44 0.41-6.26 1.08-6.25 1.49 0 0.41-1.9 0.75-4.24 0.76-2.34 0-16.4 1.59-31.25 3.53-14.85 1.94-29.48 3.95-32.5 4.47-3.02 0.52-7.87 1.29-10.76 1.72-2.89 0.42-5.25 1-5.23 1.27 0.02 0.27-2.79 1.08-6.24 1.79-3.45 0.71-9.87 1.97-14.27 2.8-4.4 0.82-13.29 2.72-19.76 4.2-6.47 1.49-11.75 2.94-11.73 3.21 0.01 0.27-2.34 1.03-5.24 1.68-2.9 0.65-7.39 1.47-9.99 1.81-2.6 0.35-4.73 0.94-4.74 1.32-0.01 0.38-2.61 1.01-5.78 1.4-3.17 0.39-5.87 1.17-6.01 1.75-0.14 0.57-2.05 1.04-4.25 1.04-2.2 0-4 0.45-4 1 0 0.55-0.9 1-2 1-1.1 0-1.99 0.34-1.99 0.75 0.01 0.41-5.4 2.1-12.01 3.75-6.61 1.65-12.01 3.23-11.99 3.5 0.01 0.27-3.59 1.4-8.01 2.5-4.42 1.1-8.03 2.34-8.02 2.75 0.01 0.41-0.88 0.75-1.98 0.75-1.1 0-1.99 0.34-1.98 0.75 0.01 0.41-2.7 1.42-6.02 2.25-3.32 0.83-6.02 1.73-6 2 0.02 0.27-2.68 1.17-6 2-3.32 0.83-6.03 1.84-6.02 2.25 0.01 0.41-0.88 0.75-1.98 0.75-1.1 0-2 0.45-2 1 0 0.55-1.8 1.22-4 1.5-2.2 0.28-4 0.95-4 1.5 0 0.55-1.8 1.22-4 1.5-2.2 0.28-4 0.95-4 1.5 0 0.55-1.8 1.22-4 1.5-2.2 0.28-4 0.95-4 1.5 0 0.55-0.9 1-2 1-1.1 0-1.99 0.56-1.98 1.25 0.01 0.7-2.62 1.91-6.02 2.75-3.32 0.83-6.03 1.84-6.02 2.25 0.01 0.41-1.78 0.97-3.98 1.25-2.2 0.28-4 0.95-4 1.5 0 0.55-0.9 1-2 1-1.1 0-2 0.45-2 1 0 0.55-1.8 1.22-4 1.5q-4 0.5-4 2c0 0.83-0.89 1.5-2 1.5-1.1 0-2 0.45-2 1 0 0.55-1.8 1.22-4 1.5-2.2 0.28-4 0.95-4 1.5 0 0.55-0.9 1-2 1-1.1 0-2 0.45-2 1 0 0.55-0.9 1-2 1-1.1 0-2 0.45-2 1 0 0.55-0.9 1-2 1-1.11 0-2 0.67-2 1.5 0 0.83-0.89 1.5-2 1.5-1.1 0-2 0.45-2 1 0 0.55-1.8 1.22-4 1.5-2.2 0.28-4 0.95-4 1.5 0 0.55-0.9 1-2 1-1.1 0-2 0.45-2 1 0 0.55-0.9 1-2 1-1.1 0-2 0.45-2 1 0 0.55-0.9 1-2 1-1.11 0-2 0.67-2 1.5 0 0.83-0.89 1.5-2 1.5-1.1 0-2 0.45-2 1 0 0.55-1.8 1.22-4 1.5-2.2 0.28-4 0.95-4 1.5 0 0.55-0.9 1-2 1-1.11 0-2 0.67-2 1.5q0 1.5-4 2c-3.17 0.4-4 0.92-4 2.5q0 2-2 2c-1.1 0-2 0.45-2 1 0 0.55-1.8 1.22-4 1.5q-4 0.5-4 2c0 0.83-0.89 1.5-2 1.5-1.1 0-2 0.45-2 1 0 0.55-0.9 1-2 1-1.11 0-2 0.67-2 1.5 0 0.83-0.89 1.5-2 1.5-1.1 0-2 0.45-2 1 0 0.55-0.9 1-2 1-1.11 0-2 0.67-2 1.5q0 1.5-4 2-4 0.5-4 2c0 0.83-0.89 1.5-2 1.5-1.11 0-2 0.67-2 1.5 0 0.83-0.89 1.5-2 1.5-1.1 0-2 0.45-2 1 0 0.55-0.9 1-2 1-1.11 0-2 0.67-2 1.5 0 0.83-0.89 1.5-2 1.5-1.1 0-2 0.45-2 1 0 0.55-0.9 1-2 1-1.1 0-2 0.45-2 1 0 0.55-0.9 1-2 1q-2 0-2 2 0 2-2 2c-1.1 0-2 0.45-2 1 0 0.55-0.9 1-2 1-1.1 0-2 0.45-2 1 0 0.55-0.9 1-2 1-1.11 0-2 0.67-2 1.5 0 0.83-0.89 1.5-2 1.5q-2 0-2 2 0 2-2 2c-1.1 0-2 0.45-2 1 0 0.55-0.9 1-2 1-1.1 0-2 0.45-2 1 0 0.55-0.9 1-2 1-1.11 0-2 0.67-2 1.5 0 0.83-0.89 1.5-2 1.5-1.1 0-2 0.45-2 1 0 0.55-0.9 1-2 1q-2 0-2 2 0 2-2 2c-1.11 0-2 0.67-2 1.5 0 0.83-0.89 1.5-2 1.5-1.1 0-2 0.45-2 1 0 0.55-0.9 1-2 1-1.11 0-2 0.67-2 1.5 0 0.83-0.89 1.5-2 1.5q-2 0-2 2 0 2-2 2c-1.1 0-2 0.45-2 1 0 0.55-0.9 1-2 1-1.11 0-2 0.67-2 1.5 0 0.83-0.89 1.5-2 1.5-1.11 0-2 0.67-2 1.5 0 0.83-0.89 1.5-2 1.5q-2 0-2 2 0 2-2 2c-1.11 0-2 0.67-2 1.5 0 0.83-0.89 1.5-2 1.5-1.11 0-2 0.67-2 1.5 0 0.83-0.89 1.5-2 1.5-1.1 0-2 0.45-2 1 0 0.55-0.9 1-2 1q-2 0-2 2 0 2-2 2-2 0-2 2 0 2-2 2c-1.1 0-2 0.45-2 1 0 0.55-0.9 1-2 1-1.47 0-2 0.67-2 2.5 0 1.83-0.53 2.5-2 2.5-1.11 0-2 0.67-2 1.5 0 0.83-0.89 1.5-2 1.5-1.1 0-2 0.45-2 1 0 0.55-0.9 1-2 1q-2 0-2 2 0 2-2 2-2 0-2 2 0 2-2 2c-1.11 0-2 0.67-2 1.5 0 0.83-0.89 1.5-2 1.5-1.11 0-2 0.67-2 1.5 0 0.83-0.89 1.5-2 1.5-1.47 0-2 0.67-2 2.5 0 1.83-0.53 2.5-2 2.5-1.11 0-2 0.67-2 1.5 0 0.83-0.89 1.5-2 1.5-1.11 0-2 0.67-2 1.5 0 0.83-0.89 1.5-2 1.5q-2 0-2 2 0 2-2 2-2 0-2 2 0 2-2 2c-1.11 0-2 0.67-2 1.5 0 0.83-0.89 1.5-2 1.5q-2 0-2 2 0 2-2 2-2 0-2 2 0 2-2 2-2 0-2 2 0 2-2 2-2 0-2 2 0 2-2 2-2 0-2 2 0 2-2 2-2 0-2 2 0 2-2 2-2 0-2 2 0 2-2 2-2 0-2 2 0 2-2 2-2 0-2 2 0 2-2 2-2 0-2 2 0 2-2 2-2 0-2 2 0 2-2 2c-1.47 0-2 0.67-2 2.5 0 1.83-0.53 2.5-2 2.5q-2 0-2 2 0 2-2 2-2 0-2 2 0 2-2 2c-1.47 0-2 0.67-2 2.5 0 1.83-0.53 2.5-2 2.5-1.47 0-2 0.67-2 2.5 0 1.83-0.53 2.5-2 2.5q-2 0-2 2 0 2-2 2-2 0-2 2 0 2-2 2c-1.56 0-2 0.67-2 3 0 2.33-0.44 3-2 3-1.11 0-2 0.67-2 1.5 0 0.83-0.89 1.5-2 1.5-1.47 0-2 0.67-2 2.5 0 1.83-0.53 2.5-2 2.5-1.56 0-2 0.67-2 3 0 2.33-0.44 3-2 3-1.11 0-2 0.67-2 1.5 0 0.83-0.89 1.5-2 1.5-1.56 0-2 0.67-2 3 0 2.33-0.44 3-2 3-1.47 0-2 0.67-2 2.5 0 1.83-0.53 2.5-2 2.5q-2 0-2 2 0 2-2 2c-1.56 0-2 0.67-2 3 0 2.33-0.44 3-2 3-1.47 0-2 0.67-2 2.5 0 1.83-0.53 2.5-2 2.5-1.47 0-2 0.67-2 2.5 0 1.83-0.53 2.5-2 2.5-1.56 0-2 0.67-2 3 0 2.33-0.44 3-2 3-1.56 0-2 0.67-2 3 0 2.33-0.44 3-2 3q-2 0-2 2 0 2-2 2c-1.62 0-2 0.67-2 3.5 0 2.83-0.38 3.5-2 3.5-1.47 0-2 0.67-2 2.5 0 1.83-0.53 2.5-2 2.5-1.47 0-2 0.67-2 2.5 0 1.83-0.53 2.5-2 2.5-1.56 0-2 0.67-2 3 0 2.33-0.44 3-2 3-1.56 0-2 0.67-2 3 0 2.33-0.44 3-2 3-1.56 0-2 0.67-2 3 0 2.33-0.44 3-2 3-1.56 0-2 0.67-2 3 0 2.33-0.44 3-2 3-1.62 0-2 0.67-2 3.5 0 2.83-0.38 3.5-2 3.5-1.47 0-2 0.67-2 2.5 0 1.83-0.53 2.5-2 2.5-1.62 0-2 0.67-2 3.5 0 2.83-0.38 3.5-2 3.5-1.67 0-2 0.67-2 4 0 3.33-0.33 4-2 4q-2 0-2 2 0 2-2 2c-1.67 0-2 0.67-2 4 0 3.33-0.33 4-2 4-1.62 0-2 0.67-2 3.5 0 2.83-0.38 3.5-2 3.5-1.56 0-2 0.67-2 3 0 2.33-0.44 3-2 3-1.62 0-2 0.67-2 3.5 0 2.83-0.38 3.5-2 3.5-1.67 0-2 0.67-2 4 0 3.33-0.33 4-2 4-1.62 0-2 0.67-2 3.5 0 2.83-0.38 3.5-2 3.5-1.62 0-2 0.67-2 3.5 0 2.83-0.38 3.5-2 3.5-1.7 0-2 0.67-2 4.5 0 3.83-0.3 4.5-2 4.5-1.56 0-2 0.67-2 3 0 2.33-0.44 3-2 3-1.67 0-2 0.67-2 4 0 3.33 0.33 4 2 4 1.11 0 2 0.67 2 1.5 0 0.83 0.89 1.5 2 1.5q2 0 2 2 0 2 2 2c1.11 0 2 0.67 2 1.5 0 0.83 0.89 1.5 2 1.5 1.1 0 2 0.45 2 1 0 0.55 0.9 1 2 1 1.11 0 2 0.67 2 1.5 0 0.83 0.89 1.5 2 1.5q2 0 2 2 0 2 2 2c1.11 0 2 0.67 2 1.5 0 0.83 0.89 1.5 2 1.5 1.11 0 2 0.67 2 1.5 0 0.83 0.89 1.5 2 1.5 1.11 0 2 0.67 2 1.5 0 0.83 0.89 1.5 2 1.5 1.11 0 2 0.67 2 1.5 0 0.83 0.89 1.5 2 1.5 1.17 0 2.21 0.83 2.5 2 0.31 1.23 1.08 1.81 2 1.5 0.89-0.3 1.5 0.11 1.5 1 0 0.83 0.89 1.5 2 1.5 1.11 0 2 0.67 2 1.5 0 0.83 0.89 1.5 2 1.5q2 0 2 2 0 2 2 2c1.11 0 2 0.67 2 1.5 0 0.83 0.89 1.5 2 1.5 1.1 0 2 0.45 2 1 0 0.55 0.9 1 2 1 1.11 0 2 0.67 2 1.5 0 0.83 0.89 1.5 2 1.5q2 0 2 2 0 2 2 2c1.11 0 2 0.67 2 1.5 0 0.83 0.89 1.5 2 1.5 1.11 0 2 0.67 2 1.5 0 0.83 0.89 1.5 2 1.5q2 0 2 2 0 2 2 2c1.1 0 2 0.45 2 1 0 0.55 0.9 1 2 1 1.11 0 2 0.67 2 1.5 0 0.83 0.89 1.5 2 1.5 1.11 0 2 0.67 2 1.5 0 0.83 0.89 1.5 2 1.5 1.11 0 2 0.67 2 1.5 0 0.83 0.89 1.5 2 1.5q2 0 2 2 0 2 2 2c1.11 0 2 0.67 2 1.5 0 0.83 0.89 1.5 2 1.5 1.1 0 2 0.45 2 1 0 0.55 0.9 1 2 1 1.11 0 2 0.67 2 1.5 0 0.83 0.89 1.5 2 1.5q2 0 2 2 0 2 2 2c1.11 0 2 0.67 2 1.5 0 0.83 0.89 1.5 2 1.5 1.11 0 2 0.67 2 1.5 0 0.83 0.89 1.5 2 1.5q2 0 2 2 0 2 2 2c1.1 0 2 0.45 2 1 0 0.55 0.9 1 2 1q2 0 2 2 0 2 2 2c1.11 0 2 0.67 2 1.5 0 0.83 0.89 1.5 2 1.5 1.11 0 2 0.67 2 1.5 0 0.83 0.89 1.5 2 1.5 1.11 0 2 0.67 2 1.5 0 0.83 0.89 1.5 2 1.5 1.11 0 2 0.67 2 1.5 0 0.83 0.89 1.5 2 1.5 1.11 0 2 0.67 2 1.5 0 0.83 0.89 1.5 2 1.5q2 0 2 2 0 2 2 2c1.11 0 2 0.67 2 1.5 0 0.83 0.89 1.5 2 1.5 1.1 0 2 0.45 2 1 0 0.55 0.9 1 2 1 1.11 0 2 0.67 2 1.5 0 0.83 0.89 1.5 2 1.5q2 0 2 2 0 2 2 2c1.11 0 2 0.67 2 1.5 0 0.83 0.89 1.5 2 1.5 1.11 0 2 0.67 2 1.5 0 0.83 0.89 1.5 2 1.5 1.11 0 2 0.67 2 1.5 0 0.83 0.89 1.5 2 1.5 1.11 0 2 0.67 2 1.5 0 0.83 0.89 1.5 2 1.5 1.11 0 2 0.67 2 1.5 0 0.83 0.89 1.5 2 1.5 1.11 0 2 0.67 2 1.5 0 0.83 0.89 1.5 2 1.5 1.11 0 2 0.67 2 1.5 0 0.83 0.89 1.5 2 1.5q2 0 2 2 0 2 2 2c1.11 0 2 0.67 2 1.5 0 0.83 0.89 1.5 2 1.5 1.1 0 2 0.45 2 1 0 0.55 0.9 1 2 1 1.11 0 2 0.67 2 1.5 0 0.83 0.89 1.5 2 1.5q2 0 2 2 0 2 2 2c1.11 0 2 0.67 2 1.5 0 0.83 0.89 1.5 2 1.5 1.11 0 2 0.67 2 1.5 0 0.83 0.89 1.5 2 1.5q2 0 2 2 0 2 2 2c1.1 0 2 0.45 2 1 0 0.55 0.68 1 1.5 1 0.82 0 1.73 0.67 2 1.5 0.27 0.83 1.4 1.5 2.5 1.5 1.11 0 2 0.67 2 1.5 0 0.83 0.89 1.5 2 1.5q2 0 2 2 0 2 2 2c1.11 0 2 0.67 2 1.5 0 0.83 0.89 1.5 2 1.5 1.11 0 2 0.67 2 1.5 0 0.83 0.89 1.5 2 1.5 1.1 0 2 0.45 2 1 0 0.55 0.9 1 2 1q2 0 2 2 0 2 2 2c1.11 0 2 0.67 2 1.5 0 0.83 0.89 1.5 2 1.5 1.11 0 2 0.67 2 1.5 0 0.83 0.89 1.5 2 1.5 1.11 0 2 0.67 2 1.5 0 0.83 0.89 1.5 2 1.5q2 0 2 2 0 2 2 2c1.1 0 2 0.45 2 1 0 0.55 0.9 1 2 1 1.11 0 2 0.67 2 1.5 0 0.83 0.89 1.5 2 1.5 1.11 0 2 0.67 2 1.5 0 0.83 0.89 1.5 2 1.5q2 0 2 2 0 2 2 2c1.11 0 2 0.67 2 1.5 0 0.83 0.89 1.5 2 1.5 1.11 0 2 0.67 2 1.5 0 0.83 0.89 1.5 2 1.5 1.1 0 2 0.45 2 1 0 0.55 0.9 1 2 1 1.47 0 2 0.67 2 2.5 0 1.83 0.53 2.5 2 2.5 1.11 0 2 0.67 2 1.5 0 0.83 0.89 1.5 2 1.5 1.1 0 2 0.45 2 1 0 0.55 0.9 1 2 1 1.11 0 2 0.67 2 1.5 0 0.83 0.89 1.5 2 1.5 1.41 0 1.99 0.66 1.98 2.25-0.02 2.03 0.29 2.18 3.25 1.49 1.8-0.42 3.61-0.76 4.02-0.75 0.41 0 0.75-2.69 0.75-5.99 0-5.33 0.22-6 2-6 1.78 0 2-0.67 2-6 0-5.33 0.22-6 2-6 1.67 0 2-0.67 2-4 0-3.33 0.33-4 2-4 1.76 0 2-0.67 2-5.5 0-4.83 0.24-5.5 2-5.5 1.73 0 2-0.67 2-5 0-4.33 0.27-5 2-5 1.62 0 2-0.67 2-3.5 0-2.83 0.38-3.5 2-3.5 1.7 0 2-0.67 2-4.5 0-3.83 0.3-4.5 2-4.5 1.7 0 2-0.67 2-4.5 0-3.83 0.3-4.5 2-4.5 1.56 0 2-0.67 2-3 0-2.33 0.44-3 2-3 1.7 0 2-0.67 2-4.5 0-3.83 0.3-4.5 2-4.5 1.67 0 2-0.67 2-4 0-3.33 0.33-4 2-4 1.56 0 2-0.67 2-3 0-2.33 0.44-3 2-3 1.67 0 2-0.67 2-4 0-3.33 0.33-4 2-4 1.56 0 2-0.67 2-3 0-2.33 0.44-3 2-3 1.56 0 2-0.67 2-3 0-2.33 0.44-3 2-3 1.67 0 2-0.67 2-4 0-3.33 0.33-4 2-4 1.56 0 2-0.67 2-3 0-2.33 0.44-3 2-3 1.56 0 2-0.67 2-3 0-2.33 0.44-3 2-3 1.47 0 2-0.67 2-2.5 0-1.83 0.53-2.5 2-2.5 1.62 0 2-0.67 2-3.5 0-2.83 0.38-3.5 2-3.5q2 0 2-2 0-2 2-2c1.56 0 2-0.67 2-3 0-2.33 0.44-3 2-3 1.56 0 2-0.67 2-3 0-2.33 0.44-3 2-3q2 0 2-2 0-2 2-2c1.56 0 2-0.67 2-3 0-2.33 0.44-3 2-3 1.47 0 2-0.67 2-2.5 0-1.83 0.53-2.5 2-2.5q2 0 2-2 0-2 2-2c1.56 0 2-0.67 2-3 0-2.33 0.44-3 2-3 1.47 0 2-0.67 2-2.5 0-1.83 0.53-2.5 2-2.5q2 0 2-2 0-2 2-2c1.47 0 2-0.67 2-2.5 0-1.83 0.53-2.5 2-2.5q2 0 2-2 0-2 2-2c1.47 0 2-0.67 2-2.5 0-1.83 0.53-2.5 2-2.5q2 0 2-2 0-2 2-2c1.47 0 2-0.67 2-2.5 0-1.83 0.53-2.5 2-2.5 1.11 0 2-0.67 2-1.5 0-0.83 0.89-1.5 2-1.5q2 0 2-2 0-2 2-2c1.47 0 2-0.67 2-2.5 0-1.83 0.53-2.5 2-2.5 1.11 0 2-0.67 2-1.5 0-0.83 0.89-1.5 2-1.5q2 0 2-2 0-2 2-2c1.47 0 2-0.67 2-2.5 0-1.83 0.53-2.5 2-2.5 1.11 0 2-0.67 2-1.5 0-0.83 0.89-1.5 2-1.5 1.11 0 2-0.67 2-1.5 0-0.83 0.89-1.5 2-1.5q2 0 2-2 0-2 2-2 2 0 2-2 0-2 2-2c1.11 0 2-0.67 2-1.5 0-0.83 0.89-1.5 2-1.5 1.11 0 2-0.67 2-1.5 0-0.83 0.89-1.5 2-1.5 1.47 0 2-0.67 2-2.5 0-1.83 0.53-2.5 2-2.5 1.1 0 2-0.45 2-1 0-0.55 0.9-1 2-1q2 0 2-2 0-2 2-2c1.11 0 2-0.67 2-1.5 0-0.83 0.89-1.5 2-1.5 1.11 0 2-0.67 2-1.5 0-0.83 0.89-1.5 2-1.5 1.11 0 2-0.67 2-1.5 0-0.83 0.89-1.5 2-1.5 1.11 0 2-0.67 2-1.5 0-0.83 0.89-1.5 2-1.5 1.1 0 2-0.45 2-1 0-0.55 0.9-1 2-1q2 0 2-2 0-2 2-2c1.11 0 2-0.67 2-1.5 0-0.83 0.89-1.5 2-1.5 1.1 0 2-0.45 2-1 0-0.55 0.9-1 2-1 1.11 0 2-0.67 2-1.5 0-0.83 0.89-1.5 2-1.5q2 0 2-2 0-2 2-2c1.1 0 2-0.45 2-1 0-0.55 0.9-1 2-1 1.1 0 2-0.45 2-1 0-0.55 0.9-1 2-1 1.11 0 2-0.67 2-1.5 0-0.83 0.89-1.5 2-1.5 1.1 0 2-0.45 2-1 0-0.55 0.9-1 2-1 1.11 0 2-0.67 2-1.5 0-0.83 0.89-1.5 2-1.5 1.11 0 2-0.67 2-1.5 0-0.83 0.89-1.5 2-1.5 1.1 0 2-0.45 2-1 0-0.55 0.9-1 2-1 1.1 0 2-0.45 2-1 0-0.55 0.9-1 2-1q2 0 2-2c0-1.58 0.83-2.1 4-2.5q4-0.5 4-2c0-0.83 0.89-1.5 2-1.5 1.1 0 2-0.45 2-1 0-0.55 1.8-1.23 4-1.5q4-0.5 4-2c0-0.83 0.89-1.5 2-1.5 1.11 0 2-0.67 2-1.5q0-1.5 4-2c2.2-0.27 4-0.95 4-1.5 0-0.55 0.9-1 2-1 1.1 0 2-0.45 2-1 0-0.55 0.9-1 2-1 1.1 0 2-0.45 2-1 0-0.55 0.9-1 2-1 1.1 0 2-0.45 2-1 0-0.55 0.9-1 2-1 1.1 0 2-0.45 2-1 0-0.55 0.9-1 2-1 1.1 0 2-0.45 2-1 0-0.55 0.9-1 2-1 1.1 0 2-0.45 2-1 0-0.55 1.8-1.23 4-1.5 2.2-0.27 4-0.95 4-1.5 0-0.55 1.8-1.23 4-1.5 2.2-0.27 4-0.95 4-1.5 0-0.55 0.9-1 2-1 1.1 0 2-0.45 2-1 0-0.55 0.9-1 2-1 1.1 0 2-0.45 2-1 0-0.55 1.8-1.23 4-1.5 2.2-0.27 4-0.95 4-1.5 0-0.55 1.8-1.23 4-1.5 2.2-0.27 3.99-0.84 3.98-1.25-0.01-0.41 2.7-1.43 6.02-2.25 3.32-0.82 6.03-1.84 6.02-2.25-0.01-0.41 1.67-1.02 3.73-1.34 2.06-0.33 3.98-0.93 4.25-1.34 0.27-0.41 7.48-2.47 16-4.57 8.52-2.1 15.73-4.13 16-4.52 0.27-0.38 5.67-1.86 12-3.3 6.33-1.43 15.33-3.32 20-4.19 4.67-0.88 10.64-2.02 13.25-2.54 2.61-0.52 6.1-0.95 7.75-0.95 1.65 0 3-0.45 3-1 0-0.55 1.46-1 3.25-1.01 1.79 0 4.83-0.43 6.75-0.95 1.92-0.53 11.6-1.68 21.5-2.55 9.9-0.88 27.45-1.99 39-2.48 12.5-0.52 31.73-0.5 47.5 0.06 14.58 0.51 30.1 1.36 34.5 1.88 4.4 0.52 15.09 1.76 23.76 2.75 8.66 0.99 15.75 2.14 15.75 2.55-0.01 0.41 1.34 0.75 2.99 0.75 1.65 0 5.36 0.47 8.25 1.05 2.89 0.58 10.42 2.13 16.75 3.44 6.33 1.32 15.1 3.16 19.5 4.09 4.4 0.93 8.22 2.01 8.5 2.4 0.28 0.38 5.67 1.97 12 3.52 6.33 1.55 11.72 3.14 12 3.52 0.28 0.39 3.99 1.56 8.26 2.6 4.27 1.03 7.75 2.33 7.73 2.88-0.02 0.55 2.69 1.68 6.01 2.5 3.32 0.82 6.02 1.73 6 2-0.02 0.27 2.68 1.18 6 2 3.32 0.82 6.03 1.84 6.02 2.25-0.01 0.41 1.78 0.98 3.98 1.25q4 0.5 4 2c0 0.83 0.89 1.5 2 1.5 1.1 0 2 0.45 2 1 0 0.55 1.8 1.23 4 1.5 2.2 0.27 4 0.95 4 1.5 0 0.55 0.9 1 2 1 1.1 0 2 0.45 2 1 0 0.55 1.8 1.23 4 1.5q4 0.5 4 2c0 0.83 0.89 1.5 2 1.5 1.1 0 2 0.45 2 1 0 0.55 1.8 1.23 4 1.5 2.2 0.27 4 0.95 4 1.5 0 0.55 0.9 1 2 1 1.11 0 2 0.67 2 1.5q0 1.5 4 2 4 0.5 4 2c0 0.83 0.89 1.5 2 1.5 1.11 0 2 0.67 2 1.5q0 1.5 4 2 4 0.5 4 2c0 0.83 0.89 1.5 2 1.5 1.1 0 2 0.45 2 1 0 0.55 0.9 1 2 1 1.11 0 2 0.67 2 1.5 0 0.83 0.89 1.5 2 1.5 1.1 0 2 0.45 2 1 0 0.55 0.9 1 2 1 1.11 0 2 0.67 2 1.5 0 0.83 0.89 1.5 2 1.5 1.1 0 2 0.45 2 1 0 0.55 0.9 1 2 1 1.1 0 2 0.45 2 1 0 0.55 0.9 1 2 1q2 0 2 2 0 2 2 2c1.1 0 2 0.45 2 1 0 0.55 0.9 1 2 1 1.11 0 2 0.67 2 1.5 0 0.83 0.89 1.5 2 1.5 1.1 0 2 0.45 2 1 0 0.55 0.9 1 2 1 1.1 0 2 0.45 2 1 0 0.55 0.9 1 2 1q2 0 2 2 0 2 2 2c1.11 0 2 0.67 2 1.5 0 0.83 0.89 1.5 2 1.5 1.11 0 2 0.67 2 1.5 0 0.83 0.89 1.5 2 1.5q2 0 2 2 0 2 2 2c1.11 0 2 0.67 2 1.5 0 0.83 0.89 1.5 2 1.5 1.1 0 2 0.45 2 1 0 0.55 0.9 1 2 1 1.11 0 2 0.67 2 1.5 0 0.83 0.89 1.5 2 1.5 1.47 0 2 0.67 2 2.5 0 1.83 0.53 2.5 2 2.5 1.1 0 2 0.45 2 1 0 0.55 0.9 1 2 1q2 0 2 2 0 2 2 2c1.11 0 2 0.67 2 1.5 0 0.83 0.89 1.5 2 1.5q2 0 2 2 0 2 2 2c1.11 0 2 0.67 2 1.5 0 0.83 0.89 1.5 2 1.5q2 0 2 2 0 2 2 2c1.11 0 2 0.67 2 1.5 0 0.83 0.89 1.5 2 1.5 1.47 0 2-0.67 2-2.5 0-1.83 0.53-2.5 2-2.5q2 0 2-2 0-2 2-2c1.11 0 2-0.67 2-1.5 0-0.83 0.89-1.5 2-1.5 1.47 0 2-0.67 2-2.5 0-1.83 0.53-2.5 2-2.5q2 0 2-2 0-2 2-2c1.11 0 2-0.67 2-1.5 0-0.83 0.89-1.5 2-1.5 1.47 0 2-0.67 2-2.5 0-1.83 0.53-2.5 2-2.5q2 0 2-2 0-2 2-2c1.11 0 2-0.67 2-1.5 0-0.83 0.89-1.5 2-1.5 1.47 0 2-0.67 2-2.5 0-1.83 0.53-2.5 2-2.5q2 0 2-2 0-2 2-2c1.11 0 2-0.67 2-1.5 0-0.83 0.89-1.5 2-1.5 1.47 0 2-0.67 2-2.5 0-1.83 0.53-2.5 2-2.5q2 0 2-2 0-2 2-2c1.11 0 2-0.67 2-1.5 0-0.83 0.89-1.5 2-1.5 1.47 0 2-0.67 2-2.5 0-1.83 0.53-2.5 2-2.5q2 0 2-2 0-2 2-2c1.11 0 2-0.67 2-1.5 0-0.83 0.89-1.5 2-1.5 1.47 0 2-0.67 2-2.5 0-1.83 0.53-2.5 2-2.5q2 0 2-2 0-2 2-2c1.11 0 2-0.67 2-1.5 0-0.83 0.89-1.5 2-1.5 1.47 0 2-0.67 2-2.5 0-1.83 0.53-2.5 2-2.5q2 0 2-2 0-2 2-2c1.11 0 2-0.67 2-1.5 0-0.83 0.89-1.5 2-1.5 1.47 0 2-0.67 2-2.5 0-1.83 0.53-2.5 2-2.5q2 0 2-2 0-2 2-2c1.11 0 2-0.67 2-1.5 0-0.83 0.89-1.5 2-1.5 1.47 0 2-0.67 2-2.5 0-1.83 0.53-2.5 2-2.5q2 0 2-2 0-2 2-2c1.11 0 2-0.67 2-1.5 0-0.83 0.89-1.5 2-1.5 1.47 0 2-0.67 2-2.5 0-1.83 0.53-2.5 2-2.5q2 0 2-2 0-2 2-2c1.11 0 2-0.67 2-1.5 0-0.83 0.89-1.5 2-1.5 1.47 0 2-0.67 2-2.5 0-1.83 0.53-2.5 2-2.5q2 0 2-2 0-2 2-2c1.11 0 2-0.67 2-1.5 0-0.83 0.89-1.5 2-1.5 1.47 0 2-0.67 2-2.5 0-1.83 0.53-2.5 2-2.5q2 0 2-2 0-2 2-2c1.11 0 2-0.67 2-1.5 0-0.83 0.89-1.5 2-1.5 1.47 0 2-0.67 2-2.5 0-1.83 0.53-2.5 2-2.5q2 0 2-2 0-2 2-2c1.11 0 2-0.67 2-1.5 0-0.83 0.89-1.5 2-1.5 1.47 0 2-0.67 2-2.5 0-1.83 0.53-2.5 2-2.5q2 0 2-2 0-2 2-2c1.11 0 2-0.67 2-1.5 0-0.83 0.89-1.5 2-1.5 1.47 0 2-0.67 2-2.5 0-1.83 0.53-2.5 2-2.5q2 0 2-2 0-2 2-2c1.11 0 2-0.67 2-1.5 0-0.83 0.89-1.5 2-1.5 1.47 0 2-0.67 2-2.5 0-1.83 0.53-2.5 2-2.5q2 0 2-2 0-2 2-2c1.11 0 2-0.67 2-1.5 0-0.83 0.89-1.5 2-1.5 1.47 0 2-0.67 2-2.5 0-1.83 0.53-2.5 2-2.5q2 0 2-2 0-2 2-2c1.11 0 2-0.67 2-1.5 0-0.83 0.89-1.5 2-1.5 1.47 0 2-0.67 2-2.5 0-1.83 0.53-2.5 2-2.5q2 0 2-2 0-2 2-2c1.11 0 2-0.67 2-1.5 0-0.83 0.89-1.5 2-1.5 1.47 0 2-0.67 2-2.5 0-1.83 0.53-2.5 2-2.5q2 0 2-2 0-2 2-2c1.11 0 2-0.67 2-1.5 0-0.83 0.89-1.5 2-1.5 1.47 0 2-0.67 2-2.5 0-1.83 0.53-2.5 2-2.5q2 0 2-2 0-2 2-2 2 0 2-2 0-2 2-2 2 0 2-2 0-2 2-2 2 0 2-2 0-2 2-2 2 0 2-2 0-2 2-2 2 0 2-2 0-2 2-2 2 0 2-2 0-2 2-2 2 0 2-2 0-2 2-2 2 0 2-2 0-2 2-2 2 0 2-2 0-2 2-2 2 0 2-2 0-2 2-2 2 0 2-2 0-2 2-2c1.1 0 2-0.45 2-1 0-0.55-0.9-1-2-1-1.1 0-2-0.45-2-1 0-0.55-0.9-1-2-1q-2 0-2-2 0-2-2-2c-1.47 0-2-0.67-2-2.5 0-1.83-0.53-2.5-2-2.5-1.1 0-2-0.45-2-1 0-0.55-0.9-1-2-1q-2 0-2-2 0-2-2-2c-1.47 0-2-0.67-2-2.5 0-1.83-0.53-2.5-2-2.5-1.1 0-2-0.45-2-1 0-0.55-0.9-1-2-1q-2 0-2-2 0-2-2-2-2 0-2-2 0-2-2-2c-1.11 0-2-0.67-2-1.5 0-0.83-0.89-1.5-2-1.5-1.11 0-2-0.67-2-1.5 0-0.83-0.89-1.5-2-1.5-1.11 0-2-0.67-2-1.5 0-0.83-0.89-1.5-2-1.5q-2 0-2-2 0-2-2-2c-1.11 0-2-0.67-2-1.5 0-0.83-0.89-1.5-2-1.5-1.11 0-2-0.67-2-1.5 0-0.83-0.89-1.5-2-1.5-1.11 0-2-0.67-2-1.5 0-0.83-0.89-1.5-2-1.5q-2 0-2-2 0-2-2-2c-1.11 0-2-0.67-2-1.5 0-0.83-0.89-1.5-2-1.5-1.11 0-2-0.67-2-1.5 0-0.83-0.89-1.5-2-1.5-1.1 0-2-0.45-2-1 0-0.55-0.9-1-2-1q-2 0-2-2 0-2-2-2c-1.11 0-2-0.67-2-1.5 0-0.83-0.89-1.5-2-1.5-1.1 0-2-0.45-2-1 0-0.55-0.9-1-2-1-1.11 0-2-0.67-2-1.5 0-0.83-0.89-1.5-2-1.5q-2 0-2-2 0-2-2-2c-1.1 0-2-0.45-2-1 0-0.55-0.9-1-2-1-1.11 0-2-0.67-2-1.5 0-0.83-0.89-1.5-2-1.5-1.11 0-2-0.67-2-1.5 0-0.83-0.89-1.5-2-1.5-1.11 0-2-0.67-2-1.5 0-0.83-0.89-1.5-2-1.5-1.11 0-2-0.67-2-1.5 0-0.83-0.89-1.5-2-1.5-1.11 0-2-0.67-2-1.5q0-1.5-4-2c-3.17-0.4-4-0.92-4-2.5q0-2-2-2c-1.11 0-2-0.67-2-1.5 0-0.83-0.89-1.5-2-1.5-1.1 0-2-0.45-2-1 0-0.55-0.9-1-2-1-1.1 0-2-0.45-2-1 0-0.55-0.9-1-2-1-1.11 0-2-0.67-2-1.5 0-0.83-0.89-1.5-2-1.5-1.11 0-2-0.67-2-1.5 0-0.83-0.89-1.5-2-1.5-1.1 0-2-0.45-2-1 0-0.55-0.9-1-2-1-1.11 0-2-0.67-2-1.5 0-0.83-0.89-1.5-2-1.5-1.1 0-2-0.45-2-1 0-0.55-0.9-1-2-1-1.1 0-2-0.45-2-1 0-0.55-0.9-1-2-1-1.11 0-2-0.67-2-1.5 0-0.83-0.89-1.5-2-1.5-1.1 0-2-0.45-2-1 0-0.55-0.9-1-2-1-1.1 0-2-0.45-2-1 0-0.55-0.9-1-2-1-1.11 0-2-0.67-2-1.5q0-1.5-4-2c-3.17-0.4-4-0.92-4-2.5q0-2-2-2c-1.1 0-2-0.45-2-1 0-0.55-0.9-1-2-1-1.1 0-2-0.45-2-1 0-0.55-0.9-1-2-1-1.1 0-2-0.45-2-1 0-0.55-0.9-1-2-1-1.1 0-2-0.45-2-1 0-0.55-0.9-1-2-1-1.1 0-2-0.45-2-1 0-0.55-0.9-1-2-1-1.11 0-2-0.67-2-1.5 0-0.83-0.89-1.5-2-1.5-1.1 0-2-0.45-2-1 0-0.55-1.8-1.22-4-1.5-2.2-0.28-4-0.95-4-1.5 0-0.55-0.9-1-2-1-1.1 0-2-0.45-2-1 0-0.55-0.9-1-2-1-1.1 0-2-0.45-2-1 0-0.55-0.9-1-2-1-1.11 0-2-0.67-2-1.5 0-0.83-0.89-1.5-2-1.5-1.1 0-2-0.45-2-1 0-0.55-1.8-1.22-4-1.5-2.2-0.28-4-0.95-4-1.5 0-0.55-0.9-1-2-1-1.1 0-2-0.45-2-1 0-0.55-0.9-1-2-1-1.1 0-2-0.45-2-1 0-0.55-0.9-1-2-1-1.1 0-2-0.45-2-1 0-0.55-0.9-1-2-1-1.1 0-2-0.45-2-1 0-0.55-0.9-1-2-1-1.1 0-2-0.45-2-1 0-0.55-1.8-1.22-4-1.5-2.2-0.28-4-0.95-4-1.5 0-0.55-1.8-1.22-4-1.5-2.2-0.28-4-0.95-4-1.5 0-0.55-0.9-1-2-1-1.11 0-2-0.67-2-1.5q0-1.5-4-2c-2.2-0.28-3.99-0.84-3.98-1.25 0.01-0.41-2.7-1.42-6.02-2.25-3.32-0.83-6.03-1.84-6.02-2.25 0.01-0.41-0.88-0.75-1.98-0.75-1.1 0-2-0.45-2-1 0-0.55-0.9-1-2-1-1.1 0-2-0.45-2-1 0-0.55-1.8-1.22-4-1.5-2.2-0.28-3.99-0.84-3.98-1.25 0.01-0.41-2.7-1.42-6.02-2.25-3.32-0.83-6.02-1.73-6-2 0.02-0.27-2.68-1.17-6-2-3.32-0.83-6.03-1.95-6.01-2.5 0.02-0.55-4.36-2.08-9.73-3.39-5.37-1.32-9.98-2.71-10.26-3.09-0.28-0.39-4.78-1.75-10-3.02-5.22-1.27-9.72-2.63-10-3.02-0.28-0.38-4.89-1.77-10.26-3.09-5.37-1.31-9.76-2.73-9.75-3.14 0-0.41-1.34-0.75-2.99-0.75-1.65 0-6.94-0.97-11.75-2.17-4.81-1.19-8.97-2.47-9.25-2.85-0.28-0.39-4.78-1.64-10-2.79-5.22-1.15-14-2.99-19.5-4.08-5.5-1.1-12.36-2.48-15.25-3.06-2.89-0.58-6.6-1.05-8.25-1.05-1.65 0-3.11-0.44-3.25-0.97-0.14-0.54-3.62-1.49-7.75-2.12-4.12-0.64-9.75-1.53-12.5-2-2.75-0.46-15.35-2.2-28-3.87-12.65-1.66-24.91-3.03-27.25-3.03-2.34-0.01-4.25-0.35-4.25-0.76 0.01-0.41-10.23-1.54-22.75-2.52-12.51-0.97-31.3-2.2-41.75-2.74-10.45-0.54-34.3-0.9-53-0.8-18.7 0.1-36.7 0.33-40 0.5z"/>
		<path id="Path 1" class="s1" d="m130.25 567.64c-1.95 0.31-2.25 0.97-2.25 4.86 0 3.83-0.3 4.5-2 4.5-1.56 0-2 0.67-2 3 0 2.33-0.44 3-2 3-1.7 0-2 0.67-2 4.5 0 3.83-0.3 4.5-2 4.5-1.73 0-2 0.67-2 5 0 4.33-0.27 5-2 5-1.62 0-2 0.67-2 3.5 0 2.83-0.38 3.5-2 3.5-1.7 0-2 0.67-2 4.5 0 3.83-0.3 4.5-2 4.5-1.76 0-2 0.67-2 5.5 0 4.83-0.24 5.5-2 5.5-1.67 0-2 0.67-2 4 0 3.33-0.33 4-2 4-1.76 0-2 0.67-2 5.5 0 4.83-0.24 5.5-2 5.5-1.76 0-2 0.67-2 5.5 0 4.83-0.24 5.5-2 5.5-1.67 0-2 0.67-2 4 0 3.33-0.33 4-2 4-1.78 0-2 0.67-2 6 0 5.33-0.22 6-2 6-1.78 0-2 0.67-2 6 0 5.33-0.22 6-2 6-1.73 0-2 0.67-2 5 0 4.33-0.27 5-2 5-1.79 0-2 0.67-2 6.5 0 5.83-0.21 6.5-2 6.5-1.79 0-2 0.67-2 6.5 0 5.83-0.21 6.5-2 6.5-1.76 0-2 0.67-2 5.5 0 4.83-0.24 5.5-2 5.5-1.83 0-2 0.67-2 8 0 7.33-0.17 8-2 8-1.83 0-2 0.67-2 8 0 7.33-0.17 8-2 8-1.79 0-2 0.67-2 6.5 0 5.83-0.21 6.5-2 6.5-1.86 0-2 0.67-2 9.5 0 8.83-0.14 9.5-2 9.5-1.87 0-2 0.67-2 10 0 9.33-0.13 10-2 10-1.85 0-2 0.67-2 9 0 8.33-0.15 9-2 9-1.89 0-2 0.67-2 12.5 0 11.83-0.11 12.5-2 12.5-1.91 0-2 0.67-2 15 0 14.33-0.09 15-2 15-1.91 0-2 0.67-2 14.5 0 13.83-0.09 14.5-2 14.5-1.96 0-2 0.67-2 32.5 0 31.83-0.04 32.5-2 32.5-1.96 0-2 0.67-2 35 0 34.33 0.04 35 2 35 1.96 0 2 0.67 2 32.5 0 31.83 0.04 32.5 2 32.5 1.91 0 2 0.67 2 14.5 0 13.83 0.09 14.5 2 14.5 1.91 0 2 0.67 2 15 0 14.33 0.09 15 2 15 1.89 0 2 0.67 2 12.5 0 11.83 0.11 12.5 2 12.5 1.85 0 2 0.67 2 9 0 8.33 0.15 9 2 9 1.87 0 2 0.67 2 10 0 9.33 0.13 10 2 10 1.86 0 2 0.67 2 9.5 0 8.83 0.14 9.5 2 9.5 1.79 0 2 0.67 2 6.5 0 5.83 0.21 6.5 2 6.5 1.83 0 2 0.67 2 8 0 7.33 0.17 8 2 8 1.82 0 2 0.67 2 7.5 0 6.83 0.18 7.5 2 7.5 1.78 0 2 0.67 2 6 0 5.33 0.22 6 2 6 1.79 0 2 0.67 2 6.5 0 5.83 0.21 6.5 2 6.5 1.79 0 2 0.67 2 6.5 0 5.83 0.21 6.5 2 6.5 1.73 0 2 0.67 2 5 0 4.33 0.27 5 2 5 1.78 0 2 0.67 2 6 0 5.33 0.22 6 2 6 1.78 0 2 0.67 2 6 0 5.33 0.22 6 2 6 1.67 0 2 0.67 2 4 0 3.33 0.33 4 2 4 1.76 0 2 0.67 2 5.5 0 4.83 0.24 5.5 2 5.5 1.76 0 2 0.67 2 5.5 0 4.83 0.24 5.5 2 5.5 1.67 0 2 0.67 2 4 0 3.33 0.33 4 2 4 1.76 0 2 0.67 2 5.5 0 4.83 0.24 5.5 2 5.5 1.7 0 2 0.67 2 4.5 0 3.83 0.3 4.5 2 4.5 1.62 0 2 0.67 2 3.5 0 2.83 0.38 3.5 2 3.5 1.73 0 2 0.67 2 5 0 4.33 0.27 5 2 5 1.7 0 2 0.67 2 4.5 0 3.83 0.3 4.5 2 4.5 1.56 0 2 0.67 2 3 0 2.33 0.44 3 2 3 1.69 0 2 0.66 1.98 4.25-0.02 3.99 0.18 4.3 3.25 5.01 1.8 0.42 3.61 0.76 4.02 0.75 0.41 0 0.75-0.68 0.75-1.51 0-0.83 0.89-1.5 2-1.5q2 0 2-2 0-2 2-2c1.11 0 2-0.67 2-1.5 0-0.83 0.89-1.5 2-1.5 1.1 0 2-0.45 2-1 0-0.55 0.9-1 2-1 1.11 0 2-0.67 2-1.5 0-0.83 0.89-1.5 2-1.5q2 0 2-2 0-2 2-2c1.11 0 2-0.67 2-1.5 0-0.83 0.89-1.5 2-1.5 1.11 0 2-0.67 2-1.5 0-0.83 0.89-1.5 2-1.5 1.11 0 2-0.67 2-1.5 0-0.83 0.89-1.5 2-1.5 1.11 0 2-0.67 2-1.5 0-0.83 0.89-1.5 2-1.5 1.11 0 2-0.67 2-1.5 0-0.83 0.89-1.5 2-1.5 1.11 0 2-0.67 2-1.5 0-0.83 0.89-1.5 2-1.5 1.11 0 2-0.67 2-1.5 0-0.83 0.89-1.5 2-1.5q2 0 2-2 0-2 2-2c1.11 0 2-0.67 2-1.5 0-0.83 0.89-1.5 2-1.5 1.1 0 2-0.45 2-1 0-0.55 0.9-1 2-1 1.47 0 2-0.67 2-2.5 0-1.83 0.53-2.5 2-2.5 1.11 0 2-0.67 2-1.5 0-0.83 0.89-1.5 2-1.5 1.1 0 2-0.45 2-1 0-0.55 0.9-1 2-1 1.11 0 2-0.67 2-1.5 0-0.83 0.89-1.5 2-1.5q2 0 2-2 0-2 2-2c1.11 0 2-0.67 2-1.5 0-0.83 0.89-1.5 2-1.5 1.11 0 2-0.67 2-1.5 0-0.83 0.89-1.5 2-1.5 1.11 0 2-0.67 2-1.5 0-0.83 0.71-1.5 1.57-1.5 0.87 0 2.22-0.68 3-1.5 0.79-0.83 1.09-1.76 0.68-2.07-0.41-0.32 0.04-0.32 1 0 1.14 0.37 1.75 0.05 1.75-0.93 0-0.83 0.89-1.5 2-1.5 1.11 0 2-0.67 2-1.5 0-0.83 0.89-1.5 2-1.5 1.11 0 2-0.67 2-1.5 0-0.83 0.89-1.5 2-1.5q2 0 2-2 0-2 2-2c1.11 0 2-0.67 2-1.5 0-0.83 0.89-1.5 2-1.5 1.1 0 2-0.45 2-1 0-0.55 0.9-1 2-1 1.11 0 2-0.67 2-1.5 0-0.83 0.89-1.5 2-1.5q2 0 2-2 0-2 2-2c1.11 0 2-0.67 2-1.5 0-0.83 0.89-1.5 2-1.5 1.11 0 2-0.67 2-1.5 0-0.83 0.89-1.5 2-1.5 1.11 0 2-0.67 2-1.5 0-0.83 0.89-1.5 2-1.5 1.11 0 2-0.67 2-1.5 0-0.83 0.89-1.5 2-1.5q2 0 2-2 0-2 2-2c1.11 0 2-0.67 2-1.5 0-0.83 0.89-1.5 2-1.5 1.1 0 2-0.45 2-1 0-0.55 0.9-1 2-1q2 0 2-2 0-2 2-2c1.11 0 2-0.67 2-1.5 0-0.83 0.89-1.5 2-1.5 1.11 0 2-0.67 2-1.5 0-0.83 0.89-1.5 2-1.5 1.11 0 2-0.67 2-1.5 0-0.83 0.89-1.5 2-1.5q2 0 2-2 0-2 2-2c1.1 0 2-0.45 2-1 0-0.55 0.9-1 2-1 1.11 0 2-0.67 2-1.5 0-0.83 0.89-1.5 2-1.5 1.11 0 2-0.67 2-1.5 0-0.83 0.89-1.5 2-1.5q2 0 2-2 0-2 2-2c1.11 0 2-0.67 2-1.5 0-0.83 0.89-1.5 2-1.5 1.11 0 2-0.67 2-1.5 0-0.83 0.89-1.5 2-1.5 1.1 0 2-0.45 2-1 0-0.55 0.9-1 2-1q2 0 2-2 0-2 2-2c1.11 0 2-0.67 2-1.5 0-0.83 0.89-1.5 2-1.5 1.11 0 2-0.67 2-1.5 0-0.83 0.89-1.5 2-1.5q2 0 2-2 0-2 2-2c1.11 0 2-0.67 2-1.5 0-0.83 0.89-1.5 2-1.5 1.1 0 2-0.45 2-1 0-0.55 0.9-1 2-1 1.11 0 2-0.67 2-1.5 0-0.83 0.89-1.5 2-1.5 1.47 0 2-0.67 2-2.5 0-1.83 0.53-2.5 2-2.5 1.1 0 2-0.45 2-1 0-0.55 0.9-1 2-1 1.11 0 2-0.67 2-1.5 0-0.83 0.89-1.5 2-1.5 1.11 0 2-0.67 2-1.5 0-0.83 0.89-1.5 2-1.5q2 0 2-2 0-2 2-2c1.11 0 2-0.67 2-1.5 0-0.83 0.89-1.5 2-1.5 1.11 0 2-0.67 2-1.5 0-0.83 0.89-1.5 2-1.5 1.1 0 2-0.45 2-1 0-0.55 0.9-1 2-1q2 0 2-2 0-2 2-2c1.1 0 2-0.56 2.01-1.25 0-0.69 1.24-1.82 2.75-2.51 1.51-0.69 3.3-1.26 3.99-1.25 0.69 0.01 1.25-0.66 1.25-1.49 0-0.83 0.89-1.5 2-1.5 1.47 0 2-0.67 2-2.5 0-1.83 0.53-2.5 2-2.5 1.1 0 2-0.45 2-1 0-0.55 0.9-1 2-1 1.11 0 2-0.67 2-1.5 0-0.83 0.89-1.5 2-1.5 1.11 0 2-0.67 2-1.5 0-0.83 0.89-1.5 2-1.5 1.11 0 2-0.67 2-1.5 0-0.83 0.89-1.5 2-1.5 1.11 0 2-0.67 2-1.5 0-0.83 0.89-1.5 2-1.5 1.11 0 2-0.67 2-1.5 0-0.83 0.89-1.5 2-1.5 1.11 0 2-0.67 2-1.5 0-0.83 0.89-1.5 2-1.5q2 0 2-2 0-2 2-2c1.11 0 2-0.67 2-1.5 0-0.83 0.89-1.5 2-1.5 1.1 0 2-0.45 2-1 0-0.55 0.9-1 2-1 1.11 0 2-0.67 2-1.5 0-0.83 0.68-1.5 1.5-1.5 0.82 0 1.73-1.12 2-2.5q0.5-2.5 2.5-2.5c1.62 0 2-0.67 2-3.5 0-2.83-0.38-3.5-2-3.5-1.82 0-2-0.67-2-7.5 0-6.83-0.18-7.5-2-7.5-1.82 0-2-0.67-2-7.5 0-6.83-0.18-7.5-2-7.5-1.79 0-2-0.67-2-6.5 0-5.83-0.21-6.5-2-6.5-1.85 0-2-0.67-2-9 0-8.33-0.15-9-2-9-1.88 0-2-0.67-2-11 0-10.33-0.12-11-2-11-1.87 0-2-0.67-2-10.5 0-9.83-0.13-10.5-2-10.5-1.93 0-2-0.67-2-19.5 0-18.83-0.07-19.5-2-19.5-1.97 0-2-0.67-2-45.5 0-44.83 0.03-45.5 2-45.5 1.93 0 2-0.67 2-19 0-18.33 0.07-19 2-19 1.87 0 2-0.67 2-10.5 0-9.83 0.13-10.5 2-10.5 1.88 0 2-0.67 2-11 0-10.33 0.12-11 2-11 1.85 0 2-0.67 2-9 0-8.33 0.15-9 2-9 1.79 0 2-0.67 2-6.5 0-5.83 0.21-6.5 2-6.5 1.82 0 2-0.67 2-7.5 0-6.83 0.18-7.5 2-7.5 1.82 0 2-0.67 2-7.5 0-6.83 0.18-7.5 2-7.5 1.67 0 2-0.67 2-4 0-3.33-0.33-4-2-4q-2 0-2-2 0-2-2-2c-1.11 0-2-0.67-2-1.5 0-0.83-0.89-1.5-2-1.5-1.1 0-2-0.45-2-1 0-0.55-0.9-1-2-1-1.11 0-2-0.67-2-1.5 0-0.83-0.89-1.5-2-1.5-1.47 0-2-0.67-2-2.5 0-1.83-0.53-2.5-2-2.5-1.1 0-2-0.45-2-1 0-0.55-0.9-1-2-1-1.11 0-2-0.67-2-1.5 0-0.83-0.89-1.5-2-1.5-1.11 0-2-0.67-2-1.5 0-0.83-0.89-1.5-2-1.5q-2 0-2-2 0-2-2-2c-1.11 0-2-0.67-2-1.5 0-0.83-0.89-1.5-2-1.5-1.11 0-2-0.67-2-1.5 0-0.83-0.89-1.5-2-1.5-1.1 0-2-0.45-2-1 0-0.55-0.9-1-2-1q-2 0-2-2 0-2-2-2c-1.11 0-2-0.67-2-1.5 0-0.83-0.89-1.5-2-1.5-1.11 0-2-0.67-2-1.5 0-0.83-0.89-1.5-2-1.5-1.11 0-2-0.67-2-1.5 0-0.83-0.89-1.5-2-1.5q-2 0-2-2 0-2-2-2c-1.1 0-2-0.45-2-1 0-0.55-0.9-1-2-1-1.11 0-2-0.67-2-1.5 0-0.83-0.89-1.5-2-1.5-1.11 0-2-0.67-2-1.5 0-0.83-0.89-1.5-2-1.5q-2 0-2-2 0-2-2-2c-1.11 0-2-0.67-2-1.5 0-0.83-0.89-1.5-2-1.5-1.1 0-2-0.45-2-1 0-0.55-0.68-1-1.5-1-0.82 0-1.73-0.67-2-1.5-0.27-0.83-1.4-1.5-2.5-1.5q-2 0-2-2 0-2-2-2c-1.11 0-2-0.67-2-1.5 0-0.83-0.89-1.5-2-1.5-1.11 0-2-0.67-2-1.5 0-0.83-0.89-1.5-2-1.5q-2 0-2-2 0-2-2-2c-1.11 0-2-0.67-2-1.5 0-0.83-0.89-1.5-2-1.5-1.1 0-2-0.45-2-1 0-0.55-0.9-1-2-1-1.11 0-2-0.67-2-1.5 0-0.83-0.89-1.5-2-1.5q-2 0-2-2 0-2-2-2c-1.11 0-2-0.67-2-1.5 0-0.83-0.89-1.5-2-1.5-1.11 0-2-0.67-2-1.5 0-0.83-0.89-1.5-2-1.5-1.11 0-2-0.67-2-1.5 0-0.83-0.89-1.5-2-1.5-1.11 0-2-0.67-2-1.5 0-0.83-0.89-1.5-2-1.5-1.11 0-2-0.67-2-1.5 0-0.83-0.89-1.5-2-1.5-1.11 0-2-0.67-2-1.5 0-0.83-0.89-1.5-2-1.5-1.11 0-2-0.67-2-1.5 0-0.83-0.89-1.5-2-1.5q-2 0-2-2 0-2-2-2c-1.11 0-2-0.67-2-1.5 0-0.83-0.89-1.5-2-1.5-1.1 0-2-0.45-2-1 0-0.55-0.9-1-2-1-1.11 0-2-0.67-2-1.5 0-0.83-0.89-1.5-2-1.5q-2 0-2-2 0-2-2-2c-1.11 0-2-0.67-2-1.5 0-0.83-0.89-1.5-2-1.5-1.11 0-2-0.67-2-1.5 0-0.83-0.89-1.5-2-1.5-1.11 0-2-0.67-2-1.5 0-0.83-0.89-1.5-2-1.5-1.11 0-2-0.67-2-1.5 0-0.83-0.89-1.5-2-1.5-1.11 0-2-0.67-2-1.5 0-0.83-0.89-1.5-2-1.5q-2 0-2-2 0-2-2-2c-1.1 0-2-0.45-2-1 0-0.55-0.9-1-2-1q-2 0-2-2 0-2-2-2c-1.11 0-2-0.67-2-1.5 0-0.83-0.89-1.5-2-1.5-1.11 0-2-0.67-2-1.5 0-0.83-0.89-1.5-2-1.5q-2 0-2-2 0-2-2-2c-1.11 0-2-0.67-2-1.5 0-0.83-0.89-1.5-2-1.5-1.1 0-2-0.45-2-1 0-0.55-0.9-1-2-1-1.11 0-2-0.67-2-1.5 0-0.83-0.89-1.5-2-1.5q-2 0-2-2 0-2-2-2c-1.11 0-2-0.67-2-1.5 0-0.83-0.89-1.5-2-1.5-1.11 0-2-0.67-2-1.5 0-0.83-0.89-1.5-2-1.5-1.11 0-2-0.67-2-1.5 0-0.83-0.89-1.5-2-1.5-1.1 0-2-0.45-2-1 0-0.55-0.9-1-2-1q-2 0-2-2 0-2-2-2c-1.11 0-2-0.67-2-1.5 0-0.83-0.89-1.5-2-1.5-1.11 0-2-0.67-2-1.5 0-0.83-0.89-1.5-2-1.5q-2 0-2-2 0-2-2-2c-1.11 0-2-0.67-2-1.5 0-0.83-0.89-1.5-2-1.5-1.1 0-2-0.45-2-1 0-0.55-0.9-1-2-1-1.11 0-2-0.67-2-1.5 0-0.83-0.89-1.5-2-1.5q-2 0-2-2 0-2-2-2c-1.11 0-2-0.67-2-1.5 0-0.83-0.89-1.5-2-1.5-1.11 0-2-0.67-2-1.5q0.01-1.52-1.57-0.75c-1.14 0.55-1.69 0.14-2-1.5-0.28-1.44-1.15-2.25-2.43-2.25-1.11 0-2-0.67-2-1.5 0-0.83-0.89-1.5-2-1.5-1.11 0-2-0.67-2-1.5 0-0.83-0.89-1.5-2-1.5-1.11 0-2-0.67-2-1.5 0-0.83-0.89-1.5-2-1.5-1.11 0-2-0.67-2-1.5 0-0.83-0.89-1.5-2-1.5q-2 0-2-2 0-2-2-2c-1.11 0-2-0.67-2-1.5 0-0.83-0.89-1.5-2-1.5-1.1 0-2-0.45-2-1 0-0.55-0.9-1-2-1-1.11 0-2-0.67-2-1.5 0-0.83-0.89-1.5-2-1.5q-2 0-2-2 0-2-2-2c-1.11 0-2-0.67-2-1.5 0-0.83-0.79-1.44-1.75-1.36-0.96 0.07-2.76 0.3-4 0.5z"/>
		<path id="Path 2" class="s2" d="m1044 1036v198h552c0 11.33-0.22 12-2 12-1.82 0-2 0.67-2 7.5 0 6.83-0.18 7.5-2 7.5-1.83 0-2 0.67-2 8 0 7.33-0.17 8-2 8-1.81 0-2 0.67-2 7 0 6.33-0.19 7-2 7-1.73 0-2 0.67-2 5 0 4.33-0.27 5-2 5-1.78 0-2 0.67-2 6 0 5.33-0.22 6-2 6-1.78 0-2 0.67-2 6 0 5.33-0.22 6-2 6-1.67 0-2 0.67-2 4 0 3.33-0.33 4-2 4-1.7 0-2 0.67-2 4.5 0 3.83-0.3 4.5-2 4.5-1.73 0-2 0.67-2 5 0 4.33-0.27 5-2 5-1.62 0-2 0.67-2 3.5 0 2.83-0.38 3.5-2 3.5-1.62 0-2 0.67-2 3.5 0 2.83-0.38 3.5-2 3.5-1.7 0-2 0.67-2 4.5 0 3.83-0.3 4.5-2 4.5-1.56 0-2 0.67-2 3 0 2.33-0.44 3-2 3-1.62 0-2 0.67-2 3.5 0 2.83-0.38 3.5-2 3.5-1.67 0-2 0.67-2 4 0 3.33-0.33 4-2 4q-2 0-2 2 0 2-2 2c-1.67 0-2 0.67-2 4 0 3.33-0.33 4-2 4-1.47 0-2 0.67-2 2.5 0 1.83-0.53 2.5-2 2.5-1.56 0-2 0.67-2 3 0 2.33-0.44 3-2 3-1.47 0-2 0.67-2 2.5 0 1.83-0.53 2.5-2 2.5-1.62 0-2 0.67-2 3.5 0 2.83-0.38 3.5-2 3.5q-2 0-2 2 0 2-2 2c-1.56 0-2 0.67-2 3 0 2.33-0.44 3-2 3-1.47 0-2 0.67-2 2.5 0 1.83-0.53 2.5-2 2.5-1.11 0-2 0.67-2 1.5 0 0.83-0.89 1.5-2 1.5-1.56 0-2 0.67-2 3 0 2.33-0.44 3-2 3-1.47 0-2 0.67-2 2.5 0 1.83-0.53 2.5-2 2.5-1.11 0-2 0.67-2 1.5 0 0.83-0.89 1.5-2 1.5-1.47 0-2 0.67-2 2.5 0 1.83-0.53 2.5-2 2.5q-2 0-2 2 0 2-2 2c-1.47 0-2 0.67-2 2.5 0 1.83-0.53 2.5-2 2.5q-2 0-2 2 0 2-2 2-2 0-2 2 0 2-2 2c-1.1 0-2 0.45-2 1 0 0.55-0.9 1-2 1-1.47 0-2 0.67-2 2.5 0 1.83-0.53 2.5-2 2.5q-2 0-2 2 0 2-2 2c-1.11 0-2 0.67-2 1.5 0 0.83-0.89 1.5-2 1.5q-2 0-2 2 0 2-2 2-2 0-2 2 0 2-2 2c-1.1 0-2 0.45-2 1 0 0.55-0.9 1-2 1q-2 0-2 2 0 2-2 2-2 0-2 2 0 2-2 2c-1.1 0-2 0.45-2 1 0 0.55-0.9 1-2 1-1.11 0-2 0.67-2 1.5 0 0.83-0.89 1.5-2 1.5q-2 0-2 2 0 2-2 2c-1.1 0-2 0.45-2 1 0 0.55-0.9 1-2 1-1.11 0-2 0.67-2 1.5 0 0.83-0.89 1.5-2 1.5-1.11 0-2 0.67-2 1.5 0 0.83-0.89 1.5-2 1.5-1.11 0-2 0.67-2 1.5 0 0.83-0.89 1.5-2 1.5-1.11 0-2 0.67-2 1.5 0 0.83-0.89 1.5-2 1.5-1.47 0-2 0.67-2 2.5 0 1.83 0.53 2.5 2 2.5q2 0 2 2 0 2 2 2c1.1 0 2 0.45 2 1 0 0.55 0.9 1 2 1 1.11 0 2 0.67 2 1.5 0 0.83 0.89 1.5 2 1.5 1.11 0 2 0.67 2 1.5 0 0.83 0.89 1.5 2 1.5q2 0 2 2 0 2 2 2c1.11 0 2 0.67 2 1.5 0 0.83 0.89 1.5 2 1.5 1.11 0 2 0.67 2 1.5 0 0.83 0.89 1.5 2 1.5 1.1 0 2 0.45 2 1 0 0.55 0.9 1 2 1q2 0 2 2 0 2 2 2c1.11 0 2 0.67 2 1.5 0 0.83 0.89 1.5 2 1.5 1.11 0 2 0.67 2 1.5 0 0.83 0.89 1.5 2 1.5 1.11 0 2 0.67 2 1.5 0 0.83 0.89 1.5 2 1.5q2 0 2 2 0 2 2 2c1.1 0 2 0.45 2 1 0 0.55 0.9 1 2 1 1.11 0 2 0.67 2 1.5 0 0.83 0.89 1.5 2 1.5 1.11 0 2 0.67 2 1.5 0 0.83 0.89 1.5 2 1.5q2 0 2 2 0 2 2 2c1.11 0 2 0.67 2 1.5 0 0.83 0.89 1.5 2 1.5 1.11 0 2 0.67 2 1.5 0 0.83 0.89 1.5 2 1.5 1.1 0 2 0.45 2 1 0 0.55 0.9 1 2 1q2 0 2 2 0 2 2 2c1.11 0 2 0.67 2 1.5 0 0.83 0.89 1.5 2 1.5 1.11 0 2 0.67 2 1.5 0 0.83 0.89 1.5 2 1.5 1.11 0 2 0.67 2 1.5 0 0.83 0.89 1.5 2 1.5q2 0 2 2 0 2 2 2c1.1 0 2 0.45 2 1 0 0.55 0.9 1 2 1 1.11 0 2 0.67 2 1.5 0 0.83 0.89 1.5 2 1.5 1.11 0 2 0.67 2 1.5 0 0.83 0.89 1.5 2 1.5q2 0 2 2 0 2 2 2c1.11 0 2 0.67 2 1.5 0 0.83 0.89 1.5 2 1.5 1.11 0 2 0.67 2 1.5 0 0.83 0.89 1.5 2 1.5 1.1 0 2 0.45 2 1 0 0.55 0.9 1 2 1q2 0 2 2 0 2 2 2c1.11 0 2 0.67 2 1.5 0 0.83 0.89 1.5 2 1.5 1.11 0 2 0.67 2 1.5 0 0.83 0.89 1.5 2 1.5q2 0 2 2 0 2 2 2c1.11 0 2 0.67 2 1.5 0 0.83 0.89 1.5 2 1.5 1.11 0 2 0.67 2 1.5 0 0.83 0.89 1.5 2 1.5 1.11 0 2 0.67 2 1.5 0 0.83 0.89 1.5 2 1.5q2 0 2 2 0 2 2 2c1.1 0 2 0.45 2 1 0 0.55 0.9 1 2 1 1.11 0 2 0.67 2 1.5 0 0.83 0.89 1.5 2 1.5 1.11 0 2 0.67 2 1.5 0 0.83 0.89 1.5 2 1.5q2 0 2 2 0 2 2 2c1.11 0 2 0.67 2 1.5 0 0.83 0.89 1.5 2 1.5 1.11 0 2 0.67 2 1.5 0 0.83 0.89 1.5 2 1.5 1.1 0 2 0.45 2 1 0 0.55 0.9 1 2 1q2 0 2 2 0 2 2 2c1.11 0 2 0.67 2 1.5 0 0.83 0.89 1.5 2 1.5 1.11 0 2 0.67 2 1.5 0 0.83 0.89 1.5 2 1.5 1.11 0 2 0.67 2 1.5 0 0.83 0.89 1.5 2 1.5q2 0 2 2 0 2 2 2c1.1 0 2 0.45 2 1 0 0.55 0.9 1 2 1 1.11 0 2 0.67 2 1.5 0 0.83 0.89 1.5 2 1.5 1.11 0 2 0.67 2 1.5 0 0.83 0.89 1.5 2 1.5q2 0 2 2 0 2 2 2c1.11 0 2 0.67 2 1.5 0 0.83 0.89 1.5 2 1.5 1.11 0 2 0.67 2 1.5 0 0.83 0.89 1.5 2 1.5 1.1 0 2 0.45 2 1 0 0.55 0.9 1 2 1q2 0 2 2 0 2 2 2c1.11 0 2 0.67 2 1.5 0 0.83 0.89 1.5 2 1.5 1.11 0 2 0.67 2 1.5 0 0.83 0.89 1.5 2 1.5 1.11 0 2 0.67 2 1.5 0 0.83 0.89 1.5 2 1.5q2 0 2 2 0 2 2 2c1.1 0 2 0.45 2 1 0 0.55 0.9 1 2 1 1.11 0 2 0.67 2 1.5 0 0.83 0.89 1.5 2 1.5 1.11 0 2 0.67 2 1.5 0 0.83 0.89 1.5 2 1.5q2 0 2 2 0 2 2 2c1.11 0 2 0.67 2 1.5 0 0.83 0.89 1.5 2 1.5 1.11 0 2 0.67 2 1.5 0 0.83 0.89 1.5 2 1.5 1.1 0 2 0.45 2 1 0 0.55 0.9 1 2 1q2 0 2 2 0 2 2 2c1.11 0 2 0.67 2 1.5 0 0.83 0.89 1.5 2 1.5q2 0 2 2c0 1.5 0.5 1.88 2 1.5 1.5-0.38 2 0 2 1.5q0 2 2 2c1.11 0 2 0.67 2 1.5 0 0.83 0.89 1.5 2 1.5 1.11 0 2 0.67 2 1.5 0 0.83 0.89 1.5 2 1.5 1.1 0 2 0.45 2 1 0 0.55 0.9 1 2 1 1.47 0 2 0.67 2 2.5 0 1.83 0.53 2.5 2 2.5 1.11 0 2 0.67 2 1.5 0 0.83 0.89 1.5 2 1.5 1.1 0 2 0.45 2 1 0 0.55 0.9 1 2 1 1.11 0 2 0.67 2 1.5 0 0.83 0.89 1.5 2 1.5 1.1 0 2-0.45 2-1 0-0.55 0.9-1 2-1 1.11 0 2-0.67 2-1.5 0-0.83 0.89-1.5 2-1.5q2 0 2-2 0-2 2-2 2 0 2-2 0-2 2-2c1.11 0 2-0.67 2-1.5 0-0.83 0.89-1.5 2-1.5q2 0 2-2 0-2 2-2c1.47 0 2-0.67 2-2.5 0-1.83 0.53-2.5 2-2.5 1.11 0 2-0.67 2-1.5 0-0.83 0.89-1.5 2-1.5q2 0 2-2 0-2 2-2c1.56 0 2-0.67 2-3 0-2.33 0.44-3 2-3 1.11 0 2-0.67 2-1.5 0-0.83 0.89-1.5 2-1.5q2 0 2-2 0-2 2-2c1.47 0 2-0.67 2-2.5 0-1.83 0.53-2.5 2-2.5q2 0 2-2 0-2 2-2c1.47 0 2-0.67 2-2.5 0-1.83 0.53-2.5 2-2.5q2 0 2-2 0-2 2-2 2 0 2-2 0-2 2-2c1.47 0 2-0.67 2-2.5 0-1.83 0.53-2.5 2-2.5 1.47 0 2-0.67 2-2.5 0-1.83 0.53-2.5 2-2.5q2 0 2-2 0-2 2-2c1.56 0 2-0.67 2-3 0-2.33 0.44-3 2-3q2 0 2-2 0-2 2-2c1.47 0 2-0.67 2-2.5 0-1.83 0.53-2.5 2-2.5 1.47 0 2-0.67 2-2.5 0-1.83 0.53-2.5 2-2.5 1.56 0 2-0.67 2-3 0-2.33 0.44-3 2-3q2 0 2-2 0-2 2-2c1.47 0 2-0.67 2-2.5 0-1.83 0.53-2.5 2-2.5 1.62 0 2-0.67 2-3.5 0-2.83 0.38-3.5 2-3.5q2 0 2-2 0-2 2-2c1.56 0 2-0.67 2-3 0-2.33 0.44-3 2-3 1.56 0 2-0.67 2-3 0-2.33 0.44-3 2-3 1.47 0 2-0.67 2-2.5 0-1.83 0.53-2.5 2-2.5 1.56 0 2-0.67 2-3 0-2.33 0.44-3 2-3 1.62 0 2-0.67 2-3.5 0-2.83 0.38-3.5 2-3.5q2 0 2-2 0-2 2-2c1.62 0 2-0.67 2-3.5 0-2.83 0.38-3.5 2-3.5 1.62 0 2-0.67 2-3.5 0-2.83 0.38-3.5 2-3.5 1.47 0 2-0.67 2-2.5 0-1.83 0.53-2.5 2-2.5 1.62 0 2-0.67 2-3.5 0-2.83 0.38-3.5 2-3.5 1.62 0 2-0.67 2-3.5 0-2.83 0.38-3.5 2-3.5 1.47 0 2-0.67 2-2.5 0-1.83 0.53-2.5 2-2.5 1.67 0 2-0.67 2-4 0-3.33 0.33-4 2-4 1.62 0 2-0.67 2-3.5 0-2.83 0.38-3.5 2-3.5 1.56 0 2-0.67 2-3 0-2.33 0.44-3 2-3 1.7 0 2-0.67 2-4.5 0-3.83 0.3-4.5 2-4.5 1.62 0 2-0.67 2-3.5 0-2.83 0.38-3.5 2-3.5 1.62 0 2-0.67 2-3.5 0-2.83 0.38-3.5 2-3.5 1.62 0 2-0.67 2-3.5 0-2.83 0.38-3.5 2-3.5 1.7 0 2-0.67 2-4.5 0-3.83 0.3-4.5 2-4.5 1.62 0 2-0.67 2-3.5 0-2.83 0.38-3.5 2-3.5 1.67 0 2-0.67 2-4 0-3.33 0.33-4 2-4 1.73 0 2-0.67 2-5 0-4.33 0.27-5 2-5 1.62 0 2-0.67 2-3.5 0-2.83 0.38-3.5 2-3.5 1.73 0 2-0.67 2-5 0-4.33 0.27-5 2-5 1.7 0 2-0.67 2-4.5 0-3.83 0.3-4.5 2-4.5 1.7 0 2-0.67 2-4.5 0-3.83 0.3-4.5 2-4.5 1.73 0 2-0.67 2-5 0-4.33 0.27-5 2-5 1.76 0 2-0.67 2-5.5 0-4.83 0.24-5.5 2-5.5 1.7 0 2-0.67 2-4.5 0-3.83 0.3-4.5 2-4.5 1.78 0 2-0.67 2-6 0-5.33 0.22-6 2-6 1.78 0 2-0.67 2-6 0-5.33 0.22-6 2-6 1.67 0 2-0.67 2-4 0-3.33 0.33-4 2-4 1.79 0 2-0.67 2-6.5 0-5.83 0.21-6.5 2-6.5 1.82 0 2-0.67 2-7.5 0-6.83 0.18-7.5 2-7.5 1.73 0 2-0.67 2-5 0-4.33 0.27-5 2-5 1.83 0 2-0.67 2-8 0-7.33 0.17-8 2-8 1.82 0 2-0.67 2-7.5 0-6.83 0.18-7.5 2-7.5 1.79 0 2-0.67 2-6.5 0-5.83 0.21-6.5 2-6.5 1.85 0 2-0.67 2-9 0-8.33 0.15-9 2-9 1.86 0 2-0.67 2-9.5 0-8.83 0.14-9.5 2-9.5 1.82 0 2-0.67 2-7.5 0-6.83 0.18-7.5 2-7.5 1.88 0 2-0.67 2-11.5 0-10.83 0.12-11.5 2-11.5 1.9 0 2-0.67 2-13.5 0-12.83 0.1-13.5 2-13.5 1.88 0 2-0.67 2-11 0-10.33 0.12-11 2-11 1.93 0 2-0.67 2-18 0-17.33 0.07-18 2-18 1.95 0 2-0.67 2-27.5 0-26.83 0.05-27.5 2-27.5 1.98 0 2-0.67 2-72.5 0-71.83-0.02-72.5-2-72.5-1.95 0-2-0.67-2-26 0-25.33-0.05-26-2-26-1.93 0-2-0.67-2-18.5 0-17.83-0.07-18.5-2-18.5-1.88 0-2-0.67-2-11 0-10.33-0.12-11-2-11-1.9 0-2-0.66-1.98-12.75l0.03-12.75c-5.08-1.18-222.89-1.52-487.3-1.51l-480.75 0.01z"/>
		<path id="Path 3" class="s3" d="m467.59 1221.5c-0.32 1.38-1.26 2.5-2.09 2.5-0.82 0-1.5 0.67-1.5 1.5 0 0.83-0.89 1.5-2 1.5-1.1 0-2 0.45-2 1 0 0.55-0.9 1-2 1-1.11 0-2 0.67-2 1.5 0 0.83-0.89 1.5-2 1.5q-2 0-2 2 0 2-2 2c-1.11 0-2 0.67-2 1.5 0 0.83-0.89 1.5-2 1.5-1.11 0-2 0.67-2 1.5 0 0.83-0.89 1.5-2 1.5-1.11 0-2 0.67-2 1.5 0 0.83-0.89 1.5-2 1.5-1.11 0-2 0.67-2 1.5 0 0.83-0.89 1.5-2 1.5-1.11 0-2 0.67-2 1.5 0 0.83-0.89 1.5-2 1.5-1.11 0-2 0.67-2 1.5 0 0.83-0.89 1.5-2 1.5-1.1 0-2 0.45-2 1 0 0.55-0.9 1-2 1-1.47 0-2 0.67-2 2.5 0 1.83-0.53 2.5-2 2.5-1.11 0-2 0.67-2 1.5 0 0.83-0.89 1.5-2 1.5-1.1 0-2 0.45-2 1 0 0.55-0.9 1-2 1-1.11 0-2 0.67-2 1.5 0 0.83-0.89 1.5-2 1.5q-2 0-2 2 0 2-2 2c-1.1 0-2 0.45-2 1 0 0.55-0.9 1-2 1-1.11 0-2 0.67-2 1.5 0 0.83-0.89 1.5-2 1.5-1.11 0-2 0.67-2 1.5 0 0.83-0.89 1.5-2 1.5q-2 0-2 2 0 2-2 2c-1.11 0-2 0.67-2 1.5 0 0.83-0.89 1.5-2 1.5-1.11 0-2 0.67-2 1.5 0 0.83-0.89 1.5-2 1.5-1.1 0-2 0.45-2 1 0 0.55-0.9 1-2 1-1.47 0-2 0.67-2 2.5 0 1.83-0.53 2.5-2 2.5-1.11 0-2 0.67-2 1.5 0 0.83-0.89 1.5-2 1.5-1.1 0-2 0.45-2 1 0 0.55-0.9 1-2 1-1.11 0-2 0.67-2 1.5 0 0.83-0.89 1.5-2 1.5q-2 0-2 2 0 2-2 2c-1.11 0-2 0.67-2 1.5 0 0.83-0.89 1.5-2 1.5-1.11 0-2 0.67-2 1.5 0 0.83-0.89 1.5-2 1.5q-2 0-2 2 0 2-2 2c-1.1 0-2 0.45-2 1 0 0.55-0.9 1-2 1-1.11 0-2 0.67-2 1.5 0 0.83-0.89 1.5-2 1.5-1.11 0-2 0.67-2 1.5 0 0.83-0.89 1.5-2 1.5q-2 0-2 2 0 2-2 2c-1.11 0-2 0.67-2 1.5 0 0.83-0.89 1.5-2 1.5-1.11 0-2 0.67-2 1.5 0 0.83-0.89 1.5-2 1.5-1.1 0-2 0.45-2 1 0 0.55-0.9 1-2 1q-2 0-2 2 0 2-2 2c-1.11 0-2 0.67-2 1.5 0 0.83-0.89 1.5-2 1.5-1.11 0-2 0.67-2 1.5 0 0.83-0.89 1.5-2 1.5-1.11 0-2 0.67-2 1.5 0 0.83-0.89 1.5-2 1.5q-2 0-2 2 0 2-2 2c-1.1 0-2 0.45-2 1 0 0.55-0.9 1-2 1-1.11 0-2 0.67-2 1.5 0 0.83-0.89 1.5-2 1.5q-2 0-2 2 0 2-2 2c-1.11 0-2 0.67-2 1.5 0 0.83-0.89 1.5-2 1.5-1.11 0-2 0.67-2 1.5 0 0.83-0.89 1.5-2 1.5-1.11 0-2 0.67-2 1.5 0 0.83-0.89 1.5-2 1.5-1.11 0-2 0.67-2 1.5 0 0.83-0.89 1.5-2 1.5q-2 0-2 2 0 2-2 2c-1.11 0-2 0.67-2 1.5 0 0.83-0.89 1.5-2 1.5-1.1 0-2 0.45-2 1 0 0.55-0.9 1-2 1-1.11 0-2 0.67-2 1.5 0 0.83-0.89 1.5-2 1.5q-2 0-2 2 0 2-2 2c-1.11 0-2 0.67-2 1.5 0 0.83-0.89 1.5-2 1.5-1.11 0-2 0.67-2 1.5 0 0.83-0.89 1.5-2 1.5q-2 0-2 2 0 2-2 2c-1.1 0-2 0.45-2 1 0 0.55-0.9 1-2 1-1.11 0-2 0.67-2 1.5 0 0.83-0.89 1.5-2 1.5-1.11 0-2 0.67-2 1.5 0 0.83-0.89 1.5-2 1.5-1.11 0-2 0.67-2 1.5 0 0.83-0.89 1.5-2 1.5q-2 0-2 2 0 2-2 2c-1.11 0-2 0.67-2 1.5 0 0.83-0.89 1.5-2 1.5-1.1 0-2 0.45-2 1 0 0.55-0.9 1-2 1-1.11 0-2 0.67-2 1.5 0 0.83-0.89 1.5-2 1.5-1.47 0-2 0.67-2 2.5 0 1.83-0.53 2.5-2 2.5-1.1 0-2 0.45-2 1 0 0.55-0.9 1-2 1-1.11 0-2 0.67-2 1.5 0 0.83-0.89 1.5-2 1.5q-2 0-2 2 0 2-2 2c-1.11 0-2 0.67-2 1.5 0 0.83-0.89 1.5-2 1.5-1.11 0-2 0.67-2 1.5 0 0.83-0.89 1.5-2 1.5-1.11 0-2 0.67-2 1.5 0 0.83-0.89 1.5-2 1.5-1.11 0-2 0.67-2 1.5 0 0.83-0.89 1.5-2 1.5-1.11 0-2 0.67-2 1.5 0 0.83-0.89 1.5-2 1.5-1.11 0-2 0.67-2 1.5 0 0.83-0.89 1.5-2 1.5-1.11 0-2 0.67-2 1.5 0 0.83-0.89 1.5-2 1.5q-2 0-2 2 0 2-2 2c-1.11 0-2 0.67-2 1.5 0 0.83-0.89 1.5-2 1.5-1.1 0-2 0.45-2 1 0 0.55-0.9 1-2 1-1.11 0-2 0.67-2 1.5 0 0.83-0.89 1.5-2 1.5q-2 0-2 2 0 2-2 2c-1.11 0-2 0.67-2 1.5 0 0.83-0.89 1.5-2 1.5-1.7 0-2 0.67-2 4.5 0 3.83 0.3 4.5 2 4.5 1.56 0 2 0.67 2 3 0 2.33 0.44 3 2 3 1.67 0 2 0.67 2 4 0 3.33 0.33 4 2 4 1.7 0 2 0.67 2 4.5 0 3.83 0.3 4.5 2 4.5 1.47 0 2 0.67 2 2.5 0 1.83 0.53 2.5 2 2.5 1.67 0 2 0.67 2 4 0 3.33 0.33 4 2 4 1.62 0 2 0.67 2 3.5 0 2.83 0.38 3.5 2 3.5 1.56 0 2 0.67 2 3 0 2.33 0.44 3 2 3 1.62 0 2 0.67 2 3.5 0 2.83 0.38 3.5 2 3.5 1.67 0 2 0.67 2 4 0 3.33 0.33 4 2 4 1.47 0 2 0.67 2 2.5 0 1.83 0.53 2.5 2 2.5 1.62 0 2 0.67 2 3.5 0 2.83 0.38 3.5 2 3.5 1.67 0 2 0.67 2 4 0 3.33 0.33 4 2 4q2 0 2 2 0 2 2 2c1.67 0 2 0.67 2 4 0 3.33 0.33 4 2 4 1.56 0 2 0.67 2 3 0 2.33 0.44 3 2 3 1.47 0 2 0.67 2 2.5 0 1.83 0.53 2.5 2 2.5 1.56 0 2 0.67 2 3 0 2.33 0.44 3 2 3 1.62 0 2 0.67 2 3.5 0 2.83 0.38 3.5 2 3.5q2 0 2 2 0 2 2 2c1.62 0 2 0.67 2 3.5 0 2.83 0.38 3.5 2 3.5 1.47 0 2 0.67 2 2.5 0 1.83 0.53 2.5 2 2.5q2 0 2 2 0 2 2 2c1.62 0 2 0.67 2 3.5 0 2.83 0.38 3.5 2 3.5 1.47 0 2 0.67 2 2.5 0 1.83 0.53 2.5 2 2.5 1.47 0 2 0.67 2 2.5 0 1.83 0.53 2.5 2 2.5 1.47 0 2 0.67 2 2.5 0 1.83 0.53 2.5 2 2.5 1.56 0 2 0.67 2 3 0 2.33 0.44 3 2 3q2 0 2 2 0 2 2 2c1.47 0 2 0.67 2 2.5 0 1.83 0.53 2.5 2 2.5 1.56 0 2 0.67 2 3 0 2.33 0.44 3 2 3 1.11 0 2 0.67 2 1.5 0 0.83 0.89 1.5 2 1.5 1.56 0 2 0.67 2 3 0 2.33 0.44 3 2 3 1.47 0 2 0.67 2 2.5 0 1.83 0.53 2.5 2 2.5 1.11 0 2 0.67 2 1.5 0 0.83 0.89 1.5 2 1.5 1.56 0 2 0.67 2 3 0 2.33 0.44 3 2 3 1.47 0 2 0.67 2 2.5 0 1.83 0.53 2.5 2 2.5 1.11 0 2 0.67 2 1.5 0 0.83 0.89 1.5 2 1.5 1.56 0 2 0.67 2 3 0 2.33 0.44 3 2 3q2 0 2 2 0 2 2 2 2 0 2 2 0 2 2 2c1.47 0 2 0.67 2 2.5 0 1.83 0.53 2.5 2 2.5q2 0 2 2 0 2 2 2 2 0 2 2 0 2 2 2 2 0 2 2 0 2 2 2 2 0 2 2 0 2 2 2 2 0 2 2 0 2 2 2 2 0 2 2 0 2 2 2 2 0 2 2 0 2 2 2 2 0 2 2 0 2 2 2 2 0 2 2 0 2 2 2 2 0 2 2 0 2 2 2 2 0 2 2 0 2 2 2 2 0 2 2 0 2 2 2 2 0 2 2 0 2 2 2c1.11 0 2 0.67 2 1.5 0 0.83 0.89 1.5 2 1.5q2 0 2 2 0 2 2 2 2 0 2 2 0 2 2 2c1.1 0 2 0.45 2 1 0 0.55 0.9 1 2 1 1.47 0 2 0.67 2 2.5 0 1.83 0.53 2.5 2 2.5 1.11 0 2 0.67 2 1.5 0 0.83 0.89 1.5 2 1.5 1.11 0 2 0.67 2 1.5 0 0.83 0.89 1.5 2 1.5q2 0 2 2 0 2 2 2 2 0 2 2 0 2 2 2c1.1 0 2 0.45 2 1 0 0.55 0.9 1 2 1 1.47 0 2 0.67 2 2.5 0 1.83 0.53 2.5 2 2.5 1.11 0 2 0.67 2 1.5 0 0.83 0.89 1.5 2 1.5 1.1 0 2 0.45 2 1 0 0.55 0.9 1 2 1q2 0 2 2c0 1.5 0.5 1.88 2 1.5 1.6-0.4 2 0 2 2 0 1.83 0.53 2.5 2 2.5 1.1 0 2 0.45 2 1 0 0.55 0.9 1 2 1 1.11 0 2 0.67 2 1.5 0 0.83 0.89 1.5 2 1.5 1.11 0 2 0.67 2 1.5 0 0.83 0.89 1.5 2 1.5q2 0 2 2 0 2 2 2c1.11 0 2 0.67 2 1.5 0 0.83 0.89 1.5 2 1.5 1.11 0 2 0.67 2 1.5 0 0.83 0.89 1.5 2 1.5 1.1 0 2 0.45 2 1 0 0.55 0.9 1 2 1q2 0 2 2 0 2 2 2c1.11 0 2 0.67 2 1.5 0 0.83 0.89 1.5 2 1.5 1.1 0 2 0.45 2 1 0 0.55 0.9 1 2 1 1.11 0 2 0.67 2 1.5 0 0.83 0.89 1.5 2 1.5q2 0 2 2 0 2 2 2c1.1 0 2 0.45 2 1 0 0.55 0.9 1 2 1 1.11 0 2 0.67 2 1.5 0 0.83 0.89 1.5 2 1.5 1.1 0 2 0.45 2 1 0 0.55 0.9 1 2 1 1.1 0 2 0.45 2 1 0 0.55 0.9 1 2 1q2 0 2 2 0 2 2 2c1.11 0 2 0.67 2 1.5 0 0.83 0.89 1.5 2 1.5 1.1 0 2 0.45 2 1 0 0.55 0.9 1 2 1 1.1 0 2 0.45 2 1 0 0.55 0.9 1 2 1q2 0 2 2 0 2 2 2c1.1 0 2 0.45 2 1 0 0.55 0.9 1 2 1 1.1 0 2 0.45 2 1 0 0.55 0.9 1 2 1 1.11 0 2 0.67 2 1.5 0 0.83 0.89 1.5 2 1.5 1.1 0 2 0.45 2 1 0 0.55 0.9 1 2 1 1.11 0 2 0.67 2 1.5 0 0.83 0.89 1.5 2 1.5 1.11 0 2 0.67 2 1.5q0 1.5 4 2 4 0.5 4 2c0 0.83 0.89 1.5 2 1.5 1.1 0 2 0.45 2 1 0 0.55 0.9 1 2 1 1.11 0 2 0.67 2 1.5 0 0.83 0.89 1.5 2 1.5 1.1 0 2 0.45 2 1 0 0.55 0.9 1 2 1 1.11 0 2 0.67 2 1.5q0 1.5 4 2c2.2 0.28 4 0.95 4 1.5 0 0.55 0.9 1 2 1q2 0 2 2c0 1.58 0.83 2.1 4 2.5q4 0.5 4 2c0 0.83 0.89 1.5 2 1.5 1.1 0 2 0.45 2 1 0 0.55 1.8 1.22 4 1.5 2.2 0.28 4 0.95 4 1.5 0 0.55 0.9 1 2 1 1.11 0 2 0.67 2 1.5 0 0.83 0.89 1.5 2 1.5 1.1 0 2 0.45 2 1 0 0.55 0.9 1 2 1 1.1 0 2 0.45 2 1 0 0.55 0.9 1 2 1 1.1 0 2 0.45 2 1 0 0.55 1.8 1.22 4 1.5 2.2 0.28 4 0.95 4 1.5 0 0.55 0.9 1 2 1 1.11 0 2 0.67 2 1.5 0 0.83 0.89 1.5 2 1.5 1.1 0 2 0.45 2 1 0 0.55 0.9 1 2 1 1.1 0 2 0.45 2 1 0 0.55 0.9 1 2 1 1.1 0 2 0.45 2 1 0 0.55 1.8 1.22 4 1.5 2.2 0.28 4 0.95 4 1.5 0 0.55 0.9 1 2 1 1.11 0 2 0.67 2 1.5q0 1.5 4 2c2.2 0.28 4 0.95 4 1.5 0 0.55 0.9 1 2 1 1.1 0 1.99 0.34 1.98 0.75-0.01 0.41 2.7 1.42 6.02 2.25 3.32 0.83 6.03 1.84 6.02 2.25-0.01 0.41 1.78 0.97 3.98 1.25q4 0.5 4 2c0 0.83 0.89 1.5 2 1.5 1.1 0 1.99 0.34 1.98 0.75-0.01 0.41 2.7 1.42 6.02 2.25 3.32 0.83 6.03 1.84 6.02 2.25-0.01 0.41 0.88 0.75 1.98 0.75 1.1 0 2 0.45 2 1 0 0.55 1.8 1.22 4 1.5 2.2 0.28 4 0.95 4 1.5 0 0.55 0.9 1 2 1 1.1 0 1.99 0.34 1.98 0.75-0.01 0.41 2.7 1.42 6.02 2.25 3.32 0.83 6.02 1.72 6 2-0.02 0.28 2.68 1.17 6 2 3.32 0.83 6.03 1.84 6.02 2.25-0.01 0.41 0.88 0.75 1.98 0.75 1.1 0 1.99 0.34 1.99 0.75-0.01 0.41 3.48 1.6 7.75 2.63 4.27 1.04 7.99 2.21 8.26 2.6 0.28 0.38 5.67 1.97 12 3.52 6.33 1.55 11.73 3.14 12 3.52 0.28 0.39 3.99 1.56 8.26 2.6 4.27 1.03 7.76 2.22 7.75 2.63 0 0.41 1.34 0.75 2.99 0.75 1.65 0 7.84 1.2 13.75 2.67 5.91 1.46 10.98 2.97 11.25 3.34 0.28 0.37 5.45 1.82 11.5 3.23 6.05 1.41 13.92 3.11 17.5 3.78 3.58 0.68 7.85 1.35 9.5 1.5 1.65 0.14 4.8 0.76 7 1.37 2.2 0.6 5.46 1.1 7.25 1.1 1.79 0.01 3.36 0.45 3.5 0.98 0.14 0.54 3.4 1.46 7.25 2.05 3.85 0.59 11.28 1.71 16.5 2.49 5.23 0.78 18.05 2.56 28.5 3.95 10.45 1.39 20.91 2.53 23.25 2.54 2.34 0 4.25 0.34 4.25 0.75-0.01 0.41 9.78 1.56 21.75 2.55 11.96 0.98 31.65 2.21 43.75 2.71 12.1 0.51 32.8 0.93 46 0.94 13.2 0 34.58-0.42 47.5-0.94 12.92-0.53 33.63-1.71 46-2.64 12.38-0.92 22.61-2.06 22.75-2.53 0.14-0.46 2.39-0.85 5-0.86 2.61-0.01 7.67-0.44 11.25-0.96 3.58-0.51 9.88-1.21 14-1.56 4.13-0.34 12.22-1.27 18-2.07 5.78-0.8 15-2.14 20.5-2.98 5.5-0.83 12.14-1.83 14.76-2.21 2.62-0.39 4.76-1.04 4.75-1.45 0-0.41 2.13-1 4.74-1.31 2.61-0.31 7.9-1.19 11.75-1.96 3.85-0.76 10.83-2.1 15.5-2.98 4.67-0.88 11.88-2.31 16-3.18 4.13-0.87 7.72-1.91 8-2.3 0.28-0.39 4.55-1.65 9.5-2.81 4.95-1.16 11.14-2.35 13.75-2.66 2.61-0.3 4.75-1 4.75-1.55 0-0.55 0.45-0.78 1-0.5 0.55 0.28 3.26-0.06 6.02-0.75 2.76-0.69 5.01-1.59 5-2-0.01-0.41 1.78-0.75 3.98-0.75 2.54 0 4-0.46 3.99-1.25-0.01-0.78 5.3-2.58 14.01-4.75 7.71-1.92 14.02-3.84 14.01-4.25-0.01-0.41 1.79-0.97 3.99-1.25 2.2-0.28 3.99-0.84 3.98-1.25-0.01-0.41 2.7-1.42 6.02-2.25 3.32-0.83 6.02-1.72 6-2-0.02-0.28 2.68-1.17 6-2 3.32-0.83 6.02-1.72 6-2-0.02-0.28 2.68-1.17 6-2 3.4-0.84 6.03-2.05 6.02-2.75-0.01-0.71 1.69-1.46 3.98-1.75 2.2-0.28 4-0.95 4-1.5 0-0.55 0.9-0.78 2-0.5 1.1 0.28 2 0.05 2-0.5 0-0.55 0.9-1 2-1 1.1 0 2-0.45 2-1 0-0.55 0.9-0.78 2-0.5 1.1 0.28 1.99 0.16 1.98-0.25-0.02-0.41 1.33-1.09 3-1.5 1.66-0.41 3.58-1.37 4.27-2.13 0.69-0.76 2.94-1.66 5-2 2.06-0.34 3.75-1.07 3.75-1.62 0-0.55 0.9-1 2-1 1.1 0 2-0.45 2-1 0-0.55 1.8-1.22 4-1.5 2.2-0.28 4-0.95 4-1.5 0-0.55 0.9-1 2-1 1.1 0 2-0.45 2-1 0-0.55 0.9-1 2-1 1.1 0 2-0.45 2-1 0-0.55 0.9-1 2-1 1.1 0 2-0.45 2-1 0-0.55 0.9-1 2-1 1.1 0 2-0.45 2-1 0-0.55 1.8-1.22 4-1.5 2.2-0.28 4-0.95 4-1.5 0-0.55 0.9-1 2-1 1.1 0 2-0.45 2-1 0-0.55 1.8-1.22 4-1.5q4-0.5 4-2c0-0.83 0.89-1.5 2-1.5 1.1 0 2-0.45 2-1 0-0.55 0.9-1 2-1 1.1 0 2-0.45 2-1 0-0.55 0.9-1 2-1 1.1 0 2-0.45 2-1 0-0.55 0.9-1 2-1 1.1 0 2-0.45 2-1 0-0.55 0.9-1 2-1 1.11 0 2-0.67 2-1.5 0-0.83 0.89-1.5 2-1.5 1.1 0 2-0.45 2-1 0-0.55 0.9-1 2-1 1.1 0 2-0.45 2-1 0-0.55 1.8-1.22 4-1.5q4-0.5 4-2c0-0.83 0.89-1.5 2-1.5 1.1 0 2-0.45 2-1 0-0.55 0.9-1 2-1 1.11 0 2-0.67 2-1.5 0-0.83 0.89-1.5 2-1.5 1.1 0 2-0.45 2-1 0-0.55 0.9-1 2-1 1.1 0 2-0.45 2-1 0-0.55 0.9-1 2-1 1.1 0 2-0.45 2-1 0-0.55 0.9-1 2-1 1.1 0 2-0.45 2-1 0-0.55 0.9-1 2-1q2 0 2-2c0-1.58 0.83-2.1 4-2.5q4-0.5 4-2c0-0.83 0.89-1.5 2-1.5 1.1 0 2-0.45 2-1 0-0.55 0.9-1 2-1 1.1 0 2-0.45 2-1 0-0.55 0.9-1 2-1q2 0 2-2 0-2 2-2c1.1 0 2-0.45 2-1 0-0.55 0.9-1 2-1 1.1 0 2-0.45 2-1 0-0.55 0.9-1 2-1 1.11 0 2-0.67 2-1.5 0-0.83 0.89-1.5 2-1.5 1.11 0 2-0.67 2-1.5 0-0.83 0.89-1.5 2-1.5 1.1 0 2-0.45 2-1 0-0.55 0.9-1 2-1 1.11 0 2-0.67 2-1.5 0-0.83 0.89-1.5 2-1.5 1.11 0 2-0.67 2-1.5 0-0.83 0.89-1.5 2-1.5 1.1 0 2-0.45 2-1 0-0.55 0.9-1 2-1q2 0 2-2 0-2 2-2c1.11 0 2-0.67 2-1.5 0-0.83 0.89-1.5 2-1.5 1.1 0 2-0.45 2-1 0-0.55 0.9-1 2-1 1.11 0 2-0.67 2-1.5 0-0.83 0.89-1.5 2-1.5q2 0 2-2 0-2 2-2c1.1 0 2-0.45 2-1 0-0.55 0.9-1 2-1 1.11 0 2-0.67 2-1.5 0-0.83 0.89-1.5 2-1.5 1.11 0 2-0.67 2-1.5 0-0.83 0.89-1.5 2-1.5 1.1 0 2-0.45 2-1 0-0.55 0.9-1 2-1q2 0 2-2 0-2 2-2 2 0 2-2 0-2 2-2c1.1 0 2-0.45 2-1 0-0.55 0.9-1 2-1q2 0 2-2 0-2 2-2 2 0 2-2 0-2 2-2c1.11 0 2-0.67 2-1.5 0-0.83 0.89-1.5 2-1.5 1.1 0 2-0.45 2-1 0-0.55 0.9-1 2-1 1.47 0 2-0.67 2-2.5 0-1.83 0.53-2.5 2-2.5 1.11 0 2-0.67 2-1.5 0-0.83 0.89-1.5 2-1.5 1.11 0 2-0.67 2-1.5 0-0.83 0.89-1.5 2-1.5q2 0 2-2 0-2 2-2 2 0 2-2 0-2 2-2c1.11 0 2-0.67 2-1.5 0-0.83 0.89-1.5 2-1.5 1.11 0 2-0.67 2-1.5 0-0.83 0.89-1.5 2-1.5 1.11 0 2-0.67 2-1.5 0-0.83-0.89-1.5-2-1.5-1.11 0-2-0.67-2-1.5 0-0.83-0.89-1.5-2-1.5-1.1 0-2-0.45-2-1 0-0.55-0.9-1-2-1-1.11 0-2-0.67-2-1.5 0-0.83-0.89-1.5-2-1.5-1.47 0-2-0.67-2-2.5 0-1.83-0.53-2.5-2-2.5-1.1 0-2-0.45-2-1 0-0.55-0.9-1-2-1-1.11 0-2-0.67-2-1.5 0-0.83-0.89-1.5-2-1.5-1.11 0-2-0.67-2-1.5 0-0.83-0.89-1.5-2-1.5q-2 0-2-2c0-1.5-0.5-1.88-2-1.5-1.5 0.38-2 0-2-1.5q0-2-2-2c-1.11 0-2-0.67-2-1.5 0-0.83-0.89-1.5-2-1.5q-2 0-2-2 0-2-2-2c-1.1 0-2-0.45-2-1 0-0.55-0.9-1-2-1-1.11 0-2-0.67-2-1.5 0-0.83-0.89-1.5-2-1.5-1.11 0-2-0.67-2-1.5 0-0.83-0.89-1.5-2-1.5q-2 0-2-2 0-2-2-2c-1.11 0-2-0.67-2-1.5 0-0.83-0.89-1.5-2-1.5-1.11 0-2-0.67-2-1.5 0-0.83-0.89-1.5-2-1.5-1.1 0-2-0.45-2-1 0-0.55-0.9-1-2-1q-2 0-2-2 0-2-2-2c-1.11 0-2-0.67-2-1.5 0-0.83-0.89-1.5-2-1.5-1.11 0-2-0.67-2-1.5 0-0.83-0.89-1.5-2-1.5-1.11 0-2-0.67-2-1.5 0-0.83-0.89-1.5-2-1.5q-2 0-2-2 0-2-2-2c-1.1 0-2-0.45-2-1 0-0.55-0.9-1-2-1-1.11 0-2-0.67-2-1.5 0-0.83-0.89-1.5-2-1.5-1.11 0-2-0.67-2-1.5 0-0.83-0.89-1.5-2-1.5q-2 0-2-2 0-2-2-2c-1.11 0-2-0.67-2-1.5 0-0.83-0.89-1.5-2-1.5-1.11 0-2-0.67-2-1.5 0-0.83-0.89-1.5-2-1.5-1.1 0-2-0.45-2-1 0-0.55-0.9-1-2-1q-2 0-2-2 0-2-2-2c-1.11 0-2-0.67-2-1.5 0-0.83-0.89-1.5-2-1.5-1.11 0-2-0.67-2-1.5 0-0.83-0.89-1.5-2-1.5-1.11 0-2-0.67-2-1.5 0-0.83-0.89-1.5-2-1.5q-2 0-2-2 0-2-2-2c-1.1 0-2-0.45-2-1 0-0.55-0.9-1-2-1-1.11 0-2-0.67-2-1.5 0-0.83-0.89-1.5-2-1.5-1.11 0-2-0.67-2-1.5 0-0.83-0.89-1.5-2-1.5q-2 0-2-2 0-2-2-2c-1.11 0-2-0.67-2-1.5 0-0.83-0.89-1.5-2-1.5-1.11 0-2-0.67-2-1.5 0-0.83-0.89-1.5-2-1.5-1.1 0-2-0.45-2-1 0-0.55-0.9-1-2-1q-2 0-2-2 0-2-2-2c-1.11 0-2-0.67-2-1.5 0-0.83-0.89-1.5-2-1.5-1.11 0-2-0.67-2-1.5 0-0.83-0.89-1.5-2-1.5-1.11 0-2-0.67-2-1.5 0-0.83-0.89-1.5-2-1.5q-2 0-2-2 0-2-2-2c-1.11 0-2-0.67-2-1.5 0-0.83-0.89-1.5-2-1.5-1.11 0-2-0.67-2-1.5 0-0.83-0.89-1.5-2-1.5q-2 0-2-2 0-2-2-2c-1.1 0-2-0.45-2-1 0-0.55-0.9-1-2-1-1.11 0-2-0.67-2-1.5 0-0.83-0.89-1.5-2-1.5-1.11 0-2-0.67-2-1.5 0-0.83-0.89-1.5-2-1.5q-2 0-2-2 0-2-2-2c-1.11 0-2-0.67-2-1.5 0-0.83-0.89-1.5-2-1.5-1.11 0-2-0.67-2-1.5 0-0.83-0.89-1.5-2-1.5-1.1 0-2-0.45-2-1 0-0.55-0.9-1-2-1q-2 0-2-2 0-2-2-2c-1.11 0-2-0.67-2-1.5 0-0.83-0.89-1.5-2-1.5-1.11 0-2-0.67-2-1.5 0-0.83-0.89-1.5-2-1.5-1.11 0-2-0.67-2-1.5 0-0.83-0.89-1.5-2-1.5q-2 0-2-2 0-2-2-2c-1.1 0-2-0.45-2-1 0-0.55-0.9-1-2-1-1.11 0-2-0.67-2-1.5 0-0.83-0.89-1.5-2-1.5-1.11 0-2-0.67-2-1.5 0-0.83-0.89-1.5-2-1.5q-2 0-2-2 0-2-2-2c-1.11 0-2-0.67-2-1.5 0-0.83-0.89-1.5-2-1.5-1.11 0-2-0.67-2-1.5 0-0.83-0.89-1.5-2-1.5-1.1 0-2-0.45-2-1 0-0.55-0.9-1-2-1q-2 0-2-2 0-2-2-2c-1.11 0-2-0.67-2-1.5 0-0.83-0.89-1.5-2-1.5-1.11 0-2-0.67-2-1.5 0-0.83-0.89-1.5-2-1.5-1.11 0-2-0.67-2-1.5 0-0.83-0.89-1.5-2-1.5q-2 0-2-2 0-2-2-2c-1.1 0-2-0.45-2-1 0-0.55-0.9-1-2-1-1.11 0-2-0.67-2-1.5 0-0.83-0.89-1.5-2-1.5-1.11 0-2-0.67-2-1.5 0-0.83-0.89-1.5-2-1.5q-2 0-2-2 0-2-2-2c-1.11 0-2-0.67-2-1.5 0-0.83-0.89-1.5-2-1.5-1.11 0-2-0.67-2-1.5 0-0.83-0.89-1.5-2-1.5-1.1 0-2-0.45-2-1 0-0.55-0.9-1-2-1q-2 0-2-2 0-2-2-2c-1.1 0-2-0.45-2-1 0-0.55-0.9-1-2-1-1.1 0-2 0.45-2 1 0 0.55-0.9 1-2 1-1.1 0-2 0.45-2 1 0 0.55-0.9 1-2 1q-2 0-2 2 0 2-2 2c-1.1 0-2 0.45-2 1 0 0.55-0.9 1-2 1-1.1 0-2 0.45-2 1 0 0.55-0.9 1-2 1-1.11 0-2 0.67-2 1.5q0 1.5-4 2c-3.17 0.4-4 0.92-4 2.5q0 2-2 2c-1.1 0-2 0.45-2 1 0 0.55-0.9 1-2 1-1.1 0-2 0.45-2 1 0 0.55-0.9 1-2 1-1.1 0-2 0.45-2 1 0 0.55-0.9 1-2 1-1.1 0-2 0.45-2 1 0 0.55-0.9 1-2 1-1.11 0-2 0.67-2 1.5 0 0.83-0.89 1.5-2 1.5-1.1 0-2 0.45-2 1 0 0.55-0.9 1-2 1-1.1 0-2 0.45-2 1 0 0.55-1.8 1.22-4 1.5-2.2 0.28-4 0.95-4 1.5 0 0.55-0.9 1-2 1-1.1 0-2 0.45-2 1 0 0.55-0.9 1-2 1-1.1 0-2 0.45-2 1 0 0.55-0.9 1-2 1-1.1 0-2 0.45-2 1 0 0.55-0.9 1-2 1-1.1 0-2 0.45-2 1 0 0.55-1.8 1.22-4 1.5-2.2 0.28-4 0.95-4 1.5 0 0.55-0.9 1-2 1-1.1 0-2 0.45-2 1 0 0.55-1.8 1.22-4 1.5-2.29 0.29-3.99 1.04-3.98 1.75 0.01 0.7-2.62 1.91-6.02 2.75-3.32 0.83-6.02 1.72-6 2 0.02 0.28-2.68 1.17-6 2-3.32 0.83-6.03 1.84-6.02 2.25 0.01 0.41-1.78 0.97-3.98 1.25-2.2 0.28-4 0.95-4 1.5 0 0.55-1.69 1.27-3.75 1.59-2.06 0.33-3.97 0.93-4.25 1.34-0.28 0.41-7.47 2.47-16 4.57-8.53 2.1-15.72 4.17-16 4.6-0.28 0.43-2.53 1.06-5 1.4-2.47 0.34-9.22 1.68-15 2.98-5.78 1.3-13.87 2.88-18 3.52-4.12 0.63-9.41 1.57-11.75 2.08-2.34 0.5-5.6 0.92-7.25 0.92-1.65 0-3.11 0.46-3.25 1.02-0.14 0.57-7.9 1.9-17.25 2.96-9.35 1.06-21.95 2.44-28 3.05-6.05 0.62-28.33 1.37-49.5 1.68-24.13 0.34-44.85 0.13-55.5-0.58-9.35-0.62-26.9-2.34-39-3.81-12.1-1.48-22.22-3.03-22.5-3.46-0.27-0.42-3.42-1.21-7-1.76-3.58-0.54-9.2-1.51-12.5-2.15-3.3-0.64-11.85-2.53-19-4.21-7.15-1.68-13.22-3.37-13.5-3.74-0.27-0.37-6.58-2.17-14-4-7.42-1.83-13.72-3.63-14-4.01-0.27-0.39-2.97-1.29-6-2.01-3.02-0.72-6.06-1.91-6.75-2.65-0.69-0.73-2.94-1.78-5-2.32-2.06-0.55-4.31-1-5-1-0.69-0.01-1.24-0.35-1.23-0.76 0.01-0.41-2.7-1.42-6.02-2.25-3.32-0.83-6.03-1.84-6.02-2.25 0.01-0.41-1.78-0.97-3.98-1.25q-4-0.5-4-2 0-1.5-4-2c-2.2-0.28-4-0.95-4-1.5 0-0.55-1.8-1.22-4-1.5-2.2-0.28-4-0.95-4-1.5 0-0.55-0.9-1-2-1-1.1 0-2-0.45-2-1 0-0.55-0.9-1-2-1-1.11 0-2-0.67-2-1.5q0-1.5-4-2c-2.2-0.28-4-0.95-4-1.5 0-0.55-0.9-1-2-1-1.1 0-2-0.45-2-1 0-0.55-0.9-1-2-1-1.1 0-2-0.45-2-1 0-0.55-0.56-1-1.25-0.99-0.69 0.01-2.48-0.56-3.99-1.25-1.51-0.69-2.75-1.82-2.75-2.51-0.01-0.69-0.91-1.25-2.01-1.25-1.1 0-2-0.45-2-1 0-0.55-1.8-1.22-4-1.5q-4-0.5-4-2c0-0.83-0.89-1.5-2-1.5-1.1 0-2-0.45-2-1 0-0.55-0.9-1-2-1-1.1 0-2-0.45-2-1 0-0.55-0.9-1-2-1-1.11 0-2-0.67-2-1.5 0-0.83-0.89-1.5-2-1.5-1.1 0-2-0.45-2-1 0-0.55-0.9-1-2-1-1.1 0-2-0.45-2-1 0-0.55-0.9-1-2-1-1.11 0-2-0.67-2-1.5 0-0.83-0.89-1.5-2-1.5-1.1 0-2-0.45-2-1 0-0.55-0.9-1-2-1-1.11 0-2-0.67-2-1.5 0-0.83-0.89-1.5-2-1.5-1.11 0-2-0.67-2-1.5 0-0.83-0.89-1.5-2-1.5-1.1 0-2-0.45-2-1 0-0.55-0.9-1-2-1-1.1 0-2-0.45-2-1 0-0.55-0.9-1-2-1q-2 0-2-2 0-2-2-2c-1.11 0-2-0.67-2-1.5 0-0.83-0.89-1.5-2-1.5-1.1 0-2-0.45-2-1 0-0.55-0.9-1-2-1-1.11 0-2-0.67-2-1.5 0-0.83-0.89-1.5-2-1.5q-2 0-2-2 0-2-2-2c-1.1 0-2-0.45-2-1 0-0.55-0.9-1-2-1-1.11 0-2-0.67-2-1.5 0-0.83-0.89-1.5-2-1.5-1.11 0-2-0.67-2-1.5 0-0.83-0.89-1.5-2-1.5-1.1 0-2-0.45-2-1 0-0.55-0.9-1-2-1q-2 0-2-2 0-2-2-2-2 0-2-2 0-2-2-2c-1.1 0-2-0.45-2-1 0-0.55-0.9-1-2-1q-2 0-2-2c0-1.17-0.83-2.21-2-2.5-1.1-0.28-2-1.17-2-2 0-0.83-0.89-1.5-2-1.5-1.11 0-2-0.67-2-1.5 0-0.83-0.89-1.5-2-1.5-1.11 0-2-0.67-2-1.5 0-0.83-0.89-1.5-2-1.5-1.47 0-2-0.67-2-2.5 0-1.83-0.53-2.5-2-2.5-1.11 0-2-0.67-2-1.5 0-0.83-0.89-1.5-2-1.5-1.11 0-2-0.67-2-1.5 0-0.83-0.89-1.5-2-1.5-1.47 0-2-0.67-2-2.5 0-1.83-0.53-2.5-2-2.5q-2 0-2-2 0-2-2-2c-1.11 0-2-0.67-2-1.5 0-0.83-0.89-1.5-2-1.5-1.47 0-2-0.67-2-2.5 0-1.83-0.53-2.5-2-2.5q-2 0-2-2 0-2-2-2c-1.11 0-2-0.67-2-1.5 0-0.83-0.89-1.5-2-1.5-1.47 0-2-0.67-2-2.5 0-1.83-0.53-2.5-2-2.5q-2 0-2-2 0-2-2-2-2 0-2-2 0-2-2-2c-1.47 0-2-0.67-2-2.5 0-1.83-0.53-2.5-2-2.5-1.47 0-2-0.67-2-2.5 0-1.83-0.53-2.5-2-2.5q-2 0-2-2 0-2-2-2c-1.47 0-2-0.67-2-2.5 0-1.83-0.53-2.5-2-2.5-1.47 0-2-0.67-2-2.5 0-1.83-0.53-2.5-2-2.5-1.47 0-2-0.67-2-2.5 0-1.83-0.53-2.5-2-2.5-1.47 0-2-0.67-2-2.5 0-1.83-0.53-2.5-2-2.5-1.56 0-2-0.67-2-3 0-2.33-0.44-3-2-3q-2 0-2-2 0-2-2-2c-1.47 0-2-0.67-2-2.5 0-1.83-0.53-2.5-2-2.5-1.62 0-2-0.67-2-3.5 0-2.83-0.38-3.5-2-3.5q-2 0-2-2 0-2-2-2c-1.62 0-2-0.67-2-3.5 0-2.83-0.38-3.5-2-3.5-1.47 0-2-0.67-2-2.5 0-1.83-0.53-2.5-2-2.5-1.56 0-2-0.67-2-3 0-2.33-0.44-3-2-3-1.56 0-2-0.67-2-3 0-2.33-0.44-3-2-3-1.67 0-2-0.67-2-4 0-3.33-0.33-4-2-4-1.47 0-2-0.67-2-2.5 0-1.83-0.53-2.5-2-2.5-1.62 0-2-0.67-2-3.5 0-2.83-0.38-3.5-2-3.5-1.67 0-2-0.67-2-4 0-3.33-0.33-4-2-4-1.56 0-2-0.67-2-3 0-2.33-0.44-3-2-3-1.67 0-2-0.67-2-4 0-3.33-0.33-4-2-4-1.7 0-2-0.67-2-4.5 0-3.83-0.3-4.5-2-4.5-1.56 0-2-0.67-2-3 0-2.33-0.44-3-2-3-1.7 0-2-0.67-2-4.5 0-3.83-0.3-4.5-2-4.5-1.7 0-2-0.67-2-4.5 0-3.83-0.3-4.5-2-4.5-1.62 0-2-0.67-2-3.5 0-2.83-0.38-3.5-2-3.5-1.73 0-2-0.67-2-5 0-4.33-0.27-5-2-5-1.73 0-2-0.67-2-5 0-4.33-0.27-5-2-5-1.7 0-2-0.67-2-4.5 0-3.83-0.3-4.5-2-4.5-1.78 0-2-0.67-2-6 0-5.33-0.22-6-2-6-1.78 0-2-0.67-2-6 0-5.33-0.22-6-2-6-1.11 0-2-0.67-2-1.5 0-0.83-0.86-1.5-1.91-1.5-1.22 0-2.13 0.91-2.5 2.5z"/>
	</g>
</svg>