<svg version="1.2" xmlns="http://www.w3.org/2000/svg" viewBox="0 0 1024 1024" width="1024" height="1024">
	<style>
		.s0 { fill: #1d253b } 
		.s1 { fill: #5a68f9 } 
	</style>
	<g id="Background">
		<path id="Path 0" fill-rule="evenodd" class="s0" d="m67.58 398c18.15 0 21.5 0.23 21.92 1.5 0.28 0.85 1.68 1.49 3.25 1.48 1.51-0.01 3.65 0.65 4.75 1.47 1.1 0.82 3.01 1.5 4.25 1.52 1.24 0.02 3.71 0.8 5.5 1.74 1.79 0.95 5.39 2.97 8 4.5 4.23 2.49 4.75 3.17 4.75 6.29 0 1.96-1.33 6.03-3.03 9.25-1.66 3.16-3.01 6.31-3 7 0.02 0.69-0.98 2.31-4.47 5.95l-6.25-4.35c-3.44-2.39-7.15-4.35-8.25-4.35-1.1 0-2.17-0.34-2.38-0.75-0.2-0.41-2-1.09-4-1.5-1.99-0.41-3.73-1.28-3.87-1.92-0.18-0.84-5.02-1.19-16.94-1.23-14.54-0.04-16.89 0.17-18.32 1.67-0.9 0.95-2.16 1.72-2.81 1.71-0.65-0.01-2.98 1.56-9.18 7.01l0.13 7.76c0.12 7.53 0.22 7.83 3.5 10.5 1.85 1.51 4.5 3.35 5.87 4.09 1.38 0.73 4.41 1.63 6.75 2 2.34 0.36 4.48 1.11 4.75 1.66 0.27 0.55 2.19 0.99 4.25 0.98 2.06-0.01 4.65 0.65 5.75 1.47 1.1 0.82 3.58 1.52 5.5 1.55 1.92 0.04 4.63 0.71 6 1.5 1.38 0.79 3.63 1.43 5 1.42 1.38 0 3.17 0.71 4 1.58 0.83 0.87 2.63 1.55 4 1.5 1.38-0.05 3.17 0.63 4 1.5 0.83 0.87 2.17 1.59 3 1.59 0.83 0 3.3 1.1 5.5 2.44 2.2 1.35 4.9 2.85 6 3.35 1.1 0.49 3.13 2.18 4.5 3.76 1.38 1.57 3.06 3.98 3.74 5.36 0.69 1.37 1.66 3.18 2.17 4 0.51 0.82 1.7 3.3 2.65 5.5 1.37 3.19 1.62 5.83 1.2 13-0.31 5.23-1.18 10.26-2.09 12-0.86 1.65-1.36 3.34-1.12 3.75 0.25 0.41-0.25 1.31-1.09 2-0.85 0.69-1.52 1.92-1.49 2.75 0.03 0.83-2.31 3.79-5.21 6.6-2.89 2.8-7.4 6.52-10.01 8.25-2.61 1.73-5.31 3.13-6 3.11-0.69-0.03-1.92 0.67-2.75 1.54-0.92 0.98-3.04 1.55-5.5 1.5-2.49-0.06-4.47 0.49-5.25 1.46-0.93 1.14-3.91 1.67-11.5 2.03-5.64 0.26-11.83 0.5-13.75 0.51-1.92 0.02-8.19-0.31-13.92-0.73q-10.42-0.77-10.75-2.02c-0.18-0.69-1.79-1.24-3.58-1.23-1.79 0.01-4.15-0.65-5.25-1.47-1.1-0.82-3.35-1.48-5-1.47-1.65 0-3.68-0.71-4.5-1.58-0.82-0.87-2.18-1.55-3-1.5-0.82 0.05-2.18-0.63-3-1.5-0.82-0.87-2.18-1.55-3-1.5-0.82 0.05-2.17-0.63-3-1.5-0.82-0.87-2.29-1.57-3.25-1.54-1.21 0.03-1.75-0.73-1.75-2.46 0-1.37 0.68-2.73 1.5-3 0.83-0.27 1.5-1.62 1.5-3 0-1.37 0.68-2.73 1.5-3 0.83-0.27 1.48-1.29 1.46-2.25-0.03-0.96 0.67-2.42 1.54-3.25 0.87-0.83 1.57-2.4 1.54-3.5-0.03-1.1 0.85-2.56 1.96-3.25 1.67-1.04 2.45-0.94 4.75 0.62 1.51 1.03 4.89 2.83 7.5 4 2.61 1.17 5.43 2.13 6.25 2.13 0.82 0 1.73 0.45 2 1 0.27 0.55 1.51 1 2.75 1.01 1.24 0 3.6 0.74 5.25 1.65 2.43 1.33 6.24 1.66 20 1.74 14.83 0.09 17.51-0.14 21-1.82 2.2-1.05 5.15-3.08 6.56-4.5 1.41-1.42 3.33-4.16 4.27-6.08 0.94-1.92 1.67-4.17 1.61-5-0.06-0.82-1.08-3.28-2.27-5.47-1.19-2.18-3.52-4.65-5.17-5.5-1.65-0.84-3.22-1.81-3.5-2.16-0.28-0.34-2.41-0.91-4.75-1.25-2.34-0.34-4.25-1.07-4.25-1.62 0-0.55-1.58-1-3.5-1-1.92 0-4.74-0.62-6.25-1.37-1.51-0.75-4.89-1.65-7.5-2-2.61-0.35-4.98-1.08-5.25-1.63-0.27-0.55-1.96-0.99-3.75-0.98-1.79 0.01-4.15-0.65-5.25-1.47-1.1-0.82-3.12-1.48-4.5-1.47-1.37 0-3.17-0.71-4-1.58-0.83-0.87-2.4-1.55-3.5-1.5-1.1 0.05-2.67-0.63-3.5-1.5-0.82-0.87-2.06-1.57-2.75-1.54-0.69 0.02-3.56-2.1-6.38-4.71-2.81-2.61-6.43-6.55-8.02-8.75-1.73-2.38-2.89-5.22-2.86-7 0.02-1.65-0.62-3.9-1.44-5-0.89-1.2-1.48-4.19-1.48-7.5 0-3.02 0.64-6.62 1.43-8 0.79-1.37 1.44-3.85 1.45-5.5 0.01-1.65 0.68-3.9 1.5-5 0.82-1.1 1.49-2.68 1.48-3.5 0-0.82 2.66-4.54 5.91-8.25 3.25-3.71 6.64-6.75 7.53-6.75 0.9 0 3.21-1.35 5.14-3 1.93-1.65 4.07-2.98 4.75-2.96 0.68 0.03 1.88-0.65 2.66-1.5 0.86-0.93 3.13-1.54 5.75-1.54 2.92 0 4.52-0.49 4.91-1.5 0.5-1.27 3.9-1.5 22-1.5zm905.17 44.03c10.72-0.02 14.99 0.34 17.25 1.47 1.65 0.82 4.46 2.25 6.25 3.18 1.79 0.92 5.01 2.6 7.16 3.75 2.15 1.14 5.19 3.53 6.75 5.32 1.56 1.79 2.83 3.81 2.81 4.5-0.01 0.69 1.13 2.37 2.53 3.75 1.4 1.37 2.55 3.62 2.56 5 0 1.37 0.67 3.4 1.49 4.5 0.82 1.1 1.48 3.91 1.47 6.25-0.01 2.9 0.46 4.41 1.48 4.75 1.22 0.41 1.5 2.67 1.5 12 0 6.32-0.11 11.59-0.25 11.71-0.14 0.11-16.45 0.45-36.25 0.75-31.21 0.47-35.98 0.74-35.81 2.04 0.1 0.82 0.77 3.09 1.5 5.03 0.72 1.94 1.98 4.35 2.81 5.35 0.83 1 2.85 3.13 4.5 4.73 1.65 1.6 3.9 2.92 5 2.93 1.1 0.02 3.13 0.67 4.5 1.46 1.6 0.91 5.58 1.45 11 1.5 5.75 0.04 9.47-0.43 11.5-1.46 1.65-0.84 4.01-1.53 5.25-1.53 1.24-0.01 2.25-0.46 2.25-1.01 0-0.55 1.24-1.3 2.75-1.67 1.51-0.37 3.42-1.31 4.25-2.09 0.83-0.78 2.84-1.27 4.5-1.08 2.32 0.26 3.08 0.91 3.36 2.84 0.2 1.37 0.99 3.4 1.76 4.5 0.77 1.1 1.37 2.9 1.34 4-0.03 1.1 0.67 2.67 1.54 3.5 0.87 0.83 1.57 2.29 1.54 3.25-0.02 0.96-0.94 2.65-2.04 3.75-1.1 1.1-2.56 1.98-3.25 1.96-0.69-0.03-1.92 0.67-2.75 1.54-0.83 0.87-2.17 1.55-3 1.5-0.83-0.05-2.17 0.63-3 1.5-0.83 0.87-2.85 1.58-4.5 1.58-1.65-0.01-3.9 0.65-5 1.47-1.58 1.17-5.47 1.48-18.5 1.48-13.03 0-16.92-0.31-18.5-1.48-1.1-0.82-3.35-1.48-5-1.47-1.65 0-3.67-0.71-4.5-1.58-0.83-0.87-2.17-1.59-3-1.59-0.83 0.01-2.96-1.32-4.75-2.95-1.79-1.63-3.81-2.94-4.5-2.92-0.69 0.02-3.16-2-5.5-4.5-2.34-2.5-4.7-5.89-5.25-7.54-0.55-1.65-1.45-3-2-3-0.55 0-1.01-1.01-1.03-2.25-0.02-1.24-0.7-3.15-1.52-4.25-0.82-1.1-1.47-3.35-1.46-5 0.01-1.65-0.73-4.13-1.65-5.5-1.41-2.1-1.61-4.47-1.26-14.69 0.28-7.97 0.86-12.65 1.69-13.5 0.69-0.72 1.24-2.66 1.2-4.31-0.03-1.65 0.66-3.68 1.53-4.5 0.87-0.82 1.58-2.4 1.56-3.5-0.02-1.1 1.33-3.57 2.99-5.5 1.66-1.93 3.02-3.95 3.02-4.5 0-0.55 2.86-3.81 6.36-7.25 4.42-4.36 7.12-6.25 8.89-6.25 1.4 0 3.21-0.68 4.04-1.5 0.82-0.82 2.09-1.49 2.82-1.48 0.73 0.01 2.22-0.65 3.32-1.47 1.54-1.15 5.25-1.49 16.25-1.52zm-13.4 28.01c-2.67 2.5-5.67 6.1-6.68 8-1 1.91-1.67 4.36-1.48 5.46 0.32 1.93 1.12 2 21.82 2h21.49c0.54-5.78 0.09-7.52-0.97-8.5-0.89-0.82-1.59-2.18-1.55-3 0.04-0.82-0.95-2.45-2.2-3.62-1.26-1.16-3.4-2.8-4.78-3.63-1.37-0.83-4.52-1.71-7-1.95-2.47-0.23-6.59-0.18-9.15 0.14-3.75 0.45-5.61 1.45-9.5 5.1z"/>
		<path id="Path 1" class="s1" d="m226.5 576.04c-4.4 0.48-23.12 1.23-41.6 1.66-22.53 0.54-34.05 1.18-35 1.94-0.87 0.71-7.49 1.27-17.6 1.5-11.2 0.25-16.58 0.75-17.45 1.61-0.86 0.86-5 1.25-13.3 1.26-8.81 0-12.86 0.41-15.05 1.53-1.94 0.99-5.82 1.52-11 1.53-5.09 0-8.91 0.52-10.5 1.43-1.55 0.89-5.53 1.46-10.5 1.51-4.4 0.04-9.8 0.73-12 1.52-2.2 0.79-7.37 1.44-11.5 1.44-5.07 0-8.15 0.48-9.5 1.48-1.1 0.82-3.35 1.5-5 1.51-1.65 0.01-4.8 0.95-7 2.08-2.2 1.14-4.79 3.39-5.75 5.01-0.96 1.62-1.75 4.86-1.74 7.2 0 2.4 0.76 5.35 1.75 6.78 0.96 1.39 2.64 3.53 3.74 4.76 1.1 1.23 2.56 2.22 3.25 2.22 0.69-0.01 1.25 0.44 1.25 0.99 0 0.59 3.67 1 9 1 5.33 0 9-0.41 9-1 0-0.56 2.83-1 6.5-1 4.43 0 6.74-0.43 7.25-1.35 0.48-0.87 3.62-1.59 8.75-2 4.4-0.35 8.45-1.04 9-1.52 0.55-0.48 4.38-1.13 8.5-1.44 4.13-0.31 7.93-1.05 8.45-1.63 0.52-0.58 3.75-1.06 7.18-1.06 4.2 0 6.71-0.49 7.73-1.5 1.1-1.1 3.78-1.5 10.07-1.5 5.37 0 9.97-0.57 12.32-1.52 2.47-1.01 7-1.52 13.29-1.5 7.32 0.01 9.87-0.34 11-1.52 1.14-1.21 3.78-1.55 11.96-1.54 7.28 0.01 11.27-0.43 13-1.42 1.81-1.04 6.22-1.45 16-1.49 7.43-0.03 15.3-0.56 17.5-1.17 2.2-0.61 13-1.47 24-1.9 11-0.44 22.47-1.24 25.5-1.79 3.14-0.58 25.85-1.02 53-1.05 34.66-0.03 51.29 0.35 61.5 1.41 7.7 0.8 22.1 1.47 32 1.5 12.11 0.04 19.96 0.54 24 1.51 3.3 0.8 10.05 1.48 15 1.51 4.95 0.03 11.02 0.55 13.5 1.14 2.48 0.6 10.35 1.42 17.5 1.83 7.15 0.41 15.25 1.31 18 2.01 4.72 1.19 5.18 1.13 8.27-1.12 1.83-1.34 3.27-3.27 3.26-4.39-0.01-1.1-1.03-2.89-2.27-3.97-1.24-1.09-4.51-2.76-7.26-3.72-2.78-0.97-8.1-1.77-12-1.81-4.11-0.04-8.03-0.66-9.5-1.5-1.65-0.95-5.71-1.45-12-1.5-6.29-0.05-10.35-0.55-12-1.5-1.55-0.89-5.34-1.43-10-1.43-4.73-0.01-8.61-0.57-10.5-1.53-2.2-1.12-6.21-1.52-15-1.52-8.34 0.01-12.4-0.37-13.31-1.25-0.88-0.86-6.71-1.49-18-1.96-9.18-0.37-19.39-1.12-22.69-1.66-3.3-0.54-16.57-1.04-29.5-1.11-12.93-0.07-26.87-0.54-31-1.04-4.12-0.5-18.07-1.11-31-1.36-12.93-0.25-27.1-0.07-31.5 0.4z"/>
		<path id="Path 2" fill-rule="evenodd" class="s0" d="m174.17 407.71c0.42 0.43 0.89 8.89 1.33 36.79l26 1 0.25 11.25c0.19 8.42-0.06 11.28-1 11.37-0.69 0.06-6.65 0.17-25.25 0.38l-0.26 25.5c-0.15 14.02-0.09 25.95 0.12 26.5 0.21 0.55 0.44 1.34 0.51 1.75 0.07 0.41 1.59 2.11 3.38 3.77 2.76 2.56 4.09 3.04 8.75 3.12 3.03 0.06 7.3 0.16 13.5 0.36l0.29 11c0.16 6.05 0.05 12.01-0.25 13.25-0.53 2.22-0.77 2.25-16.79 2.27-12.83 0.01-16.67-0.3-18.25-1.47-1.1-0.82-2.67-1.49-3.5-1.5-0.82 0-2.85-1.38-4.5-3.05-1.65-1.67-3.45-3.03-4-3.01-0.55 0.02-2.7-2.56-4.78-5.73-2.08-3.17-3.78-6.21-3.78-6.76 0.01-0.55-0.67-1.67-1.49-2.5-1.29-1.28-1.61-9.53-2.95-110.84l2.43-2.58c1.4-1.49 3.51-2.57 5-2.56 1.41 0.01 3.47-0.65 4.57-1.47 1.1-0.82 3.13-1.49 4.5-1.5 1.38-0.01 3.4-0.68 4.5-1.5 1.1-0.82 3.35-1.48 5-1.47 1.65 0 3.65-0.71 4.45-1.58 0.8-0.87 1.8-1.23 2.22-0.79zm303.33-0.33c0.62 0.19 1 7.32 1 37.12l28 1v22l-28 1 0.39 26c0.21 14.3 0.66 26.23 1.01 26.5 0.34 0.28 1.74 2.18 3.11 4.24 2.34 3.52 2.83 3.76 7.99 3.93 3.03 0.11 6.96 0.11 8.75 0.01 1.79-0.1 4.15 0.27 5.25 0.82 1.79 0.89 2 2 2 10.5 0 6.44-0.48 10.46-3 15.5l-16.25 0.04c-13.59 0.04-16.5-0.21-17.75-1.54-0.82-0.87-2.29-1.57-3.25-1.54-0.96 0.02-5.35-3.56-9.75-7.96-6.06-6.06-8.01-8.67-8.03-10.75-0.02-1.51-0.7-3.65-1.52-4.75-1.27-1.71-1.48-9.81-1.45-110.5l2.75-2.03c1.51-1.12 3.99-2.02 5.5-2 1.51 0.01 3.03-0.42 3.37-0.97 0.35-0.55 1.81-0.99 3.25-0.98 1.45 0.01 3.53-0.65 4.63-1.47 1.1-0.82 3.13-1.49 4.5-1.5 1.38-0.01 3.4-0.68 4.5-1.5 1.1-0.81 2.45-1.34 3-1.17zm-213.03 34.58c9.74-0.04 12.32 0.25 13.53 1.54 0.83 0.87 2.06 1.57 2.75 1.54 0.69-0.02 2.94 0.84 5 1.91 2.06 1.08 5.1 3.48 6.75 5.34 1.65 1.87 4.01 3.69 5.25 4.05 2.13 0.63 2.26 0.36 2.75-10.84l31.5-0.5 0.55 5.25c0.3 2.89 0.41 27.75-0.05 105.25h-32l-0.25-6.75c-0.14-3.71-0.7-6.75-1.25-6.75-0.55 0-2.69 1.81-4.75 4.01-2.06 2.21-4.42 3.99-5.25 3.96-0.82-0.03-2.17 0.66-3 1.53-0.82 0.87-2.17 1.58-3 1.57-0.82-0.01-2.17 0.65-3 1.48-1.19 1.19-4.46 1.49-16 1.48-11.48 0-14.81-0.32-16-1.49-0.82-0.82-2.17-1.48-3-1.47-0.82 0.01-2.17-0.7-3-1.57-0.82-0.87-2.17-1.57-3-1.56-0.82 0.02-4.3-2.77-7.71-6.2-3.42-3.43-6.21-6.91-6.21-7.74 0.01-0.83-0.71-2.17-1.58-3-0.87-0.83-1.57-2.29-1.54-3.25 0.02-0.96-0.63-2.42-1.46-3.25-0.82-0.83-1.48-2.74-1.46-4.25 0.03-1.51-0.67-3.42-1.54-4.25-1.33-1.26-1.58-4.15-1.51-18 0.06-12.35 0.44-17.13 1.51-19 0.79-1.37 1.46-3.62 1.5-5 0.03-1.37 0.73-3.4 1.55-4.5 0.82-1.1 1.5-2.67 1.51-3.5 0.01-0.82 1.35-2.96 2.98-4.75 1.63-1.79 2.96-3.7 2.96-4.25 0-0.55 1.69-2.58 3.75-4.5 2.06-1.93 4.54-3.73 5.5-4 0.96-0.28 1.75-0.95 1.75-1.5 0-0.55 0.87-1 1.93-1 1.06 0 2.6-0.67 3.43-1.5 0.82-0.82 2.31-1.5 3.29-1.5 0.99 0 2.47-0.67 3.3-1.5 1.16-1.16 4.21-1.51 13.52-1.54zm-1.97 27.42c-1.65 0.61-4.24 2.13-5.75 3.37-1.51 1.24-2.73 3.04-2.71 4 0.03 0.96-0.67 2.43-1.54 3.25-0.87 0.83-1.55 2.18-1.5 3 0.05 0.83-0.63 2.18-1.5 3-1.27 1.2-1.58 3.72-1.54 12.75 0.04 10.48 0.25 11.68 3.1 17.5 1.69 3.44 4.28 7.53 5.75 9.09 1.48 1.56 4.49 3.7 6.69 4.76 2.75 1.32 6.19 1.94 11 1.96 5.13 0.02 7.4-0.4 8.5-1.56 0.83-0.87 2.18-1.56 3-1.53 0.83 0.03 3.18-1.63 5.24-3.7 2.05-2.08 3.74-4.33 3.75-5.02 0-0.69 0.44-2.04 0.96-3 0.53-0.96 1.46-4.45 2.07-7.75 0.61-3.3 1.34-7.57 1.63-9.5 0.3-1.92 0.08-4.4-0.49-5.5-0.56-1.1-1.28-4.14-1.59-6.75-0.31-2.61-1.02-4.97-1.57-5.25-0.55-0.27-1-1.17-1-2 0-0.82-1.24-3.31-2.75-5.53-1.51-2.21-3.2-3.99-3.75-3.95-0.55 0.04-1.51-0.51-2.14-1.23-0.63-0.71-3.11-1.6-5.5-1.97-2.4-0.38-5.48-0.9-6.86-1.17-1.37-0.26-3.85-0.01-5.5 0.57-1.65 0.58-4.35 1.55-6 2.16zm166-26.88v28l-10.5 0.25c-7.65 0.18-10.91 0.65-12 1.72-0.82 0.81-1.95 1.48-2.5 1.47-0.55 0-2.24 0.91-3.75 2.03-1.51 1.11-3.99 4.62-8.25 13.53l-1 66h-31l-0.26-51c-0.22-43.91-0.47-51.49-1.83-54.5-1.06-2.36-1.24-3.75-0.54-4.28 0.57-0.43 7.7-0.65 30.63-0.22l0.5 7.16c0.28 3.94 0.85 7.54 1.28 8 0.43 0.46 0.76 0.28 0.75-0.41-0.02-0.69 0.87-1.25 1.97-1.25 1.23 0 2.01-0.67 2.01-1.75 0.01-0.96 1.66-3.44 3.66-5.5 2.01-2.06 4.14-3.73 4.74-3.71 0.6 0.03 1.65-0.65 2.34-1.5 0.69-0.84 2.04-1.52 3-1.5 0.96 0.03 2.38-0.66 3.15-1.53 1.1-1.25 3.11-1.53 17.6-1.01zm162.72-0.5c11.18 0 12.07 0.15 17.53 3.03 3.16 1.66 6.54 3.01 7.5 3 0.96-0.02 4.47 3.01 7.78 6.72 3.32 3.71 6 7.2 5.96 7.75-0.04 0.55 0.64 1.68 1.51 2.5 0.87 0.83 1.55 2.18 1.5 3-0.05 0.83 0.63 2.18 1.5 3 0.87 0.83 1.57 2.96 1.54 4.75-0.02 2.03 0.52 3.44 1.46 3.75 1.15 0.38 1.5 2.2 1.51 7.75 0.01 3.99 0.57 8.73 1.25 10.53 0.99 2.61 0.99 3.68-0.01 5.25-0.69 1.08-1.24 4.78-1.23 8.22 0.01 3.99-0.52 6.97-1.47 8.25-0.82 1.1-1.5 3.01-1.52 4.25-0.02 1.24-1.46 4.84-3.22 8-1.75 3.16-5.91 8.55-9.25 11.97-3.33 3.42-6.73 6.21-7.56 6.2-0.83 0-2.17 0.71-3 1.58-0.83 0.87-2.17 1.55-3 1.5-0.83-0.05-2.17 0.63-3 1.5-1.23 1.3-3.93 1.58-15 1.56-10.34-0.02-13.97-0.37-15.5-1.51-1.1-0.82-2.67-1.49-3.5-1.5-0.83-0.01-3.04-1.26-4.92-2.78-1.88-1.52-4.81-4.22-6.5-6-1.69-1.78-3.42-3.01-3.83-2.75-0.41 0.26-0.75 14.65-0.75 63.48l-31.5-0.5-0.29-64.5c-0.15-35.47-0.67-64.95-1.14-65.5-0.48-0.55-1.02-7.3-1.57-29l13.75-0.25c7.72-0.14 14.63 0.19 15.75 0.75 1.67 0.83 2 2 2 7 0 3.3 0.45 6.23 1 6.5 0.55 0.28 1.62-0.29 2.38-1.25 0.76-0.96 3.21-3.66 5.45-6 2.25-2.34 4.66-4.23 5.38-4.21 0.71 0.03 1.87-0.65 2.59-1.5 0.71-0.84 2.27-1.54 3.47-1.54 1.2 0 2.85-0.67 3.68-1.5 1.16-1.16 4.14-1.5 13.27-1.5zm-15.67 25.08c-0.52 0.5-1.88 0.92-3.03 0.92-1.17 0-4.33 2.28-7.29 5.25-2.86 2.89-5.19 5.93-5.18 6.75 0.02 0.83-0.68 2.18-1.55 3-1.31 1.24-1.59 4.05-1.59 16 0 11.95 0.28 14.76 1.59 16 0.87 0.83 1.55 2.17 1.5 3-0.05 0.83 0.63 2.17 1.5 3 0.87 0.83 1.56 1.95 1.52 2.5-0.04 0.55 0.95 2 2.2 3.23 1.26 1.22 2.95 2.23 3.78 2.23 0.83 0 2.4 0.67 3.5 1.49 1.35 1.01 4.59 1.51 10 1.56 6.09 0.06 8.36-0.3 9.5-1.51 0.83-0.87 2.06-1.57 2.75-1.54 0.69 0.02 3.03-2.1 5.21-4.71 2.17-2.61 3.95-5.42 3.95-6.25 0-0.83 0.72-2.17 1.59-3 1.31-1.23 1.58-3.89 1.51-15-0.06-10.28-0.43-13.98-1.56-15.5-0.82-1.1-1.47-2.9-1.46-4 0.02-1.11-2.31-4.34-5.23-7.24-3.46-3.45-6.11-5.25-7.76-5.28-1.37-0.02-3.4-0.71-4.5-1.53-1.1-0.82-2.45-1.41-3-1.32-0.55 0.09-2.35 0.36-4 0.6-1.65 0.23-3.43 0.84-3.95 1.35zm125.67-25.08c7.49 0 11.62 0.44 13.53 1.45 1.51 0.8 4.78 2.36 7.25 3.46 2.48 1.1 6.08 3.61 8 5.57 1.92 1.95 3.84 3.55 4.25 3.54 0.41-0.01 0.86-2.38 1.25-10.52h32v110l-13.5 0.29c-7.42 0.16-14.51 0.04-15.75-0.25-1.95-0.47-2.25-1.18-2.23-5.29 0.01-2.66-0.64-5.63-1.47-6.75-0.82-1.1-1.5-1.44-1.52-0.75-0.02 0.69-1.49 2.6-3.28 4.26-1.79 1.65-3.81 3-4.5 3-0.69-0.01-1.47 0.66-1.75 1.49-0.27 0.83-1.62 1.5-3 1.5-1.37 0-2.72 0.67-3 1.5-0.37 1.11-2.06 1.5-6.5 1.5-3.3 0-7.13 0.56-8.51 1.25-2.02 1-2.76 1-3.75-0.02-0.72-0.73-3.54-1.24-6.74-1.2-3.79 0.04-5.97-0.43-7-1.53-0.83-0.87-2.17-1.56-3-1.52-0.83 0.04-3.52-1.35-6-3.1-2.47-1.74-6.89-5.69-9.8-8.78-2.92-3.08-6.41-7.74-7.75-10.35-1.35-2.61-2.44-5.54-2.43-6.5 0.01-0.96-0.67-3.1-1.51-4.75-1.19-2.32-1.56-6.83-1.64-20-0.07-13.27 0.24-17.77 1.44-20.5 0.85-1.92 1.79-4.85 2.1-6.5 0.3-1.65 1.69-4.24 3.07-5.75 1.39-1.51 2.52-3.42 2.52-4.25 0-0.82 3.03-4.42 6.73-8 3.71-3.57 7.42-6.49 8.25-6.48 0.84 0.01 2.42-0.65 3.52-1.47 1.1-0.82 3.11-1.5 4.47-1.52 1.37-0.02 3.15-0.7 3.98-1.53 1.15-1.15 4.03-1.5 12.27-1.5zm2.18 25.98c-1.71 0.01-4.23 0.81-5.6 1.77-1.37 0.96-3.16 2.43-3.96 3.25-0.8 0.83-2.56 3.75-3.9 6.5-1.34 2.75-2.78 5.23-3.2 5.5-0.42 0.28-0.77 7.03-0.77 15-0.01 8.05 0.4 14.72 0.92 15 0.52 0.28 1.2 1.74 1.53 3.25 0.32 1.51 1.03 2.75 1.58 2.75 0.55 0 1.31 1.01 1.68 2.25 0.38 1.24 1.39 2.96 2.25 3.83 0.87 0.86 3.03 1.88 4.82 2.25 1.79 0.37 3.48 1.12 3.75 1.67 0.28 0.55 4.1 1 8.5 1 4.85 0 8.65-0.49 9.66-1.25 0.91-0.69 3.51-3.05 5.77-5.25 2.26-2.2 5.11-6.02 6.33-8.5 1.95-3.97 2.22-6.14 2.27-18.5 0.05-11.55-0.22-14.26-1.53-15.5-0.87-0.82-1.56-2.17-1.53-3 0.03-0.82-2.09-3.62-4.71-6.2-3.75-3.72-6.03-5.04-10.76-6.26-3.3-0.85-6.22-1.54-6.5-1.53-0.27 0.01-1.17 0.46-2 0.99-0.83 0.53-2.9 0.98-4.6 0.98zm129.96-26c9.19-0.01 12.63 0.35 14.14 1.47 1.1 0.82 2.9 1.48 4 1.47 1.1 0 2.67 0.71 3.5 1.58 0.83 0.87 2.17 1.55 3 1.5 0.83-0.04 3.41 1.96 5.75 4.46 2.34 2.5 4.48 4.54 4.75 4.54 0.27 0 0.61-2.59 1-11.5h32l0.23 60.5c0.21 52.09 0.03 60.81-1.25 62.75-0.81 1.24-1.48 3.15-1.48 4.25 0 1.1-1.35 4.03-3 6.5-1.65 2.48-3.01 4.84-3.01 5.25-0.01 0.41-1.92 2.67-4.25 5.01-2.33 2.35-4.69 4.24-5.24 4.21-0.55-0.03-1.67 0.66-2.5 1.53-0.83 0.87-2.29 1.57-3.25 1.54-0.96-0.02-1.75 0.41-1.75 0.96 0 0.55-1.24 1.29-2.75 1.65-1.51 0.36-3.07 1.15-3.47 1.75-0.39 0.61-3.54 1.48-7 1.95-3.45 0.47-12.58 1.05-20.28 1.3-7.98 0.25-14.86 0.03-16-0.52-1.1-0.54-4.25-1.24-7-1.58-2.75-0.33-5.45-1.05-6-1.59-0.55-0.55-2.35-0.97-4-0.93-1.65 0.03-3.67-0.66-4.5-1.53-0.83-0.87-2.17-1.56-3-1.52-0.83 0.04-2.62-1.05-4-2.42-2.43-2.43-2.45-2.56-0.75-5.03 1.1-1.58 1.75-4.4 1.75-7.53 0-3.17 0.73-6.28 2-8.5 1.28-2.24 2.54-3.32 3.5-3 0.83 0.28 1.5 0.95 1.5 1.5 0 0.55 1.01 0.99 2.25 0.98 1.24-0.01 3.15 0.65 4.25 1.47 1.1 0.82 2.79 1.5 3.75 1.52 0.96 0.02 3.1 0.7 4.75 1.53 2.22 1.11 6.99 1.55 33.5 1.86l4-3.03c2.2-1.66 5.42-4.78 7.16-6.93 3.09-3.82 3.17-4.18 3.91-17.9 0.63-11.6 0.52-14.15-0.65-14.86-1.02-0.63-2.95 0.7-6.92 4.74-3.02 3.08-6.17 5.59-7 5.57-0.83-0.02-2.17 0.68-3 1.55-0.83 0.87-2.85 1.55-4.5 1.5-1.65-0.05-3.67 0.63-4.5 1.5-1.05 1.12-3.29 1.58-7.5 1.56-3.7-0.02-6.77-0.59-8-1.51-1.1-0.82-3.91-1.5-6.25-1.52-2.87-0.02-4.41-0.52-4.75-1.53-0.27-0.83-1.62-1.5-3-1.5-1.37 0-2.5-0.45-2.5-1 0-0.55-1.01-1.23-2.25-1.5-1.24-0.28-4.96-3.32-8.28-6.75-3.31-3.44-6.57-7.37-7.24-8.75-0.67-1.37-1.62-3.17-2.11-4-0.49-0.83-1.34-2.62-1.88-4-0.55-1.37-1.57-4.97-2.26-8-0.7-3.02-1.43-10.79-1.63-17.25-0.29-9.69-0.08-11.97 1.19-13 0.85-0.69 1.51-2.6 1.46-4.25-0.05-1.65 0.63-3.67 1.5-4.5 0.87-0.82 1.57-2.85 1.56-4.5-0.03-2.14 1.06-4.15 3.78-7 2.11-2.2 4.35-5.01 4.99-6.25 0.65-1.24 1.73-2.24 2.42-2.22 0.69 0.02 2.15-0.94 3.25-2.13 1.1-1.19 3.69-3.23 5.75-4.53 2.06-1.3 4.54-2.35 5.5-2.33 0.96 0.03 2.36-0.65 3.11-1.5 1.09-1.23 3.83-1.54 13.5-1.56zm1.96 26c-1.2 0.01-2.85 0.7-3.68 1.52-0.82 0.83-1.87 1.49-2.32 1.47-0.45-0.02-1.94 0.93-3.32 2.11-1.37 1.18-3.04 3.1-3.71 4.28-0.67 1.18-1.4 2.59-1.63 3.14-0.22 0.55-0.95 3.48-1.61 6.5-0.66 3.03-1.45 7.3-1.77 9.5-0.39 2.81-0.07 4.74 1.09 6.5 0.9 1.38 1.64 3.74 1.64 5.25-0.01 1.51 0.75 3.99 1.67 5.5 0.92 1.51 3.06 4.24 4.75 6.07 1.69 1.82 4.65 4.07 6.57 5 2.56 1.23 5.77 1.63 12 1.49 4.67-0.1 8.93-0.66 9.45-1.25 0.52-0.58 1.76-1.06 2.75-1.06 0.99 0 2.93-1.35 4.3-3 1.38-1.65 2.5-3.67 2.5-4.5 0-0.83 0.45-1.5 1-1.5 0.55 0 1.23-1.12 1.5-2.5 0.27-1.37 0.95-2.5 1.5-2.5 0.62 0 1-5 1-13 0-10.48-0.34-13.63-1.75-16.23-0.96-1.78-3.81-5.26-6.33-7.75-2.62-2.6-6.03-4.87-8-5.34-1.88-0.45-5.44-1.03-7.92-1.28-2.48-0.25-5.17 0-6 0.55-0.83 0.56-2.48 1.03-3.68 1.03z"/>
	</g>
</svg>