<svg width="24" height="24" viewBox="0 0 24 24" fill="none" xmlns="http://www.w3.org/2000/svg">
<path d="M19.4571 21C20.4714 21 21.2321 20.7474 21.7393 20.2423C22.2464 19.7372 22.5 18.9794 22.5 17.9691V6.03097C22.5 5.02065 22.2464 4.2629 21.7393 3.75774C21.2321 3.25258 20.4714 3 19.4571 3H11.0358C10.6546 3 10.2944 3.03585 9.95524 3.10755C9.61606 3.17925 9.29304 3.29984 8.98616 3.46931C8.67929 3.63879 8.39341 3.86366 8.12852 4.14395L2.42063 10.1277C2.20743 10.3428 2.033 10.5546 1.89732 10.7632C1.76165 10.9718 1.66151 11.1755 1.59691 11.3743C1.5323 11.5731 1.5 11.7768 1.5 11.9854C1.5 12.2852 1.5743 12.5867 1.72289 12.8898C1.87148 13.1929 2.10406 13.5106 2.42063 13.843L8.13821 19.7975C8.40309 20.0777 8.68897 20.3059 8.99585 20.4819C9.30273 20.6578 9.62575 20.7865 9.96493 20.868C10.3041 20.9495 10.6643 20.9903 11.0455 20.9903L19.4571 21ZM19.4377 19.4259H11.0164C10.6481 19.4259 10.3348 19.3738 10.0764 19.2694C9.81795 19.1652 9.56276 18.9827 9.3108 18.722L3.63198 12.8067C3.47047 12.6372 3.35902 12.4889 3.29764 12.3618C3.23627 12.2347 3.20558 12.1092 3.20558 11.9854C3.20558 11.7442 3.34772 11.4672 3.63198 11.1543L9.30111 5.21945C9.55307 4.95872 9.80988 4.78599 10.0715 4.70125C10.3332 4.61652 10.6449 4.57415 11.0067 4.57415H19.4377C19.9223 4.57415 20.2937 4.70289 20.5521 4.96035C20.8105 5.21782 20.9397 5.60077 20.9397 6.10919V17.8909C20.9397 18.3993 20.8105 18.7822 20.5521 19.0397C20.2937 19.2972 19.9223 19.4259 19.4377 19.4259ZM10.4737 16.131C10.6998 16.131 10.8872 16.0495 11.0358 15.8865L13.7782 13.1098L16.5401 15.8865C16.6952 16.0495 16.8793 16.131 17.0925 16.131C17.3058 16.131 17.4883 16.0527 17.64 15.8963C17.7918 15.7398 17.8678 15.5541 17.8678 15.339C17.8678 15.1239 17.7903 14.9381 17.6353 14.7817L14.883 12.0049L17.6449 9.2086C17.7999 9.05216 17.8775 8.86965 17.8775 8.66107C17.8775 8.44597 17.8016 8.26183 17.6497 8.10865C17.4979 7.95547 17.3154 7.87889 17.1023 7.87889C16.9019 7.87889 16.7242 7.96036 16.5692 8.12332L13.7782 10.9099L11.0164 8.13309C10.8743 7.97666 10.6934 7.89844 10.4737 7.89844C10.2605 7.89844 10.078 7.9734 9.92617 8.12332C9.77435 8.27324 9.69844 8.45575 9.69844 8.67084C9.69844 8.88595 9.77596 9.06846 9.93101 9.21838L12.6832 12.0049L9.93101 14.7915C9.77596 14.9414 9.69844 15.1239 9.69844 15.339C9.69844 15.5541 9.77435 15.7398 9.92617 15.8963C10.078 16.0527 10.2605 16.131 10.4737 16.131Z" fill="#FF3B30"/>
</svg>
