<svg width="24" height="24" viewBox="0 0 24 24" fill="none" xmlns="http://www.w3.org/2000/svg">
<path fill-rule="evenodd" clip-rule="evenodd" d="M21.7393 20.2423C21.2321 20.7474 20.4714 21 19.4571 21L11.0455 20.9903C10.6643 20.9903 10.3041 20.9495 9.96493 20.868C9.62575 20.7865 9.30273 20.6578 8.99585 20.4819C8.68897 20.3059 8.40309 20.0777 8.13821 19.7975L2.42063 13.843C2.10406 13.5106 1.87148 13.1929 1.72289 12.8898C1.5743 12.5867 1.5 12.2852 1.5 11.9854C1.5 11.7768 1.5323 11.5731 1.59691 11.3743C1.66151 11.1755 1.76165 10.9718 1.89732 10.7632C2.033 10.5546 2.20743 10.3428 2.42063 10.1277L8.12852 4.14395C8.39341 3.86366 8.67929 3.63879 8.98616 3.46931C9.29304 3.29984 9.61606 3.17925 9.95524 3.10755C10.2944 3.03585 10.6546 3 11.0358 3H19.4571C20.4714 3 21.2321 3.25258 21.7393 3.75774C22.2464 4.2629 22.5 5.02065 22.5 6.03097V17.9691C22.5 18.9794 22.2464 19.7372 21.7393 20.2423ZM9.94335 15.8662C10.0996 16.0257 10.2884 16.1055 10.5098 16.1055C10.7441 16.1055 10.9427 16.0274 11.1055 15.8711L13.8007 13.1562L16.5058 15.8711C16.6556 16.0274 16.8476 16.1055 17.082 16.1055C17.3099 16.1055 17.502 16.0257 17.6582 15.8662C17.8144 15.7067 17.8925 15.5163 17.8925 15.2949C17.8925 15.054 17.8144 14.862 17.6582 14.7188L14.9433 12.0137L17.6679 9.29883C17.8242 9.13607 17.9023 8.94401 17.9023 8.72266C17.9023 8.5013 17.8242 8.3125 17.6679 8.15625C17.5117 8 17.3229 7.92188 17.1015 7.92188C16.8867 7.92188 16.7012 8 16.5449 8.15625L13.8007 10.8809L11.0762 8.16602C10.9134 8.01628 10.7246 7.94141 10.5098 7.94141C10.2884 7.94141 10.0996 8.01791 9.94335 8.1709C9.78711 8.32389 9.70898 8.51432 9.70898 8.74219C9.70898 8.95703 9.78711 9.14583 9.94335 9.30859L12.6582 12.0137L9.94335 14.7285C9.78711 14.8848 9.70898 15.0736 9.70898 15.2949C9.70898 15.5163 9.78711 15.7067 9.94335 15.8662Z" fill="#FF3B30"/>
</svg>
