<svg width="24" height="24" viewBox="0 0 24 24" fill="none" xmlns="http://www.w3.org/2000/svg">
<path d="M12 21.451C12.6798 21.451 13.3186 21.2157 13.9166 20.7451C14.5147 20.2745 15.0409 19.6144 15.4951 18.7647C15.9493 17.915 16.3055 16.9166 16.5637 15.7696C16.8219 14.6226 16.951 13.3726 16.951 12.0196C16.951 10.6667 16.8235 9.41339 16.5686 8.25979C16.3137 7.1062 15.9591 6.10294 15.5048 5.24999C15.0506 4.39705 14.5245 3.73529 13.9265 3.26471C13.3284 2.79412 12.6862 2.55882 12 2.55882C11.3137 2.55882 10.6716 2.79412 10.0735 3.26471C9.47548 3.73529 8.95097 4.39705 8.49999 5.24999C8.04901 6.10294 7.69444 7.1062 7.43627 8.25979C7.1781 9.41339 7.04902 10.6667 7.04902 12.0196C7.04902 13.3726 7.1781 14.6226 7.43627 15.7696C7.69444 16.9166 8.05064 17.915 8.50489 18.7647C8.95914 19.6144 9.48528 20.2745 10.0833 20.7451C10.6814 21.2157 11.3202 21.451 12 21.451ZM12 3.74509C12.4771 3.74509 12.9346 3.96568 13.3725 4.40686C13.8104 4.84803 14.1993 5.45098 14.5392 6.21568C14.879 6.98039 15.147 7.8611 15.3431 8.85783C15.5392 9.85456 15.6373 10.9085 15.6373 12.0196C15.6373 13.1176 15.5392 14.1601 15.3431 15.147C15.147 16.134 14.879 17.0114 14.5392 17.7794C14.1993 18.5474 13.8104 19.1519 13.3725 19.5931C12.9346 20.0343 12.4771 20.2549 12 20.2549C11.5229 20.2549 11.0654 20.0343 10.6274 19.5931C10.1895 19.1519 9.80064 18.5474 9.46077 17.7794C9.12091 17.0114 8.85293 16.134 8.65686 15.147C8.46078 14.1601 8.36274 13.1176 8.36274 12.0196C8.36274 10.9085 8.46078 9.85456 8.65686 8.85783C8.85293 7.8611 9.12091 6.98039 9.46077 6.21568C9.80064 5.45098 10.1895 4.84803 10.6274 4.40686C11.0654 3.96568 11.5229 3.74509 12 3.74509ZM11.3627 2.69608V21.2647H12.6471V2.69608H11.3627ZM12 15.6862C10.9935 15.6862 10.0392 15.7696 9.13725 15.9362C8.23529 16.1029 7.4232 16.3415 6.70098 16.6519C5.97876 16.9624 5.38889 17.3268 4.93137 17.7451L5.92156 18.5588C6.35293 18.2189 6.87091 17.9297 7.47548 17.6912C8.08006 17.4526 8.76306 17.2728 9.5245 17.152C10.2859 17.031 11.1111 16.9706 12 16.9706C12.8889 16.9706 13.7141 17.031 14.4755 17.152C15.237 17.2728 15.92 17.4526 16.5245 17.6912C17.1291 17.9297 17.647 18.2189 18.0784 18.5588L19.0687 17.7451C18.6111 17.3268 18.0213 16.9624 17.299 16.6519C16.5768 16.3415 15.7647 16.1029 14.8627 15.9362C13.9607 15.7696 13.0065 15.6862 12 15.6862ZM21.049 11.3529H2.95098V12.6372H21.049V11.3529ZM12 8.36274C13.0065 8.36274 13.9607 8.2794 14.8627 8.11274C15.7647 7.94607 16.5768 7.70751 17.299 7.39706C18.0213 7.0866 18.6111 6.72222 19.0687 6.30392L18.0784 5.49019C17.647 5.83006 17.1291 6.11928 16.5245 6.35784C15.92 6.5964 15.237 6.77614 14.4755 6.89705C13.7141 7.01797 12.8889 7.07842 12 7.07842C11.1111 7.07842 10.2859 7.01797 9.5245 6.89705C8.76306 6.77614 8.08006 6.5964 7.47548 6.35784C6.87091 6.11928 6.35293 5.83006 5.92156 5.49019L4.93137 6.30392C5.38889 6.72222 5.97876 7.0866 6.70098 7.39706C7.4232 7.70751 8.23529 7.94607 9.13725 8.11274C10.0392 8.2794 10.9935 8.36274 12 8.36274ZM12 22C13.366 22 14.652 21.7385 15.8578 21.2156C17.0637 20.6928 18.1274 19.9706 19.049 19.049C19.9706 18.1274 20.6928 17.0637 21.2156 15.8578C21.7385 14.652 22 13.366 22 12C22 10.634 21.7385 9.34803 21.2156 8.14214C20.6928 6.93627 19.9706 5.87255 19.049 4.95097C18.1274 4.02941 17.0621 3.30719 15.8529 2.78431C14.6438 2.26144 13.3562 2 11.9902 2C10.6242 2 9.33823 2.26144 8.13235 2.78431C6.92646 3.30719 5.86437 4.02941 4.94607 4.95097C4.02778 5.87255 3.30719 6.93627 2.78431 8.14214C2.26144 9.34803 2 10.634 2 12C2 13.366 2.26144 14.652 2.78431 15.8578C3.30719 17.0637 4.02941 18.1274 4.95097 19.049C5.87255 19.9706 6.93627 20.6928 8.14214 21.2156C9.34803 21.7385 10.634 22 12 22ZM12 20.6667C10.817 20.6667 9.70261 20.4395 8.65686 19.9852C7.6111 19.531 6.68954 18.9052 5.89215 18.1078C5.09477 17.3104 4.46895 16.3889 4.01471 15.3431C3.56045 14.2974 3.33333 13.183 3.33333 12C3.33333 10.817 3.56045 9.70261 4.01471 8.65686C4.46895 7.6111 5.09314 6.68954 5.88725 5.89215C6.68136 5.09477 7.6013 4.46895 8.64705 4.01471C9.6928 3.56045 10.8072 3.33333 11.9902 3.33333C13.1732 3.33333 14.2876 3.56045 15.3333 4.01471C16.3791 4.46895 17.3023 5.09477 18.1029 5.89215C18.9035 6.68954 19.531 7.6111 19.9852 8.65686C20.4395 9.70261 20.6667 10.817 20.6667 12C20.6667 13.183 20.4395 14.2974 19.9852 15.3431C19.531 16.3889 18.9052 17.3104 18.1078 18.1078C17.3104 18.9052 16.3889 19.531 15.3431 19.9852C14.2974 20.4395 13.183 20.6667 12 20.6667Z" fill="black" fill-opacity="0.8"/>
</svg>
