<svg width="24" height="24" viewBox="0 0 24 24" fill="none" xmlns="http://www.w3.org/2000/svg">
<path d="M2.99404 19.5H21.006C21.9976 19.5 22.7445 19.2532 23.2467 18.7595C23.7489 18.2658 24 17.5316 24 16.5569V7.43354C24 6.45886 23.7489 5.72626 23.2467 5.23576C22.7445 4.74525 21.9976 4.5 21.006 4.5H2.99404C1.99602 4.5 1.24751 4.74525 0.74851 5.23576C0.249503 5.72626 0 6.45886 0 7.43354V16.5569C0 17.5379 0.249503 18.2737 0.74851 18.7643C1.24751 19.2548 1.99602 19.5 2.99404 19.5ZM3.61382 9.72151C3.32777 9.72151 3.18474 9.57594 3.18474 9.28481V8.38291C3.18474 8.09177 3.32777 7.9462 3.61382 7.9462H4.51967C4.81843 7.9462 4.96781 8.09177 4.96781 8.38291V9.28481C4.96781 9.57594 4.81843 9.72151 4.51967 9.72151H3.61382ZM6.77949 9.72151C6.48708 9.72151 6.34088 9.57594 6.34088 9.28481V8.38291C6.34088 8.09177 6.48708 7.9462 6.77949 7.9462H7.68533C7.97774 7.9462 8.12395 8.09177 8.12395 8.38291V9.28481C8.12395 9.57594 7.97774 9.72151 7.68533 9.72151H6.77949ZM9.94512 9.72151C9.65274 9.72151 9.50655 9.57594 9.50655 9.28481V8.38291C9.50655 8.09177 9.65274 7.9462 9.94512 7.9462H10.8415C11.1402 7.9462 11.2896 8.09177 11.2896 8.38291V9.28481C11.2896 9.57594 11.1402 9.72151 10.8415 9.72151H9.94512ZM13.1108 9.72151C12.8184 9.72151 12.6722 9.57594 12.6722 9.28481V8.38291C12.6722 8.09177 12.8184 7.9462 13.1108 7.9462H14.0167C14.3091 7.9462 14.4553 8.09177 14.4553 8.38291V9.28481C14.4553 9.57594 14.3091 9.72151 14.0167 9.72151H13.1108ZM16.2765 9.72151C15.9777 9.72151 15.8283 9.57594 15.8283 9.28481V8.38291C15.8283 8.09177 15.9777 7.9462 16.2765 7.9462H17.1824C17.4684 7.9462 17.6114 8.09177 17.6114 8.38291V9.28481C17.6114 9.57594 17.4684 9.72151 17.1824 9.72151H16.2765ZM19.4422 9.72151C19.1434 9.72151 18.994 9.57594 18.994 9.28481V8.38291C18.994 8.09177 19.1434 7.9462 19.4422 7.9462H20.3385C20.6309 7.9462 20.7771 8.09177 20.7771 8.38291V9.28481C20.7771 9.57594 20.6309 9.72151 20.3385 9.72151H19.4422ZM3.61382 12.8734C3.32777 12.8734 3.18474 12.7278 3.18474 12.4367V11.5348C3.18474 11.2437 3.32777 11.0981 3.61382 11.0981H4.51967C4.81843 11.0981 4.96781 11.2437 4.96781 11.5348V12.4367C4.96781 12.7278 4.81843 12.8734 4.51967 12.8734H3.61382ZM6.77949 12.8734C6.48708 12.8734 6.34088 12.7278 6.34088 12.4367V11.5348C6.34088 11.2437 6.48708 11.0981 6.77949 11.0981H7.68533C7.97774 11.0981 8.12395 11.2437 8.12395 11.5348V12.4367C8.12395 12.7278 7.97774 12.8734 7.68533 12.8734H6.77949ZM9.94512 12.8734C9.65274 12.8734 9.50655 12.7278 9.50655 12.4367V11.5348C9.50655 11.2437 9.65274 11.0981 9.94512 11.0981H10.8415C11.1402 11.0981 11.2896 11.2437 11.2896 11.5348V12.4367C11.2896 12.7278 11.1402 12.8734 10.8415 12.8734H9.94512ZM13.1108 12.8734C12.8184 12.8734 12.6722 12.7278 12.6722 12.4367V11.5348C12.6722 11.2437 12.8184 11.0981 13.1108 11.0981H14.0167C14.3091 11.0981 14.4553 11.2437 14.4553 11.5348V12.4367C14.4553 12.7278 14.3091 12.8734 14.0167 12.8734H13.1108ZM16.2765 12.8734C15.9777 12.8734 15.8283 12.7278 15.8283 12.4367V11.5348C15.8283 11.2437 15.9777 11.0981 16.2765 11.0981H17.1824C17.4684 11.0981 17.6114 11.2437 17.6114 11.5348V12.4367C17.6114 12.7278 17.4684 12.8734 17.1824 12.8734H16.2765ZM19.4422 12.8734C19.1434 12.8734 18.994 12.7278 18.994 12.4367V11.5348C18.994 11.2437 19.1434 11.0981 19.4422 11.0981H20.3385C20.6309 11.0981 20.7771 11.2437 20.7771 11.5348V12.4367C20.7771 12.7278 20.6309 12.8734 20.3385 12.8734H19.4422ZM3.61382 16.0253C3.32777 16.0253 3.18474 15.8797 3.18474 15.5886V14.6867C3.18474 14.3956 3.32777 14.25 3.61382 14.25H4.51967C4.81843 14.25 4.96781 14.3956 4.96781 14.6867V15.5886C4.96781 15.8797 4.81843 16.0253 4.51967 16.0253H3.61382ZM6.88438 16.0253C6.52204 16.0253 6.34088 15.8449 6.34088 15.4841V14.7817C6.34088 14.4272 6.52204 14.25 6.88438 14.25H17.0774C17.4334 14.25 17.6114 14.4272 17.6114 14.7817V15.4841C17.6114 15.8449 17.4334 16.0253 17.0774 16.0253H6.88438ZM19.4422 16.0253C19.1434 16.0253 18.994 15.8797 18.994 15.5886V14.6867C18.994 14.3956 19.1434 14.25 19.4422 14.25H20.3385C20.6309 14.25 20.7771 14.3956 20.7771 14.6867V15.5886C20.7771 15.8797 20.6309 16.0253 20.3385 16.0253H19.4422Z" fill="black" fill-opacity="0.8"/>
</svg>
