<svg width="24" height="24" viewBox="0 0 24 24" fill="none" xmlns="http://www.w3.org/2000/svg">
<path d="M2.99404 19.5H21.006C21.9976 19.5 22.7445 19.2532 23.2467 18.7595C23.7489 18.2658 24 17.5316 24 16.5569V7.43354C24 6.45886 23.7489 5.72626 23.2467 5.23576C22.7445 4.74525 21.9976 4.5 21.006 4.5H2.99404C1.99602 4.5 1.24751 4.74525 0.74851 5.23576C0.249503 5.72626 0 6.45886 0 7.43354V16.5569C0 17.5379 0.249503 18.2737 0.74851 18.7643C1.24751 19.2548 1.99602 19.5 2.99404 19.5ZM3.01311 17.9715C2.53635 17.9715 2.17084 17.8449 1.91657 17.5918C1.6623 17.3386 1.53516 16.9652 1.53516 16.4716V7.51899C1.53516 7.02531 1.6623 6.65348 1.91657 6.40348C2.17084 6.15348 2.53635 6.02848 3.01311 6.02848H20.9774C21.4477 6.02848 21.8132 6.15348 22.0739 6.40348C22.3345 6.65348 22.4648 7.02531 22.4648 7.51899V16.4716C22.4648 16.9652 22.3345 17.3386 22.0739 17.5918C21.8132 17.8449 21.4477 17.9715 20.9774 17.9715H3.01311ZM3.87127 9.78797H4.7485C5.03456 9.78797 5.17758 9.64873 5.17758 9.37025V8.49683C5.17758 8.21203 5.03456 8.06962 4.7485 8.06962H3.87127C3.59158 8.06962 3.45173 8.21203 3.45173 8.49683V9.37025C3.45173 9.64873 3.59158 9.78797 3.87127 9.78797ZM6.9416 9.78797H7.81882C8.09852 9.78797 8.23837 9.64873 8.23837 9.37025V8.49683C8.23837 8.21203 8.09852 8.06962 7.81882 8.06962H6.9416C6.65554 8.06962 6.51251 8.21203 6.51251 8.49683V9.37025C6.51251 9.64873 6.65554 9.78797 6.9416 9.78797ZM10.0119 9.78797H10.8796C11.1657 9.78797 11.3087 9.64873 11.3087 9.37025V8.49683C11.3087 8.21203 11.1657 8.06962 10.8796 8.06962H10.0119C9.72585 8.06962 9.58283 8.21203 9.58283 8.49683V9.37025C9.58283 9.64873 9.72585 9.78797 10.0119 9.78797ZM13.0727 9.78797H13.9499C14.236 9.78797 14.379 9.64873 14.379 9.37025V8.49683C14.379 8.21203 14.236 8.06962 13.9499 8.06962H13.0727C12.793 8.06962 12.6532 8.21203 12.6532 8.49683V9.37025C12.6532 9.64873 12.793 9.78797 13.0727 9.78797ZM16.143 9.78797H17.0202C17.2999 9.78797 17.4398 9.64873 17.4398 9.37025V8.49683C17.4398 8.21203 17.2999 8.06962 17.0202 8.06962H16.143C15.857 8.06962 15.714 8.21203 15.714 8.49683V9.37025C15.714 9.64873 15.857 9.78797 16.143 9.78797ZM19.2133 9.78797H20.081C20.3671 9.78797 20.5102 9.64873 20.5102 9.37025V8.49683C20.5102 8.21203 20.3671 8.06962 20.081 8.06962H19.2133C18.9273 8.06962 18.7843 8.21203 18.7843 8.49683V9.37025C18.7843 9.64873 18.9273 9.78797 19.2133 9.78797ZM3.87127 12.8449H4.7485C5.03456 12.8449 5.17758 12.7025 5.17758 12.4177V11.5538C5.17758 11.269 5.03456 11.1266 4.7485 11.1266H3.87127C3.59158 11.1266 3.45173 11.269 3.45173 11.5538V12.4177C3.45173 12.7025 3.59158 12.8449 3.87127 12.8449ZM6.9416 12.8449H7.81882C8.09852 12.8449 8.23837 12.7025 8.23837 12.4177V11.5538C8.23837 11.269 8.09852 11.1266 7.81882 11.1266H6.9416C6.65554 11.1266 6.51251 11.269 6.51251 11.5538V12.4177C6.51251 12.7025 6.65554 12.8449 6.9416 12.8449ZM10.0119 12.8449H10.8796C11.1657 12.8449 11.3087 12.7025 11.3087 12.4177V11.5538C11.3087 11.269 11.1657 11.1266 10.8796 11.1266H10.0119C9.72585 11.1266 9.58283 11.269 9.58283 11.5538V12.4177C9.58283 12.7025 9.72585 12.8449 10.0119 12.8449ZM13.0727 12.8449H13.9499C14.236 12.8449 14.379 12.7025 14.379 12.4177V11.5538C14.379 11.269 14.236 11.1266 13.9499 11.1266H13.0727C12.793 11.1266 12.6532 11.269 12.6532 11.5538V12.4177C12.6532 12.7025 12.793 12.8449 13.0727 12.8449ZM16.143 12.8449H17.0202C17.2999 12.8449 17.4398 12.7025 17.4398 12.4177V11.5538C17.4398 11.269 17.2999 11.1266 17.0202 11.1266H16.143C15.857 11.1266 15.714 11.269 15.714 11.5538V12.4177C15.714 12.7025 15.857 12.8449 16.143 12.8449ZM19.2133 12.8449H20.081C20.3671 12.8449 20.5102 12.7025 20.5102 12.4177V11.5538C20.5102 11.269 20.3671 11.1266 20.081 11.1266H19.2133C18.9273 11.1266 18.7843 11.269 18.7843 11.5538V12.4177C18.7843 12.7025 18.9273 12.8449 19.2133 12.8449ZM3.87127 15.9019H4.7485C5.03456 15.9019 5.17758 15.7595 5.17758 15.4747V14.6012C5.17758 14.3228 5.03456 14.1835 4.7485 14.1835H3.87127C3.59158 14.1835 3.45173 14.3228 3.45173 14.6012V15.4747C3.45173 15.7595 3.59158 15.9019 3.87127 15.9019ZM7.03694 15.9019H16.9249C17.2681 15.9019 17.4398 15.7278 17.4398 15.3797V14.6962C17.4398 14.3544 17.2681 14.1835 16.9249 14.1835H7.03694C6.68732 14.1835 6.51251 14.3544 6.51251 14.6962V15.3797C6.51251 15.7278 6.68732 15.9019 7.03694 15.9019ZM19.2133 15.9019H20.081C20.3671 15.9019 20.5102 15.7595 20.5102 15.4747V14.6012C20.5102 14.3228 20.3671 14.1835 20.081 14.1835H19.2133C18.9273 14.1835 18.7843 14.3228 18.7843 14.6012V15.4747C18.7843 15.7595 18.9273 15.9019 19.2133 15.9019Z" fill="black" fill-opacity="0.8"/>
</svg>
