<svg width="24" height="24" viewBox="0 0 24 24" fill="none" xmlns="http://www.w3.org/2000/svg">
<path d="M12 22C13.366 22 14.652 21.7458 15.8578 21.2373C17.0637 20.7289 18.1274 20.0267 19.049 19.1306C19.9706 18.2345 20.6928 17.2002 21.2156 16.0276C21.7385 14.8551 22 13.6047 22 12.2764C22 11.3041 21.8595 10.3794 21.5785 9.50238C21.2974 8.62535 20.9117 7.81982 20.4215 7.08579C19.9314 6.35176 19.3725 5.70511 18.7451 5.14585C18.5752 4.99332 18.4003 4.90912 18.2205 4.89323C18.0408 4.87734 17.8791 4.91071 17.7352 4.99333C17.5915 5.07594 17.4804 5.19034 17.4019 5.33651C17.3235 5.48268 17.299 5.64156 17.3285 5.81315C17.3578 5.98474 17.4575 6.14998 17.6274 6.30886C18.464 7.04607 19.1225 7.92786 19.6029 8.95423C20.0833 9.98061 20.3268 11.088 20.3333 12.2764C20.3333 13.4013 20.1193 14.4532 19.6912 15.4319C19.263 16.4106 18.6683 17.2701 17.9068 18.0105C17.1454 18.7509 16.2598 19.3308 15.2499 19.7502C14.2402 20.1697 13.1569 20.3794 12 20.3794C10.8431 20.3794 9.76143 20.1697 8.7549 19.7502C7.74836 19.3308 6.86437 18.7509 6.10293 18.0105C5.3415 17.2701 4.74673 16.4106 4.31862 15.4319C3.89052 14.4532 3.67647 13.4013 3.67647 12.2764C3.68301 11.0816 3.92647 9.97108 4.40686 8.94471C4.88725 7.91833 5.54248 7.03654 6.37254 6.29933C6.54248 6.14045 6.64215 5.97521 6.67156 5.80361C6.70098 5.63202 6.6781 5.47314 6.60293 5.32697C6.52777 5.1808 6.41666 5.06641 6.2696 4.98379C6.12254 4.90117 5.95914 4.86781 5.77941 4.88369C5.59967 4.89959 5.42483 4.98379 5.2549 5.13632C4.62745 5.69558 4.06863 6.34382 3.57843 7.08103C3.08824 7.81823 2.70261 8.62535 2.42157 9.50238C2.14052 10.3794 2 11.3041 2 12.2764C2 13.6047 2.26144 14.8551 2.78431 16.0276C3.30719 17.2002 4.02941 18.2345 4.95097 19.1306C5.87255 20.0267 6.93627 20.7289 8.14214 21.2373C9.34803 21.7458 10.634 22 12 22ZM12 12.1811C12.2353 12.1811 12.4264 12.1065 12.5735 11.9571C12.7206 11.8077 12.7942 11.6123 12.7942 11.3708V2.81029C12.7942 2.56879 12.7206 2.37337 12.5735 2.22402C12.4264 2.07467 12.2353 2 12 2C11.7647 2 11.5752 2.07467 11.4314 2.22402C11.2876 2.37337 11.2157 2.56879 11.2157 2.81029V11.3708C11.2157 11.6123 11.2876 11.8077 11.4314 11.9571C11.5752 12.1065 11.7647 12.1811 12 12.1811Z" fill="black" fill-opacity="0.8"/>
</svg>
