<svg version="1.2" xmlns="http://www.w3.org/2000/svg" viewBox="0 0 24 24" width="24" height="24">
	<path id="Path 0" fill-rule="evenodd" fill="black" fill-opacity="0.8" d="m11.92 5c4.89 0 9.03 0.01 9.33 0.02 0.38 0.02 0.58 0.04 0.71 0.08 0.1 0.02 0.23 0.06 0.29 0.09 0.06 0.02 0.17 0.07 0.25 0.11 0.08 0.04 0.21 0.11 0.29 0.17 0.08 0.05 0.23 0.17 0.34 0.28 0.11 0.1 0.24 0.25 0.31 0.33 0.06 0.08 0.16 0.23 0.22 0.34 0.05 0.11 0.12 0.25 0.15 0.32 0.02 0.06 0.06 0.2 0.09 0.3 0.04 0.13 0.06 0.33 0.08 0.71 0.01 0.29 0.02 2.41 0.02 4.71 0 2.3-0.01 4.42-0.02 4.71-0.02 0.45-0.04 0.56-0.09 0.76-0.04 0.14-0.12 0.33-0.17 0.44-0.05 0.11-0.13 0.26-0.19 0.34-0.05 0.08-0.18 0.24-0.28 0.34-0.1 0.11-0.25 0.25-0.33 0.31-0.08 0.06-0.23 0.16-0.34 0.22-0.11 0.06-0.25 0.13-0.32 0.15-0.06 0.02-0.19 0.07-0.29 0.09-0.13 0.04-0.31 0.06-0.71 0.08-0.3 0.01-4.43 0.02-9.26 0.02-4.83 0-8.96-0.01-9.26-0.02-0.41-0.02-0.59-0.04-0.71-0.08-0.1-0.02-0.23-0.07-0.29-0.09-0.07-0.02-0.21-0.09-0.32-0.15-0.11-0.06-0.26-0.16-0.34-0.22-0.08-0.06-0.23-0.2-0.33-0.31-0.1-0.1-0.23-0.26-0.28-0.34-0.06-0.08-0.14-0.23-0.19-0.34-0.06-0.11-0.13-0.3-0.17-0.44-0.06-0.2-0.07-0.31-0.09-0.87-0.02-0.38-0.02-2.42-0.02-5.15 0.01-4.19 0.02-4.54 0.06-4.73 0.02-0.1 0.07-0.26 0.1-0.35 0.03-0.09 0.09-0.23 0.13-0.32 0.05-0.09 0.12-0.22 0.18-0.3 0.05-0.08 0.18-0.23 0.28-0.34 0.1-0.11 0.25-0.25 0.33-0.31 0.08-0.06 0.23-0.16 0.34-0.22 0.11-0.06 0.26-0.13 0.34-0.16 0.08-0.03 0.23-0.07 0.32-0.1 0.11-0.02 0.34-0.05 0.61-0.06 0.24-0.01 4.39-0.02 9.23-0.02zm-9.84 1.63c-0.07 0.04-0.19 0.14-0.27 0.23-0.09 0.09-0.18 0.23-0.24 0.34l-0.08 0.18v10.16c0.16 0.33 0.24 0.45 0.34 0.55q0.16 0.15 0.35 0.25l0.2 0.1h19.24c0.32-0.16 0.45-0.25 0.54-0.35 0.1-0.1 0.19-0.23 0.25-0.34q0.09-0.18 0.11-0.37c0.01-0.1 0.01-2.39 0.01-5.09l-0.02-4.91c-0.16-0.32-0.25-0.45-0.35-0.55q-0.15-0.15-0.35-0.25l-0.19-0.1c-18.6-0.01-19.17 0-19.29 0.04-0.07 0.02-0.19 0.08-0.25 0.11zm9.91 6.23c0.55 0 0.58 0 0.68 0.06q0.09 0.06 0.15 0.16c0.05 0.1 0.05 0.18 0.05 1.54 0 1.35 0 1.43-0.05 1.53q-0.05 0.09-0.15 0.15c-0.1 0.06-0.13 0.06-0.68 0.06-0.56 0-0.59 0-0.69-0.06q-0.09-0.06-0.15-0.15c-0.05-0.1-0.05-0.18-0.05-1.54 0-1.38 0-1.44 0.05-1.54q0.06-0.11 0.16-0.16c0.09-0.05 0.15-0.05 0.68-0.05z"/>
</svg>