<svg width="24" height="24" viewBox="0 0 24 24" fill="none" xmlns="http://www.w3.org/2000/svg">
<path d="M6.69862 21H17.2913C18.2867 21 19.0114 20.7523 19.4654 20.257C19.9194 19.7616 20.2203 19.0381 20.3682 18.0864L21.8008 8.7784H2.18916L3.63178 18.0864C3.77974 19.0446 4.08071 19.7697 4.53468 20.2618C4.98866 20.7539 5.70997 21 6.69862 21ZM1.71501 7.44868H22.285C22.85 7.44868 23.277 7.29387 23.5662 6.98426C23.8554 6.67464 24 6.24607 24 5.69854V4.75014C24 4.20261 23.8554 3.77404 23.5662 3.46442C23.277 3.15481 22.85 3 22.285 3H1.71501C1.17697 3 0.756621 3.15481 0.453973 3.46442C0.151324 3.77404 0 4.20261 0 4.75014V5.69854C0 6.24607 0.142917 6.67464 0.428752 6.98426C0.714586 7.29387 1.14334 7.44868 1.71501 7.44868ZM12.8121 18.0082C12.8121 18.2168 12.7331 18.3928 12.5751 18.5362C12.417 18.6796 12.227 18.7513 12.0051 18.7513C11.7898 18.7513 11.6032 18.6796 11.4452 18.5362C11.2871 18.3928 11.2081 18.2168 11.2081 18.0082V14.3906L11.2686 12.7578L10.4011 13.628L9.49307 14.5275C9.41909 14.6057 9.33166 14.6644 9.23078 14.7035C9.12989 14.7426 9.02901 14.7621 8.92813 14.7621C8.71291 14.7621 8.53637 14.697 8.39849 14.5666C8.26062 14.4362 8.19169 14.2668 8.19169 14.0582C8.19169 13.9473 8.21523 13.8479 8.26231 13.7599C8.30939 13.672 8.37327 13.5921 8.45398 13.5204L11.4199 10.8805C11.5343 10.7827 11.6352 10.7143 11.7226 10.6752C11.81 10.6361 11.9042 10.6165 12.0051 10.6165C12.1126 10.6165 12.2102 10.6361 12.2976 10.6752C12.385 10.7143 12.4825 10.7827 12.5902 10.8805L15.5561 13.5204C15.6369 13.5921 15.7024 13.672 15.7528 13.7599C15.8033 13.8479 15.8285 13.9473 15.8285 14.0582C15.8285 14.2668 15.7562 14.4362 15.6116 14.5666C15.467 14.697 15.2904 14.7621 15.082 14.7621C14.9811 14.7621 14.8819 14.7426 14.7844 14.7035C14.6868 14.6644 14.6011 14.6057 14.5271 14.5275L13.6091 13.628L12.7415 12.7578L12.8121 14.3906V18.0082Z" fill="black" fill-opacity="0.8"/>
</svg>
