<svg width="24" height="24" viewBox="0 0 24 24" fill="none" xmlns="http://www.w3.org/2000/svg">
<path d="M6.74282 21H17.2472C18.2342 21 18.9679 20.7703 19.4482 20.3108C19.9283 19.8512 20.2418 19.1423 20.3885 18.1841L21.9992 7.54646L20.3885 7.64422L18.7878 18.1646C18.7145 18.647 18.5461 18.9941 18.2827 19.206C18.0192 19.4177 17.6674 19.5236 17.2272 19.5236H6.77283C6.32598 19.5236 5.9725 19.4177 5.71239 19.206C5.45228 18.9941 5.28554 18.647 5.21218 18.1646L3.61151 7.64422L2.00083 7.54646L3.61151 18.1841C3.75823 19.1489 4.0717 19.8594 4.5519 20.3157C5.0321 20.7719 5.76241 21 6.74282 21ZM1.9008 8.37752H22.0993C22.7128 8.37752 23.183 8.20153 23.5098 7.84955C23.8366 7.49757 24 7.025 24 6.43184V4.94569C24 4.34601 23.8366 3.87181 23.5098 3.52309C23.183 3.17436 22.7128 3 22.0993 3H1.9008C1.31388 3 0.850356 3.17436 0.510213 3.52309C0.170071 3.87181 0 4.34601 0 4.94569V6.43184C0 7.025 0.163402 7.49757 0.490205 7.84955C0.817008 8.20153 1.28721 8.37752 1.9008 8.37752ZM2.31097 6.90116C2.05753 6.90116 1.87746 6.84575 1.77074 6.73494C1.66403 6.62412 1.61068 6.44813 1.61068 6.20697V5.17057C1.61068 4.92288 1.66403 4.74525 1.77074 4.6377C1.87746 4.53015 2.05753 4.47637 2.31097 4.47637H21.699C21.9459 4.47637 22.1226 4.53015 22.2293 4.6377C22.336 4.74525 22.3894 4.92288 22.3894 5.17057V6.20697C22.3894 6.44813 22.336 6.62412 22.2293 6.73494C22.1226 6.84575 21.9459 6.90116 21.699 6.90116H2.31097ZM9.0938 17.4705C9.29388 17.4705 9.47063 17.3923 9.62402 17.2358L11.995 14.9283L14.366 17.2358C14.4394 17.3009 14.5194 17.3563 14.6061 17.402C14.6928 17.4477 14.7929 17.4705 14.9063 17.4705C15.1197 17.4705 15.3014 17.3955 15.4515 17.2455C15.6015 17.0956 15.6765 16.9196 15.6765 16.7176C15.6765 16.6068 15.6532 16.509 15.6066 16.4242C15.5598 16.3395 15.5032 16.2613 15.4365 16.1896L13.0755 13.8724L15.4464 11.5454C15.6065 11.3824 15.6866 11.213 15.6866 11.037C15.6866 10.8219 15.6115 10.641 15.4615 10.4943C15.3114 10.3477 15.1263 10.2743 14.9063 10.2743C14.7262 10.2743 14.5528 10.3525 14.386 10.509L11.995 12.836L9.61403 10.5188C9.45395 10.3688 9.28055 10.2939 9.0938 10.2939C8.88038 10.2939 8.69864 10.3656 8.54858 10.509C8.39851 10.6524 8.32348 10.8284 8.32348 11.037C8.32348 11.226 8.40352 11.3987 8.56359 11.5552L10.9146 13.8724L8.56359 16.1994C8.40352 16.3493 8.32348 16.522 8.32348 16.7176C8.32348 16.9196 8.39851 17.0956 8.54858 17.2455C8.69864 17.3955 8.88038 17.4705 9.0938 17.4705Z" fill="black" fill-opacity="0.8"/>
</svg>
