<svg width="24" height="24" viewBox="0 0 24 24" fill="none" xmlns="http://www.w3.org/2000/svg">
<path d="M12.7953 17.0305V13.5106L12.7253 11.9267L13.5757 12.7773L14.456 13.6573C14.5227 13.729 14.6028 13.7828 14.6961 13.8186C14.7895 13.8545 14.8862 13.8724 14.9863 13.8724C15.1864 13.8724 15.3548 13.8105 15.4915 13.6867C15.6282 13.5628 15.6966 13.403 15.6966 13.2075C15.6966 13.0967 15.6732 12.9973 15.6265 12.9093C15.5798 12.8213 15.5165 12.7447 15.4365 12.6795L12.5853 10.1081C12.4853 10.0169 12.3919 9.95167 12.3051 9.91257C12.2185 9.87345 12.1251 9.8539 12.025 9.8539C11.9317 9.8539 11.8416 9.87345 11.7549 9.91257C11.6682 9.95167 11.5715 10.0169 11.4648 10.1081L8.6136 12.6795C8.53357 12.7447 8.47188 12.8213 8.42852 12.9093C8.38517 12.9973 8.36349 13.0967 8.36349 13.2075C8.36349 13.403 8.43019 13.5628 8.56359 13.6867C8.69697 13.8105 8.86704 13.8724 9.07379 13.8724C9.16717 13.8724 9.26054 13.8545 9.35391 13.8186C9.44729 13.7828 9.53065 13.729 9.60402 13.6573L10.4744 12.7773L11.3247 11.9267L11.2647 13.5106V17.0305C11.2647 17.2325 11.3414 17.4052 11.4948 17.5487C11.6482 17.692 11.8249 17.7637 12.025 17.7637C12.2318 17.7637 12.4118 17.692 12.5652 17.5487C12.7186 17.4052 12.7953 17.2325 12.7953 17.0305ZM6.74282 21H17.2472C18.2342 21 18.9679 20.7703 19.4482 20.3108C19.9283 19.8512 20.2418 19.1423 20.3885 18.1841L21.9992 7.54646L20.3885 7.64422L18.7878 18.1646C18.7145 18.647 18.5461 18.9941 18.2827 19.206C18.0192 19.4177 17.6674 19.5236 17.2272 19.5236H6.77283C6.32598 19.5236 5.9725 19.4177 5.71239 19.206C5.45228 18.9941 5.28554 18.647 5.21218 18.1646L3.61151 7.64422L2.00083 7.54646L3.61151 18.1841C3.75823 19.1489 4.0717 19.8594 4.5519 20.3157C5.0321 20.7719 5.76241 21 6.74282 21ZM1.9008 8.37752H22.0993C22.7128 8.37752 23.183 8.20153 23.5098 7.84955C23.8366 7.49757 24 7.025 24 6.43184V4.94569C24 4.34601 23.8366 3.87181 23.5098 3.52309C23.183 3.17436 22.7128 3 22.0993 3H1.9008C1.31388 3 0.850356 3.17436 0.510213 3.52309C0.170071 3.87181 0 4.34601 0 4.94569V6.43184C0 7.025 0.163402 7.49757 0.490205 7.84955C0.817008 8.20153 1.28721 8.37752 1.9008 8.37752ZM2.31097 6.90116C2.05753 6.90116 1.87746 6.84575 1.77074 6.73494C1.66403 6.62412 1.61068 6.44813 1.61068 6.20697V5.17057C1.61068 4.92288 1.66403 4.74525 1.77074 4.6377C1.87746 4.53015 2.05753 4.47637 2.31097 4.47637H21.699C21.9459 4.47637 22.1226 4.53015 22.2293 4.6377C22.336 4.74525 22.3894 4.92288 22.3894 5.17057V6.20697C22.3894 6.44813 22.336 6.62412 22.2293 6.73494C22.1226 6.84575 21.9459 6.90116 21.699 6.90116H2.31097Z" fill="black" fill-opacity="0.8"/>
</svg>
