<svg width="24" height="24" viewBox="0 0 24 24" fill="none" xmlns="http://www.w3.org/2000/svg">
<path d="M6.51226 21H17.4877C18.4749 21 19.2253 20.7539 19.7389 20.2618C20.2525 19.7697 20.5092 19.0446 20.5092 18.0864V8.72951H3.49075V18.0864C3.49075 19.0511 3.74754 19.7779 4.26113 20.2667C4.77472 20.7556 5.52509 21 6.51226 21ZM8.70335 12.2591C8.48991 12.2591 8.31816 12.1939 8.18809 12.0636C8.05802 11.9332 7.99299 11.7605 7.99299 11.5454V11.2423C7.99299 11.0272 8.05802 10.8561 8.18809 10.729C8.31816 10.6019 8.48991 10.5383 8.70335 10.5383H15.3067C15.5201 10.5383 15.6935 10.6019 15.8269 10.729C15.9603 10.8561 16.027 11.0272 16.027 11.2423V11.5454C16.027 11.7605 15.9603 11.9332 15.8269 12.0636C15.6935 12.1939 15.5201 12.2591 15.3067 12.2591H8.70335ZM3.70085 7.39002H20.2991C20.8661 7.39002 21.2913 7.23521 21.5747 6.92559C21.8582 6.61598 22 6.18741 22 5.63988V4.75014C22 4.20261 21.8582 3.77404 21.5747 3.46442C21.2913 3.15481 20.8661 3 20.2991 3H3.70085C3.16725 3 2.75037 3.15481 2.45022 3.46442C2.15007 3.77404 2 4.20261 2 4.75014V5.63988C2 6.18741 2.14174 6.61598 2.42521 6.92559C2.70869 7.23521 3.1339 7.39002 3.70085 7.39002Z" fill="black" fill-opacity="0.8"/>
</svg>
