<svg width="24" height="24" viewBox="0 0 24 24" fill="none" xmlns="http://www.w3.org/2000/svg">
<path d="M6.51226 21H17.4877C18.4749 21 19.2253 20.7539 19.7389 20.2618C20.2525 19.7697 20.5092 19.0446 20.5092 18.0864V7.64422H18.8984V18.1646C18.8984 18.6013 18.7767 18.937 18.5333 19.1717C18.2898 19.4063 17.9479 19.5236 17.5077 19.5236H6.49225C6.04536 19.5236 5.70185 19.4063 5.46173 19.1717C5.22161 18.937 5.10154 18.6013 5.10154 18.1646V7.64422H3.49075V18.0864C3.49075 19.0511 3.74754 19.7779 4.26113 20.2667C4.77472 20.7556 5.52509 21 6.51226 21ZM8.70335 12.3178H15.3067C15.5201 12.3178 15.6935 12.2526 15.8269 12.1222C15.9603 11.9919 16.027 11.8191 16.027 11.604V11.2912C16.027 11.0761 15.9603 10.905 15.8269 10.7779C15.6935 10.6508 15.5201 10.5872 15.3067 10.5872H8.70335C8.48991 10.5872 8.31816 10.6508 8.18809 10.7779C8.05802 10.905 7.99299 11.0761 7.99299 11.2912V11.604C7.99299 11.8191 8.05802 11.9919 8.18809 12.1222C8.31816 12.2526 8.48991 12.3178 8.70335 12.3178ZM3.90095 8.37752H20.099C20.7127 8.37752 21.183 8.20153 21.5098 7.84955C21.8366 7.49757 22 7.025 22 6.43184V4.94569C22 4.34601 21.8366 3.87181 21.5098 3.52309C21.183 3.17436 20.7127 3 20.099 3H3.90095C3.31399 3 2.85042 3.17436 2.51025 3.52309C2.17008 3.87181 2 4.34601 2 4.94569V6.43184C2 7.025 2.16342 7.49757 2.49025 7.84955C2.81707 8.20153 3.28731 8.37752 3.90095 8.37752ZM4.31115 6.90116C4.0577 6.90116 3.87761 6.84575 3.77089 6.73494C3.66417 6.62412 3.61081 6.44813 3.61081 6.20697V5.17057C3.61081 4.92288 3.66417 4.74525 3.77089 4.6377C3.87761 4.53015 4.0577 4.47637 4.31115 4.47637H19.6988C19.9523 4.47637 20.1307 4.53015 20.2342 4.6377C20.3375 4.74525 20.3892 4.92288 20.3892 5.17057V6.20697C20.3892 6.44813 20.3375 6.62412 20.2342 6.73494C20.1307 6.84575 19.9523 6.90116 19.6988 6.90116H4.31115Z" fill="black" fill-opacity="0.8"/>
</svg>
