<svg width="24" height="24" viewBox="0 0 24 24" fill="none" xmlns="http://www.w3.org/2000/svg">
<path d="M6.69862 21H17.2913C18.2867 21 19.0114 20.7523 19.4654 20.257C19.9194 19.7616 20.2203 19.0381 20.3682 18.0864L21.8008 8.7784H2.18916L3.63178 18.0864C3.77974 19.0446 4.08071 19.7697 4.53468 20.2618C4.98866 20.7539 5.70997 21 6.69862 21ZM1.71501 7.44868H22.285C22.85 7.44868 23.277 7.29387 23.5662 6.98426C23.8554 6.67464 24 6.24607 24 5.69854V4.75014C24 4.20261 23.8554 3.77404 23.5662 3.46442C23.277 3.15481 22.85 3 22.285 3H1.71501C1.17697 3 0.756621 3.15481 0.453973 3.46442C0.151324 3.77404 0 4.20261 0 4.75014V5.69854C0 6.24607 0.142917 6.67464 0.428752 6.98426C0.714586 7.29387 1.14334 7.44868 1.71501 7.44868ZM8.97857 18.2819C8.75663 18.2819 8.56663 18.2037 8.40858 18.0473C8.25054 17.8909 8.17151 17.7084 8.17151 17.4998C8.17151 17.2977 8.25558 17.1184 8.42372 16.962L10.8651 14.5666L8.42372 12.1809C8.25558 12.0179 8.17151 11.8387 8.17151 11.6431C8.17151 11.4346 8.25222 11.2553 8.41363 11.1054C8.57504 10.9555 8.76336 10.8805 8.97857 10.8805C9.09291 10.8805 9.1921 10.9017 9.27617 10.9441C9.36024 10.9864 9.44263 11.0402 9.52334 11.1054L11.9949 13.491L14.4767 11.0956C14.665 10.9392 14.8466 10.861 15.0214 10.861C15.2434 10.861 15.4351 10.9376 15.5965 11.0907C15.7579 11.2439 15.8386 11.4281 15.8386 11.6431C15.8386 11.7474 15.8151 11.8403 15.768 11.9218C15.7209 12.0033 15.6604 12.0864 15.5864 12.1711L13.1249 14.5666L15.5763 16.9523C15.6436 17.0239 15.7024 17.1038 15.7528 17.1917C15.8033 17.2798 15.8285 17.3825 15.8285 17.4998C15.8285 17.7084 15.7478 17.8909 15.5864 18.0473C15.425 18.2037 15.2367 18.2819 15.0214 18.2819C14.9071 18.2819 14.8029 18.2575 14.7087 18.2087C14.6146 18.1597 14.5305 18.1027 14.4565 18.0376L11.9949 15.6616L9.53343 18.0376C9.37201 18.2005 9.18706 18.2819 8.97857 18.2819Z" fill="black" fill-opacity="0.8"/>
</svg>
