<svg width="24" height="24" viewBox="0 0 24 24" fill="none" xmlns="http://www.w3.org/2000/svg">
<path d="M3.49405 20.5059C4.00781 21.0133 4.56332 21.3922 5.16057 21.6427C5.75781 21.8931 6.37272 22.0119 7.00528 21.9991C7.63785 21.9862 8.2656 21.8385 8.88853 21.556C9.51147 21.2734 10.1023 20.8527 10.661 20.294L13.5991 17.3367L12.5105 16.2385L9.57248 19.1862C9.0523 19.7 8.49519 20.0628 7.90116 20.2747C7.30712 20.4867 6.7163 20.53 6.12868 20.4048C5.54107 20.2795 5.00323 19.9729 4.51515 19.4849C4.02066 18.9968 3.7124 18.4589 3.59038 17.8713C3.46836 17.2837 3.51332 16.6929 3.72525 16.0988C3.93718 15.5048 4.30002 14.9477 4.81378 14.4275L7.76148 11.4798L6.66332 10.4009L3.70598 13.339C3.14727 13.8977 2.72663 14.4885 2.44406 15.1115C2.16149 15.7344 2.01378 16.3621 2.00094 16.9947C1.9881 17.6273 2.1069 18.2438 2.35736 18.8442C2.60782 19.4447 2.98672 19.9986 3.49405 20.5059ZM20.5059 3.49405C19.9922 2.98672 19.4367 2.60782 18.8395 2.35736C18.2422 2.1069 17.6273 1.9881 16.9947 2.00094C16.3621 2.01378 15.736 2.16149 15.1163 2.44406C14.4966 2.72663 13.9074 3.14406 13.3487 3.69635L10.4009 6.65368L11.4894 7.76148L14.4372 4.81378C14.9509 4.30002 15.5048 3.93718 16.0988 3.72525C16.6929 3.51332 17.2837 3.46997 17.8713 3.5952C18.4589 3.72043 18.9968 4.02387 19.4849 4.50553C19.9793 4.99359 20.2892 5.53143 20.4144 6.11905C20.5397 6.70666 20.4947 7.29909 20.2795 7.89634C20.0644 8.49359 19.7 9.04909 19.1862 9.56285L16.2385 12.5105L17.3463 13.5991L20.294 10.6514C20.8527 10.0927 21.2734 9.50344 21.556 8.88372C21.8385 8.264 21.9862 7.63785 21.9991 7.00528C22.0119 6.37272 21.8931 5.7562 21.6427 5.15574C21.3922 4.55529 21.0133 4.00139 20.5059 3.49405ZM17.356 10.2275L13.7629 6.64404C13.1977 6.08533 12.6406 5.80116 12.0915 5.79153C11.5424 5.7819 10.9789 6.06928 10.4009 6.65368L6.66332 10.4009C6.07891 10.9789 5.78992 11.5424 5.79634 12.0915C5.80276 12.6406 6.08533 13.1977 6.64404 13.7629L10.2372 17.356C10.8023 17.9147 11.3594 18.1972 11.9085 18.2036C12.4576 18.2101 13.0211 17.9211 13.5991 17.3367L17.3463 13.5991C17.9307 13.0211 18.2181 12.4576 18.2085 11.9085C18.1988 11.3594 17.9147 10.7991 17.356 10.2275ZM12.8766 7.80964L16.1903 11.1234C16.4665 11.3995 16.5933 11.6516 16.5709 11.8796C16.5484 12.1076 16.3926 12.3629 16.1036 12.6454L12.6454 16.1036C12.3629 16.3926 12.1076 16.5484 11.8796 16.5709C11.6516 16.5933 11.3995 16.4665 11.1234 16.1903L7.80964 12.8766C7.53349 12.6004 7.40666 12.3484 7.42913 12.1204C7.45161 11.8924 7.60735 11.6339 7.89634 11.345L11.3546 7.89634C11.6371 7.60735 11.894 7.45161 12.1252 7.42913C12.3564 7.40666 12.6069 7.53349 12.8766 7.80964ZM11.9904 10.9211C12.228 10.9211 12.4238 10.8424 12.578 10.6851C12.7321 10.5278 12.8092 10.3367 12.8092 10.1119C12.8156 9.88716 12.7385 9.6945 12.578 9.53395C12.4174 9.3734 12.2248 9.29312 12 9.29312C11.7752 9.29312 11.5842 9.375 11.4268 9.53876C11.2695 9.70253 11.1908 9.9 11.1908 10.1312C11.1908 10.3367 11.2711 10.5197 11.4316 10.6803C11.5922 10.8408 11.7784 10.9211 11.9904 10.9211ZM10.1408 12.8092C10.3592 12.8092 10.547 12.7289 10.7044 12.5683C10.8617 12.4078 10.9404 12.2215 10.9404 12.0096C10.9404 11.7784 10.8617 11.5826 10.7044 11.422C10.547 11.2615 10.356 11.1812 10.1312 11.1812C9.9 11.1812 9.70574 11.2615 9.5484 11.422C9.39106 11.5826 9.31239 11.7752 9.31239 12C9.31239 12.2184 9.39106 12.4078 9.5484 12.5683C9.70574 12.7289 9.90322 12.8092 10.1408 12.8092ZM13.8688 12.8092C14.1 12.8092 14.2943 12.7289 14.4516 12.5683C14.6089 12.4078 14.6876 12.2151 14.6876 11.9904C14.6876 11.7656 14.6089 11.5745 14.4516 11.4172C14.2943 11.2599 14.0968 11.1812 13.8591 11.1812C13.6472 11.1812 13.461 11.2615 13.3004 11.422C13.1399 11.5826 13.0596 11.7656 13.0596 11.9711C13.0596 12.2023 13.1383 12.3998 13.2956 12.5636C13.453 12.7273 13.644 12.8092 13.8688 12.8092ZM12 14.6876C12.2248 14.6876 12.4158 14.6073 12.5731 14.4467C12.7305 14.2862 12.8092 14.0903 12.8092 13.8591C12.8092 13.6472 12.7305 13.461 12.5731 13.3004C12.4158 13.1399 12.228 13.0596 12.0096 13.0596C11.772 13.0596 11.5745 13.1399 11.4172 13.3004C11.2599 13.461 11.1812 13.6505 11.1812 13.8688C11.1812 14.0936 11.2599 14.2862 11.4172 14.4467C11.5745 14.6073 11.7688 14.6876 12 14.6876Z" fill="black" fill-opacity="0.8"/>
</svg>
