<svg width="24" height="24" viewBox="0 0 24 24" fill="none" xmlns="http://www.w3.org/2000/svg">
<path d="M11.9706 14.1764C12.3692 14.1764 12.7336 14.0784 13.0637 13.8823C13.3938 13.6863 13.6569 13.4232 13.8529 13.0931C14.049 12.763 14.147 12.3987 14.147 12C14.147 11.6013 14.049 11.2369 13.8529 10.9069C13.6569 10.5768 13.3938 10.3137 13.0637 10.1176C12.7336 9.92156 12.3692 9.82352 11.9706 9.82352C11.5719 9.82352 11.2075 9.92156 10.8774 10.1176C10.5474 10.3137 10.2843 10.5768 10.0882 10.9069C9.89215 11.2369 9.79411 11.6013 9.79411 12C9.79411 12.3987 9.89215 12.763 10.0882 13.0931C10.2843 13.4232 10.5474 13.6863 10.8774 13.8823C11.2075 14.0784 11.5719 14.1764 11.9706 14.1764ZM11.9706 12.9411C11.7091 12.9411 11.4869 12.8496 11.3039 12.6667C11.1209 12.4837 11.0294 12.2615 11.0294 12C11.0294 11.7385 11.1209 11.5163 11.3039 11.3333C11.4869 11.1503 11.7091 11.0588 11.9706 11.0588C12.232 11.0588 12.4543 11.1503 12.6372 11.3333C12.8202 11.5163 12.9117 11.7385 12.9117 12C12.9117 12.2615 12.8202 12.4837 12.6372 12.6667C12.4543 12.8496 12.232 12.9411 11.9706 12.9411ZM11.5294 13.5883L10.4118 12.4706L8.97058 13.9117C8.82025 14.0686 8.74509 14.2565 8.74509 14.4755C8.74509 14.6944 8.82025 14.8791 8.97058 15.0294C9.12091 15.1797 9.30555 15.2549 9.5245 15.2549C9.74346 15.2549 9.93137 15.1797 10.0882 15.0294L11.5294 13.5883ZM12.4607 10.4314L13.5784 11.5294L17.049 8.05882C17.2058 7.90849 17.2843 7.72385 17.2843 7.5049C17.2843 7.28594 17.2058 7.09803 17.049 6.94117C16.8986 6.79085 16.714 6.71568 16.4951 6.71568C16.2761 6.71568 16.0915 6.79085 15.9411 6.94117L12.4607 10.4314ZM12 22C13.366 22 14.652 21.7385 15.8578 21.2156C17.0637 20.6928 18.1274 19.9706 19.049 19.049C19.9706 18.1274 20.6928 17.0637 21.2156 15.8578C21.7385 14.652 22 13.366 22 12C22 10.634 21.7385 9.34803 21.2156 8.14214C20.6928 6.93627 19.9706 5.87255 19.049 4.95097C18.1274 4.02941 17.0621 3.30719 15.8529 2.78431C14.6438 2.26144 13.3562 2 11.9902 2C10.6242 2 9.33823 2.26144 8.13235 2.78431C6.92646 3.30719 5.86437 4.02941 4.94607 4.95097C4.02778 5.87255 3.30719 6.93627 2.78431 8.14214C2.26144 9.34803 2 10.634 2 12C2 13.366 2.26144 14.652 2.78431 15.8578C3.30719 17.0637 4.02941 18.1274 4.95097 19.049C5.87255 19.9706 6.93627 20.6928 8.14214 21.2156C9.34803 21.7385 10.634 22 12 22ZM12 20.3333C10.8431 20.3333 9.76143 20.1176 8.7549 19.6863C7.74836 19.2549 6.86437 18.6585 6.10293 17.8971C5.3415 17.1356 4.74673 16.2517 4.31862 15.2451C3.89052 14.2386 3.67647 13.1569 3.67647 12C3.67647 10.8431 3.89052 9.76143 4.31862 8.7549C4.74673 7.74836 5.33987 6.86274 6.09803 6.09803C6.8562 5.33333 7.73855 4.73692 8.74509 4.30882C9.75163 3.88072 10.8333 3.66667 11.9902 3.66667C13.1471 3.66667 14.2288 3.88072 15.2353 4.30882C16.2418 4.73692 17.1274 5.33333 17.8922 6.09803C18.6569 6.86274 19.2549 7.74836 19.6863 8.7549C20.1176 9.76143 20.3333 10.8431 20.3333 12C20.3333 13.1569 20.1193 14.2386 19.6912 15.2451C19.263 16.2517 18.6683 17.1356 17.9068 17.8971C17.1454 18.6585 16.2598 19.2549 15.2499 19.6863C14.2402 20.1176 13.1569 20.3333 12 20.3333Z" fill="black" fill-opacity="0.8"/>
</svg>
