<svg width="24" height="24" viewBox="0 0 24 24" fill="none" xmlns="http://www.w3.org/2000/svg">
<path d="M3.92961 21H20.0704C21.0532 21 21.7871 20.7474 22.2723 20.2423C22.7574 19.7371 23 18.9826 23 17.9788V8.52418C23 7.52037 22.7574 6.76589 22.2723 6.26073C21.7871 5.75557 21.0532 5.50299 20.0704 5.50299H3.92961C2.95307 5.50299 2.22067 5.75557 1.7324 6.26073C1.24413 6.76589 1 7.52037 1 8.52418V17.9788C1 18.9826 1.24413 19.7371 1.7324 20.2423C2.22067 20.7474 2.95307 21 3.92961 21ZM3.94827 19.4258C3.48177 19.4258 3.12412 19.2971 2.87532 19.0397C2.62653 18.7822 2.50213 18.3993 2.50213 17.8908V8.61217C2.50213 8.10375 2.62653 7.72081 2.87532 7.46334C3.12412 7.20587 3.48177 7.07714 3.94827 7.07714H20.0518C20.5121 7.07714 20.8682 7.20587 21.1201 7.46334C21.372 7.72081 21.4979 8.10375 21.4979 8.61217V17.8908C21.4979 18.3993 21.372 18.7822 21.1201 19.0397C20.8682 19.2971 20.5121 19.4258 20.0518 19.4258H3.94827ZM5.10519 6.23629H10.1154V4.19283C10.1154 3.82129 10.0159 3.5296 9.81682 3.31776C9.61778 3.10592 9.34099 3 8.98645 3H6.23411C5.87957 3 5.60278 3.10592 5.40374 3.31776C5.20471 3.5296 5.10519 3.82129 5.10519 4.19283V6.23629ZM13.8754 6.23629H18.8762V4.19283C18.8762 3.82129 18.7782 3.5296 18.5823 3.31776C18.3864 3.10592 18.108 3 17.7473 3H14.9949C14.6404 3 14.3652 3.10592 14.1693 3.31776C13.9733 3.5296 13.8754 3.82129 13.8754 4.19283V6.23629ZM9.04243 13.8821C9.04243 13.9734 9.07352 14.0484 9.13572 14.1071C9.19792 14.1657 9.27256 14.195 9.35964 14.195H11.6735L10.4326 17.6659C10.3766 17.8158 10.3813 17.9397 10.4466 18.0375C10.5119 18.1352 10.6021 18.1858 10.7172 18.189C10.8322 18.1923 10.9364 18.1288 11.0297 17.9984L14.7617 13.0902C14.8425 12.9989 14.8829 12.9044 14.8829 12.8066C14.8829 12.7154 14.8503 12.6404 14.785 12.5818C14.7197 12.5231 14.6435 12.4938 14.5565 12.4938H12.2519L13.4835 9.0326C13.5395 8.87616 13.5348 8.74906 13.4695 8.65128C13.4042 8.55351 13.3155 8.50463 13.2035 8.50463C13.0916 8.50463 12.989 8.56655 12.8957 8.69039L9.15439 13.6084C9.07975 13.7127 9.04243 13.8039 9.04243 13.8821Z" fill="black" fill-opacity="0.8"/>
</svg>
