<svg width="24" height="24" viewBox="0 0 24 24" fill="none" xmlns="http://www.w3.org/2000/svg">
<path d="M3.92961 21H20.0704C21.0532 21 21.7871 20.7474 22.2723 20.2423C22.7574 19.7371 23 18.9826 23 17.9788V8.52418C23 7.52037 22.7574 6.76589 22.2723 6.26073C21.7871 5.75557 21.0532 5.50299 20.0704 5.50299H3.92961C2.95307 5.50299 2.22067 5.75557 1.7324 6.26073C1.24413 6.76589 1 7.52037 1 8.52418V17.9788C1 18.9826 1.24413 19.7371 1.7324 20.2423C2.22067 20.7474 2.95307 21 3.92961 21ZM3.94827 19.4258C3.48177 19.4258 3.12412 19.2971 2.87532 19.0397C2.62653 18.7822 2.50213 18.3993 2.50213 17.8908V8.61217C2.50213 8.10375 2.62653 7.72081 2.87532 7.46334C3.12412 7.20587 3.48177 7.07714 3.94827 7.07714H20.0518C20.5121 7.07714 20.8682 7.20587 21.1201 7.46334C21.372 7.72081 21.4979 8.10375 21.4979 8.61217V17.8908C21.4979 18.3993 21.372 18.7822 21.1201 19.0397C20.8682 19.2971 20.5121 19.4258 20.0518 19.4258H3.94827ZM5.10519 6.23629H10.1154V4.19283C10.1154 3.82129 10.0159 3.5296 9.81682 3.31776C9.61778 3.10592 9.34099 3 8.98645 3H6.23411C5.87957 3 5.60278 3.10592 5.40374 3.31776C5.20471 3.5296 5.10519 3.82129 5.10519 4.19283V6.23629ZM13.8754 6.23629H18.8762V4.19283C18.8762 3.82129 18.7782 3.5296 18.5823 3.31776C18.3864 3.10592 18.108 3 17.7473 3H14.9949C14.6404 3 14.3652 3.10592 14.1693 3.31776C13.9733 3.5296 13.8754 3.82129 13.8754 4.19283V6.23629ZM4.49873 13.2564C4.49873 13.4519 4.5656 13.6198 4.69933 13.76C4.83306 13.9001 4.99633 13.9701 5.18916 13.9701H10.0314C10.2242 13.9701 10.3859 13.9001 10.5166 13.76C10.6472 13.6198 10.7125 13.4519 10.7125 13.2564C10.7125 13.0543 10.6472 12.8832 10.5166 12.7431C10.3859 12.6029 10.2242 12.5329 10.0314 12.5329H5.18916C4.99633 12.5329 4.83306 12.6029 4.69933 12.7431C4.5656 12.8832 4.49873 13.0543 4.49873 13.2564ZM13.2689 13.2564C13.2689 13.4519 13.3342 13.6198 13.4648 13.76C13.5955 13.9001 13.7572 13.9701 13.95 13.9701H15.6854V15.7887C15.6854 15.9908 15.7522 16.1619 15.886 16.302C16.0197 16.4422 16.183 16.509 16.3758 16.5024C16.5686 16.509 16.7303 16.4422 16.861 16.302C16.9915 16.1619 17.0568 15.9908 17.0568 15.7887V13.9701H18.7922C18.985 13.9701 19.1483 13.9001 19.282 13.76C19.4158 13.6198 19.4826 13.4519 19.4826 13.2564C19.4826 13.0543 19.4158 12.8832 19.282 12.7431C19.1483 12.6029 18.985 12.5329 18.7922 12.5329H17.0568V10.7143C17.0568 10.5122 16.9915 10.3411 16.861 10.201C16.7303 10.0608 16.5686 9.99077 16.3758 9.99077C16.183 9.99077 16.0197 10.0608 15.886 10.201C15.7522 10.3411 15.6854 10.5122 15.6854 10.7143V12.5329H13.95C13.7572 12.5329 13.5955 12.6029 13.4648 12.7431C13.3342 12.8832 13.2689 13.0543 13.2689 13.2564Z" fill="black" fill-opacity="0.8"/>
</svg>
