<svg width="24" height="24" viewBox="0 0 24 24" fill="none" xmlns="http://www.w3.org/2000/svg">
<path d="M4.32163 18H17.0676C17.7595 18 18.3919 17.9394 18.9649 17.8182C19.5379 17.697 20.0325 17.4087 20.4487 16.9534C20.8595 16.5041 21.1203 15.9675 21.2311 15.3437C21.3419 14.7199 21.3973 14.0296 21.3973 13.2727V10.7273C21.3973 9.97044 21.3419 9.28012 21.2311 8.65631C21.1203 8.03252 20.8595 7.49593 20.4487 7.04656C20.0325 6.59128 19.5379 6.30303 18.9649 6.18182C18.3919 6.06061 17.7595 6 17.0676 6H4.30542C3.62433 6 2.99865 6.06208 2.42838 6.18625C1.85811 6.31042 1.36487 6.59719 0.948652 7.04656C0.53784 7.50185 0.277028 8.03991 0.166216 8.66075C0.0554054 9.2816 0 9.96156 0 10.7007V13.2727C0 14.0296 0.054054 14.7199 0.162162 15.3437C0.270271 15.9675 0.532434 16.5041 0.948652 16.9534C1.36487 17.4087 1.85811 17.697 2.42838 17.8182C2.99865 17.9394 3.62974 18 4.32163 18ZM4.10271 16.572C3.68649 16.572 3.27703 16.5292 2.87433 16.4434C2.47163 16.3577 2.14595 16.1818 1.8973 15.9158C1.65406 15.6438 1.49459 15.2905 1.41892 14.8559C1.34325 14.4213 1.30541 13.9734 1.30541 13.5122V10.5055C1.30541 10.0384 1.34325 9.58462 1.41892 9.14412C1.49459 8.70362 1.65406 8.35033 1.8973 8.08425C2.14055 7.81227 2.46622 7.63488 2.87433 7.5521C3.28244 7.46933 3.70001 7.42794 4.12703 7.42794H17.2946C17.7108 7.42794 18.1203 7.47081 18.523 7.55654C18.9257 7.64228 19.2487 7.81818 19.492 8.08425C19.7406 8.35624 19.9027 8.70953 19.9784 9.14412C20.0541 9.57871 20.0919 10.0236 20.0919 10.4789V13.5122C20.0919 13.9734 20.0541 14.4213 19.9784 14.8559C19.9027 15.2905 19.7406 15.6438 19.492 15.9158C19.2487 16.1818 18.9257 16.3577 18.523 16.4434C18.1203 16.5292 17.7108 16.572 17.2946 16.572H4.10271ZM22.5 14.2927C22.7162 14.2749 22.9406 14.17 23.173 13.9778C23.4055 13.7857 23.6014 13.5211 23.7609 13.184C23.9203 12.847 24 12.4508 24 11.9956C24 11.5462 23.9203 11.153 23.7609 10.816C23.6014 10.4789 23.4055 10.2129 23.173 10.0177C22.9406 9.82261 22.7162 9.71914 22.5 9.70731V14.2927Z" fill="#8E8E93"/>
<path d="M3.42755 16H17.5643C17.8471 16 18.0755 15.9716 18.2495 15.9149C18.4236 15.8582 18.5677 15.7597 18.6818 15.6195C18.8939 15.3592 19 14.902 19 14.2478V9.75219C19 9.40509 18.9755 9.12474 18.9266 8.91114C18.8776 8.69754 18.796 8.52065 18.6818 8.38047C18.5677 8.2403 18.4236 8.14184 18.2495 8.08511C18.0755 8.02837 17.8471 8 17.5643 8H3.45201C3.16379 8 2.92995 8.02837 2.75048 8.08511C2.57102 8.14184 2.42419 8.2403 2.30999 8.38047C2.20122 8.52065 2.12236 8.69921 2.07342 8.91614C2.02447 9.13309 2 9.41844 2 9.77221V14.2478C2 14.5949 2.02447 14.8753 2.07342 15.0889C2.12236 15.3025 2.20122 15.4794 2.30999 15.6195C2.42419 15.7597 2.56966 15.8582 2.74641 15.9149C2.92315 15.9716 3.1502 16 3.42755 16Z" fill="black" fill-opacity="0.8"/>
</svg>
