<svg width="24" height="24" viewBox="0 0 24 24" fill="none" xmlns="http://www.w3.org/2000/svg">
<path d="M0.805051 20H1.37333C1.61326 20 1.80742 19.9273 1.9558 19.7819C2.10418 19.6364 2.17837 19.4404 2.17837 19.1938V17.7901C2.2352 17.8028 2.32833 17.8139 2.45777 17.8234C2.58722 17.8328 2.70876 17.8375 2.82242 17.8375H21.1775C21.2912 17.8375 21.4143 17.8328 21.547 17.8234C21.6796 17.8139 21.7711 17.8028 21.8216 17.7901V19.1938C21.8216 19.4404 21.8958 19.6364 22.0442 19.7819C22.1926 19.9273 22.3868 20 22.6267 20H23.1949C23.4412 20 23.637 19.9273 23.7822 19.7819C23.9274 19.6364 24 19.4404 24 19.1938V12.6971C24 11.7929 23.7616 11.1022 23.2849 10.6248C22.8082 10.1474 22.1152 9.90871 21.206 9.90871H2.794C1.89108 9.90871 1.19969 10.1474 0.719811 10.6248C0.239937 11.1022 0 11.7929 0 12.6971V19.1938C0 19.4404 0.0726123 19.6364 0.217837 19.7819C0.363062 19.9273 0.5588 20 0.805051 20ZM1.89423 16.4529C1.67955 16.4529 1.57221 16.3296 1.57221 16.083V12.479C1.57221 12.1186 1.68271 11.8309 1.90371 11.6159C2.12471 11.4009 2.41831 11.2934 2.78453 11.2934H21.225C21.5912 11.2934 21.8832 11.4009 22.101 11.6159C22.3189 11.8309 22.4278 12.1186 22.4278 12.479V16.083C22.4278 16.3296 22.3204 16.4529 22.1058 16.4529H1.89423ZM2.46251 10.1079H4.95343V8.15412C4.95343 7.71785 5.0734 7.38115 5.31334 7.14404C5.55328 6.90693 5.8974 6.78838 6.3457 6.78838H9.67008C10.1121 6.78838 10.453 6.90693 10.693 7.14404C10.9329 7.38115 11.0529 7.71785 11.0529 8.15412V10.1079H12.9471V8.15412C12.9471 7.71785 13.0671 7.38115 13.307 7.14404C13.547 6.90693 13.8879 6.78838 14.3299 6.78838H17.6543C18.1026 6.78838 18.4467 6.90693 18.6867 7.14404C18.9266 7.38115 19.0466 7.71785 19.0466 8.15412V10.1079H21.5375V6.65561C21.5375 5.77672 21.3102 5.1144 20.8556 4.66864C20.401 4.22288 19.7474 4 18.895 4H5.10497C4.25888 4 3.60695 4.22288 3.14917 4.66864C2.69139 5.1144 2.46251 5.77672 2.46251 6.65561V10.1079Z" fill="#00C7BE"/>
</svg>
