<svg width="24" height="24" viewBox="0 0 24 24" fill="none" xmlns="http://www.w3.org/2000/svg">
<path d="M2 10H4.47082V8.47619C4.47082 7.98237 4.59403 7.60494 4.84046 7.34392C5.0869 7.08289 5.44034 6.95238 5.90078 6.95238H9.52917C9.98961 6.95238 10.3414 7.08289 10.5846 7.34392C10.8278 7.60494 10.9494 7.98237 10.9494 8.47619V10H13.1576V8.47619C13.1576 7.98237 13.2824 7.60494 13.5321 7.34392C13.7818 7.08289 14.1498 6.95238 14.6362 6.95238H18.0409C18.5272 6.95238 18.8953 7.08289 19.145 7.34392C19.3946 7.60494 19.5194 7.98237 19.5194 8.47619V10H22V6.96297C22 5.98236 21.7649 5.24338 21.2948 4.74603C20.8246 4.24868 20.155 4 19.286 4H4.714C3.83852 4 3.16732 4.24868 2.70039 4.74603C2.23346 5.24338 2 5.98236 2 6.96297V10Z" fill="#00C7BE"/>
<path d="M0 19.217C0 19.4565 0.0726123 19.6469 0.217837 19.7881C0.363062 19.9294 0.5588 20 0.805051 20H1.37333C1.61326 20 1.80742 19.9294 1.9558 19.7881C2.10418 19.6469 2.17837 19.4565 2.17837 19.217V17.8536C2.2352 17.8659 2.32833 17.8767 2.45777 17.8859C2.58722 17.8951 2.70876 17.8997 2.82242 17.8997H21.1775C21.2912 17.8997 21.4144 17.8951 21.547 17.8859C21.6796 17.8767 21.7711 17.8659 21.8216 17.8536V19.217C21.8216 19.4565 21.8958 19.6469 22.0442 19.7881C22.1926 19.9294 22.3868 20 22.6267 20H23.1949C23.4412 20 23.637 19.9294 23.7822 19.7881C23.9274 19.6469 24 19.4565 24 19.217V13.7267C24 12.8485 23.7585 12.1745 23.2754 11.7047C22.7924 11.2349 22.0963 11 21.187 11H2.81294C1.91003 11 1.21547 11.2349 0.729281 11.7047C0.243094 12.1745 0 12.8485 0 13.7267V19.217Z" fill="#00C7BE"/>
</svg>
