<svg width="24" height="24" viewBox="0 0 24 24" fill="none" xmlns="http://www.w3.org/2000/svg">
<path d="M10.648 22C11.1671 22 11.6298 21.8843 12.0359 21.653C12.4421 21.4217 12.7703 21.1184 13.0207 20.7432C13.2711 20.368 13.4177 19.9616 13.4605 19.5239H7.83558C7.87833 19.9616 8.02338 20.368 8.27073 20.7432C8.51808 21.1184 8.84636 21.4217 9.25555 21.653C9.66474 21.8843 10.1289 22 10.648 22ZM3.38332 18.239H17.9035C18.3372 18.239 18.6762 18.1358 18.9204 17.9295C19.1647 17.7231 19.2869 17.448 19.2869 17.1041C19.2869 16.7915 19.1983 16.4882 19.0212 16.1943C18.8441 15.9004 18.6227 15.6128 18.357 15.3314C18.0914 15.05 17.8272 14.7687 17.5646 14.4873C17.2837 14.1934 17.0837 13.7885 16.9645 13.2727C16.8454 12.7569 16.7767 12.2613 16.7584 11.7861C16.7584 11.6923 16.7584 11.6032 16.7584 11.5187C16.7584 11.4343 16.7554 11.3484 16.7493 11.2609C16.5783 11.3421 16.3889 11.3827 16.1813 11.3827C15.7171 11.3827 15.311 11.2452 14.9629 10.9701C14.6148 10.695 14.3857 10.3448 14.2758 9.91962L14.2483 9.72266C14.2178 9.73516 14.1842 9.7461 14.1475 9.75548C14.1109 9.76486 14.0742 9.76955 14.0376 9.76955C13.5857 9.76955 13.1826 9.62887 12.8284 9.34749C12.4742 9.06611 12.239 8.71596 12.1229 8.29702L12.1046 8.13757C12.068 8.15633 12.0314 8.16884 11.9947 8.17509C11.9581 8.18134 11.9183 8.18447 11.8756 8.18447C11.5092 8.18447 11.1748 8.09224 10.8725 7.90778C10.5702 7.72333 10.3304 7.4779 10.1533 7.17151C9.97621 6.86513 9.88766 6.52435 9.88766 6.14918V4.72354C9.88766 4.34212 9.97621 3.99665 10.1533 3.68714C10.3304 3.37762 10.5702 3.13064 10.8725 2.94619C11.1748 2.76173 11.5092 2.6695 11.8756 2.6695C11.8939 2.6695 11.9153 2.6695 11.9397 2.6695C11.9642 2.6695 11.9856 2.67262 12.0039 2.67888L12.013 2.64136C11.8176 2.52256 11.6053 2.42877 11.3763 2.35999C11.1473 2.2912 10.9045 2.25681 10.648 2.25681C9.97011 2.25681 9.40213 2.46941 8.94407 2.8946C8.48602 3.31979 8.17149 3.83877 8.00048 4.45155C7.18821 4.75168 6.53472 5.22064 6.04002 5.85842C5.54532 6.49621 5.18193 7.28407 4.94986 8.22198C4.71778 9.15991 4.58952 10.2291 4.5651 11.4297C4.54066 11.7924 4.50249 12.1675 4.45057 12.5551C4.39867 12.9428 4.31622 13.3086 4.20323 13.6525C4.09024 13.9964 3.93298 14.2747 3.73143 14.4873C3.46272 14.7687 3.19552 15.05 2.92985 15.3314C2.66418 15.6128 2.44278 15.9004 2.26567 16.1943C2.08856 16.4882 2 16.7915 2 17.1041C2 17.448 2.12215 17.7231 2.36644 17.9295C2.61074 18.1358 2.9497 18.239 3.38332 18.239ZM11.8756 6.66504C12.0283 6.66504 12.155 6.61502 12.2558 6.51497C12.3566 6.41493 12.407 6.293 12.407 6.14918V4.72354C12.407 4.57348 12.3566 4.44686 12.2558 4.34369C12.155 4.24051 12.0283 4.18893 11.8756 4.18893C11.7351 4.18893 11.616 4.24051 11.5183 4.34369C11.4206 4.44686 11.3717 4.57348 11.3717 4.72354V6.14918C11.3717 6.293 11.4206 6.41493 11.5183 6.51497C11.616 6.61502 11.7351 6.66504 11.8756 6.66504ZM14.0376 8.24074C14.1842 8.24074 14.3063 8.19072 14.4041 8.09067C14.5018 7.99063 14.5506 7.86245 14.5506 7.70613V3.14784C14.5506 3.00402 14.5018 2.88053 14.4041 2.77736C14.3063 2.67419 14.1842 2.6226 14.0376 2.6226C13.8911 2.6226 13.7674 2.67419 13.6666 2.77736C13.5658 2.88053 13.5154 3.00402 13.5154 3.14784V7.70613C13.5154 7.86245 13.5658 7.99063 13.6666 8.09067C13.7674 8.19072 13.8911 8.24074 14.0376 8.24074ZM16.1813 9.86335C16.3279 9.86335 16.4516 9.81333 16.5523 9.71328C16.6531 9.61324 16.7035 9.48818 16.7035 9.33811V1.54399C16.7035 1.38767 16.6531 1.25793 16.5523 1.15476C16.4516 1.05159 16.3279 1 16.1813 1C16.0408 1 15.9202 1.05159 15.8194 1.15476C15.7186 1.25793 15.6683 1.38767 15.6683 1.54399V9.33811C15.6683 9.48818 15.7171 9.61324 15.8149 9.71328C15.9126 9.81333 16.0347 9.86335 16.1813 9.86335ZM18.3249 8.93481C18.4715 8.93481 18.5952 8.88322 18.696 8.78005C18.7968 8.67688 18.8472 8.55026 18.8472 8.40019V2.45377C18.8472 2.30996 18.7968 2.18803 18.696 2.08799C18.5952 1.98794 18.4715 1.93792 18.3249 1.93792C18.1845 1.93792 18.0639 1.98794 17.9631 2.08799C17.8624 2.18803 17.812 2.30996 17.812 2.45377V8.40019C17.812 8.55026 17.8624 8.67688 17.9631 8.78005C18.0639 8.88322 18.1845 8.93481 18.3249 8.93481ZM20.4779 7.16214C20.6305 7.16214 20.7557 7.11212 20.8535 7.01207C20.9512 6.91203 21 6.78697 21 6.6369V4.22645C21 4.07638 20.9512 3.95132 20.8535 3.85128C20.7557 3.75123 20.6305 3.70121 20.4779 3.70121C20.3374 3.70121 20.2168 3.75279 20.1159 3.85596C20.0152 3.95914 19.9648 4.08264 19.9648 4.22645V6.6369C19.9648 6.78071 20.0152 6.90421 20.1159 7.00738C20.2168 7.11055 20.3374 7.16214 20.4779 7.16214Z" fill="black" fill-opacity="0.8"/>
</svg>
