<svg width="24" height="24" viewBox="0 0 24 24" fill="none" xmlns="http://www.w3.org/2000/svg">
<path d="M4.44038 18.19H19.5596C20.0112 18.19 20.3641 18.0855 20.6185 17.8766C20.8728 17.6675 21 17.3888 21 17.0404C21 16.7237 20.9078 16.4165 20.7234 16.1188C20.539 15.8211 20.3084 15.5297 20.0318 15.2447C19.7552 14.9596 19.4801 14.6746 19.2067 14.3896C18.9968 14.1742 18.8331 13.8923 18.7155 13.5439C18.5978 13.1956 18.5104 12.825 18.4531 12.4324C18.3959 12.0396 18.3546 11.6596 18.3292 11.2922C18.3101 10.076 18.1781 8.99289 17.9333 8.04277C17.6884 7.09264 17.3084 6.29454 16.7934 5.64846C16.2783 5.00238 15.5978 4.52732 14.752 4.22329C14.5739 3.60253 14.2464 3.0768 13.7695 2.64608C13.2926 2.21536 12.7011 2 11.9952 2C11.2957 2 10.7075 2.21536 10.2305 2.64608C9.75359 3.0768 9.42608 3.60253 9.24802 4.22329C8.40224 4.52732 7.7202 5.00238 7.20192 5.64846C6.68363 6.29454 6.30366 7.09264 6.06201 8.04277C5.82036 8.99289 5.68999 10.076 5.67092 11.2922C5.64547 11.6596 5.60414 12.0396 5.5469 12.4324C5.48967 12.825 5.40223 13.1956 5.28459 13.5439C5.16693 13.8923 5.00318 14.1742 4.79333 14.3896C4.51988 14.6746 4.24484 14.9596 3.96821 15.2447C3.69158 15.5297 3.46105 15.8211 3.27663 16.1188C3.09221 16.4165 3 16.7237 3 17.0404C3 17.3888 3.12719 17.6675 3.38156 17.8766C3.63593 18.0855 3.98887 18.19 4.44038 18.19ZM11.9952 22C12.5358 22 13.0191 21.8828 13.4452 21.6485C13.8713 21.4141 14.2131 21.1069 14.4706 20.7268C14.7282 20.3468 14.8792 19.9351 14.9237 19.4917H9.07632C9.11448 19.9351 9.26393 20.3468 9.52466 20.7268C9.78539 21.1069 10.1288 21.4141 10.5549 21.6485C10.9809 21.8828 11.4611 22 11.9952 22Z" fill="#FF3B30"/>
</svg>
