<svg width="24" height="24" viewBox="0 0 24 24" fill="none" xmlns="http://www.w3.org/2000/svg">
<path d="M11.7138 22C12.2369 22 12.703 21.8828 13.1123 21.6485C13.5215 21.4141 13.8523 21.1069 14.1046 20.7268C14.3569 20.3468 14.5046 19.9351 14.5477 19.4917H8.87999C8.92306 19.9351 9.06922 20.3468 9.31845 20.7268C9.56768 21.1069 9.89845 21.4141 10.3108 21.6485C10.7231 21.8828 11.1908 22 11.7138 22ZM4.39384 18.19H15.5353L5.90769 8.27079C5.80307 8.72052 5.72461 9.19716 5.6723 9.70073C5.62 10.2043 5.59077 10.7348 5.58462 11.2922C5.56 11.6596 5.52153 12.0396 5.46922 12.4324C5.41692 12.825 5.33384 13.1956 5.21999 13.5439C5.10615 13.8923 4.94769 14.1742 4.74461 14.3896C4.47385 14.6746 4.20462 14.9596 3.93692 15.2447C3.66923 15.5297 3.44615 15.8211 3.26769 16.1188C3.08923 16.4165 3 16.7237 3 17.0404C3 17.3888 3.12308 17.6675 3.36923 17.8766C3.61538 18.0855 3.95692 18.19 4.39384 18.19ZM11.7138 2C11.0308 2 10.4585 2.21536 9.99691 2.64608C9.53537 3.0768 9.21845 3.60253 9.04614 4.22329C8.80614 4.30563 8.57999 4.40697 8.36768 4.52732C8.15538 4.64767 7.95692 4.78385 7.7723 4.93587L20.1877 17.734C20.3415 17.5503 20.4184 17.3191 20.4184 17.0404C20.4184 16.7237 20.3292 16.4165 20.1507 16.1188C19.9723 15.8211 19.7492 15.5297 19.4815 15.2447C19.2138 14.9596 18.9477 14.6746 18.6831 14.3896C18.48 14.1742 18.3215 13.8923 18.2077 13.5439C18.0938 13.1956 18.0092 12.825 17.9538 12.4324C17.8984 12.0396 17.8615 11.6596 17.843 11.2922C17.8185 10.076 17.6892 8.99289 17.4554 8.04277C17.2215 7.09264 16.8554 6.29454 16.3569 5.64846C15.8584 5.00238 15.1999 4.52732 14.3815 4.22329C14.203 3.60253 13.8831 3.0768 13.4215 2.64608C12.96 2.21536 12.3908 2 11.7138 2ZM3.20308 3.92874L19.7908 20.9834C19.9261 21.1228 20.0938 21.1925 20.2938 21.1925C20.4938 21.1925 20.6615 21.1228 20.7969 20.9834C20.9323 20.8377 21 20.6635 21 20.4608C21 20.2581 20.9323 20.0871 20.7969 19.9478L4.21846 2.89311C4.08308 2.75376 3.91538 2.68409 3.71538 2.68409C3.51538 2.68409 3.34461 2.75376 3.20308 2.89311C3.06769 3.03246 3 3.20507 3 3.41093C3 3.61679 3.06769 3.78939 3.20308 3.92874Z" fill="black" fill-opacity="0.8"/>
</svg>
