<svg width="24" height="24" viewBox="0 0 24 24" fill="none" xmlns="http://www.w3.org/2000/svg">
<path d="M11.7323 22C12.3538 22 12.9108 21.85 13.4031 21.5499C13.8954 21.2498 14.2923 20.8512 14.5938 20.3543C14.8953 19.8574 15.0738 19.3088 15.1292 18.7086H15.7292L14.1322 17.0339H4.81846V16.9177C4.87384 16.8273 4.96461 16.7063 5.09076 16.5547C5.21692 16.403 5.36307 16.2368 5.52923 16.0561C5.69538 15.8754 5.85846 15.6915 6.01846 15.5043C6.18461 15.3107 6.32922 15.0865 6.4523 14.8315C6.57538 14.5766 6.68 14.2878 6.76615 13.9651C6.8523 13.6424 6.91999 13.2842 6.96923 12.8906C7.01845 12.4969 7.0523 12.0645 7.07076 11.5934C7.07692 11.2578 7.0923 10.9384 7.11692 10.635C7.14153 10.3317 7.1723 10.0445 7.20922 9.77347L5.91692 8.41819C5.81846 8.85704 5.74307 9.33139 5.69077 9.84124C5.63846 10.3511 5.60923 10.8932 5.60308 11.4676C5.57846 11.8419 5.53845 12.2291 5.48307 12.6293C5.42769 13.0294 5.34461 13.4069 5.23384 13.7618C5.12307 14.1168 4.96615 14.404 4.76307 14.6234C4.49231 14.9138 4.22308 15.2042 3.95538 15.4947C3.68769 15.7851 3.46461 16.0819 3.28615 16.3853C3.10769 16.6886 3.01846 17.0016 3.01846 17.3243C3.01846 17.6792 3.14154 17.9632 3.38769 18.1762C3.63384 18.3891 3.97846 18.4956 4.42154 18.4956H8.30768C8.3323 19.1216 8.49384 19.6993 8.7923 20.2285C9.09076 20.7577 9.49229 21.1852 9.99691 21.5111C10.5015 21.837 11.08 22 11.7323 22ZM11.7323 20.635C11.1723 20.635 10.7108 20.443 10.3477 20.0591C9.98461 19.675 9.78461 19.1539 9.74768 18.4956H13.7077C13.6769 19.1539 13.4784 19.675 13.1123 20.0591C12.7461 20.443 12.2861 20.635 11.7323 20.635ZM7.7723 5.00096L8.83384 6.11423C8.99999 5.98515 9.17384 5.87544 9.35537 5.78509C9.53691 5.69474 9.72922 5.62052 9.93229 5.56244C10.0431 5.53662 10.1308 5.48983 10.1954 5.42207C10.26 5.35431 10.2923 5.25911 10.2923 5.13649C10.3108 4.6331 10.4477 4.22168 10.7031 3.90223C10.9584 3.58277 11.3015 3.42304 11.7323 3.42304C12.1569 3.42304 12.4969 3.58277 12.7523 3.90223C13.0077 4.22168 13.1446 4.6331 13.1631 5.13649C13.1692 5.25911 13.2031 5.35431 13.2646 5.42207C13.3261 5.48983 13.4154 5.53662 13.5323 5.56244C14.0677 5.71732 14.5492 6.00451 14.9769 6.424C15.4046 6.8435 15.7477 7.48403 16.0062 8.34559C16.2646 9.20716 16.403 10.3737 16.4215 11.8451C16.44 12.2387 16.4646 12.5872 16.4953 12.8906C16.5261 13.1939 16.5708 13.4666 16.6292 13.7086C16.6876 13.9506 16.7723 14.1813 16.8831 14.4008L20.16 17.9439C20.32 17.7502 20.4 17.5147 20.4 17.2372C20.4 16.85 20.2446 16.474 19.9338 16.1094C19.6231 15.7447 19.3015 15.3849 18.9692 15.03C18.7784 14.8106 18.6169 14.5831 18.4846 14.3476C18.3523 14.112 18.2446 13.8635 18.1615 13.6021C18.0784 13.3407 18.0153 13.0616 17.9722 12.7648C17.9292 12.4679 17.9015 12.1485 17.8893 11.8064C17.8646 9.74765 17.5846 8.09228 17.0492 6.84026C16.5138 5.58825 15.6308 4.72991 14.3999 4.26525C14.2399 3.63278 13.9246 3.09712 13.4539 2.65828C12.9831 2.21943 12.4092 2 11.7323 2C11.0492 2 10.4723 2.21943 10.0015 2.65828C9.53076 3.09712 9.21846 3.63278 9.06461 4.26525C8.81845 4.34914 8.58768 4.45402 8.3723 4.57986C8.15692 4.70571 7.95692 4.84608 7.7723 5.00096ZM3.20308 3.96515L19.7908 21.3417C19.9261 21.4837 20.0938 21.5547 20.2938 21.5547C20.4938 21.5547 20.6615 21.4837 20.7969 21.3417C20.9323 21.1933 21 21.0158 21 20.8093C21 20.6027 20.9323 20.4285 20.7969 20.2866L4.21846 2.90997C4.08308 2.76799 3.91538 2.697 3.71538 2.697C3.51538 2.697 3.34461 2.76799 3.20308 2.90997C3.06769 3.05195 3 3.22781 3 3.43756C3 3.64731 3.06769 3.82317 3.20308 3.96515Z" fill="black" fill-opacity="0.8"/>
</svg>
