<svg width="24" height="24" viewBox="0 0 24 24" fill="none" xmlns="http://www.w3.org/2000/svg">
<path d="M11.6389 22C12.2862 22 12.8603 21.8409 13.3611 21.5227C13.8619 21.2045 14.2604 20.7829 14.5566 20.2579C14.8529 19.7329 15.0132 19.1618 15.0376 18.5445H18.9035C19.3372 18.5445 19.6762 18.4395 19.9204 18.2296C20.1647 18.0196 20.2869 17.7395 20.2869 17.3895C20.2869 17.0714 20.1983 16.7627 20.0212 16.4636C19.8441 16.1645 19.6227 15.8718 19.357 15.5855C19.0914 15.2991 18.8272 15.0127 18.5646 14.7264C18.2837 14.4273 18.0837 14.0168 17.9645 13.495C17.8454 12.9732 17.7767 12.4673 17.7584 11.9773C17.7584 11.8818 17.7569 11.7911 17.7538 11.7052C17.7508 11.6193 17.7493 11.5318 17.7493 11.4427C17.4867 11.4936 17.2362 11.5095 16.9981 11.4904C16.7599 11.4713 16.5217 11.3854 16.2836 11.2328C16.2896 11.3727 16.2942 11.5143 16.2973 11.6575C16.3003 11.8006 16.3049 11.9486 16.311 12.1013C16.3232 12.6868 16.3705 13.1975 16.453 13.6334C16.5355 14.0693 16.65 14.4464 16.7965 14.7645C16.9431 15.0827 17.1141 15.3595 17.3095 15.5949C17.4745 15.7795 17.6378 15.9609 17.7997 16.1391C17.9615 16.3172 18.1051 16.4811 18.2303 16.6307C18.3554 16.7802 18.4455 16.8995 18.5005 16.9886V17.1032H4.77724V16.9886C4.83221 16.8995 4.92382 16.7802 5.05207 16.6307C5.18033 16.4811 5.32538 16.3172 5.48723 16.1391C5.64907 15.9609 5.80939 15.7795 5.96818 15.5949C6.13307 15.4041 6.2766 15.1829 6.39875 14.9315C6.5209 14.6802 6.62472 14.3954 6.71022 14.0773C6.79573 13.7591 6.86291 13.4059 6.91176 13.0177C6.96063 12.6295 6.99727 12.2031 7.0217 11.7386C7.04613 10.3513 7.18354 9.25044 7.43394 8.4359C7.68434 7.62135 8.01872 7.01522 8.43708 6.61749C8.85543 6.21977 9.32723 5.94454 9.85246 5.79181C9.9685 5.76636 10.0586 5.72022 10.1227 5.6534C10.1868 5.58658 10.2189 5.49272 10.2189 5.37182C10.2372 4.98363 10.3319 4.65749 10.5029 4.39341C10.6739 4.12932 10.8815 3.95591 11.1258 3.87318C11.2297 3.64409 11.3686 3.44204 11.5427 3.26705C11.7167 3.09204 11.9168 2.95363 12.1427 2.85181C12.3687 2.75 12.613 2.69909 12.8756 2.69909C12.955 2.69909 13.0222 2.70545 13.0772 2.71818C13.0772 2.71182 13.0772 2.70704 13.0772 2.70386C13.0772 2.70068 13.0772 2.69591 13.0772 2.68955C12.8756 2.56864 12.6527 2.47 12.4084 2.39363C12.1641 2.31727 11.9076 2.27909 11.6389 2.27909C10.9671 2.27909 10.3975 2.49545 9.93033 2.92818C9.46312 3.36091 9.15316 3.88909 9.00048 4.51272C8.18821 4.81818 7.53319 5.28909 7.03544 5.92545C6.53769 6.56181 6.17278 7.35567 5.9407 8.30704C5.70862 9.2584 5.58341 10.3609 5.5651 11.6146C5.54066 11.9836 5.50096 12.3654 5.446 12.7599C5.39103 13.1545 5.30706 13.5268 5.19407 13.8768C5.08108 14.2268 4.92382 14.51 4.72228 14.7264C4.45966 15.0127 4.19552 15.2991 3.92985 15.5855C3.66418 15.8718 3.44278 16.1645 3.26567 16.4636C3.08856 16.7627 3 17.0714 3 17.3895C3 17.7395 3.12215 18.0196 3.36644 18.2296C3.61074 18.4395 3.9497 18.5445 4.38332 18.5445H8.24928C8.27371 19.1618 8.43403 19.7314 8.73023 20.2532C9.02644 20.775 9.42494 21.1965 9.92575 21.5179C10.4265 21.8393 10.9976 22 11.6389 22ZM11.6389 20.654C11.0892 20.654 10.6327 20.4647 10.2693 20.0861C9.9059 19.7075 9.70894 19.1936 9.6784 18.5445H13.6085C13.5718 19.1936 13.3733 19.7075 13.013 20.0861C12.6527 20.4647 12.1947 20.654 11.6389 20.654ZM12.8756 6.76545C13.0283 6.76545 13.155 6.71454 13.2558 6.61272C13.3566 6.5109 13.407 6.38681 13.407 6.24045V4.78954C13.407 4.63681 13.3566 4.50795 13.2558 4.40296C13.155 4.29795 13.0283 4.24545 12.8756 4.24545C12.7351 4.24545 12.616 4.29795 12.5183 4.40296C12.4206 4.50795 12.3717 4.63681 12.3717 4.78954V6.24045C12.3717 6.38681 12.4206 6.5109 12.5183 6.61272C12.616 6.71454 12.7351 6.76545 12.8756 6.76545ZM15.0376 8.36908C15.1842 8.36908 15.3063 8.31817 15.4041 8.21635C15.5018 8.11453 15.5506 7.98408 15.5506 7.82499V3.18591C15.5506 3.03954 15.5018 2.91386 15.4041 2.80887C15.3063 2.70386 15.1842 2.65136 15.0376 2.65136C14.8911 2.65136 14.7674 2.70386 14.6666 2.80887C14.5658 2.91386 14.5154 3.03954 14.5154 3.18591V7.82499C14.5154 7.98408 14.5658 8.11453 14.6666 8.21635C14.7674 8.31817 14.8911 8.36908 15.0376 8.36908ZM17.1813 10.0204C17.3279 10.0204 17.4516 9.96954 17.5523 9.86772C17.6531 9.7659 17.7035 9.63863 17.7035 9.4859V1.55364C17.7035 1.39455 17.6531 1.2625 17.5523 1.1575C17.4516 1.0525 17.3279 1 17.1813 1C17.0408 1 16.9202 1.0525 16.8194 1.1575C16.7186 1.2625 16.6683 1.39455 16.6683 1.55364V9.4859C16.6683 9.63863 16.7171 9.7659 16.8149 9.86772C16.9126 9.96954 17.0347 10.0204 17.1813 10.0204ZM19.3249 9.07545C19.4715 9.07545 19.5952 9.02295 19.696 8.91795C19.7968 8.81294 19.8472 8.68408 19.8472 8.53136V2.47954C19.8472 2.33318 19.7968 2.20909 19.696 2.10727C19.5952 2.00545 19.4715 1.95454 19.3249 1.95454C19.1845 1.95454 19.0639 2.00545 18.9631 2.10727C18.8624 2.20909 18.812 2.33318 18.812 2.47954V8.53136C18.812 8.68408 18.8624 8.81294 18.9631 8.91795C19.0639 9.02295 19.1845 9.07545 19.3249 9.07545ZM21.4779 7.27136C21.6305 7.27136 21.7557 7.22045 21.8535 7.11863C21.9512 7.01682 22 6.88954 22 6.73681V4.28364C22 4.13091 21.9512 4.00363 21.8535 3.90181C21.7557 3.8 21.6305 3.74909 21.4779 3.74909C21.3374 3.74909 21.2168 3.80159 21.1159 3.90658C21.0152 4.01159 20.9648 4.13727 20.9648 4.28364V6.73681C20.9648 6.88317 21.0152 7.00886 21.1159 7.11385C21.2168 7.21886 21.3374 7.27136 21.4779 7.27136Z" fill="black" fill-opacity="0.8"/>
</svg>
