<svg width="24" height="24" viewBox="0 0 24 24" fill="none" xmlns="http://www.w3.org/2000/svg">
<path d="M3 17.3243C3 17.6792 3.12719 17.9632 3.38156 18.1762C3.63593 18.3891 3.98887 18.4956 4.44038 18.4956H8.46583C8.49127 19.1216 8.6582 19.6993 8.96663 20.2285C9.27505 20.7577 9.68999 21.1852 10.2115 21.5111C10.7329 21.837 11.3275 22 11.9952 22C12.6693 22 13.2671 21.8387 13.7886 21.516C14.31 21.1933 14.725 20.7657 15.0334 20.2333C15.3418 19.7009 15.5088 19.1216 15.5342 18.4956H19.5596C20.0112 18.4956 20.3641 18.3891 20.6185 18.1762C20.8728 17.9632 21 17.6792 21 17.3243C21 17.0016 20.9078 16.6886 20.7234 16.3853C20.539 16.0819 20.3084 15.7851 20.0318 15.4947C19.7552 15.2042 19.4801 14.9138 19.2067 14.6234C18.9968 14.404 18.8331 14.1168 18.7155 13.7618C18.5978 13.4069 18.5104 13.0294 18.4531 12.6293C18.3959 12.2291 18.3546 11.8419 18.3292 11.4676C18.3101 10.1962 18.1781 9.07808 17.9333 8.11325C17.6884 7.14843 17.3084 6.34333 16.7934 5.69796C16.2783 5.0526 15.5978 4.57503 14.752 4.26525C14.593 3.63278 14.2703 3.09712 13.7838 2.65828C13.2973 2.21943 12.7011 2 11.9952 2C11.2957 2 10.7027 2.21943 10.2162 2.65828C9.72974 3.09712 9.407 3.63278 9.24802 4.26525C8.40224 4.57503 7.7202 5.0526 7.20192 5.69796C6.68363 6.34333 6.30366 7.14843 6.06201 8.11325C5.82036 9.07808 5.68999 10.1962 5.67092 11.4676C5.64547 11.8419 5.60414 12.2291 5.5469 12.6293C5.48967 13.0294 5.40223 13.4069 5.28459 13.7618C5.16693 14.1168 5.00318 14.404 4.79333 14.6234C4.51988 14.9138 4.24484 15.2042 3.96821 15.4947C3.69158 15.7851 3.46105 16.0819 3.27663 16.3853C3.09221 16.6886 3 17.0016 3 17.3243ZM4.85056 17.0339V16.9177C4.90779 16.8273 5.00318 16.7063 5.13673 16.5547C5.27028 16.403 5.42131 16.2368 5.58983 16.0561C5.75836 15.8754 5.92529 15.6915 6.09062 15.5043C6.26232 15.3107 6.41177 15.0865 6.53896 14.8315C6.66614 14.5766 6.77425 14.2878 6.86328 13.9651C6.95232 13.6424 7.02227 13.2842 7.07314 12.8906C7.12402 12.4969 7.16217 12.0645 7.18761 11.5934C7.21304 10.1865 7.35613 9.07002 7.61686 8.24395C7.87759 7.41787 8.22576 6.80316 8.66138 6.39981C9.09699 5.99644 9.58825 5.71732 10.1352 5.56244C10.256 5.53662 10.3482 5.48983 10.4118 5.42207C10.4754 5.35431 10.5103 5.25911 10.5167 5.13649C10.5358 4.6331 10.6773 4.22168 10.9412 3.90223C11.2051 3.58277 11.5565 3.42304 11.9952 3.42304C12.4404 3.42304 12.7949 3.58277 13.0589 3.90223C13.3228 4.22168 13.4642 4.6331 13.4833 5.13649C13.4833 5.25911 13.5167 5.35431 13.5835 5.42207C13.6503 5.48983 13.7409 5.53662 13.8554 5.56244C14.4022 5.71732 14.8935 5.99644 15.3291 6.39981C15.7647 6.80316 16.1145 7.41787 16.3784 8.24395C16.6423 9.07002 16.787 10.1865 16.8124 11.5934C16.8315 12.0645 16.868 12.4969 16.9221 12.8906C16.9761 13.2842 17.0461 13.6424 17.132 13.9651C17.2178 14.2878 17.3243 14.5766 17.4515 14.8315C17.5787 15.0865 17.7281 15.3107 17.8999 15.5043C18.0716 15.6915 18.2417 15.8754 18.4102 16.0561C18.5788 16.2368 18.7282 16.403 18.8586 16.5547C18.9889 16.7063 19.0827 16.8273 19.1399 16.9177V17.0339H4.85056ZM9.95391 18.4956H14.0461C14.008 19.1539 13.8013 19.675 13.4261 20.0591C13.0509 20.443 12.574 20.635 11.9952 20.635C11.4229 20.635 10.9476 20.443 10.5692 20.0591C10.1908 19.675 9.98571 19.1539 9.95391 18.4956Z" fill="#FF3B30"/>
</svg>
