<svg width="24" height="24" viewBox="0 0 24 24" fill="none" xmlns="http://www.w3.org/2000/svg">
<path d="M3 17.3243C3 17.6793 3.12719 17.9633 3.38156 18.1762C3.63593 18.3892 3.98887 18.4957 4.44038 18.4957H8.46583C8.49127 19.1217 8.6582 19.6993 8.96663 20.2285C9.27505 20.7577 9.68999 21.1853 10.2115 21.5112C10.7329 21.8371 11.3275 22 11.9952 22C12.6693 22 13.2671 21.8371 13.7886 21.5112C14.31 21.1853 14.725 20.7577 15.0334 20.2285C15.3418 19.6993 15.5088 19.1217 15.5342 18.4957H19.5596C20.0112 18.4957 20.3641 18.3892 20.6185 18.1762C20.8728 17.9633 21 17.6793 21 17.3243C21 17.0017 20.9078 16.6887 20.7234 16.3853C20.539 16.082 20.3084 15.7851 20.0318 15.4947C19.7552 15.2043 19.4801 14.9139 19.2067 14.6234C18.9968 14.404 18.8331 14.1168 18.7155 13.7619C18.5978 13.4069 18.5104 13.0294 18.4531 12.6292C18.3959 12.2291 18.3546 11.8419 18.3292 11.4676C18.3228 11.1514 18.31 10.8432 18.291 10.5431C18.2719 10.243 18.2465 9.95096 18.2147 9.667C17.9921 9.738 17.7425 9.79447 17.4659 9.83641C17.1892 9.87836 16.9365 9.89289 16.7075 9.87998C16.733 10.1317 16.7552 10.3995 16.7743 10.6835C16.7934 10.9674 16.8061 11.2707 16.8124 11.5934C16.8315 12.0646 16.868 12.497 16.9221 12.8906C16.9761 13.2843 17.0461 13.6425 17.132 13.9652C17.2178 14.2879 17.3243 14.5767 17.4515 14.8316C17.5787 15.0865 17.7281 15.3107 17.8999 15.5044C18.0716 15.6915 18.2417 15.8754 18.4102 16.0561C18.5788 16.2369 18.7282 16.4031 18.8586 16.5547C18.9889 16.7064 19.0827 16.8274 19.1399 16.9178V17.0339H4.85056V16.9178C4.90779 16.8274 5.00318 16.7064 5.13673 16.5547C5.27028 16.4031 5.42131 16.2369 5.58983 16.0561C5.75836 15.8754 5.92529 15.6915 6.09062 15.5044C6.26232 15.3107 6.41177 15.0865 6.53896 14.8316C6.66614 14.5767 6.77425 14.2879 6.86328 13.9652C6.95232 13.6425 7.02227 13.2843 7.07314 12.8906C7.12402 12.497 7.16217 12.0646 7.18761 11.5934C7.21304 10.1865 7.35613 9.07004 7.61686 8.24396C7.87759 7.41789 8.22576 6.80317 8.66138 6.39982C9.09699 5.99646 9.58825 5.71733 10.1352 5.56245C10.256 5.53663 10.3482 5.48985 10.4118 5.42208C10.4754 5.35432 10.5103 5.25912 10.5167 5.1365C10.5358 4.63311 10.6773 4.22169 10.9412 3.90223C11.2051 3.58277 11.5565 3.42305 11.9952 3.42305C12.1797 3.42305 12.3355 3.44886 12.4627 3.50049C12.5517 3.2746 12.6566 3.05841 12.7775 2.85189C12.8983 2.64537 13.035 2.45176 13.1876 2.27106C12.8188 2.09035 12.4213 2 11.9952 2C11.2957 2 10.7027 2.21943 10.2162 2.65828C9.72974 3.09713 9.407 3.63279 9.24802 4.26526C8.40224 4.57503 7.7202 5.05261 7.20192 5.69798C6.68363 6.34335 6.30366 7.14844 6.06201 8.11327C5.82036 9.0781 5.68999 10.1962 5.67092 11.4676C5.64547 11.8419 5.60414 12.2291 5.5469 12.6292C5.48967 13.0294 5.40223 13.4069 5.28459 13.7619C5.16693 14.1168 5.00318 14.404 4.79333 14.6234C4.51988 14.9139 4.24484 15.2043 3.96821 15.4947C3.69158 15.7851 3.46105 16.082 3.27663 16.3853C3.09221 16.6887 3 17.0017 3 17.3243ZM9.95391 18.4957H14.0461C14.008 19.154 13.8013 19.6751 13.4261 20.0591C13.0509 20.4431 12.574 20.6351 11.9952 20.6351C11.4229 20.6351 10.9476 20.4431 10.5692 20.0591C10.1908 19.6751 9.98571 19.154 9.95391 18.4957Z" fill="#8E8E93"/>
<path d="M17.0043 8C17.5469 8 18.0462 7.86455 18.5022 7.59366C18.9582 7.32277 19.3218 6.95966 19.5931 6.50432C19.8644 6.049 20 5.54755 20 5C20 4.45245 19.8644 3.95101 19.5931 3.49568C19.3218 3.04035 18.9582 2.67723 18.5022 2.40634C18.0462 2.13545 17.5469 2 17.0043 2C16.4502 2 15.9466 2.13545 15.4935 2.40634C15.0404 2.67723 14.6782 3.04035 14.4069 3.49568C14.1356 3.95101 14 4.45245 14 5C14 5.54755 14.1356 6.049 14.4069 6.50432C14.6782 6.95966 15.0404 7.32277 15.4935 7.59366C15.9466 7.86455 16.4502 8 17.0043 8Z" fill="#FF3B30"/>
</svg>
