<svg width="24" height="24" viewBox="0 0 24 24" fill="none" xmlns="http://www.w3.org/2000/svg">
<path d="M0 16.372C0 17.2571 0.236585 18.0474 0.709755 18.7429C1.18292 19.4384 1.81434 19.9884 2.604 20.393C3.39366 20.7977 4.26793 21 5.2268 21C6.17941 21 7.05054 20.7977 7.8402 20.393C8.62986 19.9884 9.2597 19.4384 9.72972 18.7429C10.1997 18.0474 10.4348 17.2571 10.4348 16.372V5.89252C10.4348 5.02634 10.1637 4.32771 9.62164 3.79663C9.07953 3.26554 8.35724 3 7.45477 3C6.74658 3 6.12456 3.17071 5.58872 3.51212C5.05288 3.85353 4.65336 4.33403 4.39014 4.95364L0.479437 14.1338C0.291422 14.5828 0.164513 14.9811 0.0987075 15.3288C0.0329025 15.6765 0 16.0243 0 16.372ZM2.80142 12.313L5.66863 5.58904C5.83158 5.20969 6.06503 4.91412 6.36899 4.70232C6.67294 4.49052 7.01607 4.38462 7.39837 4.38462C7.89347 4.38462 8.28987 4.53794 8.58756 4.84457C8.88525 5.15121 9.0341 5.5511 9.0341 6.04426V13.2519C8.56406 12.784 7.99531 12.4157 7.32786 12.147C6.66041 11.8783 5.96006 11.7439 5.2268 11.7439C4.8069 11.7439 4.38857 11.7929 3.97181 11.8909C3.55504 11.9889 3.16491 12.1296 2.80142 12.313ZM1.47591 16.372C1.47591 15.7334 1.64199 15.1739 1.97415 14.6934C2.30631 14.2129 2.75441 13.8383 3.31846 13.5695C3.8825 13.3008 4.51861 13.1665 5.2268 13.1665C5.92872 13.1665 6.56797 13.3008 7.14455 13.5695C7.72112 13.8383 8.17863 14.2129 8.51706 14.6934C8.85548 15.1739 9.02469 15.7334 9.02469 16.372C9.02469 17.0105 8.85548 17.5701 8.51706 18.0506C8.17863 18.5311 7.72269 18.9057 7.14925 19.1744C6.5758 19.4431 5.93499 19.5775 5.2268 19.5775C4.51861 19.5775 3.8825 19.4415 3.31846 19.1696C2.75441 18.8978 2.30631 18.5216 1.97415 18.0411C1.64199 17.5606 1.47591 17.0042 1.47591 16.372ZM24 16.372C24 16.0243 23.9671 15.6765 23.9013 15.3288C23.8355 14.9811 23.7055 14.5828 23.5112 14.1338L19.6099 4.95364C19.3404 4.33403 18.9378 3.85353 18.4019 3.51212C17.866 3.17071 17.2472 3 16.5453 3C15.6428 3 14.9205 3.26554 14.3784 3.79663C13.8363 4.32771 13.5652 5.02634 13.5652 5.89252V16.372C13.5652 17.2571 13.7987 18.0474 14.2656 18.7429C14.7325 19.4384 15.3608 19.9884 16.1504 20.393C16.9401 20.7977 17.8144 21 18.7733 21C19.7321 21 20.6064 20.7977 21.3961 20.393C22.1857 19.9884 22.8171 19.4384 23.2902 18.7429C23.7634 18.0474 24 17.2571 24 16.372ZM21.1986 12.313C20.8289 12.1296 20.4356 11.9889 20.0188 11.8909C19.6021 11.7929 19.1869 11.7439 18.7733 11.7439C18.0337 11.7439 17.3302 11.8783 16.6628 12.147C15.9953 12.4157 15.4266 12.784 14.9565 13.2519V6.04426C14.9565 5.5511 15.1054 5.15121 15.4031 4.84457C15.7007 4.53794 16.1003 4.38462 16.6017 4.38462C16.984 4.38462 17.3255 4.49052 17.6263 4.70232C17.9272 4.91412 18.1591 5.20969 18.322 5.58904L21.1986 12.313ZM22.5148 16.372C22.5148 17.0042 22.3502 17.5606 22.0212 18.0411C21.6922 18.5216 21.2456 18.8978 20.6816 19.1696C20.1176 19.4415 19.4815 19.5775 18.7733 19.5775C18.065 19.5775 17.4242 19.4431 16.8508 19.1744C16.2773 18.9057 15.8214 18.5311 15.483 18.0506C15.1445 17.5701 14.9753 17.0105 14.9753 16.372C14.9753 15.7334 15.1445 15.1739 15.483 14.6934C15.8214 14.2129 16.2773 13.8383 16.8508 13.5695C17.4242 13.3008 18.065 13.1665 18.7733 13.1665C19.4815 13.1665 20.1176 13.3008 20.6816 13.5695C21.2456 13.8383 21.6922 14.2129 22.0212 14.6934C22.3502 15.1739 22.5148 15.7334 22.5148 16.372ZM9.80491 14.2381C10.0744 14.0611 10.4019 13.9204 10.7874 13.8161C11.1727 13.7118 11.5785 13.6596 12.0047 13.6596C13.0075 13.6596 13.7595 13.8462 14.2609 14.2192V12.8061C13.653 12.5469 12.9009 12.4173 12.0047 12.4173C11.6099 12.4173 11.226 12.4552 10.8531 12.5311C10.4803 12.607 10.1309 12.7144 9.80491 12.8535V14.2381ZM9.80491 11.3456C10.0744 11.1686 10.4019 11.0279 10.7874 10.9236C11.1727 10.8193 11.5785 10.7671 12.0047 10.7671C13.0075 10.7671 13.7595 10.9536 14.2609 11.3267V9.9136C13.653 9.65438 12.9009 9.52477 12.0047 9.52477C11.6099 9.52477 11.226 9.5627 10.8531 9.63856C10.4803 9.71444 10.1309 9.82192 9.80491 9.96102V11.3456ZM9.80491 8.44363C10.0744 8.2666 10.4019 8.12593 10.7874 8.02161C11.1727 7.91728 11.5785 7.86512 12.0047 7.86512C13.0075 7.86512 13.7595 8.05163 14.2609 8.42465V7.02107C13.653 6.75554 12.9009 6.62277 12.0047 6.62277C11.6099 6.62277 11.226 6.66228 10.8531 6.74131C10.4803 6.82034 10.1309 6.9294 9.80491 7.06849V8.44363Z" fill="black" fill-opacity="0.8"/>
</svg>
