<svg width="24" height="24" viewBox="0 0 24 24" fill="none" xmlns="http://www.w3.org/2000/svg">
<path d="M5.89236 20.2027L16.846 21.938C17.5002 22.0459 18.0625 22.013 18.5331 21.8391C19.0037 21.6653 19.3659 21.3656 19.6195 20.94C19.8732 20.5144 20 19.9809 20 19.3395V8.48669C20 7.60552 19.7513 6.97311 19.254 6.58947C18.7567 6.20583 18.0208 5.93609 17.0463 5.78024L6.41302 4.08983C5.92573 4.01789 5.50187 4.04337 5.14142 4.16626C4.78097 4.28914 4.50063 4.49595 4.30038 4.78668C4.10013 5.0774 4 5.43856 4 5.87015V18.2425C4 18.8 4.15853 19.2421 4.47559 19.5688C4.79266 19.8955 5.26491 20.1068 5.89236 20.2027ZM7.69462 9.08013C7.52106 9.05616 7.38756 8.98872 7.29411 8.87783C7.20066 8.76693 7.15393 8.63056 7.15393 8.46871C7.15393 8.27689 7.22903 8.12553 7.37922 8.01464C7.5294 7.90374 7.72465 7.86628 7.96495 7.90225L15.8748 9.14307C16.2486 9.21501 16.4355 9.41881 16.4355 9.7545C16.4355 9.94631 16.3654 10.1007 16.2252 10.2176C16.0851 10.3345 15.8915 10.3749 15.6445 10.339L7.69462 9.08013ZM7.69462 12.6948C7.52106 12.6708 7.38756 12.6033 7.29411 12.4924C7.20066 12.3815 7.15393 12.2452 7.15393 12.0833C7.15393 11.8975 7.22903 11.7491 7.37922 11.6382C7.5294 11.5273 7.72465 11.4898 7.96495 11.5258L15.8748 12.7667C16.2486 12.8266 16.4355 13.0274 16.4355 13.3691C16.4355 13.5669 16.3654 13.7243 16.2252 13.8412C16.0851 13.958 15.8915 13.9985 15.6445 13.9625L7.69462 12.6948ZM8.62577 3.19966L17.2866 4.56638C18.1277 4.70425 18.8419 4.91705 19.4292 5.20478V4.50344C19.4292 3.55633 19.0955 2.86998 18.428 2.44438C17.7605 2.01878 16.8327 1.89889 15.6445 2.08471L8.62577 3.19966Z" fill="black" fill-opacity="0.8"/>
</svg>
