<svg width="24" height="24" viewBox="0 0 24 24" fill="none" xmlns="http://www.w3.org/2000/svg">
<path d="M2 18.5697C2 18.9258 2.10206 19.1785 2.30617 19.3279C2.51028 19.4773 2.74741 19.552 3.01756 19.552C3.16764 19.552 3.31472 19.5161 3.4588 19.4443C3.60288 19.3724 3.75896 19.2848 3.92705 19.1814C4.42533 18.8598 4.97013 18.6056 5.56145 18.419C6.15277 18.2323 6.76361 18.1418 7.39396 18.1476C8.04231 18.1533 8.67716 18.271 9.2985 18.5007C9.91984 18.7305 10.4826 19.0781 10.9869 19.5433C11.1851 19.7157 11.3622 19.8349 11.5182 19.9009C11.6743 19.967 11.8364 20 12.0045 20C12.1666 20 12.3272 19.967 12.4863 19.9009C12.6454 19.8349 12.821 19.7157 13.0131 19.5433C13.5173 19.0781 14.0801 18.7305 14.7014 18.5007C15.3228 18.271 15.9607 18.1533 16.615 18.1476C17.2393 18.1418 17.8471 18.2323 18.4385 18.419C19.0298 18.6056 19.5746 18.8598 20.0729 19.1814C20.241 19.2848 20.397 19.3724 20.5411 19.4443C20.6852 19.5161 20.8353 19.552 20.9914 19.552C21.2556 19.552 21.4897 19.4773 21.6938 19.3279C21.8979 19.1785 22 18.9258 22 18.5697V6.87776C22 6.80309 21.994 6.73416 21.9819 6.67097C21.9699 6.60778 21.9399 6.53886 21.8919 6.46419C21.6278 6.0219 21.2346 5.61407 20.7123 5.24071C20.19 4.86735 19.5762 4.56722 18.8707 4.34033C18.1653 4.11344 17.4014 4 16.5789 4C15.5944 4 14.6985 4.16801 13.891 4.50404C13.0836 4.84006 12.4547 5.27517 12.0045 5.80937C11.5482 5.27517 10.9164 4.84006 10.1089 4.50404C9.3015 4.16801 8.40851 4 7.42997 4C6.60152 4 5.8346 4.11344 5.12921 4.34033C4.42382 4.56722 3.81149 4.86735 3.29221 5.24071C2.77292 5.61407 2.37821 6.0219 2.10806 6.46419C2.06003 6.53886 2.03002 6.60778 2.01801 6.67097C2.006 6.73416 2 6.80309 2 6.87776V18.5697ZM3.4498 17.8374V7.07592C3.68993 6.73703 4.0171 6.44121 4.43133 6.18847C4.84556 5.93573 5.30932 5.739 5.8226 5.59827C6.33588 5.45755 6.87167 5.38718 7.42997 5.38718C8.28244 5.38718 9.05686 5.54515 9.75324 5.86107C10.4496 6.17698 10.9569 6.59917 11.2751 7.12762V17.9838C10.9689 17.7483 10.6132 17.5386 10.208 17.3548C9.80278 17.171 9.36303 17.026 8.88877 16.9198C8.41451 16.8135 7.92825 16.7604 7.42997 16.7604C6.64355 16.7604 5.90214 16.858 5.20575 17.0533C4.50937 17.2486 3.92406 17.51 3.4498 17.8374ZM12.7249 17.9838V7.12762C13.043 6.59917 13.5503 6.17698 14.2467 5.86107C14.9431 5.54515 15.7205 5.38718 16.5789 5.38718C17.1313 5.38718 17.6641 5.45755 18.1773 5.59827C18.6906 5.739 19.1544 5.93573 19.5686 6.18847C19.9829 6.44121 20.3101 6.73703 20.5502 7.07592V17.8374C20.0759 17.51 19.4906 17.2486 18.7942 17.0533C18.0978 16.858 17.3594 16.7604 16.5789 16.7604C16.0747 16.7604 15.5869 16.8135 15.1157 16.9198C14.6444 17.026 14.2047 17.171 13.7965 17.3548C13.3882 17.5386 13.0311 17.7483 12.7249 17.9838Z" fill="black" fill-opacity="0.8"/>
</svg>
