<svg width="24" height="24" viewBox="0 0 24 24" fill="none" xmlns="http://www.w3.org/2000/svg">
<path d="M16.884 4.26622H17.9258C18.3278 4.26622 18.5288 4.50086 18.5288 4.97014V19.2739C18.5288 19.5555 18.4938 19.7651 18.4237 19.9028C18.3537 20.0404 18.1877 20.1655 17.9258 20.2782C17.3227 20.5472 16.648 20.7834 15.9018 20.9868C15.1555 21.1902 14.3758 21.3466 13.5625 21.4561C12.7493 21.5656 11.9406 21.6203 11.1365 21.6203C10.4299 21.6203 9.73539 21.5953 9.05311 21.5453C8.37084 21.4952 7.67942 21.4076 6.97887 21.2824V21.4045C7.94746 21.417 8.89321 21.3638 9.81611 21.2449C10.739 21.126 11.6071 20.9555 12.4203 20.7334C13.2336 20.5112 13.9646 20.2531 14.6134 19.9591C15.2621 19.665 15.7967 19.3521 16.217 19.0205C16.546 18.7702 16.7683 18.5325 16.884 18.3072C16.9998 18.0819 17.0577 17.7628 17.0577 17.3498V2.3797C17.0577 1.91667 16.948 1.57096 16.7287 1.34258C16.5095 1.11419 16.1988 1 15.7967 1C15.6566 1 15.5043 1.01721 15.3398 1.05162C15.1753 1.08604 14.9957 1.13453 14.8007 1.1971C13.4179 1.66013 12.0564 2.02929 10.7162 2.30461C9.37598 2.57992 7.89873 2.71758 6.28441 2.71758H5.5534C5.05997 2.71758 4.67771 2.85367 4.40662 3.12585C4.13554 3.39804 4 3.76565 4 4.22868V20.3345C4 20.6974 4.05483 20.9978 4.16448 21.2355C4.27413 21.4733 4.49648 21.6767 4.83153 21.8456C5.61736 22.196 6.56463 22.476 7.67333 22.6856C8.78203 22.8952 9.93642 23 11.1365 23C11.7761 23 12.4295 22.9734 13.0965 22.9202C13.7636 22.867 14.423 22.7841 15.0748 22.6715C15.7267 22.5589 16.3556 22.4118 16.9617 22.2304C17.5678 22.0489 18.1268 21.8299 18.6385 21.5734C19.1867 21.3043 19.5507 21.0165 19.7304 20.7099C19.9101 20.4033 20 19.9591 20 19.3772V4.97014C20 3.49346 19.3055 2.75512 17.9166 2.75512H16.884V4.26622ZM5.47116 19.6306V4.63226C5.47116 4.35068 5.59605 4.2099 5.84581 4.2099H6.34838C7.94442 4.2099 9.47954 4.06598 10.9537 3.77816C12.4279 3.49033 13.8047 3.13994 15.084 2.72697C15.2362 2.67691 15.3581 2.67378 15.4494 2.71758C15.5408 2.76138 15.5865 2.85524 15.5865 2.99915V17.0213C15.5865 17.2779 15.5561 17.4734 15.4952 17.608C15.4342 17.7425 15.288 17.8879 15.0565 18.0444C14.5814 18.3698 14.0331 18.6607 13.4118 18.9173C12.7904 19.1738 12.0929 19.3881 11.3193 19.5602C10.5456 19.7323 9.69884 19.8543 8.77898 19.9262C7.85913 19.9982 6.86313 20.0122 5.79098 19.9684C5.57777 19.9559 5.47116 19.8433 5.47116 19.6306ZM7.33524 6.68772V9.76622C7.33524 9.91013 7.40834 9.98209 7.55454 9.98209C8.26728 9.98209 8.97697 9.93985 9.68361 9.85539C10.3903 9.77091 11.0695 9.6489 11.7213 9.48935C12.3731 9.32978 12.9732 9.13738 13.5214 8.91212C13.6067 8.86832 13.6493 8.7995 13.6493 8.70564V5.49573C13.6493 5.38937 13.6128 5.32054 13.5397 5.28925C13.4666 5.25797 13.4057 5.25484 13.3569 5.27986C12.4127 5.63027 11.467 5.90245 10.5197 6.09642C9.57244 6.29039 8.58405 6.40615 7.55454 6.44369C7.40834 6.4562 7.33524 6.53755 7.33524 6.68772Z" fill="black" fill-opacity="0.8"/>
</svg>
