<svg width="24" height="24" viewBox="0 0 24 24" fill="none" xmlns="http://www.w3.org/2000/svg">
<path d="M1 11.0047V20.1679C1 20.4142 1.05252 20.6297 1.15756 20.8143C1.26261 20.9991 1.40704 21.1427 1.59087 21.2454C1.77469 21.348 1.9815 21.3993 2.21128 21.3993C2.44106 21.3924 2.64787 21.3394 2.8317 21.2402C3.01552 21.141 3.15995 20.9991 3.26499 20.8143C3.37004 20.6297 3.42256 20.4142 3.42256 20.1679V9.07556H2.94002C2.53954 9.07556 2.19486 9.15081 1.906 9.30131C1.61713 9.4518 1.39391 9.67241 1.23635 9.96315C1.07878 10.2539 1 10.6011 1 11.0047ZM4.32856 23H19.9078C20.9385 23 21.7116 22.7349 22.2269 22.2048C22.7423 21.6746 23 20.8827 23 19.8293V4.18097C23 3.12064 22.7423 2.3254 22.2269 1.79524C21.7116 1.26508 20.9385 1 19.9078 1H8.4351C7.40436 1 6.6313 1.26508 6.11593 1.79524C5.60057 2.3254 5.34288 3.12064 5.34288 4.18097V20.8451C5.34288 21.3992 5.27067 21.8422 5.12624 22.174C4.9818 22.5058 4.7159 22.7811 4.32856 23ZM9.29186 7.11567C9.11459 7.11567 8.96687 7.05239 8.8487 6.92584C8.73053 6.79928 8.67144 6.64708 8.67144 6.46922C8.67144 6.2982 8.73053 6.15283 8.8487 6.03312C8.96687 5.9134 9.11459 5.85354 9.29186 5.85354H19.0707C19.2414 5.85354 19.3858 5.9134 19.504 6.03312C19.6222 6.15283 19.6813 6.2982 19.6813 6.46922C19.6813 6.64708 19.6222 6.79928 19.504 6.92584C19.3858 7.05239 19.2414 7.11567 19.0707 7.11567H9.29186ZM9.29186 10.7276C9.11459 10.7276 8.96687 10.6678 8.8487 10.548C8.73053 10.4283 8.67144 10.2795 8.67144 10.1017C8.67144 9.92382 8.73053 9.77332 8.8487 9.65018C8.96687 9.52705 9.11459 9.46548 9.29186 9.46548H19.0707C19.2414 9.46548 19.3858 9.52705 19.504 9.65018C19.6222 9.77332 19.6813 9.92382 19.6813 10.1017C19.6813 10.2795 19.6222 10.4283 19.504 10.548C19.3858 10.6678 19.2414 10.7276 19.0707 10.7276H9.29186ZM15.3975 14.3498C15.2202 14.3498 15.0742 14.29 14.9593 14.1703C14.8444 14.0505 14.787 13.9052 14.787 13.7341C14.787 13.5494 14.8444 13.3955 14.9593 13.2724C15.0742 13.1493 15.2202 13.0877 15.3975 13.0877H19.0707C19.2414 13.0877 19.3842 13.1493 19.4991 13.2724C19.614 13.3955 19.6714 13.5494 19.6714 13.7341C19.6714 13.9052 19.614 14.0505 19.4991 14.1703C19.3842 14.29 19.2414 14.3498 19.0707 14.3498H15.3975ZM15.3975 18.0438C15.2202 18.0438 15.0742 17.984 14.9593 17.8643C14.8444 17.7446 14.787 17.5992 14.787 17.4282C14.787 17.2435 14.8444 17.0896 14.9593 16.9664C15.0742 16.8433 15.2202 16.7817 15.3975 16.7817H19.0707C19.2414 16.7817 19.3842 16.8433 19.4991 16.9664C19.614 17.0896 19.6714 17.2435 19.6714 17.4282C19.6714 17.5992 19.614 17.7446 19.4991 17.8643C19.3842 17.984 19.2414 18.0438 19.0707 18.0438H15.3975ZM9.82364 18.0951C9.45598 18.0951 9.1704 17.9891 8.96688 17.7771C8.76336 17.565 8.6616 17.2709 8.6616 16.8946V14.2985C8.6616 13.9222 8.76336 13.6264 8.96688 13.4109C9.1704 13.1954 9.45598 13.0877 9.82364 13.0877H12.2856C12.6467 13.0877 12.929 13.1954 13.1325 13.4109C13.336 13.6264 13.4378 13.9222 13.4378 14.2985V16.8946C13.4378 17.2709 13.336 17.565 13.1325 17.7771C12.929 17.9891 12.6467 18.0951 12.2856 18.0951H9.82364Z" fill="black" fill-opacity="0.8"/>
</svg>
