<svg width="24" height="24" viewBox="0 0 24 24" fill="none" xmlns="http://www.w3.org/2000/svg">
<path d="M5.89651 20.1506L16.8423 21.9399C17.4969 22.0467 18.0601 22.0111 18.5319 21.8331C19.0036 21.655 19.3662 21.3479 19.6197 20.9117C19.8732 20.4755 20 19.928 20 19.2692V8.25727C20 7.34925 19.7497 6.69643 19.2491 6.2988C18.7485 5.90117 18.0104 5.62223 17.0349 5.462L6.41636 3.73498C5.92859 3.65189 5.5034 3.67415 5.1408 3.80174C4.77818 3.92934 4.49739 4.14448 4.29843 4.44715C4.09948 4.74982 4 5.12074 4 5.55992V18.1298C4 18.6995 4.15884 19.1535 4.47653 19.4918C4.79422 19.8301 5.26755 20.0497 5.89651 20.1506ZM6.27196 18.7351C6.02807 18.6995 5.84677 18.6149 5.72804 18.4814C5.60931 18.3478 5.54994 18.1624 5.54994 17.925V5.80028C5.54994 5.56289 5.63177 5.38781 5.79542 5.27505C5.95908 5.16229 6.1821 5.12668 6.4645 5.16822L16.9578 6.87744C17.4456 6.96052 17.8163 7.10444 18.0698 7.3092C18.3233 7.51394 18.45 7.82403 18.45 8.23947V19.109C18.45 19.6135 18.3008 19.9859 18.0024 20.2262C17.7039 20.4666 17.2948 20.5422 16.775 20.4532L6.27196 18.7351ZM17.5933 6.56587H19.1431V4.48276C19.1431 3.54506 18.8223 2.86405 18.1805 2.43971C17.5387 2.01537 16.6466 1.89816 15.5042 2.08808L5.44404 3.72607L6.02166 4.97238L16.053 3.43231C16.5343 3.35515 16.9113 3.40559 17.1841 3.58364C17.4569 3.76168 17.5933 4.04359 17.5933 4.42935V6.56587ZM6.83032 9.31663C6.83032 9.50654 6.8945 9.64749 7.02286 9.73948C7.15122 9.83147 7.29883 9.87895 7.46569 9.88192C7.63256 9.88488 7.77857 9.84334 7.90372 9.75729C8.02887 9.67123 8.09145 9.53918 8.09145 9.36114V8.16825C8.09145 7.92493 8.24227 7.82404 8.54392 7.86558L9.81467 8.07923C10.02 8.1089 10.1821 8.07478 10.3008 7.97686C10.4196 7.87893 10.4934 7.75578 10.5222 7.60741C10.5511 7.45904 10.5287 7.31958 10.4549 7.18901C10.3811 7.05845 10.2511 6.97833 10.065 6.94866L8.00481 6.61037C7.63898 6.55103 7.35178 6.59257 7.1432 6.735C6.93461 6.87744 6.83032 7.11186 6.83032 7.43828V9.31663ZM15.9085 10.7677C15.9085 10.9517 15.9711 11.0941 16.0962 11.195C16.2214 11.2959 16.3674 11.3493 16.5342 11.3553C16.7012 11.3612 16.8488 11.3152 16.9771 11.2172C17.1055 11.1193 17.1697 10.9695 17.1697 10.7677V9.28102C17.1697 8.86559 17.0525 8.5466 16.8182 8.32404C16.584 8.10149 16.2005 7.9457 15.6678 7.85668L14.6666 7.69644C14.4484 7.66083 14.2736 7.69051 14.142 7.78546C14.0104 7.88042 13.9318 8.00356 13.9061 8.1549C13.8805 8.30623 13.911 8.44719 13.9976 8.57775C14.0842 8.70832 14.2366 8.7914 14.4549 8.82701L15.2539 8.96055C15.5363 9.00802 15.716 9.09853 15.793 9.23206C15.87 9.36559 15.9085 9.50061 15.9085 9.63711V10.7677ZM8.09145 14.9873C8.09145 14.8033 8.02887 14.6609 7.90372 14.56C7.77857 14.4591 7.63256 14.4057 7.46569 14.3998C7.29883 14.3938 7.15122 14.4398 7.02286 14.5378C6.8945 14.6357 6.83032 14.7855 6.83032 14.9873V16.474C6.83032 16.8894 6.94745 17.2084 7.1817 17.431C7.41596 17.6535 7.79943 17.8093 8.33212 17.8983L9.33333 18.0586C9.55154 18.0942 9.72642 18.063 9.85799 17.965C9.98956 17.8671 10.0698 17.744 10.0987 17.5957C10.1275 17.4473 10.0971 17.3063 10.0072 17.1728C9.91736 17.0393 9.76333 16.9577 9.54512 16.9279L8.74608 16.7945C8.46369 16.747 8.28399 16.655 8.20697 16.5185C8.12996 16.382 8.09145 16.2484 8.09145 16.1179V14.9873ZM17.1697 16.4383C17.1697 16.2484 17.1055 16.1075 16.9771 16.0155C16.8488 15.9235 16.7012 15.876 16.5342 15.8731C16.3674 15.8701 16.2214 15.9116 16.0962 15.9977C15.9711 16.0837 15.9085 16.2158 15.9085 16.3938V17.5867C15.9085 17.8301 15.7577 17.931 15.4561 17.8894L14.1853 17.6758C13.9799 17.6461 13.8179 17.6802 13.6991 17.7782C13.5804 17.8761 13.5066 17.9992 13.4777 18.1475C13.4488 18.2959 13.4713 18.4354 13.5451 18.566C13.6189 18.6966 13.7489 18.7767 13.935 18.8063L15.9952 19.1446C16.361 19.2039 16.6482 19.1624 16.8568 19.02C17.0654 18.8776 17.1697 18.6431 17.1697 18.3167V16.4383Z" fill="black" fill-opacity="0.8"/>
</svg>
