<svg width="24" height="24" viewBox="0 0 24 24" fill="none" xmlns="http://www.w3.org/2000/svg">
<path d="M6.89796 4C6.26111 4 5.6315 4.09596 5.00912 4.28789C4.38674 4.47982 3.82081 4.75609 3.31134 5.11668C2.80185 5.47728 2.39948 5.91639 2.10421 6.43402C2.05211 6.52126 2.02171 6.60414 2.01303 6.68265C2.00434 6.76117 2 6.88186 2 7.0447V19.3544C2 19.5579 2.06079 19.7164 2.18237 19.8298C2.30395 19.9433 2.47185 20 2.68606 20C2.79027 20 2.89015 19.9826 2.98567 19.9477C3.0812 19.9128 3.16949 19.8604 3.25054 19.7906C3.80055 19.3195 4.42293 18.9633 5.11768 18.7219C5.81242 18.4805 6.52164 18.3598 7.24534 18.3598C7.69693 18.3598 8.13404 18.4107 8.55668 18.5125C8.97932 18.6143 9.37879 18.7597 9.75511 18.9487C10.1314 19.1377 10.473 19.366 10.7799 19.6335C10.8725 19.715 10.9738 19.7557 11.0838 19.7557C11.1823 19.7557 11.2648 19.7222 11.3314 19.6553C11.3979 19.5885 11.4312 19.4998 11.4312 19.3893V6.48636C11.4312 6.37004 11.4211 6.28571 11.4008 6.23336C11.3805 6.18102 11.3299 6.09378 11.2488 5.97164C10.8204 5.35514 10.2168 4.87241 9.43814 4.52345C8.65944 4.17448 7.81272 4 6.89796 4ZM17.102 4C16.1873 4 15.3406 4.17448 14.5619 4.52345C13.7832 4.87241 13.1796 5.35514 12.7512 5.97164C12.6701 6.09378 12.6195 6.18102 12.5992 6.23336C12.579 6.28571 12.5689 6.37004 12.5689 6.48636V19.3893C12.5689 19.4998 12.6022 19.5885 12.6687 19.6553C12.7353 19.7222 12.8178 19.7557 12.9162 19.7557C13.0262 19.7557 13.1275 19.715 13.2202 19.6335C13.527 19.366 13.8686 19.1377 14.2449 18.9487C14.6212 18.7597 15.0207 18.6143 15.4434 18.5125C15.866 18.4107 16.3031 18.3598 16.7547 18.3598C17.4784 18.3598 18.1876 18.4805 18.8824 18.7219C19.5771 18.9633 20.1995 19.3195 20.7495 19.7906C20.8305 19.8604 20.9188 19.9128 21.0143 19.9477C21.1099 19.9826 21.2098 20 21.314 20C21.5282 20 21.6961 19.9433 21.8177 19.8298C21.9392 19.7164 22 19.5579 22 19.3544V7.0447C22 6.88186 21.9957 6.75972 21.987 6.6783C21.9783 6.59687 21.9479 6.51544 21.8958 6.43402C21.6005 5.91639 21.1982 5.47728 20.6887 5.11668C20.1792 4.75609 19.6132 4.47982 18.9909 4.28789C18.3685 4.09596 17.7389 4 17.102 4Z" fill="black" fill-opacity="0.8"/>
</svg>
