<svg width="24" height="24" viewBox="0 0 24 24" fill="none" xmlns="http://www.w3.org/2000/svg">
<path d="M9.68846 7.96361C9.51089 7.96361 9.3587 7.90139 9.23186 7.77696C9.10503 7.65252 9.04161 7.5032 9.04161 7.32899C9.04161 7.15477 9.10503 7.00545 9.23186 6.88101C9.3587 6.75658 9.51089 6.69436 9.68846 6.69436H17.0321C17.2033 6.69436 17.354 6.75658 17.484 6.88101C17.614 7.00545 17.679 7.15477 17.679 7.32899C17.679 7.5032 17.614 7.65252 17.484 7.77696C17.354 7.90139 17.2033 7.96361 17.0321 7.96361H9.68846ZM9.68846 10.6141C9.51089 10.6141 9.3587 10.5519 9.23186 10.4275C9.10503 10.303 9.04161 10.1506 9.04161 9.97014C9.04161 9.80216 9.10503 9.65595 9.23186 9.53151C9.3587 9.40708 9.51089 9.34486 9.68846 9.34486H15.2628C15.4403 9.34486 15.5925 9.40708 15.7193 9.53151C15.8462 9.65595 15.9097 9.80216 15.9097 9.97014C15.9097 10.1506 15.8462 10.303 15.7193 10.4275C15.5925 10.5519 15.4403 10.6141 15.2628 10.6141H9.68846ZM6.92033 22H19.239C19.4482 22 19.6274 21.9269 19.7764 21.7807C19.9255 21.6345 20 21.4588 20 21.2534C20 21.0917 19.9493 20.9439 19.8478 20.8101C19.7463 20.6764 19.6195 20.5846 19.4673 20.5348C19.0678 20.3792 18.7808 20.1257 18.6064 19.7741C18.432 19.4227 18.3892 19.0338 18.478 18.6076C18.5668 18.1814 18.8078 17.7723 19.201 17.3804C19.3785 17.2061 19.556 16.9884 19.7336 16.7271C19.9112 16.4657 20 16.1018 20 15.6351V4.93048C20 3.95987 19.7542 3.22881 19.2627 2.73729C18.7713 2.24576 18.0341 2 17.0511 2H6.94886C5.96591 2 5.22869 2.24421 4.73722 2.73262C4.24574 3.22103 4 3.95365 4 4.93048V19.1163C4 20.0744 4.24415 20.7946 4.73246 21.2767C5.22077 21.7589 5.95006 22 6.92033 22ZM7.00594 20.4975C6.52398 20.4975 6.15775 20.3762 5.90725 20.1335C5.65676 19.8909 5.53151 19.5487 5.53151 19.1069C5.53151 18.69 5.67261 18.3556 5.95482 18.1036C6.23702 17.8517 6.61593 17.7257 7.09156 17.7257H16.8514C16.9719 17.7257 17.0828 17.7163 17.1843 17.6977C16.9624 18.183 16.8656 18.6698 16.8942 19.1582C16.9227 19.6466 17.0638 20.0931 17.3175 20.4975H7.00594ZM6.72057 16.3071C6.57471 16.3071 6.44788 16.2542 6.34007 16.1484C6.23226 16.0427 6.17836 15.9151 6.17836 15.7658V3.97854C6.17836 3.82922 6.23226 3.70322 6.34007 3.60056C6.44788 3.4979 6.57471 3.44657 6.72057 3.44657C6.86643 3.44657 6.99485 3.4979 7.10583 3.60056C7.21681 3.70322 7.2723 3.82922 7.2723 3.97854V15.7658C7.2723 15.9151 7.21681 16.0427 7.10583 16.1484C6.99485 16.2542 6.86643 16.3071 6.72057 16.3071Z" fill="black" fill-opacity="0.8"/>
</svg>
