<svg width="24" height="24" viewBox="0 0 24 24" fill="none" xmlns="http://www.w3.org/2000/svg">
<path d="M1.23389 21.9393H3.12989C3.53115 21.9393 3.83712 21.8432 4.04778 21.651C4.25845 21.4588 4.36378 21.1855 4.36378 20.8311V5.61305C4.36378 5.25865 4.25845 4.98384 4.04778 4.78862C3.83712 4.59341 3.53115 4.4958 3.12989 4.4958H1.23389C0.832629 4.4958 0.526663 4.59341 0.315998 4.78862C0.105333 4.98384 0 5.25865 0 5.61305V20.8311C0 21.1855 0.105333 21.4588 0.315998 21.651C0.526663 21.8432 0.832629 21.9393 1.23389 21.9393ZM6.77139 21.9393H10.8342C11.2355 21.9393 11.5414 21.8432 11.7521 21.651C11.9627 21.4588 12.0681 21.1855 12.0681 20.8311V8.68548C12.0681 8.3371 11.9627 8.06529 11.7521 7.87007C11.5414 7.67485 11.2355 7.57725 10.8342 7.57725H6.77139C6.37012 7.57725 6.06248 7.67485 5.84847 7.87007C5.63446 8.06529 5.52746 8.3371 5.52746 8.68548V20.8311C5.52746 21.1855 5.63446 21.4588 5.84847 21.651C6.06248 21.8432 6.37012 21.9393 6.77139 21.9393ZM7.72439 10.7938C7.54382 10.7938 7.39335 10.7398 7.27297 10.6317C7.15259 10.5235 7.0924 10.3914 7.0924 10.2352C7.0924 10.0791 7.15259 9.94841 7.27297 9.84329C7.39335 9.73817 7.54382 9.68561 7.72439 9.68561H9.90127C10.0752 9.68561 10.2206 9.73817 10.3377 9.84329C10.4547 9.94841 10.5132 10.0791 10.5132 10.2352C10.5132 10.3914 10.4547 10.5235 10.3377 10.6317C10.2206 10.7398 10.0752 10.7938 9.90127 10.7938H7.72439ZM7.72439 19.8399C7.54382 19.8399 7.39335 19.7859 7.27297 19.6778C7.15259 19.5697 7.0924 19.4376 7.0924 19.2814C7.0924 19.1252 7.15259 18.9946 7.27297 18.8895C7.39335 18.7843 7.54382 18.7318 7.72439 18.7318H9.90127C10.0752 18.7318 10.2206 18.7843 10.3377 18.8895C10.4547 18.9946 10.5132 19.1252 10.5132 19.2814C10.5132 19.4376 10.4547 19.5697 10.3377 19.6778C10.2206 19.7859 10.0752 19.8399 9.90127 19.8399H7.72439ZM14.4757 21.9393H16.9535C17.3548 21.9393 17.6608 21.8432 17.8715 21.651C18.0821 21.4588 18.1875 21.1855 18.1875 20.8311V3.11725C18.1875 2.76286 18.0821 2.48805 17.8715 2.29283C17.6608 2.09761 17.3548 2 16.9535 2H14.4757C14.0745 2 13.7685 2.09761 13.5578 2.29283C13.3471 2.48805 13.2418 2.76286 13.2418 3.11725V20.8311C13.2418 21.1855 13.3471 21.4588 13.5578 21.651C13.7685 21.8432 14.0745 21.9393 14.4757 21.9393ZM21.2972 21.9844L22.9124 21.7771C23.307 21.7291 23.5962 21.5999 23.7801 21.3897C23.964 21.1795 24.0326 20.8972 23.9857 20.5428L22.0697 5.59502C22.0229 5.24664 21.8841 4.98535 21.6534 4.81115C21.4227 4.63695 21.1066 4.57388 20.7053 4.62194L19.1004 4.82917C18.7058 4.87722 18.4165 5.00637 18.2326 5.2166C18.0487 5.42684 17.9768 5.70615 18.0169 6.05454L19.943 21.0023C19.9898 21.3567 20.1285 21.621 20.3593 21.7952C20.59 21.9694 20.9026 22.0325 21.2972 21.9844Z" fill="black" fill-opacity="0.8"/>
</svg>
