<svg width="24" height="24" viewBox="0 0 24 24" fill="none" xmlns="http://www.w3.org/2000/svg">
<path d="M4 20.3345C4 20.6974 4.05483 20.9978 4.16448 21.2355C4.27413 21.4733 4.49648 21.6767 4.83153 21.8456C5.61736 22.196 6.54179 22.476 7.6048 22.6856C8.66781 22.8952 9.84504 23 11.1365 23C11.7761 23 12.4295 22.9734 13.0965 22.9202C13.7636 22.867 14.423 22.7841 15.0748 22.6715C15.7267 22.5589 16.3556 22.4118 16.9617 22.2304C17.5678 22.0489 18.1268 21.8299 18.6385 21.5734C19.1867 21.3043 19.5507 21.0165 19.7304 20.7099C19.9101 20.4033 20 19.9591 20 19.3772V4.97014C20 3.49346 19.3055 2.75512 17.9166 2.75512H17.0577V2.3797C17.0577 1.91667 16.948 1.57096 16.7287 1.34258C16.5095 1.11419 16.1988 1 15.7967 1C15.6566 1 15.5043 1.01721 15.3398 1.05162C15.1753 1.08604 14.9957 1.13453 14.8007 1.1971C13.4179 1.66013 12.0564 2.02929 10.7162 2.30461C9.37598 2.57992 7.89873 2.71758 6.28441 2.71758H5.5534C5.05997 2.71758 4.67771 2.85367 4.40662 3.12585C4.13554 3.39804 4 3.76565 4 4.22868V20.3345ZM7.24387 9.83192V6.65956C7.24387 6.50313 7.31696 6.41866 7.46316 6.40615C8.52313 6.36861 9.54046 6.24972 10.5151 6.0495C11.4898 5.84927 12.4645 5.5677 13.4392 5.20478C13.494 5.17976 13.558 5.18289 13.6311 5.21417C13.7042 5.24545 13.7408 5.31741 13.7408 5.43004V8.74318C13.7408 8.83704 13.6981 8.90274 13.6128 8.94028C13.0463 9.17805 12.4279 9.37984 11.7579 9.54566C11.0878 9.71147 10.3887 9.83818 9.66076 9.92578C8.9328 10.0134 8.20027 10.0572 7.46316 10.0572C7.31696 10.0572 7.24387 9.98209 7.24387 9.83192ZM7.70988 21.3951C8.61146 21.37 9.48715 21.2902 10.337 21.1558C11.1868 21.0212 11.9909 20.8413 12.7493 20.6161C13.5077 20.3908 14.2007 20.128 14.8281 19.8276C15.4556 19.5273 15.9947 19.1988 16.4455 18.8422C16.6587 18.6795 16.814 18.4933 16.9115 18.2837C17.009 18.0741 17.0577 17.7628 17.0577 17.3498V4.26622H17.9258C18.3278 4.26622 18.5288 4.50086 18.5288 4.97014V19.2739C18.5288 19.5555 18.4938 19.7651 18.4237 19.9028C18.3537 20.0404 18.1877 20.1655 17.9258 20.2782C17.3227 20.5472 16.648 20.7834 15.9018 20.9868C15.1555 21.1902 14.3758 21.3466 13.5625 21.4561C12.7493 21.5656 11.9406 21.6203 11.1365 21.6203C10.5639 21.6203 9.99734 21.6031 9.4369 21.5687C8.87646 21.5343 8.30078 21.4764 7.70988 21.3951Z" fill="black" fill-opacity="0.8"/>
</svg>
