<svg width="24" height="24" viewBox="0 0 24 24" fill="none" xmlns="http://www.w3.org/2000/svg">
<path d="M1 19.9011C1 20.9272 1.24186 21.7002 1.72559 22.2201C2.20932 22.74 2.94137 23 3.92173 23H19.9622C20.9748 23 21.7342 22.7349 22.2405 22.2048C22.7468 21.6746 23 20.8827 23 19.8293V4.18097C23 3.12064 22.7468 2.3254 22.2405 1.79524C21.7342 1.26508 20.9748 1 19.9622 1H8.30432C7.29171 1 6.53225 1.26508 6.02595 1.79524C5.51965 2.3254 5.2665 3.12064 5.2665 4.18097V9.07556H2.95427C2.34154 9.07556 1.86265 9.24487 1.51759 9.58349C1.17253 9.92211 1 10.3958 1 11.0047V19.9011ZM2.55761 19.9011V11.3228C2.55761 11.1381 2.6076 10.9927 2.70756 10.8867C2.80754 10.7806 2.94782 10.7276 3.12841 10.7276H5.2665V19.9011C5.2665 20.3253 5.13589 20.6725 4.87467 20.9426C4.61346 21.2128 4.29581 21.3479 3.92173 21.3479C3.53474 21.3479 3.21064 21.2094 2.94943 20.9323C2.68822 20.6553 2.55761 20.3116 2.55761 19.9011ZM6.49518 21.3479C6.71447 20.8964 6.82411 20.38 6.82411 19.7985V4.27332C6.82411 3.73974 6.95471 3.33613 7.21592 3.0625C7.47714 2.78887 7.84961 2.65206 8.33334 2.65206H19.9332C20.4169 2.65206 20.7894 2.78887 21.0506 3.0625C21.3118 3.33613 21.4425 3.73974 21.4425 4.27332V19.7369C21.4425 20.2705 21.3118 20.6725 21.0506 20.9426C20.7894 21.2128 20.4169 21.3479 19.9332 21.3479H6.49518ZM9.3395 7.11567H18.9463C19.114 7.11567 19.2559 7.05239 19.372 6.92584C19.4881 6.79928 19.5462 6.64708 19.5462 6.46922C19.5462 6.2982 19.4881 6.15283 19.372 6.03312C19.2559 5.9134 19.114 5.85354 18.9463 5.85354H9.3395C9.16536 5.85354 9.02024 5.9134 8.90415 6.03312C8.78805 6.15283 8.73 6.2982 8.73 6.46922C8.73 6.64708 8.78805 6.79928 8.90415 6.92584C9.02024 7.05239 9.16536 7.11567 9.3395 7.11567ZM9.3395 10.7276H18.9463C19.114 10.7276 19.2559 10.6678 19.372 10.548C19.4881 10.4283 19.5462 10.2795 19.5462 10.1017C19.5462 9.92382 19.4881 9.77332 19.372 9.65018C19.2559 9.52705 19.114 9.46548 18.9463 9.46548H9.3395C9.16536 9.46548 9.02024 9.52705 8.90415 9.65018C8.78805 9.77332 8.73 9.92382 8.73 10.1017C8.73 10.2795 8.78805 10.4283 8.90415 10.548C9.02024 10.6678 9.16536 10.7276 9.3395 10.7276ZM9.9103 18.0438H12.416C12.7837 18.0438 13.0723 17.9327 13.2819 17.7103C13.4915 17.488 13.5963 17.1819 13.5963 16.792V14.3498C13.5963 13.9531 13.4915 13.6435 13.2819 13.4212C13.0723 13.1988 12.7837 13.0877 12.416 13.0877H9.9103C9.53621 13.0877 9.24436 13.1988 9.03475 13.4212C8.82514 13.6435 8.72033 13.9531 8.72033 14.3498V16.792C8.72033 17.1819 8.82514 17.488 9.03475 17.7103C9.24436 17.9327 9.53621 18.0438 9.9103 18.0438ZM15.3378 14.3498H18.9367C19.1108 14.3498 19.2543 14.29 19.3672 14.1703C19.4801 14.0505 19.5365 13.9052 19.5365 13.7341C19.5365 13.5494 19.4801 13.3955 19.3672 13.2724C19.2543 13.1493 19.1108 13.0877 18.9367 13.0877H15.3378C15.1636 13.0877 15.0201 13.1493 14.9072 13.2724C14.7944 13.3955 14.7379 13.5494 14.7379 13.7341C14.7379 13.9052 14.7944 14.0505 14.9072 14.1703C15.0201 14.29 15.1636 14.3498 15.3378 14.3498ZM15.3378 18.0438H18.9367C19.1108 18.0438 19.2543 17.984 19.3672 17.8643C19.4801 17.7446 19.5365 17.5992 19.5365 17.4282C19.5365 17.2435 19.4801 17.0896 19.3672 16.9664C19.2543 16.8433 19.1108 16.7817 18.9367 16.7817H15.3378C15.1636 16.7817 15.0201 16.8433 14.9072 16.9664C14.7944 17.0896 14.7379 17.2435 14.7379 17.4282C14.7379 17.5992 14.7944 17.7446 14.9072 17.8643C15.0201 17.984 15.1636 18.0438 15.3378 18.0438Z" fill="black" fill-opacity="0.8"/>
</svg>
