<svg width="24" height="24" viewBox="0 0 24 24" fill="none" xmlns="http://www.w3.org/2000/svg">
<path d="M6.10089 21C6.35015 21 6.58556 20.9315 6.80712 20.7944C7.02868 20.6573 7.37487 20.4042 7.84569 20.0349L11.9065 16.8042C11.9688 16.7482 12.0311 16.7482 12.0935 16.8042L16.1543 20.0349C16.6251 20.3986 16.9695 20.6503 17.1877 20.7902C17.4058 20.9301 17.6429 21 17.8991 21C18.2453 21 18.5153 20.9105 18.7091 20.7315C18.903 20.5525 19 20.3007 19 19.9762V5.40838C19 4.60839 18.7542 4.00699 18.2626 3.60419C17.771 3.2014 17.037 3 16.0608 3H7.93916C6.9629 3 6.22898 3.2014 5.73739 3.60419C5.2458 4.00699 5 4.60839 5 5.40838V19.9762C5 20.3007 5.09693 20.5525 5.2908 20.7315C5.48467 20.9105 5.7547 21 6.10089 21ZM6.95252 18.7342C6.87636 18.7902 6.80539 18.8112 6.73961 18.7972C6.67383 18.7832 6.64095 18.7343 6.64095 18.6503V5.42517C6.64095 5.06154 6.75692 4.78741 6.98887 4.60279C7.22082 4.41818 7.56528 4.32587 8.02225 4.32587H15.9881C16.4381 4.32587 16.7791 4.41818 17.011 4.60279C17.243 4.78741 17.359 5.06154 17.359 5.42517V18.6503C17.359 18.7343 17.3261 18.7832 17.2603 18.7972C17.1945 18.8112 17.1236 18.7902 17.0474 18.7342L12.5504 15.2098C12.3842 15.0811 12.2008 15.0168 12 15.0168C11.7992 15.0168 11.6157 15.0811 11.4495 15.2098L6.95252 18.7342Z" fill="#FF3B30"/>
<path d="M6.95252 18.7342C6.87636 18.7902 6.80539 18.8112 6.73961 18.7972C6.67383 18.7832 6.64095 18.7343 6.64095 18.6503V5.42517C6.64095 5.06154 6.75692 4.78741 6.98887 4.60279C7.22082 4.41818 7.56528 4.32587 8.02225 4.32587H15.9881C16.4381 4.32587 16.7791 4.41818 17.011 4.60279C17.243 4.78741 17.359 5.06154 17.359 5.42517V18.6503C17.359 18.7343 17.3261 18.7832 17.2603 18.7972C17.1945 18.8112 17.1236 18.7902 17.0474 18.7342L12.5504 15.2098C12.3842 15.0811 12.2008 15.0168 12 15.0168C11.7992 15.0168 11.6157 15.0811 11.4495 15.2098L6.95252 18.7342Z" fill="#FF3B30"/>
</svg>
