<svg width="24" height="24" viewBox="0 0 24 24" fill="none" xmlns="http://www.w3.org/2000/svg">
<path d="M5.89651 20.1502L16.8423 21.9399C17.4969 22.0468 18.0601 22.0111 18.5319 21.833C19.0036 21.655 19.3662 21.3478 19.6197 20.9115C19.8732 20.4752 20 19.9276 20 19.2687V8.25439C20 7.34618 19.7497 6.69322 19.2491 6.2955C18.7485 5.89779 18.0104 5.62177 17.0349 5.46743L6.41636 3.73113C5.92859 3.65397 5.5034 3.67771 5.1408 3.80237C4.77818 3.92703 4.49739 4.14072 4.29843 4.44346C4.09948 4.7462 4 5.12017 4 5.56537V18.1289C4 18.6988 4.15884 19.1529 4.47653 19.4913C4.79422 19.8296 5.26755 20.0493 5.89651 20.1502ZM6.27196 18.7345C6.02807 18.6988 5.84677 18.6143 5.72804 18.4807C5.60931 18.3472 5.54994 18.1616 5.54994 17.9242V5.80578C5.54994 5.56834 5.63177 5.39174 5.79542 5.27599C5.95908 5.16024 6.1821 5.12611 6.4645 5.1736L16.9578 6.87427C17.4456 6.95737 17.8163 7.10132 18.0698 7.30611C18.3233 7.51091 18.45 7.82107 18.45 8.23659V19.1173C18.45 19.6219 18.3008 19.9929 18.0024 20.2303C17.7039 20.4678 17.2948 20.542 16.775 20.453L6.27196 18.7345ZM17.5933 6.56262H19.1431V4.47908C19.1431 3.54119 18.8223 2.86151 18.1805 2.44005C17.5387 2.01859 16.6466 1.89987 15.5042 2.08389L5.44404 3.73113L6.02166 4.9688L16.053 3.4284C16.5343 3.35123 16.9113 3.40169 17.1841 3.57977C17.4569 3.75785 17.5933 4.03981 17.5933 4.42565V6.56262ZM7.95667 9.09137L15.3791 10.3023C15.6037 10.3379 15.7818 10.2994 15.9134 10.1866C16.0449 10.0738 16.1107 9.92539 16.1107 9.74137C16.1107 9.41489 15.9374 9.22197 15.5908 9.16261L8.20697 7.96946C7.98876 7.93385 7.80906 7.96798 7.66786 8.07187C7.52667 8.17574 7.45607 8.31969 7.45607 8.50371C7.45607 8.65805 7.49939 8.78864 7.58604 8.89549C7.67268 9.00234 7.79622 9.06763 7.95667 9.09137ZM7.95667 12.5639L15.3791 13.7749C15.6037 13.8105 15.7818 13.7719 15.9134 13.6592C16.0449 13.5463 16.1107 13.3979 16.1107 13.2139C16.1107 12.8875 15.9374 12.6945 15.5908 12.6351L8.20697 11.4421C7.98876 11.4065 7.80906 11.4421 7.66786 11.5489C7.52667 11.6557 7.45607 11.7982 7.45607 11.9763C7.45607 12.1366 7.49939 12.2687 7.58604 12.3726C7.67268 12.4764 7.79622 12.5402 7.95667 12.5639Z" fill="black" fill-opacity="0.8"/>
</svg>
