<svg width="24" height="24" viewBox="0 0 24 24" fill="none" xmlns="http://www.w3.org/2000/svg">
<path d="M0 19.8909C0 20.5826 0.18294 21.1014 0.548821 21.4473C0.914705 21.7931 1.47 21.966 2.21471 21.966H15.4836C16.2283 21.966 16.7836 21.7931 17.1494 21.4473C17.5153 21.1014 17.6983 20.5826 17.6983 19.8909V4.08412C17.6983 3.39242 17.5153 2.87214 17.1494 2.52329C16.7836 2.17443 16.2283 2 15.4836 2H13.5796C12.835 2 12.2797 2.17443 11.9138 2.52329C11.5479 2.87214 11.365 3.39242 11.365 4.08412V7.66591C11.1318 7.61178 10.8858 7.58472 10.6267 7.58472H6.39158C6.13255 7.58472 5.88324 7.61178 5.64363 7.66591V6.58326C5.64363 5.89156 5.46231 5.37128 5.09966 5.02242C4.73702 4.67357 4.18335 4.49914 3.43863 4.49914H2.21471C1.47 4.49914 0.914705 4.67357 0.548821 5.02242C0.18294 5.37128 0 5.89156 0 6.58326V19.8909ZM1.46676 19.7826V6.6825C1.46676 6.41785 1.54123 6.21485 1.69018 6.07351C1.83912 5.93216 2.06577 5.86149 2.37013 5.86149H3.28321C3.58758 5.86149 3.81261 5.93216 3.95831 6.07351C4.10402 6.21485 4.17687 6.41785 4.17687 6.6825V20.6037H2.37013C2.06577 20.6037 1.83912 20.5345 1.69018 20.3962C1.54123 20.2578 1.46676 20.0533 1.46676 19.7826ZM5.64363 20.6037V9.76808C5.64363 9.50343 5.71972 9.30043 5.8719 9.15908C6.02408 9.01774 6.24911 8.94706 6.547 8.94706H10.4713C10.7756 8.94706 11.0007 9.01774 11.1465 9.15908C11.2921 9.30043 11.365 9.50343 11.365 9.76808V20.6037H5.64363ZM12.8317 20.6037V4.18336C12.8317 3.91871 12.9078 3.71571 13.06 3.57437C13.2122 3.43302 13.4372 3.36235 13.7351 3.36235H15.3282C15.6325 3.36235 15.8591 3.43302 16.0081 3.57437C16.1571 3.71571 16.2315 3.91871 16.2315 4.18336V19.7826C16.2315 20.0533 16.1571 20.2578 16.0081 20.3962C15.8591 20.5345 15.6325 20.6037 15.3282 20.6037H12.8317ZM6.52757 10.6974C6.52757 10.8537 6.58424 10.9861 6.69756 11.0943C6.81089 11.2026 6.95821 11.2567 7.13953 11.2567H9.89821C10.073 11.2567 10.2171 11.2026 10.3304 11.0943C10.4438 10.9861 10.5004 10.8537 10.5004 10.6974C10.5004 10.541 10.4438 10.4102 10.3304 10.3049C10.2171 10.1996 10.073 10.147 9.89821 10.147H7.13953C6.95821 10.147 6.81089 10.1996 6.69756 10.3049C6.58424 10.4102 6.52757 10.541 6.52757 10.6974ZM6.52757 18.8534C6.52757 19.0098 6.58424 19.1421 6.69756 19.2504C6.81089 19.3587 6.95821 19.4128 7.13953 19.4128H9.89821C10.073 19.4128 10.2171 19.3587 10.3304 19.2504C10.4438 19.1421 10.5004 19.0098 10.5004 18.8534C10.5004 18.697 10.4438 18.5662 10.3304 18.4609C10.2171 18.3557 10.073 18.3031 9.89821 18.3031H7.13953C6.95821 18.3031 6.81089 18.3557 6.69756 18.4609C6.58424 18.5662 6.52757 18.697 6.52757 18.8534ZM18.5725 20.1436C18.6632 20.8293 18.9093 21.3285 19.3108 21.6413C19.7122 21.954 20.2853 22.0623 21.0301 21.966L22.0403 21.8397C22.7849 21.7435 23.3144 21.5089 23.6285 21.136C23.9425 20.7631 24.0575 20.2338 23.9733 19.5481L22.3026 6.05997C22.2183 5.37429 21.9739 4.87356 21.5692 4.55778C21.1644 4.24201 20.5897 4.13525 19.845 4.2375L18.8347 4.3638C18.0835 4.46004 17.5493 4.69462 17.232 5.06753C16.9147 5.44045 16.8014 5.96975 16.892 6.65543L18.5725 20.1436ZM20.0101 19.8729L18.3685 6.6013C18.3362 6.33665 18.3847 6.12914 18.5142 5.97877C18.6437 5.8284 18.8607 5.73217 19.1651 5.69006L19.8644 5.60886C20.1623 5.56676 20.3954 5.61037 20.5638 5.73968C20.7321 5.869 20.8325 6.06298 20.865 6.32161L22.5066 19.5932C22.5389 19.8639 22.4904 20.0744 22.3609 20.2248C22.2313 20.3751 22.0176 20.4684 21.7197 20.5045L21.0009 20.5947C20.7031 20.6368 20.4715 20.5947 20.3063 20.4683C20.1412 20.3421 20.0425 20.1436 20.0101 19.8729Z" fill="black" fill-opacity="0.8"/>
</svg>
