<svg width="24" height="24" viewBox="0 0 24 24" fill="none" xmlns="http://www.w3.org/2000/svg">
<path d="M5.89236 20.2076L16.846 21.9435C17.5002 22.0454 18.0625 22.0094 18.5331 21.8356C19.0037 21.6617 19.3659 21.3634 19.6195 20.9406C19.8732 20.5179 20 19.9858 20 19.3442V8.48847C20 7.60705 19.7513 6.97298 19.254 6.58624C18.7567 6.19949 18.0208 5.92817 17.0463 5.77228L6.41302 4.0904C5.92573 4.01245 5.50187 4.03493 5.14142 4.15786C4.78097 4.28077 4.50063 4.48913 4.30038 4.78294C4.10013 5.07674 4 5.4365 4 5.86221V18.2469C4 18.7985 4.15853 19.2378 4.47559 19.5646C4.79266 19.8914 5.26491 20.1057 5.89236 20.2076ZM6.58322 9.45082V7.55309C6.58322 7.22331 6.69169 6.98647 6.90863 6.84256C7.12557 6.69866 7.42428 6.65669 7.80475 6.71665L9.95744 7.05842C10.1443 7.0884 10.2762 7.16934 10.3529 7.30125C10.4297 7.43317 10.4531 7.57408 10.423 7.72398C10.393 7.87388 10.3162 7.99829 10.1927 8.09722C10.0692 8.19616 9.9007 8.23063 9.6871 8.20066L8.36545 7.9848C8.05172 7.94283 7.89486 8.04476 7.89486 8.29059V9.49579C7.89486 9.67567 7.82978 9.80909 7.69962 9.89603C7.56946 9.98297 7.4176 10.0249 7.24405 10.0219C7.0705 10.0189 6.91697 9.96947 6.78347 9.87354C6.64997 9.7776 6.58322 9.6367 6.58322 9.45082ZM16.025 10.9168V9.7746C16.025 9.6367 15.9849 9.50029 15.9048 9.36538C15.8247 9.23047 15.6378 9.13903 15.3442 9.09106L14.5131 8.95615C14.2862 8.92018 14.1276 8.83623 14.0375 8.70432C13.9474 8.57241 13.9157 8.43 13.9424 8.2771C13.9691 8.1242 14.0509 7.99979 14.1877 7.90385C14.3245 7.80792 14.5064 7.77794 14.7334 7.81391L15.7747 7.97581C16.3287 8.06575 16.7275 8.22314 16.9712 8.44799C17.2148 8.67284 17.3366 8.99513 17.3366 9.41485V10.9168C17.3366 11.1207 17.2699 11.2721 17.1364 11.371C17.0029 11.47 16.8494 11.5164 16.6758 11.5105C16.5023 11.5045 16.3504 11.4505 16.2202 11.3486C16.0901 11.2467 16.025 11.1027 16.025 10.9168ZM7.89486 15.18V16.3223C7.89486 16.4542 7.93491 16.589 8.01502 16.7269C8.09511 16.8649 8.28201 16.9578 8.57571 17.0058L9.40675 17.1407C9.6337 17.1707 9.7939 17.2531 9.88735 17.388C9.9808 17.5229 10.0125 17.6653 9.98246 17.8153C9.95243 17.9651 9.86899 18.0895 9.73215 18.1885C9.59531 18.2874 9.41342 18.3189 9.18647 18.283L8.14517 18.121C7.59115 18.0311 7.19232 17.8737 6.94868 17.6489C6.70504 17.424 6.58322 17.1017 6.58322 16.682V15.18C6.58322 14.9761 6.64997 14.8247 6.78347 14.7258C6.91697 14.6269 7.0705 14.5804 7.24405 14.5864C7.4176 14.5924 7.56946 14.6464 7.69962 14.7483C7.82978 14.8502 7.89486 14.9941 7.89486 15.18ZM17.3366 16.646V18.5438C17.3366 18.8735 17.2282 19.1104 17.0112 19.2543C16.7943 19.3982 16.4956 19.4401 16.1151 19.3802L13.9724 19.0384C13.7789 19.0085 13.6437 18.9275 13.5669 18.7956C13.4902 18.6637 13.4668 18.5228 13.4969 18.3728C13.5269 18.223 13.6037 18.0986 13.7271 17.9997C13.8506 17.9007 14.0192 17.8662 14.2328 17.8962L15.5544 18.112C15.8681 18.154 16.025 18.0521 16.025 17.8062V16.601C16.025 16.4211 16.0901 16.2877 16.2202 16.2008C16.3504 16.1138 16.5023 16.0719 16.6758 16.0749C16.8494 16.0779 17.0029 16.1259 17.1364 16.2188C17.2699 16.3117 17.3366 16.4541 17.3366 16.646ZM8.62577 3.19999L17.2866 4.56708C18.1277 4.70499 18.8419 4.91485 19.4292 5.19666V4.50412C19.4292 3.55676 19.0955 2.87022 18.428 2.4445C17.7605 2.01878 16.8327 1.89886 15.6445 2.08474L8.62577 3.19999Z" fill="black" fill-opacity="0.8"/>
</svg>
