<svg width="24" height="24" viewBox="0 0 24 24" fill="none" xmlns="http://www.w3.org/2000/svg">
<path d="M5.81894 21C6.06869 21 6.30455 20.9315 6.52655 20.7944C6.74854 20.6573 7.0954 20.4042 7.56713 20.0349L11.6358 16.8042C11.6982 16.7482 11.7607 16.7482 11.8231 16.8042L15.8918 20.0349C16.3636 20.3986 16.7087 20.6503 16.9272 20.7902C17.1457 20.9301 17.3833 21 17.6399 21C17.9868 21 18.2574 20.9175 18.4517 20.7524C18.6459 20.5874 18.7361 20.3818 18.7222 20.1356V19.7329L16.87 18.2392V18.7174C16.863 18.7342 16.8509 18.744 16.8335 18.7468C16.8162 18.7496 16.7936 18.7398 16.7659 18.7174L12.281 15.2098C12.1145 15.0811 11.9306 15.0168 11.7295 15.0168C11.5283 15.0168 11.3445 15.0811 11.178 15.2098L6.67223 18.7342C6.59591 18.7902 6.52481 18.8112 6.4589 18.7972C6.393 18.7832 6.36005 18.7343 6.36005 18.6503V9.58741L4.71593 8.26153V19.9762C4.71593 20.3007 4.81305 20.5524 5.00729 20.7315C5.20153 20.9105 5.47208 21 5.81894 21ZM17.0989 13.5146L18.743 14.8405V5.40838C18.743 4.60839 18.4967 4.00699 18.0042 3.60419C17.5117 3.2014 16.7763 3 15.7981 3H7.66078C6.47451 3 5.66286 3.30769 5.22581 3.92308L6.49532 4.95524C6.65488 4.53566 7.07111 4.32587 7.74402 4.32587H15.7254C16.1762 4.32587 16.5179 4.41818 16.7503 4.60279C16.9827 4.78741 17.0989 5.06154 17.0989 5.42517V13.5146ZM20.6368 19.5566C20.7895 19.6853 20.9786 19.7496 21.204 19.7496C21.4294 19.7496 21.6185 19.6853 21.7711 19.5566C21.9237 19.428 22 19.2755 22 19.0993C22 18.923 21.9237 18.7706 21.7711 18.6419L3.37357 3.7972C3.21401 3.67412 3.02324 3.61119 2.80125 3.60839C2.57926 3.60559 2.38848 3.66853 2.22893 3.7972C2.07631 3.92028 2 4.07273 2 4.25454C2 4.43636 2.07631 4.58881 2.22893 4.71189L20.6368 19.5566Z" fill="#FF3B30"/>
</svg>
