<svg width="24" height="24" viewBox="0 0 24 24" fill="none" xmlns="http://www.w3.org/2000/svg">
<path d="M6.92033 22H19.239C19.4482 22 19.6274 21.9269 19.7764 21.7807C19.9255 21.6345 20 21.4588 20 21.2534C20 21.0917 19.9493 20.9439 19.8478 20.8101C19.7463 20.6764 19.6195 20.5846 19.4673 20.5348C19.0678 20.3792 18.7808 20.1257 18.6064 19.7741C18.432 19.4227 18.3892 19.0338 18.478 18.6076C18.5668 18.1814 18.8078 17.7723 19.201 17.3804C19.3785 17.2061 19.556 16.9884 19.7336 16.7271C19.9112 16.4657 20 16.1018 20 15.6351V4.93048C20 3.95987 19.7542 3.22881 19.2627 2.73729C18.7713 2.24576 18.0341 2 17.0511 2H6.94886C5.96591 2 5.22869 2.24421 4.73722 2.73262C4.24574 3.22103 4 3.95365 4 4.93048V19.1163C4 20.0744 4.24415 20.7946 4.73246 21.2767C5.22077 21.7589 5.95006 22 6.92033 22ZM5.53151 16.6057V4.95847C5.53151 4.49184 5.65676 4.13253 5.90725 3.88054C6.15775 3.62856 6.52715 3.50257 7.01545 3.50257H16.975C17.4696 3.50257 17.8422 3.62856 18.0928 3.88054C18.3432 4.13253 18.4685 4.49184 18.4685 4.95847V15.4298C18.4685 15.9586 18.1926 16.2231 17.6409 16.2231H7.08204C6.7713 16.2231 6.48751 16.2557 6.23068 16.3211C5.97384 16.3864 5.74078 16.4813 5.53151 16.6057ZM7.00594 20.4975C6.52398 20.4975 6.15775 20.3762 5.90725 20.1335C5.65676 19.8909 5.53151 19.5487 5.53151 19.1069C5.53151 18.69 5.67261 18.3556 5.95482 18.1036C6.23702 17.8517 6.61593 17.7257 7.09156 17.7257H16.8514C16.9719 17.7257 17.0828 17.7163 17.1843 17.6977C16.9624 18.183 16.8656 18.6698 16.8942 19.1582C16.9227 19.6466 17.0638 20.0931 17.3175 20.4975H7.00594ZM6.65398 17.0257H7.90012V3.1386H6.65398V17.0257ZM10.5067 13.6707C10.6547 13.6707 10.7807 13.6317 10.8848 13.5537C10.9889 13.4758 11.0739 13.3427 11.1396 13.1545L11.7397 11.4367H14.6742L15.2825 13.1545C15.3976 13.4986 15.6086 13.6707 15.9155 13.6707C16.0964 13.6707 16.2416 13.6182 16.3512 13.5134C16.4608 13.4085 16.5155 13.2755 16.5155 13.1142C16.5155 13.0013 16.4881 12.8615 16.4333 12.6948L14.1235 6.60595C13.9646 6.18121 13.6577 5.96884 13.2029 5.96884C12.7535 5.96884 12.4494 6.18121 12.2905 6.60595L9.98883 12.6948C9.92855 12.8615 9.89841 13.0013 9.89841 13.1142C9.89841 13.2808 9.95321 13.4153 10.0628 13.5175C10.1724 13.6196 10.3204 13.6707 10.5067 13.6707ZM12.0685 10.469L13.1618 7.34791H13.2522L14.3455 10.469H12.0685Z" fill="black" fill-opacity="0.8"/>
</svg>
