<svg width="24" height="24" viewBox="0 0 24 24" fill="none" xmlns="http://www.w3.org/2000/svg">
<path d="M3.81749 17.9746L11.2236 22.269C11.4871 22.423 11.7459 22.5 12 22.5C12.2541 22.5 12.516 22.423 12.7858 22.269L20.1825 17.9746C20.6154 17.7178 20.9432 17.4274 21.1659 17.1032C21.3886 16.779 21.5 16.2735 21.5 15.5867V7.96081C21.5 7.46012 21.4075 7.04609 21.2224 6.71872C21.0373 6.39134 20.7471 6.1089 20.3519 5.8714L13.6892 2.00069C13.1245 1.6669 12.5631 1.5 12.0047 1.5C11.4463 1.5 10.8817 1.6669 10.3108 2.00069L3.6575 5.8714C3.25598 6.1089 2.96269 6.39134 2.77761 6.71872C2.59254 7.04609 2.5 7.46012 2.5 7.96081V15.5867C2.5 16.2735 2.61293 16.779 2.83878 17.1032C3.06464 17.4274 3.39087 17.7178 3.81749 17.9746ZM4.66443 16.7036C4.38839 16.5431 4.19705 16.3746 4.09039 16.1981C3.98374 16.0216 3.93042 15.8017 3.93042 15.5385V8.26893L11.2613 12.5536V20.5454L4.66443 16.7036ZM19.345 16.7036L12.7387 20.5454V12.5536L20.0696 8.26893V15.5385C20.0696 15.8017 20.0162 16.0216 19.9096 16.1981C19.803 16.3746 19.6148 16.5431 19.345 16.7036ZM12.0047 11.2057L4.73972 6.99794L7.6476 5.29368L14.9126 9.52065L12.0047 11.2057ZM16.4277 8.64445L9.13448 4.4271L10.9413 3.37758C11.6565 2.96034 12.3654 2.96034 13.0681 3.37758L19.2696 6.99794L16.4277 8.64445Z" fill="black" fill-opacity="0.8"/>
</svg>
