<svg width="24" height="24" viewBox="0 0 24 24" fill="none" xmlns="http://www.w3.org/2000/svg">
<path d="M12.6415 22.5C12.6726 22.4935 12.7038 22.4823 12.735 22.4662C12.7663 22.4501 12.7975 22.4324 12.8287 22.4131L20.1609 18.1089C20.5979 17.8515 20.9303 17.5572 21.1582 17.2259C21.3861 16.8946 21.5 16.3782 21.5 15.6769V8.15901C21.5 7.86305 21.475 7.61857 21.425 7.42555L12.6415 12.5984V22.5ZM11.3585 22.5V12.5984L2.57491 7.42555C2.52497 7.61857 2.5 7.86305 2.5 8.15901V15.6769C2.5 16.3782 2.61549 16.8946 2.84648 17.2259C3.07746 17.5572 3.40833 17.8515 3.83908 18.1089L11.1806 22.4131C11.2118 22.4324 11.2415 22.4501 11.2696 22.4662C11.2977 22.4823 11.3273 22.4935 11.3585 22.5ZM12.0047 11.4403L16.0031 9.10478L7.13527 3.88373L3.69862 5.90073C3.48636 6.02298 3.31156 6.14844 3.17422 6.27711L12.0047 11.4403ZM17.3048 8.34238L20.8257 6.27711C20.6884 6.14844 20.5167 6.02298 20.3107 5.90073L13.6996 2.02114C13.119 1.67371 12.554 1.5 12.0047 1.5C11.4491 1.5 10.881 1.67371 10.3004 2.02114L8.39944 3.13098L17.3048 8.34238Z" fill="black" fill-opacity="0.8"/>
</svg>
