<svg width="24" height="24" viewBox="0 0 24 24" fill="none" xmlns="http://www.w3.org/2000/svg">
<path d="M2.28361 19.6504C2.70743 20.2629 3.2266 20.7597 3.84112 21.1408C4.45566 21.5219 5.11106 21.7777 5.80732 21.908C6.50359 22.0383 7.19077 22.0302 7.86887 21.8836C8.54698 21.737 9.16151 21.4454 9.71246 21.0089C10.3421 20.5072 10.8008 19.929 11.0883 19.2741C11.3759 18.6194 11.4819 17.9385 11.4062 17.2315C11.3305 16.5246 11.0626 15.8421 10.6025 15.1841C10.1726 14.5586 9.68522 14.0943 9.14032 13.7914C8.59541 13.4884 8.03991 13.3565 7.47381 13.3956C6.90772 13.4347 6.37342 13.6594 5.87089 14.0699C5.51974 14.3566 5.26696 14.6645 5.11257 14.9935C4.95818 15.3225 4.84769 15.6483 4.78109 15.9708C4.71449 16.2933 4.64486 16.5881 4.57221 16.8553C4.49955 17.1224 4.36333 17.3342 4.16353 17.4905C3.93346 17.673 3.70944 17.7837 3.49148 17.8228C3.27352 17.8619 3.06767 17.8912 2.87393 17.9108C2.68018 17.9303 2.49855 18.0085 2.32902 18.1454C2.14739 18.3017 2.03992 18.5135 2.00662 18.7805C1.97332 19.0477 2.06565 19.3376 2.28361 19.6504ZM4.13629 19.494C4.07574 19.4289 4.04547 19.3637 4.04547 19.2985C4.04547 19.2334 4.06666 19.1781 4.10904 19.1324C4.15142 19.0933 4.22861 19.0559 4.34062 19.02C4.45263 18.9842 4.58129 18.9321 4.72659 18.8637C4.8719 18.7953 5.00813 18.6894 5.13528 18.5461C5.35929 18.3115 5.52125 18.0558 5.62115 17.7789C5.72105 17.5019 5.80732 17.2201 5.87998 16.9334C5.95263 16.6468 6.0495 16.3683 6.17059 16.0979C6.29168 15.8275 6.47937 15.588 6.73366 15.3795C7.01822 15.1385 7.327 15.0049 7.65999 14.9788C7.99299 14.9528 8.32296 15.0277 8.6499 15.2036C8.97685 15.3795 9.27352 15.6499 9.53991 16.0148C9.83658 16.4318 10.0046 16.8667 10.044 17.3195C10.0833 17.7723 10.0031 18.2121 9.80328 18.6388C9.60348 19.0656 9.30076 19.4484 8.8951 19.7872C8.55 20.0805 8.17008 20.2971 7.75535 20.4371C7.34062 20.5772 6.91529 20.6375 6.47937 20.618C6.04345 20.5984 5.62266 20.4974 5.21701 20.3149C4.81136 20.1325 4.45112 19.8589 4.13629 19.494ZM11.1655 17.3244C11.656 17.2658 12.1191 17.1029 12.5551 16.8357C12.991 16.5686 13.439 16.1842 13.8991 15.6824C14.3835 15.1612 14.9012 14.5521 15.4521 13.8549C16.0031 13.1577 16.5586 12.4231 17.1186 11.651C17.6786 10.879 18.2144 10.1183 18.726 9.369C19.2377 8.61972 19.7024 7.93071 20.1202 7.30196C20.5379 6.67322 20.8815 6.15036 21.1509 5.73337C21.4203 5.31638 21.5883 5.05901 21.6549 4.96128C21.885 4.62248 22 4.27716 22 3.92533C22 3.57349 21.9183 3.2526 21.7549 2.96266C21.5914 2.67272 21.3749 2.43979 21.1055 2.26388C20.8361 2.08796 20.5379 2 20.2109 2C19.884 2 19.5601 2.12054 19.2392 2.36161C19.1484 2.43328 18.9092 2.61246 18.5217 2.89914C18.1342 3.18581 17.6484 3.55394 17.0641 4.00351C16.4798 4.45307 15.8396 4.95314 15.1433 5.50369C14.447 6.05425 13.7402 6.63087 13.0227 7.23355C12.3053 7.83623 11.6227 8.43403 10.9748 9.02693C10.327 9.61984 9.7609 10.1802 9.27654 10.7079C8.82245 11.2031 8.46978 11.682 8.21852 12.1446C7.96726 12.6072 7.81136 13.0958 7.75081 13.6105L9.17664 14.0309C9.18875 13.6725 9.28562 13.3141 9.46726 12.9557C9.64889 12.5974 9.9274 12.2195 10.3028 11.8221C10.7871 11.3073 11.3472 10.7617 11.9829 10.1851C12.6186 9.60844 13.2876 9.02693 13.99 8.44054C14.6923 7.85415 15.381 7.29219 16.056 6.75466C16.7311 6.21714 17.3502 5.73174 17.9133 5.29846C18.4763 4.86518 18.938 4.51171 19.2983 4.23807C19.6585 3.96442 19.8719 3.80153 19.9384 3.7494C20.0414 3.6647 20.1398 3.64027 20.2336 3.6761C20.3275 3.71194 20.3911 3.78198 20.4244 3.88622C20.4576 3.99047 20.435 4.10123 20.3563 4.21851C20.32 4.28367 20.1761 4.51009 19.9249 4.89776C19.6736 5.28543 19.3466 5.78223 18.944 6.38816C18.5414 6.99411 18.0888 7.66195 17.5863 8.39168C17.0838 9.12141 16.5586 9.86417 16.0106 10.62C15.4627 11.3758 14.9193 12.0973 14.3805 12.7847C13.8416 13.4721 13.336 14.0699 12.8638 14.5781C12.4945 14.9755 12.157 15.2655 11.8513 15.448C11.5455 15.6304 11.2352 15.7411 10.9203 15.7802L11.1655 17.3244ZM12.773 14.8713L13.9355 14.5488C13.9052 14.0862 13.7856 13.6318 13.5767 13.1854C13.3678 12.7391 13.0969 12.3335 12.7639 11.9687C12.4309 11.6038 12.0616 11.3057 11.656 11.0744C11.2503 10.8431 10.8325 10.7079 10.4027 10.6688L10.0122 11.9198C10.3028 11.9133 10.6085 12.0012 10.9294 12.1836C11.2503 12.3661 11.55 12.6072 11.8285 12.9069C12.107 13.2066 12.3341 13.5307 12.5097 13.8793C12.6852 14.2279 12.773 14.5585 12.773 14.8713Z" fill="black" fill-opacity="0.8"/>
</svg>
