<svg width="24" height="24" viewBox="0 0 24 24" fill="none" xmlns="http://www.w3.org/2000/svg">
<path d="M3.1851 21.8248C3.96885 22.6021 4.79648 22.9938 5.66801 22.9999C6.53954 23.0061 7.3609 22.6298 8.13212 21.8711C8.42054 21.5935 8.70739 21.2388 8.99267 20.807C9.27795 20.3752 9.55853 19.9203 9.83441 19.4422C10.1103 18.9641 10.3752 18.5154 10.6291 18.096C10.8831 17.6765 11.1229 17.3372 11.3486 17.0781L13.3519 19.0582C13.7155 19.4221 14.1058 19.6056 14.5228 19.6087C14.9397 19.6118 15.3269 19.4376 15.6843 19.086L16.8975 17.8831C17.2549 17.5253 17.4337 17.1459 17.4337 16.745C17.4337 16.344 17.2455 15.9616 16.8693 15.5976L9.52405 8.36186C9.15412 7.99791 8.76381 7.8144 8.35313 7.81132C7.94245 7.80823 7.55527 7.9825 7.19161 8.33411L5.97838 9.53698C5.62099 9.88859 5.4423 10.268 5.4423 10.6751C5.4423 11.0822 5.62726 11.4678 5.99719 11.8317L8.00985 13.8026C7.74651 14.0185 7.40166 14.2513 6.9753 14.5012C6.54894 14.751 6.09437 15.0132 5.61158 15.2877C5.1288 15.5622 4.66795 15.8398 4.22905 16.1204C3.79015 16.4011 3.42963 16.6802 3.14749 16.9578C2.37628 17.7166 1.99381 18.5247 2.00008 19.3821C2.00635 20.2395 2.40136 21.0538 3.1851 21.8248ZM7.28567 10.3605L8.04747 9.62951C8.17287 9.50614 8.29983 9.44291 8.42837 9.43983C8.5569 9.43675 8.68074 9.49689 8.79987 9.62026L15.5997 16.3008C15.8442 16.5476 15.8379 16.7974 15.5808 17.0503L14.8472 17.7813C14.5902 18.0527 14.3331 18.0558 14.076 17.7906L11.8283 15.5698C11.6527 15.3971 11.4599 15.3185 11.2499 15.3339C11.0398 15.3493 10.8345 15.4527 10.6338 15.6439C10.452 15.8228 10.2357 16.122 9.98489 16.5414C9.73409 16.9609 9.45821 17.4359 9.15725 17.9663C8.8563 18.4969 8.53496 19.0212 8.19324 19.5394C7.85153 20.0575 7.49258 20.4986 7.11638 20.8626C6.66494 21.3129 6.18058 21.5365 5.66331 21.5334C5.14604 21.5303 4.65228 21.3005 4.18202 20.844C3.71805 20.3875 3.48449 19.9033 3.48135 19.3913C3.47822 18.8793 3.70551 18.4013 4.16322 17.9572C4.53314 17.5932 4.98145 17.2416 5.50813 16.9023C6.03481 16.563 6.56775 16.2453 7.10697 15.9492C7.64619 15.6532 8.13055 15.3833 8.56004 15.1396C8.98953 14.896 9.29519 14.6847 9.47702 14.5058C9.66512 14.3084 9.76858 14.1049 9.78739 13.8951C9.8062 13.6854 9.72782 13.4972 9.55227 13.3307L7.28567 11.11C7.0286 10.8571 7.0286 10.6072 7.28567 10.3605ZM5.62098 20.5942C5.94075 20.5942 6.2135 20.4816 6.43922 20.2564C6.66494 20.0313 6.7778 19.7614 6.7778 19.4468C6.7778 19.1322 6.66494 18.8639 6.43922 18.6418C6.2135 18.4198 5.94075 18.3088 5.62098 18.3088C5.30122 18.3088 5.02691 18.4198 4.79805 18.6418C4.5692 18.8639 4.45477 19.1322 4.45477 19.4468C4.45477 19.7614 4.5692 20.0313 4.79805 20.2564C5.02691 20.4816 5.30122 20.5942 5.62098 20.5942ZM16.7659 16.5136L21.2332 12.1186C21.7536 11.6066 22.0091 11.0591 21.9998 10.4762C21.9903 9.89323 21.7191 9.3365 21.1862 8.806L13.8033 1.53322C13.5525 1.29265 13.2719 1.1338 12.9615 1.0567C12.6512 0.979589 12.344 0.981131 12.0399 1.06132C11.7358 1.14151 11.4677 1.29881 11.2357 1.53322C11.0038 1.76763 10.8439 2.07297 10.7561 2.44926C10.5805 3.19566 10.4316 3.8264 10.3094 4.34148C10.1871 4.85656 10.0711 5.29761 9.96138 5.66464C9.85165 6.03167 9.73095 6.36478 9.59928 6.66395C9.46762 6.96313 9.30774 7.26385 9.11964 7.56611C8.93154 7.86838 8.69328 8.21691 8.40486 8.6117L9.48643 9.67577C9.90025 9.14528 10.231 8.66258 10.4787 8.22769C10.7263 7.79281 10.9332 7.34713 11.0994 6.89065C11.2655 6.43417 11.427 5.91447 11.5837 5.33154C11.7405 4.7486 11.9317 4.04384 12.1575 3.21725C12.2013 3.05687 12.2687 2.93812 12.3596 2.86101C12.4505 2.78391 12.5524 2.74998 12.6653 2.75923C12.7782 2.76849 12.8879 2.82555 12.9945 2.93041L20.0388 9.85158C20.2582 10.0675 20.3679 10.2957 20.3679 10.5363C20.3679 10.7769 20.2676 10.9959 20.067 11.1933L15.7126 15.4774L16.7659 16.5136ZM15.2798 11.2395C15.4053 11.3629 15.6451 11.3752 15.9994 11.2765C16.3536 11.1778 16.7549 11.0097 17.2032 10.7723C17.6515 10.5348 18.0826 10.2633 18.4964 9.95799C18.9102 9.65265 19.2362 9.35193 19.4745 9.05584L17.4054 7.02944C17.3177 7.84987 17.0778 8.56851 16.6859 9.18537C16.2941 9.80223 15.8348 10.3697 15.3081 10.8879C15.1764 11.0112 15.167 11.1284 15.2798 11.2395Z" fill="black" fill-opacity="0.8"/>
</svg>
