<svg width="24" height="24" viewBox="0 0 24 24" fill="none" xmlns="http://www.w3.org/2000/svg">
<path d="M4 20.2926C4 20.8117 4.14908 21.2261 4.44724 21.5356C4.74539 21.8452 5.15243 22 5.66834 22H18.3416C18.8509 22 19.2546 21.8452 19.5527 21.5356C19.8509 21.2261 20 20.8117 20 20.2926V3.70732C20 3.18199 19.8509 2.7661 19.5527 2.45966C19.2546 2.15322 18.8509 2 18.3416 2H5.66834C5.15243 2 4.74539 2.15322 4.44724 2.45966C4.14908 2.7661 4 3.18199 4 3.70732V20.2926ZM5.61809 19.9456V4.05441C5.61809 3.86679 5.66499 3.7292 5.75879 3.64165C5.85259 3.55409 5.99999 3.51032 6.201 3.51032H17.8091C18.0034 3.51032 18.1474 3.55409 18.2412 3.64165C18.335 3.7292 18.3819 3.86679 18.3819 4.05441V19.9456C18.3819 20.1332 18.335 20.2708 18.2412 20.3583C18.1474 20.4459 18.0034 20.4897 17.8091 20.4897H6.201C5.99999 20.4897 5.85259 20.4459 5.75879 20.3583C5.66499 20.2708 5.61809 20.1332 5.61809 19.9456ZM8.50251 21.2026H9.81909V18.0694C9.81909 17.8693 9.92629 17.7692 10.1407 17.7692H13.8593C14.0737 17.7692 14.1809 17.8693 14.1809 18.0694V21.2026H15.4975V17.7224C15.4975 17.3158 15.4003 17.0172 15.206 16.8264C15.0117 16.6357 14.7069 16.5403 14.2914 16.5403H9.70854C9.29982 16.5403 8.99664 16.6357 8.79899 16.8264C8.60133 17.0172 8.50251 17.3158 8.50251 17.7224V21.2026ZM8.66331 7.60975H10.6231C10.8978 7.60975 11.0352 7.48155 11.0352 7.22514V5.45216C11.0352 5.19574 10.8978 5.06753 10.6231 5.06753H8.66331C8.402 5.06753 8.27135 5.19574 8.27135 5.45216V7.22514C8.27135 7.48155 8.402 7.60975 8.66331 7.60975ZM13.3769 7.60975H15.3267C15.6013 7.60975 15.7386 7.48155 15.7386 7.22514V5.45216C15.7386 5.19574 15.6013 5.06753 15.3267 5.06753H13.3769C13.1089 5.06753 12.9749 5.19574 12.9749 5.45216V7.22514C12.9749 7.48155 13.1089 7.60975 13.3769 7.60975ZM8.66331 11.3246H10.6231C10.8978 11.3246 11.0352 11.1964 11.0352 10.94V9.16697C11.0352 8.91056 10.8978 8.78235 10.6231 8.78235H8.66331C8.402 8.78235 8.27135 8.91056 8.27135 9.16697V10.94C8.27135 11.1964 8.402 11.3246 8.66331 11.3246ZM13.3769 11.3246H15.3267C15.6013 11.3246 15.7386 11.1964 15.7386 10.94V9.16697C15.7386 8.91056 15.6013 8.78235 15.3267 8.78235H13.3769C13.1089 8.78235 12.9749 8.91056 12.9749 9.16697V10.94C12.9749 11.1964 13.1089 11.3246 13.3769 11.3246ZM8.66331 15.0394H10.6231C10.8978 15.0394 11.0352 14.9112 11.0352 14.6548V12.8818C11.0352 12.6254 10.8978 12.4972 10.6231 12.4972H8.66331C8.402 12.4972 8.27135 12.6254 8.27135 12.8818V14.6548C8.27135 14.9112 8.402 15.0394 8.66331 15.0394ZM13.3769 15.0394H15.3267C15.6013 15.0394 15.7386 14.9112 15.7386 14.6548V12.8818C15.7386 12.6254 15.6013 12.4972 15.3267 12.4972H13.3769C13.1089 12.4972 12.9749 12.6254 12.9749 12.8818V14.6548C12.9749 14.9112 13.1089 15.0394 13.3769 15.0394Z" fill="black" fill-opacity="0.8"/>
</svg>
