<svg width="24" height="24" viewBox="0 0 24 24" fill="none" xmlns="http://www.w3.org/2000/svg">
<path d="M14.3477 22H21.4566C21.9305 22 22.3062 21.8452 22.5837 21.5356C22.8612 21.2261 23 20.8117 23 20.2926V8.3227C23 7.80362 22.8612 7.3893 22.5837 7.07973C22.3062 6.77016 21.9305 6.61538 21.4566 6.61538H15.0213V8.1257H20.9608C21.1416 8.1257 21.2757 8.16948 21.3631 8.25703C21.4504 8.34459 21.494 8.48217 21.494 8.66978V19.9456C21.494 20.1332 21.4504 20.2708 21.3631 20.3583C21.2757 20.4459 21.1416 20.4897 20.9608 20.4897H14.3477V22ZM17.9395 11.7748H19.4455C19.6575 11.7748 19.7635 11.6685 19.7635 11.4559V9.99249C19.7635 9.77986 19.6575 9.67354 19.4455 9.67354H17.9395C17.7338 9.67354 17.6309 9.77986 17.6309 9.99249V11.4559C17.6309 11.6685 17.7338 11.7748 17.9395 11.7748ZM17.9395 15.3583H19.4455C19.6575 15.3583 19.7635 15.252 19.7635 15.0394V13.5759C19.7635 13.3633 19.6575 13.257 19.4455 13.257H17.9395C17.7338 13.257 17.6309 13.3633 17.6309 13.5759V15.0394C17.6309 15.252 17.7338 15.3583 17.9395 15.3583ZM17.9395 18.9418H19.4455C19.6575 18.9418 19.7635 18.8355 19.7635 18.6229V17.1594C19.7635 16.9468 19.6575 16.8405 19.4455 16.8405H17.9395C17.7338 16.8405 17.6309 16.9468 17.6309 17.1594V18.6229C17.6309 18.8355 17.7338 18.9418 17.9395 18.9418ZM1 20.2926C1 20.8117 1.13875 21.2261 1.41624 21.5356C1.69373 21.8452 2.07256 22 2.55271 22H14.3477C14.8216 22 15.1974 21.8452 15.4749 21.5356C15.7524 21.2261 15.8911 20.8117 15.8911 20.2926V3.70732C15.8911 3.18199 15.7524 2.7661 15.4749 2.45966C15.1974 2.15322 14.8216 2 14.3477 2H2.55271C2.07256 2 1.69373 2.15322 1.41624 2.45966C1.13875 2.7661 1 3.18199 1 3.70732V20.2926ZM2.50595 19.9456V4.05441C2.50595 3.86679 2.5496 3.7292 2.6369 3.64165C2.7242 3.55409 2.86139 3.51032 3.04846 3.51032H13.852C14.0329 3.51032 14.1669 3.55409 14.2542 3.64165C14.3415 3.7292 14.3852 3.86679 14.3852 4.05441V19.9456C14.3852 20.1332 14.3415 20.2708 14.2542 20.3583C14.1669 20.4459 14.0329 20.4897 13.852 20.4897H3.04846C2.86139 20.4897 2.7242 20.4459 2.6369 20.3583C2.5496 20.2708 2.50595 20.1332 2.50595 19.9456ZM5.19047 21.2026H6.41581V18.0694C6.41581 17.8693 6.51558 17.7692 6.71513 17.7692H10.176C10.3755 17.7692 10.4753 17.8693 10.4753 18.0694V21.2026H11.7007V17.7224C11.7007 17.3158 11.6103 17.0172 11.4294 16.8264C11.2486 16.6357 10.9649 16.5403 10.5782 16.5403H6.31292C5.93253 16.5403 5.65036 16.6357 5.46641 16.8264C5.28245 17.0172 5.19047 17.3158 5.19047 17.7224V21.2026ZM5.34013 7.60975H7.16411C7.41977 7.60975 7.54761 7.48155 7.54761 7.22514V5.45216C7.54761 5.19574 7.41977 5.06753 7.16411 5.06753H5.34013C5.09693 5.06753 4.97533 5.19574 4.97533 5.45216V7.22514C4.97533 7.48155 5.09693 7.60975 5.34013 7.60975ZM9.72702 7.60975H11.5417C11.7973 7.60975 11.9251 7.48155 11.9251 7.22514V5.45216C11.9251 5.19574 11.7973 5.06753 11.5417 5.06753H9.72702C9.47759 5.06753 9.35287 5.19574 9.35287 5.45216V7.22514C9.35287 7.48155 9.47759 7.60975 9.72702 7.60975ZM5.34013 11.3246H7.16411C7.41977 11.3246 7.54761 11.1964 7.54761 10.94V9.16697C7.54761 8.91056 7.41977 8.78235 7.16411 8.78235H5.34013C5.09693 8.78235 4.97533 8.91056 4.97533 9.16697V10.94C4.97533 11.1964 5.09693 11.3246 5.34013 11.3246ZM9.72702 11.3246H11.5417C11.7973 11.3246 11.9251 11.1964 11.9251 10.94V9.16697C11.9251 8.91056 11.7973 8.78235 11.5417 8.78235H9.72702C9.47759 8.78235 9.35287 8.91056 9.35287 9.16697V10.94C9.35287 11.1964 9.47759 11.3246 9.72702 11.3246ZM5.34013 15.0394H7.16411C7.41977 15.0394 7.54761 14.9112 7.54761 14.6548V12.8818C7.54761 12.6254 7.41977 12.4972 7.16411 12.4972H5.34013C5.09693 12.4972 4.97533 12.6254 4.97533 12.8818V14.6548C4.97533 14.9112 5.09693 15.0394 5.34013 15.0394ZM9.72702 15.0394H11.5417C11.7973 15.0394 11.9251 14.9112 11.9251 14.6548V12.8818C11.9251 12.6254 11.7973 12.4972 11.5417 12.4972H9.72702C9.47759 12.4972 9.35287 12.6254 9.35287 12.8818V14.6548C9.35287 14.9112 9.47759 15.0394 9.72702 15.0394Z" fill="black" fill-opacity="0.8"/>
</svg>
