<svg width="24" height="24" viewBox="0 0 24 24" fill="none" xmlns="http://www.w3.org/2000/svg">
<path d="M5.15103 21H18.8589C19.9094 21 20.6955 20.7474 21.2173 20.2423C21.7391 19.7372 22 18.9794 22 17.9691V6.03097C22 5.02065 21.7391 4.2629 21.2173 3.75774C20.6955 3.25258 19.9094 3 18.8589 3H5.15103C4.10068 3 3.31293 3.25258 2.78776 3.75774C2.26259 4.2629 2 5.02065 2 6.03097V17.9691C2 18.9794 2.26259 19.7372 2.78776 20.2423C3.31293 20.7474 4.10068 21 5.15103 21ZM5.0005 19.4259C4.55895 19.4259 4.21776 19.3102 3.97692 19.0788C3.73608 18.8474 3.61566 18.5068 3.61566 18.0571V8.83706C3.61566 8.3873 3.73608 8.04673 3.97692 7.81533C4.21776 7.58393 4.55895 7.46823 5.0005 7.46823H18.9895C19.4377 7.46823 19.7822 7.58393 20.0231 7.81533C20.2639 8.04673 20.3843 8.3873 20.3843 8.83706V18.0571C20.3843 18.5068 20.2639 18.8474 20.0231 19.0788C19.7822 19.3102 19.4377 19.4259 18.9895 19.4259H5.0005ZM10.0482 10.9881H10.6402C10.8142 10.9881 10.9363 10.9555 11.0065 10.8903C11.0768 10.8251 11.1119 10.7078 11.1119 10.5383V9.96146C11.1119 9.79198 11.0768 9.67628 11.0065 9.61436C10.9363 9.55243 10.8142 9.52147 10.6402 9.52147H10.0482C9.87422 9.52147 9.75213 9.55243 9.68189 9.61436C9.61164 9.67628 9.57652 9.79198 9.57652 9.96146V10.5383C9.57652 10.7078 9.61164 10.8251 9.68189 10.8903C9.75213 10.9555 9.87422 10.9881 10.0482 10.9881ZM13.3798 10.9881H13.9719C14.1526 10.9881 14.2763 10.9555 14.3432 10.8903C14.4101 10.8251 14.4436 10.7078 14.4436 10.5383V9.96146C14.4436 9.79198 14.4101 9.67628 14.3432 9.61436C14.2763 9.55243 14.1526 9.52147 13.9719 9.52147H13.3798C13.2059 9.52147 13.0855 9.55243 13.0186 9.61436C12.9517 9.67628 12.9182 9.79198 12.9182 9.96146V10.5383C12.9182 10.7078 12.9517 10.8251 13.0186 10.8903C13.0855 10.9555 13.2059 10.9881 13.3798 10.9881ZM16.7215 10.9881H17.3036C17.4842 10.9881 17.6079 10.9555 17.6748 10.8903C17.7418 10.8251 17.7752 10.7078 17.7752 10.5383V9.96146C17.7752 9.79198 17.7418 9.67628 17.6748 9.61436C17.6079 9.55243 17.4842 9.52147 17.3036 9.52147H16.7215C16.5409 9.52147 16.4171 9.55243 16.3502 9.61436C16.2833 9.67628 16.2499 9.79198 16.2499 9.96146V10.5383C16.2499 10.7078 16.2833 10.8251 16.3502 10.8903C16.4171 10.9555 16.5409 10.9881 16.7215 10.9881ZM6.7165 14.1852H7.30858C7.48252 14.1852 7.60294 14.1527 7.66984 14.0875C7.73674 14.0223 7.77019 13.905 7.77019 13.7355V13.1684C7.77019 12.9924 7.73674 12.8735 7.66984 12.8115C7.60294 12.7496 7.48252 12.7187 7.30858 12.7187H6.7165C6.53587 12.7187 6.41211 12.7496 6.34521 12.8115C6.27831 12.8735 6.24486 12.9924 6.24486 13.1684V13.7355C6.24486 13.905 6.27831 14.0223 6.34521 14.0875C6.41211 14.1527 6.53587 14.1852 6.7165 14.1852ZM10.0482 14.1852H10.6402C10.8142 14.1852 10.9363 14.1527 11.0065 14.0875C11.0768 14.0223 11.1119 13.905 11.1119 13.7355V13.1684C11.1119 12.9924 11.0768 12.8735 11.0065 12.8115C10.9363 12.7496 10.8142 12.7187 10.6402 12.7187H10.0482C9.87422 12.7187 9.75213 12.7496 9.68189 12.8115C9.61164 12.8735 9.57652 12.9924 9.57652 13.1684V13.7355C9.57652 13.905 9.61164 14.0223 9.68189 14.0875C9.75213 14.1527 9.87422 14.1852 10.0482 14.1852ZM13.3798 14.1852H13.9719C14.1526 14.1852 14.2763 14.1527 14.3432 14.0875C14.4101 14.0223 14.4436 13.905 14.4436 13.7355V13.1684C14.4436 12.9924 14.4101 12.8735 14.3432 12.8115C14.2763 12.7496 14.1526 12.7187 13.9719 12.7187H13.3798C13.2059 12.7187 13.0855 12.7496 13.0186 12.8115C12.9517 12.8735 12.9182 12.9924 12.9182 13.1684V13.7355C12.9182 13.905 12.9517 14.0223 13.0186 14.0875C13.0855 14.1527 13.2059 14.1852 13.3798 14.1852ZM16.7215 14.1852H17.3036C17.4842 14.1852 17.6079 14.1527 17.6748 14.0875C17.7418 14.0223 17.7752 13.905 17.7752 13.7355V13.1684C17.7752 12.9924 17.7418 12.8735 17.6748 12.8115C17.6079 12.7496 17.4842 12.7187 17.3036 12.7187H16.7215C16.5409 12.7187 16.4171 12.7496 16.3502 12.8115C16.2833 12.8735 16.2499 12.9924 16.2499 13.1684V13.7355C16.2499 13.905 16.2833 14.0223 16.3502 14.0875C16.4171 14.1527 16.5409 14.1852 16.7215 14.1852ZM6.7165 17.3825H7.30858C7.48252 17.3825 7.60294 17.3515 7.66984 17.2896C7.73674 17.2276 7.77019 17.1086 7.77019 16.9326V16.3656C7.77019 16.1896 7.73674 16.0707 7.66984 16.0087C7.60294 15.9468 7.48252 15.9158 7.30858 15.9158H6.7165C6.53587 15.9158 6.41211 15.9468 6.34521 16.0087C6.27831 16.0707 6.24486 16.1896 6.24486 16.3656V16.9326C6.24486 17.1086 6.27831 17.2276 6.34521 17.2896C6.41211 17.3515 6.53587 17.3825 6.7165 17.3825ZM10.0482 17.3825H10.6402C10.8142 17.3825 10.9363 17.3515 11.0065 17.2896C11.0768 17.2276 11.1119 17.1086 11.1119 16.9326V16.3656C11.1119 16.1896 11.0768 16.0707 11.0065 16.0087C10.9363 15.9468 10.8142 15.9158 10.6402 15.9158H10.0482C9.87422 15.9158 9.75213 15.9468 9.68189 16.0087C9.61164 16.0707 9.57652 16.1896 9.57652 16.3656V16.9326C9.57652 17.1086 9.61164 17.2276 9.68189 17.2896C9.75213 17.3515 9.87422 17.3825 10.0482 17.3825ZM13.3798 17.3825H13.9719C14.1526 17.3825 14.2763 17.3515 14.3432 17.2896C14.4101 17.2276 14.4436 17.1086 14.4436 16.9326V16.3656C14.4436 16.1896 14.4101 16.0707 14.3432 16.0087C14.2763 15.9468 14.1526 15.9158 13.9719 15.9158H13.3798C13.2059 15.9158 13.0855 15.9468 13.0186 16.0087C12.9517 16.0707 12.9182 16.1896 12.9182 16.3656V16.9326C12.9182 17.1086 12.9517 17.2276 13.0186 17.2896C13.0855 17.3515 13.2059 17.3825 13.3798 17.3825Z" fill="#FF3B30"/>
</svg>
