<svg width="26" height="24" viewBox="0 0 26 24" fill="none" xmlns="http://www.w3.org/2000/svg">
<path d="M5.15103 21H15.5976C15.4504 20.7588 15.3216 20.5062 15.2112 20.2422C15.1008 19.9782 15.0122 19.7061 14.9453 19.4258H5.0005C4.55895 19.4258 4.21776 19.3101 3.97692 19.0787C3.73608 18.8474 3.61566 18.5068 3.61566 18.057V8.83704C3.61566 8.38729 3.73608 8.04671 3.97692 7.81531C4.21776 7.58392 4.55895 7.46822 5.0005 7.46822H18.9895C19.4377 7.46822 19.7822 7.58392 20.0231 7.81531C20.2639 8.04671 20.3843 8.38729 20.3843 8.83704V11.6138C20.5315 11.6008 20.672 11.5894 20.8058 11.5796C20.9396 11.5698 21.0734 11.5649 21.2072 11.5649C21.341 11.5649 21.4748 11.5682 21.6086 11.5747C21.7424 11.5812 21.8729 11.5942 22 11.6138V6.03096C22 5.02064 21.7391 4.2629 21.2173 3.75773C20.6955 3.25258 19.9094 3 18.8589 3H5.15103C4.10068 3 3.31293 3.25258 2.78776 3.75773C2.26259 4.2629 2 5.02064 2 6.03096V17.969C2 18.9793 2.26259 19.7371 2.78776 20.2422C3.31293 20.7474 4.10068 21 5.15103 21ZM10.0381 10.9783H10.6302C10.8041 10.9783 10.9262 10.9473 10.9965 10.8854C11.0667 10.8235 11.1019 10.7078 11.1019 10.5383V9.96142C11.1019 9.79195 11.0667 9.67463 10.9965 9.60944C10.9262 9.54427 10.8041 9.51168 10.6302 9.51168H10.0381C9.86419 9.51168 9.74209 9.54427 9.67185 9.60944C9.6016 9.67463 9.56648 9.79195 9.56648 9.96142V10.5383C9.56648 10.7078 9.6016 10.8235 9.67185 10.8854C9.74209 10.9473 9.86419 10.9783 10.0381 10.9783ZM13.3798 10.9783H13.9618C14.1425 10.9783 14.2663 10.9473 14.3332 10.8854C14.4001 10.8235 14.4335 10.7078 14.4335 10.5383V9.96142C14.4335 9.79195 14.4001 9.67463 14.3332 9.60944C14.2663 9.54427 14.1425 9.51168 13.9618 9.51168H13.3798C13.1992 9.51168 13.0754 9.54427 13.0085 9.60944C12.9416 9.67463 12.9081 9.79195 12.9081 9.96142V10.5383C12.9081 10.7078 12.9416 10.8235 13.0085 10.8854C13.0754 10.9473 13.1992 10.9783 13.3798 10.9783ZM16.7115 10.9783H17.3036C17.4775 10.9783 17.5979 10.9473 17.6648 10.8854C17.7317 10.8235 17.7652 10.7078 17.7652 10.5383V9.96142C17.7652 9.79195 17.7317 9.67463 17.6648 9.60944C17.5979 9.54427 17.4775 9.51168 17.3036 9.51168H16.7115C16.5308 9.51168 16.4071 9.54427 16.3402 9.60944C16.2733 9.67463 16.2398 9.79195 16.2398 9.96142V10.5383C16.2398 10.7078 16.2733 10.8235 16.3402 10.8854C16.4071 10.9473 16.5308 10.9783 16.7115 10.9783ZM6.70647 14.1755H7.29854C7.47249 14.1755 7.59291 14.1445 7.6598 14.0826C7.72671 14.0206 7.76016 13.9049 7.76016 13.7354V13.1586C7.76016 12.9891 7.72671 12.8734 7.6598 12.8115C7.59291 12.7496 7.47249 12.7186 7.29854 12.7186H6.70647C6.52584 12.7186 6.40207 12.7496 6.33517 12.8115C6.26827 12.8734 6.23482 12.9891 6.23482 13.1586V13.7354C6.23482 13.9049 6.26827 14.0206 6.33517 14.0826C6.40207 14.1445 6.52584 14.1755 6.70647 14.1755ZM10.0381 14.1755H10.6302C10.8041 14.1755 10.9262 14.1445 10.9965 14.0826C11.0667 14.0206 11.1019 13.9049 11.1019 13.7354V13.1586C11.1019 12.9891 11.0667 12.8734 10.9965 12.8115C10.9262 12.7496 10.8041 12.7186 10.6302 12.7186H10.0381C9.86419 12.7186 9.74209 12.7496 9.67185 12.8115C9.6016 12.8734 9.56648 12.9891 9.56648 13.1586V13.7354C9.56648 13.9049 9.6016 14.0206 9.67185 14.0826C9.74209 14.1445 9.86419 14.1755 10.0381 14.1755ZM13.3798 14.1755H13.9618C14.1425 14.1755 14.2663 14.1445 14.3332 14.0826C14.4001 14.0206 14.4335 13.9049 14.4335 13.7354V13.1586C14.4335 12.9891 14.4001 12.8734 14.3332 12.8115C14.2663 12.7496 14.1425 12.7186 13.9618 12.7186H13.3798C13.1992 12.7186 13.0754 12.7496 13.0085 12.8115C12.9416 12.8734 12.9081 12.9891 12.9081 13.1586V13.7354C12.9081 13.9049 12.9416 14.0206 13.0085 14.0826C13.0754 14.1445 13.1992 14.1755 13.3798 14.1755ZM6.70647 17.3824H7.29854C7.47249 17.3824 7.59291 17.3498 7.6598 17.2846C7.72671 17.2194 7.76016 17.1021 7.76016 16.9326V16.3558C7.76016 16.1863 7.72671 16.0706 7.6598 16.0086C7.59291 15.9468 7.47249 15.9158 7.29854 15.9158H6.70647C6.52584 15.9158 6.40207 15.9468 6.33517 16.0086C6.26827 16.0706 6.23482 16.1863 6.23482 16.3558V16.9326C6.23482 17.1021 6.26827 17.2194 6.33517 17.2846C6.40207 17.3498 6.52584 17.3824 6.70647 17.3824ZM10.0381 17.3824H10.6302C10.8041 17.3824 10.9262 17.3498 10.9965 17.2846C11.0667 17.2194 11.1019 17.1021 11.1019 16.9326V16.3558C11.1019 16.1863 11.0667 16.0706 10.9965 16.0086C10.9262 15.9468 10.8041 15.9158 10.6302 15.9158H10.0381C9.86419 15.9158 9.74209 15.9468 9.67185 16.0086C9.6016 16.0706 9.56648 16.1863 9.56648 16.3558V16.9326C9.56648 17.1021 9.6016 17.2194 9.67185 17.2846C9.74209 17.3498 9.86419 17.3824 10.0381 17.3824ZM13.3798 17.3824H13.9618C14.1425 17.3824 14.2663 17.3498 14.3332 17.2846C14.4001 17.2194 14.4335 17.1021 14.4335 16.9326V16.3558C14.4335 16.1863 14.4001 16.0706 14.3332 16.0086C14.2663 15.9468 14.1425 15.9158 13.9618 15.9158H13.3798C13.1992 15.9158 13.0754 15.9468 13.0085 16.0086C12.9416 16.0706 12.9081 16.1863 12.9081 16.3558V16.9326C12.9081 17.1021 12.9416 17.2194 13.0085 17.2846C13.0754 17.3498 13.1992 17.3824 13.3798 17.3824Z" fill="black" fill-opacity="0.8"/>
<path fill-rule="evenodd" clip-rule="evenodd" d="M20.6914 22.6699C21.362 22.6699 21.9968 22.5397 22.5957 22.2793C23.1946 22.0189 23.7236 21.6608 24.1826 21.2051C24.6416 20.7494 25.0013 20.222 25.2617 19.623C25.5221 19.0241 25.6523 18.3861 25.6523 17.709C25.6523 17.0254 25.5237 16.3841 25.2666 15.7852C25.0095 15.1862 24.653 14.6588 24.1973 14.2031C23.7416 13.7474 23.2142 13.3909 22.6152 13.1338C22.0163 12.8766 21.375 12.748 20.6914 12.748C20.0143 12.748 19.3763 12.8766 18.7773 13.1338C18.1784 13.3909 17.651 13.749 17.1953 14.208C16.7396 14.667 16.3815 15.1943 16.1211 15.79C15.8607 16.3857 15.7305 17.0254 15.7305 17.709C15.7305 18.3926 15.8607 19.0339 16.1211 19.6328C16.3815 20.2317 16.7396 20.7591 17.1953 21.2148C17.651 21.6705 18.1784 22.027 18.7773 22.2842C19.3763 22.5413 20.0143 22.6699 20.6914 22.6699ZM20.6914 18.5488C20.5156 18.5488 20.374 18.4951 20.2666 18.3877C20.1592 18.2803 20.1022 18.1452 20.0957 17.9824L20.0176 15.1895C20.0111 14.9876 20.0697 14.8249 20.1934 14.7012C20.3171 14.5775 20.4831 14.5156 20.6914 14.5156C20.8932 14.5156 21.056 14.5775 21.1797 14.7012C21.3034 14.8249 21.362 14.9876 21.3555 15.1895L21.2773 17.9824C21.2708 18.1452 21.2139 18.2803 21.1064 18.3877C20.999 18.4951 20.8607 18.5488 20.6914 18.5488ZM20.1055 20.6338C20.2682 20.7933 20.4603 20.873 20.6816 20.873C20.9095 20.873 21.1048 20.7933 21.2676 20.6338C21.4303 20.4743 21.5117 20.2806 21.5117 20.0527C21.5117 19.8314 21.432 19.6377 21.2725 19.4717C21.113 19.3057 20.916 19.2227 20.6816 19.2227C20.4603 19.2227 20.2682 19.3041 20.1055 19.4668C19.9427 19.6295 19.8613 19.8248 19.8613 20.0527C19.8613 20.2806 19.9427 20.4743 20.1055 20.6338Z" fill="#FF3B30"/>
</svg>
