<svg width="26" height="24" viewBox="0 0 26 24" fill="none" xmlns="http://www.w3.org/2000/svg">
<path d="M5.15103 21H15.5976C15.4504 20.7588 15.3216 20.5062 15.2112 20.2422C15.1008 19.9782 15.0122 19.7061 14.9453 19.4258H5.0005C4.55895 19.4258 4.21776 19.3101 3.97692 19.0787C3.73608 18.8474 3.61566 18.5068 3.61566 18.057V8.83704C3.61566 8.38729 3.73608 8.04671 3.97692 7.81531C4.21776 7.58392 4.55895 7.46822 5.0005 7.46822H18.9895C19.4377 7.46822 19.7822 7.58392 20.0231 7.81531C20.2639 8.04671 20.3843 8.38729 20.3843 8.83704V11.6138C20.5315 11.6008 20.672 11.5894 20.8058 11.5796C20.9396 11.5698 21.0734 11.5649 21.2072 11.5649C21.341 11.5649 21.4748 11.5682 21.6086 11.5747C21.7424 11.5812 21.8729 11.5942 22 11.6138V6.03096C22 5.02064 21.7391 4.2629 21.2173 3.75773C20.6955 3.25258 19.9094 3 18.8589 3H5.15103C4.10068 3 3.31293 3.25258 2.78776 3.75773C2.26259 4.2629 2 5.02064 2 6.03096V17.969C2 18.9793 2.26259 19.7371 2.78776 20.2422C3.31293 20.7474 4.10068 21 5.15103 21ZM10.0381 10.9783H10.6302C10.8041 10.9783 10.9262 10.9473 10.9965 10.8854C11.0667 10.8235 11.1019 10.7078 11.1019 10.5383V9.96142C11.1019 9.79195 11.0667 9.67463 10.9965 9.60944C10.9262 9.54427 10.8041 9.51168 10.6302 9.51168H10.0381C9.86419 9.51168 9.74209 9.54427 9.67185 9.60944C9.6016 9.67463 9.56648 9.79195 9.56648 9.96142V10.5383C9.56648 10.7078 9.6016 10.8235 9.67185 10.8854C9.74209 10.9473 9.86419 10.9783 10.0381 10.9783ZM13.3798 10.9783H13.9618C14.1425 10.9783 14.2663 10.9473 14.3332 10.8854C14.4001 10.8235 14.4335 10.7078 14.4335 10.5383V9.96142C14.4335 9.79195 14.4001 9.67463 14.3332 9.60944C14.2663 9.54427 14.1425 9.51168 13.9618 9.51168H13.3798C13.1992 9.51168 13.0754 9.54427 13.0085 9.60944C12.9416 9.67463 12.9081 9.79195 12.9081 9.96142V10.5383C12.9081 10.7078 12.9416 10.8235 13.0085 10.8854C13.0754 10.9473 13.1992 10.9783 13.3798 10.9783ZM16.7115 10.9783H17.3036C17.4775 10.9783 17.5979 10.9473 17.6648 10.8854C17.7317 10.8235 17.7652 10.7078 17.7652 10.5383V9.96142C17.7652 9.79195 17.7317 9.67463 17.6648 9.60944C17.5979 9.54427 17.4775 9.51168 17.3036 9.51168H16.7115C16.5308 9.51168 16.4071 9.54427 16.3402 9.60944C16.2733 9.67463 16.2398 9.79195 16.2398 9.96142V10.5383C16.2398 10.7078 16.2733 10.8235 16.3402 10.8854C16.4071 10.9473 16.5308 10.9783 16.7115 10.9783ZM6.70647 14.1755H7.29854C7.47249 14.1755 7.59291 14.1445 7.6598 14.0826C7.72671 14.0206 7.76016 13.9049 7.76016 13.7354V13.1586C7.76016 12.9891 7.72671 12.8734 7.6598 12.8115C7.59291 12.7496 7.47249 12.7186 7.29854 12.7186H6.70647C6.52584 12.7186 6.40207 12.7496 6.33517 12.8115C6.26827 12.8734 6.23482 12.9891 6.23482 13.1586V13.7354C6.23482 13.9049 6.26827 14.0206 6.33517 14.0826C6.40207 14.1445 6.52584 14.1755 6.70647 14.1755ZM10.0381 14.1755H10.6302C10.8041 14.1755 10.9262 14.1445 10.9965 14.0826C11.0667 14.0206 11.1019 13.9049 11.1019 13.7354V13.1586C11.1019 12.9891 11.0667 12.8734 10.9965 12.8115C10.9262 12.7496 10.8041 12.7186 10.6302 12.7186H10.0381C9.86419 12.7186 9.74209 12.7496 9.67185 12.8115C9.6016 12.8734 9.56648 12.9891 9.56648 13.1586V13.7354C9.56648 13.9049 9.6016 14.0206 9.67185 14.0826C9.74209 14.1445 9.86419 14.1755 10.0381 14.1755ZM13.3798 14.1755H13.9618C14.1425 14.1755 14.2663 14.1445 14.3332 14.0826C14.4001 14.0206 14.4335 13.9049 14.4335 13.7354V13.1586C14.4335 12.9891 14.4001 12.8734 14.3332 12.8115C14.2663 12.7496 14.1425 12.7186 13.9618 12.7186H13.3798C13.1992 12.7186 13.0754 12.7496 13.0085 12.8115C12.9416 12.8734 12.9081 12.9891 12.9081 13.1586V13.7354C12.9081 13.9049 12.9416 14.0206 13.0085 14.0826C13.0754 14.1445 13.1992 14.1755 13.3798 14.1755ZM6.70647 17.3824H7.29854C7.47249 17.3824 7.59291 17.3498 7.6598 17.2846C7.72671 17.2194 7.76016 17.1021 7.76016 16.9326V16.3558C7.76016 16.1863 7.72671 16.0706 7.6598 16.0086C7.59291 15.9468 7.47249 15.9158 7.29854 15.9158H6.70647C6.52584 15.9158 6.40207 15.9468 6.33517 16.0086C6.26827 16.0706 6.23482 16.1863 6.23482 16.3558V16.9326C6.23482 17.1021 6.26827 17.2194 6.33517 17.2846C6.40207 17.3498 6.52584 17.3824 6.70647 17.3824ZM10.0381 17.3824H10.6302C10.8041 17.3824 10.9262 17.3498 10.9965 17.2846C11.0667 17.2194 11.1019 17.1021 11.1019 16.9326V16.3558C11.1019 16.1863 11.0667 16.0706 10.9965 16.0086C10.9262 15.9468 10.8041 15.9158 10.6302 15.9158H10.0381C9.86419 15.9158 9.74209 15.9468 9.67185 16.0086C9.6016 16.0706 9.56648 16.1863 9.56648 16.3558V16.9326C9.56648 17.1021 9.6016 17.2194 9.67185 17.2846C9.74209 17.3498 9.86419 17.3824 10.0381 17.3824ZM13.3798 17.3824H13.9618C14.1425 17.3824 14.2663 17.3498 14.3332 17.2846C14.4001 17.2194 14.4335 17.1021 14.4335 16.9326V16.3558C14.4335 16.1863 14.4001 16.0706 14.3332 16.0086C14.2663 15.9468 14.1425 15.9158 13.9618 15.9158H13.3798C13.1992 15.9158 13.0754 15.9468 13.0085 16.0086C12.9416 16.0706 12.9081 16.1863 12.9081 16.3558V16.9326C12.9081 17.1021 12.9416 17.2194 13.0085 17.2846C13.0754 17.3498 13.1992 17.3824 13.3798 17.3824Z" fill="black" fill-opacity="0.8"/>
<path fill-rule="evenodd" clip-rule="evenodd" d="M22.9193 22.6063C22.3157 22.8688 21.6759 23 21 23C20.3176 23 19.6745 22.8704 19.0708 22.6113C18.4672 22.352 17.9357 21.9928 17.4763 21.5334C17.017 21.0741 16.6561 20.5426 16.3937 19.939C16.1312 19.3353 16 18.689 16 18C16 17.3111 16.1312 16.6664 16.3937 16.0659C16.6561 15.4656 17.017 14.9341 17.4763 14.4715C17.9357 14.0089 18.4672 13.648 19.0708 13.3888C19.6745 13.1296 20.3176 13 21 13C21.689 13 22.3353 13.1296 22.939 13.3888C23.5427 13.648 24.0742 14.0072 24.5335 14.4666C24.9929 14.9259 25.3521 15.4574 25.6113 16.0611C25.8704 16.6648 26 17.3111 26 18C26 18.6824 25.8688 19.3255 25.6063 19.9291C25.3439 20.5328 24.9813 21.0643 24.5187 21.5237C24.0561 21.983 23.523 22.3439 22.9193 22.6063ZM20.562 20.9626C20.6703 21.0742 20.8163 21.13 21 21.13C21.1837 21.13 21.3297 21.0742 21.438 20.9626C21.5463 20.851 21.6004 20.7067 21.6004 20.5296V18.6004H23.5296C23.7067 18.6004 23.8511 18.5463 23.9627 18.4381C24.0742 18.3298 24.13 18.1838 24.13 18C24.13 17.8163 24.0742 17.6703 23.9627 17.562C23.8511 17.4538 23.7067 17.3997 23.5296 17.3997H21.6004V15.4705C21.6004 15.2933 21.5463 15.1489 21.438 15.0374C21.3297 14.9259 21.1837 14.8701 21 14.8701C20.8163 14.8701 20.6703 14.9259 20.562 15.0374C20.4537 15.1489 20.3996 15.2933 20.3996 15.4705V17.3997H18.4704C18.2933 17.3997 18.149 17.4538 18.0374 17.562C17.9258 17.6703 17.87 17.8163 17.87 18C17.87 18.1838 17.9258 18.3298 18.0374 18.4381C18.149 18.5463 18.2933 18.6004 18.4704 18.6004H20.3996V20.5296C20.3996 20.7067 20.4537 20.851 20.562 20.9626Z" fill="#34C759"/>
</svg>
