<svg width="24" height="24" viewBox="0 0 24 24" fill="none" xmlns="http://www.w3.org/2000/svg">
<path d="M3.8127 20.5H20.1873C21.1189 20.5 21.8206 20.2697 22.2923 19.8092C22.7641 19.3486 23 18.6577 23 17.7365V8.403C23 7.48777 22.7641 6.79987 22.2923 6.33928C21.8206 5.8787 21.1189 5.64841 20.1873 5.64841H17.6254C17.3865 5.64841 17.1954 5.63058 17.0521 5.59492C16.9088 5.55926 16.7819 5.49835 16.6714 5.41217C16.5609 5.32599 16.437 5.20862 16.2997 5.06004L15.583 4.25774C15.3621 4.01407 15.1173 3.82687 14.8486 3.69612C14.5798 3.56537 14.2155 3.5 13.7556 3.5H10.1816C9.72177 3.5 9.35897 3.56537 9.09323 3.69612C8.82749 3.82687 8.58115 4.01407 8.35423 4.25774L7.63762 5.06004C7.44055 5.27994 7.25841 5.43297 7.09119 5.51914C6.92399 5.60532 6.66422 5.64841 6.31189 5.64841H3.8127C2.87513 5.64841 2.17196 5.8787 1.70318 6.33928C1.23439 6.79987 1 7.48777 1 8.403V17.7365C1 18.6577 1.23439 19.3486 1.70318 19.8092C2.17196 20.2697 2.87513 20.5 3.8127 20.5ZM3.83062 19.0648C3.38871 19.0648 3.04682 18.9474 2.80496 18.7126C2.56311 18.4779 2.44219 18.1288 2.44219 17.6652V8.48323C2.44219 8.01968 2.56311 7.67052 2.80496 7.43577C3.04682 7.20102 3.38871 7.08365 3.83062 7.08365H6.67019C7.07627 7.08365 7.40322 7.03759 7.65105 6.94547C7.89888 6.85336 8.13626 6.6825 8.36318 6.43289L9.06188 5.64841C9.31866 5.36314 9.54559 5.17297 9.74266 5.07788C9.93973 4.98279 10.2353 4.93525 10.6294 4.93525H13.3078C13.702 4.93525 13.9976 4.98279 14.1946 5.07788C14.3917 5.17297 14.6186 5.36314 14.8754 5.64841L15.5741 6.43289C15.801 6.6825 16.0384 6.85336 16.2862 6.94547C16.534 7.03759 16.861 7.08365 17.2671 7.08365H20.1604C20.6023 7.08365 20.9457 7.20102 21.1905 7.43577C21.4354 7.67052 21.5578 8.01968 21.5578 8.48323V17.6652C21.5578 18.1288 21.4354 18.4779 21.1905 18.7126C20.9457 18.9474 20.6023 19.0648 20.1604 19.0648H3.83062ZM12 17.7811C12.6748 17.7811 13.3078 17.6563 13.899 17.4067C14.4902 17.1571 15.0098 16.8094 15.4576 16.3637C15.9055 15.918 16.2548 15.4009 16.5057 14.8126C16.7565 14.2242 16.8819 13.5883 16.8819 12.9048C16.8819 12.0015 16.664 11.1814 16.228 10.4444C15.7921 9.70749 15.2038 9.1221 14.4633 8.68826C13.7228 8.25442 12.9017 8.0375 12 8.0375C11.3192 8.0375 10.6832 8.16231 10.092 8.41192C9.5008 8.66153 8.98275 9.00919 8.53786 9.45492C8.09296 9.90065 7.74361 10.4177 7.48982 11.0061C7.23602 11.5944 7.10912 12.2273 7.10912 12.9048C7.10912 13.5883 7.23602 14.2242 7.48982 14.8126C7.74361 15.4009 8.09296 15.918 8.53786 16.3637C8.98275 16.8094 9.5008 17.1571 10.092 17.4067C10.6832 17.6563 11.3192 17.7811 12 17.7811ZM12 16.4261C11.349 16.4261 10.7563 16.2686 10.2219 15.9536C9.68742 15.6386 9.26045 15.2152 8.94096 14.6833C8.62147 14.1514 8.46172 13.5586 8.46172 12.9048C8.46172 12.257 8.62147 11.6672 8.94096 11.1353C9.26045 10.6034 9.68742 10.1785 10.2219 9.86053C10.7563 9.54258 11.349 9.3836 12 9.3836C12.6509 9.3836 13.2436 9.54258 13.7781 9.86053C14.3126 10.1785 14.7381 10.6034 15.0546 11.1353C15.371 11.6672 15.5293 12.257 15.5293 12.9048C15.5293 13.5586 15.371 14.1514 15.0546 14.6833C14.7381 15.2152 14.3126 15.6386 13.7781 15.9536C13.2436 16.2686 12.6509 16.4261 12 16.4261ZM17.2491 9.62429C17.2491 9.93927 17.3596 10.2037 17.5806 10.4177C17.8016 10.6316 18.0673 10.7356 18.3778 10.7297C18.6764 10.7297 18.9362 10.6227 19.1571 10.4088C19.3781 10.1948 19.4885 9.93333 19.4885 9.62429C19.4885 9.32714 19.3781 9.06862 19.1571 8.84873C18.9362 8.62884 18.6764 8.51889 18.3778 8.51889C18.0673 8.51889 17.8016 8.62884 17.5806 8.84873C17.3596 9.06862 17.2491 9.32714 17.2491 9.62429Z" fill="black" fill-opacity="0.8"/>
</svg>
