<svg width="24" height="24" viewBox="0 0 24 24" fill="none" xmlns="http://www.w3.org/2000/svg">
<path d="M3.8127 20.5H20.1873C21.1189 20.5 21.8206 20.2697 22.2923 19.8092C22.7641 19.3486 23 18.6577 23 17.7365V8.403C23 7.48777 22.7641 6.79987 22.2923 6.33928C21.8206 5.8787 21.1189 5.64841 20.1873 5.64841H17.6254C17.3865 5.64841 17.1954 5.63058 17.0521 5.59492C16.9088 5.55926 16.7819 5.49835 16.6714 5.41217C16.5609 5.32599 16.437 5.20862 16.2997 5.06004L15.583 4.25774C15.3621 4.01407 15.1173 3.82687 14.8486 3.69612C14.5798 3.56537 14.2155 3.5 13.7556 3.5H10.1816C9.72177 3.5 9.35897 3.56537 9.09323 3.69612C8.82749 3.82687 8.58115 4.01407 8.35423 4.25774L7.63762 5.06004C7.44055 5.27994 7.25841 5.43297 7.09119 5.51914C6.92399 5.60532 6.66422 5.64841 6.31189 5.64841H3.8127C2.87513 5.64841 2.17196 5.8787 1.70318 6.33928C1.23439 6.79987 1 7.48777 1 8.403V17.7365C1 18.6577 1.23439 19.3486 1.70318 19.8092C2.17196 20.2697 2.87513 20.5 3.8127 20.5ZM5.78338 12.6374L7.2166 10.6316C7.34201 10.4533 7.49429 10.3672 7.67345 10.3731C7.8526 10.3791 8.00189 10.4652 8.12133 10.6316L9.57246 12.6374C9.6919 12.7979 9.72773 12.9568 9.67996 13.1143C9.63219 13.2718 9.50379 13.3506 9.29478 13.3506H8.35423C8.48561 13.8795 8.72746 14.3535 9.07979 14.7724C9.43213 15.1914 9.86062 15.5227 10.3653 15.7664C10.8699 16.0101 11.4207 16.1319 12.0179 16.1319C12.4478 16.1319 12.8345 16.0651 13.1779 15.9314C13.5213 15.7976 13.8542 15.603 14.1767 15.3474C14.3498 15.2167 14.5335 15.1469 14.7276 15.1379C14.9217 15.129 15.0963 15.2078 15.2516 15.3742C15.4069 15.5405 15.4621 15.7292 15.4174 15.9402C15.3725 16.1512 15.2426 16.3399 15.0277 16.5063C14.6395 16.8272 14.1797 17.0783 13.6482 17.2596C13.1167 17.4409 12.5733 17.5315 12.0179 17.5315C11.1639 17.5315 10.3846 17.3562 9.67996 17.0055C8.97529 16.6549 8.39006 16.1646 7.92426 15.5346C7.45846 14.9047 7.1539 14.1766 7.01058 13.3506H6.06107C5.85206 13.3506 5.72516 13.2718 5.68037 13.1143C5.63558 12.9568 5.66992 12.7979 5.78338 12.6374ZM8.75732 9.70453C8.60205 9.54406 8.54681 9.35834 8.59161 9.14736C8.63639 8.93639 8.76628 8.7477 8.98126 8.5813C9.36943 8.26037 9.82926 8.00779 10.3608 7.82356C10.8922 7.63932 11.4386 7.5472 12 7.5472C12.848 7.5472 13.6243 7.72401 14.3289 8.07762C15.0336 8.43123 15.6189 8.92153 16.0847 9.54852C16.5504 10.1755 16.855 10.902 16.9984 11.7281H17.8941C18.1091 11.7281 18.2375 11.8069 18.2793 11.9644C18.3211 12.1219 18.2852 12.2808 18.1718 12.4413L16.7386 14.456C16.6132 14.6343 16.4609 14.7204 16.2818 14.7145C16.1026 14.7086 15.9533 14.6224 15.8339 14.456L14.3827 12.4413C14.2633 12.2808 14.2275 12.1219 14.2753 11.9644C14.323 11.8069 14.4514 11.7281 14.6604 11.7281H15.6547C15.5233 11.1992 15.2814 10.7252 14.9291 10.3063C14.5768 9.88727 14.1484 9.55744 13.6437 9.31674C13.1391 9.07605 12.5912 8.9557 12 8.9557C11.5641 8.9557 11.1744 9.02108 10.831 9.15183C10.4876 9.28257 10.1547 9.47572 9.83224 9.73127C9.65906 9.86202 9.47692 9.93334 9.28582 9.94522C9.09472 9.95711 8.91856 9.87688 8.75732 9.70453Z" fill="black" fill-opacity="0.8"/>
</svg>
