<svg width="24" height="24" viewBox="0 0 24 24" fill="none" xmlns="http://www.w3.org/2000/svg">
<path d="M8.02404 22C8.99516 22 9.90476 21.825 10.7528 21.475C11.6009 21.1249 12.3475 20.6428 12.9928 20.0286C13.6379 19.4145 14.1418 18.7001 14.5043 17.8854C14.8668 17.0708 15.0481 16.1989 15.0481 15.2697C15.0481 14.3468 14.8652 13.4797 14.4993 12.6683C14.1335 11.8568 13.6296 11.144 12.9878 10.5298C12.3459 9.91567 11.6009 9.43357 10.7528 9.08353C9.90476 8.73349 8.99516 8.55847 8.02404 8.55847C7.05956 8.55847 6.15162 8.73349 5.30022 9.08353C4.44882 9.43357 3.70219 9.91567 3.06032 10.5298C2.41844 11.144 1.91459 11.8568 1.54875 12.6683C1.18292 13.4797 1 14.3468 1 15.2697C1 16.1989 1.18292 17.0708 1.54875 17.8854C1.91459 18.7001 2.41844 19.4145 3.06032 20.0286C3.70219 20.6428 4.44882 21.1249 5.30022 21.475C6.15162 21.825 7.05956 22 8.02404 22ZM8.02404 20.4726C7.27906 20.4726 6.57732 20.3373 5.91882 20.0668C5.26032 19.7963 4.68163 19.424 4.18276 18.9499C3.6839 18.4757 3.29478 17.9236 3.01542 17.2935C2.73606 16.6634 2.59637 15.9888 2.59637 15.2697C2.59637 14.5569 2.73606 13.887 3.01542 13.2601C3.29478 12.6332 3.6839 12.0827 4.18276 11.6086C4.68163 11.1344 5.26032 10.7621 5.91882 10.4916C6.57732 10.2212 7.27906 10.0859 8.02404 10.0859C8.77567 10.0859 9.47907 10.2212 10.1342 10.4916C10.7894 10.7621 11.3648 11.1344 11.8603 11.6086C12.3559 12.0827 12.745 12.6332 13.0277 13.2601C13.3104 13.887 13.4517 14.5569 13.4517 15.2697C13.4517 15.9888 13.3104 16.6634 13.0277 17.2935C12.745 17.9236 12.3559 18.4757 11.8603 18.9499C11.3648 19.424 10.7894 19.7963 10.1342 20.0668C9.47907 20.3373 8.77567 20.4726 8.02404 20.4726ZM12.005 15.4415C12.9695 15.4415 13.8757 15.2681 14.7238 14.9213C15.5719 14.5744 16.3185 14.0923 16.9637 13.475C17.6089 12.8576 18.1128 12.1432 18.4753 11.3317C18.8378 10.5203 19.019 9.64995 19.019 8.72075C19.019 7.79156 18.8378 6.92283 18.4753 6.11456C18.1128 5.30628 17.6089 4.59347 16.9637 3.97613C16.3185 3.35879 15.5719 2.8751 14.7238 2.52506C13.8757 2.17502 12.9695 2 12.005 2C11.0339 2 10.1243 2.17502 9.2762 2.52506C8.42812 2.8751 7.68148 3.35879 7.03628 3.97613C6.39108 4.59347 5.88557 5.30628 5.51973 6.11456C5.15389 6.92283 4.97098 7.79156 4.97098 8.72075C4.97098 9.64995 5.15389 10.5203 5.51973 11.3317C5.88557 12.1432 6.39108 12.8576 7.03628 13.475C7.68148 14.0923 8.42812 14.5744 9.2762 14.9213C10.1243 15.2681 11.0339 15.4415 12.005 15.4415ZM12.005 13.9141C11.2534 13.9141 10.5483 13.7804 9.8898 13.5131C9.2313 13.2458 8.65428 12.8735 8.15874 12.3962C7.66319 11.9189 7.27408 11.3667 6.99139 10.7398C6.7087 10.113 6.56735 9.43993 6.56735 8.72075C6.56735 8.00159 6.7087 7.33015 6.99139 6.70644C7.27408 6.08274 7.66319 5.53222 8.15874 5.05489C8.65428 4.57756 9.2313 4.20366 9.8898 3.93317C10.5483 3.66268 11.2534 3.52744 12.005 3.52744C12.7499 3.52744 13.45 3.66268 14.1052 3.93317C14.7604 4.20366 15.3374 4.57597 15.8363 5.05012C16.3352 5.52426 16.7243 6.07478 17.0037 6.70166C17.283 7.32855 17.4227 8.00159 17.4227 8.72075C17.4227 9.43993 17.283 10.113 17.0037 10.7398C16.7243 11.3667 16.3352 11.9189 15.8363 12.3962C15.3374 12.8735 14.7604 13.2458 14.1052 13.5131C13.45 13.7804 12.7499 13.9141 12.005 13.9141ZM15.986 22C16.9504 22 17.8567 21.825 18.7048 21.475C19.5528 21.1249 20.2995 20.6428 20.9447 20.0286C21.5899 19.4145 22.0938 18.7001 22.4563 17.8854C22.8188 17.0708 23 16.1989 23 15.2697C23 14.3468 22.8188 13.4797 22.4563 12.6683C22.0938 11.8568 21.5899 11.144 20.9447 10.5298C20.2995 9.91567 19.5528 9.43357 18.7048 9.08353C17.8567 8.73349 16.9504 8.55847 15.986 8.55847C15.0148 8.55847 14.1036 8.73349 13.2522 9.08353C12.4008 9.43357 11.6541 9.91567 11.0122 10.5298C10.3704 11.144 9.86652 11.8568 9.50068 12.6683C9.13484 13.4797 8.95193 14.3468 8.95193 15.2697C8.95193 16.1989 9.13484 17.0708 9.50068 17.8854C9.86652 18.7001 10.3704 19.4145 11.0122 20.0286C11.6541 20.6428 12.4008 21.1249 13.2522 21.475C14.1036 21.825 15.0148 22 15.986 22ZM15.986 20.4726C15.2344 20.4726 14.5293 20.3373 13.8708 20.0668C13.2123 19.7963 12.6352 19.424 12.1397 18.9499C11.6442 18.4757 11.255 17.9236 10.9723 17.2935C10.6896 16.6634 10.5483 15.9888 10.5483 15.2697C10.5483 14.5569 10.6896 13.887 10.9723 13.2601C11.255 12.6332 11.6442 12.0827 12.1397 11.6086C12.6352 11.1344 13.2123 10.7621 13.8708 10.4916C14.5293 10.2212 15.2344 10.0859 15.986 10.0859C16.7309 10.0859 17.431 10.2212 18.0861 10.4916C18.7413 10.7621 19.3167 11.1344 19.8123 11.6086C20.3078 12.0827 20.6969 12.6332 20.9796 13.2601C21.2623 13.887 21.4036 14.5569 21.4036 15.2697C21.4036 15.9888 21.2639 16.6634 20.9845 17.2935C20.7052 17.9236 20.3178 18.4757 19.8223 18.9499C19.3267 19.424 18.7496 19.7963 18.0911 20.0668C17.4326 20.3373 16.7309 20.4726 15.986 20.4726Z" fill="black" fill-opacity="0.8"/>
</svg>
