<svg width="24" height="24" viewBox="0 0 24 24" fill="none" xmlns="http://www.w3.org/2000/svg">
<path d="M3.8127 20.5H20.1873C21.1189 20.5 21.8206 20.2697 22.2923 19.8092C22.7641 19.3486 23 18.6577 23 17.7365V8.403C23 7.48777 22.7641 6.79987 22.2923 6.33928C21.8206 5.8787 21.1189 5.64841 20.1873 5.64841H17.6254C17.3865 5.64841 17.1954 5.63058 17.0521 5.59492C16.9088 5.55926 16.7819 5.49835 16.6714 5.41217C16.5609 5.32599 16.437 5.20862 16.2997 5.06004L15.583 4.25774C15.3621 4.01407 15.1173 3.82687 14.8486 3.69612C14.5798 3.56537 14.2155 3.5 13.7556 3.5H10.1816C9.72177 3.5 9.35897 3.56537 9.09323 3.69612C8.82749 3.82687 8.58115 4.01407 8.35423 4.25774L7.63762 5.06004C7.44055 5.27994 7.25841 5.43297 7.09119 5.51914C6.92399 5.60532 6.66422 5.64841 6.31189 5.64841H3.8127C2.87513 5.64841 2.17196 5.8787 1.70318 6.33928C1.23439 6.79987 1 7.48777 1 8.403V17.7365C1 18.6577 1.23439 19.3486 1.70318 19.8092C2.17196 20.2697 2.87513 20.5 3.8127 20.5ZM12 17.8703C11.3192 17.8703 10.6832 17.7454 10.092 17.4958C9.5008 17.2462 8.98275 16.8986 8.53786 16.4529C8.09296 16.0071 7.74361 15.49 7.48982 14.9017C7.23602 14.3133 7.10912 13.6774 7.10912 12.994C7.10912 12.3165 7.23602 11.6836 7.48982 11.0952C7.74361 10.5068 8.09296 9.98979 8.53786 9.54406C8.98275 9.09833 9.5008 8.75067 10.092 8.50107C10.6832 8.25146 11.3192 8.12665 12 8.12665C12.9017 8.12665 13.7228 8.34357 14.4633 8.77741C15.2038 9.21125 15.7921 9.79664 16.228 10.5336C16.664 11.2705 16.8819 12.0907 16.8819 12.994C16.8819 13.6774 16.7565 14.3133 16.5057 14.9017C16.2548 15.49 15.9055 16.0071 15.4576 16.4529C15.0098 16.8986 14.4902 17.2462 13.899 17.4958C13.3078 17.7454 12.6748 17.8703 12 17.8703ZM12 16.5152C12.6509 16.5152 13.2436 16.3577 13.7781 16.0427C14.3126 15.7278 14.7381 15.3044 15.0546 14.7724C15.371 14.2405 15.5293 13.6477 15.5293 12.994C15.5293 12.3462 15.371 11.7564 15.0546 11.2245C14.7381 10.6926 14.3126 10.2676 13.7781 9.94968C13.2436 9.63172 12.6509 9.47275 12 9.47275C11.349 9.47275 10.7563 9.63172 10.2219 9.94968C9.68742 10.2676 9.26045 10.6926 8.94096 11.2245C8.62147 11.7564 8.46172 12.3462 8.46172 12.994C8.46172 13.6477 8.62147 14.2405 8.94096 14.7724C9.26045 15.3044 9.68742 15.7278 10.2219 16.0427C10.7563 16.3577 11.349 16.5152 12 16.5152ZM17.4821 9.71344C17.4821 9.41034 17.597 9.14439 17.8269 8.91559C18.0568 8.68678 18.3301 8.57238 18.6466 8.57238C18.9511 8.57238 19.2183 8.68678 19.4483 8.91559C19.6782 9.14439 19.7932 9.41034 19.7932 9.71344C19.7932 10.0344 19.6782 10.3048 19.4483 10.5247C19.2183 10.7446 18.9511 10.8545 18.6466 10.8545C18.3301 10.8604 18.0568 10.752 17.8269 10.5291C17.597 10.3063 17.4821 10.0344 17.4821 9.71344Z" fill="black" fill-opacity="0.8"/>
</svg>
