<svg width="24" height="24" viewBox="0 0 24 24" fill="none" xmlns="http://www.w3.org/2000/svg">
<path d="M2.90854 17.5799H4.94636V16.043H2.92706C2.46392 16.043 2.10884 15.9157 1.86183 15.6611C1.61483 15.4065 1.49132 15.031 1.49132 14.5346V5.04535C1.49132 4.54893 1.61483 4.17343 1.86183 3.91885C2.10884 3.66428 2.46392 3.537 2.92706 3.537H16.3953C16.8522 3.537 17.2057 3.66428 17.4558 3.91885C17.7059 4.17343 17.8309 4.54893 17.8309 5.04535V7.49881H19.3223V4.95943C19.3223 3.97932 19.0799 3.24105 18.5952 2.74463C18.1104 2.24821 17.3864 2 16.4231 2H2.90854C1.93902 2 1.21189 2.24662 0.727134 2.73986C0.242378 3.23309 0 3.97295 0 4.95943V14.6205C0 15.607 0.242378 16.3469 0.727134 16.8401C1.21189 17.3333 1.93902 17.5799 2.90854 17.5799ZM7.58627 22H21.1008C22.0703 22 22.7959 21.7534 23.2775 21.2602C23.7592 20.7669 24 20.027 24 19.0406V10.2769C24 9.29038 23.7592 8.55211 23.2775 8.06205C22.7959 7.572 22.0703 7.32697 21.1008 7.32697H19.9058C19.5601 7.32697 19.3054 7.29356 19.1417 7.22673C18.9781 7.15991 18.7974 7.01512 18.5998 6.79237L17.9328 6.04774C17.692 5.78043 17.4466 5.58314 17.1965 5.45585C16.9464 5.32857 16.6423 5.26492 16.2841 5.26492H12.403C12.0386 5.26492 11.7314 5.32857 11.4813 5.45585C11.2312 5.58314 10.9857 5.78043 10.7449 6.04774L10.0873 6.79237C9.88347 7.01512 9.69974 7.15991 9.53609 7.22673C9.37245 7.29356 9.11773 7.32697 8.77192 7.32697H7.58627C6.61676 7.32697 5.88962 7.572 5.40487 8.06205C4.92011 8.55211 4.67774 9.29038 4.67774 10.2769V19.0406C4.67774 20.027 4.92011 20.7669 5.40487 21.2602C5.88962 21.7534 6.61676 22 7.58627 22ZM7.6048 20.463C7.14166 20.463 6.78658 20.3357 6.53957 20.0811C6.29256 19.8266 6.16906 19.4511 6.16906 18.9547V10.3628C6.16906 9.86635 6.29256 9.49245 6.53957 9.24106C6.78658 8.98967 7.14166 8.86397 7.6048 8.86397H9.13317C9.53457 8.86397 9.86959 8.81306 10.1382 8.71123C10.4068 8.6094 10.6585 8.42801 10.8931 8.16706L11.6897 7.26015C11.8379 7.10104 11.9908 6.98489 12.1482 6.9117C12.3057 6.83851 12.511 6.80191 12.7642 6.80191H15.9135C16.1667 6.80191 16.3721 6.83851 16.5296 6.9117C16.687 6.98489 16.8399 7.10104 16.9881 7.26015L17.794 8.16706C18.0286 8.42801 18.2803 8.6094 18.5489 8.71123C18.8175 8.81306 19.1494 8.86397 19.5446 8.86397H21.073C21.5361 8.86397 21.8912 8.98967 22.1382 9.24106C22.3852 9.49245 22.5087 9.86635 22.5087 10.3628V18.9547C22.5087 19.4511 22.3852 19.8266 22.1382 20.0811C21.8912 20.3357 21.5361 20.463 21.073 20.463H7.6048ZM14.3482 19.1742C15.1756 19.1742 15.9274 18.9658 16.6037 18.5489C17.2798 18.1321 17.8202 17.5736 18.2247 16.8735C18.6291 16.1735 18.8314 15.397 18.8314 14.5442C18.8314 13.6977 18.6291 12.9244 18.2247 12.2243C17.8202 11.5243 17.2798 10.9658 16.6037 10.5489C15.9274 10.1321 15.1756 9.92363 14.3482 9.92363C13.5207 9.92363 12.7673 10.1321 12.088 10.5489C11.4087 10.9658 10.8684 11.5243 10.4671 12.2243C10.0656 12.9244 9.86494 13.6977 9.86494 14.5442C9.86494 15.397 10.0656 16.1735 10.4671 16.8735C10.8684 17.5736 11.4087 18.1321 12.088 18.5489C12.7673 18.9658 13.5207 19.1742 14.3482 19.1742ZM14.3482 17.7137C13.7862 17.7137 13.2737 17.5705 12.8106 17.284C12.3474 16.9976 11.9768 16.6157 11.699 16.1384C11.4211 15.6611 11.2821 15.1297 11.2821 14.5442C11.2821 13.965 11.4211 13.4368 11.699 12.9595C11.9768 12.4821 12.3474 12.1018 12.8106 11.8186C13.2737 11.5354 13.7862 11.3938 14.3482 11.3938C14.9101 11.3938 15.4226 11.5354 15.8857 11.8186C16.3489 12.1018 16.7179 12.4821 16.9927 12.9595C17.2675 13.4368 17.4049 13.965 17.4049 14.5442C17.4049 15.1297 17.2675 15.6611 16.9927 16.1384C16.7179 16.6157 16.3489 16.9976 15.8857 17.284C15.4226 17.5705 14.9101 17.7137 14.3482 17.7137ZM20.0355 12.3485C20.3257 12.3485 20.5728 12.2451 20.7766 12.0382C20.9804 11.8314 21.0823 11.5784 21.0823 11.2792C21.0823 10.9801 20.9804 10.7255 20.7766 10.5155C20.5728 10.3055 20.3257 10.2005 20.0355 10.2005C19.7514 10.2005 19.5075 10.3055 19.3038 10.5155C19.1 10.7255 18.9981 10.9801 18.9981 11.2792C18.9981 11.5784 19.1 11.8314 19.3038 12.0382C19.5075 12.2451 19.7514 12.3485 20.0355 12.3485Z" fill="black" fill-opacity="0.8"/>
</svg>
