<svg width="24" height="24" viewBox="0 0 24 24" fill="none" xmlns="http://www.w3.org/2000/svg">
<path d="M2.81716 8.49973C3.36875 8.49973 3.64454 8.22039 3.64454 7.66172V5.24987C3.64454 4.71844 3.78073 4.31817 4.05311 4.04905C4.3255 3.77993 4.71706 3.64538 5.22778 3.64538H7.69969C8.25809 3.64538 8.53728 3.36944 8.53728 2.81758C8.53728 2.27253 8.25809 2 7.69969 2H5.20736C4.13823 2 3.3364 2.26401 2.80184 2.79203C2.26728 3.32004 2 4.10866 2 5.15789V7.66172C2 8.22039 2.27239 8.49973 2.81716 8.49973ZM21.1726 8.49973C21.7242 8.49973 22 8.22039 22 7.66172V5.15789C22 4.10866 21.7327 3.32004 21.1982 2.79203C20.6636 2.26401 19.8618 2 18.7927 2H16.2901C15.7385 2 15.4627 2.27253 15.4627 2.81758C15.4627 3.36944 15.7385 3.64538 16.2901 3.64538H18.762C19.2659 3.64538 19.6574 3.77993 19.9366 4.04905C20.2158 4.31817 20.3554 4.71844 20.3554 5.24987V7.66172C20.3554 8.22039 20.6278 8.49973 21.1726 8.49973ZM5.20736 22H7.69969C8.25809 22 8.53728 21.7275 8.53728 21.1824C8.53728 20.6305 8.25809 20.3546 7.69969 20.3546H5.22778C4.71706 20.3546 4.3255 20.22 4.05311 19.951C3.78073 19.6818 3.64454 19.2815 3.64454 18.7501V16.3382C3.64454 15.7796 3.36875 15.5002 2.81716 15.5002C2.27239 15.5002 2 15.7796 2 16.3382V18.8318C2 19.8879 2.26728 20.6799 2.80184 21.2079C3.3364 21.736 4.13823 22 5.20736 22ZM16.2901 22H18.7927C19.8618 22 20.6636 21.736 21.1982 21.2079C21.7327 20.6799 22 19.8879 22 18.8318V16.3382C22 15.7796 21.7242 15.5002 21.1726 15.5002C20.6278 15.5002 20.3554 15.7796 20.3554 16.3382V18.7501C20.3554 19.2815 20.2158 19.6818 19.9366 19.951C19.6574 20.22 19.2659 20.3546 18.762 20.3546H16.2901C15.7385 20.3546 15.4627 20.6305 15.4627 21.1824C15.4627 21.7275 15.7385 22 16.2901 22ZM7.44433 16.6244H16.5659C17.097 16.6244 17.5005 16.4915 17.7763 16.2258C18.0521 15.9601 18.19 15.5615 18.19 15.0301V9.6239C18.19 9.08566 18.0521 8.68368 17.7763 8.41797C17.5005 8.15226 17.097 8.0194 16.5659 8.0194H15.2379C15.0405 8.0194 14.8941 7.99555 14.7987 7.94786C14.7034 7.90018 14.5979 7.81161 14.4821 7.68216L14.0633 7.21205C13.934 7.07579 13.7927 6.97019 13.6394 6.89524C13.4862 6.82029 13.2802 6.78282 13.0214 6.78282H10.9581C10.6925 6.78282 10.4831 6.82029 10.3299 6.89524C10.1767 6.97019 10.0354 7.07579 9.90602 7.21205L9.48723 7.68216C9.37147 7.80479 9.26762 7.89166 9.17569 7.94275C9.08376 7.99385 8.93565 8.0194 8.73136 8.0194H7.44433C6.90636 8.0194 6.50119 8.15226 6.22881 8.41797C5.95641 8.68368 5.82022 9.08566 5.82022 9.6239V15.0301C5.82022 15.5615 5.95641 15.9601 6.22881 16.2258C6.50119 16.4915 6.90636 16.6244 7.44433 16.6244ZM12.0204 15.3367C11.4484 15.3367 10.9309 15.2005 10.4678 14.9279C10.0048 14.6554 9.63534 14.2875 9.35955 13.8242C9.08375 13.3609 8.94586 12.8431 8.94586 12.2708C8.94586 11.7053 9.08375 11.1909 9.35955 10.7276C9.63534 10.2643 10.0048 9.89642 10.4678 9.6239C10.9309 9.35137 11.4484 9.21511 12.0204 9.21511C12.5856 9.21511 13.098 9.35137 13.5577 9.6239C14.0174 9.89642 14.3851 10.2643 14.6609 10.7276C14.9367 11.1909 15.0746 11.7053 15.0746 12.2708C15.0746 12.8499 14.9367 13.3711 14.6609 13.8344C14.3851 14.2977 14.0174 14.6639 13.5577 14.933C13.098 15.2022 12.5856 15.3367 12.0204 15.3367ZM12.0102 14.4578C12.4052 14.4578 12.7678 14.3607 13.0981 14.1665C13.4284 13.9724 13.6922 13.7084 13.8897 13.3746C14.0872 13.0407 14.1859 12.6728 14.1859 12.2708C14.1859 11.8688 14.0872 11.5026 13.8897 11.1722C13.6922 10.8417 13.4284 10.5794 13.0981 10.3853C12.7678 10.1911 12.4052 10.094 12.0102 10.094C11.6084 10.094 11.2407 10.1911 10.907 10.3853C10.5734 10.5794 10.3095 10.8417 10.1154 11.1722C9.92135 11.5026 9.82431 11.8688 9.82431 12.2708C9.82431 12.6728 9.92135 13.0407 10.1154 13.3746C10.3095 13.7084 10.5734 13.9724 10.907 14.1665C11.2407 14.3607 11.6084 14.4578 12.0102 14.4578ZM16.0858 10.7992C15.9019 10.7992 15.7419 10.7327 15.6057 10.5999C15.4695 10.467 15.4014 10.3018 15.4014 10.1042C15.4014 9.91345 15.4695 9.75164 15.6057 9.61878C15.7419 9.48593 15.9019 9.41951 16.0858 9.41951C16.2764 9.41951 16.4399 9.48593 16.576 9.61878C16.7123 9.75164 16.7804 9.91345 16.7804 10.1042C16.7804 10.3018 16.7123 10.467 16.576 10.5999C16.4399 10.7327 16.2764 10.7992 16.0858 10.7992Z" fill="black" fill-opacity="0.8"/>
</svg>
