<svg width="24" height="24" viewBox="0 0 24 24" fill="none" xmlns="http://www.w3.org/2000/svg">
<path d="M5.97149 12.6374C5.864 12.7979 5.83116 12.9524 5.87296 13.101C5.91476 13.2495 6.03718 13.3238 6.24022 13.3238H7.1539C7.29722 14.1261 7.59581 14.8319 8.04967 15.4411C8.50352 16.0502 9.07233 16.5256 9.7561 16.8674C10.4399 17.2091 11.1938 17.38 12.0179 17.38C12.5553 17.38 13.0824 17.2908 13.599 17.1125C14.1155 16.9342 14.5649 16.6905 14.9471 16.3815C15.1501 16.2211 15.274 16.0383 15.3188 15.8332C15.3636 15.6282 15.3084 15.4455 15.1531 15.2851C15.0038 15.1246 14.8365 15.0503 14.6514 15.0622C14.4663 15.074 14.2872 15.1424 14.114 15.2672C13.7975 15.5109 13.4735 15.6981 13.1421 15.8289C12.8106 15.9596 12.4359 16.0249 12.0179 16.0249C11.4387 16.0249 10.9042 15.9061 10.4145 15.6684C9.92481 15.4307 9.50827 15.1097 9.1649 14.7056C8.82152 14.3014 8.58414 13.8409 8.45276 13.3238H9.3754C9.57844 13.3238 9.70385 13.248 9.75162 13.0965C9.7994 12.945 9.76655 12.792 9.65308 12.6374L8.23777 10.694C8.12431 10.5336 7.98099 10.4504 7.80782 10.4444C7.63463 10.4385 7.48533 10.5217 7.35992 10.694L5.97149 12.6374ZM8.86481 9.79367C9.01411 9.95413 9.18132 10.0299 9.36644 10.021C9.55157 10.0121 9.72774 9.94225 9.89495 9.8115C10.2055 9.56189 10.528 9.37469 10.8624 9.24989C11.1968 9.12508 11.576 9.06268 12 9.06268C12.5733 9.06268 13.1048 9.18005 13.5945 9.4148C14.0841 9.64955 14.5006 9.97047 14.8441 10.3776C15.1874 10.7847 15.4248 11.2438 15.5561 11.7549H14.5798C14.3827 11.7549 14.2603 11.8306 14.2125 11.9822C14.1648 12.1337 14.1976 12.2868 14.311 12.4413L15.7174 14.3936C15.8368 14.5541 15.9831 14.6373 16.1563 14.6432C16.3295 14.6491 16.4788 14.5659 16.6042 14.3936L17.9927 12.4413C18.1002 12.2868 18.1315 12.1337 18.0867 11.9822C18.0419 11.8306 17.921 11.7549 17.7239 11.7549H16.8551C16.7117 10.9585 16.4131 10.2557 15.9593 9.64658C15.5054 9.03742 14.9381 8.56049 14.2573 8.2158C13.5765 7.8711 12.8241 7.69875 12 7.69875C11.4566 7.69875 10.9266 7.7879 10.41 7.96619C9.89345 8.14448 9.44706 8.39112 9.07084 8.70609C8.8678 8.86656 8.74389 9.04782 8.69909 9.24989C8.6543 9.45195 8.70955 9.63321 8.86481 9.79367ZM3.8127 20.5H20.1873C21.1189 20.5 21.8206 20.2697 22.2923 19.8092C22.7641 19.3486 23 18.6577 23 17.7365V8.403C23 7.48777 22.7641 6.79987 22.2923 6.33928C21.8206 5.8787 21.1189 5.64841 20.1873 5.64841H17.6254C17.3865 5.64841 17.1954 5.63058 17.0521 5.59492C16.9088 5.55926 16.7819 5.49835 16.6714 5.41217C16.5609 5.32599 16.437 5.20862 16.2997 5.06004L15.583 4.25774C15.3621 4.01407 15.1173 3.82687 14.8486 3.69612C14.5798 3.56537 14.2155 3.5 13.7556 3.5H10.1816C9.72177 3.5 9.35897 3.56537 9.09323 3.69612C8.82749 3.82687 8.58115 4.01407 8.35423 4.25774L7.63762 5.06004C7.44055 5.27994 7.25841 5.43297 7.09119 5.51914C6.92399 5.60532 6.66422 5.64841 6.31189 5.64841H3.8127C2.87513 5.64841 2.17196 5.8787 1.70318 6.33928C1.23439 6.79987 1 7.48777 1 8.403V17.7365C1 18.6577 1.23439 19.3486 1.70318 19.8092C2.17196 20.2697 2.87513 20.5 3.8127 20.5ZM3.83062 19.0648C3.38871 19.0648 3.04682 18.9474 2.80496 18.7126C2.56311 18.4779 2.44219 18.1288 2.44219 17.6652V8.48323C2.44219 8.01968 2.56311 7.67052 2.80496 7.43577C3.04682 7.20102 3.38871 7.08365 3.83062 7.08365H6.67019C7.07627 7.08365 7.40322 7.03759 7.65105 6.94547C7.89888 6.85336 8.13626 6.6825 8.36318 6.43289L9.06188 5.64841C9.31866 5.36314 9.54559 5.17297 9.74266 5.07788C9.93973 4.98279 10.2353 4.93525 10.6294 4.93525H13.3078C13.702 4.93525 13.9976 4.98279 14.1946 5.07788C14.3917 5.17297 14.6186 5.36314 14.8754 5.64841L15.5741 6.43289C15.801 6.6825 16.0384 6.85336 16.2862 6.94547C16.534 7.03759 16.861 7.08365 17.2671 7.08365H20.1604C20.6023 7.08365 20.9457 7.20102 21.1905 7.43577C21.4354 7.67052 21.5578 8.01968 21.5578 8.48323V17.6652C21.5578 18.1288 21.4354 18.4779 21.1905 18.7126C20.9457 18.9474 20.6023 19.0648 20.1604 19.0648H3.83062Z" fill="black" fill-opacity="0.8"/>
</svg>
