<svg width="24" height="24" viewBox="0 0 24 24" fill="none" xmlns="http://www.w3.org/2000/svg">
<path d="M0 14.6205C0 15.607 0.242378 16.3469 0.727134 16.8401C1.21189 17.3333 1.93902 17.5799 2.90854 17.5799H3.40873V10.9451C3.40873 10.0477 3.57391 9.28083 3.90429 8.6444C4.23466 8.00796 4.7117 7.52268 5.3354 7.18855C5.9591 6.85442 6.70939 6.68735 7.58627 6.68735H8.95717C9.0251 6.68735 9.07913 6.68417 9.11927 6.67781C9.15941 6.67144 9.19646 6.65394 9.23043 6.62531C9.26439 6.59666 9.30916 6.5537 9.36474 6.49642L10.0224 5.80908C10.3929 5.41448 10.7819 5.1249 11.1895 4.94033C11.5971 4.75577 12.0633 4.66349 12.5882 4.66349H16.0989C16.6299 4.66349 17.1039 4.75736 17.5207 4.94511C17.9375 5.13286 18.3281 5.43039 18.6924 5.83771L19.1093 6.30549C19.1463 6.34368 19.1849 6.38505 19.2251 6.4296C19.2652 6.47415 19.2976 6.50279 19.3223 6.51551V4.95943C19.3223 3.97932 19.0799 3.24105 18.5952 2.74463C18.1104 2.24821 17.3864 2 16.4231 2H2.90854C1.93902 2 1.21189 2.24662 0.727134 2.73986C0.242378 3.23309 0 3.97295 0 4.95943V14.6205ZM7.58627 22H21.1008C22.0703 22 22.7959 21.7534 23.2775 21.2602C23.7592 20.7669 24 20.027 24 19.0406V10.9451C24 9.95864 23.7592 9.22037 23.2775 8.73032C22.7959 8.24026 22.0703 7.99523 21.1008 7.99523H19.7206C19.3748 7.99523 19.12 7.96181 18.9565 7.89499C18.7928 7.82817 18.6122 7.68338 18.4146 7.46063L17.7476 6.71599C17.5068 6.44869 17.2613 6.25776 17.0112 6.1432C16.7612 6.02864 16.457 5.97136 16.0989 5.97136H12.5882C12.2239 5.97136 11.9182 6.02864 11.6712 6.1432C11.4242 6.25776 11.1772 6.44869 10.9301 6.71599L10.2261 7.46063C10.0224 7.66429 9.84641 7.8043 9.69819 7.88068C9.54999 7.95704 9.30298 7.99523 8.95717 7.99523H7.58627C6.61676 7.99523 5.88962 8.24026 5.40487 8.73032C4.92011 9.22037 4.67774 9.95864 4.67774 10.9451V19.0406C4.67774 20.027 4.92011 20.7669 5.40487 21.2602C5.88962 21.7534 6.61676 22 7.58627 22ZM14.3482 19.1742C13.5207 19.1742 12.7673 18.9658 12.088 18.5489C11.4087 18.1321 10.8684 17.5736 10.4671 16.8735C10.0656 16.1735 9.86494 15.397 9.86494 14.5442C9.86494 13.6977 10.0656 12.9244 10.4671 12.2243C10.8684 11.5243 11.4087 10.9658 12.088 10.5489C12.7673 10.1321 13.5207 9.92363 14.3482 9.92363C15.1756 9.92363 15.9274 10.1321 16.6037 10.5489C17.2798 10.9658 17.8202 11.5243 18.2247 12.2243C18.6291 12.9244 18.8314 13.6977 18.8314 14.5442C18.8314 15.397 18.6291 16.1735 18.2247 16.8735C17.8202 17.5736 17.2798 18.1321 16.6037 18.5489C15.9274 18.9658 15.1756 19.1742 14.3482 19.1742ZM14.3482 17.7137C14.9101 17.7137 15.4226 17.5705 15.8857 17.284C16.3489 16.9976 16.7179 16.6157 16.9927 16.1384C17.2675 15.6611 17.4049 15.1297 17.4049 14.5442C17.4049 13.965 17.2675 13.4368 16.9927 12.9595C16.7179 12.4821 16.3489 12.1018 15.8857 11.8186C15.4226 11.5354 14.9101 11.3938 14.3482 11.3938C13.7862 11.3938 13.2737 11.5354 12.8106 11.8186C12.3474 12.1018 11.9768 12.4821 11.699 12.9595C11.4211 13.4368 11.2821 13.965 11.2821 14.5442C11.2821 15.1297 11.4211 15.6611 11.699 16.1384C11.9768 16.6157 12.3474 16.9976 12.8106 17.284C13.2737 17.5705 13.7862 17.7137 14.3482 17.7137ZM20.0355 12.3485C19.7514 12.3485 19.5075 12.2451 19.3038 12.0382C19.1 11.8314 18.9981 11.5784 18.9981 11.2792C18.9981 10.9801 19.1 10.7255 19.3038 10.5155C19.5075 10.3055 19.7514 10.2005 20.0355 10.2005C20.3257 10.2005 20.5728 10.3055 20.7766 10.5155C20.9804 10.7255 21.0823 10.9801 21.0823 11.2792C21.0823 11.5784 20.9804 11.8314 20.7766 12.0382C20.5728 12.2451 20.3257 12.3485 20.0355 12.3485Z" fill="black" fill-opacity="0.8"/>
</svg>
