<svg width="24" height="24" viewBox="0 0 24 24" fill="none" xmlns="http://www.w3.org/2000/svg">
<path d="M3.93651 22H20.0635C21.0455 22 21.7804 21.7386 22.2683 21.2157C22.7561 20.6928 23 19.905 23 18.8524V8.81114C23 7.75163 22.7561 6.96216 22.2683 6.44272C21.7804 5.92329 21.0455 5.66357 20.0635 5.66357H3.93651C2.96084 5.66357 2.2275 5.92329 1.7365 6.44272C1.2455 6.96216 1 7.75163 1 8.81114V18.8524C1 19.905 1.2455 20.6928 1.7365 21.2157C2.2275 21.7386 2.96084 22 3.93651 22ZM3.95551 20.3488C3.49302 20.3488 3.13982 20.2181 2.8959 19.9567C2.65198 19.6952 2.53003 19.2996 2.53003 18.7698V8.8937C2.53003 8.36394 2.65198 7.96834 2.8959 7.70691C3.13982 7.44547 3.49302 7.31476 3.95551 7.31476H20.0445C20.507 7.31476 20.8602 7.44547 21.1041 7.70691C21.3481 7.96834 21.47 8.36394 21.47 8.8937V18.7698C21.47 19.2996 21.3481 19.6952 21.1041 19.9567C20.8602 20.2181 20.507 20.3488 20.0445 20.3488H3.95551ZM7.17712 6.5614H8.65012V4.73477C8.65012 4.34262 8.75149 4.0399 8.95422 3.82663C9.15696 3.61335 9.44522 3.50671 9.81901 3.50671H14.181C14.5484 3.50671 14.8335 3.61335 15.0363 3.82663C15.239 4.0399 15.3404 4.34262 15.3404 4.73477V6.54076H16.8134V4.84829C16.8134 3.87822 16.5853 3.16099 16.1292 2.69659C15.6731 2.2322 15.0141 2 14.1525 2H9.83802C9.02708 2 8.38085 2.2322 7.89935 2.69659C7.41786 3.16099 7.17712 3.87822 7.17712 4.84829V6.5614ZM7.36612 14.7454C7.36612 15.0126 7.44235 15.229 7.59481 15.3945C7.74727 15.5601 7.94386 15.6429 8.18458 15.6429H10.3388V17.7342C10.3388 18.0072 10.4137 18.2251 10.5635 18.3877C10.7133 18.5504 10.9112 18.6317 11.1573 18.6317H12.8584C13.1045 18.6317 13.3024 18.5504 13.4522 18.3877C13.6019 18.2251 13.6768 18.0072 13.6768 17.7342V15.6429H15.9021C16.1482 15.6429 16.3475 15.5601 16.5 15.3945C16.6525 15.229 16.7287 15.0126 16.7287 14.7454V12.898C16.7287 12.6308 16.6525 12.4159 16.5 12.2533C16.3475 12.0906 16.1482 12.0093 15.9021 12.0093H13.6768V9.9267C13.6768 9.65367 13.6019 9.43583 13.4522 9.27317C13.3024 9.11052 13.1045 9.02919 12.8584 9.02919H11.1573C10.9112 9.02919 10.7133 9.11052 10.5635 9.27317C10.4137 9.43583 10.3388 9.65367 10.3388 9.9267V12.0093H8.18458C7.93851 12.0093 7.74058 12.0906 7.5908 12.2533C7.44101 12.4159 7.36612 12.6308 7.36612 12.898V14.7454Z" fill="black" fill-opacity="0.8"/>
</svg>
