<svg width="24" height="24" viewBox="0 0 24 24" fill="none" xmlns="http://www.w3.org/2000/svg">
<path fill-rule="evenodd" clip-rule="evenodd" d="M3.95551 20.3488C3.49302 20.3488 3.13982 20.2181 2.8959 19.9567C2.65198 19.6952 2.53003 19.2996 2.53003 18.7698V8.8937C2.53003 8.36394 2.65198 7.96834 2.8959 7.70691C3.13982 7.44547 3.49302 7.31476 3.95551 7.31476H20.0445C20.507 7.31476 20.8602 7.44547 21.1041 7.70691C21.3481 7.96834 21.47 8.36394 21.47 8.8937V18.7698C21.47 19.2996 21.3481 19.6952 21.1041 19.9567C20.8602 20.2181 20.507 20.3488 20.0445 20.3488H3.95551ZM7.59481 15.3945C7.44235 15.229 7.36612 15.0126 7.36612 14.7454V12.898C7.36612 12.6308 7.44101 12.4159 7.5908 12.2533C7.74058 12.0906 7.93851 12.0093 8.18458 12.0093H10.3388V9.9267C10.3388 9.65367 10.4137 9.43583 10.5635 9.27317C10.7133 9.11052 10.9112 9.02919 11.1573 9.02919H12.8584C13.1045 9.02919 13.3024 9.11052 13.4522 9.27317C13.6019 9.43583 13.6768 9.65367 13.6768 9.9267V12.0093H15.9021C16.1482 12.0093 16.3475 12.0906 16.5 12.2533C16.6525 12.4159 16.7287 12.6308 16.7287 12.898V14.7454C16.7287 15.0126 16.6525 15.229 16.5 15.3945C16.3475 15.5601 16.1482 15.6429 15.9021 15.6429H13.6768V17.7342C13.6768 18.0072 13.6019 18.2251 13.4522 18.3877C13.3024 18.5504 13.1045 18.6317 12.8584 18.6317H11.1573C10.9112 18.6317 10.7133 18.5504 10.5635 18.3877C10.4137 18.2251 10.3388 18.0072 10.3388 17.7342V15.6429H8.18458C7.94386 15.6429 7.74727 15.5601 7.59481 15.3945Z" fill="black" fill-opacity="0.8"/>
<path fill-rule="evenodd" clip-rule="evenodd" d="M20.0635 22H3.93651C2.96084 22 2.2275 21.7386 1.7365 21.2157C1.2455 20.6928 1 19.905 1 18.8524V8.81114C1 7.75163 1.2455 6.96216 1.7365 6.44272C2.2275 5.92329 2.96084 5.66357 3.93651 5.66357H7.17712V4.84829C7.17712 3.87822 7.41786 3.16099 7.89935 2.69659C8.38085 2.2322 9.02708 2 9.83802 2H14.1525C15.0141 2 15.6731 2.2322 16.1292 2.69659C16.5853 3.16099 16.8134 3.87822 16.8134 4.84829V5.66357H20.0635C21.0455 5.66357 21.7804 5.92329 22.2683 6.44272C22.7561 6.96216 23 7.75163 23 8.81114V18.8524C23 19.905 22.7561 20.6928 22.2683 21.2157C21.7804 21.7386 21.0455 22 20.0635 22ZM15.3404 5.66357H8.65012V4.73477C8.65012 4.34262 8.75149 4.0399 8.95422 3.82663C9.15696 3.61335 9.44522 3.50671 9.81901 3.50671H14.181C14.5484 3.50671 14.8335 3.61335 15.0363 3.82663C15.239 4.0399 15.3404 4.34262 15.3404 4.73477V5.66357ZM2.8959 19.9567C3.13982 20.2181 3.49302 20.3488 3.95551 20.3488H20.0445C20.507 20.3488 20.8602 20.2181 21.1041 19.9567C21.3481 19.6952 21.47 19.2996 21.47 18.7698V8.8937C21.47 8.36394 21.3481 7.96834 21.1041 7.70691C20.8602 7.44547 20.507 7.31476 20.0445 7.31476H3.95551C3.49302 7.31476 3.13982 7.44547 2.8959 7.70691C2.65198 7.96834 2.53003 8.36394 2.53003 8.8937V18.7698C2.53003 19.2996 2.65198 19.6952 2.8959 19.9567Z" fill="black" fill-opacity="0.8"/>
</svg>
