<svg width="24" height="24" viewBox="0 0 24 24" fill="none" xmlns="http://www.w3.org/2000/svg">
<path d="M1 13.29V11.7317H5.02937V11.4634C5.02937 10.7066 5.37783 10.3282 6.07473 10.3282H8.43154C9.13478 10.3282 9.4864 10.7066 9.4864 11.4634V11.7317H14.5042V11.4634C14.5042 10.7066 14.8558 10.3282 15.5589 10.3282H17.9158C18.619 10.3282 18.9706 10.7066 18.9706 11.4634V11.7317H23V13.29H18.9706V13.5789C18.9706 14.3288 18.619 14.7038 17.9158 14.7038H15.5589C14.8558 14.7038 14.5042 14.3288 14.5042 13.5789V13.29H9.4864V13.5789C9.4864 14.3288 9.13478 14.7038 8.43154 14.7038H6.07473C5.37783 14.7038 5.02937 14.3288 5.02937 13.5789V13.29H1ZM3.93651 22H20.0635C21.0455 22 21.7804 21.7386 22.2683 21.2157C22.7561 20.6928 23 19.905 23 18.8524V8.81114C23 7.75163 22.7561 6.96216 22.2683 6.44272C21.7804 5.92329 21.0455 5.66357 20.0635 5.66357H3.93651C2.96084 5.66357 2.2275 5.92329 1.7365 6.44272C1.2455 6.96216 1 7.75163 1 8.81114V18.8524C1 19.905 1.2455 20.6928 1.7365 21.2157C2.2275 21.7386 2.96084 22 3.93651 22ZM7.17712 6.5614H8.65012V4.73477C8.65012 4.34262 8.75148 4.0399 8.95422 3.82663C9.15696 3.61335 9.44522 3.50671 9.81901 3.50671H14.181C14.5484 3.50671 14.8335 3.61335 15.0363 3.82663C15.239 4.0399 15.3404 4.34262 15.3404 4.73477V6.54076H16.8134V4.84829C16.8134 3.87822 16.5853 3.16099 16.1292 2.69659C15.6731 2.2322 15.0141 2 14.1525 2H9.83802C9.02708 2 8.38085 2.2322 7.89935 2.69659C7.41786 3.16099 7.17712 3.87822 7.17712 4.84829V6.5614Z" fill="black" fill-opacity="0.8"/>
</svg>
