<svg width="24" height="24" viewBox="0 0 24 24" fill="none" xmlns="http://www.w3.org/2000/svg">
<path d="M4.05255 22H19.9475C20.9683 22 21.7322 21.7386 22.2394 21.2157C22.7465 20.6928 23 19.905 23 18.8524V8.81114C23 7.75163 22.7465 6.96216 22.2394 6.44272C21.7322 5.92329 20.9683 5.66357 19.9475 5.66357H4.05255C3.03832 5.66357 2.27601 5.92329 1.76561 6.44272C1.2552 6.96216 1 7.75163 1 8.81114V18.8524C1 19.905 1.2552 20.6928 1.76561 21.2157C2.27601 21.7386 3.03832 22 4.05255 22ZM4.0723 20.3488C3.59153 20.3488 3.22437 20.2181 2.97081 19.9567C2.71726 19.6952 2.59049 19.2996 2.59049 18.7698V8.8937C2.59049 8.36394 2.71726 7.96834 2.97081 7.70691C3.22437 7.44547 3.59153 7.31476 4.0723 7.31476H19.9277C20.4151 7.31476 20.7839 7.44547 21.0342 7.70691C21.2845 7.96834 21.4096 8.36394 21.4096 8.8937V18.7698C21.4096 19.2996 21.2845 19.6952 21.0342 19.9567C20.7839 20.2181 20.4151 20.3488 19.9277 20.3488H4.0723ZM1.81994 11.6594C3.34786 12.2098 4.96962 12.6226 6.68524 12.8978C8.40085 13.173 10.1741 13.3106 12.005 13.3106C13.8359 13.3106 15.6075 13.173 17.3197 12.8978C19.0321 12.6226 20.6522 12.2098 22.1801 11.6594V9.89473C20.6851 10.5002 19.0814 10.9542 17.3691 11.257C15.6568 11.5597 13.8688 11.711 12.005 11.711C10.1346 11.711 8.34323 11.5597 6.63091 11.257C4.91858 10.9542 3.31493 10.5002 1.81994 9.89473V11.6594ZM10.4639 15.1682H13.5362C14.2672 15.1682 14.6328 14.7932 14.6328 14.0433V12.4644H9.37721V14.0433C9.37721 14.7932 9.73943 15.1682 10.4639 15.1682ZM6.99642 6.5614H8.52764V4.73477C8.52764 4.34262 8.63301 4.0399 8.84376 3.82663C9.0545 3.61335 9.35087 3.50671 9.73284 3.50671H14.2672C14.6558 3.50671 14.9554 3.61335 15.1662 3.82663C15.3769 4.0399 15.4823 4.34262 15.4823 4.73477V6.54076H17.0135V4.84829C17.0135 3.87822 16.7748 3.16099 16.2973 2.69659C15.8199 2.2322 15.1366 2 14.2474 2H9.7526C8.90961 2 8.2395 2.2322 7.74227 2.69659C7.24503 3.16099 6.99642 3.87822 6.99642 4.84829V6.5614Z" fill="#A2845E"/>
</svg>
