<svg width="24" height="24" viewBox="0 0 24 24" fill="none" xmlns="http://www.w3.org/2000/svg">
<path d="M2.05409 13.9068C1.35781 14.5967 1.00648 15.3553 1.00009 16.1826C0.9937 17.0098 1.33545 17.7683 2.02534 18.4582L6.33716 22.7796C6.49048 22.9265 6.67413 23 6.88812 23C7.10211 23 7.28576 22.9265 7.43908 22.7796C7.586 22.6263 7.65946 22.4443 7.65946 22.2335C7.65946 22.0227 7.586 21.8406 7.43908 21.6873L3.28056 17.5287C2.85897 17.1072 2.64497 16.6632 2.63858 16.1969C2.63219 15.7306 2.83661 15.293 3.25182 14.8842L14.8842 3.25182C15.2993 2.83661 15.7417 2.6306 16.2112 2.63379C16.6807 2.63699 17.1199 2.84619 17.5287 3.26141L21.6968 7.41993C21.8437 7.57323 22.0226 7.65149 22.2334 7.65469C22.4442 7.65788 22.6231 7.58282 22.77 7.42951C22.9233 7.2762 23 7.09414 23 6.88334C23 6.67254 22.9233 6.49049 22.77 6.33717L18.4582 2.02534C17.7683 1.33545 17.0113 0.9937 16.1873 1.00009C15.3632 1.00648 14.6031 1.35781 13.9068 2.05409L2.05409 13.9068ZM3.43387 18.8032L4.5262 19.8955L19.9242 4.49746L18.8319 3.40513L3.43387 18.8032ZM18.0174 5.72394L17.1168 6.64379L19.8763 9.40337C20.0041 9.53751 20.1574 9.60459 20.3362 9.60459C20.5151 9.60459 20.6652 9.54071 20.7866 9.41295C20.9143 9.29158 20.9798 9.13987 20.983 8.95781C20.9862 8.77576 20.9239 8.62085 20.7962 8.49309L18.0174 5.72394ZM16.1202 7.62115L15.2099 8.54101L17.9791 11.3006C18.1069 11.4283 18.2602 11.4922 18.439 11.4922C18.6179 11.4922 18.768 11.4315 18.8893 11.3102C19.0171 11.1888 19.0826 11.0387 19.0858 10.8598C19.089 10.6809 19.0267 10.5276 18.899 10.3999L16.1202 7.62115ZM14.2231 9.51835L13.3223 10.4382L16.0819 13.2073C16.2097 13.3287 16.3629 13.3894 16.5418 13.3894C16.7207 13.3894 16.8708 13.3319 16.9921 13.2169C17.1199 13.0892 17.1854 12.9343 17.1886 12.7522C17.1918 12.5702 17.1295 12.4185 17.0018 12.2971L14.2231 9.51835ZM12.3354 11.4156L11.4251 12.3258L14.1943 15.095C14.3221 15.2228 14.4754 15.2866 14.6542 15.2866C14.833 15.2866 14.9831 15.2228 15.1045 15.095C15.2323 14.9736 15.2978 14.8235 15.301 14.6447C15.3042 14.4658 15.2419 14.3125 15.1142 14.1847L12.3354 11.4156ZM10.4382 13.3128L9.52792 14.223L12.2971 17.0017C12.4249 17.1231 12.5781 17.1839 12.757 17.1839C12.9358 17.1839 13.0859 17.1231 13.2073 17.0017C13.3351 16.874 13.4006 16.7207 13.4038 16.5419C13.407 16.363 13.3447 16.2096 13.217 16.0819L10.4382 13.3128ZM8.54099 15.21L7.63071 16.1203L10.3999 18.899C10.5276 19.0204 10.6809 19.0811 10.8598 19.0811C11.0387 19.0811 11.1888 19.0204 11.3101 18.899C11.4315 18.7712 11.4937 18.6179 11.4969 18.4391C11.5002 18.2602 11.4411 18.1068 11.3197 17.9791L8.54099 15.21ZM6.64378 17.1072L5.73351 18.0175L8.50266 20.7962C8.63042 20.9176 8.78373 20.9783 8.96258 20.9783C9.14145 20.9783 9.29156 20.9176 9.41293 20.7962C9.54069 20.6684 9.60616 20.5151 9.60936 20.3363C9.61256 20.1574 9.55027 20.0041 9.42251 19.8763L6.64378 17.1072Z" fill="black" fill-opacity="0.8"/>
</svg>
