<svg width="24" height="24" viewBox="0 0 24 24" fill="none" xmlns="http://www.w3.org/2000/svg">
<path d="M11.9953 15.5223C12.6462 15.5223 13.2381 15.3643 13.7713 15.0483C14.3043 14.7324 14.7305 14.3079 15.0498 13.7751C15.369 13.2423 15.5286 12.6506 15.5286 12C15.5286 11.3494 15.369 10.7578 15.0498 10.2249C14.7305 9.69208 14.3043 9.26611 13.7713 8.94703C13.2381 8.62795 12.6462 8.46841 11.9953 8.46841C11.3445 8.46841 10.7525 8.62795 10.2194 8.94703C9.68633 9.26611 9.26173 9.69208 8.94559 10.2249C8.62946 10.7578 8.4714 11.3494 8.4714 12C8.4714 12.6506 8.62946 13.2423 8.94559 13.7751C9.26173 14.3079 9.68633 14.7324 10.2194 15.0483C10.7525 15.3643 11.3445 15.5223 11.9953 15.5223ZM11.9953 14.0911C11.611 14.0911 11.2608 13.9966 10.9447 13.8076C10.6285 13.6187 10.3759 13.3662 10.1869 13.0502C9.99781 12.7342 9.90329 12.3842 9.90329 12C9.90329 11.6159 9.99781 11.2643 10.1869 10.9452C10.3759 10.6261 10.6285 10.3721 10.9447 10.1831C11.2608 9.99412 11.611 9.89964 11.9953 9.89964C12.3796 9.89964 12.7314 9.99412 13.0506 10.1831C13.3699 10.3721 13.624 10.6261 13.8131 10.9452C14.0022 11.2643 14.0967 11.6159 14.0967 12C14.0967 12.3842 14.0022 12.7342 13.8131 13.0502C13.624 13.3662 13.3699 13.6187 13.0506 13.8076C12.7314 13.9966 12.3796 14.0911 11.9953 14.0911ZM11.9953 13.3197C12.3672 13.3197 12.6819 13.1911 12.9391 12.9341C13.1963 12.6769 13.3249 12.3656 13.3249 12C13.3249 11.6345 13.1948 11.32 12.9345 11.0567C12.6741 10.7934 12.361 10.6617 11.9953 10.6617C11.6234 10.6617 11.3088 10.7918 11.0516 11.0521C10.7943 11.3123 10.6657 11.6283 10.6657 12C10.6657 12.3718 10.7943 12.6847 11.0516 12.9386C11.3088 13.1927 11.6234 13.3197 11.9953 13.3197ZM11.3259 9.14685V4.658C11.3259 3.80297 11.1043 3.14622 10.6611 2.68773C10.2179 2.22924 9.58096 2 8.75033 2C8.0065 2 7.27351 2.1518 6.55136 2.45539C5.82922 2.75898 5.17681 3.16636 4.59414 3.67752C4.01146 4.18867 3.54501 4.76023 3.19479 5.39219C2.84457 6.02417 2.66945 6.66853 2.66945 7.32528C2.66945 8.12454 2.90965 8.82002 3.39005 9.41172C3.87045 10.0034 4.5647 10.5332 5.4728 11.0009C6.3809 11.4687 7.47961 11.9133 8.76894 12.3346L9.36401 10.987C8.22965 10.6091 7.27041 10.2451 6.48627 9.89499C5.70214 9.54493 5.10707 9.16698 4.70106 8.76116C4.29505 8.35533 4.09205 7.87671 4.09205 7.32528C4.09205 6.8606 4.22997 6.39746 4.50581 5.93588C4.78165 5.47429 5.14582 5.05452 5.59832 4.67658C6.05082 4.29864 6.55291 3.99505 7.10459 3.7658C7.65627 3.53656 8.20485 3.42193 8.75033 3.42193C9.18424 3.42193 9.48488 3.51177 9.65224 3.69145C9.8196 3.87113 9.90329 4.19331 9.90329 4.658V9.55577L11.3259 9.14685ZM14.8498 11.3216H19.3501C20.2055 11.3216 20.861 11.1016 21.3166 10.6617C21.7722 10.2218 22 9.58675 22 8.75651C22 8.01302 21.8481 7.28036 21.5443 6.55856C21.2406 5.83674 20.8331 5.18309 20.3217 4.59758C19.8103 4.01208 19.2385 3.5443 18.6062 3.19424C17.9739 2.84418 17.3293 2.66915 16.6723 2.66915C15.8726 2.66915 15.1768 2.90923 14.5848 3.38941C13.9929 3.86958 13.4629 4.56506 12.9949 5.47584C12.5269 6.38662 12.0821 7.48947 11.6606 8.7844L13.0088 9.37919C13.3869 8.23917 13.7511 7.27572 14.1014 6.48886C14.4516 5.70199 14.8297 5.10564 15.2357 4.69981C15.6417 4.29399 16.1205 4.09108 16.6723 4.09108C17.1371 4.09108 17.6005 4.22894 18.0623 4.50465C18.5241 4.78037 18.9441 5.14592 19.3222 5.60131C19.7003 6.05669 20.004 6.5601 20.2334 7.11153C20.4627 7.66295 20.5774 8.21128 20.5774 8.75651C20.5774 9.19022 20.4875 9.48916 20.3077 9.65335C20.128 9.81754 19.8087 9.89964 19.3501 9.89964H14.4407L14.8498 11.3216ZM12.674 14.8532V19.3513C12.674 20.2063 12.8941 20.8616 13.3342 21.317C13.7744 21.7723 14.4097 22 15.2403 22C15.9841 22 16.7171 21.8482 17.4393 21.5446C18.1614 21.241 18.8154 20.8337 19.4012 20.3225C19.9869 19.8114 20.4549 19.2414 20.8052 18.6125C21.1554 17.9836 21.3305 17.3377 21.3305 16.6747C21.3305 15.8755 21.0903 15.18 20.6099 14.5883C20.1295 13.9966 19.4337 13.4668 18.5225 12.9991C17.6113 12.5313 16.5111 12.0867 15.2217 11.6654L14.6266 13.0131C15.761 13.391 16.7218 13.755 17.5091 14.105C18.2963 14.4551 18.8929 14.833 19.2989 15.2388C19.7049 15.6447 19.9079 16.1233 19.9079 16.6747C19.9079 17.1394 19.77 17.6025 19.4941 18.0642C19.2183 18.5257 18.8526 18.9455 18.397 19.3234C17.9414 19.7014 17.4393 20.005 16.8907 20.2343C16.3421 20.4635 15.792 20.575 15.2403 20.5688C14.8064 20.5688 14.5074 20.4805 14.3431 20.3039C14.1788 20.1274 14.0967 19.8098 14.0967 19.3513V14.4443L12.674 14.8532ZM9.14085 12.6691H4.64063C3.79141 12.6691 3.139 12.8906 2.6834 13.3337C2.2278 13.7766 2 14.4133 2 15.2435C2 15.987 2.15187 16.7197 2.4556 17.4415C2.75934 18.1633 3.16535 18.8169 3.67363 19.4024C4.18192 19.9879 4.7522 20.4557 5.38447 20.8057C6.01673 21.1558 6.66139 21.3309 7.31845 21.3309C8.11807 21.3309 8.81387 21.0908 9.40584 20.6107C9.99782 20.1304 10.5278 19.435 10.9958 18.5242C11.4638 17.6134 11.9085 16.5136 12.3301 15.2249L10.9818 14.6301C10.6037 15.764 10.2396 16.7227 9.88934 17.5065C9.53912 18.2903 9.161 18.8851 8.75499 19.2909C8.34898 19.6967 7.87013 19.8997 7.31845 19.8997C6.85355 19.8997 6.39175 19.7633 5.93305 19.4907C5.47434 19.2181 5.05439 18.8541 4.67317 18.3987C4.29195 17.9433 3.98822 17.4415 3.76197 16.8931C3.53572 16.3448 3.42259 15.795 3.42259 15.2435C3.42259 14.8098 3.51092 14.5093 3.68758 14.3421C3.86424 14.1748 4.18193 14.0911 4.64063 14.0911H9.54996L9.14085 12.6691Z" fill="black" fill-opacity="0.8"/>
</svg>
