<svg width="24" height="24" viewBox="0 0 24 24" fill="none" xmlns="http://www.w3.org/2000/svg">
<path d="M22 16.9154C22 16.696 21.9347 16.5253 21.804 16.4033C21.6732 16.2814 21.4954 16.2204 21.2705 16.2204H8.11947C7.94315 16.2204 7.855 16.132 7.855 15.9552V2.76817C7.855 2.5426 7.78812 2.35817 7.65436 2.21491C7.5206 2.07164 7.34124 2 7.11629 2C6.8974 2 6.72108 2.07164 6.58733 2.21491C6.45357 2.35817 6.38669 2.5426 6.38669 2.76817V16.8789C6.38669 17.0983 6.45205 17.2736 6.58277 17.4047C6.71349 17.5358 6.88829 17.6013 7.10716 17.6013H21.2705C21.4954 17.6013 21.6732 17.5403 21.804 17.4184C21.9347 17.2964 22 17.1288 22 16.9154ZM2 7.0846C2 7.30408 2.06536 7.47478 2.19608 7.59671C2.3268 7.71865 2.5016 7.77962 2.72047 7.77962H15.8806C16.0569 7.77962 16.145 7.86802 16.145 8.04482V21.2318C16.145 21.4635 16.2119 21.6495 16.3456 21.7897C16.4794 21.9299 16.6557 22 16.8746 22C17.0996 22 17.279 21.9299 17.4127 21.7897C17.5465 21.6495 17.6134 21.4635 17.6134 21.2318V7.13032C17.6134 6.91084 17.548 6.73404 17.4173 6.59991C17.2865 6.46579 17.1117 6.39873 16.8929 6.39873H2.72047C2.5016 6.39873 2.3268 6.46122 2.19608 6.58619C2.06536 6.71118 2 6.87731 2 7.0846Z" fill="black" fill-opacity="0.8"/>
</svg>
