<svg width="24" height="24" viewBox="0 0 24 24" fill="none" xmlns="http://www.w3.org/2000/svg">
<path d="M4.00469 17.7239L4.28539 18.8282C4.46628 19.546 4.76414 20.0874 5.17895 20.4524C5.59377 20.8175 6.18792 21 6.96141 21H17.0386C17.8121 21 18.4078 20.819 18.8257 20.457C19.2437 20.095 19.5431 19.5521 19.724 18.8282L20.0047 17.7239H4.00469ZM3.69591 16.4632H20.3228L22.0819 9.37729L21.3146 8.94477L17.0012 12.0368C16.8452 12.1472 16.7096 12.1886 16.5941 12.161C16.4788 12.1334 16.3774 12.0552 16.2901 11.9264L12.2293 5.88957L11.7801 5.87116L7.68188 11.954C7.60079 12.0705 7.50878 12.1426 7.40585 12.1702C7.30293 12.1978 7.1735 12.1564 7.01755 12.046L2.78831 9.00919L1.89006 9.23925L3.69591 16.4632ZM2.23626 11.2178C2.64796 11.2178 3.02223 11.1181 3.35907 10.9187C3.69591 10.7193 3.96413 10.454 4.16374 10.1227C4.36335 9.7914 4.46316 9.42023 4.46316 9.00919C4.46316 8.61042 4.36335 8.24539 4.16374 7.9141C3.96413 7.58281 3.69591 7.31748 3.35907 7.11809C3.02223 6.9187 2.64796 6.81901 2.23626 6.81901C1.82456 6.81901 1.44873 6.9187 1.10878 7.11809C0.768813 7.31748 0.499026 7.58281 0.299416 7.9141C0.0998052 8.24539 0 8.61042 0 9.00919C0 9.42023 0.101365 9.7914 0.304094 10.1227C0.506823 10.454 0.778168 10.7193 1.11813 10.9187C1.45809 11.1181 1.8308 11.2178 2.23626 11.2178ZM12.0047 7.38956C12.4102 7.38956 12.7829 7.2914 13.1228 7.09508C13.4628 6.89876 13.7326 6.63343 13.9322 6.29908C14.1318 5.96472 14.2316 5.59509 14.2316 5.19018C14.2316 4.79141 14.1318 4.42638 13.9322 4.09509C13.7326 3.7638 13.4628 3.49847 13.1228 3.29908C12.7829 3.09969 12.4102 3 12.0047 3C11.593 3 11.2172 3.09816 10.8772 3.29448C10.5372 3.4908 10.2674 3.7546 10.0678 4.08588C9.86823 4.41718 9.76842 4.78527 9.76842 5.19018C9.76842 5.59509 9.86823 5.96472 10.0678 6.29908C10.2674 6.63343 10.5372 6.89876 10.8772 7.09508C11.2172 7.2914 11.593 7.38956 12.0047 7.38956ZM21.7637 11.2178C22.1692 11.2178 22.5419 11.1181 22.8819 10.9187C23.2219 10.7193 23.4932 10.454 23.6959 10.1227C23.8986 9.7914 24 9.42023 24 9.00919C24 8.61042 23.9002 8.24539 23.7006 7.9141C23.501 7.58281 23.2312 7.31748 22.8913 7.11809C22.5513 6.9187 22.1755 6.81901 21.7637 6.81901C21.352 6.81901 20.9778 6.9187 20.641 7.11809C20.3041 7.31748 20.0359 7.58281 19.8363 7.9141C19.6366 8.24539 19.5368 8.61042 19.5368 9.00919C19.5368 9.42023 19.6366 9.7914 19.8363 10.1227C20.0359 10.454 20.3041 10.7193 20.641 10.9187C20.9778 11.1181 21.352 11.2178 21.7637 11.2178Z" fill="#FFCC00"/>
</svg>
