<svg width="24" height="24" viewBox="0 0 24 24" fill="none" xmlns="http://www.w3.org/2000/svg">
<path d="M2.4234 11.5859C2.86628 11.5859 3.27174 11.4785 3.63977 11.2638C4.0078 11.0491 4.29942 10.7607 4.51462 10.3988C4.72983 10.0368 4.83743 9.63496 4.83743 9.19324C4.83743 8.76379 4.72983 8.36962 4.51462 8.01072C4.29942 7.65183 4.0078 7.36348 3.63977 7.14569C3.27174 6.9279 2.86628 6.81901 2.4234 6.81901C1.98051 6.81901 1.57505 6.92637 1.20702 7.14109C0.838989 7.35582 0.54581 7.64263 0.327486 8.00153C0.109162 8.36042 0 8.75766 0 9.19324C0 9.63496 0.109162 10.0368 0.327486 10.3988C0.54581 10.7607 0.838989 11.0491 1.20702 11.2638C1.57505 11.4785 1.98051 11.5859 2.4234 11.5859ZM2.4234 10.1503C2.16141 10.1503 1.93528 10.0567 1.74503 9.86962C1.55478 9.6825 1.45965 9.45705 1.45965 9.19324C1.45965 8.93557 1.55478 8.71471 1.74503 8.53066C1.93528 8.34661 2.16141 8.25459 2.4234 8.25459C2.68538 8.25459 2.90994 8.34815 3.09708 8.53526C3.28421 8.72238 3.37778 8.94171 3.37778 9.19324C3.37778 9.45705 3.28577 9.6825 3.10175 9.86962C2.91774 10.0567 2.69162 10.1503 2.4234 10.1503ZM12.0047 7.75766C12.4476 7.75766 12.8515 7.6503 13.2163 7.43557C13.5813 7.22085 13.8729 6.93404 14.0912 6.57515C14.3095 6.21626 14.4187 5.81595 14.4187 5.37423C14.4187 4.93864 14.3095 4.54141 14.0912 4.18251C13.8729 3.82362 13.5813 3.53681 13.2163 3.32209C12.8515 3.10736 12.4476 3 12.0047 3C11.5556 3 11.147 3.10736 10.779 3.32209C10.4109 3.53681 10.1193 3.82362 9.90409 4.18251C9.6889 4.54141 9.5813 4.93864 9.5813 5.37423C9.5813 5.81595 9.69046 6.21626 9.90879 6.57515C10.1271 6.93404 10.4203 7.22085 10.7883 7.43557C11.1563 7.6503 11.5618 7.75766 12.0047 7.75766ZM12.0047 6.32208C11.7427 6.32208 11.5166 6.22852 11.3263 6.04141C11.1361 5.85429 11.0409 5.6319 11.0409 5.37423C11.0409 5.11043 11.1361 4.88803 11.3263 4.70705C11.5166 4.52607 11.7427 4.43558 12.0047 4.43558C12.2605 4.43558 12.4834 4.52914 12.6737 4.71626C12.8639 4.90337 12.9591 5.12269 12.9591 5.37423C12.9591 5.6319 12.8671 5.85429 12.6831 6.04141C12.499 6.22852 12.2729 6.32208 12.0047 6.32208ZM21.5766 11.5859C22.0195 11.5859 22.425 11.4785 22.793 11.2638C23.161 11.0491 23.4542 10.7607 23.6725 10.3988C23.8908 10.0368 24 9.63496 24 9.19324C24 8.75766 23.8908 8.36042 23.6725 8.00153C23.4542 7.64263 23.161 7.35582 22.793 7.14109C22.425 6.92637 22.0195 6.81901 21.5766 6.81901C21.1338 6.81901 20.7283 6.9279 20.3603 7.14569C19.9922 7.36348 19.7006 7.65183 19.4854 8.01072C19.2702 8.36962 19.1626 8.76379 19.1626 9.19324C19.1626 9.63496 19.2702 10.0368 19.4854 10.3988C19.7006 10.7607 19.9922 11.0491 20.3603 11.2638C20.7283 11.4785 21.1338 11.5859 21.5766 11.5859ZM21.5766 10.1503C21.3084 10.1503 21.0823 10.0567 20.8982 9.86962C20.7142 9.6825 20.6222 9.45705 20.6222 9.19324C20.6222 8.94171 20.7158 8.72238 20.9029 8.53526C21.0901 8.34815 21.3147 8.25459 21.5766 8.25459C21.8386 8.25459 22.0647 8.34661 22.255 8.53066C22.4452 8.71471 22.5404 8.93557 22.5404 9.19324C22.5404 9.45705 22.4452 9.6825 22.255 9.86962C22.0647 10.0567 21.8386 10.1503 21.5766 10.1503ZM3.53685 10.9785L6.50293 12.773C6.80235 12.9571 7.16726 13.0307 7.59767 12.9939C8.02808 12.9571 8.39923 12.7362 8.71112 12.3313L12.248 7.66563L10.9099 7.10429L7.68188 11.365C7.59455 11.4816 7.50098 11.5506 7.40118 11.5721C7.30137 11.5935 7.1735 11.5552 7.01755 11.457L4.28539 9.8006L3.53685 10.9785ZM20.4632 10.9693L19.7147 9.7914L17.0012 11.4294C16.8328 11.5337 16.6956 11.5736 16.5895 11.5491C16.4834 11.5245 16.3836 11.4509 16.2901 11.3282L13.0901 7.08588L11.7614 7.65644L15.3077 12.3405C15.607 12.7393 15.9688 12.9571 16.393 12.9939C16.8172 13.0307 17.1634 12.9663 17.4316 12.8006L20.4632 10.9693ZM4.7158 17.7239H19.2936V16.3343H4.7158V17.7239ZM2.37661 11.181L4.28539 18.8282C4.46628 19.5521 4.76414 20.095 5.17895 20.457C5.59377 20.819 6.18792 21 6.96141 21H17.0386C17.8121 21 18.4078 20.819 18.8257 20.457C19.2437 20.095 19.5431 19.5521 19.724 18.8282L21.6327 11.181L20.3135 10.592L18.3205 18.6533C18.1583 19.2914 17.7372 19.6104 17.0573 19.6104H6.95206C6.26589 19.6104 5.84484 19.2914 5.6889 18.6533L3.68656 10.592L2.37661 11.181Z" fill="#FFCC00"/>
</svg>
