<svg width="24" height="24" viewBox="0 0 24 24" fill="none" xmlns="http://www.w3.org/2000/svg">
<path d="M3.81749 17.9783L11.2236 22.2737C11.7443 22.5754 12.2651 22.5754 12.7858 22.2737L20.1825 17.9783C20.6154 17.7279 20.9432 17.439 21.1659 17.1115C21.3886 16.7841 21.5 16.2769 21.5 15.5898V7.96227C21.5 7.46147 21.4075 7.04574 21.2224 6.71509C21.0373 6.38443 20.7471 6.10353 20.3519 5.87238L13.6892 2.0008C13.1245 1.66693 12.5631 1.5 12.0047 1.5C11.4463 1.5 10.8817 1.66693 10.3108 2.0008L3.6575 5.87238C3.25598 6.10353 2.96269 6.38443 2.77761 6.71509C2.59254 7.04574 2.5 7.46147 2.5 7.96227V15.5898C2.5 16.2769 2.61293 16.7841 2.83878 17.1115C3.06464 17.439 3.39087 17.7279 3.81749 17.9783ZM4.66443 16.7071C4.38839 16.553 4.19705 16.386 4.09039 16.2062C3.98374 16.0265 3.93042 15.805 3.93042 15.5417V8.27045L11.2613 12.5562V20.5497L4.66443 16.7071ZM19.345 16.7071L12.7387 20.5497V12.5562L20.0696 8.27045V15.5417C20.0696 15.805 20.0162 16.0265 19.9096 16.2062C19.803 16.386 19.6148 16.553 19.345 16.7071ZM12.0047 11.2079L4.73972 6.99919L10.9413 3.37801C11.6565 2.96067 12.3654 2.96067 13.0681 3.37801L19.2696 6.99919L12.0047 11.2079Z" fill="black" fill-opacity="0.8"/>
</svg>
