<svg width="24" height="24" viewBox="0 0 24 24" fill="none" xmlns="http://www.w3.org/2000/svg">
<path d="M18.0878 13.4064C19.0054 13.6469 19.7999 13.932 20.4711 14.2617C21.1424 14.5914 21.6597 14.9503 22.023 15.3385C22.3864 15.7266 22.5681 16.1268 22.5681 16.5389C22.5681 17.0403 22.3002 17.5229 21.7644 17.9866C21.2286 18.4502 20.4804 18.8641 19.5197 19.2282C18.5589 19.5923 17.438 19.8791 16.1571 20.0886C14.876 20.2981 13.4903 20.4029 12 20.4029C10.5096 20.4029 9.12396 20.2981 7.84296 20.0886C6.56197 19.8791 5.44111 19.5923 4.48037 19.2282C3.51963 18.8641 2.77136 18.4502 2.23556 17.9866C1.69977 17.5229 1.43187 17.0403 1.43187 16.5389C1.43187 16.1268 1.60893 15.7301 1.96305 15.3488C2.31717 14.9676 2.82217 14.6121 3.47806 14.2823C4.13395 13.9526 4.91147 13.6641 5.81062 13.4168L5.10854 11.9536C3.51347 12.4208 2.26328 13.0493 1.35797 13.8392C0.452657 14.6292 0 15.5291 0 16.5389C0 17.3494 0.294072 18.0879 0.882217 18.7542C1.47036 19.4206 2.30023 19.9976 3.37182 20.4853C4.44341 20.973 5.71055 21.3474 7.17321 21.6084C8.63587 21.8695 10.2448 22 12 22C13.7552 22 15.3657 21.8695 16.8314 21.6084C18.2972 21.3474 19.5658 20.973 20.6374 20.4853C21.709 19.9976 22.5373 19.4206 23.1224 18.7542C23.7075 18.0879 24 17.3494 24 16.5389C24 15.5085 23.5242 14.5898 22.5727 13.7826C21.6212 12.9754 20.3141 12.3417 18.6513 11.8815L18.0878 13.4064ZM18.9192 6.25553V8.40906C18.9192 9.89283 18.6513 11.1963 18.1155 12.3194C17.5797 13.4426 16.8268 14.3184 15.8568 14.9469C14.8868 15.5755 13.7429 15.8898 12.425 15.8898H11.5659C10.2479 15.8898 9.10391 15.5772 8.13394 14.9521C7.16397 14.327 6.41263 13.4528 5.87991 12.3297C5.34719 11.2066 5.08083 9.8997 5.08083 8.40906V6.25553H3.59353V8.40906C3.59353 9.75544 3.78445 10.985 4.16628 12.0979C4.54812 13.2107 5.09161 14.1741 5.79677 14.9882C6.50192 15.8022 7.34257 16.4324 8.31871 16.879C9.29484 17.3254 10.3772 17.5486 11.5659 17.5486H12.425C13.6197 17.5486 14.7051 17.3254 15.6812 16.879C16.6574 16.4324 17.4981 15.8022 18.2033 14.9882C18.9084 14.1741 19.4519 13.209 19.8337 12.0927C20.2156 10.9765 20.4065 9.74858 20.4065 8.40906V6.25553H18.9192ZM12 10.5008C13.6689 10.5008 15.1347 10.3222 16.3972 9.96496C17.6597 9.60776 18.6435 9.11145 19.3487 8.47604C20.0539 7.84063 20.4065 7.10046 20.4065 6.25553C20.4065 5.41061 20.0539 4.66872 19.3487 4.02988C18.6435 3.39103 17.6597 2.89301 16.3972 2.53581C15.1347 2.1786 13.6689 2 12 2C10.3249 2 8.85758 2.1786 7.59815 2.53581C6.33872 2.89301 5.35643 3.39103 4.65127 4.02988C3.94611 4.66872 3.59353 5.41061 3.59353 6.25553C3.59353 7.10046 3.94611 7.84063 4.65127 8.47604C5.35643 9.11145 6.34026 9.60776 7.60277 9.96496C8.8653 10.3222 10.331 10.5008 12 10.5008ZM12 8.84183C11.0023 8.84183 10.0831 8.77657 9.24249 8.64605C8.40185 8.51553 7.67051 8.33178 7.0485 8.09479C6.42648 7.8578 5.94303 7.58302 5.59815 7.27048C5.25327 6.95792 5.08083 6.6196 5.08083 6.25553C5.08083 5.89146 5.25327 5.55143 5.59815 5.23545C5.94303 4.91946 6.42648 4.64469 7.0485 4.41113C7.67051 4.17757 8.40185 3.99381 9.24249 3.85987C10.0831 3.72592 11.0023 3.65894 12 3.65894C12.9977 3.65894 13.9169 3.72592 14.7575 3.85987C15.5982 3.99381 16.3295 4.17757 16.9515 4.41113C17.5735 4.64469 18.0569 4.91946 18.4018 5.23545C18.7467 5.55143 18.9192 5.89146 18.9192 6.25553C18.9192 6.6196 18.7467 6.95792 18.4018 7.27048C18.0569 7.58302 17.5735 7.8578 16.9515 8.09479C16.3295 8.33178 15.5982 8.51553 14.7575 8.64605C13.9169 8.77657 12.9977 8.84183 12 8.84183ZM19.3718 12.8604H20.1293C21.1886 12.8604 22.02 12.5667 22.6235 11.9794C23.2271 11.3921 23.5288 10.5798 23.5288 9.5425C23.5288 8.51897 23.2255 7.71183 22.6189 7.12107C22.0123 6.53031 21.1824 6.23492 20.1293 6.23492H19.5104V7.89386H20.1293C20.7267 7.89386 21.1948 8.03984 21.5335 8.33178C21.8722 8.62373 22.0416 9.0273 22.0416 9.5425C22.0416 10.0577 21.8722 10.463 21.5335 10.7584C21.1948 11.0537 20.7267 11.2014 20.1293 11.2014H19.3718V12.8604Z" fill="black" fill-opacity="0.8"/>
</svg>
