<svg width="24" height="24" viewBox="0 0 24 24" fill="none" xmlns="http://www.w3.org/2000/svg">
<path d="M11.6305 17.067H12.4619C13.6197 17.067 14.6713 16.8593 15.6166 16.4439C16.562 16.0286 17.3764 15.4329 18.06 14.657C18.7437 13.8812 19.2702 12.9492 19.6397 11.861C20.0093 10.7728 20.194 9.5558 20.194 8.21011V6.11948C20.194 5.30245 19.8522 4.58497 19.1686 3.96705C18.485 3.34912 17.5319 2.8668 16.3095 2.52008C15.087 2.17336 13.6659 2 12.0462 2C10.4265 2 9.00538 2.17336 7.78291 2.52008C6.56043 2.8668 5.60739 3.34912 4.92379 3.96705C4.24018 4.58497 3.89838 5.30245 3.89838 6.11948V8.21011C3.89838 9.51461 4.08314 10.7058 4.45265 11.7837C4.82217 12.8616 5.34873 13.7954 6.03233 14.585C6.71593 15.3745 7.53195 15.9856 8.48036 16.4182C9.42882 16.8507 10.4789 17.067 11.6305 17.067ZM12.0462 8.63235C10.7591 8.63235 9.61049 8.52078 8.60046 8.29765C7.59045 8.0745 6.79445 7.77412 6.21247 7.39651C5.63048 7.01889 5.33949 6.59322 5.33949 6.11948C5.33949 5.64574 5.63048 5.22006 6.21247 4.84244C6.79445 4.46482 7.59045 4.16444 8.60046 3.9413C9.61049 3.71816 10.7591 3.60659 12.0462 3.60659C13.3395 3.60659 14.4912 3.71816 15.5011 3.9413C16.5112 4.16444 17.3072 4.46482 17.8891 4.84244C18.4711 5.22006 18.7621 5.64574 18.7621 6.11948C18.7621 6.59322 18.4711 7.01889 17.8891 7.39651C17.3072 7.77412 16.5112 8.0745 15.5011 8.29765C14.4912 8.52078 13.3395 8.63235 12.0462 8.63235ZM19.1963 12.515H19.9261C20.9546 12.515 21.7613 12.23 22.3464 11.6602C22.9315 11.0903 23.224 10.3076 23.224 9.31206C23.224 8.31653 22.93 7.53383 22.3418 6.96397C21.7536 6.3941 20.9484 6.10917 19.9261 6.10917H19.3349V7.70547H19.9261C20.5112 7.70547 20.9669 7.84793 21.2933 8.13287C21.6197 8.4178 21.7829 8.81086 21.7829 9.31206C21.7829 9.81327 21.6197 10.2063 21.2933 10.4913C20.9669 10.7762 20.5112 10.9187 19.9261 10.9187H19.1963V12.515ZM12 22C13.7552 22 15.3657 21.8695 16.8314 21.6086C18.2972 21.3478 19.5658 20.9736 20.6374 20.4861C21.709 19.9986 22.5373 19.4219 23.1224 18.756C23.7075 18.09 24 17.3519 24 16.5418C24 15.917 23.8153 15.3299 23.4458 14.7806C23.0762 14.2314 22.5558 13.7371 21.8846 13.2977C21.6074 13.4281 21.3164 13.5276 21.0115 13.5963C20.7067 13.6649 20.3787 13.7061 20.0277 13.7199C19.2949 15.148 18.2771 16.2637 16.9746 17.067C15.672 17.8703 14.1678 18.2719 12.4619 18.2719H11.6305C10.368 18.2719 9.2071 18.0351 8.1478 17.5614C7.08853 17.0876 6.16782 16.4216 5.38568 15.5633C4.60354 14.7051 3.99076 13.689 3.54734 12.515C2.42648 13.0025 1.55504 13.5877 0.933025 14.2708C0.311008 14.954 0 15.711 0 16.5418C0 17.3519 0.294072 18.09 0.882217 18.756C1.47036 19.4219 2.30023 19.9986 3.37182 20.4861C4.44341 20.9736 5.71055 21.3478 7.17321 21.6086C8.63587 21.8695 10.2448 22 12 22Z" fill="black" fill-opacity="0.8"/>
</svg>
