<svg width="24" height="24" viewBox="0 0 24 24" fill="none" xmlns="http://www.w3.org/2000/svg">
<path d="M11.9999 20.904C12.995 20.904 13.9303 20.7149 14.8059 20.3368C15.6816 19.9586 16.4511 19.435 17.1144 18.7658C17.7778 18.0965 18.2968 17.3219 18.6716 16.4419C19.0465 15.5619 19.2339 14.6133 19.2339 13.5961C19.2339 12.5856 19.0465 11.6403 18.6716 10.7603C18.2968 9.88025 17.7778 9.10564 17.1144 8.43642C16.4511 7.7672 15.6816 7.24521 14.8059 6.87046C13.9303 6.49569 12.995 6.30831 11.9999 6.30831C11.005 6.30831 10.0696 6.49569 9.19403 6.87046C8.31841 7.24521 7.54892 7.7672 6.88557 8.43642C6.22222 9.10564 5.70149 9.88025 5.32338 10.7603C4.94527 11.6403 4.75622 12.5856 4.75622 13.5961C4.75622 14.4593 4.89552 15.2758 5.17412 16.0454C5.45273 16.815 5.83748 17.5109 6.32836 18.1333L11.5025 12.9035C11.6418 12.7629 11.8175 12.6927 12.0298 12.6927C12.2421 12.6927 12.4112 12.7629 12.5373 12.9035C12.6899 13.064 12.7662 13.243 12.7662 13.4405C12.7662 13.6379 12.6899 13.8136 12.5373 13.9675L7.35323 19.1974C7.98341 19.7327 8.69485 20.151 9.48755 20.4522C10.2802 20.7534 11.1177 20.904 11.9999 20.904ZM4.36816 22.4899C4.7131 22.4899 5.00497 22.3695 5.24377 22.1286C5.48258 21.8877 5.60199 21.5932 5.60199 21.2452C5.60199 20.8972 5.48093 20.6028 5.2388 20.3618C4.99668 20.1209 4.70647 20.0004 4.36816 20.0004C4.02322 20.0004 3.73134 20.1226 3.49253 20.3669C3.25373 20.6111 3.13432 20.9039 3.13432 21.2452C3.13432 21.5932 3.25539 21.8877 3.49751 22.1286C3.73963 22.3695 4.02985 22.4899 4.36816 22.4899ZM1.24378 14.8509C1.58872 14.8509 1.8806 14.7271 2.1194 14.4795C2.35821 14.2318 2.47761 13.9374 2.47761 13.5961C2.47761 13.2481 2.35655 12.9536 2.11443 12.7127C1.87231 12.4718 1.58209 12.3513 1.24378 12.3513C0.898838 12.3513 0.605307 12.4734 0.363184 12.7177C0.121061 12.962 0 13.2548 0 13.5961C0 13.9441 0.12272 14.2402 0.368159 14.4844C0.613598 14.7287 0.905471 14.8509 1.24378 14.8509ZM4.36816 7.21176C4.7131 7.21176 5.00497 7.08962 5.24377 6.84537C5.48258 6.6011 5.60199 6.30831 5.60199 5.96701C5.60199 5.61902 5.48093 5.32457 5.2388 5.08365C4.99668 4.84274 4.70647 4.72228 4.36816 4.72228C4.02322 4.72228 3.73134 4.84274 3.49253 5.08365C3.25373 5.32457 3.13432 5.61902 3.13432 5.96701C3.13432 6.31501 3.25539 6.60947 3.49751 6.85038C3.73963 7.0913 4.02985 7.21176 4.36816 7.21176ZM11.9999 3.99952C12.3449 3.99952 12.6368 3.87739 12.8756 3.63313C13.1144 3.38886 13.2338 3.09273 13.2338 2.74474C13.2338 2.39675 13.1128 2.10229 12.8706 1.86138C12.6285 1.62046 12.3383 1.5 11.9999 1.5C11.655 1.5 11.3632 1.62213 11.1244 1.8664C10.8856 2.11066 10.7662 2.40344 10.7662 2.74474C10.7662 3.09273 10.8872 3.38886 11.1294 3.63313C11.3715 3.87739 11.6617 3.99952 11.9999 3.99952ZM19.6219 7.19168C19.9668 7.19168 20.2587 7.06955 20.4975 6.82528C20.7363 6.58102 20.8558 6.28824 20.8558 5.94694C20.8558 5.59895 20.7347 5.30449 20.4925 5.06358C20.2504 4.82265 19.9602 4.70219 19.6219 4.70219C19.2703 4.70219 18.9751 4.82265 18.7363 5.06358C18.4975 5.30449 18.3781 5.59895 18.3781 5.94694C18.3781 6.29493 18.4992 6.58938 18.7413 6.83031C18.9834 7.07122 19.2769 7.19168 19.6219 7.19168ZM22.7562 14.8509C23.1012 14.8509 23.3947 14.7271 23.6368 14.4795C23.8789 14.2318 24 13.9374 24 13.5961C24 13.2481 23.8773 12.9536 23.6319 12.7127C23.3864 12.4718 23.0945 12.3513 22.7562 12.3513C22.4046 12.3513 22.1094 12.4734 21.8706 12.7177C21.6318 12.962 21.5124 13.2548 21.5124 13.5961C21.5124 13.9441 21.6352 14.2402 21.8806 14.4844C22.126 14.7287 22.4179 14.8509 22.7562 14.8509ZM19.6119 22.5C19.9569 22.5 20.2488 22.3795 20.4875 22.1386C20.7264 21.8977 20.8458 21.6033 20.8458 21.2553C20.8458 20.9072 20.7247 20.6128 20.4825 20.3719C20.2404 20.131 19.9502 20.0105 19.6119 20.0105C19.2604 20.0105 18.9652 20.1326 18.7264 20.3769C18.4875 20.6212 18.3681 20.914 18.3681 21.2553C18.3681 21.6033 18.4892 21.8977 18.7313 22.1386C18.9734 22.3795 19.2669 22.5 19.6119 22.5Z" fill="black" fill-opacity="0.8"/>
</svg>
