<svg width="24" height="24" viewBox="0 0 24 24" fill="none" xmlns="http://www.w3.org/2000/svg">
<path d="M4.96786 17.5799H7.35916V16.043H4.98676C4.51418 16.043 4.15186 15.9157 3.89981 15.6611C3.64776 15.4065 3.52174 15.031 3.52174 14.5346V5.04535C3.52174 4.54893 3.64776 4.17343 3.89981 3.91885C4.15186 3.66428 4.51418 3.537 4.98676 3.537H14.4291C14.8954 3.537 15.2562 3.66428 15.5114 3.91885C15.7665 4.17343 15.8941 4.54893 15.8941 5.04535V7.13604H17.4158V4.95943C17.4158 3.97932 17.1685 3.24105 16.6739 2.74463C16.1792 2.24821 15.4404 2 14.4575 2H4.96786C3.97857 2 3.23661 2.24662 2.74196 2.73986C2.24732 3.23309 2 3.97295 2 4.95943V14.6205C2 15.607 2.24732 16.3469 2.74196 16.8401C3.23661 17.3333 3.97857 17.5799 4.96786 17.5799ZM9.55197 22H19.0415C20.0246 22 20.7634 21.7518 21.258 21.2554C21.7527 20.759 22 20.0207 22 19.0406V9.37948C22 8.39937 21.7527 7.6611 21.258 7.16468C20.7634 6.66826 20.0246 6.42006 19.0415 6.42006H9.55197C8.56268 6.42006 7.82072 6.66667 7.32608 7.15991C6.83144 7.65315 6.58411 8.39301 6.58411 9.37948V19.0406C6.58411 20.027 6.83144 20.7669 7.32608 21.2602C7.82072 21.7534 8.56268 22 9.55197 22ZM9.57088 20.463C9.09828 20.463 8.73597 20.3357 8.48392 20.0811C8.23187 19.8266 8.10585 19.4511 8.10585 18.9547V9.4654C8.10585 8.96898 8.23187 8.59348 8.48392 8.33891C8.73597 8.08433 9.09828 7.95704 9.57088 7.95704H19.0132C19.4795 7.95704 19.8402 8.08433 20.0954 8.33891C20.3506 8.59348 20.4782 8.96898 20.4782 9.4654V18.9547C20.4782 19.4511 20.3506 19.8266 20.0954 20.0811C19.8402 20.3357 19.4795 20.463 19.0132 20.463H9.57088ZM10.6021 11.8376C10.9641 11.8432 11.2768 11.713 11.5401 11.447C11.8034 11.1811 11.935 10.857 11.935 10.4747C11.935 10.1035 11.8034 9.78766 11.5401 9.52726C11.2768 9.26686 10.9641 9.13665 10.6021 9.13665C10.2345 9.13665 9.91914 9.26686 9.65584 9.52726C9.39253 9.78766 9.26088 10.1035 9.26088 10.4747C9.26088 10.857 9.39253 11.1783 9.65584 11.4387C9.91914 11.6991 10.2345 11.8321 10.6021 11.8376ZM17.9992 11.8376C18.3613 11.8432 18.6739 11.713 18.9372 11.447C19.2005 11.1811 19.3322 10.857 19.3322 10.4747C19.3322 10.1035 19.2005 9.78766 18.9372 9.52726C18.6739 9.26686 18.3613 9.13665 17.9992 9.13665C17.6317 9.13665 17.3149 9.26686 17.0489 9.52726C16.7828 9.78766 16.6498 10.1035 16.6498 10.4747C16.6498 10.857 16.7828 11.1783 17.0489 11.4387C17.3149 11.6991 17.6317 11.8321 17.9992 11.8376ZM14.2965 15.5775C14.6585 15.5775 14.9712 15.4445 15.2345 15.1785C15.4979 14.9126 15.6295 14.5912 15.6295 14.2145C15.6295 13.8488 15.4979 13.5344 15.2345 13.2712C14.9712 13.0081 14.6585 12.8765 14.2965 12.8765C13.929 12.8765 13.6149 13.0081 13.3544 13.2712C13.0938 13.5344 12.9636 13.8488 12.9636 14.2145C12.9636 14.5912 13.0938 14.9126 13.3544 15.1785C13.6149 15.4445 13.929 15.5775 14.2965 15.5775ZM10.6021 19.3173C10.9641 19.3173 11.2768 19.1843 11.5401 18.9183C11.8034 18.6524 11.935 18.3339 11.935 17.9627C11.935 17.5914 11.8034 17.2742 11.5401 17.0111C11.2768 16.7479 10.9641 16.6162 10.6021 16.6162C10.2345 16.6162 9.92051 16.7479 9.65995 17.0111C9.39939 17.2742 9.26911 17.5914 9.26911 17.9627C9.26911 18.3339 9.39939 18.6524 9.65995 18.9183C9.92051 19.1843 10.2345 19.3173 10.6021 19.3173ZM17.9992 19.3173C18.3613 19.3173 18.6739 19.1843 18.9372 18.9183C19.2005 18.6524 19.3322 18.3339 19.3322 17.9627C19.3322 17.5914 19.2005 17.2742 18.9372 17.0111C18.6739 16.7479 18.3613 16.6162 17.9992 16.6162C17.6317 16.6162 17.3177 16.7479 17.0571 17.0111C16.7965 17.2742 16.6662 17.5914 16.6662 17.9627C16.6662 18.3339 16.7965 18.6524 17.0571 18.9183C17.3177 19.1843 17.6317 19.3173 17.9992 19.3173Z" fill="black" fill-opacity="0.8"/>
</svg>
