<svg width="24" height="24" viewBox="0 0 24 24" fill="none" xmlns="http://www.w3.org/2000/svg">
<path d="M5.8841 21.0195H17.744C18.7673 21.0195 19.5348 20.7669 20.0465 20.2618C20.5582 19.7567 20.814 18.9989 20.814 17.9886V6.0505C20.814 5.04017 20.5582 4.28243 20.0465 3.77727C19.5348 3.27211 18.7673 3.01953 17.744 3.01953H5.8841C4.86074 3.01953 4.09322 3.27211 3.58154 3.77727C3.06987 4.28243 2.81403 5.04017 2.81403 6.0505V17.9886C2.81403 18.9989 3.06987 19.7567 3.58154 20.2618C4.09322 20.7669 4.86074 21.0195 5.8841 21.0195ZM7.29203 9.12057C6.84228 9.11405 6.45607 8.95273 6.13342 8.63659C5.81077 8.32046 5.64944 7.931 5.64944 7.4682C5.64944 7.01845 5.81077 6.6355 6.13342 6.31937C6.45607 6.00324 6.84228 5.84518 7.29203 5.84518C7.74179 5.84518 8.12636 6.00324 8.44575 6.31937C8.76515 6.6355 8.92485 7.01845 8.92485 7.4682C8.92485 7.931 8.76515 8.32372 8.44575 8.64637C8.12636 8.96902 7.74179 9.12709 7.29203 9.12057ZM16.3556 9.12057C15.8993 9.11405 15.5099 8.95273 15.1872 8.63659C14.8646 8.32046 14.7032 7.931 14.7032 7.4682C14.7032 7.01845 14.8646 6.6355 15.1872 6.31937C15.5099 6.00324 15.8993 5.84518 16.3556 5.84518C16.7989 5.84518 17.1818 6.00324 17.5045 6.31937C17.8271 6.6355 17.9884 7.01845 17.9884 7.4682C17.9884 7.931 17.8271 8.32372 17.5045 8.64637C17.1818 8.96902 16.7989 9.12709 16.3556 9.12057ZM11.8189 13.6572C11.3626 13.6572 10.9764 13.4959 10.6603 13.1732C10.3442 12.8506 10.1861 12.4611 10.1861 12.0049C10.1861 11.5551 10.3442 11.1722 10.6603 10.856C10.9764 10.5399 11.3626 10.3818 11.8189 10.3818C12.2622 10.3818 12.6451 10.5399 12.9678 10.856C13.2904 11.1722 13.4517 11.5551 13.4517 12.0049C13.4517 12.4611 13.2904 12.8506 12.9678 13.1732C12.6451 13.4959 12.2622 13.6572 11.8189 13.6572ZM7.29203 18.1939C6.84228 18.1939 6.4577 18.0342 6.13831 17.7149C5.81892 17.3955 5.65922 17.0076 5.65922 16.5514C5.65922 16.1016 5.81892 15.717 6.13831 15.3976C6.4577 15.0782 6.84228 14.9185 7.29203 14.9185C7.74179 14.9185 8.12636 15.0782 8.44575 15.3976C8.76515 15.717 8.92485 16.1016 8.92485 16.5514C8.92485 17.0076 8.76515 17.3955 8.44575 17.7149C8.12636 18.0342 7.74179 18.1939 7.29203 18.1939ZM16.3556 18.1939C15.8993 18.1939 15.5131 18.0342 15.197 17.7149C14.8808 17.3955 14.7228 17.0076 14.7228 16.5514C14.7228 16.1016 14.8808 15.717 15.197 15.3976C15.5131 15.0782 15.8993 14.9185 16.3556 14.9185C16.7989 14.9185 17.1818 15.0782 17.5045 15.3976C17.8271 15.717 17.9884 16.1016 17.9884 16.5514C17.9884 17.0076 17.8271 17.3955 17.5045 17.7149C17.1818 18.0342 16.7989 18.1939 16.3556 18.1939Z" fill="black" fill-opacity="0.8"/>
</svg>
