<svg width="24" height="24" viewBox="0 0 24 24" fill="none" xmlns="http://www.w3.org/2000/svg">
<path d="M5.8531 21.0195H17.713C18.7363 21.0195 19.5038 20.7669 20.0155 20.2618C20.5272 19.7567 20.783 18.9989 20.783 17.9886V6.0505C20.783 5.04017 20.5272 4.28243 20.0155 3.77727C19.5038 3.27211 18.7363 3.01953 17.713 3.01953H5.8531C4.82973 3.01953 4.06222 3.27211 3.55054 3.77727C3.03886 4.28243 2.78302 5.04017 2.78302 6.0505V17.9886C2.78302 18.9989 3.03886 19.7567 3.55054 20.2618C4.06222 20.7669 4.82973 21.0195 5.8531 21.0195ZM5.87265 19.4454C5.38379 19.4454 5.00899 19.3167 4.74826 19.0592C4.48753 18.8017 4.35717 18.4188 4.35717 17.9104V6.12871C4.35717 5.62029 4.48753 5.23735 4.74826 4.97988C5.00899 4.72241 5.38379 4.59368 5.87265 4.59368H17.6934C18.1757 4.59368 18.5489 4.72241 18.8129 4.97988C19.0768 5.23735 19.2088 5.62029 19.2088 6.12871V17.9104C19.2088 18.4188 19.0768 18.8017 18.8129 19.0592C18.5489 19.3167 18.1757 19.4454 17.6934 19.4454H5.87265ZM7.39791 9.20856C7.82811 9.21508 8.19965 9.06191 8.51252 8.74903C8.8254 8.43616 8.98183 8.05484 8.98183 7.60509C8.98183 7.16837 8.8254 6.79683 8.51252 6.49048C8.19965 6.18412 7.82811 6.03094 7.39791 6.03094C6.96119 6.03094 6.58639 6.18412 6.27352 6.49048C5.96065 6.79683 5.80421 7.16837 5.80421 7.60509C5.80421 8.05484 5.96065 8.4329 6.27352 8.73925C6.58639 9.04561 6.96119 9.20205 7.39791 9.20856ZM16.1877 9.20856C16.6179 9.21508 16.9895 9.06191 17.3024 8.74903C17.6152 8.43616 17.7716 8.05484 17.7716 7.60509C17.7716 7.16837 17.6152 6.79683 17.3024 6.49048C16.9895 6.18412 16.6179 6.03094 16.1877 6.03094C15.751 6.03094 15.3746 6.18412 15.0584 6.49048C14.7423 6.79683 14.5842 7.16837 14.5842 7.60509C14.5842 8.05484 14.7423 8.4329 15.0584 8.73925C15.3746 9.04561 15.751 9.20205 16.1877 9.20856ZM7.39791 13.6083C7.82811 13.6083 8.19965 13.4519 8.51252 13.1391C8.8254 12.8262 8.98183 12.4481 8.98183 12.0049C8.98183 11.5747 8.8254 11.2048 8.51252 10.8951C8.19965 10.5855 7.82811 10.4307 7.39791 10.4307C6.96119 10.4307 6.58802 10.5855 6.27841 10.8951C5.96879 11.2048 5.81398 11.5747 5.81398 12.0049C5.81398 12.4481 5.96879 12.8262 6.27841 13.1391C6.58802 13.4519 6.96119 13.6083 7.39791 13.6083ZM16.1877 13.6083C16.6179 13.6083 16.9895 13.4519 17.3024 13.1391C17.6152 12.8262 17.7716 12.4481 17.7716 12.0049C17.7716 11.5747 17.6152 11.2048 17.3024 10.8951C16.9895 10.5855 16.6179 10.4307 16.1877 10.4307C15.7445 10.4307 15.368 10.5855 15.0584 10.8951C14.7488 11.2048 14.594 11.5747 14.594 12.0049C14.594 12.4481 14.7488 12.8262 15.0584 13.1391C15.368 13.4519 15.7445 13.6083 16.1877 13.6083ZM7.39791 18.0081C7.82811 18.0081 8.19965 17.8517 8.51252 17.5388C8.8254 17.2259 8.98183 16.8511 8.98183 16.4144C8.98183 15.9777 8.8254 15.6045 8.51252 15.295C8.19965 14.9853 7.82811 14.8305 7.39791 14.8305C6.96119 14.8305 6.58802 14.9853 6.27841 15.295C5.96879 15.6045 5.81398 15.9777 5.81398 16.4144C5.81398 16.8511 5.96879 17.2259 6.27841 17.5388C6.58802 17.8517 6.96119 18.0081 7.39791 18.0081ZM16.1877 18.0081C16.6179 18.0081 16.9895 17.8517 17.3024 17.5388C17.6152 17.2259 17.7716 16.8511 17.7716 16.4144C17.7716 15.9777 17.6152 15.6045 17.3024 15.295C16.9895 14.9853 16.6179 14.8305 16.1877 14.8305C15.751 14.8305 15.3778 14.9853 15.0682 15.295C14.7586 15.6045 14.6037 15.9777 14.6037 16.4144C14.6037 16.8511 14.7586 17.2259 15.0682 17.5388C15.3778 17.8517 15.751 18.0081 16.1877 18.0081Z" fill="black" fill-opacity="0.8"/>
</svg>
