<svg width="24" height="24" viewBox="0 0 24 24" fill="none" xmlns="http://www.w3.org/2000/svg">
<path d="M5.82209 21.0195H17.6819C18.7053 21.0195 19.4728 20.7669 19.9845 20.2618C20.4962 19.7567 20.752 18.9989 20.752 17.9886V6.0505C20.752 5.04017 20.4962 4.28243 19.9845 3.77727C19.4728 3.27211 18.7053 3.01953 17.6819 3.01953H5.82209C4.79873 3.01953 4.03121 3.27211 3.51953 3.77727C3.00785 4.28243 2.75201 5.04017 2.75201 6.0505V17.9886C2.75201 18.9989 3.00785 19.7567 3.51953 20.2618C4.03121 20.7669 4.79873 21.0195 5.82209 21.0195ZM7.23002 9.12057C6.78027 9.11405 6.39406 8.95273 6.07141 8.63659C5.74876 8.32046 5.58743 7.931 5.58743 7.4682C5.58743 7.01845 5.74876 6.6355 6.07141 6.31937C6.39406 6.00324 6.78027 5.84518 7.23002 5.84518C7.67977 5.84518 8.06435 6.00324 8.38374 6.31937C8.70314 6.6355 8.86283 7.01845 8.86283 7.4682C8.86283 7.931 8.70314 8.32372 8.38374 8.64637C8.06435 8.96902 7.67977 9.12709 7.23002 9.12057ZM16.2936 9.12057C15.8373 9.11405 15.4478 8.95273 15.1252 8.63659C14.8025 8.32046 14.6412 7.931 14.6412 7.4682C14.6412 7.01845 14.8025 6.6355 15.1252 6.31937C15.4478 6.00324 15.8373 5.84518 16.2936 5.84518C16.7369 5.84518 17.1198 6.00324 17.4425 6.31937C17.765 6.6355 17.9263 7.01845 17.9263 7.4682C17.9263 7.931 17.765 8.32372 17.4425 8.64637C17.1198 8.96902 16.7369 9.12709 16.2936 9.12057ZM7.23002 13.6572C6.78027 13.6572 6.39569 13.4959 6.0763 13.1732C5.75691 12.8506 5.59721 12.4611 5.59721 12.0049C5.59721 11.5551 5.75691 11.1722 6.0763 10.856C6.39569 10.5399 6.78027 10.3818 7.23002 10.3818C7.67977 10.3818 8.06435 10.5399 8.38374 10.856C8.70314 11.1722 8.86283 11.5551 8.86283 12.0049C8.86283 12.4611 8.70314 12.8506 8.38374 13.1732C8.06435 13.4959 7.67977 13.6572 7.23002 13.6572ZM16.2936 13.6572C15.8373 13.6572 15.4495 13.4959 15.1301 13.1732C14.8107 12.8506 14.651 12.4611 14.651 12.0049C14.651 11.5551 14.8107 11.1722 15.1301 10.856C15.4495 10.5399 15.8373 10.3818 16.2936 10.3818C16.7369 10.3818 17.1198 10.5399 17.4425 10.856C17.765 11.1722 17.9263 11.5551 17.9263 12.0049C17.9263 12.4611 17.765 12.8506 17.4425 13.1732C17.1198 13.4959 16.7369 13.6572 16.2936 13.6572ZM7.23002 18.1939C6.78027 18.1939 6.39569 18.0342 6.0763 17.7149C5.75691 17.3955 5.59721 17.0076 5.59721 16.5514C5.59721 16.1016 5.75691 15.717 6.0763 15.3976C6.39569 15.0782 6.78027 14.9185 7.23002 14.9185C7.67977 14.9185 8.06435 15.0782 8.38374 15.3976C8.70314 15.717 8.86283 16.1016 8.86283 16.5514C8.86283 17.0076 8.70314 17.3955 8.38374 17.7149C8.06435 18.0342 7.67977 18.1939 7.23002 18.1939ZM16.2936 18.1939C15.8373 18.1939 15.4511 18.0342 15.135 17.7149C14.8188 17.3955 14.6607 17.0076 14.6607 16.5514C14.6607 16.1016 14.8188 15.717 15.135 15.3976C15.4511 15.0782 15.8373 14.9185 16.2936 14.9185C16.7369 14.9185 17.1198 15.0782 17.4425 15.3976C17.765 15.717 17.9263 16.1016 17.9263 16.5514C17.9263 17.0076 17.765 17.3955 17.4425 17.7149C17.1198 18.0342 16.7369 18.1939 16.2936 18.1939Z" fill="black" fill-opacity="0.8"/>
</svg>
