<svg width="24" height="24" viewBox="0 0 24 24" fill="none" xmlns="http://www.w3.org/2000/svg">
<path d="M6.00807 21.0195H17.8679C18.8913 21.0195 19.6588 20.7669 20.1705 20.2618C20.6821 19.7567 20.938 18.9989 20.938 17.9886V6.0505C20.938 5.04017 20.6821 4.28243 20.1705 3.77727C19.6588 3.27211 18.8913 3.01953 17.8679 3.01953H6.00807C4.9847 3.01953 4.21718 3.27211 3.70551 3.77727C3.19383 4.28243 2.93799 5.04017 2.93799 6.0505V17.9886C2.93799 18.9989 3.19383 19.7567 3.70551 20.2618C4.21718 20.7669 4.9847 21.0195 6.00807 21.0195ZM16.4796 9.12057C16.0233 9.11405 15.6322 8.95273 15.3063 8.63659C14.9803 8.32046 14.8174 7.931 14.8174 7.4682C14.8174 7.01845 14.9803 6.6355 15.3063 6.31937C15.6322 6.00324 16.0233 5.84518 16.4796 5.84518C16.9228 5.84518 17.3058 6.00324 17.6284 6.31937C17.951 6.6355 18.1123 7.01845 18.1123 7.4682C18.1123 7.931 17.951 8.32372 17.6284 8.64637C17.3058 8.96902 16.9228 9.12709 16.4796 9.12057ZM11.9429 13.6572C11.4866 13.6572 11.1004 13.4959 10.7843 13.1732C10.4681 12.8506 10.3101 12.4611 10.3101 12.0049C10.3101 11.5551 10.4681 11.1722 10.7843 10.856C11.1004 10.5399 11.4866 10.3818 11.9429 10.3818C12.3861 10.3818 12.7691 10.5399 13.0917 10.856C13.4144 11.1722 13.5757 11.5551 13.5757 12.0049C13.5757 12.4611 13.4144 12.8506 13.0917 13.1732C12.7691 13.4959 12.3861 13.6572 11.9429 13.6572ZM7.416 18.1939C6.96624 18.1939 6.58166 18.0342 6.26227 17.7149C5.94288 17.3955 5.78319 17.0076 5.78319 16.5514C5.78319 16.1016 5.94288 15.717 6.26227 15.3976C6.58166 15.0782 6.96624 14.9185 7.416 14.9185C7.86575 14.9185 8.25032 15.0782 8.56972 15.3976C8.88911 15.717 9.04881 16.1016 9.04881 16.5514C9.04881 17.0076 8.88911 17.3955 8.56972 17.7149C8.25032 18.0342 7.86575 18.1939 7.416 18.1939Z" fill="black" fill-opacity="0.8"/>
</svg>
