<svg width="24" height="24" viewBox="0 0 24 24" fill="none" xmlns="http://www.w3.org/2000/svg">
<path d="M9.55197 22H19.0415C20.0246 22 20.7634 21.7518 21.258 21.2554C21.7527 20.759 22 20.0207 22 19.0406V9.37948C22 8.39937 21.7527 7.6611 21.258 7.16468C20.7634 6.66826 20.0246 6.42006 19.0415 6.42006H9.55197C8.56268 6.42006 7.82072 6.66667 7.32608 7.15991C6.83144 7.65315 6.58411 8.39301 6.58411 9.37948V19.0406C6.58411 20.027 6.83144 20.7669 7.32608 21.2602C7.82072 21.7534 8.56268 22 9.55197 22ZM2 14.6205C2 15.607 2.24732 16.3469 2.74196 16.8401C3.23661 17.3333 3.97857 17.5799 4.96786 17.5799H5.28922V9.37948C5.28922 8.48211 5.45778 7.7152 5.79489 7.07876C6.132 6.44232 6.61877 5.95704 7.25519 5.62292C7.89161 5.28879 8.6572 5.12172 9.55197 5.12172H17.4158V4.95943C17.4158 3.97932 17.1685 3.24105 16.6739 2.74463C16.1792 2.24821 15.4404 2 14.4575 2H4.96786C3.97857 2 3.23661 2.24662 2.74196 2.73986C2.24732 3.23309 2 3.97295 2 4.95943V14.6205ZM10.492 11.7628C10.1135 11.7573 9.78848 11.6202 9.51695 11.3515C9.24542 11.0827 9.10965 10.7517 9.10965 10.3583C9.10965 9.97603 9.24542 9.65053 9.51695 9.38183C9.78848 9.11311 10.1135 8.97876 10.492 8.97876C10.8705 8.97876 11.1941 9.11311 11.4629 9.38183C11.7317 9.65053 11.8661 9.97603 11.8661 10.3583C11.8661 10.7517 11.7317 11.0855 11.4629 11.3598C11.1941 11.634 10.8705 11.7684 10.492 11.7628ZM18.1196 11.7628C17.7356 11.7573 17.4078 11.6202 17.1363 11.3515C16.8647 11.0827 16.7289 10.7517 16.7289 10.3583C16.7289 9.97603 16.8647 9.65053 17.1363 9.38183C17.4078 9.11311 17.7356 8.97876 18.1196 8.97876C18.4926 8.97876 18.8148 9.11311 19.0863 9.38183C19.3579 9.65053 19.4936 9.97603 19.4936 10.3583C19.4936 10.7517 19.3579 11.0855 19.0863 11.3598C18.8148 11.634 18.4926 11.7684 18.1196 11.7628ZM14.3016 15.619C13.9176 15.619 13.5926 15.4819 13.3266 15.2076C13.0606 14.9333 12.9276 14.6023 12.9276 14.2145C12.9276 13.8322 13.0606 13.5067 13.3266 13.238C13.5926 12.9693 13.9176 12.8349 14.3016 12.8349C14.6746 12.8349 14.9969 12.9693 15.2684 13.238C15.54 13.5067 15.6758 13.8322 15.6758 14.2145C15.6758 14.6023 15.54 14.9333 15.2684 15.2076C14.9969 15.4819 14.6746 15.619 14.3016 15.619ZM10.492 19.4751C10.1135 19.4751 9.78985 19.3394 9.52106 19.0679C9.25227 18.7964 9.11788 18.4668 9.11788 18.079C9.11788 17.6967 9.25227 17.3698 9.52106 17.0983C9.78985 16.8268 10.1135 16.691 10.492 16.691C10.8705 16.691 11.1941 16.8268 11.4629 17.0983C11.7317 17.3698 11.8661 17.6967 11.8661 18.079C11.8661 18.4668 11.7317 18.7964 11.4629 19.0679C11.1941 19.3394 10.8705 19.4751 10.492 19.4751ZM18.1196 19.4751C17.7356 19.4751 17.4106 19.3394 17.1445 19.0679C16.8784 18.7964 16.7454 18.4668 16.7454 18.079C16.7454 17.6967 16.8784 17.3698 17.1445 17.0983C17.4106 16.8268 17.7356 16.691 18.1196 16.691C18.4926 16.691 18.8148 16.8268 19.0863 17.0983C19.3579 17.3698 19.4936 17.6967 19.4936 18.079C19.4936 18.4668 19.3579 18.7964 19.0863 19.0679C18.8148 19.3394 18.4926 19.4751 18.1196 19.4751Z" fill="black" fill-opacity="0.8"/>
</svg>
