<svg width="24" height="24" viewBox="0 0 24 24" fill="none" xmlns="http://www.w3.org/2000/svg">
<path d="M6.03907 21.0195H17.8989C18.9223 21.0195 19.6898 20.7669 20.2015 20.2618C20.7132 19.7567 20.969 18.9989 20.969 17.9886V6.0505C20.969 5.04017 20.7132 4.28243 20.2015 3.77727C19.6898 3.27211 18.9223 3.01953 17.8989 3.01953H6.03907C5.01571 3.01953 4.24819 3.27211 3.73651 3.77727C3.22483 4.28243 2.96899 5.04017 2.96899 6.0505V17.9886C2.96899 18.9989 3.22483 19.7567 3.73651 20.2618C4.24819 20.7669 5.01571 21.0195 6.03907 21.0195ZM6.05862 19.4454C5.56976 19.4454 5.19496 19.3167 4.93423 19.0592C4.67351 18.8017 4.54314 18.4188 4.54314 17.9104V6.12871C4.54314 5.62029 4.67351 5.23735 4.93423 4.97988C5.19496 4.72241 5.56976 4.59368 6.05862 4.59368H17.8794C18.3617 4.59368 18.7349 4.72241 18.9988 4.97988C19.2628 5.23735 19.3948 5.62029 19.3948 6.12871V17.9104C19.3948 18.4188 19.2628 18.8017 18.9988 19.0592C18.7349 19.3167 18.3617 19.4454 17.8794 19.4454H6.05862ZM16.3737 9.20856C16.8039 9.21508 17.1754 9.06191 17.4883 8.74903C17.8012 8.43616 17.9576 8.05484 17.9576 7.60509C17.9576 7.16837 17.8012 6.79683 17.4883 6.49048C17.1754 6.18412 16.8039 6.03094 16.3737 6.03094C15.937 6.03094 15.5605 6.18412 15.2444 6.49048C14.9282 6.79683 14.7702 7.16837 14.7702 7.60509C14.7702 8.05484 14.9282 8.4329 15.2444 8.73925C15.5605 9.04561 15.937 9.20205 16.3737 9.20856ZM11.9739 13.6083C12.4041 13.6083 12.7756 13.4519 13.0885 13.1391C13.4014 12.8262 13.5578 12.4481 13.5578 12.0049C13.5578 11.5747 13.4014 11.2048 13.0885 10.8951C12.7756 10.5855 12.4041 10.4307 11.9739 10.4307C11.5372 10.4307 11.164 10.5855 10.8544 10.8951C10.5448 11.2048 10.39 11.5747 10.39 12.0049C10.39 12.4481 10.5448 12.8262 10.8544 13.1391C11.164 13.4519 11.5372 13.6083 11.9739 13.6083ZM7.58389 18.0081C8.01409 18.0081 8.38562 17.8517 8.6985 17.5388C9.01137 17.2259 9.16781 16.8511 9.16781 16.4144C9.16781 15.9777 9.01137 15.6045 8.6985 15.295C8.38562 14.9853 8.01409 14.8305 7.58389 14.8305C7.14716 14.8305 6.774 14.9853 6.46438 15.295C6.15476 15.6045 5.99995 15.9777 5.99995 16.4144C5.99995 16.8511 6.15476 17.2259 6.46438 17.5388C6.774 17.8517 7.14716 18.0081 7.58389 18.0081Z" fill="black" fill-opacity="0.8"/>
</svg>
