<svg width="24" height="24" viewBox="0 0 24 24" fill="none" xmlns="http://www.w3.org/2000/svg">
<path d="M5.94611 21.0195H17.806C18.8293 21.0195 19.5968 20.7669 20.1085 20.2618C20.6202 19.7567 20.876 18.9989 20.876 17.9886V6.0505C20.876 5.04017 20.6202 4.28243 20.1085 3.77727C19.5968 3.27211 18.8293 3.01953 17.806 3.01953H5.94611C4.92275 3.01953 4.15523 3.27211 3.64356 3.77727C3.13188 4.28243 2.87604 5.04017 2.87604 6.0505V17.9886C2.87604 18.9989 3.13188 19.7567 3.64356 20.2618C4.15523 20.7669 4.92275 21.0195 5.94611 21.0195ZM7.35405 9.12057C6.90429 9.11405 6.51808 8.95273 6.19543 8.63659C5.87278 8.32046 5.71145 7.931 5.71145 7.4682C5.71145 7.01845 5.87278 6.6355 6.19543 6.31937C6.51808 6.00324 6.90429 5.84518 7.35405 5.84518C7.8038 5.84518 8.18837 6.00324 8.50776 6.31937C8.82716 6.6355 8.98686 7.01845 8.98686 7.4682C8.98686 7.931 8.82716 8.32372 8.50776 8.64637C8.18837 8.96902 7.8038 9.12709 7.35405 9.12057ZM16.4176 9.12057C15.9613 9.11405 15.5719 8.95273 15.2492 8.63659C14.9266 8.32046 14.7652 7.931 14.7652 7.4682C14.7652 7.01845 14.9266 6.6355 15.2492 6.31937C15.5719 6.00324 15.9613 5.84518 16.4176 5.84518C16.8609 5.84518 17.2438 6.00324 17.5665 6.31937C17.8891 6.6355 18.0504 7.01845 18.0504 7.4682C18.0504 7.931 17.8891 8.32372 17.5665 8.64637C17.2438 8.96902 16.8609 9.12709 16.4176 9.12057ZM7.35405 18.1939C6.90429 18.1939 6.51971 18.0342 6.20032 17.7149C5.88093 17.3955 5.72124 17.0076 5.72124 16.5514C5.72124 16.1016 5.88093 15.717 6.20032 15.3976C6.51971 15.0782 6.90429 14.9185 7.35405 14.9185C7.8038 14.9185 8.18837 15.0782 8.50776 15.3976C8.82716 15.717 8.98686 16.1016 8.98686 16.5514C8.98686 17.0076 8.82716 17.3955 8.50776 17.7149C8.18837 18.0342 7.8038 18.1939 7.35405 18.1939ZM16.4176 18.1939C15.9613 18.1939 15.5751 18.0342 15.259 17.7149C14.9429 17.3955 14.7848 17.0076 14.7848 16.5514C14.7848 16.1016 14.9429 15.717 15.259 15.3976C15.5751 15.0782 15.9613 14.9185 16.4176 14.9185C16.8609 14.9185 17.2438 15.0782 17.5665 15.3976C17.8891 15.717 18.0504 16.1016 18.0504 16.5514C18.0504 17.0076 17.8891 17.3955 17.5665 17.7149C17.2438 18.0342 16.8609 18.1939 16.4176 18.1939Z" fill="black" fill-opacity="0.8"/>
</svg>
