<svg width="24" height="24" viewBox="0 0 24 24" fill="none" xmlns="http://www.w3.org/2000/svg">
<path d="M6.07008 21H17.9299C18.9533 21 19.7208 20.7474 20.2325 20.2423C20.7442 19.7372 21 18.9794 21 17.9691V6.03097C21 5.02065 20.7442 4.2629 20.2325 3.75774C19.7208 3.25258 18.9533 3 17.9299 3H6.07008C5.04671 3 4.2792 3.25258 3.76752 3.75774C3.25584 4.2629 3 5.02065 3 6.03097V17.9691C3 18.9794 3.25584 19.7372 3.76752 20.2423C4.2792 20.7474 5.04671 21 6.07008 21ZM6.08963 19.4259C5.60077 19.4259 5.22597 19.2972 4.96524 19.0397C4.70451 18.7822 4.57415 18.3993 4.57415 17.8909V6.10919C4.57415 5.60077 4.70451 5.21782 4.96524 4.96035C5.22597 4.70289 5.60077 4.57415 6.08963 4.57415H17.9104C18.3927 4.57415 18.7659 4.70289 19.0298 4.96035C19.2938 5.21782 19.4258 5.60077 19.4258 6.10919V17.8909C19.4258 18.3993 19.2938 18.7822 19.0298 19.0397C18.7659 19.2972 18.3927 19.4259 17.9104 19.4259H6.08963ZM12.0147 13.579C12.4449 13.5856 12.8164 13.4324 13.1293 13.1196C13.4421 12.8067 13.5986 12.4286 13.5986 11.9854C13.5986 11.5486 13.4421 11.1755 13.1293 10.8659C12.8164 10.5562 12.4449 10.4014 12.0147 10.4014C11.578 10.4014 11.2032 10.5562 10.8903 10.8659C10.5774 11.1755 10.421 11.5486 10.421 11.9854C10.421 12.4286 10.5774 12.805 10.8903 13.1147C11.2032 13.4242 11.578 13.579 12.0147 13.579Z" fill="black" fill-opacity="0.8"/>
</svg>
