<svg width="24" height="24" viewBox="0 0 24 24" fill="none" xmlns="http://www.w3.org/2000/svg">
<path d="M6.07008 21H17.9299C18.9533 21 19.7208 20.7474 20.2325 20.2423C20.7442 19.7372 21 18.9794 21 17.9691V6.03097C21 5.02065 20.7442 4.2629 20.2325 3.75774C19.7208 3.25258 18.9533 3 17.9299 3H6.07008C5.04671 3 4.2792 3.25258 3.76752 3.75774C3.25584 4.2629 3 5.02065 3 6.03097V17.9691C3 18.9794 3.25584 19.7372 3.76752 20.2423C4.2792 20.7474 5.04671 21 6.07008 21ZM16.5416 9.10105C16.0853 9.09453 15.6942 8.93321 15.3683 8.61707C15.0424 8.30094 14.8794 7.91147 14.8794 7.44868C14.8794 6.99892 15.0424 6.61598 15.3683 6.29985C15.6942 5.98371 16.0853 5.82565 16.5416 5.82565C16.9848 5.82565 17.3678 5.98371 17.6904 6.29985C18.013 6.61598 18.1743 6.99892 18.1743 7.44868C18.1743 7.91147 18.013 8.3042 17.6904 8.62685C17.3678 8.9495 16.9848 9.10757 16.5416 9.10105ZM7.47801 18.1744C7.02825 18.1744 6.64368 18.0147 6.32428 17.6953C6.00489 17.376 5.8452 16.9881 5.8452 16.5319C5.8452 16.0821 6.00489 15.6975 6.32428 15.3781C6.64368 15.0587 7.02825 14.899 7.47801 14.899C7.92776 14.899 8.31233 15.0587 8.63173 15.3781C8.95112 15.6975 9.11082 16.0821 9.11082 16.5319C9.11082 16.9881 8.95112 17.376 8.63173 17.6953C8.31233 18.0147 7.92776 18.1744 7.47801 18.1744Z" fill="black" fill-opacity="0.8"/>
</svg>
