<svg width="24" height="24" viewBox="0 0 24 24" fill="none" xmlns="http://www.w3.org/2000/svg">
<path d="M6.07008 21H17.9299C18.9533 21 19.7208 20.7474 20.2325 20.2423C20.7442 19.7372 21 18.9794 21 17.9691V6.03097C21 5.02065 20.7442 4.2629 20.2325 3.75774C19.7208 3.25258 18.9533 3 17.9299 3H6.07008C5.04671 3 4.2792 3.25258 3.76752 3.75774C3.25584 4.2629 3 5.02065 3 6.03097V17.9691C3 18.9794 3.25584 19.7372 3.76752 20.2423C4.2792 20.7474 5.04671 21 6.07008 21ZM6.08963 19.4259C5.60077 19.4259 5.22597 19.2972 4.96524 19.0397C4.70451 18.7822 4.57415 18.3993 4.57415 17.8909V6.10919C4.57415 5.60077 4.70451 5.21782 4.96524 4.96035C5.22597 4.70289 5.60077 4.57415 6.08963 4.57415H17.9104C18.3927 4.57415 18.7659 4.70289 19.0298 4.96035C19.2938 5.21782 19.4258 5.60077 19.4258 6.10919V17.8909C19.4258 18.3993 19.2938 18.7822 19.0298 19.0397C18.7659 19.2972 18.3927 19.4259 17.9104 19.4259H6.08963ZM16.4047 9.18904C16.8349 9.19556 17.2064 9.04239 17.5193 8.72951C17.8322 8.41664 17.9886 8.03532 17.9886 7.58556C17.9886 7.14884 17.8322 6.7773 17.5193 6.47095C17.2064 6.16459 16.8349 6.01141 16.4047 6.01141C15.968 6.01141 15.5915 6.16459 15.2754 6.47095C14.9593 6.7773 14.8012 7.14884 14.8012 7.58556C14.8012 8.03532 14.9593 8.41338 15.2754 8.71973C15.5915 9.02609 15.968 9.18253 16.4047 9.18904ZM7.61489 17.9886C8.04509 17.9886 8.41663 17.8322 8.7295 17.5193C9.04238 17.2064 9.19881 16.8316 9.19881 16.3949C9.19881 15.9582 9.04238 15.585 8.7295 15.2755C8.41663 14.9658 8.04509 14.811 7.61489 14.811C7.17817 14.811 6.805 14.9658 6.49539 15.2755C6.18577 15.585 6.03096 15.9582 6.03096 16.3949C6.03096 16.8316 6.18577 17.2064 6.49539 17.5193C6.805 17.8322 7.17817 17.9886 7.61489 17.9886Z" fill="black" fill-opacity="0.8"/>
</svg>
