<svg width="24" height="24" viewBox="0 0 24 24" fill="none" xmlns="http://www.w3.org/2000/svg">
<path d="M6.07008 21H17.9299C18.9533 21 19.7208 20.7474 20.2325 20.2423C20.7442 19.7372 21 18.9794 21 17.9691V6.03097C21 5.02065 20.7442 4.2629 20.2325 3.75774C19.7208 3.25258 18.9533 3 17.9299 3H6.07008C5.04671 3 4.2792 3.25258 3.76752 3.75774C3.25584 4.2629 3 5.02065 3 6.03097V17.9691C3 18.9794 3.25584 19.7372 3.76752 20.2423C4.2792 20.7474 5.04671 21 6.07008 21ZM12.0147 13.628C11.5649 13.628 11.1787 13.4683 10.8561 13.1488C10.5334 12.8294 10.3721 12.4416 10.3721 11.9854C10.3721 11.5356 10.5334 11.151 10.8561 10.8316C11.1787 10.5122 11.5649 10.3525 12.0147 10.3525C12.4644 10.3525 12.849 10.5122 13.1683 10.8316C13.4878 11.151 13.6475 11.5356 13.6475 11.9854C13.6475 12.4416 13.4878 12.8311 13.1683 13.1537C12.849 13.4764 12.4644 13.6345 12.0147 13.628Z" fill="black" fill-opacity="0.8"/>
</svg>
