<svg width="24" height="24" viewBox="0 0 24 24" fill="none" xmlns="http://www.w3.org/2000/svg">
<path d="M5.97712 21.0195H17.837C18.8603 21.0195 19.6278 20.7669 20.1395 20.2618C20.6512 19.7567 20.907 18.9989 20.907 17.9886V6.0505C20.907 5.04017 20.6512 4.28243 20.1395 3.77727C19.6278 3.27211 18.8603 3.01953 17.837 3.01953H5.97712C4.95376 3.01953 4.18624 3.27211 3.67456 3.77727C3.16288 4.28243 2.90704 5.04017 2.90704 6.0505V17.9886C2.90704 18.9989 3.16288 19.7567 3.67456 20.2618C4.18624 20.7669 4.95376 21.0195 5.97712 21.0195ZM5.99667 19.4454C5.50781 19.4454 5.13301 19.3167 4.87228 19.0592C4.61156 18.8017 4.48119 18.4188 4.48119 17.9104V6.12871C4.48119 5.62029 4.61156 5.23735 4.87228 4.97988C5.13301 4.72241 5.50781 4.59368 5.99667 4.59368H17.8175C18.2998 4.59368 18.6729 4.72241 18.9369 4.97988C19.2009 5.23735 19.3329 5.62029 19.3329 6.12871V17.9104C19.3329 18.4188 19.2009 18.8017 18.9369 19.0592C18.6729 19.3167 18.2998 19.4454 17.8175 19.4454H5.99667ZM7.52194 9.20856C7.95214 9.21508 8.32367 9.06191 8.63655 8.74903C8.94942 8.43616 9.10586 8.05484 9.10586 7.60509C9.10586 7.16837 8.94942 6.79683 8.63655 6.49048C8.32367 6.18412 7.95214 6.03094 7.52194 6.03094C7.08521 6.03094 6.71042 6.18412 6.39754 6.49048C6.08467 6.79683 5.92823 7.16837 5.92823 7.60509C5.92823 8.05484 6.08467 8.4329 6.39754 8.73925C6.71042 9.04561 7.08521 9.20205 7.52194 9.20856ZM16.3118 9.20856C16.7419 9.21508 17.1135 9.06191 17.4264 8.74903C17.7392 8.43616 17.8956 8.05484 17.8956 7.60509C17.8956 7.16837 17.7392 6.79683 17.4264 6.49048C17.1135 6.18412 16.7419 6.03094 16.3118 6.03094C15.875 6.03094 15.4986 6.18412 15.1824 6.49048C14.8663 6.79683 14.7082 7.16837 14.7082 7.60509C14.7082 8.05484 14.8663 8.4329 15.1824 8.73925C15.4986 9.04561 15.875 9.20205 16.3118 9.20856ZM7.52194 18.0081C7.95214 18.0081 8.32367 17.8517 8.63655 17.5388C8.94942 17.2259 9.10586 16.8511 9.10586 16.4144C9.10586 15.9777 8.94942 15.6045 8.63655 15.295C8.32367 14.9853 7.95214 14.8305 7.52194 14.8305C7.08521 14.8305 6.71205 14.9853 6.40243 15.295C6.09281 15.6045 5.938 15.9777 5.938 16.4144C5.938 16.8511 6.09281 17.2259 6.40243 17.5388C6.71205 17.8517 7.08521 18.0081 7.52194 18.0081ZM16.3118 18.0081C16.7419 18.0081 17.1135 17.8517 17.4264 17.5388C17.7392 17.2259 17.8956 16.8511 17.8956 16.4144C17.8956 15.9777 17.7392 15.6045 17.4264 15.295C17.1135 14.9853 16.7419 14.8305 16.3118 14.8305C15.875 14.8305 15.5019 14.9853 15.1922 15.295C14.8826 15.6045 14.7278 15.9777 14.7278 16.4144C14.7278 16.8511 14.8826 17.2259 15.1922 17.5388C15.5019 17.8517 15.875 18.0081 16.3118 18.0081Z" fill="black" fill-opacity="0.8"/>
</svg>
