<svg width="24" height="24" viewBox="0 0 24 24" fill="none" xmlns="http://www.w3.org/2000/svg">
<path d="M5.91511 21.0195H17.775C18.7983 21.0195 19.5658 20.7669 20.0775 20.2618C20.5892 19.7567 20.845 18.9989 20.845 17.9886V6.0505C20.845 5.04017 20.5892 4.28243 20.0775 3.77727C19.5658 3.27211 18.7983 3.01953 17.775 3.01953H5.91511C4.89175 3.01953 4.12423 3.27211 3.61255 3.77727C3.10087 4.28243 2.84503 5.04017 2.84503 6.0505V17.9886C2.84503 18.9989 3.10087 19.7567 3.61255 20.2618C4.12423 20.7669 4.89175 21.0195 5.91511 21.0195ZM5.93466 19.4454C5.4458 19.4454 5.071 19.3167 4.81027 19.0592C4.54954 18.8017 4.41918 18.4188 4.41918 17.9104V6.12871C4.41918 5.62029 4.54954 5.23735 4.81027 4.97988C5.071 4.72241 5.4458 4.59368 5.93466 4.59368H17.7554C18.2378 4.59368 18.6109 4.72241 18.8749 4.97988C19.1389 5.23735 19.2709 5.62029 19.2709 6.12871V17.9104C19.2709 18.4188 19.1389 18.8017 18.8749 19.0592C18.6109 19.3167 18.2378 19.4454 17.7554 19.4454H5.93466ZM7.45992 9.20856C7.89012 9.21508 8.26166 9.06191 8.57454 8.74903C8.88741 8.43616 9.04385 8.05484 9.04385 7.60509C9.04385 7.16837 8.88741 6.79683 8.57454 6.49048C8.26166 6.18412 7.89012 6.03094 7.45992 6.03094C7.0232 6.03094 6.6484 6.18412 6.33553 6.49048C6.02266 6.79683 5.86622 7.16837 5.86622 7.60509C5.86622 8.05484 6.02266 8.4329 6.33553 8.73925C6.6484 9.04561 7.0232 9.20205 7.45992 9.20856ZM16.2497 9.20856C16.6799 9.21508 17.0515 9.06191 17.3644 8.74903C17.6772 8.43616 17.8336 8.05484 17.8336 7.60509C17.8336 7.16837 17.6772 6.79683 17.3644 6.49048C17.0515 6.18412 16.6799 6.03094 16.2497 6.03094C15.813 6.03094 15.4366 6.18412 15.1204 6.49048C14.8043 6.79683 14.6462 7.16837 14.6462 7.60509C14.6462 8.05484 14.8043 8.4329 15.1204 8.73925C15.4366 9.04561 15.813 9.20205 16.2497 9.20856ZM11.8499 13.6083C12.2801 13.6083 12.6517 13.4519 12.9645 13.1391C13.2774 12.8262 13.4339 12.4481 13.4339 12.0049C13.4339 11.5747 13.2774 11.2048 12.9645 10.8951C12.6517 10.5855 12.2801 10.4307 11.8499 10.4307C11.4132 10.4307 11.04 10.5855 10.7304 10.8951C10.4208 11.2048 10.266 11.5747 10.266 12.0049C10.266 12.4481 10.4208 12.8262 10.7304 13.1391C11.04 13.4519 11.4132 13.6083 11.8499 13.6083ZM7.45992 18.0081C7.89012 18.0081 8.26166 17.8517 8.57454 17.5388C8.88741 17.2259 9.04385 16.8511 9.04385 16.4144C9.04385 15.9777 8.88741 15.6045 8.57454 15.295C8.26166 14.9853 7.89012 14.8305 7.45992 14.8305C7.0232 14.8305 6.65003 14.9853 6.34042 15.295C6.0308 15.6045 5.87599 15.9777 5.87599 16.4144C5.87599 16.8511 6.0308 17.2259 6.34042 17.5388C6.65003 17.8517 7.0232 18.0081 7.45992 18.0081ZM16.2497 18.0081C16.6799 18.0081 17.0515 17.8517 17.3644 17.5388C17.6772 17.2259 17.8336 16.8511 17.8336 16.4144C17.8336 15.9777 17.6772 15.6045 17.3644 15.295C17.0515 14.9853 16.6799 14.8305 16.2497 14.8305C15.813 14.8305 15.4398 14.9853 15.1302 15.295C14.8206 15.6045 14.6658 15.9777 14.6658 16.4144C14.6658 16.8511 14.8206 17.2259 15.1302 17.5388C15.4398 17.8517 15.813 18.0081 16.2497 18.0081Z" fill="black" fill-opacity="0.8"/>
</svg>
