<svg width="24" height="24" viewBox="0 0 24 24" fill="none" xmlns="http://www.w3.org/2000/svg">
<path d="M12.0088 16.0765C12.7558 16.0765 13.4367 15.8927 14.0514 15.525C14.6662 15.1574 15.1559 14.6662 15.5206 14.0514C15.8853 13.4367 16.0676 12.7529 16.0676 12C16.0676 11.2588 15.8838 10.5823 15.5161 9.97058C15.1485 9.35882 14.6588 8.87058 14.0471 8.50588C13.4353 8.14117 12.7588 7.95882 12.0176 7.95882C11.2765 7.95882 10.597 8.14117 9.9794 8.50588C9.36176 8.87058 8.86764 9.35882 8.49705 9.97058C8.12646 10.5823 7.94117 11.2588 7.94117 12C7.94117 12.7529 8.12499 13.4382 8.49264 14.0558C8.86028 14.6735 9.35146 15.1662 9.96617 15.5338C10.5809 15.9015 11.2618 16.0823 12.0088 16.0765ZM12.0088 15.1765C11.4265 15.1765 10.8956 15.0338 10.4162 14.7485C9.93676 14.4632 9.5544 14.0809 9.26911 13.6015C8.98381 13.122 8.84117 12.5882 8.84117 12C8.84117 11.4294 8.98381 10.9059 9.26911 10.4294C9.5544 9.95293 9.93823 9.57205 10.4206 9.28676C10.9029 9.00147 11.4323 8.85882 12.0088 8.85882C12.5853 8.85882 13.1132 9.00147 13.5926 9.28676C14.072 9.57205 14.4544 9.95146 14.7397 10.425C15.025 10.8985 15.1676 11.4235 15.1676 12C15.1676 12.5823 15.0264 13.1147 14.7441 13.597C14.4617 14.0794 14.0809 14.4632 13.6015 14.7485C13.122 15.0338 12.5912 15.1765 12.0088 15.1765ZM12.0088 14.1617C12.397 14.1617 12.7544 14.0647 13.0808 13.8705C13.4073 13.6765 13.6676 13.4162 13.8618 13.0897C14.0559 12.7632 14.153 12.4029 14.153 12.0088C14.153 11.6206 14.0559 11.2647 13.8618 10.9412C13.6676 10.6176 13.4073 10.3588 13.0808 10.1647C12.7544 9.97058 12.397 9.87352 12.0088 9.87352C11.6147 9.87352 11.2544 9.97058 10.9279 10.1647C10.6015 10.3588 10.3412 10.6176 10.1471 10.9412C9.95293 11.2647 9.85587 11.6235 9.85587 12.0176C9.85587 12.4118 9.95293 12.7706 10.1471 13.0941C10.3412 13.4177 10.6015 13.6765 10.9279 13.8705C11.2544 14.0647 11.6147 14.1617 12.0088 14.1617ZM12.0088 13.1823C11.6853 13.1765 11.4103 13.0603 11.1838 12.8338C10.9573 12.6073 10.8441 12.3323 10.8441 12.0088C10.8441 11.697 10.9573 11.4265 11.1838 11.1971C11.4103 10.9676 11.6882 10.8529 12.0176 10.8529C12.3294 10.8529 12.5985 10.9662 12.825 11.1926C13.0515 11.4191 13.1647 11.6912 13.1647 12.0088C13.1647 12.3323 13.0515 12.6103 12.825 12.8427C12.5985 13.075 12.3264 13.1882 12.0088 13.1823ZM8.75294 13.5L8.54999 12.7676L3.66176 14.3559L3.9 15.0794L8.75294 13.5ZM9.25588 14.5588L8.7794 13.9588L4.80882 16.8794L5.26765 17.497L9.25588 14.5588ZM11.2676 15.6264L10.5706 15.3176L8.99117 20.1706L9.7147 20.4176L11.2676 15.6264ZM12.75 8.4794L13.4824 8.69999L15.0176 3.97059L14.2941 3.72353L12.75 8.4794ZM14.7264 9.60881L15.203 10.2L19.2 7.24412L18.7412 6.64411L14.7264 9.60881ZM15.2647 10.6323L15.5294 11.3382L20.347 9.78529L20.1088 9.05293L15.2647 10.6323ZM12 21C13.2294 21 14.3868 20.7647 15.472 20.2941C16.5574 19.8235 17.5147 19.1735 18.3441 18.3441C19.1735 17.5147 19.8235 16.5574 20.2941 15.472C20.7647 14.3868 21 13.2294 21 12C21 10.7706 20.7647 9.61322 20.2941 8.52793C19.8235 7.44264 19.1735 6.48529 18.3441 5.65588C17.5147 4.82647 16.5559 4.17647 15.4676 3.70588C14.3794 3.23529 13.2206 3 11.9912 3C10.7618 3 9.60441 3.23529 8.51911 3.70588C7.43382 4.17647 6.47794 4.82647 5.65147 5.65588C4.825 6.48529 4.17647 7.44264 3.70588 8.52793C3.23529 9.61322 3 10.7706 3 12C3 13.2294 3.23529 14.3868 3.70588 15.472C4.17647 16.5574 4.82647 17.5147 5.65588 18.3441C6.48529 19.1735 7.44264 19.8235 8.52793 20.2941C9.61322 20.7647 10.7706 21 12 21ZM12 19.5C10.9588 19.5 9.98529 19.3059 9.07941 18.9176C8.17352 18.5294 7.37793 17.9927 6.69264 17.3074C6.00735 16.6221 5.47206 15.8265 5.08676 14.9206C4.70147 14.0147 4.50882 13.0412 4.50882 12C4.50882 10.9588 4.70147 9.98529 5.08676 9.07941C5.47206 8.17352 6.00588 7.37646 6.68823 6.68823C7.37058 5.99999 8.1647 5.46323 9.07058 5.07793C9.97646 4.69265 10.95 4.5 11.9912 4.5C13.0323 4.5 14.0059 4.69265 14.9118 5.07793C15.8176 5.46323 16.6147 5.99999 17.3029 6.68823C17.9912 7.37646 18.5294 8.17352 18.9176 9.07941C19.3059 9.98529 19.5 10.9588 19.5 12C19.5 13.0412 19.3073 14.0147 18.9221 14.9206C18.5367 15.8265 18.0014 16.6221 17.3161 17.3074C16.6308 17.9927 15.8338 18.5294 14.9249 18.9176C14.0162 19.3059 13.0412 19.5 12 19.5Z" fill="black" fill-opacity="0.8"/>
</svg>
