<svg width="24" height="24" viewBox="0 0 24 24" fill="none" xmlns="http://www.w3.org/2000/svg">
<path d="M6.94886 22H17.0511C18.0341 22 18.7713 21.7559 19.2627 21.2677C19.7542 20.7795 20 20.0504 20 19.0803V10.6101C20 10.2058 19.9778 9.86692 19.9334 9.59328C19.889 9.31965 19.8018 9.06934 19.6718 8.84235C19.5418 8.61536 19.35 8.37438 19.0963 8.1194L13.8549 2.88619C13.6139 2.64366 13.3793 2.45864 13.151 2.33116C12.9227 2.20367 12.6738 2.1166 12.4043 2.06996C12.1348 2.02332 11.8224 2 11.4673 2H6.94886C5.96591 2 5.22869 2.24565 4.73722 2.73694C4.24574 3.22823 4 3.95896 4 4.92911V19.0803C4 20.0566 4.24574 20.7873 4.73722 21.2724C5.22869 21.7575 5.96591 22 6.94886 22ZM7.01545 20.4981C6.52715 20.4981 6.15775 20.3737 5.90725 20.125C5.65676 19.8762 5.53151 19.5187 5.53151 19.0523V4.95709C5.53151 4.49689 5.65676 4.13931 5.90725 3.88433C6.15775 3.62936 6.53032 3.50187 7.02497 3.50187H11.258V8.92164C11.258 9.50622 11.407 9.94465 11.7051 10.2369C12.0032 10.5292 12.4502 10.6754 13.0464 10.6754H18.4685V19.0523C18.4685 19.5187 18.3432 19.8762 18.0928 20.125C17.8422 20.3737 17.4696 20.4981 16.975 20.4981H7.01545ZM13.2176 9.26679C13.0273 9.26679 12.8926 9.22637 12.8133 9.14552C12.734 9.06468 12.6944 8.93097 12.6944 8.74441V3.79104L18.1736 9.26679H13.2176Z" fill="black" fill-opacity="0.8"/>
</svg>
