<svg width="24" height="24" viewBox="0 0 24 24" fill="none" xmlns="http://www.w3.org/2000/svg">
<path d="M6.94886 22H17.0511C18.0341 22 18.7713 21.7559 19.2627 21.2677C19.7542 20.7795 20 20.0504 20 19.0803V10.6101H13.113C11.9144 10.6101 11.3151 10.0224 11.3151 8.84702V2H6.94886C5.96591 2 5.22869 2.24565 4.73722 2.73694C4.24574 3.22823 4 3.95896 4 4.92911V19.0803C4 20.0566 4.24574 20.7873 4.73722 21.2724C5.22869 21.7575 5.96591 22 6.94886 22ZM13.1415 9.33209H19.8858C19.8541 9.1393 19.7717 8.94652 19.6385 8.75373C19.5053 8.56095 19.3246 8.3495 19.0963 8.1194L13.8549 2.88619C13.633 2.66231 13.4205 2.48352 13.2176 2.34981C13.0147 2.21611 12.8149 2.13371 12.6183 2.10261V8.82836C12.6183 9.16418 12.7927 9.33209 13.1415 9.33209ZM12.0095 19.5746C11.8193 19.5746 11.656 19.5093 11.5196 19.3788C11.3833 19.2482 11.3151 19.0927 11.3151 18.9123V15.61L11.3722 14.1362L10.5731 14.9384L9.74554 15.7687C9.67578 15.8308 9.59809 15.8806 9.51248 15.9179C9.42686 15.9552 9.34284 15.9739 9.2604 15.9739C9.06381 15.9739 8.90527 15.9163 8.78477 15.8013C8.66428 15.6863 8.60403 15.5386 8.60403 15.3582C8.60403 15.2587 8.62465 15.1685 8.66587 15.0877C8.70709 15.0068 8.76258 14.9353 8.83234 14.8732L11.4958 12.4664C11.591 12.3793 11.6782 12.3187 11.7574 12.2845C11.8367 12.2503 11.9207 12.2332 12.0095 12.2332C12.0983 12.2332 12.1823 12.2503 12.2616 12.2845C12.3409 12.3187 12.4281 12.3793 12.5232 12.4664L15.1867 14.8732C15.2564 14.9353 15.3119 15.0068 15.3532 15.0877C15.3944 15.1685 15.415 15.2587 15.415 15.3582C15.415 15.5386 15.3532 15.6863 15.2295 15.8013C15.1058 15.9163 14.952 15.9739 14.7681 15.9739C14.6794 15.9739 14.5921 15.9552 14.5065 15.9179C14.4209 15.8806 14.3432 15.8308 14.2735 15.7687L13.4459 14.9384L12.6468 14.1362L12.7134 15.61V18.9123C12.7134 19.0927 12.6437 19.2482 12.5042 19.3788C12.3646 19.5093 12.1998 19.5746 12.0095 19.5746Z" fill="black" fill-opacity="0.8"/>
</svg>
