<svg width="24" height="24" viewBox="0 0 24 24" fill="none" xmlns="http://www.w3.org/2000/svg">
<path d="M6 11.9981C6.84344 11.9981 7.63615 12.1552 8.37812 12.4693C9.12009 12.7833 9.77329 13.217 10.3377 13.7706C10.9021 14.324 11.3429 14.9646 11.6599 15.6922C11.977 16.4198 12.1356 17.1972 12.1356 18.0243C12.1356 18.5591 12.0642 19.0784 11.9215 19.5822C11.7788 20.0859 11.5743 20.5585 11.308 21H19.0512C20.0341 21 20.7713 20.7559 21.2628 20.2677C21.7543 19.7795 22 19.0504 22 18.0803V9.61008H15.113C13.9144 9.61008 13.3151 9.0224 13.3151 7.84703V1H8.94887C7.96591 1 7.22869 1.24565 6.73721 1.73694C6.24574 2.22824 6 2.95896 6 3.9291V11.9981ZM15.1415 8.3321H21.8858C21.8541 8.13931 21.7717 7.94653 21.6385 7.75374C21.5053 7.56096 21.3246 7.34952 21.0963 7.11942L15.8549 1.88619C15.633 1.66231 15.4205 1.48352 15.2176 1.34981C15.0146 1.21611 14.8149 1.13371 14.6183 1.10261V7.82837C14.6183 8.16419 14.7927 8.3321 15.1415 8.3321Z" fill="black" fill-opacity="0.8"/>
<path fill-rule="evenodd" clip-rule="evenodd" d="M7.91928 22.6063C7.31561 22.8688 6.67585 23 6 23C5.31758 23 4.67454 22.8704 4.07087 22.6113C3.46719 22.3521 2.9357 21.9929 2.47637 21.5335C2.01706 21.0742 1.65617 20.5427 1.3937 19.939C1.13123 19.3353 1 18.689 1 18C1 17.311 1.13123 16.6663 1.3937 16.066C1.65617 15.4655 2.01706 14.934 2.47637 14.4714C2.9357 14.0089 3.46719 13.648 4.07087 13.3887C4.67454 13.1296 5.31758 13 6 13C6.68898 13 7.3353 13.1296 7.93898 13.3887C8.54265 13.648 9.07414 14.0072 9.53346 14.4665C9.99278 14.9258 10.352 15.4573 10.6112 16.061C10.8704 16.6647 11 17.311 11 18C11 18.6824 10.8688 19.3255 10.6063 19.9292C10.3438 20.5328 9.98129 21.0643 9.5187 21.5237C9.0561 21.983 8.52296 22.3439 7.91928 22.6063ZM5.56201 20.9627C5.67027 21.0742 5.81627 21.13 6 21.13C6.18373 21.13 6.32973 21.0742 6.43799 20.9627C6.54626 20.8511 6.60039 20.7067 6.60039 20.5296V18.6004H8.52952C8.70669 18.6004 8.85105 18.5463 8.96259 18.438C9.07415 18.3297 9.12992 18.1837 9.12992 18C9.12992 17.8163 9.07415 17.6703 8.96259 17.562C8.85105 17.4537 8.70669 17.3996 8.52952 17.3996H6.60039V15.4704C6.60039 15.2933 6.54626 15.149 6.43799 15.0374C6.32973 14.9258 6.18373 14.87 6 14.87C5.81627 14.87 5.67027 14.9258 5.56201 15.0374C5.45374 15.149 5.3996 15.2933 5.3996 15.4704V17.3996H3.47047C3.29331 17.3996 3.14895 17.4537 3.0374 17.562C2.92585 17.6703 2.87008 17.8163 2.87008 18C2.87008 18.1837 2.92585 18.3297 3.0374 18.438C3.14895 18.5463 3.29331 18.6004 3.47047 18.6004H5.3996V20.5296C5.3996 20.7067 5.45374 20.8511 5.56201 20.9627Z" fill="#34C759"/>
</svg>
