<svg width="24" height="24" viewBox="0 0 24 24" fill="none" xmlns="http://www.w3.org/2000/svg">
<path d="M6.74328 5.64706H9.76529L16.7971 12.5724V19.2401H18.9683C19.9788 19.2401 20.7367 18.9889 21.2421 18.4865C21.7474 17.9841 22 17.2369 22 16.2449V2.99524C22 2.00318 21.7474 1.25596 21.2421 0.753577C20.7367 0.251192 19.9788 0 18.9683 0H9.77506C8.76447 0 8.00652 0.249603 7.50122 0.748808C6.99593 1.24801 6.74328 1.99682 6.74328 2.99524V5.64706ZM11.9853 3.27186C11.7702 3.27186 11.6121 3.21463 11.511 3.10016C11.4099 2.9857 11.3594 2.85533 11.3594 2.70907V2.50875C11.3594 2.36248 11.4099 2.23212 11.511 2.11765C11.6121 2.00318 11.7702 1.94595 11.9853 1.94595H16.7579C16.9666 1.94595 17.1231 2.00318 17.2274 2.11765C17.3317 2.23212 17.3838 2.36248 17.3838 2.50875V2.70907C17.3838 2.85533 17.3317 2.9857 17.2274 3.10016C17.1231 3.21463 16.9666 3.27186 16.7579 3.27186H11.9853ZM2 21.0048C2 22.0032 2.25265 22.752 2.75795 23.2512C3.26324 23.7504 4.02119 24 5.03178 24H14.2249C15.2355 24 15.9935 23.7488 16.4987 23.2464C17.0041 22.744 17.2568 21.9968 17.2568 21.0048V13.5549C17.2568 13.1479 17.2339 12.8045 17.1883 12.5247C17.1427 12.2449 17.053 11.9889 16.9194 11.7567C16.7857 11.5246 16.5884 11.2782 16.3276 11.0175L10.9389 5.66614C10.5672 5.29094 10.2021 5.04611 9.84352 4.93164C9.48492 4.81718 9.03179 4.75994 8.48411 4.75994H5.03178C4.02119 4.75994 3.26324 5.01113 2.75795 5.51351C2.25265 6.0159 2 6.76312 2 7.75517V21.0048ZM3.57458 20.9762V7.77424C3.57458 7.30366 3.70335 6.93959 3.96088 6.68204C4.21842 6.42448 4.60147 6.29571 5.11003 6.29571H8.31785V11.8283C8.31785 12.4324 8.4727 12.8839 8.7824 13.1828C9.0921 13.4817 9.55013 13.6312 10.1565 13.6312H15.6821V20.9762C15.6821 21.4531 15.5518 21.8203 15.291 22.0779C15.0302 22.3354 14.6488 22.4642 14.1467 22.4642H5.10024C4.59821 22.4642 4.21842 22.3354 3.96088 22.0779C3.70335 21.8203 3.57458 21.4531 3.57458 20.9762ZM10.3423 12.1908C10.1467 12.1908 10.0065 12.1495 9.92177 12.0668C9.837 11.9841 9.79462 11.8474 9.79462 11.6566V6.64865L15.379 12.1908H10.3423Z" fill="black" fill-opacity="0.8"/>
</svg>
