<svg width="24" height="24" viewBox="0 0 24 24" fill="none" xmlns="http://www.w3.org/2000/svg">
<path d="M6.94886 22H17.0511C18.0341 22 18.7713 21.7559 19.2627 21.2677C19.7542 20.7795 20 20.0504 20 19.0803V10.6101H13.113C11.9144 10.6101 11.3151 10.0224 11.3151 8.84702V2H6.94886C5.96591 2 5.22869 2.24565 4.73722 2.73694C4.24574 3.22823 4 3.95896 4 4.92911V19.0803C4 20.0566 4.24574 20.7873 4.73722 21.2724C5.22869 21.7575 5.96591 22 6.94886 22ZM13.1415 9.33209H19.8858C19.8541 9.1393 19.7717 8.94652 19.6385 8.75373C19.5053 8.56095 19.3246 8.3495 19.0963 8.1194L13.8549 2.88619C13.633 2.66231 13.4205 2.48352 13.2176 2.34981C13.0147 2.21611 12.8149 2.13371 12.6183 2.10261V8.82836C12.6183 9.16418 12.7927 9.33209 13.1415 9.33209ZM9.09869 19.1549V16.0112C9.09869 15.4702 9.33333 15.1841 9.80261 15.153V14.2202C9.80261 13.4926 10.0071 12.9064 10.4162 12.4617C10.8252 12.0171 11.3563 11.7948 12.0095 11.7948C12.669 11.7948 13.2033 12.0171 13.6124 12.4617C14.0214 12.9064 14.2259 13.4926 14.2259 14.2202V15.153C14.6952 15.1841 14.9298 15.4702 14.9298 16.0112V19.1549C14.9298 19.7395 14.654 20.0318 14.1023 20.0318H9.92627C9.37455 20.0318 9.09869 19.7395 9.09869 19.1549ZM10.6492 15.1437H13.3698V14.1362C13.3698 13.6698 13.2461 13.2951 12.9988 13.0121C12.7515 12.7292 12.4217 12.5877 12.0095 12.5877C11.6036 12.5877 11.2755 12.7292 11.025 13.0121C10.7745 13.2951 10.6492 13.6698 10.6492 14.1362V15.1437Z" fill="black" fill-opacity="0.8"/>
</svg>
