<svg width="24" height="24" viewBox="0 0 24 24" fill="none" xmlns="http://www.w3.org/2000/svg">
<path d="M5.03178 24H14.2249C15.2355 24 15.9935 23.7488 16.4987 23.2464C17.0041 22.744 17.2568 21.9968 17.2568 21.0048V13.469H10.4303C9.79788 13.469 9.3317 13.3212 9.03178 13.0255C8.73187 12.7298 8.58191 12.2767 8.58191 11.6662V4.75994H5.03178C4.02119 4.75994 3.26324 5.01113 2.75795 5.51351C2.25265 6.0159 2 6.76312 2 7.75517V21.0048C2 22.0032 2.25265 22.752 2.75795 23.2512C3.26324 23.7504 4.02119 24 5.03178 24ZM10.4205 12.1622H17.0807C17.0286 11.9778 16.9438 11.7934 16.8264 11.6089C16.7091 11.4245 16.5395 11.2242 16.3179 11.0079L11.0954 5.81876C10.8802 5.60255 10.6765 5.42449 10.4841 5.28458C10.2918 5.14468 10.1011 5.04929 9.91198 4.99841V11.6757C9.91198 12 10.0815 12.1622 10.4205 12.1622ZM18.5868 19.2401H18.9683C19.4703 19.2401 19.9103 19.1765 20.2885 19.0493C20.6666 18.9221 20.9829 18.7345 21.2372 18.4865C21.4914 18.2385 21.6821 17.9269 21.8093 17.5517C21.9364 17.1765 22 16.7409 22 16.2449V7.19237H16.5917C16.0766 7.19237 15.6805 7.05724 15.4034 6.78696C15.1264 6.51669 14.9878 6.13354 14.9878 5.63752V0H9.77506C8.78403 0 8.03097 0.248013 7.51589 0.744039C7.00082 1.24007 6.74328 1.96503 6.74328 2.91892V3.46264H8.16137C8.84596 3.46264 9.47514 3.55803 10.0489 3.74881C10.6227 3.93959 11.1834 4.30207 11.7311 4.83625L17.2861 10.2449C17.8338 10.779 18.1874 11.3307 18.3472 11.8998C18.5069 12.469 18.5868 13.0779 18.5868 13.7265V19.2401ZM16.7776 6H21.8826C21.8566 5.84738 21.793 5.70111 21.6919 5.56121C21.5909 5.42131 21.4523 5.26551 21.2762 5.0938L17.1394 0.982513C16.9699 0.810812 16.8118 0.674087 16.6651 0.572338C16.5183 0.470589 16.37 0.410176 16.22 0.391098L16.2298 5.44674C16.2298 5.81558 16.4124 6 16.7776 6Z" fill="black" fill-opacity="0.8"/>
</svg>
