<svg width="24" height="24" viewBox="0 0 24 24" fill="none" xmlns="http://www.w3.org/2000/svg">
<path d="M6.70908 12.0752C7.51514 12.0752 8.27272 12.2333 8.98181 12.5496C9.6909 12.8658 10.3151 13.3026 10.8545 13.86C11.394 14.4173 11.8152 15.0624 12.1181 15.7951C12.4212 16.5278 12.5727 17.3106 12.5727 18.1435C12.5727 18.682 12.5045 19.205 12.3682 19.7123C12.2318 20.2195 12.0364 20.6954 11.7818 21.14H19.1818C20.1212 21.14 20.8257 20.8942 21.2954 20.4026C21.7651 19.911 22 19.1768 22 18.1999V9.67037H15.4182C14.2727 9.67037 13.7 9.07857 13.7 7.89497V1H9.52727C8.58787 1 7.88333 1.24737 7.41363 1.7421C6.94393 2.23684 6.70908 2.97267 6.70908 3.94961V12.0752ZM15.4455 8.38344H21.8909C21.8606 8.18931 21.7818 7.99517 21.6545 7.80103C21.5273 7.6069 21.3545 7.39397 21.1363 7.16226L16.1273 1.8924C15.9152 1.66695 15.7121 1.4869 15.5182 1.35226C15.3242 1.21762 15.1333 1.13464 14.9454 1.10333V7.87618C14.9454 8.21435 15.1121 8.38344 15.4455 8.38344ZM6.31818 23H7.1C7.23939 23 7.3606 22.9593 7.46363 22.8779C7.56666 22.7965 7.63333 22.6806 7.66363 22.5303L7.88181 21.6097C7.94242 21.591 8.00909 21.5675 8.08181 21.5393C8.15454 21.5111 8.22121 21.4782 8.28181 21.4406L9.06363 21.9385C9.18484 22.0137 9.30757 22.0481 9.43181 22.0418C9.55605 22.0356 9.67272 21.9761 9.78181 21.8634L10.3182 21.2997C10.4151 21.1933 10.4682 21.0759 10.4773 20.9475C10.4864 20.8191 10.4515 20.686 10.3727 20.5483L9.90908 19.7404C9.94545 19.6715 9.97575 19.6073 9.99999 19.5479C10.0242 19.4884 10.0454 19.4273 10.0636 19.3646L10.9636 19.1392C11.1091 19.1017 11.2227 19.0312 11.3045 18.9278C11.3864 18.8245 11.4273 18.6977 11.4273 18.5474V17.7489C11.4273 17.6112 11.3849 17.4922 11.3 17.3919C11.2151 17.2918 11.103 17.2229 10.9636 17.1853L10.0818 16.9599C10.0515 16.8785 10.0227 16.808 9.99545 16.7485C9.96817 16.689 9.94241 16.6311 9.91817 16.5747L10.4091 15.7387C10.4818 15.6197 10.5121 15.4913 10.5 15.3536C10.4879 15.2158 10.4333 15.1 10.3364 15.006L9.78181 14.4518C9.67878 14.3453 9.56363 14.2827 9.43635 14.2639C9.30908 14.2451 9.1909 14.2733 9.08181 14.3485L8.28181 14.8651C8.20909 14.8212 8.13939 14.7884 8.07272 14.7665C8.00606 14.7446 7.94242 14.7211 7.88181 14.696L7.66363 13.7566C7.63333 13.6188 7.56666 13.5061 7.46363 13.4185C7.3606 13.3308 7.23939 13.287 7.1 13.287H6.31818C6.17878 13.287 6.05605 13.3324 5.94999 13.4232C5.84394 13.514 5.77878 13.6251 5.75454 13.7566L5.54545 14.6866C5.46666 14.7179 5.39394 14.7446 5.32727 14.7665C5.2606 14.7884 5.19394 14.8212 5.12727 14.8651L4.33636 14.3485C4.23333 14.2733 4.11666 14.2451 3.98636 14.2639C3.85606 14.2827 3.73939 14.3453 3.63636 14.4518L3.1 15.006C3.00303 15.1062 2.94394 15.2236 2.92273 15.3583C2.90151 15.4929 2.92727 15.6197 3 15.7387L3.5 16.5747C3.47576 16.6311 3.45 16.6922 3.42273 16.7579C3.39546 16.8237 3.3697 16.891 3.34545 16.9599L2.45454 17.1853C2.31515 17.2229 2.20455 17.2934 2.12273 17.3967C2.04091 17.5 2 17.6174 2 17.7489V18.5474C2 18.6977 2.04091 18.8245 2.12273 18.9278C2.20455 19.0312 2.31515 19.1017 2.45454 19.1392L3.35455 19.3646C3.37879 19.4273 3.40454 19.4884 3.43182 19.5479C3.45909 19.6073 3.48484 19.6715 3.50909 19.7404L3.04546 20.5577C2.97273 20.6892 2.94091 20.8207 2.95 20.9522C2.95909 21.0837 3.01212 21.1996 3.10909 21.2997L3.63636 21.8634C3.73939 21.9761 3.85455 22.0356 3.98182 22.0418C4.10909 22.0481 4.23333 22.0137 4.35455 21.9385L5.14545 21.4406C5.22424 21.4845 5.29545 21.5189 5.35909 21.544C5.42273 21.569 5.48484 21.591 5.54545 21.6097L5.75454 22.5303C5.77878 22.6743 5.84394 22.7886 5.94999 22.8732C6.05605 22.9577 6.17878 23 6.31818 23ZM6.71818 19.7123C6.28787 19.7123 5.92727 19.5604 5.63636 19.2566C5.34545 18.9529 5.2 18.585 5.2 18.1529C5.2 17.7208 5.34545 17.3513 5.63636 17.0444C5.92727 16.7376 6.28787 16.581 6.71818 16.5747C7.12424 16.5685 7.47727 16.7219 7.77726 17.0351C8.07726 17.3481 8.22726 17.7208 8.22726 18.1529C8.22726 18.585 8.07726 18.9529 7.77726 19.2566C7.47727 19.5604 7.12424 19.7123 6.71818 19.7123Z" fill="black" fill-opacity="0.8"/>
</svg>
