<svg width="24" height="24" viewBox="0 0 24 24" fill="none" xmlns="http://www.w3.org/2000/svg">
<path d="M8.2711 14.6679C8.08719 14.6679 7.93341 14.6104 7.80974 14.4954C7.68608 14.3803 7.62425 14.2357 7.62425 14.0616C7.62425 13.8874 7.68608 13.7413 7.80974 13.6232C7.93341 13.505 8.08719 13.4459 8.2711 13.4459H15.7574C15.935 13.4459 16.0856 13.505 16.2093 13.6232C16.3329 13.7413 16.3947 13.8874 16.3947 14.0616C16.3947 14.2357 16.3329 14.3803 16.2093 14.4954C16.0856 14.6104 15.935 14.6679 15.7574 14.6679H8.2711ZM8.2711 18.2034C8.08719 18.2034 7.93341 18.1443 7.80974 18.0261C7.68608 17.9079 7.62425 17.7649 7.62425 17.597C7.62425 17.4229 7.68608 17.2767 7.80974 17.1585C7.93341 17.0404 8.08719 16.9813 8.2711 16.9813H15.7574C15.935 16.9813 16.0856 17.0404 16.2093 17.1585C16.3329 17.2767 16.3947 17.4229 16.3947 17.597C16.3947 17.7649 16.3329 17.9079 16.2093 18.0261C16.0856 18.1443 15.935 18.2034 15.7574 18.2034H8.2711ZM6.94886 22H17.0511C18.0341 22 18.7713 21.7559 19.2627 21.2677C19.7542 20.7795 20 20.0504 20 19.0803V10.6101H13.113C11.9144 10.6101 11.3151 10.0224 11.3151 8.84702V2H6.94886C5.96591 2 5.22869 2.24565 4.73722 2.73694C4.24574 3.22823 4 3.95896 4 4.92911V19.0803C4 20.0566 4.24574 20.7873 4.73722 21.2724C5.22869 21.7575 5.96591 22 6.94886 22ZM13.1415 9.33209H19.8858C19.8541 9.1393 19.7717 8.94652 19.6385 8.75373C19.5053 8.56095 19.3246 8.3495 19.0963 8.1194L13.8549 2.88619C13.633 2.66231 13.4205 2.48352 13.2176 2.34981C13.0147 2.21611 12.8149 2.13371 12.6183 2.10261V8.82836C12.6183 9.16418 12.7927 9.33209 13.1415 9.33209Z" fill="black" fill-opacity="0.8"/>
</svg>
