<svg width="24" height="24" viewBox="0 0 24 24" fill="none" xmlns="http://www.w3.org/2000/svg">
<path d="M6.74328 5.28458H8.31785V3.02385C8.31785 2.5469 8.44662 2.17965 8.70416 1.9221C8.9617 1.66455 9.34475 1.53578 9.85331 1.53578H14.176V6.42925C14.176 6.98251 14.3146 7.39269 14.5916 7.65978C14.8688 7.92687 15.2877 8.06041 15.8484 8.06041H20.4254V16.2163C20.4254 16.6932 20.295 17.0604 20.0342 17.318C19.7734 17.5755 19.3888 17.7043 18.8802 17.7043H16.9535V19.2401H18.9683C19.9788 19.2401 20.7367 18.9889 21.2421 18.4865C21.7474 17.9841 22 17.2369 22 16.2449V8.49921C22 7.91415 21.9283 7.41812 21.7849 7.01113C21.6414 6.60413 21.3871 6.21622 21.022 5.84738L16.0831 0.953895C15.7376 0.604134 15.3561 0.357711 14.9389 0.214627C14.5216 0.0715423 14.0489 0 13.5208 0H9.77506C8.76447 0 8.00652 0.251192 7.50122 0.753577C6.99593 1.25596 6.74328 2.00318 6.74328 2.99524V5.28458ZM15.5941 6.20033V2.28935L20.0147 6.67727H16.0733C15.9038 6.67727 15.7816 6.6407 15.7066 6.56757C15.6316 6.49444 15.5941 6.37203 15.5941 6.20033ZM2 21.0048C2 22.0032 2.25265 22.752 2.75795 23.2512C3.26324 23.7504 4.02119 24 5.03178 24H14.2249C15.2355 24 15.9935 23.7488 16.4987 23.2464C17.0041 22.744 17.2568 21.9968 17.2568 21.0048V13.5549C17.2568 13.1479 17.2339 12.8045 17.1883 12.5247C17.1427 12.2449 17.053 11.9889 16.9194 11.7567C16.7857 11.5246 16.5884 11.2782 16.3276 11.0175L10.9389 5.66614C10.5672 5.29094 10.2021 5.04611 9.84352 4.93164C9.48492 4.81718 9.03179 4.75994 8.48411 4.75994H5.03178C4.02119 4.75994 3.26324 5.01113 2.75795 5.51351C2.25265 6.0159 2 6.76312 2 7.75517V21.0048ZM3.57458 20.9762V7.77424C3.57458 7.30366 3.70335 6.93959 3.96088 6.68204C4.21842 6.42448 4.60147 6.29571 5.11003 6.29571H8.31785V11.8283C8.31785 12.4324 8.4727 12.8839 8.7824 13.1828C9.0921 13.4817 9.55013 13.6312 10.1565 13.6312H15.6821V20.9762C15.6821 21.4531 15.5518 21.8203 15.291 22.0779C15.0302 22.3354 14.6488 22.4642 14.1467 22.4642H5.10024C4.59821 22.4642 4.21842 22.3354 3.96088 22.0779C3.70335 21.8203 3.57458 21.4531 3.57458 20.9762ZM10.3423 12.1908C10.1467 12.1908 10.0065 12.1495 9.92177 12.0668C9.837 11.9841 9.79462 11.8474 9.79462 11.6566V6.64865L15.379 12.1908H10.3423Z" fill="black" fill-opacity="0.8"/>
</svg>
