<svg width="24" height="24" viewBox="0 0 24 24" fill="none" xmlns="http://www.w3.org/2000/svg">
<path d="M6.94886 22H17.0511C18.0341 22 18.7713 21.7559 19.2627 21.2677C19.7542 20.7795 20 20.0504 20 19.0803V10.6101H13.113C11.9144 10.6101 11.3151 10.0224 11.3151 8.84702V2H6.94886C5.96591 2 5.22869 2.24565 4.73722 2.73694C4.24574 3.22823 4 3.95896 4 4.92911V19.0803C4 20.0566 4.24574 20.7873 4.73722 21.2724C5.22869 21.7575 5.96591 22 6.94886 22ZM13.1415 9.33209H19.8858C19.8541 9.1393 19.7717 8.94652 19.6385 8.75373C19.5053 8.56095 19.3246 8.3495 19.0963 8.1194L13.8549 2.88619C13.633 2.66231 13.4205 2.48352 13.2176 2.34981C13.0147 2.21611 12.8149 2.13371 12.6183 2.10261V8.82836C12.6183 9.16418 12.7927 9.33209 13.1415 9.33209ZM12.0095 12.3264C12.1998 12.3264 12.3646 12.3918 12.5042 12.5224C12.6437 12.653 12.7134 12.8085 12.7134 12.9888V16.291L12.6468 17.7649L13.4459 16.9627L14.2735 16.1324C14.3432 16.0703 14.4209 16.0206 14.5065 15.9832C14.5921 15.9459 14.6794 15.9273 14.7681 15.9273C14.952 15.9273 15.1058 15.9848 15.2295 16.0998C15.3532 16.2148 15.415 16.3626 15.415 16.5429C15.415 16.6424 15.3944 16.7326 15.3532 16.8134C15.3119 16.8943 15.2564 16.9658 15.1867 17.028L12.5232 19.4347C12.4281 19.5218 12.3409 19.5824 12.2616 19.6166C12.1823 19.6508 12.0983 19.6679 12.0095 19.6679C11.9207 19.6679 11.8367 19.6508 11.7574 19.6166C11.6782 19.5824 11.591 19.5218 11.4958 19.4347L8.83234 17.028C8.76258 16.9658 8.70709 16.8943 8.66587 16.8134C8.62465 16.7326 8.60403 16.6424 8.60403 16.5429C8.60403 16.3626 8.66428 16.2148 8.78477 16.0998C8.90527 15.9848 9.06381 15.9273 9.2604 15.9273C9.34284 15.9273 9.42686 15.9459 9.51248 15.9832C9.59809 16.0206 9.67578 16.0703 9.74554 16.1324L10.5731 16.9627L11.3722 17.7649L11.3151 16.291V12.9888C11.3151 12.8085 11.3833 12.653 11.5196 12.5224C11.656 12.3918 11.8193 12.3264 12.0095 12.3264Z" fill="black" fill-opacity="0.8"/>
</svg>
