<svg width="24" height="24" viewBox="0 0 24 24" fill="none" xmlns="http://www.w3.org/2000/svg">
<path d="M6.00484 21.2524H11.3166C11.0646 21.0383 10.832 20.8038 10.6187 20.5487C10.4055 20.2937 10.2181 20.0213 10.0565 19.7317H6.09207C5.58804 19.7317 5.20678 19.6088 4.9483 19.3632C4.68982 19.1176 4.56058 18.7586 4.56058 18.2863V3.98497C4.56058 3.51896 4.68982 3.15843 4.9483 2.90339C5.20678 2.64834 5.58804 2.52082 6.09207 2.52082H16.2213C16.7059 2.52082 17.0807 2.64834 17.3457 2.90339C17.6106 3.15843 17.7431 3.51896 17.7431 3.98497V12.2314C18.0403 12.3825 18.3198 12.5636 18.5815 12.7746C18.8433 12.9855 19.084 13.2138 19.3037 13.4594V3.96607C19.3037 2.97738 19.0533 2.23586 18.5524 1.74152C18.0516 1.24717 17.3004 1 16.2988 1H6.00484C5.00969 1 4.2601 1.24875 3.75606 1.74624C3.25202 2.24374 3 2.98368 3 3.96607V18.2863C3 19.275 3.2504 20.0166 3.75121 20.5109C4.25202 21.0052 5.00322 21.2524 6.00484 21.2524ZM7.48787 6.37483H14.8352C15.0032 6.37483 15.1453 6.31658 15.2617 6.20008C15.378 6.08357 15.4362 5.94345 15.4362 5.77972C15.4362 5.62229 15.378 5.48847 15.2617 5.37827C15.1453 5.26806 15.0032 5.21296 14.8352 5.21296H7.48787C7.30694 5.21296 7.15993 5.26806 7.04684 5.37827C6.93376 5.48847 6.87721 5.62229 6.87721 5.77972C6.87721 5.94345 6.93376 6.08357 7.04684 6.20008C7.15993 6.31658 7.30694 6.37483 7.48787 6.37483ZM7.48787 9.66207H14.8352C15.0032 9.66207 15.1453 9.6054 15.2617 9.49205C15.378 9.37869 15.4362 9.24014 15.4362 9.07642C15.4362 8.91268 15.378 8.77571 15.2617 8.6655C15.1453 8.5553 15.0032 8.5002 14.8352 8.5002H7.48787C7.30694 8.5002 7.15993 8.5553 7.04684 8.6655C6.93376 8.77571 6.87721 8.91268 6.87721 9.07642C6.87721 9.24014 6.93376 9.37869 7.04684 9.49205C7.15993 9.6054 7.30694 9.66207 7.48787 9.66207ZM14.9515 21.2524C15.7528 21.2524 16.483 21.0619 17.1421 20.6809C17.8012 20.3 18.3263 19.7883 18.7173 19.146C19.1082 18.5036 19.3037 17.792 19.3037 17.0112C19.3037 16.2239 19.1082 15.5092 18.7173 14.8669C18.3263 14.2246 17.8012 13.7113 17.1421 13.3272C16.483 12.9431 15.7528 12.751 14.9515 12.751C14.1502 12.751 13.42 12.9431 12.7609 13.3272C12.1018 13.7113 11.5735 14.2261 11.1761 14.8716C10.7787 15.5171 10.58 16.2303 10.58 17.0112C10.58 17.792 10.7787 18.5036 11.1761 19.146C11.5735 19.7883 12.1018 20.3 12.7609 20.6809C13.42 21.0619 14.1502 21.2524 14.9515 21.2524ZM14.9515 19.9016C14.4022 19.9016 13.903 19.771 13.4539 19.5097C13.0048 19.2483 12.6446 18.8988 12.3732 18.4611C12.1018 18.0235 11.9661 17.5402 11.9661 17.0112C11.9661 16.4821 12.1018 15.9988 12.3732 15.5611C12.6446 15.1235 13.0048 14.7724 13.4539 14.508C13.903 14.2434 14.4022 14.1112 14.9515 14.1112C15.4879 14.1112 15.9806 14.2434 16.4297 14.508C16.8788 14.7724 17.2375 15.1235 17.5057 15.5611C17.7738 15.9988 17.9079 16.4821 17.9079 17.0112C17.9079 17.5402 17.7738 18.0235 17.5057 18.4611C17.2375 18.8988 16.8805 19.2483 16.4346 19.5097C15.9887 19.771 15.4943 19.9016 14.9515 19.9016ZM20.2149 23C20.441 23 20.6284 22.9228 20.7771 22.7685C20.9257 22.6142 21 22.4174 21 22.1782C21 22.0774 20.9757 21.9751 20.9272 21.8712C20.8788 21.7672 20.8126 21.6775 20.7285 21.6019L18.0146 18.9476L16.7835 20.0245L19.5073 22.6882C19.7205 22.8961 19.9563 23 20.2149 23Z" fill="black" fill-opacity="0.8"/>
</svg>
