<svg width="24" height="24" viewBox="0 0 24 24" fill="none" xmlns="http://www.w3.org/2000/svg">
<path d="M6 12.0448C6.12683 12.0323 6.25208 12.0215 6.37574 12.0122C6.4994 12.0028 6.62465 11.9981 6.75149 11.9981C6.88466 11.9981 7.01467 12.0028 7.1415 12.0122C7.26833 12.0215 7.39834 12.0323 7.53151 12.0448V3.95709C7.53151 3.49689 7.65676 3.1393 7.90726 2.88433C8.15775 2.62935 8.53032 2.50186 9.02497 2.50186H13.258V7.92165C13.258 8.50623 13.4071 8.94467 13.7051 9.23697C14.0032 9.52927 14.4503 9.67542 15.0463 9.67542H20.4685V18.0523C20.4685 18.5187 20.3432 18.8762 20.0928 19.125C19.8423 19.3738 19.4697 19.4982 18.975 19.4982H12.6873C12.6239 19.7656 12.5414 20.0252 12.4399 20.2771C12.3385 20.5289 12.218 20.7699 12.0785 21H19.0512C20.0341 21 20.7713 20.7559 21.2628 20.2677C21.7543 19.7795 22 19.0504 22 18.0803V9.61008C22 9.20583 21.9778 8.8669 21.9334 8.5933C21.889 8.31967 21.8018 8.06935 21.6718 7.84236C21.5418 7.61537 21.35 7.37439 21.0963 7.11942L15.8549 1.88619C15.6139 1.64365 15.3793 1.45864 15.1511 1.33116C14.9227 1.20367 14.6738 1.1166 14.4043 1.06996C14.1348 1.02332 13.8224 1 13.4673 1H8.94888C7.96591 1 7.2287 1.24565 6.73722 1.73694C6.24574 2.22824 6 2.95896 6 3.9291V12.0448ZM14.6944 7.74441V2.79105L20.1736 8.2668H15.2176C15.0273 8.2668 14.8926 8.22638 14.8133 8.14554C14.7341 8.06469 14.6944 7.93098 14.6944 7.74441Z" fill="black" fill-opacity="0.8"/>
<path fill-rule="evenodd" clip-rule="evenodd" d="M8.91928 22.6063C8.31561 22.8688 7.67585 23 7 23C6.31758 23 5.67454 22.8704 5.07087 22.6113C4.46719 22.3521 3.9357 21.9929 3.47637 21.5335C3.01706 21.0742 2.65617 20.5427 2.3937 19.939C2.13123 19.3353 2 18.689 2 18C2 17.311 2.13123 16.6663 2.3937 16.066C2.65617 15.4655 3.01706 14.934 3.47637 14.4714C3.9357 14.0089 4.46719 13.648 5.07087 13.3887C5.67454 13.1296 6.31758 13 7 13C7.68898 13 8.3353 13.1296 8.93898 13.3887C9.54265 13.648 10.0741 14.0072 10.5335 14.4665C10.9928 14.9258 11.352 15.4573 11.6112 16.061C11.8704 16.6647 12 17.311 12 18C12 18.6824 11.8688 19.3255 11.6063 19.9292C11.3438 20.5328 10.9813 21.0643 10.5187 21.5237C10.0561 21.983 9.52296 22.3439 8.91928 22.6063ZM6.58019 20.8396C6.68396 20.9465 6.8239 21 7 21C7.1761 21 7.31604 20.9465 7.41981 20.8396C7.52358 20.7327 7.57547 20.5943 7.57547 20.4245V18.5755H9.42452C9.59434 18.5755 9.7327 18.5236 9.83962 18.4198C9.94654 18.316 10 18.1761 10 18C10 17.8239 9.94654 17.684 9.83962 17.5802C9.7327 17.4764 9.59434 17.4245 9.42452 17.4245H7.57547V15.5755C7.57547 15.4057 7.52358 15.2674 7.41981 15.1605C7.31604 15.0535 7.1761 15 7 15C6.8239 15 6.68396 15.0535 6.58019 15.1605C6.47641 15.2674 6.42452 15.4057 6.42452 15.5755V17.4245H4.57547C4.40566 17.4245 4.26729 17.4764 4.16037 17.5802C4.05346 17.684 4 17.8239 4 18C4 18.1761 4.05346 18.316 4.16037 18.4198C4.26729 18.5236 4.40566 18.5755 4.57547 18.5755H6.42452V20.4245C6.42452 20.5943 6.47641 20.7327 6.58019 20.8396Z" fill="#34C759"/>
</svg>
