<svg width="24" height="24" viewBox="0 0 24 24" fill="none" xmlns="http://www.w3.org/2000/svg">
<path d="M6.13208 12.1221C6.25787 12.1096 6.38208 12.0986 6.50473 12.0892C6.62737 12.0798 6.75158 12.0752 6.87737 12.0752C7.00944 12.0752 7.13837 12.0798 7.26416 12.0892C7.38994 12.0986 7.51887 12.1096 7.65095 12.1221V3.9778C7.65095 3.51438 7.77516 3.15429 8.02359 2.89752C8.27202 2.64076 8.64151 2.51238 9.13208 2.51238H13.3302V7.97011C13.3302 8.55879 13.478 9.00031 13.7736 9.29465C14.0692 9.589 14.5126 9.73617 15.1038 9.73617H20.4812V18.1717C20.4812 18.6413 20.357 19.0014 20.1085 19.2519C19.8601 19.5024 19.4906 19.6277 19.0001 19.6277H12.7642C12.7013 19.897 12.6195 20.1584 12.5189 20.4121C12.4182 20.6657 12.2987 20.9083 12.1604 21.14H19.0755C20.0504 21.14 20.7815 20.8942 21.2689 20.4026C21.7563 19.911 22 19.1768 22 18.1999V9.67037C22 9.26329 21.978 8.92199 21.934 8.64646C21.89 8.37091 21.8035 8.11885 21.6745 7.89027C21.5456 7.66169 21.3554 7.41902 21.1038 7.16226L15.9056 1.8924C15.6666 1.64816 15.434 1.46185 15.2076 1.33348C14.9811 1.20509 14.7343 1.11742 14.467 1.07045C14.1997 1.02348 13.8899 1 13.5378 1H9.05661C8.08177 1 7.35064 1.24737 6.86321 1.7421C6.37579 2.23684 6.13208 2.97267 6.13208 3.94961V12.1221ZM14.7547 7.79164V2.80359L20.1887 8.31768H15.2736C15.0849 8.31768 14.9513 8.27698 14.8727 8.19557C14.794 8.11415 14.7547 7.97951 14.7547 7.79164ZM6.48114 23H7.29246C7.43711 23 7.5629 22.9593 7.66982 22.8779C7.77674 22.7965 7.84592 22.6806 7.87736 22.5303L8.10378 21.6097C8.16668 21.591 8.23586 21.5675 8.31133 21.5393C8.3868 21.5111 8.45598 21.4782 8.51888 21.4406L9.3302 21.9385C9.45598 22.0137 9.58334 22.0481 9.71227 22.0418C9.8412 22.0356 9.96227 21.9761 10.0755 21.8634L10.6321 21.2997C10.7327 21.1933 10.7878 21.0759 10.7972 20.9475C10.8066 20.8191 10.7704 20.686 10.6887 20.5483L10.2076 19.7404C10.2453 19.6715 10.2767 19.6073 10.3019 19.5479C10.3271 19.4884 10.3491 19.4273 10.3679 19.3646L11.3019 19.1392C11.4528 19.1017 11.5708 19.0312 11.6557 18.9278C11.7406 18.8245 11.7831 18.6977 11.7831 18.5474V17.7489C11.7831 17.6112 11.739 17.4922 11.651 17.3919C11.5629 17.2918 11.4466 17.2229 11.3019 17.1853L10.3868 16.9599C10.3554 16.8785 10.3255 16.808 10.2972 16.7485C10.2689 16.689 10.2421 16.6311 10.217 16.5747L10.7264 15.7387C10.8019 15.6197 10.8333 15.4913 10.8208 15.3536C10.8082 15.2158 10.7516 15.1 10.651 15.006L10.0755 14.4518C9.96856 14.3453 9.84907 14.2827 9.71699 14.2639C9.58491 14.2451 9.46227 14.2733 9.34906 14.3485L8.51888 14.8651C8.44341 14.8212 8.37108 14.7884 8.3019 14.7665C8.23272 14.7446 8.16668 14.7211 8.10378 14.696L7.87736 13.7566C7.84592 13.6188 7.77674 13.5061 7.66982 13.4185C7.5629 13.3308 7.43711 13.287 7.29246 13.287H6.48114C6.33648 13.287 6.20912 13.3324 6.09906 13.4232C5.989 13.514 5.92139 13.6251 5.89623 13.7566L5.67925 14.6866C5.59749 14.7179 5.52202 14.7446 5.45284 14.7665C5.38365 14.7884 5.31447 14.8212 5.24529 14.8651L4.42454 14.3485C4.31761 14.2733 4.19654 14.2451 4.06132 14.2639C3.9261 14.2827 3.80503 14.3453 3.69811 14.4518L3.14151 15.006C3.04088 15.1062 2.97956 15.2236 2.95755 15.3583C2.93554 15.4929 2.96227 15.6197 3.03774 15.7387L3.55661 16.5747C3.53145 16.6311 3.50472 16.6922 3.47642 16.7579C3.44812 16.8237 3.42139 16.891 3.39623 16.9599L2.4717 17.1853C2.32704 17.2229 2.21226 17.2934 2.12736 17.3967C2.04245 17.5 2 17.6174 2 17.7489V18.5474C2 18.6977 2.04245 18.8245 2.12736 18.9278C2.21226 19.0312 2.32704 19.1017 2.4717 19.1392L3.40566 19.3646C3.43082 19.4273 3.45755 19.4884 3.48585 19.5479C3.51415 19.6073 3.54088 19.6715 3.56604 19.7404L3.08491 20.5577C3.00944 20.6892 2.97642 20.8207 2.98585 20.9522C2.99529 21.0837 3.05032 21.1996 3.15095 21.2997L3.69811 21.8634C3.80503 21.9761 3.92453 22.0356 4.05661 22.0418C4.18868 22.0481 4.31761 22.0137 4.4434 21.9385L5.26416 21.4406C5.34592 21.4845 5.41982 21.5189 5.48585 21.544C5.55189 21.569 5.61636 21.591 5.67925 21.6097L5.89623 22.5303C5.92139 22.6743 5.989 22.7886 6.09906 22.8732C6.20912 22.9577 6.33648 23 6.48114 23ZM6.89623 19.7123C6.44969 19.7123 6.07548 19.5604 5.77359 19.2566C5.4717 18.9529 5.32076 18.585 5.32076 18.1529C5.32076 17.7208 5.4717 17.3513 5.77359 17.0444C6.07548 16.7376 6.44969 16.581 6.89623 16.5747C7.31762 16.5685 7.68397 16.7219 7.99529 17.0351C8.30661 17.3481 8.46227 17.7208 8.46227 18.1529C8.46227 18.585 8.30661 18.9529 7.99529 19.2566C7.68397 19.5604 7.31762 19.7123 6.89623 19.7123Z" fill="black" fill-opacity="0.8"/>
</svg>
