<svg width="24" height="24" viewBox="0 0 24 24" fill="none" xmlns="http://www.w3.org/2000/svg">
<path d="M1 12.1384C1 12.9158 1.19371 13.6109 1.58113 14.2237C1.96855 14.8364 2.50126 15.3191 3.17925 15.6716C3.85723 16.0241 4.62516 16.2004 5.48302 16.2004H18.517C19.3818 16.2004 20.1514 16.0241 20.8259 15.6716C21.5005 15.3191 22.0315 14.8364 22.4188 14.2237C22.8063 13.6109 23 12.9158 23 12.1384C23 11.8023 22.9568 11.4828 22.8704 11.1797C22.7839 10.8766 22.6818 10.5834 22.5642 10.3001L19.4406 3.18418C19.1362 2.4726 18.6761 1.93067 18.0604 1.5584C17.4446 1.18613 16.7044 1 15.8396 1H8.16038C6.38931 1 5.18554 1.72806 4.54906 3.18418L1.43585 10.3001C1.31132 10.59 1.20755 10.8882 1.12453 11.1946C1.04151 11.5009 1 11.8155 1 12.1384ZM4.21698 8.27403L6.15756 3.60917C6.49655 2.79875 7.19183 2.39354 8.24341 2.39354H15.767C16.8186 2.39354 17.5139 2.79875 17.8529 3.60917L19.7934 8.27403C19.5927 8.20815 19.3869 8.16038 19.176 8.13073C18.9649 8.10108 18.7453 8.08626 18.517 8.08626H5.48302C5.26164 8.08626 5.04545 8.10108 4.83444 8.13073C4.62344 8.16038 4.41762 8.20815 4.21698 8.27403ZM2.65 12.1384C2.65 11.6574 2.77107 11.2308 3.01321 10.8585C3.25535 10.4862 3.58915 10.193 4.01462 9.97888C4.4401 9.76475 4.92956 9.65768 5.48302 9.65768H18.517C19.0705 9.65768 19.5599 9.76475 19.9854 9.97888C20.4109 10.193 20.7447 10.4862 20.9868 10.8585C21.229 11.2308 21.35 11.6574 21.35 12.1384C21.35 12.6589 21.2376 13.1036 21.0128 13.4726C20.7879 13.8415 20.4645 14.1249 20.0425 14.3226C19.6204 14.5203 19.112 14.6191 18.517 14.6191H5.48302C4.92956 14.6191 4.4401 14.5137 4.01462 14.3028C3.58915 14.092 3.25535 13.8004 3.01321 13.4281C2.77107 13.0558 2.65 12.6259 2.65 12.1384ZM17.2717 12.1384C17.2717 12.4678 17.3911 12.7462 17.6297 12.9735C17.8684 13.2008 18.1607 13.3145 18.5066 13.3145C18.8387 13.3079 19.1259 13.1909 19.368 12.9636C19.6101 12.7363 19.7312 12.4612 19.7312 12.1384C19.7312 11.8287 19.6101 11.5569 19.368 11.323C19.1259 11.0891 18.8387 10.9721 18.5066 10.9721C18.1746 10.9721 17.8857 11.0891 17.6401 11.323C17.3945 11.5569 17.2717 11.8287 17.2717 12.1384ZM10.983 20.7565H12.6538V15.1923H10.983V20.7565ZM3.18963 21.5472H20.4472C20.6755 21.5472 20.8726 21.4698 21.0387 21.315C21.2047 21.1601 21.2878 20.974 21.2878 20.7565C21.2878 20.5325 21.2047 20.3431 21.0387 20.1882C20.8726 20.0334 20.6755 19.956 20.4472 19.956H3.18963C2.96132 19.956 2.76588 20.0334 2.6033 20.1882C2.44073 20.3431 2.35944 20.5325 2.35944 20.7565C2.35944 20.974 2.44073 21.1601 2.6033 21.315C2.76588 21.4698 2.96132 21.5472 3.18963 21.5472ZM11.8235 23C12.2525 23 12.6434 22.8979 12.9963 22.6937C13.3491 22.4894 13.6327 22.2192 13.8471 21.8832C14.0617 21.5471 14.1689 21.1749 14.1689 20.7664C14.1689 20.3579 14.0617 19.984 13.8471 19.6447C13.6327 19.3053 13.3491 19.0352 12.9963 18.8342C12.6434 18.6333 12.2525 18.5328 11.8235 18.5328C11.3947 18.5328 11.0021 18.6333 10.6458 18.8342C10.2895 19.0352 10.0058 19.3053 9.79483 19.6447C9.58382 19.984 9.47832 20.3579 9.47832 20.7664C9.47832 21.1749 9.58382 21.5471 9.79483 21.8832C10.0058 22.2192 10.2895 22.4894 10.6458 22.6937C11.0021 22.8979 11.3947 23 11.8235 23Z" fill="black" fill-opacity="0.8"/>
</svg>
