<svg width="24" height="24" viewBox="0 0 24 24" fill="none" xmlns="http://www.w3.org/2000/svg">
<path d="M4.78977 7.66365H19.2102C20.0952 7.66365 20.9052 7.83605 21.6403 8.18083L19.36 3.06872C19.0675 2.39241 18.6178 1.87854 18.0112 1.52713C17.4045 1.17571 16.6872 1 15.8594 1H8.14062C7.31272 1 6.59545 1.17571 5.9888 1.52713C5.38215 1.87854 4.93251 2.39241 4.63989 3.06872L2.3489 8.18083C3.08402 7.83605 3.89764 7.66365 4.78977 7.66365ZM4.78977 15.8788H19.2102C19.9595 15.8788 20.618 15.7313 21.1854 15.4362C21.7528 15.1412 22.1971 14.7318 22.5182 14.208C22.8394 13.6841 23 13.0775 23 12.3879C23 11.6983 22.8394 11.09 22.5182 10.5629C22.1971 10.0357 21.7528 9.62297 21.1854 9.3246C20.618 9.02623 19.9595 8.87704 19.2102 8.87704H4.78977C4.04038 8.87704 3.38021 9.02623 2.80924 9.3246C2.23828 9.62297 1.794 10.0357 1.4764 10.5629C1.1588 11.09 1 11.6983 1 12.3879C1 13.0775 1.1588 13.6841 1.4764 14.208C1.794 14.7318 2.23828 15.1412 2.80924 15.4362C3.38021 15.7313 4.04038 15.8788 4.78977 15.8788ZM17.8292 12.3879C17.8292 12.0829 17.9523 11.816 18.1985 11.5872C18.4447 11.3585 18.732 11.2441 19.0603 11.2441C19.3957 11.2441 19.6866 11.3585 19.9328 11.5872C20.179 11.816 20.3021 12.0829 20.3021 12.3879C20.3021 12.7061 20.179 12.9747 19.9328 13.1935C19.6866 13.4123 19.3957 13.525 19.0603 13.5316C18.732 13.5316 18.4447 13.4222 18.1985 13.2035C17.9523 12.9846 17.8292 12.7128 17.8292 12.3879ZM11.1382 20.7423H12.8618V15.1429H11.1382V20.7423ZM3.09829 21.538H20.9017C21.1372 21.538 21.3389 21.4601 21.5066 21.3043C21.6742 21.1485 21.7581 20.9611 21.7581 20.7423C21.7581 20.5169 21.6742 20.3263 21.5066 20.1705C21.3389 20.0146 21.1372 19.9367 20.9017 19.9367H3.09829C2.86277 19.9367 2.66115 20.0146 2.49342 20.1705C2.3257 20.3263 2.24184 20.5169 2.24184 20.7423C2.24184 20.9611 2.3257 21.1485 2.49342 21.3043C2.66115 21.4601 2.86277 21.538 3.09829 21.538ZM11.9946 23C12.4371 23 12.8422 22.8972 13.2097 22.6917C13.5773 22.4861 13.8699 22.2143 14.0876 21.8761C14.3052 21.538 14.4141 21.1633 14.4141 20.7523C14.4141 20.3412 14.3052 19.9649 14.0876 19.6234C13.8699 19.2819 13.5773 19.0101 13.2097 18.8079C12.8422 18.6056 12.4371 18.5045 11.9946 18.5045C11.5593 18.5045 11.1578 18.6056 10.7902 18.8079C10.4227 19.0101 10.1301 19.2819 9.91239 19.6234C9.69471 19.9649 9.58587 20.3412 9.58587 20.7523C9.58587 21.1633 9.69471 21.538 9.91239 21.8761C10.1301 22.2143 10.4227 22.4861 10.7902 22.6917C11.1578 22.8972 11.5593 23 11.9946 23Z" fill="black" fill-opacity="0.8"/>
</svg>
