<svg width="24" height="24" viewBox="0 0 24 24" fill="none" xmlns="http://www.w3.org/2000/svg">
<path d="M1 15.7727C1 16.5663 1.18947 17.2833 1.5684 17.9238C1.94734 18.5643 2.46916 19.0704 3.13385 19.4423C3.79854 19.8141 4.56262 20 5.4261 20H18.574C19.4374 20 20.2015 19.8141 20.8662 19.4423C21.5309 19.0704 22.0527 18.5643 22.4316 17.9238C22.8105 17.2833 23 16.5663 23 15.7727C23 15.4228 22.955 15.0884 22.8649 14.7697C22.7748 14.4511 22.6708 14.1449 22.5528 13.8512L19.4126 6.2683C19.102 5.51845 18.6407 4.95294 18.0289 4.57176C17.417 4.19059 16.6948 4 15.8624 4H8.13767C7.30525 4 6.5831 4.19059 5.97121 4.57176C5.35932 4.95294 4.89808 5.51845 4.58747 6.2683L1.43795 13.8512C1.31992 14.1449 1.21742 14.4511 1.13045 14.7697C1.04348 15.0884 1 15.4228 1 15.7727ZM2.50022 15.7727C2.50022 15.2603 2.62135 14.7979 2.86362 14.3854C3.10589 13.973 3.44755 13.6481 3.88861 13.4106C4.32967 13.1732 4.84216 13.0545 5.4261 13.0545H18.574C19.1641 13.0545 19.6781 13.1732 20.1161 13.4106C20.5541 13.6481 20.8942 13.973 21.1364 14.3854C21.3787 14.7979 21.4998 15.2603 21.4998 15.7727C21.4998 16.3538 21.3787 16.8459 21.1364 17.2489C20.8942 17.652 20.5541 17.9597 20.1161 18.1722C19.6781 18.3847 19.1641 18.4909 18.574 18.4909H5.4261C4.84216 18.4909 4.32967 18.3722 3.88861 18.1347C3.44755 17.8972 3.10589 17.5739 2.86362 17.1646C2.62135 16.7553 2.50022 16.2913 2.50022 15.7727ZM4.00975 11.7891L6.04109 6.6526C6.21503 6.20893 6.48836 5.87463 6.86109 5.64967C7.23381 5.42472 7.68419 5.31224 8.21221 5.31224H15.7878C16.3158 5.31224 16.7662 5.42472 17.139 5.64967C17.5117 5.87463 17.785 6.20893 17.9589 6.6526L19.9902 11.7891C19.7728 11.7078 19.5461 11.6469 19.3101 11.6063C19.0741 11.5657 18.8287 11.5454 18.574 11.5454H5.4261C5.1714 11.5454 4.92603 11.5657 4.68997 11.6063C4.45391 11.6469 4.22717 11.7078 4.00975 11.7891ZM17.3999 15.7727C17.3999 16.1038 17.5148 16.3819 17.7446 16.6069C17.9745 16.8319 18.2509 16.9412 18.574 16.9349C18.8845 16.9349 19.1547 16.8225 19.3846 16.5975C19.6145 16.3726 19.7294 16.0976 19.7294 15.7727C19.7294 15.4603 19.6145 15.1884 19.3846 14.9572C19.1547 14.726 18.8845 14.6104 18.574 14.6104C18.2509 14.6104 17.9745 14.726 17.7446 14.9572C17.5148 15.1884 17.3999 15.4603 17.3999 15.7727Z" fill="black" fill-opacity="0.8"/>
</svg>
