<svg width="24" height="24" viewBox="0 0 24 24" fill="none" xmlns="http://www.w3.org/2000/svg">
<path d="M6.21491 17C6.86911 17 7.48274 16.8705 8.0558 16.6114C8.62885 16.3523 9.13219 15.9944 9.5658 15.5377C9.99937 15.0809 10.3392 14.5494 10.5851 13.9431C10.8311 13.3368 10.9541 12.6891 10.9541 12C10.9541 11.3109 10.8311 10.6645 10.5851 10.0609C10.3392 9.45726 9.99937 8.92575 9.5658 8.46635C9.13219 8.00694 8.62885 7.6477 8.0558 7.38862C7.48274 7.12954 6.86911 7 6.21491 7C5.55563 7 4.93947 7.12954 4.36641 7.38862C3.79335 7.6477 3.28875 8.00694 2.85262 8.46635C2.41649 8.92575 2.07544 9.45726 1.82948 10.0609C1.58352 10.6645 1.46054 11.3109 1.46054 12C1.46054 12.6891 1.58352 13.3368 1.82948 13.9431C2.07544 14.5494 2.41649 15.0809 2.85262 15.5377C3.28875 15.9944 3.79335 16.3523 4.36641 16.6114C4.93947 16.8705 5.55563 17 6.21491 17ZM6.21491 15.6458C5.73313 15.6458 5.28305 15.5523 4.86467 15.3654C4.44628 15.1784 4.07861 14.918 3.76165 14.5841C3.4447 14.2503 3.1962 13.8616 3.01617 13.4183C2.83614 12.9749 2.74612 12.5021 2.74612 12C2.74612 11.4979 2.83614 11.0264 3.01617 10.5857C3.1962 10.145 3.4447 9.75774 3.76165 9.42388C4.07861 9.09001 4.44628 8.82826 4.86467 8.63862C5.28305 8.44898 5.73313 8.35417 6.21491 8.35417C6.68654 8.35417 7.13155 8.44898 7.54993 8.63862C7.96829 8.82826 8.33596 9.09001 8.65295 9.42388C8.96993 9.75774 9.21842 10.145 9.39841 10.5857C9.57845 11.0264 9.66847 11.4979 9.66847 12C9.66847 12.5021 9.57845 12.9736 9.39841 13.4143C9.21842 13.855 8.96993 14.2423 8.65295 14.5761C8.33596 14.91 7.96829 15.1717 7.54993 15.3614C7.13155 15.551 6.68654 15.6458 6.21491 15.6458ZM17.8004 17C18.4545 17 19.0681 16.8705 19.6412 16.6114C20.2143 16.3523 20.7176 15.9944 21.1512 15.5377C21.5848 15.0809 21.9246 14.5494 22.1705 13.9431C22.4165 13.3368 22.5395 12.6891 22.5395 12C22.5395 11.3109 22.4165 10.6645 22.1705 10.0609C21.9246 9.45726 21.5848 8.92575 21.1512 8.46635C20.7176 8.00694 20.2143 7.6477 19.6412 7.38862C19.0681 7.12954 18.4545 7 17.8004 7C17.1411 7 16.5249 7.12954 15.9518 7.38862C15.3788 7.6477 14.8742 8.00694 14.4381 8.46635C14.0019 8.92575 13.6609 9.45726 13.4149 10.0609C13.1689 10.6645 13.0459 11.3109 13.0459 12C13.0459 12.6891 13.1689 13.3368 13.4149 13.9431C13.6609 14.5494 14.0019 15.0809 14.4381 15.5377C14.8742 15.9944 15.3788 16.3523 15.9518 16.6114C16.5249 16.8705 17.1411 17 17.8004 17ZM17.8004 15.6458C17.3186 15.6458 16.8685 15.551 16.4501 15.3614C16.0317 15.1717 15.664 14.91 15.3471 14.5761C15.0301 14.2423 14.7816 13.855 14.6016 13.4143C14.4216 12.9736 14.3315 12.5021 14.3315 12C14.3315 11.4979 14.4216 11.0264 14.6016 10.5857C14.7816 10.145 15.0301 9.75774 15.3471 9.42388C15.664 9.09001 16.0317 8.82826 16.4501 8.63862C16.8685 8.44898 17.3186 8.35417 17.8004 8.35417C18.277 8.35417 18.7246 8.44898 19.143 8.63862C19.5614 8.82826 19.9291 9.09001 20.246 9.42388C20.563 9.75774 20.8102 10.145 20.9877 10.5857C21.1652 11.0264 21.2539 11.4979 21.2539 12C21.2539 12.5021 21.1652 12.9749 20.9877 13.4183C20.8102 13.8616 20.563 14.2503 20.246 14.5841C19.9291 14.918 19.5614 15.1784 19.143 15.3654C18.7246 15.5523 18.277 15.6458 17.8004 15.6458ZM1.9626 11.0144H0.570524C0.190175 11.0144 0 11.2147 0 11.6154V11.9439C0 12.3499 0.190175 12.5529 0.570524 12.5529H1.9626V11.0144ZM22.0374 12.5529H23.4371C23.8124 12.5529 24 12.3499 24 11.9439V11.6154C24 11.2147 23.8124 11.0144 23.4371 11.0144H22.0374V12.5529ZM10.5813 12.2885C10.774 12.1656 10.9959 12.0721 11.2469 12.008C11.498 11.9439 11.7503 11.9119 12.0039 11.9119C12.2523 11.9119 12.5034 11.9439 12.757 12.008C13.0105 12.0721 13.2336 12.1656 13.4263 12.2885V10.8381C13.2083 10.7313 12.9699 10.6552 12.7113 10.6098C12.4526 10.5644 12.2168 10.5417 12.0039 10.5417C11.7857 10.5417 11.5474 10.5644 11.2888 10.6098C11.0301 10.6552 10.7943 10.7313 10.5813 10.8381V12.2885Z" fill="black" fill-opacity="0.8"/>
</svg>
