<svg width="24" height="24" viewBox="0 0 24 24" fill="none" xmlns="http://www.w3.org/2000/svg">
<path d="M15.0168 10.2034L5.45795 19.8167C5.27528 20.0078 5.07328 20.1227 4.85197 20.1616C4.63065 20.2005 4.42865 20.1209 4.24598 19.9229C4.04926 19.7107 3.96495 19.502 3.99305 19.2968C4.02115 19.0917 4.14059 18.883 4.35137 18.6708L13.8785 9.03617L12.9722 8.13425L4.45675 16.7078C3.80334 17.3657 3.31856 17.8927 3.00239 18.2888C2.68623 18.6849 2.46491 19.0103 2.33844 19.265C2.21197 19.5197 2.11536 19.7602 2.04862 19.9866C1.98187 20.2129 1.87824 20.4782 1.73772 20.7824C1.5972 21.0865 1.3513 21.4897 1 21.992L1.9485 23C2.42626 22.6463 2.81796 22.4058 3.12358 22.2784C3.42922 22.1511 3.70147 22.0609 3.94035 22.0079C4.17923 21.9549 4.43392 21.8717 4.70443 21.7585C4.97492 21.6454 5.31567 21.4314 5.72669 21.1166C6.13771 20.8018 6.67695 20.3119 7.34442 19.647L15.8914 11.0947L15.0168 10.2034ZM17.525 12.1239L17.82 11.795C18.08 11.5262 18.2118 11.2397 18.2152 10.9355C18.2188 10.6313 18.0835 10.3413 17.8096 10.0654L17.4934 9.7577C17.9009 9.38986 18.3119 9.08922 18.7264 8.85578C19.141 8.62235 19.5467 8.41721 19.9437 8.24036C20.3406 8.06352 20.7148 7.87783 21.0661 7.68329C21.4174 7.48876 21.73 7.25002 22.004 6.96706C22.531 6.43652 22.8454 5.86 22.9472 5.2375C23.0491 4.615 23.0035 4.01726 22.8103 3.44427C22.617 2.87129 22.3342 2.40088 21.9618 2.03304C21.5965 1.65812 21.1328 1.37517 20.5708 1.18417C20.0087 0.993179 19.4167 0.950736 18.795 1.05684C18.1731 1.16295 17.5952 1.4742 17.0613 1.99059C16.7732 2.26647 16.5343 2.58126 16.3447 2.93495C16.155 3.28865 15.9705 3.66534 15.7914 4.065C15.6122 4.46468 15.4084 4.87497 15.18 5.29587C14.9517 5.71676 14.6549 6.12881 14.2896 6.53202L13.9839 6.21369C13.7099 5.93781 13.4236 5.80164 13.1251 5.80518C12.8264 5.80872 12.5401 5.94135 12.2661 6.20309L11.9499 6.50018C11.6197 6.81143 11.4722 7.10854 11.5073 7.3915C11.5424 7.67445 11.697 7.9574 11.971 8.24036L15.7966 12.0921C16.0777 12.368 16.3587 12.5236 16.6397 12.5589C16.9208 12.5943 17.2158 12.4493 17.525 12.1239Z" fill="black" fill-opacity="0.8"/>
</svg>
