<svg width="24" height="24" viewBox="0 0 24 24" fill="none" xmlns="http://www.w3.org/2000/svg">
<path d="M2.89398 20H21.106C21.6845 20 22.1448 19.8422 22.4869 19.5266C22.829 19.211 23 18.7897 23 18.2628V5.72856C23 5.20738 22.829 4.789 22.4869 4.4734C22.1448 4.1578 21.6845 4 21.106 4H2.89398C2.32174 4 1.86302 4.1578 1.51781 4.4734C1.1726 4.789 1 5.20738 1 5.72856V18.2628C1 18.7897 1.1726 19.211 1.51781 19.5266C1.86302 19.8422 2.32174 20 2.89398 20ZM2.90331 18.6015C2.57365 18.6015 2.40882 18.4509 2.40882 18.1498V17.1683C2.40882 17.0467 2.45081 16.9468 2.53478 16.8686C2.61875 16.7904 2.72915 16.7513 2.86599 16.7513H4.06956C4.20639 16.7513 4.31524 16.7904 4.39611 16.8686C4.47696 16.9468 4.51739 17.0467 4.51739 17.1683V18.1759C4.51739 18.2975 4.47696 18.3988 4.39611 18.4799C4.31524 18.561 4.20639 18.6015 4.06956 18.6015H2.90331ZM2.86599 15.7264C2.72915 15.7264 2.61875 15.6844 2.53478 15.6004C2.45081 15.5165 2.40882 15.4195 2.40882 15.3094V14.3192C2.40882 14.1918 2.45081 14.089 2.53478 14.0109C2.61875 13.9327 2.72915 13.8935 2.86599 13.8935H4.06956C4.20639 13.8935 4.31524 13.9327 4.39611 14.0109C4.47696 14.089 4.51739 14.1918 4.51739 14.3192V15.3094C4.51739 15.4195 4.47696 15.5165 4.39611 15.6004C4.31524 15.6844 4.20639 15.7264 4.06956 15.7264H2.86599ZM2.86599 12.912C2.72915 12.912 2.61875 12.8715 2.53478 12.7904C2.45081 12.7094 2.40882 12.6138 2.40882 12.5038V11.5136C2.40882 11.3862 2.45081 11.2834 2.53478 11.2052C2.61875 11.127 2.72915 11.0879 2.86599 11.0879H4.06956C4.20639 11.0879 4.31524 11.127 4.39611 11.2052C4.47696 11.2834 4.51739 11.3862 4.51739 11.5136V12.5038C4.51739 12.6138 4.47696 12.7094 4.39611 12.7904C4.31524 12.8715 4.20639 12.912 4.06956 12.912H2.86599ZM2.86599 10.1238C2.72915 10.1238 2.61875 10.0832 2.53478 10.0022C2.45081 9.92109 2.40882 9.82554 2.40882 9.71552V8.71661C2.40882 8.58921 2.45081 8.48642 2.53478 8.40825C2.61875 8.33007 2.72915 8.29099 2.86599 8.29099H4.06956C4.20639 8.29099 4.31524 8.33007 4.39611 8.40825C4.47696 8.48642 4.51739 8.58921 4.51739 8.71661V9.71552C4.51739 9.82554 4.47696 9.92109 4.39611 10.0022C4.31524 10.0832 4.20639 10.1238 4.06956 10.1238H2.86599ZM2.86599 7.24864C2.72915 7.24864 2.61875 7.2081 2.53478 7.12703C2.45081 7.04596 2.40882 6.95041 2.40882 6.84039V5.85885C2.40882 5.55193 2.57365 5.39848 2.90331 5.39848H4.06956C4.20639 5.39848 4.31524 5.43757 4.39611 5.51574C4.47696 5.59392 4.51739 5.6967 4.51739 5.8241V6.84039C4.51739 6.95041 4.47696 7.04596 4.39611 7.12703C4.31524 7.2081 4.20639 7.24864 4.06956 7.24864H2.86599ZM6.28075 18.6015C6.13769 18.6015 6.02729 18.5653 5.94954 18.4929C5.87179 18.4205 5.83291 18.3178 5.83291 18.1846V13.1205C5.83291 12.9931 5.87179 12.8932 5.94954 12.8208C6.02729 12.7485 6.13769 12.7123 6.28075 12.7123H17.7286C17.8655 12.7123 17.9727 12.7485 18.0505 12.8208C18.1283 12.8932 18.1672 12.9931 18.1672 13.1205V18.1846C18.1672 18.3178 18.1283 18.4205 18.0505 18.4929C17.9727 18.5653 17.8655 18.6015 17.7286 18.6015H6.28075ZM6.28075 11.3051C6.13769 11.3051 6.02729 11.2689 5.94954 11.1965C5.87179 11.1241 5.83291 11.0242 5.83291 10.8968V5.79804C5.83291 5.67065 5.87179 5.5722 5.94954 5.50271C6.02729 5.43322 6.13769 5.39848 6.28075 5.39848H17.7286C17.8655 5.39848 17.9727 5.43322 18.0505 5.50271C18.1283 5.5722 18.1672 5.67065 18.1672 5.79804V10.8968C18.1672 11.0242 18.1283 11.1241 18.0505 11.1965C17.9727 11.2689 17.8655 11.3051 17.7286 11.3051H6.28075ZM19.9305 18.6015C19.7999 18.6015 19.6926 18.561 19.6086 18.4799C19.5246 18.3988 19.4826 18.2975 19.4826 18.1759V17.1683C19.4826 17.0467 19.5246 16.9468 19.6086 16.8686C19.6926 16.7904 19.7999 16.7513 19.9305 16.7513H21.134C21.2709 16.7513 21.3813 16.7904 21.4653 16.8686C21.5492 16.9468 21.5912 17.0467 21.5912 17.1683V18.1498C21.5912 18.4509 21.4264 18.6015 21.0968 18.6015H19.9305ZM19.9305 15.7264C19.7999 15.7264 19.6926 15.6844 19.6086 15.6004C19.5246 15.5165 19.4826 15.4195 19.4826 15.3094V14.3192C19.4826 14.1918 19.5246 14.089 19.6086 14.0109C19.6926 13.9327 19.7999 13.8935 19.9305 13.8935H21.134C21.2771 13.8935 21.3891 13.9327 21.4699 14.0109C21.5508 14.089 21.5912 14.1918 21.5912 14.3192V15.3094C21.5912 15.4195 21.5492 15.5165 21.4653 15.6004C21.3813 15.6844 21.2709 15.7264 21.134 15.7264H19.9305ZM19.9305 12.912C19.7999 12.912 19.6926 12.8715 19.6086 12.7904C19.5246 12.7094 19.4826 12.6138 19.4826 12.5038V11.5136C19.4826 11.3862 19.5246 11.2834 19.6086 11.2052C19.6926 11.127 19.7999 11.0879 19.9305 11.0879H21.134C21.2771 11.0879 21.3891 11.127 21.4699 11.2052C21.5508 11.2834 21.5912 11.3862 21.5912 11.5136V12.5038C21.5912 12.6138 21.5492 12.7094 21.4653 12.7904C21.3813 12.8715 21.2709 12.912 21.134 12.912H19.9305ZM19.9305 10.1238C19.7999 10.1238 19.6926 10.0832 19.6086 10.0022C19.5246 9.92109 19.4826 9.82554 19.4826 9.71552V8.71661C19.4826 8.58921 19.5246 8.48642 19.6086 8.40825C19.6926 8.33007 19.7999 8.29099 19.9305 8.29099H21.134C21.2771 8.29099 21.3891 8.33007 21.4699 8.40825C21.5508 8.48642 21.5912 8.58921 21.5912 8.71661V9.71552C21.5912 9.82554 21.5492 9.92109 21.4653 10.0022C21.3813 10.0832 21.2709 10.1238 21.134 10.1238H19.9305ZM19.9305 7.24864C19.7999 7.24864 19.6926 7.2081 19.6086 7.12703C19.5246 7.04596 19.4826 6.95041 19.4826 6.84039V5.8241C19.4826 5.6967 19.5246 5.59392 19.6086 5.51574C19.6926 5.43757 19.7999 5.39848 19.9305 5.39848H21.0968C21.4264 5.39848 21.5912 5.55193 21.5912 5.85885V6.84039C21.5912 6.95041 21.5492 7.04596 21.4653 7.12703C21.3813 7.2081 21.2709 7.24864 21.134 7.24864H19.9305Z" fill="black" fill-opacity="0.8"/>
</svg>
