<svg width="24" height="24" viewBox="0 0 24 24" fill="none" xmlns="http://www.w3.org/2000/svg">
<path d="M5.07427 22C5.25472 22 5.40698 21.932 5.53105 21.7959C5.65511 21.6598 5.71714 21.4959 5.71714 21.3041V16.1452C5.82429 16.0958 6.071 16.0107 6.45729 15.89C6.84358 15.7694 7.34688 15.7091 7.9672 15.7091C8.71721 15.7091 9.40943 15.7865 10.0438 15.9412C10.6783 16.0958 11.2915 16.2782 11.8836 16.4885C12.4758 16.6989 13.0778 16.8906 13.6896 17.0638C14.3015 17.237 14.9627 17.3421 15.6732 17.3793L14.1506 15.6998C13.6487 15.5947 13.1595 15.4648 12.683 15.3102C12.2065 15.1556 11.7229 15.0025 11.2323 14.8509C10.7417 14.6993 10.2285 14.571 9.6928 14.4658C9.15707 14.3607 8.58187 14.3081 7.9672 14.3081C7.50478 14.3081 7.07338 14.3375 6.67299 14.3963C6.27261 14.455 5.95399 14.537 5.71714 14.6421V6.56051L4.54137 5.27079C4.46806 5.41306 4.4314 5.60482 4.4314 5.84606V21.3041C4.4314 21.4897 4.49484 21.6521 4.62172 21.7913C4.74861 21.9304 4.89946 22 5.07427 22ZM19.2851 16.0803C19.3472 15.9813 19.3909 15.8684 19.4163 15.7416C19.4416 15.6148 19.4543 15.4648 19.4543 15.2917V5.87389C19.4543 5.62028 19.3697 5.42543 19.2005 5.28935C19.0314 5.15326 18.8227 5.08521 18.5746 5.08521C18.3659 5.08521 18.0543 5.15016 17.6399 5.28006C17.2254 5.40996 16.6544 5.47491 15.9269 5.47491C15.1995 5.47491 14.5186 5.39295 13.8841 5.22903C13.2497 5.06511 12.628 4.87335 12.019 4.65376C11.4099 4.43417 10.7783 4.23932 10.1242 4.06922C9.47005 3.89911 8.75951 3.80787 7.99258 3.7955L9.43057 5.37285C9.98322 5.47182 10.5147 5.60327 11.0251 5.76719C11.5354 5.93111 12.0472 6.09813 12.5603 6.26823C13.0735 6.43834 13.605 6.58216 14.1548 6.69968C14.7047 6.81721 15.2954 6.87598 15.9269 6.87598C16.3894 6.87598 16.8095 6.84814 17.1873 6.79247C17.5651 6.7368 17.8951 6.66566 18.177 6.57906V14.8555L19.2851 16.0803ZM18.8876 19.3371C19.0173 19.4731 19.1723 19.5412 19.3528 19.5412C19.5332 19.5412 19.6855 19.4731 19.8096 19.3371C19.9336 19.1948 19.9971 19.0247 19.9999 18.8268C20.0027 18.6288 19.9393 18.4618 19.8096 18.3257L5.11656 2.20887C4.98686 2.07278 4.83178 2.00319 4.65133 2.0001C4.47088 1.99701 4.3158 2.06659 4.18609 2.20887C4.06203 2.34495 4 2.51351 4 2.71455C4 2.91558 4.06203 3.08414 4.18609 3.22022L18.8876 19.3371Z" fill="black" fill-opacity="0.8"/>
</svg>
