<svg width="24" height="24" viewBox="0 0 24 24" fill="none" xmlns="http://www.w3.org/2000/svg">
<path d="M4.68468 21C4.87688 21 5.03904 20.9327 5.17117 20.7982C5.3033 20.6636 5.36937 20.5015 5.36937 20.3119V15.211C5.48348 15.1621 5.74624 15.078 6.15765 14.9588C6.56906 14.8395 7.10509 14.7798 7.76575 14.7798C8.60058 14.7798 9.37085 14.8639 10.0766 15.0321C10.7823 15.2003 11.4654 15.393 12.1261 15.6101C12.7868 15.8272 13.4594 16.0199 14.1441 16.1881C14.8288 16.3563 15.5675 16.4404 16.3603 16.4404C16.8288 16.4404 17.2132 16.4236 17.5134 16.3899C17.8138 16.3563 18.075 16.3043 18.2972 16.234C18.5195 16.1636 18.7447 16.0765 18.973 15.9725C19.2853 15.8319 19.5345 15.6346 19.7207 15.3808C19.9069 15.1269 20 14.789 20 14.367V5.05505C20 4.80429 19.9099 4.61163 19.7297 4.47706C19.5495 4.34251 19.3273 4.27523 19.063 4.27523C18.8408 4.27523 18.509 4.33945 18.0675 4.4679C17.626 4.59633 17.018 4.66055 16.2432 4.66055C15.4504 4.66055 14.7117 4.57645 14.027 4.40826C13.3423 4.24006 12.6696 4.04587 12.009 3.82569C11.3483 3.60551 10.6651 3.41284 9.95944 3.24771C9.25374 3.08257 8.48347 3 7.64864 3C7.18017 3 6.79429 3.01682 6.49099 3.05046C6.18768 3.0841 5.92492 3.13609 5.70269 3.20642C5.48048 3.27676 5.25525 3.36391 5.02702 3.46789C4.72072 3.60856 4.47297 3.80581 4.28378 4.05964C4.09459 4.31346 4 4.64832 4 5.06422V20.3119C4 20.4955 4.06757 20.656 4.2027 20.7936C4.33784 20.9312 4.4985 21 4.68468 21ZM16.3603 15.0551C15.6095 15.0551 14.9009 14.971 14.2343 14.8027C13.5676 14.6346 12.9024 14.4419 12.2387 14.2248C11.5751 14.0076 10.8799 13.815 10.1531 13.6468C9.42641 13.4786 8.63062 13.3945 7.76575 13.3945C7.27326 13.3945 6.81381 13.4235 6.38738 13.4817C5.96095 13.5398 5.62162 13.6208 5.36937 13.7248V5.11009C5.42943 4.95719 5.64864 4.79817 6.02703 4.63303C6.4054 4.4679 6.94594 4.38533 7.64864 4.38533C8.44143 4.38533 9.18166 4.46942 9.86935 4.63762C10.557 4.80581 11.2327 4.99847 11.8964 5.2156C12.56 5.43272 13.2447 5.62538 13.9504 5.79358C14.6561 5.96178 15.4204 6.04587 16.2432 6.04587C16.7357 6.04587 17.1832 6.01835 17.5856 5.9633C17.988 5.90826 18.3393 5.83792 18.6396 5.75229V14.3303C18.5795 14.4832 18.3603 14.6422 17.9819 14.8073C17.6035 14.9725 17.063 15.0551 16.3603 15.0551Z" fill="#FF9500"/>
<path d="M16.3603 15.0551C15.6095 15.0551 14.9009 14.971 14.2343 14.8027C13.5676 14.6346 12.9024 14.4419 12.2387 14.2248C11.5751 14.0076 10.8799 13.815 10.1531 13.6468C9.42641 13.4786 8.63062 13.3945 7.76575 13.3945C7.27326 13.3945 6.81381 13.4235 6.38738 13.4817C5.96095 13.5398 5.62162 13.6208 5.36937 13.7248V5.11009C5.42943 4.95719 5.64864 4.79817 6.02703 4.63303C6.4054 4.4679 6.94594 4.38533 7.64864 4.38533C8.44143 4.38533 9.18166 4.46942 9.86935 4.63762C10.557 4.80581 11.2327 4.99847 11.8964 5.2156C12.56 5.43272 13.2447 5.62538 13.9504 5.79358C14.6561 5.96178 15.4204 6.04587 16.2432 6.04587C16.7357 6.04587 17.1832 6.01835 17.5856 5.9633C17.988 5.90826 18.3393 5.83792 18.6396 5.75229V14.3303C18.5795 14.4832 18.3603 14.6422 17.9819 14.8073C17.6035 14.9725 17.063 15.0551 16.3603 15.0551Z" fill="#FF9500"/>
</svg>
