<svg width="24" height="24" viewBox="0 0 24 24" fill="none" xmlns="http://www.w3.org/2000/svg">
<path d="M10.8142 23H13.1858C13.7787 23 14.225 22.8493 14.5247 22.548C14.8244 22.2467 14.9743 21.7882 14.9743 21.1724V10.7374C14.9743 10.2199 15.0303 9.77119 15.1423 9.39126C15.2543 9.01133 15.4058 8.67725 15.5968 8.38902L16.2391 7.44574C16.4631 7.09856 16.6459 6.75138 16.7875 6.4042C16.9292 6.05703 17 5.67382 17 5.25459V4.44886H7V5.25459C7 5.67382 7.06917 6.05703 7.20751 6.4042C7.34585 6.75138 7.5303 7.09856 7.76087 7.44574L8.39328 8.38902C8.58432 8.67725 8.73584 9.01133 8.84782 9.39126C8.95982 9.77119 9.01581 10.2199 9.01581 10.7374V21.1724C9.01581 21.7882 9.16733 22.2467 9.47036 22.548C9.77338 22.8493 10.2213 23 10.8142 23ZM12 15.444C11.5982 15.444 11.2754 15.3114 11.0316 15.0461C10.7879 14.7808 10.666 14.4418 10.666 14.029V11.3367C10.666 10.9241 10.7879 10.59 11.0316 10.3345C11.2754 10.0791 11.5982 9.9546 12 9.96116C12.4018 9.96771 12.7246 10.0971 12.9684 10.3493C13.2121 10.6015 13.334 10.9306 13.334 11.3367V14.029C13.334 14.4418 13.2121 14.7808 12.9684 15.0461C12.7246 15.3114 12.4018 15.444 12 15.444ZM12 14.7463C12.2174 14.7463 12.4068 14.6677 12.5682 14.5105C12.7296 14.3533 12.8103 14.1634 12.8103 13.9406C12.8103 13.7245 12.7296 13.5345 12.5682 13.3707C12.4068 13.207 12.2174 13.1251 12 13.1251C11.7826 13.1251 11.5916 13.207 11.4269 13.3707C11.2622 13.5345 11.1798 13.7245 11.1798 13.9406C11.1798 14.1634 11.2622 14.3533 11.4269 14.5105C11.5916 14.6677 11.7826 14.7463 12 14.7463ZM7 3.29925H17V2.82761C17 2.2053 16.8485 1.74513 16.5455 1.44708C16.2424 1.14903 15.7945 1 15.2016 1H8.79842C8.20553 1 7.75758 1.14903 7.45455 1.44708C7.15152 1.74513 7 2.2053 7 2.82761V3.29925Z" fill="black" fill-opacity="0.8"/>
</svg>
