<svg width="24" height="24" viewBox="0 0 24 24" fill="none" xmlns="http://www.w3.org/2000/svg">
<path d="M4.04184 21H20.2488C21.1142 21 21.7891 20.7459 22.2735 20.2377C22.7578 19.7295 23 18.9672 23 17.9509V7.84918C23 6.83934 22.7449 6.07869 22.2347 5.56721C21.7245 5.05574 20.9657 4.8 19.9582 4.8H10.6583C10.3289 4.8 10.0512 4.75574 9.8252 4.66721C9.59916 4.57869 9.36344 4.42951 9.11802 4.21967L8.52709 3.72787C8.31397 3.54426 8.10892 3.4 7.91194 3.29508C7.71496 3.19016 7.49862 3.11475 7.26289 3.06885C7.02716 3.02295 6.75107 3 6.43462 3H3.67371C2.82123 3 2.16249 3.2459 1.69749 3.7377C1.2325 4.22951 1 4.97049 1 5.96065V17.9509C1 18.9672 1.25349 19.7295 1.76046 20.2377C2.26743 20.7459 3.02789 21 4.04184 21ZM4.06121 19.4164C3.57685 19.4164 3.2055 19.2869 2.94716 19.0279C2.68884 18.7688 2.55967 18.3836 2.55967 17.8721V6.04918C2.55967 5.56393 2.68238 5.19672 2.92779 4.94754C3.1732 4.69836 3.5284 4.57377 3.9934 4.57377H6.03743C6.36035 4.57377 6.63321 4.61967 6.85602 4.71148C7.07883 4.80328 7.31294 4.9541 7.55836 5.16394L8.14928 5.66557C8.35595 5.84262 8.55938 5.98361 8.75959 6.08853C8.9598 6.19345 9.17938 6.26886 9.41833 6.31476C9.65729 6.36066 9.93499 6.38361 10.2514 6.38361H19.9291C20.407 6.38361 20.7784 6.51476 21.0432 6.77705C21.308 7.03934 21.4404 7.42622 21.4404 7.9377V17.882C21.4404 18.3869 21.308 18.7688 21.0432 19.0279C20.7784 19.2869 20.407 19.4164 19.9291 19.4164H4.06121ZM11.8334 14.731C12.0554 14.731 12.2309 14.667 12.3598 14.5391C12.4888 14.4112 12.5533 14.259 12.5533 14.0824C12.5533 14.0641 12.5533 14.0443 12.5533 14.0229C12.5533 14.0017 12.5533 13.9849 12.5533 13.9727C12.5533 13.7169 12.6283 13.4961 12.7783 13.3103C12.9282 13.1246 13.1621 12.9251 13.4801 12.7119C13.912 12.4196 14.2689 12.115 14.5508 11.7983C14.8328 11.4816 14.9737 11.0492 14.9737 10.501C14.9737 9.99547 14.8403 9.56912 14.5734 9.22195C14.3064 8.87477 13.9569 8.61135 13.525 8.43168C13.0931 8.252 12.6222 8.16217 12.1123 8.16217C11.3385 8.16217 10.7072 8.32204 10.2183 8.6418C9.72942 8.96156 9.42199 9.33158 9.29602 9.75184C9.27203 9.82492 9.25403 9.89801 9.24203 9.9711C9.23003 10.0442 9.22403 10.1203 9.22403 10.1995C9.22403 10.4066 9.29002 10.5634 9.42199 10.67C9.55396 10.7766 9.69493 10.8299 9.8449 10.8299C9.99486 10.8299 10.1223 10.7964 10.2273 10.7294C10.3323 10.6624 10.4238 10.5741 10.5017 10.4645L10.6637 10.2452C10.7717 10.0686 10.8947 9.91781 11.0327 9.79294C11.1706 9.66809 11.3251 9.57216 11.496 9.50516C11.667 9.43816 11.8514 9.40466 12.0494 9.40466C12.4633 9.40466 12.7932 9.51278 13.0392 9.729C13.2851 9.94522 13.4081 10.2269 13.4081 10.5741C13.4081 10.8847 13.3121 11.139 13.1201 11.3369C12.9282 11.5349 12.6343 11.774 12.2383 12.0541C11.9144 12.2795 11.646 12.5292 11.433 12.8033C11.2201 13.0774 11.1136 13.4398 11.1136 13.8905C11.1136 13.9088 11.1136 13.9285 11.1136 13.9498C11.1136 13.9712 11.1136 13.991 11.1136 14.0092C11.1136 14.4904 11.3535 14.731 11.8334 14.731ZM11.8064 17.4535C12.0703 17.4535 12.2983 17.3621 12.4903 17.1794C12.6823 16.9967 12.7783 16.7714 12.7783 16.5034C12.7783 16.2354 12.6823 16.0101 12.4903 15.8274C12.2983 15.6446 12.0703 15.5532 11.8064 15.5532C11.5425 15.5532 11.316 15.6461 11.1271 15.8319C10.9381 16.0176 10.8437 16.2415 10.8437 16.5034C10.8437 16.7653 10.9396 16.9891 11.1316 17.1749C11.3235 17.3606 11.5485 17.4535 11.8064 17.4535Z" fill="black" fill-opacity="0.8"/>
</svg>
