<svg width="24" height="24" viewBox="0 0 24 24" fill="none" xmlns="http://www.w3.org/2000/svg">
<path d="M4.04184 21H20.2488C21.1142 21 21.7891 20.7459 22.2735 20.2377C22.7578 19.7295 23 18.9672 23 17.9509V7.84918C23 6.83934 22.7449 6.07869 22.2347 5.56721C21.7245 5.05574 20.9657 4.8 19.9582 4.8H10.6583C10.3289 4.8 10.0512 4.75574 9.8252 4.66721C9.59916 4.57869 9.36344 4.42951 9.11802 4.21967L8.52709 3.72787C8.31397 3.54426 8.10892 3.4 7.91194 3.29508C7.71496 3.19016 7.49862 3.11475 7.26289 3.06885C7.02716 3.02295 6.75107 3 6.43462 3H3.67371C2.82123 3 2.16249 3.2459 1.69749 3.7377C1.2325 4.22951 1 4.97049 1 5.96065V17.9509C1 18.9672 1.25349 19.7295 1.76046 20.2377C2.26743 20.7459 3.02789 21 4.04184 21ZM4.06121 19.4164C3.57685 19.4164 3.2055 19.2869 2.94716 19.0279C2.68884 18.7688 2.55967 18.3836 2.55967 17.8721V6.04918C2.55967 5.56393 2.68238 5.19672 2.92779 4.94754C3.1732 4.69836 3.5284 4.57377 3.9934 4.57377H6.03743C6.36035 4.57377 6.63321 4.61967 6.85602 4.71148C7.07883 4.80328 7.31294 4.9541 7.55836 5.16394L8.14928 5.66557C8.35595 5.84262 8.55938 5.98361 8.75959 6.08853C8.9598 6.19345 9.17938 6.26886 9.41833 6.31476C9.65729 6.36066 9.93499 6.38361 10.2514 6.38361H19.9291C20.407 6.38361 20.7784 6.51476 21.0432 6.77705C21.308 7.03934 21.4404 7.42622 21.4404 7.9377V17.882C21.4404 18.3869 21.308 18.7688 21.0432 19.0279C20.7784 19.2869 20.407 19.4164 19.9291 19.4164H4.06121ZM1.94936 9.9836H22.0409V8.49835H1.94936V9.9836Z" fill="#5856D6"/>
</svg>
