<svg width="24" height="24" viewBox="0 0 24 24" fill="none" xmlns="http://www.w3.org/2000/svg">
<path d="M1 17.9509C1 18.9672 1.25349 19.7295 1.76046 20.2377C2.26743 20.7459 3.02789 21 4.04184 21H20.2488C21.1142 21 21.7891 20.7459 22.2735 20.2377C22.7578 19.7295 23 18.9672 23 17.9509V9.88525H1V17.9509ZM1 8.59672H23V7.84918C23 6.83934 22.7449 6.07869 22.2347 5.56721C21.7245 5.05574 20.9657 4.8 19.9582 4.8H10.6583C10.3289 4.8 10.0512 4.75574 9.8252 4.66721C9.59916 4.57869 9.36344 4.42951 9.11802 4.21967L8.52709 3.72787C8.31397 3.54426 8.10892 3.4 7.91194 3.29508C7.71496 3.19016 7.49862 3.11475 7.26289 3.06885C7.02716 3.02295 6.75107 3 6.43462 3H3.67371C2.82123 3 2.16249 3.2459 1.69749 3.7377C1.2325 4.22951 1 4.97049 1 5.96065V8.59672Z" fill="#5856D6"/>
</svg>
