<svg width="24" height="24" viewBox="0 0 24 24" fill="none" xmlns="http://www.w3.org/2000/svg">
<path d="M8.49028 23C8.91799 23 9.25406 22.8925 9.49847 22.6775C9.74288 22.4624 9.86509 22.162 9.86509 21.7762L9.66141 11.1224C9.66141 10.958 9.70045 10.8141 9.77853 10.6908C9.8566 10.5675 9.97371 10.4742 10.1299 10.4109C10.578 10.2275 10.9429 10.0267 11.2246 9.80853C11.5064 9.59033 11.7084 9.31047 11.8306 8.96894C11.9528 8.62742 12.0037 8.17838 11.9833 7.62182L11.6982 1.79689C11.6778 1.3605 11.4436 1.1423 10.9955 1.1423C10.7986 1.1423 10.6425 1.2008 10.527 1.31781C10.4116 1.43481 10.3539 1.60083 10.3539 1.81587L10.4252 7.47951C10.4252 7.65027 10.3726 7.78309 10.2673 7.87796C10.1621 7.97283 10.028 8.02026 9.86509 8.02026C9.68857 8.02026 9.54599 7.97441 9.43737 7.8827C9.32874 7.791 9.27443 7.66609 9.27443 7.50797L9.17258 1.6451C9.1658 1.44272 9.103 1.2846 8.98419 1.17076C8.86538 1.05692 8.70074 1 8.49028 1C8.2866 1 8.12366 1.05692 8.00145 1.17076C7.87924 1.2846 7.81813 1.44272 7.81813 1.6451L7.7163 7.50797C7.7163 7.66609 7.66029 7.791 7.54827 7.8827C7.43625 7.97441 7.29537 8.02026 7.12564 8.02026C6.74545 8.02026 6.55535 7.84001 6.55535 7.47951L6.62664 1.81587C6.62664 1.60083 6.57062 1.43481 6.4586 1.31781C6.34658 1.2008 6.18873 1.1423 5.98505 1.1423C5.77459 1.1423 5.60825 1.19922 5.48605 1.31307C5.36384 1.42691 5.29595 1.58818 5.28237 1.79689L5.00741 7.62182C4.98025 8.17838 5.02777 8.62742 5.14998 8.96894C5.27219 9.31047 5.47416 9.59033 5.75592 9.80853C6.03767 10.0267 6.40259 10.2275 6.85068 10.4109C7.01362 10.4742 7.13243 10.5675 7.20711 10.6908C7.28179 10.8141 7.31913 10.958 7.31913 11.1224L7.12564 21.7762C7.11885 22.162 7.23766 22.4624 7.48207 22.6775C7.72648 22.8925 8.06255 23 8.49028 23ZM16.4642 14.7275L16.2402 21.7288C16.2266 22.1399 16.3454 22.4545 16.5966 22.6727C16.8478 22.8909 17.1839 23 17.6048 23C18.0325 23 18.3719 22.9004 18.6231 22.7012C18.8744 22.5019 19 22.2125 19 21.8331V1.71151C19 1.47118 18.9253 1.29251 18.7759 1.17551C18.6266 1.0585 18.4568 1 18.2667 1C18.0766 1 17.9103 1.0506 17.7677 1.15179C17.6252 1.25298 17.469 1.41426 17.2993 1.63562C16.8919 2.17321 16.5219 2.81357 16.1893 3.55671C15.8565 4.29984 15.5697 5.11255 15.3287 5.99482C15.0877 6.8771 14.9027 7.79258 14.7737 8.74126C14.6447 9.68994 14.5802 10.6386 14.5802 11.5873V12.0522C14.5802 12.3811 14.6447 12.6657 14.7737 12.906C14.9027 13.1464 15.0928 13.3456 15.344 13.5037L15.955 13.8831C16.1315 14.0033 16.2622 14.1314 16.3471 14.2673C16.4319 14.4033 16.471 14.5567 16.4642 14.7275Z" fill="#8E8E93"/>
</svg>
