<svg width="24" height="24" viewBox="0 0 24 24" fill="none" xmlns="http://www.w3.org/2000/svg">
<path d="M5.27052 10.2252C5.27052 10.0073 5.33148 9.83369 5.4534 9.70419C5.57533 9.57468 5.74436 9.50993 5.9605 9.50993H7.45687V7.96467C7.45687 7.74098 7.51506 7.56438 7.63144 7.43487C7.74782 7.30537 7.90854 7.24061 8.1136 7.24061C8.31866 7.24061 8.47939 7.30537 8.5958 7.43487C8.71214 7.56438 8.77031 7.74098 8.77031 7.96467V9.50993H10.1752C10.408 9.50993 10.5895 9.57468 10.7198 9.70419C10.85 9.83369 10.9152 10.0073 10.9152 10.2252C10.9152 10.4547 10.85 10.6358 10.7198 10.7682C10.5895 10.9007 10.408 10.9669 10.1752 10.9669H8.77031V12.5121C8.77031 12.7358 8.71214 12.9139 8.5958 13.0463C8.47939 13.1788 8.31866 13.245 8.1136 13.245C7.90854 13.245 7.74782 13.1788 7.63144 13.0463C7.51506 12.9139 7.45687 12.7358 7.45687 12.5121V10.9669H5.9605C5.74436 10.9669 5.57533 10.9007 5.4534 10.7682C5.33148 10.6358 5.27052 10.4547 5.27052 10.2252ZM13.4423 11.4614C13.4423 11.1023 13.5587 10.7991 13.7915 10.5519C14.0242 10.3046 14.3069 10.181 14.6394 10.181C14.9775 10.181 15.2615 10.3046 15.4915 10.5519C15.7215 10.7991 15.8365 11.1023 15.8365 11.4614C15.8365 11.8204 15.7215 12.1221 15.4915 12.3664C15.2615 12.6107 14.9775 12.7329 14.6394 12.7329C14.3069 12.7329 14.0242 12.6107 13.7915 12.3664C13.5587 12.1221 13.4423 11.8204 13.4423 11.4614ZM15.8947 8.84767C15.8947 8.48859 16.0097 8.18542 16.2396 7.93818C16.4696 7.69094 16.7509 7.56733 17.0835 7.56733C17.4216 7.56733 17.7056 7.69094 17.9355 7.93818C18.1655 8.18542 18.2805 8.48859 18.2805 8.84767C18.2805 9.20676 18.1655 9.50699 17.9355 9.74834C17.7056 9.98969 17.4216 10.1104 17.0835 10.1104C16.7509 10.1104 16.4696 9.98969 16.2396 9.74834C16.0097 9.50699 15.8947 9.20676 15.8947 8.84767ZM3.16729 20C3.73813 20 4.22999 19.8882 4.64287 19.6645C5.05576 19.4408 5.43678 19.0993 5.78593 18.6402L7.2906 16.7064C7.40145 16.5651 7.51783 16.4621 7.63975 16.3973C7.76168 16.3326 7.8836 16.3002 8.00553 16.3002H15.9945C16.1164 16.3002 16.2383 16.3326 16.3603 16.3973C16.4822 16.4621 16.5985 16.5651 16.7094 16.7064L18.2141 18.6402C18.5632 19.0993 18.9442 19.4408 19.3571 19.6645C19.77 19.8882 20.2619 20 20.8327 20C21.4645 20 22.0187 19.8602 22.4953 19.5805C22.9719 19.3009 23.3418 18.905 23.6051 18.3929C23.8684 17.8808 24 17.2803 24 16.5916C24 16.1501 23.9543 15.6762 23.8628 15.17C23.7714 14.6637 23.6453 14.1251 23.4846 13.5541C23.3183 12.9478 23.1132 12.2884 22.8694 11.5761C22.6255 10.8639 22.3636 10.1442 22.0838 9.41721C21.8039 8.69021 21.5227 8.00882 21.24 7.37306C21.0017 6.84326 20.7772 6.40176 20.5667 6.04856C20.3561 5.69536 20.0887 5.40691 19.7645 5.18322C19.4402 4.95953 18.9844 4.77704 18.3969 4.63576C17.6155 4.44739 16.6872 4.29433 15.612 4.1766C14.5368 4.05887 13.3342 4 12.0042 4C10.674 4 9.47002 4.05887 8.39209 4.1766C7.31416 4.29433 6.38447 4.44739 5.60304 4.63576C5.01558 4.77704 4.55975 4.95953 4.23554 5.18322C3.91132 5.40691 3.64392 5.69536 3.43331 6.04856C3.22272 6.40176 2.99826 6.84326 2.75996 7.37306C2.47731 8.00882 2.19605 8.69021 1.91618 9.41721C1.6363 10.1442 1.37443 10.8639 1.13058 11.5761C0.886731 12.2884 0.681676 12.9478 0.515413 13.5541C0.354693 14.1251 0.228611 14.6637 0.137167 15.17C0.0457222 15.6762 0 16.1501 0 16.5916C0 17.2803 0.131624 17.8808 0.394873 18.3929C0.658121 18.905 1.02806 19.3009 1.50468 19.5805C1.98129 19.8602 2.5355 20 3.16729 20Z" fill="black" fill-opacity="0.8"/>
</svg>
