<svg width="24" height="24" viewBox="0 0 24 24" fill="none" xmlns="http://www.w3.org/2000/svg">
<path d="M5.27052 10.2252C5.27052 10.4547 5.33148 10.6358 5.4534 10.7682C5.57533 10.9007 5.74436 10.9669 5.9605 10.9669H7.45687V12.5121C7.45687 12.7358 7.51506 12.9139 7.63144 13.0463C7.74782 13.1788 7.90854 13.245 8.1136 13.245C8.31866 13.245 8.47939 13.1788 8.5958 13.0463C8.71214 12.9139 8.77031 12.7358 8.77031 12.5121V10.9669H10.1752C10.408 10.9669 10.5895 10.9007 10.7198 10.7682C10.85 10.6358 10.9152 10.4547 10.9152 10.2252C10.9152 10.0073 10.85 9.83369 10.7198 9.70419C10.5895 9.57468 10.408 9.50993 10.1752 9.50993H8.77031V7.96467C8.77031 7.74098 8.71214 7.56438 8.5958 7.43487C8.47939 7.30537 8.31866 7.24061 8.1136 7.24061C7.90854 7.24061 7.74782 7.30537 7.63144 7.43487C7.51506 7.56438 7.45687 7.74098 7.45687 7.96467V9.50993H5.9605C5.74436 9.50993 5.57533 9.57468 5.4534 9.70419C5.33148 9.83369 5.27052 10.0073 5.27052 10.2252ZM17.1666 10.1104C17.5046 10.1104 17.7887 9.98969 18.0187 9.74834C18.2487 9.50699 18.3637 9.20676 18.3637 8.84767C18.3637 8.48859 18.2487 8.18542 18.0187 7.93818C17.7887 7.69094 17.5046 7.56733 17.1666 7.56733C16.8341 7.56733 16.5514 7.69094 16.3186 7.93818C16.0859 8.18542 15.9695 8.48859 15.9695 8.84767C15.9695 9.20676 16.0859 9.50699 16.3186 9.74834C16.5514 9.98969 16.8341 10.1104 17.1666 10.1104ZM14.7225 12.7329C15.0606 12.7329 15.3446 12.6107 15.5746 12.3664C15.8046 12.1221 15.9196 11.8204 15.9196 11.4614C15.9196 11.1023 15.8046 10.7991 15.5746 10.5519C15.3446 10.3046 15.0606 10.181 14.7225 10.181C14.39 10.181 14.1074 10.3046 13.8746 10.5519C13.6418 10.7991 13.5255 11.1023 13.5255 11.4614C13.5255 11.8204 13.6418 12.1221 13.8746 12.3664C14.1074 12.6107 14.39 12.7329 14.7225 12.7329ZM0 16.5916C0 17.2803 0.131624 17.8808 0.394873 18.3929C0.658121 18.905 1.02806 19.3009 1.50468 19.5805C1.98129 19.8602 2.5355 20 3.16729 20C3.64946 20 4.11915 19.8882 4.57637 19.6645C5.03359 19.4408 5.43678 19.0993 5.78593 18.6402L7.2906 16.7064C7.40145 16.5651 7.51783 16.4621 7.63975 16.3973C7.76168 16.3326 7.8836 16.3002 8.00553 16.3002H15.9945C16.1164 16.3002 16.2383 16.3326 16.3603 16.3973C16.4822 16.4621 16.5985 16.5651 16.7094 16.7064L18.2141 18.6402C18.5632 19.0993 18.9664 19.4408 19.4236 19.6645C19.8808 19.8882 20.3505 20 20.8327 20C21.4645 20 22.0187 19.8602 22.4953 19.5805C22.9719 19.3009 23.3418 18.905 23.6051 18.3929C23.8684 17.8808 24 17.2803 24 16.5916C24 16.1501 23.9543 15.6762 23.8628 15.17C23.7714 14.6637 23.6453 14.1251 23.4846 13.5541C23.3183 12.9478 23.1132 12.2884 22.8694 11.5761C22.6255 10.8639 22.3636 10.1442 22.0838 9.41721C21.8039 8.69021 21.5227 8.00882 21.24 7.37306C21.0017 6.84326 20.7772 6.40176 20.5667 6.04856C20.3561 5.69536 20.0887 5.40691 19.7645 5.18322C19.4402 4.95953 18.9844 4.77704 18.3969 4.63576C17.6155 4.44739 16.6872 4.29433 15.612 4.1766C14.5368 4.05887 13.3342 4 12.0042 4C10.674 4 9.47002 4.05887 8.39209 4.1766C7.31416 4.29433 6.38447 4.44739 5.60304 4.63576C5.01558 4.77704 4.55975 4.95953 4.23554 5.18322C3.91132 5.40691 3.64392 5.69536 3.43331 6.04856C3.22272 6.40176 2.99826 6.84326 2.75996 7.37306C2.47731 8.00882 2.19605 8.69021 1.91618 9.41721C1.6363 10.1442 1.37443 10.8639 1.13058 11.5761C0.886731 12.2884 0.681676 12.9478 0.515413 13.5541C0.354693 14.1251 0.228611 14.6637 0.137167 15.17C0.0457222 15.6762 0 16.1501 0 16.5916ZM1.27191 16.6445C1.27191 16.3679 1.30239 16.053 1.36335 15.6997C1.42431 15.3466 1.5213 14.9316 1.65431 14.4548C1.84274 13.7778 2.0672 13.0522 2.32768 12.2781C2.58815 11.504 2.86526 10.7344 3.15899 9.96909C3.45272 9.20382 3.73813 8.49448 4.01524 7.84105C4.14824 7.52906 4.2771 7.25533 4.4018 7.01986C4.52649 6.78439 4.6886 6.58719 4.88811 6.42825C5.08763 6.26931 5.3675 6.14569 5.72774 6.0574C6.48146 5.86902 7.38759 5.71597 8.44613 5.59823C9.50466 5.4805 10.6907 5.42163 12.0042 5.42163C13.3121 5.42163 14.4953 5.4805 15.5539 5.59823C16.6124 5.71597 17.5185 5.86902 18.2722 6.0574C18.6324 6.14569 18.911 6.26931 19.1077 6.42825C19.3045 6.58719 19.4652 6.78439 19.5899 7.01986C19.7145 7.25533 19.8462 7.52906 19.9848 7.84105C20.2729 8.49448 20.5611 9.20382 20.8493 9.96909C21.1375 10.7344 21.4104 11.504 21.6681 12.2781C21.9258 13.0522 22.1517 13.7778 22.3457 14.4548C22.4787 14.9316 22.5757 15.3466 22.6366 15.6997C22.6976 16.053 22.728 16.3679 22.728 16.6445C22.728 17.2568 22.5493 17.741 22.1918 18.0971C21.8344 18.4533 21.3869 18.6313 20.8493 18.6313C20.2064 18.6313 19.63 18.3046 19.1201 17.6512L17.5573 15.6468C17.3578 15.3877 17.1527 15.195 16.9421 15.0684C16.7315 14.9419 16.435 14.8786 16.0526 14.8786H7.94734C7.56494 14.8786 7.26844 14.9419 7.05784 15.0684C6.84724 15.195 6.64218 15.3877 6.44267 15.6468L4.8798 17.6512C4.63594 17.9632 4.36577 18.2045 4.06927 18.3753C3.77277 18.546 3.46657 18.6313 3.15067 18.6313C2.61309 18.6313 2.16557 18.4533 1.8081 18.0971C1.45064 17.741 1.27191 17.2568 1.27191 16.6445Z" fill="black" fill-opacity="0.8"/>
</svg>
