<svg width="24" height="24" viewBox="0 0 24 24" fill="none" xmlns="http://www.w3.org/2000/svg">
<path d="M11.9902 17.9607C12.4281 17.9607 12.7974 17.8072 13.098 17.5C13.3987 17.1928 13.549 16.8235 13.549 16.3921C13.549 16.0784 13.464 15.7941 13.2941 15.5392C13.1242 15.2843 12.9052 15.098 12.6372 14.9804V10.3922C12.6372 10.2026 12.5735 10.0441 12.4461 9.91665C12.3186 9.7892 12.1666 9.72548 11.9902 9.72548C11.8203 9.72548 11.6716 9.7892 11.5441 9.91665C11.4167 10.0441 11.3529 10.2026 11.3529 10.3922V14.9804C11.0784 15.098 10.8562 15.2843 10.6863 15.5392C10.5163 15.7941 10.4314 16.0784 10.4314 16.3921C10.4314 16.8235 10.5833 17.1928 10.8872 17.5C11.1912 17.8072 11.5588 17.9607 11.9902 17.9607ZM7.10784 10.5C7.37581 10.5 7.60293 10.4052 7.78921 10.2157C7.97548 10.0261 8.06862 9.80064 8.06862 9.53921C8.06862 9.27124 7.97548 9.04248 7.78921 8.85293C7.60293 8.66339 7.37581 8.56862 7.10784 8.56862C6.83986 8.56862 6.61274 8.66339 6.42647 8.85293C6.24019 9.04248 6.14705 9.27124 6.14705 9.53921C6.14705 9.80064 6.24019 10.0261 6.42647 10.2157C6.61274 10.4052 6.83986 10.5 7.10784 10.5ZM9.03921 8.43136C9.30718 8.43136 9.53431 8.33659 9.72058 8.14705C9.90685 7.95751 9.99999 7.72875 9.99999 7.46077C9.99999 7.19934 9.90685 6.97385 9.72058 6.7843C9.53431 6.59476 9.30718 6.49999 9.03921 6.49999C8.77777 6.49999 8.55228 6.59476 8.36274 6.7843C8.1732 6.97385 8.07843 7.19934 8.07843 7.46077C8.07843 7.72875 8.1732 7.95751 8.36274 8.14705C8.55228 8.33659 8.77777 8.43136 9.03921 8.43136ZM11.9902 7.55882C12.2582 7.55882 12.4853 7.46405 12.6716 7.27451C12.8578 7.08496 12.951 6.85947 12.951 6.59804C12.951 6.33006 12.8578 6.10294 12.6716 5.91666C12.4853 5.73039 12.2582 5.63725 11.9902 5.63725C11.7287 5.63725 11.5033 5.73039 11.3137 5.91666C11.1242 6.10294 11.0294 6.33006 11.0294 6.59804C11.0294 6.85947 11.1242 7.08496 11.3137 7.27451C11.5033 7.46405 11.7287 7.55882 11.9902 7.55882ZM14.8137 8.43136C15.0817 8.43136 15.3088 8.33496 15.4951 8.14214C15.6814 7.94934 15.7745 7.72222 15.7745 7.46077C15.7745 7.1928 15.6814 6.96404 15.4951 6.7745C15.3088 6.58496 15.0817 6.49019 14.8137 6.49019C14.5458 6.49019 14.3186 6.58496 14.1324 6.7745C13.946 6.96404 13.8529 7.1928 13.8529 7.46077C13.8529 7.72222 13.946 7.94934 14.1324 8.14214C14.3186 8.33496 14.5458 8.43136 14.8137 8.43136ZM16.7451 10.5098C17.0131 10.5098 17.2402 10.415 17.4264 10.2255C17.6127 10.0359 17.7058 9.81045 17.7058 9.54901C17.7058 9.28104 17.6127 9.05228 17.4264 8.86274C17.2402 8.67319 17.0131 8.57842 16.7451 8.57842C16.4837 8.57842 16.2582 8.67319 16.0686 8.86274C15.8791 9.05228 15.7843 9.28104 15.7843 9.54901C15.7843 9.81045 15.8791 10.0359 16.0686 10.2255C16.2582 10.415 16.4837 10.5098 16.7451 10.5098ZM12 22C13.366 22 14.652 21.7385 15.8578 21.2156C17.0637 20.6928 18.1274 19.9706 19.049 19.049C19.9706 18.1274 20.6928 17.0637 21.2156 15.8578C21.7385 14.652 22 13.366 22 12C22 10.634 21.7385 9.34803 21.2156 8.14214C20.6928 6.93627 19.9706 5.87255 19.049 4.95097C18.1274 4.02941 17.0621 3.30719 15.8529 2.78431C14.6438 2.26144 13.3562 2 11.9902 2C10.6242 2 9.33823 2.26144 8.13235 2.78431C6.92646 3.30719 5.86437 4.02941 4.94607 4.95097C4.02778 5.87255 3.30719 6.93627 2.78431 8.14214C2.26144 9.34803 2 10.634 2 12C2 13.366 2.26144 14.652 2.78431 15.8578C3.30719 17.0637 4.02941 18.1274 4.95097 19.049C5.87255 19.9706 6.93627 20.6928 8.14214 21.2156C9.34803 21.7385 10.634 22 12 22ZM12 20.3333C10.8431 20.3333 9.76143 20.1176 8.7549 19.6863C7.74836 19.2549 6.86437 18.6585 6.10293 17.8971C5.3415 17.1356 4.74673 16.2517 4.31862 15.2451C3.89052 14.2386 3.67647 13.1569 3.67647 12C3.67647 10.8431 3.89052 9.76143 4.31862 8.7549C4.74673 7.74836 5.33987 6.86274 6.09803 6.09803C6.8562 5.33333 7.73855 4.73692 8.74509 4.30882C9.75163 3.88072 10.8333 3.66667 11.9902 3.66667C13.1471 3.66667 14.2288 3.88072 15.2353 4.30882C16.2418 4.73692 17.1274 5.33333 17.8922 6.09803C18.6569 6.86274 19.2549 7.74836 19.6863 8.7549C20.1176 9.76143 20.3333 10.8431 20.3333 12C20.3333 13.1569 20.1193 14.2386 19.6912 15.2451C19.263 16.2517 18.6683 17.1356 17.9068 17.8971C17.1454 18.6585 16.2598 19.2549 15.2499 19.6863C14.2402 20.1176 13.1569 20.3333 12 20.3333Z" fill="black" fill-opacity="0.8"/>
</svg>
