<svg width="24" height="24" viewBox="0 0 24 24" fill="none" xmlns="http://www.w3.org/2000/svg">
<path d="M7.08112 22H16.9189C17.7987 22 18.4742 21.7678 18.9454 21.3034C19.4165 20.839 19.6521 20.1552 19.6521 19.2518V13.3931H19.7176C20.1295 13.304 20.4461 13.0973 20.6677 12.7729C20.8892 12.4484 21 12.0445 21 11.561V9.05151C21 8.47263 20.8471 8.01143 20.5414 7.66792C20.2356 7.32442 19.7956 7.15266 19.2215 7.15266H17.3308C17.5804 6.90457 17.7738 6.61036 17.911 6.27003C18.0484 5.9297 18.117 5.56234 18.117 5.16793C18.117 4.55088 17.9719 4.00381 17.6818 3.52671C17.3916 3.04962 17.0016 2.67589 16.5117 2.40553C16.0219 2.13518 15.4743 2 14.8689 2C14.2137 2 13.6302 2.17494 13.1185 2.52481C12.6068 2.87468 12.2324 3.37086 11.9953 4.01336C11.7582 3.37086 11.3853 2.87468 10.8767 2.52481C10.3682 2.17494 9.78315 2 9.12169 2C8.51638 2 7.9688 2.13518 7.47894 2.40553C6.98908 2.67589 6.59906 3.04962 6.30889 3.52671C6.01872 4.00381 5.87364 4.55088 5.87364 5.16793C5.87364 5.56234 5.94384 5.9297 6.08424 6.27003C6.22465 6.61036 6.41965 6.90457 6.66926 7.15266H4.77847C4.22933 7.15266 3.79563 7.32442 3.47738 7.66792C3.15913 8.01143 3 8.47263 3 9.05151V11.561C3 12.0445 3.1092 12.4484 3.32761 12.7729C3.54602 13.0973 3.86115 13.304 4.27301 13.3931H4.33853V19.2518C4.33853 20.1552 4.5741 20.839 5.04524 21.3034C5.51638 21.7678 6.195 22 7.08112 22ZM11.1622 20.5687H7.0624C6.6755 20.5687 6.37597 20.4605 6.1638 20.2443C5.95164 20.0279 5.84555 19.7226 5.84555 19.3282V13.4599H11.1622V20.5687ZM12.8284 20.5687V13.4599H18.1451V19.3282C18.1451 19.7226 18.0406 20.0279 17.8315 20.2443C17.6225 20.4605 17.3214 20.5687 16.9282 20.5687H12.8284ZM11.1622 12.0191H5.16225C4.92512 12.0191 4.75663 11.9666 4.65679 11.8616C4.55695 11.7567 4.50702 11.5833 4.50702 11.3416V9.26143C4.50702 9.0197 4.55695 8.84795 4.65679 8.74617C4.75663 8.64439 4.92512 8.5935 5.16225 8.5935H11.1622V12.0191ZM12.8284 12.0191V8.5935H18.8471C19.078 8.5935 19.2434 8.64439 19.3432 8.74617C19.443 8.84795 19.4929 9.0197 19.4929 9.26143V11.3416C19.4929 11.5833 19.443 11.7567 19.3432 11.8616C19.2434 11.9666 19.078 12.0191 18.8471 12.0191H12.8284ZM11.2278 7.15266H9.76755C9.0312 7.15266 8.45865 6.96818 8.04992 6.59922C7.64119 6.23027 7.43682 5.78179 7.43682 5.25381C7.43682 4.72582 7.60531 4.31711 7.94228 4.02767C8.27925 3.73823 8.70359 3.59351 9.21529 3.59351C9.77691 3.59351 10.2527 3.79548 10.6427 4.19943C11.0328 4.60336 11.2278 5.15839 11.2278 5.8645V7.15266ZM12.7628 7.15266V5.8645C12.7628 5.15839 12.9594 4.60336 13.3526 4.19943C13.7457 3.79548 14.22 3.59351 14.7754 3.59351C15.2933 3.59351 15.7192 3.73823 16.0531 4.02767C16.3869 4.31711 16.5538 4.72582 16.5538 5.25381C16.5538 5.78179 16.3494 6.23027 15.9407 6.59922C15.532 6.96818 14.9594 7.15266 14.2231 7.15266H12.7628Z" fill="#FF3B30"/>
</svg>
