<svg width="24" height="24" viewBox="0 0 24 24" fill="none" xmlns="http://www.w3.org/2000/svg">
<path d="M4.33992 19.5763C4.33992 20.3715 4.55856 20.9742 4.99583 21.3845C5.4331 21.7948 6.04216 22 6.82301 22H11.227V13.4313H4.33992V19.5763ZM12.7637 22H17.177C17.9578 22 18.5669 21.7948 19.0041 21.3845C19.4414 20.9742 19.6601 20.3715 19.6601 19.5763V13.4313H12.7637V22ZM3 10.9885C3 11.4974 3.13587 11.8616 3.4076 12.0811C3.67933 12.3006 4.06819 12.4103 4.57417 12.4103H11.227V7.24808H9.76521C9.0281 7.24808 8.45496 7.0477 8.0458 6.64694C7.63664 6.24617 7.43206 5.78179 7.43206 5.25381C7.43206 4.72582 7.60072 4.31711 7.93804 4.02767C8.27537 3.73823 8.70015 3.59351 9.21238 3.59351C9.77459 3.59351 10.2509 3.79548 10.6413 4.19943C11.0317 4.60336 11.227 5.15839 11.227 5.8645V7.24808H12.7637V5.8645C12.7637 5.15839 12.9604 4.60336 13.3539 4.19943C13.7475 3.79548 14.2222 3.59351 14.7782 3.59351C15.2967 3.59351 15.723 3.73823 16.0572 4.02767C16.3915 4.31711 16.5586 4.72582 16.5586 5.25381C16.5586 5.78179 16.354 6.24617 15.9448 6.64694C15.5357 7.0477 14.9625 7.24808 14.2254 7.24808H12.7637V12.4103H19.4258C19.9318 12.4103 20.3207 12.3006 20.5924 12.0811C20.8641 11.8616 21 11.4974 21 10.9885V8.66983C21 8.16092 20.8641 7.79674 20.5924 7.57728C20.3207 7.35781 19.9318 7.24808 19.4258 7.24808H17.2519C17.5268 6.98726 17.7407 6.68033 17.8938 6.32728C18.0468 5.97423 18.1233 5.58778 18.1233 5.16793C18.1233 4.55088 17.9781 4.00381 17.6876 3.52671C17.3971 3.04962 17.0067 2.67589 16.5164 2.40553C16.026 2.13518 15.4778 2 14.8719 2C14.216 2 13.632 2.17494 13.1197 2.52481C12.6075 2.87468 12.2327 3.37086 11.9953 4.01336C11.7579 3.37086 11.3847 2.87468 10.8756 2.52481C10.3665 2.17494 9.78083 2 9.11867 2C8.51274 2 7.9646 2.13518 7.47423 2.40553C6.98385 2.67589 6.59343 3.04962 6.30296 3.52671C6.01249 4.00381 5.86725 4.55088 5.86725 5.16793C5.86725 5.58778 5.94533 5.97423 6.1015 6.32728C6.25767 6.68033 6.47318 6.98726 6.74804 7.24808H4.57417C4.09318 7.24808 3.71057 7.35781 3.42634 7.57728C3.14211 7.79674 3 8.16092 3 8.66983V10.9885Z" fill="#FF3B30"/>
</svg>
