<svg width="24" height="24" viewBox="0 0 24 24" fill="none" xmlns="http://www.w3.org/2000/svg">
<g clip-path="url(#clip0_18_120)">
<path d="M23.1501 5.10431L14.3928 0.655926C13.9336 0.424237 13.5117 0.255436 13.1271 0.149522C12.7425 0.0436078 12.3653 -0.00603799 11.9955 0.000584591C11.6317 -0.00603799 11.256 0.0436078 10.8684 0.149522C10.4808 0.255436 10.0574 0.424237 9.59819 0.655926L0.849794 5.10431C0.563547 5.24332 0.350353 5.43199 0.210212 5.67032C0.0700707 5.90858 0 6.15349 0 6.40504C0 6.66323 0.0700707 6.90817 0.210212 7.13986C0.350353 7.37155 0.563547 7.56019 0.849794 7.7058L4.53521 9.57259L10.1975 6.62354C10.1498 6.55732 10.126 6.48448 10.126 6.40504C10.126 6.19321 10.2184 6.00456 10.4032 5.8391C10.5882 5.67357 10.8267 5.54281 11.1189 5.44683C11.4111 5.35087 11.7152 5.3029 12.0313 5.3029C12.3533 5.3029 12.6589 5.35087 12.9481 5.44683C13.2374 5.54281 13.473 5.67357 13.6548 5.8391C13.8367 6.00456 13.9277 6.19321 13.9277 6.40504C13.9277 6.62351 13.8367 6.81714 13.6548 6.98592C13.473 7.15471 13.2374 7.28875 12.9481 7.38805C12.6589 7.48736 12.3533 7.53701 12.0313 7.53701C11.7272 7.53701 11.4439 7.494 11.1815 7.40798L5.7786 10.2179L9.59819 12.1641C10.0633 12.3958 10.4882 12.5646 10.8729 12.6705C11.2575 12.7764 11.6317 12.8261 11.9955 12.8195C12.3653 12.8261 12.7425 12.7764 13.1271 12.6705C13.5117 12.5646 13.9336 12.3958 14.3928 12.1641L23.1501 7.7058C23.4364 7.56019 23.6496 7.37155 23.7898 7.13986C23.9299 6.90817 24 6.66323 24 6.40504C24 6.15349 23.9299 5.90858 23.7898 5.67032C23.6496 5.43199 23.4364 5.24332 23.1501 5.10431ZM5.74282 11.6875V17.7246C6.49422 18.2343 7.39917 18.6332 8.45769 18.9211C9.51621 19.2091 10.6955 19.353 11.9955 19.353C13.3134 19.353 14.5061 19.2091 15.5736 18.9211C16.6411 18.6332 17.5535 18.236 18.3108 17.7296C19.0682 17.2232 19.6511 16.639 20.0596 15.977C20.4681 15.3151 20.6724 14.6134 20.6724 13.872V10.4563L14.9027 13.3855C13.8472 13.9217 12.8781 14.1864 11.9955 14.1798C11.1189 14.1864 10.1498 13.9217 9.08833 13.3855L5.74282 11.6875ZM3.32761 10.4563V13.872C3.32761 14.3022 3.43496 14.7706 3.64965 15.277C3.86433 15.7834 4.17443 16.265 4.57994 16.7217V11.1017L3.32761 10.4563ZM4.57994 20.0283H5.74282V17.7246C5.52217 17.5723 5.31345 17.4135 5.11666 17.248C4.91986 17.0825 4.74096 16.9071 4.57994 16.7217V20.0283ZM3.87328 20.0977V22.7092C3.87328 23.0998 3.97913 23.4125 4.19083 23.6475C4.40253 23.8825 4.68431 24 5.03615 24H5.27767C5.62951 24 5.91129 23.8825 6.12299 23.6475C6.33469 23.4125 6.44054 23.0998 6.44054 22.7092V20.0977C6.44054 19.7072 6.33469 19.3945 6.12299 19.1594C5.91129 18.9244 5.62951 18.8069 5.27767 18.8069H5.03615C4.68431 18.8069 4.40253 18.9244 4.19083 19.1594C3.97913 19.3945 3.87328 19.7072 3.87328 20.0977Z" fill="black" fill-opacity="0.8"/>
</g>
<defs>
<clipPath id="clip0_18_120">
<rect width="24" height="24" fill="white"/>
</clipPath>
</defs>
</svg>
