<svg width="24" height="24" viewBox="0 0 24 24" fill="none" xmlns="http://www.w3.org/2000/svg">
<g clip-path="url(#clip0_18_119)">
<path d="M11.9956 13.1225C12.3722 13.1291 12.7562 13.0766 13.1475 12.965C13.5388 12.8534 13.9699 12.6795 14.4407 12.4433L23.135 8.01346C23.4233 7.86911 23.6396 7.66404 23.7838 7.39826C23.9279 7.13248 24 6.85192 24 6.55657C24 6.26781 23.9279 5.99053 23.7838 5.72475C23.6396 5.45899 23.4233 5.25392 23.135 5.10954L14.4407 0.679778C13.9699 0.443526 13.5388 0.269616 13.1475 0.158049C12.7562 0.0464883 12.3722 -0.00601254 11.9956 0.000546289C11.619 -0.00601254 11.235 0.0464883 10.8437 0.158049C10.4524 0.269616 10.0214 0.443526 9.55058 0.679778L0.865025 5.10954C0.576684 5.25392 0.360427 5.45899 0.216256 5.72475C0.0720855 5.99053 0 6.26781 0 6.55657C0 6.85192 0.0720855 7.13248 0.216256 7.39826C0.360427 7.66404 0.576684 7.86911 0.865025 8.01346L9.55058 12.4433C10.0214 12.6795 10.4524 12.8534 10.8437 12.965C11.235 13.0766 11.619 13.1291 11.9956 13.1225ZM11.9956 11.5671C11.7014 11.5671 11.4042 11.5228 11.1041 11.4343C10.804 11.3457 10.4656 11.2062 10.089 11.0159L1.95955 6.89133C1.80655 6.81257 1.73005 6.70098 1.73005 6.55657C1.73005 6.41874 1.80655 6.31048 1.95955 6.23179L10.089 2.10715C10.4656 1.91683 10.804 1.77737 11.1041 1.68878C11.4042 1.60019 11.7014 1.55589 11.9956 1.55589C12.2899 1.55589 12.5885 1.60019 12.8915 1.68878C13.1946 1.77737 13.5344 1.91683 13.911 2.10715L22.0405 6.23179C22.1935 6.31048 22.27 6.41874 22.27 6.55657C22.27 6.70098 22.1935 6.81257 22.0405 6.89133L13.911 11.0159C13.5344 11.2062 13.1946 11.3457 12.8915 11.4343C12.5885 11.5228 12.2899 11.5671 11.9956 11.5671ZM3.44244 13.9592C3.44244 14.6942 3.64252 15.3899 4.04267 16.0461C4.44282 16.7024 5.01803 17.2816 5.76831 17.7836C6.51858 18.2856 7.41891 18.6794 8.4693 18.9649C9.5197 19.2503 10.6951 19.3931 11.9956 19.3931C13.2961 19.3931 14.473 19.2503 15.5263 18.9649C16.5796 18.6794 17.48 18.2856 18.2273 17.7836C18.9746 17.2816 19.5498 16.7024 19.953 16.0461C20.356 15.3899 20.5575 14.6942 20.5575 13.9592V8.76161H19.1365V13.9592C19.1365 14.4711 18.9688 14.9633 18.6333 15.4358C18.2979 15.9083 17.8183 16.3299 17.1945 16.7007C16.5708 17.0716 15.8206 17.3652 14.9437 17.5818C14.0669 17.7983 13.0842 17.9066 11.9956 17.9066C10.9128 17.9066 9.93159 17.7983 9.05183 17.5818C8.17212 17.3652 7.42039 17.0716 6.79662 16.7007C6.17287 16.3299 5.69475 15.9083 5.36228 15.4358C5.0298 14.9633 4.86356 14.4711 4.86356 13.9592V8.76161H3.44244V13.9592ZM12.0309 7.67879C12.3487 7.67879 12.6503 7.62957 12.9356 7.53112C13.2211 7.43267 13.4535 7.29978 13.633 7.13245C13.8125 6.96512 13.9022 6.77316 13.9022 6.55657C13.9022 6.34657 13.8125 6.15954 13.633 5.99551C13.4535 5.8314 13.2211 5.70177 12.9356 5.60661C12.6503 5.51148 12.3487 5.46392 12.0309 5.46392C11.719 5.46392 11.419 5.51148 11.1306 5.60661C10.8422 5.70177 10.6068 5.8314 10.4244 5.99551C10.242 6.15954 10.1508 6.34657 10.1508 6.55657C10.1508 6.77316 10.242 6.96512 10.4244 7.13245C10.6068 7.29978 10.8422 7.43267 11.1306 7.53112C11.419 7.62957 11.719 7.67879 12.0309 7.67879ZM6.66423 10.2776L11.8985 7.18658L11.4131 6.17272L5.51675 9.59836L6.66423 10.2776ZM5.51675 19.9345H6.66423V10.2776L5.51675 9.64755V19.9345ZM4.81942 20.1313V22.7203C4.81942 23.1075 4.92387 23.4176 5.13278 23.6505C5.34168 23.8835 5.61972 24 5.96691 24H6.20523C6.55242 24 6.83046 23.8835 7.03937 23.6505C7.24827 23.4176 7.35272 23.1075 7.35272 22.7203V20.1313C7.35272 19.7442 7.24827 19.4341 7.03937 19.2011C6.83046 18.9681 6.55242 18.8517 6.20523 18.8517H5.96691C5.61972 18.8517 5.34168 18.9681 5.13278 19.2011C4.92387 19.4341 4.81942 19.7442 4.81942 20.1313Z" fill="black" fill-opacity="0.8"/>
</g>
<defs>
<clipPath id="clip0_18_119">
<rect width="24" height="24" fill="white"/>
</clipPath>
</defs>
</svg>
