<svg width="24" height="24" viewBox="0 0 24 24" fill="none" xmlns="http://www.w3.org/2000/svg">
<path d="M2 20.2309C2 20.4646 2.06822 20.6512 2.20465 20.7908C2.34109 20.9303 2.52093 21 2.74419 21H21.2465C21.4511 21 21.6279 20.9254 21.7767 20.7761C21.9256 20.6268 22 20.4419 22 20.2212C22 20.0071 21.9256 19.8237 21.7767 19.6712C21.6279 19.5187 21.4511 19.4424 21.2465 19.4424H3.75814C3.5845 19.4424 3.49768 19.3516 3.49768 19.1699V3.7788C3.49768 3.57112 3.42481 3.3894 3.27907 3.23364C3.13333 3.07788 2.95814 3 2.75349 3C2.54264 3 2.36434 3.07788 2.2186 3.23364C2.07287 3.3894 2 3.57112 2 3.7788V20.2309ZM2.97674 14.1758L8.95814 10.5544L13.2651 14.4192L20.9209 9.64901L20.3348 8.65604L13.3395 13.0173L9.05116 9.17199L2.97674 12.8421V14.1758ZM8.8372 11.8686C9.14108 11.8686 9.4186 11.7907 9.66977 11.635C9.92093 11.4792 10.1209 11.2699 10.2698 11.007C10.4186 10.7442 10.493 10.4538 10.493 10.1358C10.493 9.81775 10.4186 9.52733 10.2698 9.26448C10.1209 9.00163 9.92093 8.79395 9.66977 8.64144C9.4186 8.48893 9.14108 8.41267 8.8372 8.41267C8.53333 8.41267 8.25581 8.48893 8.00465 8.64144C7.75348 8.79395 7.55349 9.00163 7.40465 9.26448C7.25581 9.52733 7.18139 9.81775 7.18139 10.1358C7.18139 10.4538 7.25581 10.7442 7.40465 11.007C7.55349 11.2699 7.75348 11.4792 8.00465 11.635C8.25581 11.7907 8.53333 11.8686 8.8372 11.8686ZM13.2279 15.4414C13.5318 15.4414 13.8093 15.3635 14.0604 15.2077C14.3116 15.0519 14.51 14.8426 14.6558 14.5798C14.8015 14.317 14.8744 14.0265 14.8744 13.7085C14.8744 13.3905 14.8015 13.1001 14.6558 12.8372C14.51 12.5744 14.3116 12.3667 14.0604 12.2142C13.8093 12.0617 13.5318 11.9854 13.2279 11.9854C12.924 11.9854 12.6465 12.0617 12.3954 12.2142C12.1442 12.3667 11.9442 12.5744 11.7953 12.8372C11.6465 13.1001 11.5721 13.3905 11.5721 13.7085C11.5721 14.0265 11.6465 14.317 11.7953 14.5798C11.9442 14.8426 12.1442 15.0519 12.3954 15.2077C12.6465 15.3635 12.924 15.4414 13.2279 15.4414ZM20.2419 11.0119C20.5457 11.0119 20.8232 10.934 21.0744 10.7783C21.3256 10.6225 21.5256 10.4132 21.6744 10.1504C21.8233 9.88752 21.8977 9.59709 21.8977 9.27908C21.8977 8.96107 21.8233 8.67064 21.6744 8.40779C21.5256 8.14495 21.3256 7.93565 21.0744 7.77989C20.8232 7.62413 20.5457 7.54624 20.2419 7.54624C19.938 7.54624 19.6605 7.62413 19.4093 7.77989C19.1582 7.93565 18.9582 8.14495 18.8093 8.40779C18.6605 8.67064 18.586 8.96107 18.586 9.27908C18.586 9.59709 18.6605 9.88752 18.8093 10.1504C18.9582 10.4132 19.1582 10.6225 19.4093 10.7783C19.6605 10.934 19.938 11.0119 20.2419 11.0119Z" fill="black" fill-opacity="0.8"/>
</svg>
