<svg width="24" height="24" viewBox="0 0 24 24" fill="none" xmlns="http://www.w3.org/2000/svg">
<path d="M0.138299 20.2916C0.0256109 20.5496 -0.0182122 20.8076 0.00682957 21.0656C0.0318714 21.3236 0.132038 21.5391 0.307331 21.7122C0.482623 21.8852 0.736172 21.9717 1.06798 21.9717C1.25579 21.9717 1.43421 21.9292 1.60324 21.8443C1.77227 21.7594 1.96948 21.6256 2.19485 21.4431L4.76789 19.2817C4.86806 19.2 4.94631 19.1591 5.00266 19.1591C5.05901 19.1591 5.13727 19.2 5.23743 19.2817L7.81047 21.4431C8.02959 21.6256 8.22522 21.7594 8.39739 21.8443C8.56955 21.9292 8.74954 21.9717 8.93735 21.9717C9.26915 21.9717 9.52269 21.8852 9.69797 21.7122C9.8733 21.5391 9.97347 21.3236 9.99847 21.0656C10.0235 20.8076 9.97972 20.5496 9.86702 20.2916L5.71635 10.8627V6.48325C5.71635 5.76593 5.74609 5.12097 5.80557 4.54837C5.86504 3.97578 5.92451 3.50386 5.98398 3.13261C6.04346 2.76137 6.0732 2.52541 6.0732 2.42473C6.0732 2.29259 6.03564 2.18877 5.96051 2.11326C5.88539 2.03775 5.78522 2 5.66001 2C5.51602 2 5.3376 2.11641 5.12474 2.34922L3.05879 4.73714C2.97115 4.83782 2.93672 4.94007 2.9555 5.0439C2.97428 5.14772 3.03689 5.22794 3.14331 5.28457C3.56276 5.46076 3.857 5.61806 4.02603 5.75649C4.19506 5.89492 4.27958 6.13717 4.27958 6.48325V10.8532L0.138299 20.2916ZM7.16252 18.5739C7.03731 18.5739 6.92932 18.5283 6.83853 18.437C6.74776 18.3458 6.70237 18.2341 6.70237 18.1019C6.70237 17.9761 6.74933 17.8644 6.84324 17.7669C6.93714 17.6694 7.04357 17.6206 7.16252 17.6206C7.29399 17.6206 7.40667 17.6694 7.50058 17.7669C7.59449 17.8644 7.64144 17.9761 7.64144 18.1019C7.64144 18.2278 7.59292 18.3379 7.49589 18.4323C7.39885 18.5267 7.28772 18.5739 7.16252 18.5739ZM6.65542 17.3563C6.53021 17.3563 6.42065 17.3107 6.32675 17.2194C6.23284 17.1282 6.18588 17.0165 6.18588 16.8844C6.18588 16.7585 6.23284 16.6468 6.32675 16.5494C6.42065 16.4518 6.53021 16.403 6.65542 16.403C6.78689 16.403 6.89958 16.4502 6.99349 16.5446C7.08739 16.639 7.13434 16.7523 7.13434 16.8844C7.13434 17.0103 7.08739 17.1204 6.99349 17.2147C6.89958 17.3091 6.78689 17.3563 6.65542 17.3563ZM6.14832 16.1293C6.02312 16.1293 5.91356 16.0837 5.81965 15.9925C5.72574 15.9012 5.67879 15.7927 5.67879 15.6669C5.67879 15.541 5.72574 15.4277 5.81965 15.327C5.91356 15.2264 6.02312 15.1761 6.14832 15.1761C6.27353 15.1761 6.38309 15.2248 6.477 15.3223C6.5709 15.4198 6.61786 15.5347 6.61786 15.6669C6.61786 15.7927 6.5709 15.9012 6.477 15.9925C6.38309 16.0837 6.27353 16.1293 6.14832 16.1293ZM12.4777 22C13.3103 22 14.0412 21.8443 14.6703 21.5328C15.2995 21.2213 15.7879 20.7856 16.1353 20.2256C16.4828 19.6656 16.6565 19.008 16.6565 18.253C16.6565 17.7873 16.597 17.3783 16.478 17.0259C16.3591 16.6736 16.223 16.3685 16.0696 16.1105C15.9161 15.8525 15.7816 15.6259 15.6658 15.4308C15.5499 15.2358 15.492 15.0596 15.492 14.9024C15.492 14.6569 15.5452 14.4209 15.6516 14.1944C15.7581 13.9679 15.8645 13.7288 15.971 13.4772C16.0774 13.2254 16.1306 12.9423 16.1306 12.6277C16.1306 12.2879 16.0305 12.0094 15.8301 11.7924C15.6298 11.5753 15.3731 11.4667 15.0601 11.4667C14.7721 11.4667 14.5373 11.5391 14.3558 11.6838C14.1742 11.8285 14.024 11.9859 13.905 12.1558C13.8111 12.2879 13.7266 12.398 13.6515 12.4861C13.5764 12.5742 13.5075 12.6182 13.4449 12.6182C13.3635 12.6182 13.304 12.5773 13.2665 12.4955C13.2289 12.4137 13.2038 12.3115 13.1913 12.1888C13.1788 12.0661 13.1725 11.9512 13.1725 11.8443L13.182 6.04909C13.182 5.90437 13.1913 5.81155 13.2101 5.77065C13.2289 5.72975 13.279 5.69671 13.3603 5.67155C13.4668 5.6338 13.5387 5.58346 13.5763 5.52053C13.6139 5.45761 13.6389 5.36008 13.6515 5.22794L13.8393 3.3025C13.8518 3.12632 13.7892 2.9753 13.6515 2.84946L12.8439 2.14158C12.7374 2.04719 12.6154 2 12.4777 2C12.3336 2 12.2084 2.04719 12.102 2.14158L11.2944 2.84946C11.1567 2.9753 11.0941 3.12632 11.1066 3.3025L11.2944 5.22794C11.3194 5.47334 11.4196 5.62121 11.5949 5.67155C11.6638 5.69043 11.7092 5.72189 11.7311 5.76593C11.753 5.80998 11.764 5.90437 11.764 6.04909L11.7827 11.8348C11.7827 11.9733 11.7749 12.1023 11.7593 12.2218C11.7436 12.3414 11.7154 12.4373 11.6747 12.5097C11.634 12.5821 11.5824 12.6182 11.5198 12.6182C11.4509 12.6182 11.3805 12.571 11.3085 12.4766C11.2365 12.3822 11.1473 12.2753 11.0408 12.1558C10.9219 11.9859 10.7732 11.8285 10.5948 11.6838C10.4164 11.5391 10.1863 11.4667 9.90462 11.4667C9.58531 11.4667 9.32549 11.5753 9.12516 11.7924C8.92483 12.0094 8.82466 12.2879 8.82466 12.6277C8.82466 12.9423 8.87787 13.2254 8.98431 13.4772C9.09074 13.7288 9.1956 13.9679 9.29889 14.1944C9.40219 14.4209 9.45384 14.6569 9.45384 14.9024C9.45384 15.0848 9.37715 15.2893 9.22376 15.5158C9.07039 15.7423 8.91231 16.0224 8.74954 16.3559L10.1769 19.6027C10.3146 19.9173 10.4132 20.1784 10.4727 20.386C10.5322 20.5937 10.562 20.8014 10.562 21.009C10.562 21.2229 10.5244 21.4243 10.4493 21.613C10.756 21.7389 11.0784 21.8348 11.4165 21.9009C11.7546 21.967 12.1083 22 12.4777 22ZM10.4117 18.0926C10.3115 18.0611 10.238 17.9934 10.191 17.8896C10.1441 17.7858 10.1362 17.6867 10.1675 17.5923L10.9752 15.3648C11.0127 15.2641 11.0815 15.1902 11.1817 15.143C11.2819 15.0958 11.382 15.0911 11.4822 15.1288C11.5824 15.1603 11.6575 15.228 11.7076 15.3318C11.7577 15.4356 11.7639 15.5378 11.7264 15.6385L10.9188 17.8565C10.8813 17.9572 10.8124 18.0312 10.7122 18.0784C10.612 18.1255 10.5119 18.1303 10.4117 18.0926ZM14.5436 18.0926C14.4372 18.1303 14.3354 18.1255 14.2384 18.0784C14.1413 18.0312 14.074 17.9572 14.0364 17.8565L13.2289 15.6385C13.1913 15.5378 13.1976 15.4356 13.2476 15.3318C13.2978 15.228 13.3698 15.1603 13.4636 15.1288C13.5701 15.0911 13.6718 15.0958 13.7688 15.143C13.8659 15.1902 13.9332 15.2641 13.9708 15.3648L14.7783 17.5923C14.8159 17.6867 14.8096 17.7858 14.7596 17.8896C14.7095 17.9934 14.6375 18.0611 14.5436 18.0926ZM19.8399 21.9434C21.1108 21.9434 22.1218 21.6618 22.8731 21.0986C23.6244 20.5355 24 19.7726 24 18.8098C24 18.3253 23.9374 17.9226 23.8122 17.6017C23.6869 17.2808 23.5414 17.0071 23.3755 16.7805C23.2096 16.5541 23.0625 16.3464 22.9342 16.1576C22.8058 15.9688 22.7416 15.7707 22.7416 15.563C22.7416 15.2421 22.7886 14.9275 22.8825 14.6192C22.9764 14.3109 23.0233 13.9616 23.0233 13.5715C23.0233 12.9297 22.8073 12.4137 22.3754 12.0236C21.9434 11.6335 21.333 11.3912 20.5442 11.2968V5.69986C20.5442 5.49851 20.563 5.35693 20.6005 5.27513C20.6381 5.19333 20.7132 5.11468 20.8259 5.03917C20.995 4.92591 21.0732 4.79692 21.0607 4.65219L20.9198 2.32091C20.9136 2.22652 20.8807 2.14944 20.8212 2.08967C20.7617 2.02989 20.6882 2 20.6005 2H19.0605C18.9791 2 18.9087 2.02989 18.8492 2.08967C18.7897 2.14944 18.7569 2.22652 18.7506 2.32091L18.6097 4.65219C18.5972 4.79692 18.6755 4.92591 18.8445 5.03917C18.9572 5.12097 19.0323 5.20277 19.0699 5.28457C19.1074 5.36637 19.1262 5.5048 19.1262 5.69986V11.2968C18.3374 11.3912 17.727 11.6335 17.295 12.0236C16.8631 12.4137 16.6471 12.9297 16.6471 13.5715C16.6471 13.9616 16.6941 14.3109 16.788 14.6192C16.8819 14.9275 16.9288 15.2421 16.9288 15.563C16.9288 15.6637 16.9116 15.7596 16.8771 15.8509C16.8427 15.9421 16.7973 16.0318 16.7409 16.1198C16.8724 16.403 16.9867 16.7239 17.0838 17.0826C17.1808 17.4413 17.2293 17.8314 17.2293 18.253C17.2293 18.7438 17.162 19.2015 17.0274 19.6263C16.8928 20.051 16.7003 20.4364 16.4499 20.7825C16.8068 21.1537 17.2732 21.44 17.8491 21.6413C18.425 21.8427 19.0886 21.9434 19.8399 21.9434ZM19.8399 16.3369C19.5457 16.3369 19.2953 16.2347 19.0887 16.0303C18.8821 15.8257 18.7788 15.5788 18.7788 15.2893C18.7788 14.9998 18.8821 14.7513 19.0887 14.5437C19.2953 14.336 19.5457 14.2322 19.8399 14.2322C20.1279 14.2322 20.3736 14.336 20.5771 14.5437C20.7806 14.7513 20.8823 14.9998 20.8823 15.2893C20.8823 15.5788 20.7806 15.8257 20.5771 16.0303C20.3736 16.2347 20.1279 16.3369 19.8399 16.3369ZM18.6003 18.9986C18.4814 18.9986 18.3797 18.9562 18.2952 18.8712C18.2106 18.7862 18.1684 18.6871 18.1684 18.5739C18.1684 18.4543 18.2106 18.3505 18.2952 18.2624C18.3797 18.1743 18.4814 18.1303 18.6003 18.1303H21.0607C21.1734 18.1303 21.272 18.1727 21.3566 18.2577C21.441 18.3427 21.4833 18.448 21.4833 18.5739C21.4833 18.6871 21.441 18.7862 21.3566 18.8712C21.272 18.9562 21.1734 18.9986 21.0607 18.9986H18.6003Z" fill="black" fill-opacity="0.8"/>
</svg>
