<svg width="24" height="24" viewBox="0 0 24 24" fill="none" xmlns="http://www.w3.org/2000/svg">
<path d="M0.140683 20.2417C0.0222131 20.505 -0.0214338 20.7698 0.00974264 21.0363C0.0409191 21.3027 0.146919 21.5252 0.327742 21.7038C0.508566 21.8825 0.76733 21.9718 1.10403 21.9718C1.29109 21.9718 1.47036 21.9326 1.64182 21.8543C1.8133 21.7759 2.0175 21.6365 2.25444 21.4359L4.81714 19.2826C4.91068 19.2074 4.97927 19.1698 5.02291 19.1698C5.06656 19.1698 5.13515 19.2074 5.22867 19.2826L7.79138 21.4359C8.03455 21.6365 8.24188 21.7759 8.41335 21.8543C8.58482 21.9326 8.76096 21.9718 8.94178 21.9718C9.27849 21.9718 9.53883 21.8825 9.72278 21.7038C9.90673 21.5252 10.0127 21.3027 10.0408 21.0363C10.0688 20.7698 10.0236 20.505 9.90514 20.2417L5.7805 10.867V6.50401C5.7805 5.78939 5.81011 5.14685 5.86935 4.5764C5.92859 4.00596 5.98782 3.53581 6.04705 3.16596C6.10629 2.79612 6.13591 2.56104 6.13591 2.46074C6.13591 2.32283 6.09538 2.21157 6.01432 2.12694C5.93326 2.04231 5.82726 2 5.69632 2C5.53421 2 5.34403 2.1191 5.12579 2.35731L3.06815 4.73626C2.97462 4.84282 2.93877 4.95409 2.96059 5.07006C2.98242 5.18603 3.05256 5.27849 3.17103 5.34744C3.58256 5.52296 3.87094 5.67655 4.03617 5.80819C4.20141 5.93983 4.28403 6.17177 4.28403 6.50401V10.8388L0.140683 20.2417ZM1.10403 20.6178L4.96679 11.7603H5.07903L8.94178 20.6178C8.99167 20.7369 8.98232 20.82 8.91373 20.867C8.84514 20.914 8.7672 20.8999 8.67991 20.8246L5.7992 18.4081C5.49367 18.1636 5.23491 18.0414 5.02291 18.0414C4.81091 18.0414 4.55215 18.1636 4.24662 18.4081L1.36592 20.8246C1.27862 20.8999 1.20068 20.914 1.1321 20.867C1.06351 20.82 1.05416 20.7369 1.10403 20.6178ZM6.97767 18.6808C7.10238 18.6808 7.2115 18.6354 7.30503 18.5445C7.39855 18.4536 7.44532 18.3486 7.44532 18.2294C7.44532 18.1104 7.40011 18.0038 7.3097 17.9098C7.21929 17.8157 7.10861 17.7687 6.97767 17.7687C6.86544 17.7687 6.76567 17.8157 6.67838 17.9098C6.59108 18.0038 6.54743 18.1104 6.54743 18.2294C6.54743 18.3548 6.58952 18.4614 6.6737 18.5492C6.75788 18.637 6.8592 18.6808 6.97767 18.6808ZM6.50068 17.5055C6.61914 17.5055 6.72514 17.4616 6.81868 17.3738C6.9122 17.286 6.95897 17.1794 6.95897 17.0541C6.95897 16.9287 6.9122 16.8206 6.81868 16.7297C6.72514 16.6388 6.61914 16.5933 6.50068 16.5933C6.37597 16.5933 6.26841 16.6404 6.178 16.7344C6.08759 16.8284 6.04238 16.935 6.04238 17.0541C6.04238 17.1794 6.08759 17.286 6.178 17.3738C6.26841 17.4616 6.37597 17.5055 6.50068 17.5055ZM6.00497 16.3207C6.12967 16.3207 6.23567 16.2784 6.32297 16.1938C6.41026 16.1091 6.45391 16.0041 6.45391 15.8787C6.45391 15.7533 6.41026 15.6436 6.32297 15.5496C6.23567 15.4556 6.12967 15.4085 6.00497 15.4085C5.8865 15.4085 5.78206 15.4571 5.69165 15.5543C5.60124 15.6515 5.55603 15.7596 5.55603 15.8787C5.55603 15.9978 5.60124 16.1013 5.69165 16.189C5.78206 16.2768 5.8865 16.3207 6.00497 16.3207ZM8.72668 16.3489L9.39072 17.8346C9.43437 17.3581 9.54662 16.9616 9.72748 16.6451C9.9083 16.3285 10.0813 16.0386 10.2465 15.7753C10.4117 15.512 10.4943 15.2205 10.4943 14.9008C10.4943 14.5812 10.4413 14.2959 10.3354 14.0451C10.2294 13.7944 10.1234 13.5562 10.0174 13.3305C9.91139 13.1049 9.8584 12.8667 9.8584 12.616C9.8584 12.5156 9.89891 12.4655 9.97993 12.4655C10.0859 12.4655 10.1857 12.5219 10.2792 12.6347C10.3728 12.7476 10.4741 12.8792 10.5832 13.0296C10.6923 13.1801 10.8233 13.3133 10.9761 13.4293C11.1288 13.5452 11.3205 13.6032 11.5513 13.6032C11.7633 13.6032 11.9472 13.5405 12.1031 13.4151C12.259 13.2898 12.3712 13.108 12.4398 12.8698H12.5146C12.5894 13.1143 12.7048 13.2976 12.8606 13.4199C13.0165 13.5421 13.2005 13.6032 13.4125 13.6032C13.637 13.6032 13.8271 13.5452 13.983 13.4293C14.1389 13.3133 14.2699 13.1801 14.3759 13.0296C14.4819 12.8792 14.5816 12.7476 14.6752 12.6347C14.7687 12.5219 14.8653 12.4655 14.9651 12.4655C15.0586 12.4655 15.1054 12.5156 15.1054 12.616C15.1054 12.8667 15.0524 13.1049 14.9464 13.3305C14.8404 13.5562 14.7328 13.7944 14.6237 14.0451C14.5146 14.2959 14.46 14.5812 14.46 14.9008C14.46 15.1641 14.5177 15.4039 14.633 15.6202C14.7484 15.8364 14.8824 16.0637 15.0352 16.3019C15.188 16.5401 15.322 16.8128 15.4374 17.1199C15.5527 17.4271 15.6104 17.7969 15.6104 18.2294C15.6104 19.0694 15.3329 19.7276 14.778 20.2041C14.2231 20.6805 13.4562 20.9187 12.4772 20.9187C12.0968 20.9187 11.7414 20.8811 11.411 20.8059C11.0805 20.7306 10.7687 20.6209 10.4757 20.4768C10.5255 20.6962 10.5458 20.8936 10.5365 21.0692C10.5271 21.2447 10.4819 21.4202 10.4009 21.5957C10.7313 21.7274 11.0696 21.8276 11.4157 21.8966C11.7617 21.9655 12.1155 22 12.4772 22C13.319 22 14.0547 21.8433 14.6844 21.5299C15.3143 21.2165 15.8037 20.7777 16.1529 20.2135C16.502 19.6493 16.6766 18.988 16.6766 18.2294C16.6766 17.7593 16.619 17.3487 16.5037 16.9977C16.3883 16.6467 16.2542 16.3411 16.1014 16.0809C15.9487 15.8207 15.8131 15.5951 15.6946 15.4039C15.5761 15.2127 15.5169 15.0419 15.5169 14.8914C15.5169 14.6532 15.5699 14.4213 15.6759 14.1956C15.7819 13.9699 15.8879 13.7317 15.9939 13.481C16.0999 13.2303 16.1529 12.945 16.1529 12.6253C16.1529 12.2742 16.05 11.9875 15.8443 11.765C15.6385 11.5424 15.3735 11.4311 15.0493 11.4311C14.7562 11.4311 14.5146 11.5032 14.3244 11.6474C14.1342 11.7916 13.983 11.9546 13.8708 12.1364C13.7897 12.268 13.7118 12.3746 13.637 12.456C13.5621 12.5376 13.4967 12.5783 13.4405 12.5783C13.3782 12.5783 13.3314 12.5454 13.3002 12.4796C13.2691 12.4138 13.2457 12.3228 13.2301 12.2068C13.2145 12.0909 13.2098 11.9609 13.216 11.8167L13.2254 6.07147C13.2254 5.93356 13.2317 5.84736 13.2441 5.81289C13.2566 5.77841 13.2972 5.75177 13.3657 5.73297C13.5528 5.67655 13.6588 5.5167 13.6837 5.25342L13.8801 3.33522C13.8926 3.14716 13.824 2.98731 13.6744 2.85567L12.87 2.15045C12.7578 2.05015 12.6268 2 12.4772 2C12.3276 2 12.1935 2.05015 12.075 2.15045L11.2801 2.85567C11.1304 2.98731 11.0618 3.14716 11.0742 3.33522L11.2613 5.25342C11.2863 5.51043 11.3954 5.67028 11.5887 5.73297C11.651 5.74551 11.69 5.77215 11.7056 5.81289C11.7212 5.85364 11.729 5.93983 11.729 6.07147L11.7476 11.8167C11.7476 11.9546 11.7414 12.0815 11.729 12.1975C11.7165 12.3134 11.6931 12.4059 11.6589 12.4749C11.6245 12.5438 11.5793 12.5783 11.5232 12.5783C11.4609 12.5783 11.3938 12.5344 11.3221 12.4467C11.2504 12.3589 11.1709 12.2555 11.0836 12.1364C10.9589 11.9671 10.8046 11.8073 10.6207 11.6569C10.4367 11.5064 10.2013 11.4311 9.91452 11.4311C9.59027 11.4311 9.3237 11.5408 9.11482 11.7603C8.90594 11.9797 8.80149 12.268 8.80149 12.6253C8.80149 12.945 8.8545 13.2303 8.9605 13.481C9.06649 13.7317 9.17249 13.9699 9.2785 14.1956C9.38449 14.4213 9.43749 14.6532 9.43749 14.8914C9.43749 15.067 9.35955 15.2691 9.20367 15.4979C9.04779 15.7267 8.88879 16.0104 8.72668 16.3489ZM10.6254 18.0696C10.7251 18.1072 10.8217 18.1025 10.9153 18.0555C11.0088 18.0085 11.0743 17.9379 11.1117 17.8439L11.8879 15.7001C11.9191 15.5998 11.9129 15.501 11.8693 15.4039C11.8256 15.3067 11.757 15.2425 11.6634 15.2112C11.5637 15.1735 11.4655 15.1782 11.3688 15.2252C11.2722 15.2723 11.2052 15.3428 11.1678 15.4368L10.3915 17.5901C10.3603 17.6841 10.3665 17.7797 10.4102 17.8768C10.4538 17.974 10.5256 18.0383 10.6254 18.0696ZM14.329 18.0696C14.4288 18.0383 14.5006 17.974 14.5442 17.8768C14.5878 17.7797 14.5909 17.6841 14.5535 17.5901L13.7773 15.4368C13.7399 15.3428 13.6744 15.2723 13.5808 15.2252C13.4873 15.1782 13.3907 15.1735 13.2909 15.2112C13.1974 15.2425 13.1288 15.3067 13.0851 15.4039C13.0415 15.501 13.0353 15.5998 13.0664 15.7001L13.8427 17.8439C13.8801 17.9379 13.9456 18.0085 14.0391 18.0555C14.1327 18.1025 14.2293 18.1072 14.329 18.0696ZM19.8099 21.9437C21.0882 21.9437 22.1061 21.6584 22.8636 21.088C23.6212 20.5175 24 19.7496 24 18.7842C24 18.2953 23.9361 17.8894 23.8083 17.5666C23.6804 17.2437 23.5339 16.9695 23.3687 16.7438C23.2034 16.5181 23.0569 16.3144 22.9291 16.1326C22.8012 15.9508 22.7373 15.7565 22.7373 15.5496C22.7373 15.2362 22.7841 14.9243 22.8776 14.614C22.9712 14.3037 23.0179 13.9542 23.0179 13.5656C23.0179 12.9199 22.8028 12.3996 22.3726 12.0047C21.9424 11.6098 21.3344 11.3653 20.5488 11.2713V5.72356C20.5488 5.5355 20.5659 5.40229 20.6002 5.32394C20.6345 5.24558 20.7046 5.16879 20.8106 5.09356C20.9915 4.98073 21.0756 4.84282 21.0632 4.67984L20.9229 2.35731C20.9166 2.25075 20.8808 2.16455 20.8153 2.09873C20.7499 2.03291 20.6673 2 20.5675 2H19.0336C18.9401 2 18.8606 2.03291 18.7951 2.09873C18.7296 2.16455 18.6938 2.25075 18.6875 2.35731L18.5472 4.67984C18.541 4.84282 18.6252 4.98073 18.7998 5.09356C18.912 5.17506 18.9837 5.25499 19.0149 5.33334C19.0461 5.4117 19.0617 5.54177 19.0617 5.72356V11.2713C18.276 11.3653 17.6681 11.6098 17.2379 12.0047C16.8076 12.3996 16.5925 12.9199 16.5925 13.5656C16.5925 13.9542 16.6392 14.3037 16.7328 14.614C16.8263 14.9243 16.8731 15.2362 16.8731 15.5496C16.8731 15.6186 16.8606 15.697 16.8356 15.7847C16.8107 15.8725 16.764 15.9853 16.6953 16.1232C16.7889 16.3238 16.8653 16.5197 16.9245 16.7109C16.9838 16.9021 17.0352 17.0948 17.0788 17.2892C17.2783 17.0384 17.4716 16.7673 17.6587 16.4758C17.8458 16.1843 17.9393 15.8693 17.9393 15.5308C17.9393 15.1986 17.891 14.8648 17.7943 14.5295C17.6977 14.1941 17.6493 13.8728 17.6493 13.5656C17.6493 13.0767 17.8458 12.7366 18.2386 12.5454C18.6314 12.3542 19.1552 12.2586 19.8099 12.2586C20.4459 12.2586 20.9634 12.3511 21.3625 12.5359C21.7615 12.7209 21.9611 13.0641 21.9611 13.5656C21.9611 13.8728 21.9127 14.1941 21.8161 14.5295C21.7195 14.8648 21.6712 15.1986 21.6712 15.5308C21.6712 15.8192 21.7351 16.0809 21.8629 16.3159C21.9907 16.551 22.1388 16.7861 22.3071 17.0211C22.4755 17.2563 22.622 17.5133 22.7467 17.7922C22.8714 18.0712 22.9337 18.4019 22.9337 18.7842C22.9337 19.4362 22.6579 19.9486 22.1061 20.3216C21.5542 20.6946 20.7888 20.8811 19.8099 20.8811C18.3945 20.8811 17.428 20.5081 16.9105 19.7621C16.8357 19.969 16.7562 20.1508 16.6719 20.3075C16.5878 20.4642 16.4927 20.6178 16.3867 20.7682C16.7608 21.1569 17.2409 21.45 17.8271 21.6474C18.4132 21.8449 19.0742 21.9437 19.8099 21.9437ZM19.8099 16.2925C20.0842 16.2925 20.3212 16.1937 20.5207 15.9963C20.7203 15.7988 20.82 15.559 20.82 15.2769C20.82 14.9949 20.7203 14.7535 20.5207 14.5529C20.3212 14.3524 20.0842 14.2521 19.8099 14.2521C19.5293 14.2521 19.2877 14.3524 19.0851 14.5529C18.8824 14.7535 18.7811 14.9949 18.7811 15.2769C18.7811 15.559 18.8808 15.7988 19.0804 15.9963C19.2799 16.1937 19.5231 16.2925 19.8099 16.2925ZM18.6127 18.9535H20.9884C21.1006 18.9535 21.1957 18.9143 21.2736 18.8359C21.3516 18.7576 21.3905 18.662 21.3905 18.5492C21.3905 18.4301 21.3516 18.3298 21.2736 18.2483C21.1957 18.1668 21.1006 18.126 20.9884 18.126H18.6127C18.5005 18.126 18.4038 18.1683 18.3228 18.2529C18.2417 18.3376 18.2012 18.4364 18.2012 18.5492C18.2012 18.662 18.2417 18.7576 18.3228 18.8359C18.4038 18.9143 18.5005 18.9535 18.6127 18.9535Z" fill="black" fill-opacity="0.8"/>
</svg>
