<svg width="24" height="24" viewBox="0 0 24 24" fill="none" xmlns="http://www.w3.org/2000/svg">
<path d="M11.9856 18.9875C12.955 18.9875 13.8619 18.8077 14.7062 18.4482C15.5506 18.0887 16.2938 17.588 16.9358 16.946C17.5779 16.304 18.0819 15.5593 18.4479 14.7119C18.8138 13.8645 18.9968 12.9562 18.9968 11.9868C18.9968 11.0174 18.8138 10.1106 18.4479 9.26643C18.0819 8.42224 17.5779 7.67916 16.9358 7.03719C16.2938 6.39522 15.5506 5.89288 14.7062 5.53017C13.8619 5.16745 12.955 4.98609 11.9856 4.98609C11.0225 4.98609 10.1172 5.16745 9.26966 5.53017C8.42215 5.89288 7.67737 6.39522 7.03532 7.03719C6.39326 7.67916 5.89085 8.42224 5.52809 9.26643C5.16533 10.1106 4.98395 11.0174 4.98395 11.9868C4.98395 12.9562 5.16533 13.8645 5.52809 14.7119C5.89085 15.5593 6.39326 16.304 7.03532 16.946C7.67737 17.588 8.42215 18.0887 9.26966 18.4482C10.1172 18.8077 11.0225 18.9875 11.9856 18.9875ZM11.9856 17.4274C11.2344 17.4274 10.5313 17.2878 9.87641 17.0086C9.22151 16.7293 8.64366 16.3393 8.14285 15.8386C7.64205 15.3379 7.2504 14.7601 6.9679 14.1053C6.68539 13.4505 6.54414 12.7475 6.54414 11.9964C6.54414 11.2453 6.68539 10.5423 6.9679 9.88753C7.2504 9.23272 7.64205 8.65495 8.14285 8.15422C8.64366 7.65348 9.22151 7.26188 9.87641 6.97941C10.5313 6.69694 11.2344 6.55571 11.9856 6.55571C12.7368 6.55571 13.4414 6.69694 14.0995 6.97941C14.7577 7.26188 15.3371 7.65348 15.8379 8.15422C16.3387 8.65495 16.7303 9.23272 17.0129 9.88753C17.2954 10.5423 17.4366 11.2453 17.4366 11.9964C17.4366 12.7475 17.2954 13.4505 17.0129 14.1053C16.7303 14.7601 16.3387 15.3379 15.8379 15.8386C15.3371 16.3393 14.7577 16.7293 14.0995 17.0086C13.4414 17.2878 12.7368 17.4274 11.9856 17.4274ZM19.5361 20.0178C19.9406 19.6134 20.077 19.0437 19.9454 18.3086C19.8138 17.5735 19.4719 16.7293 18.9198 15.776C18.3676 14.8226 17.6613 13.8164 16.8009 12.7571C15.9406 11.6979 14.9807 10.6418 13.9213 9.58902C12.8684 8.52977 11.8122 7.57002 10.7528 6.70979C9.69342 5.84954 8.687 5.14338 7.73354 4.59128C6.7801 4.03919 5.9358 3.69734 5.20065 3.56574C4.46549 3.43413 3.89567 3.57055 3.49117 3.97499C3.08668 4.37943 2.95185 4.94918 3.08668 5.68424C3.22151 6.41929 3.5634 7.26188 4.11236 8.21199C4.66132 9.16211 5.36758 10.1684 6.23114 11.2309C7.0947 12.2933 8.05297 13.351 9.10594 14.4038C10.1589 15.4566 11.2167 16.4148 12.2793 17.2782C13.3419 18.1416 14.3483 18.8478 15.2986 19.3967C16.2488 19.9456 17.0915 20.2875 17.8267 20.4222C18.5618 20.557 19.1316 20.4222 19.5361 20.0178ZM18.4382 18.92C18.2585 19.1062 17.8893 19.0789 17.3306 18.8382C16.772 18.5975 16.0979 18.2026 15.3082 17.6537C14.5185 17.1049 13.6806 16.4549 12.7945 15.7038C11.9085 14.9527 11.0449 14.1534 10.2039 13.3061C9.35634 12.4651 8.55698 11.6016 7.80578 10.7157C7.05458 9.82976 6.4045 8.99199 5.85554 8.20237C5.30658 7.41274 4.91172 6.73868 4.67095 6.18016C4.43017 5.62165 4.40289 5.25251 4.58909 5.07276C4.76886 4.88659 5.13805 4.91227 5.69663 5.1498C6.25522 5.38732 6.92777 5.78053 7.71428 6.32941C8.5008 6.8783 9.33868 7.5299 10.2279 8.28422C11.1172 9.03853 11.9856 9.83618 12.8331 10.6772C13.6742 11.5246 14.4719 12.3912 15.2264 13.2772C15.9807 14.1631 16.6324 15.0008 17.1814 15.7905C17.7303 16.5801 18.1236 17.2542 18.3612 17.8127C18.5987 18.3712 18.6244 18.7403 18.4382 18.92ZM17.4944 6.50756C17.7577 6.77077 18.0659 6.94731 18.419 7.03719C18.7721 7.12707 19.1236 7.12707 19.4735 7.03719C19.8234 6.94731 20.1332 6.77077 20.4029 6.50756C20.6662 6.24436 20.8427 5.93621 20.9326 5.58313C21.0225 5.23004 21.0225 4.87696 20.9326 4.52388C20.8427 4.17079 20.6662 3.86265 20.4029 3.59944C20.1332 3.32981 19.8234 3.15167 19.4735 3.065C19.1236 2.97833 18.7721 2.97833 18.419 3.065C18.0659 3.15167 17.7577 3.32981 17.4944 3.59944C17.2247 3.86265 17.0466 4.17079 16.9599 4.52388C16.8732 4.87696 16.8732 5.23004 16.9599 5.58313C17.0466 5.93621 17.2247 6.24436 17.4944 6.50756ZM17.4751 5.41942L5.09952 17.8127L6.1878 18.9008L18.573 6.52682L17.4751 5.41942ZM3.60674 20.3933C3.86998 20.663 4.17656 20.8427 4.52648 20.9326C4.87641 21.0225 5.22793 21.0225 5.58106 20.9326C5.93419 20.8427 6.24238 20.663 6.50562 20.3933C6.77528 20.1302 6.95505 19.8221 7.04494 19.469C7.13483 19.1158 7.13483 18.7643 7.04494 18.4145C6.95505 18.0646 6.77528 17.7581 6.50562 17.4949C6.24238 17.2252 5.93419 17.0455 5.58106 16.9556C5.22793 16.8657 4.87641 16.8657 4.52648 16.9556C4.17656 17.0455 3.86998 17.2252 3.60674 17.4949C3.33708 17.7581 3.1573 18.0646 3.06742 18.4145C2.97753 18.7643 2.97753 19.1158 3.06742 19.469C3.1573 19.8221 3.33708 20.1302 3.60674 20.3933Z" fill="black" fill-opacity="0.8"/>
</svg>
