<svg width="24" height="24" viewBox="0 0 24 24" fill="none" xmlns="http://www.w3.org/2000/svg">
<path d="M8.75265 9.97798C8.52413 10.2124 8.41134 10.4629 8.41427 10.7295C8.4172 10.996 8.52999 11.2407 8.75265 11.4633L12.5408 15.2513C12.7634 15.474 13.0081 15.5853 13.2746 15.5853C13.5413 15.5853 13.7889 15.471 14.0173 15.2425L15.4413 13.8276C15.2713 13.6225 15.1907 13.394 15.1995 13.142C15.2083 12.89 15.3065 12.6703 15.494 12.4828C15.6815 12.2895 15.9012 12.1899 16.1532 12.184C16.4051 12.1781 16.6307 12.2601 16.8299 12.4301L22.0068 7.26224C22.663 6.60601 22.994 5.93366 22.9999 5.2452C23.0058 4.55674 22.6865 3.88732 22.0419 3.23695L20.7587 1.96256C20.1083 1.31218 19.4403 0.991387 18.7547 1.00018C18.0692 1.00896 17.3953 1.34148 16.7332 1.99771L11.574 7.17436C11.7439 7.37357 11.8245 7.59915 11.8157 7.8511C11.8069 8.10305 11.7087 8.32277 11.5212 8.51026C11.3279 8.69776 11.1052 8.7959 10.8533 8.80469C10.6013 8.81348 10.3757 8.72999 10.1765 8.55421L8.75265 9.97798ZM9.87767 10.4263L10.4314 9.8725C10.7595 9.94282 11.0715 9.92671 11.3674 9.82417C11.6634 9.72165 11.9431 9.53856 12.2068 9.2749C12.4705 9.01123 12.6521 8.73145 12.7517 8.43556C12.8513 8.13967 12.8631 7.83352 12.7869 7.51713L17.5946 2.7184C17.9754 2.34341 18.368 2.15445 18.7723 2.15152C19.1766 2.14859 19.5634 2.33462 19.9325 2.70961L21.2948 4.0631C21.664 4.43809 21.8485 4.82773 21.8485 5.23201C21.8485 5.6363 21.661 6.02887 21.286 6.40973L16.4872 11.2173C16.1707 11.1411 15.8646 11.1513 15.5687 11.248C15.2728 11.3447 14.99 11.5278 14.7205 11.7973C14.4568 12.061 14.2752 12.3393 14.1756 12.6323C14.076 12.9252 14.0584 13.2387 14.1228 13.5727L13.578 14.1175C13.4842 14.2113 13.3831 14.2611 13.2746 14.267C13.1663 14.2728 13.0623 14.2259 12.9627 14.1263L9.86888 11.0327C9.77513 10.9389 9.73118 10.8364 9.73704 10.7251C9.7429 10.6138 9.78978 10.5142 9.87767 10.4263ZM14.6239 7.6929C14.5477 7.76321 14.511 7.84817 14.514 7.94778C14.5169 8.04739 14.5564 8.13527 14.6326 8.21144C14.6912 8.27004 14.7718 8.30226 14.8743 8.30812C14.9769 8.31398 15.0604 8.28176 15.1248 8.21144L18.7547 4.54649C18.8251 4.48203 18.8617 4.40293 18.8646 4.30918C18.8676 4.21543 18.8309 4.13048 18.7547 4.05431C18.6903 3.98986 18.6097 3.95617 18.5131 3.95324C18.4164 3.95031 18.3328 3.984 18.2625 4.05431L14.6239 7.6929ZM15.8016 8.8794C15.7313 8.94971 15.6976 9.03467 15.7005 9.13427C15.7034 9.23388 15.7371 9.31591 15.8016 9.38036C15.8778 9.45068 15.9642 9.48583 16.0608 9.48583C16.1575 9.48583 16.2411 9.45068 16.3114 9.38036L19.95 5.75056C20.0204 5.68025 20.0555 5.59676 20.0555 5.50008C20.0555 5.4034 20.0204 5.31697 19.95 5.24081C19.8856 5.17049 19.8021 5.1368 19.6996 5.13974C19.597 5.14267 19.5135 5.17636 19.4491 5.24081L15.8016 8.8794ZM3.15394 17.5365L1.13242 20.5422C1.05039 20.6594 1.00645 20.7722 1.00059 20.8806C0.994726 20.989 1.03281 21.0842 1.11485 21.1663L2.82874 22.8888C2.91077 22.9709 3.00745 23.0075 3.11878 22.9987C3.23011 22.99 3.34437 22.9475 3.46156 22.8713L6.46746 20.8498C6.74286 20.6623 6.90399 20.4163 6.95087 20.1116L7.0915 19.1887L12.1892 14.1L11.4333 13.3442L6.01921 18.7669L5.82585 19.8479L3.25941 21.799L2.19592 20.7356L4.14711 18.1692L5.23697 17.9847L10.6511 12.5619L9.89524 11.8061L4.80631 16.9124L3.88344 17.0531C3.57875 17.0941 3.33558 17.2552 3.15394 17.5365Z" fill="black" fill-opacity="0.8"/>
</svg>
