<svg width="24" height="24" viewBox="0 0 24 24" fill="none" xmlns="http://www.w3.org/2000/svg">
<path d="M1.54685 20.7502L3.10869 22.409C3.50364 22.8324 3.92103 23.0283 4.36087 22.9967C4.80069 22.9651 5.23304 22.6997 5.65791 22.2005L15.4868 10.7595L14.5981 9.8116L4.84109 21.1483C4.67951 21.3442 4.51645 21.4548 4.35189 21.4801C4.18733 21.5053 3.99733 21.4042 3.7819 21.1768L2.70477 20.0488C2.48935 19.8213 2.3951 19.6206 2.42202 19.4468C2.44895 19.2731 2.55517 19.0977 2.74067 18.9208L13.2876 8.43718L12.39 7.49877L1.73535 18.0677C1.28056 18.51 1.03671 18.9618 1.0038 19.4231C0.970885 19.8844 1.1519 20.3268 1.54685 20.7502ZM7.44416 3.0911C7.25267 3.287 7.14496 3.51133 7.12102 3.76409C7.09708 4.01687 7.13897 4.23804 7.24668 4.42762C7.3544 4.60455 7.51148 4.73726 7.71793 4.82573C7.92438 4.9142 8.1772 4.92052 8.4764 4.84468C9.14662 4.68039 9.82581 4.61246 10.514 4.64089C11.2022 4.66933 11.8754 4.91104 12.5336 5.36602L11.995 6.77837C11.8394 7.1828 11.796 7.5351 11.8649 7.83527C11.9337 8.13543 12.0908 8.41822 12.3361 8.68362L14.4456 10.9301C14.667 11.1702 14.8824 11.3092 15.0918 11.3472C15.3013 11.3851 15.5346 11.3788 15.7919 11.3282L16.7704 11.1387L17.3807 11.7927L17.3448 12.3329C17.3269 12.5731 17.3553 12.7942 17.4301 12.9965C17.5049 13.1987 17.653 13.4167 17.8744 13.6506L18.5745 14.371C18.7959 14.6048 19.0368 14.7264 19.2971 14.7358C19.5574 14.7453 19.7953 14.6363 20.0107 14.4088L22.6856 11.5747C22.901 11.3472 23.0058 11.0991 22.9998 10.8306C22.9938 10.562 22.8801 10.3108 22.6587 10.077L21.9495 9.33766C21.7341 9.10385 21.5322 8.94429 21.3436 8.85898C21.1551 8.77367 20.9502 8.7405 20.7288 8.75946L20.1992 8.80685L19.6068 8.19072L19.8312 7.10065C19.891 6.82893 19.8791 6.57458 19.7953 6.33761C19.7115 6.10064 19.5349 5.83997 19.2657 5.5556L17.246 3.43234C16.4801 2.6298 15.6648 2.02789 14.8001 1.62662C13.9354 1.22535 13.0647 1.01681 12.188 1.00101C11.3113 0.985215 10.4676 1.15425 9.65676 1.50813C8.84592 1.86201 8.10839 2.38966 7.44416 3.0911ZM8.8175 3.4513C9.37402 3.02159 9.97094 2.7151 10.6083 2.53185C11.2456 2.34859 11.8903 2.29014 12.5425 2.35649C13.1948 2.42284 13.8277 2.60768 14.4411 2.911C15.0544 3.21433 15.6154 3.63772 16.124 4.18117L18.3591 6.52244C18.4668 6.63619 18.5341 6.74678 18.5611 6.85421C18.588 6.96163 18.5835 7.09749 18.5476 7.2618L18.2514 8.70258L19.6337 10.1434L20.5403 10.0865C20.654 10.0802 20.7408 10.0881 20.8006 10.1102C20.8605 10.1323 20.9353 10.1908 21.025 10.2855L21.5546 10.8448L19.3106 13.2146L18.781 12.6553C18.6913 12.5605 18.6344 12.4815 18.6104 12.4183C18.5865 12.3551 18.5775 12.2603 18.5835 12.134L18.6464 11.186L17.273 9.74525L15.8727 9.9917C15.7231 10.0233 15.6049 10.028 15.5181 10.0059C15.4314 9.98381 15.3311 9.91588 15.2175 9.80213L13.3773 7.85896C13.2576 7.74521 13.1903 7.63621 13.1754 7.53194C13.1604 7.42768 13.1889 7.28707 13.2607 7.11013L14.0685 5.08165C13.3504 4.3739 12.5426 3.88416 11.645 3.61243C10.7473 3.34071 9.83178 3.35019 8.89829 3.64087C8.82648 3.65983 8.7801 3.64561 8.75915 3.59821C8.73821 3.55082 8.75766 3.50185 8.8175 3.4513Z" fill="black" fill-opacity="0.8"/>
</svg>
