<svg width="24" height="24" viewBox="0 0 24 24" fill="none" xmlns="http://www.w3.org/2000/svg">
<path d="M2.5 12.3985C2.5 13.3544 2.5871 14.3278 2.7613 15.3186C2.93549 16.3093 3.1859 17.2764 3.51252 18.2197C3.83915 19.163 4.22954 20.043 4.6837 20.8596C4.79568 21.0622 4.95277 21.1904 5.15496 21.2442C5.35715 21.298 5.56401 21.2648 5.77554 21.1445C5.97462 21.0369 6.0975 20.8802 6.14416 20.6745C6.19082 20.4687 6.15505 20.255 6.03684 20.0335C5.4147 18.8749 4.9341 17.6325 4.59504 16.3062C4.25598 14.9798 4.08645 13.6773 4.08645 12.3985C4.08645 11.0816 4.27464 9.88509 4.65104 8.80884C5.02743 7.7326 5.56402 6.80671 6.26081 6.03118C6.9576 5.25565 7.79126 4.65897 8.76179 4.24113C9.73232 3.82329 10.8117 3.61437 12 3.61437C13.1821 3.61437 14.2584 3.82329 15.2289 4.24113C16.1994 4.65897 17.0347 5.25565 17.7346 6.03118C18.4344 6.80671 18.9726 7.7326 19.3489 8.80884C19.7254 9.88509 19.9136 11.0816 19.9136 12.3985C19.9136 13.6773 19.7425 14.9798 19.4003 16.3062C19.0581 17.6325 18.576 18.8749 17.9539 20.0335C17.8356 20.255 17.7999 20.4687 17.8466 20.6745C17.8932 20.8802 18.016 21.0369 18.2151 21.1445C18.4266 21.2648 18.6335 21.298 18.8357 21.2442C19.0379 21.1904 19.195 21.0622 19.307 20.8596C19.7612 20.043 20.1531 19.163 20.4829 18.2197C20.8125 17.2764 21.0645 16.3093 21.2387 15.3186C21.4129 14.3278 21.5 13.3544 21.5 12.3985C21.5 10.8347 21.2745 9.41503 20.8234 8.13936C20.3724 6.86369 19.7285 5.76845 18.8917 4.85364C18.0549 3.93883 17.0533 3.23452 15.8868 2.74071C14.7203 2.2469 13.4247 2 12 2C10.5691 2 9.27039 2.2469 8.10389 2.74071C6.93738 3.23452 5.9373 3.93883 5.10364 4.85364C4.26998 5.76845 3.62762 6.86369 3.17657 8.13936C2.72552 9.41503 2.5 10.8347 2.5 12.3985ZM5.42092 20.6223C5.57646 21.1667 5.8642 21.556 6.28414 21.7903C6.70408 22.0245 7.18468 22.0625 7.72594 21.9043C8.26719 21.746 8.65292 21.45 8.88311 21.0164C9.1133 20.5827 9.14752 20.0936 8.98576 19.5492L7.65128 14.9149C7.49574 14.3705 7.208 13.9828 6.78806 13.7517C6.36812 13.5206 5.88752 13.481 5.34627 13.633C4.80502 13.7912 4.41929 14.0872 4.1891 14.5209C3.95891 14.9545 3.92469 15.4467 4.08645 15.9975L5.42092 20.6223ZM18.5697 20.6223L19.9042 15.9975C20.066 15.4404 20.0318 14.9467 19.8016 14.5161C19.5714 14.0856 19.1856 13.7912 18.6444 13.633C18.1031 13.481 17.6225 13.5206 17.2026 13.7517C16.7827 13.9828 16.495 14.3705 16.3394 14.9149L15.0049 19.5492C14.8431 20.1 14.8789 20.5906 15.1122 21.021C15.3456 21.4516 15.7297 21.746 16.2647 21.9043C16.806 22.0625 17.2866 22.0245 17.7066 21.7903C18.1265 21.556 18.4142 21.1667 18.5697 20.6223Z" fill="black" fill-opacity="0.8"/>
</svg>
