<svg width="24" height="24" viewBox="0 0 24 24" fill="none" xmlns="http://www.w3.org/2000/svg">
<path d="M7.40262 14.9456C7.23093 14.5926 7.00202 14.3704 6.71587 14.279C6.42972 14.1876 6.16265 14.1923 5.91466 14.2931C5.63488 14.4003 5.42345 14.6099 5.28038 14.922C5.1373 15.234 5.17068 15.6012 5.38053 16.0236L7.81275 20.9315C7.99716 21.3034 8.24357 21.5524 8.55197 21.6785C8.86037 21.8046 9.17671 21.7857 9.50101 21.6218C9.7808 21.4894 9.96521 21.2782 10.0542 20.9882C10.1432 20.6982 10.1083 20.3862 9.9493 20.052L7.40262 14.9456ZM16.5878 14.9456L14.0507 20.052C13.8854 20.3862 13.8473 20.6982 13.9363 20.9882C14.0253 21.2782 14.2097 21.4894 14.4895 21.6218C14.8137 21.7857 15.1317 21.8046 15.4433 21.6785C15.7549 21.5524 16.0029 21.3034 16.1873 20.9315L18.6195 16.0236C18.8294 15.6012 18.8627 15.234 18.7196 14.922C18.5765 14.6099 18.3651 14.4003 18.0853 14.2931C17.831 14.1923 17.5623 14.1876 17.2794 14.279C16.9964 14.3704 16.7659 14.5926 16.5878 14.9456ZM2.5 11.5035C2.5 12.3231 2.60174 13.1521 2.80522 13.9905C3.0087 14.829 3.30756 15.6454 3.70181 16.4397C3.57464 16.5721 3.50151 16.7597 3.48243 17.0024C3.46335 17.2451 3.52058 17.4988 3.65412 17.7636L5.50452 21.4894C5.58718 21.6533 5.71436 21.7794 5.88605 21.8676C6.05774 21.9559 6.23578 22 6.42018 22C6.61731 22 6.80013 21.9433 6.96863 21.8298C7.13714 21.7163 7.23411 21.5366 7.25955 21.2908L5.17069 17.0638C4.94813 16.6225 4.74465 16.1024 4.56025 15.5035C4.37584 14.9047 4.22641 14.2616 4.11195 13.5744C3.99749 12.8873 3.94026 12.2002 3.94026 11.513C3.94026 10.3341 4.13262 9.26083 4.51732 8.29314C4.90203 7.32545 5.45206 6.49173 6.16742 5.79197C6.88279 5.0922 7.73328 4.55319 8.71889 4.17494C9.70449 3.79669 10.7982 3.60757 12 3.60757C13.2018 3.60757 14.2955 3.79669 15.2811 4.17494C16.2667 4.55319 17.1157 5.0922 17.8279 5.79197C18.54 6.49173 19.09 7.32545 19.4779 8.29314C19.8658 9.26083 20.0597 10.3341 20.0597 11.513C20.0597 12.2002 20.0025 12.8873 19.888 13.5744C19.7736 14.2616 19.6226 14.9047 19.435 15.5035C19.2474 16.1024 19.0456 16.6225 18.8294 17.0638L16.7309 21.2908C16.7627 21.5366 16.8613 21.7163 17.0266 21.8298C17.192 21.9433 17.3764 22 17.5799 22C17.7643 22 17.9423 21.9559 18.1139 21.8676C18.2857 21.7794 18.4129 21.6533 18.4955 21.4894L20.3363 17.7636C20.4699 17.4988 20.5287 17.2451 20.5128 17.0024C20.497 16.7597 20.4254 16.5721 20.2983 16.4397C20.6861 15.6454 20.9834 14.829 21.19 13.9905C21.3967 13.1521 21.5 12.3231 21.5 11.5035C21.5 10.1797 21.279 8.94247 20.8371 7.79197C20.3952 6.64145 19.7593 5.63278 18.9295 4.76596C18.0997 3.89913 17.1014 3.22143 15.9345 2.73286C14.7677 2.24429 13.4562 2 12 2C10.5438 2 9.23076 2.24429 8.06075 2.73286C6.89073 3.22143 5.8924 3.89913 5.06576 4.76596C4.23912 5.63278 3.60484 6.64145 3.1629 7.79197C2.72097 8.94247 2.5 10.1797 2.5 11.5035Z" fill="black" fill-opacity="0.8"/>
</svg>
