<svg width="24" height="24" viewBox="0 0 24 24" fill="none" xmlns="http://www.w3.org/2000/svg">
<path d="M6.72973 18.1431L9.93435 16.8449C10.0566 16.8007 10.1515 16.7533 10.2191 16.7028C10.2867 16.6522 10.3591 16.5921 10.4363 16.5227L19.6738 7.52022C20.1242 7.078 20.3478 6.6105 20.3446 6.11773C20.3414 5.62497 20.1113 5.15116 19.6544 4.6963L17.6273 2.68733C17.164 2.23878 16.6798 2.00977 16.1747 2.0003C15.6695 1.99082 15.1917 2.2072 14.7413 2.64942L5.49421 11.6519C5.42342 11.7214 5.36389 11.7893 5.31563 11.8557C5.26737 11.922 5.2175 12.012 5.16601 12.1257L3.81467 15.2718C3.71171 15.5056 3.67471 15.7362 3.70366 15.9636C3.73262 16.191 3.84041 16.3963 4.02702 16.5795L5.39768 17.9346C5.57786 18.1115 5.78378 18.2158 6.01544 18.2474C6.2471 18.279 6.48519 18.2442 6.72973 18.1431ZM6.58493 16.6743C6.48841 16.7059 6.40154 16.7185 6.32432 16.7122C6.2471 16.7059 6.16344 16.6585 6.07335 16.5701L5.41698 15.9257C5.32689 15.8435 5.27863 15.763 5.2722 15.6841C5.26576 15.6051 5.28185 15.5214 5.32046 15.4329L6.51737 12.6753L15.7162 3.71076C15.8578 3.58441 16.0058 3.51808 16.1602 3.51176C16.3146 3.50544 16.4562 3.56546 16.585 3.69181L18.6216 5.71026C18.8983 5.98823 18.8886 6.27252 18.5926 6.56312L9.39381 15.5276L6.58493 16.6743ZM2.96525 18.6169H4.1332C4.26834 18.6169 4.37612 18.6011 4.45656 18.5695C4.537 18.538 4.6287 18.4811 4.73165 18.399L5.63899 17.7167L4.24903 16.3236L2.68533 17.9441C2.54376 18.0957 2.50193 18.2457 2.55984 18.3942C2.61776 18.5427 2.75289 18.6169 2.96525 18.6169ZM5.63899 12.6753L9.58686 16.5701L10.4942 15.6888L6.54633 11.7845L5.63899 12.6753ZM13.6506 4.87634L17.5984 8.77109L18.5058 7.89928L14.5579 3.99505L13.6506 4.87634ZM2.7722 22H21.2182C21.4305 22 21.6139 21.9242 21.7683 21.7725C21.9228 21.6209 22 21.4408 22 21.2323C22 21.0239 21.9228 20.8455 21.7683 20.697C21.6139 20.5485 21.4305 20.4743 21.2182 20.4743H2.7722C2.55984 20.4743 2.37806 20.5485 2.22683 20.697C2.07561 20.8455 2 21.0239 2 21.2323C2 21.4408 2.07561 21.6209 2.22683 21.7725C2.37806 21.9242 2.55984 22 2.7722 22Z" fill="black" fill-opacity="0.8"/>
</svg>
