<svg width="24" height="24" viewBox="0 0 24 24" fill="none" xmlns="http://www.w3.org/2000/svg">
<path d="M1 15.7727C1 16.5663 1.18947 17.2833 1.5684 17.9238C1.94734 18.5643 2.46916 19.0704 3.13385 19.4423C3.79854 19.8141 4.56262 20 5.4261 20H18.574C19.4374 20 20.2015 19.8141 20.8662 19.4423C21.5309 19.0704 22.0527 18.5643 22.4316 17.9238C22.8105 17.2833 23 16.5663 23 15.7727C23 15.4228 22.955 15.0884 22.8649 14.7697C22.7748 14.4511 22.6708 14.1449 22.5528 13.8512L19.4126 6.2683C19.102 5.51845 18.6407 4.95294 18.0289 4.57176C17.417 4.19059 16.6948 4 15.8624 4H8.13767C7.30525 4 6.5831 4.19059 5.97121 4.57176C5.35932 4.95294 4.89808 5.51845 4.58747 6.2683L1.43795 13.8512C1.31992 14.1449 1.21742 14.4511 1.13045 14.7697C1.04348 15.0884 1 15.4228 1 15.7727ZM2.50022 15.7727C2.50022 15.2603 2.62135 14.7979 2.86362 14.3854C3.10589 13.973 3.44755 13.6481 3.88861 13.4106C4.32967 13.1732 4.84216 13.0545 5.4261 13.0545H18.574C19.1641 13.0545 19.6781 13.1732 20.1161 13.4106C20.5541 13.6481 20.8942 13.973 21.1364 14.3854C21.3787 14.7979 21.4998 15.2603 21.4998 15.7727C21.4998 16.3538 21.3787 16.8459 21.1364 17.2489C20.8942 17.652 20.5541 17.9597 20.1161 18.1722C19.6781 18.3847 19.1641 18.4909 18.574 18.4909H5.4261C4.84216 18.4909 4.32967 18.3722 3.88861 18.1347C3.44755 17.8972 3.10589 17.5739 2.86362 17.1646C2.62135 16.7553 2.50022 16.2913 2.50022 15.7727ZM4.00975 11.7891L6.04109 6.6526C6.21503 6.20893 6.48836 5.87463 6.86109 5.64967C7.23381 5.42472 7.68419 5.31224 8.21221 5.31224H15.7878C16.3158 5.31224 16.7662 5.42472 17.139 5.64967C17.5117 5.87463 17.785 6.20893 17.9589 6.6526L19.9902 11.7891C19.7728 11.7078 19.5461 11.6469 19.3101 11.6063C19.0741 11.5657 18.8287 11.5454 18.574 11.5454H5.4261C5.1714 11.5454 4.92603 11.5657 4.68997 11.6063C4.45391 11.6469 4.22717 11.7078 4.00975 11.7891ZM9.3397 16.7287C9.3397 16.8787 9.39095 17.0052 9.49345 17.1084C9.59595 17.2115 9.71864 17.263 9.86152 17.263C10.0044 17.263 10.1271 17.2115 10.2296 17.1084C10.3321 17.0052 10.3833 16.8787 10.3833 16.7287V14.7978C10.3833 14.6541 10.3321 14.5323 10.2296 14.4323C10.1271 14.3323 10.0044 14.2823 9.86152 14.2823C9.71864 14.2823 9.59595 14.3323 9.49345 14.4323C9.39095 14.5323 9.3397 14.6541 9.3397 14.7978V16.7287ZM11.4828 16.7287C11.4828 16.8787 11.5325 17.0052 11.632 17.1084C11.7313 17.2115 11.8556 17.263 12.0047 17.263C12.1475 17.263 12.2687 17.2115 12.3681 17.1084C12.4675 17.0052 12.5172 16.8787 12.5172 16.7287V14.7978C12.5172 14.6541 12.4675 14.5323 12.3681 14.4323C12.2687 14.3323 12.1475 14.2823 12.0047 14.2823C11.8556 14.2823 11.7313 14.3323 11.632 14.4323C11.5325 14.5323 11.4828 14.6541 11.4828 14.7978V16.7287ZM13.626 16.7287C13.626 16.8787 13.6757 17.0052 13.7751 17.1084C13.8745 17.2115 13.9987 17.263 14.1478 17.263C14.2907 17.263 14.4119 17.2115 14.5113 17.1084C14.6107 17.0052 14.6603 16.8787 14.6603 16.7287V14.7978C14.6603 14.6541 14.6107 14.5323 14.5113 14.4323C14.4119 14.3323 14.2907 14.2823 14.1478 14.2823C13.9987 14.2823 13.8745 14.3323 13.7751 14.4323C13.6757 14.5323 13.626 14.6541 13.626 14.7978V16.7287ZM15.7599 16.7287C15.7599 16.8787 15.8112 17.0052 15.9136 17.1084C16.0161 17.2115 16.1419 17.263 16.291 17.263C16.4339 17.263 16.555 17.2115 16.6544 17.1084C16.7538 17.0052 16.8035 16.8787 16.8035 16.7287V14.7978C16.8035 14.6541 16.7538 14.5323 16.6544 14.4323C16.555 14.3323 16.4339 14.2823 16.291 14.2823C16.1419 14.2823 16.0161 14.3323 15.9136 14.4323C15.8112 14.5323 15.7599 14.6541 15.7599 14.7978V16.7287ZM17.903 16.7287C17.903 16.8787 17.9543 17.0052 18.0568 17.1084C18.1593 17.2115 18.282 17.263 18.4248 17.263C18.5677 17.263 18.6904 17.2115 18.793 17.1084C18.8954 17.0052 18.9467 16.8787 18.9467 16.7287V14.7978C18.9467 14.6541 18.8954 14.5323 18.793 14.4323C18.6904 14.3323 18.5677 14.2823 18.4248 14.2823C18.282 14.2823 18.1593 14.3323 18.0568 14.4323C17.9543 14.5323 17.903 14.6541 17.903 14.7978V16.7287Z" fill="black" fill-opacity="0.8"/>
</svg>
