<svg width="24" height="24" viewBox="0 0 24 24" fill="none" xmlns="http://www.w3.org/2000/svg">
<path d="M4.78618 20H19.2138C19.9596 20 20.6177 19.8407 21.1882 19.5221C21.7586 19.2035 22.2032 18.7623 22.5219 18.1983C22.8406 17.6344 23 16.9829 23 16.2437C23 15.5046 22.8406 14.8515 22.5219 14.2844C22.2032 13.7173 21.7586 13.2744 21.1882 12.9558C20.6177 12.6372 19.9596 12.4779 19.2138 12.4779H4.78618C4.04042 12.4779 3.3823 12.6372 2.81183 12.9558C2.24135 13.2744 1.79675 13.7173 1.47805 14.2844C1.15935 14.8515 1 15.5046 1 16.2437C1 16.9829 1.15935 17.6344 1.47805 18.1983C1.79675 18.7623 2.24135 19.2035 2.81183 19.5221C3.3823 19.8407 4.04042 20 4.78618 20ZM4.78618 11.1685H19.2138C20.0998 11.1685 20.9093 11.3564 21.6423 11.7324L19.3572 6.21745C19.0576 5.49742 18.6067 4.94783 18.0044 4.5687C17.402 4.18957 16.6865 4 15.8579 4H8.14211C7.31986 4 6.60597 4.18957 6.00043 4.5687C5.3949 4.94783 4.94235 5.49742 4.64276 6.21745L2.34811 11.7324C2.70506 11.554 3.0875 11.4154 3.49544 11.3166C3.90338 11.2178 4.33363 11.1685 4.78618 11.1685ZM9.18427 17.2473V15.221C9.18427 15.0681 9.23845 14.9391 9.34681 14.8339C9.45517 14.7288 9.58584 14.6763 9.73881 14.6763C9.89179 14.6763 10.0225 14.7288 10.1308 14.8339C10.2392 14.9391 10.2934 15.0681 10.2934 15.221V17.2473C10.2934 17.4066 10.2392 17.5405 10.1308 17.6488C10.0225 17.7571 9.89179 17.8113 9.73881 17.8113C9.58584 17.8113 9.45517 17.7571 9.34681 17.6488C9.23845 17.5405 9.18427 17.4066 9.18427 17.2473ZM11.4502 17.2473V15.221C11.4502 15.0681 11.5044 14.9391 11.6127 14.8339C11.7211 14.7288 11.8518 14.6763 12.0047 14.6763C12.1577 14.6763 12.2868 14.7288 12.392 14.8339C12.4972 14.9391 12.5498 15.0681 12.5498 15.221V17.2473C12.5498 17.4066 12.4972 17.5405 12.392 17.6488C12.2868 17.7571 12.1577 17.8113 12.0047 17.8113C11.8518 17.8113 11.7211 17.7571 11.6127 17.6488C11.5044 17.5405 11.4502 17.4066 11.4502 17.2473ZM13.7162 17.2473V15.221C13.7162 15.0681 13.7688 14.9391 13.874 14.8339C13.9791 14.7288 14.1114 14.6763 14.2708 14.6763C14.4238 14.6763 14.5528 14.7288 14.658 14.8339C14.7631 14.9391 14.8157 15.0681 14.8157 15.221V17.2473C14.8157 17.4066 14.7631 17.5405 14.658 17.6488C14.5528 17.7571 14.4238 17.8113 14.2708 17.8113C14.1114 17.8113 13.9791 17.7571 13.874 17.6488C13.7688 17.5405 13.7162 17.4066 13.7162 17.2473ZM15.9727 17.2473V15.221C15.9727 15.0681 16.0268 14.9391 16.1352 14.8339C16.2435 14.7288 16.3774 14.6763 16.5367 14.6763C16.6833 14.6763 16.8109 14.7288 16.9192 14.8339C17.0275 14.9391 17.0817 15.0681 17.0817 15.221V17.2473C17.0817 17.4066 17.0275 17.5405 16.9192 17.6488C16.8109 17.7571 16.6833 17.8113 16.5367 17.8113C16.3774 17.8113 16.2435 17.7571 16.1352 17.6488C16.0268 17.5405 15.9727 17.4066 15.9727 17.2473ZM18.2482 17.2473V15.221C18.2482 15.0681 18.3023 14.9391 18.4107 14.8339C18.519 14.7288 18.6497 14.6763 18.8027 14.6763C18.9557 14.6763 19.0848 14.7288 19.1899 14.8339C19.2951 14.9391 19.3476 15.0681 19.3476 15.221V17.2473C19.3476 17.4066 19.2951 17.5405 19.1899 17.6488C19.0848 17.7571 18.9557 17.8113 18.8027 17.8113C18.6497 17.8113 18.519 17.7571 18.4107 17.6488C18.3023 17.5405 18.2482 17.4066 18.2482 17.2473Z" fill="black" fill-opacity="0.8"/>
</svg>
