<svg width="24" height="24" viewBox="0 0 24 24" fill="none" xmlns="http://www.w3.org/2000/svg">
<path d="M7.92104 19.9969H16.0789C16.845 19.9969 17.44 19.7725 17.864 19.3238C18.288 18.8749 18.5 18.2471 18.5 17.4405V4.44883C18.5 3.64215 18.288 3.01441 17.864 2.56559C17.44 2.11676 16.845 1.89234 16.0789 1.89234H13.7631V1.81956C13.7631 1.27975 13.6009 0.841544 13.2763 0.504928C12.9517 0.168309 12.5263 0 12 0C11.4737 0 11.0482 0.168309 10.7237 0.504928C10.3991 0.841544 10.2368 1.27975 10.2368 1.81956V1.89234H7.92104C7.15497 1.89234 6.55994 2.11676 6.13596 2.56559C5.71199 3.01441 5.5 3.64215 5.5 4.44883V17.4405C5.5 18.2471 5.71199 18.8749 6.13596 19.3238C6.55994 19.7725 7.15497 19.9969 7.92104 19.9969ZM7.99122 18.4868C7.66374 18.4868 7.41081 18.3928 7.23245 18.2047C7.05409 18.0167 6.96491 17.7559 6.96491 17.4223V4.46702C6.96491 4.13344 7.05409 3.87263 7.23245 3.68461C7.41081 3.49659 7.66374 3.40258 7.99122 3.40258H16.0087C16.3421 3.40258 16.5965 3.49659 16.7719 3.68461C16.9473 3.87263 17.0351 4.13344 17.0351 4.46702V17.4223C17.0351 17.7559 16.9473 18.0167 16.7719 18.2047C16.5965 18.3928 16.3421 18.4868 16.0087 18.4868H7.99122ZM12 2.51099C11.8187 2.51099 11.6666 2.44579 11.5438 2.31539C11.421 2.18499 11.3596 2.02578 11.3596 1.83776C11.3596 1.6558 11.421 1.49962 11.5438 1.36922C11.6666 1.23882 11.8187 1.17362 12 1.17362C12.1813 1.17362 12.3333 1.23882 12.4561 1.36922C12.5789 1.49962 12.6403 1.6558 12.6403 1.83776C12.6403 2.02578 12.5789 2.18499 12.4561 2.31539C12.3333 2.44579 12.1813 2.51099 12 2.51099ZM14.0438 24H17.8684C18.0438 24 18.193 23.9363 18.3158 23.8089C18.4386 23.6816 18.5 23.527 18.5 23.345C18.5 23.157 18.4386 22.9978 18.3158 22.8673C18.193 22.7369 18.0438 22.6717 17.8684 22.6717H14.0438C13.5351 22.6717 13.1535 22.5565 12.8991 22.326C12.6447 22.0956 12.5175 21.7165 12.5175 21.1888V18.9962H11.2368V21.1888C11.2368 22.0804 11.4898 22.7718 11.9956 23.2631C12.5014 23.7544 13.1842 24 14.0438 24Z" fill="#C7C7CC"/>
<path d="M9.31451 16H14.6854C14.9274 16 15.1236 15.9294 15.2741 15.7882C15.4247 15.6471 15.5 15.4588 15.5 15.2235V6.77647C15.5 6.54118 15.4247 6.35295 15.2741 6.21177C15.1236 6.07059 14.9274 6 14.6854 6H9.31451C9.0672 6 8.86962 6.07059 8.72178 6.21177C8.57393 6.35295 8.5 6.54118 8.5 6.77647V15.2235C8.5 15.4588 8.57393 15.6471 8.72178 15.7882C8.86962 15.9294 9.0672 16 9.31451 16Z" fill="#AF52DE"/>
<path d="M10.755 15C10.6089 15 10.491 14.9592 10.4014 14.8775C10.3118 14.7959 10.2669 14.6968 10.2669 14.5801C10.2669 14.4577 10.3118 14.3541 10.4014 14.2696C10.491 14.185 10.6089 14.1427 10.755 14.1427H13.2251C13.3645 14.1427 13.4807 14.185 13.5737 14.2696C13.6667 14.3541 13.7132 14.4577 13.7132 14.5801C13.7132 14.6968 13.6667 14.7959 13.5737 14.8775C13.4807 14.9592 13.3645 15 13.2251 15H10.755ZM9.99801 13.1717C9.85192 13.1717 9.7324 13.1309 9.63944 13.0493C9.54648 12.9676 9.5 12.8656 9.5 12.7431C9.5 12.6264 9.54648 12.5258 9.63944 12.4413C9.7324 12.3567 9.85192 12.3144 9.99801 12.3144H14.012C14.1514 12.3144 14.2676 12.3567 14.3606 12.4413C14.4535 12.5258 14.5 12.6264 14.5 12.7431C14.5 12.8656 14.4535 12.9676 14.3606 13.0493C14.2676 13.1309 14.1514 13.1717 14.012 13.1717H9.99801ZM11.9801 11.0985C11.5551 11.0985 11.1866 10.9687 10.8745 10.7092C10.5624 10.4497 10.4064 10.1274 10.4064 9.74256C10.4064 9.53258 10.4578 9.32409 10.5608 9.11707C10.6637 8.91004 10.7749 8.71321 10.8944 8.52659L11.7012 7.21441C11.7875 7.07444 11.8805 7.003 11.9801 7.00009C12.0797 6.99717 12.1726 7.06861 12.259 7.21441L13.0657 8.52659C13.1853 8.71321 13.2965 8.91004 13.3994 9.11707C13.5023 9.32409 13.5538 9.53258 13.5538 9.74256C13.5538 10.1274 13.4011 10.4497 13.0956 10.7092C12.7902 10.9687 12.4183 11.0985 11.9801 11.0985Z" fill="white"/>
</svg>
