<svg width="24" height="24" viewBox="0 0 24 24" fill="none" xmlns="http://www.w3.org/2000/svg">
<path d="M11.3243 23.7291C11.5317 23.8961 11.7602 23.9859 12.0097 23.9987C12.2593 24.0116 12.4813 23.925 12.6758 23.7388L15.6803 20.763C15.8683 20.5704 15.9606 20.3457 15.9574 20.0889C15.9541 19.8321 15.8585 19.6106 15.6705 19.4244L14.1635 17.9413L16.3609 15.7745C16.5489 15.5883 16.6413 15.3668 16.638 15.11C16.6348 14.8532 16.5391 14.6285 16.3512 14.4359L14.319 12.4135C15.6543 11.7779 16.685 10.9401 17.411 9.90002C18.137 8.85992 18.5 7.70105 18.5 6.42343C18.5 5.53744 18.3315 4.70603 17.9944 3.92918C17.6573 3.15233 17.1923 2.46857 16.5992 1.87792C16.006 1.28726 15.3157 0.826604 14.5281 0.495962C13.7405 0.165321 12.8994 0 12.0049 0C11.0974 0 10.2515 0.165321 9.46711 0.495962C8.68276 0.826604 7.9924 1.28565 7.39604 1.8731C6.79968 2.46055 6.33458 3.1427 6.00075 3.91955C5.66692 4.69639 5.5 5.53102 5.5 6.42343C5.5 7.28374 5.65719 8.09751 5.97158 8.86472C6.28597 9.6319 6.73162 10.3141 7.30854 10.9112C7.88545 11.5083 8.56932 11.9802 9.36014 12.3268V21.4179C9.36014 21.5784 9.38769 21.7437 9.44279 21.9138C9.49789 22.084 9.59675 22.23 9.73935 22.352L11.3243 23.7291ZM12.0049 22.2075L10.9256 21.1482V11.2097C10.1672 11.0428 9.49627 10.7282 8.91287 10.266C8.32948 9.80369 7.8741 9.24191 7.54675 8.58062C7.2194 7.91934 7.05573 7.20028 7.05573 6.42343C7.05573 5.74931 7.18375 5.11852 7.43979 4.53107C7.69584 3.94362 8.04912 3.42679 8.49964 2.98059C8.95015 2.53438 9.47521 2.18448 10.0748 1.93088C10.6744 1.67729 11.3178 1.55049 12.0049 1.55049C12.9124 1.55049 13.7405 1.76877 14.4892 2.20535C15.2378 2.64192 15.8326 3.22937 16.2734 3.9677C16.7142 4.70602 16.9346 5.5246 16.9346 6.42343C16.9346 7.18744 16.7677 7.90168 16.4338 8.56618C16.1 9.23067 15.63 9.80046 15.024 10.2755C14.4179 10.7507 13.7097 11.0845 12.8994 11.2771V13.2224L14.8052 15.1196L12.7439 17.1323V18.731L14.1246 20.0792L12.0049 22.2075ZM12.0049 6.5101C12.491 6.5101 12.9059 6.33997 13.2495 5.99969C13.593 5.65943 13.7648 5.24532 13.7648 4.75739C13.7648 4.27587 13.593 3.86498 13.2495 3.5247C12.9059 3.18443 12.491 3.01429 12.0049 3.01429C11.5122 3.01429 11.0941 3.18283 10.7506 3.51989C10.407 3.85695 10.2352 4.26945 10.2352 4.75739C10.2352 5.24532 10.407 5.65943 10.7506 5.99969C11.0941 6.33997 11.5122 6.5101 12.0049 6.5101Z" fill="black" fill-opacity="0.8"/>
</svg>
