<svg width="24" height="24" viewBox="0 0 24 24" fill="none" xmlns="http://www.w3.org/2000/svg">
<path d="M12.9394 18.6729C12.7953 18.6792 12.6482 18.6855 12.4978 18.6918C12.3476 18.6981 12.2004 18.7012 12.0563 18.7012C11.1045 18.7012 10.2058 18.591 9.36038 18.3706C8.51495 18.1503 7.77128 17.8165 7.12937 17.3695C6.48747 16.9224 5.98334 16.3652 5.61699 15.6978C5.25064 15.0303 5.06747 14.2495 5.06747 13.3554C5.06747 13.1161 5.08939 12.8878 5.13322 12.6706C5.17705 12.4534 5.23655 12.2408 5.3117 12.033C5.23029 11.926 5.13009 11.8379 5.0111 11.7686C4.89212 11.6993 4.74808 11.6426 4.57899 11.5986C4.4099 11.5545 4.20638 11.5135 3.9684 11.4757C3.86821 11.7654 3.78992 12.0677 3.73356 12.3825C3.6772 12.6973 3.64902 13.0185 3.64902 13.3459C3.64902 14.4289 3.86351 15.3907 4.29248 16.2313C4.72146 17.072 5.3164 17.7803 6.07728 18.3565C6.83817 18.9326 7.72118 19.3703 8.7263 19.6694C9.73143 19.9685 10.8132 20.118 11.9718 20.118C12.1847 20.118 12.4008 20.1133 12.62 20.1038C12.8392 20.0944 13.0584 20.0803 13.2776 20.0614L12.9394 18.6729ZM9.59522 5.82762C9.63279 6.0543 9.67193 6.25264 9.71264 6.42265C9.75334 6.59267 9.80031 6.73907 9.85354 6.86186C9.90677 6.98464 9.97096 7.09011 10.0461 7.17827C10.71 6.9138 11.4004 6.70916 12.1174 6.56433C12.8345 6.41951 13.55 6.3471 14.2639 6.3471C15.2471 6.3471 16.1786 6.49349 17.0585 6.78629C17.9384 7.07909 18.718 7.49782 19.3975 8.04249C20.077 8.58716 20.6124 9.23886 21.0038 9.99761C21.3952 10.7564 21.5909 11.6017 21.5909 12.5336C21.5909 13.3963 21.3842 14.2101 20.9709 14.9752C20.5576 15.7402 20.005 16.4187 19.313 17.0106C18.621 17.6025 17.8507 18.0685 17.0021 18.4085C16.1536 18.7485 15.2941 18.9185 14.4236 18.9185C14.0854 18.9185 13.8067 18.8555 13.5875 18.7296C13.3683 18.6036 13.2587 18.4274 13.2587 18.2007C13.2587 17.9362 13.3699 17.7048 13.5922 17.5065C13.8145 17.3081 14.1105 17.1539 14.48 17.0437C14.8494 16.9335 15.2627 16.8784 15.7199 16.8784C16.2585 16.8784 16.7422 17.0012 17.1712 17.2467C17.6002 17.4923 17.94 17.826 18.1904 18.2479C18.4409 18.6698 18.5662 19.1546 18.5662 19.7024C18.5662 20.2691 18.4159 20.8123 18.1153 21.3318C17.8147 21.8512 17.4013 22.2778 16.8753 22.6115C16.7438 22.7123 16.6326 22.8178 16.5418 22.928C16.451 23.0382 16.4056 23.1783 16.4056 23.3482C16.4056 23.5246 16.4714 23.6773 16.6029 23.8064C16.7344 23.9355 16.9098 24 17.129 24C17.298 24 17.4671 23.9433 17.6362 23.83C18.3626 23.3577 18.9341 22.7516 19.3505 22.0118C19.767 21.2719 19.9753 20.4927 19.9753 19.6741C19.9753 18.8681 19.7811 18.1456 19.3928 17.5065C19.0045 16.8674 18.4816 16.3636 17.824 15.9953C17.1665 15.6269 16.4275 15.4427 15.6071 15.4427C14.8933 15.4427 14.2514 15.5608 13.6815 15.7969C13.1116 16.033 12.6607 16.362 12.3287 16.7839C11.9969 17.2058 11.8309 17.6938 11.8309 18.2479C11.8309 18.6698 11.9405 19.0366 12.1597 19.3483C12.3789 19.66 12.6826 19.9024 13.0708 20.0755C13.4591 20.2487 13.9101 20.3353 14.4236 20.3353C15.269 20.3353 16.1066 20.203 16.9364 19.9385C17.7661 19.6741 18.5458 19.301 19.2754 18.8193C20.005 18.3376 20.6484 17.7709 21.2058 17.1192C21.7632 16.4675 22.2015 15.7544 22.5209 14.9799C22.8403 14.2054 23 13.3931 23 12.5431C23 11.416 22.7714 10.3864 22.3143 9.45453C21.8571 8.52261 21.2246 7.71821 20.4167 7.04131C19.6089 6.36441 18.6774 5.84178 17.6221 5.47343C16.5669 5.10507 15.4444 4.92089 14.2545 4.92089C13.4654 4.92089 12.6748 4.9996 11.8826 5.15701C11.0904 5.31443 10.3279 5.53797 9.59522 5.82762ZM7.76345 14.7249C7.98889 14.7249 8.12354 14.6052 8.16737 14.366C8.29262 13.6859 8.41474 13.116 8.53373 12.6564C8.65272 12.1967 8.79832 11.8189 8.97053 11.523C9.14275 11.2271 9.36977 10.9909 9.65158 10.8146C9.93338 10.6383 10.2966 10.4966 10.7413 10.3896C11.1859 10.2826 11.7401 10.1818 12.404 10.0874C12.5166 10.0748 12.609 10.0307 12.6811 9.95515C12.7531 9.87958 12.7891 9.78828 12.7891 9.68124C12.7891 9.44194 12.6607 9.30655 12.404 9.27507C11.7401 9.18062 11.1827 9.08145 10.7319 8.97755C10.281 8.87365 9.9099 8.73355 9.6187 8.55725C9.3275 8.38094 9.09265 8.14481 8.91417 7.84886C8.73569 7.55292 8.59166 7.17511 8.48206 6.71545C8.37247 6.25579 8.26757 5.68594 8.16737 5.00589C8.13606 4.75403 8.00142 4.62809 7.76345 4.62809C7.538 4.62809 7.40336 4.75088 7.35952 4.99645C7.23427 5.67649 7.11372 6.24634 6.99786 6.706C6.88201 7.16567 6.73641 7.54347 6.56106 7.83942C6.38571 8.13536 6.15713 8.37149 5.87532 8.5478C5.59351 8.72411 5.23029 8.86578 4.78566 8.97283C4.34102 9.07987 3.78679 9.18062 3.12297 9.27507C3.01025 9.28767 2.91788 9.33174 2.84586 9.4073C2.77384 9.48286 2.73783 9.57418 2.73783 9.68124C2.73783 9.78828 2.77384 9.87958 2.84586 9.95515C2.91788 10.0307 3.01025 10.0748 3.12297 10.0874C3.78679 10.1818 4.34415 10.281 4.79504 10.3849C5.24594 10.4887 5.61699 10.6288 5.9082 10.8052C6.1994 10.9815 6.43424 11.216 6.61272 11.5088C6.7912 11.8016 6.93524 12.1794 7.04483 12.6423C7.15443 13.1051 7.25932 13.6765 7.35952 14.3566C7.39084 14.6021 7.52548 14.7249 7.76345 14.7249ZM3.51751 7.7733C3.69912 7.7733 3.80558 7.682 3.83689 7.4994C3.9183 7.09641 3.98406 6.78 4.03416 6.55016C4.08426 6.32034 4.16097 6.14718 4.2643 6.03068C4.36763 5.9142 4.53359 5.82604 4.76217 5.76622C4.99075 5.7064 5.32109 5.64186 5.7532 5.5726C5.94108 5.54112 6.03502 5.43407 6.03502 5.25147C6.03502 5.06886 5.94108 4.96181 5.7532 4.93034C5.32109 4.85477 4.99075 4.78551 4.76217 4.72254C4.53359 4.65958 4.36763 4.56985 4.2643 4.45335C4.16097 4.33687 4.08426 4.16686 4.03416 3.94332C3.98406 3.71979 3.9183 3.41282 3.83689 3.02243C3.80558 2.82723 3.69912 2.72963 3.51751 2.72963C3.34842 2.72963 3.24196 2.82723 3.19812 3.02243C3.11671 3.41282 3.04939 3.71979 2.99616 3.94332C2.94293 4.16686 2.86465 4.33687 2.76131 4.45335C2.65798 4.56985 2.49359 4.65958 2.26815 4.72254C2.0427 4.78551 1.71392 4.85477 1.28181 4.93034C1.09394 4.96181 1 5.06886 1 5.25147C1 5.43407 1.1002 5.54112 1.3006 5.5726C1.72644 5.64186 2.05209 5.7064 2.27754 5.76622C2.50299 5.82604 2.66738 5.9142 2.77071 6.03068C2.87404 6.14718 2.95075 6.31719 3.00086 6.54072C3.05095 6.76426 3.11671 7.07437 3.19812 7.47106C3.24196 7.67256 3.34842 7.7733 3.51751 7.7733ZM6.56106 3.4569C6.67378 3.4569 6.74267 3.39393 6.76771 3.268C6.83661 2.90909 6.8961 2.64935 6.9462 2.48878C6.9963 2.32821 7.1012 2.21487 7.26089 2.14876C7.42058 2.08264 7.69769 2.01495 8.09223 1.94569C8.21121 1.9205 8.2707 1.84809 8.2707 1.72845C8.2707 1.60881 8.21121 1.5364 8.09223 1.51121C7.69143 1.43565 7.41119 1.36481 7.25149 1.2987C7.0918 1.23258 6.98691 1.11924 6.93681 0.958676C6.88671 0.79811 6.83034 0.544667 6.76771 0.198347C6.74267 0.0661156 6.67378 0 6.56106 0C6.44833 0 6.37632 0.0661156 6.345 0.198347C6.26985 0.544667 6.20723 0.79811 6.15713 0.958676C6.10703 1.11924 6.0037 1.23258 5.84714 1.2987C5.69057 1.36481 5.41503 1.43565 5.0205 1.51121C4.90151 1.5364 4.84201 1.60881 4.84201 1.72845C4.84201 1.84809 4.90464 1.9205 5.02988 1.94569C5.42442 2.00866 5.69841 2.0732 5.85184 2.13931C6.00526 2.20542 6.10703 2.31877 6.15713 2.47934C6.20723 2.6399 6.26985 2.89649 6.345 3.24911C6.37632 3.38764 6.44833 3.4569 6.56106 3.4569Z" fill="black" fill-opacity="0.8"/>
</svg>
