<svg width="24" height="24" viewBox="0 0 24 24" fill="none" xmlns="http://www.w3.org/2000/svg">
<path d="M2 10.8317C2 11.967 2.22157 12.9752 2.66472 13.8565C3.10787 14.7376 3.72246 15.4802 4.50848 16.0841C5.29451 16.6881 6.2083 17.1469 7.24986 17.4603C8.29143 17.7739 9.40739 17.9307 10.5977 17.9307C10.8177 17.9307 11.0409 17.9257 11.2673 17.9159C11.4938 17.9059 11.7202 17.8911 11.9466 17.8713L11.607 16.4159C11.4517 16.4224 11.298 16.429 11.146 16.4356C10.994 16.4423 10.8436 16.4456 10.6948 16.4456C9.70498 16.4456 8.77501 16.3301 7.90488 16.099C7.03476 15.868 6.26653 15.5182 5.60019 15.0495C4.93385 14.5809 4.41145 13.9967 4.03299 13.297C3.65453 12.5973 3.46531 11.7788 3.46531 10.8416C3.46531 9.97689 3.64321 9.16996 3.99903 8.42079C4.35484 7.67161 4.84489 6.99505 5.46918 6.39109C6.09347 5.78713 6.80995 5.26897 7.61862 4.83663C8.42729 4.40429 9.28933 4.0726 10.2047 3.84159C11.1201 3.61056 12.0404 3.49505 12.9656 3.49505C13.9813 3.49505 14.9452 3.64851 15.8573 3.95544C16.7695 4.26237 17.5766 4.70132 18.2784 5.27228C18.9804 5.84323 19.5319 6.5264 19.933 7.32178C20.3341 8.11716 20.5346 9.00329 20.5346 9.98018C20.5346 10.8845 20.3211 11.7376 19.8942 12.5396C19.4672 13.3416 18.8963 14.0528 18.1814 14.6732C17.4666 15.2937 16.6708 15.7822 15.7942 16.1386C14.9176 16.495 14.0297 16.6733 13.1305 16.6733C12.7811 16.6733 12.4949 16.6073 12.2717 16.4753C12.0485 16.3433 11.9369 16.1584 11.9369 15.9208C11.9369 15.6435 12.0501 15.401 12.2765 15.193C12.503 14.9851 12.8086 14.8234 13.1935 14.7079C13.5785 14.5924 14.0038 14.5346 14.4696 14.5346C15.026 14.5346 15.5258 14.6634 15.9689 14.9208C16.4121 15.1782 16.7631 15.528 17.0218 15.9703C17.2806 16.4125 17.4099 16.9208 17.4099 17.495C17.4099 18.0891 17.2547 18.6584 16.9442 19.203C16.6336 19.7475 16.2099 20.1947 15.673 20.5445C15.5306 20.6501 15.4125 20.7607 15.3187 20.8762C15.2249 20.9917 15.178 21.1386 15.178 21.3169C15.178 21.5017 15.246 21.6617 15.3818 21.797C15.5177 21.9323 15.7021 22 15.9349 22C16.1031 22 16.2778 21.9406 16.459 21.8218C17.2029 21.3267 17.7916 20.6914 18.2251 19.9158C18.6585 19.1403 18.8752 18.3234 18.8752 17.4653C18.8752 16.6204 18.6747 15.863 18.2737 15.193C17.8725 14.5231 17.3307 13.995 16.6482 13.6089C15.9657 13.2227 15.2039 13.0297 14.3629 13.0297C13.619 13.0297 12.9526 13.1534 12.3639 13.4009C11.7752 13.6485 11.311 13.9933 10.9714 14.4356C10.6317 14.8778 10.4619 15.3894 10.4619 15.9703C10.4619 16.4125 10.5735 16.797 10.7967 17.1237C11.0199 17.4505 11.332 17.7046 11.7331 17.8862C12.1342 18.0676 12.6 18.1584 13.1305 18.1584C14.0103 18.1584 14.8772 18.0198 15.7312 17.7426C16.5851 17.4653 17.3889 17.0742 18.1426 16.5693C18.8963 16.0644 19.5626 15.4703 20.1416 14.7871C20.7207 14.104 21.1751 13.3564 21.505 12.5445C21.835 11.7326 22 10.8812 22 9.99011C22 8.80858 21.7622 7.72937 21.2867 6.75247C20.8112 5.77558 20.1562 4.93234 19.3216 4.22277C18.4871 3.5132 17.5248 2.96535 16.4347 2.57921C15.3447 2.19307 14.185 2 12.9558 2C11.8819 2 10.8177 2.13862 9.7632 2.41585C8.7087 2.69307 7.71404 3.08911 6.77922 3.60396C5.8444 4.11881 5.01957 4.73927 4.3047 5.46534C3.58984 6.19142 3.027 7.00495 2.6162 7.90594C2.2054 8.80692 2 9.78218 2 10.8317Z" fill="black" fill-opacity="0.8"/>
</svg>
