<svg width="24" height="24" viewBox="0 0 24 24" fill="none" xmlns="http://www.w3.org/2000/svg">
<path d="M2.65903 17H21.3409C22.224 17 22.888 16.7909 23.3329 16.3727C23.7776 15.9545 24 15.3364 24 14.5185V9.48155C24 8.66359 23.776 8.04551 23.3279 7.62731C22.8798 7.2091 22.2142 7 21.3312 7H2.64923C1.77269 7 1.11202 7.2091 0.667212 7.62731C0.222404 8.04551 0 8.66359 0 9.48155V14.5185C0 15.3364 0.224039 15.9545 0.672118 16.3727C1.1202 16.7909 1.7825 17 2.65903 17ZM2.89452 15.5148C2.47588 15.5148 2.15209 15.4071 1.92314 15.1919C1.6942 14.9766 1.57973 14.663 1.57973 14.2509V9.74908C1.57973 9.33087 1.6942 9.01569 1.92314 8.80351C2.15209 8.59133 2.47915 8.48524 2.90433 8.48524H21.0957C21.5143 8.48524 21.8381 8.59133 22.0671 8.80351C22.296 9.01569 22.4105 9.33087 22.4105 9.74908V14.2509C22.4105 14.663 22.296 14.9766 22.0671 15.1919C21.8381 15.4071 21.511 15.5148 21.0858 15.5148H2.89452ZM3.99346 15.9391H4.93541V8.06088H3.99346V15.9391ZM19.0646 15.9391H20.0065V8.06088H19.0646V15.9391ZM12.0001 12.4244C12.9878 12.4244 13.8708 12.2429 14.6493 11.8801C15.4277 11.5172 16.0556 11.0083 16.5331 10.3533C17.0107 9.69834 17.2854 8.93419 17.3573 8.06088H16.3075C16.2551 8.76814 16.0376 9.38622 15.655 9.91513C15.2723 10.444 14.7654 10.8546 14.1341 11.1467C13.5029 11.4388 12.7915 11.5849 12.0001 11.5849C11.2085 11.5849 10.4971 11.4388 9.86592 11.1467C9.23468 10.8546 8.72772 10.444 8.34506 9.91513C7.9624 9.38622 7.74163 8.76814 7.68275 8.06088H6.63287C6.71137 8.93419 6.98938 9.69834 7.46689 10.3533C7.9444 11.0083 8.574 11.5172 9.35569 11.8801C10.1374 12.2429 11.0188 12.4244 12.0001 12.4244ZM12.0001 10.2196C12.6673 10.2196 13.2249 10.0397 13.6729 9.67989C14.121 9.32011 14.3712 8.84194 14.4236 8.24538H9.57646C9.62879 8.84194 9.87899 9.32011 10.3271 9.67989C10.7752 10.0397 11.3328 10.2196 12.0001 10.2196Z" fill="black" fill-opacity="0.8"/>
</svg>
