<svg width="24" height="24" viewBox="0 0 24 24" fill="none" xmlns="http://www.w3.org/2000/svg">
<path d="M12 17.245C12.7255 17.245 13.4036 17.1078 14.0343 16.8333C14.665 16.5588 15.2222 16.1813 15.7058 15.701C16.1895 15.2206 16.567 14.665 16.8382 14.0343C17.1094 13.4036 17.245 12.7255 17.245 12C17.245 11.2745 17.1094 10.5948 16.8382 9.96078C16.567 9.32679 16.1895 8.7696 15.7058 8.28921C15.2222 7.80882 14.665 7.433 14.0343 7.16176C13.4036 6.89052 12.7255 6.7549 12 6.7549C11.2745 6.7549 10.5948 6.89052 9.96078 7.16176C9.32679 7.433 8.7696 7.80882 8.28921 8.28921C7.80882 8.7696 7.433 9.32679 7.16176 9.96078C6.89052 10.5948 6.7549 11.2745 6.7549 12C6.7549 12.9673 6.99183 13.8464 7.46568 14.6372C7.93953 15.4281 8.57188 16.0604 9.36273 16.5343C10.1536 17.0081 11.0327 17.245 12 17.245ZM12 15.5883C11.3399 15.5883 10.7386 15.4265 10.1961 15.103C9.65359 14.7794 9.22058 14.3464 8.89705 13.8039C8.57352 13.2614 8.41176 12.6601 8.41176 12C8.41176 11.3399 8.57352 10.7386 8.89705 10.1961C9.22058 9.65359 9.65359 9.22058 10.1961 8.89705C10.7386 8.57352 11.3399 8.41176 12 8.41176C12.6601 8.41176 13.2614 8.57352 13.8039 8.89705C14.3464 9.22058 14.7794 9.65359 15.103 10.1961C15.4265 10.7386 15.5883 11.3399 15.5883 12C15.5883 12.6601 15.4265 13.2614 15.103 13.8039C14.7794 14.3464 14.3464 14.7794 13.8039 15.103C13.2614 15.4265 12.6601 15.5883 12 15.5883ZM4.18627 17.7745L6.29411 19.8823L10.1863 15.9901L8.07843 13.8823L4.18627 17.7745ZM4.08823 6.21568L8.07843 10.2059L10.1863 8.09803L6.19608 4.10784L4.08823 6.21568ZM19.9313 6.23529L17.8235 4.12745L13.8529 8.09803L15.9607 10.2059L19.9313 6.23529ZM19.8431 17.7549L15.9706 13.8823L13.8529 16L17.7255 19.8725L19.8431 17.7549ZM12 22C13.366 22 14.652 21.7385 15.8578 21.2156C17.0637 20.6928 18.1274 19.9706 19.049 19.049C19.9706 18.1274 20.6928 17.0637 21.2156 15.8578C21.7385 14.652 22 13.366 22 12C22 10.634 21.7385 9.34803 21.2156 8.14214C20.6928 6.93627 19.9706 5.87255 19.049 4.95097C18.1274 4.02941 17.0621 3.30719 15.8529 2.78431C14.6438 2.26144 13.3562 2 11.9902 2C10.6242 2 9.33823 2.26144 8.13235 2.78431C6.92646 3.30719 5.86437 4.02941 4.94607 4.95097C4.02778 5.87255 3.30719 6.93627 2.78431 8.14214C2.26144 9.34803 2 10.634 2 12C2 13.366 2.26144 14.652 2.78431 15.8578C3.30719 17.0637 4.02941 18.1274 4.95097 19.049C5.87255 19.9706 6.93627 20.6928 8.14214 21.2156C9.34803 21.7385 10.634 22 12 22ZM12 20.3333C10.8431 20.3333 9.76143 20.1176 8.7549 19.6863C7.74836 19.2549 6.86437 18.6585 6.10293 17.8971C5.3415 17.1356 4.74673 16.2517 4.31862 15.2451C3.89052 14.2386 3.67647 13.1569 3.67647 12C3.67647 10.8431 3.89052 9.76143 4.31862 8.7549C4.74673 7.74836 5.33987 6.86274 6.09803 6.09803C6.8562 5.33333 7.73855 4.73692 8.74509 4.30882C9.75163 3.88072 10.8333 3.66667 11.9902 3.66667C13.1471 3.66667 14.2288 3.88072 15.2353 4.30882C16.2418 4.73692 17.1274 5.33333 17.8922 6.09803C18.6569 6.86274 19.2549 7.74836 19.6863 8.7549C20.1176 9.76143 20.3333 10.8431 20.3333 12C20.3333 13.1569 20.1193 14.2386 19.6912 15.2451C19.263 16.2517 18.6683 17.1356 17.9068 17.8971C17.1454 18.6585 16.2598 19.2549 15.2499 19.6863C14.2402 20.1176 13.1569 20.3333 12 20.3333Z" fill="black" fill-opacity="0.8"/>
</svg>
