<svg width="24" height="24" viewBox="0 0 24 24" fill="none" xmlns="http://www.w3.org/2000/svg">
<path d="M9.4847 18.146H15.4835C15.667 18.146 15.7588 18.0573 15.7588 17.8799V17.2435L5.74492 7.22193C5.70696 7.37392 5.67848 7.53382 5.65949 7.70164C5.64051 7.86946 5.63102 8.03886 5.63102 8.20984C5.63102 9.0331 5.74334 9.76136 5.96798 10.3946C6.19262 11.0279 6.47104 11.5963 6.80326 12.0997C7.13547 12.6032 7.4661 13.0718 7.79515 13.5056C8.1242 13.9394 8.40105 14.3653 8.62569 14.7832C8.85033 15.2012 8.96265 15.6382 8.96265 16.0941V17.614C8.96265 17.7723 9.01011 17.9005 9.10502 17.9987C9.19994 18.0969 9.32649 18.146 9.4847 18.146ZM12.9207 1C11.7121 1 10.6237 1.21215 9.65555 1.63644C8.68738 2.06073 7.88374 2.65601 7.24463 3.42227L17.7521 13.9568C18.0748 13.4819 18.4275 12.9752 18.8104 12.4369C19.1933 11.8986 19.5239 11.2891 19.8023 10.6084C20.0808 9.9276 20.22 9.12809 20.22 8.20984C20.22 7.13327 20.0459 6.15169 19.6978 5.26511C19.3498 4.37853 18.8547 3.6186 18.2124 2.98532C17.5701 2.35204 16.8013 1.86284 15.9059 1.5177C15.0105 1.17257 14.0154 1 12.9207 1ZM12.9302 23C13.582 23 14.1214 22.8607 14.5486 22.582C14.9757 22.3034 15.2114 21.9361 15.2557 21.4801H10.6047C10.649 21.9361 10.8832 22.3034 11.3071 22.582C11.7311 22.8607 12.2721 23 12.9302 23ZM9.85487 20.7107H16.0151C16.2555 20.7107 16.4612 20.6236 16.6321 20.4495C16.8029 20.2753 16.8883 20.0648 16.8883 19.8178C16.8883 19.5708 16.8029 19.3602 16.6321 19.1861C16.4612 19.0119 16.2555 18.9248 16.0151 18.9248H9.85487C9.60809 18.9248 9.39927 19.0119 9.22841 19.1861C9.05756 19.3602 8.97213 19.5708 8.97213 19.8178C8.97213 20.0648 9.05756 20.2753 9.22841 20.4495C9.39927 20.6236 9.60809 20.7107 9.85487 20.7107ZM19.2518 19.1433C19.3973 19.289 19.5698 19.3603 19.7691 19.3571C19.9684 19.3539 20.1408 19.2827 20.2864 19.1433C20.4256 18.9977 20.4968 18.8235 20.4999 18.6209C20.5031 18.4182 20.4319 18.2472 20.2864 18.1079L4.74828 2.53886C4.60274 2.3932 4.42714 2.32196 4.22148 2.32512C4.01583 2.3283 3.84339 2.39954 3.70418 2.53886C3.56497 2.67818 3.49694 2.85233 3.50011 3.06131C3.50327 3.27029 3.57129 3.44128 3.70418 3.57426L19.2518 19.1433Z" fill="black" fill-opacity="0.8"/>
</svg>
