<svg width="24" height="24" viewBox="0 0 24 24" fill="none" xmlns="http://www.w3.org/2000/svg">
<path d="M8.6981 18.1439H15.2928C15.4507 18.1439 15.5751 18.0964 15.6662 18.0013C15.7573 17.9063 15.8028 17.7796 15.8028 17.6212V16.1007C15.8028 15.6445 15.9106 15.2074 16.1262 14.7892C16.3418 14.3711 16.6074 13.945 16.9232 13.511C17.239 13.077 17.5562 12.6082 17.875 12.1045C18.1938 11.6009 18.461 11.0323 18.6766 10.3987C18.8922 9.76516 19 9.03658 19 8.21297C19 7.13593 18.833 6.15393 18.499 5.26696C18.165 4.37999 17.6898 3.61973 17.0735 2.98618C16.4571 2.35263 15.7193 1.86321 14.8601 1.51793C14.0008 1.17264 13.046 1 11.9954 1C10.951 1 9.99912 1.17264 9.13988 1.51793C8.28063 1.86321 7.54283 2.35263 6.92648 2.98618C6.31013 3.61973 5.83496 4.37999 5.50097 5.26696C5.16699 6.15393 5 7.13593 5 8.21297C5 9.03658 5.10779 9.76516 5.32336 10.3987C5.53893 11.0323 5.80611 11.6009 6.12491 12.1045C6.44372 12.6082 6.761 13.077 7.07677 13.511C7.39254 13.945 7.6582 14.3711 7.87377 14.7892C8.08934 15.2074 8.19713 15.6445 8.19713 16.1007V17.6212C8.19713 17.7796 8.24267 17.9063 8.33376 18.0013C8.42484 18.0964 8.54629 18.1439 8.6981 18.1439ZM9.55431 17.4882C9.55431 17.3361 9.55431 17.184 9.55431 17.032C9.55431 16.8799 9.55431 16.7279 9.55431 16.5759C9.55431 16.4238 9.55431 16.2717 9.55431 16.1197C9.55431 15.5621 9.44805 15.0458 9.23552 14.5706C9.02298 14.0955 8.75883 13.6298 8.44307 13.1737C8.1273 12.7175 7.81153 12.2455 7.49576 11.7577C7.18 11.2698 6.91433 10.7392 6.69876 10.1659C6.48319 9.59252 6.3754 8.94472 6.3754 8.22247C6.3754 7.06308 6.60919 6.0494 7.07677 5.18143C7.54435 4.31346 8.20017 3.63873 9.04423 3.15724C9.8883 2.67574 10.872 2.43499 11.9954 2.43499C13.1249 2.43499 14.1101 2.67574 14.9511 3.15724C15.7922 3.63873 16.448 4.31346 16.9186 5.18143C17.3893 6.0494 17.6246 7.06308 17.6246 8.22247C17.6246 8.94472 17.5168 9.59252 17.3012 10.1659C17.0856 10.7392 16.82 11.2698 16.5042 11.7577C16.1885 12.2455 15.8727 12.7175 15.5569 13.1737C15.2411 13.6298 14.977 14.0955 14.7645 14.5706C14.552 15.0458 14.4457 15.5621 14.4457 16.1197C14.4457 16.3478 14.4457 16.5758 14.4457 16.8039C14.4457 17.032 14.4457 17.2601 14.4457 17.4882L15.1743 16.7089H8.82562L9.55431 17.4882ZM12.0045 23C12.63 23 13.1477 22.8606 13.5576 22.5818C13.9674 22.3031 14.1936 21.9356 14.2361 21.4795H9.77293C9.81543 21.9356 10.0401 22.3031 10.447 22.5818C10.8538 22.8606 11.373 23 12.0045 23ZM9.05334 20.7097H14.9648C15.1956 20.7097 15.393 20.6226 15.5569 20.4484C15.7209 20.2742 15.8028 20.0635 15.8028 19.8164C15.8028 19.5693 15.7209 19.3587 15.5569 19.1844C15.393 19.0103 15.1956 18.9232 14.9648 18.9232H9.05334C8.81651 18.9232 8.61612 19.0103 8.45217 19.1844C8.28822 19.3587 8.20624 19.5693 8.20624 19.8164C8.20624 20.0635 8.28822 20.2742 8.45217 20.4484C8.61612 20.6226 8.81651 20.7097 9.05334 20.7097Z" fill="black" fill-opacity="0.8"/>
</svg>
