<svg width="24" height="24" viewBox="0 0 24 24" fill="none" xmlns="http://www.w3.org/2000/svg">
<path d="M9.4847 18.1439H15.7398C15.7968 18.1439 15.8347 18.1201 15.8537 18.0725C15.8727 18.0251 15.8664 17.976 15.8347 17.9253V17.5357L14.5628 16.2718V16.7089H10.3769V16.1101C10.3769 15.616 10.2725 15.1313 10.0637 14.6562C9.85487 14.181 9.59543 13.7169 9.28537 13.2639C8.9753 12.8109 8.66523 12.3659 8.35517 11.9288C8.0451 11.4916 7.78566 11.0623 7.57683 10.641C7.36802 10.2197 7.26361 9.80317 7.26361 9.39137C7.26361 9.28366 7.26994 9.18388 7.28259 9.09202C7.29525 9.00015 7.3174 8.90987 7.34904 8.82117L5.74492 7.24364C5.70696 7.38935 5.67848 7.54298 5.65949 7.70454C5.64051 7.8661 5.63102 8.0324 5.63102 8.20346C5.63102 9.02708 5.74334 9.75566 5.96798 10.3892C6.19262 11.0228 6.47104 11.5914 6.80326 12.0951C7.13547 12.5987 7.4661 13.0675 7.79515 13.5015C8.1242 13.9355 8.40105 14.3616 8.62569 14.7798C8.85033 15.1979 8.96265 15.635 8.96265 16.0911V17.6212C8.96265 17.7796 9.01011 17.9063 9.10502 18.0013C9.19994 18.0964 9.32649 18.1439 9.4847 18.1439ZM12.9207 2.43499C14.0977 2.43499 15.1244 2.67574 16.0008 3.15724C16.8772 3.63873 17.5607 4.31188 18.051 5.17668C18.5414 6.04147 18.7866 7.05357 18.7866 8.21297C18.7866 8.90353 18.6822 9.52441 18.4735 10.0756C18.2646 10.6268 18.0052 11.1384 17.6951 11.6104C17.3851 12.0824 17.0781 12.537 16.7744 12.9741L17.7521 13.9529C18.0748 13.4777 18.4275 12.9725 18.8104 12.4371C19.1933 11.9018 19.5239 11.292 19.8023 10.6078C20.0808 9.92355 20.22 9.12211 20.22 8.20346C20.22 7.12643 20.0459 6.14601 19.6978 5.2622C19.3498 4.37841 18.8547 3.61815 18.2124 2.98142C17.5701 2.34471 16.8013 1.85529 15.9059 1.51318C15.0105 1.17106 14.0154 1 12.9207 1C11.7058 1 10.6142 1.21224 9.64605 1.63672C8.67789 2.06119 7.87425 2.65673 7.23513 3.42332L8.27923 4.46868C8.79179 3.8288 9.44356 3.32988 10.2345 2.97193C11.0255 2.61397 11.9209 2.43499 12.9207 2.43499ZM12.9302 23C13.582 23 14.1214 22.8606 14.5486 22.5818C14.9757 22.3031 15.2114 21.9356 15.2557 21.4795H10.6047C10.649 21.9356 10.8832 22.3031 11.3071 22.5818C11.7311 22.8606 12.2721 23 12.9302 23ZM9.85487 20.7097H16.0151C16.2555 20.7097 16.4612 20.6226 16.6321 20.4484C16.8029 20.2742 16.8883 20.0635 16.8883 19.8164C16.8883 19.5693 16.8029 19.3587 16.6321 19.1844C16.4612 19.0103 16.2555 18.9232 16.0151 18.9232H9.85487C9.60809 18.9232 9.39927 19.0103 9.22841 19.1844C9.05756 19.3587 8.97213 19.5693 8.97213 19.8164C8.97213 20.0635 9.05756 20.2742 9.22841 20.4484C9.39927 20.6226 9.60809 20.7097 9.85487 20.7097ZM19.2518 19.1417C19.3973 19.2874 19.5698 19.3587 19.7691 19.3555C19.9684 19.3523 20.1408 19.2811 20.2864 19.1417C20.4256 18.996 20.4968 18.8218 20.4999 18.6191C20.5031 18.4163 20.4319 18.2452 20.2864 18.1058L4.74828 2.53003C4.60274 2.38431 4.42714 2.31304 4.22148 2.3162C4.01583 2.31937 3.84339 2.39064 3.70418 2.53003C3.56497 2.66941 3.49694 2.84363 3.50011 3.05271C3.50327 3.26177 3.57129 3.43283 3.70418 3.56588L19.2518 19.1417Z" fill="black" fill-opacity="0.8"/>
</svg>
