<svg width="24" height="24" viewBox="0 0 24 24" fill="none" xmlns="http://www.w3.org/2000/svg">
<path d="M12.1179 8.12373L10.8636 9.39387C11.486 9.44404 12.0095 9.56008 12.4338 9.74198C12.8582 9.92388 13.2244 10.1685 13.5324 10.4758C14.0795 11.0278 14.4441 11.6347 14.6265 12.2964C14.8088 12.9581 14.8103 13.6182 14.6311 14.2768C14.4519 14.9354 14.0889 15.5376 13.5419 16.0832L10.4581 19.1504C9.91111 19.6961 9.30755 20.0599 8.64741 20.2418C7.98727 20.4237 7.32555 20.4252 6.66227 20.2465C5.99898 20.0677 5.39385 19.7055 4.84688 19.1598C4.2999 18.6079 3.93525 18.001 3.75292 17.3393C3.5706 16.6776 3.5706 16.0174 3.75292 15.3588C3.93525 14.7002 4.2999 14.0981 4.84688 13.5524L6.69528 11.7083C6.56325 11.4135 6.47994 11.0984 6.44536 10.7628C6.41078 10.4272 6.41864 10.1058 6.46894 9.79843L3.69634 12.5551C2.94818 13.3078 2.44678 14.1389 2.19216 15.0483C1.93753 15.9578 1.93596 16.8688 2.18744 17.7815C2.43892 18.6941 2.94503 19.5299 3.70577 20.2889C4.47279 21.0541 5.31369 21.5621 6.22846 21.813C7.14323 22.0639 8.05643 22.0623 8.96805 21.8083C9.87968 21.5543 10.7096 21.0541 11.4577 20.3077L14.683 17.0806C15.4374 16.3279 15.942 15.4968 16.1966 14.5873C16.4512 13.6779 16.4528 12.7668 16.2013 11.8542C15.9498 10.9416 15.4406 10.1058 14.6736 9.34682C14.3781 9.04575 14.0291 8.7933 13.6268 8.58945C13.2244 8.38559 12.7214 8.23035 12.1179 8.12373ZM11.8821 15.8763L13.1364 14.6061C12.514 14.556 11.9906 14.4399 11.5662 14.258C11.1418 14.0761 10.7756 13.8315 10.4675 13.5242C9.91425 12.9722 9.54646 12.3654 9.36414 11.7036C9.18181 11.0419 9.18181 10.3818 9.36414 9.72317C9.54646 9.06457 9.91111 8.46243 10.4581 7.91675L13.5324 4.84959C14.0857 4.3039 14.6924 3.94011 15.3526 3.75821C16.0127 3.57632 16.6729 3.57475 17.333 3.75351C17.9932 3.93227 18.5999 4.29763 19.1532 4.84959C19.7001 5.39528 20.0648 5.99899 20.2471 6.66071C20.4294 7.32244 20.4294 7.9826 20.2471 8.64119C20.0648 9.29978 19.7001 9.90192 19.1532 10.4476L17.3047 12.2917C17.4368 12.5927 17.5201 12.9095 17.5546 13.2419C17.5892 13.5744 17.5814 13.8942 17.5311 14.2016L20.3037 11.4449C21.0518 10.6922 21.5532 9.86115 21.8078 8.95167C22.0625 8.04219 22.064 7.13114 21.8126 6.21852C21.561 5.3059 21.0549 4.47011 20.2942 3.71117C19.5272 2.94595 18.6863 2.43789 17.7715 2.187C16.8568 1.93611 15.9436 1.93768 15.032 2.1917C14.1203 2.44573 13.2873 2.94909 12.5328 3.70176L9.31698 6.91945C8.56254 7.67212 8.058 8.5032 7.80337 9.41268C7.54874 10.3222 7.54717 11.2332 7.79866 12.1458C8.05014 13.0584 8.55939 13.8942 9.32642 14.6532C9.62191 14.9543 9.97084 15.2067 10.3732 15.4106C10.7756 15.6144 11.2786 15.7697 11.8821 15.8763Z" fill="#007AFF"/>
</svg>
