<svg width="24" height="24" viewBox="0 0 24 24" fill="none" xmlns="http://www.w3.org/2000/svg">
<path d="M2.70664 20.2878C3.47404 21.053 4.31537 21.561 5.2306 21.8119C6.14583 22.0627 7.05949 22.0627 7.97157 21.8119C8.88366 21.561 9.71398 21.0592 10.4625 20.3066L12.5099 18.2651C12.4471 17.8888 12.4188 17.5077 12.4251 17.122C12.4314 16.7363 12.4817 16.349 12.576 15.9602C12.4502 16.142 12.3024 16.3208 12.1326 16.4964L9.46236 19.1494C8.91511 19.695 8.31125 20.0588 7.65077 20.2407C6.99029 20.4226 6.32825 20.4242 5.66463 20.2454C5.00101 20.0667 4.39557 19.7045 3.84832 19.1588C3.30107 18.6069 2.93623 18.0001 2.75381 17.3384C2.57139 16.6767 2.57139 16.0166 2.75381 15.3581C2.93623 14.6995 3.30107 14.0974 3.84832 13.5517L5.69765 11.7078C5.56555 11.413 5.48221 11.0978 5.44761 10.7623C5.41302 10.4267 5.42088 10.1053 5.4712 9.79797L2.6972 12.5545C1.94866 13.3071 1.44701 14.1381 1.19225 15.0476C0.937498 15.957 0.935925 16.868 1.18754 17.7805C1.43915 18.6931 1.94551 19.5289 2.70664 20.2878ZM9.86808 9.39343C10.4908 9.44361 11.0145 9.55964 11.4391 9.74153C11.8637 9.92341 12.23 10.168 12.5383 10.4753C12.9912 10.9269 13.3136 11.4193 13.5054 11.9524C13.6973 12.4855 13.7618 13.0217 13.6988 13.5611C13.8939 13.2413 14.1203 12.9449 14.3782 12.6721C14.6361 12.3993 14.9191 12.1562 15.2273 11.943C15.1015 11.4789 14.9113 11.0273 14.6565 10.5882C14.4018 10.1492 14.0763 9.73525 13.68 9.34639C13.3843 9.04534 13.0352 8.7929 12.6327 8.58906C12.2301 8.38522 11.7269 8.22999 11.123 8.12337L9.86808 9.39343ZM8.33012 14.6525C8.6006 14.9222 8.91511 15.1589 9.27366 15.3628C9.6322 15.5666 10.0757 15.7343 10.604 15.866C10.8053 15.6528 11.0035 15.4411 11.1985 15.231C11.3935 15.0209 11.5885 14.8124 11.7835 14.6054C11.2551 14.5176 10.8053 14.3827 10.4342 14.2009C10.0631 14.019 9.74228 13.7932 9.4718 13.5235C8.91826 12.9716 8.55028 12.3647 8.36786 11.703C8.18545 11.0414 8.18545 10.3813 8.36786 9.72271C8.55028 9.06415 8.91511 8.46205 9.46236 7.9164L12.5383 4.84942C13.0918 4.30376 13.6988 3.93999 14.3593 3.75811C15.0198 3.57622 15.6803 3.57466 16.3408 3.75341C17.0013 3.93216 17.6083 4.29749 18.1618 4.84942C18.7091 5.39508 19.0739 5.99875 19.2563 6.66044C19.4387 7.32213 19.4387 7.98225 19.2563 8.6408C19.0739 9.29936 18.7091 9.90146 18.1618 10.4471L17.473 11.1339C17.8001 11.0586 18.1571 11.0147 18.544 11.0022C18.9308 10.9896 19.2815 11.0147 19.5959 11.0774L19.8507 10.8046C20.4168 10.1022 20.7738 9.33228 20.9216 8.49498C21.0695 7.65768 21.0081 6.82351 20.7377 5.99248C20.4672 5.16145 19.9891 4.40098 19.3035 3.71107C18.5361 2.94589 17.6947 2.43787 16.7795 2.18699C15.8643 1.93611 14.9506 1.93768 14.0385 2.19169C13.1265 2.44571 12.293 2.94903 11.5382 3.70166L8.32068 6.91916C7.56586 7.67179 7.06106 8.50282 6.80631 9.41225C6.55155 10.3217 6.54998 11.2327 6.80159 12.1452C7.0532 13.0578 7.56271 13.8935 8.33012 14.6525Z" fill="black" fill-opacity="0.8"/>
<path fill-rule="evenodd" clip-rule="evenodd" d="M19.9193 21.6063C19.3156 21.8688 18.6759 22 18.0001 22C17.3176 22 16.6745 21.8704 16.0709 21.6113C15.4672 21.352 14.9358 20.9928 14.4764 20.5334C14.0171 20.0742 13.6562 19.5427 13.3937 18.939C13.1312 18.3353 13 17.689 13 17C13 16.311 13.1312 15.6663 13.3937 15.0659C13.6562 14.4655 14.0171 13.934 14.4764 13.4714C14.9358 13.0088 15.4672 12.6479 16.0709 12.3887C16.6745 12.1296 17.3176 12 18.0001 12C18.689 12 19.3353 12.1296 19.939 12.3887C20.5426 12.6479 21.0741 13.0071 21.5334 13.4665C21.9928 13.9258 22.352 14.4573 22.6113 15.061C22.8704 15.6647 23 16.311 23 17C23 17.6824 22.8688 18.3255 22.6063 18.9292C22.3438 19.5328 21.9813 20.0643 21.5187 20.5237C21.0561 20.983 20.523 21.3439 19.9193 21.6063ZM17.562 19.9626C17.6703 20.0742 17.8163 20.13 18.0001 20.13C18.1838 20.13 18.3297 20.0742 18.438 19.9626C18.5463 19.851 18.6004 19.7067 18.6004 19.5296V17.6004H20.5295C20.7067 17.6004 20.8511 17.5463 20.9626 17.438C21.0741 17.3297 21.1299 17.1837 21.1299 17C21.1299 16.8163 21.0741 16.6703 20.9626 16.562C20.8511 16.4537 20.7067 16.3996 20.5295 16.3996H18.6004V14.4704C18.6004 14.2933 18.5463 14.1489 18.438 14.0373C18.3297 13.9258 18.1838 13.87 18.0001 13.87C17.8163 13.87 17.6703 13.9258 17.562 14.0373C17.4538 14.1489 17.3997 14.2933 17.3997 14.4704V16.3996H15.4705C15.2933 16.3996 15.1489 16.4537 15.0374 16.562C14.9259 16.6703 14.8701 16.8163 14.8701 17C14.8701 17.1837 14.9259 17.3297 15.0374 17.438C15.1489 17.5463 15.2933 17.6004 15.4705 17.6004H17.3997V19.5296C17.3997 19.7067 17.4538 19.851 17.562 19.9626Z" fill="#34C759"/>
</svg>
