<svg width="24" height="24" viewBox="0 0 24 24" fill="none" xmlns="http://www.w3.org/2000/svg">
<path d="M4.85347 15.0012H5.53011C5.50784 14.7777 5.48974 14.5469 5.47582 14.309C5.46189 14.0711 5.46885 13.8403 5.4967 13.6167H4.94536C4.26036 13.6167 3.65333 13.4634 3.12426 13.1567C2.5952 12.8499 2.1803 12.4243 1.87957 11.8796C1.57884 11.335 1.42847 10.7072 1.42847 9.99632C1.42847 9.29116 1.57884 8.66626 1.87957 8.12162C2.1803 7.57699 2.5952 7.15132 3.12426 6.8446C3.65333 6.53788 4.26036 6.38453 4.94536 6.38453H12.3551C13.0345 6.38453 13.6387 6.53788 14.1678 6.8446C14.6968 7.15132 15.1131 7.57699 15.4167 8.12162C15.7202 8.66626 15.8719 9.29116 15.8719 9.99632C15.8719 10.7072 15.7216 11.335 15.4208 11.8796C15.1201 12.4243 14.7038 12.8499 14.172 13.1567C13.6401 13.4634 13.0345 13.6167 12.3551 13.6167H9.4229C9.38948 13.7027 9.3686 13.8045 9.36028 13.922C9.3519 14.0395 9.35606 14.1628 9.37277 14.2917C9.38948 14.4208 9.41733 14.5469 9.45634 14.6701C9.49529 14.7934 9.54542 14.9038 9.60672 15.0012H12.447C13.3937 15.0012 14.2318 14.7891 14.9614 14.3649C15.6909 13.9407 16.2632 13.353 16.6781 12.602C17.093 11.851 17.3004 10.9824 17.3004 9.99632C17.3004 9.01598 17.093 8.14886 16.6781 7.39497C16.2632 6.64108 15.6909 6.05344 14.9614 5.63206C14.2318 5.21069 13.3937 5 12.447 5H4.85347C3.90672 5 3.06857 5.21069 2.33903 5.63206C1.60947 6.05344 1.03725 6.64108 0.622347 7.39497C0.207449 8.14886 0 9.01598 0 9.99632C0 10.9824 0.207449 11.851 0.622347 12.602C1.03725 13.353 1.60947 13.9407 2.33903 14.3649C3.06857 14.7891 3.90672 15.0012 4.85347 15.0012ZM11.5531 19H19.1466C20.0933 19 20.9315 18.7879 21.661 18.3637C22.3906 17.9394 22.9628 17.3518 23.3777 16.6007C23.7926 15.8497 24 14.9812 24 13.9951C24 13.0147 23.7926 12.1476 23.3777 11.3937C22.9628 10.6399 22.3906 10.0522 21.661 9.63084C20.9315 9.20947 20.0933 8.99878 19.1466 8.99878H18.4615C18.4894 9.21663 18.5103 9.44595 18.5242 9.68674C18.5382 9.92753 18.5312 10.1597 18.5034 10.3833H19.0463C19.7313 10.3833 20.3383 10.5367 20.8674 10.8434C21.3965 11.1501 21.8128 11.5758 22.1163 12.1204C22.4198 12.665 22.5715 13.2899 22.5715 13.9951C22.5715 14.706 22.4198 15.3338 22.1163 15.8784C21.8128 16.423 21.3965 16.8487 20.8674 17.1554C20.3383 17.4622 19.7313 17.6155 19.0463 17.6155H11.645C10.96 17.6155 10.353 17.4622 9.82391 17.1554C9.29481 16.8487 8.87991 16.423 8.5792 15.8784C8.27847 15.3338 8.1281 14.706 8.1281 13.9951C8.1281 13.2899 8.27847 12.665 8.5792 12.1204C8.87991 11.5758 9.29481 11.1501 9.82391 10.8434C10.353 10.5367 10.96 10.3833 11.645 10.3833H14.5771C14.6161 10.2686 14.637 10.1282 14.6398 9.96193C14.6425 9.79567 14.623 9.62654 14.5813 9.45455C14.5396 9.28256 14.4741 9.13064 14.385 8.99878H11.5531C10.6064 8.99878 9.7682 9.20947 9.03864 9.63084C8.30909 10.0522 7.73687 10.6399 7.32197 11.3937C6.90707 12.1476 6.69963 13.0147 6.69963 13.9951C6.69963 14.9812 6.90707 15.8497 7.32197 16.6007C7.73687 17.3518 8.30909 17.9394 9.03864 18.3637C9.7682 18.7879 10.6064 19 11.5531 19Z" fill="black" fill-opacity="0.8"/>
</svg>
