<svg width="24" height="24" viewBox="0 0 24 24" fill="none" xmlns="http://www.w3.org/2000/svg">
<path d="M12 22C12.088 22 12.1962 21.9849 12.3246 21.9548C12.4529 21.9246 12.5868 21.8759 12.7261 21.8088C14.2958 21.0577 15.6106 20.3803 16.6705 19.7767C17.7304 19.173 18.5776 18.5761 19.212 17.9859C19.8465 17.3957 20.3032 16.7602 20.5819 16.0794C20.8606 15.3987 21 14.6056 21 13.7002V6.11469C21 5.59826 20.8808 5.22602 20.6424 4.99799C20.404 4.76995 20.0538 4.56875 19.5917 4.39436C19.335 4.29376 18.9829 4.16633 18.5355 4.01207C18.088 3.85781 17.5947 3.69014 17.0556 3.50906C16.5165 3.32797 15.9773 3.14688 15.4382 2.96579C14.8991 2.78471 14.4077 2.62207 13.9639 2.47787C13.5201 2.33367 13.1699 2.22133 12.9132 2.14085C12.7665 2.1006 12.6161 2.06707 12.4621 2.04024C12.308 2.01341 12.154 2 12 2C11.8459 2 11.6937 2.01341 11.5434 2.04024C11.393 2.06707 11.2445 2.1006 11.0978 2.14085C10.8411 2.22133 10.489 2.33367 10.0415 2.47787C9.59412 2.62207 9.10084 2.78303 8.56172 2.96076C8.0226 3.1385 7.48349 3.31959 6.94437 3.50403C6.40525 3.68847 5.91197 3.85949 5.46454 4.0171C5.01711 4.17471 4.66504 4.30047 4.40831 4.39436C3.95354 4.56204 3.60513 4.76157 3.36308 4.99296C3.12103 5.22435 3 5.59826 3 6.11469V13.7002C3 14.6056 3.14487 15.392 3.4346 16.0594C3.72433 16.7267 4.1901 17.3471 4.83191 17.9205C5.47371 18.4939 6.32456 19.0859 7.38446 19.6962C8.44436 20.3065 9.74081 21.0107 11.2738 21.8088C11.4132 21.8759 11.5471 21.9246 11.6754 21.9548C11.8038 21.9849 11.912 22 12 22ZM7.90708 15.7324V11.6076C7.90708 10.89 8.23715 10.5111 8.8973 10.4708V9.25352C8.8973 8.29444 9.18336 7.52314 9.75548 6.93964C10.3276 6.35614 11.0758 6.06439 12 6.06439C12.9242 6.06439 13.6723 6.35614 14.2445 6.93964C14.8166 7.52314 15.1027 8.29444 15.1027 9.25352V10.4708C15.7702 10.5111 16.1039 10.89 16.1039 11.6076V15.7324C16.1039 16.4902 15.7152 16.8692 14.9376 16.8692H9.06233C8.29216 16.8692 7.90708 16.4902 7.90708 15.7324ZM10.0856 10.4608H13.9144V9.13279C13.9144 8.52918 13.7402 8.04125 13.3918 7.66901C13.0434 7.29678 12.5794 7.11066 12 7.11066C11.4279 7.11066 10.9657 7.29678 10.6137 7.66901C10.2616 8.04125 10.0856 8.52918 10.0856 9.13279V10.4608Z" fill="black" fill-opacity="0.8"/>
</svg>
