<svg width="24" height="24" viewBox="0 0 24 24" fill="none" xmlns="http://www.w3.org/2000/svg">
<path d="M7.44943 20.7822H16.2712C16.6757 20.7822 17.0321 20.7231 17.3402 20.605L16.0594 19.3558C16.008 19.3682 15.9583 19.376 15.9101 19.3791C15.8619 19.3822 15.809 19.3838 15.7512 19.3838H7.50721C7.2825 19.3838 7.11556 19.3294 7.00641 19.2206C6.89726 19.1119 6.84268 18.927 6.84268 18.6659V12.0466C6.84268 11.7856 6.89726 11.6022 7.00641 11.4966C7.11556 11.3909 7.27929 11.3381 7.49758 11.3381C7.54253 11.3381 7.58747 11.3381 7.63242 11.3381C7.67735 11.3381 7.72229 11.3381 7.76724 11.3381L6.47672 10.0795C5.68699 10.353 5.29213 11.0398 5.29213 12.1399V18.5634C5.29213 19.3278 5.4719 19.8887 5.83145 20.2461C6.191 20.6035 6.73033 20.7822 7.44943 20.7822ZM11.8603 2.5C11.199 2.5 10.5666 2.61964 9.96307 2.85893C9.35954 3.09822 8.82984 3.45249 8.37398 3.92174C7.91813 4.391 7.57463 4.97368 7.34349 5.66979L8.5666 6.87243C8.65649 6.23226 8.85873 5.69464 9.17334 5.25958C9.48795 4.8245 9.87799 4.49509 10.3435 4.27135C10.809 4.0476 11.3146 3.93573 11.8603 3.93573C12.4639 3.93573 13.0192 4.07091 13.5264 4.34127C14.0337 4.61163 14.4414 5.01252 14.7496 5.54392C15.0578 6.07533 15.2118 6.73259 15.2118 7.51571V9.93966H11.7544L13.199 11.3381H16.2231C16.4478 11.3381 16.6131 11.3909 16.719 11.4966C16.825 11.6022 16.878 11.7856 16.878 12.0466V14.9087L18.4285 16.4191V12.1399C18.4285 11.4811 18.2905 10.9745 18.0144 10.6202C17.7383 10.266 17.321 10.0515 16.7624 9.97695V7.7115C16.7624 6.83514 16.6276 6.07066 16.3579 5.41806C16.0883 4.76546 15.7223 4.22318 15.26 3.79122C14.7977 3.35926 14.2728 3.03607 13.6854 2.82164C13.0979 2.60721 12.4895 2.5 11.8603 2.5ZM19.7384 21.2949C19.8796 21.4316 20.0545 21.5 20.2632 21.5C20.4719 21.5 20.6468 21.4316 20.7881 21.2949C20.9294 21.152 21 20.9811 21 20.7822C21 20.5833 20.9294 20.4155 20.7881 20.2787L4.27126 4.29932C4.13001 4.16258 3.95505 4.09266 3.74639 4.08955C3.53772 4.08644 3.35955 4.15637 3.21188 4.29932C3.07063 4.43605 3 4.60542 3 4.80742C3 5.00941 3.07063 5.17878 3.21188 5.31551L19.7384 21.2949Z" fill="black" fill-opacity="0.8"/>
</svg>
