<svg width="24" height="24" viewBox="0 0 24 24" fill="none" xmlns="http://www.w3.org/2000/svg">
<path d="M7.08345 20.3793H16.7817C16.8459 20.3793 16.9069 20.3778 16.9647 20.3748C17.0224 20.3719 17.077 20.3675 17.1284 20.3616L6.01444 10.1777C5.73836 10.313 5.52969 10.513 5.38844 10.7778C5.24719 11.0425 5.17656 11.3837 5.17656 11.8015V18.5348C5.17656 19.1702 5.33547 19.6365 5.65328 19.9336C5.9711 20.2307 6.44782 20.3793 7.08345 20.3793ZM11.87 2.5C11.1316 2.5 10.4334 2.63384 9.77527 2.90153C9.11716 3.16922 8.54573 3.56781 8.06099 4.09731C7.57623 4.6268 7.22792 5.2916 7.01605 6.09173C7.01605 6.1035 7.01444 6.11379 7.01122 6.12262C7.00801 6.13144 7.0032 6.14468 6.99677 6.16233L8.28731 7.34487C8.28731 7.30956 8.28891 7.27573 8.29212 7.24338C8.29533 7.21102 8.29693 7.17719 8.29693 7.14189C8.36756 6.4359 8.57142 5.83875 8.90849 5.35044C9.24557 4.86213 9.67093 4.49148 10.1846 4.23851C10.6982 3.98553 11.26 3.85904 11.87 3.85904C12.5313 3.85904 13.1332 4.00612 13.6757 4.30028C14.2183 4.59444 14.6517 5.02539 14.9759 5.59312C15.3001 6.16086 15.4622 6.85361 15.4622 7.67139V9.93938L11.138 9.94821L18.5537 16.7522V11.7926C18.5537 11.2219 18.4253 10.7866 18.1685 10.4865C17.9117 10.1865 17.5264 10.01 17.0128 9.95703V7.86553C17.0128 6.9654 16.8732 6.17851 16.5939 5.50488C16.3146 4.83124 15.9326 4.27233 15.4478 3.82815C14.9631 3.38396 14.4125 3.05156 13.7962 2.83093C13.1798 2.61031 12.5377 2.5 11.87 2.5ZM19.7384 21.3058C19.8796 21.4353 20.0545 21.5 20.2632 21.5C20.4719 21.5 20.6468 21.4353 20.7881 21.3058C20.9294 21.1705 21 21.0087 21 20.8204C21 20.6322 20.9294 20.4733 20.7881 20.3439L4.27126 5.21806C4.13001 5.08863 3.95505 5.02245 3.74639 5.01951C3.53772 5.01656 3.35955 5.08275 3.21188 5.21806C3.07063 5.3475 3 5.50782 3 5.69902C3 5.89023 3.07063 6.05055 3.21188 6.17998L19.7384 21.3058Z" fill="black" fill-opacity="0.8"/>
</svg>
