<svg width="24" height="24" viewBox="0 0 24 24" fill="none" xmlns="http://www.w3.org/2000/svg">
<path d="M12 22C12.0866 22 12.1949 21.9835 12.3249 21.9505C12.4549 21.9175 12.5884 21.868 12.7256 21.802C14.2708 21.01 15.5722 20.3086 16.6299 19.698C17.6877 19.0875 18.5379 18.4951 19.1804 17.9208C19.8231 17.3466 20.287 16.7245 20.5721 16.0545C20.8574 15.3845 21 14.5974 21 13.6931V6.11882C21 5.59737 20.8809 5.22443 20.6426 5C20.4043 4.77558 20.0541 4.57426 19.592 4.39605C19.3393 4.29704 18.9891 4.16997 18.5415 4.01485C18.0938 3.85974 17.6011 3.69142 17.0632 3.50991C16.5252 3.32839 15.9855 3.14852 15.444 2.9703C14.9025 2.79208 14.4079 2.63037 13.9603 2.48515C13.5126 2.33993 13.1624 2.22772 12.9097 2.14851C12.7653 2.10891 12.6155 2.07426 12.4603 2.04455C12.305 2.01485 12.1516 2 12 2C11.8484 2 11.6967 2.0165 11.5451 2.0495C11.3935 2.08251 11.2455 2.11551 11.1011 2.14851C10.8411 2.21452 10.4873 2.31848 10.0397 2.4604C9.59205 2.60231 9.09927 2.76403 8.56136 2.94555C8.02346 3.12707 7.48375 3.31023 6.94223 3.49506C6.40072 3.67987 5.90614 3.85149 5.45848 4.00991C5.01083 4.16832 4.66065 4.29704 4.40794 4.39605C3.95307 4.56767 3.60469 4.76734 3.36281 4.99506C3.12094 5.22278 3 5.59737 3 6.11882V13.6931C3 14.5974 3.1444 15.3829 3.43321 16.0495C3.72202 16.7162 4.18772 17.3366 4.83032 17.9109C5.47292 18.4851 6.3231 19.0792 7.38086 19.6932C8.43862 20.307 9.73645 21.01 11.2744 21.802C11.4115 21.868 11.5451 21.9175 11.6751 21.9505C11.805 21.9835 11.9133 22 12 22ZM12 20.208C11.9133 20.208 11.8195 20.1898 11.7184 20.1536C11.6173 20.1172 11.4874 20.0561 11.3285 19.9703C10.0794 19.2773 9.03067 18.6816 8.1823 18.1832C7.33393 17.6849 6.65703 17.2096 6.15162 16.7574C5.6462 16.3053 5.28158 15.8119 5.05776 15.2773C4.83393 14.7426 4.72201 14.0925 4.72201 13.3268V6.42575C4.72201 6.26073 4.74548 6.13697 4.79241 6.05446C4.83935 5.97195 4.93863 5.9043 5.09025 5.8515C5.41516 5.73268 5.79422 5.60066 6.22744 5.45545C6.66064 5.31024 7.11912 5.15842 7.60288 5C8.08664 4.84159 8.57039 4.68483 9.05414 4.52971C9.53789 4.37459 9.99638 4.22443 10.4296 4.07921C10.8628 3.934 11.2419 3.80199 11.5668 3.68317C11.6534 3.65017 11.7328 3.62707 11.805 3.61387C11.8772 3.60066 11.9422 3.59406 12 3.59406C12.0577 3.59406 12.1227 3.60066 12.1949 3.61387C12.2671 3.62707 12.3466 3.65017 12.4332 3.68317C12.7581 3.80199 13.1372 3.93565 13.5704 4.08416C14.0036 4.23268 14.4603 4.3878 14.9404 4.54951C15.4205 4.71122 15.9007 4.87129 16.3808 5.02971C16.8609 5.18812 17.3194 5.33829 17.7563 5.48021C18.1931 5.62212 18.5812 5.74589 18.9206 5.8515C19.065 5.8977 19.1606 5.96371 19.2076 6.04951C19.2545 6.13532 19.2779 6.26073 19.2779 6.42575V13.3268C19.2779 14.0925 19.1678 14.7426 18.9476 15.2773C18.7274 15.8119 18.3628 16.3037 17.8538 16.7525C17.3448 17.2014 16.666 17.6766 15.8176 18.1782C14.9693 18.6799 13.9206 19.2773 12.6715 19.9703C12.5126 20.0561 12.3827 20.1172 12.2816 20.1536C12.1805 20.1898 12.0866 20.208 12 20.208ZM8.09024 15.4258C8.09024 16.1519 8.45847 16.5149 9.19494 16.5149H14.805C15.5487 16.5149 15.9206 16.1519 15.9206 15.4258V11.4852C15.9206 10.8053 15.5992 10.4456 14.9566 10.406V9.23764C14.9566 8.32674 14.684 7.59077 14.1389 7.02972C13.5938 6.46866 12.8808 6.18813 12 6.18813C11.1191 6.18813 10.4061 6.46866 9.86099 7.02972C9.31587 7.59077 9.04331 8.32674 9.04331 9.23764V10.406C8.40793 10.4456 8.09024 10.8053 8.09024 11.4852V15.4258ZM10.1697 10.3961V9.12873C10.1697 8.54787 10.3375 8.07922 10.6733 7.72278C11.009 7.36635 11.4512 7.18813 12 7.18813C12.5487 7.18813 12.991 7.36635 13.3267 7.72278C13.6624 8.07922 13.8303 8.54787 13.8303 9.12873V10.3961H10.1697Z" fill="black" fill-opacity="0.8"/>
</svg>
