<svg width="24" height="24" viewBox="0 0 24 24" fill="none" xmlns="http://www.w3.org/2000/svg">
<path d="M1.5 12C1.5 13.2977 1.75071 14.5194 2.25212 15.6649C2.75353 16.8105 3.44611 17.8211 4.32984 18.6965C5.21359 19.572 6.23364 20.2582 7.39002 20.7549C8.5464 21.2516 9.77957 21.5 11.0895 21.5C12.1425 21.5 13.1485 21.3339 14.1074 21.0017C15.0663 20.6695 15.9485 20.2054 16.7539 19.6093C17.5593 19.0133 18.2566 18.3178 18.8457 17.5231C19.0087 17.3181 19.0698 17.1039 19.029 16.8804C18.9883 16.6569 18.8739 16.4861 18.6859 16.3681C18.4854 16.2502 18.2832 16.2176 18.0795 16.2703C17.8758 16.3231 17.7019 16.4457 17.5577 16.6382C17.0751 17.2964 16.5016 17.8708 15.8373 18.3613C15.1729 18.8518 14.438 19.232 13.6326 19.5021C12.8272 19.7723 11.9795 19.9105 11.0895 19.9166C9.98013 19.9166 8.94284 19.7133 7.97762 19.3066C7.0124 18.8999 6.16313 18.3333 5.42982 17.6068C4.6965 16.8804 4.12458 16.0391 3.71404 15.0829C3.30352 14.1267 3.09825 13.099 3.09825 12C3.09825 10.901 3.30352 9.87336 3.71404 8.91715C4.12458 7.96094 4.6965 7.12115 5.42982 6.39779C6.16313 5.67442 7.0124 5.10939 7.97762 4.70269C8.94284 4.29599 9.98013 4.09264 11.0895 4.09264C12.0422 4.09264 12.9447 4.24477 13.7971 4.54902C14.6495 4.85326 15.4205 5.28014 16.1099 5.82965C16.7993 6.37916 17.3822 7.02491 17.8586 7.7669C18.3349 8.5089 18.6734 9.32074 18.874 10.2024H17.5201C17.1879 10.2024 16.9795 10.3002 16.8949 10.4958C16.8103 10.6914 16.8589 10.9165 17.0407 11.1711L19.1466 14.1421C19.297 14.3533 19.4725 14.4604 19.6731 14.4634C19.8737 14.4665 20.0523 14.3594 20.2089 14.1421L22.3054 11.1804C22.4935 10.9196 22.5452 10.6914 22.4606 10.4958C22.376 10.3002 22.1676 10.2024 21.8354 10.2024H20.5004C20.2873 9.11584 19.8956 8.1053 19.3252 7.17083C18.7549 6.23635 18.0498 5.41829 17.2099 4.71667C16.37 4.01503 15.4299 3.47018 14.3895 3.08211C13.349 2.69404 12.249 2.5 11.0895 2.5C9.77957 2.5 8.5464 2.74837 7.39002 3.2451C6.23364 3.74183 5.21359 4.42794 4.32984 5.30343C3.44611 6.17892 2.75353 7.18946 2.25212 8.33504C1.75071 9.48063 1.5 10.7023 1.5 12ZM7.68617 15.6789C7.68617 16.3619 8.00582 16.7034 8.64513 16.7034H13.5151C14.1606 16.7034 14.4834 16.3619 14.4834 15.6789V11.972C14.4834 11.3325 14.2045 10.9941 13.6467 10.9569V9.85783C13.6467 9.00097 13.4101 8.30865 12.9369 7.78088C12.4637 7.2531 11.8448 6.98921 11.0801 6.98921C10.3155 6.98921 9.69652 7.2531 9.22331 7.78088C8.75011 8.30865 8.51351 9.00097 8.51351 9.85783V10.9569C7.96195 10.9941 7.68617 11.3325 7.68617 11.972V15.6789ZM9.49126 10.9475V9.75538C9.49126 9.20898 9.63698 8.76813 9.92842 8.43283C10.2199 8.09754 10.6038 7.9299 11.0801 7.9299C11.5565 7.9299 11.9404 8.09754 12.2318 8.43283C12.5233 8.76813 12.669 9.20898 12.669 9.75538V10.9475H9.49126Z" fill="black" fill-opacity="0.8"/>
</svg>
