<svg width="24" height="24" viewBox="0 0 24 24" fill="none" xmlns="http://www.w3.org/2000/svg">
<path d="M7.29912 21H16.7009C17.4673 21 18.0421 20.8241 18.4252 20.4722C18.8084 20.1203 19 19.5681 19 18.8154V12.4911C19 11.7506 18.8084 11.2045 18.4252 10.8526C18.0421 10.5008 17.4673 10.3248 16.7009 10.3248H7.29912C6.53275 10.3248 5.95797 10.5008 5.57478 10.8526C5.19159 11.2045 5 11.7506 5 12.4911V18.8154C5 19.5681 5.19159 20.1203 5.57478 20.4722C5.95797 20.8241 6.53275 21 7.29912 21ZM7.3607 19.6231C7.12121 19.6231 6.94331 19.5696 6.82698 19.4625C6.71066 19.3554 6.6525 19.1734 6.6525 18.9164V12.3993C6.6525 12.1423 6.71066 11.9617 6.82698 11.8577C6.94331 11.7537 7.12121 11.7017 7.3607 11.7017H16.6496C16.8891 11.7017 17.0653 11.7537 17.1781 11.8577C17.291 11.9617 17.3475 12.1423 17.3475 12.3993V18.9164C17.3475 19.1734 17.291 19.3554 17.1781 19.4625C17.0653 19.5696 16.8891 19.6231 16.6496 19.6231H7.3607ZM6.77566 11.05H8.42816V7.9383C8.42816 7.16726 8.59238 6.52014 8.92083 5.99694C9.24927 5.47374 9.68549 5.07904 10.2295 4.81285C10.7735 4.54666 11.3636 4.41357 12 4.41357C12.6432 4.41357 13.2351 4.54666 13.7757 4.81285C14.3162 5.07904 14.7507 5.47374 15.0792 5.99694C15.4076 6.52014 15.5719 7.16726 15.5719 7.9383V11.05H17.2244V8.13105C17.2244 7.26823 17.0807 6.51555 16.7933 5.87302C16.5058 5.23049 16.1158 4.69658 15.6232 4.27129C15.1305 3.846 14.5711 3.52779 13.945 3.31667C13.3189 3.10556 12.6706 3 12 3C11.3294 3 10.6828 3.10556 10.0601 3.31667C9.43744 3.52779 8.87977 3.846 8.3871 4.27129C7.89443 4.69658 7.50269 5.23049 7.21188 5.87302C6.92106 6.51555 6.77566 7.26823 6.77566 8.13105V11.05Z" fill="#8E8E93"/>
<path d="M7.3607 19.6231C7.12121 19.6231 6.94331 19.5696 6.82698 19.4625C6.71066 19.3554 6.6525 19.1734 6.6525 18.9164V12.3993C6.6525 12.1423 6.71066 11.9617 6.82698 11.8577C6.94331 11.7537 7.12121 11.7017 7.3607 11.7017H16.6496C16.8891 11.7017 17.0653 11.7537 17.1781 11.8577C17.291 11.9617 17.3475 12.1423 17.3475 12.3993V18.9164C17.3475 19.1734 17.291 19.3554 17.1781 19.4625C17.0653 19.5696 16.8891 19.6231 16.6496 19.6231H7.3607Z" fill="#8E8E93"/>
</svg>
