<svg width="24" height="24" viewBox="0 0 24 24" fill="none" xmlns="http://www.w3.org/2000/svg">
<path d="M4.95918 21H12.9708C13.6239 21 14.1137 20.8241 14.4402 20.4722C14.7667 20.1203 14.93 19.5681 14.93 18.8154V12.4911C14.93 11.7506 14.7667 11.2045 14.4402 10.8526C14.1137 10.5008 13.6239 10.3248 12.9708 10.3248H4.95918C4.30612 10.3248 3.81632 10.5008 3.48979 10.8526C3.16326 11.2045 3 11.7506 3 12.4911V18.8154C3 19.5681 3.16326 20.1203 3.48979 20.4722C3.81632 20.8241 4.30612 21 4.95918 21ZM5.01165 19.6231C4.80758 19.6231 4.65597 19.5696 4.55685 19.4625C4.45773 19.3554 4.40816 19.1734 4.40816 18.9164V12.3993C4.40816 12.1423 4.45773 11.9617 4.55685 11.8577C4.65597 11.7537 4.80758 11.7017 5.01165 11.7017H12.9271C13.1312 11.7017 13.2813 11.7537 13.3775 11.8577C13.4737 11.9617 13.5218 12.1423 13.5218 12.3993V18.9164C13.5218 19.1734 13.4737 19.3554 13.3775 19.4625C13.2813 19.5696 13.1312 19.6231 12.9271 19.6231H5.01165ZM12.1049 11.05H13.5131V7.9383C13.5131 7.16726 13.653 6.52014 13.9329 5.99694C14.2128 5.47374 14.5831 5.07904 15.0437 4.81285C15.5044 4.54666 16.0087 4.41357 16.5568 4.41357C17.0991 4.41357 17.602 4.54666 18.0656 4.81285C18.5292 5.07904 18.8994 5.47374 19.1763 5.99694C19.4533 6.52014 19.5918 7.16726 19.5918 7.9383V9.97603C19.5918 10.2575 19.6618 10.4671 19.8017 10.6048C19.9416 10.7425 20.1107 10.8113 20.309 10.8113C20.5014 10.8113 20.6646 10.7455 20.7988 10.614C20.9329 10.4824 21 10.2698 21 9.97603V8.13105C21 7.26823 20.8775 6.51555 20.6326 5.87302C20.3877 5.23049 20.0553 4.69658 19.6355 4.27129C19.2157 3.846 18.7405 3.52779 18.2099 3.31667C17.6793 3.10556 17.1283 3 16.5568 3C15.9854 3 15.4329 3.10556 14.8994 3.31667C14.3659 3.52779 13.8892 3.846 13.4694 4.27129C13.0495 4.69658 12.7172 5.23049 12.4723 5.87302C12.2274 6.51555 12.1049 7.26823 12.1049 8.13105V11.05Z" fill="black" fill-opacity="0.8"/>
<path d="M5.01165 19.6231C4.80758 19.6231 4.65597 19.5696 4.55685 19.4625C4.45773 19.3554 4.40816 19.1734 4.40816 18.9164V12.3993C4.40816 12.1423 4.45773 11.9617 4.55685 11.8577C4.65597 11.7537 4.80758 11.7017 5.01165 11.7017H12.9271C13.1312 11.7017 13.2813 11.7537 13.3775 11.8577C13.4737 11.9617 13.5218 12.1423 13.5218 12.3993V18.9164C13.5218 19.1734 13.4737 19.3554 13.3775 19.4625C13.2813 19.5696 13.1312 19.6231 12.9271 19.6231H5.01165Z" fill="black" fill-opacity="0.8"/>
</svg>
