<svg width="24" height="24" viewBox="0 0 24 24" fill="none" xmlns="http://www.w3.org/2000/svg">
<path d="M3.08654 20.6442C3.20833 20.6442 3.33333 20.6244 3.46154 20.5848C3.58975 20.5454 3.73077 20.483 3.88461 20.3978L8.77885 17.8981L14.0962 20.7263C14.4423 20.9088 14.8013 21 15.1731 21C15.5256 21 15.8462 20.9209 16.1346 20.7628L21.1635 18.0532C21.4519 17.9011 21.6634 17.7141 21.7981 17.4921C21.9327 17.2701 22 17.0071 22 16.703V4.41409C22 4.07957 21.9054 3.82108 21.7163 3.63862C21.5272 3.45616 21.2596 3.36493 20.9135 3.36493C20.7916 3.36493 20.6666 3.38469 20.5384 3.42423C20.4102 3.46376 20.266 3.52306 20.1058 3.60213L15.0096 6.29346L9.78847 3.25545C9.49359 3.08515 9.16987 3 8.81731 3C8.45833 3 8.1282 3.08515 7.82692 3.25545L2.82692 5.9559C2.54487 6.10795 2.33654 6.29498 2.20192 6.51698C2.06731 6.73897 2 7.00506 2 7.31525V19.5859C2 19.9265 2.09455 20.188 2.28365 20.3705C2.47276 20.5529 2.74039 20.6442 3.08654 20.6442ZM8.15385 16.4475L3.8173 18.7101C3.75321 18.7405 3.70513 18.7557 3.67308 18.7557C3.58975 18.7557 3.54808 18.707 3.54808 18.6097V7.67105C3.54808 7.56158 3.57212 7.46578 3.62019 7.38367C3.66827 7.30157 3.75 7.2301 3.86538 7.16928L7.80769 4.97972C7.87179 4.94931 7.93109 4.9189 7.98558 4.88849C8.04006 4.85808 8.09615 4.82767 8.15385 4.79726V16.4475ZM9.70193 16.5935V4.98885C9.75321 5.01318 9.80449 5.03902 9.85577 5.06639C9.90705 5.09376 9.95833 5.12265 10.0096 5.15307L14.298 7.63456V19.0385C14.2275 19.002 14.157 18.9671 14.0865 18.9336C14.016 18.9002 13.9455 18.8652 13.875 18.8287L9.70193 16.5935ZM15.8462 19.2028V7.54333L20.1827 5.29904C20.2468 5.26863 20.2917 5.25342 20.3173 5.25342C20.3622 5.25342 20.3959 5.26558 20.4183 5.28991C20.4407 5.31424 20.4519 5.35073 20.4519 5.39939V16.338C20.4519 16.4475 20.4279 16.5448 20.3798 16.6299C20.3318 16.7151 20.25 16.7881 20.1346 16.8489L16.2789 18.9746C16.2083 19.0172 16.1362 19.0568 16.0625 19.0933C15.9888 19.1298 15.9167 19.1663 15.8462 19.2028Z" fill="black" fill-opacity="0.8"/>
</svg>
