<svg width="24" height="24" viewBox="0 0 24 24" fill="none" xmlns="http://www.w3.org/2000/svg">
<path d="M2 19.6663C2 20.0036 2.09615 20.2642 2.28846 20.4482C2.48077 20.6321 2.75 20.7241 3.09615 20.7241C3.33333 20.7241 3.60256 20.6444 3.90384 20.485L7.94231 18.3971V3.15636C7.85897 3.19315 7.76923 3.23454 7.67308 3.28053C7.57692 3.32652 7.48718 3.37404 7.40384 3.4231L2.84615 5.92489C2.55769 6.07819 2.34455 6.26674 2.20673 6.49055C2.06891 6.71436 2 6.97957 2 7.28616V19.6663ZM9.25962 18.2223L14.1057 20.8253C14.1827 20.8621 14.258 20.8958 14.3317 20.9264C14.4054 20.9571 14.4775 20.9816 14.548 21V5.98928L9.79808 3.21155C9.71474 3.16249 9.6266 3.11957 9.53366 3.08278C9.44071 3.04599 9.34936 3.0184 9.25962 3V18.2223ZM15.8558 20.9724C15.9071 20.9602 15.9567 20.9433 16.0048 20.9218C16.0529 20.9004 16.0994 20.8774 16.1442 20.8529L21.1538 18.1304C21.4423 17.977 21.6555 17.7885 21.7932 17.5647C21.9311 17.3408 22 17.0756 22 16.769V4.37966C22 4.04241 21.9038 3.78181 21.7115 3.59786C21.5192 3.4139 21.25 3.32192 20.9038 3.32192C20.6667 3.32192 20.3974 3.40164 20.0961 3.56106L15.8558 5.81452V20.9724Z" fill="black" fill-opacity="0.8"/>
</svg>
