<svg width="24" height="24" viewBox="0 0 24 24" fill="none" xmlns="http://www.w3.org/2000/svg">
<path d="M8.7207 5.22564C8.7207 5.8054 8.83848 6.34235 9.07404 6.83646C9.30959 7.33058 9.63389 7.75222 10.0469 8.1014C10.46 8.45058 10.9278 8.69105 11.4506 8.82281V10.0284L13.2512 11.8665V8.82281C13.7739 8.69105 14.2418 8.45058 14.6548 8.1014C15.0678 7.75222 15.3938 7.33058 15.6326 6.83646C15.8714 6.34235 15.9908 5.8054 15.9908 5.22564C15.9908 4.54047 15.8278 3.91623 15.5019 3.35293C15.176 2.78964 14.7388 2.34 14.1902 2.004C13.6416 1.668 13.0285 1.5 12.3509 1.5C11.6797 1.5 11.0698 1.668 10.5213 2.004C9.97271 2.34 9.53547 2.78964 9.20957 3.35293C8.88365 3.91623 8.7207 4.54047 8.7207 5.22564ZM11.4506 17.9936C11.4506 18.7249 11.4796 19.3689 11.5377 19.9256C11.5958 20.4823 11.67 20.9517 11.7604 21.3338C11.8507 21.7159 11.9475 22.0058 12.0508 22.2035C12.154 22.4012 12.2541 22.5 12.3509 22.5C12.4735 22.5 12.6042 22.3484 12.7429 22.0453C12.8817 21.7423 12.9995 21.3025 13.0963 20.726C13.1931 20.1496 13.2415 19.4529 13.2415 18.636V17.2623L11.4506 15.4341V17.9936ZM11.3054 5.42328C10.9763 5.42328 10.6875 5.29646 10.439 5.04282C10.1905 4.78917 10.0663 4.49105 10.0663 4.14847C10.0663 3.80588 10.1905 3.50941 10.439 3.25905C10.6875 3.0087 10.9763 2.88353 11.3054 2.88353C11.6474 2.88353 11.9411 3.0087 12.1863 3.25905C12.4316 3.50941 12.5542 3.80588 12.5542 4.14847C12.5542 4.49105 12.4316 4.78917 12.1863 5.04282C11.9411 5.29646 11.6474 5.42328 11.3054 5.42328ZM18.227 20.7113C18.3754 20.8628 18.5529 20.9386 18.7594 20.9386C18.9659 20.9386 19.1402 20.8628 19.2821 20.7113C19.4241 20.5663 19.4967 20.3884 19.4999 20.1776C19.5031 19.9668 19.4305 19.7856 19.2821 19.6341L5.77782 5.85811C5.63585 5.71317 5.45837 5.6407 5.2454 5.6407C5.03243 5.6407 4.85495 5.71317 4.71297 5.85811C4.57099 6.00305 4.5 6.18258 4.5 6.3967C4.5 6.61081 4.57099 6.79034 4.71297 6.93528L18.227 20.7113Z" fill="black" fill-opacity="0.8"/>
</svg>
