<svg width="24" height="24" viewBox="0 0 24 24" fill="none" xmlns="http://www.w3.org/2000/svg">
<path d="M8.58546 17.9047C9.75587 17.5868 10.6941 17.0851 11.4 16.3995C12.106 15.7139 12.5645 14.8765 12.7754 13.8873C12.9862 12.8981 12.9281 11.7914 12.6012 10.5673L11.265 5.58565C11.085 4.91194 10.777 4.45291 10.3411 4.20857C9.90512 3.96423 9.34599 3.93457 8.6637 4.11961L1.62019 5.99131C0.933132 6.1716 0.465224 6.47761 0.216463 6.90936C-0.0322975 7.34111 -0.0666504 7.89858 0.113405 8.58179L1.43539 13.5635C1.7576 14.7828 2.25749 15.7685 2.93506 16.5205C3.61264 17.2725 4.43119 17.7695 5.39069 18.0114C6.3502 18.2534 7.41512 18.2178 8.58546 17.9047ZM8.27986 16.7731C7.35116 17.0198 6.50419 17.0447 5.73896 16.8478C4.97372 16.651 4.32102 16.2489 3.78085 15.6416C3.24069 15.0343 2.8403 14.2396 2.57969 13.2575L1.2577 8.32559C1.17241 8.0077 1.18663 7.74913 1.30035 7.54987C1.41407 7.3506 1.62729 7.20589 1.94002 7.11575L8.94798 5.23693C9.26069 5.15153 9.51892 5.16932 9.72266 5.29031C9.92644 5.41129 10.0686 5.63073 10.1491 5.9486L11.464 10.8805C11.7294 11.8673 11.7791 12.7581 11.6133 13.5528C11.4474 14.3475 11.0838 15.02 10.5223 15.5704C9.96077 16.1207 9.21329 16.5217 8.27986 16.7731ZM7.89609 15.3142C8.64471 15.1055 9.2441 14.7366 9.69427 14.2076C10.1444 13.6785 10.3813 13.0606 10.405 12.3537C10.4097 12.1734 10.3481 12.0548 10.2202 11.9978C10.0923 11.9409 9.95252 11.9717 9.80089 12.0903C9.31758 12.4319 8.84492 12.6822 8.38291 12.8411C7.92095 13.0001 7.56913 13.1127 7.32745 13.1792C7.08581 13.2456 6.72452 13.3263 6.24359 13.4212C5.76265 13.516 5.22367 13.535 4.62664 13.4781C4.43711 13.4544 4.30089 13.4994 4.21796 13.6133C4.13504 13.7272 4.14333 13.8552 4.24284 13.9976C4.61716 14.6001 5.13127 15.0188 5.78516 15.2537C6.43904 15.4885 7.14268 15.5087 7.89609 15.3142ZM4.42053 10.7809C4.67639 10.7144 4.8754 10.7132 5.01755 10.7773C5.1597 10.8413 5.28527 10.8591 5.39425 10.8307C5.47006 10.8117 5.52218 10.7571 5.55061 10.667C5.57904 10.5768 5.57667 10.4677 5.54351 10.3396C5.46769 10.0217 5.28408 9.77977 4.99267 9.61371C4.70127 9.44765 4.3992 9.41207 4.08647 9.50697C3.76901 9.58762 3.52499 9.77028 3.3544 10.0549C3.18383 10.3396 3.14355 10.6385 3.23358 10.9517C3.27148 11.0845 3.32598 11.1829 3.39705 11.247C3.46812 11.311 3.54157 11.3336 3.61738 11.3146C3.72163 11.2814 3.81876 11.2007 3.90879 11.0726C3.99881 10.9445 4.16939 10.8473 4.42053 10.7809ZM8.62811 9.63507C8.88401 9.56864 9.08301 9.56745 9.22513 9.6315C9.36729 9.69555 9.49286 9.71572 9.60184 9.692C9.67768 9.66827 9.731 9.61134 9.76181 9.5212C9.79257 9.43105 9.78901 9.32193 9.75111 9.19383C9.67532 8.87595 9.49291 8.63516 9.20388 8.47148C8.91479 8.30779 8.6139 8.2734 8.30118 8.36829C7.97901 8.4442 7.73262 8.62568 7.56202 8.91272C7.39143 9.19976 7.35116 9.49747 7.44121 9.80586C7.4791 9.93871 7.53359 10.0383 7.60467 10.1048C7.67576 10.1712 7.74919 10.1925 7.82498 10.1688C7.93396 10.1356 8.03228 10.055 8.11996 9.92685C8.20763 9.79875 8.37702 9.70149 8.62811 9.63507ZM15.4158 19.7408C16.5814 20.0492 17.6428 20.0824 18.5999 19.8404C19.5571 19.5984 20.3732 19.1015 21.0484 18.3495C21.7237 17.5975 22.2247 16.6118 22.5516 15.3925L23.8878 10.4179C24.0679 9.74419 24.0312 9.19027 23.7777 8.75615C23.5242 8.32203 23.0539 8.01245 22.3669 7.82742L15.3305 5.94149C14.6482 5.7612 14.0914 5.79441 13.6602 6.04112C13.229 6.28784 12.921 6.75042 12.7363 7.42888L12.1534 9.5639L12.6367 12.311L13.8521 7.7776C13.9374 7.45972 14.0796 7.24266 14.2786 7.12642C14.4776 7.01018 14.7335 6.99476 15.0462 7.08016L22.0541 8.95186C22.3668 9.03726 22.5801 9.18197 22.6938 9.38598C22.8075 9.58999 22.8217 9.85331 22.7364 10.1759L21.4145 15.1007C21.1539 16.0875 20.7535 16.8834 20.2133 17.4884C19.6731 18.0933 19.0216 18.493 18.2588 18.6876C17.4959 18.8821 16.6454 18.856 15.7072 18.6092C14.6221 18.3103 13.7846 17.8027 13.1947 17.0863C12.6048 16.3699 12.3122 15.4921 12.3169 14.4531L11.3503 16.2109C11.6204 17.0791 12.1013 17.8122 12.7931 18.41C13.4849 19.0078 14.3591 19.4514 15.4158 19.7408ZM15.1883 12.2256C15.4489 12.2967 15.6989 12.2647 15.9382 12.1294C16.1774 11.9942 16.3326 11.7938 16.4037 11.5281C16.4748 11.2624 16.4416 11.0098 16.3042 10.7702C16.1668 10.5306 15.963 10.3728 15.693 10.2969C15.4324 10.2258 15.1836 10.2601 14.9467 10.4001C14.7098 10.5401 14.5534 10.7429 14.4775 11.0086C14.4065 11.2743 14.4409 11.5257 14.5806 11.763C14.7204 12.0002 14.923 12.1544 15.1883 12.2256ZM19.3604 13.3429C19.6257 13.4093 19.8769 13.3737 20.1138 13.2361C20.3507 13.0985 20.5047 12.8969 20.5758 12.6312C20.6468 12.3655 20.6137 12.114 20.4762 11.8769C20.3388 11.6396 20.1375 11.4854 19.8722 11.4142C19.6068 11.3431 19.3557 11.3751 19.1187 11.5103C18.8818 11.6455 18.7302 11.846 18.6639 12.1117C18.588 12.3774 18.6188 12.63 18.7563 12.8696C18.8937 13.1092 19.0951 13.267 19.3604 13.3429ZM16.3682 16.0686C16.7614 16.173 17.1275 16.3212 17.4663 16.5134C17.805 16.7055 18.1592 16.9677 18.5289 17.2998C18.671 17.4279 18.8131 17.4599 18.9553 17.3958C19.0974 17.3318 19.1638 17.2049 19.1543 17.0151C19.1306 16.3888 18.9055 15.8349 18.4791 15.3534C18.0526 14.8718 17.4982 14.5432 16.8159 14.3677C16.1336 14.1827 15.488 14.1922 14.8791 14.3962C14.2703 14.6002 13.7976 14.9655 13.4612 15.4921C13.3617 15.6439 13.3582 15.7863 13.4505 15.9191C13.5429 16.052 13.6839 16.0971 13.8735 16.0544C14.3473 15.9499 14.7832 15.8989 15.1812 15.9013C15.5792 15.9037 15.9749 15.9594 16.3682 16.0686Z" fill="black" fill-opacity="0.8"/>
</svg>
