<svg width="24" height="24" viewBox="0 0 24 24" fill="none" xmlns="http://www.w3.org/2000/svg">
<path d="M8.57818 17.8991C9.74859 17.5858 10.688 17.0851 11.3964 16.3968C12.1049 15.7085 12.5645 14.8707 12.7753 13.8835C12.9862 12.8961 12.9258 11.7902 12.5941 10.5656L11.2649 5.58159C11.0849 4.91231 10.7757 4.45544 10.3374 4.21099C9.89906 3.96654 9.3411 3.9345 8.66348 4.11487L1.61964 5.98742C0.937293 6.17254 0.470548 6.47989 0.219405 6.90946C-0.0317378 7.33903 -0.067277 7.89557 0.112788 8.57909L1.43484 13.5559C1.7618 14.7758 2.2629 15.7619 2.93814 16.5143C3.61339 17.2666 4.4296 17.7638 5.38679 18.0059C6.34397 18.248 7.40777 18.2124 8.57818 17.8991ZM7.91009 15.3501C7.16612 15.54 6.46007 15.5174 5.79193 15.2825C5.1238 15.0475 4.60018 14.6263 4.2211 14.0187C4.14528 13.9048 4.13462 13.804 4.18912 13.7161C4.24361 13.6283 4.34194 13.5891 4.48409 13.5987C4.95321 13.6366 5.44839 13.6224 5.96963 13.5559C6.49087 13.4895 6.95525 13.4017 7.36276 13.2925C7.76079 13.1881 8.19909 13.0362 8.67767 12.8368C9.1563 12.6374 9.59225 12.4001 9.98553 12.1248C10.104 12.0394 10.2107 12.0216 10.3054 12.0714C10.4002 12.1213 10.4452 12.2198 10.4404 12.3669C10.412 13.0789 10.1703 13.7019 9.71543 14.2359C9.26053 14.7699 8.65875 15.1413 7.91009 15.3501ZM4.32772 10.6724C4.14766 10.7246 4.01261 10.791 3.92258 10.8717C3.83254 10.9524 3.75791 11.0272 3.69868 11.096C3.63945 11.1648 3.57192 11.204 3.49611 11.2135C3.43924 11.223 3.38238 11.2004 3.32552 11.1458C3.26866 11.0912 3.22601 11.0117 3.19758 10.9073C3.11228 10.6035 3.15138 10.3128 3.31486 10.0351C3.47834 9.75744 3.71408 9.58063 4.02209 9.50468C4.33009 9.42873 4.62151 9.46908 4.89635 9.62572C5.17118 9.78236 5.34888 10.0078 5.42943 10.3021C5.4626 10.4113 5.46734 10.5038 5.44365 10.5798C5.41995 10.6557 5.37968 10.7032 5.32282 10.7222C5.23752 10.7554 5.14867 10.7566 5.05627 10.7257C4.96387 10.6949 4.85962 10.6676 4.74353 10.6439C4.62744 10.6201 4.48883 10.6296 4.32772 10.6724ZM8.66348 9.49756C8.48817 9.54977 8.35432 9.61622 8.26193 9.69692C8.1695 9.77761 8.09368 9.85118 8.03448 9.91763C7.97524 9.98409 7.90769 10.0221 7.83185 10.0316C7.77974 10.0458 7.72525 10.0244 7.66838 9.96747C7.61151 9.91052 7.5665 9.8322 7.53336 9.73252C7.44806 9.43348 7.48833 9.14393 7.65419 8.86388C7.82004 8.58383 8.05459 8.40583 8.35786 8.32989C8.67059 8.24919 8.96318 8.28835 9.23564 8.44736C9.50814 8.60638 9.68467 8.83303 9.76521 9.12732C9.79835 9.23649 9.80308 9.32905 9.77941 9.405C9.75573 9.48095 9.71545 9.52841 9.65858 9.5474C9.57328 9.58062 9.48444 9.58181 9.39205 9.55096C9.29966 9.52011 9.19541 9.49281 9.0793 9.46908C8.96318 9.44535 8.82458 9.45484 8.66348 9.49756ZM22.3673 7.83149L15.3306 5.9447C14.7051 5.77382 14.178 5.78332 13.7491 5.97318C13.3203 6.16305 13.0158 6.53566 12.8358 7.09101L12.7504 7.39717L13.5324 10.3164C13.9256 11.7736 13.9718 13.1003 13.6709 14.2964C13.3701 15.4925 12.7647 16.4893 11.8549 17.2868C12.2008 17.8659 12.6771 18.3643 13.2836 18.7819C13.8901 19.1997 14.6033 19.5177 15.423 19.736C16.584 20.0493 17.6419 20.0837 18.5967 19.8393C19.5515 19.5948 20.3665 19.0964 21.0417 18.3441C21.717 17.5918 22.2181 16.6056 22.5451 15.3857L23.8884 10.416C24.0685 9.74201 24.0306 9.18903 23.7747 8.75709C23.5188 8.32514 23.0497 8.01661 22.3673 7.83149ZM15.2027 12.1462C14.961 12.0845 14.7762 11.9444 14.6483 11.7261C14.5203 11.5078 14.4895 11.2728 14.5559 11.0212C14.6222 10.7792 14.7643 10.594 14.9823 10.4659C15.2003 10.3377 15.4325 10.3069 15.6789 10.3733C15.9253 10.4398 16.1125 10.5845 16.2404 10.8076C16.3683 11.0307 16.3991 11.2633 16.3328 11.5054C16.2665 11.7522 16.1231 11.9373 15.9028 12.0607C15.6825 12.1842 15.4491 12.2126 15.2027 12.1462ZM19.375 13.264C19.1333 13.1976 18.9497 13.054 18.8241 12.8333C18.6986 12.6126 18.6689 12.3788 18.7353 12.132C18.7969 11.8851 18.9367 11.7 19.1546 11.5766C19.3726 11.4532 19.6048 11.4247 19.8512 11.4911C20.1023 11.5528 20.2907 11.6941 20.4163 11.9148C20.5419 12.1355 20.5715 12.3693 20.5051 12.6161C20.4387 12.8582 20.2966 13.0433 20.0786 13.1714C19.8607 13.2996 19.6261 13.3305 19.375 13.264ZM16.3826 15.9981C16.013 15.8936 15.641 15.8402 15.2667 15.8379C14.8923 15.8355 14.4777 15.8842 14.0228 15.9839C13.8806 16.0171 13.7752 15.9862 13.7065 15.8913C13.6378 15.7963 13.6413 15.6919 13.7172 15.578C13.9209 15.2552 14.1851 14.9989 14.5096 14.809C14.8343 14.6192 15.1908 14.5005 15.5794 14.453C15.9679 14.4056 16.3636 14.4388 16.7664 14.5528C17.3871 14.7094 17.893 15.0072 18.2839 15.4463C18.6748 15.8854 18.8798 16.3897 18.8987 16.9592C18.9082 17.1017 18.8596 17.1966 18.753 17.2441C18.6464 17.2915 18.541 17.2678 18.4367 17.1729C18.0813 16.8501 17.7437 16.5974 17.4238 16.4146C17.104 16.2319 16.7569 16.093 16.3826 15.9981Z" fill="black" fill-opacity="0.8"/>
</svg>
