<svg width="24" height="24" viewBox="0 0 24 24" fill="none" xmlns="http://www.w3.org/2000/svg">
<path d="M12.0039 18C13.1658 18 14.2322 17.8931 15.2031 17.6793C16.174 17.4654 17.0167 17.1617 17.7311 16.7679C18.4456 16.3742 18.9977 15.9035 19.3876 15.3559C19.7776 14.8083 19.9726 14.2034 19.9726 13.5411V9.62972C19.9726 8.84745 19.6651 8.18644 19.0501 7.64667C18.4351 7.10691 17.5361 6.69752 16.3533 6.41851C15.1705 6.1395 13.7207 6 12.0039 6C10.2872 6 8.83611 6.1395 7.65064 6.41851C6.46517 6.69752 5.56494 7.10691 4.94996 7.64667C4.33497 8.18644 4.02748 8.84745 4.02748 9.62972V13.5411C4.02748 14.2034 4.22244 14.8083 4.61236 15.3559C5.00229 15.9035 5.55447 16.3742 6.26889 16.7679C6.98332 17.1617 7.82598 17.4654 8.79688 17.6793C9.76775 17.8931 10.8368 18 12.0039 18ZM7.74878 10.3181C7.74878 10.1408 7.81289 9.98826 7.94112 9.86049C8.06936 9.73272 8.22245 9.66883 8.40038 9.66883H15.6075C15.7907 9.66883 15.9464 9.73272 16.0746 9.86049C16.2028 9.98826 16.267 10.1408 16.267 10.3181C16.267 10.5006 16.2028 10.6558 16.0746 10.7836C15.9464 10.9113 15.7907 10.9752 15.6075 10.9752H8.40038C8.22245 10.9752 8.06936 10.9113 7.94112 10.7836C7.81289 10.6558 7.74878 10.5006 7.74878 10.3181ZM7.74878 13.3377C7.74878 13.1551 7.81289 13 7.94112 12.8722C8.06936 12.7444 8.22245 12.6806 8.40038 12.6806H15.6075C15.7907 12.6806 15.9464 12.7444 16.0746 12.8722C16.2028 13 16.267 13.1551 16.267 13.3377C16.267 13.515 16.2028 13.6675 16.0746 13.7953C15.9464 13.9231 15.7907 13.9869 15.6075 13.9869H8.40038C8.22245 13.9869 8.06936 13.9231 7.94112 13.7953C7.81289 13.6675 7.74878 13.515 7.74878 13.3377ZM0 11.1395C0 11.9791 0.191037 12.721 0.573111 13.365C0.955185 14.0091 1.49035 14.5124 2.17861 14.8748C2.86686 15.2373 3.67157 15.4185 4.59274 15.4185H5.10305V14.159H4.46713C3.83383 14.159 3.27642 14.0299 2.7949 13.7718C2.31338 13.5137 1.93785 13.1564 1.66831 12.7001C1.39876 12.2438 1.26399 11.7236 1.26399 11.1395C1.26399 10.7066 1.37652 10.3651 1.60157 10.1147C1.82663 9.8644 2.14851 9.73924 2.56722 9.73924H4.78116V8.47978H2.56722C2.0229 8.47978 1.5597 8.58669 1.17762 8.80051C0.795551 9.01433 0.503762 9.31942 0.302258 9.71577C0.100753 10.1121 0 10.5867 0 11.1395ZM24 11.1395C24 10.5867 23.8992 10.1121 23.6977 9.71577C23.4963 9.31942 23.2045 9.01433 22.8224 8.80051C22.4403 8.58669 21.9771 8.47978 21.4328 8.47978H19.2188V9.73924H21.4328C21.8515 9.73924 22.1734 9.8644 22.3984 10.1147C22.6235 10.3651 22.736 10.7066 22.736 11.1395C22.736 11.7236 22.6012 12.2438 22.3317 12.7001C22.0622 13.1564 21.6879 13.5137 21.209 13.7718C20.7301 14.0299 20.1714 14.159 19.5329 14.159H18.897V15.4185H19.4151C20.3311 15.4185 21.1332 15.2373 21.8214 14.8748C22.5097 14.5124 23.0448 14.0091 23.4269 13.365C23.809 12.721 24 11.9791 24 11.1395Z" fill="black" fill-opacity="0.8"/>
</svg>
