<svg width="24" height="24" viewBox="0 0 24 24" fill="none" xmlns="http://www.w3.org/2000/svg">
<path d="M12.0039 18C13.1658 18 14.2322 17.8931 15.2031 17.6793C16.174 17.4654 17.0167 17.1617 17.7311 16.7679C18.4456 16.3742 18.9977 15.9035 19.3876 15.3559C19.7776 14.8083 19.9726 14.2034 19.9726 13.5411V9.62972C19.9726 8.84745 19.6651 8.18644 19.0501 7.64667C18.4351 7.10691 17.5361 6.69752 16.3533 6.41851C15.1705 6.1395 13.7207 6 12.0039 6C10.2872 6 8.83611 6.1395 7.65064 6.41851C6.46517 6.69752 5.56494 7.10691 4.94996 7.64667C4.33497 8.18644 4.02748 8.84745 4.02748 9.62972V13.5411C4.02748 14.2034 4.22244 14.8083 4.61236 15.3559C5.00229 15.9035 5.55447 16.3742 6.26889 16.7679C6.98332 17.1617 7.82598 17.4654 8.79688 17.6793C9.76775 17.8931 10.8368 18 12.0039 18ZM12.0039 16.7405C11.0304 16.7405 10.1354 16.661 9.31895 16.502C8.50248 16.3429 7.79329 16.1186 7.19137 15.8292C6.58947 15.5397 6.12366 15.1995 5.79392 14.8083C5.46418 14.4172 5.29932 13.9948 5.29932 13.5411V9.62972C5.29932 9.11864 5.55709 8.68709 6.07262 8.33507C6.58816 7.98305 7.34446 7.71577 8.34153 7.53324C9.33856 7.35072 10.5594 7.25945 12.0039 7.25945C13.4432 7.25945 14.6614 7.35072 15.6585 7.53324C16.6555 7.71577 17.4132 7.98305 17.9313 8.33507C18.4495 8.68709 18.7086 9.11864 18.7086 9.62972V13.5411C18.7086 13.9948 18.5424 14.4172 18.21 14.8083C17.8776 15.1995 17.4105 15.5397 16.8086 15.8292C16.2068 16.1186 15.4976 16.3429 14.6811 16.502C13.8646 16.661 12.9722 16.7405 12.0039 16.7405ZM7.88224 10.3651C7.88224 10.5371 7.94375 10.6858 8.06675 10.8109C8.18975 10.9361 8.33759 10.9987 8.51028 10.9987H15.5054C15.6781 10.9987 15.826 10.9361 15.949 10.8109C16.072 10.6858 16.1335 10.5371 16.1335 10.3651C16.1335 10.1982 16.072 10.0521 15.949 9.92698C15.826 9.80182 15.6781 9.73924 15.5054 9.73924H8.51028C8.33759 9.73924 8.18975 9.80182 8.06675 9.92698C7.94375 10.0521 7.88224 10.1982 7.88224 10.3651ZM7.88224 13.2907C7.88224 13.4628 7.94375 13.6102 8.06675 13.7327C8.18975 13.8553 8.33759 13.9165 8.51028 13.9165H15.5054C15.6781 13.9165 15.826 13.8553 15.949 13.7327C16.072 13.6102 16.1335 13.4628 16.1335 13.2907C16.1335 13.1186 16.072 12.97 15.949 12.8448C15.826 12.7197 15.6781 12.6571 15.5054 12.6571H8.51028C8.33759 12.6571 8.18975 12.7197 8.06675 12.8448C7.94375 12.97 7.88224 13.1186 7.88224 13.2907ZM0 11.1395C0 11.9791 0.191037 12.721 0.573111 13.365C0.955185 14.0091 1.49035 14.5124 2.17861 14.8748C2.86686 15.2373 3.67157 15.4185 4.59274 15.4185H5.10305V14.159H4.46713C3.83383 14.159 3.27642 14.0299 2.7949 13.7718C2.31338 13.5137 1.93785 13.1564 1.66831 12.7001C1.39876 12.2438 1.26399 11.7236 1.26399 11.1395C1.26399 10.7066 1.37652 10.3651 1.60157 10.1147C1.82663 9.8644 2.14851 9.73924 2.56722 9.73924H4.78116V8.47978H2.56722C2.0229 8.47978 1.5597 8.58669 1.17762 8.80051C0.795551 9.01433 0.503762 9.31942 0.302258 9.71577C0.100753 10.1121 0 10.5867 0 11.1395ZM24 11.1395C24 10.5867 23.8992 10.1121 23.6977 9.71577C23.4963 9.31942 23.2045 9.01433 22.8224 8.80051C22.4403 8.58669 21.9771 8.47978 21.4328 8.47978H19.2188V9.73924H21.4328C21.8515 9.73924 22.1734 9.8644 22.3984 10.1147C22.6235 10.3651 22.736 10.7066 22.736 11.1395C22.736 11.7236 22.6012 12.2438 22.3317 12.7001C22.0622 13.1564 21.6879 13.5137 21.209 13.7718C20.7301 14.0299 20.1714 14.159 19.5329 14.159H18.897V15.4185H19.4151C20.3311 15.4185 21.1332 15.2373 21.8214 14.8748C22.5097 14.5124 23.0448 14.0091 23.4269 13.365C23.809 12.721 24 11.9791 24 11.1395Z" fill="black" fill-opacity="0.8"/>
</svg>
