<svg width="24" height="24" viewBox="0 0 24 24" fill="none" xmlns="http://www.w3.org/2000/svg">
<path d="M2.15152 18.8953C1.88863 19.8798 1.96783 20.6433 2.38914 21.1859C2.81045 21.7286 3.53004 22 4.54791 22H19.4521C20.4699 22 21.1895 21.7286 21.6109 21.1859C22.0322 20.6433 22.1114 19.8798 21.8485 18.8953L19.6139 10.443C19.4319 9.74885 19.083 9.20933 18.5673 8.82441C18.0517 8.43949 17.4164 8.24703 16.6613 8.24703H7.33866C6.58368 8.24703 5.94835 8.43949 5.43267 8.82441C4.91699 9.20933 4.56814 9.74885 4.38613 10.443L2.15152 18.8953ZM3.7289 18.99L5.90285 10.973C6.11856 10.1716 6.6376 9.77093 7.45999 9.77093H16.54C17.3624 9.77093 17.8814 10.1716 18.0971 10.973L20.2711 18.99C20.4059 19.4759 20.3807 19.845 20.1953 20.0975C20.0099 20.3499 19.6913 20.4761 19.2397 20.4761H4.75015C4.30524 20.4761 3.98842 20.3499 3.79968 20.0975C3.61093 19.845 3.58734 19.4759 3.7289 18.99ZM11.181 9.35446H12.8089V6.65688H11.181V9.35446ZM12 7.39517C12.5258 7.39517 13.0078 7.2737 13.4459 7.03075C13.8841 6.78781 14.2346 6.46284 14.4975 6.05584C14.7604 5.64884 14.8918 5.19924 14.8918 4.70705C14.8918 4.21486 14.7587 3.76368 14.4925 3.35352C14.2262 2.94336 13.874 2.61524 13.4358 2.36914C12.9977 2.12305 12.519 2 12 2C11.4742 2 10.9922 2.12305 10.5541 2.36914C10.1159 2.61524 9.76539 2.94336 9.50249 3.35352C9.2396 3.76368 9.10815 4.21486 9.10815 4.70705C9.10815 5.19924 9.2396 5.64884 9.50249 6.05584C9.76539 6.46284 10.1159 6.78781 10.5541 7.03075C10.9922 7.2737 11.4742 7.39517 12 7.39517ZM12 6.0795C11.5955 6.0795 11.2484 5.94383 10.9585 5.6725C10.6687 5.40116 10.5237 5.07934 10.5237 4.70705C10.5237 4.33475 10.6687 4.00978 10.9585 3.73213C11.2484 3.45448 11.5955 3.31566 12 3.31566C12.3977 3.31566 12.7432 3.45448 13.0364 3.73213C13.3296 4.00978 13.4762 4.33475 13.4762 4.70705C13.4762 5.07934 13.3313 5.40116 13.0415 5.6725C12.7516 5.94383 12.4045 6.0795 12 6.0795Z" fill="black" fill-opacity="0.8"/>
</svg>
