<svg width="24" height="24" viewBox="0 0 24 24" fill="none" xmlns="http://www.w3.org/2000/svg">
<path d="M5.25268 6.70642C3.86458 6.70642 2.80878 7.02861 2.08527 7.67299C1.36176 8.31738 1 9.25385 1 10.4824V11.8555C1 13.084 1.36176 14.0205 2.08527 14.6648C2.80878 15.3093 3.86458 15.6315 5.25268 15.6315H7.54108V6.70642H5.25268ZM8.88661 15.6405C9.85566 15.7428 10.8345 15.9009 11.8232 16.1147C12.8119 16.3285 13.7891 16.595 14.755 16.9142C15.7207 17.2334 16.6586 17.6067 17.5687 18.0343C17.5687 18.0102 17.5687 17.9846 17.5687 17.9576C17.5687 17.9305 17.5687 17.9049 17.5687 17.8808V4.39386C17.5687 4.38181 17.5687 4.36826 17.5687 4.35321C17.5687 4.33815 17.5687 4.3246 17.5687 4.31256C16.6521 4.74616 15.6928 5.12557 14.6911 5.45077C13.6893 5.77597 12.6924 6.04396 11.7004 6.25474C10.7085 6.46553 9.77054 6.61608 8.88661 6.70642V15.6405ZM18.9143 18.3956C18.9143 18.769 18.9994 19.0973 19.1696 19.3803C19.3399 19.6634 19.5772 19.8832 19.8817 20.0398C20.1861 20.1964 20.5414 20.2746 20.9473 20.2746C21.3598 20.2746 21.7199 20.1964 22.0277 20.0398C22.3354 19.8832 22.5744 19.6634 22.7446 19.3803C22.9149 19.0973 23 18.769 23 18.3956V3.88799C23 3.50858 22.9149 3.17736 22.7446 2.89431C22.5744 2.61126 22.3354 2.39145 22.0277 2.23487C21.7199 2.07829 21.3598 2 20.9473 2C20.5414 2 20.1861 2.07829 19.8817 2.23487C19.5772 2.39145 19.3399 2.61126 19.1696 2.89431C18.9994 3.17736 18.9143 3.50858 18.9143 3.88799V18.3956ZM9.31875 22C9.73125 22 10.0963 21.9142 10.4138 21.7426C10.7314 21.5709 10.9622 21.321 11.1062 20.9927C11.2503 20.6645 11.2667 20.2626 11.1554 19.7868L10.5071 16.9684C10.3434 16.9082 10.0865 16.857 9.73616 16.8148C9.38586 16.7727 9.02247 16.7411 8.64598 16.72C8.2695 16.6989 7.95358 16.6853 7.69822 16.6794H5.17411L7.03035 20.3831C7.29226 20.8949 7.59345 21.2924 7.93393 21.5754C8.2744 21.8585 8.73601 22 9.31875 22Z" fill="black" fill-opacity="0.8"/>
</svg>
