<svg width="24" height="24" viewBox="0 0 24 24" fill="none" xmlns="http://www.w3.org/2000/svg">
<path d="M1 11.9453C1 13.1851 1.35034 14.13 2.05101 14.7803C2.75169 15.4305 3.77417 15.7557 5.11846 15.7557H8.5521C9.40813 15.8468 10.2689 15.9836 11.1345 16.1659C12 16.3482 12.8608 16.5761 13.7168 16.8496C14.5728 17.1231 15.4146 17.4406 16.2421 17.8022C17.0696 18.1638 17.8701 18.5694 18.6437 19.0191V17.4056C17.8828 16.962 17.0981 16.567 16.2896 16.2206C15.4812 15.8742 14.6505 15.5734 13.7976 15.3181C12.9448 15.0629 12.0761 14.8502 11.1916 14.68C10.307 14.5098 9.40812 14.3792 8.49502 14.2881H5.11846C4.20536 14.2881 3.5459 14.1042 3.14008 13.7365C2.73426 13.3688 2.53135 12.7718 2.53135 11.9453V10.5597C2.53135 9.73321 2.73426 9.13613 3.14008 8.76846C3.5459 8.40079 4.20536 8.21695 5.11846 8.21695H8.39991C9.33203 8.12579 10.2499 7.99361 11.1535 7.82041C12.0571 7.64721 12.94 7.43299 13.8024 7.17776C14.6648 6.92251 15.5018 6.62169 16.3135 6.27529C17.1251 5.9289 17.9019 5.53692 18.6437 5.09936V3.48587C17.8955 3.93558 17.0997 4.34427 16.2564 4.71194C15.413 5.07961 14.5506 5.40018 13.6692 5.67366C12.7879 5.94713 11.9176 6.17502 11.0583 6.35734C10.1991 6.53965 9.38276 6.67031 8.60916 6.74931H5.11846C3.77417 6.74931 2.75169 7.07444 2.05101 7.7247C1.35034 8.37495 1 9.31995 1 10.5597V11.9453ZM10.15 15.701H8.71379L9.54128 19.7028C9.59835 19.9824 9.55555 20.2057 9.41288 20.3728C9.27021 20.54 9.07522 20.6235 8.82793 20.6235C8.59965 20.6235 8.4221 20.5673 8.29528 20.4549C8.16846 20.3424 8.04482 20.1646 7.92434 19.9216L5.77475 15.5278H4.23389L6.49762 20.3227C6.76394 20.8879 7.08575 21.3087 7.46303 21.5852C7.84032 21.8617 8.3048 22 8.85646 22C9.31301 22 9.71566 21.8997 10.0644 21.6991C10.4132 21.4986 10.6684 21.2114 10.8301 20.8378C10.9918 20.464 11.0187 20.0158 10.911 19.4931L10.15 15.701ZM7.24903 7.47857V15.0264H8.78037V7.47857H7.24903ZM18.1587 18.1258C18.1587 18.5877 18.2585 18.9933 18.4583 19.3427C18.658 19.6922 18.9402 19.9626 19.3047 20.154C19.6694 20.3455 20.0927 20.4412 20.5746 20.4412C21.0628 20.4412 21.4876 20.3455 21.8491 20.154C22.2105 19.9626 22.4927 19.6922 22.6956 19.3427C22.8985 18.9933 23 18.5877 23 18.1258V4.32452C23 3.85657 22.8985 3.44941 22.6956 3.10301C22.4927 2.75661 22.2105 2.48617 21.8491 2.2917C21.4876 2.09723 21.0628 2 20.5746 2C20.0927 2 19.6694 2.09723 19.3047 2.2917C18.9402 2.48617 18.658 2.75661 18.4583 3.10301C18.2585 3.44941 18.1587 3.85657 18.1587 4.32452V18.1258ZM19.6901 18.1258V4.32452C19.6901 4.0632 19.7709 3.85506 19.9326 3.70009C20.0942 3.54512 20.3083 3.46764 20.5746 3.46764C20.8409 3.46764 21.0565 3.54512 21.2213 3.70009C21.3862 3.85506 21.4686 4.0632 21.4686 4.32452V18.1258C21.4686 18.381 21.3862 18.5861 21.2213 18.7411C21.0565 18.8961 20.8409 18.9736 20.5746 18.9736C20.3083 18.9736 20.0942 18.8961 19.9326 18.7411C19.7709 18.5861 19.6901 18.381 19.6901 18.1258Z" fill="black" fill-opacity="0.8"/>
</svg>
