<svg width="24" height="24" viewBox="0 0 24 24" fill="none" xmlns="http://www.w3.org/2000/svg">
<path d="M5.90741 12.0418L3.36111 17.0506C3.12037 17.5338 3 18.017 3 18.5003C3 18.9463 3.10339 19.3599 3.31018 19.7409C3.51697 20.1219 3.81327 20.427 4.19907 20.6562C4.58487 20.8854 5.04938 21 5.59259 21H18.4074C18.9506 21 19.4151 20.8854 19.8009 20.6562C20.1867 20.427 20.483 20.1219 20.6898 19.7409C20.8966 19.3599 21 18.9463 21 18.5003C21 18.017 20.8796 17.5307 20.6389 17.0414L14.2037 4.38462C13.9938 3.96335 13.6821 3.62726 13.2685 3.37636C12.8549 3.12545 12.4321 3 12 3C11.5679 3 11.1451 3.12545 10.7315 3.37636C10.3179 3.62726 10.0062 3.96335 9.79629 4.38462L7.56481 8.77078L8.6574 9.85803L11.0648 5.0444C11.1697 4.84616 11.304 4.68663 11.4676 4.56583C11.6312 4.44502 11.8086 4.38462 12 4.38462C12.1975 4.38462 12.3765 4.44502 12.537 4.56583C12.6975 4.68663 12.8302 4.84616 12.9352 5.0444L17.9907 15.1549H6.00926L7.01851 13.1569L5.90741 12.0418ZM5.59259 19.541C5.25309 19.541 4.9892 19.4311 4.80092 19.2111C4.61265 18.9913 4.51851 18.7357 4.51851 18.4445C4.51851 18.3454 4.52932 18.2447 4.55092 18.1425C4.57253 18.0403 4.60802 17.9396 4.65741 17.8405L5.28703 16.5953L18.7037 16.5767L19.3425 17.8405C19.4413 18.0511 19.4907 18.2493 19.4907 18.4352C19.4907 18.7264 19.395 18.9835 19.2036 19.2065C19.0123 19.4295 18.7469 19.541 18.4074 19.541H5.59259ZM12.7778 13.984V7.46981C12.7778 7.24058 12.7114 7.05628 12.5787 6.91688C12.446 6.77749 12.2654 6.70779 12.037 6.70779C11.8086 6.70779 11.6296 6.77749 11.5 6.91688C11.3704 7.05628 11.3055 7.24058 11.3055 7.46981V12.5065L12.7778 13.984ZM11.5278 16.2886L12.5741 15.2293L4.58333 7.21889C4.42901 7.06402 4.25617 6.98658 4.06482 6.98658C3.87346 6.98658 3.69753 7.06402 3.53704 7.21889C3.37037 7.37997 3.29012 7.55808 3.2963 7.75323C3.30247 7.94838 3.38272 8.12649 3.53704 8.28756L11.5278 16.2886Z" fill="black" fill-opacity="0.8"/>
</svg>
