<svg width="24" height="24" viewBox="0 0 24 24" fill="none" xmlns="http://www.w3.org/2000/svg">
<path d="M2.90522 21.3921H13.2783C13.2719 21.348 13.2671 21.3038 13.264 21.2597C13.2608 21.2156 13.2561 21.1714 13.2497 21.1272L12.2591 10.8272C12.2146 10.4047 12.2765 10.0201 12.4448 9.67328C12.6131 9.32647 12.8608 9.04903 13.1878 8.84094C13.5148 8.63286 13.891 8.52882 14.3165 8.52882H16.8979C16.8979 8.23877 16.8693 8.00546 16.8121 7.8289C16.755 7.65235 16.6534 7.46633 16.5073 7.27086L14.688 4.87791V3.08083C14.688 2.41244 14.4959 1.89854 14.1118 1.53912C13.7276 1.17971 13.1767 1 12.4591 1H4.43879C3.72122 1 3.17034 1.17971 2.78616 1.53912C2.40196 1.89854 2.20987 2.41244 2.20987 3.08083V4.87791L0.400063 7.27086C0.241308 7.47895 0.134942 7.676 0.0809651 7.86201C0.0269884 8.04802 0 8.30497 0 8.63286V18.5451C0 19.491 0.242895 20.202 0.728686 20.678C1.21448 21.1541 1.93999 21.3921 2.90522 21.3921ZM5.86758 4.6982C5.70248 4.6982 5.5596 4.6383 5.43895 4.51849C5.31829 4.39869 5.25797 4.25366 5.25797 4.08341C5.25797 3.91316 5.31829 3.76656 5.43895 3.6436C5.5596 3.52064 5.70248 3.45916 5.86758 3.45916H11.0017C11.1668 3.45916 11.3097 3.52064 11.4304 3.6436C11.551 3.76656 11.6114 3.91316 11.6114 4.08341C11.6114 4.25366 11.551 4.39869 11.4304 4.51849C11.3097 4.6383 11.1668 4.6982 11.0017 4.6982H5.86758ZM16.5645 23H20.9747C21.6034 23 22.0797 22.8376 22.4036 22.5129C22.7274 22.1882 22.9242 21.6853 22.9941 21.0043L23.9942 10.7042C24.0197 10.4394 23.9609 10.2266 23.818 10.0658C23.6751 9.905 23.4735 9.82461 23.2131 9.82461H14.3165C14.0625 9.82461 13.8641 9.90658 13.7212 10.0705C13.5784 10.2345 13.5196 10.4457 13.545 10.7042L14.5451 21.0043C14.6087 21.6853 14.8023 22.1882 15.1262 22.5129C15.4501 22.8376 15.9295 23 16.5645 23ZM18.1457 10.307H19.4602L19.5174 9.4179C19.5364 9.17829 19.5856 8.98282 19.665 8.83149C19.7444 8.68015 19.873 8.54143 20.0507 8.41532L23.2323 6.14532C23.4164 6.01921 23.5148 5.86946 23.5275 5.69605C23.5402 5.52265 23.4942 5.36659 23.3894 5.22786C23.2846 5.08914 23.1449 4.99929 22.9703 4.9583C22.7956 4.91732 22.6131 4.96619 22.4226 5.10491L19.3555 7.30869C18.9871 7.57353 18.7172 7.86201 18.5458 8.17414C18.3743 8.48625 18.2664 8.87562 18.2219 9.34223L18.1457 10.307Z" fill="black" fill-opacity="0.8"/>
</svg>
