<svg width="24" height="24" viewBox="0 0 24 24" fill="none" xmlns="http://www.w3.org/2000/svg">
<path d="M16.5645 23H20.9747C21.6034 23 22.0797 22.8376 22.4036 22.5129C22.7274 22.1882 22.9242 21.6853 22.9941 21.0043L23.9942 10.7042C24.0197 10.4394 23.9609 10.2266 23.818 10.0658C23.6751 9.905 23.4735 9.82461 23.2131 9.82461H14.3165C14.0625 9.82461 13.8641 9.90658 13.7212 10.0705C13.5784 10.2345 13.5196 10.4457 13.545 10.7042L14.5451 21.0043C14.6087 21.6853 14.8023 22.1882 15.1262 22.5129C15.4501 22.8376 15.9295 23 16.5645 23ZM16.6216 21.5245C16.2533 21.5245 16.0469 21.3322 16.0025 20.9476L15.0881 11.3001H22.4512L21.5272 20.9476C21.4891 21.3322 21.2859 21.5245 20.9176 21.5245H16.6216ZM18.1457 10.307H19.4602L19.5174 9.4179C19.5364 9.17829 19.5856 8.98282 19.665 8.83149C19.7444 8.68015 19.873 8.54143 20.0507 8.41532L23.2323 6.14532C23.4164 6.01921 23.5148 5.86946 23.5275 5.69605C23.5402 5.52265 23.4942 5.36659 23.3894 5.22786C23.2846 5.08914 23.1449 4.99929 22.9703 4.9583C22.7956 4.91732 22.6131 4.96619 22.4226 5.10491L19.3555 7.30869C18.9871 7.57353 18.7172 7.86201 18.5458 8.17414C18.3743 8.48625 18.2664 8.87562 18.2219 9.34223L18.1457 10.307ZM2.90522 21.3921H13.2783C13.2719 21.348 13.2671 21.3038 13.264 21.2597C13.2608 21.2156 13.2561 21.1714 13.2497 21.1272L13.1354 19.8693H2.92427C1.99714 19.8693 1.53358 19.4027 1.53358 18.4695V8.70852C1.53358 8.52566 1.5431 8.38695 1.56215 8.29236C1.5812 8.19778 1.62565 8.10319 1.6955 8.00861L3.55294 5.56837C3.62279 5.47378 3.67201 5.38235 3.70059 5.29407C3.72916 5.2058 3.74345 5.10176 3.74345 4.98195V3.28891C3.74345 2.77817 3.98158 2.52279 4.45784 2.52279H12.4496C12.9195 2.52279 13.1544 2.77817 13.1544 3.28891V4.98195C13.1544 5.10176 13.1687 5.2058 13.1973 5.29407C13.2259 5.38235 13.2751 5.47378 13.3449 5.56837L15.2024 8.00861C15.2659 8.09058 15.3072 8.16783 15.3262 8.24035C15.3453 8.31286 15.3548 8.40901 15.3548 8.52882H16.8979C16.8979 8.23877 16.8693 8.00546 16.8121 7.8289C16.755 7.65235 16.6534 7.46633 16.5073 7.27086L14.688 4.87791V3.08083C14.688 2.41244 14.4959 1.89854 14.1118 1.53912C13.7276 1.17971 13.1767 1 12.4591 1H4.43879C3.72122 1 3.17034 1.17971 2.78616 1.53912C2.40196 1.89854 2.20987 2.41244 2.20987 3.08083V4.87791L0.400063 7.27086C0.241308 7.47895 0.134942 7.676 0.0809651 7.86201C0.0269884 8.04802 0 8.30497 0 8.63286V18.5451C0 19.491 0.242895 20.202 0.728686 20.678C1.21448 21.1541 1.93999 21.3921 2.90522 21.3921ZM5.86758 5.20895H11.0017C11.1668 5.20895 11.3097 5.14905 11.4304 5.02925C11.551 4.90944 11.6114 4.76441 11.6114 4.59416C11.6114 4.42391 11.551 4.27731 11.4304 4.15435C11.3097 4.03139 11.1668 3.96991 11.0017 3.96991H5.86758C5.70248 3.96991 5.5596 4.03139 5.43895 4.15435C5.31829 4.27731 5.25797 4.42391 5.25797 4.59416C5.25797 4.76441 5.31829 4.90944 5.43895 5.02925C5.5596 5.14905 5.70248 5.20895 5.86758 5.20895Z" fill="black" fill-opacity="0.8"/>
</svg>
