<svg width="24" height="24" viewBox="0 0 24 24" fill="none" xmlns="http://www.w3.org/2000/svg">
<path d="M12.2639 22C12.5191 22 12.7356 21.9147 12.9136 21.7442C13.0915 21.5737 13.1804 21.3638 13.1804 21.1145V13.8139L16.1922 11.0983C16.7629 11.177 17.342 11.1016 17.9296 10.872C18.5172 10.6424 19.0762 10.2686 19.6067 9.75037L14.0668 4.32904C13.5363 4.84723 13.1586 5.38838 12.9337 5.95249C12.7087 6.51659 12.6365 7.08398 12.7171 7.65464L3.34971 17.5035C3.1617 17.7069 3.06097 17.9365 3.04753 18.1923C3.03411 18.4481 3.14491 18.6941 3.37993 18.9302L2.09065 20.5537C2.03022 20.6324 2 20.7242 2 20.8292C2 20.9341 2.04701 21.0293 2.14102 21.1145L2.43312 21.4097C2.52041 21.4884 2.6161 21.531 2.72018 21.5375C2.82427 21.5441 2.92331 21.5146 3.01732 21.449L4.67929 20.1798C4.9076 20.4094 5.15437 20.5176 5.41961 20.5044C5.68485 20.4913 5.9182 20.393 6.11965 20.2093L11.3473 15.4866V21.1145C11.3473 21.3638 11.4362 21.5737 11.6142 21.7442C11.7921 21.9147 12.0087 22 12.2639 22ZM4.38718 18.3104L13.2711 9.10099C13.3517 9.24529 13.444 9.38468 13.5481 9.51915C13.6522 9.65361 13.7681 9.78644 13.8956 9.91764C14.0165 10.0423 14.1441 10.1587 14.2784 10.2669C14.4127 10.3752 14.547 10.4686 14.6812 10.5473L5.31385 19.2155L4.38718 18.3104ZM15.0741 3.33529L20.624 8.75662C21.2149 8.18595 21.6162 7.57593 21.8277 6.92656C22.0392 6.27718 22.056 5.63108 21.8781 4.98826C21.7001 4.34544 21.3291 3.74853 20.7651 3.19754C20.201 2.65311 19.5916 2.29399 18.9369 2.12017C18.2822 1.94634 17.6225 1.9611 16.9577 2.16444C16.2929 2.36778 15.6651 2.75806 15.0741 3.33529Z" fill="black" fill-opacity="0.8"/>
</svg>
