<svg width="24" height="24" viewBox="0 0 24 24" fill="none" xmlns="http://www.w3.org/2000/svg">
<path d="M5.83593 21H18.1731C19.1184 21 19.8259 20.7474 20.2956 20.2423C20.7652 19.7372 21 18.9794 21 17.9691V6.03097C21 5.02065 20.7652 4.2629 20.2956 3.75774C19.8259 3.25258 19.1184 3 18.1731 3H5.83593C4.89062 3 4.18163 3.25258 3.70898 3.75774C3.23633 4.2629 3 5.02065 3 6.03097V17.9691C3 18.9794 3.23633 19.7372 3.70898 20.2423C4.18163 20.7474 4.89062 21 5.83593 21ZM5.70045 19.4259C5.30306 19.4259 4.99599 19.3102 4.77923 19.0788C4.56247 18.8474 4.45409 18.5068 4.45409 18.0571V8.83706C4.45409 8.3873 4.56247 8.04673 4.77923 7.81533C4.99599 7.58393 5.30306 7.46823 5.70045 7.46823H18.2905C18.6939 7.46823 19.004 7.58393 19.2208 7.81533C19.4375 8.04673 19.5459 8.3873 19.5459 8.83706V18.0571C19.5459 18.5068 19.4375 18.8474 19.2208 19.0788C19.004 19.3102 18.6939 19.4259 18.2905 19.4259H5.70045ZM7.27195 11.1054H16.7551C16.9177 11.1054 17.0517 11.0467 17.157 10.9294C17.2624 10.8121 17.3151 10.6654 17.3151 10.4894C17.3151 10.3265 17.2624 10.188 17.157 10.0739C17.0517 9.95982 16.9177 9.90279 16.7551 9.90279H7.27195C7.10938 9.90279 6.97391 9.95982 6.86553 10.0739C6.75715 10.188 6.70296 10.3265 6.70296 10.4894C6.70296 10.6654 6.75715 10.8121 6.86553 10.9294C6.97391 11.0467 7.10938 11.1054 7.27195 11.1054ZM7.27195 14.0484H16.7551C16.9177 14.0484 17.0517 13.9914 17.157 13.8773C17.2624 13.7632 17.3151 13.6247 17.3151 13.4618C17.3151 13.2922 17.2624 13.1472 17.157 13.0267C17.0517 12.9061 16.9177 12.8458 16.7551 12.8458H7.27195C7.10938 12.8458 6.97391 12.9061 6.86553 13.0267C6.75715 13.1472 6.70296 13.2922 6.70296 13.4618C6.70296 13.6247 6.75715 13.7632 6.86553 13.8773C6.97391 13.9914 7.10938 14.0484 7.27195 14.0484ZM7.27195 17.0011H13.296C13.4586 17.0011 13.5926 16.9441 13.698 16.83C13.8033 16.7159 13.856 16.5742 13.856 16.4047C13.856 16.2352 13.8033 16.0918 13.698 15.9745C13.5926 15.8572 13.4586 15.7985 13.296 15.7985H7.27195C7.10938 15.7985 6.97391 15.8572 6.86553 15.9745C6.75715 16.0918 6.70296 16.2352 6.70296 16.4047C6.70296 16.5742 6.75715 16.7159 6.86553 16.83C6.97391 16.9441 7.10938 17.0011 7.27195 17.0011Z" fill="black" fill-opacity="0.8"/>
</svg>
