<svg width="24" height="24" viewBox="0 0 24 24" fill="none" xmlns="http://www.w3.org/2000/svg">
<path d="M5.83593 21H18.1731C19.1184 21 19.8259 20.7474 20.2956 20.2423C20.7652 19.7372 21 18.9794 21 17.9691V6.03097C21 5.02065 20.7652 4.2629 20.2956 3.75774C19.8259 3.25258 19.1184 3 18.1731 3H5.83593C4.89062 3 4.18163 3.25258 3.70898 3.75774C3.23633 4.2629 3 5.02065 3 6.03097V17.9691C3 18.9794 3.23633 19.7372 3.70898 20.2423C4.18163 20.7474 4.89062 21 5.83593 21ZM5.70045 19.4259C5.30306 19.4259 4.99599 19.3102 4.77923 19.0788C4.56247 18.8474 4.45409 18.5068 4.45409 18.0571V8.83706C4.45409 8.3873 4.56247 8.04673 4.77923 7.81533C4.99599 7.58393 5.30306 7.46823 5.70045 7.46823H18.2905C18.6939 7.46823 19.004 7.58393 19.2208 7.81533C19.4375 8.04673 19.5459 8.3873 19.5459 8.83706V18.0571C19.5459 18.5068 19.4375 18.8474 19.2208 19.0788C19.004 19.3102 18.6939 19.4259 18.2905 19.4259H5.70045Z" fill="black" fill-opacity="0.8"/>
</svg>
