<svg width="26" height="24" viewBox="0 0 26 24" fill="none" xmlns="http://www.w3.org/2000/svg">
<path d="M5.83593 21H15.2378C15.1054 20.7588 14.9895 20.5062 14.8901 20.2422C14.7907 19.9782 14.711 19.7061 14.6508 19.4258H5.70045C5.30306 19.4258 4.99599 19.3101 4.77923 19.0787C4.56247 18.8474 4.45409 18.5068 4.45409 18.057V8.83704C4.45409 8.38729 4.56247 8.04671 4.77923 7.81531C4.99599 7.58392 5.30306 7.46822 5.70045 7.46822H18.2905C18.6939 7.46822 19.004 7.58392 19.2208 7.81531C19.4375 8.04671 19.5459 8.38729 19.5459 8.83704V11.6138C19.6784 11.6008 19.8048 11.5894 19.9252 11.5796C20.0457 11.5698 20.1661 11.5649 20.2865 11.5649C20.4069 11.5649 20.5273 11.5682 20.6477 11.5747C20.7681 11.5812 20.8856 11.5942 21 11.6138V6.03096C21 5.02064 20.7652 4.2629 20.2956 3.75773C19.8259 3.25258 19.1184 3 18.1731 3H5.83593C4.89062 3 4.18163 3.25258 3.70898 3.75773C3.23633 4.2629 3 5.02064 3 6.03096V17.969C3 18.9793 3.23633 19.7371 3.70898 20.2422C4.18163 20.7474 4.89062 21 5.83593 21ZM7.26292 11.1054H16.7551C16.9117 11.1054 17.0427 11.0451 17.1481 10.9245C17.2534 10.8039 17.3061 10.6589 17.3061 10.4894C17.3061 10.3264 17.2534 10.1879 17.1481 10.0739C17.0427 9.9598 16.9117 9.90276 16.7551 9.90276H7.26292C7.10035 9.90276 6.96487 9.9598 6.85649 10.0739C6.74812 10.1879 6.69393 10.3264 6.69393 10.4894C6.69393 10.6589 6.74812 10.8039 6.85649 10.9245C6.96487 11.0451 7.10035 11.1054 7.26292 11.1054ZM7.26292 14.0483H15.6623C15.8188 13.8202 15.9859 13.6051 16.1636 13.403C16.3412 13.201 16.5354 13.0152 16.7461 12.8458H7.26292C7.10035 12.8458 6.96487 12.9044 6.85649 13.0217C6.74812 13.139 6.69393 13.2857 6.69393 13.4617C6.69393 13.6246 6.74812 13.7631 6.85649 13.8772C6.96487 13.9913 7.10035 14.0483 7.26292 14.0483ZM7.26292 16.9913H13.287C13.4495 16.9913 13.5835 16.9343 13.6889 16.8202C13.7943 16.7061 13.8469 16.5676 13.8469 16.4046C13.8469 16.2352 13.7943 16.0901 13.6889 15.9696C13.5835 15.849 13.4495 15.7887 13.287 15.7887H7.26292C7.10035 15.7887 6.96487 15.849 6.85649 15.9696C6.74812 16.0901 6.69393 16.2352 6.69393 16.4046C6.69393 16.5676 6.74812 16.7061 6.85649 16.8202C6.96487 16.9343 7.10035 16.9913 7.26292 16.9913Z" fill="black" fill-opacity="0.8"/>
<path fill-rule="evenodd" clip-rule="evenodd" d="M22.9193 22.6063C22.3157 22.8688 21.6759 23 21 23C20.3176 23 19.6745 22.8704 19.0708 22.6113C18.4672 22.352 17.9357 21.9928 17.4763 21.5334C17.017 21.0741 16.6561 20.5426 16.3937 19.939C16.1312 19.3353 16 18.689 16 18C16 17.3111 16.1312 16.6664 16.3937 16.0659C16.6561 15.4656 17.017 14.9341 17.4763 14.4715C17.9357 14.0089 18.4672 13.648 19.0708 13.3888C19.6745 13.1296 20.3176 13 21 13C21.689 13 22.3353 13.1296 22.939 13.3888C23.5427 13.648 24.0742 14.0072 24.5335 14.4666C24.9929 14.9259 25.3521 15.4574 25.6113 16.0611C25.8704 16.6648 26 17.3111 26 18C26 18.6824 25.8688 19.3255 25.6063 19.9291C25.3439 20.5328 24.9813 21.0643 24.5187 21.5237C24.0561 21.983 23.523 22.3439 22.9193 22.6063ZM20.562 20.9626C20.6703 21.0742 20.8163 21.13 21 21.13C21.1837 21.13 21.3297 21.0742 21.438 20.9626C21.5463 20.851 21.6004 20.7067 21.6004 20.5296V18.6004H23.5296C23.7067 18.6004 23.8511 18.5463 23.9627 18.4381C24.0742 18.3298 24.13 18.1838 24.13 18C24.13 17.8163 24.0742 17.6703 23.9627 17.562C23.8511 17.4538 23.7067 17.3997 23.5296 17.3997H21.6004V15.4705C21.6004 15.2933 21.5463 15.1489 21.438 15.0374C21.3297 14.9259 21.1837 14.8701 21 14.8701C20.8163 14.8701 20.6703 14.9259 20.562 15.0374C20.4537 15.1489 20.3996 15.2933 20.3996 15.4705V17.3997H18.4704C18.2933 17.3997 18.149 17.4538 18.0374 17.562C17.9258 17.6703 17.87 17.8163 17.87 18C17.87 18.1838 17.9258 18.3298 18.0374 18.4381C18.149 18.5463 18.2933 18.6004 18.4704 18.6004H20.3996V20.5296C20.3996 20.7067 20.4537 20.851 20.562 20.9626Z" fill="#34C759"/>
</svg>
