<svg width="24" height="24" viewBox="0 0 24 24" fill="none" xmlns="http://www.w3.org/2000/svg">
<path d="M4.78618 20H19.2138C19.9596 20 20.6177 19.8407 21.1882 19.5221C21.7586 19.2035 22.2032 18.7623 22.5219 18.1983C22.8406 17.6344 23 16.9829 23 16.2437C23 15.5046 22.8406 14.8515 22.5219 14.2844C22.2032 13.7173 21.7586 13.2744 21.1882 12.9558C20.6177 12.6372 19.9596 12.4779 19.2138 12.4779H4.78618C4.04042 12.4779 3.3823 12.6372 2.81183 12.9558C2.24135 13.2744 1.79675 13.7173 1.47805 14.2844C1.15935 14.8515 1 15.5046 1 16.2437C1 16.9829 1.15935 17.6344 1.47805 18.1983C1.79675 18.7623 2.24135 19.2035 2.81183 19.5221C3.3823 19.8407 4.04042 20 4.78618 20ZM4.78618 11.1685H19.2138C20.0998 11.1685 20.9093 11.3564 21.6423 11.7324L19.3572 6.21745C19.0576 5.49742 18.6067 4.94783 18.0044 4.5687C17.402 4.18957 16.6865 4 15.8579 4H8.14211C7.31986 4 6.60597 4.18957 6.00043 4.5687C5.3949 4.94783 4.94235 5.49742 4.64276 6.21745L2.34811 11.7324C2.70506 11.554 3.0875 11.4154 3.49544 11.3166C3.90338 11.2178 4.33363 11.1685 4.78618 11.1685ZM4.54716 16.2437C4.54716 16.0526 4.61568 15.8869 4.75272 15.7467C4.88976 15.6066 5.05389 15.5365 5.24511 15.5365H18.7549C18.9525 15.5365 19.1198 15.6066 19.2569 15.7467C19.3939 15.8869 19.4624 16.0526 19.4624 16.2437C19.4624 16.4349 19.3939 16.599 19.2569 16.736C19.1198 16.873 18.9525 16.9415 18.7549 16.9415H5.24511C5.05389 16.9415 4.88976 16.873 4.75272 16.736C4.61568 16.599 4.54716 16.4349 4.54716 16.2437Z" fill="black" fill-opacity="0.8"/>
</svg>
