<svg width="24" height="24" viewBox="0 0 24 24" fill="none" xmlns="http://www.w3.org/2000/svg">
<path d="M12.8916 22C14.2931 22 15.5168 21.8452 16.5629 21.5357C17.6089 21.2262 18.4242 20.7952 19.0087 20.2427C19.5932 19.6901 19.8854 19.0478 19.8854 18.3155C19.8854 17.823 19.8008 17.4136 19.6314 17.0874C19.462 16.7612 19.2677 16.4766 19.0486 16.2337C18.8294 15.9907 18.6351 15.7544 18.4658 15.5247C18.2964 15.2951 18.2117 15.0371 18.2117 14.7509C18.2117 14.4847 18.3512 14.2433 18.6301 14.027C18.9091 13.8106 19.2678 13.596 19.7061 13.3829C20.1444 13.1699 20.6093 12.9353 21.1009 12.679C21.5923 12.4227 22.0589 12.1182 22.5007 11.7654C22.9423 11.4126 23.3026 10.9899 23.5815 10.4973C23.8605 10.0047 24 9.41556 24 8.72992C24 7.71811 23.7509 6.79948 23.2528 5.97405C22.7546 5.14862 22.049 4.43968 21.1358 3.84723C20.2225 3.25479 19.1299 2.7988 17.858 2.47928C16.5862 2.15976 15.1764 2 13.6289 2C11.5965 2 9.74512 2.24297 8.07472 2.72891C6.40431 3.21485 4.96637 3.90548 3.76089 4.80081C2.55541 5.69613 1.62723 6.76786 0.976338 8.01599C0.325446 9.26412 0 10.6504 0 12.1748C0 13.6392 0.308842 14.9739 0.926525 16.1788C1.54421 17.3837 2.42424 18.4204 3.56662 19.2891C4.709 20.1578 6.06891 20.8268 7.64633 21.2961C9.22374 21.7654 10.9722 22 12.8916 22ZM12.8916 20.2926C11.2046 20.2926 9.67535 20.0979 8.30386 19.7084C6.93234 19.319 5.75342 18.7665 4.76712 18.0509C3.78082 17.3353 3.02366 16.48 2.49564 15.4848C1.96762 14.4896 1.70361 13.3863 1.70361 12.1748C1.70361 10.9033 1.98422 9.7484 2.54546 8.70995C3.10668 7.6715 3.91199 6.77951 4.96139 6.03396C6.01079 5.28841 7.26774 4.71427 8.73225 4.31154C10.1968 3.90881 11.829 3.70744 13.6289 3.70744C15.3757 3.70744 16.8983 3.91879 18.1967 4.34149C19.4952 4.7642 20.5031 5.35165 21.2204 6.10385C21.9378 6.85606 22.2964 7.73142 22.2964 8.72992C22.2964 9.30905 22.1553 9.79333 21.8729 10.1827C21.5907 10.5722 21.2287 10.9033 20.7871 11.1763C20.3454 11.4492 19.8771 11.6971 19.3823 11.9201C18.8875 12.1431 18.4176 12.3778 17.9726 12.6241C17.5276 12.8704 17.1656 13.1616 16.8866 13.4978C16.6077 13.834 16.4683 14.255 16.4683 14.7609C16.4683 15.187 16.5546 15.5514 16.7273 15.8542C16.9 16.1571 17.0992 16.43 17.325 16.673C17.5509 16.916 17.7501 17.1556 17.9228 17.3919C18.0955 17.6283 18.1818 17.8929 18.1818 18.1858C18.1818 18.8248 17.7003 19.3357 16.7372 19.7185C15.7741 20.1012 14.4923 20.2926 12.8916 20.2926ZM12.0747 17.9361C12.5795 17.9361 13.0411 17.8113 13.4596 17.5617C13.878 17.312 14.2117 16.9776 14.4608 16.5582C14.7098 16.1388 14.8343 15.6728 14.8343 15.1603C14.8343 14.6611 14.7098 14.2017 14.4608 13.7823C14.2117 13.363 13.878 13.0285 13.4596 12.7789C13.0411 12.5292 12.5795 12.4044 12.0747 12.4044C11.57 12.4044 11.1084 12.5292 10.6899 12.7789C10.2715 13.0285 9.93773 13.363 9.68866 13.7823C9.4396 14.2017 9.31507 14.6611 9.31507 15.1603C9.31507 15.6728 9.4396 16.1388 9.68866 16.5582C9.93773 16.9776 10.2715 17.312 10.6899 17.5617C11.1084 17.8113 11.57 17.9361 12.0747 17.9361ZM12.0747 16.7778C11.7758 16.7778 11.5052 16.7063 11.2627 16.5632C11.0203 16.4201 10.8277 16.2254 10.6849 15.9791C10.5421 15.7327 10.4708 15.4598 10.4708 15.1603C10.4708 14.8341 10.5455 14.5529 10.6949 14.3166C10.8443 14.0802 11.0386 13.8972 11.2777 13.7674C11.5168 13.6376 11.7758 13.5727 12.0548 13.5727C12.3338 13.566 12.5978 13.6259 12.8468 13.7524C13.0959 13.8789 13.2968 14.0603 13.4496 14.2966C13.6023 14.5329 13.6787 14.8208 13.6787 15.1603C13.6787 15.4598 13.6073 15.7327 13.4645 15.9791C13.3217 16.2254 13.1291 16.4201 12.8866 16.5632C12.6442 16.7063 12.3736 16.7778 12.0747 16.7778Z" fill="#A2845E"/>
<path d="M4.5 13C4.91566 13 5.26958 12.8518 5.56175 12.5554C5.85392 12.259 6 11.9042 6 11.491C6 11.0778 5.85392 10.726 5.56175 10.4356C5.26958 10.1452 4.91566 10 4.5 10C4.09036 10 3.73795 10.1452 3.44277 10.4356C3.14759 10.726 3 11.0778 3 11.491C3 11.9042 3.14759 12.259 3.44277 12.5554C3.73795 12.8518 4.09036 13 4.5 13Z" fill="#FF3B30"/>
<path d="M9.00473 10C9.5558 10 10.0261 9.80542 10.4157 9.41627C10.8052 9.02712 11 8.54865 11 7.98087C11 7.43222 10.8052 6.96491 10.4157 6.57895C10.0261 6.19298 9.5558 6 9.00473 6C8.44734 6 7.97386 6.19298 7.58431 6.57895C7.19477 6.96491 7 7.43222 7 7.98087C7 8.54865 7.19477 9.02712 7.58431 9.41627C7.97386 9.80542 8.44734 10 9.00473 10Z" fill="#FFCC00"/>
<path d="M14.5045 8C14.9199 8 15.273 7.85312 15.5638 7.55935C15.8546 7.26558 16 6.91098 16 6.49555C16 6.08012 15.8546 5.727 15.5638 5.4362C15.273 5.1454 14.9199 5 14.5045 5C14.0949 5 13.7418 5.14688 13.4451 5.44065C13.1484 5.73442 13 6.08605 13 6.49555C13 6.91098 13.1484 7.26558 13.4451 7.55935C13.7418 7.85312 14.0949 8 14.5045 8Z" fill="#34C759"/>
<path d="M19.5165 10C19.9267 10 20.2766 9.85348 20.566 9.56044C20.8553 9.2674 21 8.91209 21 8.4945C21 8.08425 20.8553 7.7326 20.566 7.43956C20.2766 7.14652 19.9267 7 19.5165 7C19.0989 7 18.7417 7.14652 18.445 7.43956C18.1483 7.7326 18 8.08425 18 8.4945C18 8.91209 18.1483 9.2674 18.445 9.56044C18.7417 9.85348 19.0989 10 19.5165 10Z" fill="#007AFF"/>
</svg>
