<svg width="24" height="24" viewBox="0 0 24 24" fill="none" xmlns="http://www.w3.org/2000/svg">
<path d="M3.1637 22H20.6043C21.6589 22 22.4498 21.7379 22.9771 21.2136C23.5044 20.6893 23.768 19.9029 23.768 18.8544V11.8428L22.1458 13.4765V18.7732C22.1458 19.3008 22.0081 19.6983 21.7328 19.9655C21.4574 20.2327 21.0712 20.3663 20.5741 20.3663H3.19392C2.69015 20.3663 2.30224 20.2327 2.0302 19.9655C1.75817 19.6983 1.62215 19.3008 1.62215 18.7732V6.5461C1.62215 6.01847 1.75817 5.62104 2.0302 5.35383C2.30224 5.08663 2.69015 4.95303 3.19392 4.95303H14.5892L16.2114 3.31937H3.1637C2.11585 3.31937 1.3266 3.5815 0.795961 4.10575C0.26532 4.63002 0 5.41641 0 6.46493V18.8544C0 19.9029 0.26532 20.6893 0.795961 21.2136C1.3266 21.7379 2.11585 22 3.1637 22ZM12.826 14.8159C13.35 15.3368 13.9394 15.6886 14.5943 15.8713C15.2492 16.0538 15.9092 16.0555 16.5742 15.8762C17.2391 15.697 17.8436 15.3334 18.3877 14.7854L23.3348 9.8033C23.4557 9.67477 23.5145 9.52425 23.5111 9.35176C23.5077 9.17926 23.4456 9.03889 23.3247 8.93066C23.2037 8.80889 23.0644 8.7497 22.9065 8.75308C22.7487 8.75646 22.606 8.82242 22.4783 8.95095L17.5817 13.8926C16.9973 14.4743 16.339 14.7669 15.6069 14.7703C14.8748 14.7737 14.2433 14.498 13.7127 13.9433C13.1619 13.3751 12.8848 12.7256 12.8815 11.995C12.8782 11.2645 13.1653 10.6083 13.7429 10.0265L19.9293 3.81657C20.3121 3.43098 20.7353 3.22973 21.1988 3.21282C21.6622 3.19591 22.0552 3.34642 22.3776 3.66437C22.6933 3.9823 22.8427 4.37296 22.8259 4.83634C22.8091 5.29972 22.6093 5.72758 22.2265 6.11994L16.2114 12.2183C16.0905 12.3468 15.9562 12.4094 15.8084 12.406C15.6606 12.4026 15.5296 12.34 15.4154 12.2183C15.2945 12.0965 15.2341 11.9629 15.2341 11.8175C15.2341 11.672 15.2979 11.5351 15.4256 11.4065L19.6874 7.11434C19.8151 6.99258 19.8789 6.8539 19.8789 6.69832C19.8789 6.54273 19.8251 6.40405 19.7176 6.28229C19.5967 6.17405 19.4607 6.11994 19.3096 6.11994C19.1585 6.11994 19.0225 6.1842 18.9015 6.31272L14.5993 10.6353C14.2501 10.9871 14.0738 11.4014 14.0704 11.8784C14.067 12.3553 14.2266 12.7561 14.549 13.0808C14.8915 13.4258 15.2929 13.5966 15.753 13.5932C16.2131 13.5898 16.6245 13.4055 16.9872 13.0401L23.0426 6.94184C23.4657 6.51567 23.7478 6.05905 23.8889 5.57199C24.03 5.08494 24.0367 4.60465 23.909 4.13113C23.7814 3.6576 23.5296 3.22804 23.1534 2.84245C22.7772 2.4704 22.3524 2.22011 21.8789 2.09158C21.4053 1.96305 20.9234 1.96981 20.433 2.11187C19.9427 2.25393 19.4927 2.53128 19.0829 2.94392L12.8664 9.20463C12.3223 9.75256 11.9629 10.3631 11.7883 11.0362C11.6137 11.7092 11.6137 12.3789 11.7883 13.0452C11.9629 13.7115 12.3088 14.3018 12.826 14.8159Z" fill="black" fill-opacity="0.8"/>
</svg>
