<svg width="24" height="24" viewBox="0 0 24 24" fill="none" xmlns="http://www.w3.org/2000/svg">
<path d="M18.3894 12.4297L11.4504 19.2886C10.8462 19.8859 10.1963 20.2731 9.50086 20.4504C8.80539 20.6277 8.1225 20.6184 7.45219 20.4224C6.78189 20.2265 6.18869 19.8703 5.67259 19.354C5.15649 18.8438 4.79931 18.259 4.60105 17.5995C4.40279 16.9401 4.39335 16.2667 4.57273 15.5792C4.75211 14.8917 5.14076 14.2494 5.73867 13.6522L15.2079 4.3015C15.5666 3.94067 15.9694 3.68871 16.4163 3.54562C16.8632 3.40253 17.3069 3.37453 17.7475 3.46163C18.188 3.54873 18.5814 3.76025 18.9276 4.0962C19.2738 4.44459 19.4909 4.83498 19.579 5.26736C19.6671 5.69974 19.6372 6.13679 19.4893 6.57851C19.3414 7.02021 19.0881 7.41838 18.7293 7.773L9.47726 16.9183C9.24439 17.1547 9.00207 17.2558 8.75031 17.2216C8.49856 17.1874 8.29086 17.0925 8.12721 16.937C7.96357 16.7753 7.86602 16.5699 7.83455 16.321C7.80308 16.0722 7.90378 15.8296 8.13666 15.5932L14.6037 9.21945C14.7421 9.07636 14.816 8.91305 14.8255 8.72952C14.8349 8.54599 14.7704 8.38579 14.632 8.24892C14.4935 8.11827 14.3315 8.05606 14.1458 8.06228C13.9601 8.06851 13.798 8.14316 13.6595 8.28624L7.17369 14.6973C6.8527 15.0146 6.64028 15.3723 6.53643 15.7705C6.43258 16.1687 6.42943 16.5606 6.52699 16.9463C6.62455 17.332 6.81494 17.6649 7.09816 17.9449C7.40657 18.2497 7.75588 18.4503 8.14609 18.5467C8.53632 18.6431 8.92812 18.6354 9.32149 18.5234C9.71486 18.4114 10.072 18.1968 10.393 17.8795L19.6828 8.69685C20.2745 8.11205 20.6647 7.48681 20.8535 6.82113C21.0423 6.15545 21.0486 5.50222 20.8724 4.86142C20.6961 4.22063 20.35 3.64516 19.8339 3.13501C19.3367 2.64353 18.7624 2.30913 18.1109 2.13182C17.4595 1.95452 16.7939 1.95607 16.1142 2.13649C15.4344 2.31691 14.7987 2.69952 14.2071 3.28432L4.69074 12.7003C4.1054 13.2789 3.67427 13.9041 3.39734 14.576C3.12041 15.2479 2.98823 15.9307 3.00082 16.6243C3.01341 17.318 3.15817 17.9884 3.4351 18.6354C3.71203 19.2824 4.11484 19.8641 4.64354 20.3805C5.16593 20.8968 5.75441 21.2934 6.40898 21.5703C7.06354 21.8472 7.74171 21.9902 8.44348 21.9995C9.14526 22.0089 9.83602 21.8767 10.5158 21.603C11.1955 21.3292 11.828 20.9062 12.4134 20.3338L19.3996 13.4282C19.5381 13.2913 19.6073 13.1202 19.6073 12.9149C19.6073 12.7096 19.535 12.5416 19.3902 12.4109C19.258 12.2617 19.0928 12.1948 18.8946 12.2104C18.6963 12.2259 18.5279 12.299 18.3894 12.4297Z" fill="#8E8E93"/>
</svg>
