<svg width="24" height="24" viewBox="0 0 24 24" fill="none" xmlns="http://www.w3.org/2000/svg">
<path d="M13.9523 22C14.2959 22 14.5919 21.8632 14.8401 21.5895C15.0883 21.3158 15.3015 20.9498 15.4797 20.4916L21.7326 4.15752C21.8154 3.93476 21.8806 3.72792 21.9283 3.537C21.9761 3.34606 22 3.16786 22 3.00239C22 2.69054 21.9109 2.44551 21.7326 2.26731C21.5545 2.0891 21.3094 2 20.9976 2C20.8385 2 20.6619 2.02387 20.4678 2.0716C20.2737 2.11933 20.0653 2.18456 19.8425 2.26731L3.42244 8.55846C3.02148 8.71121 2.68417 8.91169 2.4105 9.1599C2.13683 9.40811 2 9.70405 2 10.0477C2 10.4869 2.14956 10.8035 2.44869 10.9976C2.74781 11.1917 3.12649 11.3588 3.58472 11.4988L8.73985 13.0645C9.04534 13.1599 9.29673 13.1965 9.49403 13.1743C9.69132 13.152 9.89498 13.0453 10.105 12.8544L20.5775 3.06921C20.6348 3.01193 20.6969 2.98488 20.7637 2.98806C20.8305 2.99124 20.8894 3.01511 20.9403 3.05966C20.9912 3.10421 21.0167 3.16149 21.0167 3.23151C21.0167 3.30151 20.988 3.36516 20.9307 3.42244L11.1838 13.9331C10.9992 14.1305 10.8942 14.3262 10.8687 14.5203C10.8433 14.7144 10.8751 14.9706 10.9642 15.2887L12.4821 20.3293C12.6221 20.8067 12.7908 21.2044 12.988 21.5227C13.1854 21.8409 13.5068 22 13.9523 22Z" fill="black" fill-opacity="0.8"/>
</svg>
