<svg width="24" height="24" viewBox="0 0 24 24" fill="none" xmlns="http://www.w3.org/2000/svg">
<path d="M13.9523 22C14.2959 22 14.5919 21.8632 14.8401 21.5895C15.0883 21.3159 15.3015 20.9499 15.4797 20.4916L21.7326 4.15752C21.8154 3.93477 21.8806 3.72793 21.9283 3.537C21.9761 3.34607 22 3.16786 22 3.00239C22 2.69054 21.9109 2.44551 21.7326 2.26731C21.5545 2.0891 21.3094 2 20.9976 2C20.8385 2 20.6619 2.02387 20.4678 2.0716C20.2737 2.11933 20.0653 2.18457 19.8425 2.26731L3.42244 8.55848C3.02148 8.71122 2.68417 8.91169 2.4105 9.1599C2.13683 9.40811 2 9.70406 2 10.0477C2 10.4869 2.14956 10.8035 2.44869 10.9976C2.74781 11.1917 3.12649 11.3588 3.58472 11.4988L10.4773 13.5227L12.4821 20.3293C12.6221 20.8067 12.7908 21.2044 12.988 21.5227C13.1854 21.8409 13.5068 22 13.9523 22ZM10.9069 12.0716L4.31981 10.0573C4.24344 10.0382 4.19093 10.0159 4.16229 9.99045C4.13365 9.965 4.11933 9.93636 4.11933 9.90454C4.11933 9.87271 4.13206 9.84248 4.15752 9.81385C4.18297 9.7852 4.23071 9.75815 4.30072 9.7327L17.2076 4.84487C17.5895 4.69849 17.9634 4.53779 18.3293 4.36277C18.6953 4.18775 19.0565 4.0175 19.4129 3.85203C19.0946 4.1066 18.7573 4.38027 18.4009 4.67303C18.0445 4.9658 17.7359 5.24265 17.475 5.50358L10.9069 12.0716ZM14.105 19.8998C14.0668 19.8998 14.0366 19.8823 14.0143 19.8472C13.992 19.8122 13.9682 19.7566 13.9427 19.6802L11.9283 13.0931L18.4964 6.52506C18.7574 6.26412 19.0358 5.95227 19.3317 5.5895C19.6277 5.22673 19.9029 4.88306 20.1575 4.55847C19.992 4.92124 19.8202 5.28719 19.642 5.65633C19.4638 6.02546 19.3015 6.40414 19.1551 6.79237L14.2673 19.6993C14.2419 19.7693 14.2164 19.8202 14.1909 19.852C14.1654 19.8839 14.1368 19.8998 14.105 19.8998Z" fill="black" fill-opacity="0.8"/>
</svg>
