<svg width="24" height="24" viewBox="0 0 24 24" fill="none" xmlns="http://www.w3.org/2000/svg">
<path d="M6.94886 22H17.0511C18.0341 22 18.7713 21.7559 19.2627 21.2677C19.7542 20.7795 20 20.0504 20 19.0803V4.92911C20 3.95274 19.7542 3.22046 19.2627 2.73228C18.7713 2.24409 18.0341 2 17.0511 2H14.635C14.4701 2 14.3385 2.05131 14.2402 2.15392C14.1419 2.25653 14.0927 2.39179 14.0927 2.5597C14.0927 2.57836 14.0927 2.60012 14.0927 2.625C14.0927 2.64988 14.0927 2.67164 14.0927 2.6903C14.0927 3.29353 13.9009 3.76772 13.5172 4.11287C13.1336 4.45802 12.6278 4.6306 12 4.6306C11.3722 4.6306 10.8664 4.45802 10.4827 4.11287C10.0991 3.76772 9.90724 3.29353 9.90724 2.6903C9.90724 2.67164 9.90724 2.64988 9.90724 2.625C9.90724 2.60012 9.90724 2.57836 9.90724 2.5597C9.90724 2.39179 9.8581 2.25653 9.75981 2.15392C9.66151 2.05131 9.52992 2 9.36503 2H6.94886C5.96591 2 5.22869 2.24409 4.73722 2.73228C4.24574 3.22046 4 3.95274 4 4.92911V19.0803C4 20.0504 4.24574 20.7795 4.73722 21.2677C5.22869 21.7559 5.96591 22 6.94886 22ZM8.39476 8.94963C8.22354 8.94963 8.08244 8.89366 7.97146 8.78172C7.86048 8.66978 7.80499 8.52985 7.80499 8.36194C7.80499 8.20025 7.86048 8.06499 7.97146 7.95616C8.08244 7.84732 8.22354 7.79291 8.39476 7.79291H15.6147C15.7796 7.79291 15.9175 7.84732 16.0285 7.95616C16.1395 8.06499 16.195 8.20025 16.195 8.36194C16.195 8.52985 16.1395 8.66978 16.0285 8.78172C15.9175 8.89366 15.7796 8.94963 15.6147 8.94963H8.39476ZM8.39476 12.2612C8.22354 12.2612 8.08244 12.2068 7.97146 12.098C7.86048 11.9891 7.80499 11.8539 7.80499 11.6922C7.80499 11.5305 7.86048 11.3937 7.97146 11.2817C8.08244 11.1698 8.22354 11.1138 8.39476 11.1138H11.8097C11.981 11.1138 12.1221 11.1698 12.233 11.2817C12.344 11.3937 12.3995 11.5305 12.3995 11.6922C12.3995 11.8539 12.344 11.9891 12.233 12.098C12.1221 12.2068 11.981 12.2612 11.8097 12.2612H8.39476Z" fill="black" fill-opacity="0.8"/>
</svg>
