<svg width="24" height="24" viewBox="0 0 24 24" fill="none" xmlns="http://www.w3.org/2000/svg">
<path d="M6.94886 22H17.0511C18.0341 22 18.7713 21.7559 19.2627 21.2677C19.7542 20.7795 20 20.0504 20 19.0803V4.92911C20 3.95274 19.7542 3.22046 19.2627 2.73228C18.7713 2.24409 18.0341 2 17.0511 2H14.2259C13.8708 2 13.6932 2.18657 13.6932 2.5597C13.6932 3.04478 13.5378 3.44123 13.2271 3.74906C12.9164 4.0569 12.5073 4.21082 12 4.21082C11.4927 4.21082 11.082 4.0569 10.7681 3.74906C10.4542 3.44123 10.2973 3.04478 10.2973 2.5597C10.2973 2.18657 10.1197 2 9.76456 2H6.94886C5.96591 2 5.22869 2.24409 4.73722 2.73228C4.24574 3.22046 4 3.95274 4 4.92911V19.0803C4 20.0504 4.24574 20.7795 4.73722 21.2677C5.22869 21.7559 5.96591 22 6.94886 22ZM7.02497 20.4981C6.53032 20.4981 6.15775 20.3722 5.90725 20.1203C5.65676 19.8684 5.53151 19.5124 5.53151 19.0523V4.95709C5.53151 4.49067 5.65676 4.13153 5.90725 3.87966C6.15775 3.6278 6.53032 3.50187 7.02497 3.50187H9.73602L8.85136 2.97014C8.9338 3.78482 9.26198 4.43781 9.8359 4.92911C10.4098 5.4204 11.1312 5.66604 12 5.66604C12.8688 5.66604 13.5902 5.4204 14.1641 4.92911C14.738 4.43781 15.0694 3.78482 15.1582 2.97014L14.264 3.50187H16.975C17.4696 3.50187 17.8422 3.6278 18.0928 3.87966C18.3432 4.13153 18.4685 4.49067 18.4685 4.95709V19.0523C18.4685 19.5124 18.3432 19.8684 18.0928 20.1203C17.8422 20.3722 17.4696 20.4981 16.975 20.4981H7.02497ZM8.39476 8.94963H15.6147C15.7796 8.94963 15.9175 8.89366 16.0285 8.78172C16.1395 8.66978 16.195 8.52985 16.195 8.36194C16.195 8.20025 16.1395 8.06499 16.0285 7.95616C15.9175 7.84732 15.7796 7.79291 15.6147 7.79291H8.39476C8.22354 7.79291 8.08244 7.84732 7.97146 7.95616C7.86048 8.06499 7.80499 8.20025 7.80499 8.36194C7.80499 8.52985 7.86048 8.66978 7.97146 8.78172C8.08244 8.89366 8.22354 8.94963 8.39476 8.94963ZM8.39476 12.2612H11.8097C11.981 12.2612 12.1221 12.2068 12.233 12.098C12.344 11.9891 12.3995 11.8539 12.3995 11.6922C12.3995 11.5305 12.344 11.3937 12.233 11.2817C12.1221 11.1698 11.981 11.1138 11.8097 11.1138H8.39476C8.22354 11.1138 8.08244 11.1698 7.97146 11.2817C7.86048 11.3937 7.80499 11.5305 7.80499 11.6922C7.80499 11.8539 7.86048 11.9891 7.97146 12.098C8.08244 12.2068 8.22354 12.2612 8.39476 12.2612Z" fill="black" fill-opacity="0.8"/>
</svg>
