<svg width="24" height="24" viewBox="0 0 24 24" fill="none" xmlns="http://www.w3.org/2000/svg">
<path d="M1 18.1971C1 19.1221 1.23366 19.8205 1.70098 20.2923C2.1683 20.7641 2.85131 21 3.75 21H14.7949C15.6937 21 16.3752 20.7641 16.8395 20.2923C17.3038 19.8205 17.536 19.1221 17.536 18.1971V14.9099C17.536 14.8354 17.56 14.7842 17.6079 14.7563C17.6558 14.7284 17.7217 14.7455 17.8056 14.8075C17.9913 14.9441 18.189 15.0667 18.3987 15.1754C18.6084 15.284 18.8286 15.3694 19.0592 15.4314C19.2899 15.4935 19.5311 15.5246 19.7828 15.5246C20.3459 15.5246 20.8731 15.3771 21.3644 15.0822C21.8557 14.7873 22.2512 14.3791 22.5507 13.8577C22.8502 13.3362 23 12.7279 23 12.0326C23 11.3435 22.8502 10.7367 22.5507 10.2121C22.2512 9.68752 21.8557 9.27934 21.3644 8.98757C20.8731 8.69579 20.3459 8.54991 19.7828 8.54991C19.5311 8.54991 19.2899 8.58095 19.0592 8.64303C18.8286 8.7051 18.6084 8.79046 18.3987 8.8991C18.189 9.00774 17.9913 9.13035 17.8056 9.26693C17.7217 9.32901 17.6558 9.34608 17.6079 9.31815C17.56 9.29021 17.536 9.23899 17.536 9.16449V5.80289C17.536 4.88411 17.3038 4.18727 16.8395 3.71236C16.3752 3.23745 15.6937 3 14.7949 3H3.75C2.85131 3 2.1683 3.23745 1.70098 3.71236C1.23366 4.18727 1 4.88411 1 5.80289V9.91876C1 10.3099 1.10784 10.6156 1.32353 10.836C1.53922 11.0564 1.80283 11.1666 2.11438 11.1666C2.28214 11.1666 2.45439 11.1278 2.63113 11.0502C2.80788 10.9726 2.98312 10.85 3.15687 10.6823C3.37255 10.4775 3.60322 10.3161 3.84886 10.1981C4.0945 10.0802 4.35213 10.0212 4.62174 10.0212C5.131 10.0212 5.57286 10.2028 5.94732 10.5659C6.32177 10.9291 6.509 11.4118 6.509 12.0139C6.509 12.6161 6.32177 13.0988 5.94732 13.462C5.57286 13.8251 5.131 14.0067 4.62174 14.0067C4.35213 14.0067 4.0945 13.9462 3.84886 13.8251C3.60322 13.704 3.37255 13.5411 3.15687 13.3362C2.98312 13.1748 2.80788 13.0553 2.63113 12.9778C2.45439 12.9001 2.28214 12.8613 2.11438 12.8613C1.80283 12.8613 1.53922 12.9715 1.32353 13.1919C1.10784 13.4123 1 13.7149 1 14.0998V18.1971ZM2.4469 18.1226V15.0217C2.4469 14.8044 2.49034 14.7097 2.57721 14.7377C2.66408 14.7656 2.74946 14.8075 2.83334 14.8634C3.01907 14.9814 3.20929 15.0885 3.404 15.1846C3.59873 15.2809 3.80243 15.3569 4.01512 15.4128C4.22781 15.4687 4.45398 15.4966 4.69363 15.4966C5.25682 15.4966 5.78255 15.3507 6.27084 15.059C6.75914 14.7672 7.15456 14.359 7.45712 13.8344C7.75968 13.3098 7.91097 12.703 7.91097 12.0139C7.91097 11.3249 7.75968 10.718 7.45712 10.1935C7.15456 9.66889 6.75914 9.26072 6.27084 8.96895C5.78255 8.67717 5.25682 8.53128 4.69363 8.53128C4.45398 8.53128 4.22781 8.55767 4.01512 8.61044C3.80243 8.66321 3.59873 8.7377 3.404 8.83392C3.20929 8.93014 3.01907 9.04033 2.83334 9.16449C2.74946 9.22036 2.66408 9.26227 2.57721 9.29021C2.49034 9.31814 2.4469 9.22347 2.4469 9.00619V5.87739C2.4469 5.43662 2.56373 5.09674 2.79738 4.85773C3.03105 4.61873 3.35757 4.49922 3.77697 4.49922H14.768C15.1814 4.49922 15.5049 4.61873 15.7386 4.85773C15.9723 5.09674 16.0891 5.43662 16.0891 5.87739V9.91876C16.0891 10.3099 16.1969 10.6203 16.4126 10.85C16.6283 11.0796 16.8919 11.1945 17.2034 11.1945C17.3772 11.1945 17.5509 11.1557 17.7247 11.0781C17.8984 11.0005 18.0722 10.8779 18.2459 10.7103C18.4676 10.5054 18.7013 10.3425 18.947 10.2214C19.1926 10.1003 19.4472 10.0398 19.7108 10.0398C20.2201 10.0398 20.6619 10.2229 21.0364 10.5892C21.4109 10.9555 21.5981 11.4366 21.5981 12.0326C21.5981 12.6347 21.4109 13.1189 21.0364 13.4852C20.6619 13.8515 20.2201 14.0347 19.7108 14.0347C19.4472 14.0347 19.1926 13.9741 18.947 13.853C18.7013 13.732 18.4676 13.569 18.2459 13.3641C18.0722 13.1966 17.8984 13.074 17.7247 12.9964C17.5509 12.9187 17.3772 12.8799 17.2034 12.8799C16.8919 12.8799 16.6283 12.9948 16.4126 13.2245C16.1969 13.4542 16.0891 13.7646 16.0891 14.1557V18.1226C16.0891 18.5695 15.9723 18.911 15.7386 19.1469C15.5049 19.3828 15.1814 19.5007 14.768 19.5007H3.77697C3.35757 19.5007 3.03105 19.3828 2.79738 19.1469C2.56373 18.911 2.4469 18.5695 2.4469 18.1226Z" fill="black" fill-opacity="0.8"/>
</svg>
