<svg width="24" height="24" viewBox="0 0 24 24" fill="none" xmlns="http://www.w3.org/2000/svg">
<path d="M6.74412 19.0786L12.1364 13.6524L10.3791 11.874L4.97682 17.3103L4.02289 19.5536C3.97603 19.6749 4.00113 19.7877 4.0982 19.892C4.19526 19.9965 4.30405 20.0251 4.42454 19.978L6.74412 19.0786ZM14.9179 10.8635L17.6993 8.0645L15.9422 6.28606L13.1506 9.09518L14.9179 10.8635ZM18.583 7.19549L19.5972 6.19512C19.8515 5.93914 19.9855 5.6781 19.9989 5.412C20.0123 5.14591 19.9051 4.89498 19.6776 4.6592L19.3361 4.32574C19.1085 4.08997 18.8625 3.98218 18.5981 4.00239C18.3336 4.0226 18.0742 4.15733 17.8198 4.40658L16.7956 5.41706L18.583 7.19549ZM18.5227 18.4016C18.6701 18.5566 18.8525 18.634 19.07 18.634C19.2875 18.634 19.47 18.5566 19.6173 18.4016C19.7646 18.2467 19.8382 18.0631 19.8382 17.8509C19.8382 17.6388 19.7646 17.4552 19.6173 17.3003L6.99516 4.59857C6.84119 4.44363 6.65542 4.36616 6.43786 4.36616C6.22029 4.36616 6.03787 4.44363 5.89059 4.59857C5.74332 4.74677 5.66969 4.93034 5.66969 5.14928C5.66969 5.36822 5.74332 5.55178 5.89059 5.69998L18.5227 18.4016Z" fill="black" fill-opacity="0.8"/>
</svg>
