<svg width="24" height="24" viewBox="0 0 24 24" fill="none" xmlns="http://www.w3.org/2000/svg">
<path d="M2 12C2 13.366 2.26144 14.652 2.78431 15.8578C3.30719 17.0637 4.02941 18.1274 4.95097 19.049C5.87255 19.9706 6.93627 20.6928 8.14214 21.2156C9.34803 21.7385 10.634 22 12 22C13.366 22 14.652 21.7385 15.8578 21.2156C17.0637 20.6928 18.1274 19.9706 19.049 19.049C19.9706 18.1274 20.6928 17.0637 21.2156 15.8578C21.7385 14.652 22 13.366 22 12C22 10.634 21.7385 9.34803 21.2156 8.14214C20.6928 6.93627 19.9706 5.87255 19.049 4.95097C18.1274 4.02941 17.0621 3.30719 15.8529 2.78431C14.6438 2.26144 13.3562 2 11.9902 2C10.6242 2 9.33823 2.26144 8.13235 2.78431C6.92646 3.30719 5.86437 4.02941 4.94607 4.95097C4.02778 5.87255 3.30719 6.93627 2.78431 8.14214C2.26144 9.34803 2 10.634 2 12ZM3.67647 12C3.67647 10.8431 3.89052 9.76143 4.31862 8.7549C4.74673 7.74836 5.33987 6.86274 6.09803 6.09803C6.8562 5.33333 7.73855 4.73692 8.74509 4.30882C9.75163 3.88072 10.8333 3.66667 11.9902 3.66667C13.1471 3.66667 14.2288 3.88072 15.2353 4.30882C16.2418 4.73692 17.1274 5.33333 17.8922 6.09803C18.6569 6.86274 19.2549 7.74836 19.6863 8.7549C20.1176 9.76143 20.3333 10.8431 20.3333 12C20.3398 12.9869 20.183 13.9232 19.8628 14.8088C19.5425 15.6944 19.0915 16.4983 18.5098 17.2205C17.9281 17.9428 17.2516 18.549 16.4803 19.0392L15.2549 13.2843C15.2091 13.049 15.1013 12.8546 14.9314 12.701C14.7615 12.5474 14.5654 12.4608 14.3431 12.4412H14.2745L12.6471 7.54901C12.5751 7.33986 12.4509 7.19934 12.2745 7.12744C12.098 7.05555 11.9199 7.05555 11.7402 7.12744C11.5604 7.19934 11.4346 7.33986 11.3627 7.54901L9.73529 12.4412H9.66666C9.44444 12.4608 9.24836 12.5474 9.07842 12.701C8.90849 12.8546 8.80065 13.0458 8.7549 13.2745L7.53921 19.0392C6.76143 18.549 6.08333 17.9444 5.5049 17.2255C4.92646 16.5065 4.47712 15.7042 4.15686 14.8187C3.8366 13.933 3.67647 12.9934 3.67647 12ZM8.70588 19.6569L9.96078 13.7059H14.0588L15.3137 19.6569C14.8039 19.8726 14.2712 20.0392 13.7156 20.1568C13.1601 20.2745 12.5882 20.3333 12 20.3333C11.4118 20.3333 10.8399 20.2761 10.2843 20.1617C9.72875 20.0473 9.20261 19.8791 8.70588 19.6569Z" fill="black" fill-opacity="0.8"/>
</svg>
