<svg width="24" height="24" viewBox="0 0 24 24" fill="none" xmlns="http://www.w3.org/2000/svg">
<path fill-rule="evenodd" clip-rule="evenodd" d="M12 20.3333C10.8431 20.3333 9.76143 20.1176 8.7549 19.6863C7.74836 19.2549 6.86437 18.6585 6.10293 17.8971C5.3415 17.1356 4.74673 16.2517 4.31862 15.2451C3.89052 14.2386 3.67647 13.1569 3.67647 12C3.67647 10.8431 3.89052 9.76143 4.31862 8.7549C4.74673 7.74836 5.33987 6.86274 6.09803 6.09803C6.8562 5.33333 7.73855 4.73692 8.74509 4.30882C9.75163 3.88072 10.8333 3.66667 11.9902 3.66667C13.1471 3.66667 14.2288 3.88072 15.2353 4.30882C16.2418 4.73692 17.1274 5.33333 17.8922 6.09803C18.6569 6.86274 19.2549 7.74836 19.6863 8.7549C20.1176 9.76143 20.3333 10.8431 20.3333 12C20.3333 13.1569 20.1193 14.2386 19.6912 15.2451C19.263 16.2517 18.6683 17.1356 17.9068 17.8971C17.1454 18.6585 16.2598 19.2549 15.2499 19.6863C14.2402 20.1176 13.1569 20.3333 12 20.3333ZM15.2843 9.83332L8.85293 16.2451L7.5 16.7549C7.39542 16.7941 7.29902 16.7712 7.21078 16.6862C7.12254 16.6013 7.1013 16.5 7.14705 16.3824L7.70587 15.0784L14.1275 8.67646L15.2843 9.83332ZM16.5784 8.53921L15.8726 9.25489L14.7157 8.08822L15.4313 7.38235C15.5882 7.22548 15.7533 7.14051 15.9265 7.12744C16.0997 7.11437 16.2582 7.183 16.4019 7.33333L16.6274 7.55882C16.7777 7.70261 16.8464 7.8611 16.8333 8.0343C16.8203 8.20751 16.7353 8.37581 16.5784 8.53921Z" fill="black" fill-opacity="0.8"/>
<path fill-rule="evenodd" clip-rule="evenodd" d="M12 22C13.366 22 14.652 21.7385 15.8578 21.2156C17.0637 20.6928 18.1274 19.9706 19.049 19.049C19.9706 18.1274 20.6928 17.0637 21.2156 15.8578C21.7385 14.652 22 13.366 22 12C22 10.634 21.7385 9.34803 21.2156 8.14214C20.6928 6.93627 19.9706 5.87255 19.049 4.95097C18.1274 4.02941 17.0621 3.30719 15.8529 2.78431C14.6438 2.26144 13.3562 2 11.9902 2C10.6242 2 9.33823 2.26144 8.13235 2.78431C6.92646 3.30719 5.86437 4.02941 4.94607 4.95097C4.02778 5.87255 3.30719 6.93627 2.78431 8.14214C2.26144 9.34803 2 10.634 2 12C2 13.366 2.26144 14.652 2.78431 15.8578C3.30719 17.0637 4.02941 18.1274 4.95097 19.049C5.87255 19.9706 6.93627 20.6928 8.14214 21.2156C9.34803 21.7385 10.634 22 12 22ZM12 20.3333C10.8431 20.3333 9.76143 20.1176 8.7549 19.6863C7.74836 19.2549 6.86437 18.6585 6.10293 17.8971C5.3415 17.1356 4.74673 16.2517 4.31862 15.2451C3.89052 14.2386 3.67647 13.1569 3.67647 12C3.67647 10.8431 3.89052 9.76143 4.31862 8.7549C4.74673 7.74836 5.33987 6.86274 6.09803 6.09803C6.8562 5.33333 7.73855 4.73692 8.74509 4.30882C9.75163 3.88072 10.8333 3.66667 11.9902 3.66667C13.1471 3.66667 14.2288 3.88072 15.2353 4.30882C16.2418 4.73692 17.1274 5.33333 17.8922 6.09803C18.6569 6.86274 19.2549 7.74836 19.6863 8.7549C20.1176 9.76143 20.3333 10.8431 20.3333 12C20.3333 13.1569 20.1193 14.2386 19.6912 15.2451C19.263 16.2517 18.6683 17.1356 17.9068 17.8971C17.1454 18.6585 16.2598 19.2549 15.2499 19.6863C14.2402 20.1176 13.1569 20.3333 12 20.3333Z" fill="black" fill-opacity="0.8"/>
</svg>
