<svg width="24" height="24" viewBox="0 0 24 24" fill="none" xmlns="http://www.w3.org/2000/svg">
<path d="M5.75436 18.4265C6.42695 19.0825 7.13348 19.6313 7.87397 20.0728C8.61446 20.5143 9.34524 20.8675 10.0663 21.1324C10.7874 21.3974 11.4584 21.5976 12.0792 21.7332C12.7001 21.8688 13.2239 21.9556 13.6507 21.9934C13.903 22.0186 14.0986 21.9713 14.2376 21.8515C14.3767 21.7316 14.4559 21.5929 14.4753 21.4352C14.4947 21.2712 14.4494 21.1119 14.3395 20.9574C14.2296 20.8029 14.055 20.7099 13.8156 20.6783C13.4276 20.6278 12.9523 20.5395 12.3897 20.4134C11.827 20.2872 11.2191 20.1059 10.5659 19.8694C9.91274 19.6328 9.25471 19.3206 8.59182 18.9327C7.92894 18.5448 7.30648 18.0638 6.72444 17.4898C5.77377 16.5626 5.02035 15.5424 4.46418 14.4292C3.908 13.3159 3.56201 12.1884 3.4262 11.0467C3.29039 9.90507 3.37608 8.82175 3.68326 7.79678C3.99046 6.77181 4.53208 5.88087 5.30814 5.12398C5.93545 4.51214 6.6533 4.06273 7.46169 3.77575C8.27008 3.48875 9.11728 3.3421 10.0033 3.3358C10.8893 3.32949 11.7721 3.43987 12.6516 3.66694C13.5311 3.89401 14.3557 4.20938 15.1253 4.61306L16.1341 3.65748C15.1899 3.10873 14.1875 2.69085 13.1269 2.40386C12.0663 2.11687 11.0041 1.98283 9.94022 2.00176C8.87638 2.02068 7.86266 2.20675 6.89905 2.55997C5.93545 2.91319 5.08178 3.45249 4.33806 4.17785C3.63315 4.86537 3.08667 5.65854 2.69865 6.55736C2.31062 7.45617 2.08427 8.41176 2.0196 9.42412C1.95493 10.4365 2.05032 11.4678 2.30577 12.518C2.56122 13.5682 2.97673 14.5979 3.55231 15.6071C4.12789 16.6163 4.8619 17.5561 5.75436 18.4265ZM9.28542 15.5976C9.9192 16.2157 10.6177 16.7519 11.3808 17.206C12.1439 17.6602 12.9329 18.015 13.7478 18.2704C14.5626 18.5259 15.3726 18.6646 16.1778 18.6867C16.983 18.7088 17.7477 18.5953 18.472 18.3461C19.1963 18.0969 19.8431 17.6948 20.4122 17.1398C20.9942 16.5658 21.4146 15.8988 21.6732 15.1387C21.9319 14.3787 22.037 13.5618 21.9885 12.6883C21.94 11.8147 21.7443 10.9206 21.4016 10.006C21.0588 9.0914 20.5738 8.19889 19.9465 7.32845L18.957 8.2935C19.6167 9.24593 20.0904 10.2141 20.3782 11.1981C20.6659 12.1821 20.7387 13.1077 20.5964 13.975C20.4542 14.8423 20.0694 15.5818 19.4421 16.1936C18.8729 16.7487 18.2246 17.1114 17.4971 17.2817C16.7696 17.452 16.0113 17.4631 15.2222 17.3148C14.4332 17.1666 13.6556 16.8891 12.8892 16.4822C12.1229 16.0754 11.4163 15.5724 10.7696 14.9732L9.28542 15.5976ZM10.5562 14.1878L19.2674 5.70111L17.822 4.30084L9.12051 12.7782L8.32505 14.5852C8.27979 14.6799 8.29757 14.7682 8.37841 14.8501C8.45925 14.9322 8.55141 14.9542 8.65488 14.9164L10.5562 14.1878ZM19.9756 5.0199L20.7517 4.263C20.9392 4.08008 21.0346 3.87193 21.0378 3.63856C21.041 3.40518 20.9489 3.20334 20.7613 3.03304L20.5091 2.80596C20.341 2.65458 20.1421 2.58047 19.9125 2.58362C19.6829 2.58678 19.4808 2.67351 19.3063 2.84381L18.5399 3.61017L19.9756 5.0199Z" fill="black" fill-opacity="0.8"/>
</svg>
