<svg width="24" height="24" viewBox="0 0 24 24" fill="none" xmlns="http://www.w3.org/2000/svg">
<path d="M6.74412 19.0787L17.6993 8.06455L15.9422 6.28612L4.97682 17.3103L4.02289 19.5536C3.97603 19.6749 4.00113 19.7877 4.0982 19.892C4.19526 19.9965 4.30405 20.0251 4.42454 19.978L6.74412 19.0787ZM18.583 7.19555L19.5972 6.19518C19.8515 5.93245 19.9855 5.66973 19.9989 5.40701C20.0123 5.14429 19.9051 4.89504 19.6776 4.65926L19.3361 4.3157C19.1085 4.08666 18.8625 3.98225 18.5981 4.00246C18.3336 4.02267 18.0742 4.1574 17.8198 4.40665L16.8057 5.41712L18.583 7.19555Z" fill="black" fill-opacity="0.8"/>
</svg>
