<svg width="24" height="24" viewBox="0 0 24 24" fill="none" xmlns="http://www.w3.org/2000/svg">
<path d="M6.77022 21C6.99239 21 7.16219 20.9444 7.27962 20.8332C7.39705 20.7221 7.47481 20.568 7.5129 20.371L9.39815 10.766L8.446 11.5378H15.549L14.5969 10.766L16.4821 20.371C16.5202 20.568 16.598 20.7221 16.7155 20.8332C16.8328 20.9444 17.0026 21 17.2248 21C17.5422 21 17.7596 20.9047 17.8771 20.7141C17.9945 20.5235 18.0278 20.3012 17.977 20.0471L16.1965 10.9756C16.1393 10.6771 15.9965 10.4293 15.7681 10.2324C15.5395 10.0355 15.2824 9.937 14.9968 9.937H9.00777C8.71578 9.937 8.45711 10.0355 8.23177 10.2324C8.00643 10.4293 7.86519 10.6771 7.80806 10.9756L6.02754 20.0471C5.97042 20.3075 6.00215 20.5315 6.12276 20.7189C6.24337 20.9063 6.45919 21 6.77022 21ZM8.7983 10.7088H15.2063L12.8354 3.6289C12.6894 3.20963 12.4165 3 12.0166 3C11.5849 3 11.2993 3.20963 11.1596 3.6289L8.7983 10.7088Z" fill="black" fill-opacity="0.8"/>
</svg>
