<svg width="24" height="24" viewBox="0 0 24 24" fill="none" xmlns="http://www.w3.org/2000/svg">
<path d="M8.23072 5.11733H5.13317V13.0033C5.13317 13.3419 5.22336 13.5819 5.40374 13.7235C5.58412 13.8651 5.78627 13.9359 6.01019 13.9359H7.36304C7.58695 13.9359 7.78755 13.8651 7.96481 13.7235C8.14208 13.5819 8.23072 13.3419 8.23072 13.0033V5.11733ZM13.5488 5.11733H10.4512V13.0033C10.4512 13.3419 10.5414 13.5819 10.7218 13.7235C10.9022 13.8651 11.1013 13.9359 11.319 13.9359H12.6811C12.905 13.9359 13.1056 13.8651 13.2828 13.7235C13.4602 13.5819 13.5488 13.3419 13.5488 13.0033V5.11733ZM18.8669 5.11733H15.7693V13.0033C15.7693 13.3419 15.858 13.5819 16.0352 13.7235C16.2125 13.8651 16.4131 13.9359 16.637 13.9359H17.9992C18.2231 13.9359 18.4237 13.8651 18.601 13.7235C18.7783 13.5819 18.8669 13.3419 18.8669 13.0033V5.11733ZM6.25277 12.283V19.9566H7.12045V12.283H6.25277ZM11.5709 12.283V19.9566H12.4386V12.283H11.5709ZM16.889 12.283V19.9566H17.7566V12.283H16.889ZM3.92961 21H20.0704C21.0532 21 21.7871 20.7615 22.2723 20.2844C22.7574 19.8073 23 19.0947 23 18.1466V6.86257C23 5.91454 22.7574 5.20044 22.2723 4.72026C21.7871 4.24009 21.0532 4 20.0704 4H3.92961C2.95307 4 2.22067 4.23855 1.7324 4.71564C1.24413 5.19274 1 5.90838 1 6.86257V18.1466C1 19.0947 1.24413 19.8073 1.7324 20.2844C2.22067 20.7615 2.95307 21 3.92961 21ZM3.94827 19.5133C3.48177 19.5133 3.12412 19.3917 2.87532 19.1486C2.62653 18.9054 2.50213 18.5437 2.50213 18.0635V6.94568C2.50213 6.46551 2.62653 6.1023 2.87532 5.85606C3.12412 5.60982 3.48177 5.4867 3.94827 5.4867H20.0518C20.5121 5.4867 20.8682 5.60982 21.1201 5.85606C21.372 6.1023 21.4979 6.46551 21.4979 6.94568V18.0635C21.4979 18.5437 21.372 18.9054 21.1201 19.1486C20.8682 19.3917 20.5121 19.5133 20.0518 19.5133H3.94827Z" fill="black" fill-opacity="0.8"/>
</svg>
