<svg width="24" height="24" viewBox="0 0 24 24" fill="none" xmlns="http://www.w3.org/2000/svg">
<path d="M6.68577 14.5247C6.47543 14.5247 6.38829 14.3988 6.42434 14.1472C6.47242 13.7256 6.63468 13.2962 6.91114 12.8589C7.18759 12.4216 7.56622 12.0189 8.04701 11.6508C8.5278 11.2827 9.10024 10.9854 9.76433 10.7589C10.4284 10.5324 11.1751 10.4192 12.0045 10.4192C12.8279 10.4192 13.5716 10.5324 14.2357 10.7589C14.8998 10.9854 15.4722 11.2827 15.953 11.6508C16.4338 12.0189 16.8124 12.4216 17.0889 12.8589C17.3653 13.2962 17.5276 13.7256 17.5756 14.1472C17.6117 14.3988 17.5246 14.5247 17.3142 14.5247H6.68577Z" fill="#FF9500"/>
<path fill-rule="evenodd" clip-rule="evenodd" d="M12.2164 22.7924C12.1292 22.9308 12.0586 23 12.0045 23C11.9444 23 11.8708 22.9308 11.7836 22.7924C11.6965 22.654 11.6079 22.4637 11.5177 22.2214C11.4276 21.9792 11.3524 21.6976 11.2923 21.3767C11.2322 21.0558 11.2022 20.716 11.2022 20.3574V15.9498H6.32518C5.92252 15.9498 5.60099 15.8287 5.36059 15.5864C5.1202 15.3442 5 15.0218 5 14.6191C5 13.9269 5.17429 13.249 5.52286 12.5852C5.87143 11.9214 6.35973 11.3236 6.98777 10.7919C7.53292 10.3304 8.16298 9.94952 8.87795 9.64921C8.88369 9.6468 8.88943 9.64439 8.89518 9.64199C8.99833 9.59893 9.10325 9.55754 9.20992 9.51782C9.57318 9.38257 9.95059 9.2761 10.3422 9.19842C10.8705 9.09361 11.4246 9.0412 12.0045 9.0412C12.5822 9.0412 13.1338 9.09321 13.6594 9.19723C13.6792 9.20116 13.699 9.20515 13.7188 9.20923C14.0905 9.28587 14.4492 9.38874 14.7946 9.51782C14.9056 9.55929 15.0147 9.60258 15.122 9.6477C15.8365 9.94825 16.4681 10.3297 17.0168 10.7919C17.6478 11.3236 18.1361 11.9214 18.4817 12.5852C18.8272 13.249 19 13.9269 19 14.6191C19 15.0218 18.8813 15.3442 18.644 15.5864C18.4065 15.8287 18.0835 15.9498 17.6749 15.9498H12.7978V20.3574C12.7978 20.716 12.7678 21.0558 12.7077 21.3767C12.6476 21.6976 12.5724 21.9792 12.4823 22.2214C12.3921 22.4637 12.3035 22.654 12.2164 22.7924ZM6.42434 14.1472C6.38829 14.3988 6.47543 14.5247 6.68577 14.5247H17.3142C17.5246 14.5247 17.6117 14.3988 17.5756 14.1472C17.5276 13.7256 17.3653 13.2962 17.0889 12.8589C16.8124 12.4216 16.4338 12.0189 15.953 11.6508C15.4722 11.2827 14.8998 10.9854 14.2357 10.7589C13.5716 10.5324 12.8279 10.4192 12.0045 10.4192C11.1751 10.4192 10.4284 10.5324 9.76433 10.7589C9.10024 10.9854 8.5278 11.2827 8.04701 11.6508C7.56622 12.0189 7.18759 12.4216 6.91114 12.8589C6.63468 13.2962 6.47242 13.7256 6.42434 14.1472Z" fill="#FF9500"/>
<path d="M10.5171 4.30331C10.5892 4.34106 10.6222 4.41656 10.6162 4.52982L10.3422 9.19842C10.8705 9.09361 11.4246 9.0412 12.0045 9.0412C12.5822 9.0412 13.1338 9.09321 13.6594 9.19723L13.3928 4.52982C13.3808 4.41656 13.4108 4.34106 13.4829 4.30331C13.8195 4.12084 14.135 3.93522 14.4295 3.74647C14.724 3.55771 14.9824 3.37996 15.2048 3.21322C15.4271 3.04648 15.6029 2.90176 15.7322 2.77907C15.8613 2.65637 15.9349 2.573 15.953 2.52896C15.989 2.46604 15.9936 2.41727 15.9665 2.38267C15.9395 2.34806 15.9019 2.33076 15.8538 2.33076H8.14617C8.09809 2.33076 8.06053 2.34806 8.03348 2.38267C8.00644 2.41727 8.01095 2.46604 8.04701 2.52896C8.06504 2.573 8.14016 2.65637 8.27238 2.77907C8.4046 2.90176 8.58189 3.04648 8.80425 3.21322C9.02662 3.37996 9.28354 3.55771 9.57502 3.74647C9.8665 3.93522 10.1805 4.12084 10.5171 4.30331Z" fill="#FF9500"/>
<path d="M6.14488 2.00043C6.14488 2.30245 6.25907 2.60761 6.48745 2.91592C6.63769 3.12985 6.85255 3.3658 7.132 3.62377C7.41146 3.88174 7.72698 4.14758 8.07856 4.42129C8.43014 4.69499 8.79524 4.96397 9.17386 5.22824L8.87795 9.64921L8.89518 9.64199C8.99833 9.59893 9.10325 9.55754 9.20992 9.51782C9.57318 9.38257 9.95059 9.2761 10.3422 9.19842L10.6162 4.52982C10.6222 4.41656 10.5892 4.34106 10.5171 4.30331C10.1805 4.12084 9.8665 3.93522 9.57502 3.74647C9.28354 3.55771 9.02662 3.37996 8.80425 3.21322C8.58189 3.04648 8.4046 2.90176 8.27238 2.77907C8.14016 2.65637 8.06504 2.573 8.04701 2.52896C8.01095 2.46604 8.00644 2.41727 8.03348 2.38267C8.06053 2.34806 8.09809 2.33076 8.14617 2.33076H15.8538C15.9019 2.33076 15.9395 2.34806 15.9665 2.38267C15.9936 2.41727 15.989 2.46604 15.953 2.52896C15.9349 2.573 15.8613 2.65637 15.7322 2.77907C15.6029 2.90176 15.4271 3.04648 15.2048 3.21322C14.9824 3.37996 14.724 3.55771 14.4295 3.74647C14.135 3.93522 13.8195 4.12084 13.4829 4.30331C13.4108 4.34106 13.3808 4.41656 13.3928 4.52982L13.6594 9.19723L13.7188 9.20923C14.0905 9.28587 14.4492 9.38874 14.7946 9.51782C14.9056 9.55929 15.0147 9.60258 15.122 9.6477L14.8261 5.22824C15.2048 4.96397 15.5714 4.69499 15.9259 4.42129C16.2805 4.14758 16.596 3.88174 16.8725 3.62377C17.1489 3.3658 17.3623 3.12985 17.5126 2.91592C17.7469 2.60761 17.8641 2.30245 17.8641 2.00043C17.8641 1.711 17.7665 1.4719 17.5712 1.28314C17.3759 1.09438 17.1219 1 16.8094 1H7.19961C6.88109 1 6.62567 1.09438 6.43335 1.28314C6.24104 1.4719 6.14488 1.711 6.14488 2.00043Z" fill="#FF9500"/>
</svg>
