<svg width="24" height="24" viewBox="0 0 24 24" fill="none" xmlns="http://www.w3.org/2000/svg">
<path d="M5.23908 14.6191C5.23908 15.0218 5.36144 15.3442 5.60615 15.5864C5.85086 15.8287 6.17816 15.9498 6.58805 15.9498H11.5526V20.3574C11.5526 20.716 11.5832 21.0558 11.6443 21.3767C11.7055 21.6976 11.782 21.9792 11.8738 22.2214C11.9655 22.4637 12.0558 22.654 12.1445 22.7924C12.2332 22.9308 12.3081 23 12.3693 23C12.4244 23 12.4962 22.9308 12.5849 22.7924C12.6737 22.654 12.7639 22.4637 12.8557 22.2214C12.9474 21.9792 13.0239 21.6976 13.085 21.3767C13.1463 21.0558 13.1769 20.716 13.1769 20.3574V16.0631H13.6999L12.2041 14.5247H6.95511C6.74099 14.5247 6.65228 14.3988 6.68899 14.1472C6.7257 13.7948 6.84194 13.4424 7.0377 13.0901C7.23347 12.7378 7.49959 12.4027 7.83606 12.085C8.17253 11.7672 8.56713 11.4888 9.01984 11.2497L8.0563 10.2587C7.48123 10.611 6.98264 11.02 6.56051 11.4857C6.13839 11.9512 5.81262 12.4514 5.58321 12.9863C5.35379 13.5211 5.23908 14.0654 5.23908 14.6191ZM6.40452 2.00043C6.40452 2.30245 6.52075 2.60761 6.75322 2.91592C6.90617 3.12985 7.12487 3.3658 7.40935 3.62377C7.69382 3.88174 8.015 4.14758 8.37289 4.42129C8.73078 4.69499 9.10243 4.96397 9.48785 5.22824L9.41443 6.26642L10.7726 7.66325L10.9561 4.52982C10.9622 4.41656 10.9286 4.34106 10.8552 4.30331C10.5126 4.12084 10.1929 3.93522 9.89621 3.74647C9.59949 3.55771 9.33796 3.37996 9.11161 3.21322C8.88525 3.04648 8.70478 2.90176 8.57018 2.77907C8.4356 2.65637 8.35913 2.573 8.34077 2.52896C8.30407 2.46604 8.29948 2.41727 8.32701 2.38267C8.35454 2.34806 8.39278 2.33076 8.44172 2.33076H16.2877C16.3367 2.33076 16.3749 2.34806 16.4024 2.38267C16.4299 2.41727 16.4253 2.46604 16.3886 2.52896C16.3703 2.573 16.2954 2.65637 16.1638 2.77907C16.0323 2.90176 15.8533 3.04648 15.627 3.21322C15.4006 3.37996 15.1376 3.55771 14.8378 3.74647C14.538 3.93522 14.2168 4.12084 13.8743 4.30331C13.8009 4.34106 13.7703 4.41656 13.7825 4.52982L14.0578 9.21108C13.5194 9.09782 12.9566 9.0412 12.3693 9.0412H12.1215L13.5439 10.523C14.174 10.5859 14.7583 10.7526 15.2966 11.0232C15.835 11.2938 16.303 11.6225 16.7007 12.0095C17.0983 12.3965 17.4057 12.8023 17.6229 13.2269C17.8401 13.6517 17.9487 14.0528 17.9487 14.4304C17.9487 14.4555 17.9487 14.4791 17.9487 14.5011C17.9487 14.5231 17.9487 14.5467 17.9487 14.5718L18.9397 15.7422C19.0927 15.6478 19.2226 15.5062 19.3297 15.3175C19.4368 15.1287 19.4903 14.896 19.4903 14.6191C19.4903 13.9584 19.3282 13.3088 19.0039 12.6702C18.6797 12.0315 18.2209 11.4495 17.6275 10.9241C17.034 10.3987 16.3397 9.97557 15.5444 9.65467L15.2415 5.22824C15.627 4.96397 16.0002 4.69499 16.3612 4.42129C16.7221 4.14758 17.0432 3.88174 17.3246 3.62377C17.6061 3.3658 17.8233 3.12985 17.9762 2.91592C18.2148 2.60761 18.3341 2.30245 18.3341 2.00043C18.3341 1.711 18.2347 1.4719 18.0359 1.28314C17.837 1.09438 17.5785 1 17.2604 1H7.47817C7.15394 1 6.89393 1.09438 6.69817 1.28314C6.5024 1.4719 6.40452 1.711 6.40452 2.00043ZM3.20189 3.60489L19.7932 20.65C19.9339 20.7947 20.1021 20.867 20.2979 20.867C20.4936 20.867 20.6588 20.7947 20.7934 20.65C20.928 20.5053 20.9968 20.3338 20.9999 20.1356C21.003 19.9374 20.9341 19.766 20.7934 19.6212L4.21131 2.57615C4.0706 2.43144 3.90236 2.35908 3.7066 2.35908C3.51083 2.35908 3.34259 2.43144 3.20189 2.57615C3.0673 2.71457 3 2.88603 3 3.09052C3 3.29501 3.0673 3.46647 3.20189 3.60489Z" fill="black" fill-opacity="0.8"/>
</svg>
