<svg width="24" height="24" viewBox="0 0 24 24" fill="none" xmlns="http://www.w3.org/2000/svg">
<path d="M5.23908 14.6191C5.23908 15.0218 5.36144 15.3442 5.60615 15.5864C5.85086 15.8287 6.17816 15.9498 6.58805 15.9498H11.5526V20.3574C11.5526 20.716 11.5832 21.0558 11.6443 21.3767C11.7055 21.6976 11.782 21.9792 11.8738 22.2214C11.9655 22.4637 12.0558 22.654 12.1445 22.7924C12.2332 22.9308 12.3081 23 12.3693 23C12.4244 23 12.4962 22.9308 12.5849 22.7924C12.6737 22.654 12.7639 22.4637 12.8557 22.2214C12.9474 21.9792 13.0239 21.6976 13.085 21.3767C13.1463 21.0558 13.1769 20.716 13.1769 20.3574V16.0819H13.7091L8.0563 10.2493C7.46288 10.6079 6.95664 11.0232 6.53758 11.495C6.11851 11.967 5.79733 12.4704 5.57403 13.0051C5.35073 13.54 5.23908 14.078 5.23908 14.6191ZM7.47817 1C7.15394 1 6.89393 1.09438 6.69817 1.28314C6.5024 1.4719 6.40452 1.711 6.40452 2.00043C6.40452 2.29615 6.5177 2.59817 6.74405 2.90648C6.897 3.12041 7.11876 3.35794 7.40935 3.61905C7.69994 3.88017 8.03795 4.14758 8.42336 4.42129C8.80878 4.69499 9.22479 4.96397 9.67138 5.22824L9.58879 6.46462L18.7195 15.846C19.2334 15.6384 19.4903 15.2294 19.4903 14.6191C19.4903 13.9521 19.3251 13.293 18.9948 12.6418C18.6644 11.9906 18.1903 11.3944 17.5724 10.8533C16.9545 10.3122 16.2174 9.88118 15.3609 9.56029L15.058 5.22824C15.7309 4.83813 16.3244 4.43701 16.8383 4.02489C17.3522 3.61276 17.7284 3.24939 17.967 2.93479C18.2117 2.6139 18.3341 2.30245 18.3341 2.00043C18.3341 1.711 18.2347 1.4719 18.0359 1.28314C17.837 1.09438 17.5785 1 17.2604 1H7.47817ZM3.20189 3.60489L19.7932 20.65C19.9339 20.7947 20.1021 20.867 20.2979 20.867C20.4936 20.867 20.6588 20.7947 20.7934 20.65C20.928 20.5053 20.9968 20.3338 20.9999 20.1356C21.003 19.9374 20.9341 19.766 20.7934 19.6212L4.21131 2.57615C4.0706 2.43144 3.90236 2.35908 3.7066 2.35908C3.51083 2.35908 3.34259 2.43144 3.20189 2.57615C3.0673 2.71457 3 2.88603 3 3.09052C3 3.29501 3.0673 3.46647 3.20189 3.60489Z" fill="black" fill-opacity="0.8"/>
</svg>
