<svg width="24" height="24" viewBox="0 0 24 24" fill="none" xmlns="http://www.w3.org/2000/svg">
<path d="M0 13.7708C0 14.4127 0.169845 14.8969 0.509535 15.2234C0.849223 15.55 1.35876 15.7132 2.03814 15.7132H5.17308C5.6164 15.7132 6.00359 15.7579 6.33465 15.8472C6.6657 15.9365 6.96941 16.0872 7.24577 16.2993C7.52212 16.5114 7.80712 16.8017 8.10075 17.1701C8.83773 18.0855 9.73877 18.786 10.8039 19.2716C11.869 19.7572 12.9859 20 14.1548 20H17.1774C17.5056 20 17.7661 19.9079 17.9589 19.7237C18.1518 19.5395 18.2483 19.2883 18.2483 18.9701V5.00471C18.2483 4.69772 18.1504 4.45352 17.9546 4.27211C17.7589 4.0907 17.4998 4 17.1774 4H14.1548C12.9859 4 11.869 4.2428 10.8039 4.72841C9.73877 5.21403 8.83773 5.91453 8.10075 6.82993C7.80712 7.19833 7.52212 7.48858 7.24577 7.70069C6.96941 7.91279 6.6657 8.06489 6.33465 8.15699C6.00359 8.24909 5.6164 8.29514 5.17308 8.29514H2.03814C1.35876 8.29514 0.849223 8.45701 0.509535 8.78074C0.169845 9.10449 0 9.5873 0 10.2292V13.7708ZM1.30407 13.6368V10.3632C1.30407 9.82732 1.58042 9.5594 2.13314 9.5594H5.17308C6.04821 9.5594 6.78517 9.41148 7.38394 9.11565C7.98272 8.81982 8.56423 8.31746 9.12848 7.60858C9.73874 6.83831 10.4857 6.25502 11.3695 5.85871C12.2533 5.46241 13.1817 5.26426 14.1548 5.26426H16.6506C16.7427 5.26426 16.8147 5.28798 16.8665 5.33543C16.9183 5.38287 16.9442 5.45125 16.9442 5.54056V18.4594C16.9442 18.5488 16.9183 18.6171 16.8665 18.6646C16.8147 18.712 16.7427 18.7357 16.6506 18.7357H14.1548C13.1817 18.7357 12.2533 18.5376 11.3695 18.1413C10.4857 17.745 9.73874 17.1617 9.12848 16.3914C8.56423 15.6881 7.98272 15.1886 7.38394 14.8928C6.78517 14.5969 6.04821 14.449 5.17308 14.449H2.13314C1.58042 14.449 1.30407 14.1783 1.30407 13.6368ZM17.4711 10.1204H22.6009C22.8542 10.1204 23.0874 10.059 23.3005 9.93616C23.5135 9.81336 23.6833 9.6501 23.81 9.44637C23.9367 9.24263 24 9.01518 24 8.764C24 8.51282 23.9367 8.28537 23.81 8.08163C23.6833 7.8779 23.5135 7.71464 23.3005 7.59184C23.0874 7.46904 22.8542 7.40764 22.6009 7.40764H17.4711V10.1204ZM17.4711 16.5924H22.6009C22.8542 16.5924 23.0874 16.531 23.3005 16.4082C23.5135 16.2854 23.6833 16.1221 23.81 15.9184C23.9367 15.7146 24 15.4872 24 15.236C24 14.9904 23.9367 14.7644 23.81 14.5579C23.6833 14.3513 23.5135 14.1866 23.3005 14.0639C23.0874 13.941 22.8542 13.8796 22.6009 13.8796H17.4711V16.5924Z" fill="black" fill-opacity="0.8"/>
</svg>
