<svg width="24" height="24" viewBox="0 0 24 24" fill="none" xmlns="http://www.w3.org/2000/svg">
<path d="M3.90787 19.0773H4.13306V13.393C4.13306 12.6555 4.3354 12.0768 4.74009 11.6569C5.14478 11.237 5.69633 11.027 6.39474 11.027H17.6052C18.3102 11.027 18.8634 11.237 19.2648 11.6569C19.6662 12.0768 19.8669 12.6555 19.8669 13.393V19.0773H20.0823C21.0353 19.0773 21.7598 18.8264 22.2559 18.3245C22.752 17.8226 23 17.0732 23 16.0764V7.7393C23 6.7424 22.752 5.99131 22.2559 5.48603C21.7598 4.98076 21.0353 4.72813 20.0823 4.72813H3.90787C3.00711 4.72813 2.29728 4.98076 1.77837 5.48603C1.25946 5.99131 1 6.7424 1 7.7393V16.0764C1 17.0732 1.24803 17.8226 1.7441 18.3245C2.24017 18.8264 2.96143 19.0773 3.90787 19.0773ZM4.87716 3.36593H19.1228V3.19181C19.1228 2.68653 19.007 2.27173 18.7752 1.94739C18.5435 1.62306 18.2237 1.38408 17.8158 1.23045C17.4078 1.07682 16.9394 1 16.4107 1H7.58922C7.08662 1 6.62972 1.07682 6.21851 1.23045C5.80729 1.38408 5.48093 1.62306 5.23943 1.94739C4.99792 2.27173 4.87716 2.68653 4.87716 3.19181V3.36593ZM5.4744 21.6174C5.4744 22.0339 5.59516 22.3685 5.83666 22.6211C6.07817 22.8737 6.39474 23 6.78637 23H17.2136C17.6052 23 17.9218 22.8737 18.1633 22.6211C18.4048 22.3685 18.5256 22.0339 18.5256 21.6174V13.393C18.5256 13.1062 18.4407 12.874 18.271 12.6965C18.1013 12.5189 17.8794 12.4302 17.6052 12.4302H6.39474C6.12059 12.4302 5.89867 12.5189 5.72897 12.6965C5.55926 12.874 5.4744 13.1062 5.4744 13.393V21.6174ZM8.81307 16.5372C8.63031 16.5372 8.47855 16.4724 8.3578 16.3427C8.23704 16.2129 8.17666 16.0525 8.17666 15.8613C8.17666 15.6838 8.23704 15.5336 8.3578 15.4106C8.47855 15.2877 8.63031 15.2263 8.81307 15.2263H15.2064C15.3893 15.2263 15.5394 15.2877 15.6568 15.4106C15.7743 15.5336 15.8331 15.6838 15.8331 15.8613C15.8331 16.0525 15.7743 16.2129 15.6568 16.3427C15.5394 16.4724 15.3893 16.5372 15.2064 16.5372H8.81307ZM8.81307 20.2039C8.63031 20.2039 8.47855 20.1408 8.3578 20.0144C8.23704 19.8881 8.17666 19.7362 8.17666 19.5587C8.17666 19.3675 8.23704 19.2087 8.3578 19.0825C8.47855 18.9561 8.63031 18.8929 8.81307 18.8929H15.2064C15.3893 18.8929 15.5394 18.9561 15.6568 19.0825C15.7743 19.2087 15.8331 19.3675 15.8331 19.5587C15.8331 19.7362 15.7743 19.8881 15.6568 20.0144C15.5394 20.1408 15.3893 20.2039 15.2064 20.2039H8.81307ZM16.7633 8.10801C16.7633 7.75978 16.8889 7.45423 17.1401 7.19135C17.3914 6.92846 17.6901 6.79702 18.036 6.79702C18.3689 6.79702 18.661 6.92846 18.9123 7.19135C19.1636 7.45423 19.2893 7.75978 19.2893 8.10801C19.2893 8.47673 19.1636 8.78741 18.9123 9.04005C18.661 9.29268 18.3689 9.419 18.036 9.419C17.6901 9.42583 17.3914 9.30122 17.1401 9.04517C16.8889 8.78912 16.7633 8.47673 16.7633 8.10801Z" fill="black" fill-opacity="0.8"/>
</svg>
