<svg width="24" height="24" viewBox="0 0 24 24" fill="none" xmlns="http://www.w3.org/2000/svg">
<path d="M3.90218 19.9666H5.83047V18.4243H3.88269C3.4477 18.4243 3.12145 18.3086 2.90394 18.0771C2.68644 17.8456 2.57769 17.5051 2.57769 17.0557V7.33241C2.57769 6.88301 2.68644 6.54256 2.90394 6.31105C3.12145 6.07955 3.4477 5.96379 3.88269 5.96379H20.1271C20.5556 5.96379 20.8802 6.07955 21.1009 6.31105C21.3217 6.54256 21.4321 6.88301 21.4321 7.33241V17.0557C21.4321 17.5051 21.3217 17.8456 21.1009 18.0771C20.8802 18.3086 20.5556 18.4243 20.1271 18.4243H18.3059V19.9666H20.1077C21.0555 19.9666 21.7745 19.7164 22.2647 19.2159C22.7549 18.7155 23 17.9681 23 16.974V7.41412C23 6.42 22.7549 5.67271 22.2647 5.17224C21.7745 4.67178 21.0555 4.42154 20.1077 4.42154H3.90218C2.99971 4.42154 2.29039 4.67178 1.77424 5.17224C1.25808 5.67271 1 6.42 1 7.41412V16.974C1 17.9681 1.24672 18.7155 1.74015 19.2159C2.23359 19.7164 2.95427 19.9666 3.90218 19.9666ZM6.78487 23H17.2152C17.832 23 18.2962 22.8434 18.6078 22.5302C18.9195 22.217 19.0753 21.7233 19.0753 21.0492V12.7149C19.0753 12.0341 18.9195 11.5387 18.6078 11.2288C18.2962 10.9191 17.832 10.7642 17.2152 10.7642H6.78487C6.19405 10.7642 5.73633 10.9191 5.4117 11.2288C5.08707 11.5387 4.92476 12.0341 4.92476 12.7149V21.0492C4.92476 21.7233 5.08058 22.217 5.39222 22.5302C5.70387 22.8434 6.16808 23 6.78487 23ZM7.27181 21.4578C7.01211 21.4578 6.81734 21.3914 6.68748 21.2586C6.55763 21.1259 6.49271 20.9199 6.49271 20.6407V13.1133C6.49271 12.8409 6.55763 12.6384 6.68748 12.5055C6.81734 12.3728 7.01211 12.3064 7.27181 12.3064H16.7379C16.9977 12.3064 17.1908 12.3728 17.3174 12.5055C17.444 12.6384 17.5073 12.8409 17.5073 13.1133V20.6407C17.5073 20.9199 17.444 21.1259 17.3174 21.2586C17.1908 21.3914 16.9977 21.4578 16.7379 21.4578H7.27181ZM4.85658 5.34077H6.3661V3.76788C6.3661 3.33891 6.46836 3.01888 6.67288 2.8078C6.87739 2.59672 7.18416 2.49118 7.5932 2.49118H16.4068C16.8159 2.49118 17.1227 2.59672 17.3272 2.8078C17.5317 3.01888 17.634 3.33891 17.634 3.76788V5.32033H19.1435V3.88022C19.1435 2.8861 18.9114 2.15754 18.4471 1.69452C17.9829 1.23151 17.2964 1 16.3874 1H7.61268C6.75566 1 6.08205 1.23151 5.59186 1.69452C5.10168 2.15754 4.85658 2.8861 4.85658 3.88022V5.34077ZM8.62551 15.728H15.4038C15.5726 15.728 15.7138 15.6667 15.8274 15.5441C15.941 15.4215 15.9979 15.2683 15.9979 15.0845C15.9979 14.9143 15.941 14.7696 15.8274 14.6504C15.7138 14.5312 15.5726 14.4717 15.4038 14.4717H8.62551C8.45021 14.4717 8.30413 14.5312 8.18727 14.6504C8.0704 14.7696 8.01197 14.9143 8.01197 15.0845C8.01197 15.2683 8.0704 15.4215 8.18727 15.5441C8.30413 15.6667 8.45021 15.728 8.62551 15.728ZM8.62551 19.2925H15.4038C15.5726 19.2925 15.7138 19.2329 15.8274 19.1138C15.941 18.9946 15.9979 18.8465 15.9979 18.6695C15.9979 18.4924 15.941 18.3426 15.8274 18.2201C15.7138 18.0975 15.5726 18.0362 15.4038 18.0362H8.62551C8.45021 18.0362 8.30413 18.0975 8.18727 18.2201C8.0704 18.3426 8.01197 18.4924 8.01197 18.6695C8.01197 18.8465 8.0704 18.9946 8.18727 19.1138C8.30413 19.2329 8.45021 19.2925 8.62551 19.2925ZM16.7185 8.38441C16.7185 8.74529 16.8386 9.04829 17.0788 9.29341C17.3191 9.53854 17.608 9.6577 17.9456 9.65089C18.2702 9.65089 18.5527 9.52833 18.7929 9.28321C19.0331 9.03807 19.1532 8.73847 19.1532 8.38441C19.1532 8.04395 19.0331 7.74776 18.7929 7.49582C18.5527 7.2439 18.2702 7.11793 17.9456 7.11793C17.608 7.11793 17.3191 7.2439 17.0788 7.49582C16.8386 7.74776 16.7185 8.04395 16.7185 8.38441Z" fill="black" fill-opacity="0.8"/>
</svg>
