<svg width="24" height="24" viewBox="0 0 24 24" fill="none" xmlns="http://www.w3.org/2000/svg">
<path d="M18.1392 11.9693C18.5373 11.9635 18.8793 11.8293 19.1655 11.5667C19.4516 11.3041 19.5946 10.9861 19.5946 10.6127C19.5946 10.2392 19.4516 9.91829 19.1655 9.64988C18.8793 9.38146 18.5373 9.24433 18.1392 9.23849C17.7349 9.23266 17.3896 9.36687 17.1035 9.64112C16.8174 9.91538 16.6743 10.2392 16.6743 10.6127C16.6743 10.9861 16.8174 11.3071 17.1035 11.5755C17.3896 11.8439 17.7349 11.9752 18.1392 11.9693ZM18.1392 15.9518C18.5373 15.9518 18.8793 15.8162 19.1655 15.5448C19.4516 15.2735 19.5946 14.9511 19.5946 14.5777C19.5946 14.1983 19.4516 13.876 19.1655 13.6105C18.8793 13.345 18.5373 13.2123 18.1392 13.2123C17.7349 13.2123 17.3896 13.345 17.1035 13.6105C16.8174 13.876 16.6743 14.1983 16.6743 14.5777C16.6743 14.9511 16.8174 15.2735 17.1035 15.5448C17.3896 15.8162 17.7349 15.9518 18.1392 15.9518ZM9.80748 10.2626C9.99408 10.2626 10.1527 10.1984 10.2833 10.07C10.4139 9.94163 10.4792 9.78408 10.4792 9.59736C10.4792 9.4223 10.4139 9.27205 10.2833 9.14659C10.1527 9.02114 9.99408 8.95841 9.80748 8.95841C9.62088 8.95841 9.46072 9.02114 9.32699 9.14659C9.19326 9.27205 9.12639 9.4223 9.12639 9.59736C9.12639 9.78408 9.19326 9.94163 9.32699 10.07C9.46072 10.1984 9.62088 10.2626 9.80748 10.2626ZM12.112 10.8753C12.3048 10.8753 12.4665 10.8111 12.5972 10.6827C12.7278 10.5543 12.7931 10.4026 12.7931 10.2276C12.7931 10.0467 12.7278 9.89349 12.5972 9.76803C12.4665 9.64258 12.3048 9.57985 12.112 9.57985C11.9254 9.57985 11.7683 9.64258 11.6408 9.76803C11.5133 9.89349 11.4496 10.0467 11.4496 10.2276C11.4496 10.4026 11.5133 10.5543 11.6408 10.6827C11.7683 10.8111 11.9254 10.8753 12.112 10.8753ZM13.8567 12.4332C14.0433 12.4332 14.205 12.3719 14.3418 12.2494C14.4787 12.1269 14.5471 11.9781 14.5471 11.803C14.5471 11.6222 14.4787 11.4661 14.3418 11.3347C14.205 11.2035 14.0433 11.1378 13.8567 11.1378C13.6701 11.1378 13.5115 11.2035 13.3809 11.3347C13.2502 11.4661 13.1849 11.6222 13.1849 11.803C13.1849 11.9781 13.2502 12.1269 13.3809 12.2494C13.5115 12.3719 13.6701 12.4332 13.8567 12.4332ZM14.4445 14.5339C14.6311 14.5339 14.7897 14.4712 14.9203 14.3457C15.0509 14.2203 15.1162 14.07 15.1162 13.895C15.1162 13.7141 15.0509 13.5624 14.9203 13.4398C14.7897 13.3173 14.6311 13.256 14.4445 13.256C14.2516 13.256 14.0899 13.3173 13.9594 13.4398C13.8287 13.5624 13.7634 13.7141 13.7634 13.895C13.7634 14.07 13.8287 14.2203 13.9594 14.3457C14.0899 14.4712 14.2516 14.5339 14.4445 14.5339ZM13.8567 16.6433C14.0433 16.6433 14.205 16.5791 14.3418 16.4507C14.4787 16.3223 14.5471 16.1677 14.5471 15.9869C14.5471 15.8059 14.4787 15.6542 14.3418 15.5317C14.205 15.4092 14.0433 15.3479 13.8567 15.3479C13.6701 15.3479 13.5115 15.4092 13.3809 15.5317C13.2502 15.6542 13.1849 15.8059 13.1849 15.9869C13.1849 16.1677 13.2502 16.3223 13.3809 16.4507C13.5115 16.5791 13.6701 16.6433 13.8567 16.6433ZM12.112 18.2538C12.3048 18.2538 12.4665 18.1911 12.5972 18.0656C12.7278 17.9401 12.7931 17.787 12.7931 17.6061C12.7931 17.431 12.7278 17.2793 12.5972 17.151C12.4665 17.0226 12.3048 16.9584 12.112 16.9584C11.9254 16.9584 11.7683 17.0226 11.6408 17.151C11.5133 17.2793 11.4496 17.431 11.4496 17.6061C11.4496 17.787 11.5133 17.9401 11.6408 18.0656C11.7683 18.1911 11.9254 18.2538 12.112 18.2538ZM9.80748 18.919C9.99408 18.919 10.1527 18.8563 10.2833 18.7308C10.4139 18.6053 10.4792 18.4551 10.4792 18.2801C10.4792 18.0992 10.4139 17.9431 10.2833 17.8118C10.1527 17.6805 9.99408 17.6149 9.80748 17.6149C9.62088 17.6149 9.46072 17.6805 9.32699 17.8118C9.19326 17.9431 9.12639 18.0992 9.12639 18.2801C9.12639 18.4551 9.19326 18.6053 9.32699 18.7308C9.46072 18.8563 9.62088 18.919 9.80748 18.919ZM7.49366 18.2538C7.68025 18.2538 7.8373 18.1911 7.96481 18.0656C8.09232 17.9401 8.15607 17.787 8.15607 17.6061C8.15607 17.431 8.09232 17.2793 7.96481 17.151C7.8373 17.0226 7.68025 16.9584 7.49366 16.9584C7.30083 16.9584 7.13911 17.0226 7.00849 17.151C6.87787 17.2793 6.81256 17.431 6.81256 17.6061C6.81256 17.787 6.87787 17.9401 7.00849 18.0656C7.13911 18.1911 7.30083 18.2538 7.49366 18.2538ZM5.75828 16.6433C5.94488 16.6433 6.10193 16.5791 6.22944 16.4507C6.35695 16.3223 6.42071 16.1677 6.42071 15.9869C6.42071 15.8059 6.35695 15.6542 6.22944 15.5317C6.10193 15.4092 5.94488 15.3479 5.75828 15.3479C5.56546 15.3479 5.40063 15.4092 5.26379 15.5317C5.12695 15.6542 5.05854 15.8059 5.05854 15.9869C5.05854 16.1677 5.12695 16.3223 5.26379 16.4507C5.40063 16.5791 5.56546 16.6433 5.75828 16.6433ZM5.17049 14.5339C5.35709 14.5339 5.5157 14.4712 5.64632 14.3457C5.77694 14.2203 5.84225 14.07 5.84225 13.895C5.84225 13.7141 5.77694 13.5624 5.64632 13.4398C5.5157 13.3173 5.35709 13.256 5.17049 13.256C4.98389 13.256 4.82373 13.3173 4.68999 13.4398C4.55627 13.5624 4.4894 13.7141 4.4894 13.895C4.4894 14.07 4.55627 14.2203 4.68999 14.3457C4.82373 14.4712 4.98389 14.5339 5.17049 14.5339ZM5.75828 12.4332C5.94488 12.4332 6.10193 12.3719 6.22944 12.2494C6.35695 12.1269 6.42071 11.9781 6.42071 11.803C6.42071 11.6222 6.35695 11.4661 6.22944 11.3347C6.10193 11.2035 5.94488 11.1378 5.75828 11.1378C5.56546 11.1378 5.40063 11.2035 5.26379 11.3347C5.12695 11.4661 5.05854 11.6222 5.05854 11.803C5.05854 11.9781 5.12695 12.1269 5.26379 12.2494C5.40063 12.3719 5.56546 12.4332 5.75828 12.4332ZM7.49366 10.8753C7.68025 10.8753 7.8373 10.8111 7.96481 10.6827C8.09232 10.5543 8.15607 10.4026 8.15607 10.2276C8.15607 10.0467 8.09232 9.89349 7.96481 9.76803C7.8373 9.64258 7.68025 9.57985 7.49366 9.57985C7.30083 9.57985 7.13911 9.64258 7.00849 9.76803C6.87787 9.89349 6.81256 10.0467 6.81256 10.2276C6.81256 10.4026 6.87787 10.5543 7.00849 10.6827C7.13911 10.8111 7.30083 10.8753 7.49366 10.8753ZM9.80748 12.4857C9.99408 12.4857 10.1527 12.423 10.2833 12.2976C10.4139 12.1721 10.4792 12.0219 10.4792 11.8468C10.4792 11.6659 10.4139 11.5113 10.2833 11.383C10.1527 11.2545 9.99408 11.1903 9.80748 11.1903C9.62088 11.1903 9.46072 11.2545 9.32699 11.383C9.19326 11.5113 9.12639 11.6659 9.12639 11.8468C9.12639 12.0219 9.19326 12.1721 9.32699 12.2976C9.46072 12.423 9.62088 12.4857 9.80748 12.4857ZM11.9721 13.361C12.1586 13.361 12.3172 13.2983 12.4478 13.1728C12.5785 13.0474 12.6438 12.8972 12.6438 12.7221C12.6438 12.547 12.5785 12.3968 12.4478 12.2713C12.3172 12.1459 12.1586 12.0831 11.9721 12.0831C11.7854 12.0831 11.6237 12.1459 11.4869 12.2713C11.35 12.3968 11.2816 12.547 11.2816 12.7221C11.2816 12.8972 11.35 13.0474 11.4869 13.1728C11.6237 13.2983 11.7854 13.361 11.9721 13.361ZM11.9721 15.7943C12.1586 15.7943 12.3172 15.733 12.4478 15.6104C12.5785 15.4879 12.6438 15.3392 12.6438 15.1641C12.6438 14.9774 12.5785 14.8213 12.4478 14.6958C12.3172 14.5704 12.1586 14.5077 11.9721 14.5077C11.7854 14.5077 11.6237 14.5704 11.4869 14.6958C11.35 14.8213 11.2816 14.9774 11.2816 15.1641C11.2816 15.3392 11.35 15.4879 11.4869 15.6104C11.6237 15.733 11.7854 15.7943 11.9721 15.7943ZM9.80748 16.687C9.99408 16.687 10.1527 16.6214 10.2833 16.4901C10.4139 16.3589 10.4792 16.2057 10.4792 16.0306C10.4792 15.8555 10.4139 15.7053 10.2833 15.5799C10.1527 15.4544 9.99408 15.3917 9.80748 15.3917C9.62088 15.3917 9.46072 15.4544 9.32699 15.5799C9.19326 15.7053 9.12639 15.8555 9.12639 16.0306C9.12639 16.2057 9.19326 16.3589 9.32699 16.4901C9.46072 16.6214 9.62088 16.687 9.80748 16.687ZM7.6336 15.7943C7.8202 15.7943 7.98192 15.733 8.11876 15.6104C8.2556 15.4879 8.32402 15.3392 8.32402 15.1641C8.32402 14.9774 8.2556 14.8213 8.11876 14.6958C7.98192 14.5704 7.8202 14.5077 7.6336 14.5077C7.447 14.5077 7.28839 14.5704 7.15777 14.6958C7.02715 14.8213 6.96184 14.9774 6.96184 15.1641C6.96184 15.3392 7.02715 15.4879 7.15777 15.6104C7.28839 15.733 7.447 15.7943 7.6336 15.7943ZM7.6336 13.361C7.8202 13.361 7.98192 13.2983 8.11876 13.1728C8.2556 13.0474 8.32402 12.8972 8.32402 12.7221C8.32402 12.547 8.2556 12.3968 8.11876 12.2713C7.98192 12.1459 7.8202 12.0831 7.6336 12.0831C7.447 12.0831 7.28839 12.1459 7.15777 12.2713C7.02715 12.3968 6.96184 12.547 6.96184 12.7221C6.96184 12.8972 7.02715 13.0474 7.15777 13.1728C7.28839 13.2983 7.447 13.361 7.6336 13.361ZM9.80748 14.5777C9.99408 14.5777 10.1527 14.5149 10.2833 14.3894C10.4139 14.264 10.4792 14.1138 10.4792 13.9387C10.4792 13.7636 10.4139 13.6134 10.2833 13.488C10.1527 13.3625 9.99408 13.2997 9.80748 13.2997C9.62088 13.2997 9.46072 13.3625 9.32699 13.488C9.19326 13.6134 9.12639 13.7636 9.12639 13.9387C9.12639 14.1138 9.19326 14.264 9.32699 14.3894C9.46072 14.5149 9.62088 14.5777 9.80748 14.5777ZM18.8202 7.30415L19.2774 5.95623L6.40205 2.03501C6.20923 1.97666 6.01951 1.99125 5.83291 2.07877C5.64631 2.1663 5.52192 2.30343 5.45972 2.49015C5.39752 2.67104 5.41307 2.84901 5.50637 3.02407C5.59967 3.19912 5.74584 3.31874 5.94488 3.38293L18.8202 7.30415ZM3.92961 22H20.0704C21.0532 22 21.7871 21.7739 22.2723 21.3216C22.7574 20.8694 23 20.194 23 19.2954V8.59955C23 7.70094 22.7574 7.02406 22.2723 6.56892C21.7871 6.11378 21.0532 5.88621 20.0704 5.88621H3.92961C2.95307 5.88621 2.22067 6.11232 1.7324 6.56454C1.24413 7.01676 1 7.6951 1 8.59955V19.2954C1 20.194 1.24413 20.8694 1.7324 21.3216C2.22067 21.7739 2.95307 22 3.92961 22ZM3.94827 20.5908C3.48177 20.5908 3.12412 20.4755 2.87532 20.245C2.62653 20.0145 2.50213 19.6717 2.50213 19.2166V8.67832C2.50213 8.22318 2.62653 7.87891 2.87532 7.6455C3.12412 7.4121 3.48177 7.29539 3.94827 7.29539H20.0518C20.5121 7.29539 20.8682 7.4121 21.1201 7.6455C21.372 7.87891 21.4979 8.22318 21.4979 8.67832V19.2166C21.4979 19.6717 21.372 20.0145 21.1201 20.245C20.8682 20.4755 20.5121 20.5908 20.0518 20.5908H3.94827Z" fill="black" fill-opacity="0.8"/>
</svg>
