<svg width="24" height="24" viewBox="0 0 24 24" fill="none" xmlns="http://www.w3.org/2000/svg">
<path d="M8.71629 16.0335H15.3823C15.8363 16.0335 16.0633 15.8022 16.0633 15.3395V8.65147C16.0633 8.19479 15.8363 7.96645 15.3823 7.96645H8.71629C8.26233 7.96645 8.03535 8.19479 8.03535 8.65147V15.3395C8.03535 15.8022 8.26233 16.0335 8.71629 16.0335ZM9.4241 14.8527C9.28075 14.8527 9.20907 14.7807 9.20907 14.6365V9.36354C9.20907 9.21933 9.28075 9.14722 9.4241 9.14722H14.6655C14.8149 9.14722 14.8895 9.21933 14.8895 9.36354V14.6365C14.8895 14.7807 14.8149 14.8527 14.6655 14.8527H9.4241ZM5.39224 19.4136H18.7063C18.9214 19.4136 19.0946 19.349 19.226 19.2198C19.3574 19.0906 19.4231 18.9178 19.4231 18.7015V5.29845C19.4231 5.08212 19.3574 4.90786 19.226 4.77566C19.0946 4.64347 18.9214 4.57737 18.7063 4.57737H5.39224C5.17721 4.57737 5.00399 4.64347 4.87258 4.77566C4.74117 4.90786 4.67546 5.08212 4.67546 5.29845V18.7015C4.67546 18.9178 4.74117 19.0906 4.87258 19.2198C5.00399 19.349 5.17721 19.4136 5.39224 19.4136ZM6.37781 17.9625C6.20459 17.9625 6.11798 17.8753 6.11798 17.7011V6.29895C6.11798 6.11867 6.20459 6.02854 6.37781 6.02854H17.7208C17.894 6.02854 17.9806 6.11867 17.9806 6.29895V17.7011C17.9806 17.8753 17.894 17.9625 17.7208 17.9625H6.37781ZM9.80041 18.1968H8.3579V20.2789C8.3579 20.4952 8.4236 20.6695 8.55502 20.8017C8.68642 20.9339 8.85964 21 9.07467 21C9.28971 21 9.46442 20.9339 9.59882 20.8017C9.73321 20.6695 9.80041 20.4952 9.80041 20.2789V18.1968ZM12.766 18.1968H11.3236V20.2789C11.3236 20.4952 11.3908 20.6695 11.5252 20.8017C11.6595 20.9339 11.8343 21 12.0493 21C12.2643 21 12.4375 20.9339 12.569 20.8017C12.7004 20.6695 12.766 20.4952 12.766 20.2789V18.1968ZM15.7676 18.1968H14.3251V20.2789C14.3251 20.4952 14.3908 20.6695 14.5222 20.8017C14.6536 20.9339 14.8268 21 15.0418 21C15.2569 21 15.4316 20.9339 15.566 20.8017C15.7004 20.6695 15.7676 20.4952 15.7676 20.2789V18.1968ZM18.2046 14.2488V15.7H20.2743C20.4893 15.7 20.6641 15.6325 20.7984 15.4973C20.9328 15.362 21 15.1862 21 14.97C21 14.7536 20.9328 14.5794 20.7984 14.4472C20.6641 14.315 20.4893 14.2488 20.2743 14.2488H18.2046ZM18.2046 11.2564V12.7075H20.2743C20.4893 12.7075 20.6641 12.6415 20.7984 12.5093C20.9328 12.3771 21 12.2028 21 11.9865C21 11.7702 20.9328 11.5944 20.7984 11.4592C20.6641 11.324 20.4893 11.2564 20.2743 11.2564H18.2046ZM18.2046 8.2729V9.72408H20.2743C20.4893 9.72408 20.6641 9.65648 20.7984 9.52128C20.9328 9.38607 21 9.21031 21 8.99398C21 8.77766 20.9328 8.6034 20.7984 8.47121C20.6641 8.339 20.4893 8.2729 20.2743 8.2729H18.2046ZM14.2982 5.8032H15.7407V3.72108C15.7407 3.50476 15.6735 3.3305 15.5391 3.1983C15.4047 3.0661 15.23 3 15.015 3C14.7999 3 14.6267 3.0661 14.4953 3.1983C14.3639 3.3305 14.2982 3.50476 14.2982 3.72108V5.8032ZM11.3236 5.8032H12.766V3.72108C12.766 3.50476 12.7004 3.3305 12.569 3.1983C12.4375 3.0661 12.2643 3 12.0493 3C11.8343 3 11.6595 3.0661 11.5252 3.1983C11.3908 3.3305 11.3236 3.50476 11.3236 3.72108V5.8032ZM8.3579 5.8032H9.80041V3.72108C9.80041 3.50476 9.73321 3.3305 9.59882 3.1983C9.46442 3.0661 9.28971 3 9.07467 3C8.85964 3 8.68642 3.0661 8.55502 3.1983C8.4236 3.3305 8.3579 3.50476 8.3579 3.72108V5.8032ZM5.88502 9.73309V8.28192H3.71678C3.50174 8.28192 3.32852 8.34802 3.19711 8.48021C3.0657 8.61242 3 8.78668 3 9.003C3 9.21933 3.0657 9.39509 3.19711 9.53029C3.32852 9.66549 3.50174 9.73309 3.71678 9.73309H5.88502ZM5.88502 12.7166V11.2654H3.71678C3.50174 11.2654 3.32852 11.333 3.19711 11.4682C3.0657 11.6034 3 11.7792 3 11.9955C3 12.2118 3.0657 12.3861 3.19711 12.5182C3.32852 12.6505 3.50174 12.7166 3.71678 12.7166H5.88502ZM5.88502 15.7091V14.2579H3.71678C3.50174 14.2579 3.32852 14.324 3.19711 14.4561C3.0657 14.5884 3 14.7626 3 14.9789C3 15.1953 3.0657 15.371 3.19711 15.5062C3.32852 15.6415 3.50174 15.7091 3.71678 15.7091H5.88502Z" fill="black" fill-opacity="0.8"/>
</svg>
