<svg width="24" height="24" viewBox="0 0 24 24" fill="none" xmlns="http://www.w3.org/2000/svg">
<path d="M4 8.87193C4 10.0279 4.24318 11.1133 4.72955 12.1281C5.21593 13.1429 5.87169 14.0083 6.69684 14.7241L6.7069 22.1626C6.7069 22.4582 6.77566 22.6716 6.91319 22.803C7.05071 22.9343 7.22346 23 7.43142 23C7.60584 23 7.76349 22.9557 7.90437 22.867C8.04525 22.7784 8.18278 22.6684 8.31695 22.537L11.5874 19.3449C11.6746 19.266 11.7517 19.2102 11.8188 19.1774C11.8859 19.1446 11.9496 19.1282 12.01 19.1282C12.0704 19.1282 12.1341 19.1446 12.2012 19.1774C12.2683 19.2102 12.3454 19.266 12.4326 19.3449L15.703 22.537C15.8439 22.6749 15.9848 22.7866 16.1257 22.872C16.2666 22.9573 16.4209 23 16.5886 23C16.8033 23 16.9794 22.9343 17.1169 22.803C17.2544 22.6716 17.3232 22.4582 17.3232 22.1626V14.6946C18.1416 13.9787 18.7907 13.1166 19.2703 12.1084C19.75 11.1002 19.9932 10.0214 19.9998 8.87193C20.0066 7.78819 19.8003 6.77177 19.3811 5.82267C18.9617 4.87357 18.3848 4.03777 17.6502 3.31527C16.9156 2.59278 16.0653 2.02627 15.0993 1.61577C14.1333 1.20526 13.1001 1 11.9999 1C10.8997 1 9.86663 1.20526 8.90059 1.61577C7.93456 2.02627 7.08425 2.59278 6.34967 3.31527C5.61508 4.03777 5.03983 4.87357 4.6239 5.82267C4.20797 6.77177 4 7.78819 4 8.87193ZM5.64024 8.87193C5.64024 7.99837 5.80292 7.18064 6.12829 6.41873C6.45365 5.65682 6.9048 4.98687 7.48174 4.40888C8.05867 3.83088 8.73456 3.37931 9.5094 3.05419C10.2842 2.72906 11.1178 2.5665 12.01 2.5665C12.9022 2.5665 13.7341 2.72906 14.5056 3.05419C15.2771 3.37931 15.953 3.83088 16.5333 4.40888C17.1135 4.98687 17.5663 5.65682 17.8917 6.41873C18.2171 7.18064 18.3798 7.99837 18.3798 8.87193C18.3865 9.7455 18.2271 10.5632 17.9018 11.3252C17.5764 12.0871 17.1236 12.7554 16.5434 13.3301C15.963 13.9048 15.2854 14.3547 14.5106 14.6799C13.7358 15.005 12.9022 15.1642 12.01 15.1577C11.1178 15.1577 10.2842 14.9951 9.5094 14.67C8.73456 14.3448 8.05867 13.8949 7.48174 13.3202C6.9048 12.7455 6.45365 12.0788 6.12829 11.3202C5.80292 10.5616 5.64024 9.7455 5.64024 8.87193Z" fill="black" fill-opacity="0.8"/>
</svg>
