<svg width="30" height="24" viewBox="0 0 30 24" fill="none" xmlns="http://www.w3.org/2000/svg">
<path d="M2.92633 21H22.659C23.601 21 24.3243 20.7469 24.8287 20.2407C25.3331 19.7346 25.5853 18.996 25.5853 18.025V9.5856L23.9719 11.2487V18.1076C23.9719 18.5346 23.8583 18.8651 23.6311 19.0993C23.4039 19.3334 23.0833 19.4505 22.669 19.4505H2.91631C2.50208 19.4505 2.18139 19.3334 1.95423 19.0993C1.72707 18.8651 1.6135 18.5346 1.6135 18.1076V9.42032C1.6135 8.52508 2.04777 8.07746 2.91631 8.07746H19.2517L20.7649 6.52799H2.92633C1.98429 6.52799 1.26106 6.77935 0.756637 7.28206C0.252212 7.78478 0 8.52507 0 9.50296V18.025C0 18.996 0.252212 19.7346 0.756637 20.2407C1.26106 20.7469 1.98429 21 2.92633 21ZM5.32152 15.2359C5.7157 15.2359 6.0531 15.0913 6.33371 14.8021C6.61431 14.5129 6.75461 14.1651 6.75461 13.7588C6.75461 13.3525 6.61431 13.0047 6.33371 12.7155C6.0531 12.4263 5.7157 12.2817 5.32152 12.2817C4.92733 12.2817 4.58993 12.4263 4.30932 12.7155C4.02872 13.0047 3.88841 13.3525 3.88841 13.7588C3.88841 14.1651 4.02872 14.5129 4.30932 14.8021C4.58993 15.0913 4.92733 15.2359 5.32152 15.2359ZM9.64086 15.2359C10.035 15.2359 10.3725 15.0913 10.6531 14.8021C10.9337 14.5129 11.0739 14.1651 11.0739 13.7588C11.0739 13.3525 10.9337 13.0047 10.6531 12.7155C10.3725 12.4263 10.035 12.2817 9.64086 12.2817C9.24667 12.2817 8.90928 12.4263 8.62866 12.7155C8.34806 13.0047 8.20776 13.3525 8.20776 13.7588C8.20776 14.1651 8.34806 14.5129 8.62866 14.8021C8.90928 15.0913 9.24667 15.2359 9.64086 15.2359ZM13.9602 15.2359C14.3544 15.2359 14.6918 15.0913 14.9723 14.8021C15.253 14.5129 15.3933 14.1651 15.3933 13.7588C15.3933 13.3525 15.253 13.0047 14.9723 12.7155C14.6918 12.4263 14.3544 12.2817 13.9602 12.2817C13.566 12.2817 13.2286 12.4263 12.948 12.7155C12.6674 13.0047 12.5271 13.3525 12.5271 13.7588C12.5271 14.1651 12.6674 14.5129 12.948 14.8021C13.2286 15.0913 13.566 15.2359 13.9602 15.2359ZM17.3675 14.296L19.412 13.3663L28.2411 4.27612L26.8281 2.84028L18.019 11.9304L17.0569 13.9654C17.0101 14.0549 17.0268 14.1445 17.107 14.234C17.1872 14.3235 17.274 14.3442 17.3675 14.296ZM28.9827 3.50138L29.7343 2.71633C29.908 2.53039 29.9966 2.32207 29.9999 2.09138C30.0033 1.86068 29.9181 1.65581 29.7444 1.47676L29.5038 1.22884C29.3435 1.06357 29.1514 0.987816 28.9276 1.00159C28.7038 1.01536 28.5083 1.10833 28.3413 1.28049L27.5897 2.04489L28.9827 3.50138Z" fill="black" fill-opacity="0.8"/>
</svg>
