<svg width="24" height="24" viewBox="0 0 24 24" fill="none" xmlns="http://www.w3.org/2000/svg">
<path d="M24 9.48155C24 8.66359 23.776 8.04551 23.3281 7.62731C22.8802 7.2091 22.2149 7 21.3322 7H2.65794C1.78177 7 1.11974 7.2091 0.671842 7.62731C0.223947 8.04551 0 8.66359 0 9.48155L0.00980792 14.5185C0.00980792 15.3364 0.233755 15.9545 0.681651 16.3727C1.12955 16.7909 1.79158 17 2.66775 17H21.342C22.2248 17 22.8884 16.7909 23.333 16.3727C23.7777 15.9545 24 15.3364 24 14.5185V9.48155ZM22.4111 9.74908V14.2509C22.4111 14.663 22.2967 14.9766 22.0679 15.1919C21.839 15.4071 21.5121 15.5148 21.087 15.5148H2.90314C2.48467 15.5148 2.16101 15.4071 1.93216 15.1919C1.70331 14.9766 1.58888 14.663 1.58888 14.2509V9.74908C1.58888 9.33087 1.70331 9.01569 1.93216 8.80351C2.16101 8.59133 2.48794 8.48524 2.91295 8.48524H21.0969C21.5154 8.48524 21.839 8.59133 22.0679 8.80351C22.2967 9.01569 22.4111 9.33087 22.4111 9.74908ZM3.76624 7.96864H2.96199V12.9594C2.96199 13.064 3.00123 13.1516 3.07969 13.2223C3.15815 13.293 3.25296 13.3253 3.36412 13.3192C3.48181 13.3192 3.57662 13.2838 3.64854 13.2131C3.72047 13.1424 3.75643 13.0547 3.75643 12.9502L3.76624 7.96864ZM5.50225 7.96864H4.69799V11.3358C4.69799 11.4465 4.73722 11.5372 4.81569 11.6079C4.89415 11.6787 4.98569 11.7109 5.09031 11.7048C5.21455 11.6986 5.31263 11.6617 5.38455 11.5941C5.45647 11.5264 5.49244 11.4373 5.49244 11.3266L5.50225 7.96864ZM7.22844 7.96864H6.41438V11.3358C6.41438 11.4465 6.45361 11.5372 6.53208 11.6079C6.61054 11.6787 6.70535 11.7109 6.81651 11.7048C6.9342 11.6986 7.03065 11.6617 7.10584 11.5941C7.18104 11.5264 7.21863 11.4373 7.21863 11.3266L7.22844 7.96864ZM8.94483 7.96864H8.14058V11.3358C8.14058 11.4465 8.17981 11.5372 8.25827 11.6079C8.33673 11.6787 8.43154 11.7109 8.5427 11.7048C8.6604 11.6986 8.7552 11.6617 8.82713 11.5941C8.89905 11.5264 8.93501 11.4373 8.93501 11.3266L8.94483 7.96864ZM10.6809 7.96864H9.87657V11.3358C9.87657 11.4465 9.91581 11.5372 9.99427 11.6079C10.0728 11.6787 10.1643 11.7109 10.2689 11.7048C10.3932 11.6986 10.4912 11.6617 10.5632 11.5941C10.6351 11.5264 10.671 11.4373 10.671 11.3266L10.6809 7.96864ZM12.4168 7.96864H11.6126V12.9594C11.6126 13.064 11.6518 13.1516 11.7303 13.2223C11.8088 13.293 11.9003 13.3253 12.0049 13.3192C12.1291 13.3192 12.2272 13.2838 12.2991 13.2131C12.3711 13.1424 12.407 13.0547 12.407 12.9502L12.4168 7.96864ZM14.143 7.96864H13.3387V11.3358C13.3387 11.4465 13.3764 11.5372 13.4516 11.6079C13.5268 11.6787 13.62 11.7109 13.7311 11.7048C13.8488 11.6986 13.9453 11.6617 14.0205 11.5941C14.0957 11.5264 14.1333 11.4373 14.1333 11.3266L14.143 7.96864ZM15.8692 7.96864H15.065V11.3358C15.065 11.4465 15.1042 11.5372 15.1827 11.6079C15.2611 11.6787 15.356 11.7109 15.4671 11.7048C15.5848 11.6986 15.6796 11.6617 15.7515 11.5941C15.8234 11.5264 15.8594 11.4373 15.8594 11.3266L15.8692 7.96864ZM17.5954 7.96864H16.7912V11.3358C16.7912 11.4465 16.8304 11.5372 16.9088 11.6079C16.9873 11.6787 17.0789 11.7109 17.1835 11.7048C17.3077 11.6986 17.4058 11.6617 17.4777 11.5941C17.5497 11.5264 17.5856 11.4373 17.5856 11.3266L17.5954 7.96864ZM19.3314 7.96864H18.5272V11.3358C18.5272 11.4465 18.5648 11.5372 18.64 11.6079C18.7152 11.6787 18.8083 11.7109 18.9195 11.7048C19.0372 11.6986 19.1336 11.6617 19.2088 11.5941C19.284 11.5264 19.3216 11.4373 19.3216 11.3266L19.3314 7.96864ZM21.0576 7.96864H20.2533V12.9594C20.2533 13.064 20.2926 13.1516 20.371 13.2223C20.4495 13.293 20.5443 13.3253 20.6555 13.3192C20.7732 13.3192 20.868 13.2838 20.9399 13.2131C21.0118 13.1424 21.0478 13.0547 21.0478 12.9502L21.0576 7.96864Z" fill="black" fill-opacity="0.8"/>
</svg>
