<svg width="24" height="24" viewBox="0 0 24 24" fill="none" xmlns="http://www.w3.org/2000/svg">
<path d="M3.76434 21C4.46352 21 5.09871 20.8321 5.66992 20.4964C6.24112 20.1607 6.69684 19.7094 7.03707 19.1427C7.37729 18.576 7.5474 17.9446 7.5474 17.2484C7.5474 16.9958 7.55833 16.7849 7.58018 16.6155C7.60203 16.4461 7.65509 16.3044 7.73937 16.1905C7.82364 16.0765 7.96254 15.9702 8.15607 15.8717L24 7.56468C23.8065 6.87474 23.343 6.46509 22.6094 6.33572C21.8759 6.20636 20.9255 6.34804 19.7581 6.76078L11.7612 9.59753C11.1994 9.79466 10.778 10.0441 10.4971 10.346C10.2162 10.6478 10.0008 11.0544 9.85092 11.5657L9.66365 12.2403C9.59499 12.4805 9.48732 12.6761 9.34061 12.827C9.19391 12.9779 8.9364 13.1458 8.56809 13.3306L7.11666 14.0883C6.91065 14.193 6.72961 14.2454 6.57355 14.2454C6.37378 14.2454 6.19586 14.2084 6.0398 14.1345C5.88373 14.0605 5.71362 13.9759 5.52946 13.8804C5.3453 13.7849 5.11432 13.7017 4.83652 13.6309C4.55872 13.5601 4.20133 13.5246 3.76434 13.5246C3.06516 13.5246 2.43152 13.691 1.86344 14.0236C1.29536 14.3563 0.842764 14.8044 0.505658 15.368C0.168553 15.9317 0 16.5585 0 17.2484C0 17.9446 0.168553 18.576 0.505658 19.1427C0.842764 19.7094 1.29536 20.1607 1.86344 20.4964C2.43152 20.8321 3.06516 21 3.76434 21ZM3.76434 19.4846C3.35232 19.4846 2.97776 19.3845 2.64066 19.1842C2.30355 18.9841 2.03511 18.7146 1.83535 18.3757C1.63558 18.0369 1.5357 17.6611 1.5357 17.2484C1.5357 16.8419 1.63558 16.4707 1.83535 16.135C2.03511 15.7992 2.30355 15.5313 2.64066 15.3311C2.97776 15.1309 3.35232 15.0308 3.76434 15.0308C4.1826 15.0308 4.56184 15.1309 4.90206 15.3311C5.24229 15.5313 5.51385 15.7992 5.71673 16.135C5.91963 16.4707 6.02107 16.8419 6.02107 17.2484C6.02107 17.6611 5.91963 18.0369 5.71673 18.3757C5.51385 18.7146 5.24229 18.9841 4.90206 19.1842C4.56184 19.3845 4.1826 19.4846 3.76434 19.4846ZM11.9673 12.2772C11.7612 12.2772 11.5802 12.2017 11.4241 12.0508C11.268 11.8999 11.19 11.7197 11.19 11.5103C11.19 11.2885 11.268 11.1037 11.4241 10.9558C11.5802 10.808 11.7612 10.7341 11.9673 10.7341C12.1858 10.7341 12.3746 10.808 12.5338 10.9558C12.6929 11.1037 12.7725 11.2885 12.7725 11.5103C12.7725 11.7259 12.6929 11.9076 12.5338 12.0555C12.3746 12.2033 12.1858 12.2772 11.9673 12.2772ZM3.76434 10.4846C4.20133 10.4846 4.55872 10.4476 4.83652 10.3737C5.11432 10.2998 5.3453 10.2166 5.52946 10.1242C5.71362 10.0318 5.88529 9.9502 6.04448 9.87936C6.20366 9.80851 6.38002 9.77309 6.57355 9.77309C6.72961 9.77309 6.91065 9.82237 7.11666 9.92093L8.69918 10.7526C8.79907 10.8018 8.88802 10.8496 8.96606 10.8958C9.04409 10.942 9.11432 10.9866 9.17674 11.0298H9.23293C9.3453 10.6417 9.49357 10.3167 9.67775 10.0549C9.86191 9.79312 10.1007 9.56981 10.394 9.385V9.32956L8.26844 8.21149C8.0437 8.09445 7.88138 7.97587 7.7815 7.85575C7.68162 7.73562 7.61763 7.58932 7.58954 7.41683C7.56145 7.24435 7.5474 7.02258 7.5474 6.75153C7.5474 6.05544 7.37729 5.42402 7.03707 4.85729C6.69684 4.29055 6.24112 3.83932 5.66992 3.5036C5.09871 3.16787 4.46352 3 3.76434 3C3.06516 3 2.43152 3.1694 1.86344 3.50821C1.29536 3.84702 0.842764 4.29979 0.505658 4.86653C0.168553 5.43326 0 6.06159 0 6.75153C0 7.44147 0.168553 8.06827 0.505658 8.63192C0.842764 9.19558 1.29536 9.64527 1.86344 9.981C2.43152 10.3167 3.06516 10.4846 3.76434 10.4846ZM3.76434 8.97843C3.35232 8.97843 2.97776 8.87679 2.64066 8.6735C2.30355 8.47022 2.03511 8.20071 1.83535 7.86498C1.63558 7.52926 1.5357 7.15811 1.5357 6.75153C1.5357 6.33264 1.63558 5.95534 1.83535 5.61961C2.03511 5.28388 2.30355 5.01591 2.64066 4.81571C2.97776 4.6155 3.35232 4.5154 3.76434 4.5154C4.1826 4.5154 4.56184 4.6155 4.90206 4.81571C5.24229 5.01591 5.51385 5.28388 5.71673 5.61961C5.91963 5.95534 6.02107 6.33264 6.02107 6.75153C6.02107 7.15811 5.91963 7.52926 5.71673 7.86498C5.51385 8.20071 5.24229 8.47022 4.90206 8.6735C4.56184 8.87679 4.1826 8.97843 3.76434 8.97843ZM19.7581 17.267C20.9317 17.6982 21.8837 17.8429 22.6141 17.7013C23.3445 17.5595 23.8065 17.1345 24 16.4261L16.3777 12.4528L12.5104 14.4579V14.5688L19.7581 17.267Z" fill="black" fill-opacity="0.8"/>
</svg>
