<svg width="24" height="24" viewBox="0 0 24 24" fill="none" xmlns="http://www.w3.org/2000/svg">
<path d="M2 6.55743C2 6.83992 2.08751 7.06591 2.26254 7.2354C2.43757 7.40489 2.66885 7.48964 2.9564 7.48964H5.39428V19.0433C5.39428 20.0289 5.63807 20.768 6.12565 21.2608C6.61321 21.7536 7.3477 22 8.32911 22H19.0464C19.6402 22 20.159 21.8729 20.6029 21.6187C21.0467 21.3644 21.3905 21.0066 21.6343 20.5452C21.8781 20.0838 22 19.5423 22 18.9209V16.3597C22 16.0772 21.914 15.8512 21.7421 15.6818C21.5702 15.5123 21.3374 15.4275 21.0436 15.4275H20.2653V4.95669C20.2653 3.97112 20.0231 3.23195 19.5387 2.73917C19.0542 2.24639 18.3276 2 17.3586 2H4.45663C3.72527 2 3.13299 2.23227 2.67979 2.6968C2.2266 3.16133 2 3.78594 2 4.57062V6.55743ZM6.90388 19.0527V4.57062C6.90388 4.37602 6.89451 4.19083 6.87575 4.01506C6.857 3.8393 6.82887 3.67295 6.79136 3.51601H17.2742C17.7618 3.51601 18.1306 3.64156 18.3806 3.89265C18.6307 4.14376 18.7558 4.50471 18.7558 4.97552V15.4275H10.7014C10.4076 15.4275 10.1731 15.5123 9.99812 15.6818C9.82309 15.8512 9.73557 16.0772 9.73557 16.3597V19.0527C9.73557 19.4796 9.60274 19.8249 9.33708 20.0885C9.07141 20.3522 8.73542 20.484 8.32911 20.484C7.91029 20.484 7.56805 20.349 7.30238 20.0791C7.03672 19.8092 6.90388 19.467 6.90388 19.0527ZM3.50961 5.97363V4.57062C3.50961 4.24419 3.59869 3.98681 3.77684 3.79849C3.95499 3.61017 4.18159 3.51601 4.45663 3.51601C4.73793 3.51601 4.96452 3.61017 5.13642 3.79849C5.30833 3.98681 5.39428 4.24419 5.39428 4.57062V5.97363H3.50961ZM10.8795 20.484C11.1233 20.0508 11.2452 19.5392 11.2452 18.9491V16.9434H20.4904V18.9209C20.4904 19.3854 20.3575 19.7621 20.0919 20.0508C19.8262 20.3396 19.4777 20.484 19.0464 20.484H10.8795ZM9.6043 10.7853H12.9705C13.1393 10.7853 13.2784 10.7304 13.3878 10.6205C13.4971 10.5107 13.5517 10.3773 13.5517 10.2203C13.5517 10.0508 13.4971 9.9096 13.3878 9.79661C13.2784 9.68361 13.1393 9.62712 12.9705 9.62712H9.6043C9.43553 9.62712 9.29488 9.68361 9.18237 9.79661C9.06985 9.9096 9.01359 10.0508 9.01359 10.2203C9.01359 10.3773 9.06985 10.5107 9.18237 10.6205C9.29488 10.7304 9.43553 10.7853 9.6043 10.7853ZM9.6043 7.49905H16.0553C16.2241 7.49905 16.3631 7.44255 16.4725 7.32956C16.5819 7.21657 16.6366 7.07846 16.6366 6.91525C16.6366 6.75204 16.5819 6.6155 16.4725 6.50565C16.3631 6.39579 16.2241 6.34086 16.0553 6.34086H9.6043C9.43553 6.34086 9.29488 6.39579 9.18237 6.50565C9.06985 6.6155 9.01359 6.75204 9.01359 6.91525C9.01359 7.07846 9.06985 7.21657 9.18237 7.32956C9.29488 7.44255 9.43553 7.49905 9.6043 7.49905Z" fill="black" fill-opacity="0.8"/>
</svg>
