<svg width="24" height="24" viewBox="0 0 24 24" fill="none" xmlns="http://www.w3.org/2000/svg">
<path d="M2 6.55743C2 6.83992 2.08793 7.06591 2.26378 7.2354C2.43963 7.40489 2.67201 7.48964 2.96091 7.48964H4.12906V4.44821C4.12906 4.14689 4.0223 3.89893 3.80876 3.70433C3.59523 3.50973 3.34715 3.41242 3.06454 3.41242C2.78191 3.40615 2.53384 3.50188 2.3203 3.69963C2.10677 3.89736 2 4.14689 2 4.44821V6.55743ZM4.43995 2C4.80421 2.20716 5.057 2.46296 5.19831 2.76742C5.33962 3.07188 5.41028 3.4752 5.41028 3.9774V19.5424C5.41028 20.2078 5.58613 20.7225 5.93783 21.0866C6.28953 21.4507 6.75428 21.6327 7.33208 21.6327C7.8722 21.6327 8.30555 21.457 8.63213 21.1055C8.95871 20.7539 9.122 20.258 9.122 19.6177V17.0188C9.122 16.3785 9.27273 15.8952 9.57419 15.5688C9.87565 15.2423 10.3498 15.0791 10.9967 15.0791H20.0688V4.95669C20.0688 3.97112 19.8254 3.23195 19.3387 2.73917C18.8519 2.24639 18.1219 2 17.1484 2H4.43995ZM9.04664 6.91525C9.04664 6.75204 9.10317 6.6155 9.21621 6.50565C9.32926 6.39579 9.47057 6.34086 9.64014 6.34086H16.1216C16.2911 6.34086 16.4308 6.39579 16.5407 6.50565C16.6506 6.6155 16.7056 6.75204 16.7056 6.91525C16.7056 7.07846 16.6506 7.21657 16.5407 7.32956C16.4308 7.44255 16.2911 7.49905 16.1216 7.49905H9.64014C9.47057 7.49905 9.32926 7.44255 9.21621 7.32956C9.10317 7.21657 9.04664 7.07846 9.04664 6.91525ZM9.04664 10.2203C9.04664 10.0508 9.10317 9.9096 9.21621 9.79661C9.32926 9.68361 9.47057 9.62712 9.64014 9.62712H13.0222C13.1918 9.62712 13.3315 9.68361 13.4414 9.79661C13.5513 9.9096 13.6062 10.0508 13.6062 10.2203C13.6062 10.3773 13.5513 10.5107 13.4414 10.6205C13.3315 10.7304 13.1918 10.7853 13.0222 10.7853H9.64014C9.47057 10.7853 9.32926 10.7304 9.21621 10.6205C9.10317 10.5107 9.04664 10.3773 9.04664 10.2203ZM9.50825 22H19.0325C19.6292 22 20.1504 21.8729 20.5963 21.6187C21.0422 21.3644 21.3877 21.0066 21.6327 20.5452C21.8776 20.0838 22 19.5423 22 18.9209V17.3013C22 17.0188 21.9137 16.7913 21.741 16.6186C21.5682 16.446 21.3343 16.3597 21.0391 16.3597H11.3735C11.0784 16.3597 10.8428 16.446 10.667 16.6186C10.4911 16.7913 10.4032 17.0188 10.4032 17.3013V19.1469C10.4032 19.6867 10.3483 20.1952 10.2384 20.6723C10.1284 21.1494 9.88508 21.5919 9.50825 22Z" fill="black" fill-opacity="0.8"/>
</svg>
