<svg width="24" height="24" viewBox="0 0 24 24" fill="none" xmlns="http://www.w3.org/2000/svg">
<path d="M3 10.2803C3 11.2838 3.19038 12.225 3.57114 13.1039C3.9519 13.9828 4.48005 14.7567 5.15559 15.4258C5.83112 16.0948 6.6126 16.6178 7.50001 16.9949C8.38742 17.372 9.33778 17.5605 10.3511 17.5605C11.1495 17.5605 11.911 17.4389 12.6356 17.1956C13.3603 16.9523 14.0236 16.6178 14.6254 16.1921L19.1576 20.6897C19.2682 20.7932 19.3895 20.8708 19.5215 20.9225C19.6535 20.9742 19.7933 21 19.9407 21C20.1495 21 20.3337 20.9529 20.4934 20.8586C20.653 20.7643 20.7774 20.635 20.8664 20.4709C20.9555 20.3066 21 20.1241 21 19.9234C21 19.7775 20.9739 19.6407 20.9217 19.5129C20.8695 19.3852 20.7943 19.2727 20.6961 19.1754L16.1914 14.6868C16.6643 14.0786 17.0343 13.4004 17.3014 12.6523C17.5686 11.9042 17.7021 11.1135 17.7021 10.2803C17.7021 9.27673 17.5118 8.33552 17.1311 7.45666C16.7503 6.5778 16.2221 5.80385 15.5466 5.13482C14.8711 4.46579 14.0896 3.94273 13.2021 3.56564C12.3147 3.18855 11.3644 3 10.3511 3C9.33778 3 8.38742 3.18855 7.50001 3.56564C6.6126 3.94273 5.83112 4.46579 5.15559 5.13482C4.48005 5.80385 3.9519 6.5778 3.57114 7.45666C3.19038 8.33552 3 9.27673 3 10.2803ZM4.57523 10.2803C4.57523 9.4896 4.72416 8.74911 5.022 8.05879C5.31986 7.36847 5.7344 6.76026 6.26561 6.23415C6.79683 5.70806 7.41096 5.29751 8.10799 5.00253C8.80503 4.70755 9.55273 4.56006 10.3511 4.56006C11.1495 4.56006 11.8971 4.70755 12.5942 5.00253C13.2912 5.29751 13.9038 5.70806 14.4319 6.23415C14.9601 6.76026 15.3746 7.36847 15.6756 8.05879C15.9765 8.74911 16.1269 9.4896 16.1269 10.2803C16.1269 11.0709 15.9765 11.8114 15.6756 12.5018C15.3746 13.1921 14.9601 13.7988 14.4319 14.3218C13.9038 14.8449 13.2912 15.2554 12.5942 15.5535C11.8971 15.8515 11.1495 16.0005 10.3511 16.0005C9.55273 16.0005 8.80503 15.8515 8.10799 15.5535C7.41096 15.2554 6.79683 14.8449 6.26561 14.3218C5.7344 13.7988 5.31986 13.1921 5.022 12.5018C4.72416 11.8114 4.57523 11.0709 4.57523 10.2803ZM7.44935 9.6964H13.2804C13.4647 9.6964 13.6182 9.63405 13.741 9.50937C13.8639 9.38469 13.9253 9.23416 13.9253 9.05778C13.9253 8.87531 13.8639 8.72326 13.741 8.60161C13.6182 8.47997 13.4647 8.41915 13.2804 8.41915H7.44935C7.25896 8.41915 7.10389 8.47997 6.98414 8.60161C6.86438 8.72326 6.80451 8.87531 6.80451 9.05778C6.80451 9.23416 6.86438 9.38469 6.98414 9.50937C7.10389 9.63405 7.25896 9.6964 7.44935 9.6964ZM7.44935 12.1323H11.6868C11.8649 12.1323 12.0169 12.0715 12.1428 11.9498C12.2687 11.8282 12.3316 11.6761 12.3316 11.4937C12.3316 11.3173 12.2687 11.1667 12.1428 11.0421C12.0169 10.9174 11.8649 10.855 11.6868 10.855H7.44935C7.25896 10.855 7.10389 10.9174 6.98414 11.0421C6.86438 11.1667 6.80451 11.3173 6.80451 11.4937C6.80451 11.6761 6.86438 11.8282 6.98414 11.9498C7.10389 12.0715 7.25896 12.1323 7.44935 12.1323Z" fill="black" fill-opacity="0.8"/>
</svg>
