<svg width="24" height="24" viewBox="0 0 24 24" fill="none" xmlns="http://www.w3.org/2000/svg">
<path d="M6.26957 16.1693H7.45218C7.63189 16.1693 7.78117 16.1202 7.90001 16.0219C8.01885 15.9236 8.09856 15.7936 8.13913 15.6319L8.48696 14.2017C8.6087 14.1554 8.72754 14.1092 8.84348 14.063C8.95946 14.0167 9.06959 13.9647 9.17389 13.9069L10.4348 14.687C10.5797 14.7737 10.7305 14.8098 10.887 14.7954C11.0435 14.781 11.1826 14.7131 11.3043 14.5917L12.1391 13.7509C12.2551 13.6296 12.3232 13.4895 12.3435 13.3305C12.3638 13.1716 12.3275 13.0171 12.2348 12.8668L11.4609 11.6359C11.5131 11.5262 11.5638 11.4149 11.6131 11.3022C11.6623 11.1896 11.7044 11.0754 11.7391 10.9599L13.1739 10.6131C13.3478 10.5727 13.4826 10.4947 13.5783 10.3791C13.6739 10.2635 13.7218 10.1162 13.7218 9.93705V8.76688C13.7218 8.40283 13.5392 8.17747 13.1739 8.09079L11.7565 7.7354C11.7101 7.60828 11.6638 7.48837 11.6174 7.37569C11.5711 7.26301 11.5247 7.15754 11.4782 7.05931L12.2348 5.80247C12.3217 5.64645 12.3623 5.49331 12.3566 5.34307C12.3508 5.19282 12.2841 5.05703 12.1565 4.93568L11.3043 4.10356C11.1826 3.98799 11.0464 3.91864 10.8956 3.89553C10.7449 3.87242 10.5971 3.9042 10.4522 3.99087L9.17389 4.77965C9.07535 4.72187 8.96811 4.66986 8.85219 4.62363C8.73624 4.5774 8.6145 4.53407 8.48696 4.49362L8.13913 3.03741C8.09856 2.87561 8.01885 2.74559 7.90001 2.64735C7.78117 2.54912 7.63189 2.5 7.45218 2.5H6.26957C6.08986 2.5 5.94059 2.54912 5.82175 2.64735C5.7029 2.74559 5.62319 2.87561 5.58261 3.03741L5.23479 4.47628C5.11305 4.52251 4.99276 4.56874 4.87391 4.61497C4.75508 4.66119 4.64349 4.7132 4.53914 4.77099L3.26957 3.99087C3.12464 3.9042 2.97681 3.87242 2.82609 3.89553C2.67536 3.91864 2.53913 3.98799 2.41739 4.10356L1.56522 4.93568C1.43768 5.05703 1.37102 5.19282 1.36522 5.34307C1.35942 5.49331 1.4 5.64645 1.48696 5.80247L2.24348 7.05931C2.19711 7.15754 2.15073 7.26301 2.10435 7.37569C2.05797 7.48837 2.0116 7.60828 1.96522 7.7354L0.539131 8.09079C0.17971 8.17747 0 8.40283 0 8.76688V9.93705C0 10.1162 0.0478262 10.2635 0.143479 10.3791C0.239131 10.4947 0.371015 10.5727 0.539131 10.6131L1.98261 10.9599C2.01739 11.0754 2.05942 11.1896 2.10869 11.3022C2.15797 11.4149 2.2087 11.5262 2.26087 11.6359L1.48696 12.8668C1.3942 13.0171 1.35797 13.1716 1.37826 13.3305C1.39855 13.4895 1.46667 13.6296 1.58261 13.7509L2.41739 14.5917C2.53913 14.7131 2.67826 14.781 2.83478 14.7954C2.99131 14.8098 3.14204 14.7737 3.28696 14.687L4.54783 13.9069C4.65218 13.9647 4.76232 14.0167 4.87827 14.063C4.99421 14.1092 5.11305 14.1554 5.23479 14.2017L5.58261 15.6319C5.62319 15.7936 5.7029 15.9236 5.82175 16.0219C5.94059 16.1202 6.08986 16.1693 6.26957 16.1693ZM6.86088 11.5146C6.46088 11.5146 6.09421 11.4164 5.76088 11.2199C5.42754 11.0234 5.16232 10.7591 4.96522 10.4268C4.76812 10.0945 4.66957 9.72613 4.66957 9.32163C4.66957 8.92868 4.76812 8.56752 4.96522 8.23814C5.16232 7.90876 5.42754 7.64584 5.76088 7.44937C6.09421 7.2529 6.46088 7.15466 6.86088 7.15466C7.26088 7.15466 7.6261 7.2529 7.95653 7.44937C8.28697 7.64584 8.55218 7.90876 8.75218 8.23814C8.95217 8.56752 9.05217 8.92868 9.05217 9.32163C9.05217 9.72613 8.95217 10.0945 8.75218 10.4268C8.55218 10.7591 8.28697 11.0234 7.95653 11.2199C7.6261 11.4164 7.26088 11.5146 6.86088 11.5146ZM17.6174 21.5H18.6087C18.7652 21.5 18.8957 21.4581 19 21.3743C19.1044 21.2905 19.174 21.1793 19.2087 21.0406L19.4956 19.8011C19.6058 19.7607 19.7116 19.7202 19.8131 19.6797C19.9145 19.6393 20.0116 19.5931 20.1043 19.5411L21.1913 20.2172C21.313 20.2923 21.4406 20.3241 21.5739 20.3125C21.7072 20.301 21.829 20.2432 21.9392 20.1391L22.6348 19.4371C22.7391 19.3272 22.8 19.203 22.8174 19.0644C22.8348 18.9257 22.8029 18.7956 22.7218 18.6743L22.0522 17.5995C22.0986 17.507 22.1421 17.4116 22.1826 17.3134C22.2232 17.2152 22.2609 17.117 22.2957 17.0187L23.5478 16.724C23.8493 16.6547 24 16.4582 24 16.1346V15.1551C24 14.8257 23.8493 14.6264 23.5478 14.5571L22.3043 14.2623C22.229 14.0254 22.1479 13.8289 22.0609 13.6729L22.7218 12.5808C22.8029 12.4536 22.8391 12.325 22.8304 12.195C22.8217 12.065 22.7624 11.9451 22.6522 11.8353L21.9392 11.1419C21.829 11.0379 21.7087 10.9757 21.5783 10.9555C21.4479 10.9353 21.3218 10.9627 21.2 11.0379L20.1043 11.7226C20.0174 11.6822 19.9217 11.6388 19.8174 11.5926C19.7131 11.5464 19.6058 11.5089 19.4956 11.48L19.2087 10.2144C19.174 10.0757 19.1044 9.96305 19 9.87637C18.8957 9.7897 18.7652 9.74636 18.6087 9.74636H17.6174C17.4609 9.74636 17.3305 9.7897 17.2261 9.87637C17.1217 9.96305 17.0522 10.0757 17.0174 10.2144L16.7218 11.4626C16.6174 11.5031 16.513 11.5421 16.4087 11.5797C16.3044 11.6172 16.2058 11.6619 16.1131 11.7139L15.0174 11.0379C14.9014 10.9685 14.7768 10.9425 14.6435 10.9599C14.5102 10.9772 14.3913 11.0379 14.287 11.1419L13.5826 11.8353C13.4667 11.9451 13.4043 12.065 13.3956 12.195C13.387 12.325 13.4232 12.4536 13.5043 12.5808L14.1565 13.6729C14.116 13.7538 14.0768 13.8434 14.0391 13.9416C14.0014 14.0398 13.9623 14.1467 13.9218 14.2623L12.6869 14.5571C12.542 14.5917 12.4275 14.661 12.3435 14.765C12.2594 14.8691 12.2174 14.9991 12.2174 15.1551V16.1346C12.2174 16.2906 12.2594 16.4206 12.3435 16.5246C12.4275 16.6286 12.542 16.6951 12.6869 16.724L13.9391 17.0187C13.9681 17.117 14.0029 17.2152 14.0435 17.3134C14.084 17.4116 14.1275 17.507 14.174 17.5995L13.5043 18.6743C13.4174 18.7956 13.384 18.9257 13.4044 19.0644C13.4247 19.203 13.487 19.3272 13.5913 19.4371L14.287 20.1391C14.3913 20.2432 14.5116 20.301 14.6478 20.3125C14.7841 20.3241 14.9131 20.2923 15.0348 20.2172L16.1218 19.5411C16.2145 19.5931 16.3116 19.6393 16.413 19.6797C16.5145 19.7202 16.6174 19.7607 16.7218 19.8011L17.0174 21.0406C17.0522 21.1793 17.1217 21.2905 17.2261 21.3743C17.3305 21.4581 17.4609 21.5 17.6174 21.5ZM18.1131 17.3567C17.6377 17.3567 17.229 17.1877 16.8869 16.8497C16.5449 16.5117 16.374 16.1 16.374 15.6146C16.374 15.1407 16.5449 14.7347 16.8869 14.3967C17.229 14.0586 17.6377 13.8896 18.1131 13.8896C18.5942 13.8896 19.0043 14.0586 19.3435 14.3967C19.6826 14.7347 19.8522 15.1407 19.8522 15.6146C19.8522 16.1 19.6826 16.5117 19.3435 16.8497C19.0043 17.1877 18.5942 17.3567 18.1131 17.3567Z" fill="black" fill-opacity="0.8"/>
</svg>
