<svg width="24" height="24" viewBox="0 0 24 24" fill="none" xmlns="http://www.w3.org/2000/svg">
<path d="M11.0561 22H12.9439C13.3053 22 13.6153 21.8987 13.8738 21.696C14.1324 21.4933 14.3022 21.2173 14.3832 20.8681L14.7851 19.1188L15.0842 19.0159L16.6075 19.9513C16.9066 20.1447 17.2212 20.2195 17.5514 20.1759C17.8817 20.1322 18.1745 19.9825 18.43 19.7269L19.7384 18.4265C19.9938 18.1708 20.1433 17.8778 20.1869 17.5473C20.2306 17.2167 20.1558 16.9018 19.9626 16.6024L19.0093 15.087L19.1215 14.8063L20.8692 14.3948C21.2119 14.3137 21.486 14.1422 21.6917 13.8802C21.8972 13.6183 22 13.3096 22 12.9541V11.102C22 10.7465 21.8972 10.4378 21.6917 10.1759C21.486 9.91394 21.2119 9.74244 20.8692 9.66137L19.1403 9.24041L19.0187 8.94106L19.972 7.42563C20.1651 7.12629 20.2399 6.81291 20.1963 6.4855C20.1527 6.15809 20.0031 5.86343 19.7477 5.6015L18.4392 4.29186C18.19 4.04241 17.9003 3.89585 17.5701 3.8522C17.2399 3.80854 16.9253 3.88026 16.6262 4.06735L15.1028 5.00281L14.7851 4.8812L14.3832 3.1319C14.3022 2.7889 14.1324 2.5145 13.8738 2.3087C13.6153 2.1029 13.3053 2 12.9439 2H11.0561C10.6947 2 10.3847 2.1029 10.1262 2.3087C9.86762 2.5145 9.69783 2.7889 9.61683 3.1319L9.20562 4.8812L8.88787 5.00281L7.37384 4.06735C7.06854 3.88026 6.75235 3.80854 6.42524 3.8522C6.09814 3.89585 5.80686 4.04241 5.55141 4.29186L4.25234 5.6015C3.99066 5.86343 3.83957 6.15809 3.79907 6.4855C3.75857 6.81291 3.8349 7.12629 4.02804 7.42563L4.97197 8.94106L4.85982 9.24041L3.13084 9.66137C2.78193 9.74244 2.50623 9.91394 2.30374 10.1759C2.10125 10.4378 2 10.7465 2 11.102V12.9541C2 13.3096 2.1028 13.6183 2.30841 13.8802C2.51402 14.1422 2.78816 14.3137 3.13084 14.3948L4.87851 14.8063L4.98131 15.087L4.03739 16.6024C3.84424 16.9018 3.76792 17.2167 3.80842 17.5473C3.84891 17.8778 4 18.1708 4.26169 18.4265L5.56075 19.7269C5.8162 19.9825 6.10904 20.1322 6.43926 20.1759C6.76948 20.2195 7.08724 20.1447 7.39254 19.9513L8.90656 19.0159L9.20562 19.1188L9.61683 20.8681C9.69783 21.2173 9.86762 21.4933 10.1262 21.696C10.3847 21.8987 10.6947 22 11.0561 22ZM11.2056 20.5407C11.0499 20.5407 10.9595 20.469 10.9346 20.3256L10.3738 18.0056C10.0872 17.937 9.81466 17.8482 9.55609 17.739C9.29752 17.6299 9.06854 17.513 8.86917 17.3883L6.83179 18.6417C6.71964 18.7228 6.60437 18.7072 6.48599 18.5949L5.38319 17.4911C5.2835 17.3976 5.27104 17.2822 5.3458 17.145L6.59814 15.1244C6.49222 14.9249 6.38318 14.6973 6.27104 14.4416C6.15889 14.1859 6.06543 13.9146 5.99066 13.6277L3.6729 13.0758C3.5296 13.0508 3.45795 12.9604 3.45795 12.8045V11.2423C3.45795 11.0926 3.5296 11.0022 3.6729 10.971L5.98132 10.4097C6.05608 10.1041 6.15421 9.82039 6.27571 9.55846C6.3972 9.29654 6.49845 9.07827 6.57945 8.90365L5.33646 6.88307C5.25546 6.74587 5.26481 6.62426 5.36449 6.51825L6.47664 5.43311C6.5888 5.33333 6.70718 5.31774 6.83179 5.38635L8.85048 6.61178C9.04985 6.49953 9.28506 6.38728 9.55609 6.27502C9.82712 6.16277 10.1028 6.06922 10.3832 5.99439L10.9346 3.67447C10.9595 3.53103 11.0499 3.45931 11.2056 3.45931H12.7944C12.9502 3.45931 13.0374 3.53103 13.0561 3.67447L13.6262 6.01309C13.919 6.08793 14.1916 6.17992 14.4439 6.28906C14.6963 6.39819 14.9252 6.50889 15.1309 6.62114L17.1589 5.38635C17.2897 5.31774 17.4112 5.33333 17.5234 5.43311L18.6262 6.51825C18.7321 6.62426 18.7415 6.74587 18.6542 6.88307L17.4112 8.90365C17.4984 9.07827 17.6013 9.29654 17.7197 9.55846C17.838 9.82039 17.9346 10.1041 18.0094 10.4097L20.3271 10.971C20.4704 11.0022 20.5421 11.0926 20.5421 11.2423V12.8045C20.5421 12.9604 20.4704 13.0508 20.3271 13.0758L18.0001 13.6277C17.9253 13.9146 17.8334 14.1859 17.7244 14.4416C17.6153 14.6973 17.5047 14.9249 17.3926 15.1244L18.6449 17.145C18.7259 17.2822 18.7134 17.3976 18.6075 17.4911L17.514 18.5949C17.3957 18.7072 17.2773 18.7228 17.1589 18.6417L15.1215 17.3883C14.9221 17.513 14.6947 17.6299 14.4392 17.739C14.1838 17.8482 13.9128 17.937 13.6262 18.0056L13.0561 20.3256C13.0374 20.469 12.9502 20.5407 12.7944 20.5407H11.2056ZM12 15.5734C12.6542 15.5734 13.2508 15.4128 13.7897 15.0917C14.3287 14.7705 14.7586 14.3387 15.0795 13.7961C15.4003 13.2535 15.5608 12.6548 15.5608 12C15.5608 11.3514 15.4003 10.7574 15.0795 10.218C14.7586 9.67852 14.3287 9.24821 13.7897 8.92704C13.2508 8.60587 12.6542 8.44528 12 8.44528C11.3458 8.44528 10.7492 8.60587 10.2103 8.92704C9.67136 9.24821 9.23989 9.67852 8.9159 10.218C8.59191 10.7574 8.42992 11.3514 8.42992 12C8.42992 12.6548 8.59191 13.2519 8.9159 13.7914C9.23989 14.3309 9.67136 14.7627 10.2103 15.087C10.7492 15.4113 11.3458 15.5734 12 15.5734ZM12 14.1234C11.6137 14.1234 11.2601 14.0283 10.9393 13.8382C10.6184 13.6479 10.3629 13.3922 10.1729 13.0711C9.98288 12.7499 9.88787 12.3929 9.88787 12C9.88787 11.6134 9.98288 11.261 10.1729 10.9429C10.3629 10.6249 10.6184 10.3708 10.9393 10.1805C11.2601 9.99034 11.6137 9.89523 12 9.89523C12.3801 9.89523 12.729 9.99034 13.0468 10.1805C13.3645 10.3708 13.6184 10.6249 13.8085 10.9429C13.9985 11.261 14.0935 11.6134 14.0935 12C14.0935 12.3867 13.9985 12.7406 13.8085 13.0618C13.6184 13.3829 13.3645 13.6402 13.0468 13.8335C12.729 14.0268 12.3801 14.1234 12 14.1234Z" fill="black" fill-opacity="0.8"/>
</svg>
