<svg width="24" height="24" viewBox="0 0 24 24" fill="none" xmlns="http://www.w3.org/2000/svg">
<path d="M6.23615 16.23H7.51311C7.78717 16.23 8.02478 16.1528 8.22594 15.9984C8.4271 15.844 8.55684 15.6357 8.61515 15.3735L8.86005 14.2635C8.87171 14.2577 8.88629 14.2519 8.90379 14.2461C8.92127 14.2402 8.93585 14.2344 8.94751 14.2286L9.9359 14.8229C10.1574 14.9569 10.395 15.0093 10.6486 14.9802C10.9023 14.9511 11.1225 14.8433 11.3091 14.6568L12.2011 13.7566C12.3994 13.5586 12.5117 13.3342 12.5379 13.0837C12.5641 12.8331 12.5073 12.5972 12.3673 12.3758L11.7639 11.4232C11.7639 11.4173 11.7653 11.4101 11.7682 11.4013C11.7711 11.3926 11.774 11.3853 11.7769 11.3795C11.7799 11.3736 11.7828 11.3664 11.7857 11.3576C11.7886 11.3489 11.793 11.3387 11.7988 11.327L12.8921 11.0648C13.1487 11.0008 13.3557 10.8682 13.5131 10.6672C13.6706 10.4662 13.7493 10.2288 13.7493 9.95491V8.76632C13.7493 8.49248 13.672 8.25505 13.5175 8.05404C13.363 7.85303 13.1545 7.72048 12.8921 7.65639L11.7988 7.3942C11.793 7.37672 11.7872 7.36069 11.7813 7.34613C11.7755 7.33156 11.7697 7.31554 11.7639 7.29806L12.3673 6.34545C12.5073 6.11821 12.5641 5.88079 12.5379 5.63316C12.5117 5.38554 12.3994 5.16268 12.2011 4.96458L11.3091 4.07313C11.1225 3.88669 10.9023 3.7789 10.6486 3.74976C10.395 3.72064 10.1574 3.77308 9.9359 3.90709L8.94751 4.49264C8.94168 4.49264 8.93439 4.49118 8.92565 4.48827C8.9169 4.48536 8.90815 4.48244 8.89941 4.47952C8.89066 4.47661 8.88338 4.4737 8.87754 4.47079C8.87171 4.46788 8.86296 4.46642 8.8513 4.46642L8.61515 3.34775C8.56267 3.09138 8.43439 2.886 8.23031 2.7316C8.02623 2.5772 7.78717 2.5 7.51311 2.5H6.23615C5.9621 2.5 5.72449 2.5772 5.52332 2.7316C5.32215 2.886 5.19242 3.09138 5.1341 3.34775L4.8892 4.46642C4.87172 4.47225 4.85568 4.47661 4.8411 4.47952C4.82653 4.48244 4.81049 4.48681 4.793 4.49264L3.81341 3.90709C3.59183 3.77308 3.35422 3.72064 3.10058 3.74976C2.84694 3.7789 2.62682 3.88669 2.44023 4.07313L1.54811 4.96458C1.34985 5.16268 1.23906 5.387 1.21574 5.63753C1.19242 5.88807 1.24781 6.12404 1.38192 6.34545L1.98542 7.29806C1.98542 7.30972 1.98251 7.31845 1.97667 7.32428C1.97085 7.3301 1.96647 7.33739 1.96355 7.34613C1.96064 7.35487 1.95918 7.36361 1.95918 7.37235C1.95918 7.38109 1.95627 7.38837 1.95043 7.3942L0.848396 7.65639C0.591836 7.72048 0.386297 7.85303 0.231778 8.05404C0.0772594 8.25505 0 8.49248 0 8.76632V9.95491C0 10.2288 0.0772594 10.4662 0.231778 10.6672C0.386297 10.8682 0.591836 11.0008 0.848396 11.0648L1.95043 11.327C1.95627 11.3445 1.9621 11.3605 1.96793 11.3751C1.97376 11.3897 1.97959 11.4057 1.98542 11.4232L1.38192 12.3758C1.24198 12.5972 1.18513 12.8331 1.21137 13.0837C1.23761 13.3342 1.34985 13.5586 1.54811 13.7566L2.44023 14.6568C2.62682 14.8433 2.84548 14.9511 3.09621 14.9802C3.34693 15.0093 3.58309 14.9569 3.80466 14.8229L4.80175 14.2286C4.81341 14.2344 4.82799 14.2402 4.84548 14.2461C4.86297 14.2519 4.87754 14.2577 4.8892 14.2635L5.1341 15.3735C5.19242 15.6357 5.32215 15.844 5.52332 15.9984C5.72449 16.1528 5.9621 16.23 6.23615 16.23ZM6.40233 15.0064C6.35568 15.0064 6.32069 14.9948 6.29737 14.9714C6.27405 14.9482 6.25656 14.9161 6.2449 14.8753L5.8688 13.311C5.65888 13.2644 5.45918 13.1988 5.26968 13.1143C5.08017 13.0299 4.90962 12.9439 4.75801 12.8565L3.39358 13.6867C3.35276 13.7101 3.31486 13.7203 3.27988 13.7173C3.2449 13.7144 3.21283 13.6984 3.18367 13.6693L2.51895 13.0137C2.48396 12.9846 2.46647 12.9541 2.46647 12.922C2.46647 12.89 2.47813 12.8535 2.50146 12.8127L3.32361 11.4582C3.27114 11.3241 3.19825 11.1624 3.10496 10.9731C3.01166 10.7837 2.93878 10.5754 2.8863 10.3482L1.34694 9.98113C1.30029 9.96948 1.26676 9.952 1.24635 9.92869C1.22594 9.90539 1.21574 9.87043 1.21574 9.82381V8.89742C1.21574 8.85663 1.22594 8.82313 1.24635 8.79691C1.26676 8.77069 1.30029 8.75467 1.34694 8.74884L2.8863 8.38178C2.93878 8.14872 3.01166 7.93751 3.10496 7.74815C3.19825 7.5588 3.27114 7.39711 3.32361 7.26311L2.50146 5.90846C2.47813 5.86767 2.46647 5.83271 2.46647 5.80359C2.46647 5.77445 2.48396 5.74241 2.51895 5.70744L3.18367 5.06072C3.21283 5.02575 3.2449 5.00682 3.27988 5.0039C3.31486 5.00099 3.35276 5.01119 3.39358 5.03449L4.75801 5.86476C4.90962 5.78319 5.08017 5.70017 5.26968 5.61569C5.45918 5.5312 5.65888 5.46273 5.8688 5.4103L6.2449 3.85464C6.25656 3.80803 6.27405 3.77453 6.29737 3.75414C6.32069 3.73375 6.35568 3.72355 6.40233 3.72355H7.34693C7.39358 3.72355 7.42856 3.73375 7.45189 3.75414C7.47521 3.77453 7.49271 3.80803 7.50437 3.85464L7.88046 5.4103C8.09037 5.46273 8.29008 5.5312 8.47958 5.61569C8.66909 5.70017 8.83965 5.78319 8.99128 5.86476L10.3557 5.03449C10.3965 5.01119 10.433 5.00099 10.465 5.0039C10.4971 5.00682 10.5306 5.02575 10.5656 5.06072L11.2303 5.70744C11.2653 5.74241 11.2828 5.77445 11.2828 5.80359C11.2828 5.83271 11.2712 5.86767 11.2478 5.90846L10.4256 7.26311C10.4781 7.39711 10.551 7.5588 10.6443 7.74815C10.7376 7.93751 10.8105 8.14872 10.863 8.38178L12.4024 8.74884C12.449 8.75467 12.4825 8.77069 12.5029 8.79691C12.5233 8.82313 12.5335 8.85663 12.5335 8.89742V9.82381C12.5335 9.87043 12.5233 9.90539 12.5029 9.92869C12.4825 9.952 12.449 9.96948 12.4024 9.98113L10.863 10.3482C10.8105 10.5754 10.7376 10.7837 10.6443 10.9731C10.551 11.1624 10.4781 11.3241 10.4256 11.4582L11.2478 12.8127C11.2712 12.8535 11.2828 12.89 11.2828 12.922C11.2828 12.9541 11.2653 12.9846 11.2303 13.0137L10.5656 13.6693C10.5306 13.6984 10.4971 13.7144 10.465 13.7173C10.433 13.7203 10.3965 13.7101 10.3557 13.6867L8.99128 12.8565C8.83965 12.9439 8.66909 13.0299 8.47958 13.1143C8.29008 13.1988 8.09037 13.2644 7.88046 13.311L7.50437 14.8753C7.49271 14.9161 7.47521 14.9482 7.45189 14.9714C7.42856 14.9948 7.39358 15.0064 7.34693 15.0064H6.40233ZM6.87463 12.0175C7.35859 12.0175 7.80028 11.8966 8.1997 11.6548C8.59912 11.413 8.91689 11.0925 9.15303 10.6934C9.38918 10.2943 9.50725 9.85004 9.50725 9.36062C9.50725 8.87702 9.38918 8.43713 9.15303 8.04093C8.91689 7.64473 8.59912 7.32719 8.1997 7.08831C7.80028 6.84942 7.35859 6.72998 6.87463 6.72998C6.38483 6.72998 5.94023 6.84942 5.54081 7.08831C5.1414 7.32719 4.82215 7.64473 4.58309 8.04093C4.34402 8.43713 4.22449 8.87702 4.22449 9.36062C4.22449 9.84421 4.34402 10.287 4.58309 10.689C4.82215 11.0911 5.1414 11.413 5.54081 11.6548C5.94023 11.8966 6.38483 12.0175 6.87463 12.0175ZM6.87463 10.724C6.62973 10.724 6.40378 10.6628 6.19679 10.5405C5.98979 10.4181 5.82361 10.255 5.69824 10.051C5.57288 9.84712 5.5102 9.61698 5.5102 9.36062C5.5102 9.11591 5.57288 8.89159 5.69824 8.68766C5.82361 8.48374 5.98979 8.3206 6.19679 8.19825C6.40378 8.07589 6.62973 8.01471 6.87463 8.01471C7.11953 8.01471 7.34402 8.07589 7.54809 8.19825C7.75218 8.3206 7.91399 8.48374 8.03352 8.68766C8.15305 8.89159 8.21282 9.11591 8.21282 9.36062C8.21282 9.61116 8.15305 9.83984 8.03352 10.0467C7.91399 10.2535 7.75218 10.4181 7.54809 10.5405C7.34402 10.6628 7.11953 10.724 6.87463 10.724ZM17.7114 21.5H18.7171C18.9621 21.5 19.1793 21.433 19.3688 21.299C19.5583 21.1649 19.6735 20.9843 19.7143 20.7571L19.8805 19.8744C19.898 19.8744 19.914 19.8715 19.9286 19.8657C19.9431 19.8598 19.9592 19.854 19.9767 19.8482L20.7201 20.3113C20.9242 20.4396 21.1399 20.4891 21.3673 20.46C21.5947 20.4308 21.7959 20.3259 21.9708 20.1453L22.6793 19.4374C22.8542 19.2568 22.9562 19.0529 22.9854 18.8257C23.0146 18.5984 22.9621 18.3828 22.828 18.1789L22.3556 17.4623C22.3556 17.4565 22.3571 17.4491 22.36 17.4404C22.3629 17.4317 22.3659 17.4244 22.3688 17.4185C22.3717 17.4128 22.3746 17.4055 22.3776 17.3967C22.3804 17.388 22.3848 17.3807 22.3906 17.3749L23.2565 17.1913C23.4781 17.1447 23.6574 17.0297 23.7945 16.8461C23.9315 16.6626 24 16.4456 24 16.195V15.2162C24 14.9715 23.9315 14.7559 23.7945 14.5694C23.6574 14.383 23.4781 14.2664 23.2565 14.2199L22.3906 14.0451C22.3848 14.0276 22.379 14.0116 22.3732 13.997C22.3673 13.9825 22.3615 13.9664 22.3556 13.949L22.828 13.2323C22.9621 13.0284 23.0146 12.8128 22.9854 12.5855C22.9562 12.3583 22.8542 12.1573 22.6793 11.9825L21.9708 11.2659C21.7959 11.0852 21.5947 10.9818 21.3673 10.9556C21.1399 10.9294 20.9242 10.9775 20.7201 11.0998L19.9767 11.563C19.9708 11.563 19.9635 11.5616 19.9548 11.5587C19.946 11.5557 19.9388 11.5528 19.933 11.5499C19.9271 11.547 19.9198 11.544 19.911 11.5411C19.9023 11.5383 19.8921 11.5368 19.8805 11.5368L19.7143 10.6628C19.6735 10.4298 19.5583 10.2462 19.3688 10.1122C19.1793 9.97822 18.9621 9.91121 18.7171 9.91121H17.7114C17.4606 9.91121 17.2405 9.97822 17.051 10.1122C16.8615 10.2462 16.7463 10.4298 16.7055 10.6628L16.5393 11.5368C16.5219 11.5426 16.5058 11.547 16.4913 11.5499C16.4767 11.5528 16.4607 11.5572 16.4432 11.563L15.6997 11.0998C15.4956 10.9775 15.2813 10.9294 15.0568 10.9556C14.8323 10.9818 14.6326 11.0852 14.4577 11.2659L13.7493 11.9825C13.5743 12.1573 13.4708 12.3583 13.4388 12.5855C13.4067 12.8128 13.4577 13.0284 13.5918 13.2323L14.0641 13.949C14.0641 13.9547 14.0626 13.962 14.0597 13.9708C14.0569 13.9795 14.054 13.9868 14.051 13.9926C14.0481 13.9985 14.0452 14.0058 14.0423 14.0145C14.0393 14.0232 14.0379 14.0334 14.0379 14.0451L13.172 14.2199C12.9446 14.2664 12.7624 14.383 12.6254 14.5694C12.4883 14.7559 12.4198 14.9715 12.4198 15.2162V16.195C12.4198 16.4456 12.4883 16.6626 12.6254 16.8461C12.7624 17.0297 12.9446 17.1447 13.172 17.1913L14.0379 17.3749C14.0437 17.3924 14.0481 17.4069 14.051 17.4185C14.054 17.4302 14.0583 17.4448 14.0641 17.4623L13.5918 18.1789C13.4577 18.3828 13.4067 18.5984 13.4388 18.8257C13.4708 19.0529 13.5743 19.2568 13.7493 19.4374L14.4577 20.1453C14.6326 20.3259 14.8323 20.4308 15.0568 20.46C15.2813 20.4891 15.4956 20.4396 15.6997 20.3113L16.4432 19.8482C16.4489 19.8482 16.4562 19.8496 16.465 19.8525C16.4737 19.8554 16.4825 19.8584 16.4913 19.8613C16.5 19.8642 16.5073 19.8671 16.5131 19.8701C16.519 19.873 16.5277 19.8744 16.5393 19.8744L16.7055 20.7571C16.7463 20.9843 16.8615 21.1649 17.051 21.299C17.2405 21.433 17.4606 21.5 17.7114 21.5ZM17.9388 20.3376C17.8863 20.3376 17.8469 20.3259 17.8207 20.3027C17.7944 20.2793 17.7726 20.2444 17.7551 20.1978L17.4489 18.9392C17.0991 18.8635 16.7667 18.7237 16.4518 18.5198L15.3499 19.2102C15.3149 19.2335 15.277 19.2422 15.2361 19.2364C15.1953 19.2306 15.1575 19.2131 15.1225 19.184L14.7288 18.7732C14.6881 18.7324 14.6662 18.6945 14.6633 18.6596C14.6604 18.6246 14.6705 18.5867 14.6938 18.546L15.3586 17.471C15.3236 17.3661 15.2609 17.2248 15.1706 17.0471C15.0802 16.8694 15.0116 16.6728 14.965 16.4572L13.7143 16.1688C13.6734 16.163 13.6399 16.1441 13.6137 16.112C13.5874 16.0799 13.5743 16.0406 13.5743 15.994V15.4172C13.5743 15.3764 13.5874 15.34 13.6137 15.3079C13.6399 15.2759 13.6734 15.254 13.7143 15.2424L14.965 14.954C15.0116 14.7384 15.0802 14.5432 15.1706 14.3684C15.2609 14.1937 15.3236 14.0509 15.3586 13.9402L14.6938 12.8652C14.6705 12.8302 14.6604 12.7938 14.6633 12.756C14.6662 12.7181 14.6881 12.6788 14.7288 12.638L15.1225 12.236C15.1575 12.201 15.1953 12.182 15.2361 12.1791C15.277 12.1762 15.3149 12.1864 15.3499 12.2097L16.4518 12.8914C16.7667 12.6933 17.0991 12.5535 17.4489 12.4719L17.7551 11.2134C17.7726 11.1726 17.7944 11.1391 17.8207 11.1129C17.8469 11.0867 17.8863 11.0736 17.9388 11.0736H18.4811C18.5335 11.0736 18.5744 11.0867 18.6035 11.1129C18.6326 11.1391 18.653 11.1726 18.6647 11.2134L18.9708 12.4719C19.3265 12.5535 19.6588 12.6933 19.9679 12.8914L21.07 12.2097C21.1108 12.1864 21.1501 12.1762 21.188 12.1791C21.2259 12.182 21.2624 12.201 21.2974 12.236L21.6997 12.638C21.7347 12.6788 21.7551 12.7181 21.7609 12.756C21.7667 12.7938 21.758 12.8302 21.7347 12.8652L21.0612 13.9402C21.102 14.0509 21.1676 14.1937 21.258 14.3684C21.3484 14.5432 21.414 14.7384 21.4548 14.954L22.7056 15.2424C22.7522 15.254 22.7872 15.2759 22.8105 15.3079C22.8338 15.34 22.8454 15.3764 22.8454 15.4172V15.994C22.8454 16.0406 22.8338 16.0799 22.8105 16.112C22.7872 16.1441 22.7522 16.163 22.7056 16.1688L21.4548 16.4572C21.414 16.6728 21.3484 16.8694 21.258 17.0471C21.1676 17.2248 21.102 17.3661 21.0612 17.471L21.7347 18.546C21.758 18.5867 21.7667 18.6246 21.7609 18.6596C21.7551 18.6945 21.7347 18.7324 21.6997 18.7732L21.2974 19.184C21.2624 19.2131 21.2259 19.2306 21.188 19.2364C21.1501 19.2422 21.1108 19.2335 21.07 19.2102L19.9679 18.5198C19.6588 18.7237 19.3265 18.8635 18.9708 18.9392L18.6647 20.1978C18.653 20.2444 18.6326 20.2793 18.6035 20.3027C18.5744 20.3259 18.5335 20.3376 18.4811 20.3376H17.9388ZM18.2099 17.7594C18.583 17.7594 18.9242 17.6662 19.2332 17.4798C19.5423 17.2933 19.7901 17.0457 19.9767 16.7369C20.1633 16.4281 20.2566 16.0843 20.2566 15.7056C20.2566 15.3327 20.1633 14.9919 19.9767 14.6831C19.7901 14.3743 19.5423 14.1281 19.2332 13.9446C18.9242 13.761 18.583 13.6693 18.2099 13.6693C17.8309 13.6693 17.4854 13.761 17.1735 13.9446C16.8615 14.1281 16.6137 14.3743 16.43 14.6831C16.2463 14.9919 16.1545 15.3327 16.1545 15.7056C16.1545 16.0785 16.2463 16.4208 16.43 16.7325C16.6137 17.0442 16.8615 17.2933 17.1735 17.4798C17.4854 17.6662 17.8309 17.7594 18.2099 17.7594ZM18.2099 16.6582C17.9475 16.6582 17.7245 16.565 17.5408 16.3785C17.3571 16.1921 17.2653 15.9678 17.2653 15.7056C17.2653 15.4493 17.3571 15.2307 17.5408 15.0501C17.7245 14.8695 17.9475 14.7792 18.2099 14.7792C18.4606 14.7792 18.6779 14.8695 18.8615 15.0501C19.0452 15.2307 19.137 15.4493 19.137 15.7056C19.137 15.9619 19.0452 16.1848 18.8615 16.3741C18.6779 16.5635 18.4606 16.6582 18.2099 16.6582Z" fill="black" fill-opacity="0.8"/>
</svg>
