<svg width="24" height="24" viewBox="0 0 24 24" fill="none" xmlns="http://www.w3.org/2000/svg">
<path d="M12 20.7763C12.1184 20.7763 12.2324 20.7717 12.3419 20.7627C12.4514 20.7537 12.5684 20.7432 12.6927 20.7311L13.199 21.7224C13.2463 21.8245 13.3173 21.8996 13.412 21.9476C13.5068 21.9956 13.6164 22.0106 13.7407 21.9926C13.8472 21.9746 13.9375 21.9251 14.0115 21.844C14.0856 21.7629 14.1315 21.6623 14.1492 21.5422L14.3002 20.4518C14.5192 20.3918 14.7383 20.3212 14.9573 20.2401C15.1764 20.159 15.3896 20.0704 15.5968 19.9743L16.3961 20.7042C16.479 20.7883 16.5737 20.8363 16.6803 20.8483C16.7869 20.8603 16.8934 20.8363 17 20.7763C17.2013 20.6621 17.2783 20.4759 17.2309 20.2176L17.0089 19.1363C17.1924 19.0102 17.3744 18.872 17.5551 18.7218C17.7356 18.5717 17.9088 18.4125 18.0746 18.2443L19.0604 18.6678C19.2913 18.7639 19.4926 18.7098 19.6643 18.5056C19.7353 18.4215 19.7753 18.3269 19.7842 18.2217C19.7931 18.1166 19.7649 18.013 19.6998 17.9109L19.1225 16.9738C19.2587 16.7876 19.3816 16.5923 19.4911 16.3881C19.6007 16.1839 19.7058 15.9736 19.8064 15.7574L20.8987 15.8114C21.0112 15.8175 21.1134 15.7904 21.2052 15.7303C21.2969 15.6703 21.3605 15.5832 21.3961 15.469C21.4316 15.3609 21.4331 15.2543 21.4005 15.1491C21.368 15.044 21.3073 14.9554 21.2184 14.8834L20.3659 14.1986C20.4251 13.9823 20.4769 13.7585 20.5213 13.5273C20.5657 13.296 20.5968 13.0573 20.6146 12.811L21.6359 12.4866C21.8786 12.4025 22 12.2373 22 11.991C22 11.7507 21.8786 11.5885 21.6359 11.5044L20.6146 11.171C20.5968 10.9308 20.5657 10.6965 20.5213 10.4682C20.4769 10.24 20.4251 10.0147 20.3659 9.79244L21.2184 9.09864C21.3073 9.03256 21.368 8.94996 21.4005 8.85084C21.4331 8.75173 21.4316 8.64511 21.3961 8.53097C21.3605 8.41684 21.2969 8.32974 21.2052 8.26967C21.1134 8.2096 21.0112 8.18257 20.8987 8.18858L19.8064 8.23363C19.7058 8.01738 19.6007 7.80864 19.4911 7.6074C19.3816 7.40616 19.2587 7.20943 19.1225 7.01721L19.6998 6.08011C19.7649 5.984 19.7931 5.88338 19.7842 5.77826C19.7753 5.67314 19.7353 5.57854 19.6643 5.49444C19.4926 5.2902 19.2913 5.23614 19.0604 5.33225L18.0746 5.73772C17.9088 5.58154 17.7356 5.42685 17.5551 5.27368C17.3744 5.1205 17.1924 4.98084 17.0089 4.85469L17.2309 3.78244C17.2546 3.65629 17.2472 3.54366 17.2087 3.44455C17.1702 3.34543 17.1007 3.26884 17 3.21477C16.8934 3.15471 16.7869 3.13068 16.6803 3.1427C16.5737 3.15471 16.479 3.20577 16.3961 3.29588L15.5968 4.0077C15.3896 3.91159 15.1764 3.82599 14.9573 3.7509C14.7383 3.67582 14.5192 3.60524 14.3002 3.53916L14.1492 2.44889C14.1315 2.33475 14.0856 2.23714 14.0115 2.15604C13.9375 2.07495 13.8443 2.02539 13.7318 2.00737C13.6134 1.98935 13.5068 2.00437 13.412 2.05242C13.3173 2.10048 13.2463 2.17256 13.199 2.26868L12.6927 3.25983C12.5684 3.24782 12.4514 3.23881 12.3419 3.2328C12.2324 3.22679 12.1184 3.22379 12 3.22379C11.8816 3.22379 11.7661 3.22679 11.6536 3.2328C11.5411 3.23881 11.4257 3.24782 11.3073 3.25983L10.7922 2.26868C10.7448 2.17256 10.6738 2.10048 10.579 2.05242C10.4843 2.00437 10.3777 1.98935 10.2593 2.00737C10.1468 2.02539 10.0536 2.07495 9.97957 2.15604C9.90556 2.23714 9.86263 2.33475 9.85079 2.44889L9.69094 3.53015C9.47187 3.59622 9.25429 3.66831 9.03819 3.7464C8.82208 3.82449 8.60745 3.91159 8.39431 4.0077L7.59502 3.29588C7.51213 3.20577 7.4174 3.15471 7.31083 3.1427C7.20426 3.13068 7.09769 3.15471 6.99111 3.21477C6.89047 3.26884 6.8209 3.34543 6.78241 3.44455C6.74393 3.54366 6.73653 3.65629 6.76021 3.78244L6.98224 4.85469C6.7987 4.98084 6.61663 5.1205 6.43605 5.27368C6.25548 5.42685 6.0823 5.58154 5.91652 5.73772L4.93073 5.33225C4.69982 5.23614 4.50148 5.2902 4.3357 5.49444C4.25873 5.57854 4.21581 5.67314 4.20693 5.77826C4.19805 5.88338 4.22617 5.981 4.29129 6.07111L4.86856 7.01721C4.7383 7.20943 4.61693 7.40616 4.50444 7.6074C4.39195 7.80864 4.28537 8.01738 4.18472 8.23363L3.10124 8.18858C2.98283 8.18257 2.87922 8.2096 2.79041 8.26967C2.7016 8.32974 2.63647 8.41684 2.59503 8.53097C2.5595 8.64511 2.55654 8.75173 2.58615 8.85084C2.61575 8.94996 2.67792 9.03256 2.77265 9.09864L3.62522 9.79244C3.56601 10.0147 3.51569 10.24 3.47424 10.4682C3.4328 10.6965 3.40615 10.9308 3.39431 11.171L2.35524 11.5044C2.11841 11.5825 2 11.7447 2 11.991C2 12.2373 2.11841 12.4025 2.35524 12.4866L3.39431 12.8199C3.40615 13.0603 3.4328 13.296 3.47424 13.5273C3.51569 13.7585 3.56601 13.9823 3.62522 14.1986L2.77265 14.8834C2.68384 14.9554 2.62463 15.0425 2.59503 15.1447C2.56542 15.2468 2.56542 15.3549 2.59503 15.469C2.63647 15.5832 2.7016 15.6703 2.79041 15.7303C2.87922 15.7904 2.98283 15.8175 3.10124 15.8114L4.18472 15.7574C4.28537 15.9736 4.39195 16.1839 4.50444 16.3881C4.61693 16.5923 4.7383 16.7876 4.86856 16.9738L4.29129 17.9109C4.22617 18.013 4.19805 18.1166 4.20693 18.2217C4.21581 18.3269 4.25873 18.4215 4.3357 18.5056C4.50148 18.7098 4.69982 18.7639 4.93073 18.6678L5.91652 18.2443C6.0823 18.4125 6.25548 18.5717 6.43605 18.7218C6.61663 18.872 6.7987 19.0102 6.98224 19.1363L6.76021 20.2176C6.73653 20.3377 6.74393 20.4474 6.78241 20.5465C6.8209 20.6456 6.89047 20.7222 6.99111 20.7763C7.10361 20.8363 7.21166 20.8603 7.31528 20.8483C7.41888 20.8363 7.51213 20.7883 7.59502 20.7042L8.39431 19.9743C8.60745 20.0704 8.82208 20.159 9.03819 20.2401C9.25429 20.3212 9.47187 20.3918 9.69094 20.4518L9.85079 21.5422C9.86263 21.6623 9.90556 21.7629 9.97957 21.844C10.0536 21.9251 10.1468 21.9746 10.2593 21.9926C10.3777 22.0106 10.4843 21.9956 10.579 21.9476C10.6738 21.8996 10.7448 21.8245 10.7922 21.7224L11.3073 20.7311C11.4257 20.7432 11.5411 20.7537 11.6536 20.7627C11.7661 20.7717 11.8816 20.7763 12 20.7763ZM12 19.4066C10.9816 19.4066 10.0358 19.2159 9.16252 18.8345C8.28922 18.4531 7.52546 17.9244 6.87123 17.2486C6.21699 16.5728 5.70633 15.7859 5.33926 14.8878C4.97217 13.9898 4.78863 13.0272 4.78863 12.0001C4.78863 10.9728 4.97217 10.0102 5.33926 9.11215C5.70633 8.21411 6.21699 7.42719 6.87123 6.7514C7.52546 6.07561 8.28922 5.547 9.16252 5.16555C10.0358 4.78411 10.9816 4.59339 12 4.59339C13.0184 4.59339 13.9642 4.78411 14.8375 5.16555C15.7107 5.547 16.4745 6.07561 17.1287 6.7514C17.783 7.42719 18.2936 8.21411 18.6607 9.11215C19.0278 10.0102 19.2114 10.9728 19.2114 12.0001C19.2114 13.0272 19.0278 13.9898 18.6607 14.8878C18.2936 15.7859 17.783 16.5728 17.1287 17.2486C16.4745 17.9244 15.7107 18.4531 14.8375 18.8345C13.9642 19.2159 13.0184 19.4066 12 19.4066ZM11.9823 14.3968C12.4914 14.3968 12.9428 14.2421 13.3366 13.9328C13.7303 13.6234 14.0278 13.1774 14.2292 12.5947H20.055L20.0462 11.4234H14.2292C14.0219 10.8527 13.7215 10.4172 13.3277 10.1168C12.934 9.81647 12.4855 9.66629 11.9823 9.66629C11.8993 9.66629 11.8105 9.6723 11.7158 9.68431C11.621 9.69633 11.5026 9.71735 11.3606 9.74739L8.43872 4.67448L7.39964 5.26918L10.3659 10.3961C10.1231 10.6484 9.94405 10.9113 9.82859 11.1846C9.71314 11.4579 9.65541 11.7417 9.65541 12.036C9.65541 12.3184 9.71166 12.5917 9.82416 12.856C9.93664 13.1203 10.1143 13.3847 10.357 13.649L7.30195 18.7218L8.33214 19.3435L11.3606 14.3067C11.4968 14.3428 11.6137 14.3668 11.7114 14.3788C11.809 14.3908 11.8993 14.3968 11.9823 14.3968ZM10.9165 12.0271C10.9165 11.7207 11.0246 11.4624 11.2406 11.2521C11.4568 11.0419 11.7099 10.9368 12 10.9368C12.296 10.9368 12.5521 11.0419 12.7682 11.2521C12.9843 11.4624 13.0924 11.7207 13.0924 12.0271C13.0924 12.3274 12.9843 12.5857 12.7682 12.802C12.5521 13.0182 12.296 13.1264 12 13.1264C11.7099 13.1264 11.4568 13.0182 11.2406 12.802C11.0246 12.5857 10.9165 12.3274 10.9165 12.0271Z" fill="#8E8E93"/>
</svg>
