<svg width="24" height="24" viewBox="0 0 24 24" fill="none" xmlns="http://www.w3.org/2000/svg">
<path d="M11.1196 22H12.8803C13.1292 22 13.3397 21.9314 13.5119 21.7942C13.6842 21.657 13.7958 21.4641 13.8468 21.2153L14.3445 19.11C14.5295 19.0462 14.7113 18.9793 14.8899 18.9091C15.0685 18.8389 15.2376 18.7655 15.3971 18.6889L17.2439 19.8181C17.4481 19.9457 17.6602 20 17.8804 19.9808C18.1005 19.9617 18.2966 19.866 18.4688 19.6937L19.7033 18.4688C19.8756 18.2966 19.9729 18.0957 19.9952 17.866C20.0175 17.6363 19.9585 17.4194 19.8181 17.2152L18.6889 15.3875C18.7719 15.2217 18.8468 15.0526 18.9138 14.8803C18.9808 14.7081 19.043 14.5359 19.1005 14.3636L21.2248 13.8564C21.4672 13.8054 21.657 13.6938 21.7942 13.5215C21.9314 13.3492 22 13.1387 22 12.8899V11.1579C22 10.9155 21.9314 10.7081 21.7942 10.5359C21.657 10.3636 21.4672 10.252 21.2248 10.2009L19.1196 9.69376C19.0558 9.496 18.9872 9.31099 18.9138 9.13874C18.8404 8.96649 18.7719 8.80381 18.7081 8.6507L19.8373 6.79425C19.9712 6.5901 20.0303 6.37798 20.0143 6.15788C19.9984 5.93779 19.9011 5.74162 19.7224 5.56937L18.4688 4.33492C18.2902 4.17543 18.0988 4.08134 17.8947 4.05263C17.6906 4.02392 17.4832 4.07017 17.2727 4.19138L15.3971 5.34928C15.244 5.26634 15.0797 5.18979 14.9042 5.11961C14.7288 5.04943 14.5423 4.98245 14.3445 4.91866L13.8468 2.78469C13.7958 2.54226 13.6842 2.35088 13.5119 2.21053C13.3397 2.07018 13.1292 2 12.8803 2H11.1196C10.8708 2 10.6603 2.07018 10.488 2.21053C10.3158 2.35088 10.2009 2.54226 10.1435 2.78469L9.64591 4.89951C9.46091 4.96331 9.2775 5.03189 9.09568 5.10526C8.91386 5.17862 8.74321 5.25677 8.58372 5.3397L6.72726 4.19138C6.51674 4.07017 6.3078 4.02232 6.10047 4.04784C5.89314 4.07336 5.70015 4.16906 5.52152 4.33492L4.27751 5.56937C4.09888 5.74162 3.99999 5.93779 3.98085 6.15788C3.96172 6.37798 4.02233 6.5901 4.16267 6.79425L5.28229 8.6507C5.21849 8.80381 5.14991 8.96649 5.07655 9.13874C5.00318 9.31099 4.93779 9.496 4.88037 9.69376L2.77512 10.2009C2.52631 10.252 2.33493 10.3636 2.20096 10.5359C2.06699 10.7081 2 10.9155 2 11.1579V12.8899C2 13.1387 2.06699 13.3492 2.20096 13.5215C2.33493 13.6938 2.52631 13.8054 2.77512 13.8564L4.89951 14.3636C4.95055 14.5359 5.01116 14.7081 5.08133 14.8803C5.15151 15.0526 5.22487 15.2217 5.30143 15.3875L4.18181 17.2152C4.04146 17.4194 3.98245 17.6363 4.00478 17.866C4.02711 18.0957 4.1244 18.2966 4.29665 18.4688L5.52152 19.6937C5.69377 19.866 5.88994 19.9617 6.11004 19.9808C6.33014 20 6.54545 19.9457 6.75597 19.8181L8.59329 18.6889C8.75278 18.7655 8.92184 18.8389 9.10046 18.9091C9.27909 18.9793 9.46091 19.0462 9.64591 19.11L10.1435 21.2153C10.2009 21.4641 10.3158 21.657 10.488 21.7942C10.6603 21.9314 10.8708 22 11.1196 22ZM12 15.3779C11.3812 15.3779 10.815 15.2248 10.3014 14.9186C9.78786 14.6124 9.37957 14.2025 9.07654 13.689C8.77351 13.1754 8.62199 12.6092 8.62199 11.9904C8.62199 11.3716 8.7751 10.8086 9.08132 10.3014C9.38754 9.79424 9.79583 9.38754 10.3062 9.08132C10.8166 8.7751 11.3812 8.62199 12 8.62199C12.6188 8.62199 13.185 8.7751 13.6986 9.08132C14.2121 9.38754 14.6204 9.79424 14.9234 10.3014C15.2264 10.8086 15.3779 11.3716 15.3779 11.9904C15.3779 12.6092 15.2264 13.1754 14.9234 13.689C14.6204 14.2025 14.2121 14.6124 13.6986 14.9186C13.185 15.2248 12.6188 15.3779 12 15.3779Z" fill="black" fill-opacity="0.8"/>
</svg>
