<svg width="24" height="24" viewBox="0 0 24 24" fill="none" xmlns="http://www.w3.org/2000/svg">
<path fill-rule="evenodd" clip-rule="evenodd" d="M12 20.208C11.923 20.208 11.8395 20.1898 11.7497 20.1536C11.6598 20.1172 11.5443 20.0561 11.4031 19.9703C10.2928 19.2773 9.3606 18.6816 8.60649 18.1832C7.85238 17.6849 7.2507 17.2096 6.80144 16.7574C6.35218 16.3053 6.02807 15.8119 5.82912 15.2773C5.63016 14.7426 5.53068 14.0925 5.53068 13.3268V6.42575C5.53068 6.26073 5.55154 6.13697 5.59326 6.05446C5.63498 5.97195 5.72322 5.9043 5.858 5.8515C6.14681 5.73268 6.48375 5.60066 6.86883 5.45545C7.2539 5.31024 7.66144 5.15842 8.09145 5C8.52145 4.84159 8.95145 4.68483 9.38145 4.52971C9.81146 4.37459 10.219 4.22443 10.6041 4.07921C10.9892 3.934 11.3261 3.80199 11.6149 3.68317C11.6919 3.65017 11.7625 3.62707 11.8267 3.61387C11.8909 3.60066 11.9486 3.59406 12 3.59406C12.0513 3.59406 12.1091 3.60066 12.1733 3.61387C12.2374 3.62707 12.308 3.65017 12.3851 3.68317C12.6739 3.80199 13.0108 3.93565 13.3959 4.08416C13.781 4.23268 14.1869 4.3878 14.6137 4.54951C15.0405 4.71122 15.4673 4.87129 15.8941 5.02971C16.3208 5.18812 16.7284 5.33829 17.1167 5.48021C17.505 5.62212 17.85 5.74589 18.1516 5.8515C18.28 5.8977 18.365 5.96371 18.4068 6.04951C18.4484 6.13532 18.4693 6.26073 18.4693 6.42575V13.3268C18.4693 14.0925 18.3714 14.7426 18.1757 15.2773C17.9799 15.8119 17.6558 16.3037 17.2034 16.7525C16.7509 17.2014 16.1476 17.6766 15.3935 18.1782C14.6394 18.6799 13.7072 19.2773 12.5969 19.9703C12.4557 20.0561 12.3401 20.1172 12.2503 20.1536C12.1604 20.1898 12.077 20.208 12 20.208ZM11.7304 15.7624C11.5379 16.066 11.278 16.2178 10.9506 16.2178C10.7902 16.2178 10.6442 16.1815 10.5126 16.1089C10.3811 16.0364 10.2543 15.9208 10.1324 15.7624L7.78339 12.7921C7.63577 12.5875 7.56197 12.3829 7.56197 12.1782C7.56197 11.9604 7.63417 11.774 7.77857 11.6188C7.92297 11.4637 8.09786 11.3862 8.30324 11.3862C8.43801 11.3862 8.56156 11.4142 8.67388 11.4703C8.78619 11.5264 8.90011 11.6337 9.01563 11.7921L10.9121 14.3168L14.9074 7.72278C15.087 7.42576 15.3116 7.27724 15.5812 7.27724C15.7802 7.27724 15.9599 7.34325 16.1203 7.47526C16.2808 7.60727 16.361 7.78219 16.361 8.00002C16.361 8.11222 16.3369 8.22278 16.2888 8.3317C16.2407 8.44061 16.1877 8.54127 16.13 8.63368L11.7304 15.7624Z" fill="black" fill-opacity="0.8"/>
<path fill-rule="evenodd" clip-rule="evenodd" d="M12.2888 21.9505C12.1733 21.9835 12.077 22 12 22C11.923 22 11.8267 21.9835 11.7112 21.9505C11.5957 21.9175 11.4769 21.868 11.355 21.802C9.98796 21.01 8.83433 20.307 7.8941 19.6932C6.95387 19.0792 6.19815 18.4851 5.62695 17.9109C5.05575 17.3366 4.6418 16.7162 4.38508 16.0495C4.12836 15.3829 4 14.5974 4 13.6931V6.11882C4 5.59737 4.1075 5.22278 4.3225 4.99506C4.5375 4.76734 4.84717 4.56767 5.2515 4.39605C5.47613 4.29704 5.7874 4.16832 6.18532 4.00991C6.58323 3.85149 7.02286 3.67987 7.50421 3.49506C7.98555 3.31023 8.4653 3.12707 8.94343 2.94555C9.42157 2.76403 9.8596 2.60231 10.2575 2.4604C10.6554 2.31848 10.9699 2.21452 11.201 2.14851C11.3293 2.11551 11.4609 2.08251 11.5957 2.0495C11.7304 2.0165 11.8652 2 12 2C12.1348 2 12.2711 2.01485 12.4091 2.04455C12.5471 2.07426 12.6803 2.10891 12.8087 2.14851C13.0333 2.22772 13.3445 2.33993 13.7425 2.48515C14.1404 2.63037 14.58 2.79208 15.0613 2.9703C15.5427 3.14852 16.0224 3.32839 16.5006 3.50991C16.9787 3.69142 17.4167 3.85974 17.8147 4.01485C18.2126 4.16997 18.5238 4.29704 18.7484 4.39605C19.1592 4.57426 19.4705 4.77558 19.6823 5C19.8941 5.22443 20 5.59737 20 6.11882V13.6931C20 14.5974 19.8732 15.3845 19.6197 16.0545C19.3662 16.7245 18.9538 17.3466 18.3826 17.9208C17.8114 18.4951 17.0557 19.0875 16.1155 19.698C15.1753 20.3086 14.0184 21.01 12.645 21.802C12.523 21.868 12.4043 21.9175 12.2888 21.9505ZM11.7497 20.1536C11.8395 20.1898 11.923 20.208 12 20.208C12.077 20.208 12.1604 20.1898 12.2503 20.1536C12.3401 20.1172 12.4557 20.0561 12.5969 19.9703C13.7072 19.2773 14.6394 18.6799 15.3935 18.1782C16.1476 17.6766 16.7509 17.2014 17.2034 16.7525C17.6558 16.3037 17.9799 15.8119 18.1757 15.2773C18.3714 14.7426 18.4693 14.0925 18.4693 13.3268V6.42575C18.4693 6.26073 18.4484 6.13532 18.4068 6.04951C18.365 5.96371 18.28 5.8977 18.1516 5.8515C17.85 5.74589 17.505 5.62212 17.1167 5.48021C16.7284 5.33829 16.3208 5.18812 15.8941 5.02971C15.4673 4.87129 15.0405 4.71122 14.6137 4.54951C14.1869 4.3878 13.781 4.23268 13.3959 4.08416C13.0108 3.93565 12.6739 3.80199 12.3851 3.68317C12.308 3.65017 12.2374 3.62707 12.1733 3.61387C12.1091 3.60066 12.0513 3.59406 12 3.59406C11.9486 3.59406 11.8909 3.60066 11.8267 3.61387C11.7625 3.62707 11.6919 3.65017 11.6149 3.68317C11.3261 3.80199 10.9892 3.934 10.6041 4.07921C10.219 4.22443 9.81146 4.37459 9.38145 4.52971C8.95145 4.68483 8.52145 4.84159 8.09145 5C7.66144 5.15842 7.2539 5.31024 6.86883 5.45545C6.48375 5.60066 6.14681 5.73268 5.858 5.8515C5.72322 5.9043 5.63498 5.97195 5.59326 6.05446C5.55154 6.13697 5.53068 6.26073 5.53068 6.42575V13.3268C5.53068 14.0925 5.63016 14.7426 5.82912 15.2773C6.02807 15.8119 6.35218 16.3053 6.80144 16.7574C7.2507 17.2096 7.85238 17.6849 8.60649 18.1832C9.3606 18.6816 10.2928 19.2773 11.4031 19.9703C11.5443 20.0561 11.6598 20.1172 11.7497 20.1536Z" fill="black" fill-opacity="0.8"/>
</svg>
