<svg width="24" height="24" viewBox="0 0 24 24" fill="none" xmlns="http://www.w3.org/2000/svg">
<path d="M20 13.6931V6.11882C20 5.59737 19.8941 5.22278 19.6823 4.99506C19.4705 4.76734 19.1592 4.56767 18.7484 4.39605C18.5238 4.29704 18.2126 4.16832 17.8147 4.00991C17.4167 3.85149 16.9787 3.67987 16.5006 3.49506C16.0224 3.31023 15.5427 3.12707 15.0613 2.94555C14.58 2.76403 14.1404 2.60231 13.7425 2.4604C13.3445 2.31848 13.0333 2.21452 12.8087 2.14851C12.6803 2.11551 12.5471 2.08251 12.4091 2.0495C12.2711 2.0165 12.1348 2 12 2C11.8652 2 11.7304 2.01485 11.5957 2.04455C11.4609 2.07426 11.3293 2.10891 11.201 2.14851C10.9699 2.22772 10.6554 2.33993 10.2575 2.48515C9.8596 2.63037 9.42157 2.79208 8.94343 2.9703C8.4653 3.14852 7.98555 3.32839 7.50421 3.50991C7.02286 3.69142 6.58323 3.85974 6.18532 4.01485C5.7874 4.16997 5.47613 4.29704 5.2515 4.39605C4.84717 4.57426 4.5375 4.77558 4.3225 5C4.1075 5.22443 4 5.59737 4 6.11882V13.6931C4 14.5974 4.12836 15.3845 4.38508 16.0545C4.6418 16.7245 5.05575 17.3466 5.62695 17.9208C6.19815 18.4951 6.95387 19.0875 7.8941 19.698C8.83433 20.3086 9.98796 21.01 11.355 21.802C11.4769 21.868 11.5957 21.9175 11.7112 21.9505C11.8267 21.9835 11.923 22 12 22C12.077 22 12.1733 21.9835 12.2888 21.9505C12.4043 21.9175 12.523 21.868 12.645 21.802C14.012 21.01 15.1656 20.307 16.1059 19.6932C17.0461 19.0792 17.8018 18.4851 18.373 17.9109C18.9442 17.3366 19.3581 16.7162 19.6148 16.0495C19.8716 15.3829 20 14.5974 20 13.6931ZM11.7978 20.1684C11.7401 20.1486 11.6791 20.1222 11.6149 20.0892C11.5507 20.0561 11.4801 20.0165 11.4031 19.9703C10.2928 19.2773 9.3606 18.6799 8.60649 18.1782C7.85238 17.6766 7.2507 17.2014 6.80144 16.7525C6.35218 16.3037 6.02807 15.8119 5.82912 15.2773C5.63016 14.7426 5.53068 14.0925 5.53068 13.3268V6.42575C5.53068 6.26073 5.55154 6.13532 5.59326 6.04951C5.63498 5.96371 5.72322 5.8977 5.858 5.8515C6.15322 5.74589 6.49498 5.62212 6.88326 5.48021C7.27155 5.33829 7.6807 5.18812 8.1107 5.02971C8.54071 4.87129 8.9691 4.71122 9.3959 4.54951C9.82269 4.3878 10.227 4.23268 10.6089 4.08416C10.9908 3.93565 11.3261 3.80199 11.6149 3.68317C11.6534 3.66337 11.6871 3.65017 11.716 3.64357C11.7449 3.63697 11.7721 3.63037 11.7978 3.62377V20.1684Z" fill="black" fill-opacity="0.8"/>
</svg>
