<svg width="24" height="24" viewBox="0 0 24 24" fill="none" xmlns="http://www.w3.org/2000/svg">
<path d="M4 13.6931C4 14.5974 4.12836 15.3829 4.38508 16.0495C4.6418 16.7162 5.05575 17.3366 5.62695 17.9109C6.19815 18.4851 6.95387 19.0792 7.8941 19.6932C8.83433 20.307 9.98796 21.01 11.355 21.802C11.4769 21.868 11.5957 21.9175 11.7112 21.9505C11.8267 21.9835 11.923 22 12 22C12.077 22 12.1733 21.9835 12.2888 21.9505C12.4043 21.9175 12.523 21.868 12.645 21.802C14.0184 21.01 15.1753 20.3086 16.1155 19.698C17.0557 19.0875 17.8114 18.4951 18.3826 17.9208C18.9538 17.3466 19.3662 16.7245 19.6197 16.0545C19.8732 15.3845 20 14.5974 20 13.6931V6.11882C20 5.59737 19.8941 5.22443 19.6823 5C19.4705 4.77558 19.1592 4.57426 18.7484 4.39605C18.5238 4.29704 18.2126 4.16997 17.8147 4.01485C17.4167 3.85974 16.9787 3.69142 16.5006 3.50991C16.0224 3.32839 15.5427 3.14852 15.0613 2.9703C14.58 2.79208 14.1404 2.63037 13.7425 2.48515C13.3445 2.33993 13.0333 2.22772 12.8087 2.14851C12.6803 2.10891 12.5471 2.07426 12.4091 2.04455C12.2711 2.01485 12.1348 2 12 2C11.8652 2 11.7304 2.0165 11.5957 2.0495C11.4609 2.08251 11.3293 2.11551 11.201 2.14851C10.9699 2.21452 10.6554 2.31848 10.2575 2.4604C9.8596 2.60231 9.42157 2.76403 8.94343 2.94555C8.4653 3.12707 7.98555 3.31023 7.50421 3.49506C7.02286 3.67987 6.58323 3.85149 6.18532 4.00991C5.7874 4.16832 5.47613 4.29704 5.2515 4.39605C4.84717 4.56767 4.5375 4.76734 4.3225 4.99506C4.1075 5.22278 4 5.59737 4 6.11882V13.6931ZM12.2021 20.1684V3.62377C12.2278 3.63037 12.2551 3.63697 12.284 3.64357C12.3129 3.65017 12.3466 3.66337 12.3851 3.68317C12.6739 3.80199 13.0108 3.93565 13.3959 4.08416C13.781 4.23268 14.1869 4.3878 14.6137 4.54951C15.0405 4.71122 15.4673 4.87129 15.8941 5.02971C16.3208 5.18812 16.7284 5.33829 17.1167 5.48021C17.505 5.62212 17.85 5.74589 18.1516 5.8515C18.28 5.8977 18.365 5.96371 18.4068 6.04951C18.4484 6.13532 18.4693 6.26073 18.4693 6.42575V13.3268C18.4693 14.0925 18.3714 14.7426 18.1757 15.2773C17.9799 15.8119 17.6558 16.3037 17.2034 16.7525C16.7509 17.2014 16.1476 17.6766 15.3935 18.1782C14.6394 18.6799 13.7072 19.2773 12.5969 19.9703C12.5263 20.0165 12.4573 20.0561 12.3899 20.0892C12.3225 20.1222 12.2599 20.1486 12.2021 20.1684Z" fill="black" fill-opacity="0.8"/>
</svg>
