<svg width="24" height="24" viewBox="0 0 24 24" fill="none" xmlns="http://www.w3.org/2000/svg">
<path d="M4.68001 13.7947C4.68001 14.6879 4.8053 15.4638 5.05588 16.1223C5.30646 16.7808 5.71052 17.3936 6.26805 17.9609C6.82559 18.5281 7.56322 19.1149 8.48096 19.7214C9.39869 20.3277 10.5247 21.0221 11.859 21.8044C11.9781 21.8696 12.094 21.9185 12.2067 21.9511C12.3195 21.9837 12.4135 22 12.4887 22C12.5638 22 12.6577 21.9837 12.7705 21.9511C12.8833 21.9185 12.9992 21.8696 13.1182 21.8044C13.8511 21.3741 14.5198 20.9748 15.1244 20.6064C15.7289 20.238 16.2723 19.8876 16.7547 19.555L15.6083 18.3521C15.2575 18.5934 14.8723 18.8476 14.4525 19.115C14.0328 19.3823 13.5724 19.6757 13.0712 19.9952C12.9334 20.0799 12.8207 20.1402 12.733 20.1761C12.6452 20.212 12.5638 20.2299 12.4887 20.2299C12.4135 20.2299 12.332 20.212 12.2444 20.1761C12.1566 20.1402 12.0438 20.0799 11.906 19.9952C10.8223 19.3106 9.91238 18.7221 9.17631 18.2299C8.44024 17.7376 7.85295 17.2682 7.41444 16.8215C6.97593 16.3749 6.65958 15.8876 6.46538 15.3595C6.27118 14.8314 6.17408 14.1891 6.17408 13.4328V8.53302L4.68001 6.98779V13.7947ZM19.4985 16.9633C19.7804 16.52 19.984 16.0424 20.1093 15.5306C20.2346 15.0188 20.2972 14.4401 20.2972 13.7947V6.31297C20.2972 5.79789 20.1939 5.42951 19.9871 5.20783C19.7804 4.98615 19.4766 4.78729 19.0757 4.61125C18.8564 4.51346 18.5526 4.38794 18.1642 4.23472C17.7758 4.0815 17.3482 3.91524 16.8816 3.73595C16.4149 3.55665 15.9466 3.37897 15.4767 3.20294C15.0069 3.0269 14.5778 2.86716 14.1894 2.72372C13.801 2.58028 13.4972 2.46944 13.278 2.3912C13.1527 2.35208 13.0227 2.31785 12.888 2.28851C12.7533 2.25917 12.6202 2.2445 12.4887 2.2445C12.3571 2.2445 12.2255 2.2608 12.094 2.2934C11.9624 2.326 11.834 2.3586 11.7087 2.3912C11.4205 2.489 11.018 2.63244 10.5012 2.82152C9.98442 3.01059 9.42845 3.21923 8.83333 3.44744C8.23821 3.67564 7.67755 3.89406 7.15133 4.1027L8.32592 5.33497C8.65166 5.21109 8.98681 5.08395 9.33135 4.95355C9.6759 4.82315 10.0173 4.69438 10.3556 4.56724C10.6939 4.4401 11.0134 4.31948 11.314 4.20539C11.6147 4.09129 11.881 3.99185 12.1128 3.90709C12.1879 3.8745 12.2568 3.85168 12.3195 3.83864C12.3821 3.82559 12.4385 3.81907 12.4887 3.81907C12.5388 3.81907 12.5951 3.82559 12.6577 3.83864C12.7204 3.85168 12.7893 3.8745 12.8645 3.90709C13.1527 4.01141 13.4847 4.13692 13.8605 4.28362C14.2364 4.43032 14.6326 4.58355 15.0492 4.74329C15.4658 4.90302 15.8824 5.06276 16.2989 5.2225C16.7155 5.38224 17.1118 5.53383 17.4877 5.67727C17.8635 5.82071 18.1986 5.94459 18.4931 6.04891C18.6184 6.09455 18.7014 6.15975 18.7421 6.24451C18.7828 6.32927 18.8032 6.45314 18.8032 6.61614V13.4328C18.8032 13.9087 18.7656 14.3342 18.6904 14.7091C18.6152 15.084 18.4931 15.4279 18.3239 15.7408L19.4985 16.9633ZM20.2596 21.5404C20.4037 21.6904 20.576 21.7654 20.7764 21.7654C20.9769 21.7654 21.146 21.6904 21.2839 21.5404C21.428 21.3969 21.5 21.2209 21.5 21.0123C21.5 20.8036 21.428 20.6243 21.2839 20.4744L3.74035 2.22494C3.59627 2.07498 3.424 2 3.22354 2C3.02308 2 2.85081 2.07498 2.70673 2.22494C2.56891 2.36186 2.5 2.5379 2.5 2.75306C2.5 2.96822 2.56891 3.14752 2.70673 3.29096L20.2596 21.5404Z" fill="black" fill-opacity="0.8"/>
</svg>
