<svg width="24" height="24" viewBox="0 0 24 24" fill="none" xmlns="http://www.w3.org/2000/svg">
<path d="M4.78339 7.17565V13.8061C4.78339 14.6967 4.90711 15.4702 5.15455 16.1267C5.40199 16.7831 5.79978 17.3934 6.34792 17.9574C6.89606 18.5215 7.62274 19.1038 8.52794 19.7041C9.43315 20.3044 10.5404 20.9971 11.8497 21.7822C11.9687 21.8482 12.083 21.8961 12.1926 21.9257C12.3022 21.9554 12.3946 21.9703 12.4698 21.9703C12.545 21.9703 12.6374 21.9554 12.747 21.9257C12.8566 21.8961 12.971 21.8482 13.09 21.7822C13.8041 21.3864 14.4541 21.0137 15.0398 20.664C15.6255 20.3144 16.1533 19.9812 16.6231 19.6645L4.78339 7.17565ZM19.367 17.0321C19.6489 16.5769 19.8509 16.0871 19.9731 15.5626C20.0952 15.0381 20.1563 14.4526 20.1563 13.8061V6.34438C20.1563 5.83638 20.0545 5.47023 19.8509 5.24592C19.6473 5.02161 19.3481 4.82369 18.9535 4.65215C18.7342 4.55319 18.4335 4.42784 18.0514 4.2761C17.6693 4.12436 17.248 3.95943 16.7876 3.7813C16.3272 3.60317 15.8667 3.42503 15.4063 3.24691C14.9458 3.06878 14.5261 2.90879 14.1471 2.76695C13.7682 2.6251 13.469 2.5146 13.2498 2.43543C13.1245 2.39584 12.9961 2.36286 12.8645 2.33647C12.7329 2.31008 12.6014 2.29688 12.4698 2.29688C12.3382 2.29688 12.2083 2.31008 12.0799 2.33647C11.9514 2.36286 11.8246 2.39584 11.6993 2.43543C11.4111 2.54099 11.0102 2.68943 10.4965 2.88075C9.98286 3.07208 9.43002 3.28319 8.83803 3.5141C8.24604 3.74501 7.68694 3.96272 7.16073 4.16724L19.367 17.0321ZM20.2596 21.7724C20.4037 21.9241 20.576 22 20.7764 22C20.9769 22 21.146 21.9241 21.2839 21.7724C21.428 21.6272 21.5 21.4491 21.5 21.238C21.5 21.0268 21.428 20.8454 21.2839 20.6937L3.74035 2.22761C3.59627 2.07587 3.424 2 3.22354 2C3.02308 2 2.85081 2.07587 2.70673 2.22761C2.56891 2.36616 2.5 2.54428 2.5 2.762C2.5 2.97971 2.56891 3.16114 2.70673 3.30628L20.2596 21.7724Z" fill="black" fill-opacity="0.8"/>
</svg>
