<svg width="24" height="24" viewBox="0 0 24 24" fill="none" xmlns="http://www.w3.org/2000/svg">
<path d="M12 22C12.0782 22 12.1744 21.9849 12.2885 21.9548C12.4026 21.9246 12.5216 21.8759 12.6455 21.8088C14.0408 21.0577 15.2095 20.3803 16.1516 19.7767C17.0937 19.173 17.8467 18.5761 18.4107 17.9859C18.9747 17.3957 19.3806 16.7602 19.6284 16.0794C19.8761 15.3987 20 14.6056 20 13.7002V6.11469C20 5.59826 19.894 5.22602 19.6821 4.99799C19.4702 4.76995 19.1589 4.56875 18.7482 4.39436C18.52 4.29376 18.207 4.16633 17.8093 4.01207C17.4116 3.85781 16.9731 3.69014 16.4939 3.50906C16.0146 3.32797 15.5354 3.14688 15.0562 2.96579C14.577 2.78471 14.1402 2.62207 13.7457 2.47787C13.3512 2.33367 13.0399 2.22133 12.8117 2.14085C12.6813 2.1006 12.5477 2.06707 12.4107 2.04024C12.2738 2.01341 12.1369 2 12 2C11.8631 2 11.7278 2.01341 11.5941 2.04024C11.4605 2.06707 11.3284 2.1006 11.198 2.14085C10.9698 2.22133 10.6569 2.33367 10.2592 2.47787C9.86144 2.62207 9.42297 2.78303 8.94375 2.96076C8.46454 3.1385 7.98532 3.31959 7.50611 3.50403C7.02689 3.68847 6.58842 3.85949 6.1907 4.0171C5.79299 4.17471 5.48003 4.30047 5.25183 4.39436C4.84759 4.56204 4.5379 4.76157 4.32274 4.99296C4.10758 5.22435 4 5.59826 4 6.11469V13.7002C4 14.6056 4.12877 15.392 4.38631 16.0594C4.64384 16.7267 5.05786 17.3471 5.62836 17.9205C6.19886 18.4939 6.95517 19.0859 7.8973 19.6962C8.83943 20.3065 9.99183 21.0107 11.3545 21.8088C11.4784 21.8759 11.5974 21.9246 11.7115 21.9548C11.8256 21.9849 11.9217 22 12 22ZM7.58923 12.332C7.58923 12.1912 7.64465 12.057 7.75549 11.9296L13.2812 4.79678C13.4246 4.6157 13.5794 4.52683 13.7457 4.53018C13.912 4.53353 14.0424 4.60396 14.1369 4.74145C14.2315 4.87894 14.2363 5.05835 14.1515 5.27968L12.3227 10.3199H15.7457C15.8761 10.3199 15.9853 10.3635 16.0734 10.4507C16.1614 10.5379 16.2053 10.6486 16.2053 10.7827C16.2053 10.9168 16.1499 11.051 16.0391 11.1851L10.5134 18.3179C10.3765 18.499 10.2233 18.5878 10.0538 18.5845C9.88426 18.5812 9.75223 18.5091 9.65768 18.3682C9.56315 18.2273 9.55826 18.0463 9.64302 17.825L11.4719 12.7847H8.04889C7.91849 12.7847 7.80928 12.7428 7.72126 12.6589C7.63324 12.5751 7.58923 12.4661 7.58923 12.332Z" fill="black" fill-opacity="0.8"/>
</svg>
