<svg width="24" height="24" viewBox="0 0 24 24" fill="none" xmlns="http://www.w3.org/2000/svg">
<path d="M7.39823 20.102C7.39823 21.0544 7.63094 21.7755 8.09636 22.2653C8.56178 22.7551 9.25008 23 10.1613 23H19.2468C20.1514 23 20.8364 22.7551 21.3018 22.2653C21.7673 21.7755 22 21.0544 22 20.102V10.1531C22 9.70407 21.9508 9.34183 21.8525 9.06633C21.7542 8.79081 21.5804 8.5238 21.3313 8.2653L17.6932 4.48979C17.4375 4.22448 17.1704 4.03401 16.8918 3.91837C16.6132 3.80272 16.274 3.74489 15.8741 3.74489H10.1613C9.25008 3.74489 8.56178 3.98979 8.09636 4.47959C7.63094 4.96938 7.39823 5.69387 7.39823 6.65306V20.102ZM10.5546 18.7245V15.6429H12.826C12.9243 15.6429 12.9734 15.6905 12.9734 15.7857V20.0102H11.7935C11.4199 20.0102 11.12 19.8946 10.8938 19.6632C10.6676 19.432 10.5546 19.119 10.5546 18.7245ZM10.5546 14.6122V13.4388C10.5546 13.0374 10.6676 12.7211 10.8938 12.4898C11.12 12.2585 11.4199 12.1429 11.7935 12.1429H15.6284V20.0102H13.9666V15.1735C13.9666 14.9966 13.9191 14.8588 13.824 14.7601C13.729 14.6615 13.5929 14.6122 13.4159 14.6122H10.5546ZM16.6214 20.0102V12.1429H17.585C17.9652 12.1429 18.2651 12.2585 18.4848 12.4898C18.7043 12.7211 18.8141 13.0374 18.8141 13.4388V18.7245C18.8141 19.119 18.7043 19.432 18.4848 19.6632C18.2651 19.8946 17.9652 20.0102 17.585 20.0102H16.6214ZM2 17.1633C2 18.1156 2.23107 18.835 2.69322 19.3214C3.15536 19.8078 3.84202 20.051 4.7532 20.051H6.06096V17.0715H5.36282C4.98918 17.0715 4.69092 16.9541 4.46804 16.7193C4.24516 16.4846 4.13372 16.17 4.13372 15.7755V12.6939H6.06096V11.6633H4.13372V10.4898C4.13372 10.0884 4.24516 9.7738 4.46804 9.54591C4.69092 9.31802 4.98918 9.20407 5.36282 9.20407H6.06096V6.21428C6.06096 5.43877 6.21173 4.7619 6.51327 4.18368C6.81481 3.60544 7.2409 3.15646 7.79153 2.83673C8.34218 2.51701 8.98787 2.35714 9.72861 2.35714H12.8751L12.295 1.7449C12.0393 1.47959 11.7706 1.28912 11.4887 1.17347C11.2068 1.05782 10.8659 1 10.4661 1H4.7532C3.84202 1 3.15536 1.2449 2.69322 1.73469C2.23107 2.22449 2 2.94898 2 3.90816V17.1633Z" fill="black" fill-opacity="0.8"/>
</svg>
