<svg width="24" height="24" viewBox="0 0 24 24" fill="none" xmlns="http://www.w3.org/2000/svg">
<path d="M10.1613 23H19.2468C20.1514 23 20.8364 22.7551 21.3018 22.2653C21.7673 21.7755 22 21.0544 22 20.102V10.1531C22 9.70407 21.9508 9.34183 21.8525 9.06633C21.7542 8.79081 21.5804 8.5238 21.3313 8.2653L17.6932 4.48979C17.4375 4.22448 17.1704 4.03401 16.8918 3.91837C16.6132 3.80272 16.274 3.74489 15.8741 3.74489H10.1613C9.25008 3.74489 8.56178 3.98979 8.09636 4.47959C7.63094 4.96938 7.39823 5.69387 7.39823 6.65306V20.102C7.39823 21.0544 7.63094 21.7755 8.09636 22.2653C8.56178 22.7551 9.25008 23 10.1613 23ZM10.2104 21.3571C9.80399 21.3571 9.49754 21.25 9.29104 21.0357C9.08455 20.8214 8.98131 20.5034 8.98131 20.0816V6.65306C8.98131 6.23809 9.08619 5.92347 9.29596 5.70919C9.50572 5.4949 9.81382 5.38775 10.2202 5.38775H15.825C16.238 5.38775 16.5854 5.53401 16.8672 5.82653L20.063 9.16326C20.1941 9.30612 20.2858 9.45578 20.3382 9.61224C20.3907 9.76871 20.4169 9.98639 20.4169 10.2653V20.0816C20.4169 20.5034 20.312 20.8214 20.1022 21.0357C19.8925 21.25 19.5844 21.3571 19.1779 21.3571H10.2104ZM8.01769 20V18.3571H4.81219C4.39921 18.3571 4.09111 18.25 3.8879 18.0357C3.68469 17.8214 3.58309 17.5068 3.58309 17.0918V3.90816C3.58309 3.49319 3.68633 3.17857 3.89282 2.96428C4.09931 2.75 4.40904 2.64286 4.82202 2.64286H10.4169C10.6398 2.64286 10.8315 2.67687 10.9921 2.74489C11.1527 2.81292 11.3084 2.92517 11.4592 3.08163L12.8653 4.55102H14.9892L12.295 1.7449C12.0393 1.47959 11.7706 1.28912 11.4887 1.17347C11.2068 1.05782 10.8659 1 10.4661 1H4.7532C3.84202 1 3.15536 1.2449 2.69322 1.73469C2.23107 2.22449 2 2.94898 2 3.90816V17.1122C2 18.0646 2.23107 18.784 2.69322 19.2704C3.15536 19.7568 3.84202 20 4.7532 20H8.01769ZM10.5644 18.7245C10.5644 19.119 10.6758 19.432 10.8987 19.6632C11.1216 19.8946 11.4199 20.0102 11.7935 20.0102H12.9734V15.6633C12.9734 15.568 12.9243 15.5204 12.826 15.5204H10.5644V18.7245ZM10.5644 14.4898H13.4159C13.5929 14.4898 13.729 14.5408 13.824 14.6428C13.9191 14.7449 13.9666 14.8809 13.9666 15.051V20.0102H15.6284V12.0306H11.7935C11.4199 12.0306 11.1216 12.1445 10.8987 12.3725C10.6758 12.6003 10.5644 12.9149 10.5644 13.3163V14.4898ZM16.6214 20.0102H17.585C17.9652 20.0102 18.2651 19.8946 18.4848 19.6632C18.7043 19.432 18.8141 19.119 18.8141 18.7245V13.3163C18.8141 12.9149 18.7043 12.6003 18.4848 12.3725C18.2651 12.1445 17.9652 12.0306 17.585 12.0306H16.6214V20.0102ZM7.40805 17.0204V12.6939H5.18584V15.7245C5.18584 16.119 5.29727 16.4337 5.52015 16.6683C5.74303 16.903 6.04129 17.0204 6.41495 17.0204H7.40805ZM7.40805 11.6633V9.20407H6.41495C6.04129 9.20407 5.74303 9.31802 5.52015 9.54591C5.29727 9.7738 5.18584 10.0884 5.18584 10.4898V11.6633H7.40805Z" fill="black" fill-opacity="0.8"/>
</svg>
