<svg width="24" height="24" viewBox="0 0 24 24" fill="none" xmlns="http://www.w3.org/2000/svg">
<path d="M6.94886 22H17.0511C18.0341 22 18.7713 21.7559 19.2627 21.2677C19.7542 20.7795 20 20.0504 20 19.0802V8.62312C20 8.16292 19.9493 7.79601 19.8478 7.52238C19.7463 7.24875 19.5624 6.97823 19.296 6.71082L15.2532 2.7556C14.9805 2.48196 14.6952 2.28762 14.3971 2.17257C14.099 2.05752 13.7344 2 13.3032 2H6.94886C5.96591 2 5.22869 2.24565 4.73722 2.73694C4.24574 3.22823 4 3.95895 4 4.9291V19.0802C4 20.0565 4.24574 20.7872 4.73722 21.2723C5.22869 21.7574 5.96591 22 6.94886 22ZM7.46254 17.625V14.1549H9.92627C10.0277 14.1549 10.0785 14.2015 10.0785 14.2948V18.9216H8.78477C8.37891 18.9216 8.05707 18.805 7.81926 18.5718C7.58145 18.3386 7.46254 18.023 7.46254 17.625ZM7.46254 13.1194V11.9534C7.46254 11.5491 7.58145 11.2304 7.81926 10.9972C8.05707 10.764 8.37891 10.6474 8.78477 10.6474H12.9512V18.9216H11.1344V13.6791C11.1344 13.505 11.0836 13.3681 10.9822 13.2686C10.8807 13.1691 10.738 13.1194 10.5541 13.1194H7.46254ZM14.0071 18.9216V10.6474H15.2438C15.6433 10.6474 15.9619 10.764 16.1997 10.9972C16.4375 11.2304 16.5564 11.5491 16.5564 11.9534V17.625C16.5564 18.023 16.4375 18.3386 16.1997 18.5718C15.9619 18.805 15.6433 18.9216 15.2438 18.9216H14.0071Z" fill="black" fill-opacity="0.8"/>
</svg>
