<svg width="24" height="24" viewBox="0 0 24 24" fill="none" xmlns="http://www.w3.org/2000/svg">
<path d="M4 19.0802C4 20.0565 4.24574 20.7872 4.73722 21.2723C5.22869 21.7574 5.96591 22 6.94886 22H17.0511C18.0341 22 18.7713 21.7559 19.2627 21.2677C19.7542 20.7795 20 20.0504 20 19.0802V8.62312C20 8.16292 19.9493 7.79601 19.8478 7.52238C19.7463 7.24875 19.5624 6.97823 19.296 6.71082L15.2532 2.7556C14.9805 2.48196 14.6952 2.28762 14.3971 2.17257C14.099 2.05752 13.7344 2 13.3032 2H6.94886C5.96591 2 5.22869 2.24565 4.73722 2.73694C4.24574 3.22823 4 3.95895 4 4.9291V19.0802ZM5.53151 19.0522V4.95709C5.53151 4.49689 5.65676 4.1393 5.90725 3.88432C6.15775 3.62935 6.53032 3.50186 7.02497 3.50186H13.2461C13.7534 3.50186 14.1688 3.66666 14.4923 3.99627L18.0309 7.50372C18.1958 7.66541 18.3099 7.83643 18.3734 8.01678C18.4368 8.19713 18.4685 8.43656 18.4685 8.73507V19.0522C18.4685 19.5187 18.3432 19.8763 18.0928 20.125C17.8422 20.3737 17.4696 20.4981 16.975 20.4981H7.01545C6.52715 20.4981 6.15775 20.3737 5.90725 20.125C5.65676 19.8763 5.53151 19.5187 5.53151 19.0522ZM7.46254 17.625C7.46254 18.023 7.58145 18.3386 7.81926 18.5718C8.05707 18.805 8.37891 18.9216 8.78477 18.9216H10.0785V14.2948C10.0785 14.2015 10.0277 14.1549 9.92627 14.1549H7.46254V17.625ZM7.46254 13.1194H10.5541C10.738 13.1194 10.8807 13.1691 10.9822 13.2686C11.0836 13.3681 11.1344 13.505 11.1344 13.6791V18.9216H12.9512V10.6474H8.78477C8.37891 10.6474 8.05707 10.764 7.81926 10.9972C7.58145 11.2304 7.46254 11.5491 7.46254 11.9534V13.1194ZM14.0071 18.9216H15.2438C15.6433 18.9216 15.9619 18.805 16.1997 18.5718C16.4375 18.3386 16.5564 18.023 16.5564 17.625V11.9534C16.5564 11.5491 16.4375 11.2304 16.1997 10.9972C15.9619 10.764 15.6433 10.6474 15.2438 10.6474H14.0071V18.9216Z" fill="black" fill-opacity="0.8"/>
</svg>
