<svg width="24" height="24" viewBox="0 0 24 24" fill="none" xmlns="http://www.w3.org/2000/svg">
<path d="M2.02817 15.6826H4.87159C4.96438 15.6826 5.04392 15.7098 5.11019 15.7642L9.59404 19.4286C9.83265 19.6221 10.053 19.7657 10.2551 19.8595C10.4573 19.9532 10.6777 20 10.9164 20C11.2411 20 11.5096 19.9033 11.7217 19.7098C11.9338 19.5163 12.0398 19.2744 12.0398 18.9842V5.0703C12.0398 4.774 11.9321 4.52154 11.7167 4.31293C11.5013 4.10431 11.2278 4 10.8964 4C10.6579 4 10.4474 4.0514 10.2651 4.1542C10.0829 4.25699 9.85916 4.41421 9.59404 4.62585L5.11019 8.25397C5.05054 8.30839 4.97101 8.3356 4.87159 8.3356H2.02817C1.35211 8.3356 0.845071 8.49434 0.507043 8.8118C0.169014 9.12926 0 9.61754 0 10.2767V13.7506C0 14.4036 0.169014 14.8889 0.507043 15.2064C0.845071 15.5238 1.35211 15.6826 2.02817 15.6826ZM2.09777 14.3583C1.91218 14.3583 1.77465 14.319 1.68517 14.2404C1.59569 14.1618 1.55096 14.0378 1.55096 13.8685V10.1587C1.55096 9.98943 1.59569 9.86396 1.68517 9.78232C1.77465 9.70069 1.91218 9.65988 2.09777 9.65988H5.27921C5.40514 9.65988 5.52113 9.64476 5.62718 9.61452C5.73322 9.58429 5.84259 9.5208 5.95527 9.42405L10.1906 5.91383C10.2171 5.88965 10.2436 5.87151 10.2701 5.85941C10.2966 5.84732 10.3265 5.84128 10.3596 5.84128C10.4457 5.84128 10.4888 5.8836 10.4888 5.96826V18.0227C10.4888 18.1134 10.4457 18.1587 10.3596 18.1587C10.3066 18.1587 10.2535 18.1346 10.2005 18.0862L5.95527 14.5941C5.84259 14.5034 5.73322 14.4414 5.62718 14.4082C5.52113 14.3749 5.40514 14.3583 5.27921 14.3583H2.09777ZM23.4432 9.84128H21.087V9.78685L23.5129 6.87529C23.6189 6.7483 23.6952 6.64097 23.7415 6.55329C23.7879 6.46561 23.8111 6.37945 23.8111 6.29479C23.8111 6.14362 23.7532 6.0257 23.6372 5.94105C23.5212 5.85639 23.3803 5.81406 23.2146 5.81406H19.8741C19.7084 5.81406 19.5741 5.8579 19.4715 5.94558C19.3687 6.03326 19.3173 6.15268 19.3173 6.30385C19.3173 6.45503 19.3687 6.57597 19.4715 6.66667C19.5741 6.75737 19.7084 6.80272 19.8741 6.80272H22.1011V6.83901L19.6454 9.75057C19.5328 9.87756 19.4566 9.98489 19.4168 10.0726C19.377 10.1602 19.3571 10.2555 19.3571 10.3583C19.3571 10.4913 19.4101 10.6032 19.5161 10.6939C19.6222 10.7846 19.7647 10.8299 19.9436 10.8299H23.4432C23.609 10.8299 23.7432 10.7861 23.846 10.6984C23.9487 10.6107 24 10.4883 24 10.3311C24 10.186 23.9487 10.068 23.846 9.97733C23.7432 9.88663 23.609 9.84128 23.4432 9.84128ZM17.5974 13.4694H15.937V13.4331L17.6571 11.3832C17.7564 11.2623 17.8293 11.1595 17.8757 11.0748C17.9222 10.9902 17.9454 10.9055 17.9454 10.8209C17.9454 10.6818 17.8907 10.573 17.7813 10.4943C17.6719 10.4157 17.5344 10.3764 17.3686 10.3764H14.8335C14.681 10.3764 14.5568 10.4188 14.4607 10.5034C14.3646 10.5881 14.3165 10.6969 14.3165 10.8299C14.3165 10.9811 14.3646 11.099 14.4607 11.1837C14.5568 11.2683 14.681 11.3107 14.8335 11.3107H16.3248V11.3469L14.6148 13.3878C14.522 13.5026 14.4541 13.6039 14.411 13.6916C14.3679 13.7793 14.3463 13.8685 14.3463 13.9592C14.3463 14.0862 14.396 14.1935 14.4955 14.2812C14.5949 14.3689 14.7241 14.4127 14.8832 14.4127H17.5974C17.7498 14.4127 17.8741 14.3719 17.9702 14.2903C18.0663 14.2086 18.1144 14.0922 18.1144 13.9411C18.1144 13.802 18.0663 13.6886 17.9702 13.6009C17.8741 13.5133 17.7498 13.4694 17.5974 13.4694ZM22.0911 16.8073H20.6794V16.771L22.1309 15.0023C22.2304 14.8753 22.3 14.774 22.3397 14.6984C22.3795 14.6228 22.3994 14.5457 22.3994 14.4671C22.3994 14.3281 22.3497 14.2207 22.2503 14.1451C22.1508 14.0695 22.0249 14.0317 21.8725 14.0317H19.6355C19.4897 14.0317 19.3704 14.071 19.2775 14.1497C19.1847 14.2283 19.1383 14.3372 19.1383 14.4762C19.1383 14.6213 19.1847 14.7317 19.2775 14.8073C19.3704 14.8829 19.4897 14.9207 19.6355 14.9207H20.8682V14.9569L19.4267 16.7256C19.3339 16.8405 19.2659 16.9373 19.2228 17.0159C19.1798 17.0945 19.1583 17.1761 19.1583 17.2608C19.1583 17.3878 19.208 17.4921 19.3073 17.5737C19.4068 17.6554 19.5327 17.6962 19.6851 17.6962H22.0911C22.2303 17.6962 22.3447 17.6554 22.4341 17.5737C22.5236 17.4921 22.5684 17.3817 22.5684 17.2427C22.5684 17.1157 22.5236 17.0114 22.4341 16.9298C22.3447 16.8481 22.2303 16.8073 22.0911 16.8073Z" fill="black" fill-opacity="0.8"/>
</svg>
