<svg width="24" height="24" viewBox="0 0 24 24" fill="none" xmlns="http://www.w3.org/2000/svg">
<path d="M3.01075 15.6826H5.82975C5.92174 15.6826 6.00059 15.7098 6.0663 15.7642L10.5116 19.4286C10.7482 19.6221 10.9667 19.7657 11.1671 19.8595C11.3675 19.9532 11.586 20 11.8226 20C12.1446 20 12.4107 19.9032 12.621 19.7098C12.8313 19.5163 12.9364 19.2744 12.9364 18.9842V5.0703C12.9364 4.774 12.8296 4.52154 12.616 4.31293C12.4025 4.10431 12.1314 4 11.8028 4C11.5663 4 11.3577 4.0514 11.177 4.1542C10.9963 4.25699 10.7745 4.41421 10.5116 4.62585L6.0663 8.25397C6.00716 8.30839 5.92831 8.3356 5.82975 8.3356H3.01075C2.3405 8.3356 1.83781 8.49434 1.50269 8.8118C1.16756 9.12926 1 9.61754 1 10.2767V13.7506C1 14.4036 1.16756 14.8889 1.50269 15.2064C1.83781 15.5238 2.3405 15.6826 3.01075 15.6826ZM3.07975 14.3583C2.89576 14.3583 2.75941 14.319 2.67069 14.2404C2.58199 14.1618 2.53764 14.0378 2.53764 13.8685V10.1587C2.53764 9.98943 2.58199 9.86396 2.67069 9.78232C2.75941 9.70069 2.89576 9.65988 3.07975 9.65988H6.23387C6.35871 9.65988 6.47371 9.64476 6.57884 9.61452C6.68398 9.58429 6.7924 9.5208 6.90412 9.42405L11.1031 5.91383C11.1293 5.88965 11.1556 5.87151 11.1819 5.85941C11.2082 5.84732 11.2378 5.84128 11.2706 5.84128C11.356 5.84128 11.3987 5.8836 11.3987 5.96826V18.0227C11.3987 18.1134 11.356 18.1587 11.2706 18.1587C11.2181 18.1587 11.1655 18.1346 11.1129 18.0862L6.90412 14.5941C6.7924 14.5034 6.68398 14.4414 6.57884 14.4082C6.47371 14.3749 6.35871 14.3583 6.23387 14.3583H3.07975ZM16.2581 15.8549C16.4289 15.9577 16.6162 15.9925 16.8198 15.9592C17.0236 15.9259 17.1912 15.8216 17.3226 15.6463C17.7037 15.1867 18.0011 14.6364 18.2146 13.9955C18.4281 13.3545 18.5349 12.6863 18.5349 11.9909C18.5349 11.2956 18.4281 10.6274 18.2146 9.98641C18.0011 9.34544 17.7037 8.79517 17.3226 8.3356C17.1912 8.16025 17.0236 8.05443 16.8198 8.01815C16.6162 7.98186 16.4289 8.01814 16.2581 8.12699C16.0609 8.25397 15.9476 8.41875 15.918 8.62132C15.8884 8.82389 15.9525 9.0189 16.1102 9.20635C16.3993 9.56917 16.6211 9.99245 16.7755 10.4762C16.93 10.9599 17.0072 11.4649 17.0072 11.9909C17.0072 12.517 16.9283 13.0204 16.7706 13.5012C16.6129 13.9819 16.3927 14.4066 16.1102 14.7755C15.9591 14.969 15.8967 15.1655 15.923 15.3651C15.9492 15.5647 16.0609 15.7279 16.2581 15.8549ZM19.9148 18.2223C20.0989 18.3311 20.2927 18.3688 20.4964 18.3356C20.7001 18.3023 20.8676 18.198 20.9991 18.0227C21.63 17.2245 22.1211 16.2994 22.4726 15.2471C22.8242 14.195 23 13.1096 23 11.9909C23 10.8723 22.8259 9.78384 22.4776 8.72564C22.1293 7.66743 21.6365 6.74528 20.9991 5.95919C20.8676 5.78383 20.7001 5.67801 20.4964 5.64172C20.2927 5.60544 20.0989 5.64475 19.9148 5.75964C19.7374 5.87453 19.634 6.02721 19.6044 6.21769C19.5748 6.40817 19.6323 6.59713 19.7768 6.78458C20.3157 7.48602 20.733 8.28723 21.0287 9.18821C21.3244 10.0892 21.4722 11.0234 21.4722 11.9909C21.4722 12.9585 21.3227 13.8912 21.0238 14.7892C20.7247 15.6871 20.3091 16.4899 19.7768 17.1973C19.6388 17.3848 19.583 17.5737 19.6093 17.7642C19.6356 17.9547 19.7374 18.1074 19.9148 18.2223Z" fill="black" fill-opacity="0.8"/>
<path d="M3.07975 14.3583C2.89576 14.3583 2.75941 14.319 2.67069 14.2404C2.58199 14.1618 2.53764 14.0378 2.53764 13.8685V10.1587C2.53764 9.98943 2.58199 9.86396 2.67069 9.78232C2.75941 9.70069 2.89576 9.65988 3.07975 9.65988H6.23387C6.35871 9.65988 6.47371 9.64476 6.57884 9.61452C6.68398 9.58429 6.7924 9.5208 6.90412 9.42405L11.1031 5.91383C11.1293 5.88965 11.1556 5.87151 11.1819 5.85941C11.2082 5.84732 11.2378 5.84128 11.2706 5.84128C11.356 5.84128 11.3987 5.8836 11.3987 5.96826V18.0227C11.3987 18.1134 11.356 18.1587 11.2706 18.1587C11.2181 18.1587 11.1655 18.1346 11.1129 18.0862L6.90412 14.5941C6.7924 14.5034 6.68398 14.4414 6.57884 14.4082C6.47371 14.3749 6.35871 14.3583 6.23387 14.3583H3.07975Z" fill="black" fill-opacity="0.8"/>
</svg>
