<svg width="24" height="24" viewBox="0 0 24 24" fill="none" xmlns="http://www.w3.org/2000/svg">
<path d="M8.02147 15.6826H10.8555C10.948 15.6826 11.0272 15.7098 11.0933 15.7642L15.5623 19.4286C15.8001 19.6221 16.0198 19.7657 16.2212 19.8595C16.4228 19.9532 16.6424 20 16.8803 20C17.204 20 17.4715 19.9033 17.6829 19.7098C17.8943 19.5163 18 19.2744 18 18.9842V5.0703C18 4.774 17.8926 4.52154 17.6779 4.31293C17.4632 4.10431 17.1907 4 16.8604 4C16.6226 4 16.4129 4.0514 16.2312 4.1542C16.0495 4.25699 15.8266 4.41421 15.5623 4.62585L11.0933 8.25397C11.0338 8.30839 10.9546 8.3356 10.8555 8.3356H8.02147C7.34764 8.3356 6.84228 8.49434 6.50537 8.8118C6.16846 9.12926 6 9.61754 6 10.2767V13.7506C6 14.4036 6.16846 14.8889 6.50537 15.2064C6.84228 15.5238 7.34764 15.6826 8.02147 15.6826ZM8.09083 14.3583C7.90586 14.3583 7.76878 14.319 7.6796 14.2404C7.59042 14.1618 7.54583 14.0378 7.54583 13.8685V10.1587C7.54583 9.98943 7.59042 9.86396 7.6796 9.78232C7.76878 9.70069 7.90586 9.65988 8.09083 9.65988H11.2618C11.3873 9.65988 11.5029 9.64476 11.6086 9.61452C11.7143 9.58429 11.8233 9.5208 11.9356 9.42405L16.1569 5.91383C16.1833 5.88965 16.2097 5.87151 16.2362 5.85941C16.2626 5.84732 16.2923 5.84128 16.3253 5.84128C16.4112 5.84128 16.4541 5.8836 16.4541 5.96826V18.0227C16.4541 18.1134 16.4112 18.1587 16.3253 18.1587C16.2725 18.1587 16.2196 18.1346 16.1667 18.0862L11.9356 14.5941C11.8233 14.5034 11.7143 14.4414 11.6086 14.4082C11.5029 14.3749 11.3873 14.3583 11.2618 14.3583H8.09083Z" fill="black" fill-opacity="0.8"/>
</svg>
