<svg width="24" height="24" viewBox="0 0 24 24" fill="none" xmlns="http://www.w3.org/2000/svg">
<path d="M6.88539 15.2537H9.63311C9.72952 15.2537 9.80986 15.2823 9.87414 15.3394L14.0391 19.1829C14.264 19.3922 14.4762 19.5444 14.6755 19.6395C14.8747 19.7347 15.0836 19.7822 15.3021 19.7822C15.5528 19.7822 15.7681 19.7188 15.948 19.592C16.128 19.4651 16.2566 19.2654 16.3337 18.9926L5.3428 8.15645C5.05999 8.47358 4.91859 8.94927 4.91859 9.58352V13.2273C4.91859 13.9123 5.08249 14.4213 5.41029 14.7542C5.73809 15.0872 6.22978 15.2537 6.88539 15.2537ZM16.4012 13.8647V4.12262C16.4012 3.81183 16.2983 3.54703 16.0927 3.32822C15.887 3.10941 15.6203 3 15.2925 3C15.0675 3 14.865 3.05232 14.685 3.15697C14.5051 3.26162 14.2898 3.42811 14.0391 3.65644L10.1634 7.20508C10.1119 7.25582 10.0573 7.28119 9.99947 7.28119H9.71024L16.4012 13.8647ZM19.737 20.7812C19.8784 20.9271 20.0536 21 20.2625 21C20.4714 21 20.6433 20.9271 20.7783 20.7812C20.9261 20.6353 21 20.4625 21 20.2627C21 20.0629 20.9261 19.8901 20.7783 19.7442L4.27263 3.45666C4.1248 3.31712 3.94804 3.24577 3.74237 3.2426C3.53669 3.23943 3.35994 3.31078 3.21211 3.45666C3.0707 3.59619 3 3.76902 3 3.97515C3 4.18128 3.0707 4.35412 3.21211 4.49366L19.737 20.7812Z" fill="black" fill-opacity="0.8"/>
</svg>
