<svg width="24" height="24" viewBox="0 0 24 24" fill="none" xmlns="http://www.w3.org/2000/svg">
<path d="M5.06524 15.6826H7.96063C8.05512 15.6826 8.13611 15.7098 8.20359 15.7642L12.7694 19.4286C13.0124 19.6221 13.2368 19.7657 13.4426 19.8595C13.6485 19.9532 13.8695 20 14.1057 20C14.4364 20 14.7098 19.9032 14.9257 19.7098C15.1417 19.5163 15.2497 19.2744 15.2497 18.9842V5.0703C15.2497 4.774 15.1417 4.52154 14.9257 4.31293C14.7098 4.10431 14.4297 4 14.0855 4C13.8493 4 13.6384 4.0514 13.4527 4.1542C13.2671 4.25699 13.0394 4.41421 12.7694 4.62585L8.20359 8.25397C8.14285 8.30839 8.06186 8.3356 7.96063 8.3356H5.06524C4.37683 8.3356 3.86052 8.49434 3.51631 8.8118C3.1721 9.12926 3 9.61754 3 10.2767V13.7506C3 14.4036 3.1721 14.8889 3.51631 15.2064C3.86052 15.5238 4.37683 15.6826 5.06524 15.6826ZM5.13611 14.3583C4.94713 14.3583 4.80708 14.319 4.71597 14.2404C4.62486 14.1618 4.5793 14.0378 4.5793 13.8685V10.1587C4.5793 9.98943 4.62486 9.86396 4.71597 9.78232C4.80708 9.70069 4.94713 9.65988 5.13611 9.65988H8.3757C8.50393 9.65988 8.62204 9.64476 8.73002 9.61452C8.83801 9.58429 8.94937 9.5208 9.06411 9.42405L13.3769 5.91383C13.4038 5.88965 13.4308 5.87151 13.4578 5.85941C13.4848 5.84732 13.5152 5.84128 13.5489 5.84128C13.6366 5.84128 13.6805 5.8836 13.6805 5.96826V18.0227C13.6805 18.1134 13.6366 18.1587 13.5489 18.1587C13.495 18.1587 13.441 18.1346 13.3869 18.0862L9.06411 14.5941C8.94937 14.5034 8.83801 14.4414 8.73002 14.4082C8.62204 14.3749 8.50393 14.3583 8.3757 14.3583H5.13611ZM18.6614 15.864C18.8369 15.9668 19.0292 16.0015 19.2385 15.9683C19.4477 15.935 19.6198 15.8307 19.7548 15.6554C20.1462 15.1958 20.4516 14.6455 20.671 14.0045C20.8903 13.3636 21 12.6954 21 12C21 11.3046 20.8903 10.6364 20.671 9.99547C20.4516 9.35451 20.1462 8.80424 19.7548 8.34468C19.6198 8.16932 19.4477 8.0635 19.2385 8.02721C19.0292 7.99094 18.8369 8.02722 18.6614 8.13606C18.459 8.26305 18.3425 8.42782 18.3121 8.6304C18.2818 8.83297 18.3476 9.02798 18.5095 9.21543C18.8065 9.57824 19.0343 10.0015 19.1929 10.4853C19.3515 10.969 19.4308 11.4739 19.4308 12C19.4308 12.5261 19.3498 13.0295 19.1878 13.5102C19.0259 13.9909 18.7998 14.4157 18.5095 14.7846C18.3543 14.9781 18.2902 15.1746 18.3172 15.3742C18.3442 15.5737 18.459 15.737 18.6614 15.864Z" fill="black" fill-opacity="0.8"/>
<path d="M5.13611 14.3583C4.94713 14.3583 4.80708 14.319 4.71597 14.2404C4.62486 14.1618 4.5793 14.0378 4.5793 13.8685V10.1587C4.5793 9.98943 4.62486 9.86396 4.71597 9.78232C4.80708 9.70069 4.94713 9.65988 5.13611 9.65988H8.3757C8.50393 9.65988 8.62204 9.64476 8.73002 9.61452C8.83801 9.58429 8.94937 9.5208 9.06411 9.42405L13.3769 5.91383C13.4038 5.88965 13.4308 5.87151 13.4578 5.85941C13.4848 5.84732 13.5152 5.84128 13.5489 5.84128C13.6366 5.84128 13.6805 5.8836 13.6805 5.96826V18.0227C13.6805 18.1134 13.6366 18.1587 13.5489 18.1587C13.495 18.1587 13.441 18.1346 13.3869 18.0862L9.06411 14.5941C8.94937 14.5034 8.83801 14.4414 8.73002 14.4082C8.62204 14.3749 8.50393 14.3583 8.3757 14.3583H5.13611Z" fill="black" fill-opacity="0.8"/>
</svg>
