<svg width="24" height="24" viewBox="0 0 24 24" fill="none" xmlns="http://www.w3.org/2000/svg">
<path d="M10.7174 20C11.0489 20 11.319 19.9033 11.5277 19.7098C11.7366 19.5163 11.841 19.2744 11.841 18.9842V5.0703C11.841 4.774 11.7349 4.52154 11.5228 4.31293C11.3107 4.10431 11.0357 4 10.6976 4C10.4656 4 10.2585 4.04989 10.0762 4.14966C9.89396 4.24943 9.67358 4.40816 9.41509 4.62585L5.17979 8.25397C5.11351 8.30839 5.03066 8.3356 4.93124 8.3356H2.07789C1.40845 8.3356 0.894783 8.50341 0.536869 8.83901C0.178956 9.17461 0 9.66895 0 10.322V13.6961C0 14.3553 0.178956 14.8511 0.536869 15.1837C0.894783 15.5163 1.40845 15.6826 2.07789 15.6826H4.93124C5.03066 15.6826 5.11351 15.7098 5.17979 15.7642L9.41509 19.4286C9.64044 19.6282 9.85585 19.7733 10.0613 19.8639C10.2668 19.9546 10.4855 20 10.7174 20ZM23.4432 9.84128H21.087V9.78685L23.5129 6.87529C23.6189 6.7483 23.6952 6.64097 23.7415 6.55329C23.7879 6.46561 23.8111 6.37945 23.8111 6.29479C23.8111 6.14362 23.7532 6.0257 23.6372 5.94105C23.5212 5.85639 23.3803 5.81406 23.2146 5.81406H19.8741C19.7084 5.81406 19.5741 5.8579 19.4715 5.94558C19.3687 6.03326 19.3173 6.15268 19.3173 6.30385C19.3173 6.45503 19.3687 6.57597 19.4715 6.66667C19.5741 6.75737 19.7084 6.80272 19.8741 6.80272H22.1011V6.83901L19.6454 9.75057C19.5328 9.87756 19.4566 9.98489 19.4168 10.0726C19.377 10.1602 19.3571 10.2555 19.3571 10.3583C19.3571 10.4913 19.4101 10.6032 19.5161 10.6939C19.6222 10.7846 19.7647 10.8299 19.9436 10.8299H23.4432C23.609 10.8299 23.7432 10.7861 23.846 10.6984C23.9487 10.6107 24 10.4883 24 10.3311C24 10.186 23.9487 10.068 23.846 9.97733C23.7432 9.88663 23.609 9.84128 23.4432 9.84128ZM17.5974 13.4694H15.937V13.4331L17.6571 11.3832C17.7564 11.2623 17.8293 11.1595 17.8757 11.0748C17.9222 10.9902 17.9454 10.9055 17.9454 10.8209C17.9454 10.6818 17.8907 10.573 17.7813 10.4943C17.6719 10.4157 17.5344 10.3764 17.3686 10.3764H14.8335C14.681 10.3764 14.5568 10.4188 14.4607 10.5034C14.3646 10.5881 14.3165 10.6969 14.3165 10.8299C14.3165 10.9811 14.3646 11.099 14.4607 11.1837C14.5568 11.2683 14.681 11.3107 14.8335 11.3107H16.3248V11.3469L14.6148 13.3878C14.522 13.5026 14.4541 13.6039 14.411 13.6916C14.3679 13.7793 14.3463 13.8685 14.3463 13.9592C14.3463 14.0862 14.396 14.1935 14.4955 14.2812C14.5949 14.3689 14.7241 14.4127 14.8832 14.4127H17.5974C17.7498 14.4127 17.8741 14.3719 17.9702 14.2903C18.0663 14.2086 18.1144 14.0922 18.1144 13.9411C18.1144 13.802 18.0663 13.6886 17.9702 13.6009C17.8741 13.5133 17.7498 13.4694 17.5974 13.4694ZM22.0911 16.8073H20.6794V16.771L22.1309 15.0023C22.2304 14.8753 22.3 14.774 22.3397 14.6984C22.3795 14.6228 22.3994 14.5457 22.3994 14.4671C22.3994 14.3281 22.3497 14.2207 22.2503 14.1451C22.1508 14.0695 22.0249 14.0317 21.8725 14.0317H19.6355C19.4897 14.0317 19.3704 14.071 19.2775 14.1497C19.1847 14.2283 19.1383 14.3372 19.1383 14.4762C19.1383 14.6213 19.1847 14.7317 19.2775 14.8073C19.3704 14.8829 19.4897 14.9207 19.6355 14.9207H20.8682V14.9569L19.4267 16.7256C19.3339 16.8405 19.2659 16.9373 19.2228 17.0159C19.1798 17.0945 19.1583 17.1761 19.1583 17.2608C19.1583 17.3878 19.208 17.4921 19.3073 17.5737C19.4068 17.6554 19.5327 17.6962 19.6851 17.6962H22.0911C22.2303 17.6962 22.3447 17.6554 22.4341 17.5737C22.5236 17.4921 22.5684 17.3817 22.5684 17.2427C22.5684 17.1157 22.5236 17.0114 22.4341 16.9298C22.3447 16.8481 22.2303 16.8073 22.0911 16.8073Z" fill="black" fill-opacity="0.8"/>
</svg>
