<svg width="26" height="24" viewBox="0 0 26 24" fill="none" xmlns="http://www.w3.org/2000/svg">
<path d="M1.97616 15.7931H4.74666C4.83707 15.7931 4.91457 15.821 4.97914 15.8769L9.348 19.6408C9.58049 19.8396 9.79521 19.9871 9.99215 20.0834C10.1892 20.1797 10.4039 20.2278 10.6364 20.2278C10.9529 20.2278 11.2144 20.1285 11.4211 19.9297C11.6277 19.731 11.731 19.4825 11.731 19.1843V4.89272C11.731 4.58838 11.6261 4.32907 11.4162 4.11479C11.2063 3.90051 10.9399 3.79337 10.617 3.79337C10.3845 3.79337 10.1795 3.84616 10.0019 3.95175C9.82428 4.05734 9.60632 4.21883 9.348 4.43622L4.97914 8.16285C4.92102 8.21875 4.84352 8.2467 4.74666 8.2467H1.97616C1.31744 8.2467 0.823399 8.40973 0.49404 8.73581C0.16468 9.06189 0 9.56344 0 10.2404V13.8087C0 14.4795 0.16468 14.9779 0.49404 15.304C0.823399 15.63 1.31744 15.7931 1.97616 15.7931ZM2.04397 14.4329C1.86314 14.4329 1.72914 14.3926 1.64195 14.3118C1.55477 14.231 1.51118 14.1037 1.51118 13.9298V10.1193C1.51118 9.94542 1.55477 9.81654 1.64195 9.73269C1.72914 9.64884 1.86314 9.60691 2.04397 9.60691H5.14383C5.26652 9.60691 5.37954 9.59139 5.48287 9.56033C5.58619 9.52927 5.69275 9.46406 5.80254 9.36468L9.92926 5.75917C9.95505 5.73432 9.98087 5.71569 10.0067 5.70327C10.0326 5.69084 10.0617 5.68463 10.0939 5.68463C10.1778 5.68463 10.2198 5.72811 10.2198 5.81507V18.1968C10.2198 18.29 10.1778 18.3366 10.0939 18.3366C10.0423 18.3366 9.99059 18.3117 9.93888 18.262L5.80254 14.6752C5.69275 14.582 5.58619 14.5183 5.48287 14.4842C5.37954 14.45 5.26652 14.4329 5.14383 14.4329H2.04397ZM14.9956 15.9702C15.1635 16.0757 15.3475 16.1114 15.5477 16.0773C15.7479 16.0431 15.9126 15.936 16.0418 15.7559C16.4163 15.2838 16.7086 14.7186 16.9185 14.0602C17.1283 13.4019 17.2332 12.7156 17.2332 12.0013C17.2332 11.287 17.1283 10.6007 16.9185 9.94231C16.7086 9.28394 16.4163 8.71874 16.0418 8.2467C15.9126 8.06658 15.7479 7.95788 15.5477 7.92061C15.3475 7.88335 15.1635 7.92062 14.9956 8.03241C14.8018 8.16285 14.6904 8.3321 14.6614 8.54017C14.6323 8.74823 14.6952 8.94854 14.8502 9.14109C15.1344 9.51375 15.3524 9.94852 15.5041 10.4454C15.6559 10.9423 15.7318 11.4609 15.7318 12.0013C15.7318 12.5416 15.6543 13.0587 15.4993 13.5525C15.3443 14.0463 15.1279 14.4826 14.8502 14.8615C14.7017 15.0602 14.6404 15.2621 14.6662 15.467C14.692 15.672 14.8018 15.8397 14.9956 15.9702ZM18.5894 18.4018C18.7703 18.5136 18.9608 18.5524 19.161 18.5182C19.3612 18.4841 19.5259 18.3769 19.6551 18.1968C20.275 17.3769 20.7578 16.4267 21.1032 15.3459C21.4488 14.2652 21.6215 13.1503 21.6215 12.0013C21.6215 10.8522 21.4504 9.73424 21.1081 8.64731C20.7658 7.56037 20.2815 6.61319 19.6551 5.80575C19.5259 5.62563 19.3612 5.51694 19.161 5.47967C18.9608 5.4424 18.7703 5.48277 18.5894 5.60079C18.4151 5.7188 18.3134 5.87563 18.2843 6.07128C18.2553 6.26692 18.3118 6.46102 18.4538 6.65356C18.9834 7.37404 19.3935 8.19701 19.6841 9.12245C19.9747 10.0479 20.12 11.0075 20.12 12.0013C20.12 12.995 19.9731 13.9531 19.6793 14.8754C19.3854 15.7978 18.9769 16.6223 18.4538 17.349C18.3182 17.5415 18.2633 17.7356 18.2891 17.9312C18.315 18.1269 18.4151 18.2838 18.5894 18.4018ZM22.222 20.8707C22.3899 20.9886 22.5773 21.0259 22.784 20.9825C22.9906 20.939 23.1585 20.8241 23.2877 20.6378C23.856 19.8489 24.3419 18.9965 24.7456 18.0803C25.1492 17.1642 25.4592 16.1969 25.6755 15.1782C25.8918 14.1596 26 13.1006 26 12.0013C26 10.9019 25.8902 9.84293 25.6707 8.82432C25.4511 7.80571 25.1379 6.83834 24.731 5.92221C24.3242 5.00608 23.8431 4.15361 23.2877 3.36481C23.1585 3.17227 22.9906 3.05581 22.784 3.01544C22.5773 2.97506 22.3899 3.01388 22.222 3.13189C22.0412 3.2499 21.9379 3.40828 21.9121 3.60704C21.8863 3.80579 21.9412 4.00144 22.0768 4.19398C22.5741 4.90825 23.0051 5.67687 23.37 6.49983C23.7349 7.3228 24.0174 8.19545 24.2177 9.11779C24.4178 10.0401 24.5179 11.0013 24.5179 12.0013C24.5179 12.995 24.4178 13.9531 24.2177 14.8754C24.0174 15.7978 23.7349 16.6735 23.37 17.5027C23.0051 18.3319 22.5741 19.1005 22.0768 19.8085C21.9412 19.9949 21.8863 20.189 21.9121 20.3909C21.9379 20.5927 22.0412 20.7527 22.222 20.8707Z" fill="black" fill-opacity="0.8"/>
</svg>
