<svg width="24" height="24" viewBox="0 0 24 24" fill="none" xmlns="http://www.w3.org/2000/svg">
<path d="M6.88539 15.2537H9.64275C9.73273 15.2537 9.80986 15.2823 9.87414 15.3394L14.2223 19.1829C14.4601 19.3859 14.6754 19.5365 14.8683 19.6348C15.0611 19.7331 15.2732 19.7822 15.5046 19.7822C15.6909 19.7822 15.8613 19.741 16.0156 19.6586C16.1698 19.5761 16.3016 19.4524 16.4109 19.2875L15.2925 18.1935L10.6358 14.0741C10.5394 13.9852 10.4526 13.9281 10.3755 13.9028C10.2983 13.8774 10.1987 13.8647 10.0766 13.8647H6.95287C6.7729 13.8647 6.63953 13.8235 6.55276 13.7411C6.46599 13.6586 6.42261 13.5286 6.42261 13.351V9.4313L5.26567 8.28964C5.14997 8.44187 5.06321 8.6258 5.00536 8.84144C4.94751 9.05709 4.91859 9.30445 4.91859 9.58352V13.2273C4.91859 13.9123 5.08249 14.4213 5.41029 14.7542C5.73809 15.0872 6.22978 15.2537 6.88539 15.2537ZM16.594 13.8552V4.12262C16.594 3.81183 16.4895 3.54703 16.2806 3.32822C16.0718 3.10941 15.8067 3 15.4853 3C15.2539 3 15.0498 3.05391 14.8731 3.16173C14.6963 3.26955 14.4794 3.43446 14.2223 3.65644L10.0091 7.34779L11.0407 8.37527L14.8007 5.0074C14.8265 4.98203 14.8522 4.963 14.8778 4.95032C14.9036 4.93763 14.9325 4.93129 14.9646 4.93129C15.0482 4.93129 15.09 4.97569 15.09 5.06449V12.371L16.594 13.8552ZM19.737 20.7812C19.8784 20.9271 20.0536 21 20.2625 21C20.4714 21 20.6433 20.9271 20.7783 20.7812C20.9261 20.6353 21 20.4625 21 20.2627C21 20.0629 20.9261 19.8901 20.7783 19.7442L4.27263 3.45666C4.1248 3.31712 3.94804 3.24577 3.74237 3.2426C3.53669 3.23943 3.35994 3.31078 3.21211 3.45666C3.0707 3.59619 3 3.76902 3 3.97515C3 4.18128 3.0707 4.35412 3.21211 4.49366L19.737 20.7812Z" fill="black" fill-opacity="0.8"/>
</svg>
