<svg width="24" height="24" viewBox="0 0 24 24" fill="none" xmlns="http://www.w3.org/2000/svg">
<path d="M16.8614 20C17.1972 20 17.471 19.9033 17.6825 19.7098C17.8942 19.5163 18 19.2744 18 18.9842V5.0703C18 4.774 17.8925 4.52154 17.6776 4.31293C17.4626 4.10431 17.1839 4 16.8413 4C16.6062 4 16.3946 4.04838 16.2065 4.14513C16.0184 4.24188 15.7968 4.40212 15.5415 4.62585L11.2494 8.25397C11.1822 8.30839 11.0982 8.3356 10.9975 8.3356H8.10579C7.42737 8.3356 6.9068 8.50341 6.54408 8.83901C6.18136 9.17461 6 9.66895 6 10.322V13.6961C6 14.3553 6.18136 14.8511 6.54408 15.1837C6.9068 15.5163 7.42737 15.6826 8.10579 15.6826H10.9975C11.0982 15.6826 11.1822 15.7098 11.2494 15.7642L15.5415 19.4286C15.7699 19.6282 15.9882 19.7733 16.1964 19.8639C16.4046 19.9546 16.6263 20 16.8614 20Z" fill="black" fill-opacity="0.8"/>
</svg>
