<svg width="24" height="24" viewBox="0 0 24 24" fill="none" xmlns="http://www.w3.org/2000/svg">
<path d="M0 5.8738C0 6.57935 0.122022 7.32934 0.366065 8.1238C0.610108 8.91825 0.946045 9.69837 1.37388 10.4641C1.8017 11.2299 2.29129 11.9254 2.84265 12.5506C3.394 13.1759 3.98001 13.675 4.60066 14.0478C5.22131 14.4206 5.84498 14.607 6.47166 14.607H6.88744C7.51412 14.607 8.13778 14.4206 8.75843 14.0478C9.37912 13.675 9.96512 13.1759 10.5164 12.5506C11.0678 11.9254 11.5574 11.2299 11.9852 10.4641C12.4131 9.69837 12.749 8.91825 12.993 8.1238C13.2371 7.32934 13.3591 6.57935 13.3591 5.8738C13.3591 4.92161 13.1166 4.20459 12.6315 3.72275C12.1464 3.24092 11.4278 3 10.4758 3H9.51768V4.38528H10.5481C11.0061 4.38528 11.3465 4.51147 11.5694 4.76386C11.7924 5.01625 11.9039 5.3805 11.9039 5.8566C11.9039 6.40153 11.8074 7.00239 11.6146 7.65918C11.4218 8.31596 11.1537 8.97131 10.8102 9.62523C10.4667 10.2791 10.0735 10.8772 9.63069 11.4192C9.18778 11.9613 8.71475 12.3972 8.2116 12.727C7.70845 13.0569 7.19776 13.2218 6.67955 13.2218C6.16736 13.2218 5.65819 13.0569 5.15202 12.727C4.64586 12.3972 4.17133 11.9613 3.72843 11.4192C3.28554 10.8772 2.89387 10.2791 2.55341 9.62523C2.21296 8.97131 1.94481 8.31596 1.74898 7.65918C1.55314 7.00239 1.45522 6.40153 1.45522 5.8566C1.45522 5.3805 1.56821 5.01625 1.79417 4.76386C2.02014 4.51147 2.35908 4.38528 2.81101 4.38528H3.84142V3H2.88332C1.93126 3 1.21269 3.24092 0.72761 3.72275C0.242537 4.20459 0 4.92161 0 5.8738ZM10.53 21C11.4459 21 12.2247 20.7677 12.8665 20.3031C13.5082 19.8384 14.0385 19.1414 14.4573 18.2122C14.8761 17.283 15.212 16.1186 15.4651 14.7189C15.6579 13.6749 15.8779 12.8532 16.1249 12.2538C16.372 11.6544 16.6628 11.2299 16.9972 10.9804C17.3316 10.7309 17.7157 10.6061 18.1496 10.6061C18.6618 10.6061 19.0866 10.7696 19.424 11.0965C19.7614 11.4235 20.0221 11.9168 20.2059 12.5764C20.3897 13.2361 20.5026 14.065 20.5448 15.0631H22C21.9096 13.7667 21.7168 12.6855 21.4215 11.8193C21.1263 10.9532 20.712 10.3035 20.1788 9.87045C19.6455 9.43738 18.9691 9.22084 18.1496 9.22084C17.4204 9.22084 16.7937 9.39292 16.2695 9.73709C15.7453 10.0813 15.3024 10.6334 14.9409 11.3934C14.5793 12.1534 14.278 13.1587 14.037 14.4092C13.8743 15.2524 13.695 15.9981 13.4992 16.6463C13.3034 17.2945 13.0714 17.838 12.8032 18.2768C12.535 18.7156 12.2081 19.0483 11.8225 19.2749C11.4368 19.5014 10.9759 19.6147 10.4396 19.6147C9.45742 19.6147 8.7027 19.1314 8.17544 18.1649C7.64819 17.1984 7.38457 15.826 7.38457 14.0478H5.92934C5.92934 16.2792 6.32855 17.9957 7.12697 19.1974C7.92537 20.3991 9.05974 21 10.53 21Z" fill="#5856D6"/>
<path d="M4.33986 4.67652C4.70907 4.67652 5.02617 4.54505 5.29116 4.28213C5.55616 4.0192 5.68865 3.70458 5.68865 3.33826C5.68865 2.97194 5.55616 2.65732 5.29116 2.39439C5.02617 2.13146 4.70907 2 4.33986 2C3.97066 2 3.65505 2.13146 3.39303 2.39439C3.13101 2.65732 3 2.97194 3 3.33826C3 3.70458 3.13101 4.0192 3.39303 4.28213C3.65505 4.54505 3.97066 4.67652 4.33986 4.67652ZM9.05616 4.67652C9.42535 4.67652 9.74245 4.54505 10.0075 4.28213C10.2725 4.0192 10.405 3.70458 10.405 3.33826C10.405 2.97194 10.2725 2.65732 10.0075 2.39439C9.74245 2.13146 9.42535 2 9.05616 2C8.68696 2 8.36986 2.13146 8.10486 2.39439C7.83987 2.65732 7.70737 2.97194 7.70737 3.33826C7.70737 3.70458 7.83987 4.0192 8.10486 4.28213C8.36986 4.54505 8.68696 4.67652 9.05616 4.67652ZM21.1864 20C21.7044 20 22.1763 19.8745 22.6021 19.6234C23.0279 19.3723 23.3673 19.034 23.6204 18.6086C23.8735 18.1832 24 17.7105 24 17.1905C24 16.6765 23.8735 16.2083 23.6204 15.7859C23.3673 15.3634 23.0279 15.0266 22.6021 14.7755C22.1763 14.5244 21.7044 14.3959 21.1864 14.39C20.6623 14.39 20.1859 14.5155 19.7572 14.7666C19.3284 15.0178 18.9875 15.356 18.7344 15.7814C18.4813 16.2068 18.3548 16.6765 18.3548 17.1905C18.3548 17.7105 18.4813 18.1832 18.7344 18.6086C18.9875 19.034 19.3284 19.3723 19.7572 19.6234C20.1859 19.8745 20.6623 20 21.1864 20ZM21.1864 18.7504C20.8946 18.7504 20.6296 18.681 20.3913 18.5421C20.1531 18.4033 19.9626 18.2142 19.8197 17.9749C19.6768 17.7356 19.6053 17.4742 19.6053 17.1905C19.6053 16.901 19.6768 16.6381 19.8197 16.4018C19.9626 16.1655 20.1531 15.9779 20.3913 15.839C20.6296 15.7002 20.8946 15.6308 21.1864 15.6308C21.4722 15.6308 21.7342 15.7002 21.9723 15.839C22.2106 15.9779 22.3997 16.1655 22.5396 16.4018C22.6796 16.6381 22.7495 16.901 22.7495 17.1905C22.7495 17.4742 22.6796 17.7356 22.5396 17.9749C22.3997 18.2142 22.2106 18.4033 21.9723 18.5421C21.7342 18.681 21.4722 18.7504 21.1864 18.7504Z" fill="#8E8E93"/>
</svg>
