<svg width="24" height="24" viewBox="0 0 24 24" fill="none" xmlns="http://www.w3.org/2000/svg">
<path d="M6.18252 23C6.40094 23 6.56162 22.9404 6.66458 22.8211C6.76755 22.7019 6.84712 22.533 6.90328 22.3144L7.68955 19.1545H16.3666L17.1529 22.3144C17.209 22.533 17.2933 22.7019 17.4056 22.8211C17.518 22.9404 17.674 23 17.8737 23C18.117 23 18.2995 22.9321 18.4212 22.7963C18.5429 22.6605 18.6037 22.4833 18.6037 22.2646C18.6037 22.152 18.5913 22.0494 18.5663 21.9566L17.0686 16.0045H17.6115C17.9173 16.0045 18.1716 15.9134 18.3744 15.7312C18.5772 15.5491 18.6786 15.3156 18.6786 15.0307C18.6786 14.7194 18.585 14.4726 18.3979 14.2904C18.2106 14.1083 17.9641 14.0172 17.6584 14.0172H6.96879C6.61934 14.0172 6.34789 13.9228 6.15445 13.7339C5.961 13.5451 5.86427 13.2719 5.86427 12.9142V10.1915H7.30577V10.9268C7.30577 11.4899 7.43994 11.9072 7.70827 12.1788C7.9766 12.4504 8.38221 12.5862 8.92512 12.5862H15.1966C15.7395 12.5862 16.1435 12.4504 16.4088 12.1788C16.674 11.9072 16.8066 11.4899 16.8066 10.9268V10.1915H20.1763C20.4259 10.1915 20.6255 10.1236 20.7753 9.9878C20.9251 9.852 21 9.66486 21 9.42638C21 9.18789 20.9282 8.9991 20.7847 8.85998C20.6412 8.72086 20.4509 8.65131 20.2137 8.65131H3.73947C3.51482 8.65131 3.33541 8.72252 3.20125 8.86495C3.06708 9.00737 3 9.19452 3 9.42638C3 9.66486 3.07176 9.852 3.21529 9.9878C3.35881 10.1236 3.54914 10.1915 3.78627 10.1915H4.41342V13.9178C4.41342 14.5736 4.59126 15.0854 4.94696 15.453C5.30265 15.8207 5.78939 16.0045 6.40718 16.0045H6.98752L5.49922 21.9566C5.48674 22.003 5.47582 22.0527 5.46646 22.1057C5.45709 22.1587 5.45241 22.215 5.45241 22.2746C5.45241 22.4799 5.51014 22.6522 5.62559 22.7913C5.74103 22.9304 5.92667 23 6.18252 23ZM8.08268 17.6044L8.47582 16.0045H15.5803L15.9735 17.6044H8.08268ZM8.88768 7.17073H15.234C16.3198 7.17073 16.8627 6.61096 16.8627 5.49141V2.67931C16.8627 1.55977 16.3198 1 15.234 1H8.88768C7.80187 1 7.25897 1.55977 7.25897 2.67931V5.49141C7.25897 6.61096 7.80187 7.17073 8.88768 7.17073Z" fill="black" fill-opacity="0.8"/>
</svg>
