<svg width="24" height="24" viewBox="0 0 24 24" fill="none" xmlns="http://www.w3.org/2000/svg">
<path fill-rule="evenodd" clip-rule="evenodd" d="M11.5882 19.9538C10.9317 20.6165 10.2722 20.6135 9.60972 19.9449L4.05021 14.3931C3.72195 14.0648 3.55931 13.7319 3.56229 13.3946C3.56528 13.0574 3.72493 12.7305 4.04125 12.4141L12.7342 3.73718C12.8237 3.64763 12.9207 3.576 13.0251 3.52227C13.1296 3.46854 13.2564 3.44168 13.4056 3.44168H17.1746C17.4193 3.44168 17.6371 3.54018 17.8281 3.73718L20.2721 6.17282C20.4631 6.36385 20.5586 6.58174 20.5586 6.8265V10.6053C20.5586 10.7546 20.5333 10.8799 20.4825 10.9814C20.4318 11.0829 20.3617 11.1784 20.2721 11.268L11.5882 19.9538ZM16.9508 8.80545C16.718 9.04424 16.4256 9.16364 16.0735 9.16364C15.7213 9.16364 15.4289 9.04424 15.1961 8.80545C14.9633 8.56667 14.847 8.27714 14.847 7.93686C14.847 7.59062 14.9633 7.2996 15.1961 7.0638C15.4289 6.82799 15.7213 6.71009 16.0735 6.71009C16.4256 6.71009 16.718 6.82799 16.9508 7.0638C17.1835 7.2996 17.2999 7.59062 17.2999 7.93686C17.2999 8.27714 17.1835 8.56667 16.9508 8.80545Z" fill="black" fill-opacity="0.8"/>
<path fill-rule="evenodd" clip-rule="evenodd" d="M21.2838 12.2888L12.5551 21.0374C11.9165 21.6761 11.2689 21.997 10.6124 22C9.95588 22.003 9.29936 21.6791 8.64284 21.0284L2.9759 15.3691C2.31939 14.7124 1.99411 14.0558 2.00008 13.3991C2.00605 12.7425 2.32834 12.0948 2.96696 11.456L11.7225 2.71637C11.9434 2.49549 12.1448 2.3343 12.3268 2.23281C12.5088 2.13133 12.7073 2.06716 12.9222 2.04029C13.137 2.01343 13.3996 2 13.7099 2H17.1208C17.4372 2 17.6953 2.02836 17.8953 2.08507C18.0952 2.14178 18.2787 2.23729 18.4458 2.37161C18.613 2.50593 18.8099 2.68353 19.0367 2.90441L21.0958 4.96395C21.3226 5.1908 21.5017 5.38929 21.6329 5.55943C21.7642 5.72956 21.8582 5.91462 21.9149 6.11461C21.9716 6.3146 22 6.57279 22 6.88918V10.2919C22 10.6083 21.9866 10.8725 21.9597 11.0844C21.9328 11.2963 21.8702 11.4933 21.7717 11.6754C21.6732 11.8575 21.5106 12.0619 21.2838 12.2888ZM9.60972 19.9449C10.2722 20.6135 10.9317 20.6165 11.5882 19.9538L20.2721 11.268C20.3617 11.1784 20.4318 11.0829 20.4825 10.9814C20.5333 10.8799 20.5586 10.7546 20.5586 10.6053V6.8265C20.5586 6.58174 20.4631 6.36385 20.2721 6.17282L17.8281 3.73718C17.6371 3.54018 17.4193 3.44168 17.1746 3.44168H13.4056C13.2564 3.44168 13.1296 3.46854 13.0251 3.52227C12.9207 3.576 12.8237 3.64763 12.7342 3.73718L4.04125 12.4141C3.72493 12.7305 3.56528 13.0574 3.56229 13.3946C3.55931 13.7319 3.72195 14.0648 4.05021 14.3931L9.60972 19.9449Z" fill="black" fill-opacity="0.8"/>
</svg>
