<svg width="24" height="24" viewBox="0 0 24 24" fill="none" xmlns="http://www.w3.org/2000/svg">
<path d="M15.5453 18.0466L5.975 8.45622L2.96696 11.456C2.32834 12.0948 2.00605 12.7425 2.00008 13.3991C1.99411 14.0558 2.31939 14.7124 2.9759 15.3691L8.64284 21.0284C9.29936 21.6791 9.95588 22.003 10.6124 22C11.2689 21.997 11.9165 21.6761 12.5551 21.0374L15.5453 18.0466ZM8.45484 5.97582L18.0251 15.5483L21.2838 12.2888C21.5106 12.0619 21.6732 11.8575 21.7717 11.6754C21.8702 11.4933 21.9328 11.2963 21.9597 11.0844C21.9866 10.8725 22 10.6083 22 10.2919V6.88918C22 6.57279 21.9716 6.3146 21.9149 6.11461C21.8582 5.91462 21.7642 5.72956 21.6329 5.55943C21.5017 5.38929 21.3226 5.1908 21.0958 4.96395L19.0367 2.90441C18.8099 2.68353 18.613 2.50593 18.4458 2.37161C18.2787 2.23729 18.0952 2.14178 17.8953 2.08507C17.6953 2.02836 17.4372 2 17.1208 2H13.7099C13.3996 2 13.137 2.01343 12.9222 2.04029C12.7073 2.06716 12.5088 2.13133 12.3268 2.23281C12.1448 2.3343 11.9434 2.49549 11.7225 2.71637L8.45484 5.97582ZM15.6168 9.16364C15.2647 9.16364 14.9723 9.04424 14.7395 8.80545C14.5067 8.56667 14.3903 8.27714 14.3903 7.93686C14.3903 7.59062 14.5067 7.2996 14.7395 7.0638C14.9723 6.82799 15.2647 6.71009 15.6168 6.71009C15.963 6.71009 16.254 6.82799 16.4898 7.0638C16.7255 7.2996 16.8434 7.59062 16.8434 7.93686C16.8434 8.27714 16.7255 8.56667 16.4898 8.80545C16.254 9.04424 15.963 9.16364 15.6168 9.16364ZM19.2874 20.2583C19.4246 20.3956 19.5888 20.4643 19.7798 20.4643C19.9707 20.4643 20.1319 20.3956 20.2632 20.2583C20.3945 20.127 20.4617 19.9658 20.4646 19.7747C20.4676 19.5837 20.4005 19.4195 20.2632 19.2822L4.72165 3.73718C4.58437 3.59988 4.42024 3.53123 4.22926 3.53123C4.03827 3.53123 3.87414 3.59988 3.73687 3.73718C3.60557 3.86851 3.53992 4.03119 3.53992 4.22521C3.53992 4.41922 3.60557 4.58189 3.73687 4.71322L19.2874 20.2583Z" fill="black" fill-opacity="0.8"/>
</svg>
