<svg width="24" height="24" viewBox="0 0 24 24" fill="none" xmlns="http://www.w3.org/2000/svg">
<path d="M15.5541 18.0376L14.5336 17.0079L11.5882 19.9538C10.9317 20.6165 10.2722 20.6135 9.60972 19.9449L4.05021 14.3931C3.72195 14.0648 3.55931 13.7319 3.56229 13.3946C3.56528 13.0574 3.72493 12.7305 4.04125 12.4141L7.00453 9.45913L5.9929 8.43831L2.96696 11.456C2.32834 12.0948 2.00605 12.7425 2.00008 13.3991C1.99411 14.0558 2.31939 14.7124 2.9759 15.3691L8.64284 21.0284C9.29936 21.6791 9.95588 22.003 10.6124 22C11.2689 21.997 11.9165 21.6761 12.5551 21.0374L15.5541 18.0376ZM17.0045 14.5363L18.034 15.5572L21.2838 12.2888C21.5106 12.0619 21.6732 11.8575 21.7717 11.6754C21.8702 11.4933 21.9328 11.2963 21.9597 11.0844C21.9866 10.8725 22 10.6083 22 10.2919V6.88918C22 6.57279 21.9716 6.3146 21.9149 6.11461C21.8582 5.91462 21.7642 5.72956 21.6329 5.55943C21.5017 5.38929 21.3226 5.1908 21.0958 4.96395L19.0367 2.90441C18.8099 2.68353 18.613 2.50593 18.4458 2.37161C18.2787 2.23729 18.0952 2.14178 17.8953 2.08507C17.6953 2.02836 17.4372 2 17.1208 2H13.7099C13.3996 2 13.137 2.01343 12.9222 2.04029C12.7073 2.06716 12.5088 2.13133 12.3268 2.23281C12.1448 2.3343 11.9434 2.49549 11.7225 2.71637L8.45484 5.97582L9.47542 6.99664L12.7342 3.73718C12.8237 3.64763 12.9207 3.576 13.0251 3.52227C13.1296 3.46854 13.2564 3.44168 13.4056 3.44168H17.1746C17.4193 3.44168 17.6371 3.54018 17.8281 3.73718L20.2721 6.17282C20.4631 6.36385 20.5586 6.58174 20.5586 6.8265V10.6053C20.5586 10.7546 20.5333 10.8799 20.4825 10.9814C20.4318 11.0829 20.3617 11.1784 20.2721 11.268L17.0045 14.5363ZM16.0735 9.16364C16.4256 9.16364 16.718 9.04424 16.9508 8.80545C17.1835 8.56667 17.2999 8.27714 17.2999 7.93686C17.2999 7.59062 17.1835 7.2996 16.9508 7.0638C16.718 6.82799 16.4256 6.71009 16.0735 6.71009C15.7213 6.71009 15.4289 6.82799 15.1961 7.0638C14.9633 7.2996 14.847 7.59062 14.847 7.93686C14.847 8.27714 14.9633 8.56667 15.1961 8.80545C15.4289 9.04424 15.7213 9.16364 16.0735 9.16364ZM19.2874 20.2583C19.4246 20.3956 19.5888 20.4643 19.7798 20.4643C19.9707 20.4643 20.1319 20.3956 20.2632 20.2583C20.3945 20.127 20.4617 19.9658 20.4646 19.7747C20.4676 19.5837 20.4005 19.4195 20.2632 19.2822L4.72165 3.73718C4.58437 3.59988 4.42024 3.53123 4.22926 3.53123C4.03827 3.53123 3.87414 3.59988 3.73687 3.73718C3.60557 3.86851 3.53992 4.03119 3.53992 4.22521C3.53992 4.41922 3.60557 4.58189 3.73687 4.71322L19.2874 20.2583Z" fill="black" fill-opacity="0.8"/>
</svg>
