<svg width="24" height="24" viewBox="0 0 24 24" fill="none" xmlns="http://www.w3.org/2000/svg">
<path d="M9.20293 6H4V18.4258C4 19.1871 4.24124 19.8064 4.72372 20.2838C5.20619 20.7613 5.83537 21 6.61124 21C7.37408 21 7.99674 20.7613 8.47922 20.2838C8.96169 19.8064 9.20293 19.1871 9.20293 18.4258V6ZM20 17.3903H14.8068V18.4258C14.8068 19.1871 15.0481 19.8064 15.5306 20.2838C16.013 20.7613 16.6389 21 17.4083 21C18.1776 21 18.8019 20.7613 19.2811 20.2838C19.7604 19.8064 20 19.1871 20 18.4258V17.3903Z" fill="#007AFF"/>
<path d="M2.82031 3.60381H10.3887C10.6165 3.60381 10.8119 3.52426 10.9746 3.36515C11.1374 3.20604 11.2188 3.01511 11.2188 2.79236C11.2188 2.57597 11.1374 2.38982 10.9746 2.23389C10.8119 2.07796 10.6165 2 10.3887 2H2.82031C2.57943 2 2.38249 2.07796 2.22949 2.23389C2.0765 2.38982 2 2.57597 2 2.79236C2 3.01511 2.0765 3.20604 2.22949 3.36515C2.38249 3.52426 2.57943 3.60381 2.82031 3.60381ZM6.61914 22C7.73242 22 8.6276 21.6691 9.30469 21.0072C9.98177 20.3452 10.3203 19.4701 10.3203 18.3818V2.80191H8.75781V18.3818C8.75781 19.0119 8.56087 19.5195 8.16699 19.9045C7.77311 20.2895 7.25716 20.482 6.61914 20.482C5.9681 20.482 5.44564 20.2895 5.05176 19.9045C4.65788 19.5195 4.46094 19.0119 4.46094 18.3818V2.80191H2.88867V18.3818C2.88867 19.4701 3.23047 20.3452 3.91406 21.0072C4.59765 21.6691 5.49935 22 6.61914 22ZM13.6113 3.60381H21.1797C21.401 3.60381 21.5931 3.52426 21.7559 3.36515C21.9186 3.20604 22 3.01511 22 2.79236C22 2.57597 21.9186 2.38982 21.7559 2.23389C21.5931 2.07796 21.401 2 21.1797 2H13.6113C13.3639 2 13.1637 2.07796 13.0107 2.23389C12.8577 2.38982 12.7812 2.57597 12.7812 2.79236C12.7812 3.01511 12.8577 3.20604 13.0107 3.36515C13.1637 3.52426 13.3639 3.60381 13.6113 3.60381ZM17.4004 22C18.5137 22 19.4105 21.6691 20.0908 21.0072C20.7711 20.3452 21.1113 19.4701 21.1113 18.3818V2.80191H19.5488V18.3818C19.5488 19.0119 19.3519 19.5195 18.958 19.9045C18.5641 20.2895 18.0449 20.482 17.4004 20.482C16.7559 20.482 16.235 20.2895 15.8379 19.9045C15.4408 19.5195 15.2422 19.0119 15.2422 18.3818V2.80191H13.6699V18.3818C13.6699 19.4701 14.0117 20.3452 14.6953 21.0072C15.3789 21.6691 16.2806 22 17.4004 22ZM14.832 9.22673H17.3809C17.5436 9.22673 17.6787 9.17263 17.7861 9.06443C17.8936 8.95624 17.9473 8.81941 17.9473 8.65393C17.9473 8.50755 17.8903 8.38027 17.7764 8.27208C17.6625 8.16388 17.5274 8.10978 17.3711 8.10978H14.832V9.22673ZM14.832 12.3198H17.3809C17.5436 12.3198 17.6787 12.2673 17.7861 12.1623C17.8936 12.0573 17.9473 11.922 17.9473 11.7566C17.9473 11.6102 17.8919 11.4813 17.7812 11.3699C17.6705 11.2585 17.5371 11.2029 17.3809 11.2029H14.832V12.3198ZM14.832 15.4225H17.3711C17.5404 15.4225 17.6787 15.3684 17.7861 15.2602C17.8936 15.1519 17.944 15.0183 17.9375 14.8592C17.9375 14.7128 17.8822 14.5839 17.7715 14.4726C17.6608 14.3612 17.5274 14.3055 17.3711 14.3055H14.832V15.4225Z" fill="#C7C7CC"/>
<path d="M4.46094 9.21297V8.09814H6.58008C6.73632 8.09814 6.87304 8.15214 6.99023 8.26013C7.10742 8.36812 7.16602 8.49516 7.16602 8.64126C7.16602 8.80642 7.11068 8.94299 7 9.05098C6.88932 9.15897 6.7526 9.21297 6.58984 9.21297H4.46094ZM4.46094 12.3001V11.1853H6.58984C6.74609 11.1853 6.88118 11.2409 6.99512 11.3521C7.10905 11.4632 7.16602 11.5919 7.16602 11.738C7.16602 11.9032 7.11068 12.0381 7 12.1429C6.88932 12.2477 6.7526 12.3001 6.58984 12.3001H4.46094ZM4.46094 15.3969V14.2821H6.58008C6.73632 14.2821 6.87141 14.3376 6.98535 14.4488C7.09928 14.56 7.15625 14.6886 7.15625 14.8347C7.16276 14.9935 7.1123 15.1269 7.00488 15.2349C6.89746 15.3429 6.75586 15.3969 6.58008 15.3969H4.46094Z" fill="white"/>
</svg>
