<svg width="24" height="24" viewBox="0 0 24 24" fill="none" xmlns="http://www.w3.org/2000/svg">
<path d="M0 16.2658C0 16.4814 0.0452892 16.6586 0.135868 16.7972C0.226446 16.9358 0.368783 17.0483 0.562879 17.1346C1.10635 17.3872 1.55115 17.6845 1.89729 18.0265C2.24343 18.3685 2.58148 18.8538 2.91144 19.4824C3.11848 19.8275 3.41933 20 3.81399 20H20.186C20.5807 20 20.8783 19.8275 21.0788 19.4824C21.4153 18.8538 21.7566 18.3685 22.1027 18.0265C22.4489 17.6845 22.8937 17.3872 23.4371 17.1346C23.6312 17.0483 23.7736 16.9358 23.8642 16.7972C23.9547 16.6586 24 16.4814 24 16.2658V7.7435C24 7.52783 23.9547 7.35066 23.8642 7.21201C23.7736 7.07337 23.6312 6.96091 23.4371 6.87464C22.8937 6.61583 22.4489 6.31542 22.1027 5.97342C21.7566 5.63143 21.4153 5.14924 21.0788 4.52686C20.8783 4.17562 20.5807 4 20.186 4H3.81399C3.41933 4 3.11848 4.17562 2.91144 4.52686C2.58148 5.14924 2.24343 5.63143 1.89729 5.97342C1.55115 6.31542 1.10635 6.61583 0.562879 6.87464C0.368783 6.96091 0.226446 7.07337 0.135868 7.21201C0.0452892 7.35066 0 7.52783 0 7.7435V16.2658ZM3.98867 16.2196V7.78972C3.98867 7.53707 4.06955 7.33372 4.23129 7.17967C4.39304 7.02561 4.60655 6.94858 4.87181 6.94858H19.1185C19.3838 6.94858 19.5973 7.02561 19.759 7.17967C19.9208 7.33372 20.0017 7.53707 20.0017 7.78972V16.2196C20.0017 16.4783 19.9208 16.6832 19.759 16.8342C19.5973 16.9852 19.3838 17.0606 19.1185 17.0606H4.87181C4.60655 17.0606 4.39304 16.9852 4.23129 16.8342C4.06955 16.6832 3.98867 16.4783 3.98867 16.2196ZM5.22119 9.94339H6.52163V8.10399H5.43469C5.29236 8.10399 5.22119 8.17485 5.22119 8.31658V9.94339ZM5.22119 12.9197H6.52163V11.0988H5.22119V12.9197ZM5.22119 15.6926C5.22119 15.8344 5.29236 15.9052 5.43469 15.9052H6.52163V14.0751H5.22119V15.6926ZM17.4784 9.94339H18.7788V8.31658C18.7788 8.17485 18.7076 8.10399 18.5653 8.10399H17.4784V9.94339ZM17.4784 12.9197H18.7788V11.0988H17.4784V12.9197ZM17.4784 15.9052H18.5653C18.7076 15.9052 18.7788 15.8344 18.7788 15.6926V14.0751H17.4784V15.9052ZM7.74444 15.9052H16.2555V8.10399H7.74444V15.9052Z" fill="black" fill-opacity="0.8"/>
</svg>
