<svg width="24" height="24" viewBox="0 0 24 24" fill="none" xmlns="http://www.w3.org/2000/svg">
<path d="M0 16.2658C0 16.4814 0.0452892 16.6586 0.135868 16.7972C0.226446 16.9358 0.368783 17.0483 0.562879 17.1346C1.10635 17.3872 1.55115 17.6845 1.89729 18.0265C2.24343 18.3685 2.58148 18.8538 2.91144 19.4824C3.11848 19.8275 3.41933 20 3.81399 20H20.186C20.5807 20 20.8783 19.8275 21.0788 19.4824C21.4153 18.8538 21.7566 18.3685 22.1027 18.0265C22.4489 17.6845 22.8937 17.3872 23.4371 17.1346C23.6312 17.0483 23.7736 16.9358 23.8642 16.7972C23.9547 16.6586 24 16.4814 24 16.2658V7.7435C24 7.52783 23.9547 7.35066 23.8642 7.21201C23.7736 7.07337 23.6312 6.96091 23.4371 6.87464C22.8937 6.61583 22.4489 6.31542 22.1027 5.97342C21.7566 5.63143 21.4153 5.14924 21.0788 4.52686C20.8783 4.17562 20.5807 4 20.186 4H3.81399C3.41933 4 3.11848 4.17562 2.91144 4.52686C2.58148 5.14924 2.24343 5.63143 1.89729 5.97342C1.55115 6.31542 1.10635 6.61583 0.562879 6.87464C0.368783 6.96091 0.226446 7.07337 0.135868 7.21201C0.0452892 7.35066 0 7.52783 0 7.7435V16.2658ZM1.56248 16.0532V7.9561C2.15124 7.72193 2.64618 7.4092 3.04731 7.01791C3.44845 6.62661 3.80105 6.1167 4.10513 5.48816H19.8948C20.1989 6.1167 20.5515 6.62661 20.9527 7.01791C21.3538 7.4092 21.8488 7.72193 22.4375 7.9561V16.0532C21.8488 16.2873 21.3538 16.6001 20.9527 16.9913C20.5515 17.3826 20.1989 17.8895 19.8948 18.5118H4.10513C3.80105 17.8895 3.44845 17.3826 3.04731 16.9913C2.64618 16.6001 2.15124 16.2873 1.56248 16.0532ZM4.23129 16.0901C4.23129 16.3366 4.31055 16.5338 4.46906 16.6816C4.62758 16.8296 4.833 16.9035 5.08532 16.9035H18.9049C19.1638 16.9035 19.3708 16.8296 19.526 16.6816C19.6813 16.5338 19.759 16.3366 19.759 16.0901V7.91912C19.759 7.6788 19.6813 7.48315 19.526 7.33218C19.3708 7.18121 19.1638 7.10572 18.9049 7.10572H5.08532C4.833 7.10572 4.62758 7.18121 4.46906 7.33218C4.31055 7.48315 4.23129 7.6788 4.23129 7.91912V16.0901ZM5.40557 15.5817V14.0104H6.68662V15.7851H5.62879C5.47998 15.7851 5.40557 15.7173 5.40557 15.5817ZM5.40557 12.892V11.1265H6.68662V12.892H5.40557ZM5.40557 10.0081V8.42749C5.40557 8.29193 5.47998 8.22415 5.62879 8.22415H6.68662V10.0081H5.40557ZM17.3134 10.0081V8.22415H18.3712C18.5135 8.22415 18.5847 8.29193 18.5847 8.42749V10.0081H17.3134ZM17.3134 12.892V11.1265H18.5847V12.892H17.3134ZM17.3134 15.7851V14.0104H18.5847V15.5817C18.5847 15.7173 18.5135 15.7851 18.3712 15.7851H17.3134ZM7.8609 15.7851V8.22415H16.1391V15.7851H7.8609Z" fill="black" fill-opacity="0.8"/>
</svg>
