<svg width="24" height="24" viewBox="0 0 24 24" fill="none" xmlns="http://www.w3.org/2000/svg">
<path d="M7.58131 22H16.4187C16.8462 22 17.2101 21.9107 17.5106 21.732C17.8111 21.5534 18.0202 21.3067 18.1379 20.9918L18.1472 20.8193L15.5359 18.267L15.5173 18.8665C15.5173 19.03 15.4631 19.1601 15.3547 19.2571C15.2463 19.3539 15.1084 19.4023 14.9411 19.4023C14.7615 19.4023 14.619 19.3524 14.5137 19.2525C14.4084 19.1526 14.3588 19.024 14.365 18.8665L14.4115 17.168L12.5994 15.3969V18.8665C12.5994 19.024 12.5436 19.1526 12.4321 19.2525C12.3206 19.3524 12.175 19.4023 11.9954 19.4023C11.8219 19.4023 11.6794 19.3524 11.5679 19.2525C11.4564 19.1526 11.4006 19.024 11.4006 18.8665V14.2343L9.44915 12.3179L9.63501 18.8665C9.6412 19.024 9.59009 19.1526 9.48167 19.2525C9.37326 19.3524 9.23232 19.4023 9.05886 19.4023C8.8854 19.4023 8.746 19.3539 8.64068 19.2571C8.53537 19.1601 8.47961 19.03 8.47341 18.8665L8.25968 11.1553L5.14662 8.1308L5.69489 20.247C5.71967 20.8101 5.89623 21.2431 6.22457 21.5459C6.55292 21.8486 7.00516 22 7.58131 22ZM18.5003 16.1053L18.9092 6.97729H20.3031C20.4951 6.97729 20.6593 6.90917 20.7956 6.77294C20.9319 6.6367 21 6.47472 21 6.28702C21 6.09931 20.9319 5.93885 20.7956 5.80564C20.6593 5.67242 20.4951 5.60581 20.3031 5.60581H16.1585V4.24342C16.1585 3.55919 15.9386 3.01423 15.4988 2.60854C15.0589 2.20285 14.4672 2 13.7238 2H10.2483C9.51111 2 8.92257 2.20285 8.48271 2.60854C8.04285 3.01423 7.82293 3.55919 7.82293 4.24342V5.36967H7.50697L11.4471 9.22071V8.76658C11.5338 8.54859 11.7166 8.4396 11.9954 8.4396C12.175 8.4396 12.3206 8.48956 12.4321 8.58947C12.5436 8.68937 12.5994 8.81804 12.5994 8.97548V10.347L14.5509 12.2543L14.6438 8.97548C14.65 8.81199 14.7057 8.68181 14.811 8.58493C14.9164 8.48804 15.0527 8.4396 15.2199 8.4396C15.3996 8.4396 15.5421 8.48956 15.6474 8.58947C15.7527 8.68937 15.8023 8.81804 15.7961 8.97548L15.6753 13.3624L18.5003 16.1053ZM9.5142 5.60581V4.33425C9.5142 4.10415 9.59164 3.91644 9.74652 3.77112C9.9014 3.6258 10.1058 3.55313 10.3598 3.55313H13.6216C13.8756 3.55313 14.0816 3.6258 14.2395 3.77112C14.3975 3.91644 14.4765 4.10415 14.4765 4.33425V5.60581H9.5142ZM19.7734 20.8374C19.9097 20.9707 20.0785 21.0373 20.2798 21.0373C20.4812 21.0373 20.65 20.9707 20.7863 20.8374C20.9225 20.6982 20.9907 20.5316 20.9907 20.3379C20.9907 20.1441 20.9225 19.9806 20.7863 19.8475L4.22664 3.65304C4.08415 3.51983 3.91378 3.45171 3.71554 3.44869C3.5173 3.44565 3.34693 3.51377 3.20444 3.65304C3.06815 3.78626 3 3.95126 3 4.14805C3 4.34484 3.06815 4.50984 3.20444 4.64306L19.7734 20.8374Z" fill="#FF3B30"/>
</svg>
