<svg width="24" height="24" viewBox="0 0 24 24" fill="none" xmlns="http://www.w3.org/2000/svg">
<path fill-rule="evenodd" clip-rule="evenodd" d="M7.87192 20.6439C7.60539 20.6439 7.38225 20.5571 7.20249 20.3835C7.02274 20.2099 6.92666 19.9913 6.91427 19.7279L6.26343 6.82264H17.6995L17.0858 19.7279C17.0734 19.9973 16.9773 20.2174 16.7976 20.388C16.6178 20.5586 16.3916 20.6439 16.1188 20.6439H7.87192ZM9.66634 18.9601C9.56097 19.0589 9.42151 19.1082 9.24795 19.1082C9.07439 19.1082 8.93493 19.0604 8.82956 18.9646C8.72419 18.8688 8.6684 18.74 8.66221 18.5784L8.38328 8.97801C8.37708 8.82234 8.42822 8.69512 8.53669 8.59633C8.64516 8.49755 8.78617 8.44815 8.95973 8.44815C9.12709 8.44815 9.265 8.49605 9.37347 8.59184C9.48194 8.68764 9.53617 8.81337 9.53617 8.96903L9.8244 18.5784C9.8244 18.734 9.77171 18.8613 9.66634 18.9601ZM12.437 18.9601C12.3254 19.0589 12.1798 19.1082 12 19.1082C11.8265 19.1082 11.6839 19.0589 11.5723 18.9601C11.4608 18.8613 11.405 18.734 11.405 18.5784V8.97801C11.405 8.82234 11.4608 8.69512 11.5723 8.59633C11.6839 8.49755 11.8265 8.44815 12 8.44815C12.1798 8.44815 12.3254 8.49755 12.437 8.59633C12.5486 8.69512 12.6044 8.82234 12.6044 8.97801V18.5784C12.6044 18.734 12.5486 18.8613 12.437 18.9601ZM15.1705 18.9646C15.0651 19.0604 14.9288 19.1082 14.7614 19.1082C14.5816 19.1082 14.4391 19.0589 14.3337 18.9601C14.2283 18.8613 14.1787 18.734 14.1849 18.5784L14.4639 8.97801C14.4701 8.81636 14.5259 8.68764 14.6312 8.59184C14.7366 8.49605 14.873 8.44815 15.0403 8.44815C15.2201 8.44815 15.3626 8.49755 15.468 8.59633C15.5734 8.69512 15.623 8.82234 15.6168 8.97801L15.3379 18.5784C15.3316 18.74 15.2758 18.8688 15.1705 18.9646Z" fill="#FF3B30"/>
<path fill-rule="evenodd" clip-rule="evenodd" d="M16.2676 22H7.74175C7.07232 22 6.53152 21.8099 6.11933 21.4297C5.70713 21.0496 5.48554 20.5362 5.45455 19.8896L4.81302 6.82264H3.69732C3.51136 6.82264 3.34866 6.75528 3.2092 6.62057C3.06973 6.48587 3 6.32571 3 6.1401C3 5.96049 3.06973 5.80333 3.2092 5.66862C3.34866 5.53391 3.51136 5.46655 3.69732 5.46655H7.91841V4.0925C7.91841 3.44589 8.1245 2.93549 8.53669 2.56129C8.94888 2.1871 9.51138 2 10.2242 2H13.7572C14.4701 2 15.0326 2.1871 15.4448 2.56129C15.857 2.93549 16.063 3.44589 16.063 4.0925V5.46655H20.312C20.498 5.46655 20.6592 5.53241 20.7955 5.66413C20.9318 5.79585 21 5.95451 21 6.1401C21 6.32571 20.9334 6.48587 20.8002 6.62057C20.6669 6.75528 20.5042 6.82264 20.312 6.82264H19.1963L18.5548 19.8806C18.5238 20.5272 18.3007 21.0421 17.8854 21.4252C17.4701 21.8084 16.9308 22 16.2676 22ZM14.5848 5.46655H9.39671V4.18232C9.39671 3.93085 9.48194 3.72729 9.65239 3.57162C9.82285 3.41596 10.0475 3.33813 10.3265 3.33813H13.655C13.9339 3.33813 14.1586 3.41596 14.329 3.57162C14.4995 3.72729 14.5848 3.93085 14.5848 4.18232V5.46655ZM7.20249 20.3835C7.38225 20.5571 7.60539 20.6439 7.87192 20.6439H16.1188C16.3916 20.6439 16.6178 20.5586 16.7976 20.388C16.9773 20.2174 17.0734 19.9973 17.0858 19.7279L17.6995 6.82264H6.26343L6.91427 19.7279C6.92666 19.9913 7.02274 20.2099 7.20249 20.3835Z" fill="#FF3B30"/>
</svg>
