<svg width="24" height="24" viewBox="0 0 24 24" fill="none" xmlns="http://www.w3.org/2000/svg">
<path d="M7.74175 22H16.2676C16.7635 22 17.185 21.8923 17.5321 21.6768C17.8792 21.4612 18.1395 21.1678 18.3131 20.7967L18.3224 20.626L17.1044 19.4495L17.0951 19.719C17.0889 19.9824 16.9943 20.2024 16.8115 20.3791C16.6287 20.5556 16.3978 20.6439 16.1188 20.6439H7.87192C7.61158 20.6439 7.38999 20.5571 7.20714 20.3835C7.02429 20.2099 6.92666 19.9913 6.91427 19.7279L6.37501 9.08578L4.85021 7.62192L5.45455 19.8896C5.48554 20.5362 5.70713 21.0496 6.11933 21.4297C6.53152 21.8099 7.07232 22 7.74175 22ZM9.24795 19.1082C9.42151 19.1082 9.56252 19.0589 9.67099 18.9601C9.77946 18.8613 9.83059 18.734 9.8244 18.5784L9.63845 12.247L8.44837 11.0975L8.66221 18.5784C8.6684 18.74 8.72419 18.8688 8.82956 18.9646C8.93493 19.0604 9.07439 19.1082 9.24795 19.1082ZM12 19.1082C12.1798 19.1082 12.3254 19.0589 12.437 18.9601C12.5486 18.8613 12.6044 18.734 12.6044 18.5784V15.1118L11.405 13.9623V18.5784C11.405 18.74 11.4608 18.8688 11.5723 18.9646C11.6839 19.0604 11.8265 19.1082 12 19.1082ZM14.7614 19.1082C15.1395 19.1082 15.3316 18.9316 15.3379 18.5784L15.3658 17.7791L14.2407 16.6925L14.1849 18.5784C14.1787 18.734 14.2283 18.8613 14.3337 18.9601C14.4391 19.0589 14.5816 19.1082 14.7614 19.1082ZM18.7501 16.0458L19.1963 6.82264H20.312C20.5042 6.82264 20.6669 6.75528 20.8002 6.62057C20.9334 6.48587 21 6.32571 21 6.1401C21 5.96049 20.9334 5.80333 20.8002 5.66862C20.6669 5.53391 20.5042 5.46655 20.312 5.46655H16.063V4.11945C16.063 3.47284 15.8538 2.95794 15.4354 2.57477C15.017 2.19159 14.4483 2 13.7293 2H10.2521C9.53927 2 8.97367 2.19159 8.55528 2.57477C8.13689 2.95794 7.9277 3.47284 7.9277 4.11945V5.27796H7.60228L9.19217 6.82264H17.7087L17.3275 14.6808L18.7501 16.0458ZM9.4153 5.46655V4.20925C9.4153 3.95181 9.50363 3.74226 9.68028 3.58061C9.85694 3.41895 10.0847 3.33813 10.3637 3.33813H13.6271C13.9122 3.33813 14.1431 3.41895 14.3197 3.58061C14.4964 3.74226 14.5848 3.95181 14.5848 4.20925V5.46655H9.4153ZM12.6044 10.1096V8.97801C12.6044 8.82234 12.5486 8.69512 12.437 8.59633C12.3254 8.49754 12.1798 8.44815 12 8.44815C11.8079 8.44815 11.656 8.51102 11.5444 8.63675V9.08578L12.6044 10.1096ZM15.5052 12.9205L15.626 8.97801C15.626 8.82234 15.5734 8.69512 15.468 8.59633C15.3626 8.49754 15.2201 8.44815 15.0403 8.44815C14.873 8.44815 14.7366 8.49605 14.6312 8.59184C14.5259 8.68764 14.4701 8.81636 14.4639 8.97801L14.3802 11.8249L15.5052 12.9205ZM19.7821 20.5272C19.9185 20.6589 20.0873 20.7248 20.2888 20.7248C20.4903 20.7248 20.6592 20.6589 20.7955 20.5272C20.9318 20.3895 21 20.2249 21 20.0333C21 19.8417 20.9318 19.68 20.7955 19.5483L4.22727 3.5357C4.08471 3.40399 3.91426 3.33663 3.71591 3.33364C3.51756 3.33064 3.34711 3.398 3.20455 3.5357C3.06818 3.66742 3 3.83057 3 4.02515C3 4.21973 3.06818 4.38288 3.20455 4.5146L19.7821 20.5272Z" fill="#FF3B30"/>
</svg>
