<svg width="24" height="24" viewBox="0 0 24 24" fill="none" xmlns="http://www.w3.org/2000/svg">
<path d="M3.19594 15.5137H20.8041C21.8762 15.5137 22.6769 15.2715 23.2061 14.787C23.7354 14.3026 24 13.6015 24 12.6836V7.40591C24 7.11271 23.9882 6.85137 23.9645 6.62191C23.9407 6.39244 23.8881 6.18369 23.8067 5.99566C23.7252 5.80762 23.5963 5.63711 23.4199 5.48414L19.8169 2.28118C19.4504 1.95611 19.1026 1.70114 18.7736 1.5163C18.4445 1.33145 18.0934 1.19919 17.7202 1.11951C17.3469 1.03984 16.9093 1 16.4072 1H7.59289C7.09077 1 6.6548 1.03984 6.285 1.11951C5.91519 1.19919 5.56574 1.33145 5.23665 1.5163C4.90756 1.70114 4.55981 1.95611 4.19339 2.28118L0.580154 5.48414C0.403733 5.63711 0.274809 5.80762 0.193385 5.99566C0.11196 6.18369 0.0593725 6.39244 0.0356235 6.62191C0.0118745 6.85137 0 7.11271 0 7.40591V12.6836C0 13.6079 0.266328 14.3106 0.798984 14.7918C1.33164 15.2731 2.13062 15.5137 3.19594 15.5137ZM12.0001 9.8153C11.5183 9.8153 11.1009 9.70216 10.7481 9.47589C10.3953 9.24961 10.1222 8.96277 9.92878 8.61539C9.73539 8.268 9.6387 7.90946 9.6387 7.53977V7.50152C9.6387 7.30393 9.57424 7.12545 9.44531 6.9661C9.31639 6.80675 9.11961 6.72708 8.85497 6.72708H2.39186C2.10009 6.72708 1.91858 6.66812 1.84733 6.5502C1.77608 6.43228 1.85581 6.27133 2.08651 6.06736L5.4453 3.09387C5.75743 2.81979 6.04751 2.62538 6.31553 2.51065C6.58356 2.39592 6.95845 2.33855 7.44022 2.33855H16.5599C17.0484 2.33855 17.425 2.39592 17.6896 2.51065C17.9542 2.62538 18.2426 2.81979 18.5547 3.09387L21.9135 6.06736C22.1578 6.28408 22.2409 6.44821 22.1628 6.55976C22.0848 6.6713 21.9033 6.72708 21.6184 6.72708H15.145C14.8804 6.72708 14.6854 6.80675 14.5598 6.9661C14.4343 7.12545 14.3716 7.30393 14.3716 7.50152V7.53977C14.3716 7.90946 14.2732 8.268 14.0764 8.61539C13.8796 8.96277 13.6048 9.24961 13.2519 9.47589C12.8991 9.70216 12.4818 9.8153 12.0001 9.8153ZM3.21629 14.1082C2.70739 14.1082 2.31723 13.9807 2.0458 13.7257C1.77439 13.4708 1.63868 13.0947 1.63868 12.5976V8.13256H8.09162C8.17304 8.72534 8.39357 9.25598 8.7532 9.72447C9.11283 10.193 9.57254 10.5626 10.1323 10.8335C10.6921 11.1044 11.3147 11.2399 12.0001 11.2399C12.6922 11.2399 13.3181 11.1044 13.8779 10.8335C14.4377 10.5626 14.8957 10.193 15.2519 9.72447C15.6082 9.25598 15.827 8.72534 15.9085 8.13256H22.3614V12.5976C22.3614 13.0947 22.224 13.4708 21.9492 13.7257C21.6744 13.9807 21.2859 14.1082 20.7837 14.1082H3.21629ZM3.19594 23H20.8041C21.8694 23 22.6684 22.7514 23.201 22.2543C23.7337 21.7571 24 21.0177 24 20.0361V15.1695C24 14.991 23.961 14.8205 23.883 14.658C23.8049 14.4955 23.6913 14.3632 23.542 14.2612C23.3927 14.1592 23.2163 14.1082 23.0128 14.1082H15.145C14.8804 14.1082 14.6854 14.1879 14.5598 14.3472C14.4343 14.5066 14.3716 14.6851 14.3716 14.8827V14.921C14.3716 15.2906 14.2732 15.6492 14.0764 15.9965C13.8796 16.3439 13.6048 16.6307 13.2519 16.857C12.8991 17.0833 12.4818 17.1965 12.0001 17.1965C11.5183 17.1965 11.1009 17.0833 10.7481 16.857C10.3953 16.6307 10.1222 16.3439 9.92878 15.9965C9.73539 15.6492 9.6387 15.2906 9.6387 14.921V14.8827C9.6387 14.6851 9.57424 14.5066 9.44531 14.3472C9.31639 14.1879 9.11961 14.1082 8.85497 14.1082H0.98728C0.783717 14.1082 0.608992 14.1592 0.463105 14.2612C0.317219 14.3632 0.203563 14.4955 0.122138 14.658C0.0407127 14.8205 0 14.991 0 15.1695V20.0361C0 21.024 0.266328 21.765 0.798984 22.2591C1.33164 22.753 2.13062 23 3.19594 23ZM3.21629 21.4606C2.70739 21.4606 2.31723 21.3332 2.0458 21.0782C1.77439 20.8233 1.63868 20.4472 1.63868 19.9501V15.5137H8.09162C8.17304 16.1065 8.39357 16.6371 8.7532 17.1056C9.11283 17.5741 9.57254 17.9438 10.1323 18.2147C10.6921 18.4856 11.3147 18.621 12.0001 18.621C12.6922 18.621 13.3181 18.4856 13.8779 18.2147C14.4377 17.9438 14.8957 17.5741 15.2519 17.1056C15.6082 16.6371 15.827 16.1065 15.9085 15.5137H22.3614V19.9501C22.3614 20.4472 22.224 20.8233 21.9492 21.0782C21.6744 21.3332 21.2859 21.4606 20.7837 21.4606H3.21629Z" fill="black" fill-opacity="0.8"/>
</svg>
