<svg width="24" height="24" viewBox="0 0 24 24" fill="none" xmlns="http://www.w3.org/2000/svg">
<path d="M3.19594 23H20.8041C21.8762 23 22.6769 22.7414 23.2061 22.2241C23.7354 21.707 24 20.9379 24 19.9168V14.0289C24 13.578 23.961 13.2183 23.883 12.9498C23.8049 12.6813 23.6506 12.4111 23.4199 12.1392L19.9085 7.88245C19.5081 7.40505 19.14 6.99728 18.8041 6.65912C18.4682 6.32096 18.0967 6.06238 17.6896 5.88335C17.2825 5.70433 16.7803 5.61482 16.1832 5.61482H14.6871V7.01717H16.2952C16.6684 7.01717 17.0348 7.14978 17.3945 7.415C17.7541 7.68022 18.0594 7.96533 18.3105 8.27033L21.9237 12.7161C22.1273 12.9747 22.1985 13.157 22.1374 13.2631C22.0763 13.3692 21.9067 13.4223 21.6286 13.4223H15.145C14.8804 13.4223 14.6854 13.5051 14.5598 13.6709C14.4343 13.8366 14.3716 14.0223 14.3716 14.2278V14.2676C14.3716 14.6522 14.2732 15.0252 14.0764 15.3865C13.8796 15.7479 13.6048 16.0462 13.2519 16.2816C12.8991 16.517 12.4818 16.6347 12.0001 16.6347C11.5183 16.6347 11.1009 16.517 10.7481 16.2816C10.3953 16.0462 10.1222 15.7479 9.92877 15.3865C9.73539 15.0252 9.6387 14.6522 9.6387 14.2676V14.2278C9.6387 14.0223 9.57423 13.8366 9.44531 13.6709C9.31639 13.5051 9.11961 13.4223 8.85497 13.4223H2.39186C2.10009 13.4223 1.92706 13.3642 1.87278 13.2482C1.8185 13.1322 1.88974 12.9548 2.08651 12.7161L5.68957 8.27033C5.94064 7.96533 6.24768 7.68022 6.6107 7.415C6.97372 7.14978 7.33843 7.01717 7.70485 7.01717H9.32317V5.61482H7.82699C7.22308 5.61482 6.71926 5.70433 6.31553 5.88335C5.9118 6.06238 5.5403 6.32096 5.20102 6.65912C4.86175 6.99728 4.49534 7.40505 4.10179 7.88245L0.580154 12.1392C0.356235 12.4111 0.203563 12.6813 0.122138 12.9498C0.0407127 13.2183 0 13.578 0 14.0289V19.9168C0 20.9445 0.266328 21.7153 0.798984 22.2291C1.33164 22.743 2.13062 23 3.19594 23ZM3.21629 21.3987C2.70739 21.3987 2.31723 21.2661 2.0458 21.0009C1.77439 20.7356 1.63868 20.3444 1.63868 19.8272V14.8842H8.09162C8.17304 15.5009 8.39357 16.0529 8.7532 16.5402C9.11283 17.0276 9.57254 17.4121 10.1323 17.6939C10.6921 17.9757 11.3147 18.1166 12.0001 18.1166C12.6922 18.1166 13.3181 17.9757 13.8779 17.6939C14.4377 17.4121 14.8957 17.0276 15.2519 16.5402C15.6082 16.0529 15.827 15.5009 15.9085 14.8842H22.3614V19.8272C22.3614 20.3444 22.224 20.7356 21.9492 21.0009C21.6744 21.2661 21.2859 21.3987 20.7837 21.3987H3.21629ZM12.0001 13.3029C12.1018 13.3029 12.2002 13.2847 12.2952 13.2482C12.3902 13.2117 12.4886 13.1438 12.5904 13.0443L16.0306 9.80198C16.1867 9.64284 16.2647 9.46713 16.2647 9.27485C16.2647 9.06931 16.1951 8.90189 16.056 8.77259C15.9169 8.6433 15.7422 8.57865 15.5318 8.57865C15.3011 8.57865 15.1145 8.65822 14.972 8.81735L13.4351 10.4186L12.7431 11.1248L12.8143 9.63289V1.76582C12.8143 1.56028 12.7328 1.38125 12.5699 1.22875C12.4072 1.07625 12.2172 1 12.0001 1C11.7829 1 11.5946 1.07625 11.4352 1.22875C11.2757 1.38125 11.196 1.56028 11.196 1.76582V9.63289L11.257 11.1248L10.5649 10.4186L9.02801 8.81735C8.88551 8.65822 8.69552 8.57865 8.45803 8.57865C8.24768 8.57865 8.07466 8.6433 7.93895 8.77259C7.80324 8.90189 7.73539 9.06931 7.73539 9.27485C7.73539 9.46713 7.81342 9.64284 7.96948 9.80198L11.4097 13.0443C11.5115 13.1438 11.6099 13.2117 11.7049 13.2482C11.7999 13.2847 11.8983 13.3029 12.0001 13.3029Z" fill="black" fill-opacity="0.8"/>
<path d="M3.21629 21.3987C2.70739 21.3987 2.31723 21.2661 2.0458 21.0009C1.77439 20.7356 1.63868 20.3444 1.63868 19.8272V14.8842H8.09162C8.17304 15.5009 8.39357 16.0529 8.7532 16.5402C9.11283 17.0276 9.57254 17.4121 10.1323 17.6939C10.6921 17.9757 11.3147 18.1166 12.0001 18.1166C12.6922 18.1166 13.3181 17.9757 13.8779 17.6939C14.4377 17.4121 14.8957 17.0276 15.2519 16.5402C15.6082 16.0529 15.827 15.5009 15.9085 14.8842H22.3614V19.8272C22.3614 20.3444 22.224 20.7356 21.9492 21.0009C21.6744 21.2661 21.2859 21.3987 20.7837 21.3987H3.21629Z" fill="black" fill-opacity="0.8"/>
</svg>
