<svg width="24" height="24" viewBox="0 0 24 24" fill="none" xmlns="http://www.w3.org/2000/svg">
<path d="M3.19594 23H20.8041C21.8762 23 22.6769 22.7532 23.2061 22.2597C23.7354 21.7662 24 21.0322 24 20.0578V14.4392C24 14.0089 23.961 13.6657 23.883 13.4095C23.8049 13.1531 23.6506 12.8953 23.4199 12.6359L20.2137 8.93443C19.8948 8.5801 19.6149 8.28747 19.3741 8.05652C19.1332 7.82557 18.8923 7.64525 18.6514 7.51553C18.4105 7.38583 18.1357 7.29566 17.827 7.24504C17.5183 7.19443 17.1366 7.16912 16.682 7.16912H14.6871V8.50734H16.8041C17.1773 8.50734 17.4962 8.55638 17.7608 8.65445C18.0255 8.75252 18.3071 8.9724 18.6057 9.31407L21.9238 13.1864C22.1341 13.4331 22.207 13.6071 22.1425 13.7084C22.078 13.8096 21.9067 13.8602 21.6286 13.8602H15.145C14.8804 13.8602 14.6854 13.9393 14.5598 14.0975C14.4343 14.2557 14.3716 14.4328 14.3716 14.629V14.667C14.3716 15.0339 14.2732 15.3898 14.0764 15.7347C13.8796 16.0796 13.6048 16.3643 13.2519 16.5888C12.8991 16.8135 12.4818 16.9258 12.0001 16.9258C11.5183 16.9258 11.1009 16.8135 10.7481 16.5888C10.3953 16.3643 10.1222 16.0796 9.92878 15.7347C9.73539 15.3898 9.6387 15.0339 9.6387 14.667V14.629C9.6387 14.4328 9.57424 14.2557 9.44531 14.0975C9.31639 13.9393 9.11961 13.8602 8.85497 13.8602H2.39186C2.10009 13.8602 1.92706 13.8048 1.87278 13.6941C1.8185 13.5834 1.88974 13.4142 2.08651 13.1864L5.37406 9.34254C5.6794 8.99454 5.96778 8.76834 6.2392 8.66394C6.51061 8.55954 6.82953 8.50734 7.19595 8.50734H9.32317V7.16912H7.31808C6.86346 7.16912 6.48178 7.19443 6.17304 7.24504C5.86431 7.29566 5.5895 7.38583 5.34862 7.51553C5.10773 7.64525 4.86515 7.82716 4.62087 8.06126C4.3766 8.29537 4.095 8.59592 3.77609 8.96291L0.580154 12.6359C0.356235 12.889 0.203563 13.1453 0.122138 13.4047C0.0407127 13.6641 0 14.0089 0 14.4392V20.0578C0 21.0385 0.266328 21.7741 0.798984 22.2645C1.33164 22.7548 2.13062 23 3.19594 23ZM3.21629 21.472C2.70739 21.472 2.31723 21.3454 2.0458 21.0923C1.77439 20.8392 1.63868 20.4659 1.63868 19.9724V15.2554H8.09162C8.17304 15.8439 8.39357 16.3706 8.7532 16.8356C9.11283 17.3007 9.57254 17.6677 10.1323 17.9366C10.6921 18.2055 11.3147 18.34 12.0001 18.34C12.6922 18.34 13.3181 18.2055 13.8779 17.9366C14.4377 17.6677 14.8957 17.3007 15.2519 16.8356C15.6082 16.3706 15.827 15.8439 15.9085 15.2554H22.3614V19.9724C22.3614 20.4659 22.224 20.8392 21.9492 21.0923C21.6744 21.3454 21.2859 21.472 20.7837 21.472H3.21629ZM12.0001 14.9896C12.2172 14.9896 12.4072 14.9169 12.57 14.7713C12.7328 14.6258 12.8143 14.4518 12.8143 14.2494V4.50216L12.7431 3.08801L13.4351 3.75237L14.972 5.28991C15.1145 5.44176 15.3011 5.51769 15.5318 5.51769C15.7422 5.51769 15.9169 5.45442 16.056 5.32787C16.1951 5.20132 16.2647 5.04314 16.2647 4.85332C16.2647 4.66983 16.1867 4.50216 16.0306 4.35031L12.5904 1.25626C12.4886 1.16135 12.3902 1.09491 12.2952 1.05695C12.2002 1.01898 12.1018 1 12.0001 1C11.8983 1 11.7999 1.01898 11.7049 1.05695C11.6099 1.09491 11.5115 1.16135 11.4097 1.25626L7.96948 4.35031C7.81342 4.50216 7.73539 4.66983 7.73539 4.85332C7.73539 5.04314 7.80324 5.20132 7.93895 5.32787C8.07466 5.45442 8.24768 5.51769 8.45803 5.51769C8.69552 5.51769 8.88551 5.44176 9.02801 5.28991L10.5649 3.75237L11.257 3.07852L11.196 4.50216V14.2494C11.196 14.4518 11.2757 14.6258 11.4352 14.7713C11.5946 14.9169 11.7829 14.9896 12.0001 14.9896Z" fill="black" fill-opacity="0.8"/>
</svg>
