<svg width="24" height="24" viewBox="0 0 24 24" fill="none" xmlns="http://www.w3.org/2000/svg">
<path d="M3.19594 14.1082H20.8041C21.8762 14.1082 22.6769 13.8692 23.2061 13.3911C23.7354 12.913 24 12.2087 24 11.2781V7.40591C24 7.11271 23.9882 6.85137 23.9645 6.62191C23.9407 6.39244 23.8881 6.18369 23.8067 5.99566C23.7252 5.80762 23.5963 5.63711 23.4199 5.48414L19.8169 2.28118C19.4504 1.95611 19.1026 1.70114 18.7736 1.5163C18.4445 1.33145 18.0934 1.19919 17.7202 1.11951C17.3469 1.03984 16.9093 1 16.4072 1H7.59289C7.09077 1 6.6548 1.03984 6.285 1.11951C5.91519 1.19919 5.56574 1.33145 5.23665 1.5163C4.90756 1.70114 4.55981 1.95611 4.19339 2.28118L0.580154 5.48414C0.403733 5.63711 0.274809 5.80762 0.193385 5.99566C0.11196 6.18369 0.0593725 6.39244 0.0356235 6.62191C0.0118745 6.85137 0 7.11271 0 7.40591V11.2781C0 12.2024 0.266328 12.9052 0.798984 13.3864C1.33164 13.8676 2.13062 14.1082 3.19594 14.1082ZM12.0001 9.8153C11.5183 9.8153 11.1009 9.70216 10.7481 9.47589C10.3953 9.24961 10.1222 8.96277 9.92878 8.61539C9.73539 8.268 9.6387 7.90946 9.6387 7.53977V7.50152C9.6387 7.30393 9.57424 7.12545 9.44531 6.9661C9.31639 6.80675 9.11961 6.72708 8.85497 6.72708H2.39186C2.10009 6.72708 1.91858 6.66812 1.84733 6.5502C1.77608 6.43228 1.85581 6.27133 2.08651 6.06736L5.4453 3.09387C5.75743 2.81979 6.04751 2.62538 6.31553 2.51065C6.58356 2.39592 6.95845 2.33855 7.44022 2.33855H16.5599C17.0484 2.33855 17.425 2.39592 17.6896 2.51065C17.9542 2.62538 18.2426 2.81979 18.5547 3.09387L21.9135 6.06736C22.1578 6.28408 22.2409 6.44821 22.1628 6.55976C22.0848 6.6713 21.9033 6.72708 21.6184 6.72708H15.145C14.8804 6.72708 14.6854 6.80675 14.5598 6.9661C14.4343 7.12545 14.3716 7.30393 14.3716 7.50152V7.53977C14.3716 7.90946 14.2732 8.268 14.0764 8.61539C13.8796 8.96277 13.6048 9.24961 13.2519 9.47589C12.8991 9.70216 12.4818 9.8153 12.0001 9.8153ZM3.19594 23H20.8041C21.8694 23 22.6684 22.7514 23.201 22.2543C23.7337 21.7571 24 21.0177 24 20.0361V16.5176C24 16.2435 23.9118 15.9981 23.7354 15.7814C23.559 15.5647 23.3181 15.4563 23.0128 15.4563H15.145C14.8804 15.4563 14.6854 15.5344 14.5598 15.6906C14.4343 15.8467 14.3716 16.0236 14.3716 16.2212V16.2594C14.3716 16.6291 14.2732 16.9893 14.0764 17.3399C13.8796 17.6905 13.6048 17.9789 13.2519 18.2051C12.8991 18.4314 12.4818 18.5445 12.0001 18.5445C11.5183 18.5445 11.1009 18.4314 10.7481 18.2051C10.3953 17.9789 10.1222 17.6905 9.92878 17.3399C9.73539 16.9893 9.6387 16.6291 9.6387 16.2594V16.2212C9.6387 16.0236 9.57424 15.8467 9.44531 15.6906C9.31639 15.5344 9.11961 15.4563 8.85497 15.4563H0.98728C0.681935 15.4563 0.441052 15.5647 0.264631 15.7814C0.0882104 15.9981 0 16.2435 0 16.5176V20.0361C0 21.024 0.266328 21.765 0.798984 22.2591C1.33164 22.753 2.13062 23 3.19594 23Z" fill="black" fill-opacity="0.8"/>
</svg>
