<svg width="24" height="24" viewBox="0 0 24 24" fill="none" xmlns="http://www.w3.org/2000/svg">
<path d="M3.19594 21H20.8041C21.8762 21 22.6769 20.7276 23.2061 20.1827C23.7354 19.6379 24 18.8207 24 17.7311V11.4886C24 11.1722 23.983 10.8998 23.9491 10.6713C23.9152 10.4429 23.8559 10.2355 23.771 10.0492C23.6862 9.8629 23.5691 9.67485 23.4199 9.48504L19.9085 4.98242C19.5081 4.47627 19.1569 4.07908 18.855 3.79086C18.553 3.50263 18.2154 3.29877 17.8422 3.17926C17.469 3.05975 16.9805 3 16.3766 3H7.62342C7.01952 3 6.53267 3.05975 6.16287 3.17926C5.79306 3.29877 5.45548 3.50263 5.15014 3.79086C4.84479 4.07908 4.49534 4.47627 4.10179 4.98242L0.580154 9.48504C0.430875 9.67485 0.313826 9.8629 0.229009 10.0492C0.14419 10.2355 0.0848178 10.4429 0.0508907 10.6713C0.0169636 10.8998 0 11.1722 0 11.4886V17.7311C0 18.8207 0.266328 19.6379 0.798984 20.1827C1.33164 20.7276 2.13062 21 3.19594 21ZM3.21629 19.3023C2.70739 19.3023 2.31723 19.1634 2.0458 18.8857C1.77439 18.608 1.63868 18.195 1.63868 17.6467V12.3954H8.09162C8.17304 13.0562 8.39357 13.6449 8.7532 14.1616C9.11283 14.6783 9.57254 15.0843 10.1323 15.3796C10.6921 15.6748 11.3147 15.8224 12.0001 15.8224C12.6922 15.8224 13.3181 15.6731 13.8779 15.3743C14.4377 15.0756 14.8957 14.6678 15.2519 14.1511C15.6082 13.6344 15.827 13.0492 15.9085 12.3954H22.3614V17.6467C22.3614 18.195 22.224 18.608 21.9492 18.8857C21.6744 19.1634 21.2859 19.3023 20.7837 19.3023H3.21629ZM12.0001 14.2618C11.5183 14.2618 11.1009 14.137 10.7481 13.8874C10.3953 13.6379 10.1222 13.3198 9.92877 12.9332C9.73539 12.5465 9.6387 12.1494 9.6387 11.7416V11.71C9.6387 11.4921 9.57423 11.2952 9.44531 11.1195C9.31639 10.9437 9.11961 10.8559 8.85497 10.8559H2.14759C1.97795 10.8559 1.87448 10.7961 1.83716 10.6766C1.79983 10.5571 1.82528 10.4411 1.91349 10.3286L5.68957 5.39367C5.94064 5.06326 6.21375 4.82776 6.50892 4.68716C6.80408 4.54657 7.13487 4.47627 7.50129 4.47627H16.4988C16.872 4.47627 17.2044 4.54657 17.4962 4.68716C17.788 4.82776 18.0594 5.06326 18.3105 5.39367L22.0968 10.3286C22.1782 10.4411 22.2002 10.5571 22.1628 10.6766C22.1255 10.7961 22.0255 10.8559 21.8627 10.8559H15.145C14.8804 10.8559 14.6854 10.9437 14.5598 11.1195C14.4343 11.2952 14.3716 11.4921 14.3716 11.71V11.7416C14.3716 12.1494 14.2732 12.5465 14.0764 12.9332C13.8796 13.3198 13.6048 13.6379 13.2519 13.8874C12.8991 14.137 12.4818 14.2618 12.0001 14.2618Z" fill="black" fill-opacity="0.8"/>
<path d="M3.21629 19.3023C2.70739 19.3023 2.31723 19.1634 2.0458 18.8857C1.77439 18.608 1.63868 18.195 1.63868 17.6467V12.3954H8.09162C8.17304 13.0562 8.39357 13.6449 8.7532 14.1616C9.11283 14.6783 9.57254 15.0843 10.1323 15.3796C10.6921 15.6748 11.3147 15.8224 12.0001 15.8224C12.6922 15.8224 13.3181 15.6731 13.8779 15.3743C14.4377 15.0756 14.8957 14.6678 15.2519 14.1511C15.6082 13.6344 15.827 13.0492 15.9085 12.3954H22.3614V17.6467C22.3614 18.195 22.224 18.608 21.9492 18.8857C21.6744 19.1634 21.2859 19.3023 20.7837 19.3023H3.21629Z" fill="black" fill-opacity="0.8"/>
</svg>
