<svg width="24" height="24" viewBox="0 0 24 24" fill="none" xmlns="http://www.w3.org/2000/svg">
<path d="M1.72675 18.2073H17.8589C18.7023 18.2073 19.3229 18.0041 19.7207 17.5977C20.1184 17.1913 20.3173 16.557 20.3173 15.6946V6.44417C20.3173 5.65624 20.6912 5.26228 21.4388 5.26228H22.2823C22.4737 5.26228 22.6411 5.18783 22.7846 5.03892C22.9282 4.89003 23 4.71321 23 4.50847C23 4.30993 22.9282 4.13622 22.7846 3.98732C22.6411 3.83841 22.4737 3.76396 22.2823 3.76396H21.3312C20.4878 3.76396 19.8672 3.96715 19.4694 4.37353C19.0716 4.7799 18.8727 5.41428 18.8727 6.27666V15.5271C18.8727 16.315 18.4989 16.709 17.7512 16.709H1.72675C1.52936 16.709 1.35889 16.7804 1.21533 16.9231C1.07178 17.0657 1 17.2425 1 17.4535C1 17.6645 1.07178 17.8428 1.21533 17.9886C1.35889 18.1344 1.52936 18.2073 1.72675 18.2073ZM4.90294 23C5.20202 23 5.47716 22.9209 5.72838 22.7627C5.97961 22.6045 6.18149 22.3951 6.33401 22.1345C6.48654 21.874 6.56281 21.5886 6.56281 21.2784C6.56281 20.9619 6.48654 20.6719 6.33401 20.4082C6.18149 20.1446 5.97961 19.9336 5.72838 19.7754C5.47716 19.6172 5.20202 19.5381 4.90294 19.5381C4.59788 19.5381 4.31974 19.6172 4.06851 19.7754C3.81729 19.9336 3.61542 20.1446 3.46289 20.4082C3.31036 20.6719 3.2341 20.9619 3.2341 21.2784C3.2341 21.5886 3.31036 21.874 3.46289 22.1345C3.61542 22.3951 3.81729 22.6045 4.06851 22.7627C4.31974 22.9209 4.59788 23 4.90294 23ZM14.5212 23C14.8203 23 15.0969 22.9209 15.3511 22.7627C15.6054 22.6045 15.8073 22.3951 15.9568 22.1345C16.1063 21.874 16.1811 21.5886 16.1811 21.2784C16.1811 20.9619 16.1063 20.6719 15.9568 20.4082C15.8073 20.1446 15.6054 19.9336 15.3511 19.7754C15.0969 19.6172 14.8203 19.5381 14.5212 19.5381C14.2221 19.5381 13.9455 19.6172 13.6913 19.7754C13.437 19.9336 13.2352 20.1446 13.0857 20.4082C12.9361 20.6719 12.8614 20.9619 12.8614 21.2784C12.8614 21.5886 12.9361 21.874 13.0857 22.1345C13.2352 22.3951 13.437 22.6045 13.6913 22.7627C13.9455 22.9209 14.2221 23 14.5212 23ZM1.00897 13.2284C1.00897 14.5623 1.69087 15.2293 3.05465 15.2293H15.3018C16.6715 15.2293 17.3564 14.5623 17.3564 13.2284V5.67175C17.3564 4.33785 16.6715 3.6709 15.3018 3.6709H3.05465C1.69087 3.6709 1.00897 4.33785 1.00897 5.67175V13.2284ZM3.67374 15.2293V3.6709H4.79527V15.2293H3.67374ZM13.5612 15.2293V3.6709H14.6827V15.2293H13.5612ZM5.48613 4.43402H6.75123V3.03807C6.75123 2.51072 7.01442 2.24704 7.54079 2.24704H10.8157C11.348 2.24704 11.6142 2.51072 11.6142 3.03807V4.4154H12.8793V3.12183C12.8793 1.70728 12.1825 1 10.7888 1H7.56771C6.89179 1 6.37589 1.18147 6.01999 1.54442C5.66409 1.90736 5.48613 2.43317 5.48613 3.12183V4.43402Z" fill="black" fill-opacity="0.8"/>
</svg>
