<svg width="24" height="24" viewBox="0 0 24 24" fill="none" xmlns="http://www.w3.org/2000/svg">
<path d="M7.15631 11.8552V15.4552L3.39334 19.2358L4.74877 20.5846L8.44539 16.8896L12.1799 16.8801C12.4832 16.8801 12.7865 16.8263 13.0899 16.7186C13.3932 16.611 13.6554 16.4463 13.8766 16.2247L21.7248 8.47356C21.9144 8.28358 22.006 8.05561 21.9997 7.78964C21.9934 7.52367 21.9017 7.29886 21.7248 7.11522C21.5416 6.92524 21.3157 6.83026 21.0471 6.83026C20.7785 6.83026 20.5526 6.92524 20.3694 7.11522L12.8244 14.6858C12.6854 14.8188 12.5338 14.9233 12.3695 14.9993C12.2052 15.0753 12.0251 15.1133 11.8293 15.1133H9.18471L9.04254 14.9423V12.0926C9.04254 11.8963 9.07887 11.7143 9.15154 11.5464C9.22421 11.3786 9.32689 11.2282 9.4596 11.0952L16.9097 3.64813C17.0929 3.45815 17.183 3.23018 17.1798 2.96421C17.1767 2.69824 17.0867 2.47027 16.9097 2.28029C16.7264 2.09665 16.5005 2.00324 16.232 2.00008C15.9634 1.99691 15.7375 2.09348 15.5542 2.28979L7.81981 10.1549C7.58601 10.3892 7.41856 10.6535 7.31745 10.948C7.21635 11.2425 7.16263 11.5449 7.15631 11.8552ZM3.77248 22C4.10107 22 4.39964 21.9192 4.6682 21.7577C4.93676 21.5962 5.15161 21.381 5.31275 21.1118C5.47388 20.8427 5.55444 20.5434 5.55444 20.2142C5.55444 19.8849 5.47388 19.5841 5.31275 19.3118C5.15161 19.0395 4.93676 18.8242 4.6682 18.6658C4.39964 18.5075 4.10107 18.4284 3.77248 18.4284C3.44389 18.4284 3.1469 18.5091 2.8815 18.6706C2.6161 18.8321 2.40284 19.0474 2.2417 19.3166C2.08057 19.5857 2 19.8849 2 20.2142C2 20.5434 2.08057 20.8427 2.2417 21.1118C2.40284 21.381 2.61768 21.5962 2.88624 21.7577C3.1548 21.9192 3.45021 22 3.77248 22Z" fill="black" fill-opacity="0.8"/>
</svg>
