<svg width="24" height="24" viewBox="0 0 24 24" fill="none" xmlns="http://www.w3.org/2000/svg">
<path d="M11.2698 5.49073H12.7302V1.80742C12.7302 1.57155 12.6625 1.37801 12.5271 1.2268C12.3917 1.0756 12.2175 1 12.0043 1C11.7854 1 11.6083 1.0756 11.4729 1.2268C11.3375 1.37801 11.2698 1.57155 11.2698 1.80742V5.49073ZM3.7518 13.0569C3.90159 13.0569 4.02689 13.01 4.1277 12.9163C4.22851 12.8226 4.31925 12.7092 4.3999 12.5761C4.67067 12.1467 4.97312 11.8095 5.30725 11.5646C5.64138 11.3196 6.04753 11.1972 6.52569 11.1972C6.99808 11.1972 7.38694 11.3196 7.69227 11.5646C7.9976 11.8095 8.26836 12.1467 8.50456 12.5761C8.57369 12.7092 8.65578 12.8226 8.75084 12.9163C8.8459 13.01 8.96544 13.0569 9.10946 13.0569C9.25348 13.0569 9.37302 13.01 9.46807 12.9163C9.56313 12.8226 9.6481 12.7092 9.723 12.5761C9.94767 12.1527 10.266 11.808 10.6779 11.5419C11.0898 11.2758 11.5319 11.1427 12.0043 11.1427C12.471 11.1427 12.9088 11.2758 13.3178 11.5419C13.7268 11.808 14.0465 12.1527 14.277 12.5761C14.3519 12.7092 14.4369 12.8226 14.5319 12.9163C14.627 13.01 14.7465 13.0569 14.8905 13.0569C15.0345 13.0569 15.1541 13.01 15.2492 12.9163C15.3442 12.8226 15.4263 12.7092 15.4954 12.5761C15.7316 12.1467 16.0024 11.8095 16.3078 11.5646C16.613 11.3196 17.0019 11.1972 17.4743 11.1972C17.9525 11.1972 18.3601 11.3287 18.6971 11.5918C19.0341 11.8549 19.3351 12.2011 19.6001 12.6305C19.6808 12.7696 19.7715 12.8755 19.8723 12.948C19.9731 13.0206 20.0984 13.0569 20.2482 13.0569C20.4383 13.0569 20.6112 12.9798 20.7667 12.8256C20.9222 12.6714 21 12.4612 21 12.1951C21 11.4391 20.8862 10.6453 20.6587 9.81362C20.4311 8.982 20.0826 8.17156 19.613 7.38228C19.1435 6.593 18.5516 5.87932 17.8373 5.24124C17.1229 4.60317 16.2803 4.09513 15.3096 3.71711C14.3389 3.33911 13.2371 3.1501 12.0043 3.1501C10.7657 3.1501 9.66106 3.33911 8.69035 3.71711C7.71964 4.09513 6.8771 4.60317 6.16275 5.24124C5.44839 5.87932 4.85646 6.593 4.38694 7.38228C3.91743 8.17156 3.56889 8.982 3.34133 9.81362C3.11378 10.6453 3 11.4391 3 12.1951C3 12.4612 3.07777 12.6714 3.23332 12.8256C3.38886 12.9798 3.56169 13.0569 3.7518 13.0569ZM9.8699 23C10.4114 23 10.8982 22.8685 11.3303 22.6054C11.7624 22.3423 12.1037 21.9839 12.3543 21.5303C12.6049 21.0767 12.7302 20.5657 12.7302 19.9971V9.67301H11.2698V19.9971C11.2698 20.4266 11.1387 20.7789 10.8766 21.054C10.6145 21.3292 10.2789 21.4668 9.8699 21.4668C9.47239 21.4668 9.14258 21.3292 8.88046 21.054C8.61834 20.7789 8.48728 20.4266 8.48728 19.9971C8.48728 19.731 8.41815 19.5148 8.27989 19.3485C8.14162 19.1822 7.96015 19.099 7.73548 19.099C7.52232 19.099 7.34949 19.1822 7.21699 19.3485C7.08449 19.5148 7.01825 19.731 7.01825 19.9971C7.01825 20.5657 7.14354 21.0767 7.39414 21.5303C7.64474 21.9839 7.98607 22.3423 8.41815 22.6054C8.85022 22.8685 9.33413 23 9.8699 23Z" fill="black" fill-opacity="0.8"/>
</svg>
