<svg width="24" height="24" viewBox="0 0 24 24" fill="none" xmlns="http://www.w3.org/2000/svg">
<path d="M6.80744 3.59148C6.80744 4.09997 6.96401 4.49819 7.27716 4.78613C7.59031 5.07407 8.0226 5.21804 8.57403 5.21804H15.4157C15.974 5.21804 16.4096 5.07407 16.7228 4.78613C17.036 4.49819 17.1926 4.09997 17.1926 3.59148V2.62657C17.1926 2.11807 17.036 1.71986 16.7228 1.43191C16.4096 1.14397 15.974 1 15.4157 1H8.57403C8.0226 1 7.59031 1.14397 7.27716 1.43191C6.96401 1.71986 6.80744 2.11807 6.80744 2.62657V3.59148ZM8.24726 3.5731V2.64495C8.24726 2.53467 8.283 2.44737 8.35448 2.38304C8.42596 2.31872 8.52297 2.28655 8.64551 2.28655H15.3443C15.4736 2.28655 15.574 2.31872 15.6455 2.38304C15.717 2.44737 15.7527 2.53467 15.7527 2.64495V3.5731C15.7527 3.67725 15.717 3.76302 15.6455 3.83041C15.574 3.8978 15.4736 3.93149 15.3443 3.93149H8.64551C8.52297 3.93149 8.42596 3.8978 8.35448 3.83041C8.283 3.76302 8.24726 3.67725 8.24726 3.5731ZM9.73814 6.89056V4.71261H8.29832V6.89056H9.73814ZM15.7017 6.89056V4.71261H14.2618V6.89056H15.7017ZM5 19.9858C5 20.5984 5.13615 21.1299 5.40846 21.5802C5.68077 22.0305 6.0637 22.3797 6.55726 22.6278C7.05081 22.8759 7.63117 23 8.29832 23H15.7017C16.362 23 16.9406 22.8759 17.4376 22.6278C17.9345 22.3797 18.3192 22.0305 18.5915 21.5802C18.8638 21.1299 19 20.5984 19 19.9858V9.56474C19 8.9521 18.8638 8.42064 18.5915 7.97035C18.3192 7.52005 17.9345 7.17084 17.4376 6.92273C16.9406 6.67461 16.362 6.55055 15.7017 6.55055H8.29832C7.63117 6.55055 7.05081 6.67461 6.55726 6.92273C6.0637 7.17084 5.68077 7.52005 5.40846 7.97035C5.13615 8.42064 5 8.9521 5 9.56474V19.9858ZM6.56236 19.9674V9.58312C6.56236 9.09301 6.72744 8.70092 7.05761 8.40685C7.38779 8.11278 7.82859 7.96575 8.38001 7.96575H15.6199C16.1714 7.96575 16.6122 8.11278 16.9424 8.40685C17.2725 8.70092 17.4376 9.09301 17.4376 9.58312V19.9674C17.4376 20.4637 17.2725 20.8588 16.9424 21.1529C16.6122 21.447 16.1714 21.594 15.6199 21.594H8.38001C7.82859 21.594 7.38779 21.447 7.05761 21.1529C6.72744 20.8588 6.56236 20.4637 6.56236 19.9674Z" fill="#AEAEB2"/>
<path d="M8 15.757C8 15.9861 8.06782 16.1669 8.20347 16.2994C8.33913 16.4318 8.51762 16.4981 8.73895 16.4981H10.4953V18.2484C10.4953 18.4703 10.5614 18.6511 10.6934 18.7906C10.8255 18.9302 11.0058 19 11.2343 19H12.755C12.9835 19 13.1638 18.9302 13.2958 18.7906C13.4279 18.6511 13.494 18.4703 13.494 18.2484V16.4981H15.2503C15.4645 16.4981 15.643 16.4318 15.7858 16.2994C15.9286 16.1669 16 15.9861 16 15.757V14.2322C16 14.0031 15.9286 13.8223 15.7858 13.6899C15.643 13.5575 15.4645 13.4913 15.2503 13.4913H13.494V11.7409C13.494 11.519 13.4279 11.34 13.2958 11.204C13.1638 11.068 12.9835 11 12.755 11H11.2343C11.0058 11 10.8255 11.068 10.6934 11.204C10.5614 11.34 10.4953 11.519 10.4953 11.7409V13.4913H8.73895C8.51762 13.4913 8.33913 13.5575 8.20347 13.6899C8.06782 13.8223 8 14.0031 8 14.2322V15.757Z" fill="#34C759"/>
</svg>
