<svg width="24" height="24" viewBox="0 0 24 24" fill="none" xmlns="http://www.w3.org/2000/svg">
<path d="M8.57403 5.21804H15.4157C15.974 5.21804 16.4096 5.07407 16.7228 4.78613C17.036 4.49819 17.1926 4.09997 17.1926 3.59148V2.62657C17.1926 2.11807 17.036 1.71986 16.7228 1.43191C16.4096 1.14397 15.974 1 15.4157 1H8.57403C8.0226 1 7.59031 1.14397 7.27716 1.43191C6.96401 1.71986 6.80744 2.11807 6.80744 2.62657V3.59148C6.80744 4.09997 6.96401 4.49819 7.27716 4.78613C7.59031 5.07407 8.0226 5.21804 8.57403 5.21804ZM8.70677 6.89056H15.2932V4.71261H8.70677V6.89056ZM8.29832 23H15.7017C16.362 23 16.9406 22.8759 17.4376 22.6278C17.9345 22.3797 18.3192 22.0305 18.5915 21.5802C18.8638 21.1299 19 20.5984 19 19.9858V9.56474C19 8.9521 18.8638 8.42064 18.5915 7.97035C18.3192 7.52005 17.9345 7.17084 17.4376 6.92273C16.9406 6.67461 16.362 6.55055 15.7017 6.55055H8.29832C7.63117 6.55055 7.05081 6.67461 6.55726 6.92273C6.0637 7.17084 5.68077 7.52005 5.40846 7.97035C5.13615 8.42064 5 8.9521 5 9.56474V19.9858C5 20.5984 5.13615 21.1299 5.40846 21.5802C5.68077 22.0305 6.0637 22.3797 6.55726 22.6278C7.05081 22.8759 7.63117 23 8.29832 23ZM8.06345 15.4462V14.1044C8.06345 13.9023 8.13153 13.743 8.26768 13.6266C8.40383 13.5102 8.57743 13.4519 8.78847 13.4519H10.5244V11.8989C10.5244 11.7028 10.5891 11.5451 10.7184 11.4256C10.8478 11.3062 11.0248 11.2465 11.2494 11.2465H12.7403C12.965 11.2465 13.142 11.3062 13.2713 11.4256C13.4007 11.5451 13.4653 11.7028 13.4653 11.8989V13.4519H15.2013C15.4123 13.4519 15.5876 13.5102 15.7272 13.6266C15.8668 13.743 15.9365 13.9023 15.9365 14.1044V15.4462C15.9365 15.6483 15.8668 15.8076 15.7272 15.924C15.5876 16.0404 15.4123 16.0986 15.2013 16.0986H13.4653V17.6516C13.4653 17.8477 13.4007 18.007 13.2713 18.1295C13.142 18.252 12.965 18.3133 12.7403 18.3133H11.2494C11.0248 18.3133 10.8478 18.252 10.7184 18.1295C10.5891 18.007 10.5244 17.8477 10.5244 17.6516V16.0986H8.78847C8.57743 16.0986 8.40383 16.0404 8.26768 15.924C8.13153 15.8076 8.06345 15.6483 8.06345 15.4462Z" fill="black" fill-opacity="0.8"/>
</svg>
