<svg width="24" height="24" viewBox="0 0 24 24" fill="none" xmlns="http://www.w3.org/2000/svg">
<path d="M12.8213 18.2928C12.8213 18.0676 12.7399 17.8737 12.5773 17.711C12.4146 17.5483 12.2206 17.467 11.9953 17.467C11.7763 17.467 11.5855 17.5483 11.4228 17.711C11.2601 17.8737 11.1788 18.0676 11.1788 18.2928V21.1835C11.1788 21.4088 11.2601 21.6012 11.4228 21.7607C11.5855 21.9202 11.7763 22 11.9953 22C12.2206 22 12.4146 21.9202 12.5773 21.7607C12.7399 21.6012 12.8213 21.4088 12.8213 21.1835V18.2928ZM4.94698 17.8799C4.79056 18.0363 4.71235 18.2287 4.71235 18.4571C4.71235 18.6855 4.78743 18.8779 4.93759 19.0343C5.09402 19.1907 5.28798 19.2705 5.51948 19.2736C5.75099 19.2767 5.94495 19.2001 6.10137 19.0437L8.14736 16.9977C8.30378 16.8475 8.38199 16.6582 8.38199 16.4298C8.38199 16.2015 8.30378 16.0091 8.14736 15.8527C7.9972 15.6963 7.80636 15.618 7.57486 15.618C7.34335 15.618 7.14939 15.6963 6.99297 15.8527L4.94698 17.8799ZM2.81652 11.1788C2.59753 11.1788 2.4067 11.2601 2.24402 11.4228C2.08134 11.5855 2 11.7763 2 11.9953C2 12.2206 2.08134 12.413 2.24402 12.5725C2.4067 12.7321 2.59753 12.8119 2.81652 12.8119H5.72596C5.94495 12.8119 6.13578 12.7321 6.29847 12.5725C6.46114 12.413 6.54248 12.2206 6.54248 11.9953C6.54248 11.7763 6.46114 11.5855 6.29847 11.4228C6.13578 11.2601 5.94495 11.1788 5.72596 11.1788H2.81652ZM6.99297 8.15675C7.14939 8.31317 7.34179 8.39138 7.57017 8.39138C7.79854 8.39138 7.99094 8.31317 8.14736 8.15675C8.30378 8.00033 8.38199 7.80793 8.38199 7.57955C8.38199 7.35118 8.30378 7.15878 8.14736 7.00236L6.11075 4.95636C5.95433 4.79994 5.7635 4.72017 5.53825 4.71704C5.31301 4.71392 5.11904 4.79056 4.95636 4.94698C4.79994 5.1034 4.72173 5.2958 4.72173 5.52417C4.72173 5.75255 4.79994 5.94495 4.95636 6.10137L6.99297 8.15675ZM12.8213 2.81652C12.8213 2.59127 12.7399 2.39887 12.5773 2.23932C12.4146 2.07977 12.2206 2 11.9953 2C11.7763 2 11.5855 2.07977 11.4228 2.23932C11.2601 2.39887 11.1788 2.59127 11.1788 2.81652V5.70719C11.1788 5.93243 11.2601 6.12639 11.4228 6.28908C11.5855 6.45176 11.7763 6.5331 11.9953 6.5331C12.2206 6.5331 12.4146 6.45176 12.5773 6.28908C12.7399 6.12639 12.8213 5.93243 12.8213 5.70719V2.81652ZM15.8433 7.00236C15.6869 7.15878 15.6087 7.35118 15.6087 7.57955C15.6087 7.80793 15.6869 8.00033 15.8433 8.15675C15.9997 8.31317 16.1921 8.39138 16.4205 8.39138C16.6489 8.39138 16.8444 8.31317 17.007 8.15675L19.0437 6.11075C19.2001 5.95433 19.2783 5.76037 19.2783 5.52887C19.2783 5.29737 19.2001 5.1034 19.0437 4.94698C18.8872 4.79056 18.6964 4.71235 18.4712 4.71235C18.2459 4.71235 18.0551 4.79056 17.8987 4.94698L15.8433 7.00236ZM21.1742 12.8119C21.3994 12.8119 21.5933 12.7321 21.756 12.5725C21.9187 12.413 22 12.2206 22 11.9953C22 11.7763 21.9187 11.5855 21.756 11.4228C21.5933 11.2601 21.3994 11.1788 21.1742 11.1788H18.2835C18.0645 11.1788 17.8737 11.2601 17.711 11.4228C17.5483 11.5855 17.467 11.7763 17.467 11.9953C17.467 12.2206 17.5483 12.413 17.711 12.5725C17.8737 12.7321 18.0645 12.8119 18.2835 12.8119H21.1742ZM19.5786 21.1178C19.7788 21.3181 20.0244 21.4182 20.3154 21.4182C20.6063 21.4182 20.8456 21.3181 21.0334 21.1178C21.2273 20.9114 21.3227 20.6689 21.3196 20.3904C21.3165 20.112 21.2211 19.8727 21.0334 19.6725L12.108 10.7189C11.914 10.5187 11.6715 10.4186 11.3806 10.4186C11.0896 10.4186 10.8503 10.5187 10.6626 10.7189C10.4687 10.9254 10.3717 11.1694 10.3717 11.451C10.3717 11.7325 10.4687 11.9734 10.6626 12.1736L19.5786 21.1178ZM14.1258 14.6701L11.3759 11.9109C11.2883 11.8295 11.2367 11.7434 11.221 11.6527C11.2054 11.562 11.2383 11.476 11.3196 11.3947C11.3884 11.3196 11.4698 11.2899 11.5636 11.3055C11.6575 11.3212 11.7482 11.3728 11.8358 11.4604L14.5951 14.2196L14.1258 14.6701Z" fill="black" fill-opacity="0.8"/>
</svg>
