<svg width="24" height="24" viewBox="0 0 24 24" fill="none" xmlns="http://www.w3.org/2000/svg">
<path d="M8.05704 13.8084L8.94611 12.9298L2.80594 6.7056C2.47253 6.36292 2.30583 6.01713 2.30583 5.66823C2.30583 5.31932 2.47253 4.97353 2.80594 4.63085L4.11176 3.30376C4.43899 2.96732 4.78011 2.80065 5.13513 2.80376C5.49014 2.80688 5.83435 2.97666 6.16775 3.31311L12.7803 9.97659L13.7063 9.14483L7.14018 2.47199C6.49189 1.81779 5.82817 1.48914 5.14902 1.48602C4.46986 1.48291 3.81232 1.80222 3.17638 2.44395L1.94464 3.68693C1.31488 4.32867 1 4.99066 1 5.6729C1 6.35513 1.32414 7.02335 1.97243 7.67755L8.05704 13.8084ZM7.45506 9.64949C7.52297 9.71803 7.60478 9.75229 7.70048 9.75229C7.79618 9.75229 7.87799 9.71803 7.9459 9.64949C8.01382 9.58096 8.04777 9.49996 8.04777 9.40651C8.04777 9.31305 8.01382 9.23205 7.9459 9.16352L4.48222 5.66823C4.42047 5.61215 4.34021 5.58255 4.24142 5.57944C4.14264 5.57633 4.05929 5.60592 3.99137 5.66823C3.92963 5.74299 3.89721 5.83021 3.89413 5.9299C3.89104 6.02959 3.92346 6.11059 3.99137 6.17289L7.45506 9.64949ZM8.59418 8.50932C8.6621 8.57786 8.74545 8.61056 8.84423 8.60744C8.94302 8.60433 9.02328 8.57162 9.08503 8.50932C9.15294 8.42832 9.1869 8.33954 9.1869 8.24296C9.1869 8.14639 9.15603 8.06696 9.09429 8.00465L5.6306 4.5187C5.56268 4.45017 5.48088 4.41745 5.38518 4.42057C5.28948 4.42369 5.21076 4.4564 5.14902 4.5187C5.0811 4.59347 5.04869 4.67602 5.05177 4.76636C5.05486 4.8567 5.08727 4.93614 5.14902 5.00468L8.59418 8.50932ZM20.5134 22.8456L22.1711 21.1728C22.2699 21.0669 22.3147 20.9438 22.3054 20.8035C22.2961 20.6634 22.2452 20.5216 22.1526 20.3784L20.217 17.4625C20.0071 17.151 19.7323 16.9703 19.3927 16.9204L18.5592 16.7896L14.0676 12.257L13.2063 13.2569L18.0221 18.098L19.0594 18.2755L20.8282 20.6494L19.9854 21.4999L17.6424 19.7148L17.4571 18.6681L12.6876 13.8457L11.817 14.8364L16.1606 19.2101L16.2902 20.0513C16.3087 20.2195 16.3674 20.3753 16.4662 20.5186C16.565 20.6618 16.6854 20.7802 16.8274 20.8737L19.7262 22.855C19.8743 22.9546 20.0163 23.0029 20.1522 22.9999C20.288 22.9967 20.4084 22.9453 20.5134 22.8456ZM2.44475 21.7428C2.9819 22.2786 3.56381 22.6384 4.19049 22.8222C4.81716 23.0061 5.44383 23.0092 6.07051 22.8316C6.69718 22.6541 7.27292 22.2974 7.79772 21.7615C8.1373 21.4188 8.42749 21.059 8.66828 20.6821C8.90907 20.3052 9.14677 19.894 9.38139 19.4484C9.616 19.003 9.89229 18.503 10.2103 17.9484C10.5282 17.3939 10.9311 16.7693 11.4188 16.0746C11.9066 15.38 12.5209 14.5949 13.2618 13.7195C14.0028 12.8441 14.9165 11.8582 16.0031 10.7617L15.1974 9.93921C14.0058 11.1417 13.0226 12.1947 12.2478 13.0981C11.4729 14.0015 10.8462 14.7881 10.3677 15.4578C9.88921 16.1276 9.50487 16.7148 9.21469 17.2195C8.9245 17.7241 8.6729 18.1758 8.4599 18.5746C8.24689 18.9734 8.02154 19.3519 7.78383 19.7102C7.54612 20.0684 7.23587 20.4407 6.85308 20.827C6.34063 21.3503 5.76489 21.6136 5.12587 21.6167C4.48684 21.6198 3.89875 21.3534 3.3616 20.8176C2.83063 20.2693 2.56514 19.6743 2.56514 19.0326C2.56514 18.3909 2.82137 17.8114 3.33383 17.2943C3.72279 16.908 4.09479 16.5949 4.4498 16.355C4.80481 16.1151 5.18143 15.8877 5.57966 15.6728C5.97789 15.4578 6.42552 15.2039 6.92254 14.9111C7.41956 14.6183 8.00147 14.2304 8.66828 13.7476C9.33508 13.2647 10.1146 12.6324 11.0068 11.8504C11.8989 11.0685 12.9408 10.0763 14.1324 8.8738L13.3266 8.06073C12.24 9.15729 11.263 10.0794 10.3955 10.827C9.52803 11.5747 8.75008 12.1931 8.06167 12.6822C7.37325 13.1713 6.75429 13.5762 6.20479 13.8971C5.6553 14.218 5.15982 14.4984 4.71837 14.7383C4.27692 14.9781 3.86943 15.218 3.4959 15.4578C3.12236 15.6977 2.76581 15.989 2.42623 16.3317C1.89525 16.8675 1.54178 17.45 1.36582 18.0794C1.18985 18.7086 1.19294 19.341 1.37508 19.9765C1.55722 20.612 1.91377 21.2008 2.44475 21.7428ZM5.08419 20.2569C5.39907 20.2569 5.66919 20.1432 5.89454 19.9157C6.1199 19.6884 6.23258 19.4158 6.23258 19.098C6.23258 18.7803 6.1199 18.5092 5.89454 18.2849C5.66919 18.0606 5.39907 17.9484 5.08419 17.9484C4.76931 17.9484 4.50073 18.0606 4.27846 18.2849C4.0562 18.5092 3.94506 18.7803 3.94506 19.098C3.94506 19.4158 4.0562 19.6884 4.27846 19.9157C4.50073 20.1432 4.76931 20.2569 5.08419 20.2569ZM13.9657 10.1074C14.4967 10.6432 15.0909 11.0482 15.7485 11.3224C16.406 11.5965 17.0805 11.7414 17.772 11.7569C18.4635 11.7725 19.1334 11.6557 19.7817 11.4065C20.43 11.1573 21.0104 10.7741 21.5228 10.2569C22.0785 9.69621 22.4783 9.04825 22.7222 8.31306C22.966 7.57786 23.0494 6.81619 22.9722 6.02803C22.895 5.23988 22.6496 4.48755 22.236 3.77104L21.3376 4.68692C21.5969 5.22275 21.742 5.7757 21.7729 6.34579C21.8037 6.91588 21.725 7.46416 21.5367 7.99063C21.3484 8.51711 21.0536 8.98283 20.6523 9.38781C20.1275 9.91114 19.5178 10.2538 18.8231 10.4159C18.1286 10.5779 17.4278 10.5592 16.7208 10.3598C16.0139 10.1604 15.3857 9.78659 14.8362 9.23828C14.2867 8.68377 13.9132 8.04982 13.7156 7.33643C13.5181 6.62305 13.5011 5.91433 13.6647 5.21029C13.8283 4.50624 14.1725 3.89254 14.6974 3.36918C15.3024 2.75859 16.0325 2.39255 16.8876 2.27106C17.7427 2.14957 18.5562 2.28819 19.3279 2.68694L20.2355 1.77107C19.5316 1.35362 18.7908 1.10596 18.0129 1.02808C17.2349 0.950201 16.4832 1.03431 15.7577 1.28042C15.0323 1.52652 14.3917 1.93306 13.8361 2.50003C13.3236 3.01093 12.9423 3.59348 12.6923 4.24768C12.4422 4.90188 12.3234 5.57633 12.3357 6.27102C12.3481 6.96572 12.4901 7.64484 12.7617 8.30838C13.0334 8.97193 13.4347 9.57162 13.9657 10.1074ZM16.7719 5.91121L18.1425 7.28503C18.4882 7.63394 18.8617 7.8115 19.2631 7.81774C19.6644 7.82396 20.0287 7.66197 20.356 7.33176L22.3007 5.35982L21.4858 4.54674L19.7169 6.31307C19.4391 6.59968 19.1612 6.59968 18.8834 6.31307L17.7535 5.16355C17.4572 4.85827 17.4417 4.57166 17.7072 4.30375L19.4947 2.51872L18.6519 1.6963L16.7255 3.64955C16.3798 3.99223 16.2131 4.36606 16.2254 4.77104C16.2378 5.17602 16.4199 5.55607 16.7719 5.91121Z" fill="black" fill-opacity="0.8"/>
</svg>
