<svg width="24" height="24" viewBox="0 0 24 24" fill="none" xmlns="http://www.w3.org/2000/svg">
<path d="M2.16472 21.8707C2.6815 22.3763 3.25972 22.7139 3.89939 22.8834C4.53905 23.053 5.18029 23.0376 5.8231 22.8372C6.46592 22.6368 7.05202 22.2437 7.5814 21.658C8.00364 21.1832 8.44793 20.6159 8.91429 19.9561C9.38065 19.2964 9.87537 18.5935 10.3984 17.8473C10.9215 17.1013 11.4792 16.3506 12.0717 15.5953C12.6641 14.8399 13.3006 14.1324 13.9812 13.4727C14.3278 13.1273 14.6855 12.8792 15.0542 12.7281C15.4228 12.5771 15.8009 12.4784 16.1885 12.4322C16.5761 12.3859 16.9747 12.352 17.3844 12.3305C17.794 12.3089 18.2146 12.2564 18.6463 12.1732C19.078 12.0899 19.5223 11.9373 19.9792 11.7153C20.4362 11.4934 20.9041 11.1543 21.383 10.698C21.7737 10.3342 22.0999 9.93341 22.3615 9.49563C22.623 9.05785 22.8058 8.61544 22.9097 8.16841C23.0137 7.72137 23.0279 7.3098 22.9522 6.93368L19.3222 7.90481C19.0197 7.98497 18.7629 7.94181 18.5518 7.77533C18.3407 7.60885 18.1879 7.36529 18.0933 7.04467L17.8192 6.11053C17.7246 5.7899 17.7325 5.50781 17.8428 5.26425C17.9531 5.02069 18.1595 4.85884 18.462 4.77868L22.0826 3.8168C22.0322 3.65648 21.9345 3.47304 21.7896 3.26648C21.6446 3.05992 21.4744 2.85799 21.279 2.66068C20.7307 2.11191 20.11 1.70034 19.4168 1.42595C18.7236 1.15157 18.0098 1.00975 17.2757 1.0005C16.5414 0.991252 15.8324 1.10995 15.1487 1.35658C14.4649 1.60322 13.8583 1.9701 13.3289 2.45721C12.8059 2.95048 12.4167 3.44222 12.1615 3.93241C11.9063 4.4226 11.7361 4.91125 11.651 5.39836C11.5659 5.88547 11.5186 6.36179 11.5091 6.82732C11.4997 7.29285 11.4824 7.74296 11.4572 8.17766C11.432 8.61235 11.3517 9.02547 11.2161 9.41701C11.0806 9.80855 10.8396 10.1739 10.493 10.513C9.87537 11.1172 9.19789 11.6953 8.46054 12.2472C7.72319 12.7991 6.97954 13.3247 6.22959 13.8241C5.47964 14.3235 4.77065 14.8014 4.10263 15.2577C3.4346 15.714 2.85796 16.1517 2.3727 16.5711C1.76769 17.0828 1.36436 17.6531 1.16269 18.2821C0.961022 18.911 0.946842 19.5384 1.12015 20.1642C1.29346 20.79 1.64165 21.3589 2.16472 21.8707ZM3.06278 20.9828C2.72246 20.6437 2.49874 20.2629 2.3916 19.8405C2.28447 19.4182 2.30022 18.9958 2.43887 18.5735C2.57752 18.1511 2.84535 17.7703 3.24238 17.4312C3.73395 17.0119 4.32635 16.5649 5.01958 16.0901C5.71282 15.6153 6.44386 15.1205 7.21272 14.6057C7.98158 14.0908 8.73153 13.5636 9.46258 13.0241C10.1936 12.4846 10.8396 11.9404 11.4004 11.3916C11.8038 10.9909 12.0889 10.5778 12.256 10.1523C12.423 9.72685 12.5254 9.29061 12.5632 8.84358C12.601 8.39654 12.6199 7.94181 12.6199 7.47936C12.6199 7.01692 12.653 6.55447 12.7192 6.09203C12.7854 5.62958 12.9319 5.16714 13.1587 4.70469C13.3856 4.24224 13.748 3.78596 14.2459 3.33585C14.6492 2.97206 15.1203 2.69922 15.6592 2.51733C16.198 2.33543 16.7573 2.25065 17.3371 2.26298C17.9169 2.27531 18.4809 2.38629 19.0292 2.59594C19.5775 2.80558 20.069 3.12004 20.5038 3.53933L20.8158 2.98439L18.2068 3.65031C17.5136 3.82913 17.0267 4.16517 16.7462 4.65845C16.4658 5.15172 16.4295 5.74982 16.6375 6.45274L16.9022 7.34988C17.1291 8.13295 17.471 8.64781 17.9279 8.89444C18.3848 9.14108 18.9284 9.18117 19.5586 9.01469L22.2527 8.30251L21.6855 8.00655C21.5847 8.33951 21.4413 8.67093 21.2554 9.00081C21.0695 9.33069 20.8284 9.64053 20.5322 9.93032C20.0596 10.3743 19.5759 10.681 19.0812 10.8506C18.5865 11.0202 18.087 11.1234 17.5829 11.1604C17.0787 11.1974 16.5714 11.2375 16.0609 11.2807C15.5504 11.3238 15.0463 11.4348 14.5484 11.6136C14.0505 11.7924 13.559 12.1161 13.0737 12.5848C12.4561 13.189 11.8574 13.8626 11.2776 14.6057C10.6978 15.3487 10.1401 16.1056 9.60437 16.8763C9.06869 17.647 8.55822 18.3746 8.07296 19.059C7.5877 19.7434 7.1308 20.3261 6.70225 20.807C6.34303 21.2078 5.94599 21.4776 5.51115 21.6163C5.0763 21.7551 4.64461 21.769 4.21606 21.658C3.78752 21.547 3.40309 21.3219 3.06278 20.9828ZM14.3687 10.0783L16.4201 9.54187C16.502 9.52337 16.5666 9.4725 16.6139 9.38926C16.6612 9.30602 16.6722 9.22124 16.647 9.13492C16.6281 9.0486 16.5793 8.98231 16.5005 8.93607C16.4217 8.88983 16.335 8.88212 16.2405 8.91294L14.1987 9.44938C13.997 9.49871 13.9182 9.6282 13.9623 9.83784C13.9749 9.93649 14.0238 10.0074 14.1088 10.0506C14.1939 10.0937 14.2805 10.103 14.3687 10.0783ZM14.123 9.06092L16.146 8.53374C16.2342 8.50907 16.3019 8.45821 16.3492 8.38113C16.3965 8.30406 16.4075 8.21619 16.3823 8.11754C16.3571 8.03121 16.3051 7.96647 16.2263 7.92331C16.1475 7.88015 16.064 7.86782 15.9758 7.88632L13.9339 8.432C13.8457 8.4505 13.778 8.49983 13.7307 8.57998C13.6834 8.66014 13.6724 8.7403 13.6976 8.82046C13.7606 9.04243 13.9024 9.12259 14.123 9.06092ZM13.8678 8.04355L15.9002 7.51636C15.9884 7.4917 16.0562 7.43928 16.1034 7.35913C16.1507 7.27897 16.1586 7.19265 16.1271 7.10016C16.1082 7.01383 16.0578 6.94755 15.9758 6.90131C15.8939 6.85506 15.8119 6.84427 15.73 6.86893L13.6787 7.40538C13.5905 7.43004 13.5243 7.48245 13.4802 7.5626C13.4361 7.64276 13.4266 7.72292 13.4518 7.80308C13.477 7.90173 13.5274 7.97264 13.603 8.0158C13.6787 8.05896 13.7669 8.06821 13.8678 8.04355ZM18.0838 11.5674L18.9346 11.3824L17.753 7.1834L16.9022 7.34988L18.0838 11.5674ZM4.83998 20.4001C5.16138 20.4001 5.43552 20.2891 5.6624 20.0671C5.88928 19.8451 6.00272 19.5769 6.00272 19.2625C6.00272 18.948 5.88928 18.6782 5.6624 18.4532C5.43552 18.2282 5.16138 18.1157 4.83998 18.1157C4.51857 18.1157 4.24285 18.2282 4.01282 18.4532C3.7828 18.6782 3.66778 18.948 3.66778 19.2625C3.66778 19.5769 3.7828 19.8451 4.01282 20.0671C4.24285 20.2891 4.51857 20.4001 4.83998 20.4001Z" fill="black" fill-opacity="0.8"/>
</svg>
